<?xml version="1.0" standalone="no"?>

<!DOCTYPE svg PUBLIC "-//W3C//DTD SVG 20010904//EN"

 "http://www.w3.org/TR/2001/REC-SVG-20010904/DTD/svg10.dtd">

<svg version="1.0" xmlns="http://www.w3.org/2000/svg"

 width="591.000000pt" height="600.000000pt" viewBox="0 0 591.000000 600.000000"

 preserveAspectRatio="xMidYMid meet">

<path fill="#f3f5f1" stroke="none" d="
M0 300

L0 0

L296 0

L591 0

L591 300

L591 600

L296 600

L0 600

L0 300

Z

"/>

<path fill="#036441" stroke="none" d="
M0 387

C0 203 0 176 2 187

C6 229 16 274 35 334

C52 389 57 415 57 453

C57 495 51 529 39 562

L34 575

L24 584

C15 592 15 593 15 596

L16 600

L8 600

L0 600

L0 387

Z

M35 598

C33 597 29 596 26 596

L21 596

L30 587

C40 578 40 577 44 566

C56 536 60 514 63 475

C65 448 63 420 57 392

C54 375 50 361 41 331

C20 264 11 219 7 175

C4 135 9 82 20 47

C23 36 23 33 23 25

C23 19 23 12 23 10

C22 5 22 5 25 4

C26 3 28 3 30 4

C34 5 47 14 48 16

C48 16 46 18 44 19

C30 28 23 55 21 110

C17 184 25 234 55 330

C68 372 73 395 75 426

C78 461 72 501 60 546

C54 567 52 576 51 589

L51 600

L45 600

C41 600 37 599 35 598

Z

M57 597

C57 589 59 572 61 564

C71 528 75 510 78 495

C80 478 80 478 83 477

C85 477 87 476 89 474

L92 472

L93 479

C93 486 93 487 91 491

C88 496 88 501 90 507

C93 514 92 516 88 526

C82 537 81 543 86 548

C89 552 93 554 96 554

C98 554 98 554 97 555

C91 560 88 569 91 574

C92 575 93 576 92 578

C92 579 92 581 93 582

C94 585 94 586 91 589

C90 592 89 593 89 596

L90 600

L73 600

L57 600

L57 597

Z

M97 598

C95 596 95 594 100 588

C102 585 103 582 101 582

C99 581 99 579 101 576

C102 573 102 573 99 572

C97 571 96 569 96 569

C96 567 99 563 101 560

L104 558

L105 565

C110 584 110 589 109 592

C107 596 103 600 101 600

C100 600 98 599 97 598

Z

M128 599

C127 598 128 598 131 598

C133 598 137 597 138 597

C141 595 144 590 144 584

C144 581 143 580 140 576

C137 573 134 569 133 567

C131 564 129 563 125 562

C119 560 115 558 112 554

C110 552 107 547 108 547

C109 547 112 549 115 552

C119 555 123 558 126 559

C133 563 142 561 145 556

C148 552 147 542 143 536

C141 533 140 531 141 529

C141 527 141 524 139 522

C138 520 138 517 138 514

C138 509 138 509 133 504

C130 501 126 498 120 496

C114 494 111 492 107 487

C104 484 101 482 100 482

C99 482 99 481 99 479

C99 477 99 474 98 473

C98 472 100 474 103 477

C116 488 128 489 134 479

C136 474 135 466 132 460

C129 456 129 456 131 453

C133 449 132 443 129 439

C127 437 122 432 116 428

C111 424 105 420 104 418

C102 417 100 415 99 414

C97 413 97 412 97 408

C97 400 98 399 101 404

C104 413 115 420 123 420

C134 420 141 409 136 399

C134 395 134 394 136 394

C138 393 140 387 139 383

C138 378 136 376 129 369

C124 363 121 359 118 354

C116 349 113 344 111 342

C108 339 108 339 108 335

C110 328 112 330 115 340

C119 358 128 367 140 365

C144 364 147 361 147 357

C147 353 147 353 150 353

C159 353 159 341 150 334

C148 332 148 331 149 329

C152 323 149 318 137 309

C126 302 123 299 120 292

C118 287 118 286 120 289

C122 292 132 299 138 301

C143 304 148 303 151 301

C156 297 154 281 147 273

C145 270 143 267 143 266

C143 262 141 259 137 254

C133 250 133 250 135 250

C138 250 144 246 146 243

C149 240 149 235 148 231

C146 227 146 227 148 225

C148 224 149 221 150 219

C150 216 150 214 147 208

C145 204 141 198 139 195

C134 190 133 189 135 177

L135 172

L140 177

C142 180 145 182 146 182

C146 182 148 187 148 193

C151 208 156 228 161 247

C167 268 169 280 169 296

C169 304 169 308 170 309

C171 310 172 312 171 312

C171 314 174 319 176 319

C183 322 188 330 191 344

C197 364 199 385 200 427

C200 459 199 475 196 500

C192 525 183 567 175 592

L173 600

L151 600

C139 600 129 600 128 599

Z

M180 598

C185 583 193 551 197 532

C205 493 206 474 206 428

C205 379 203 358 196 335

C193 326 188 320 182 316

C180 314 178 313 178 312

C178 311 187 306 193 302

C197 300 199 300 201 300

C203 301 204 301 204 302

C205 302 204 306 203 310

C201 319 202 327 206 342

C221 395 224 455 214 514

C210 539 203 570 196 593

L194 600

L187 600

C181 600 180 600 180 598

Z

M201 598

C214 554 223 510 225 480

C226 473 226 464 227 460

L227 454

L230 455

C232 456 234 457 235 457

C236 458 237 460 237 472

C238 480 238 489 239 491

C239 496 239 496 237 496

C236 495 233 495 230 496

C224 499 221 507 224 516

C226 519 226 519 224 522

C222 525 222 532 224 537

C227 544 238 554 244 554

C245 554 246 555 246 556

C247 560 247 560 242 556

C236 552 231 552 225 555

C222 557 220 561 220 565

C220 566 219 567 218 569

C214 573 216 583 221 589

C222 590 228 593 233 595

C239 597 243 599 243 600

C243 600 233 600 222 600

L201 600

L201 598

Z

M280 597

C277 594 276 594 272 594

C269 594 267 594 267 594

C267 594 270 591 274 588

C282 582 286 577 286 573

C286 569 284 564 282 562

C280 561 280 560 282 557

C284 551 282 547 278 543

C272 536 261 539 255 548

C251 554 251 550 256 542

C261 533 264 528 270 522

C273 518 274 516 274 512

C274 510 274 507 273 506

C272 504 272 503 275 501

C280 495 281 490 278 487

C276 485 270 484 268 487

C266 488 265 488 263 485

C261 483 259 482 256 482

C252 482 251 483 248 485

C244 489 244 487 249 481

C255 472 258 469 268 464

C282 457 285 454 285 446

C285 443 284 441 282 439

C279 435 279 435 280 433

C281 432 282 430 283 428

C290 416 276 406 263 414

C257 417 255 420 250 432

C247 437 245 442 244 442

C244 443 244 438 244 433

C245 424 245 422 247 417

C252 407 256 404 269 397

C282 390 285 387 285 383

C285 379 282 373 279 373

C278 373 278 373 281 367

C286 360 286 357 282 353

C279 350 279 350 271 350

C266 350 263 350 260 351

C258 352 257 353 256 353

C256 353 257 350 259 348

C262 345 265 343 270 340

C278 336 283 332 283 329

C283 328 284 326 286 324

C291 316 288 310 278 308

C275 307 270 307 268 308

C263 308 263 308 264 306

C265 305 266 303 268 302

C283 293 285 291 285 282

C285 278 285 274 286 272

C288 265 282 259 275 260

C273 261 272 261 272 260

C272 259 274 256 276 253

C286 240 291 225 289 216

C289 210 287 208 284 205

C282 203 282 203 282 194

C282 187 283 184 285 180

C288 174 293 166 294 166

C294 166 295 170 295 176

C298 219 310 269 333 346

C350 399 355 437 351 485

C348 518 344 536 333 562

C328 575 327 577 315 588

C311 591 310 593 310 596

L310 600

L297 600

L283 600

L280 597

Z

M330 598

C328 597 324 596 321 596

L316 596

L324 588

C334 579 336 575 343 554

C352 527 356 507 359 463

C359 450 358 425 355 408

C351 384 347 366 335 329

C324 293 314 255 308 226

C297 162 299 101 315 46

C319 32 319 22 318 10

C317 4 317 4 320 4

C322 3 324 4 328 6

C335 9 343 15 343 16

C343 16 341 18 338 19

C336 21 333 24 331 27

C325 37 319 59 317 87

C315 106 315 175 317 189

C322 228 333 275 347 322

C363 372 368 394 370 428

C372 462 367 501 354 546

C348 568 347 574 346 588

L346 600

L340 600

C336 600 332 599 330 598

Z

M352 594

C352 584 355 568 359 555

C366 529 371 508 375 482

C375 479 376 478 378 477

C380 477 382 476 384 474

L387 472

L387 480

C388 486 388 488 386 491

C383 495 383 501 385 509

L387 516

L383 526

C380 531 378 537 378 538

C376 544 383 552 389 554

L392 554

L388 559

C385 565 384 569 386 573

C387 575 387 577 387 578

C387 580 387 582 388 583

C389 584 388 585 387 588

C385 590 385 592 385 595

L385 600

L368 600

L352 600

L352 594

Z

M392 598

C389 596 389 595 394 589

C397 584 398 582 396 582

C394 581 393 577 395 577

C397 575 396 572 394 571

C392 571 391 569 391 568

C391 566 396 558 398 558

C399 558 405 589 404 591

C403 594 398 600 396 600

C395 600 393 599 392 598

Z

M422 599

C421 598 422 598 425 598

C431 598 435 596 437 592

C440 586 440 582 435 576

C432 574 430 570 429 568

C427 564 424 563 417 561

C413 559 410 558 407 555

C402 549 401 546 407 550

C409 551 412 553 413 555

C422 563 437 563 441 554

C443 550 441 541 438 536

C436 533 435 532 436 529

C436 526 436 524 434 522

C433 521 433 518 433 515

C433 507 430 503 416 497

C409 493 405 491 402 487

C399 484 396 482 395 482

C395 482 394 481 394 480

C394 479 394 477 393 475

L393 472

L398 477

C405 483 411 486 417 486

C423 486 426 483 429 478

C431 473 430 469 427 462

C424 456 424 456 426 452

C429 444 425 438 414 430

C410 428 404 423 400 419

L392 413

L392 406

C392 398 392 398 397 407

C405 421 424 425 431 413

C433 409 433 401 431 397

C429 395 429 394 432 392

C437 387 433 377 423 368

C419 364 417 362 414 355

C412 351 409 345 407 343

C405 341 403 338 403 337

C403 328 407 330 409 340

C413 357 423 367 434 365

C439 364 442 360 442 356

C442 353 442 353 445 353

C449 353 451 351 452 348

C452 343 451 340 447 335

C443 332 443 331 444 328

C447 322 443 316 430 308

C421 302 416 297 414 289

C413 287 414 288 417 291

C425 299 440 305 445 302

C451 299 450 282 442 274

C439 270 438 268 438 265

C437 261 436 259 432 255

C428 250 428 250 430 250

C433 250 439 247 441 243

C444 240 444 233 442 229

C441 228 442 226 443 223

C445 219 445 218 444 214

C442 208 438 200 433 195

L428 190

L429 182

C430 178 430 174 430 173

C430 172 432 174 435 177

C437 180 440 182 441 182

C442 182 443 186 444 192

C446 207 451 228 456 247

C462 269 464 278 464 294

C464 304 464 307 465 309

C466 310 467 312 467 313

C467 315 468 317 470 318

C479 325 482 329 485 339

C492 361 494 386 494 438

C494 472 494 478 492 493

C488 521 480 561 471 592

L468 600

L446 600

C428 600 423 600 422 599

Z

M475 598

C477 594 486 559 489 545

C499 502 501 480 501 439

C501 384 497 348 488 329

C486 323 481 318 475 314

L473 312

L477 309

C479 308 484 305 487 303

C493 300 494 300 497 301

C499 301 499 302 499 304

C499 305 499 312 498 318

C498 328 498 330 501 339

C509 367 513 394 515 429

C517 472 512 514 497 570

C494 582 491 593 491 596

L490 600

L482 600

C476 600 475 600 475 598

Z

M496 598

C497 597 498 593 499 590

C510 550 519 504 521 471

L522 454

L525 456

C527 456 529 457 530 457

C531 458 532 460 532 471

C533 478 533 487 534 490

C534 496 534 496 532 496

C531 495 528 495 525 496

C519 499 516 506 519 515

C521 519 521 520 519 522

C517 525 517 532 519 537

C522 544 533 554 539 554

C540 554 541 555 541 556

C542 560 542 560 538 557

C529 549 515 554 515 565

C515 566 514 567 513 569

C510 573 510 580 514 585

C517 589 518 591 524 593

C527 595 532 597 535 598

L539 600

L517 600

C497 600 496 600 496 598

Z

M575 597

C572 594 571 594 567 594

C564 594 562 593 562 593

C562 593 564 592 566 591

C573 587 580 579 581 575

C581 571 580 565 577 563

C575 561 575 561 577 557

C578 553 578 551 576 546

C574 542 569 539 564 539

C559 539 553 543 550 548

C548 551 547 552 547 550

C547 548 558 529 563 523

C569 517 570 513 569 508

L567 504

L571 499

C576 494 576 490 573 487

C571 485 565 484 563 486

C561 488 560 488 558 485

C554 481 548 481 543 485

C539 489 539 487 544 480

C551 471 553 469 562 464

C574 458 577 456 579 451

C581 446 580 441 576 438

C574 435 574 435 575 433

C576 432 577 430 578 428

C585 416 571 406 558 414

C552 417 550 420 545 432

C542 437 540 442 539 442

C539 443 539 439 539 434

C539 426 540 424 542 417

C547 407 551 404 564 397

C576 391 579 388 580 384

C581 381 578 375 575 373

L573 372

L577 366

C581 359 581 357 577 353

C575 350 574 350 568 349

C564 349 561 349 557 351

C554 352 551 353 551 353

C551 352 552 350 554 348

C556 345 560 343 565 340

C573 336 578 332 578 330

C578 329 579 326 580 324

C584 318 585 316 581 312

C578 308 570 307 563 308

L558 308

L559 306

C560 305 563 302 565 301

C577 295 580 290 580 282

C580 279 580 274 581 272

C581 270 581 267 581 265

C580 262 574 260 570 260

C569 261 567 260 567 260

C567 259 569 256 571 253

C581 239 586 226 584 217

C584 211 582 206 579 205

C577 204 577 203 577 195

C577 186 577 185 581 178

C583 174 586 170 588 168

L591 165

L591 382

L591 600

L585 600

C579 600 578 600 575 597

Z

M250 596

C249 595 243 592 237 590

C226 585 223 582 223 576

C223 573 223 572 226 571

C227 570 229 569 229 569

C229 569 229 568 228 567

C226 564 227 561 231 560

C234 558 239 561 243 566

C244 568 246 570 247 570

C248 571 249 574 251 584

C252 591 253 597 253 597

C253 598 251 597 250 596

Z

M544 595

C542 594 537 592 532 590

C528 588 522 585 521 584

C516 579 516 572 522 570

C524 570 525 568 523 567

C521 565 522 562 524 560

C529 558 533 560 540 568

C541 570 542 571 543 571

C544 571 548 595 548 597

C548 597 546 597 544 595

Z

M127 590

C126 590 123 589 121 588

L116 586

L114 576

C113 570 112 565 112 564

C112 564 114 564 117 565

C120 566 123 568 125 568

C126 569 128 571 130 573

C131 575 134 578 135 580

C138 582 139 585 136 589

C135 591 131 592 127 590

Z

M259 590

C257 585 255 571 256 570

C258 569 259 565 258 562

C257 556 260 549 264 547

C273 543 280 551 274 559

C270 563 270 565 273 565

C276 565 279 568 279 573

C279 576 276 579 266 586

C261 590 259 591 259 590

Z

M418 589

C415 588 412 587 412 586

C411 586 410 580 409 574

C407 564 406 563 408 564

C409 564 412 565 415 566

C420 568 422 569 424 573

C426 575 428 579 430 580

C433 582 434 585 431 589

C429 592 424 592 418 589

Z

M554 590

C552 586 550 570 551 570

C553 569 554 565 553 562

C552 554 558 546 564 546

C571 546 573 553 569 559

C565 563 565 565 568 565

C571 565 574 569 574 573

C574 576 572 578 564 584

C554 591 554 591 554 590

Z

M129 554

C128 553 122 549 117 545

L106 537

L105 526

C103 513 100 493 100 491

C100 490 101 491 104 494

C106 496 112 500 118 503

C124 506 129 509 130 510

C132 513 132 513 130 520

C129 521 129 522 131 523

C135 525 135 527 134 531

C132 534 132 534 135 537

C139 541 141 548 140 551

C139 554 134 556 129 554

Z

M424 554

C422 553 417 549 411 545

L401 538

L400 527

C397 513 395 495 395 492

C395 490 395 490 399 494

C402 496 405 499 407 500

C417 504 423 508 425 510

C427 513 427 513 426 517

L424 521

L427 524

C430 527 430 527 429 531

C427 534 427 534 429 536

C433 539 435 544 435 549

C435 552 435 553 432 554

C429 555 427 555 424 554

Z

M92 545

C89 542 89 541 89 539

C90 536 96 523 97 522

C97 522 98 526 99 532

C100 540 100 542 99 544

C97 548 95 548 92 545

Z

M242 546

C240 545 237 544 236 542

C228 535 227 523 233 523

C236 523 235 520 233 517

C228 511 229 502 234 502

C239 502 240 503 240 506

C240 508 241 518 242 528

C244 539 245 547 245 548

C245 548 243 547 242 546

Z

M387 546

C385 544 384 542 384 540

C384 537 391 522 392 522

C392 523 395 537 395 540

C395 542 394 544 393 546

L390 548

L387 546

Z

M537 546

C527 542 522 531 525 525

C526 524 527 523 528 523

C531 523 531 520 528 518

C525 515 524 509 525 505

C527 502 529 501 533 502

C534 503 535 504 535 506

C535 507 536 517 537 528

C539 539 540 547 540 548

C540 548 538 547 537 546

Z

M250 537

C250 537 249 531 249 524

C246 503 246 504 248 503

C252 501 254 497 252 493

C251 491 251 491 252 489

C255 487 258 488 259 491

C261 494 264 495 269 493

C274 490 274 492 269 498

C266 501 264 503 264 504

C264 504 265 506 266 507

C269 511 268 513 263 520

C260 523 257 527 255 530

C252 536 250 539 250 537

Z

M545 537

C545 536 543 516 542 508

C541 505 541 504 543 503

C547 501 549 497 547 493

C546 491 546 491 547 489

C550 487 553 488 554 491

C556 494 559 495 564 493

C569 490 569 492 564 498

C561 501 559 503 559 504

C559 504 560 506 561 507

C564 511 564 514 560 518

C558 519 554 525 551 529

C548 534 545 538 545 537

Z

M115 477

C109 474 106 471 103 465

C101 461 99 458 98 457

C97 455 97 449 97 438

L97 421

L103 426

C106 429 112 433 116 436

C120 439 123 442 124 444

C126 448 126 448 125 450

C124 451 122 452 121 452

C119 452 120 455 122 458

C126 463 129 470 129 473

C129 476 125 480 122 480

C121 480 117 479 115 477

Z

M411 479

C406 476 400 470 397 464

C396 462 394 459 393 459

C392 458 392 455 392 439

L392 421

L396 425

C399 427 404 431 409 435

C419 442 422 446 420 449

C419 450 418 452 416 452

C414 453 414 453 416 456

C416 457 418 460 420 462

C423 467 424 472 423 476

C420 480 417 481 411 479

Z

M244 465

C243 456 243 455 245 453

C248 449 254 439 257 433

C260 425 266 418 271 417

C274 417 275 417 277 419

C280 423 279 426 272 433

C267 438 267 440 272 441

C276 441 279 444 279 447

C279 450 273 455 264 459

C257 462 251 466 247 472

L244 476

L244 465

Z

M539 465

L538 455

L542 450

C546 444 550 438 552 432

C557 420 569 413 573 420

C574 423 572 428 567 433

C562 438 562 440 567 441

C571 441 574 444 574 447

C574 450 568 455 559 459

C552 462 546 466 542 472

L539 476

L539 465

Z

M82 454

L82 438

L86 434

C88 433 90 431 90 431

C91 431 91 438 91 447

L91 463

L87 467

C85 469 83 471 82 471

C82 471 81 465 82 454

Z

M377 454

L377 438

L381 434

L385 431

L385 438

C386 452 386 461 385 464

C383 467 378 471 377 471

C376 471 376 464 377 454

Z

M230 449

C227 447 227 446 227 436

C226 431 226 426 226 425

C227 425 228 427 230 429

C231 432 234 434 235 435

C237 437 237 438 237 444

C237 452 236 453 230 449

Z

M525 449

C522 447 522 446 522 437

C522 431 522 426 522 426

C522 426 523 427 524 428

C525 429 527 432 529 434

C532 437 532 438 532 444

C532 452 531 453 525 449

Z

M82 428

C82 428 81 421 80 414

C78 386 73 364 61 328

C46 280 37 245 32 210

C27 183 26 162 27 123

C28 90 30 71 33 54

C38 35 41 30 52 21

C54 19 55 18 55 15

C55 14 55 12 56 12

C57 11 57 8 57 5

L57 0

L73 0

C89 0 90 0 92 2

C95 6 99 7 103 7

C107 6 107 6 98 12

C89 18 87 23 87 29

C88 31 89 35 90 36

C92 39 92 39 91 43

C90 45 90 48 90 50

C91 54 96 60 101 61

C107 62 115 57 119 51

C120 49 121 48 121 49

C122 51 111 69 105 76

C99 82 97 90 100 95

C101 95 101 96 100 97

C97 98 93 105 93 108

C93 114 99 117 105 114

C107 112 108 112 110 115

C114 120 122 119 127 113

C128 112 128 112 128 113

C128 114 125 118 122 122

C116 130 115 131 106 135

C94 141 90 144 88 149

C86 153 87 157 91 162

L94 165

L92 167

C84 176 89 189 101 189

C109 189 117 181 122 170

C123 167 126 162 127 160

L129 157

L129 167

C128 176 128 177 125 183

C120 193 116 197 104 203

C93 208 88 212 87 216

C87 219 89 225 92 226

C93 227 95 227 95 228

C95 228 94 230 92 232

C90 235 89 238 88 240

C88 243 88 244 91 247

C95 251 102 252 110 249

C114 248 117 247 117 247

C117 248 108 258 106 259

C104 259 101 261 98 263

C93 265 91 267 90 270

C89 273 87 276 86 278

C83 282 83 284 86 287

C89 291 92 292 102 292

L110 292

L108 295

C107 296 104 298 101 300

C98 302 93 305 91 307

C88 311 88 312 88 316

C88 319 88 324 87 327

C86 330 86 333 87 334

C88 338 93 340 98 340

C99 339 101 340 101 340

C101 341 99 343 97 346

C92 353 85 366 84 372

C82 381 83 390 88 394

C91 397 91 397 91 405

C91 412 91 415 89 419

C87 422 86 424 86 425

C86 425 85 427 84 428

C83 428 82 429 82 428

Z

M376 424

C376 417 374 398 371 384

C368 368 365 355 356 328

C335 259 325 217 322 173

C321 156 321 114 323 91

C325 65 329 44 335 33

C337 29 339 27 343 24

C349 20 351 16 350 14

C349 14 350 13 351 12

C351 10 352 7 352 5

L352 0

L368 0

C384 0 385 0 386 2

C388 5 394 7 398 7

C401 6 401 6 394 11

C390 14 386 18 384 20

C381 25 381 31 385 35

C387 39 387 40 386 43

C382 53 391 63 402 60

C407 59 412 55 414 51

C415 49 416 48 416 49

C416 51 406 69 400 76

C393 83 392 87 394 92

C395 96 395 96 392 100

C389 103 388 105 388 108

C388 114 395 117 400 113

C402 112 402 112 405 115

C407 118 408 118 412 118

C415 118 417 117 419 115

C421 113 423 112 423 113

C423 113 420 117 417 122

C411 130 410 131 400 136

C389 141 384 146 382 151

C381 154 384 161 386 163

L389 164

L386 169

C383 174 382 180 385 184

C388 189 396 190 403 187

C407 185 415 177 415 175

C415 173 423 157 424 157

C424 157 424 162 424 167

C423 176 423 178 420 183

C415 193 411 197 398 203

C386 209 382 212 382 217

C382 220 385 225 388 227

C390 228 390 228 388 230

C376 244 387 256 406 249

C409 248 411 247 412 247

C412 247 410 249 408 252

C406 254 402 257 397 260

C389 265 385 268 385 270

C385 271 384 273 382 276

C378 281 378 285 381 288

C384 291 388 292 396 292

C401 292 404 292 404 293

C404 294 400 298 395 300

C389 304 383 310 383 314

C383 315 383 317 383 319

C381 326 381 333 382 335

C384 338 389 340 393 340

C394 339 396 339 396 340

C396 340 394 343 392 345

C388 352 381 363 380 370

C377 380 378 390 383 394

L386 397

L386 406

C385 413 384 416 382 422

C378 430 376 431 376 424

Z

M234 424

C232 422 230 419 229 419

C226 418 225 416 224 404

C223 386 218 361 212 340

C209 327 209 326 209 317

C210 311 210 304 211 301

C211 298 211 295 211 294

C212 292 210 288 202 282

C194 275 193 273 186 256

C176 229 171 200 169 161

C168 123 174 88 189 40

C192 31 195 18 197 12

L201 1

L222 0

C235 0 244 0 245 1

C246 2 245 2 241 2

C233 2 229 7 229 15

C229 19 230 20 233 24

C235 26 237 29 238 31

C241 35 244 38 250 39

C256 40 264 47 264 50

C264 51 264 52 263 52

C263 52 260 50 257 47

C249 40 245 39 238 39

C232 40 231 40 229 43

C225 47 225 54 229 62

C231 66 232 69 232 72

C232 75 233 77 233 79

C234 80 235 83 235 86

C235 93 239 97 252 103

C259 107 263 109 266 113

C269 116 272 118 273 118

C274 118 274 120 274 123

L274 127

L270 124

C263 117 257 114 251 114

C246 114 245 114 242 118

C238 121 238 122 238 127

C238 131 239 134 241 139

C244 144 244 145 242 146

C242 148 241 150 241 153

C241 159 245 163 257 172

C262 176 268 180 269 182

C270 183 273 185 274 186

C276 187 277 191 275 198

L274 201

L272 196

C270 191 265 185 260 182

C258 182 254 181 252 180

C244 180 240 182 237 187

C235 192 235 196 237 201

C238 205 238 206 236 207

C231 213 233 220 243 231

C249 237 252 241 254 245

C257 251 259 256 263 259

C265 260 265 261 264 264

C264 266 263 268 263 268

C262 269 259 265 259 261

C258 255 252 243 248 240

C243 235 236 234 230 237

C227 238 225 242 226 245

C226 247 226 247 223 247

C214 247 214 259 223 266

C225 268 225 269 224 271

C221 277 224 282 236 291

C247 298 251 302 253 309

L255 314

L252 310

C246 304 234 297 227 297

C221 297 219 300 219 308

C219 316 221 322 226 327

C229 330 230 333 230 334

C230 338 232 342 236 345

C240 349 240 350 237 350

C233 350 228 354 226 358

C224 362 224 367 225 370

C227 373 227 373 225 376

C224 377 223 380 223 382

C223 387 229 399 235 405

L239 410

L238 419

C238 424 237 428 237 428

C237 428 235 426 234 424

Z

M530 425

C529 423 524 419 522 418

C522 418 521 412 520 406

C518 383 514 361 507 339

C504 326 504 325 505 317

C505 312 505 305 506 303

C506 300 506 296 507 294

C507 291 507 291 494 278

C489 274 488 272 483 260

C470 227 465 194 465 150

C465 113 469 88 486 34

C489 23 493 11 494 7

L496 0

L518 0

C532 0 540 0 541 1

C541 2 539 2 536 2

C528 2 524 7 524 15

C524 19 525 20 528 24

C530 26 532 29 533 31

C536 35 539 38 545 39

C551 40 559 47 559 50

C559 51 559 52 558 52

C558 52 555 50 552 47

C544 40 540 39 533 39

C527 40 526 40 524 43

C522 45 521 47 521 51

C521 55 524 63 526 66

C527 67 527 69 527 72

C527 74 527 77 528 79

C529 80 530 83 530 86

C530 93 534 97 547 103

C554 107 558 109 561 113

C564 116 567 118 568 118

C569 118 569 120 569 123

L569 127

L564 122

C557 117 552 114 546 114

C541 114 540 114 537 118

C533 121 533 122 533 127

C533 131 534 134 536 139

C539 144 539 144 537 147

C535 150 536 157 539 161

C541 163 546 168 552 172

C557 175 562 180 564 182

C565 183 568 185 569 186

C571 187 571 188 571 191

C571 194 570 197 570 198

C569 200 569 200 568 196

C565 191 559 185 555 182

C553 181 549 181 545 181

C538 181 538 181 534 184

C530 189 529 194 531 200

C533 205 533 206 531 207

C526 213 528 220 539 231

C543 236 547 241 549 244

C551 250 555 256 558 259

C560 260 560 261 559 264

C559 268 557 269 555 267

C555 266 554 263 553 260

C551 248 544 239 538 236

C529 233 519 238 521 245

C521 247 521 247 518 247

C509 247 509 259 518 266

C520 268 520 269 519 271

C517 275 518 281 523 285

C524 286 528 288 533 291

C541 297 545 301 548 308

C550 313 550 314 548 311

C547 309 543 306 540 304

C523 293 514 295 514 308

C514 316 516 322 521 327

C524 330 525 332 525 334

C525 338 527 342 531 345

C533 347 534 349 534 349

C534 349 532 350 531 350

C522 352 516 362 520 370

C522 373 522 373 520 376

C519 377 518 380 518 382

C518 387 524 399 530 405

L534 410

L533 419

C533 424 532 428 532 428

C532 428 531 427 530 425

Z

M119 413

C114 411 109 407 106 401

C105 398 103 394 101 393

L99 390

L101 373

C105 352 106 347 107 347

C108 347 110 352 113 357

C117 366 119 369 124 372

C133 381 136 387 130 389

C123 390 123 392 127 397

C135 406 130 416 119 413

Z

M414 412

C407 410 405 408 401 401

C399 397 397 393 396 392

C394 390 394 389 394 384

C395 378 399 355 401 349

L401 347

L404 350

C405 351 407 355 408 358

C410 363 412 366 419 372

C429 383 431 388 423 389

C422 389 420 390 420 391

C419 393 419 394 422 396

C428 403 427 412 420 413

C419 414 416 413 414 412

Z

M246 402

C247 400 247 394 248 390

C249 384 250 380 251 379

C252 379 253 376 253 372

C254 364 256 361 263 358

C269 355 273 354 276 356

C279 358 278 360 274 366

C268 373 269 377 275 378

C278 379 280 382 278 385

C277 385 272 388 266 391

C260 394 254 398 251 401

L246 405

L246 402

Z

M541 403

C542 401 542 395 543 390

C544 384 545 380 546 379

C547 378 548 376 548 372

C549 364 551 361 558 358

C564 355 568 354 571 356

C574 358 573 360 569 366

C563 373 564 377 570 378

C573 379 575 382 573 385

C572 385 567 388 561 391

C555 394 549 398 546 401

L541 406

L541 403

Z

M235 395

C233 391 230 387 230 385

C229 382 229 381 230 379

C231 378 233 377 234 377

C236 377 236 375 234 371

C230 365 230 361 234 358

C238 356 242 355 242 358

C244 363 244 373 242 386

C241 394 240 400 240 401

C239 401 237 398 235 395

Z

M531 397

C529 394 527 389 526 387

C524 382 524 382 525 379

C526 378 528 377 528 377

C531 377 531 375 529 371

C526 367 525 365 526 362

C528 357 536 354 537 358

C539 364 539 372 538 384

C535 402 535 403 531 397

Z

M90 387

C89 381 91 372 93 365

C95 362 96 359 97 359

C97 360 96 365 95 372

C94 378 93 384 93 386

C93 389 91 390 90 387

Z

M385 385

C384 382 384 379 385 375

C386 370 391 358 392 358

C392 359 387 388 387 389

C386 389 386 387 385 385

Z

M131 357

C127 354 122 346 121 337

C119 332 118 330 116 328

C115 326 113 325 112 325

C111 324 111 322 113 313

C114 307 115 302 116 301

C116 300 117 302 120 304

C122 306 127 311 132 314

C136 316 141 320 142 322

C144 324 144 324 143 327

C142 328 140 330 140 331

C137 333 138 334 142 336

C146 338 151 344 151 345

C150 347 150 347 142 345

C137 345 137 345 137 347

C137 348 138 351 139 353

C141 356 141 356 139 358

C137 360 135 359 131 357

Z

M427 358

C422 356 417 347 415 334

C414 331 410 326 407 325

C406 324 406 323 408 312

C409 305 411 300 411 300

C412 300 412 300 412 301

C412 303 419 309 426 314

C436 320 438 322 438 325

C438 326 437 328 436 329

C432 332 432 334 436 335

C441 338 445 342 445 345

C445 347 445 347 443 347

C437 345 432 345 432 346

C431 347 432 349 434 352

C436 356 436 356 434 358

C432 359 430 359 427 358

Z

M242 343

C238 339 237 336 236 333

C235 328 233 323 231 323

C229 323 226 315 225 310

C225 303 226 302 231 304

C242 309 252 318 252 324

C252 326 248 347 248 348

C248 348 245 346 242 343

Z

M537 343

C534 340 532 336 532 335

C531 333 531 331 530 329

C530 328 528 325 526 323

C521 317 518 308 521 304

C522 303 522 303 526 304

C537 309 547 318 547 324

C547 327 543 347 543 348

C543 348 540 346 537 343

Z

M256 340

C256 340 257 336 257 332

C259 323 262 317 265 315

C268 314 280 314 281 316

C282 316 281 319 278 324

C275 330 274 331 267 334

C263 337 258 339 258 340

C257 341 256 341 256 340

Z

M551 340

C551 340 552 336 553 331

C554 322 557 317 560 315

C563 314 575 314 576 316

C577 316 576 319 574 323

C571 329 570 330 563 334

C558 336 554 339 553 340

C552 341 551 341 551 340

Z

M94 324

C94 319 95 314 96 312

C97 310 107 303 108 303

C108 304 107 309 106 316

C103 329 101 333 96 333

L93 333

L94 324

Z

M389 323

C389 314 389 313 392 310

C396 307 403 302 403 304

C403 305 402 310 401 317

C398 330 396 333 391 333

L388 333

L389 323

Z

M175 304

C175 303 175 302 176 301

C177 296 174 271 171 260

C153 193 150 175 151 134

C152 96 156 78 174 20

L180 1

L187 0

C193 0 194 0 194 2

C193 3 190 15 186 28

C168 86 163 112 163 150

C163 195 169 229 182 263

C188 277 189 279 201 290

C203 292 205 293 205 294

C205 294 202 295 199 295

C194 295 193 295 185 300

C180 303 176 304 175 304

Z

M471 298

C471 293 471 285 470 280

C469 270 467 264 460 235

C451 203 447 178 446 151

C445 112 450 80 464 35

C467 25 471 14 472 9

L475 0

L482 0

C486 0 489 0 489 1

C489 1 485 14 481 29

C467 74 462 93 459 121

C456 149 459 191 465 221

C468 236 476 260 481 272

C485 279 486 281 493 286

C497 290 500 293 500 293

C500 294 497 295 494 295

C488 295 485 296 474 303

L471 305

L471 298

Z

M253 296

C251 293 246 290 243 287

C235 282 229 277 229 275

C229 275 230 273 232 271

C234 269 235 267 235 267

C235 266 233 265 231 264

C227 262 222 257 222 254

C222 253 223 253 226 254

C235 256 238 254 234 248

C231 244 231 242 234 241

C242 240 248 247 252 262

C254 269 257 274 261 275

C262 275 262 279 260 287

C258 294 257 299 257 299

C257 300 255 298 253 296

Z

M548 296

C546 294 541 289 537 287

C528 281 524 277 524 275

C524 275 525 273 527 271

C529 269 530 267 530 267

C530 266 528 265 526 264

C522 262 517 257 517 254

C517 253 518 253 520 253

C522 254 525 254 527 255

C531 255 531 255 531 253

C531 252 530 249 529 248

C526 245 526 242 529 241

C537 240 543 247 547 262

C549 269 552 274 556 275

C557 275 557 278 555 286

C552 301 552 300 548 296

Z

M137 294

C129 290 124 285 122 280

C120 276 120 275 123 264

C124 258 125 252 125 252

C125 252 127 254 130 257

C135 261 136 263 137 267

C137 271 140 277 142 277

C145 277 149 291 148 295

C147 298 145 298 137 294

Z

M437 296

C435 295 431 293 427 291

C422 287 420 285 418 281

L415 276

L417 264

C419 258 420 252 420 252

C420 252 423 254 426 257

C429 261 431 264 431 265

C431 269 433 273 437 278

C439 280 441 282 441 283

C441 283 441 286 442 288

C443 292 442 297 440 297

C440 297 438 296 437 296

Z

M265 295

C265 292 269 273 270 271

C272 268 276 266 278 267

C279 267 280 269 279 276

C279 281 278 286 278 287

C277 289 267 296 266 296

C265 296 265 295 265 295

Z

M560 295

C560 292 564 274 565 271

C567 268 571 266 573 267

C574 267 575 269 574 276

C574 281 573 286 572 288

C571 290 562 296 561 296

C560 296 560 295 560 295

Z

M93 285

C90 284 90 283 93 279

C94 277 96 275 96 273

C97 271 99 269 104 266

C108 264 113 262 114 261

C115 260 116 259 116 259

C117 259 116 263 115 268

C114 277 110 284 107 285

C103 286 96 286 93 285

Z

M388 285

C385 284 385 282 388 278

C390 276 391 274 391 272

C391 271 394 269 399 267

C403 264 408 262 409 261

C410 260 411 259 411 259

C411 259 411 263 410 267

C409 277 405 285 402 285

C398 286 391 286 388 285

Z

M260 243

C257 236 255 233 249 228

C243 221 240 218 240 214

C240 212 240 212 245 211

C249 210 249 207 246 204

C240 197 240 191 246 187

C252 184 262 190 267 199

C268 202 270 206 272 207

L274 210

L273 220

C270 239 267 253 266 253

C265 253 263 249 260 243

Z

M555 243

C552 235 549 232 543 227

C536 220 534 216 535 213

C536 212 537 211 538 211

C541 211 544 209 544 208

C544 208 542 205 541 203

C538 200 537 198 537 194

C537 191 538 190 540 188

C543 186 545 185 550 188

C555 190 559 194 562 200

C563 202 565 206 567 207

L569 210

L568 220

C565 239 562 253 561 253

C560 253 558 249 555 243

Z

M97 244

C94 242 94 241 98 235

C105 226 104 223 98 222

C95 221 93 218 95 215

C96 215 102 211 108 208

C116 204 121 201 123 198

C125 196 126 195 126 195

C127 195 126 201 125 207

C124 217 123 220 122 221

C120 222 120 224 119 229

C119 236 117 239 111 242

C106 244 100 245 97 244

Z

M391 243

L389 241

L393 234

C399 225 399 224 392 221

C390 220 389 219 389 218

C389 216 391 214 401 209

C408 205 415 201 417 199

L421 195

L421 198

C421 207 418 219 416 221

C415 223 414 226 414 229

C414 235 411 239 406 242

C399 245 394 246 391 243

Z

M131 243

C129 238 129 228 131 215

C132 207 133 200 133 200

C134 199 140 207 142 213

C144 219 144 221 139 223

C136 224 136 225 140 229

C144 235 142 241 136 243

C133 244 131 244 131 243

Z

M426 243

C424 240 424 228 426 214

C427 206 428 199 428 199

C430 199 438 214 438 218

C438 221 437 221 435 222

C431 224 431 225 435 229

C438 233 438 238 435 241

C432 243 427 245 426 243

Z

M278 227

C279 218 281 211 281 211

C282 211 283 218 283 223

C282 228 277 242 276 242

C276 242 277 235 278 227

Z

M571 240

C571 239 572 233 573 227

C574 221 575 215 575 213

C575 210 577 211 578 215

C579 221 578 228 574 235

C573 239 571 241 571 240

Z

M96 180

C94 178 94 178 95 174

C96 173 99 169 101 167

C106 161 106 159 101 159

C94 159 92 153 96 149

C98 147 103 144 109 141

C118 136 123 133 127 126

C129 124 129 124 129 135

L129 146

L125 151

C122 155 115 168 115 171

C115 172 108 180 105 182

C101 184 99 183 96 180

Z

M391 181

C387 177 389 174 396 166

C401 161 401 159 396 159

C391 159 389 157 389 153

C389 149 391 148 404 141

C413 136 415 134 419 130

L424 124

L424 135

C424 146 424 146 422 149

C418 152 414 160 411 167

C408 174 404 180 399 182

C395 183 393 183 391 181

Z

M271 175

C269 173 263 168 259 165

C254 162 250 158 249 157

C246 153 247 149 251 148

C252 147 253 147 253 146

C253 146 251 142 249 139

C244 132 243 127 246 123

C247 121 249 120 251 120

C257 120 266 127 270 134

C271 137 273 140 274 141

C275 143 276 146 276 159

C276 180 277 180 271 175

Z

M566 175

C564 173 558 168 554 165

C550 162 545 159 544 157

C541 153 542 149 546 148

C549 147 549 146 545 140

C543 138 541 133 540 131

C539 126 539 126 541 123

C542 122 544 120 545 120

C551 119 561 126 565 134

C566 137 568 140 569 141

C570 143 571 146 571 158

C571 167 571 175 571 176

L571 179

L566 175

Z

M143 171

C142 169 140 166 139 165

C136 163 136 162 136 156

C136 150 136 149 138 149

C139 149 141 150 142 151

C145 153 145 154 145 164

C146 169 146 174 145 174

C145 174 144 173 143 171

Z

M435 168

L430 161

L431 155

C431 148 433 147 437 151

C440 153 440 155 440 164

C441 169 441 174 441 174

C441 174 438 171 435 168

Z

M282 154

C282 141 282 138 283 136

C285 132 290 129 293 129

L295 129

L295 143

L294 157

L288 163

L282 169

L282 154

Z

M577 153

L577 137

L580 133

C582 131 585 130 587 129

L591 128

L591 143

C591 151 591 157 590 157

C590 157 586 160 583 163

L577 169

L577 153

Z

M435 143

C431 142 430 141 430 120

L429 104

L433 104

C435 104 438 103 440 103

L442 101

L442 105

C441 108 441 117 440 127

C440 136 439 144 439 144

C439 145 437 144 435 143

Z

M139 143

C136 142 136 143 135 115

L134 104

L138 104

C140 104 143 103 145 103

L147 101

L147 104

C146 108 144 134 144 140

C144 144 144 144 139 143

Z

M281 124

C279 118 280 112 282 109

C284 104 285 99 283 93

C280 86 281 83 285 74

C291 63 291 57 287 52

C284 48 280 46 277 46

C275 46 275 46 277 43

C283 37 284 31 281 26

C281 25 280 23 280 22

C281 22 280 20 280 18

C279 16 279 15 281 12

C283 10 283 7 283 4

L284 0

L297 0

L311 0

L311 2

C310 4 311 9 311 14

C313 25 313 29 309 43

C303 63 298 90 296 111

L296 121

L292 122

C290 122 287 124 285 125

L281 127

L281 124

Z

M576 123

C575 117 575 113 577 109

C579 104 580 99 577 93

C575 85 576 83 580 74

C586 63 586 57 582 52

C579 48 575 46 572 46

C570 46 570 46 572 43

C578 37 579 31 576 26

C576 25 575 23 575 22

C576 21 576 19 575 18

C574 16 574 15 576 12

C578 10 578 7 578 4

L579 0

L585 0

L591 0

L591 61

L591 122

L588 122

C586 122 583 123 580 124

L576 127

L576 123

Z

M0 61

L0 0

L8 0

L16 0

L16 3

C16 5 16 11 17 16

C18 26 18 26 11 54

C7 71 4 89 2 110

C0 122 0 119 0 61

Z

M114 109

C112 105 109 104 104 107

C102 108 99 109 99 108

C99 108 100 106 103 103

C109 95 109 96 107 93

C104 89 104 86 110 80

C112 78 116 72 118 69

C120 65 122 62 123 62

C123 62 124 69 124 77

C125 84 126 92 126 93

C127 95 126 96 124 97

C121 99 119 103 121 106

C122 108 122 109 120 110

C118 113 116 112 114 109

Z

M409 110

C408 108 407 107 405 106

C403 105 402 105 399 107

C397 108 395 109 395 109

C393 110 395 106 399 102

C403 97 404 94 402 92

C399 90 400 85 405 80

C408 77 411 72 413 69

C415 66 417 63 417 63

C418 63 421 89 421 93

C421 94 420 96 418 98

C415 101 414 104 416 107

C417 108 417 109 415 110

C412 113 410 112 409 110

Z

M269 106

C265 102 263 101 253 96

C242 92 239 87 242 81

C245 79 244 78 241 77

C238 75 237 72 239 68

C241 66 241 65 237 63

C234 60 232 53 232 49

C233 47 237 45 241 45

C245 46 263 59 266 63

C267 65 274 110 273 110

C273 110 271 108 269 106

Z

M563 106

C561 104 558 101 556 100

C553 99 549 97 546 96

C537 92 534 86 537 81

C540 79 539 78 536 77

C533 75 532 72 534 68

C536 66 536 65 532 63

C529 60 527 53 527 49

C527 48 529 47 530 46

C535 44 539 45 551 54

C561 62 562 63 562 67

C565 87 568 109 568 110

C568 110 566 108 563 106

Z

M134 97

C133 97 128 53 128 52

C129 51 136 56 139 60

C145 66 145 76 140 77

C137 78 137 79 140 84

C144 88 144 95 141 97

C139 98 136 98 134 97

Z

M429 97

C429 97 427 90 426 79

C425 70 424 60 423 57

L423 52

L427 54

C438 60 443 74 435 77

C432 78 431 79 434 81

C438 85 440 95 436 97

C434 98 431 98 429 97

Z

M443 84

C442 82 442 81 443 78

C447 70 444 59 434 51

C431 49 428 47 426 46

C421 45 421 45 421 42

L421 40

L425 43

C432 48 440 48 445 42

C446 41 447 38 447 37

C447 35 448 34 448 33

C451 31 452 25 451 20

C449 13 445 9 434 4

L425 1

L446 0

C458 0 468 0 468 0

C468 1 465 12 461 25

C454 48 449 64 446 80

C444 86 444 86 443 84

Z

M148 83

C147 82 148 79 149 78

C150 74 150 67 149 63

C146 56 135 46 129 46

C128 46 127 45 127 44

C126 40 126 40 131 44

C134 46 137 47 140 47

C146 47 152 43 152 37

C152 36 153 33 155 31

C158 27 158 22 155 16

C152 11 149 8 138 4

L130 1

L151 0

C163 0 172 0 173 0

C173 1 169 12 165 26

C158 50 152 71 150 81

C150 85 149 86 148 83

Z

M274 68

C272 59 272 58 274 56

C276 51 278 51 281 55

C284 58 284 58 283 61

C283 64 276 78 276 78

C276 78 275 74 274 68

Z

M569 68

C567 59 567 58 569 56

C570 54 571 52 572 52

C573 52 579 57 579 60

C579 61 572 78 571 78

C571 78 570 74 569 68

Z

M99 52

C96 50 97 45 100 41

C102 37 103 35 101 35

C98 35 95 33 94 30

C92 26 95 22 102 17

C106 15 110 12 111 11

C112 10 113 9 114 9

C114 10 115 14 116 19

C118 28 118 29 116 31

C114 33 114 34 114 37

C115 43 113 48 110 51

C106 55 101 55 99 52

Z

M394 53

C392 52 391 48 392 46

C392 44 393 42 395 40

C396 39 397 37 397 36

C397 35 394 34 393 34

C392 35 389 32 388 28

C388 25 388 25 391 22

C393 20 398 16 402 13

L409 8

L410 14

C412 28 412 30 411 31

C409 32 409 34 409 39

C409 46 407 50 404 52

C401 54 396 55 394 53

Z

M269 40

C268 39 267 31 265 24

L262 11

L264 7

C267 1 271 -1 274 1

C278 2 278 6 274 11

C271 15 270 17 273 19

C274 20 274 20 273 23

C271 26 271 26 273 28

C277 30 277 31 276 34

C275 35 274 38 272 39

L269 42

L269 40

Z

M564 40

C561 33 558 11 558 9

C559 5 564 0 567 0

C573 0 573 5 569 11

C566 15 565 17 568 19

C569 20 569 20 568 23

C566 26 566 26 568 28

C569 28 570 29 570 29

C570 29 571 30 571 31

C572 33 570 37 567 40

C564 42 564 42 564 40

Z

M136 39

C134 38 132 36 130 34

C129 32 127 30 126 29

C124 29 122 20 120 7

L120 2

L130 7

C146 15 147 16 149 19

C152 24 151 28 147 29

C144 30 143 32 145 34

C146 34 146 38 145 39

C142 41 139 41 136 39

Z

M432 40

C430 39 427 36 424 33

L419 28

L417 15

C415 8 414 2 415 2

C415 2 417 3 419 4

C421 6 426 8 431 10

C441 14 445 18 445 24

C445 28 445 28 442 29

C439 30 438 32 440 34

C441 34 441 38 440 39

C438 41 434 41 432 40

Z

M256 35

C253 34 250 32 248 32

C247 31 245 29 244 27

C242 25 240 22 238 20

C234 17 234 13 237 10

C238 9 240 8 242 9

C246 10 254 12 255 13

C256 14 262 36 261 36

C261 37 258 36 256 35

Z

M551 35

C548 34 545 32 543 32

C542 31 540 29 538 27

C537 24 534 21 533 20

C528 16 530 7 537 9

C541 10 549 12 550 13

C551 14 557 36 556 36

C556 37 553 36 551 35

Z

M45 4

C39 0 39 0 45 0

L51 0

L51 4

C51 5 51 7 50 7

C50 7 48 6 45 4

Z

M339 4

L334 0

L340 0

L346 0

L346 4

C346 5 346 7 345 7

C345 7 342 5 339 4

Z

"/>

</svg>

