<?xml version="1.0" standalone="no"?>

<!DOCTYPE svg PUBLIC "-//W3C//DTD SVG 20010904//EN"

 "http://www.w3.org/TR/2001/REC-SVG-20010904/DTD/svg10.dtd">

<svg version="1.0" xmlns="http://www.w3.org/2000/svg"

 width="591.000000pt" height="591.000000pt" viewBox="0 0 591.000000 591.000000"

 preserveAspectRatio="xMidYMid meet">

<path fill="#f4f8f5" stroke="none" d="
M0 296

L0 0

L296 0

L591 0

L591 296

L591 591

L296 591

L0 591

L0 296

Z

"/>

<path fill="#6ca594" stroke="none" d="
M0 532

C1 500 1 472 1 470

C1 467 1 425 0 375

C0 288 0 284 2 285

C6 287 11 286 14 284

C20 278 19 269 11 266

C8 265 7 265 4 266

L0 268

L0 245

C0 223 0 222 2 219

C5 216 5 210 2 207

C0 204 0 203 0 190

L0 175

L3 173

C5 170 6 169 6 165

C6 162 5 160 3 158

C0 155 0 155 0 144

C0 136 0 133 2 132

C3 129 3 123 2 120

C-1 118 -1 42 2 40

C3 37 3 31 2 28

C0 27 0 23 0 13

L0 0

L5 0

C9 0 12 1 14 2

C16 3 19 4 20 4

C21 4 24 3 26 2

C29 0 31 0 61 0

L93 0

L91 3

C88 7 88 12 92 16

C94 18 96 19 99 19

C103 19 104 19 106 16

C110 12 110 6 107 3

L105 0

L220 0

L335 0

L337 2

C341 7 351 7 353 2

C354 0 356 0 380 0

L407 0

L405 3

C403 7 405 13 408 15

C411 17 417 18 420 16

C424 14 426 7 424 2

C423 0 426 0 489 0

C526 0 556 0 556 0

C556 1 556 2 555 4

C554 8 555 13 559 15

C561 17 567 18 570 16

C574 14 576 7 574 2

C573 0 574 0 582 0

L591 0

L591 14

L591 27

L589 26

C584 22 576 25 574 30

C572 34 573 39 577 42

C579 44 587 45 589 43

C591 40 591 45 591 80

L591 118

L587 116

C578 113 570 122 574 131

C576 135 584 138 589 134

L591 133

L591 144

L591 156

L587 155

C584 155 583 155 580 158

C576 162 575 165 577 169

C578 173 584 176 588 176

L591 175

L591 190

C591 205 591 205 589 204

C582 200 572 207 575 216

C576 222 582 225 589 223

L591 222

L591 245

C591 264 591 268 589 270

C587 273 587 278 589 281

C591 284 591 293 591 374

C591 462 591 463 589 462

C588 461 585 460 583 459

C579 459 579 459 576 462

C571 467 571 471 575 476

C578 480 583 481 587 478

L591 476

L591 534

L591 591

L582 591

C574 591 572 591 571 589

C570 588 567 588 565 588

C562 588 559 588 558 589

C556 591 552 591 490 591

C427 591 423 591 421 589

C420 588 417 588 415 588

C412 588 409 588 408 589

C407 591 404 591 380 591

L354 591

L355 587

C355 583 355 582 352 579

C345 572 335 577 335 586

L335 591

L219 591

C155 590 101 590 100 590

C98 590 81 590 62 591

C28 591 28 591 29 589

C33 582 28 574 20 574

C12 574 7 582 11 589

C12 591 12 591 6 591

L0 591

L0 532

Z

M487 584

C488 581 488 580 487 576

C486 572 479 556 477 555

C476 553 465 563 460 569

C455 575 455 581 459 585

C459 585 462 582 466 579

L473 573

L477 581

C481 589 481 590 483 589

C484 588 486 586 487 584

Z

M139 585

C145 580 144 571 136 568

C130 566 123 570 122 577

C122 581 122 581 125 584

C130 589 134 589 139 585

Z

M241 583

C247 578 246 569 238 566

C232 564 225 568 224 575

C224 579 224 579 227 582

C232 587 236 587 241 583

Z

M281 582

C285 581 286 578 286 574

C286 569 284 565 280 564

C275 563 272 564 268 567

C261 576 271 588 281 582

Z

M186 580

C192 576 192 566 185 562

C176 558 166 569 172 577

C176 582 181 583 186 580

Z

M87 578

C96 574 94 561 83 559

C79 559 79 559 75 562

C72 566 72 566 72 570

C73 578 80 582 87 578

Z

M385 578

C389 576 391 571 390 567

C389 562 386 560 381 559

C377 559 377 559 374 562

C369 567 369 571 372 575

C376 580 380 581 385 578

Z

M541 578

C550 574 548 561 537 559

C534 559 533 559 530 562

C527 564 527 565 527 569

C527 578 534 582 541 578

Z

M419 575

C430 570 427 555 415 555

C411 555 406 559 406 563

C405 567 407 573 411 574

C415 576 415 576 419 575

Z

M510 575

C512 575 511 573 508 567

C505 560 505 558 506 558

C506 557 511 557 515 556

C520 556 523 555 523 555

C523 552 519 547 515 546

C509 544 487 547 487 549

C487 552 497 571 500 573

C503 576 507 577 510 575

Z

M340 563

C353 557 364 551 364 551

C365 550 360 538 359 538

C357 538 310 561 310 562

C310 563 315 574 316 574

C316 574 327 569 340 563

Z

M583 568

C585 566 586 564 586 561

C586 558 585 556 583 554

C581 552 579 551 576 551

C573 551 571 552 569 554

C567 556 566 558 566 561

C566 564 567 566 569 568

C571 570 573 571 576 571

C579 571 581 570 583 568

Z

M453 561

C456 558 461 554 464 551

L469 546

L466 544

C460 540 446 533 442 533

C438 533 433 536 433 538

C433 538 436 541 441 543

C445 545 448 547 448 548

C448 548 445 551 442 555

C436 560 435 561 437 562

C441 566 446 566 453 561

Z

M46 560

C51 557 53 549 48 544

C41 536 28 543 31 554

C33 560 40 563 46 560

Z

M177 540

C183 536 189 532 190 532

C191 531 190 529 187 525

C185 522 184 519 183 519

C183 519 172 525 160 533

C145 542 138 547 138 548

C138 549 139 552 141 555

L144 560

L155 553

C161 550 171 544 177 540

Z

M217 554

C221 550 221 543 217 539

C215 537 213 537 210 537

C206 537 204 537 202 539

C197 544 199 553 206 556

C209 557 214 556 217 554

Z

M114 551

C121 548 122 539 116 535

C108 528 96 536 100 546

C101 549 106 553 109 553

C110 553 112 552 114 551

Z

M254 547

C259 542 258 534 251 531

C244 528 237 533 237 540

C237 550 248 554 254 547

Z

M79 545

C85 538 81 528 72 528

C63 528 59 538 65 545

C69 550 75 550 79 545

Z

M400 548

C411 543 408 528 397 528

C391 528 387 532 387 538

C387 542 388 543 390 545

C391 547 393 548 395 548

C396 549 397 549 397 549

C397 549 399 548 400 548

Z

M290 545

C291 544 293 543 294 541

C298 532 289 523 279 527

C277 529 274 533 274 536

C274 539 277 544 279 545

C281 546 288 546 290 545

Z

M548 537

C556 533 554 521 546 518

C535 515 528 528 536 535

C540 538 544 539 548 537

Z

M506 534

C511 533 514 532 515 530

C518 526 519 520 516 521

C515 522 511 522 507 523

L499 523

L501 516

C501 512 502 508 503 507

C503 505 503 505 500 505

C496 505 493 507 490 511

C489 515 485 530 485 534

L485 537

L492 537

C496 536 503 535 506 534

Z

M475 528

C478 517 479 509 477 505

C476 503 470 498 469 499

C469 499 468 503 467 508

C467 512 465 516 465 516

C465 517 461 515 457 513

C450 508 449 508 448 510

C446 514 447 518 451 522

C454 525 470 535 473 535

C473 535 474 532 475 528

Z

M325 533

C330 530 332 522 327 517

C324 513 320 512 316 514

C312 516 310 519 310 524

C310 528 311 531 315 532

C318 534 321 534 325 533

Z

M23 530

C34 524 25 507 13 512

C9 514 8 517 8 522

C8 526 9 529 13 530

C16 532 20 532 23 530

Z

M152 526

C158 520 154 509 145 509

C142 509 137 512 136 514

C135 516 135 523 136 525

C139 531 148 531 152 526

Z

M579 525

C582 523 584 521 584 520

C583 519 556 479 554 477

C553 476 542 483 542 484

C542 485 572 529 573 529

C573 529 576 527 579 525

Z

M362 525

C364 524 366 522 367 519

C369 515 368 511 364 508

C357 502 347 507 347 516

C347 519 349 523 353 525

C357 526 357 526 362 525

Z

M215 520

C216 519 218 518 219 516

C223 507 214 498 204 502

C202 504 199 508 199 511

C199 514 202 519 204 520

C206 521 213 521 215 520

Z

M263 514

C263 513 239 464 238 464

C238 464 226 470 226 470

C226 471 231 482 238 495

L250 520

L256 517

C260 515 263 514 263 514

Z

M72 509

L74 502

L71 501

C63 499 22 487 21 487

C20 487 16 500 17 500

C18 501 68 516 69 516

C69 516 71 513 72 509

Z

M402 512

C411 503 398 489 388 498

C385 501 384 505 385 509

C388 516 397 517 402 512

Z

M121 510

C126 507 128 499 123 494

C116 486 103 493 106 504

C108 510 115 513 121 510

Z

M440 506

C443 502 443 499 442 495

C439 487 430 486 425 492

C421 497 421 501 426 506

C429 509 429 509 433 509

C436 508 438 507 440 506

Z

M300 505

C311 499 302 482 290 487

C283 491 283 501 289 505

C293 507 296 508 300 505

Z

M523 494

C532 484 519 470 509 479

C502 485 506 496 516 496

C519 496 521 495 523 494

Z

M368 487

C371 483 371 481 371 480

C363 476 323 455 323 456

C323 456 321 459 319 462

L316 468

L340 481

C354 488 365 494 365 494

C365 494 366 491 368 487

Z

M170 490

C177 483 173 472 164 472

C159 472 156 474 154 479

C150 488 163 496 170 490

Z

M91 487

C94 486 97 481 97 478

C97 474 93 469 90 468

C85 467 80 469 77 473

C73 482 82 491 91 487

Z

M209 486

C214 483 215 475 210 471

C204 464 193 469 193 477

C193 486 202 491 209 486

Z

M475 481

C479 476 479 471 475 467

C473 464 471 464 468 464

C463 464 459 466 458 470

C457 473 457 475 459 478

C462 485 469 486 475 481

Z

M131 480

C135 479 136 476 136 472

C136 467 135 464 131 462

C120 457 110 474 121 480

C124 482 127 482 131 480

Z

M277 476

C283 470 279 459 270 459

C267 459 262 462 261 464

C260 466 260 473 261 475

C264 481 273 481 277 476

Z

M404 474

C413 464 399 451 389 460

C388 462 387 464 387 467

C387 477 398 481 404 474

Z

M440 469

L446 464

L430 442

C422 430 415 420 414 420

C413 420 411 422 408 424

L402 428

L418 450

C426 463 434 473 434 473

C434 473 437 471 440 469

Z

M56 464

C63 458 58 447 49 447

C46 447 44 448 42 450

C35 456 40 467 49 467

C52 467 54 466 56 464

Z

M516 458

C522 453 521 444 513 441

C507 439 500 443 499 450

C499 454 499 454 502 457

C507 462 511 462 516 458

Z

M111 441

C122 433 132 426 132 426

C132 425 124 415 123 415

C123 415 113 422 101 430

C87 440 79 447 80 447

C82 452 87 458 88 457

C89 457 99 450 111 441

Z

M361 455

C365 452 367 447 365 443

C362 435 353 434 348 440

C344 445 344 449 348 454

C352 458 356 458 361 455

Z

M152 451

C158 445 154 434 145 434

C142 434 137 437 136 439

C135 441 135 448 136 450

C139 456 148 456 152 451

Z

M205 452

C207 450 207 449 207 446

C207 441 203 431 199 423

L196 419

L188 427

C178 436 176 439 176 444

C176 446 177 449 179 451

C179 451 182 449 186 445

C189 442 192 439 193 439

C193 440 195 443 197 447

C199 452 201 455 202 455

C202 455 204 454 205 452

Z

M27 447

C32 442 31 434 24 431

C17 428 10 433 10 440

C10 445 11 447 16 450

C20 452 24 451 27 447

Z

M307 450

C311 449 313 445 313 440

C313 437 312 435 310 433

C301 424 288 437 295 446

C298 451 302 452 307 450

Z

M556 447

C559 444 560 438 558 434

C554 429 545 429 541 434

C538 438 538 444 542 447

C543 449 545 450 546 450

C549 451 554 450 556 447

Z

M269 445

C271 444 274 439 274 436

C274 428 264 423 257 429

C250 435 254 446 263 446

C265 446 268 446 269 445

Z

M477 441

C479 439 480 437 480 434

C480 425 470 421 463 427

C456 433 461 444 470 444

C473 444 475 443 477 441

Z

M230 441

C232 441 232 441 228 432

C226 428 224 424 224 424

C224 423 227 423 230 423

C243 421 243 421 242 418

C240 413 237 411 229 411

C222 411 209 413 208 414

C207 415 212 428 216 434

C220 441 224 443 230 441

Z

M386 430

C390 427 392 422 390 418

C387 410 378 409 373 415

C369 420 369 424 373 429

C377 433 381 433 386 430

Z

M171 427

C173 426 178 422 181 418

L188 411

L183 408

C169 399 160 397 156 401

C154 402 153 404 153 404

C153 405 155 406 158 408

C161 409 165 411 166 412

L169 414

L162 420

C155 427 154 428 160 430

C163 431 167 430 171 427

Z

M336 428

C342 424 342 414 335 411

C330 408 327 409 323 412

C319 417 319 421 322 425

C326 430 331 431 336 428

Z

M583 422

C589 417 586 407 578 405

C572 404 566 408 566 415

C566 425 576 429 583 422

Z

M511 422

C512 421 514 419 515 417

C519 409 509 400 500 404

C495 406 493 414 497 419

C500 423 505 425 511 422

Z

M48 418

C57 409 44 395 34 404

C27 410 31 421 41 421

C44 421 46 420 48 418

Z

M83 418

C86 415 87 411 86 407

C81 397 66 400 66 411

C66 417 70 421 76 421

C80 421 81 420 83 418

Z

M444 420

C446 419 449 414 449 411

C449 406 444 401 438 401

C434 401 429 405 428 409

C428 413 430 418 433 420

C435 421 442 421 444 420

Z

M303 405

C316 400 328 396 328 395

C328 395 325 385 324 383

C324 382 316 385 298 391

C285 396 273 400 273 401

C272 402 276 414 278 414

C278 414 290 410 303 405

Z

M556 399

C568 392 579 386 579 386

C580 386 579 382 577 379

C575 375 573 373 572 374

C571 374 526 398 525 399

C525 399 531 411 532 411

C532 411 543 406 556 399

Z

M217 401

C228 401 234 398 236 395

C237 393 238 390 238 389

C238 387 238 387 235 387

C233 388 229 388 226 389

L219 389

L220 386

C220 384 221 380 221 377

C223 372 223 371 221 370

C219 369 213 372 211 375

C209 379 206 390 205 398

C205 403 205 403 207 403

C208 402 213 402 217 401

Z

M196 390

C199 375 198 369 193 366

C189 365 188 365 188 369

C188 371 186 382 185 383

C185 383 181 381 177 378

C168 374 167 374 167 380

C167 384 168 385 171 388

C175 392 192 401 193 400

C194 400 195 395 196 390

Z

M392 398

C399 395 401 387 396 381

C391 377 387 377 382 381

C376 385 377 395 384 398

C388 399 388 399 392 398

Z

M118 395

C119 395 122 388 122 386

C122 377 112 373 105 379

C97 386 104 399 114 396

C116 395 118 395 118 395

Z

M359 390

C362 388 364 383 363 380

C363 378 361 376 360 374

C353 369 343 373 343 382

C343 390 352 395 359 390

Z

M476 383

C476 382 469 373 450 354

L439 342

L433 347

L428 352

L447 372

L465 392

L470 388

C473 386 475 383 476 383

Z

M21 389

C24 388 26 383 26 379

C26 371 14 367 9 373

C2 379 7 390 16 390

C18 390 20 390 21 389

Z

M266 387

C270 384 271 379 269 375

C267 371 264 370 260 370

C255 370 252 371 251 375

C245 385 257 395 266 387

Z

M504 387

C506 385 507 383 507 380

C507 371 497 367 490 373

C487 375 487 376 487 380

C487 386 491 390 497 390

C500 390 502 389 504 387

Z

M57 384

C59 382 60 381 60 380

C59 380 53 369 45 357

L30 335

L24 339

C21 341 18 343 18 344

C19 344 25 355 33 367

L48 389

L51 387

C52 386 55 385 57 384

Z

M431 385

C435 381 435 375 431 371

C425 364 414 369 414 378

C414 384 418 388 424 388

C427 388 429 387 431 385

Z

M85 375

C89 373 91 367 90 363

C90 359 85 355 80 355

C78 355 76 356 73 358

C68 364 69 371 76 375

C80 376 80 376 85 375

Z

M304 375

C311 373 313 364 309 359

C305 354 296 354 293 360

C289 365 292 373 297 375

C300 376 301 376 304 375

Z

M542 373

C549 370 551 362 546 356

C541 352 537 352 532 356

C526 360 527 370 534 373

C538 374 538 374 542 373

Z

M150 368

C152 366 153 364 153 361

C153 350 138 347 133 357

C129 368 142 376 150 368

Z

M242 364

C247 361 248 355 245 350

C244 346 241 345 237 345

C232 345 229 346 227 350

C223 359 233 368 242 364

Z

M387 362

C394 356 390 345 380 345

C372 345 368 353 371 360

C373 364 376 365 380 365

C383 365 385 364 387 362

Z

M343 356

C346 354 347 353 347 348

C347 345 346 343 344 341

C340 338 336 337 332 339

C325 343 324 351 330 356

C334 360 339 360 343 356

Z

M507 358

C516 355 515 342 507 339

C502 338 499 339 495 342

C488 351 497 362 507 358

Z

M581 355

C585 354 586 351 586 347

C586 342 584 338 579 337

C567 333 561 350 572 356

C574 357 578 357 581 355

Z

M280 352

C281 351 284 350 284 348

C286 346 286 340 285 337

C284 335 279 332 276 332

C268 332 263 342 268 348

C271 353 275 354 280 352

Z

M108 350

C115 347 116 337 109 332

C100 325 88 337 95 346

C99 351 102 352 108 350

Z

M185 350

C187 349 189 347 190 344

C192 340 191 337 187 333

C183 329 178 329 173 333

C168 339 169 345 175 349

C179 351 180 351 185 350

Z

M475 341

C478 338 479 334 476 329

C473 323 466 322 461 327

C454 333 458 344 468 344

C471 344 473 343 475 341

Z

M223 340

C232 330 219 316 209 325

C202 331 206 342 216 342

C219 342 221 341 223 340

Z

M418 340

C425 333 421 322 412 322

C408 322 407 323 405 324

C398 331 402 342 412 342

C415 342 416 341 418 340

Z

M156 335

C164 327 155 314 145 318

C135 323 138 338 149 338

C152 338 154 337 156 335

Z

M548 337

C554 334 555 326 550 321

C545 315 535 317 533 324

C532 329 533 332 536 336

C540 338 544 339 548 337

Z

M66 333

C75 325 66 312 56 316

C48 319 47 328 53 333

C57 337 62 337 66 333

Z

M316 333

C322 328 321 319 313 316

C307 314 300 318 299 325

C299 329 299 329 302 332

C307 337 311 337 316 333

Z

M386 330

C390 327 392 322 390 318

C387 310 378 309 373 315

C369 320 369 324 373 329

C377 333 381 333 386 330

Z

M27 325

C34 323 36 314 32 309

C28 304 19 304 16 310

C12 315 15 323 20 325

C23 326 24 326 27 325

Z

M265 310

C277 302 287 295 287 295

C287 294 285 291 283 288

L279 283

L258 298

C246 306 236 313 235 313

C234 314 235 316 238 320

C240 323 242 326 243 326

C243 325 253 319 265 310

Z

M189 319

C191 318 193 312 192 309

C192 305 187 301 183 301

C177 301 172 305 172 311

C172 315 176 320 179 321

C182 322 186 321 189 319

Z

M150 296

L169 277

L164 272

C162 269 159 267 159 267

C158 267 120 304 120 305

C120 307 128 315 129 315

C130 315 139 306 150 296

Z

M96 312

C102 309 103 301 98 296

C94 292 88 292 84 295

C75 304 85 317 96 312

Z

M443 312

C446 311 449 306 449 303

C449 300 446 295 444 294

C443 293 440 293 439 293

C434 293 431 294 429 298

C425 307 434 316 443 312

Z

M521 308

C535 305 546 302 547 302

C548 301 545 289 544 288

C543 288 491 299 490 299

C490 299 491 303 492 306

C493 311 494 313 495 313

C496 313 508 311 521 308

Z

M581 310

C588 303 583 293 574 293

C570 293 569 293 567 296

C561 303 565 313 574 313

C577 313 579 312 581 310

Z

M351 308

C362 302 355 285 344 289

C338 291 335 298 338 304

C340 308 347 310 351 308

Z

M408 302

C411 299 412 296 412 296

C412 295 402 290 391 283

C379 275 369 269 367 268

C365 267 365 267 362 273

C360 276 358 279 358 279

C359 280 403 308 404 308

C404 308 406 305 408 302

Z

M319 299

C325 295 326 289 321 283

C316 279 312 279 307 283

C301 287 302 297 309 300

C314 301 315 301 319 299

Z

M54 298

C62 295 63 286 58 281

C52 274 41 279 41 289

C41 292 45 298 48 298

C50 299 51 299 51 299

C52 299 53 299 54 298

Z

M469 293

C471 292 474 287 474 284

C474 274 459 270 455 280

C452 285 453 289 457 292

C460 294 466 295 469 293

Z

M237 289

C244 283 240 272 230 272

C227 272 225 273 223 274

C214 284 227 298 237 289

Z

M204 287

C211 281 206 270 197 270

C194 270 192 271 190 273

C183 279 188 290 197 290

C200 290 202 289 204 287

Z

M121 285

C126 282 128 274 124 270

C119 263 109 264 106 272

C103 281 112 289 121 285

Z

M536 278

C542 274 542 264 535 260

C526 256 516 267 522 275

C526 280 531 281 536 278

Z

M83 275

C90 272 91 262 84 257

C75 250 63 262 70 271

C74 276 77 277 83 275

Z

M500 272

C502 270 503 268 503 266

C503 254 487 251 483 262

C480 273 493 280 500 272

Z

M294 273

C305 268 302 253 290 253

C286 253 281 257 281 261

C280 265 282 271 286 272

C290 274 290 274 294 273

Z

M431 268

C437 261 433 251 424 251

C415 251 411 261 417 268

C419 271 420 271 424 271

C428 271 429 271 431 268

Z

M577 262

C584 256 579 245 570 245

C564 245 560 249 560 255

C560 264 571 268 577 262

Z

M146 260

C151 257 153 249 149 245

C144 238 134 239 131 247

C128 256 137 264 146 260

Z

M264 258

C268 255 269 251 267 247

C263 237 249 239 247 249

C246 259 257 265 264 258

Z

M331 258

C335 254 335 248 331 244

C329 241 328 241 324 241

C320 241 319 241 317 244

C312 249 314 258 319 260

C324 262 328 261 331 258

Z

M396 257

C399 254 399 254 399 250

C398 243 391 239 385 241

C377 244 376 253 382 258

C387 262 391 262 396 257

Z

M39 256

C45 251 44 242 36 239

C30 237 23 240 22 248

C22 252 22 252 25 255

C30 260 34 260 39 256

Z

M193 254

C196 252 197 250 197 247

C197 236 183 232 177 242

C172 252 185 262 193 254

Z

M462 254

C470 248 463 235 453 236

C449 237 445 242 445 247

C445 249 446 251 449 254

C452 257 452 257 456 257

C458 256 461 255 462 254

Z

M228 254

C234 251 236 242 232 238

C225 231 214 235 214 244

C214 252 222 257 228 254

Z

M361 253

C367 249 367 239 360 235

C351 231 341 242 347 250

C351 255 356 256 361 253

Z

M531 245

C533 242 533 241 532 238

C532 234 527 222 524 217

L521 213

L515 218

C506 227 501 233 501 237

C501 240 502 243 504 245

C504 245 507 243 510 239

C514 236 517 233 518 233

C518 234 520 237 522 241

C526 250 527 250 531 245

Z

M109 245

C110 244 112 242 113 240

C117 232 107 223 98 227

C93 230 91 238 95 242

C98 246 103 247 109 245

Z

M65 234

C67 231 68 228 68 227

C66 226 17 206 17 207

C15 209 12 219 13 220

C13 220 24 225 38 230

C51 236 62 241 62 241

C62 241 63 238 65 234

Z

M434 234

C439 230 440 223 435 219

C429 212 418 217 418 226

C418 234 428 239 434 234

Z

M556 235

C556 234 555 230 553 226

C551 221 549 218 549 217

C550 217 554 216 559 216

L568 215

L567 212

C565 207 562 205 554 205

C543 205 532 207 532 209

C532 211 541 229 544 232

C546 234 548 235 551 235

C554 235 556 235 556 235

Z

M297 232

C308 231 320 231 323 230

L328 230

L328 223

C328 220 327 217 327 216

C326 216 274 218 273 219

C272 219 272 223 273 226

C273 232 274 233 275 233

C276 233 286 233 297 232

Z

M146 224

C150 220 150 215 145 210

C142 207 142 207 138 207

C131 208 127 214 129 221

C132 228 141 230 146 224

Z

M465 223

C473 220 474 211 468 206

C463 202 459 202 454 206

C452 209 451 211 451 212

C451 217 454 221 457 223

C461 224 461 224 465 223

Z

M496 221

C499 219 503 215 507 212

L513 205

L508 202

C501 197 495 194 490 193

C486 192 485 192 482 193

C480 195 477 198 478 198

C478 199 482 200 485 202

C489 204 492 207 493 207

C493 208 491 211 487 215

L480 221

L482 222

C486 225 491 224 496 221

Z

M220 219

C221 218 223 216 223 214

C226 204 215 197 207 204

C203 207 202 211 205 216

C208 222 214 223 220 219

Z

M183 216

C186 214 186 213 186 209

C186 200 176 195 169 202

C167 204 166 206 166 209

C166 218 176 222 183 216

Z

M362 217

C367 212 367 206 362 202

C357 197 349 198 347 204

C343 211 347 219 355 219

C358 219 360 218 362 217

Z

M392 218

C394 217 397 212 397 209

C397 204 392 199 387 199

C381 199 376 204 376 209

C376 212 379 217 381 218

C383 219 390 219 392 218

Z

M88 214

C92 210 92 204 87 200

C81 195 72 197 70 204

C68 215 80 222 88 214

Z

M256 210

C258 208 259 206 259 203

C259 194 248 189 242 196

C240 198 239 200 239 203

C239 206 240 208 242 210

C244 212 246 213 249 213

C252 213 254 212 256 210

Z

M442 197

L467 189

L465 182

C463 177 462 176 460 176

C457 176 411 192 410 192

C409 193 414 206 415 206

C416 205 428 202 442 197

Z

M121 197

C125 193 125 188 121 183

C116 179 112 179 107 183

C103 186 102 190 104 194

C107 201 116 203 121 197

Z

M292 199

C298 195 299 189 294 183

C289 179 285 179 280 183

C274 187 275 196 282 199

C285 201 288 201 292 199

Z

M329 200

C336 197 338 188 334 183

C324 174 310 186 318 196

C321 201 325 202 329 200

Z

M38 193

C40 192 42 186 41 183

C41 179 35 175 32 175

C26 175 21 179 21 185

C21 189 25 194 28 195

C32 196 34 195 38 193

Z

M547 195

C558 193 561 191 562 186

C563 184 563 182 563 181

C562 181 558 181 554 182

C549 183 545 183 544 183

C544 182 546 170 548 166

C548 164 548 164 546 164

C537 164 533 171 530 191

L529 196

L534 196

C537 196 543 195 547 195

Z

M521 183

C524 170 523 164 520 161

C515 157 514 158 512 167

C510 178 511 178 502 172

C493 167 492 168 492 174

C492 178 493 180 498 184

C505 189 517 195 518 194

C519 194 520 189 521 183

Z

M167 185

C181 181 192 178 193 178

C193 177 190 164 189 164

C188 164 137 177 136 177

C136 178 139 189 140 190

C140 191 139 192 167 185

Z

M375 186

C384 179 378 167 367 168

C364 168 359 173 359 176

C358 179 360 184 363 186

C366 188 372 188 375 186

Z

M73 183

C84 177 77 160 66 164

C59 166 57 174 61 180

C63 184 69 185 73 183

Z

M235 182

C242 177 241 167 233 164

C229 162 225 163 222 167

C214 176 226 189 235 182

Z

M268 173

C279 168 276 153 264 153

C260 153 255 157 255 161

C254 165 256 171 260 172

C264 174 264 174 268 173

Z

M440 169

C442 168 444 162 443 159

C443 157 442 155 440 154

C432 147 422 154 423 163

C425 170 433 174 440 169

Z

M363 147

L379 129

L375 125

C372 123 370 121 369 120

C368 119 365 122 350 139

C341 150 333 160 333 160

C333 161 335 164 337 166

L342 170

L345 168

C346 167 354 157 363 147

Z

M110 163

C117 157 112 146 103 146

C97 146 93 150 93 156

C93 165 103 169 110 163

Z

M403 162

C405 160 406 158 406 155

C406 146 395 141 389 148

C382 154 387 165 396 165

C399 165 401 164 403 162

Z

M314 161

C319 157 319 151 314 146

C311 143 304 143 300 146

C291 156 304 170 314 161

Z

M50 144

C60 135 69 127 69 127

C69 126 66 123 60 116

C60 116 51 124 39 134

L18 152

L23 157

C27 162 28 163 29 162

C30 161 39 153 50 144

Z

M150 160

C154 156 154 150 150 146

C142 138 129 146 133 157

C135 161 139 163 143 163

C146 163 148 162 150 160

Z

M501 156

C506 153 508 145 503 140

C500 136 496 135 492 137

C484 140 483 151 490 155

C494 157 497 158 501 156

Z

M225 150

C229 146 229 141 225 136

C219 131 211 133 208 140

C204 150 217 159 225 150

Z

M555 147

C564 137 550 124 540 133

C539 135 538 137 538 140

C538 150 549 154 555 147

Z

M185 148

C187 147 189 145 190 142

C192 138 191 134 187 131

C180 125 170 130 170 139

C170 142 172 146 176 148

C180 149 180 149 185 148

Z

M282 135

C282 134 234 108 234 108

C233 108 232 111 230 115

L227 121

L238 127

C244 130 255 136 262 140

L276 147

L279 141

C281 138 282 135 282 135

Z

M464 145

C467 143 469 137 468 134

C468 132 467 130 465 129

C457 122 447 129 448 138

C450 145 457 148 464 145

Z

M98 133

C104 130 106 122 101 117

C98 113 94 112 90 114

C86 116 84 120 84 124

C84 132 92 136 98 133

Z

M317 129

C323 124 322 116 315 112

C311 110 307 111 303 114

C301 116 301 118 301 121

C301 126 301 127 304 129

C308 133 313 133 317 129

Z

M418 127

C422 123 422 116 418 112

C416 110 414 110 411 110

C407 110 405 110 403 112

C398 117 400 126 407 129

C410 130 415 129 418 127

Z

M146 123

C148 120 147 113 142 102

C139 97 137 92 136 92

C135 91 119 107 117 111

C115 114 115 115 116 118

C117 120 117 122 118 122

C118 123 122 120 125 117

C129 114 132 111 132 111

C133 111 138 122 139 126

C140 128 140 128 142 127

C143 126 145 125 146 123

Z

M33 125

C41 120 38 108 29 106

C20 105 13 115 19 122

C23 127 28 128 33 125

Z

M486 123

C493 120 494 110 487 105

C483 101 475 103 472 108

C469 114 471 120 477 123

C481 124 481 124 486 123

Z

M522 121

C526 119 529 116 529 112

C529 100 513 97 509 108

C507 115 511 120 519 122

C519 122 521 121 522 121

Z

M211 112

C218 106 214 95 204 95

C196 95 192 103 195 110

C197 114 200 115 204 115

C207 115 209 114 211 112

Z

M347 113

C353 106 349 95 340 95

C335 95 332 97 330 102

C326 111 340 120 347 113

Z

M171 113

C171 112 169 109 167 104

C165 100 164 96 164 96

C164 95 168 95 173 94

C178 93 182 93 182 92

C183 91 179 85 176 84

C175 83 171 83 168 83

C162 83 148 85 147 86

C146 86 148 91 151 98

C156 108 159 112 163 113

C164 114 170 113 171 113

Z

M382 110

C389 104 384 93 375 93

C369 93 365 97 365 103

C365 112 376 117 382 110

Z

M280 108

C284 104 284 98 280 94

C274 87 263 92 263 101

C263 110 274 114 280 108

Z

M449 108

C454 105 456 97 451 92

C444 84 431 91 434 102

C436 108 443 111 449 108

Z

M564 99

L567 93

L563 91

C554 86 519 67 519 67

C518 67 512 79 512 80

C514 81 560 106 560 105

C560 105 562 102 564 99

Z

M109 100

C111 100 115 96 120 91

L128 84

L126 82

C122 79 107 71 104 71

C100 70 95 72 93 75

C92 76 93 77 99 80

C109 86 109 86 105 89

C104 90 101 93 99 95

C95 98 95 100 99 102

C103 103 105 103 109 100

Z

M64 96

C71 93 73 85 68 79

C63 75 58 75 54 79

C48 84 50 94 57 96

C59 96 61 97 61 97

C61 97 63 96 64 96

Z

M24 95

C35 90 32 75 21 75

C12 75 8 85 14 92

C15 94 17 95 18 95

C20 96 21 96 21 96

C21 96 23 95 24 95

Z

M314 89

C318 85 318 79 313 75

C307 70 298 72 296 79

C294 90 306 97 314 89

Z

M415 89

C415 88 417 85 418 82

L420 77

L394 67

C380 62 369 57 368 57

C368 58 363 70 363 71

C363 71 375 75 389 81

C402 86 414 91 414 91

C414 91 414 90 415 89

Z

M494 88

C499 83 499 77 495 72

C491 69 484 69 481 72

C474 79 478 90 488 90

C491 90 492 89 494 88

Z

M246 83

C252 80 253 72 248 67

C244 63 241 62 237 64

C232 66 229 72 231 77

C233 83 240 86 246 83

Z

M580 82

C586 79 587 72 582 67

C580 64 578 64 575 64

C572 64 570 64 568 67

C560 76 569 88 580 82

Z

M338 74

C345 71 346 62 340 58

C335 54 331 54 326 59

C323 62 323 62 323 66

C324 74 331 78 338 74

Z

M160 73

C173 71 176 69 177 62

C178 59 178 59 175 59

C173 60 169 60 165 61

C158 61 158 62 161 52

C163 42 163 42 158 42

C151 43 148 51 145 71

L144 75

L149 74

C151 74 157 73 160 73

Z

M134 69

C136 61 137 55 137 49

C137 43 137 43 134 40

C130 36 128 36 128 42

C127 44 126 48 126 51

L125 55

L120 52

C117 51 113 49 112 48

C108 45 107 46 107 52

C107 56 107 57 110 60

C112 62 116 64 118 65

C128 71 132 73 132 73

C133 73 133 71 134 69

Z

M281 68

C287 61 283 51 274 51

C265 51 261 61 267 68

C271 73 277 73 281 68

Z

M49 67

C55 61 51 50 42 50

C36 50 31 56 32 62

C33 70 43 73 49 67

Z

M214 62

C219 58 219 52 214 47

C211 44 204 44 200 47

C191 57 204 71 214 62

Z

M438 62

C441 60 441 58 441 55

C441 43 424 41 421 53

C419 63 430 69 438 62

Z

M470 62

C475 59 476 53 473 48

C472 44 469 43 465 43

C460 43 456 45 455 49

C454 54 455 57 458 61

C462 63 466 64 470 62

Z

M555 58

C560 53 559 44 552 41

C541 37 533 50 541 58

C543 60 545 61 548 61

C551 61 553 60 555 58

Z

M80 53

C84 52 85 49 85 45

C85 40 84 37 80 35

C71 31 62 41 66 50

C69 55 75 56 80 53

Z

M507 53

C511 52 512 49 512 44

C512 35 501 31 495 38

C487 47 497 59 507 53

Z

M402 49

C408 47 410 38 406 34

C399 27 388 31 388 40

C388 45 389 47 394 49

C397 51 398 51 402 49

Z

M40 33

C51 24 60 15 60 15

C61 14 53 4 51 5

C51 5 41 12 30 22

C12 37 10 39 11 41

C14 44 19 50 19 50

C20 50 29 42 40 33

Z

M307 45

C309 43 311 40 311 39

C312 39 304 33 290 23

C278 15 268 8 267 8

C266 7 259 17 259 19

C260 20 302 50 303 50

C304 50 305 48 307 45

Z

M355 45

C358 42 359 36 357 32

C353 27 344 27 340 32

C337 36 337 42 341 45

C342 47 344 48 345 48

C348 49 353 48 355 45

Z

M254 38

C256 36 257 34 257 31

C257 22 246 17 240 24

C233 30 238 41 247 41

C250 41 252 40 254 38

Z

M187 39

C191 37 193 32 193 28

C190 18 175 17 172 27

C171 34 175 40 181 40

C183 40 186 39 187 39

Z

M150 30

C156 27 158 19 154 14

C150 11 147 10 142 11

C138 12 136 16 136 21

C136 25 137 28 141 29

C144 31 147 31 150 30

Z

M451 27

C455 22 455 18 451 13

C446 7 437 8 434 16

C432 20 434 25 438 28

C443 31 447 31 451 27

Z

M527 29

C535 25 535 14 527 11

C522 8 518 9 515 13

C513 16 512 22 514 25

C516 29 523 31 527 29

Z

M221 24

C225 20 225 15 221 11

C219 8 218 8 213 8

C210 8 208 8 206 10

C203 14 202 17 204 21

C207 28 216 30 221 24

Z

M324 22

C328 18 328 13 323 8

C320 5 320 5 316 5

C311 6 309 7 307 12

C303 22 317 31 324 22

Z

M380 22

C389 12 375 -1 365 8

C364 10 363 12 363 15

C363 20 364 22 369 25

C373 27 377 26 380 22

Z

M486 25

C490 23 493 17 491 13

C490 8 487 6 482 5

C478 5 478 5 475 8

C470 13 470 17 473 21

C477 26 480 27 486 25

Z

"/>

</svg>

