<?xml version="1.0" standalone="no"?>

<!DOCTYPE svg PUBLIC "-//W3C//DTD SVG 20010904//EN"

 "http://www.w3.org/TR/2001/REC-SVG-20010904/DTD/svg10.dtd">

<svg version="1.0" xmlns="http://www.w3.org/2000/svg"

 width="591.000000pt" height="591.000000pt" viewBox="0 0 591.000000 591.000000"

 preserveAspectRatio="xMidYMid meet">

<path fill="#f2f5f2" stroke="none" d="
M0 296

L0 0

L296 0

L591 0

L591 296

L591 591

L296 591

L0 591

L0 296

Z

"/>

<path fill="#3d806b" stroke="none" d="
M0 572

L0 554

L11 548

C27 540 34 535 44 525

C55 514 60 505 61 495

C61 491 61 488 60 486

C59 484 59 481 59 478

C59 474 58 473 57 474

C56 474 52 474 47 475

C43 475 38 476 36 476

C23 482 9 499 3 519

L0 527

L0 517

C0 508 0 507 3 505

C4 504 6 502 6 501

C7 499 7 499 5 500

C1 502 0 502 0 500

C0 499 2 497 4 496

C7 494 9 492 10 491

C12 489 12 489 7 491

C1 492 0 492 0 490

C0 489 1 488 6 487

C13 485 24 480 23 479

C23 479 19 479 15 480

C5 482 1 481 0 479

C0 477 1 476 9 476

C16 476 39 472 37 471

C36 471 30 471 23 471

C8 470 0 469 0 466

C0 464 0 464 9 466

C16 467 29 467 31 466

C32 464 28 462 22 461

C18 460 12 459 8 457

C1 455 0 455 0 453

C0 451 0 451 2 451

C3 452 7 453 12 454

C17 456 22 457 24 458

C28 458 28 458 28 456

C28 454 26 453 19 450

C15 448 9 445 6 443

C1 440 0 439 0 437

L0 434

L2 436

C6 439 13 443 20 446

C26 449 27 449 28 448

C29 446 29 445 27 444

C24 444 14 434 11 429

C10 428 8 425 7 425

C5 424 4 424 2 427

L0 430

L0 421

C0 414 1 410 2 406

C5 397 5 384 2 378

C0 372 -1 363 1 363

C2 363 2 363 1 362

C0 361 -1 352 1 352

C1 352 2 353 3 354

C8 358 16 361 24 362

C30 362 32 363 32 363

C27 374 26 377 26 384

C26 398 32 410 45 422

C52 429 60 434 68 437

C76 439 96 439 107 436

C133 429 151 412 160 387

C162 379 162 377 162 365

C162 351 162 350 158 335

C150 305 150 299 155 292

C160 286 159 285 151 286

C144 286 143 286 137 282

C134 280 126 273 119 267

C112 261 103 254 100 251

C83 239 64 235 44 238

C29 241 17 247 6 258

L0 263

L0 250

L0 237

L3 242

L5 247

L9 244

C13 241 13 240 11 239

C10 238 7 237 5 236

C1 235 0 234 0 232

L0 230

L5 232

C8 233 11 235 12 235

C13 236 14 236 14 235

C14 234 7 223 4 220

C0 216 -2 211 2 213

C3 213 5 214 7 214

C10 215 14 216 17 218

C24 221 31 223 31 222

C31 219 13 206 5 203

C1 202 0 201 0 200

C0 198 0 198 8 200

C22 205 36 209 38 209

C41 209 32 202 24 198

C20 196 14 193 9 192

C2 190 0 189 0 187

C0 186 0 185 0 185

C0 185 3 186 6 187

C9 187 15 189 20 189

C25 189 32 190 35 191

C39 191 42 191 42 190

C42 189 34 185 28 182

C22 180 7 177 3 177

C1 177 0 177 0 175

C0 172 4 172 14 175

C21 176 33 176 33 174

C33 173 33 173 32 173

C32 173 29 171 25 169

C20 166 19 166 10 165

C1 165 0 165 0 163

C0 161 1 161 7 161

L14 161

L10 157

C6 153 5 152 3 153

C0 154 0 154 0 152

C0 151 1 150 2 149

C3 148 3 148 2 147

C0 146 0 144 0 138

C0 130 0 130 2 132

L3 135

L7 131

C12 126 18 116 16 116

C16 116 13 117 9 118

C6 119 2 120 1 120

C0 120 0 116 2 114

C3 113 12 100 12 99

C12 99 9 99 6 99

L0 99

L0 95

C0 92 1 91 13 85

C21 81 27 79 30 78

C34 78 35 77 35 76

C35 74 36 72 37 70

C44 60 56 60 61 70

C66 79 55 88 48 80

C45 77 44 75 46 73

C49 71 51 72 51 76

C52 78 53 79 55 79

C57 79 59 77 59 74

C59 72 54 67 51 67

C45 65 38 72 39 80

C41 91 55 95 65 88

C71 83 74 73 70 66

C68 62 51 47 47 46

C42 44 30 45 24 48

C17 51 8 59 3 66

L0 71

L0 36

L0 0

L31 0

L62 0

L58 5

C53 12 51 18 50 26

C49 38 51 41 61 51

C71 60 75 62 81 62

C90 62 97 56 98 46

C98 40 97 36 93 32

C89 29 80 28 77 32

C74 35 72 39 73 42

C75 49 83 51 85 46

C86 44 86 44 81 40

C80 39 80 39 81 37

C84 32 90 37 90 44

C90 53 80 56 74 50

C66 43 68 31 78 26

C82 25 82 24 82 19

C83 16 84 10 85 7

C87 2 88 0 90 0

C92 0 92 0 92 2

C89 8 86 19 86 21

C86 24 87 25 89 25

C92 26 92 26 94 24

C97 21 98 12 98 5

L97 0

L102 0

L107 0

L105 3

C103 5 102 7 102 12

C101 17 100 21 99 24

C97 27 96 30 97 30

C97 30 99 28 102 25

C107 20 111 12 113 5

C114 1 115 0 117 0

C118 0 119 0 118 2

C118 3 118 3 120 2

C122 1 124 0 126 0

L129 1

L125 3

C118 8 116 10 113 17

C111 20 107 26 104 29

C101 33 100 34 100 35

C101 37 102 36 108 32

C121 23 128 15 130 5

C131 2 132 0 134 0

C136 0 136 0 136 2

C135 3 135 5 134 7

C134 8 133 11 132 12

C131 14 131 15 131 16

C131 16 134 14 137 11

C140 9 146 5 150 3

L157 0

L180 0

C195 0 202 0 200 1

C199 2 195 2 191 3

L184 3

L189 8

C191 10 194 12 195 12

C196 12 198 9 201 4

C203 1 204 0 206 0

L208 0

L205 6

C203 9 202 11 202 11

C203 12 213 8 219 4

C224 1 227 0 229 0

C231 0 231 1 226 4

C220 8 214 19 218 19

C223 19 233 10 236 3

C237 1 238 0 240 0

C243 0 244 0 245 7

C246 10 250 21 253 29

L259 45

L267 31

C275 17 281 3 281 1

C281 0 282 0 284 0

C286 0 287 0 288 5

C290 13 296 22 302 24

C305 25 306 25 304 19

C303 16 300 12 297 8

C294 5 291 1 291 1

C291 -2 295 1 302 7

C308 13 318 20 320 19

C322 18 314 4 311 2

L309 0

L311 0

C313 0 317 2 321 3

C329 7 337 10 336 8

C336 7 335 5 333 3

L331 0

L333 0

C335 0 337 1 340 5

C342 8 343 10 344 10

C345 10 352 2 352 1

C351 0 352 0 355 0

C360 0 361 1 361 7

C361 14 357 22 345 37

C333 53 329 60 325 70

C319 85 319 102 324 118

C332 142 353 161 381 168

C388 170 393 170 403 169

C420 165 438 153 445 139

C447 134 447 132 447 124

C447 115 448 113 449 115

C451 117 463 119 470 119

C487 118 507 101 516 81

C519 72 520 58 518 46

C514 30 508 18 498 6

L492 0

L541 0

L591 0

L591 36

L591 72

L589 77

C586 83 583 93 584 94

C585 94 586 94 588 93

C591 92 591 92 591 96

L591 99

L587 99

C583 98 583 98 583 101

C583 104 586 117 586 118

C587 118 588 118 588 117

C590 115 591 116 591 119

C591 120 590 121 590 121

C588 121 588 123 590 126

C590 128 591 131 591 136

C591 144 591 144 587 149

C585 151 583 153 583 154

C584 154 585 153 587 152

L591 150

L591 152

C591 153 589 155 587 157

C584 158 581 161 580 162

L578 165

L581 164

C583 163 586 162 588 162

C591 161 591 161 591 163

C591 164 590 165 587 166

C582 167 571 173 569 175

C568 176 568 176 570 175

C576 174 580 173 585 173

C590 173 591 173 591 175

C591 176 590 177 583 177

C576 178 558 182 556 184

C555 185 557 185 562 184

C571 183 582 183 587 184

C590 185 591 186 591 187

C591 189 591 189 583 188

C576 187 564 187 562 189

C559 191 562 192 572 194

C587 196 590 197 591 200

L591 202

L584 200

C579 199 573 198 570 197

C565 197 565 197 565 199

C565 201 567 202 575 205

C586 209 590 211 591 214

C591 217 591 217 586 214

C581 211 569 206 566 206

C563 206 565 210 570 212

C572 213 577 217 580 221

C584 225 587 228 589 229

C591 230 591 231 591 247

L591 264

L587 269

C579 280 573 295 573 306

C573 319 581 340 588 348

C591 351 591 352 591 356

L590 361

L585 355

C582 352 578 349 576 348

C570 345 568 341 568 336

C569 334 568 330 568 328

L566 324

L563 327

C559 332 559 334 559 341

C560 349 563 352 576 358

C582 361 588 363 589 363

C591 363 591 364 591 368

L591 373

L589 370

C587 368 582 365 576 362

C563 356 557 355 551 359

C540 365 539 381 549 388

C558 394 569 390 569 380

C569 375 568 373 565 371

C559 369 554 370 555 375

C555 377 556 378 559 378

C562 379 564 381 562 382

C557 388 549 380 551 372

C553 367 560 364 566 367

C575 372 576 382 568 390

L564 394

L566 400

C567 405 567 408 566 418

C565 432 565 439 566 439

C566 439 568 437 571 435

C577 431 584 423 588 417

L591 412

L591 425

L591 439

L587 438

C584 438 583 438 580 440

L577 443

L579 444

C580 445 584 447 586 448

C590 450 591 451 591 453

C591 455 591 455 589 454

C588 453 583 451 579 450

C571 447 571 447 568 449

C566 450 565 451 565 451

C565 452 577 459 584 461

C590 463 591 464 591 466

L591 468

L584 465

C580 464 576 463 574 463

C572 463 568 462 564 461

C560 461 555 460 553 460

L550 461

L556 465

C563 469 574 473 585 475

C590 476 591 477 591 478

C591 481 589 481 579 478

C571 476 559 475 558 477

C557 477 558 479 559 481

C561 484 565 485 580 487

C590 488 591 489 591 490

C591 492 591 492 583 491

C573 490 569 491 566 492

C563 493 563 493 564 496

C565 498 565 499 565 500

C566 501 583 501 587 500

C591 499 591 499 591 501

C591 503 589 504 581 505

C577 505 572 506 570 507

C565 510 565 513 569 513

C573 514 583 512 587 510

C591 508 591 508 591 510

C591 512 589 514 584 515

C581 517 574 524 575 526

C577 527 581 525 586 520

L591 515

L591 521

C591 527 586 554 584 556

C584 557 585 556 587 556

C589 555 590 554 590 554

C591 554 591 562 591 573

L591 591

L562 591

L533 591

L527 578

C518 560 512 551 502 541

C488 528 477 523 464 526

C460 527 456 528 454 528

C452 527 452 527 453 529

C453 530 453 534 453 539

C454 550 456 556 466 565

C478 576 491 583 511 588

L522 591

L507 591

L492 591

L487 588

C481 584 470 578 462 576

C453 574 438 574 428 576

C423 577 412 581 402 585

C386 591 385 591 377 591

C370 591 368 591 365 589

C362 586 361 586 360 587

C359 588 359 589 359 590

C360 591 359 591 357 591

C353 591 338 589 336 588

C334 588 334 588 335 589

C337 592 332 591 329 588

C327 587 321 583 315 580

C308 576 304 573 297 566

C293 562 289 559 289 560

C289 562 294 572 298 577

C299 579 304 583 308 586

C315 590 315 591 312 591

C307 591 297 583 291 574

C290 573 290 573 291 577

C291 579 292 584 293 586

L295 591

L292 591

C291 591 290 590 289 587

L287 583

L287 587

C287 591 287 591 284 591

L281 591

L283 585

C286 572 285 556 281 548

C280 546 277 542 274 539

C271 536 268 533 267 532

C266 530 266 530 264 532

C264 533 260 536 257 538

C246 545 243 553 243 573

C243 580 243 587 243 588

C244 591 244 591 241 591

C237 591 237 591 238 586

C239 582 238 579 237 583

C235 587 231 591 228 591

L225 591

L227 589

C230 587 235 577 237 572

C237 569 237 569 233 574

C230 577 225 580 219 584

C214 586 210 589 209 590

C209 591 203 591 183 591

L157 591

L152 587

C149 585 145 582 143 581

L139 579

L137 585

C136 590 135 591 134 591

C133 591 132 590 132 590

C132 589 132 589 131 590

C130 590 128 591 126 591

L123 591

L129 585

C132 582 135 579 135 578

C135 577 128 574 124 574

C122 574 122 574 120 582

C119 590 118 591 117 591

C115 591 115 591 115 587

C116 584 116 584 114 585

C113 585 111 587 110 588

C108 590 107 591 105 591

C102 591 102 591 108 585

C115 579 119 573 118 572

C116 571 98 570 98 571

C98 571 99 575 99 580

C101 590 101 591 99 591

C98 591 97 590 97 587

L96 583

L94 587

C93 590 92 591 90 591

C88 591 88 591 88 589

C95 574 95 572 91 572

C86 574 74 580 67 586

L61 591

L31 591

L0 591

L0 572

Z

M186 585

L191 579

L182 579

C174 579 172 579 173 580

C173 581 175 583 176 586

C178 588 180 590 180 590

C180 590 183 588 186 585

Z

M200 587

C208 585 224 577 228 572

C232 569 240 558 240 556

C240 555 238 557 235 559

C227 566 221 569 210 573

C202 577 199 578 194 583

L188 589

L191 589

C193 589 197 588 200 587

Z

M347 584

C345 582 341 579 338 577

C334 575 331 573 330 572

C328 571 324 569 319 567

C307 561 300 557 293 550

C289 546 286 543 285 543

C283 543 294 558 300 564

C311 575 333 586 346 586

L350 586

L347 584

Z

M536 577

C536 576 535 575 534 576

C531 576 531 576 533 581

L535 584

L535 581

C535 580 536 578 536 577

Z

M379 581

C382 579 391 566 391 564

C391 564 387 564 381 564

L372 565

L372 568

C372 573 375 583 376 583

C376 583 378 582 379 581

Z

M357 580

C360 579 362 578 362 576

L362 574

L350 574

C342 574 339 574 341 575

C342 575 352 582 352 582

C352 582 354 581 357 580

Z

M398 575

C406 571 416 563 419 558

C421 554 420 554 415 558

C412 560 407 561 404 562

C400 563 397 564 396 565

C393 569 387 579 388 579

C389 579 393 577 398 575

Z

M67 573

C71 571 72 569 69 567

C68 566 67 564 66 563

C66 561 66 561 65 562

C64 564 62 575 63 575

C64 575 65 574 67 573

Z

M205 571

C218 567 226 562 234 554

C241 547 248 540 246 540

C246 540 242 543 238 546

C229 552 222 556 209 560

C205 561 199 563 198 564

C196 565 192 567 189 568

C186 569 182 571 180 573

L176 575

L186 575

C194 574 197 574 205 571

Z

M52 568

L49 562

L47 566

C47 568 46 570 46 570

C47 571 52 573 55 574

C56 574 54 571 52 568

Z

M175 571

C177 569 181 567 184 566

L189 564

L180 563

C175 563 170 562 169 561

C164 559 164 560 166 565

C168 572 169 574 170 574

C170 574 172 573 175 571

Z

M418 571

C422 570 423 569 425 565

C429 556 426 554 421 561

C419 564 417 567 415 569

C411 572 411 573 418 571

Z

M533 571

C533 570 526 563 525 563

C524 563 528 571 529 571

C531 572 533 572 533 571

Z

M61 557

C61 554 60 550 59 546

C55 538 54 529 54 525

C55 522 55 522 53 524

C53 525 51 529 50 533

C48 539 48 540 49 548

C51 556 54 563 57 568

L58 571

L60 567

C60 564 61 560 61 557

Z

M358 569

C358 568 354 566 345 563

C320 554 313 551 302 545

C296 542 292 541 292 543

C292 545 305 555 312 559

C321 564 326 566 336 568

C343 570 358 571 358 569

Z

M539 566

C540 564 540 564 538 565

C535 566 535 567 536 568

C537 570 538 570 539 566

Z

M37 565

C36 564 35 561 34 560

L34 557

L31 560

C30 561 29 563 29 564

C29 564 36 568 38 568

C39 568 38 567 37 565

Z

M77 561

C77 555 76 553 72 544

C65 531 63 525 62 515

C62 507 61 508 59 519

C58 529 58 534 63 545

C67 556 68 558 72 564

C76 570 78 569 77 561

Z

M433 567

C434 567 435 566 436 563

C437 558 437 558 434 558

C433 558 432 559 430 563

C428 568 428 568 430 568

C430 567 432 567 433 567

Z

M45 552

C44 543 44 536 45 533

C47 528 44 531 41 538

C38 543 38 545 38 552

C38 558 39 561 40 563

L42 566

L44 562

C46 558 46 556 45 552

Z

M361 558

C361 558 358 558 354 559

L348 559

L354 562

L361 566

L361 562

C361 560 361 559 361 558

Z

M443 565

C445 565 445 563 445 560

C445 556 445 555 443 555

C442 555 441 556 440 563

C439 566 440 567 443 565

Z

M459 564

C458 564 458 563 457 563

C457 564 458 566 459 566

C460 566 460 565 459 564

Z

M85 564

C86 564 85 562 84 561

C82 560 82 560 82 562

C82 565 84 566 85 564

Z

M453 564

C453 561 451 552 450 551

C449 550 449 553 449 557

C449 564 449 565 451 565

C452 565 453 564 453 564

Z

M94 562

C95 562 94 559 91 553

C89 549 87 544 87 544

C87 543 85 540 83 536

C75 523 70 512 69 501

C68 499 67 496 67 495

C66 494 66 498 66 507

C67 523 69 530 76 544

C81 553 89 563 91 563

C92 563 93 563 94 562

Z

M22 560

C22 557 21 557 19 558

L17 559

L20 561

C21 561 23 562 23 562

C23 562 23 561 22 560

Z

M536 561

C538 559 530 555 524 553

C520 553 517 552 517 552

C517 553 523 557 528 560

C532 562 535 563 536 561

Z

M107 560

C106 559 102 557 99 554

C96 552 94 551 95 552

C95 553 96 555 97 557

C99 561 99 561 104 561

C108 561 108 561 107 560

Z

M126 554

C126 553 111 544 110 544

C109 544 111 546 113 549

C114 552 116 556 117 557

L118 561

L122 558

C124 556 126 554 126 554

Z

M382 555

C398 546 404 543 408 542

C412 542 412 541 413 538

C414 534 417 530 421 527

C426 524 433 525 438 530

C442 535 441 542 436 545

C430 547 422 542 423 537

C425 534 428 535 429 539

C431 543 432 543 435 540

C437 538 437 534 434 532

C425 524 412 536 419 547

C420 549 422 551 425 552

C437 558 452 548 450 533

C449 528 446 525 435 516

C427 509 426 509 420 508

C403 507 387 518 378 538

C373 547 370 560 373 560

C373 560 377 558 382 555

Z

M407 557

C415 554 416 552 415 549

C414 547 413 546 411 546

C407 546 396 551 388 556

L383 560

L392 560

C398 559 404 558 407 557

Z

M31 554

C32 552 33 549 33 547

C34 544 34 542 35 541

C35 539 35 539 33 541

C29 544 25 553 26 556

C26 560 28 559 31 554

Z

M209 556

C220 552 230 547 236 543

C239 540 239 539 238 538

C237 537 235 538 232 539

C221 543 212 546 204 548

C180 553 170 556 170 557

C170 558 175 559 188 559

C197 558 201 558 209 556

Z

M545 554

C546 551 547 549 546 549

C546 549 545 550 543 551

C541 552 539 553 538 553

C537 553 536 553 536 554

C536 554 541 559 542 559

C542 559 544 557 545 554

Z

M12 557

C12 553 10 553 6 555

L3 557

L6 557

C12 558 12 558 12 557

Z

M112 555

C110 553 103 542 94 529

C90 524 84 514 78 503

C77 501 75 498 74 498

C72 498 72 499 73 504

C76 521 91 545 106 555

C113 559 113 559 112 555

Z

M21 551

C23 549 24 546 24 546

C23 546 22 547 20 548

C17 550 16 551 16 553

C16 555 16 555 18 554

C19 554 20 552 21 551

Z

M174 551

L181 549

L172 546

C167 545 163 544 162 544

C162 545 162 547 163 550

C163 554 163 555 165 554

C166 554 170 553 174 551

Z

M358 554

C360 553 360 553 355 551

C352 550 348 549 346 549

C343 548 340 547 337 546

C335 544 330 543 327 543

C324 542 317 541 312 539

C304 536 303 536 301 537

C299 539 299 539 307 543

C315 548 324 552 331 553

C337 555 354 555 358 554

Z

M365 542

C367 535 367 533 366 533

C365 533 361 535 356 537

C351 539 345 541 344 542

C340 543 341 544 349 545

C353 546 358 548 359 548

C360 549 362 550 362 549

C362 549 363 546 365 542

Z

M541 548

C543 547 544 546 544 545

C544 545 542 543 539 543

C535 541 533 541 527 542

C521 543 518 543 514 542

C511 542 509 541 508 541

C508 542 517 547 521 549

C527 550 537 550 541 548

Z

M133 545

C137 539 140 533 139 532

C139 532 134 530 129 530

C123 529 118 528 116 527

C115 526 114 526 113 526

C113 527 115 529 118 533

C121 536 125 541 127 544

C128 547 130 549 130 549

C130 549 132 547 133 545

Z

M584 540

C584 539 584 538 582 539

C579 539 579 539 581 544

C582 547 583 547 583 545

C584 544 584 542 584 540

Z

M122 543

C121 542 118 538 115 534

C111 531 108 527 107 525

C107 523 104 520 101 517

C98 515 94 509 91 506

C87 501 85 499 83 499

C82 499 81 499 81 500

C81 501 88 513 93 521

C99 530 106 537 115 542

C123 547 123 547 122 543

Z

M208 543

C218 540 232 535 232 534

C232 534 231 533 231 532

C229 531 227 531 221 533

C217 533 210 534 206 535

C201 535 196 536 193 536

C190 537 184 538 180 539

C175 540 171 540 171 541

C169 542 182 545 191 545

C197 545 202 544 208 543

Z

M552 537

C553 532 553 531 550 533

C549 534 547 536 545 537

L541 539

L543 540

C548 542 550 541 552 537

Z

M170 537

C173 536 179 535 183 534

C187 534 190 533 190 533

C190 533 188 532 186 530

C183 529 178 526 174 524

C166 519 166 519 164 528

C161 541 161 540 170 537

Z

M294 537

C302 533 306 524 302 516

C299 509 286 508 283 515

C281 520 283 526 287 526

C290 526 291 524 291 521

C290 516 292 514 295 518

C298 520 297 524 294 527

C288 533 278 529 278 520

C278 509 290 502 300 508

L303 510

L307 507

C309 506 316 503 321 501

C341 495 344 493 344 493

C344 492 342 490 338 488

C319 476 294 476 280 487

C272 493 270 497 269 512

C269 525 269 529 274 533

C280 539 287 540 294 537

Z

M348 536

C351 535 354 534 354 533

C354 533 350 531 346 530

C338 528 337 528 330 529

C326 530 319 530 315 530

C308 530 306 530 306 531

C306 532 308 533 315 535

C327 539 327 539 335 539

C340 538 345 538 348 536

Z

M531 537

C539 535 549 530 549 529

C549 529 546 528 541 527

C534 526 534 526 524 529

C517 531 513 532 508 532

C500 533 500 533 510 537

C518 540 521 540 531 537

Z

M254 535

C258 533 263 528 264 525

C264 523 265 516 266 510

C266 499 266 498 264 493

C261 487 253 480 246 477

L240 475

L233 479

C226 483 213 488 209 488

C207 488 206 488 206 489

C205 490 205 490 206 490

C209 490 224 498 228 501

L232 505

L236 504

C241 502 245 502 250 504

C256 507 258 518 253 524

C247 532 235 524 239 515

C240 512 242 511 245 512

C246 514 246 514 244 517

C242 519 242 520 243 522

C246 525 252 522 252 516

C252 506 240 503 233 511

C229 515 229 522 232 527

C236 534 246 538 254 535

Z

M584 534

C585 533 586 531 587 528

C587 525 587 525 586 526

C585 527 583 529 582 530

C580 535 581 536 584 534

Z

M577 532

C578 531 577 530 575 530

C573 529 573 529 574 532

C576 535 577 535 577 532

Z

M220 529

C226 528 227 527 227 525

C226 524 224 523 218 523

C213 523 208 522 205 521

C198 519 193 519 184 520

L178 522

L183 525

C194 531 202 532 220 529

Z

M366 528

C365 527 365 524 364 521

C363 518 362 516 361 516

C361 515 357 517 352 520

C347 523 343 525 344 525

C346 527 357 529 362 529

C365 529 366 529 366 528

Z

M525 524

C535 521 544 516 547 512

L550 510

L541 510

C533 511 532 511 522 516

C511 521 502 524 496 524

C493 524 488 526 489 526

C489 526 493 527 497 528

C507 529 513 529 525 524

Z

M143 523

C146 516 145 514 143 514

C142 514 137 514 133 513

C129 513 125 512 125 513

C124 514 139 528 141 528

C142 528 143 526 143 523

Z

M126 520

C119 512 117 510 111 508

C105 506 101 503 96 498

C93 495 92 495 91 496

C90 498 91 499 94 504

C104 517 112 522 123 525

C127 525 130 526 130 526

C130 526 128 523 126 520

Z

M331 524

C338 522 348 518 348 517

C348 516 336 514 332 514

C331 514 328 515 327 516

C321 520 315 523 312 523

C308 523 307 525 310 525

C314 526 326 526 331 524

Z

M554 524

C555 524 555 520 556 517

L556 510

L550 515

C547 517 543 520 542 521

C540 522 540 522 545 524

C551 525 554 525 554 524

Z

M463 523

C475 518 478 503 469 494

C465 490 465 490 460 490

C456 491 454 491 452 494

C446 500 449 510 457 510

C462 510 464 505 459 503

C456 501 455 499 457 497

C461 493 467 499 466 507

C466 508 465 510 464 512

C456 519 442 509 445 498

C446 493 450 489 454 487

C457 486 458 486 458 480

C458 475 459 469 462 459

C467 445 468 442 466 442

C463 442 450 449 445 454

C432 464 426 476 426 490

C426 501 427 505 439 514

C451 524 455 525 463 523

Z

M572 521

L574 519

L571 518

C565 516 564 517 567 522

C569 525 569 525 572 521

Z

M503 519

C506 518 514 515 521 512

C531 507 534 505 540 499

C548 491 547 490 534 496

C529 498 524 500 522 501

C521 501 518 503 516 504

C506 511 492 516 483 518

C476 518 474 519 474 520

C474 522 495 521 503 519

Z

M226 519

C226 518 225 518 224 518

C221 518 214 514 210 510

C205 505 203 505 193 506

L186 506

L191 510

C197 514 204 517 211 519

C217 520 225 520 226 519

Z

M320 516

C325 513 338 502 337 501

C336 500 312 508 309 511

C306 513 306 514 307 516

C308 520 313 520 320 516

Z

M189 515

C191 515 190 514 185 511

C182 508 178 506 177 505

L174 503

L172 507

C168 514 168 516 170 516

C173 517 187 516 189 515

Z

M228 511

C229 508 229 508 226 505

C223 502 208 494 202 493

C200 492 200 492 201 494

C203 498 216 510 219 512

C225 515 226 514 228 511

Z

M488 512

C495 511 508 504 517 498

C526 492 541 475 537 475

C536 475 518 487 509 493

C503 498 489 506 483 508

C480 509 478 511 478 512

C477 514 479 515 488 512

Z

M359 512

C359 511 354 502 351 498

L348 495

L343 500

C341 503 338 506 337 508

L335 510

L340 511

C343 511 346 512 348 512

C350 513 358 512 359 512

Z

M147 505

C147 501 147 492 145 491

C145 491 141 492 136 493

L126 495

L133 501

C143 511 146 512 147 505

Z

M128 502

L121 496

L113 496

C108 496 104 495 101 494

C95 491 95 491 99 495

C104 501 112 505 124 508

C135 510 135 510 128 502

Z

M503 492

C507 490 512 486 514 483

C519 478 526 466 526 465

C526 463 521 467 515 472

C512 475 508 478 506 479

C504 479 500 483 498 485

C495 488 489 493 485 496

C478 501 478 502 479 504

C479 506 481 505 488 501

C493 499 500 495 503 492

Z

M555 504

C555 504 553 493 552 492

C552 492 550 494 548 496

C546 498 543 501 542 502

C541 503 540 505 540 505

C540 506 554 505 555 504

Z

M196 501

L201 501

L198 496

C196 494 194 491 194 491

C194 491 191 490 189 490

C184 489 184 489 181 494

C179 496 177 499 177 499

C177 501 186 503 196 501

Z

M487 490

C496 482 503 473 505 464

C505 462 505 460 506 459

C506 457 505 457 502 460

C493 466 491 470 488 477

C486 480 482 486 480 489

C477 492 475 494 476 495

C476 497 478 497 487 490

Z

M87 494

C89 493 92 491 93 489

C100 481 93 468 83 469

C77 471 73 480 79 482

C81 483 81 483 82 482

C85 477 87 476 88 477

C92 480 89 485 84 487

C75 489 69 480 74 471

C76 468 81 465 85 465

C90 465 97 470 99 475

C100 478 101 478 103 478

C106 477 115 478 128 483

C134 484 140 486 142 487

L145 487

L143 483

C137 468 126 456 112 449

C108 447 105 446 98 446

C85 446 81 448 73 458

C69 463 66 468 65 469

C62 473 62 481 64 486

C68 494 79 497 87 494

Z

M540 489

C544 488 547 487 549 487

C551 487 551 487 549 484

C549 482 547 479 546 477

L544 473

L541 478

C539 481 536 486 534 488

C531 492 530 493 532 493

C533 492 536 491 540 489

Z

M126 491

C130 490 133 489 133 489

C133 488 112 482 106 482

C104 482 101 482 101 482

C100 482 100 484 100 486

C100 488 100 489 103 490

C107 492 116 493 126 491

Z

M476 486

C478 484 481 481 482 478

C485 473 489 460 489 455

C489 453 489 453 483 459

L477 465

L476 474

C475 480 475 484 473 486

C470 491 472 491 476 486

Z

M470 484

C470 483 471 479 472 476

C472 469 470 452 469 454

C468 455 462 473 461 477

C460 484 462 486 467 487

C467 487 469 486 470 484

Z

M190 478

C190 476 190 471 191 468

L191 461

L184 465

C177 469 170 474 171 476

C172 477 185 481 188 481

C190 481 190 480 190 478

Z

M211 479

C222 476 230 471 238 464

C246 455 249 449 249 438

L249 431

L242 420

C235 410 231 407 225 405

C218 404 208 410 206 417

C204 422 205 429 208 433

C210 436 216 439 221 438

C222 437 225 436 226 434

C231 429 230 422 224 419

C222 418 221 418 219 419

C216 421 216 423 219 426

C223 429 220 434 215 430

C213 429 213 428 213 424

C213 417 219 413 225 415

C232 418 235 427 232 434

C230 437 225 441 220 442

C216 442 216 443 214 448

C213 451 210 456 207 460

C195 477 194 479 194 480

C194 482 203 481 211 479

Z

M536 471

L541 469

L537 465

C535 463 533 461 533 461

C533 461 525 474 524 477

C524 478 525 477 527 476

C529 475 532 473 536 471

Z

M513 469

C516 466 521 462 524 460

C528 459 530 457 529 457

C528 456 512 453 511 454

C511 454 510 457 510 460

C509 463 508 467 507 469

C505 476 505 476 513 469

Z

M172 464

L176 454

L171 456

C166 458 155 464 155 466

C155 466 165 473 167 473

C167 473 169 469 172 464

Z

M558 472

C559 472 558 471 556 469

C552 467 551 467 554 471

C555 473 556 473 558 472

Z

M57 469

C59 468 63 464 68 458

L76 448

L68 445

C63 443 59 442 59 442

C59 442 60 443 60 445

C62 452 57 461 50 462

C47 462 46 462 43 459

C40 456 39 453 42 448

C44 445 47 444 50 445

C52 447 51 450 47 451

C44 451 43 454 46 456

C48 459 50 458 53 456

C58 451 58 446 53 441

C49 438 46 437 41 439

C36 440 33 445 32 452

C32 457 32 459 34 462

C39 470 49 473 57 469

Z

M402 470

C418 468 439 452 450 434

C462 414 463 387 453 366

C448 354 439 344 425 332

C404 314 399 308 400 299

C401 292 399 292 395 296

C388 303 380 303 359 300

C350 298 342 298 331 298

C316 298 314 298 307 300

C287 307 270 322 263 339

C256 353 254 373 257 389

C259 402 267 413 279 423

C297 438 318 440 335 429

L338 427

L338 432

C340 440 343 447 349 453

C355 460 361 464 371 467

C382 471 391 472 402 470

Z

M208 451

C212 444 212 441 209 439

C206 438 206 438 203 441

C200 445 196 454 195 464

L195 471

L200 463

C203 459 207 453 208 451

Z

M182 461

C189 458 193 455 193 453

C193 450 197 441 201 437

C206 433 203 432 196 437

C190 441 183 450 178 458

C175 465 175 465 182 461

Z

M156 456

C158 452 161 447 163 444

C164 441 166 439 165 439

C165 439 162 440 158 442

C154 444 148 446 145 446

C142 447 139 448 139 449

C139 450 151 463 152 462

C153 462 154 459 156 456

Z

M499 457

C502 455 504 452 504 452

C504 451 496 446 495 446

C494 446 494 449 494 452

C493 455 493 459 492 460

C492 463 492 462 499 457

Z

M490 444

C490 444 489 443 487 442

C484 440 473 439 472 441

C471 441 472 446 473 451

L475 460

L483 453

C487 448 490 445 490 444

Z

M564 455

C560 453 559 453 554 454

C544 455 543 456 552 456

C556 456 561 457 563 457

C567 458 568 458 564 455

Z

M172 451

C178 449 180 447 185 442

C188 438 193 434 196 432

C199 431 201 429 201 428

C201 425 199 426 188 430

C176 435 169 441 163 450

L161 455

L163 454

C164 454 169 452 172 451

Z

M539 442

C538 440 538 435 537 431

L537 425

L533 429

C530 433 524 444 525 445

C525 446 528 446 532 446

L539 446

L539 442

Z

M553 444

C563 442 563 442 558 432

L553 423

L549 429

C544 437 543 440 543 444

C543 446 543 446 545 446

C546 445 550 445 553 444

Z

M520 431

C520 424 520 417 520 417

C519 417 517 420 515 424

C512 428 508 433 505 435

L501 439

L504 440

C508 442 518 445 520 445

C521 445 521 442 520 431

Z

M150 430

C149 430 139 433 136 434

C133 436 132 437 135 441

L136 444

L143 437

C147 434 150 431 150 430

Z

M158 438

C161 436 166 435 168 434

C171 434 174 433 175 432

C178 430 185 426 194 424

C199 422 201 421 201 419

C201 416 201 416 187 419

C170 422 160 427 149 437

C146 439 144 442 144 442

C144 443 151 441 158 438

Z

M28 436

C25 433 24 428 23 425

C22 419 21 419 16 415

C11 411 9 412 9 416

C9 419 13 426 17 431

C20 435 30 442 31 442

C31 441 29 439 28 436

Z

M37 436

C42 434 41 431 32 421

L25 414

L26 418

C27 425 29 432 31 434

C33 437 34 437 37 436

Z

M500 427

C501 422 502 418 502 418

C502 417 500 419 499 421

C497 423 493 426 492 427

C490 428 488 430 488 430

C488 432 496 437 497 436

C497 436 499 432 500 427

Z

M279 433

C279 433 277 431 274 429

C271 427 267 422 264 419

C261 416 259 414 258 414

C257 414 256 413 254 412

C248 409 245 400 249 395

C250 393 251 391 250 389

C250 387 249 385 248 385

C246 385 240 391 238 396

C236 402 237 406 245 418

C252 429 254 431 263 433

C266 434 279 434 279 433

Z

M530 426

C533 422 536 418 536 417

C537 415 537 412 538 409

C538 405 540 400 542 396

C545 391 545 390 544 389

C543 388 542 388 539 392

C534 398 527 408 526 413

C524 417 523 435 524 434

C525 434 527 430 530 426

Z

M545 428

C551 418 551 419 549 411

C548 405 548 399 550 395

C550 394 550 393 549 393

C547 393 542 405 541 413

C540 419 541 434 542 434

C542 434 543 431 545 428

Z

M512 421

C514 418 517 414 519 412

C521 411 524 407 526 404

C527 401 531 396 534 392

C540 385 541 382 539 381

C539 380 535 382 532 385

C517 398 508 411 505 424

C504 427 503 430 503 431

C503 432 508 426 512 421

Z

M562 411

C563 397 562 395 557 395

C554 395 553 396 553 399

C551 403 553 412 557 422

L560 429

L561 426

C562 424 562 417 562 411

Z

M485 421

C486 419 488 414 489 411

C491 407 492 404 492 404

C492 404 490 405 488 407

C486 409 482 411 479 413

C476 414 474 416 474 416

C474 416 476 419 479 422

C484 428 484 427 485 421

Z

M157 423

C160 423 166 421 170 419

C173 418 182 416 188 415

C202 412 204 412 205 410

C206 407 186 407 175 409

C161 413 158 414 153 420

C150 424 148 426 149 426

C150 426 153 424 157 423

Z

M499 415

C515 396 522 388 535 378

C537 376 538 374 538 373

C538 371 537 371 529 375

C513 383 493 406 490 421

L489 424

L492 422

C493 421 497 417 499 415

Z

M19 400

C18 397 17 394 17 394

C16 394 12 407 13 408

C13 408 15 409 17 411

L21 413

L21 409

C21 407 20 403 19 400

Z

M473 408

C473 406 475 403 477 400

C479 397 480 395 480 395

C480 394 477 395 475 396

L470 397

L470 403

C470 406 470 409 470 410

C471 412 472 411 473 408

Z

M481 407

C484 406 488 403 490 401

C492 399 496 397 497 396

C498 395 502 392 504 389

C511 382 523 373 532 370

C545 364 544 363 530 367

C524 368 516 371 512 373

C505 376 491 387 485 395

C482 398 475 410 476 410

C477 410 479 409 481 407

Z

M183 404

C189 403 193 403 199 404

C203 405 207 405 209 405

C211 405 211 405 208 403

C200 400 186 397 177 397

C166 397 166 397 163 404

L161 409

L168 407

C172 406 179 405 183 404

Z

M254 404

C252 398 251 397 251 401

C251 403 255 410 256 409

C256 409 255 406 254 404

Z

M236 391

C238 387 237 377 235 371

C230 358 217 342 201 333

C192 326 175 316 174 316

C174 317 179 349 180 354

C184 366 189 377 196 387

C203 396 212 401 220 401

C223 401 227 402 229 402

L233 404

L234 399

C234 396 235 392 236 391

Z

M196 394

C191 389 171 383 170 386

C169 386 169 388 169 390

L168 393

L178 393

C183 393 190 394 193 394

C195 395 198 396 198 396

C198 396 198 395 196 394

Z

M480 390

C484 388 488 386 494 381

C502 374 513 367 521 365

C527 363 524 362 514 363

C504 364 500 366 489 373

C476 382 465 394 472 393

C473 392 477 391 480 390

Z

M185 381

C181 377 173 372 172 373

C171 373 171 375 171 377

L170 381

L174 381

C176 381 180 382 183 383

C185 384 188 385 188 385

C188 385 187 383 185 381

Z

M473 381

L475 378

L472 378

C469 378 469 378 469 381

C469 383 469 384 470 384

C470 384 472 383 473 381

Z

M246 374

C247 369 249 363 249 359

C250 351 254 339 258 333

C262 326 259 330 253 339

C247 348 244 357 243 369

C241 386 242 387 246 374

Z

M182 371

C179 368 173 362 172 362

C171 362 171 363 171 365

C171 367 172 368 177 371

C184 375 185 375 182 371

Z

M488 369

C496 364 504 360 507 360

C511 360 511 358 506 358

C496 356 491 357 482 361

C474 365 467 370 467 373

C467 374 468 374 474 374

C481 373 482 373 488 369

Z

M244 347

C245 344 248 339 251 335

C256 327 259 317 259 312

L259 309

L253 314

C250 318 247 323 243 330

C238 342 236 349 237 358

C238 369 238 369 240 360

C242 355 243 349 244 347

Z

M470 363

C470 362 468 362 467 362

C463 362 463 362 464 364

C465 367 465 367 468 365

C469 364 470 363 470 363

Z

M176 357

C175 355 173 352 172 351

C170 350 170 350 170 351

C171 352 171 354 171 355

C171 357 177 361 178 360

C178 360 177 359 176 357

Z

M548 356

C551 355 555 353 556 353

C559 352 559 352 557 349

C557 347 555 343 555 340

C553 328 541 318 519 311

C509 309 495 307 476 308

L463 308

L473 320

C486 335 494 343 503 349

C521 360 536 363 548 356

Z

M484 356

C489 354 492 353 497 353

C502 353 502 353 500 352

C495 349 486 348 480 349

C473 350 471 351 468 355

L465 358

L468 358

C474 359 478 359 484 356

Z

M471 348

C473 348 472 346 468 345

C466 344 464 344 464 345

C464 345 463 348 463 350

L462 355

L465 352

C467 350 470 348 471 348

Z

M233 347

C233 344 236 337 238 332

C242 321 242 320 240 310

L240 307

L237 311

C233 317 228 330 228 337

C228 342 231 355 232 354

C232 354 232 351 233 347

Z

M174 344

C173 340 172 338 170 338

C168 338 170 345 173 347

C175 348 175 348 174 344

Z

M224 342

C223 338 223 335 224 330

C225 327 226 322 226 321

C226 317 224 311 223 311

C223 311 221 313 220 316

C216 324 218 339 223 346

C225 348 225 347 224 342

Z

M490 344

C490 343 481 339 476 338

C474 338 471 338 470 339

C468 340 468 340 472 343

C476 344 479 345 484 345

C487 345 490 344 490 344

Z

M573 340

C573 340 573 339 572 339

C572 340 572 340 572 341

C573 343 574 342 573 340

Z

M469 335

C469 335 468 333 467 333

C465 331 465 331 465 334

C465 338 465 338 467 337

C468 336 469 335 469 335

Z

M213 330

C213 326 211 322 210 319

C207 316 207 316 206 318

C205 321 206 324 208 329

C210 332 214 337 214 337

C215 337 214 334 213 330

Z

M480 334

C480 333 474 328 472 328

C470 328 470 330 472 332

C475 335 480 336 480 334

Z

M172 330

C172 328 171 326 171 326

C171 326 170 328 169 329

C167 333 167 334 171 334

C172 334 172 333 172 330

Z

M557 329

C557 329 556 325 554 320

C552 311 551 301 552 285

C552 277 551 253 550 252

C549 252 546 258 544 265

C542 273 542 296 544 304

C547 315 557 334 557 329

Z

M203 327

C203 326 201 324 200 322

L196 319

L196 321

C196 323 197 325 199 326

C202 328 203 328 203 327

Z

M471 324

C471 324 470 322 469 320

C467 318 466 317 465 317

C465 317 465 319 466 322

C466 326 467 326 468 325

C470 325 471 325 471 324

Z

M563 306

C564 297 564 287 565 284

C567 274 569 255 569 253

C568 252 568 252 566 256

C559 266 556 280 556 298

C556 310 556 314 559 322

C560 324 560 324 561 323

C562 322 563 318 563 306

Z

M192 318

C193 316 193 316 190 316

C188 317 186 317 185 317

C184 317 185 318 187 319

C191 322 192 321 192 318

Z

M276 307

C275 305 265 303 264 304

C264 305 264 308 263 312

L262 319

L270 313

C274 310 277 307 276 307

Z

M544 314

C540 306 539 298 539 287

C539 281 538 275 538 272

C537 267 533 258 532 258

C531 258 529 267 529 275

C529 286 531 297 533 303

C536 308 544 319 545 319

C546 319 545 317 544 314

Z

M204 313

C203 313 202 313 200 314

C198 315 198 315 199 317

C201 318 202 318 203 316

C203 315 204 313 204 313

Z

M215 317

C215 316 216 314 218 312

L220 308

L218 308

C213 310 210 311 210 312

C210 314 213 318 214 318

C215 318 215 317 215 317

Z

M252 309

C256 306 259 303 259 302

C259 301 245 302 245 303

C244 304 245 316 245 316

C246 316 249 313 252 309

Z

M236 306

L238 303

L235 304

C228 305 227 305 228 310

C229 312 229 314 229 315

C229 315 230 314 231 312

C232 310 234 307 236 306

Z

M420 308

C425 304 426 302 424 302

C423 302 419 300 415 299

C412 297 408 295 408 295

C407 297 413 312 415 312

C415 312 418 310 420 308

Z

M532 308

C529 304 527 297 526 288

C525 282 524 278 522 276

C520 271 515 266 515 266

C513 266 514 279 516 286

C518 296 520 300 527 306

C532 311 534 312 532 308

Z

M519 303

C515 299 512 291 512 287

C512 287 510 284 507 281

L503 277

L502 282

C502 286 503 288 505 293

C508 299 510 301 516 305

C522 309 523 309 519 303

Z

M506 301

C504 299 502 296 502 296

C502 295 492 291 491 291

C490 293 493 297 497 300

C506 306 511 307 506 301

Z

M481 303

C481 303 480 302 480 300

C479 298 478 298 475 301

L471 304

L476 304

C479 304 481 304 481 303

Z

M493 302

C492 300 485 298 484 299

C483 301 487 303 490 303

C494 303 494 303 493 302

Z

M227 298

C250 293 272 273 282 250

C289 232 283 204 270 189

C263 182 254 178 246 177

C239 177 238 176 240 174

C242 173 246 164 247 158

C250 144 243 127 230 113

C216 99 204 95 181 96

C151 98 129 112 116 138

C108 155 107 172 112 199

C117 223 117 230 111 236

C106 242 107 243 114 243

C124 243 128 246 145 264

C153 272 162 281 165 284

C173 290 186 296 194 297

C202 299 219 299 227 298

Z

M433 293

L435 290

L431 289

C428 288 424 287 422 285

C417 283 417 283 420 289

C428 299 428 299 430 298

C431 297 432 295 433 293

Z

M416 289

C409 280 403 276 393 271

C387 268 371 261 369 261

C369 261 369 262 369 263

C369 265 370 267 376 270

C381 272 386 276 390 279

C393 281 397 284 399 285

C402 285 405 287 407 289

C411 292 420 297 421 296

C421 296 419 293 416 289

Z

M488 293

C487 293 487 291 487 291

C487 290 486 291 485 292

C482 294 482 295 486 295

C488 295 488 295 488 293

Z

M379 293

C379 291 366 276 364 277

C364 278 365 279 366 281

C367 282 368 285 369 288

C370 290 370 292 371 293

C371 294 379 295 379 293

Z

M366 292

C366 289 363 283 362 282

C361 281 359 281 358 282

C355 283 354 284 355 288

C355 291 356 292 359 292

C364 293 366 293 366 292

Z

M391 289

L393 288

L388 283

C385 280 379 276 375 274

C369 271 368 270 368 272

C367 273 369 275 372 278

C375 280 378 284 380 287

C384 293 385 293 391 289

Z

M351 287

C351 284 350 283 347 283

C338 279 333 269 337 261

C340 258 345 255 348 255

C352 255 356 259 356 263

C356 269 350 274 346 272

C344 270 345 267 349 266

C353 266 354 264 352 261

C349 258 347 258 343 262

C341 264 340 265 340 268

C340 271 341 273 343 276

C354 286 369 272 364 257

C363 254 358 249 355 247

C351 245 343 246 339 248

C334 251 320 266 319 269

C318 273 318 287 319 289

C320 290 322 291 335 291

L351 291

L351 287

Z

M498 283

L498 277

L494 281

C493 283 491 285 491 285

C491 286 496 289 498 289

C498 289 498 286 498 283

Z

M440 279

C442 275 443 272 443 271

C443 271 441 271 438 271

C435 271 430 270 427 269

L421 267

L425 271

C428 273 431 277 434 280

C436 283 437 286 438 286

C438 286 439 282 440 279

Z

M431 284

C431 282 422 273 416 269

C403 260 388 254 375 253

C368 253 367 253 367 254

C367 255 371 257 377 259

C383 262 397 268 409 274

C421 280 430 285 431 285

C431 285 431 285 431 284

Z

M510 271

L511 264

L507 268

L503 271

L506 275

C508 276 509 278 510 278

C510 278 510 274 510 271

Z

M528 257

C529 255 529 253 529 253

C529 252 523 255 518 258

C516 259 516 261 521 267

L524 271

L526 265

C526 262 527 258 528 257

Z

M564 251

L568 246

L560 246

C556 246 552 246 552 246

C552 246 553 249 554 251

C554 254 555 259 555 262

L555 269

L558 262

C560 259 563 254 564 251

Z

M434 263

C428 258 421 254 410 249

C400 246 399 246 385 246

C369 245 360 247 364 248

C365 248 368 249 372 249

C381 249 392 252 403 257

C407 259 412 261 413 261

C415 261 420 262 425 264

C429 266 435 267 436 267

C438 267 438 267 434 263

Z

M313 265

C315 264 319 262 325 256

C335 246 337 242 337 234

C336 223 324 215 313 219

C305 223 302 231 306 238

C307 241 312 244 315 244

C320 244 325 237 323 233

C321 230 318 230 316 234

C314 237 311 237 310 233

C309 228 317 224 323 227

C329 230 329 238 324 243

C319 248 314 249 309 247

C305 245 301 239 300 236

C300 233 299 233 296 233

L291 233

L291 240

C290 243 289 250 288 254

C287 258 286 261 286 262

C287 262 289 263 292 264

C298 266 307 267 313 265

Z

M444 264

C445 263 445 260 445 257

C445 253 445 253 441 253

C439 253 436 253 434 254

L430 254

L436 260

C440 263 443 266 443 266

C443 266 444 265 444 264

Z

M583 251

C583 250 580 249 576 248

L573 247

L572 256

L572 266

L578 259

C581 255 583 251 583 251

Z

M542 260

C543 257 544 254 545 252

C546 250 547 248 547 247

C546 246 535 249 534 250

C534 251 539 264 540 264

C540 264 541 262 542 260

Z

M435 249

L439 248

L434 245

C426 240 409 235 398 235

C393 235 380 238 378 240

C377 240 382 241 388 241

C398 242 401 242 409 245

C421 250 427 251 435 249

Z

M444 240

C443 234 442 234 439 234

C438 234 435 235 432 236

L429 237

L434 240

C436 242 440 244 442 245

C445 248 445 248 444 240

Z

M547 239

C548 239 551 239 553 238

L557 238

L554 232

C552 229 551 225 551 224

C551 223 550 222 546 222

C540 221 534 215 533 209

C532 197 545 190 551 198

C553 201 553 202 552 205

C551 209 547 213 545 211

C542 209 543 207 546 206

C550 204 550 201 547 199

C544 198 542 199 539 202

C532 210 543 221 554 216

C565 211 563 193 552 187

C546 184 542 184 536 187

C532 189 530 192 524 200

L517 211

L517 219

C518 228 520 234 525 240

L528 244

L536 241

C541 240 545 239 547 239

Z

M590 243

C590 241 582 228 578 224

C574 219 564 212 562 213

C562 213 564 215 565 217

C569 221 573 230 573 233

C573 235 575 237 582 241

C589 244 590 245 590 243

Z

M370 240

C381 234 395 217 402 203

C403 198 412 175 412 174

C412 173 409 174 405 175

C402 176 396 177 393 177

C378 177 350 197 343 214

C340 219 340 220 340 231

L341 243

L353 242

C364 242 365 242 370 240

Z

M570 235

C568 230 565 223 562 220

C560 218 560 218 558 219

C554 221 555 228 561 236

C563 238 564 239 567 239

L570 239

L570 235

Z

M30 233

C38 231 38 228 29 226

C26 226 21 224 18 223

C16 221 12 220 11 220

L9 219

L11 222

C13 224 15 228 16 231

L19 237

L23 235

C26 234 29 233 30 233

Z

M430 232

C433 231 435 230 435 230

C436 227 422 224 412 224

C403 224 402 224 396 227

C392 229 389 231 389 231

C388 231 392 231 396 231

C401 231 407 231 411 232

C418 234 424 234 430 232

Z

M301 226

C302 224 302 223 301 222

C299 221 293 218 292 218

C291 218 291 228 292 228

C292 229 294 229 296 229

C299 229 300 229 301 226

Z

M438 223

C438 221 437 219 436 218

C436 217 433 217 429 220

L427 221

L429 222

C430 222 433 223 435 224

C438 226 440 227 440 227

C440 227 439 225 438 223

Z

M41 219

C43 216 44 214 43 214

C43 213 41 213 39 213

C37 213 33 212 30 212

C28 211 25 210 25 210

C25 210 28 213 32 217

C35 221 39 224 39 224

C39 224 40 222 41 219

Z

M403 220

C405 219 410 219 413 219

C418 220 420 219 425 217

L431 214

L427 212

C418 209 403 213 397 220

C395 222 395 222 396 222

C397 221 400 220 403 220

Z

M337 197

C336 187 336 184 333 176

C328 163 324 156 318 150

C314 146 314 146 314 148

C314 150 315 155 317 159

C319 164 320 169 320 170

C320 171 321 174 323 177

C328 187 332 198 333 209

C334 215 334 220 335 220

C336 222 337 208 337 197

Z

M305 219

C305 217 299 211 294 208

C290 206 288 204 287 204

C287 204 288 207 288 209

C290 213 290 213 295 215

C298 216 301 217 302 218

C303 220 305 221 305 219

Z

M311 216

C313 215 305 202 297 194

C292 189 289 187 284 185

C281 184 277 183 276 183

C276 183 277 186 280 191

C285 197 287 199 292 202

C295 204 300 208 303 211

C309 217 309 217 311 216

Z

M329 210

C329 202 324 187 318 176

C312 166 298 151 296 153

C296 154 299 160 307 175

C316 190 320 198 323 206

C327 218 329 219 329 210

Z

M321 214

C321 212 314 196 311 190

C306 181 300 173 292 167

C288 165 285 163 285 163

C284 163 287 169 292 176

C294 179 297 183 297 185

C298 187 300 190 302 192

C305 196 312 206 314 211

C316 213 317 214 319 214

C320 214 321 214 321 214

Z

M505 212

C509 211 512 209 513 209

C514 208 518 203 522 197

C528 187 529 185 529 181

C529 176 528 172 524 169

C517 161 505 161 498 169

C491 177 496 189 507 189

C511 189 514 186 516 182

C517 176 510 174 507 179

C506 183 503 183 502 179

C501 177 502 176 503 174

C508 170 516 170 519 176

C520 180 520 181 518 186

C513 196 500 195 494 185

C492 182 491 182 485 182

C480 182 474 181 467 180

C451 175 447 175 447 177

C447 180 455 192 462 198

C477 212 490 217 505 212

Z

M418 203

L421 199

L418 199

C414 199 412 200 407 205

C401 210 401 211 408 209

C412 207 415 205 418 203

Z

M429 206

C428 203 426 201 426 201

C426 201 424 202 423 204

L420 207

L422 207

C423 207 426 208 428 208

C432 211 432 210 429 206

Z

M47 203

C49 194 49 195 38 194

L27 194

L33 198

C36 200 40 204 42 205

C43 207 45 209 45 209

C45 209 46 206 47 203

Z

M345 197

C346 193 347 188 347 185

C347 181 343 164 341 158

C339 155 333 147 332 147

C330 147 332 163 335 170

C339 179 341 189 341 199

C341 209 342 208 345 197

Z

M412 196

C416 191 417 188 413 190

C411 190 408 196 408 198

C408 199 410 198 412 196

Z

M422 193

C421 190 421 190 419 192

C417 194 418 195 420 195

C423 196 423 196 422 193

Z

M356 184

C357 181 358 177 358 174

C358 168 358 168 353 165

C350 163 348 162 347 162

C347 163 348 167 349 172

C351 180 351 184 351 188

L350 194

L352 192

C353 191 355 187 356 184

Z

M48 184

L48 178

L44 177

C41 177 38 177 35 178

L32 179

L38 183

C42 184 45 187 46 188

C47 188 48 189 48 189

C48 189 48 187 48 184

Z

M366 180

C368 177 369 174 369 174

C369 173 364 171 362 171

C362 171 362 173 362 175

C362 178 361 182 360 184

L359 188

L361 186

C362 185 365 182 366 180

Z

M418 183

C417 182 417 180 416 179

L416 176

L414 179

C413 184 413 185 416 185

C418 185 418 185 418 183

Z

M288 178

C284 173 279 163 279 160

C279 160 279 159 278 159

C277 159 269 169 267 173

C266 175 266 176 279 179

C284 181 289 183 290 183

C293 185 292 183 288 178

Z

M547 181

C551 181 554 180 558 178

C565 174 573 164 578 154

C586 139 586 139 582 130

C581 126 578 119 577 115

C576 111 575 108 575 107

C574 107 572 108 569 110

C550 121 536 138 531 153

C528 161 528 165 531 171

C532 174 533 178 533 180

L533 184

L537 182

C539 182 543 181 547 181

Z

M374 178

C376 176 377 175 375 175

C373 175 371 178 371 179

C371 180 372 180 374 178

Z

M491 175

C492 173 491 171 490 170

C488 169 481 168 475 168

C468 169 457 172 457 173

C459 174 477 178 483 178

L491 178

L491 175

Z

M456 169

C460 168 464 167 464 166

C465 166 455 157 451 155

C448 154 448 154 445 156

C443 158 443 159 443 164

C444 171 445 172 447 172

C448 171 452 170 456 169

Z

M69 164

C68 156 67 155 66 157

C65 158 63 161 61 164

C58 167 56 170 56 170

C56 171 59 171 63 171

L69 171

L69 164

Z

M83 169

C86 168 88 168 88 167

C89 166 85 154 84 154

C84 154 83 155 83 156

C82 158 80 161 78 164

C77 167 75 170 74 170

C74 171 75 171 76 171

C77 170 80 170 83 169

Z

M51 163

C51 160 52 155 52 152

L54 148

L49 153

C46 156 42 160 40 161

C38 163 36 165 37 165

C38 166 46 169 49 169

C51 169 51 169 51 163

Z

M492 164

C485 158 471 153 460 153

L456 153

L460 157

C468 164 469 165 478 164

C484 164 486 164 490 166

C495 168 496 167 492 164

Z

M296 162

C294 160 293 156 292 153

C291 151 290 149 290 149

C290 149 288 151 286 153

C282 155 282 156 283 157

C284 157 287 160 291 162

C295 165 298 167 298 167

C298 167 297 165 296 162

Z

M64 153

C67 147 73 132 74 123

C75 119 75 113 75 110

C74 98 72 88 71 88

C70 88 70 92 70 97

C70 108 68 116 64 128

C62 133 60 138 59 141

C59 143 58 147 57 151

C56 155 55 159 55 161

L55 165

L58 161

C60 159 62 156 64 153

Z

M79 155

C82 149 85 133 85 125

C85 119 81 104 79 103

C79 102 78 107 78 114

C78 124 78 127 75 136

C73 144 72 148 72 154

C72 159 72 163 73 163

C74 164 76 162 79 155

Z

M99 163

C102 162 104 157 102 154

L101 152

L100 154

C99 155 98 158 97 160

C95 164 95 165 99 163

Z

M498 158

C493 152 483 142 478 140

C473 138 465 136 460 136

C458 136 459 137 465 143

C471 149 474 151 477 152

C483 154 492 159 495 162

C497 163 498 164 499 163

C501 162 501 162 498 158

Z

M524 157

C523 138 520 129 513 117

L508 109

L504 112

C503 114 501 116 501 117

C501 117 503 121 506 124

C515 136 518 144 522 159

C524 165 525 164 524 157

Z

M32 158

C33 156 34 152 36 149

L38 144

L30 150

C26 153 22 156 22 157

C22 157 29 162 31 162

C31 162 32 160 32 158

Z

M312 156

C311 153 310 148 309 146

C309 140 309 140 300 144

L295 147

L300 150

C302 151 307 155 309 157

C311 160 313 162 314 162

C314 162 313 159 312 156

Z

M95 156

C96 153 96 147 97 140

C97 130 97 129 95 124

C93 121 91 117 90 116

C89 114 88 114 88 124

C88 130 88 138 88 142

C87 148 87 149 89 155

C90 158 92 161 92 161

C93 161 94 159 95 156

Z

M508 159

C509 158 508 157 505 150

C499 141 489 129 486 127

C484 125 483 125 479 126

L475 127

L479 133

C481 136 486 141 489 143

C492 146 497 151 500 154

C505 160 505 161 508 159

Z

M518 159

C518 157 514 146 512 142

C509 136 501 123 498 121

C496 119 496 119 493 121

C491 122 489 123 489 123

C489 124 492 127 495 131

C498 134 504 142 508 148

C511 154 515 159 515 159

C517 160 518 160 518 159

Z

M55 136

C62 124 65 112 66 102

C66 97 66 93 65 93

C63 93 62 95 59 105

C57 111 54 120 52 125

C34 161 34 163 44 152

C49 147 52 142 55 136

Z

M327 139

C326 138 324 138 320 139

C317 139 314 139 314 139

C314 140 317 142 320 146

C323 149 326 153 326 153

C326 154 327 151 327 148

C328 143 328 141 327 139

Z

M20 148

C21 146 23 140 26 136

C29 131 31 128 31 127

C31 127 30 128 29 128

C28 129 23 131 19 132

C6 137 5 138 6 140

C7 142 17 153 18 153

C18 153 19 151 20 148

Z

M108 135

C108 132 104 125 100 122

L97 119

L99 123

C101 127 101 130 101 136

C101 140 102 145 103 147

L104 151

L106 144

C107 140 108 137 108 135

Z

M36 139

C40 135 45 129 47 126

C50 119 58 97 57 96

C57 95 56 96 55 96

C53 96 51 98 49 104

C47 108 43 114 41 117

C39 120 36 124 36 125

C35 127 33 132 31 135

C29 139 26 144 25 146

C24 149 24 149 26 148

C27 147 32 143 36 139

Z

M461 145

C459 142 456 140 456 140

C455 140 452 147 452 148

C452 149 455 149 459 149

L465 149

L461 145

Z

M530 137

C530 132 530 126 529 124

C528 119 518 98 517 98

C516 98 511 105 511 106

C511 107 513 110 514 113

C522 124 527 138 527 145

C527 148 527 148 528 147

C529 147 529 142 530 137

Z

M473 132

C471 129 469 128 467 128

C465 128 462 128 460 127

C456 126 456 126 457 129

C457 131 458 132 464 132

C468 133 472 133 473 134

C474 134 476 135 476 135

C476 135 475 133 473 132

Z

M537 129

C540 120 540 114 536 104

C533 96 529 87 527 87

C527 87 526 90 525 95

C525 101 525 103 527 107

C531 117 534 126 534 130

C534 133 534 135 534 135

C535 135 536 132 537 129

Z

M24 126

C32 122 40 113 47 100

C48 97 48 96 47 95

C46 94 45 95 41 99

C38 103 33 107 30 109

C27 111 23 114 22 115

C20 118 14 129 14 130

C14 130 18 129 24 126

Z

M112 128

C112 128 111 127 111 127

C110 126 109 127 110 128

C110 129 112 130 112 128

Z

M547 118

C550 111 550 101 547 95

C545 93 544 91 543 91

C543 91 542 93 541 96

C540 100 540 101 542 107

C543 112 543 116 543 121

C542 127 542 127 544 126

C544 124 546 121 547 118

Z

M117 120

C120 117 130 107 136 103

C138 101 138 101 135 96

C128 85 116 73 107 68

C101 66 97 65 81 66

L76 66

L76 77

C76 88 76 89 79 95

C83 103 93 112 105 119

C109 122 114 124 114 124

C114 124 116 122 117 120

Z

M558 109

C561 103 562 98 560 97

C560 96 558 98 556 101

C554 104 553 107 553 110

C553 112 553 115 552 116

C551 120 556 114 558 109

Z

M20 110

C28 106 35 101 38 96

C40 94 41 92 41 92

C41 91 39 92 36 94

C33 96 29 98 25 98

C17 100 17 100 11 108

L7 114

L10 113

C12 113 16 111 20 110

Z

M570 104

C571 103 571 101 571 100

C571 99 570 99 567 102

C566 103 564 106 563 107

L563 109

L566 107

C568 106 570 105 570 104

Z

M145 97

C146 96 140 94 139 94

C139 95 139 96 140 96

C141 98 145 99 145 97

Z

M557 92

C557 91 554 90 551 89

L546 87

L548 90

C550 92 551 95 552 96

L552 98

L555 96

C556 94 557 92 557 92

Z

M569 95

C569 94 564 93 563 94

C563 94 563 95 564 96

C565 98 565 98 567 97

C568 96 569 95 569 95

Z

M522 92

C522 90 522 90 521 92

C520 93 519 95 520 95

C520 97 522 94 522 92

Z

M31 92

C37 90 38 88 36 85

C35 82 35 82 31 82

C27 83 10 90 6 94

C4 95 4 95 15 95

C24 94 28 94 31 92

Z

M538 92

C540 87 539 85 535 84

C529 82 529 83 533 88

C534 90 536 93 536 93

C536 95 538 94 538 92

Z

M163 90

C165 90 166 89 166 88

C166 88 164 87 161 86

C158 84 156 84 148 85

C141 85 138 85 134 84

C130 82 130 82 131 84

C132 85 136 87 139 89

C144 92 146 92 153 92

C157 92 161 91 163 90

Z

M173 81

C174 79 175 77 175 76

C175 76 172 77 169 79

L163 82

L166 83

C170 86 172 85 173 81

Z

M154 80

C161 78 171 74 171 73

C171 72 160 69 157 69

C155 69 150 70 145 72

C139 74 136 74 130 74

C126 74 123 74 123 74

C123 74 134 79 136 80

C140 81 146 81 154 80

Z

M146 67

C157 64 165 60 170 56

L174 53

L164 53

C156 54 154 54 147 57

C137 62 125 65 117 65

C109 65 110 67 119 69

C129 71 136 70 146 67

Z

M177 68

C178 67 178 63 179 60

L179 54

L174 58

C172 60 168 63 166 64

L163 66

L168 67

C175 69 177 69 177 68

Z

M136 58

C149 53 159 47 165 41

L172 35

L168 36

C166 36 161 38 156 40

C151 41 146 43 146 43

C145 43 141 45 137 47

C127 53 115 57 106 58

C98 58 96 59 99 60

C100 61 107 61 115 61

C127 60 129 60 136 58

Z

M120 50

C136 45 151 34 159 24

C161 21 163 19 163 18

C162 18 160 19 157 21

C152 24 150 25 131 36

C126 39 118 44 112 46

C106 49 101 51 101 52

C100 54 100 54 106 54

C110 53 116 52 120 50

Z

M178 44

C177 35 177 35 170 42

L163 49

L171 49

L179 49

L178 44

Z

M117 39

C130 33 138 27 144 20

C148 14 152 7 152 7

C150 7 145 10 141 14

C139 16 134 18 132 20

C129 21 124 24 121 27

C119 30 113 34 109 36

C104 40 102 42 102 44

C102 46 102 47 117 39

Z

M271 37

C275 35 276 35 273 33

C272 31 271 31 269 35

C268 37 267 39 268 39

C268 39 270 38 271 37

Z

M251 33

C249 30 249 30 247 32

C246 33 245 34 245 34

C246 35 252 38 252 37

C252 37 251 36 251 33

Z

M159 34

C162 33 166 32 169 31

C172 31 175 30 175 30

C175 29 174 26 172 22

L169 16

L166 20

C165 23 162 27 159 30

C156 33 154 36 154 36

C155 36 157 35 159 34

Z

M285 33

C287 33 286 32 284 30

C283 29 282 30 281 32

C280 34 280 34 282 34

C282 33 284 33 285 33

Z

M240 30

C240 30 240 29 239 28

C239 27 238 27 236 28

L234 29

L236 30

C239 31 240 31 240 30

Z

M279 27

C279 25 279 22 279 21

C278 19 278 19 277 22

C275 25 275 27 275 28

C276 32 278 31 279 27

Z

M302 29

C303 28 303 28 302 28

C301 28 299 27 297 26

C293 23 292 23 292 28

L292 31

L296 30

C299 30 301 29 302 29

Z

M246 26

C247 25 247 24 245 19

L244 17

L243 19

C242 22 243 28 244 28

C245 28 245 27 246 26

Z

M289 21

C289 20 288 16 286 13

L283 7

L283 15

C283 22 283 23 285 26

L287 28

L288 26

C288 25 289 22 289 21

Z

M229 23

C229 19 228 18 227 20

C226 21 224 21 222 22

L218 23

L223 25

C229 27 229 28 229 23

Z

M318 25

C320 24 320 24 314 21

C311 20 308 19 308 19

C308 19 309 21 309 23

C311 27 311 27 318 25

Z

M236 23

C238 21 241 12 241 7

C241 4 240 3 239 6

C238 7 237 9 236 12

C234 15 233 18 233 20

C233 24 234 25 236 23

Z

M334 17

L340 14

L333 12

C328 11 324 10 323 9

C321 8 321 8 323 14

C325 19 327 21 328 21

C328 21 331 19 334 17

Z

M157 16

C161 14 164 13 165 13

C165 13 166 13 166 12

C166 11 160 4 159 4

C159 4 157 7 155 10

C153 13 151 17 150 18

C149 19 149 20 150 20

C150 20 153 18 157 16

Z

M213 16

C214 14 215 12 215 12

C215 12 212 13 209 14

C207 15 204 16 203 16

C201 16 208 20 210 20

C211 20 212 18 213 16

Z

M524 5

C523 5 521 4 519 4

C517 3 516 3 517 6

L517 9

L521 7

C523 6 524 5 524 5

Z

M402 590

C402 589 407 587 408 587

C408 588 408 588 407 589

C407 591 402 592 402 590

Z

M413 588

C414 587 415 586 415 587

C417 590 416 591 413 591

C411 591 411 591 413 588

Z

M426 588

C427 587 429 585 429 584

C431 583 431 583 432 586

C432 587 432 589 433 590

C433 591 432 591 429 591

L425 591

L426 588

Z

M437 589

C436 588 436 586 436 583

L435 579

L441 579

C444 578 447 578 447 578

C447 579 446 581 444 583

C442 585 440 588 439 589

C437 591 437 591 437 589

Z

M443 590

C443 590 445 588 447 586

L450 583

L450 587

C450 591 450 591 447 591

C445 591 443 591 443 590

Z

M454 586

C454 582 455 580 455 580

C456 579 464 581 465 582

C466 583 456 591 454 591

C454 591 454 589 454 586

Z

M465 589

C467 586 468 587 467 589

C467 590 466 591 465 591

L463 591

L465 589

Z

M472 588

C472 585 473 585 478 587

C485 591 485 591 478 591

C471 591 471 591 472 588

Z

M419 587

C419 583 419 582 423 582

C425 581 425 581 423 586

C421 590 420 590 419 587

Z

M78 434

C73 434 69 433 69 432

C68 431 73 416 74 416

C75 416 83 428 85 431

C86 432 86 433 86 434

C86 434 82 434 78 434

Z

M91 425

L91 416

L95 419

C98 423 105 432 104 433

C104 433 101 433 97 434

L91 434

L91 425

Z

M108 420

C107 414 107 409 106 408

C106 406 109 409 113 413

C116 417 121 421 122 421

C124 422 125 424 125 424

C125 425 115 430 111 431

L108 431

L108 420

Z

M57 426

C53 424 48 419 44 415

C29 399 26 379 37 364

C42 358 56 350 61 350

C78 350 86 372 72 382

C64 387 53 382 53 373

C53 369 55 366 59 364

C62 363 62 363 65 364

C69 367 68 370 63 371

C59 371 58 372 58 374

C57 379 67 377 70 372

C72 368 71 366 69 363

C63 355 49 362 49 372

C49 378 51 382 56 386

C60 388 60 388 59 392

C58 396 58 400 61 415

C62 420 63 426 63 428

L63 430

L57 426

Z

M83 420

C76 411 76 411 76 403

C77 398 77 394 76 391

C75 388 74 385 74 385

C75 384 81 393 83 399

C85 405 87 418 87 422

C87 424 86 424 83 420

Z

M96 415

C93 411 90 407 89 405

C88 399 85 391 81 387

C79 383 78 382 79 380

C82 377 98 396 101 406

C103 410 104 422 103 422

C103 422 100 419 96 415

Z

M65 412

C63 403 62 393 64 390

C64 389 65 388 67 388

C71 388 72 391 72 399

C72 405 68 421 67 421

C67 421 66 417 65 412

Z

M128 415

C127 412 126 408 125 407

C124 404 125 405 131 409

L137 414

L134 417

C133 419 131 420 131 420

C130 420 129 418 128 415

Z

M116 410

C112 405 107 401 106 400

C104 399 101 396 99 392

C96 389 91 384 88 381

C82 375 81 374 83 372

C84 371 85 372 92 376

C104 384 114 395 118 403

C122 410 125 418 124 418

C124 418 120 414 116 410

Z

M135 407

C133 406 129 403 125 399

C122 396 115 390 110 386

C106 382 98 376 93 372

C87 368 83 365 83 364

C83 362 83 362 88 364

C107 369 130 389 136 405

C137 407 138 409 138 409

C138 409 136 408 135 407

Z

M141 406

C140 404 138 400 136 397

C135 393 133 391 133 390

C133 390 135 391 138 393

C140 395 144 396 146 397

C150 398 150 399 147 404

C143 409 142 410 141 406

Z

M144 392

C143 391 140 390 137 388

C135 386 131 384 128 383

C125 381 121 379 119 377

C110 368 99 362 86 359

C80 357 78 355 83 355

C85 356 90 356 94 357

C106 359 115 363 127 371

C135 376 140 381 145 387

C149 393 149 394 144 392

Z

M148 386

L144 379

L147 379

C148 380 151 380 153 381

C157 381 157 381 156 383

C155 386 153 392 153 392

C153 392 151 389 148 386

Z

M148 375

C141 374 135 371 128 366

C119 360 112 357 103 355

C100 354 97 353 96 353

C95 352 110 351 115 352

C124 354 140 362 148 370

C155 376 155 377 148 375

Z

M152 368

L147 362

L152 362

C155 361 158 361 158 362

C159 362 159 373 158 373

C158 373 155 371 152 368

Z

M15 356

C12 354 7 352 5 350

L0 346

L0 330

L0 314

L6 318

C11 322 16 325 21 326

C23 327 23 328 23 331

C23 339 31 346 39 345

C48 343 53 333 48 328

C43 322 33 323 33 330

C33 333 36 334 38 331

C41 328 44 328 45 331

C47 335 44 338 40 340

C32 343 24 333 28 324

C30 320 36 317 41 317

C54 316 63 330 57 342

C55 346 53 347 46 352

C37 357 37 357 29 358

C22 358 20 358 15 356

Z

M131 353

C126 351 120 349 116 348

C113 347 110 347 110 346

C111 345 122 343 125 343

C132 343 146 349 153 354

L156 356

L153 357

C145 359 140 358 131 353

Z

M72 349

C69 347 65 346 63 346

C60 346 59 346 62 342

C62 341 63 337 63 335

C63 322 75 310 94 301

C99 299 106 297 111 296

C118 294 149 290 150 291

C150 292 129 323 123 328

C105 347 86 355 72 349

Z

M153 349

C150 346 150 345 154 345

C156 345 157 346 157 348

C158 352 157 352 153 349

Z

M588 341

C583 334 579 322 577 311

C577 302 577 302 586 309

L591 313

L591 329

C591 337 591 344 591 344

C590 344 589 343 588 341

Z

M136 341

C132 340 128 339 124 339

C117 340 117 339 125 335

C132 333 142 333 148 336

C150 337 153 339 153 340

C153 341 146 343 142 343

C141 343 138 342 136 341

Z

M150 332

C147 331 147 331 149 329

C151 326 152 326 153 331

C154 334 154 335 150 332

Z

M129 329

C131 326 142 322 145 322

C152 323 144 329 134 330

C129 330 128 330 129 329

Z

M60 320

C60 319 60 316 61 314

C63 309 62 293 60 284

C60 279 59 269 58 260

C58 246 58 245 59 247

C67 257 71 281 69 296

C68 303 63 318 61 322

C60 323 60 323 60 320

Z

M18 321

C16 320 6 313 2 310

C0 308 -1 305 1 305

C5 305 19 310 22 312

C27 316 28 317 25 320

C24 322 22 322 18 321

Z

M138 318

C139 315 142 312 144 312

C147 312 146 313 143 316

C140 319 136 320 138 318

Z

M148 318

C148 317 148 317 149 318

C150 318 150 318 150 319

C150 319 150 319 149 319

C148 319 148 319 148 318

Z

M53 316

C53 315 52 309 52 303

C51 297 49 287 47 282

C38 245 37 243 44 252

C53 265 57 280 57 299

C57 306 57 313 57 314

C56 317 54 318 53 316

Z

M28 312

C27 310 23 308 20 306

C17 305 13 303 12 303

C10 302 8 299 6 294

C4 290 2 286 3 286

C3 285 17 294 21 299

C26 303 32 312 32 314

C32 316 30 315 28 312

Z

M34 310

C33 305 27 297 22 293

C19 290 17 288 15 281

C13 276 12 272 12 272

C13 271 24 279 26 282

C32 288 40 309 39 312

C37 314 36 313 34 310

Z

M44 312

C44 311 43 308 42 304

C41 300 38 294 36 290

C35 286 33 281 32 279

C32 276 31 272 29 269

C28 265 27 261 26 259

L26 256

L31 261

C40 271 46 286 48 306

C48 312 48 313 47 313

C46 313 45 312 44 312

Z

M70 309

C74 298 74 290 73 277

C72 264 72 259 75 252

L76 249

L78 253

C81 259 82 270 82 281

C81 290 81 292 77 300

C73 309 69 314 70 309

Z

M145 306

C146 305 147 304 147 304

C147 304 147 305 147 306

C147 307 146 308 145 308

C144 308 144 308 145 306

Z

M589 306

C587 304 587 303 590 305

C591 305 591 306 591 307

C591 308 590 307 589 306

Z

M0 297

L0 293

L2 296

C4 300 4 301 2 301

C0 301 0 300 0 297

Z

M82 301

C82 301 83 298 84 296

C85 293 85 286 86 279

C87 268 87 267 90 262

C92 259 94 256 94 256

C95 256 96 260 96 268

C96 276 95 284 92 289

C91 292 82 302 82 301

Z

M584 300

L578 299

L578 296

C579 294 580 290 582 287

L585 281

L588 286

C591 290 591 292 591 296

L591 301

L584 300

Z

M93 295

C96 292 98 288 99 281

C100 274 102 270 106 267

C108 265 108 265 109 267

C110 275 106 286 98 293

C94 297 90 299 93 295

Z

M108 288

C111 283 119 276 120 278

C122 279 118 285 113 289

C109 291 106 293 106 293

C106 293 107 291 108 288

Z

M119 289

C119 288 121 286 125 285

C129 284 130 285 128 287

C126 289 119 291 119 289

Z

M133 286

C133 285 134 285 135 286

C136 287 137 288 137 288

C137 288 136 288 135 288

C133 288 132 288 133 286

Z

M6 283

C0 280 0 280 0 275

C0 271 1 267 3 267

C4 267 13 285 12 286

C12 286 9 284 6 283

Z

M589 279

C586 278 587 276 589 273

L591 271

L591 275

C591 278 591 280 591 280

C591 280 590 279 589 279

Z

M25 275

C24 274 20 271 16 269

C6 263 6 263 8 261

C10 259 19 252 20 252

C20 252 21 255 22 258

C23 262 24 267 26 270

C27 274 28 276 28 277

C28 277 26 276 25 275

Z

M113 272

L113 268

L116 270

C117 271 118 273 118 273

C118 273 117 274 116 275

C113 276 113 276 113 272

Z

M100 262

C100 257 101 256 104 259

C105 261 105 261 103 264

L100 266

L100 262

Z

M31 255

L26 249

L30 247

C32 246 34 245 34 245

C35 246 38 261 37 261

C37 261 34 258 31 255

Z

M83 254

C82 251 81 247 80 246

C80 245 89 249 91 251

C91 251 88 257 86 260

C86 261 85 259 83 254

Z

M51 256

C50 254 48 250 46 248

C42 242 41 243 50 242

L54 241

L54 250

C54 256 54 260 54 260

C54 260 53 258 51 256

Z

M66 250

C64 246 62 243 62 243

C62 242 72 242 73 243

C73 244 70 254 69 255

C69 256 67 253 66 250

Z

M384 165

C378 164 372 162 371 160

C371 159 377 155 384 151

L389 148

L389 156

C389 161 389 165 388 165

C388 165 386 165 384 165

Z

M393 166

C393 165 396 160 401 153

C408 142 413 132 413 129

C413 128 414 127 416 127

C421 127 429 121 430 115

C431 109 426 101 420 100

C417 99 411 101 410 104

C408 107 409 113 411 115

C413 117 417 117 418 116

C418 115 417 113 416 111

C412 107 413 104 418 104

C424 104 428 112 424 117

C419 126 408 125 403 115

C400 110 400 106 403 100

C407 92 418 88 427 92

C432 95 442 109 443 115

C448 136 433 156 408 163

C399 165 393 166 393 166

Z

M360 156

L355 152

L358 150

C362 147 372 142 373 142

C373 143 367 159 366 159

C366 159 363 157 360 156

Z

M393 155

C393 154 393 150 394 145

C395 136 398 128 401 125

C403 124 403 124 406 125

C409 127 409 130 405 137

C403 142 394 156 393 156

C393 156 393 155 393 155

Z

M377 145

C380 137 387 128 394 123

C400 119 402 118 398 122

C396 125 391 135 391 137

C391 141 389 143 382 147

C378 149 375 151 375 151

C374 151 375 148 377 145

Z

M344 143

L338 137

L345 134

C349 133 354 131 356 130

C362 126 364 126 361 130

C360 131 358 136 355 141

C353 145 351 149 351 149

C350 149 347 146 344 143

Z

M362 138

C366 130 369 126 375 122

C381 118 396 112 397 113

C399 114 398 116 392 119

C388 122 384 126 381 129

C377 134 375 136 368 139

C364 141 360 143 359 143

C359 143 360 141 362 138

Z

M332 127

L330 122

L336 121

C339 121 343 120 344 119

C346 119 346 120 341 125

C338 128 335 131 335 131

C335 131 333 129 332 127

Z

M348 124

C357 115 367 110 383 106

C390 104 396 103 396 103

C397 103 397 104 397 106

C397 107 397 108 396 108

C394 108 380 114 374 118

C371 120 367 122 364 122

C362 123 357 125 353 126

C350 128 345 130 344 131

C341 131 341 130 348 124

Z

M333 117

C333 117 335 114 338 112

C345 107 359 100 370 97

C383 93 402 93 400 97

C400 98 395 99 390 100

C381 102 375 104 360 109

C358 110 352 112 348 114

C337 117 333 118 333 117

Z

M328 115

C327 113 325 105 325 104

C325 103 327 103 329 104

C331 104 335 104 338 103

C341 103 344 102 344 102

C344 103 341 105 338 107

C335 109 331 113 330 114

C329 116 328 116 328 115

Z

M458 114

C450 111 445 108 437 97

C429 85 433 71 446 68

C450 67 452 67 455 68

C460 69 466 75 466 79

C468 90 456 97 449 90

C444 85 446 79 451 80

C453 80 453 81 453 83

C453 86 455 89 457 88

C458 87 459 86 459 84

C459 77 449 73 444 79

C442 82 441 86 443 90

C449 100 463 99 468 89

C470 85 470 85 478 85

C484 84 491 83 499 81

C506 79 512 77 512 78

C512 78 511 81 509 85

C504 94 492 107 483 111

C475 115 465 116 458 114

Z

M329 99

C329 98 339 92 345 90

C356 86 368 84 378 84

C387 85 406 89 406 90

C406 90 399 91 391 91

C376 91 375 91 365 94

C360 96 354 97 352 97

C350 97 345 98 341 99

C332 100 329 100 329 99

Z

M325 95

C324 95 325 86 326 85

C326 85 338 87 338 88

C338 88 337 89 335 90

C333 91 330 93 328 94

C327 95 325 96 325 95

Z

M424 87

C422 86 418 86 415 86

C400 87 383 68 374 42

C372 35 365 4 366 4

C368 4 398 21 404 26

C417 36 427 48 430 59

C433 67 432 70 430 77

C429 81 428 84 428 86

C429 88 428 88 424 87

Z

M336 83

C333 82 331 81 331 81

C331 81 334 79 337 78

C343 75 355 73 367 73

C373 73 376 73 383 76

C387 78 391 80 392 81

C393 82 393 82 392 82

C390 81 385 81 379 80

C370 80 366 80 358 82

C348 84 343 84 336 83

Z

M471 80

C470 80 470 78 470 77

C470 74 471 74 473 72

C475 72 480 71 483 71

C489 71 502 73 503 74

C503 75 499 76 495 77

C486 80 472 82 471 80

Z

M328 75

C328 74 329 71 330 69

L331 66

L335 68

C337 68 339 69 340 70

C342 71 341 71 335 74

C331 75 328 77 328 77

C327 77 327 76 328 75

Z

M504 70

C500 69 497 69 497 68

C497 68 508 58 510 56

C514 54 515 55 515 62

C515 73 515 73 504 70

Z

M378 70

C375 69 365 68 355 69

C349 69 348 69 341 66

L335 63

L339 61

C341 60 346 60 354 60

C363 60 365 60 370 62

C373 64 377 66 379 68

C383 71 382 72 378 70

Z

M467 70

C467 69 474 63 478 61

C483 58 496 55 501 55

L504 55

L502 57

C501 58 498 61 496 63

C491 67 491 67 483 67

C478 67 474 68 471 69

C469 70 467 71 467 70

Z

M436 65

C436 57 438 40 440 34

C446 19 460 -1 465 0

C467 0 467 1 463 10

C460 14 458 19 458 20

C458 21 456 24 454 27

C447 36 441 49 439 59

C438 67 436 71 436 65

Z

M461 66

C460 65 460 64 464 60

C474 48 482 42 492 39

C502 37 502 37 494 46

C491 50 487 53 485 54

C481 55 471 60 467 64

C463 67 463 67 461 66

Z

M444 60

C446 45 457 26 470 15

C476 9 484 4 484 6

C484 7 477 18 465 33

C460 39 452 51 449 59

C445 65 442 66 444 60

Z

M453 63

C450 62 466 36 475 29

C479 26 492 18 493 18

C495 18 492 22 485 29

C482 33 479 37 479 37

C479 38 476 41 472 46

C468 50 462 55 460 58

C456 64 456 64 453 63

Z

M375 59

C372 58 361 55 357 55

C353 55 343 50 344 48

C346 46 352 46 357 47

C364 49 369 52 374 56

C378 60 378 62 375 59

Z

M338 54

C339 51 339 51 342 53

C346 55 346 56 343 56

C342 56 339 56 338 57

L336 57

L338 54

Z

M432 51

C430 49 429 34 430 29

C431 24 436 11 440 4

C442 0 443 0 446 0

C449 0 450 0 450 2

C449 3 449 5 449 7

C448 8 446 14 443 19

C437 28 434 37 433 47

C433 50 432 52 432 51

Z

M497 49

C498 46 509 37 510 37

C511 38 515 49 514 49

C514 50 510 50 505 50

C496 51 496 51 497 49

Z

M366 45

C361 43 355 37 355 35

C355 33 361 35 364 39

C369 43 373 48 371 48

C371 48 368 47 366 45

Z

M347 41

C347 41 348 40 349 39

C350 37 351 37 352 38

C354 42 354 42 351 42

C349 42 347 42 347 41

Z

M422 33

C419 25 419 18 423 8

L425 0

L429 0

L433 0

L433 4

C433 7 432 12 430 16

C428 20 426 27 426 31

L424 39

L422 33

Z

M489 31

C492 28 496 23 498 20

C500 16 500 16 502 18

C504 21 509 31 509 32

C508 32 505 33 502 33

C495 34 489 35 485 37

C484 37 486 35 489 31

Z

M365 33

C363 31 361 26 361 25

C362 24 366 29 367 32

C368 35 367 36 365 33

Z

M414 28

C411 22 409 14 409 8

C410 1 411 0 414 0

C416 0 417 0 417 4

C418 6 418 10 417 12

C416 15 416 21 416 24

C416 28 416 31 416 31

C416 31 415 30 414 28

Z

M363 21

C362 20 362 19 363 18

C363 17 364 17 364 18

C364 18 364 20 365 20

C365 22 364 23 363 21

Z

M403 19

C400 15 397 8 397 6

C397 -1 404 6 405 16

C407 23 406 24 403 19

Z

M485 13

C487 10 489 6 489 6

C490 4 496 10 496 11

C496 12 492 14 488 15

L481 19

L485 13

Z

M391 12

C389 12 388 11 388 10

C388 10 388 8 387 8

C386 5 388 6 392 9

C397 13 396 15 391 12

Z

M469 6

L471 0

L478 0

L485 0

L479 3

C476 5 472 8 470 9

L466 12

L469 6

Z

M380 7

C379 5 379 5 381 5

C382 5 383 6 383 7

C383 8 383 8 380 7

Z

M392 3

C391 2 392 2 393 2

C393 2 394 2 394 3

C393 4 393 4 393 4

C392 4 392 4 392 3

Z

M404 2

C402 0 402 0 404 0

C406 0 407 0 406 2

C406 3 406 4 406 4

C405 4 404 3 404 2

Z

M372 1

C369 0 370 0 376 0

C380 0 383 0 383 0

C383 1 375 1 372 1

Z

M377 464

C364 461 351 452 346 443

C344 439 344 436 343 429

C343 422 343 421 346 413

C351 405 354 400 359 398

C369 394 381 402 383 413

C383 419 380 425 376 427

C371 429 369 429 365 428

C359 425 358 420 361 414

C363 410 367 409 369 412

L371 414

L368 417

C364 420 364 423 368 423

C374 423 376 413 372 408

C366 402 355 409 355 419

C355 426 363 433 371 433

C375 433 375 433 377 438

C378 440 384 447 390 453

C396 460 401 465 401 465

C401 467 382 466 377 464

Z

M407 464

C406 462 402 448 403 448

C405 448 417 452 420 454

L423 456

L420 459

C415 462 407 465 407 464

Z

M391 448

C384 441 379 434 379 431

C379 431 380 429 382 429

C384 427 384 427 387 429

C390 431 395 440 398 449

C399 452 400 455 400 456

C400 457 397 455 391 448

Z

M422 446

C419 442 417 439 417 438

C418 437 436 443 436 445

C436 446 428 453 427 453

C427 453 424 450 422 446

Z

M411 446

C404 444 399 441 399 440

C399 437 391 427 389 425

C387 424 386 423 386 423

C386 420 398 426 405 433

C411 439 419 448 417 448

C417 448 414 447 411 446

Z

M434 433

C430 429 427 425 426 424

C423 421 424 421 431 423

C435 424 441 425 444 425

C449 425 450 426 448 429

C446 433 441 441 440 441

C440 441 437 438 434 433

Z

M426 436

C414 433 411 432 406 428

C402 424 391 418 388 418

C388 418 387 417 387 416

C387 414 387 414 391 414

C410 417 419 422 429 435

C431 437 431 437 426 436

Z

M300 430

C292 427 283 422 277 416

C272 411 266 404 267 403

C268 403 272 403 278 404

C291 405 301 405 306 404

C310 403 310 403 313 406

C320 414 331 414 336 405

C339 400 339 396 335 392

C331 388 326 388 322 392

C319 394 319 395 320 398

C321 402 324 401 325 397

C327 393 329 392 332 395

C337 399 330 409 322 408

C321 407 318 405 316 404

C314 401 313 399 313 396

C313 392 314 390 317 387

C321 382 325 381 331 381

C341 382 347 389 347 398

C347 403 342 416 337 421

C329 430 313 434 300 430

Z

M432 419

C428 418 424 417 421 417

C419 417 414 416 410 415

C406 413 399 412 394 411

C390 410 386 409 386 409

C386 408 386 407 385 407

C384 403 416 405 427 410

C432 412 445 420 445 421

C445 422 437 421 432 419

Z

M445 415

C441 413 438 411 438 410

C438 410 442 410 446 411

L454 411

L454 415

C453 417 453 419 452 419

C452 420 448 418 445 415

Z

M436 405

C431 405 424 404 420 403

C416 402 406 402 397 401

C380 401 376 399 385 396

C393 394 420 394 430 396

C438 398 448 403 450 405

C451 407 451 407 447 407

C445 407 440 406 436 405

Z

M452 401

C450 400 446 398 443 397

L438 394

L442 394

C444 393 448 393 451 392

C453 392 456 391 456 391

C456 392 456 395 456 398

L456 404

L452 401

Z

M281 400

L275 399

L280 397

C288 393 296 391 301 391

C308 391 309 392 309 396

C309 398 308 399 305 400

C301 401 291 401 281 400

Z

M263 394

C261 387 260 381 260 381

C263 381 280 390 280 392

C280 392 266 399 265 399

C265 399 263 397 263 394

Z

M351 395

C351 394 349 389 347 386

C343 377 343 370 347 359

C351 345 362 330 376 318

C380 315 386 310 389 307

C392 304 395 302 395 302

C397 302 396 339 395 347

C393 357 389 368 385 376

C379 385 370 393 363 393

C362 393 359 394 356 395

C351 397 351 397 351 395

Z

M374 394

C374 393 395 384 401 383

C409 381 429 381 438 382

C446 384 452 387 450 388

C449 389 430 390 424 390

C422 390 414 390 407 390

C394 390 392 390 385 392

C376 395 374 395 374 394

Z

M278 385

C269 380 270 379 281 379

C292 379 304 382 309 386

C311 387 310 388 302 388

C297 388 291 388 289 388

C285 389 284 389 278 385

Z

M307 380

C303 378 297 376 293 376

C286 374 284 374 278 369

C271 364 271 364 273 363

C276 361 286 363 292 365

C297 367 306 373 312 378

C315 381 316 382 315 383

C314 383 312 383 307 380

Z

M386 383

C386 381 392 377 398 373

C404 369 413 368 428 368

C436 368 442 368 444 369

L447 370

L444 372

C438 375 429 377 418 377

C406 377 398 378 390 382

C387 383 385 383 386 383

Z

M447 381

C441 379 441 378 443 377

C445 375 451 373 452 373

C452 374 453 376 453 378

C454 380 454 382 455 383

C455 384 455 384 447 381

Z

M313 373

C309 370 303 366 300 364

C297 362 293 360 292 358

C290 357 287 354 284 351

C278 347 273 343 273 342

C273 341 289 346 295 349

C301 353 323 374 323 376

C323 380 319 378 313 373

Z

M338 378

C338 377 335 372 333 367

C329 359 326 356 318 347

C308 336 294 318 294 316

C294 315 303 319 308 323

C314 327 326 342 330 350

C333 356 340 378 340 379

C339 379 339 378 338 378

Z

M260 371

C260 367 260 364 261 364

C262 364 272 369 275 372

L278 375

L272 375

C269 376 265 376 263 377

L260 377

L260 371

Z

M324 370

C318 363 312 357 298 345

C294 341 288 336 285 333

L280 328

L283 328

C292 330 305 339 317 351

C324 359 332 372 332 376

C332 379 329 377 324 370

Z

M395 368

C398 364 405 358 408 357

C413 355 426 352 431 352

C437 352 438 353 433 357

C427 362 425 363 419 364

C409 365 403 366 398 369

L393 371

L395 368

Z

M440 364

L433 362

L437 359

C439 357 442 356 442 356

C443 356 445 359 448 365

C449 366 450 366 440 364

Z

M338 356

C334 347 330 340 322 331

C318 326 315 322 313 318

C310 309 310 308 313 309

C319 312 331 327 337 338

C339 342 341 354 341 360

C341 363 340 363 338 356

Z

M396 359

C396 359 398 356 400 352

C404 347 406 346 411 343

C417 340 424 339 425 341

C426 342 418 350 416 350

C413 350 404 354 401 357

C398 358 396 360 396 359

Z

M261 358

C261 356 264 346 265 344

C266 342 267 342 271 347

C274 350 279 353 281 355

C284 356 286 358 286 358

C286 358 280 359 273 359

C264 359 261 359 261 358

Z

M344 347

C344 343 340 334 336 327

C333 324 331 319 330 317

C329 311 329 304 330 304

C332 304 338 312 342 320

C346 328 346 329 346 337

C346 341 346 345 345 347

C344 348 344 348 344 347

Z

M428 345

L431 343

L434 345

L436 348

L431 348

L426 348

L428 345

Z

M400 344

C401 340 406 332 408 331

C412 329 413 330 411 335

C410 338 408 340 408 340

C407 340 406 341 404 343

C400 347 399 347 400 344

Z

M276 338

C273 337 270 336 269 336

C269 336 270 334 272 332

C273 330 275 328 275 329

C275 329 278 332 280 335

C286 340 286 341 276 338

Z

M351 333

C350 330 349 325 348 321

C345 316 344 308 346 305

C347 303 351 308 353 314

C355 320 356 326 354 333

C352 340 351 340 351 333

Z

M415 336

C415 335 416 334 416 333

C417 331 418 331 420 333

C423 335 423 336 418 336

C416 337 415 337 415 336

Z

M400 329

C400 327 401 325 402 324

C403 323 404 322 404 322

C405 322 404 329 402 331

L400 334

L400 329

Z

M295 328

C293 327 289 326 285 324

L279 322

L284 318

L288 314

L291 319

C293 322 295 326 296 327

C299 330 298 330 295 328

Z

M359 322

C359 317 360 314 361 311

C363 308 363 307 364 308

C366 311 364 323 361 327

C359 328 359 327 359 322

Z

M400 317

C400 315 400 315 401 316

C403 317 403 319 401 319

C400 319 400 318 400 317

Z

M306 317

C306 317 303 315 300 313

L295 310

L300 308

C303 306 305 305 305 306

C306 306 306 309 307 312

C309 318 309 319 306 317

Z

M369 316

C369 315 370 313 372 311

L375 308

L375 311

C375 313 374 314 372 316

C369 318 369 318 369 316

Z

M323 311

C322 310 319 308 316 306

C311 303 311 303 320 302

C325 301 325 302 325 308

L325 313

L323 311

Z

M355 307

C354 305 353 304 353 303

C353 303 355 303 356 304

C359 304 360 306 358 308

C357 310 356 310 355 307

Z

M337 305

L334 301

L337 301

C341 301 342 301 341 306

L341 309

L337 305

Z

M379 308

C379 307 380 306 381 306

C383 306 383 306 382 308

C381 308 380 309 380 309

C379 309 379 308 379 308

Z

M208 294

C208 293 209 289 209 285

L210 277

L212 282

C214 285 216 289 218 291

C219 292 220 294 220 294

C220 295 217 295 213 295

C209 295 207 295 208 294

Z

M192 293

C190 292 189 292 189 291

C189 291 190 288 191 285

C193 282 194 280 194 280

C194 280 196 283 197 286

C198 290 200 293 200 293

C200 294 196 294 192 293

Z

M227 285

C226 281 226 277 226 277

C227 277 229 280 231 284

C234 287 236 290 236 290

C235 291 229 293 228 293

C228 293 227 290 227 285

Z

M201 285

C196 272 194 250 198 237

C200 229 208 212 208 214

C209 214 208 219 206 224

C204 233 204 234 205 246

C205 261 205 288 204 290

C204 291 202 289 201 285

Z

M220 286

C212 275 209 261 209 243

C209 234 209 229 210 225

C213 216 215 218 215 234

C216 241 217 250 217 254

C221 273 223 286 223 288

C222 290 222 290 220 286

Z

M177 286

C174 285 172 283 172 283

C172 282 173 279 175 277

L178 273

L180 279

C180 282 181 286 182 287

C182 289 182 289 177 286

Z

M241 282

C241 279 240 274 239 271

C236 262 236 261 240 265

C242 266 247 270 250 272

C254 275 257 278 256 278

C256 279 247 285 243 287

C243 288 242 286 241 282

Z

M185 283

C182 275 182 252 186 242

C188 237 196 225 197 225

C197 225 197 228 195 232

C193 238 193 241 192 257

C191 272 191 275 189 280

C188 283 187 286 186 286

C186 286 185 285 185 283

Z

M233 278

C224 267 221 255 219 235

L219 224

L221 225

C222 225 224 225 224 225

C224 225 224 229 225 234

C226 239 228 245 229 249

C231 252 232 257 232 260

C233 263 234 269 235 272

C236 276 237 280 237 281

C237 283 236 283 233 278

Z

M169 277

C167 275 169 255 172 248

C173 245 183 234 184 234

C185 234 184 236 183 238

C181 242 179 251 179 257

C179 260 178 264 178 265

C176 270 169 278 169 277

Z

M161 275

C160 273 159 272 159 271

C159 270 162 267 163 267

C163 267 164 269 164 272

C164 275 164 277 164 277

C163 277 162 276 161 275

Z

M258 268

C255 263 253 255 253 254

C254 254 269 263 269 264

C269 265 267 267 265 270

L260 274

L258 268

Z

M247 265

C239 259 234 251 231 238

C228 226 228 226 230 226

C231 225 231 225 231 225

C232 225 232 228 233 230

C235 234 238 239 246 249

C248 252 253 267 252 268

C251 268 250 267 247 265

Z

M155 264

C155 261 157 253 160 248

C163 245 173 236 174 236

C174 237 172 239 171 242

C168 245 167 249 166 253

C165 258 163 261 158 265

C156 267 156 267 155 264

Z

M148 261

L146 258

L149 257

C150 256 151 256 152 256

C152 256 151 258 151 260

L150 264

L148 261

Z

M270 258

C267 253 262 240 263 240

C264 240 268 241 272 242

C277 243 279 244 279 245

C279 247 275 256 273 258

C271 260 271 260 270 258

Z

M257 252

C254 250 250 246 247 243

C242 238 235 226 236 224

C237 224 237 224 238 225

C239 228 243 231 250 235

L257 238

L260 246

C262 251 263 254 263 255

C263 255 260 253 257 252

Z

M145 252

C145 251 146 249 147 248

C150 245 158 240 160 240

C162 240 153 251 149 252

C145 254 145 254 145 252

Z

M139 251

C139 250 139 250 140 250

C141 250 141 250 141 251

C141 252 141 252 140 252

C139 252 139 252 139 251

Z

M137 245

C137 244 139 242 143 242

C147 241 148 242 146 244

C144 246 137 247 137 245

Z

M130 244

C129 242 129 242 131 242

C133 242 134 242 133 244

C133 244 132 245 132 245

C132 245 131 244 130 244

Z

M124 227

C136 212 146 202 156 195

C167 188 174 185 185 184

C192 184 193 184 198 187

C202 189 205 190 206 190

C210 190 210 191 208 194

C208 196 207 199 206 202

C205 212 197 221 184 228

C168 235 153 238 128 238

L116 238

L124 227

Z

M275 235

C269 228 254 216 250 214

C246 213 246 212 246 209

C246 201 241 195 234 194

C228 192 219 198 219 204

C219 207 221 211 224 213

C230 216 236 213 236 208

C236 205 234 205 231 207

C228 209 227 209 225 207

C222 205 223 203 225 200

C228 198 234 197 237 199

C240 200 242 205 242 209

C242 216 236 221 228 221

C220 221 214 216 211 208

C208 200 212 192 224 186

C232 182 233 182 242 182

C249 182 251 182 256 184

C270 191 279 208 281 229

C281 239 280 240 275 235

Z

M262 235

C250 232 241 226 241 222

C241 221 242 220 243 219

C245 216 248 217 254 221

C259 225 272 237 270 237

C269 237 266 236 262 235

Z

M120 223

C120 222 121 221 122 221

C122 221 123 221 123 222

C123 222 122 223 122 224

C120 225 120 225 120 223

Z

M125 214

C128 211 131 210 131 212

C131 214 126 217 124 217

C122 217 122 217 125 214

Z

M119 211

C119 211 119 210 120 211

C121 211 121 212 120 212

C120 213 119 213 119 211

Z

M122 207

C120 206 120 206 124 203

C127 201 129 201 135 201

L142 202

L136 204

C129 207 125 208 122 207

Z

M117 199

C116 197 116 196 116 195

C117 195 118 196 120 197

L123 199

L121 200

C117 202 117 203 117 199

Z

M126 195

C121 193 116 190 117 188

C117 188 120 188 123 187

C127 187 129 187 134 189

C139 191 143 192 147 192

C153 192 153 193 145 195

C138 197 133 197 126 195

Z

M135 185

C127 182 121 178 118 175

L116 172

L121 172

C128 171 131 172 141 178

C146 181 151 183 155 184

C163 186 161 187 150 188

C142 188 141 188 135 185

Z

M202 184

C196 181 193 174 193 167

C194 161 196 158 201 154

C210 148 223 157 219 167

C218 170 214 173 210 173

C207 173 205 170 206 167

C206 165 207 165 209 165

C213 166 215 164 214 162

C212 156 201 162 201 169

C201 172 206 177 210 177

C217 177 224 171 224 164

C224 159 222 155 218 151

C214 148 214 148 215 145

C216 142 216 137 214 115

C214 110 214 107 214 107

C216 107 224 113 227 117

C241 131 246 149 242 163

C238 172 234 177 224 182

C213 187 208 187 202 184

Z

M114 182

C114 181 114 179 113 178

C113 177 114 178 117 180

C121 183 121 184 117 184

C115 184 114 184 114 182

Z

M162 181

C153 180 150 179 139 172

C130 166 125 161 121 156

L119 153

L122 153

C131 155 136 158 144 165

C152 171 165 178 172 180

C174 180 175 180 174 181

C173 182 172 182 171 182

C170 182 166 181 162 181

Z

M179 177

C173 175 165 173 162 171

C155 168 142 158 136 151

C131 146 125 137 126 136

C127 136 133 140 143 147

C146 149 152 154 156 158

C166 166 174 171 182 175

C189 177 192 179 191 179

C191 180 185 178 179 177

Z

M182 170

C166 164 146 143 140 128

C139 125 138 122 138 122

C139 122 147 130 158 141

C168 151 179 162 183 165

C192 171 191 174 182 170

Z

M113 165

C113 164 113 161 114 159

C115 155 115 155 116 157

C117 158 119 161 121 163

L125 167

L119 167

C113 167 113 167 113 165

Z

M181 158

C170 148 164 141 160 135

C156 128 152 117 152 115

C152 114 154 116 157 119

C159 121 163 126 166 129

C169 133 174 138 176 142

C178 145 182 150 185 154

C190 159 191 160 190 162

C189 163 189 164 189 164

C189 164 185 161 181 158

Z

M187 149

C184 145 179 139 177 136

C174 129 174 128 173 120

C173 109 172 109 181 120

C184 124 185 127 187 133

C187 137 190 143 192 147

C195 153 195 155 193 155

C193 155 190 152 187 149

Z

M120 149

C116 148 116 147 119 141

C121 137 121 137 122 139

C123 140 125 143 126 145

L129 150

L126 150

C125 150 122 149 120 149

Z

M196 146

C191 138 188 122 190 114

L191 111

L194 115

C199 123 200 126 199 130

C198 134 198 144 199 147

C201 152 198 150 196 146

Z

M203 146

C201 142 203 129 207 119

L209 115

L210 119

C212 127 212 140 211 144

C210 148 210 148 207 148

C205 148 204 147 203 146

Z

M138 138

C137 137 133 135 130 133

L125 130

L129 126

C131 123 133 121 133 121

C133 121 134 123 134 125

C135 126 137 131 138 135

C140 138 142 141 142 141

C142 141 140 140 138 138

Z

M145 121

L139 116

L142 113

C143 112 145 111 145 111

C146 112 151 126 151 127

C151 127 148 124 145 121

Z

M164 121

C162 118 158 114 156 112

C151 107 151 107 159 104

C169 101 169 100 169 115

C169 121 169 127 168 127

C168 127 166 124 164 121

Z

M198 113

C195 110 193 105 192 103

L192 100

L196 100

C203 102 208 103 208 104

C209 104 207 108 206 113

L202 120

L198 113

Z

M180 113

C172 102 172 100 180 100

L187 100

L186 106

C186 109 185 113 185 115

L184 118

L180 113

Z

"/>

</svg>

