<?xml version="1.0" standalone="no"?>

<!DOCTYPE svg PUBLIC "-//W3C//DTD SVG 20010904//EN"

 "http://www.w3.org/TR/2001/REC-SVG-20010904/DTD/svg10.dtd">

<svg version="1.0" xmlns="http://www.w3.org/2000/svg"

 width="610.000000pt" height="586.000000pt" viewBox="0 0 610.000000 586.000000"

 preserveAspectRatio="xMidYMid meet">

<path fill="#f2f2f1" stroke="none" d="
M0 293

L0 0

L305 0

L610 0

L610 293

L610 586

L305 586

L0 586

L0 293

Z

"/>

<path fill="#1e1c1c" stroke="none" d="
M0 478

L0 371

L2 372

C5 375 7 374 10 372

C12 369 13 367 10 364

C9 362 3 361 1 363

C0 364 0 357 0 332

L0 301

L3 300

C6 300 8 298 8 294

C8 291 4 287 2 288

C0 289 0 288 0 280

C0 273 0 272 2 273

C6 274 7 274 9 272

C14 267 9 259 2 262

C0 263 0 262 0 254

C0 245 0 244 2 244

C5 244 8 241 8 238

C8 235 6 232 2 232

C0 232 0 232 0 223

C0 216 0 214 2 213

C5 210 5 207 2 205

C0 203 0 201 0 190

L0 178

L2 181

C4 182 6 183 7 183

C8 183 13 179 13 177

C13 176 12 174 11 173

C9 170 4 170 2 173

C0 175 0 174 0 146

L0 116

L2 119

C6 122 7 122 11 119

C14 115 14 114 10 110

C8 108 5 108 2 111

C0 113 0 112 0 77

L0 40

L3 35

C9 26 9 26 15 33

C21 39 29 43 35 45

L39 45

L33 40

C27 34 20 23 20 22

C21 20 28 19 32 19

C34 20 35 20 35 19

C35 17 25 13 21 13

C17 13 16 12 16 5

L16 0

L23 0

C29 0 29 0 28 2

C25 4 26 9 28 10

C31 13 34 12 36 10

C38 8 39 4 36 2

C35 0 35 0 40 0

C44 0 45 0 45 3

C46 7 50 9 53 8

C56 7 58 4 58 1

C57 0 58 0 61 0

C64 0 65 1 67 3

C69 6 70 6 73 5

C74 5 76 3 76 2

C77 0 78 0 83 0

L89 0

L87 3

C85 8 89 13 95 12

C99 10 100 2 96 1

C95 0 99 0 104 0

C112 0 115 0 116 2

C118 3 121 3 124 2

C125 0 129 0 141 0

L156 0

L155 3

C155 5 155 6 158 8

C162 11 167 9 167 3

L167 0

L201 0

C234 0 235 0 237 2

C238 3 240 4 241 4

C242 4 244 3 245 2

C247 0 249 0 256 0

C264 0 264 0 264 2

C264 5 266 8 269 8

C271 9 276 6 276 2

L276 0

L307 0

C325 0 339 0 339 1

C340 3 344 3 347 1

C350 -1 356 0 356 1

C356 2 357 4 358 5

C362 7 366 6 367 2

C368 0 369 0 380 0

C392 0 392 0 395 3

C398 6 401 6 404 3

C406 0 406 0 414 0

C421 0 423 0 425 2

C427 5 430 5 433 2

C435 0 436 0 456 0

L477 0

L477 3

C477 4 479 6 480 7

C483 8 483 8 486 7

C488 6 489 4 489 3

L489 0

L520 0

C537 1 552 1 554 1

C555 1 560 1 565 0

C572 0 574 0 576 1

C579 3 582 3 584 2

C586 0 589 0 598 0

L610 0

L610 52

C610 103 610 103 608 101

C606 99 602 98 600 100

C598 101 597 105 598 107

C600 112 605 112 608 109

L610 107

L610 149

L610 191

L606 193

C604 194 601 195 600 195

C597 195 597 195 597 189

C596 183 592 173 589 170

C587 169 587 169 588 173

C588 176 588 179 589 180

C589 181 589 185 588 189

C588 195 588 196 585 196

C583 197 581 196 579 196

C576 195 575 195 574 195

C573 197 577 201 581 203

C582 203 584 204 584 205

C584 206 581 211 578 216

C576 218 575 220 575 220

C575 221 577 221 580 222

C585 223 585 223 588 220

C591 217 595 208 595 206

C595 205 596 204 598 203

C600 202 604 200 606 197

L610 193

L610 198

C610 201 610 203 609 203

C609 202 607 203 606 203

C600 206 601 213 607 214

L610 215

L610 223

C610 230 610 232 608 234

C606 237 605 238 608 241

C610 244 610 245 610 266

C610 287 610 289 608 291

C605 294 606 295 608 298

C609 300 610 302 610 303

C610 306 610 306 608 304

C601 300 594 309 601 314

C604 316 607 316 609 313

C610 312 610 313 610 322

L610 332

L602 335

C593 338 584 341 582 340

C581 339 582 332 585 328

C585 326 586 325 585 325

C583 325 577 332 575 336

C573 340 572 341 564 337

C562 337 560 336 560 336

C559 336 559 339 559 342

C559 348 559 348 562 349

C564 349 567 350 569 351

C571 351 573 352 574 354

C577 358 581 361 586 362

C592 365 593 364 590 361

C584 355 582 350 586 350

C590 350 600 344 605 339

L610 333

L610 361

C610 382 610 388 609 386

C607 380 606 380 600 380

C596 381 592 382 590 383

C586 384 586 384 582 382

C579 381 576 380 572 380

L567 380

L570 382

C572 383 575 385 576 386

L578 388

L574 392

C569 396 565 404 563 410

C563 412 563 412 568 407

C575 401 583 396 585 396

C586 396 589 401 591 406

C592 408 594 403 594 398

C593 392 593 392 603 391

L610 391

L610 396

L610 401

L607 399

C604 398 604 398 601 400

C598 402 597 405 600 408

C602 410 607 411 609 409

C610 408 610 417 610 448

L610 488

L607 487

C602 487 600 489 600 493

C600 497 602 499 607 499

L610 498

L610 533

L610 569

L607 567

C604 566 604 566 601 568

C598 570 598 575 601 577

C604 579 604 579 607 578

L610 576

L610 581

L610 586

L598 586

L586 586

L586 583

C586 580 583 577 580 577

C577 577 574 581 574 584

C575 586 575 586 567 586

L559 586

L560 583

C560 581 560 580 558 578

C554 574 548 577 548 583

L548 586

L519 586

C491 586 489 586 488 584

C485 581 481 581 479 584

C477 585 475 586 472 586

L467 586

L469 584

C473 580 470 574 465 574

C459 574 457 581 461 584

C463 586 462 586 449 586

C436 586 435 586 435 584

C435 581 432 578 429 578

C426 578 423 581 423 584

C423 586 423 586 414 586

C406 586 405 586 405 584

C405 582 402 579 399 579

C397 579 393 582 393 585

C393 586 391 586 381 586

C371 586 368 586 368 585

C368 583 365 580 362 580

C359 580 356 582 356 585

C356 586 355 586 352 586

C349 586 349 586 350 584

C350 582 350 580 348 579

C346 577 344 576 344 576

C343 576 341 577 339 579

C337 580 337 582 337 584

L338 586

L307 586

C277 586 276 586 274 584

C273 583 271 582 270 582

C269 582 267 583 266 584

C264 586 262 586 255 586

C247 586 247 586 247 584

C247 579 240 576 237 580

C236 581 235 583 235 584

L235 586

L201 586

C171 586 167 586 164 584

C162 583 162 583 158 584

C156 586 152 586 140 586

L125 586

L126 584

C126 581 123 577 120 577

C117 577 114 580 114 583

L114 586

L96 586

L78 586

L77 583

C76 581 75 580 72 580

C68 580 68 580 66 583

C65 585 64 586 61 586

C59 586 57 585 55 584

C54 583 52 582 51 582

C50 582 48 583 48 584

C46 586 44 586 23 586

L0 586

L0 478

Z

M451 583

C454 581 453 577 451 575

C445 569 437 577 443 583

C445 585 449 586 451 583

Z

M153 582

C155 581 156 577 154 574

C152 571 147 571 145 574

C142 577 143 580 145 582

C147 584 150 585 153 582

Z

M515 581

C517 578 516 574 513 572

C510 571 510 571 507 573

C503 575 503 579 507 582

C510 584 513 584 515 581

Z

M532 582

C534 580 535 577 532 574

C529 570 522 572 522 578

C522 583 528 586 532 582

Z

M174 579

C177 577 176 573 174 571

C172 569 169 568 166 571

C163 573 164 580 168 581

C170 582 172 581 174 579

Z

M34 576

C35 573 35 573 34 571

C31 567 28 566 26 568

C23 570 22 573 23 576

C25 581 31 580 34 576

Z

M55 576

C57 574 56 570 52 568

C48 565 42 570 44 575

C46 580 52 581 55 576

Z

M137 577

C139 575 140 571 137 569

C135 566 130 567 129 569

C126 572 127 575 129 577

C131 579 135 580 137 577

Z

M272 577

C274 575 275 572 272 569

C269 565 262 567 262 573

C262 578 268 581 272 577

Z

M390 575

C389 573 389 569 388 566

L388 560

L391 561

C395 561 401 559 401 557

C401 557 399 556 397 556

C392 555 389 553 389 551

C389 548 393 538 397 533

C398 530 400 527 400 527

C399 527 397 528 394 530

C388 534 384 538 382 544

C381 546 380 547 379 547

C379 547 376 545 374 543

C370 539 370 539 370 542

C370 545 372 550 375 554

C378 556 378 557 377 561

C377 566 379 576 381 578

C382 578 384 579 386 579

L390 579

L390 575

Z

M417 577

C417 576 418 574 418 572

C418 566 411 564 407 570

C404 575 411 581 417 577

Z

M91 576

C94 573 93 569 90 567

C87 566 87 566 84 567

C79 570 81 578 87 578

C88 578 90 577 91 576

Z

M108 575

C109 574 110 573 110 571

C110 568 107 565 104 565

C101 565 98 568 98 571

C98 576 104 579 108 575

Z

M547 575

C549 573 548 567 546 566

C543 563 541 564 538 566

C535 570 535 571 539 575

C541 577 544 577 547 575

Z

M569 575

C573 572 573 568 569 566

C566 564 566 564 563 565

C561 566 561 567 561 571

C561 574 561 575 563 576

C566 577 566 577 569 575

Z

M498 574

C500 572 501 569 498 566

C495 562 488 564 488 570

C488 575 494 578 498 574

Z

M239 573

C241 571 242 568 239 565

C236 561 229 563 229 569

C229 574 235 577 239 573

Z

M372 573

C373 572 374 570 374 569

C374 566 371 563 368 563

C363 563 360 569 364 573

C366 576 370 575 372 573

Z

M436 573

C440 570 437 563 432 563

C429 563 426 566 426 569

C426 572 429 575 432 575

C433 575 435 574 436 573

Z

M591 573

C595 570 593 563 587 563

C582 563 579 569 583 573

C585 575 588 576 591 573

Z

M75 571

C79 567 76 561 71 561

C67 561 65 563 65 567

C65 570 68 573 71 573

C72 573 74 572 75 571

Z

M14 570

C18 566 15 560 10 560

C5 560 2 564 4 568

C6 572 11 573 14 570

Z

M188 570

C192 567 190 560 184 560

C179 560 176 566 180 570

C182 572 185 573 188 570

Z

M347 570

C349 568 350 565 347 562

C344 558 337 560 337 566

C337 571 343 574 347 570

Z

M125 567

C126 564 126 564 125 562

C122 558 119 557 117 559

C114 561 113 564 114 567

C116 572 122 571 125 567

Z

M256 569

C259 566 260 564 257 561

C255 559 251 558 249 560

C246 562 247 568 249 569

C252 571 253 571 256 569

Z

M472 567

C476 564 473 557 468 557

C466 557 462 560 462 563

C462 568 469 571 472 567

Z

M156 564

C158 562 159 559 156 556

C155 554 150 553 148 556

C145 558 146 563 148 564

C151 567 154 566 156 564

Z

M454 564

C456 562 457 559 454 556

C453 554 448 553 446 556

C443 558 444 563 446 564

C449 567 452 566 454 564

Z

M223 563

C226 561 226 556 223 555

C220 552 217 553 215 555

C209 561 217 569 223 563

Z

M205 562

C208 560 207 556 205 554

C203 552 200 551 197 554

C195 555 194 560 197 562

C199 564 203 564 205 562

Z

M275 562

C278 561 279 557 278 555

C275 548 264 552 267 559

C268 563 272 564 275 562

Z

M577 561

C579 559 580 555 577 553

C575 550 570 551 569 553

C566 556 567 559 569 561

C571 563 575 564 577 561

Z

M43 560

C45 558 46 555 43 552

C40 548 33 550 33 556

C33 561 39 564 43 560

Z

M62 560

C64 558 65 554 62 552

C59 548 52 551 52 556

C52 559 55 562 58 562

C59 562 61 561 62 560

Z

M325 540

C326 538 328 536 329 536

C331 536 335 539 337 540

C339 543 340 542 340 540

C340 537 338 534 336 531

L334 529

L341 524

L349 519

L346 515

C344 513 342 512 341 512

C339 512 331 517 327 521

C324 524 323 525 319 525

C315 525 306 528 306 530

C306 530 308 531 311 531

C314 531 317 531 317 532

C318 532 317 535 316 537

C315 542 314 553 315 558

C316 561 316 561 319 553

C321 549 323 543 325 540

Z

M488 559

C492 556 489 549 484 549

C481 549 478 552 478 555

C478 560 485 563 488 559

Z

M177 557

C180 553 176 546 171 547

C168 548 166 551 166 553

C166 559 173 562 177 557

Z

M361 558

C365 554 362 548 357 548

C351 548 349 555 353 558

C356 561 359 560 361 558

Z

M555 558

C558 556 557 552 555 550

C550 545 541 552 547 558

C549 560 553 561 555 558

Z

M415 557

C416 555 417 553 417 553

C417 551 413 546 411 546

C408 546 405 550 405 553

C405 555 408 559 411 559

C411 559 413 558 415 557

Z

M26 555

C27 552 27 552 25 549

C23 545 19 545 16 549

C13 553 15 558 21 558

C24 558 25 557 26 555

Z

M135 556

C139 553 136 546 131 546

C129 546 125 549 125 552

C125 557 132 560 135 556

Z

M244 555

C245 553 246 551 246 551

C246 549 242 544 240 544

C237 544 234 548 234 551

C234 553 237 557 240 557

C240 557 242 556 244 555

Z

M339 555

C342 553 341 549 339 547

C337 545 334 544 331 547

C329 548 328 553 331 555

C333 557 337 557 339 555

Z

M432 555

C435 552 434 550 432 547

C428 544 427 544 423 548

C421 550 421 553 423 556

C425 558 431 557 432 555

Z

M288 549

C293 544 287 536 280 540

C279 541 278 542 278 544

C278 550 284 553 288 549

Z

M468 550

C471 548 471 543 469 541

C466 538 461 538 459 543

C456 548 463 553 468 550

Z

M447 548

C450 545 449 542 447 540

C441 534 433 542 439 548

C441 551 446 551 447 548

Z

M209 547

C213 544 213 540 209 538

C207 536 206 536 203 537

C199 539 199 545 202 547

C205 549 206 549 209 547

Z

M54 545

C60 539 52 531 46 537

C43 539 43 544 46 545

C49 548 52 547 54 545

Z

M226 545

C229 543 229 537 225 535

C222 534 221 534 219 536

C215 538 215 542 219 545

C222 547 223 547 226 545

Z

M261 544

C262 541 262 541 260 538

C258 535 255 534 252 537

C249 539 249 543 251 546

C253 548 259 547 261 544

Z

M166 543

C169 539 167 534 161 534

C157 534 155 538 156 541

C157 546 163 548 166 543

Z

M570 544

C572 542 573 538 570 536

C568 533 563 534 562 536

C559 539 560 542 562 544

C564 546 568 547 570 544

Z

M303 542

C304 541 305 540 305 538

C305 535 302 532 299 532

C296 532 293 535 293 538

C293 543 299 546 303 542

Z

M485 542

C489 538 486 532 481 532

C475 532 473 539 477 542

C480 545 483 544 485 542

Z

M140 542

C145 539 145 535 141 532

C135 527 129 536 134 541

C136 543 137 543 140 542

Z

M194 541

C198 538 195 531 190 531

C187 531 184 534 184 537

C184 542 191 545 194 541

Z

M355 540

C358 538 357 534 355 532

C350 527 341 534 347 540

C349 542 353 543 355 540

Z

M555 539

C557 537 557 536 556 534

C554 527 542 530 545 537

C546 542 552 543 555 539

Z

M29 539

C31 538 32 533 29 531

C27 528 22 529 21 531

C18 534 19 537 21 539

C23 541 26 542 29 539

Z

M240 536

C243 534 243 529 240 527

C237 525 233 526 232 528

C229 531 230 534 232 536

C234 538 237 539 240 536

Z

M458 536

C461 534 461 530 459 527

C456 525 452 525 450 528

C447 531 448 533 450 536

C453 538 455 539 458 536

Z

M182 530

C186 527 183 520 178 520

C175 520 172 523 172 526

C172 531 178 534 182 530

Z

M276 530

C277 529 278 527 278 526

C278 522 272 518 268 521

C266 522 265 526 266 528

C268 533 273 533 276 530

Z

M378 531

C380 530 381 526 380 524

C377 516 366 521 369 528

C370 532 375 533 378 531

Z

M52 528

C56 525 54 518 48 518

C42 518 40 525 44 528

C45 529 47 530 48 530

C49 530 51 529 52 528

Z

M566 528

C567 527 568 526 568 524

C568 518 562 515 558 519

C553 524 559 532 566 528

Z

M160 526

C163 524 162 520 160 518

C155 513 147 519 151 526

C152 529 158 529 160 526

Z

M484 525

C488 522 488 518 484 516

C481 514 481 514 478 515

C476 516 476 517 476 521

C476 524 476 525 478 526

C481 527 481 527 484 525

Z

M142 524

C145 522 145 516 141 514

C138 513 137 513 135 515

C131 517 131 521 135 524

C138 526 139 526 142 524

Z

M297 524

C298 522 299 520 299 520

C299 517 295 513 293 513

C290 513 286 517 286 520

C286 522 290 526 293 526

C293 526 295 525 297 524

Z

M546 524

C550 520 547 514 542 514

C536 514 534 521 538 524

C541 527 544 526 546 524

Z

M24 522

C26 520 27 517 24 514

C21 510 14 512 14 518

C14 523 20 526 24 522

Z

M249 522

C251 520 252 516 249 514

C247 511 242 512 241 514

C238 517 239 520 241 522

C243 524 247 525 249 522

Z

M465 520

C467 518 468 515 465 512

C462 508 455 510 455 516

C455 521 461 524 465 520

Z

M319 519

C323 516 320 509 315 509

C312 509 309 512 309 515

C309 520 315 523 319 519

Z

M176 515

C178 513 179 510 176 507

C175 505 170 504 168 507

C165 509 166 514 168 515

C171 518 174 517 176 515

Z

M260 514

C262 512 263 510 263 509

C263 506 265 507 273 511

C277 512 280 514 280 514

C281 514 281 512 282 509

C283 506 283 504 282 503

C280 501 269 496 266 496

C264 496 263 495 261 491

C258 487 252 482 250 482

C250 482 250 484 252 487

C253 489 254 492 254 493

C254 494 251 495 247 495

C244 495 234 501 231 504

L228 507

L231 506

C237 504 249 503 253 504

L256 504

L256 511

C255 518 256 519 260 514

Z

M375 514

C376 512 377 510 377 510

C377 509 376 507 375 505

C373 504 371 503 371 503

C370 503 368 504 366 505

C365 507 364 509 364 510

C364 510 365 512 366 514

C368 515 370 516 371 516

C371 516 373 515 375 514

Z

M57 512

C58 511 58 509 58 507

C58 504 57 503 55 502

C52 501 52 501 49 503

C46 505 45 508 48 512

C51 514 54 514 57 512

Z

M503 510

C502 505 501 492 501 489

C502 486 506 484 511 486

C514 487 515 487 515 486

C515 484 511 480 508 479

C504 478 505 476 510 468

C511 464 513 462 513 461

C513 461 506 459 504 459

C502 459 496 467 495 473

C494 477 493 479 490 480

C486 482 480 489 480 491

C480 491 481 491 484 490

C491 486 492 486 492 492

C494 499 496 504 500 509

C502 512 503 514 504 514

C504 514 504 512 503 510

Z

M535 510

C539 507 536 500 531 500

C529 500 525 503 525 506

C525 511 532 514 535 510

Z

M568 510

C571 507 570 501 566 500

C564 499 560 500 559 502

C556 506 560 512 564 512

C565 512 567 511 568 510

Z

M13 508

C16 506 15 502 13 500

C8 495 -1 502 5 508

C7 510 11 511 13 508

Z

M40 508

C43 505 42 502 40 500

C36 496 30 499 30 504

C30 510 37 512 40 508

Z

M136 508

C138 506 139 502 137 500

C135 497 129 498 128 500

C125 503 126 505 128 508

C131 510 133 511 136 508

Z

M160 507

C162 505 161 501 159 499

C157 497 156 497 153 498

C148 501 148 505 152 508

C155 510 158 510 160 507

Z

M360 508

C362 506 361 500 359 499

C356 496 354 497 351 499

C348 503 348 504 352 508

C354 510 357 510 360 508

Z

M487 508

C490 506 489 502 487 500

C481 494 473 502 479 508

C481 510 485 511 487 508

Z

M334 507

C339 502 333 494 326 498

C323 500 323 505 326 507

C329 510 332 509 334 507

Z

M584 498

C583 494 580 490 577 487

L572 481

L576 479

C584 474 584 474 577 474

C573 474 570 475 568 476

C565 477 563 478 563 477

C561 476 550 473 546 473

C543 473 543 473 541 478

C540 480 539 482 539 483

C539 483 543 483 547 484

C557 486 557 486 556 490

C555 493 555 494 556 497

L558 501

L559 497

C560 495 562 492 563 491

L566 489

L570 492

C573 494 577 497 580 500

C586 507 587 506 584 498

Z

M296 503

C298 500 299 498 296 495

C293 491 285 493 285 499

C285 501 290 505 292 505

C292 505 294 504 296 503

Z

M465 503

C467 501 468 498 465 495

C462 491 455 493 455 499

C455 504 461 507 465 503

Z

M112 494

C114 491 118 488 120 487

L123 484

L126 486

C127 487 129 489 130 490

C132 494 133 494 133 490

C134 488 134 486 133 484

C132 482 131 480 132 480

C132 479 135 478 139 477

C143 476 147 474 147 474

C148 473 143 465 142 465

C139 465 127 469 125 471

C123 473 122 473 119 471

C115 470 109 470 105 471

L103 472

L108 474

C115 477 116 477 112 482

C108 487 105 495 105 500

L105 504

L107 502

C108 501 110 497 112 494

Z

M315 500

C317 498 317 495 315 492

C313 490 307 491 306 493

C303 496 304 498 306 501

C310 504 311 504 315 500

Z

M521 500

C524 497 523 495 521 492

C518 490 516 489 513 492

C511 493 510 499 512 501

C514 503 520 502 521 500

Z

M548 500

C552 496 549 490 544 490

C538 490 536 497 540 500

C543 503 546 502 548 500

Z

M66 498

C68 496 69 492 66 490

C64 487 59 488 58 490

C55 493 56 496 58 498

C60 500 64 501 66 498

Z

M177 498

C180 495 179 492 177 490

C173 486 167 489 167 495

C167 500 174 502 177 498

Z

M377 497

C381 493 378 487 373 487

C367 487 365 494 369 497

C372 500 375 499 377 497

Z

M351 489

C351 489 350 486 349 483

C347 480 346 478 347 477

C349 474 348 465 347 461

L345 458

L344 463

C343 466 342 469 342 470

C340 471 340 471 336 468

C330 464 321 462 316 462

L312 463

L318 466

C322 468 327 472 329 474

C333 477 333 478 332 479

C331 480 329 481 326 482

C323 483 321 484 321 484

C321 485 328 486 334 486

L339 485

L341 491

L342 497

L347 494

C349 492 351 490 351 489

Z

M28 490

C31 485 25 479 20 482

C15 485 16 491 20 493

C23 494 26 493 28 490

Z

M151 490

C156 487 154 481 149 480

C143 478 139 488 145 491

C148 492 148 492 151 490

Z

M273 490

C276 486 276 485 273 481

C270 479 268 478 265 481

C262 483 262 489 266 491

C269 492 270 492 273 490

Z

M49 489

C53 486 50 479 45 479

C42 479 39 483 39 485

C39 490 46 493 49 489

Z

M81 489

C86 484 80 476 73 480

C70 482 70 487 73 489

C76 492 79 491 81 489

Z

M597 487

C599 482 594 477 589 479

C586 481 584 484 586 488

C588 490 589 490 592 490

C594 490 596 489 597 487

Z

M457 488

C461 487 461 480 458 478

C452 474 445 482 450 487

C452 489 455 490 457 488

Z

M97 486

C99 485 100 479 98 477

C95 475 92 475 90 477

C86 481 86 482 89 486

C92 488 94 489 97 486

Z

M185 483

C187 481 187 478 184 475

C182 473 178 473 176 476

C173 479 174 481 176 484

C180 487 181 487 185 483

Z

M243 484

C247 481 244 474 239 474

C236 474 233 477 233 480

C233 485 239 488 243 484

Z

M476 484

C480 481 478 474 472 474

C467 474 464 480 468 484

C470 486 473 487 476 484

Z

M315 483

C318 482 319 478 318 476

C315 468 304 473 307 480

C308 484 312 485 315 483

Z

M385 482

C389 479 386 472 381 472

C378 472 375 475 375 478

C375 481 379 484 381 484

C382 484 384 483 385 482

Z

M168 481

C172 477 169 471 164 471

C158 471 156 478 160 481

C163 484 166 483 168 481

Z

M300 482

C302 480 301 474 299 473

C296 470 293 471 291 473

C289 476 288 478 291 481

C292 483 298 484 300 482

Z

M365 480

C369 477 367 470 361 470

C356 470 353 476 357 480

C359 482 362 483 365 480

Z

M531 480

C535 477 533 470 527 470

C522 470 519 476 523 480

C525 482 528 483 531 480

Z

M282 476

C285 474 284 470 282 468

C277 463 268 470 274 476

C276 478 280 479 282 476

Z

M13 475

C15 473 16 470 13 467

C12 465 7 464 5 467

C2 469 3 474 5 475

C8 478 11 477 13 475

Z

M447 475

C450 472 449 468 446 466

C444 464 443 464 441 465

C438 467 437 468 437 471

C437 474 440 477 443 477

C444 477 446 476 447 475

Z

M197 474

C200 471 201 469 198 466

C196 464 192 463 190 465

C187 467 188 473 190 474

C193 476 194 476 197 474

Z

M230 474

C232 472 233 468 230 466

C227 462 220 465 220 470

C220 475 226 478 230 474

Z

M53 471

C56 468 55 465 53 463

C49 459 43 462 43 467

C43 473 50 475 53 471

Z

M400 470

C401 467 401 466 399 464

C397 460 393 460 390 464

C388 467 388 468 390 471

C392 474 398 474 400 470

Z

M214 470

C217 468 216 464 214 462

C209 457 200 464 206 470

C208 472 212 473 214 470

Z

M250 469

C254 466 251 459 246 459

C244 459 240 462 240 465

C240 470 247 473 250 469

Z

M38 466

C41 461 35 455 30 458

C25 461 26 467 30 469

C33 470 36 469 38 466

Z

M69 468

C73 464 70 457 63 458

C61 458 59 461 59 464

C59 467 62 470 65 470

C66 470 68 469 69 468

Z

M266 467

C272 462 266 453 259 457

C256 460 257 467 261 468

C263 469 264 469 266 467

Z

M433 466

C434 463 434 463 432 460

C430 457 427 456 423 459

C422 461 421 463 422 464

C423 468 424 469 428 469

C431 469 432 468 433 466

Z

M486 467

C489 464 488 461 486 459

C482 455 476 458 476 463

C476 469 483 471 486 467

Z

M96 467

C100 465 99 458 95 456

C89 455 85 460 87 464

C89 467 90 468 93 468

C94 468 95 468 96 467

Z

M415 466

C418 463 417 460 415 458

C411 454 405 457 405 462

C405 468 412 470 415 466

Z

M586 466

C588 464 589 461 586 458

C583 454 576 456 576 462

C576 467 582 470 586 466

Z

M119 464

C121 462 121 458 118 456

C115 453 113 454 110 456

C107 460 107 461 111 465

C113 467 116 467 119 464

Z

M605 465

C608 463 607 458 604 456

C599 453 593 459 596 464

C598 467 603 468 605 465

Z

M172 463

C176 460 173 453 168 453

C165 453 162 456 162 459

C162 464 169 467 172 463

Z

M552 463

C555 461 555 456 552 455

C549 452 546 453 544 455

C538 461 546 469 552 463

Z

M457 462

C459 460 460 457 457 454

C454 450 447 452 447 458

C447 463 453 466 457 462

Z

M155 461

C157 459 158 456 155 453

C152 449 145 451 145 457

C145 462 151 465 155 461

Z

M537 459

C539 456 538 453 534 451

C532 450 531 450 529 451

C526 453 526 454 526 457

C527 463 534 464 537 459

Z

M568 459

C570 457 571 453 568 451

C565 447 558 450 558 455

C558 460 564 463 568 459

Z

M82 458

C86 456 84 448 80 448

C73 447 70 454 74 458

C76 460 79 461 82 458

Z

M189 458

C191 456 192 452 189 450

C186 446 179 449 179 454

C179 459 185 462 189 458

Z

M25 456

C26 453 26 453 24 450

C22 446 18 446 15 450

C12 454 14 459 20 459

C23 459 24 458 25 456

Z

M221 457

C224 455 224 450 221 449

C218 446 215 447 213 449

C207 455 215 463 221 457

Z

M384 457

C386 455 387 452 384 449

C381 445 374 447 374 453

C374 458 380 461 384 457

Z

M364 456

C369 453 366 445 360 445

C357 445 354 448 354 451

C354 455 360 459 364 456

Z

M341 452

C342 449 342 449 341 447

C338 443 335 442 333 444

C330 446 329 449 330 452

C332 457 338 456 341 452

Z

M497 454

C500 452 500 448 498 445

C495 443 491 443 489 446

C486 449 487 451 489 454

C492 456 494 457 497 454

Z

M259 452

C259 451 260 450 260 448

C260 445 258 442 255 442

C253 441 248 444 248 448

C248 452 255 455 259 452

Z

M522 451

C526 448 523 441 518 441

C513 441 510 447 514 451

C516 453 520 454 522 451

Z

M142 450

C145 448 144 444 142 442

C136 436 128 444 134 450

C136 452 140 453 142 450

Z

M239 450

C243 447 240 440 235 440

C233 440 229 443 229 446

C229 451 236 454 239 450

Z

M413 450

C415 446 412 440 408 440

C403 440 400 447 403 451

C405 453 411 452 413 450

Z

M436 448

C439 443 433 437 428 440

C425 442 424 447 427 449

C429 452 434 451 436 448

Z

M473 449

C475 446 476 444 473 441

C472 439 466 438 464 440

C462 442 463 448 465 449

C468 452 471 451 473 449

Z

M202 448

C206 445 204 438 198 438

C193 438 190 444 194 448

C196 450 199 451 202 448

Z

M582 447

C585 442 579 436 574 439

C572 441 571 442 571 444

C571 448 573 450 577 450

C579 450 580 449 582 447

Z

M111 447

C115 444 112 437 107 437

C102 437 99 443 103 447

C105 449 109 450 111 447

Z

M606 446

C608 444 609 441 606 438

C603 434 596 436 596 442

C596 447 602 450 606 446

Z

M17 442

C20 437 15 431 10 433

C7 434 6 437 6 441

C8 445 14 446 17 442

Z

M91 442

C92 439 92 439 91 436

C88 431 80 433 80 439

C80 445 88 447 91 442

Z

M353 440

C355 438 356 435 353 432

C352 430 347 429 345 432

C342 434 343 439 345 440

C348 443 351 442 353 440

Z

M451 439

C455 436 455 432 451 430

C449 428 448 428 445 429

C443 430 443 431 443 434

C443 438 443 439 445 440

C448 441 448 441 451 439

Z

M132 437

C134 435 135 431 132 429

C129 425 122 428 122 433

C122 436 125 439 128 439

C129 439 131 438 132 437

Z

M401 436

C405 434 406 433 409 435

C412 436 426 437 427 436

C427 435 428 433 428 431

L430 426

L421 426

C416 425 412 425 412 424

C411 424 412 423 412 421

C413 418 412 411 410 411

C410 411 408 413 407 416

C406 419 404 421 403 422

C402 422 392 417 385 411

L380 406

L382 410

C384 417 388 423 392 427

L397 431

L392 434

C389 436 387 438 387 438

C387 440 397 438 401 436

Z

M491 437

C495 434 492 427 487 427

C486 427 484 428 483 429

C478 434 485 443 491 437

Z

M512 438

C515 436 516 435 516 432

C516 429 511 426 509 427

C504 428 502 435 506 437

C509 439 509 439 512 438

Z

M227 436

C231 433 228 426 223 426

C220 426 217 429 217 432

C217 437 223 440 227 436

Z

M334 436

C337 434 336 429 333 427

C328 424 322 430 325 435

C327 438 332 439 334 436

Z

M254 436

C259 434 259 427 254 425

C251 424 247 425 246 428

C245 432 247 435 252 437

C252 437 253 436 254 436

Z

M382 433

C387 428 381 420 374 424

C373 425 372 426 372 428

C372 434 378 437 382 433

Z

M588 433

C591 430 590 427 588 425

C584 421 578 424 578 430

C578 435 585 437 588 433

Z

M209 431

C211 428 211 428 210 425

C209 423 208 422 205 422

C199 422 197 427 200 431

C203 435 207 435 209 431

Z

M92 425

C94 422 93 419 89 417

C87 416 86 416 84 417

C81 419 81 420 81 423

C82 429 89 430 92 425

Z

M15 426

C19 423 17 416 11 416

C8 416 5 419 5 422

C5 425 8 428 11 428

C12 428 14 427 15 426

Z

M367 426

C368 425 369 423 369 422

C369 419 366 416 363 416

C359 416 357 419 357 422

C357 428 363 430 367 426

Z

M605 426

C607 424 608 421 605 418

C602 414 595 416 595 422

C595 427 601 430 605 426

Z

M107 424

C111 420 108 414 103 414

C99 414 97 416 97 420

C97 425 103 428 107 424

Z

M468 423

C469 420 469 419 467 417

C465 413 461 413 458 417

C455 421 457 426 463 426

C466 426 467 425 468 423

Z

M484 422

C485 421 486 419 486 418

C486 415 483 411 480 411

C478 411 474 416 474 418

C474 419 478 424 480 424

C481 424 483 423 484 422

Z

M326 419

C328 416 326 413 323 411

C318 409 313 414 315 419

C317 423 323 424 326 419

Z

M127 420

C130 417 129 415 127 412

C123 409 122 409 118 413

C116 415 116 418 118 421

C120 423 126 422 127 420

Z

M450 419

C452 417 452 414 449 411

C447 409 443 409 441 412

C438 415 439 417 441 420

C445 423 446 423 450 419

Z

M512 420

C516 417 513 410 508 410

C506 410 502 413 502 416

C502 421 509 424 512 420

Z

M242 420

C244 418 243 412 240 410

C235 407 229 413 232 418

C234 421 240 422 242 420

Z

M262 418

C266 415 263 408 258 408

C255 408 252 411 252 414

C252 417 256 420 258 420

C259 420 261 419 262 418

Z

M352 417

C356 414 354 407 348 407

C343 407 340 413 344 417

C346 419 349 420 352 417

Z

M588 417

C590 414 591 412 588 409

C587 407 581 406 579 409

C577 411 578 415 580 417

C583 420 585 419 588 417

Z

M205 415

C210 411 208 406 203 404

C196 403 193 414 200 416

C202 417 203 417 205 415

Z

M223 414

C227 411 224 404 219 404

C216 404 213 408 213 410

C213 415 220 418 223 414

Z

M74 410

C77 409 80 407 82 405

C84 403 86 402 86 402

C87 403 91 411 91 412

C91 412 91 413 92 413

C94 413 94 404 93 399

C91 395 91 394 94 389

C95 387 96 382 97 379

L97 373

L93 371

C91 370 89 369 88 369

C88 370 87 372 86 376

C86 379 84 383 84 384

C83 387 83 387 81 385

C78 384 72 384 70 385

C69 386 69 386 71 387

C74 389 79 393 79 394

C79 396 70 406 65 409

C62 411 60 413 60 413

C60 414 70 412 74 410

Z

M22 411

C26 407 23 401 18 401

C12 401 10 408 14 411

C17 414 20 413 22 411

Z

M498 410

C499 409 500 407 500 406

C500 403 497 400 494 400

C490 400 488 403 488 406

C488 412 494 414 498 410

Z

M311 409

C313 407 314 404 311 401

C308 397 301 399 301 405

C301 410 307 413 311 409

Z

M277 408

C281 405 278 398 273 398

C270 398 267 402 267 404

C267 409 274 412 277 408

Z

M406 408

C410 405 407 398 402 398

C399 398 396 402 396 404

C396 409 403 412 406 408

Z

M439 408

C441 404 440 402 437 400

C434 398 434 398 431 399

C428 401 427 406 429 409

C431 411 437 410 439 408

Z

M141 406

C137 403 129 393 129 390

C128 387 130 384 135 382

C138 381 138 381 137 379

C134 378 130 378 127 379

C125 380 125 380 124 378

C124 376 124 374 124 372

C125 370 124 370 122 370

C115 372 115 372 115 380

C116 385 115 387 114 390

C112 393 112 398 112 403

C112 405 112 405 115 401

C119 395 120 394 122 397

C126 402 137 409 143 409

C144 409 144 409 141 406

Z

M339 405

C342 403 342 397 338 395

C335 394 334 394 332 396

C328 398 328 402 332 405

C335 407 336 407 339 405

Z

M519 404

C522 399 517 393 512 395

C509 396 508 399 508 403

C510 407 516 408 519 404

Z

M294 404

C298 401 295 394 291 394

C287 394 284 397 284 400

C284 405 290 408 294 404

Z

M34 400

C39 395 34 387 28 390

C21 393 24 402 31 402

C31 402 33 401 34 400

Z

M196 400

C198 398 199 394 197 392

C195 389 189 390 188 392

C186 395 186 396 188 399

C191 402 193 403 196 400

Z

M241 397

L237 393

L239 391

C245 387 251 379 253 372

C254 370 253 371 247 375

C244 378 239 381 236 383

L231 385

L229 382

C228 381 227 378 226 376

C225 373 225 373 223 374

C222 376 222 378 222 381

L222 387

L213 387

C207 387 204 387 204 388

C204 391 206 396 207 397

C209 398 218 398 224 397

C227 396 228 396 231 398

C234 400 239 402 243 402

L246 402

L241 397

Z

M421 400

C423 398 424 395 421 392

C419 389 414 389 412 392

C410 395 411 399 413 400

C416 403 419 402 421 400

Z

M66 397

C70 394 67 387 62 387

C59 387 56 390 56 393

C56 396 59 399 62 399

C63 399 65 398 66 397

Z

M260 397

C262 394 263 392 260 389

C259 387 253 386 251 388

C249 390 250 396 252 397

C255 400 257 399 260 397

Z

M50 395

C54 391 51 385 46 385

C40 385 38 392 42 395

C45 398 48 397 50 395

Z

M148 395

C152 392 149 385 144 385

C141 385 138 388 138 391

C138 396 145 399 148 395

Z

M506 394

C507 393 508 392 508 390

C508 387 505 384 502 384

C499 384 496 387 496 390

C496 395 502 398 506 394

Z

M530 393

C535 388 529 380 522 384

C521 385 520 386 520 388

C520 394 526 397 530 393

Z

M15 393

C17 390 16 385 13 383

C10 382 10 382 7 384

C4 386 3 389 6 392

C8 394 13 395 15 393

Z

M109 391

C110 390 111 388 111 387

C111 386 110 384 109 383

C105 379 99 381 99 387

C99 392 105 395 109 391

Z

M275 391

C279 387 277 381 271 381

C268 381 265 384 265 387

C265 390 268 393 271 393

C272 393 274 392 275 391

Z

M406 390

C408 387 408 387 407 384

C406 382 405 381 402 381

C398 381 397 382 396 386

C395 387 396 389 397 391

C401 394 404 393 406 390

Z

M182 390

C186 387 183 380 178 380

C175 380 172 384 172 386

C172 391 179 394 182 390

Z

M434 390

C438 387 435 380 430 380

C427 380 424 384 424 386

C424 391 431 394 434 390

Z

M332 389

C334 386 335 384 332 381

C331 379 326 378 324 380

C321 382 321 387 324 389

C327 392 329 391 332 389

Z

M561 389

C565 386 565 382 561 380

C558 378 558 378 555 379

C551 381 551 387 554 389

C557 391 558 391 561 389

Z

M164 389

C167 387 167 384 165 381

C160 374 151 381 155 388

C157 390 162 391 164 389

Z

M313 388

C315 386 316 382 313 380

C310 376 303 379 303 384

C303 389 309 392 313 388

Z

M545 387

C549 384 546 377 541 377

C540 377 538 378 537 379

C532 384 539 393 545 387

Z

M290 382

C293 380 293 375 290 374

C287 371 284 372 282 374

C276 380 284 388 290 382

Z

M215 378

C218 373 212 367 207 370

C204 372 203 376 205 379

C207 382 212 382 215 378

Z

M511 378

C517 372 509 364 503 370

C500 372 500 377 503 378

C506 381 509 380 511 378

Z

M420 377

C423 375 422 371 420 369

C415 364 407 370 411 377

C412 380 418 380 420 377

Z

M593 376

C595 373 593 370 590 368

C584 365 579 373 583 378

C584 378 586 379 588 379

C590 379 591 378 593 376

Z

M26 376

C27 375 28 373 28 372

C28 368 22 364 18 367

C16 368 15 372 16 374

C18 379 23 379 26 376

Z

M42 377

C45 375 45 372 43 369

C38 362 29 369 33 376

C35 378 40 379 42 377

Z

M77 376

C80 374 79 370 77 368

C72 363 64 369 68 376

C69 379 75 379 77 376

Z

M528 377

C532 375 533 372 531 368

C529 364 522 364 520 369

C519 373 521 376 526 378

C526 378 527 377 528 377

Z

M400 375

C403 371 403 370 399 366

C397 364 394 364 391 366

C389 368 390 374 392 375

C395 378 397 377 400 375

Z

M189 374

C192 372 191 368 189 366

C184 361 175 368 181 374

C183 376 187 377 189 374

Z

M440 373

C442 371 443 368 440 365

C437 361 430 363 430 369

C430 374 436 377 440 373

Z

M237 371

C239 368 240 366 237 363

C234 359 227 361 227 366

C227 372 233 375 237 371

Z

M304 370

C306 367 306 367 305 364

C304 362 303 361 300 361

C294 361 292 366 295 370

C298 374 302 374 304 370

Z

M334 371

C340 365 332 357 326 363

C323 365 323 370 326 371

C329 374 332 373 334 371

Z

M59 371

C59 370 60 368 60 366

C60 360 51 358 49 364

C47 368 50 372 54 372

C56 372 58 371 59 371

Z

M170 370

C174 367 172 360 166 360

C161 360 158 366 162 370

C164 372 167 373 170 370

Z

M571 370

C574 367 575 365 572 362

C570 360 566 359 564 361

C561 363 562 369 564 370

C567 372 568 372 571 370

Z

M147 370

C150 368 150 365 148 362

C145 358 141 358 138 363

C137 366 137 367 139 369

C141 371 145 372 147 370

Z

M550 369

C552 368 553 362 551 360

C549 358 543 359 542 361

C539 364 540 366 542 369

C545 371 547 372 550 369

Z

M110 366

C111 364 112 362 112 362

C112 360 108 355 106 355

C104 355 100 358 100 360

C99 363 101 366 103 367

C107 368 107 368 110 366

Z

M514 361

C515 360 516 358 515 357

C515 354 511 351 509 351

C507 351 503 356 503 358

C503 358 504 360 505 362

C509 365 510 365 514 361

Z

M453 359

C455 357 455 356 454 353

C453 351 452 350 449 350

C443 350 441 355 444 359

C447 363 451 363 453 359

Z

M606 360

C608 358 609 355 606 352

C603 348 596 350 596 356

C596 361 602 364 606 360

Z

M391 359

C393 356 394 354 391 351

C390 349 384 348 382 350

C380 353 380 356 382 358

C386 362 387 362 391 359

Z

M415 357

C416 354 416 354 415 352

C412 348 409 347 407 349

C404 351 403 354 404 357

C406 362 412 361 415 357

Z

M497 354

C500 351 502 347 503 344

C504 341 506 339 506 339

C506 339 509 341 511 343

C515 345 516 346 516 345

C516 342 513 337 510 333

C507 330 507 329 507 323

C506 319 506 315 505 313

C504 309 503 308 498 308

C492 308 492 308 495 317

C496 324 496 327 495 326

C492 326 487 328 484 330

C483 332 483 332 486 332

C492 332 496 334 496 337

C496 340 492 351 489 356

C488 358 487 360 487 361

C487 362 492 358 497 354

Z

M72 358

C75 355 74 352 72 350

C68 346 62 349 62 354

C62 360 69 362 72 358

Z

M90 358

C94 355 91 348 86 348

C83 348 80 351 80 354

C80 357 84 360 86 360

C87 360 89 359 90 358

Z

M195 359

C200 357 200 350 195 348

C192 347 188 348 187 351

C186 355 188 358 193 360

C193 360 194 359 195 359

Z

M310 357

C314 355 315 352 313 348

C311 344 304 344 302 349

C301 353 303 356 308 358

C308 358 309 357 310 357

Z

M344 355

C346 353 345 349 342 347

C336 342 330 351 335 356

C337 358 342 358 344 355

Z

M131 354

C135 349 129 343 124 345

C121 346 120 349 120 353

C122 357 128 358 131 354

Z

M435 355

C439 352 439 348 435 346

C433 344 432 344 429 345

C425 347 425 353 428 355

C431 357 432 357 435 355

Z

M534 353

C536 351 535 347 532 345

C528 342 523 344 523 350

C523 355 530 358 534 353

Z

M238 353

C242 350 239 343 234 343

C231 343 228 347 228 349

C228 354 235 357 238 353

Z

M216 352

C219 350 218 346 216 344

C214 342 211 341 208 344

C206 345 205 350 208 352

C210 354 214 354 216 352

Z

M553 351

C556 348 555 345 553 343

C549 339 543 342 543 347

C543 353 550 355 553 351

Z

M467 349

C469 347 469 346 468 343

C466 339 460 339 458 342

C456 345 456 346 458 349

C461 353 465 353 467 349

Z

M375 349

C377 348 378 342 376 340

C374 338 369 339 367 341

C364 343 365 347 368 349

C371 351 372 351 375 349

Z

M328 348

C330 346 331 342 328 340

C325 336 318 339 318 344

C318 347 321 350 324 350

C325 350 327 349 328 348

Z

M106 347

C110 344 107 337 102 337

C99 337 96 341 96 343

C96 348 103 351 106 347

Z

M173 347

C176 345 176 339 172 337

C169 336 168 336 166 338

C162 340 162 344 166 347

C169 349 170 349 173 347

Z

M357 347

C360 345 359 341 357 339

C352 334 343 341 349 347

C351 349 355 350 357 347

Z

M155 346

C158 344 159 341 156 338

C155 336 149 335 147 337

C145 339 146 345 148 346

C151 348 152 348 155 346

Z

M483 345

C485 344 486 338 483 336

C480 333 473 336 473 341

C473 343 477 347 479 347

C480 347 482 346 483 345

Z

M425 342

C428 341 431 339 432 338

C434 336 434 335 438 336

C442 337 444 337 449 336

L455 334

L448 332

C445 331 442 330 441 330

C441 329 442 328 443 326

C446 321 448 315 448 307

L448 301

L444 308

C443 311 439 317 437 320

L432 324

L429 322

C427 321 425 319 424 318

C424 317 422 316 422 317

C420 318 421 322 423 326

C425 330 426 330 416 334

C412 336 409 337 409 337

C409 338 410 340 412 342

C416 346 417 346 425 342

Z

M79 342

C80 340 81 338 81 338

C81 336 77 331 75 331

C74 331 72 332 71 333

C68 335 68 341 72 343

C75 344 76 344 79 342

Z

M189 341

C192 338 193 336 190 333

C188 331 184 330 182 332

C179 334 180 340 182 341

C185 343 186 343 189 341

Z

M140 338

C143 336 142 332 140 330

C135 325 126 332 132 338

C134 340 138 341 140 338

Z

M243 339

C246 338 248 334 247 332

C246 331 245 329 244 329

C239 325 234 330 235 336

C236 338 238 339 241 340

C241 340 242 339 243 339

Z

M312 337

C314 333 313 330 309 328

C306 326 302 328 301 333

C301 337 302 339 307 339

C309 339 310 338 312 337

Z

M388 336

C391 333 390 330 388 328

C384 324 378 327 378 332

C378 338 385 340 388 336

Z

M343 335

C346 333 346 328 343 327

C340 324 337 325 335 327

C329 333 337 341 343 335

Z

M224 334

C227 332 226 328 224 326

C219 321 210 328 216 334

C218 336 222 337 224 334

Z

M529 334

C531 330 528 324 524 324

C520 324 517 329 518 331

C519 336 526 338 529 334

Z

M547 335

C550 333 550 330 548 327

C545 322 539 324 537 329

C537 332 539 336 543 336

C544 336 546 335 547 335

Z

M406 333

C410 330 407 323 402 323

C399 323 396 327 396 329

C396 334 403 337 406 333

Z

M572 331

C575 326 569 320 564 323

C561 325 560 330 563 332

C565 335 570 334 572 331

Z

M104 330

C107 328 106 324 104 322

C102 320 99 319 96 322

C94 323 93 328 96 330

C98 332 102 332 104 330

Z

M203 329

C205 327 206 324 203 321

C200 317 193 319 193 325

C193 330 199 333 203 329

Z

M601 329

C605 326 602 319 597 319

C596 319 594 320 593 321

C588 326 595 335 601 329

Z

M128 325

C131 323 131 318 128 317

C125 314 122 315 120 317

C114 323 122 331 128 325

Z

M323 325

C327 322 324 315 319 315

C316 315 313 318 313 321

C313 324 317 327 319 327

C320 327 322 326 323 325

Z

M464 324

C465 321 465 321 464 319

C461 315 458 314 456 316

C452 319 451 322 453 325

C455 327 456 327 459 327

C462 327 463 326 464 324

Z

M82 323

C85 319 82 314 76 314

C73 314 71 316 71 320

C71 325 78 328 82 323

Z

M356 324

C359 322 359 317 356 315

C353 313 349 314 348 316

C345 319 346 322 348 324

C350 326 353 327 356 324

Z

M374 324

C376 322 375 316 373 315

C370 312 368 313 365 315

C362 319 362 320 366 324

C368 326 371 326 374 324

Z

M255 322

C258 319 257 316 255 314

C249 308 241 316 247 322

C249 325 254 325 255 322

Z

M303 322

C305 319 306 317 303 314

C301 311 297 311 294 313

C292 316 292 320 295 322

C298 325 300 324 303 322

Z

M488 321

C492 318 489 311 484 311

C483 311 481 312 480 313

C475 318 482 327 488 321

Z

M339 319

C344 318 343 310 339 308

C333 307 329 312 331 316

C333 320 336 321 339 319

Z

M520 318

C523 315 522 312 520 310

C516 306 510 309 510 314

C510 320 517 322 520 318

Z

M552 317

C554 315 555 311 552 309

C550 306 545 307 544 309

C541 312 542 315 544 317

C546 319 550 320 552 317

Z

M389 316

C391 314 392 310 389 308

C387 305 382 306 381 308

C378 311 379 314 381 316

C383 318 387 319 389 316

Z

M571 315

C574 310 568 304 563 307

C560 309 559 314 562 316

C564 319 569 318 571 315

Z

M234 315

C238 312 235 305 230 305

C227 305 224 309 224 311

C224 316 231 319 234 315

Z

M414 314

C420 308 412 300 406 306

C403 308 403 313 406 314

C409 317 412 316 414 314

Z

M474 314

C479 309 474 301 468 304

C461 307 464 316 471 316

C471 316 473 315 474 314

Z

M210 313

C214 310 211 303 206 303

C205 303 203 304 202 305

C197 310 204 319 210 313

Z

M271 313

C273 311 274 308 271 305

C268 301 261 303 261 309

C261 314 267 317 271 313

Z

M290 312

C294 307 288 301 283 303

C280 304 279 307 279 311

C281 315 287 316 290 312

Z

M431 311

C434 309 433 305 431 303

C429 301 426 300 423 303

C421 304 420 309 423 311

C425 313 429 313 431 311

Z

M536 311

C540 307 537 301 532 301

C526 301 524 308 528 311

C531 314 534 313 536 311

Z

M103 309

C105 307 106 303 103 301

C101 298 96 299 95 301

C92 304 93 307 95 309

C97 311 101 312 103 309

Z

M122 309

C126 306 124 299 119 299

C113 299 110 305 114 309

C116 311 119 312 122 309

Z

M327 309

C329 307 330 303 328 301

C326 298 320 298 318 301

C315 305 319 311 323 311

C324 311 326 310 327 309

Z

M586 309

C588 307 589 304 586 301

C583 297 576 299 576 305

C576 310 582 313 586 309

Z

M79 306

C82 303 81 300 79 298

C75 294 69 297 69 302

C69 308 76 310 79 306

Z

M249 304

C252 301 251 299 249 296

C246 294 244 293 241 296

C239 297 238 303 240 305

C242 307 248 306 249 304

Z

M399 301

C402 298 402 294 399 292

C397 290 392 291 391 293

C388 296 389 299 391 301

C394 304 397 304 399 301

Z

M484 300

C486 299 487 293 485 291

C483 289 477 290 476 292

C473 295 474 297 476 300

C479 302 481 303 484 300

Z

M502 300

C504 298 505 294 502 292

C499 288 492 291 492 296

C492 301 498 304 502 300

Z

M522 300

C524 299 525 293 522 291

C519 288 512 291 512 295

C512 298 513 299 516 301

C518 302 519 302 522 300

Z

M315 297

C319 294 316 287 311 287

C308 287 305 290 305 293

C305 298 311 301 315 297

Z

M211 296

C216 291 211 283 205 286

C198 289 201 298 208 298

C208 298 210 297 211 296

Z

M599 295

C601 292 600 288 596 287

C592 285 590 287 588 290

C585 296 595 301 599 295

Z

M291 295

C293 293 294 290 291 287

C288 283 281 285 281 291

C281 296 287 299 291 295

Z

M425 295

C429 291 427 285 421 285

C418 285 415 288 415 291

C415 294 418 297 421 297

C422 297 424 296 425 295

Z

M269 294

C269 293 270 291 270 289

C270 283 263 281 259 287

C256 292 263 298 269 294

Z

M70 292

C73 289 72 286 70 284

C66 280 60 283 60 288

C60 294 67 296 70 292

Z

M235 292

C237 290 238 287 235 284

C232 280 225 282 225 288

C225 293 231 296 235 292

Z

M123 291

C126 289 126 284 123 283

C120 280 117 281 115 283

C109 289 117 297 123 291

Z

M20 288

C24 284 21 278 16 278

C10 278 8 285 12 288

C15 291 18 290 20 288

Z

M87 287

C91 284 89 277 83 277

C78 277 75 283 79 287

C81 289 84 290 87 287

Z

M108 286

C112 283 110 276 105 276

C99 276 96 282 100 286

C102 288 105 289 108 286

Z

M220 286

C221 285 222 282 223 280

C223 276 224 276 226 276

C227 276 231 277 234 278

C242 280 242 280 242 274

C242 269 242 269 238 267

C235 267 231 266 227 265

C221 265 220 264 217 261

C213 258 208 255 206 255

C204 255 205 256 208 260

C209 263 211 265 211 265

C211 266 209 266 208 267

C202 269 195 274 192 278

C190 281 189 283 189 283

C190 283 192 282 195 281

C200 278 211 275 214 275

C215 275 217 280 217 284

C217 288 218 289 220 286

Z

M513 285

C515 284 516 279 514 277

C511 273 503 276 503 281

C503 283 507 287 509 287

C510 287 512 286 513 285

Z

M296 272

C297 271 298 271 301 273

C307 275 321 275 327 273

C331 271 331 271 321 269

C313 267 302 262 302 261

C302 260 307 255 311 253

L315 251

L309 251

C305 251 302 252 299 254

C297 255 295 256 294 256

C294 256 292 254 290 250

L286 245

L282 249

C278 255 278 255 285 262

C287 264 288 266 288 269

C288 274 291 281 294 284

C295 286 296 286 296 280

C296 276 296 273 296 272

Z

M403 284

C407 281 405 274 399 274

C396 274 393 277 393 280

C393 283 396 286 399 286

C400 286 402 285 403 284

Z

M492 284

C496 280 493 274 488 274

C482 274 480 281 484 284

C487 287 490 286 492 284

Z

M55 283

C58 281 57 277 55 275

C49 269 41 277 47 283

C49 285 53 286 55 283

Z

M38 281

C40 279 39 274 36 272

C33 271 33 271 30 273

C29 274 27 276 27 277

C26 282 35 286 38 281

Z

M604 280

C606 278 607 275 604 272

C602 269 597 269 595 272

C593 275 594 279 596 280

C599 283 602 282 604 280

Z

M424 278

C428 275 428 271 424 269

C421 267 421 267 418 268

C416 269 416 270 416 274

C416 277 416 278 418 279

C421 280 421 280 424 278

Z

M132 274

C134 271 132 268 129 266

C123 263 118 271 122 276

C123 276 125 277 127 277

C129 277 130 276 132 274

Z

M280 274

C281 271 281 271 279 268

C277 264 273 264 270 268

C267 272 269 277 275 277

C278 277 279 276 280 274

Z

M257 274

C261 270 258 264 253 264

C249 264 247 266 247 270

C247 275 253 278 257 274

Z

M84 270

C86 267 87 265 84 262

C82 260 78 259 76 261

C73 263 74 269 76 270

C79 273 81 272 84 270

Z

M101 268

C104 265 103 262 101 260

C97 256 91 259 91 264

C91 270 98 272 101 268

Z

M67 267

C69 264 69 261 67 259

C64 255 57 258 57 263

C57 269 64 271 67 267

Z

M402 267

C404 264 403 260 400 258

C395 255 389 261 392 266

C395 270 400 270 402 267

Z

M511 268

C516 265 513 257 508 257

C504 257 502 259 502 263

C502 267 504 269 508 269

C509 269 510 268 511 268

Z

M493 267

C496 265 496 260 492 257

C487 254 481 260 484 265

C486 268 490 269 493 267

Z

M36 264

C39 262 39 257 36 256

C33 253 30 254 28 256

C22 262 30 270 36 264

Z

M144 264

C146 261 147 259 144 256

C142 253 138 253 135 255

C133 258 133 262 136 264

C139 267 141 266 144 264

Z

M194 262

C195 261 196 259 196 258

C196 255 193 252 190 252

C186 252 184 255 184 258

C184 264 190 266 194 262

Z

M603 262

C606 260 606 255 603 254

C600 251 597 252 595 254

C589 260 597 268 603 262

Z

M428 259

C431 256 430 254 428 251

C424 248 423 248 419 252

C417 254 417 257 419 260

C421 262 427 261 428 259

Z

M116 257

C118 255 118 254 117 251

C116 249 115 248 112 248

C106 248 104 253 107 257

C110 261 114 261 116 257

Z

M52 257

C57 253 54 247 49 247

C43 247 41 252 44 256

C46 259 50 260 52 257

Z

M159 257

C162 254 163 252 160 249

C158 247 154 246 152 248

C149 250 150 256 152 257

C155 259 156 259 159 257

Z

M177 256

C180 254 180 248 176 246

C173 245 172 245 170 247

C166 249 166 253 170 256

C173 258 174 258 177 256

Z

M252 255

C252 254 253 252 253 250

C253 246 249 243 245 245

C239 247 241 256 247 256

C249 256 251 255 252 255

Z

M233 251

C235 249 236 244 234 242

C232 240 226 241 225 243

C222 246 223 249 225 251

C227 253 231 254 233 251

Z

M396 251

C400 248 397 241 392 241

C387 241 384 247 388 251

C390 253 394 254 396 251

Z

M25 250

C27 246 26 244 23 242

C20 240 20 240 17 241

C14 243 13 248 15 251

C17 253 23 252 25 250

Z

M327 250

C330 248 330 243 327 242

C324 239 321 240 319 242

C313 248 321 256 327 250

Z

M486 249

C488 246 487 242 483 241

C477 239 473 245 476 250

C478 253 483 253 486 249

Z

M508 244

C513 248 519 251 526 252

L531 252

L528 250

C523 246 515 239 513 236

L511 233

L513 230

C514 229 517 227 518 226

C520 226 521 224 520 224

C520 223 512 223 510 224

C509 225 508 225 507 225

C507 225 506 220 505 216

L503 207

L498 210

C495 211 493 212 493 212

C493 216 496 225 497 229

C499 232 499 233 498 236

C497 239 497 250 498 251

C498 252 500 249 501 246

L504 240

L508 244

Z

M269 249

C273 245 270 239 264 239

C261 239 259 241 259 245

C259 248 262 251 265 251

C266 251 268 250 269 249

Z

M415 249

C419 245 416 239 411 239

C405 239 403 246 407 249

C410 252 413 251 415 249

Z

M143 246

C147 242 145 236 140 236

C134 236 132 241 135 245

C137 248 141 249 143 246

Z

M596 246

C599 244 598 240 596 238

C594 236 591 235 588 238

C586 239 585 244 588 246

C590 248 594 248 596 246

Z

M439 244

C439 243 440 241 440 240

C440 236 436 234 433 234

C428 236 426 242 431 245

C434 247 437 247 439 244

Z

M125 244

C129 241 126 234 121 234

C118 234 115 237 115 240

C115 245 122 248 125 244

Z

M202 243

C204 241 205 238 202 235

C199 231 192 233 192 239

C192 244 198 247 202 243

Z

M45 240

C46 237 46 237 44 234

C42 231 39 230 35 233

C34 235 33 237 34 238

C35 242 36 243 40 243

C43 243 44 242 45 240

Z

M218 240

C224 235 219 227 213 230

C208 232 208 239 212 241

C215 242 215 242 218 240

Z

M170 238

C172 236 172 235 171 232

C169 228 163 228 161 231

C159 234 159 235 161 238

C164 242 168 242 170 238

Z

M471 239

C474 237 473 233 471 231

C469 229 466 228 463 231

C461 232 460 237 463 239

C465 241 469 241 471 239

Z

M338 239

C342 237 341 230 337 228

C331 227 327 232 329 236

C331 239 332 240 335 240

C336 240 337 240 338 239

Z

M320 237

C323 234 322 231 320 229

C314 223 306 231 312 237

C314 240 319 240 320 237

Z

M386 237

C389 233 389 232 385 228

C383 226 380 226 377 228

C375 230 376 236 378 237

C381 240 383 239 386 237

Z

M453 238

C456 236 457 235 457 232

C457 229 452 226 450 227

C445 228 443 235 447 237

C450 239 450 239 453 238

Z

M279 236

C281 233 282 231 279 228

C278 226 272 225 270 227

C268 229 269 235 271 236

C274 239 276 238 279 236

Z

M300 236

C304 232 302 226 296 226

C293 226 290 229 290 232

C290 235 294 238 296 238

C298 238 299 237 300 236

Z

M533 236

C537 233 534 226 529 226

C528 226 526 227 525 228

C520 233 527 242 533 236

Z

M583 234

C587 231 584 224 579 224

C576 224 573 227 573 230

C573 235 580 238 583 234

Z

M425 233

C428 230 427 227 425 225

C421 221 415 224 415 230

C415 235 422 237 425 233

Z

M490 234

C495 231 492 223 486 223

C483 223 480 226 480 229

C480 233 486 237 490 234

Z

M354 231

C358 228 356 221 350 221

C345 221 342 227 346 231

C348 233 351 234 354 231

Z

M369 231

C374 230 373 222 369 220

C364 219 359 224 361 228

C363 232 366 233 369 231

Z

M405 228

C406 226 406 225 405 223

C403 217 394 219 394 225

C394 231 401 233 405 228

Z

M549 229

C553 226 551 219 545 219

C540 219 537 225 541 229

C543 231 546 232 549 229

Z

M603 229

C606 227 605 223 603 221

C601 219 598 218 595 221

C593 222 592 227 595 229

C597 231 601 231 603 229

Z

M132 228

C134 225 135 223 132 220

C131 218 125 217 123 220

C121 222 122 226 124 228

C127 231 129 230 132 228

Z

M567 228

C570 225 569 222 567 220

C563 216 557 219 557 225

C557 230 564 232 567 228

Z

M207 227

C209 226 210 220 208 218

C206 216 200 217 199 219

C196 222 197 224 199 227

C202 229 204 230 207 227

Z

M19 226

C21 225 22 219 20 217

C18 215 12 216 11 218

C8 221 9 223 11 226

C14 228 16 229 19 226

Z

M187 226

C189 224 190 220 187 218

C185 215 180 216 179 218

C176 221 177 224 179 226

C181 228 185 229 187 226

Z

M41 224

C45 221 43 214 37 214

C32 214 29 220 33 224

C35 226 38 227 41 224

Z

M476 224

C479 222 478 218 476 216

C474 214 471 213 468 216

C466 217 465 222 468 224

C470 226 474 226 476 224

Z

M443 224

C448 223 447 215 443 213

C437 212 433 217 435 221

C437 225 440 226 443 224

Z

M151 222

C154 220 154 216 152 214

C149 211 146 211 144 213

C140 217 140 218 143 222

C146 224 148 225 151 222

Z

M322 219

C325 217 326 214 323 211

C322 209 316 208 314 210

C312 212 313 218 315 219

C318 221 319 221 322 219

Z

M281 218

C284 216 283 211 280 209

C275 206 269 212 272 217

C274 220 279 221 281 218

Z

M527 218

C533 214 525 205 519 209

C517 211 516 215 518 218

C519 221 525 221 527 218

Z

M419 217

C421 216 422 210 420 208

C418 206 412 207 411 209

C408 212 409 215 411 217

C414 219 416 220 419 217

Z

M342 214

C343 212 343 211 342 209

C340 203 331 205 331 211

C331 215 333 217 337 217

C339 217 340 216 342 214

Z

M394 213

C395 210 395 210 393 207

C391 204 388 203 385 206

C382 208 382 212 384 215

C386 217 392 216 394 213

Z

M305 213

C307 212 308 207 305 205

C303 202 298 203 297 205

C294 208 295 211 297 213

C299 215 302 216 305 213

Z

M373 211

C374 209 374 208 373 206

C371 200 362 202 362 208

C362 212 364 214 368 214

C370 214 371 213 373 211

Z

M127 211

C130 209 130 203 126 201

C123 200 122 200 120 202

C116 204 116 208 120 211

C123 213 124 213 127 211

Z

M172 212

C174 209 173 204 170 202

C164 199 159 205 162 211

C164 213 170 214 172 212

Z

M200 211

C204 208 202 201 197 201

C191 201 188 207 192 211

C194 213 197 214 200 211

Z

M564 210

C565 209 566 208 566 206

C566 203 563 200 560 200

C557 200 554 203 554 206

C554 211 560 214 564 210

Z

M474 209

C475 208 476 206 476 205

C476 204 475 202 474 201

C470 197 464 199 464 205

C464 210 470 213 474 209

Z

M57 207

C53 204 48 199 44 195

L40 190

L42 187

C43 186 46 184 48 183

L52 181

L49 180

C45 179 43 179 40 180

C37 182 37 182 36 179

C36 177 35 173 34 169

L33 163

L28 166

L23 168

L24 173

C24 176 25 181 27 184

C29 189 29 189 28 192

C26 196 25 201 26 205

L27 209

L28 206

C29 204 30 201 31 200

L33 197

L37 200

C41 204 47 207 54 209

C59 210 60 210 57 207

Z

M545 208

C549 205 549 201 545 199

C542 197 542 197 539 198

C537 199 537 200 537 204

C537 207 537 208 539 209

C542 210 542 210 545 208

Z

M488 207

C492 205 493 202 491 198

C489 194 482 194 480 199

C479 203 481 206 486 208

C486 208 487 207 488 207

Z

M16 204

C18 202 19 199 16 196

C13 192 6 194 6 200

C6 205 12 208 16 204

Z

M355 204

C359 201 356 194 351 194

C350 194 348 195 347 196

C342 201 349 210 355 204

Z

M457 204

C459 203 460 197 458 195

C456 193 450 194 449 196

C446 199 447 202 450 204

C453 206 454 206 457 204

Z

M519 204

C524 200 521 194 516 194

C510 194 508 199 511 203

C513 206 517 207 519 204

Z

M433 203

C436 201 435 197 433 195

C427 189 419 197 425 203

C427 205 431 206 433 203

Z

M189 191

C190 190 204 192 210 195

C213 196 215 197 215 196

C215 195 205 186 201 184

C199 183 196 182 194 182

L191 181

L193 178

C194 176 195 173 196 172

C197 171 198 170 198 170

C197 168 187 174 185 178

C183 180 182 181 177 181

C174 182 169 183 166 184

L162 187

L162 192

C162 194 162 197 162 197

C163 197 166 196 170 194

C180 191 181 191 181 195

C181 197 182 199 184 201

L187 204

L187 198

C187 195 188 192 189 191

Z

M410 202

C414 198 412 192 406 192

C403 192 400 195 400 198

C400 201 403 204 406 204

C407 204 409 203 410 202

Z

M277 201

C279 198 280 196 277 193

C276 191 270 190 268 192

C266 195 266 198 268 200

C272 204 273 204 277 201

Z

M148 201

C151 199 151 196 149 193

C146 188 140 190 138 195

C138 198 140 202 144 202

C145 202 147 201 148 201

Z

M296 199

C298 196 298 196 297 193

C296 191 295 190 292 190

C288 190 287 191 286 195

C285 196 286 198 287 200

C291 203 294 202 296 199

Z

M505 195

C508 191 506 186 500 186

C496 186 494 190 494 193

C496 198 502 200 505 195

Z

M118 195

C121 192 121 187 116 185

C114 184 110 185 109 187

C106 191 110 197 114 197

C115 197 117 196 118 195

Z

M387 193

C389 191 390 188 387 185

C384 181 377 183 377 189

C377 194 383 197 387 193

Z

M366 192

C373 187 366 178 359 182

C356 185 357 192 361 193

C363 194 364 194 366 192

Z

M534 192

C537 190 537 185 534 184

C531 181 528 182 526 184

C520 190 528 198 534 192

Z

M571 192

C575 189 573 182 567 182

C562 182 559 188 563 192

C565 194 568 195 571 192

Z

M446 191

C449 187 449 186 445 182

C443 180 440 180 437 182

C435 184 436 190 438 191

C441 194 443 193 446 191

Z

M263 189

C268 184 264 178 257 179

C253 181 252 187 256 190

C258 191 262 191 263 189

Z

M69 187

C73 184 70 177 65 177

C64 177 62 178 61 179

C56 184 63 193 69 187

Z

M425 187

C427 184 428 182 425 179

C424 177 418 176 416 178

C414 180 415 186 417 187

C420 190 422 189 425 187

Z

M103 185

C104 184 105 183 105 181

C105 178 102 175 99 175

C96 175 93 178 93 181

C93 186 99 189 103 185

Z

M133 185

C135 183 136 179 134 177

C132 174 126 175 125 177

C122 180 123 182 125 185

C128 187 130 188 133 185

Z

M86 184

C89 182 89 178 87 176

C85 173 79 174 78 176

C76 179 76 180 78 183

C81 186 84 187 86 184

Z

M556 184

C560 181 558 174 552 174

C547 174 544 180 548 184

C550 186 553 187 556 184

Z

M248 182

C250 179 249 174 245 173

C240 171 236 175 237 180

C238 185 245 186 248 182

Z

M293 182

C296 180 296 175 293 174

C290 171 287 172 285 174

C279 180 287 188 293 182

Z

M514 181

C518 178 515 171 510 171

C505 171 502 177 506 181

C508 183 512 184 514 181

Z

M214 178

C216 175 216 175 215 172

C213 169 208 168 205 170

C203 172 204 178 206 179

C209 182 212 181 214 178

Z

M230 179

C234 176 231 169 226 169

C223 169 220 173 220 175

C220 180 227 183 230 179

Z

M404 179

C406 177 407 173 404 171

C402 168 397 169 396 171

C393 174 394 177 396 179

C398 181 402 182 404 179

Z

M156 178

C158 173 156 168 151 168

C148 168 145 172 145 174

C145 179 154 182 156 178

Z

M375 175

C375 174 376 172 376 171

C376 167 372 165 369 165

C364 167 362 173 367 176

C370 178 373 178 375 175

Z

M440 174

C443 171 443 167 440 165

C438 163 433 164 432 166

C429 169 430 172 432 174

C435 177 438 177 440 174

Z

M278 171

C280 168 281 166 278 163

C276 160 272 160 270 162

C267 165 267 168 269 170

C273 174 274 174 278 171

Z

M545 171

C549 168 546 161 541 161

C536 161 533 167 537 171

C539 173 543 174 545 171

Z

M528 171

C531 170 532 166 531 164

C528 157 517 161 520 168

C521 172 525 173 528 171

Z

M118 169

C122 166 119 159 114 159

C112 159 108 162 108 165

C108 170 115 173 118 169

Z

M58 168

C61 166 60 162 58 160

C53 155 44 162 50 168

C52 170 56 171 58 168

Z

M172 167

C174 165 175 162 172 159

C170 156 165 156 163 159

C161 162 162 166 164 167

C167 170 170 169 172 167

Z

M21 165

C24 160 18 154 13 157

C9 159 9 165 12 167

C15 169 19 168 21 165

Z

M82 165

C84 163 84 162 83 159

C81 155 75 155 73 158

C71 161 71 162 73 165

C76 169 80 169 82 165

Z

M255 166

C258 164 257 159 254 157

C249 154 243 160 246 165

C248 168 253 169 255 166

Z

M384 165

C385 163 386 160 386 159

C386 156 388 156 397 159

C404 162 405 162 405 155

C405 151 405 151 400 149

C397 148 393 147 390 146

C385 146 384 145 381 141

C377 137 370 133 369 134

C369 135 370 136 371 138

C373 140 374 142 374 144

C375 145 375 146 372 147

C367 148 361 151 356 156

C353 158 351 160 351 161

C352 161 355 160 359 159

C363 157 369 156 372 155

L378 155

L379 158

C380 160 380 163 380 165

C379 169 381 169 384 165

Z

M143 164

C145 161 145 161 144 158

C142 155 136 154 134 156

C131 160 134 167 139 167

C140 167 142 165 143 164

Z

M298 165

C304 159 296 151 290 157

C287 159 287 164 290 165

C293 168 296 167 298 165

Z

M514 164

C517 162 517 157 514 156

C511 153 508 154 506 156

C500 162 508 170 514 164

Z

M423 162

C427 159 425 152 419 152

C414 152 411 158 415 162

C417 164 421 165 423 162

Z

M192 160

C195 156 191 149 185 151

C182 152 180 156 182 159

C184 163 189 163 192 160

Z

M231 161

C237 155 229 147 223 153

C220 155 220 160 223 161

C226 164 229 163 231 161

Z

M101 157

C103 155 103 151 101 149

C98 145 91 148 91 153

C91 158 98 161 101 157

Z

M442 157

C445 155 445 150 442 148

C439 146 435 147 434 149

C431 152 432 155 434 157

C436 159 439 160 442 157

Z

M39 155

C43 152 40 145 35 145

C34 145 32 146 31 147

C26 152 33 161 39 155

Z

M212 155

C213 153 214 151 214 151

C214 148 210 145 208 145

C205 145 201 148 201 151

C201 153 206 157 208 157

C208 157 210 156 212 155

Z

M539 156

C543 154 542 147 538 145

C532 144 528 149 530 153

C532 156 533 157 536 157

C537 157 538 157 539 156

Z

M267 153

C269 150 268 146 265 144

C262 143 262 143 259 145

C255 147 255 151 259 154

C262 156 265 156 267 153

Z

M311 153

C315 150 312 143 308 143

C304 143 301 146 301 149

C301 154 307 157 311 153

Z

M284 152

C288 149 285 142 280 142

C277 142 274 145 274 148

C274 151 278 154 280 154

C281 154 283 153 284 152

Z

M21 151

C24 149 25 148 25 145

C25 142 20 139 18 140

C13 141 11 148 15 150

C18 152 18 152 21 151

Z

M61 150

C65 146 63 140 57 140

C54 140 51 143 51 146

C51 149 54 152 57 152

C58 152 60 151 61 150

Z

M526 149

C528 146 528 146 527 143

C525 140 520 139 517 141

C515 143 516 149 518 150

C521 153 524 152 526 149

Z

M158 149

C162 145 159 139 154 139

C150 139 148 141 148 145

C148 150 154 153 158 149

Z

M249 148

C252 145 251 142 249 140

C245 136 239 139 239 144

C239 150 246 152 249 148

Z

M510 147

C514 142 508 135 503 138

C498 141 498 145 502 148

C505 150 508 150 510 147

Z

M176 147

C180 144 177 137 172 137

C169 137 166 140 166 143

C166 148 172 151 176 147

Z

M328 146

C330 143 330 143 329 140

C328 138 327 137 324 137

C318 137 316 142 319 146

C322 150 326 150 328 146

Z

M140 146

C146 140 138 132 132 138

C129 140 129 145 132 146

C135 149 138 148 140 146

Z

M82 145

C88 139 80 131 74 137

C71 139 71 144 74 145

C77 148 80 147 82 145

Z

M119 142

L114 137

L118 134

C123 132 130 125 133 119

C134 117 135 115 135 115

C134 115 132 117 128 119

C123 123 113 127 111 127

C110 127 110 119 112 115

C112 113 111 114 109 116

C106 119 105 122 104 125

L103 129

L98 129

C95 128 92 128 91 127

C90 127 90 128 92 136

C92 138 95 139 101 139

C104 139 106 140 108 142

C111 144 117 147 121 147

C124 147 123 147 119 142

Z

M344 145

C345 144 347 141 347 139

C347 137 343 134 341 134

C335 134 333 139 336 143

C338 146 341 147 344 145

Z

M359 145

C363 143 364 140 362 136

C360 132 353 132 351 137

C350 141 352 144 357 146

C357 146 358 145 359 145

Z

M411 145

C415 143 416 140 414 136

C412 132 405 132 403 137

C402 141 404 144 409 146

C409 146 410 145 411 145

Z

M300 143

C304 140 302 133 296 133

C291 133 288 139 292 143

C294 145 297 146 300 143

Z

M433 142

C439 137 433 128 426 132

C423 135 424 142 428 143

C430 144 431 144 433 142

Z

M452 142

C458 136 450 128 444 134

C441 136 441 141 444 142

C447 145 450 144 452 142

Z

M193 139

C195 136 195 136 194 133

C193 131 191 130 189 130

C185 130 183 131 183 135

C183 142 189 144 193 139

Z

M481 134

C483 128 483 125 483 120

L482 113

L485 113

C487 113 490 113 492 114

C494 115 495 115 495 114

C494 112 485 106 481 106

C479 105 477 104 475 102

C474 100 472 98 471 97

C468 96 468 96 464 98

C460 100 459 102 461 102

C461 102 463 103 464 105

L467 107

L464 110

C462 112 460 115 459 116

L459 119

L463 117

C470 114 472 114 474 121

C475 124 476 130 477 134

C477 138 478 141 478 141

C479 141 480 138 481 134

Z

M540 138

C544 135 541 128 536 128

C533 128 530 131 530 134

C530 137 534 140 536 140

C537 140 539 139 540 138

Z

M44 135

C47 133 46 129 44 127

C38 121 30 129 36 135

C38 137 42 138 44 135

Z

M237 135

C238 134 239 132 239 131

C239 127 233 123 229 126

C227 127 226 131 227 133

C229 138 234 138 237 135

Z

M467 134

C471 130 469 124 464 124

C458 124 456 129 459 133

C461 136 465 137 467 134

Z

M20 133

C22 131 23 128 20 125

C17 121 10 123 10 129

C10 134 16 137 20 133

Z

M219 133

C223 129 220 123 215 123

C209 123 207 130 211 133

C214 136 217 135 219 133

Z

M501 133

C504 131 503 127 501 125

C499 123 496 122 493 125

C491 126 490 131 493 133

C495 135 499 135 501 133

Z

M392 132

C395 129 394 127 392 124

C388 120 382 123 382 129

C382 134 389 136 392 132

Z

M65 131

C71 125 63 117 57 123

C54 125 54 130 57 131

C60 134 63 133 65 131

Z

M331 129

C333 127 333 126 332 123

C330 119 324 119 322 122

C320 125 320 126 322 129

C325 133 329 133 331 129

Z

M521 130

C522 129 523 128 523 126

C523 123 520 120 517 120

C514 120 511 123 511 126

C511 131 517 134 521 130

Z

M311 128

C315 124 312 118 307 118

C301 118 299 125 303 128

C306 131 309 130 311 128

Z

M204 127

C206 125 207 121 204 119

C202 116 197 117 196 119

C193 122 194 125 196 127

C198 129 202 130 204 127

Z

M409 128

C412 126 413 125 413 122

C413 119 410 116 407 116

C404 116 401 119 401 122

C401 124 402 126 404 127

C407 129 407 129 409 128

Z

M363 125

C367 122 364 115 359 115

C354 115 351 121 355 125

C357 127 361 128 363 125

Z

M448 125

C450 123 451 119 448 117

C445 113 438 116 438 121

C438 126 444 129 448 125

Z

M430 124

C432 123 433 119 432 117

C429 109 418 114 421 121

C422 125 427 126 430 124

Z

M547 122

C551 119 548 112 543 112

C540 112 537 115 537 118

C537 123 544 126 547 122

Z

M32 121

C35 119 35 116 33 113

C29 108 24 110 22 115

C21 120 28 124 32 121

Z

M94 118

C97 116 97 111 94 110

C91 107 88 108 86 110

C80 116 88 124 94 118

Z

M231 118

C235 115 235 111 231 109

C229 107 228 107 225 108

C221 110 221 116 224 118

C227 120 228 120 231 118

Z

M349 115

C352 113 351 109 349 107

C347 105 344 104 341 107

C339 108 338 113 341 115

C343 117 347 117 349 115

Z

M66 113

C69 108 64 102 59 104

C56 105 55 108 55 112

C57 116 63 117 66 113

Z

M124 113

C127 111 127 107 125 104

C122 102 118 102 116 105

C113 108 114 110 116 113

C119 115 121 116 124 113

Z

M46 112

C49 111 50 107 49 105

C46 98 35 102 38 109

C39 113 43 114 46 112

Z

M408 111

C412 108 412 104 408 102

C406 100 405 100 402 101

C398 103 398 109 401 111

C404 113 405 113 408 111

Z

M557 112

C560 110 561 109 561 106

C561 103 558 100 555 100

C552 100 549 103 549 106

C549 108 550 110 552 111

C555 113 555 113 557 112

Z

M208 110

C210 108 211 104 208 102

C205 98 198 101 198 106

C198 111 204 114 208 110

Z

M311 110

C313 109 314 103 312 101

C310 99 304 100 303 102

C300 105 301 108 303 110

C305 112 308 113 311 110

Z

M392 110

C393 109 394 108 394 106

C394 103 391 100 388 100

C385 100 382 103 382 106

C382 111 388 114 392 110

Z

M329 110

C334 108 334 100 329 99

C324 97 320 101 321 107

C322 109 324 110 327 111

C327 111 328 110 329 110

Z

M516 109

C519 107 518 103 516 101

C511 96 502 103 508 109

C510 111 514 112 516 109

Z

M82 107

C86 103 83 97 78 97

C74 97 72 99 72 103

C72 108 78 111 82 107

Z

M376 106

C380 103 377 96 372 96

C369 96 366 99 366 102

C366 107 372 110 376 106

Z

M447 106

C449 104 450 100 447 98

C444 94 437 97 437 102

C437 107 443 110 447 106

Z

M540 106

C543 104 542 100 540 98

C535 93 526 100 532 106

C534 108 538 109 540 106

Z

M424 105

C426 104 427 102 427 101

C427 96 420 93 417 96

C414 98 415 104 417 105

C420 107 421 107 424 105

Z

M575 104

C577 101 578 99 575 96

C574 94 568 93 566 95

C564 97 565 103 567 104

C570 107 572 106 575 104

Z

M592 103

C595 100 594 97 592 95

C588 91 582 94 582 100

C582 105 589 107 592 103

Z

M33 102

C37 99 34 92 29 92

C26 92 23 95 23 98

C23 101 27 104 29 104

C30 104 32 103 33 102

Z

M111 101

C115 98 112 91 107 91

C102 91 99 97 103 101

C105 103 109 104 111 101

Z

M11 100

C13 99 14 93 12 91

C10 89 4 90 3 92

C0 95 1 97 3 100

C6 102 8 103 11 100

Z

M233 100

C234 99 235 97 235 96

C235 93 232 90 229 90

C224 90 221 96 225 100

C227 103 231 102 233 100

Z

M361 99

C363 97 364 93 361 91

C358 87 351 90 351 95

C351 100 357 103 361 99

Z

M133 98

C136 94 136 93 132 89

C130 87 127 87 124 89

C122 91 123 97 125 98

C128 101 130 100 133 98

Z

M498 99

C503 96 503 92 499 89

C493 84 487 93 492 98

C494 100 495 100 498 99

Z

M94 95

C96 93 97 89 94 87

C92 84 87 85 86 87

C83 90 84 93 86 95

C88 97 92 98 94 95

Z

M306 93

C308 91 309 87 306 85

C303 81 296 84 296 89

C296 92 299 95 302 95

C303 95 305 94 306 93

Z

M206 92

C209 90 208 86 206 84

C201 79 192 86 198 92

C200 94 204 95 206 92

Z

M339 90

C338 87 337 84 337 82

L336 79

L343 79

C351 78 359 75 365 71

L369 68

L364 68

C356 70 340 69 339 68

C337 67 339 63 343 59

L346 55

L344 55

C341 55 334 60 331 63

C329 66 328 66 322 61

C320 59 318 58 318 58

C316 60 314 68 314 69

C315 70 318 72 321 74

C325 76 327 78 327 79

C327 82 332 88 336 91

C338 93 340 94 340 94

C341 94 340 92 339 90

Z

M437 92

C441 89 438 82 433 82

C432 82 430 83 429 84

C424 89 431 98 437 92

Z

M459 90

C463 87 460 80 455 80

C452 80 449 84 449 86

C449 91 456 94 459 90

Z

M602 90

C605 88 605 82 601 80

C598 79 598 79 595 81

C591 83 591 87 595 90

C598 92 599 92 602 90

Z

M322 89

C325 87 325 81 321 79

C318 78 317 78 315 80

C311 82 311 86 315 89

C318 91 319 91 322 89

Z

M537 88

C539 85 539 85 538 82

C537 80 536 79 533 79

C527 79 525 84 528 88

C531 92 535 92 537 88

Z

M554 89

C556 88 557 82 555 80

C553 78 547 79 546 81

C543 84 544 86 546 89

C549 91 551 92 554 89

Z

M23 88

C27 85 24 78 19 78

C16 78 13 82 13 84

C13 89 20 92 23 88

Z

M482 87

C485 85 485 81 483 78

C480 76 476 76 474 79

C471 82 472 84 474 87

C477 89 479 90 482 87

Z

M520 85

C522 83 523 79 520 77

C517 73 510 76 510 81

C510 86 516 89 520 85

Z

M119 84

C121 83 122 77 120 75

C118 73 112 74 111 76

C108 79 109 81 111 84

C114 86 116 87 119 84

Z

M145 84

C148 82 147 78 145 76

C140 71 131 78 137 84

C139 86 143 87 145 84

Z

M240 85

C242 84 243 80 242 78

C239 70 228 75 231 82

C232 86 237 87 240 85

Z

M258 83

C256 79 252 70 251 65

L251 61

L254 62

C256 62 259 63 261 64

C263 64 264 64 264 64

C264 62 257 56 254 55

C251 55 251 55 251 51

C252 49 253 45 254 43

C255 41 256 39 256 38

C256 38 254 38 251 38

L246 39

L243 47

C241 52 240 55 238 57

C235 59 231 66 231 69

C231 71 232 70 236 67

C238 66 241 64 241 64

C241 64 243 66 244 69

C245 72 248 76 252 80

C258 87 261 88 258 83

Z

M570 83

C573 81 572 77 570 75

C565 70 556 77 562 83

C564 85 568 86 570 83

Z

M292 81

C296 77 293 71 288 71

C284 71 282 73 282 77

C282 80 285 83 288 83

C289 83 291 82 292 81

Z

M102 80

C106 76 103 70 98 70

C92 70 90 77 94 80

C97 83 100 82 102 80

Z

M194 79

C197 77 196 73 194 71

C192 69 189 68 186 71

C184 72 183 77 186 79

C188 81 192 81 194 79

Z

M505 77

C507 75 507 72 505 69

C503 67 497 68 496 70

C493 73 494 75 496 78

C500 81 501 81 505 77

Z

M214 77

C219 75 219 67 214 66

C209 64 205 68 206 74

C207 76 209 77 212 78

C212 78 213 77 214 77

Z

M160 75

C164 72 162 65 156 65

C153 65 150 68 150 71

C150 74 153 77 156 77

C157 77 159 76 160 75

Z

M441 75

C445 72 445 68 441 66

C439 64 438 64 435 65

C431 67 431 73 434 75

C437 77 438 77 441 75

Z

M178 73

C180 70 180 70 179 67

C177 64 171 63 169 65

C166 69 169 76 174 76

C175 76 177 74 178 73

Z

M17 73

C21 70 18 63 13 63

C10 63 7 66 7 69

C7 74 13 77 17 73

Z

M276 72

C279 68 277 63 271 63

C267 63 265 67 265 70

C267 75 273 77 276 72

Z

M582 71

C584 68 584 68 583 65

C582 63 581 62 578 62

C572 62 570 67 573 71

C576 75 580 75 582 71

Z

M602 72

C605 69 604 66 602 64

C596 58 588 66 594 72

C596 75 601 75 602 72

Z

M467 71

C471 68 468 61 463 61

C460 61 457 65 457 67

C457 72 464 75 467 71

Z

M133 70

C137 67 135 60 130 60

C124 60 121 66 125 70

C127 72 130 73 133 70

Z

M304 67

C308 64 305 57 300 57

C298 57 294 60 294 63

C294 68 301 71 304 67

Z

M491 67

C496 64 493 56 487 56

C484 56 481 59 481 62

C481 66 487 70 491 67

Z

M108 62

C111 57 105 51 100 54

C98 56 97 57 97 59

C97 63 99 65 103 65

C105 65 106 64 108 62

Z

M191 60

C195 57 192 50 187 50

C184 50 181 53 181 56

C181 59 185 62 187 62

C188 62 190 61 191 60

Z

M152 58

C153 56 154 54 154 54

C154 52 150 47 148 47

C145 47 142 51 142 54

C142 56 145 60 148 60

C148 60 150 59 152 58

Z

M14 57

C16 55 17 52 14 49

C13 47 8 46 6 49

C3 51 4 56 6 57

C9 60 12 59 14 57

Z

M170 57

C172 55 173 52 170 49

C167 45 160 47 160 53

C160 58 166 61 170 57

Z

M214 57

C218 54 215 47 210 47

C207 47 204 50 204 53

C204 56 208 59 210 59

C211 59 213 58 214 57

Z

M440 57

C443 55 442 51 440 49

C438 47 435 46 432 49

C430 50 429 55 432 57

C434 59 438 59 440 57

Z

M588 56

C589 55 590 53 590 52

C590 49 587 46 584 46

C581 46 578 49 578 52

C578 58 584 60 588 56

Z

M459 54

C463 51 461 44 455 44

C450 44 447 50 451 54

C453 56 456 57 459 54

Z

M273 53

C276 50 275 47 273 45

C269 41 263 44 263 49

C263 55 270 57 273 53

Z

M604 53

C607 51 608 48 605 45

C604 43 598 42 596 44

C594 46 595 52 597 53

C600 55 601 55 604 53

Z

M295 52

C297 49 298 47 295 44

C294 42 288 41 286 43

C284 46 284 49 286 51

C290 55 291 55 295 52

Z

M482 52

C486 48 483 42 478 42

C472 42 470 49 474 52

C477 55 480 54 482 52

Z

M134 51

C138 47 136 41 130 41

C127 41 124 44 124 47

C124 52 131 55 134 51

Z

M235 51

C236 49 237 47 237 47

C237 45 233 40 231 40

C228 40 225 44 225 47

C225 49 228 53 231 53

C231 53 233 52 235 51

Z

M321 51

C324 48 323 45 321 43

C317 39 311 42 311 47

C311 53 318 55 321 51

Z

M357 51

C358 50 359 48 359 47

C359 46 358 44 357 43

C353 39 347 41 347 47

C347 52 353 55 357 51

Z

M106 46

C110 42 108 36 102 36

C99 36 96 38 96 42

C96 45 99 48 102 48

C103 48 105 47 106 46

Z

M202 45

C204 43 205 40 202 37

C201 35 196 34 194 37

C191 39 192 44 194 45

C197 48 200 47 202 45

Z

M185 44

C187 41 188 39 185 36

C182 32 174 34 174 40

C174 42 179 46 181 46

C181 46 183 45 185 44

Z

M220 43

C221 42 221 40 221 38

C221 35 220 34 218 33

C215 32 215 32 212 34

C208 36 208 40 212 43

C214 45 217 45 220 43

Z

M340 43

C342 41 343 37 340 35

C338 32 333 33 332 35

C329 38 330 41 332 43

C334 45 338 46 340 43

Z

M467 39

C467 36 467 33 467 33

C467 32 470 33 472 34

C478 35 487 35 493 34

L497 32

L490 31

C481 28 472 24 472 23

C472 22 475 20 477 18

C481 16 482 15 480 15

C478 14 471 15 468 17

C466 19 466 19 464 17

C463 15 461 13 461 11

L459 8

L456 11

C454 13 453 15 453 16

C453 17 455 19 457 22

C459 25 460 28 460 31

C460 34 462 40 465 43

C466 44 466 45 466 45

C466 45 467 42 467 39

Z

M433 42

C435 39 434 35 431 33

C426 30 420 36 423 41

C426 45 431 45 433 42

Z

M169 41

C171 39 170 33 168 32

C165 29 163 30 160 32

C158 35 157 37 160 40

C161 42 167 43 169 41

Z

M586 39

C588 37 589 34 586 31

C583 27 576 29 576 35

C576 40 582 43 586 39

Z

M121 37

C123 34 124 32 121 29

C118 25 110 27 110 33

C110 35 115 39 117 39

C117 39 119 38 121 37

Z

M151 35

C150 34 149 31 149 29

L148 26

L154 26

C160 25 171 21 174 18

C175 16 175 16 172 16

C164 18 161 18 155 17

C147 17 146 15 148 8

C149 6 149 4 149 3

C148 2 143 7 141 10

L139 13

L133 9

C130 7 127 5 126 4

C124 3 124 2 121 10

C120 13 120 13 124 16

C128 19 134 23 137 23

C138 23 140 24 140 27

C142 31 145 35 149 37

C152 39 153 39 151 35

Z

M269 36

C272 33 271 30 269 28

C263 22 255 30 261 36

C263 39 268 39 269 36

Z

M363 36

C365 35 366 29 364 27

C362 25 356 26 355 28

C352 31 353 34 356 36

C359 38 360 38 363 36

Z

M235 34

C238 31 237 28 235 26

C231 22 225 25 225 30

C225 36 232 38 235 34

Z

M314 34

C318 30 316 24 310 24

C307 24 304 27 304 30

C304 33 307 36 310 36

C311 36 313 35 314 34

Z

M604 34

C607 31 606 28 604 26

C600 22 594 25 594 30

C594 36 601 38 604 34

Z

M451 33

C455 30 453 23 447 23

C442 23 439 29 443 33

C445 35 448 36 451 33

Z

M97 32

C99 30 100 26 97 24

C94 20 87 23 87 28

C87 31 90 34 93 34

C94 34 96 33 97 32

Z

M296 32

C298 30 299 26 296 24

C293 20 286 23 286 28

C286 31 289 34 292 34

C293 34 295 33 296 32

Z

M332 29

C335 26 334 23 332 21

C328 17 322 20 322 25

C322 31 329 33 332 29

Z

M423 28

C426 23 421 17 416 19

C413 20 412 23 412 27

C414 31 420 32 423 28

Z

M50 25

C51 23 52 21 52 21

C52 19 48 14 46 14

C43 14 40 17 40 21

C40 23 41 24 42 25

C45 28 47 27 50 25

Z

M376 24

C378 21 379 19 376 16

C374 14 370 13 368 15

C365 17 366 23 368 24

C371 27 373 26 376 24

Z

M83 23

C86 21 85 17 83 15

C81 13 78 12 75 15

C73 16 72 21 75 23

C77 25 81 25 83 23

Z

M281 24

C283 23 284 19 283 17

C281 14 280 13 277 13

C272 13 269 19 273 23

C275 25 279 26 281 24

Z

M578 23

C581 20 580 17 578 15

C574 11 568 14 568 19

C568 25 575 27 578 23

Z

M66 21

C69 18 69 15 65 12

C59 7 53 16 58 21

C59 22 61 23 62 23

C63 23 65 22 66 21

Z

M437 21

C441 18 441 14 437 12

C435 10 434 10 431 11

C427 13 427 19 430 21

C433 23 434 23 437 21

Z

M359 20

C363 18 361 10 357 10

C350 9 347 16 351 20

C353 22 356 23 359 20

Z

M497 20

C498 18 499 16 499 16

C499 13 495 10 493 10

C490 10 486 13 486 16

C486 18 491 22 493 22

C493 22 495 21 497 20

Z

M260 19

C264 15 262 9 256 9

C253 9 250 12 250 15

C250 18 253 21 256 21

C257 21 259 20 260 19

Z

M407 19

C411 16 409 8 403 8

C401 8 397 13 397 15

C397 16 401 21 403 21

C404 21 406 20 407 19

Z

M245 17

C246 14 246 13 244 11

C242 7 238 7 235 11

C233 14 233 15 235 18

C237 21 243 21 245 17

Z

M390 18

C397 13 390 4 383 8

C380 11 381 18 385 19

C387 20 388 20 390 18

Z

M512 18

C516 16 514 9 509 8

C507 7 502 10 502 13

C502 16 503 17 506 19

C508 20 509 20 512 18

Z

M596 19

C599 17 599 14 597 11

C594 6 588 8 586 13

C586 16 588 20 592 20

C593 20 595 19 596 19

Z

M114 18

C117 16 117 13 115 10

C112 6 109 6 106 10

C104 13 104 14 106 17

C107 19 112 20 114 18

Z

M343 16

C347 13 345 6 339 6

C336 6 333 9 333 12

C333 15 336 18 339 18

C340 18 342 17 343 16

Z

M530 14

C533 9 527 3 522 6

C519 8 518 13 521 15

C523 18 528 17 530 14

Z

M562 16

C563 15 564 14 564 12

C564 6 558 3 554 7

C549 13 555 20 562 16

Z

M546 12

C549 9 548 6 545 4

C542 2 542 2 539 3

C537 4 537 5 537 9

C537 12 537 13 539 14

C542 15 543 15 546 12

Z

M0 14

L0 0

L6 0

C12 0 12 0 9 1

C7 2 5 3 5 3

C4 3 4 7 5 10

C6 16 6 18 5 19

C4 20 2 22 2 24

C0 27 0 27 0 14

Z

"/>

</svg>

