<?xml version="1.0" standalone="no"?>

<!DOCTYPE svg PUBLIC "-//W3C//DTD SVG 20010904//EN"

 "http://www.w3.org/TR/2001/REC-SVG-20010904/DTD/svg10.dtd">

<svg version="1.0" xmlns="http://www.w3.org/2000/svg"

 width="658.000000pt" height="586.000000pt" viewBox="0 0 658.000000 586.000000"

 preserveAspectRatio="xMidYMid meet">

<path fill="#f7f7f4" stroke="none" d="
M0 293

L0 0

L329 0

L658 0

L658 293

L658 586

L329 586

L0 586

L0 293

Z

"/>

<path fill="#4c5e38" stroke="none" d="
M0 293

L0 0

L13 0

L25 0

L25 3

C25 5 25 5 22 5

C15 5 10 15 16 16

C18 16 20 15 22 14

L25 12

L25 17

C27 28 29 42 30 47

L32 52

L28 52

C22 54 17 63 22 64

C25 64 30 62 31 59

C33 57 33 57 33 58

C34 59 36 64 38 70

C41 79 48 100 48 101

C48 101 47 101 45 101

C41 101 36 106 36 109

C36 112 36 112 40 112

C42 112 44 111 46 109

C48 107 49 107 49 108

C51 111 53 130 53 139

L54 148

L50 149

C48 149 46 150 45 150

C43 152 41 157 41 159

C42 161 47 160 51 158

L53 156

L53 164

C52 175 48 195 45 202

C42 211 34 216 27 213

C18 210 14 200 19 191

C21 188 22 187 24 190

C31 195 39 185 32 180

C30 178 29 178 26 178

C16 180 10 188 10 199

C9 207 12 212 18 217

L22 220

L20 222

C17 227 15 232 16 233

C18 234 27 234 31 233

C32 232 33 232 34 232

C34 233 33 236 32 240

C31 244 30 249 30 250

C29 252 28 253 27 253

C23 253 19 255 17 258

C15 264 17 266 23 263

L27 262

L27 266

C26 268 26 277 25 286

L25 302

L22 302

C18 302 13 307 13 310

C14 313 18 314 22 311

C24 310 25 309 25 309

C26 309 26 311 26 313

C26 318 30 337 33 348

C34 352 35 357 36 358

C36 360 36 360 34 360

C30 360 25 365 25 368

C25 371 25 371 29 371

C31 371 33 370 35 368

C37 366 38 365 39 365

C39 365 41 371 43 378

C47 389 51 407 50 408

C50 408 49 408 47 409

C44 409 39 414 39 417

C39 421 45 421 50 417

L52 414

L52 420

C53 428 53 440 53 446

C53 450 53 450 50 450

C48 450 45 451 44 452

C41 454 40 458 41 459

C42 461 48 460 50 458

C51 457 52 457 52 457

C54 459 47 492 44 496

C39 505 26 505 20 497

C16 492 17 484 22 479

C23 478 24 477 24 478

C24 478 25 479 27 480

C30 481 30 481 33 479

C39 475 36 468 28 468

C22 468 16 472 13 478

C7 489 10 501 20 507

L23 509

L21 511

C19 513 16 520 16 522

C16 524 27 524 34 521

C35 521 35 523 34 528

C32 532 31 538 30 542

C29 548 28 548 26 548

C22 547 17 549 15 552

C14 554 14 556 15 556

C16 558 23 557 25 555

L27 554

L27 558

C26 560 26 568 25 574

L25 586

L12 586

L0 586

L0 293

Z

M33 584

C33 582 33 579 34 577

L34 572

L37 575

C38 576 40 577 42 577

C46 577 46 577 46 574

C46 570 42 566 37 566

C34 566 34 566 35 560

C36 556 37 550 38 546

C41 532 47 514 47 519

C47 521 52 525 55 525

C59 525 59 525 59 522

C59 518 55 514 51 514

C49 514 48 514 48 513

C48 513 49 509 51 504

C54 497 55 491 57 482

L58 479

L61 482

C64 485 70 486 70 484

C71 479 67 474 62 473

C60 473 59 472 59 471

C61 465 62 448 62 439

L62 429

L65 431

C68 433 70 433 72 433

C79 431 71 421 64 423

C61 423 61 423 60 411

C59 405 57 395 56 390

C53 382 53 381 55 382

C57 383 61 383 63 382

C66 381 65 379 62 376

C59 373 58 373 55 373

L51 373

L47 363

C43 354 39 340 38 333

L37 330

L40 332

C42 333 44 333 46 333

C51 331 45 322 39 322

C35 322 35 322 35 316

C33 301 33 285 34 285

C34 285 35 285 35 286

C35 287 40 290 43 290

C45 290 45 289 45 286

C45 282 41 278 37 278

C35 278 34 278 34 276

C34 271 38 250 41 240

C44 230 46 226 46 229

C46 232 52 236 55 236

C57 236 57 236 57 232

C57 228 53 224 50 224

C48 224 47 224 47 223

C47 223 49 218 51 212

C53 205 56 197 57 192

C58 188 59 184 59 184

C60 184 60 184 60 185

C60 186 67 189 69 189

C73 187 68 177 63 177

L60 177

L61 169

C61 164 62 154 62 146

C62 138 62 131 62 131

C62 131 63 132 64 133

C67 134 71 134 73 133

C74 133 74 132 73 130

C72 126 67 123 64 123

C61 123 60 123 60 121

C59 113 54 90 51 83

C51 81 51 81 54 82

C58 84 62 82 61 79

C60 75 55 72 51 72

L48 72

L45 64

C42 56 36 35 36 32

C36 31 36 31 38 32

C41 35 46 36 47 34

C48 29 42 22 37 23

C35 24 34 23 33 9

L33 0

L82 0

L131 0

L131 7

L131 14

L128 12

C126 10 124 9 121 9

C118 9 117 10 120 15

C121 18 124 20 127 20

C129 20 130 20 130 22

C130 27 126 46 122 57

L119 68

L116 65

C113 62 111 61 109 61

C105 61 105 62 106 66

C108 70 111 72 115 72

C117 72 117 72 117 74

C114 79 110 93 108 99

L107 107

L104 104

C102 102 98 100 96 101

C91 103 97 111 102 113

C106 113 106 113 105 117

C104 120 104 129 103 139

L103 157

L99 155

C96 153 94 153 92 154

C86 156 92 163 99 163

C103 163 104 164 104 167

C104 173 107 189 109 196

C112 205 112 205 108 204

C104 202 100 203 100 206

C100 207 101 209 103 210

C105 213 106 213 110 213

L114 212

L117 221

C122 233 125 242 126 250

L128 256

L124 254

C121 253 116 253 116 255

C116 257 119 262 121 263

C122 264 124 264 126 264

C128 264 129 265 129 266

C130 267 130 275 131 285

L131 302

L129 300

C127 298 125 297 123 297

C120 297 120 297 120 300

C120 304 124 308 128 308

C131 308 131 308 131 311

C130 312 130 316 129 319

C128 328 126 338 123 348

L120 358

L118 355

C115 351 111 349 108 350

C107 351 107 352 107 354

C108 358 112 362 116 362

C118 362 118 362 118 364

C114 372 110 386 109 392

C106 403 106 403 104 400

C101 397 97 396 95 398

C93 401 97 407 101 409

C104 410 104 410 104 412

C104 413 104 424 103 435

L103 455

L100 453

C97 452 94 452 92 453

C91 454 91 454 92 457

C93 461 98 463 102 463

C104 462 104 463 105 467

C106 474 110 494 112 499

C114 505 114 506 111 504

C110 503 108 503 106 504

C103 504 103 505 103 507

C105 511 108 514 113 514

C117 514 117 514 119 519

C122 526 126 540 127 546

C128 548 128 551 129 553

L129 555

L125 553

C122 551 121 551 119 552

C115 554 120 562 126 563

C129 563 130 564 130 567

C131 569 131 574 131 578

L131 586

L82 586

L33 586

L33 584

Z

M140 584

C140 582 141 581 143 581

C147 581 151 577 151 573

C151 571 151 570 149 570

C147 570 145 571 143 572

C141 573 140 574 140 574

C139 574 139 570 139 566

C138 558 135 541 133 536

C133 535 134 534 136 534

C140 533 144 530 145 526

C145 524 145 523 143 522

C140 522 135 523 133 527

L132 529

L128 518

C121 500 118 491 118 488

C117 485 117 485 120 485

C124 485 128 481 128 478

C128 475 128 474 125 474

C123 474 121 475 119 477

C117 479 116 480 116 480

C114 478 111 450 111 442

L111 437

L115 437

C119 437 123 433 123 429

C123 426 123 426 120 426

C119 426 116 427 115 428

C113 429 112 430 112 430

C111 430 113 411 115 402

C119 382 122 376 129 373

C135 371 143 374 147 380

C149 385 148 392 145 396

C142 398 142 398 140 397

C136 393 128 398 130 403

C133 411 147 408 152 400

C153 398 154 394 155 391

C157 383 153 373 145 368

L143 366

L145 363

C149 358 150 354 148 353

C146 352 137 352 133 353

C130 355 130 355 131 353

C131 352 132 347 134 342

C136 334 136 333 139 333

C144 332 148 328 148 325

C148 322 148 322 145 322

C143 322 140 323 139 324

C137 325 137 325 137 323

C139 318 140 302 140 293

L140 284

L143 284

C144 284 146 284 147 283

C149 282 152 275 151 274

C150 272 145 273 142 275

L139 278

L139 271

C138 262 134 242 131 234

C128 227 128 226 131 226

C134 226 137 224 139 221

C141 217 140 215 136 215

C134 215 132 216 130 218

C128 220 127 221 127 221

C125 221 116 192 115 182

C114 178 114 178 117 178

C123 176 128 168 124 167

C121 166 117 167 115 170

L113 172

L113 169

C112 168 112 160 111 151

L111 136

L115 136

C120 136 124 133 124 129

C124 126 124 126 120 126

C118 126 115 127 114 128

L112 129

L113 124

C114 113 117 98 119 93

C122 86 126 83 133 83

C141 83 147 89 147 97

C147 103 142 111 140 108

C138 105 132 105 130 108

C128 111 129 115 131 116

C138 121 151 114 154 104

C157 95 155 88 147 81

C144 78 142 76 143 75

C145 75 149 65 148 64

C147 62 137 62 131 65

C129 65 130 64 131 59

C132 56 134 50 135 46

L136 38

L141 38

C146 39 150 35 150 32

C149 29 143 28 140 30

L137 32

L138 27

C139 24 139 17 140 11

L140 0

L165 0

L189 0

L189 3

C189 5 189 5 186 5

C185 5 183 5 182 6

C180 7 177 14 178 15

C179 17 184 16 186 14

C188 13 189 12 189 12

C190 12 190 15 190 20

C191 27 194 43 195 50

C196 52 196 53 193 53

C189 53 187 55 185 59

C183 65 191 66 195 60

L197 57

L201 68

C208 86 211 95 211 98

C212 101 212 101 210 101

C206 101 203 103 202 106

C199 111 199 112 204 112

C207 112 208 111 210 109

C212 107 213 106 213 106

C214 107 217 127 218 138

L218 149

L215 149

C210 149 206 153 206 157

C206 160 206 160 209 160

C211 160 214 159 215 158

C216 157 217 156 217 156

C219 156 214 188 210 199

C208 208 205 211 199 213

C188 217 177 204 182 193

C185 189 187 187 189 189

C191 191 195 192 197 190

C199 189 200 185 199 183

C199 182 197 180 196 179

C189 176 179 182 175 190

C173 195 173 204 175 208

C177 212 180 216 184 218

L186 220

L184 223

C181 228 179 231 180 233

C181 234 192 234 196 233

C197 232 199 231 199 231

C199 231 198 236 196 242

L193 252

L189 253

C185 254 181 258 181 261

C181 265 184 265 188 263

L192 261

L191 263

C191 268 189 286 189 294

C189 302 189 302 186 302

C185 302 183 302 182 303

C180 304 177 311 178 312

C179 314 184 313 187 310

L190 308

L190 311

C190 317 194 339 197 349

L201 360

L198 360

C195 360 192 362 190 365

C188 369 189 371 193 371

C196 371 197 370 199 368

C201 366 202 365 203 365

C204 366 210 386 213 396

C215 406 216 409 214 409

C213 408 206 411 205 413

C204 414 204 416 204 417

C204 420 204 420 207 420

C209 420 211 419 213 418

C217 414 217 415 218 434

L218 450

L214 450

C211 450 210 451 208 453

C202 458 206 463 213 459

C216 458 217 458 217 458

C217 461 214 479 212 486

C209 499 205 503 196 503

C183 503 177 488 186 479

C187 477 187 477 189 479

C191 481 196 481 198 479

C201 477 200 471 198 470

C191 465 179 471 175 481

C173 491 175 499 182 505

C185 508 187 510 186 510

C184 511 181 519 181 521

C181 524 188 525 195 523

C197 522 200 521 200 521

C200 522 199 524 198 527

C197 530 195 536 195 540

L193 548

L188 548

C185 548 183 548 181 550

C178 554 178 556 182 557

C184 558 185 558 188 556

C191 555 192 554 192 556

C191 557 190 564 190 572

L189 586

L164 586

L140 586

L140 584

Z

M198 579

L198 572

L201 574

C203 576 205 577 207 577

C211 577 211 577 211 574

C210 570 206 566 202 566

C198 566 198 566 200 554

C202 544 204 536 208 526

L210 518

L213 522

C216 524 218 525 220 525

C224 525 225 523 223 519

C221 516 218 514 214 514

C212 514 212 514 212 512

C215 507 219 493 221 487

L222 479

L225 482

C229 486 235 486 235 482

C235 479 230 474 227 473

C224 473 224 473 224 469

C225 467 225 457 226 447

L226 429

L230 431

C233 433 235 433 237 432

C240 431 241 430 237 426

C235 423 234 423 230 423

C225 423 226 423 224 410

C223 406 222 398 220 392

C219 386 218 382 218 382

C218 381 219 382 221 382

C225 384 229 383 229 380

C229 376 223 372 218 373

C215 374 215 373 212 365

C208 354 202 336 202 333

C202 331 202 331 204 332

C207 333 210 333 212 332

C213 331 213 331 212 328

C211 325 207 322 203 322

C199 322 199 320 198 301

L198 285

L200 287

C202 288 204 289 206 289

C209 289 209 289 209 286

C209 282 206 279 202 278

C199 277 199 277 199 273

C199 266 204 245 207 236

L209 228

L211 231

C214 235 218 237 221 236

C222 235 222 234 222 232

C221 228 217 224 213 224

C211 224 211 224 212 222

C214 216 219 200 220 194

C223 183 223 183 225 186

C227 187 229 188 231 189

C235 189 236 187 234 183

C232 179 229 177 226 177

C224 177 224 177 224 175

C225 174 225 163 226 152

L226 131

L229 133

C235 135 239 134 237 130

C237 126 231 123 228 123

C225 124 225 123 224 119

C223 112 219 92 217 86

C215 81 215 81 217 82

C223 84 226 83 225 79

C225 75 219 72 215 72

C213 73 212 72 211 71

C207 61 201 39 201 34

C201 32 201 32 204 34

C206 35 208 35 210 35

C212 34 212 34 212 31

C211 27 207 24 203 24

C200 24 199 23 199 20

C198 17 198 12 198 8

L198 0

L247 0

L296 0

L296 3

C296 5 296 8 295 10

L295 14

L292 11

C291 10 289 9 287 9

C283 9 283 9 283 12

C283 16 287 20 292 20

C295 20 295 20 294 24

C293 34 290 48 287 57

C284 66 282 70 282 67

C282 65 277 61 274 61

C270 61 270 61 270 64

C270 68 274 72 278 72

C282 72 282 72 279 79

C277 83 273 98 272 104

L271 107

L269 104

C267 103 265 102 263 101

C259 101 259 101 259 104

C259 108 262 112 267 113

C270 113 270 114 270 116

C268 121 267 138 267 147

L267 157

L263 155

C260 153 259 153 257 154

C255 154 254 155 254 156

C254 160 260 165 265 164

L268 163

L269 173

C270 178 271 187 273 194

C275 203 276 205 274 204

C269 202 264 203 264 206

C264 206 265 209 267 210

C270 213 271 213 274 213

L278 213

L282 223

C285 231 292 253 292 255

C292 256 291 255 289 254

C287 253 285 253 283 253

C278 255 284 264 290 264

C294 264 294 264 294 269

C295 272 295 281 296 289

C296 300 296 302 295 301

C293 298 289 296 286 296

C284 296 284 297 284 300

C284 304 288 308 292 308

L295 308

L295 314

C293 326 287 355 284 357

C284 357 283 356 281 354

C280 352 277 351 276 351

C273 351 272 351 272 354

C272 358 276 362 279 362

C281 362 282 362 282 362

C282 363 280 369 278 376

C275 384 273 392 272 396

C271 399 270 402 270 402

C269 402 269 402 269 401

C269 400 262 397 260 397

C256 399 261 409 267 409

L269 409

L268 418

C268 423 268 433 268 441

C268 449 267 455 267 455

C267 455 266 454 264 453

C257 450 253 455 259 460

C261 462 263 463 265 463

L268 463

L270 474

C272 483 275 498 278 503

C278 505 278 505 275 504

C268 501 265 507 271 511

C274 513 275 514 278 514

L282 514

L284 522

C287 530 293 551 293 554

C293 555 293 555 291 554

C287 550 282 551 282 555

C282 558 286 562 290 562

C295 563 295 563 296 577

L296 586

L247 586

L198 586

L198 579

Z

M304 584

C304 582 305 581 307 581

C310 581 314 579 315 576

C317 570 314 568 307 572

C305 573 304 574 304 573

C304 570 301 548 299 542

C297 534 297 534 299 534

C304 534 310 528 309 524

C307 520 300 523 297 527

C296 529 296 529 296 528

C295 527 293 522 291 517

C288 507 281 486 281 485

C281 485 282 485 284 485

C288 485 293 480 293 477

C293 474 293 474 289 474

C287 474 285 475 283 477

C280 480 280 480 280 478

C278 471 276 454 276 446

L276 437

L279 437

C283 437 287 433 287 430

C287 427 287 426 285 426

C283 426 281 427 279 428

L276 430

L276 427

C276 423 278 405 280 398

C284 381 287 375 294 373

C304 370 315 380 312 390

C311 392 310 395 309 396

C307 398 307 398 305 397

C298 391 290 400 297 406

C301 410 311 407 315 401

C323 391 321 377 311 369

C308 367 307 366 309 364

C310 363 311 361 312 358

C314 355 314 354 313 353

C311 352 303 352 299 353

C297 354 295 354 295 354

C295 353 296 349 298 343

C300 334 301 333 303 333

C308 333 313 328 313 324

C313 321 306 321 304 324

C302 325 302 325 302 322

C303 319 303 310 304 301

L304 284

L308 284

C311 284 316 279 316 276

C315 272 310 272 307 275

L304 278

L304 276

C303 274 303 271 302 268

C301 257 298 241 294 228

C293 226 293 226 296 226

C299 226 304 221 304 218

C304 215 304 215 301 215

C297 215 294 216 293 220

C291 222 291 222 288 214

C285 205 283 198 280 187

L278 178

L283 177

C286 176 287 175 289 173

C291 169 290 166 287 166

C284 166 279 169 278 171

C277 174 276 165 276 150

L276 136

L279 136

C284 136 288 133 288 129

C288 127 288 126 285 126

C282 126 280 126 279 128

C278 129 277 129 277 129

C276 128 279 110 281 101

C285 88 289 83 298 83

C310 83 316 98 308 107

C306 109 306 109 304 108

C301 104 293 107 293 112

C293 121 309 120 316 110

C319 105 320 95 318 89

C316 85 312 80 309 78

C307 77 307 77 310 72

C312 68 313 65 313 65

C313 62 305 62 299 63

C294 65 294 65 294 63

C295 61 296 56 298 50

C301 39 301 39 304 39

C305 39 308 39 309 38

C312 37 316 32 314 30

C313 28 306 29 304 31

C302 32 302 32 302 29

C303 26 303 19 304 12

L304 0

L329 0

C353 0 354 1 354 2

C354 4 353 5 350 5

C345 6 342 9 342 13

C342 16 342 16 345 16

C346 16 349 15 351 14

L354 12

L354 19

C355 23 356 32 358 39

C359 45 360 51 360 52

C360 52 359 53 357 53

C352 53 348 58 349 62

C351 66 358 64 360 59

L362 57

L365 65

C366 69 369 79 372 87

L377 101

L373 101

C369 102 365 106 365 109

C365 112 365 112 369 112

C371 112 373 111 375 109

C377 107 378 106 378 106

C378 106 379 110 380 115

C380 120 381 129 382 136

L382 149

L379 149

C375 149 370 154 370 157

C371 160 375 161 379 158

L382 156

L382 158

C382 168 376 200 372 206

C367 216 352 216 347 205

C344 200 345 195 348 191

C351 188 351 188 353 189

C356 192 360 191 362 189

C368 183 361 177 352 179

C341 182 335 197 340 209

C342 213 348 219 350 219

C351 219 351 220 350 221

C349 222 347 225 346 227

C344 231 344 232 345 233

C347 234 356 234 360 233

C361 232 362 232 363 232

C363 232 362 237 360 243

L358 253

L354 253

C351 254 349 255 347 256

C345 260 344 264 347 264

C350 264 353 264 354 262

C356 260 356 261 355 270

C354 274 354 283 354 290

L354 302

L351 302

C346 302 342 306 342 311

C342 314 348 314 351 311

L354 308

L354 313

C356 327 361 350 365 358

C365 360 365 360 363 360

C359 360 354 365 354 368

C354 371 354 371 357 371

C361 371 364 370 365 366

C367 364 367 364 370 373

C376 388 381 410 378 409

C377 408 371 410 370 413

C368 416 368 419 370 420

C372 421 376 419 378 417

C379 416 380 415 381 415

C381 416 382 424 382 433

L382 450

L379 450

C376 450 374 451 372 453

C368 457 368 460 371 460

C375 460 377 460 379 458

C381 457 381 457 381 463

C380 472 375 492 373 495

C372 497 370 500 368 501

C365 503 364 503 359 503

C348 502 342 489 349 480

C351 477 351 477 353 478

C356 481 360 481 362 479

C366 476 366 474 363 471

C360 467 355 467 349 470

C340 475 336 488 341 499

C343 503 347 507 350 508

C351 508 350 511 348 514

C346 517 345 520 345 521

C345 524 353 525 359 523

C362 522 364 521 364 522

C364 522 363 526 362 531

C360 536 359 541 358 544

C357 548 357 548 354 548

C348 546 341 553 344 556

C346 558 352 557 354 555

C356 554 356 554 356 557

C355 558 355 564 354 571

C354 577 354 583 353 584

L353 586

L328 586

L304 586

L304 584

Z

M362 581

C362 573 363 572 366 575

C367 576 369 577 371 577

C375 577 375 577 375 574

C375 571 370 566 366 566

C363 566 363 566 364 562

C366 546 373 518 375 518

C376 518 376 518 376 519

C376 522 381 525 384 525

C388 525 388 525 388 522

C388 519 383 514 380 514

C378 514 377 514 377 513

C377 513 379 507 381 500

C383 494 385 486 386 484

C386 482 386 480 387 480

C387 480 389 481 390 483

C392 484 394 485 396 485

C399 485 399 485 399 482

C399 478 396 475 392 474

C388 473 388 472 388 470

C390 464 391 441 391 435

C391 432 391 429 391 429

C391 429 392 430 393 431

C395 433 401 433 403 431

C406 428 399 422 393 423

C391 423 390 423 390 422

C390 416 384 388 382 382

C382 381 382 381 384 382

C387 383 392 383 393 382

C394 381 393 380 392 377

C390 374 387 372 382 373

C380 374 379 374 375 362

C371 351 366 334 366 331

C366 331 367 331 369 332

C373 334 377 333 377 330

C377 327 372 322 368 322

C364 322 364 322 364 318

C362 308 362 285 363 285

C363 285 364 285 364 286

C364 288 371 290 372 290

C377 288 371 278 365 278

L363 278

L363 271

C364 262 368 247 371 236

L374 228

L375 231

C377 234 382 237 384 236

C389 234 383 224 378 224

C377 224 376 224 376 223

C376 222 378 217 380 211

C382 205 385 196 385 192

C386 187 388 184 388 184

C389 184 389 184 389 185

C389 187 396 189 397 189

C402 187 396 177 391 177

L389 177

L390 167

C390 161 390 151 390 144

C390 137 391 131 391 131

C391 131 392 132 393 133

C395 133 397 134 399 134

C405 133 401 124 393 123

L390 123

L387 111

C386 104 384 95 383 90

C381 86 380 82 380 82

C380 81 381 82 382 82

C384 83 386 83 387 83

C391 82 391 79 387 75

C384 72 383 72 380 72

L376 73

L372 61

C368 48 364 33 365 32

C366 32 367 33 368 33

C371 35 375 35 376 33

C377 29 371 22 366 23

C364 23 363 23 363 18

C363 14 362 9 362 6

L362 0

L411 0

L460 0

L460 7

L460 14

L457 12

C455 10 453 9 450 9

C447 9 447 9 447 12

C447 15 452 20 456 20

L459 20

L458 25

C458 27 457 34 456 39

C453 55 446 74 446 67

C446 64 441 61 437 61

C434 61 434 61 434 64

C434 67 439 72 443 72

L446 72

L443 80

C442 84 439 92 438 97

C437 101 436 106 435 106

C435 106 434 105 432 104

C428 100 424 100 423 104

C423 108 427 112 431 113

C434 113 434 113 434 117

C432 126 431 148 432 153

L432 159

L430 156

C428 155 426 154 424 154

C419 154 417 155 419 159

C421 162 426 164 430 163

C432 163 432 163 432 168

C434 176 437 194 438 199

C440 205 440 205 437 204

C436 203 433 203 432 203

C428 204 428 207 432 211

C434 213 435 213 438 213

L443 212

L447 225

C452 238 456 251 456 254

C456 256 456 256 453 254

C449 253 445 253 445 256

C445 260 450 264 454 264

C459 264 459 264 460 287

C460 301 460 302 459 300

C457 298 452 296 450 296

C445 298 451 308 457 308

L459 308

L459 315

C458 325 455 336 452 348

L449 358

L447 355

C445 352 440 349 438 350

C433 352 439 362 444 362

C447 362 447 362 446 364

C444 370 439 386 437 394

C435 401 434 403 434 402

C433 399 427 397 425 398

C420 399 426 409 431 409

C432 409 433 410 433 411

C432 416 431 441 432 447

C432 452 432 455 431 455

C431 455 429 454 428 453

C424 451 420 452 420 455

C420 458 424 462 429 463

L433 463

L434 471

C435 477 439 494 442 503

C442 505 442 505 439 504

C436 502 432 504 432 506

C432 507 433 510 435 511

C438 514 439 514 442 514

L446 513

L448 520

C452 531 457 549 457 552

C457 554 457 554 453 552

C450 551 446 551 446 554

C446 558 451 563 456 563

C459 563 459 563 459 569

C460 573 460 578 460 581

L460 586

L411 586

L362 586

L362 581

Z

M469 583

C469 582 469 581 470 581

C471 582 478 579 479 577

C480 576 480 574 480 573

C480 570 480 570 477 570

C475 570 473 571 471 572

L468 575

L468 567

C467 560 464 544 463 537

C462 534 462 534 465 534

C470 533 473 529 473 525

C473 523 472 523 469 523

C467 523 465 524 463 526

L460 529

L457 520

C449 497 446 488 446 487

C446 485 447 485 449 485

C453 485 456 482 457 478

C458 474 458 474 453 474

C451 474 449 475 447 477

L444 480

L443 473

C441 463 440 451 440 444

L440 437

L443 437

C448 437 452 433 452 428

C452 425 448 425 443 428

L440 430

L441 424

C442 406 448 383 451 378

C452 376 455 374 458 373

C461 372 463 372 466 373

C471 374 476 379 477 384

C477 388 476 394 473 396

C471 398 471 398 469 397

C467 394 462 395 460 397

C454 403 463 410 472 407

C480 403 484 396 484 387

C484 380 482 375 476 370

L472 366

L474 363

C477 359 479 354 477 353

C475 352 466 352 462 353

C459 355 459 355 459 353

C460 352 461 347 462 342

L464 333

L468 333

C472 333 477 328 477 325

C477 322 477 322 474 322

C472 322 469 323 468 324

C466 325 466 325 466 322

C468 316 468 310 469 297

L469 285

L473 284

C477 283 480 280 480 276

C480 273 480 273 477 273

C474 273 471 275 469 277

C468 278 468 277 468 272

C466 258 461 236 458 228

C457 226 457 226 460 226

C463 226 467 223 468 219

C469 216 469 215 464 215

C461 215 456 219 456 221

C456 226 445 192 444 183

C443 178 443 178 446 178

C450 177 454 173 454 169

C454 167 453 167 450 167

C448 167 446 168 444 169

C443 170 442 171 441 171

C441 170 441 162 440 153

L440 136

L444 136

C449 136 453 132 453 128

C453 125 446 125 443 128

L441 129

L441 123

C442 115 446 100 448 94

C449 89 453 84 458 83

C471 80 481 96 473 106

C471 109 471 109 469 107

C463 102 454 109 459 115

C462 120 471 119 477 114

C486 105 485 89 476 81

C474 79 473 78 472 78

C471 78 472 76 473 73

C475 71 476 68 477 66

C477 63 477 63 473 63

C470 62 464 63 460 65

C458 65 458 65 458 63

C459 62 461 56 462 50

L465 39

L470 39

C473 39 475 38 477 36

C478 34 479 32 479 31

C478 29 472 28 468 31

C466 32 466 32 466 29

C467 27 469 5 469 1

C469 0 480 0 494 0

L518 0

L518 3

C518 5 518 5 515 5

C511 5 507 8 507 13

C507 15 507 16 509 16

C511 16 513 15 515 14

L518 12

L518 15

C519 16 519 20 519 24

C520 28 521 35 522 41

L525 52

L521 52

C516 54 510 62 515 64

C517 65 521 63 524 60

C525 59 526 58 526 58

C527 58 528 61 529 65

C530 68 533 76 535 83

C542 101 542 101 538 101

C534 101 529 106 529 109

C529 112 529 112 533 112

C535 112 537 111 539 109

C541 107 542 106 542 108

C544 112 546 130 546 138

L547 148

L543 149

C538 150 535 153 535 157

C535 160 535 160 538 160

C539 160 542 159 543 158

L546 156

L546 160

C546 167 544 179 541 192

C538 203 537 206 535 209

C526 219 510 213 510 199

C510 195 511 193 513 191

C515 188 515 188 517 190

C522 193 528 190 528 185

C528 178 519 176 511 181

C503 186 500 201 505 210

C507 213 509 216 511 217

C513 218 515 219 515 220

C515 220 514 221 513 222

C512 224 510 226 510 229

C508 233 508 233 511 234

C513 234 522 234 526 232

L528 232

L526 238

C525 242 524 246 523 249

C522 252 522 253 520 253

C516 253 512 255 511 259

C510 260 509 262 509 263

C509 265 513 265 517 263

L520 262

L520 266

C519 269 519 278 518 286

L518 302

L515 302

C511 302 507 306 507 310

C507 312 507 313 510 313

C512 313 514 312 516 311

L519 308

L519 316

C520 325 523 340 527 351

C528 355 529 359 529 359

C529 360 528 360 526 360

C523 360 518 365 518 368

C518 371 518 371 522 371

C524 371 526 370 528 368

C530 366 531 365 532 365

C533 367 544 404 544 408

C544 409 543 409 541 409

C537 409 533 413 533 417

C533 419 533 419 536 419

C539 419 541 419 543 417

L545 414

L545 419

C547 429 547 442 547 446

C546 450 546 450 543 450

C539 450 535 452 534 456

C533 459 533 459 535 460

C538 461 542 460 545 458

C546 457 546 458 545 461

C544 471 540 491 538 495

C532 506 517 506 512 494

C509 489 510 484 514 480

L516 477

L519 479

C525 484 533 476 527 470

C523 466 515 468 510 473

C500 482 501 499 512 506

L516 509

L513 513

C511 516 510 519 510 520

C510 522 510 523 513 523

C516 524 522 523 527 521

C529 521 529 522 527 528

C525 532 524 538 523 542

L522 548

L517 548

C514 548 513 548 511 550

C508 552 507 556 508 557

C510 558 516 557 518 556

C518 555 519 555 520 555

C520 556 520 560 519 565

C518 570 518 576 518 580

L518 586

L494 586

L469 586

L469 583

Z

M526 582

C527 580 527 577 527 575

L527 572

L530 574

C531 576 533 577 536 577

C540 577 540 576 539 572

C538 569 534 566 530 566

L528 566

L528 560

C529 552 534 532 537 524

C539 518 539 518 541 520

C543 524 545 525 549 525

C552 525 552 525 552 522

C552 518 548 514 544 514

C542 514 541 514 541 514

C541 514 543 509 544 504

C546 498 548 490 549 486

L551 479

L554 482

C556 484 558 485 560 485

C563 485 563 484 563 482

C563 478 560 474 555 473

C553 473 552 472 552 471

C554 465 555 450 555 440

L555 429

L559 431

C566 435 571 430 566 425

C564 423 562 423 559 423

L554 423

L553 413

C552 407 551 398 549 392

C547 383 547 381 548 382

C553 384 558 383 558 380

C558 380 557 377 555 376

C552 373 551 373 548 373

L544 373

L541 366

C538 358 532 339 531 333

L530 330

L533 332

C537 334 541 333 541 330

C541 326 537 322 532 322

C530 322 529 322 529 321

C528 320 526 291 527 288

L527 285

L530 287

C534 290 537 291 538 288

C539 286 537 280 534 279

C533 278 531 278 530 278

C527 278 527 279 529 265

C531 250 539 222 539 229

C539 233 549 238 550 235

C551 232 549 226 546 225

C545 224 543 224 542 224

C539 224 539 224 543 215

C544 211 547 202 549 196

C550 190 552 184 552 184

C552 184 553 185 554 186

C556 187 558 188 560 188

C562 188 563 188 563 185

C563 181 559 177 556 177

L553 177

L554 170

C554 166 555 155 555 147

C555 138 555 131 555 131

C555 131 556 132 558 132

C561 134 564 134 566 133

C567 132 567 132 566 129

C564 125 559 122 556 123

C554 124 554 125 552 110

C550 102 547 88 544 83

C544 81 544 81 546 82

C550 83 552 83 554 82

C555 82 555 81 554 78

C553 74 548 72 544 72

C541 72 541 72 538 65

C535 57 531 43 529 34

C529 31 529 31 531 32

C532 33 534 34 536 34

C539 34 540 34 540 32

C540 28 536 24 532 24

C528 23 528 24 527 8

L526 0

L575 0

L624 0

L624 7

L624 14

L621 12

C618 9 613 8 612 10

C611 11 614 18 616 19

C617 20 619 20 621 20

L623 20

L623 27

C622 34 616 57 613 64

L612 68

L610 66

C608 63 605 61 601 61

C599 61 599 61 599 64

C599 68 603 72 607 72

C610 72 610 72 610 74

C608 79 603 93 602 100

L600 107

L598 104

C596 102 594 102 591 102

C588 102 588 102 588 104

C588 108 591 112 595 113

L599 113

L597 122

C597 127 596 137 596 144

L596 157

L592 155

C589 154 588 153 586 154

C582 155 582 157 586 161

C587 163 589 163 592 163

L597 163

L598 173

C598 178 600 188 602 194

C604 203 604 205 603 204

C598 202 593 203 593 206

C593 206 594 209 596 210

C599 213 600 213 603 213

L607 212

L611 223

C614 231 621 253 621 256

C621 256 619 255 618 254

C615 253 614 253 612 254

C609 255 609 255 610 258

C611 261 615 264 619 264

C621 264 622 265 623 266

C623 267 623 275 624 285

L624 302

L622 299

C619 296 614 295 613 297

C612 300 614 306 617 307

C618 308 620 308 621 308

C624 308 624 308 621 326

C619 341 612 364 612 357

C612 353 602 348 601 351

C600 354 602 360 605 361

C606 362 608 362 609 362

C610 362 611 362 611 362

C611 363 609 367 608 372

C606 377 603 386 602 392

C601 397 599 402 599 402

C599 402 598 401 597 400

C595 399 593 398 591 398

C589 398 588 398 588 401

C588 405 592 409 596 409

C598 409 598 409 598 412

C597 414 597 424 596 435

L596 455

L593 453

C590 452 587 452 585 453

C584 454 584 454 585 457

C586 461 591 463 595 463

C597 462 597 463 598 466

C599 477 602 491 604 497

C607 504 607 505 605 504

C603 503 597 503 596 504

C596 505 596 506 597 508

C599 512 603 514 607 514

C610 513 610 514 612 520

C615 526 620 545 621 552

C622 555 622 555 620 554

C619 553 617 552 615 552

C612 552 611 552 611 554

C611 558 615 562 619 562

C623 563 624 564 624 577

L624 586

L575 586

L526 586

L526 582

Z

M633 584

C633 582 634 581 636 581

C640 581 644 577 644 573

C644 571 644 571 641 571

C639 571 636 572 635 572

C633 574 633 574 633 572

C632 571 632 567 632 563

C631 557 628 539 626 536

C626 535 627 534 629 534

C633 533 637 530 638 526

C638 523 638 523 636 522

C633 522 628 524 626 527

C625 529 624 528 621 519

C614 500 610 487 610 486

C610 486 611 485 613 485

C617 485 621 481 622 477

C622 474 622 474 619 474

C616 474 614 475 612 477

C610 479 609 480 609 479

C608 478 605 458 604 447

L604 437

L607 437

C612 437 616 433 616 429

C616 426 616 426 613 426

C612 426 609 427 608 428

L605 430

L605 425

C605 418 609 398 611 388

C613 383 615 379 617 377

C626 367 641 374 641 387

C641 391 640 393 638 395

C635 398 635 398 634 397

C630 393 623 396 623 401

C623 408 632 410 640 405

C648 400 651 385 646 376

C644 373 641 370 640 369

C638 368 636 367 636 367

C636 366 637 365 638 363

C642 359 643 354 641 353

C639 352 630 352 626 353

C623 355 623 355 623 353

C624 352 626 344 628 337

C629 334 629 333 631 333

C637 333 640 330 641 325

C641 323 641 322 638 322

C636 322 634 323 633 323

L630 325

L631 320

C632 318 632 308 633 300

L633 284

L636 284

C640 284 644 280 644 277

C644 274 644 273 641 273

C639 273 637 274 635 275

L632 278

L631 267

C630 259 626 242 622 228

C622 226 622 226 624 226

C628 226 632 222 633 218

C633 215 633 215 630 215

C627 215 625 216 623 218

C621 220 620 221 620 221

C617 218 607 183 607 179

C607 179 609 178 610 178

C614 177 618 174 619 170

C619 168 619 167 617 167

C614 166 610 167 608 170

L606 172

L606 168

C605 161 604 141 604 139

C605 136 606 136 609 136

C613 136 617 132 617 129

C617 126 617 126 613 126

C611 126 608 127 607 128

C605 129 605 129 606 125

C608 108 611 94 614 90

C618 83 627 81 634 85

C641 89 643 100 637 107

C635 109 634 109 633 108

C629 104 622 106 622 112

C622 121 638 120 644 111

C651 101 649 89 640 80

L635 77

L637 74

C640 70 642 64 641 64

C638 62 630 62 624 65

C623 65 623 63 625 57

C626 53 628 47 628 44

L629 38

L633 39

C636 39 637 39 640 37

C642 35 643 33 643 31

C643 29 643 29 639 29

C636 29 634 30 633 30

C631 32 631 30 632 20

C633 14 633 8 633 5

L633 0

L646 0

L658 0

L658 293

L658 586

L646 586

C633 586 633 586 633 584

Z

"/>

</svg>

