<?xml version="1.0" standalone="no"?>

<!DOCTYPE svg PUBLIC "-//W3C//DTD SVG 20010904//EN"

 "http://www.w3.org/TR/2001/REC-SVG-20010904/DTD/svg10.dtd">

<svg version="1.0" xmlns="http://www.w3.org/2000/svg"

 width="607.000000pt" height="591.000000pt" viewBox="0 0 607.000000 591.000000"

 preserveAspectRatio="xMidYMid meet">

<path fill="#f8f7f7" stroke="none" d="
M0 296

L0 0

L304 0

L607 0

L607 296

L607 591

L304 591

L0 591

L0 296

Z

"/>

<path fill="#694862" stroke="none" d="
M0 571

C0 559 0 550 0 550

C1 550 2 553 3 556

C5 561 7 573 8 585

L9 591

L5 591

L0 591

L0 571

Z

M12 590

C12 589 14 587 15 585

C19 579 23 571 24 567

C25 563 25 562 18 557

L14 553

L18 551

C25 548 25 547 23 541

C21 535 16 527 13 524

C11 523 11 523 8 526

C7 528 4 531 3 532

L0 536

L0 527

C0 520 0 518 1 517

C5 514 7 509 8 499

C9 488 9 484 4 476

C1 471 0 469 0 464

C0 459 0 458 3 461

C5 462 5 462 5 459

C5 458 6 453 8 448

C10 443 11 439 11 437

C11 433 8 427 4 424

C0 421 0 421 0 415

C0 410 1 409 3 409

C5 409 5 408 5 399

C5 393 5 387 6 387

C6 384 9 385 11 387

C13 390 14 394 13 400

C12 403 12 406 13 406

C13 406 16 406 19 404

L24 402

L22 398

C21 396 21 390 20 380

C19 360 17 354 12 350

C9 349 6 348 4 347

C0 347 0 347 0 343

C0 339 0 339 3 339

C5 339 8 340 10 340

C12 341 13 341 14 341

C14 340 11 326 10 323

C9 319 4 311 3 311

C3 311 2 313 1 315

C1 318 0 310 0 284

L0 249

L5 241

C8 237 13 229 15 224

C21 214 21 211 17 205

C15 201 4 192 3 193

C2 193 2 195 2 197

C2 199 1 202 1 203

C1 204 0 194 0 179

L0 152

L6 151

C9 151 14 149 17 148

L22 146

L20 143

C19 141 16 140 14 139

C9 138 8 136 11 135

C13 134 22 135 27 137

C29 138 20 123 17 121

C16 121 11 120 7 120

L0 120

L0 108

L0 95

L5 89

L9 83

L8 76

C7 72 7 68 6 68

C6 68 5 69 3 69

L0 71

L0 65

C0 60 0 59 2 58

C4 57 6 54 7 52

C9 48 10 40 9 38

C8 38 6 39 4 40

L0 42

L0 36

C0 30 0 29 2 28

C4 28 4 28 3 27

C2 26 1 27 1 27

C0 28 0 22 0 14

L0 0

L4 0

C7 0 9 1 9 1

C10 2 10 2 10 1

C10 0 12 0 16 0

L23 0

L21 4

C20 8 20 13 19 30

C19 41 19 55 18 61

L18 72

L26 64

C30 60 37 54 41 51

L48 45

L52 33

L57 21

L53 17

C50 14 46 10 43 6

L38 0

L44 0

C49 0 50 0 54 5

C58 10 59 10 61 9

C63 8 64 7 64 5

C64 4 63 2 63 1

C62 0 63 0 67 0

C71 0 72 0 73 2

C73 3 74 5 73 6

C73 7 74 6 77 5

C79 4 81 3 81 2

C82 0 83 0 97 0

C108 0 112 0 109 1

C104 3 101 9 99 28

L98 38

L101 40

C102 41 107 46 112 51

L121 60

L121 54

C122 51 122 43 122 37

C122 29 122 24 124 20

C127 9 126 6 118 2

C115 0 115 0 141 0

C164 0 168 0 168 2

C169 3 169 3 171 2

C173 0 179 0 215 0

L258 0

L260 3

C263 8 265 16 266 26

C267 31 268 36 268 38

L270 41

L270 37

C271 35 271 28 271 22

C272 15 272 7 273 5

L273 0

L277 0

L282 0

L280 24

C279 46 279 49 280 48

C283 47 291 37 298 29

L303 21

L303 12

C303 7 302 3 302 2

C301 0 302 0 310 0

L320 0

L318 4

C317 6 317 11 316 15

L316 23

L322 27

C326 29 330 33 332 34

L335 38

L335 29

C334 24 334 18 333 14

C333 10 333 6 333 4

L334 0

L340 0

C346 0 346 0 345 2

C344 4 344 19 345 36

L346 48

L352 51

C355 52 359 53 360 54

C363 56 363 57 365 45

C366 41 368 30 371 19

L376 0

L402 0

C432 1 427 1 486 0

L532 0

L531 6

C531 9 531 12 530 14

C530 15 531 17 532 18

C534 19 536 22 537 25

C540 32 539 43 536 52

C532 62 528 72 528 73

C529 73 531 72 533 71

C538 69 538 69 542 57

C549 41 550 35 551 19

C552 -1 552 0 559 0

L565 0

L564 3

C562 11 564 16 571 26

C574 29 576 32 577 33

C577 35 579 33 589 24

C599 14 605 6 605 2

C605 1 605 0 606 0

C607 0 607 43 606 43

C605 44 592 61 592 62

C592 62 598 62 604 60

L607 60

L607 65

C607 70 607 71 605 71

C602 72 584 74 582 74

C581 74 580 75 579 76

C579 77 578 80 576 83

L574 89

L579 96

C582 100 586 106 587 109

C588 112 590 114 591 114

C593 114 598 109 603 102

L607 97

L607 108

C607 121 607 121 598 123

L593 124

L593 129

C593 137 600 149 605 151

C607 151 607 152 607 179

L607 208

L603 216

C595 231 595 235 603 244

L607 249

L607 285

C606 305 606 325 605 330

C605 336 605 339 606 339

C607 339 607 341 607 344

C607 346 607 348 606 348

C605 348 605 351 605 355

C605 359 605 367 604 374

C603 385 604 399 606 406

C607 407 607 411 607 415

C607 421 607 421 605 420

C602 418 593 419 590 420

C586 423 585 428 585 435

C586 442 589 446 597 452

C607 457 607 458 607 464

L607 469

L603 466

L599 463

L598 466

C596 470 594 486 594 496

C594 505 594 505 597 510

C599 513 601 516 602 518

C604 523 604 522 605 521

C607 520 607 521 607 528

C607 535 607 537 605 539

L603 542

L605 545

C607 548 607 549 607 569

C607 581 607 591 606 591

C606 591 605 586 604 581

C603 569 600 559 597 555

L594 552

L589 557

C578 569 572 578 569 584

L566 591

L560 591

C557 591 554 591 554 591

C554 590 556 586 559 580

C565 567 565 565 557 544

L551 527

L548 535

C547 540 543 550 539 559

C533 573 533 574 532 582

L532 591

L488 591

C444 591 444 591 445 589

C447 587 447 587 445 586

C442 585 435 585 428 587

C425 588 422 590 422 590

C422 591 412 591 399 591

C376 591 376 591 376 589

C376 588 375 584 373 580

L370 573

L362 573

L354 573

L354 576

C354 577 352 581 350 585

L347 591

L340 591

L334 591

L338 583

C343 574 343 570 339 567

C337 566 333 564 331 562

C328 561 326 559 326 559

C325 559 325 560 326 562

C328 566 327 572 325 580

C321 592 321 591 310 591

L300 591

L295 586

C292 583 289 580 288 578

L287 575

L284 578

C283 580 282 582 282 584

C282 590 281 591 277 591

C273 591 273 591 273 588

L273 584

L269 586

C266 586 263 588 261 589

C258 591 256 591 217 591

L177 591

L175 588

C173 587 171 583 170 581

L167 576

L166 579

C165 580 164 582 164 582

C165 583 166 585 166 587

L168 591

L163 591

C159 591 158 591 156 587

C154 583 149 579 142 578

C137 577 134 577 130 581

C127 584 127 584 128 587

C130 590 131 590 133 590

C139 588 147 588 152 589

C157 591 154 591 120 591

L82 591

L83 588

C84 585 84 585 79 580

L75 574

L71 577

C69 578 67 580 67 580

C67 581 68 584 69 586

L72 591

L67 591

C62 591 62 591 60 587

C58 582 58 582 53 582

C49 581 45 580 41 579

L36 576

L38 579

C39 581 42 584 45 586

C47 588 49 590 49 590

C49 591 46 591 43 591

C37 591 37 591 33 586

C31 584 29 582 29 582

C28 582 27 584 26 587

C23 591 23 591 17 591

C12 591 11 591 12 590

Z

M207 585

C208 584 208 580 208 575

C207 568 207 566 202 555

C199 549 196 542 196 542

C196 539 194 540 193 542

C193 543 190 548 187 552

C175 568 174 576 183 585

C184 587 186 588 188 588

C190 588 190 588 189 579

C189 573 189 568 190 567

C191 565 191 564 192 564

C192 564 193 569 194 574

C196 579 198 585 198 587

C200 590 200 590 203 588

C205 588 206 586 207 585

Z

M405 588

C408 587 414 584 418 582

C423 580 427 578 428 578

C429 578 427 576 423 572

L417 565

L413 571

C412 574 407 579 404 583

C401 587 398 590 399 590

C399 590 402 589 405 588

Z

M104 583

L107 583

L106 577

C106 573 106 570 106 570

C106 570 104 570 103 570

C101 569 100 569 99 575

C98 578 97 581 97 582

C96 584 96 584 98 584

C100 584 102 584 104 583

Z

M221 582

C223 581 226 581 231 581

L238 582

L237 578

C235 568 238 560 247 552

L253 547

L250 545

C248 543 244 539 242 535

L237 528

L234 532

C233 534 228 539 225 544

C221 548 217 553 215 555

C213 559 213 559 215 563

C216 566 216 571 216 576

C216 580 217 584 217 584

C217 584 218 583 221 582

Z

M398 573

C407 564 409 555 405 547

C404 544 402 539 401 534

C400 525 400 525 398 526

C396 527 392 529 387 531

C379 534 370 539 368 541

C367 543 368 544 371 549

C376 557 382 570 385 578

L386 584

L390 581

C392 579 396 576 398 573

Z

M459 579

C459 574 460 568 463 557

C464 553 464 549 464 547

C464 546 461 543 458 541

L453 537

L452 541

C450 549 446 562 443 568

C441 572 439 575 439 575

C439 576 440 576 442 576

C448 576 453 578 456 581

C458 583 460 584 460 584

C460 584 459 582 459 579

Z

M312 573

C312 570 312 568 310 564

C308 560 302 555 300 555

C297 555 303 574 307 578

C308 580 309 580 310 578

C310 578 311 575 312 573

Z

M507 579

C511 577 522 569 521 568

C519 568 508 571 504 574

C502 575 500 577 499 578

C498 580 498 580 501 580

C503 580 505 579 507 579

Z

M122 572

C122 569 122 568 119 567

C117 567 116 566 116 567

C115 567 115 570 115 573

L115 579

L118 577

C121 576 122 574 122 572

Z

M479 576

C481 572 480 566 477 561

C474 557 473 558 473 567

C473 572 473 574 474 576

C477 580 477 580 479 576

Z

M257 575

C263 569 268 560 265 560

C263 560 255 565 254 568

C253 570 253 578 254 578

C254 578 256 577 257 575

Z

M91 571

C91 568 91 567 86 565

L80 562

L81 565

C83 571 88 578 89 576

C90 576 90 574 91 571

Z

M162 567

C167 559 167 556 161 549

L156 545

L153 550

C151 553 149 557 147 558

C144 562 144 570 147 570

C148 570 150 571 153 572

C155 574 157 575 157 575

C158 574 160 571 162 567

Z

M499 555

C497 545 493 531 489 523

C486 515 486 515 484 517

C479 524 474 539 475 544

C476 546 478 548 480 549

C486 552 492 559 493 562

L493 565

L496 563

C499 561 499 560 499 555

Z

M437 554

C439 549 441 540 442 532

L443 526

L432 526

C421 527 420 527 416 525

L411 522

L411 525

C411 528 416 544 418 549

C419 551 423 555 426 558

L431 564

L433 561

C434 559 436 556 437 554

Z

M64 559

C64 558 63 556 61 555

C58 553 56 553 51 553

C47 553 43 553 42 554

C40 555 42 556 51 559

C55 560 65 560 64 559

Z

M594 532

C593 524 591 519 587 515

C581 508 576 506 565 505

L556 505

L557 508

C558 514 565 536 569 545

C571 550 573 555 573 556

C574 558 576 556 585 546

C594 536 595 534 594 532

Z

M359 556

C360 555 352 549 348 547

C346 547 343 546 341 546

C338 546 330 549 330 550

C330 551 343 555 348 556

C351 557 359 557 359 556

Z

M526 554

C529 553 528 549 526 542

L524 537

L522 541

C520 543 518 547 516 550

L513 556

L519 556

C522 555 525 554 526 554

Z

M133 552

C136 550 142 542 142 540

C142 538 131 543 127 546

C124 549 122 553 123 554

C124 555 129 554 133 552

Z

M180 547

C187 538 190 530 190 522

C190 517 190 516 187 510

C184 507 182 504 182 504

C182 504 180 505 179 507

C178 508 175 513 171 517

C167 522 163 528 161 531

L159 536

L165 542

C169 546 172 550 173 551

C173 553 174 554 174 554

C174 554 177 551 180 547

Z

M96 545

C96 541 95 536 91 530

C87 524 86 525 85 532

C85 540 86 544 89 548

C91 551 92 551 93 550

C94 549 95 547 96 545

Z

M217 535

C230 520 230 521 225 510

C223 505 220 501 220 501

C219 501 206 514 203 518

C201 523 201 524 202 530

C203 538 207 547 208 546

C208 546 213 541 217 535

Z

M317 541

C319 538 322 534 324 532

L327 529

L325 526

C325 525 323 522 323 519

C322 515 321 514 317 513

C315 511 311 510 307 510

L300 510

L302 516

C304 521 304 525 304 532

L304 542

L308 545

C310 546 312 547 313 547

C313 547 315 544 317 541

Z

M512 538

C518 526 520 516 520 507

C519 499 518 495 511 485

L507 479

L504 482

C500 487 494 496 492 500

C490 503 490 503 493 508

C498 515 502 526 505 537

C506 543 508 547 508 547

C508 547 510 543 512 538

Z

M276 541

C276 538 276 534 275 532

L274 530

L272 535

C271 537 270 541 269 542

C268 544 268 544 269 544

C270 545 271 545 272 545

C276 547 276 546 276 541

Z

M292 538

C294 527 293 522 289 513

C285 505 280 500 278 501

C278 502 278 505 277 509

C277 516 277 516 280 519

C284 524 286 529 287 536

C287 543 288 544 289 544

C290 544 291 542 292 538

Z

M135 526

C140 524 145 521 145 521

C147 518 147 504 146 496

L145 488

L138 494

C134 498 130 502 127 504

C125 506 122 509 121 511

C121 514 118 519 116 523

L111 531

L113 536

L114 542

L120 536

C124 532 128 530 135 526

Z

M71 529

C71 527 71 526 71 524

C70 522 61 512 60 512

C60 512 59 514 59 515

C58 517 56 522 54 525

L50 531

L56 533

C60 535 64 536 66 538

L69 540

L69 536

C70 533 70 530 71 529

Z

M540 509

L540 489

L538 493

C535 500 531 512 531 515

C531 517 535 537 536 539

C536 540 537 538 538 535

C539 531 539 522 540 509

Z

M262 529

C264 525 266 517 266 512

C267 507 269 495 271 486

C275 468 277 451 276 443

L275 439

L267 447

C262 452 257 456 256 458

C253 459 253 460 254 466

C255 469 255 475 255 480

C254 486 254 489 250 496

C248 500 245 506 244 510

L243 516

L246 522

C250 529 258 538 259 537

C259 537 261 533 262 529

Z

M46 522

C50 516 52 506 52 498

C51 493 50 490 47 482

C44 477 41 473 41 474

C41 474 40 476 39 479

C37 485 29 499 24 507

L18 514

L23 519

C25 522 28 527 30 530

L33 536

L38 531

C41 529 44 524 46 522

Z

M356 532

C356 530 352 515 352 514

C351 514 350 515 347 516

C345 517 342 518 337 518

L331 518

L333 521

C334 524 338 527 349 531

C356 534 356 534 356 532

Z

M386 522

C396 518 398 516 398 508

C397 501 394 496 389 493

C386 492 386 492 383 497

C382 499 380 503 380 505

C378 510 377 511 376 508

C374 503 375 497 377 494

C378 491 379 489 379 489

C379 489 377 489 375 489

C370 488 365 490 361 495

C358 499 358 506 361 515

C362 519 363 524 364 527

L365 532

L371 529

C375 527 381 524 386 522

Z

M467 527

C468 525 470 519 472 515

C475 511 477 507 477 505

C478 503 475 485 472 475

C470 467 465 456 465 457

C464 457 461 463 458 471

C451 483 451 484 452 487

C453 489 453 495 453 500

C453 511 454 517 457 524

C459 528 463 532 465 532

C465 532 466 530 467 527

Z

M109 511

C115 499 115 496 110 476

L107 461

L104 464

C100 469 98 474 97 482

C96 486 95 493 94 497

C92 504 92 505 93 508

C95 511 103 521 104 521

C104 521 107 517 109 511

Z

M445 517

C445 516 445 511 445 505

C445 493 444 489 439 485

C435 482 428 483 422 487

C417 490 416 492 420 492

C423 493 427 498 427 502

C426 505 424 506 424 503

C423 500 420 499 415 500

C411 501 410 502 410 504

C409 508 411 511 416 515

L420 518

L433 518

C440 518 446 517 445 517

Z

M171 500

C174 495 174 494 174 489

C174 483 174 481 169 472

C166 466 163 461 163 461

C162 461 158 466 155 470

C152 474 152 477 155 486

C157 491 157 497 157 505

L157 516

L162 511

C165 508 169 503 171 500

Z

M80 511

C80 509 81 504 82 499

C86 484 86 481 84 473

C82 466 74 453 73 455

C72 456 66 480 65 489

C64 493 64 498 65 499

C65 502 78 515 79 514

C80 514 80 513 80 511

Z

M346 506

C347 505 348 503 348 499

C348 496 348 495 346 494

C342 491 338 491 334 493

C330 495 329 494 331 491

C332 489 338 487 342 487

C344 487 345 486 345 486

C345 484 340 479 336 478

C331 475 327 476 323 478

C319 480 318 482 313 490

C310 496 308 500 308 501

C308 501 311 501 313 502

C316 503 321 504 323 506

C330 509 334 510 339 509

C342 509 344 508 346 506

Z

M213 490

C214 485 213 482 208 472

C205 468 203 464 203 463

C203 460 201 462 196 468

C190 476 187 482 187 485

C187 489 189 494 193 501

L197 507

L205 500

C210 495 212 493 213 490

Z

M240 492

C244 485 244 483 244 476

C244 470 244 468 243 468

C242 468 239 466 236 464

C233 463 231 461 230 461

C230 461 229 465 228 469

C224 479 225 485 230 496

C234 504 234 504 235 502

C236 501 238 496 240 492

Z

M299 497

C301 495 304 490 306 486

C307 482 310 478 312 476

C313 474 314 472 313 471

C313 468 306 461 305 461

C304 461 299 465 294 471

C287 477 284 482 283 485

C281 488 281 490 282 490

C284 491 291 496 293 498

C294 500 295 501 295 501

C296 501 297 499 299 497

Z

M23 486

C28 475 32 465 33 458

L33 452

L27 450

C18 447 18 447 16 453

C13 460 13 472 15 482

C16 487 17 492 17 493

C16 499 18 496 23 486

Z

M584 488

C585 479 587 467 589 461

C590 458 590 458 585 454

C582 451 580 448 579 447

C579 445 578 446 572 451

C558 463 551 470 550 473

C550 475 551 487 553 491

C553 492 555 493 564 493

C570 494 576 495 579 495

C581 496 583 497 583 497

C583 497 584 493 584 488

Z

M407 489

C410 485 411 483 411 480

C411 476 410 471 407 467

L406 465

L404 470

C403 473 401 477 399 480

L395 486

L399 490

C401 493 403 495 403 495

C403 495 405 493 407 489

Z

M134 483

L140 476

L140 466

C139 460 138 452 138 448

C136 439 134 437 128 434

C125 433 125 433 120 437

L116 442

L117 452

C118 457 119 467 121 473

C123 479 124 486 124 489

C125 494 126 494 134 483

Z

M531 482

C535 473 541 464 546 458

L550 454

L547 453

C544 453 541 453 537 455

C527 458 525 456 529 447

C531 442 533 431 532 431

C532 431 530 435 529 439

C527 444 523 453 520 459

C517 465 515 471 515 471

C515 471 517 475 521 480

C524 484 526 489 526 489

C526 492 528 489 531 482

Z

M357 487

C358 485 358 485 357 485

C356 485 355 486 355 487

C355 487 355 488 355 488

C356 488 356 487 357 487

Z

M490 483

C491 480 495 476 497 473

C500 470 503 466 504 464

C505 460 505 459 503 455

C500 449 490 436 482 429

L478 424

L473 433

L468 443

L472 448

C477 455 481 466 484 478

C485 483 486 487 486 487

C487 487 488 485 490 483

Z

M368 480

C371 479 371 476 367 469

C365 465 365 465 363 467

C363 468 362 471 362 475

C362 481 362 482 364 482

C364 481 366 481 368 480

Z

M388 475

C398 459 399 448 390 438

C388 435 384 429 382 425

C379 421 377 418 377 419

C367 425 365 428 366 436

C367 441 369 447 370 449

C372 451 376 449 378 444

C379 442 380 440 381 440

C384 442 381 455 376 460

C375 462 375 462 376 465

C377 466 379 470 379 474

C382 482 382 482 383 482

C383 482 386 479 388 475

Z

M56 474

C57 472 59 464 61 458

C62 451 64 446 64 445

C64 444 56 446 50 448

C45 451 44 451 44 455

C44 459 45 461 49 469

C52 473 54 478 54 478

C54 479 54 479 55 479

C55 479 56 477 56 474

Z

M351 472

C351 467 351 467 346 462

L342 457

L336 462

C332 465 331 467 332 467

C333 468 335 468 338 469

C340 470 344 472 346 474

C349 476 351 478 351 478

C351 478 351 475 351 472

Z

M448 465

C456 449 456 446 447 434

C445 431 443 429 443 430

C443 430 442 431 441 433

C441 435 439 439 436 443

C433 448 432 450 430 461

C429 467 428 473 427 473

C427 474 429 474 432 474

C434 474 437 475 439 475

C440 475 441 476 442 476

C442 476 445 471 448 465

Z

M186 464

L190 459

L185 455

C182 453 178 449 176 447

C173 442 172 442 171 444

C169 447 170 451 175 460

C178 466 181 470 181 470

C181 470 183 467 186 464

Z

M220 457

C222 453 223 448 223 447

L223 444

L219 447

C217 449 214 451 213 452

L211 454

L214 460

C215 463 217 466 217 465

C218 465 219 461 220 457

Z

M420 456

C421 451 421 448 420 447

C419 444 414 439 413 439

C412 439 411 441 410 444

L409 450

L413 456

C415 460 417 463 417 464

C417 467 419 462 420 456

Z

M97 454

C99 450 100 443 98 437

C97 432 83 417 82 419

C81 420 76 440 76 442

C76 443 78 446 80 449

C82 451 85 455 87 459

L90 464

L93 461

C94 460 96 457 97 454

Z

M296 453

C301 447 304 440 305 433

L306 430

L300 433

C297 434 292 435 290 436

L285 436

L286 440

C287 442 287 448 287 453

L287 462

L289 460

C290 459 293 456 296 453

Z

M327 455

L333 450

L332 446

C331 444 329 441 328 439

C325 437 319 432 317 432

C317 432 316 435 315 438

C314 441 313 446 312 448

L311 451

L316 456

C318 459 321 461 321 461

C321 461 324 458 327 455

Z

M159 446

C160 444 161 440 162 438

C163 436 164 434 163 434

C163 434 161 435 158 437

C153 439 151 439 148 436

C146 433 145 434 146 437

C147 439 148 443 148 447

C149 450 149 454 150 455

L150 458

L154 454

C158 451 159 449 159 446

Z

M245 442

C245 434 245 434 243 434

C242 433 239 433 237 433

L233 433

L233 438

C234 445 236 450 240 453

L242 456

L243 453

C244 452 244 447 245 442

Z

M359 455

C359 454 359 452 358 448

C358 445 357 440 357 436

L357 430

L353 430

C346 430 342 428 332 420

C328 417 322 415 320 416

C318 417 321 421 328 425

C335 430 340 436 342 442

C343 444 345 447 348 449

C351 451 354 453 355 454

C357 456 357 456 359 455

Z

M521 429

C525 416 526 401 524 389

C523 384 522 380 522 380

C521 380 519 382 517 384

C514 386 511 389 509 389

C508 390 504 393 502 396

C500 399 495 405 491 408

L484 415

L494 425

C499 431 506 439 508 443

L513 450

L515 445

C516 442 519 435 521 429

Z

M570 441

C575 436 576 434 576 432

C576 430 577 427 578 425

C578 422 579 420 579 420

C579 418 576 419 573 421

C571 422 571 422 567 419

C563 415 560 414 555 414

C550 414 544 417 543 420

C542 421 541 426 541 432

C541 437 540 442 540 443

C539 444 540 444 544 444

C546 444 551 445 555 446

C559 447 562 448 562 448

C563 448 566 445 570 441

Z

M50 439

C57 437 58 436 57 435

C56 434 53 430 51 425

C49 420 46 415 45 414

C40 409 33 408 26 411

L21 414

L27 418

C30 421 33 424 33 424

C33 425 30 425 24 425

C16 424 16 424 17 426

C17 427 18 430 19 433

C21 438 24 440 31 442

C37 444 39 444 50 439

Z

M266 432

C266 431 264 430 263 429

C260 428 260 428 258 429

C257 430 257 433 256 437

L256 444

L261 438

C264 435 266 432 266 432

Z

M209 438

C211 437 213 436 214 435

C216 434 216 434 213 433

C208 431 194 432 185 435

C183 436 183 436 187 438

C193 439 205 439 209 438

Z

M430 432

C433 427 434 420 432 416

C431 414 430 413 422 411

C417 409 413 408 413 408

C413 408 413 411 415 415

C416 418 417 422 417 424

C417 427 418 428 422 432

C424 435 427 437 427 437

C427 437 429 435 430 432

Z

M404 430

C406 426 406 423 406 422

C404 416 400 408 398 406

C395 405 395 405 393 408

C388 413 387 415 389 418

C390 420 393 424 396 427

C399 431 401 434 401 434

C401 435 401 435 402 435

C402 435 403 433 404 430

Z

M71 418

C72 414 73 410 73 410

C71 408 63 404 63 404

C62 404 61 407 59 411

L57 417

L59 422

C60 425 63 429 64 430

L66 433

L67 430

C68 428 69 423 71 418

Z

M465 425

C469 415 470 409 466 403

C464 400 463 398 462 398

C462 397 460 399 459 401

C456 406 451 411 448 413

L445 414

L450 420

C452 423 456 427 457 429

C459 431 460 433 461 433

C461 433 463 430 465 425

Z

M121 420

C120 412 120 412 117 412

L114 412

L114 418

C115 422 115 426 115 427

L115 431

L119 427

C121 424 122 423 121 420

Z

M143 422

L146 416

L144 415

C142 415 139 412 137 410

C133 406 132 406 130 407

C129 408 128 409 129 410

C129 412 130 415 130 418

C130 423 131 423 135 425

C137 427 139 428 139 428

C139 428 141 425 143 422

Z

M179 421

C184 419 189 417 191 416

L194 416

L194 407

C194 402 194 398 193 397

C193 397 189 399 183 404

C173 413 167 416 161 417

L156 419

L161 422

C166 427 167 427 179 421

Z

M103 414

C102 405 101 404 99 402

L96 400

L92 403

C87 406 87 406 89 408

C90 411 103 424 104 424

C104 424 103 419 103 414

Z

M220 419

C220 417 221 411 222 407

C225 394 225 393 219 387

C217 384 214 380 214 377

L212 373

L207 379

L202 386

L204 393

C204 396 205 403 205 408

C205 415 205 416 207 416

C208 416 220 421 221 422

C221 422 220 421 220 419

Z

M15 416

C15 416 13 416 12 417

C10 417 10 417 12 419

C13 421 13 421 14 419

C15 418 15 417 15 416

Z

M241 419

C243 415 242 409 239 403

L236 397

L235 400

C234 405 235 413 237 417

C239 421 240 422 241 419

Z

M295 412

C299 410 299 410 298 408

C294 406 285 404 281 405

C277 406 272 410 272 411

C272 415 286 416 295 412

Z

M547 406

C550 405 553 405 558 405

L564 406

L563 402

C563 398 562 397 557 393

C555 390 552 387 552 386

C551 385 550 384 549 384

C547 383 546 384 545 386

C544 388 542 392 540 395

C536 400 536 401 536 407

L536 413

L539 411

C541 409 545 407 547 406

Z

M593 411

C596 411 596 411 596 409

C594 405 592 389 592 383

L592 377

L589 379

C587 380 584 380 580 380

L575 380

L573 385

C572 390 572 402 573 406

C573 409 584 413 588 412

C589 411 591 411 593 411

Z

M356 408

C361 407 367 402 366 400

C365 400 362 400 358 400

C350 400 343 402 337 408

L334 410

L343 410

C348 409 354 409 356 408

Z

M165 407

C169 405 185 392 185 391

C185 390 165 380 160 379

C154 376 151 377 148 379

C145 381 142 390 143 391

C144 391 146 391 150 391

C153 391 156 392 156 392

C156 393 147 398 143 399

C140 400 139 400 140 402

C141 403 144 405 146 406

C152 410 159 410 165 407

Z

M54 399

C54 398 53 395 51 392

C49 389 47 383 46 379

C42 365 39 360 34 359

C32 359 30 358 28 358

C26 357 26 357 27 360

C28 362 28 370 29 379

C30 397 31 399 37 400

C40 401 43 402 46 404

L52 408

L53 405

C53 403 54 400 54 399

Z

M487 397

C491 393 495 388 496 385

C498 381 498 381 496 378

C495 375 494 374 489 373

C479 371 475 374 473 386

C472 392 472 392 474 396

C476 398 477 401 478 402

C478 404 479 405 479 405

C479 405 483 402 487 397

Z

M276 381

C277 375 276 367 273 361

C271 357 270 356 267 355

C263 354 263 355 261 360

C260 367 257 374 254 377

C252 379 250 380 249 380

C249 379 250 375 250 370

C253 359 252 356 249 357

C246 358 234 358 231 357

C229 357 228 357 227 360

C222 367 223 374 228 380

C230 382 236 386 241 389

C247 392 252 396 254 398

L257 402

L266 393

C273 386 275 384 276 381

Z

M116 378

C117 378 120 384 122 393

C123 396 125 399 125 399

C127 401 134 392 135 388

C136 382 133 378 126 369

C122 365 118 360 117 359

C115 356 113 355 113 357

C113 358 110 363 107 368

C104 374 101 380 101 381

C101 385 104 391 109 397

L114 401

L114 390

C114 383 115 379 116 378

Z

M82 398

C88 396 88 395 82 389

C79 386 77 382 77 382

C77 381 85 381 90 383

C92 383 92 383 92 380

C92 377 85 366 82 364

C80 363 75 363 65 363

L50 364

L54 375

C58 389 61 393 68 397

C73 399 77 400 82 398

Z

M313 385

C313 377 313 375 311 371

C309 366 303 358 301 358

C300 358 300 360 300 363

C300 369 299 374 296 378

C294 381 293 379 293 375

C293 371 288 362 286 360

C284 359 284 360 286 364

C287 368 287 372 287 377

L286 385

L290 387

C293 388 297 389 299 390

C302 391 305 394 308 395

C311 399 312 399 312 397

C313 395 313 390 313 385

Z

M442 394

C445 393 447 391 447 391

C447 390 438 387 432 386

C428 386 426 386 423 387

C420 389 419 390 422 392

C426 396 435 397 442 394

Z

M389 387

C390 383 390 381 390 378

C389 373 386 366 385 366

C384 366 382 377 382 382

C383 387 384 391 386 391

C386 391 388 389 389 387

Z

M330 387

C337 385 338 382 338 376

C338 370 335 364 330 359

C327 355 325 354 318 356

L315 356

L318 360

C322 366 324 374 324 382

C324 386 325 390 325 390

C325 390 327 389 330 387

Z

M364 382

C364 379 367 373 374 361

L377 355

L375 349

C374 342 374 328 376 324

C376 322 375 323 372 325

C364 331 359 329 361 321

L361 318

L355 323

C352 326 349 329 347 330

C346 330 345 333 344 336

C343 339 342 343 340 345

C338 347 337 349 337 350

C337 350 338 352 340 354

C345 360 348 367 349 375

L349 382

L353 382

C356 382 359 383 360 383

C364 385 364 385 364 382

Z

M539 377

C542 369 542 367 539 366

C538 366 536 365 534 365

C528 365 528 365 531 375

C535 386 535 386 539 377

Z

M565 380

C566 377 566 377 564 377

C563 377 561 377 561 376

C558 376 559 378 561 382

C563 385 564 385 565 380

Z

M467 383

C469 383 469 381 469 378

C469 373 469 372 465 367

C459 361 458 357 460 347

C461 340 461 339 460 336

C459 334 457 332 457 331

C454 331 455 329 457 330

C458 330 461 330 462 330

C466 329 466 329 466 326

C466 322 461 307 460 308

C458 310 453 325 452 332

C451 342 449 347 441 355

C435 360 435 361 436 364

C436 367 438 369 445 373

C454 380 458 382 462 383

C465 384 466 384 467 383

Z

M192 378

C193 371 190 346 188 346

C185 346 176 367 176 373

C176 376 177 377 183 380

C187 381 190 383 190 383

C191 383 191 381 192 378

Z

M415 370

C417 369 420 368 423 367

C426 367 427 366 427 365

C427 362 421 352 412 341

C407 335 401 327 399 323

L396 317

L389 324

L383 330

L383 337

C383 348 384 351 393 358

C401 364 406 370 407 375

L407 379

L410 376

C411 374 413 371 415 370

Z

M516 369

C516 367 517 366 517 365

C517 364 512 362 508 362

C505 362 504 368 507 373

L508 377

L511 374

C513 373 515 370 516 369

Z

M145 371

C147 370 149 369 150 369

C152 368 152 368 150 366

C145 360 121 343 119 344

C118 346 124 354 130 361

C134 364 137 369 138 370

C139 372 141 373 141 373

C141 373 143 372 145 371

Z

M173 348

C175 345 178 341 180 338

L185 333

L184 326

C182 319 181 313 177 305

L176 302

L172 304

C167 307 158 315 158 317

C158 318 159 322 160 327

C163 338 164 355 163 363

C162 373 164 372 167 362

C169 357 172 350 173 348

Z

M102 359

C104 355 106 351 107 350

C107 348 107 348 103 352

C100 354 97 357 95 358

L92 361

L94 364

C97 369 97 369 102 359

Z

M211 358

C216 354 219 350 219 349

C219 349 218 347 217 346

C213 343 211 337 209 327

C209 322 207 317 207 317

C206 316 204 319 202 325

L197 335

L199 343

C200 348 201 355 202 359

C202 364 203 367 203 367

C203 367 207 363 211 358

Z

M580 362

C584 360 584 360 579 358

C574 356 564 356 561 357

L559 359

L561 360

C568 364 574 365 580 362

Z

M155 349

C154 341 151 323 150 321

C149 320 141 322 134 325

C129 328 121 333 121 335

C121 335 123 337 125 338

C131 340 145 350 151 354

C153 356 155 358 155 358

C155 358 155 354 155 349

Z

M488 353

C487 348 481 343 474 341

C472 340 472 340 472 343

C472 347 476 354 479 355

C480 356 483 357 485 357

C488 357 488 357 488 353

Z

M72 354

C72 354 71 351 70 348

C69 345 68 340 68 338

L67 333

L62 334

C60 334 56 334 54 334

C50 334 50 334 49 338

C49 340 48 344 47 347

C44 354 44 354 48 354

C52 355 71 354 72 354

Z

M594 348

C594 346 593 346 591 347

C590 349 590 349 592 352

C594 354 595 354 595 352

C595 351 595 349 594 348

Z

M90 348

C93 346 98 341 101 338

L107 333

L104 324

C101 314 91 294 90 294

C88 295 81 315 79 322

C77 332 79 345 83 351

C85 353 85 352 90 348

Z

M247 348

C249 347 249 347 246 346

C240 342 237 339 235 333

C233 326 234 325 239 330

C242 332 245 334 246 335

C248 336 248 336 248 332

C248 329 249 325 249 323

L251 318

L247 316

C244 315 240 314 230 314

L216 314

L216 317

C217 318 217 322 218 326

C219 335 220 338 224 342

C231 349 239 351 247 348

Z

M434 346

C439 340 441 336 441 329

C441 322 439 317 435 310

C432 306 432 306 429 315

C428 319 425 325 423 328

L418 335

L424 342

C427 347 430 350 430 350

C430 350 432 348 434 346

Z

M292 342

C294 338 293 333 290 325

C288 321 285 317 278 311

L269 302

L264 312

C256 327 255 335 259 342

C261 345 266 348 267 346

C267 346 268 341 268 336

C269 326 270 323 272 327

C274 330 278 339 279 343

C279 345 280 347 281 348

C282 349 283 349 286 347

C288 346 291 344 292 342

Z

M321 346

C327 345 332 342 334 338

C336 335 339 321 339 321

C338 320 323 318 318 317

C313 317 312 317 309 319

C307 320 305 322 303 323

C299 324 299 324 300 327

C301 334 302 334 308 334

C311 333 315 333 317 332

C320 332 320 332 320 333

C319 336 313 339 307 340

C303 341 301 342 300 343

C300 344 300 346 301 346

C302 348 311 348 321 346

Z

M40 341

C41 336 41 323 39 322

C38 321 36 321 35 321

C32 321 32 321 32 323

C33 324 33 329 34 335

C34 345 34 346 36 346

C38 346 39 344 40 341

Z

M529 343

C530 341 531 338 531 336

C531 331 528 323 526 323

C526 323 524 326 523 329

C519 340 524 352 529 343

Z

M26 341

C25 338 25 334 24 330

C24 324 24 323 21 323

C19 322 19 323 20 324

C21 329 22 334 22 338

C22 342 23 345 25 345

C26 345 26 343 26 341

Z

M586 339

C588 337 591 335 592 334

C594 333 593 332 579 330

C570 329 563 328 563 329

C563 329 560 334 558 337

C555 341 557 342 570 342

C581 342 582 341 586 339

Z

M498 331

C497 328 495 323 494 318

C492 313 490 308 490 307

C490 303 489 303 485 308

C480 314 475 327 478 327

C479 327 484 329 489 331

C493 333 498 335 498 335

C498 335 498 333 498 331

Z

M553 328

C555 325 556 323 556 311

C556 303 556 297 555 297

C555 297 554 298 553 299

C553 300 550 302 547 304

C541 307 534 308 529 306

C527 305 526 305 526 306

C526 307 530 310 538 315

C544 318 547 323 547 328

C547 331 547 331 549 331

C550 331 552 329 553 328

Z

M508 325

C509 323 512 318 515 315

C522 306 523 303 520 301

C516 298 511 293 510 289

C509 284 508 284 506 287

C506 289 504 291 502 294

C497 299 497 304 503 318

C505 323 507 328 507 328

C507 328 508 327 508 325

Z

M413 323

C416 321 419 314 421 305

L423 298

L421 298

C419 299 416 299 412 299

L406 299

L404 305

C402 308 401 310 402 310

C403 310 403 311 403 311

C403 313 410 325 411 325

C411 325 412 324 413 323

Z

M122 305

C123 297 122 293 116 290

C111 287 101 285 98 286

C96 287 96 288 99 291

C103 297 108 307 112 317

L114 324

L118 317

C120 314 121 308 122 305

Z

M203 299

C205 297 208 293 210 290

L213 286

L211 282

C209 279 197 263 193 258

L191 256

L188 258

C187 259 183 261 181 263

L176 266

L179 273

C181 277 183 283 183 287

C183 291 186 298 188 304

C190 309 192 314 193 315

C193 317 194 316 197 310

C199 307 202 301 203 299

Z

M65 312

C70 309 72 307 71 305

C69 304 57 304 53 306

C49 307 43 312 43 313

C43 315 49 316 55 316

C60 315 62 315 65 312

Z

M141 311

L149 309

L148 303

C148 299 148 294 147 292

L145 287

L139 290

L133 294

L133 299

C133 302 132 307 132 310

C131 312 130 315 130 315

C130 315 131 315 132 314

C133 313 137 312 141 311

Z

M359 304

L362 299

L359 295

L357 292

L354 294

C352 296 352 298 352 306

L351 315

L354 312

C356 310 358 306 359 304

Z

M375 309

C378 304 382 295 382 292

C382 290 377 291 374 294

C371 296 371 297 370 306

C370 316 370 317 375 309

Z

M300 312

C305 309 313 301 316 294

C318 289 318 288 317 286

C316 284 315 279 313 275

C312 271 310 266 309 264

C308 261 297 241 296 240

C296 240 283 246 283 247

C283 248 284 252 286 257

C289 268 290 288 288 299

L286 307

L290 310

C292 312 294 314 294 314

C295 314 297 313 300 312

Z

M595 312

C597 311 597 311 596 309

C594 307 589 305 586 305

C583 305 575 309 574 312

C573 314 573 314 583 314

C588 314 594 313 595 312

Z

M343 305

L343 299

L337 298

C334 298 331 297 329 296

C327 296 327 297 324 301

C323 304 322 307 322 307

C321 309 331 311 337 311

L343 311

L343 305

Z

M396 301

C399 296 399 295 395 293

L391 291

L391 294

C390 295 390 300 389 304

L389 312

L391 308

C393 306 395 303 396 301

Z

M257 305

C259 302 261 297 261 294

C264 285 266 285 273 293

C278 298 278 298 279 296

C281 289 278 266 274 256

C273 252 274 252 261 260

C249 267 249 268 250 271

C250 273 251 280 252 287

C253 304 254 310 255 310

C255 310 256 308 257 305

Z

M451 300

C453 295 456 289 457 285

L458 279

L455 272

C451 264 448 253 447 245

L447 239

L442 244

L437 249

L437 263

C437 271 437 280 436 282

C435 286 435 288 437 291

C438 296 446 309 447 309

C447 309 449 305 451 300

Z

M16 301

C16 295 9 282 7 285

C4 289 7 299 12 304

C15 308 16 307 16 301

Z

M244 298

C244 290 242 277 240 276

C239 275 236 278 230 284

C220 294 213 303 214 304

C215 304 221 305 228 305

C236 305 242 306 243 306

C244 306 244 304 244 298

Z

M476 302

C478 300 483 295 487 292

C495 286 499 280 499 274

C499 270 496 262 491 256

L487 252

L480 262

C468 279 465 288 469 299

C470 303 471 306 472 306

C472 306 474 304 476 302

Z

M44 295

C47 294 50 292 50 292

C50 292 46 286 41 279

C29 263 25 256 22 248

C19 240 19 240 18 242

C17 243 14 247 11 252

C5 260 5 260 5 266

C5 271 5 272 7 273

C22 278 29 285 30 298

L31 303

L35 300

C36 298 41 296 44 295

Z

M604 297

C606 292 605 282 602 277

L600 272

L596 276

C592 280 586 290 587 290

C587 291 590 292 592 293

C594 295 598 297 599 298

C600 300 602 301 602 301

C603 301 603 299 604 297

Z

M164 297

C174 291 173 291 172 285

C171 281 169 277 168 274

C166 270 165 269 162 269

C159 269 158 269 155 275

L152 281

L155 289

C156 293 157 297 157 298

C157 299 157 300 157 300

C158 300 160 298 164 297

Z

M544 295

C550 292 549 289 541 281

C536 276 534 273 535 273

C538 273 547 278 551 281

L554 283

L554 277

C554 266 547 260 530 259

C525 259 520 258 519 257

C517 257 517 258 517 270

C517 279 517 285 518 286

C522 294 532 300 538 298

C539 298 542 297 544 295

Z

M578 283

C582 276 586 270 591 264

L599 256

L595 252

C589 246 587 240 587 231

C587 225 587 223 592 212

C596 205 598 200 598 199

C597 199 593 199 589 200

L581 202

L571 197

C566 195 561 192 561 192

C560 192 560 193 560 194

C560 195 559 200 558 204

C555 213 555 214 559 222

L562 228

L563 257

C564 273 564 288 565 292

L565 299

L569 296

C571 294 575 289 578 283

Z

M81 287

L84 282

L81 279

C77 275 74 268 74 260

L74 254

L67 250

C59 246 58 246 53 254

C51 258 50 261 50 265

C50 271 51 275 57 283

C62 289 62 290 68 291

C78 292 78 292 81 287

Z

M132 284

C139 281 145 276 147 271

L150 266

L147 261

C145 257 144 256 142 256

C139 256 139 257 137 262

C136 268 134 273 130 279

C128 282 127 284 127 285

C128 286 129 286 132 284

Z

M345 281

C343 278 340 273 336 271

C332 268 325 265 325 266

C325 268 331 277 334 279

C340 283 346 284 345 281

Z

M375 279

C377 278 379 275 380 273

C381 270 381 263 380 263

C378 263 373 273 371 280

C370 283 371 283 375 279

Z

M420 280

C423 278 426 273 426 270

C426 268 426 268 422 270

C417 272 412 276 410 279

C409 281 409 281 413 281

C415 281 418 280 420 280

Z

M123 274

C125 270 130 259 130 257

C130 256 129 256 128 256

C127 256 124 255 123 255

L119 253

L119 261

C119 266 119 271 118 273

C117 277 117 279 119 279

C119 279 121 277 123 274

Z

M96 276

C96 276 95 272 95 267

L95 259

L88 259

C83 259 82 259 82 261

C82 265 84 270 87 274

C90 277 91 277 93 276

C94 276 96 276 96 276

Z

M232 267

L236 263

L237 255

C237 251 237 247 236 246

C236 245 234 245 229 247

C223 248 211 248 206 247

C203 247 202 247 201 247

C199 248 200 250 206 257

C209 261 214 267 216 271

L220 277

L224 274

C226 272 230 269 232 267

Z

M110 270

C111 264 111 256 110 256

C110 255 108 255 107 256

C104 257 104 257 104 266

C104 275 104 275 106 275

C109 275 109 274 110 270

Z

M397 270

C397 268 403 263 408 261

C410 259 415 257 418 256

L424 255

L424 249

C423 245 422 241 418 232

L412 221

L409 226

C406 232 403 236 398 242

C392 249 389 254 389 256

C389 259 395 271 396 271

C397 271 397 271 397 270

Z

M364 261

C366 259 369 256 371 254

C374 253 376 251 376 251

C376 250 374 247 372 243

L368 236

L362 247

L356 259

L358 262

C360 264 361 266 361 266

C361 266 363 264 364 261

Z

M472 255

C479 244 482 239 485 228

C488 218 491 204 490 204

C488 202 474 200 472 201

C469 201 461 210 458 217

C455 224 459 255 463 263

C464 266 464 266 472 255

Z

M508 258

C507 256 506 252 505 250

C504 248 504 247 505 246

C507 244 508 244 513 246

C515 247 517 248 518 248

C519 248 519 244 519 238

C519 229 520 224 523 213

C524 212 523 211 520 209

C517 207 512 199 512 195

C512 194 510 195 507 198

C502 203 502 203 500 214

C499 220 497 229 495 233

L492 242

L498 248

C501 252 505 257 506 259

C507 262 508 264 509 264

C509 264 508 261 508 258

Z

M45 247

C47 244 50 240 54 237

C57 234 59 231 59 231

C59 230 57 228 55 227

C50 224 43 218 38 212

C35 209 34 207 34 208

C33 209 32 212 31 216

C28 226 29 239 35 250

C39 258 39 259 41 255

C41 253 43 249 45 247

Z

M555 244

C554 229 552 223 547 218

C544 216 535 214 533 215

C530 216 526 240 527 247

C528 249 528 250 536 251

C540 251 545 253 549 255

C552 256 555 258 555 258

C555 258 555 252 555 244

Z

M258 250

C269 242 269 243 270 236

C271 228 267 214 262 205

C260 202 260 202 258 203

C253 207 245 210 240 211

L234 211

L239 220

C244 230 247 240 248 249

C248 252 248 255 249 255

C249 255 253 253 258 250

Z

M176 251

C181 249 186 244 185 242

C183 241 168 241 163 242

C158 243 153 246 153 248

C153 250 162 254 167 254

C169 254 173 253 176 251

Z

M322 253

C322 252 321 250 321 246

C320 243 319 240 319 238

C319 233 316 232 309 234

L306 236

L311 245

C316 253 317 254 319 253

C320 253 322 253 322 253

Z

M364 216

C363 213 355 201 352 197

L349 194

L343 199

C336 204 329 212 328 218

C328 222 330 243 332 248

C334 251 334 252 340 252

L347 254

L355 236

C362 222 364 218 364 216

Z

M99 244

L101 244

L98 241

C95 237 89 234 85 234

C81 234 76 236 74 238

C73 239 74 240 77 241

C86 245 94 246 99 244

Z

M400 220

C402 216 403 213 403 208

C403 202 402 200 398 192

C396 188 393 183 392 183

C391 183 381 199 379 206

C378 211 377 215 377 221

C377 229 378 234 382 239

L384 242

L391 234

C394 229 398 223 400 220

Z

M129 238

C132 233 129 221 125 217

C123 216 123 216 121 219

C120 220 119 223 118 226

C117 231 119 236 123 239

C127 242 127 242 129 238

Z

M445 222

C447 216 445 207 439 195

L434 184

L429 191

C426 195 422 200 420 202

L416 206

L424 222

L433 238

L438 232

C441 229 444 224 445 222

Z

M228 236

C231 235 233 234 233 234

C233 232 228 221 225 216

L222 212

L220 222

C219 228 218 234 217 235

C216 237 216 237 219 237

C221 237 225 236 228 236

Z

M155 231

C157 230 157 229 157 219

C158 210 157 207 156 207

C155 206 153 204 151 202

L147 199

L145 204

C143 206 141 209 141 210

C140 211 140 213 142 218

C144 222 145 227 146 230

L146 236

L149 234

C151 232 153 231 155 231

Z

M209 230

C210 227 211 221 211 218

L212 211

L206 209

C200 207 200 207 199 223

L199 236

L203 236

C207 236 208 235 209 230

Z

M287 232

C292 229 293 228 293 225

C294 216 290 199 283 187

C280 182 279 182 277 182

C274 182 270 186 268 190

C267 193 267 193 269 196

C275 204 281 222 281 232

C281 234 281 235 282 235

C282 235 284 234 287 232

Z

M188 225

C188 222 188 217 189 215

L190 210

L187 211

C185 211 183 211 183 212

C182 212 182 221 182 225

C183 230 184 230 187 231

C188 231 188 228 188 225

Z

M108 217

L110 214

L108 206

C105 195 105 180 108 168

C111 159 111 156 110 151

L109 147

L106 149

C104 149 100 150 99 150

C95 150 95 150 94 154

C93 159 89 165 82 172

C79 176 76 181 74 186

L71 193

L73 204

C75 220 74 219 81 219

C89 219 97 222 100 227

L102 230

L104 225

C105 222 107 219 108 217

Z

M174 220

L174 212

L170 212

C168 211 166 211 166 211

C166 212 165 225 165 226

C166 227 167 228 170 228

L174 228

L174 220

Z

M314 222

C316 222 317 221 317 217

C318 212 323 202 328 197

C330 194 332 192 332 191

C332 190 329 185 326 178

C320 168 320 167 317 168

C310 169 305 172 297 179

L293 183

L296 189

C300 197 304 211 304 218

L304 224

L307 224

C309 223 312 223 314 222

Z

M63 216

C63 214 62 207 61 201

C59 190 59 189 56 185

C54 184 49 180 45 178

L37 174

L37 181

C38 194 46 209 58 216

C64 220 64 220 63 216

Z

M138 196

C139 193 140 190 140 190

C140 188 134 183 126 178

L119 173

L118 176

C117 180 116 192 117 199

C118 206 120 206 122 200

L123 197

L128 202

L132 206

L134 204

C135 203 137 199 138 196

Z

M371 196

C373 193 376 188 378 184

L382 178

L380 176

C377 174 368 170 362 169

C358 169 358 169 358 172

C358 173 357 177 357 179

L355 184

L360 190

C363 193 366 197 367 199

C368 201 369 202 369 202

C369 202 370 199 371 196

Z

M465 188

C472 178 475 170 473 160

C473 152 472 152 467 154

C462 157 451 157 446 156

C443 155 443 155 442 161

C440 170 442 175 449 190

L455 202

L457 199

C459 197 462 192 465 188

Z

M543 195

C543 190 540 183 535 175

C532 171 532 171 531 173

C529 177 531 187 533 192

C535 196 539 200 542 200

C543 200 543 199 543 195

Z

M247 195

C251 193 256 188 258 185

C259 183 258 183 251 184

C244 186 238 188 234 193

C230 196 230 197 232 197

C234 198 243 197 247 195

Z

M26 181

C26 170 25 157 24 156

C24 155 20 156 16 158

C13 159 9 160 8 160

C4 160 3 162 3 168

C3 177 4 179 13 186

C18 190 22 194 23 194

C24 196 24 196 25 194

C26 193 26 187 26 181

Z

M417 190

C424 181 432 162 432 154

C432 152 432 152 422 152

C414 152 413 152 412 151

C411 149 411 149 412 147

C416 142 417 139 419 135

L420 130

L416 125

L411 121

L410 125

C408 134 402 151 398 159

L394 167

L400 174

C403 178 407 185 408 188

C410 192 412 195 412 195

C413 195 415 192 417 190

Z

M177 191

C176 189 174 187 172 185

C168 183 158 179 157 180

C156 181 161 187 164 189

C168 192 174 194 177 194

C179 194 179 194 177 191

Z

M205 187

C205 183 204 175 203 172

C202 170 202 170 200 173

C198 178 198 188 200 191

C201 194 202 194 203 192

C203 191 204 189 205 187

Z

M228 182

C228 181 228 178 226 175

C224 171 222 163 220 156

L218 143

L214 146

C212 148 210 152 209 154

L207 159

L212 167

C217 174 223 185 223 188

C223 189 224 188 225 186

C226 184 227 182 228 182

Z

M495 184

C501 183 508 180 508 178

C508 177 504 176 498 176

C491 176 484 179 480 184

L477 187

L483 187

C486 186 492 185 495 184

Z

M588 181

C588 178 580 171 575 170

C570 169 563 169 562 171

C562 172 572 179 578 181

C585 183 588 183 588 181

Z

M344 174

C345 172 345 169 344 166

C343 161 338 154 336 155

C335 156 338 173 340 178

C341 182 341 182 343 180

C343 179 344 176 344 174

Z

M66 176

C68 173 68 172 66 165

C63 152 63 152 58 153

C54 153 54 154 54 156

C54 162 59 173 62 176

C63 178 65 179 65 179

C65 179 66 178 66 176

Z

M191 166

C191 164 193 161 195 159

C199 154 197 149 190 140

C186 135 186 135 185 137

C184 138 182 141 180 143

C175 149 174 152 174 159

L174 166

L178 168

C181 170 184 173 185 175

L187 179

L188 174

C188 171 190 168 191 166

Z

M247 163

C248 158 247 148 243 136

C241 130 240 125 240 124

C240 121 238 122 237 125

C236 126 233 129 231 131

L228 135

L229 143

C231 154 234 167 235 170

L237 173

L242 170

C246 167 247 166 247 163

Z

M137 168

L137 163

L141 162

L144 162

L144 150

C143 143 142 135 142 133

C140 128 134 118 133 118

C133 118 131 120 129 123

C127 126 124 131 122 134

L118 139

L120 147

C121 152 122 157 122 159

C121 162 121 163 124 164

C125 165 129 167 132 169

C134 170 137 172 137 172

C138 172 138 170 137 168

Z

M595 154

C593 151 590 148 590 148

C590 148 589 150 588 152

C587 155 587 155 589 157

C591 158 593 162 595 165

L599 172

L599 165

L600 159

L595 154

Z

M517 165

C518 162 519 160 519 159

C520 159 520 158 520 157

C520 156 518 156 512 156

L504 156

L504 160

C504 163 504 164 509 167

C511 168 514 170 515 170

C515 170 516 168 517 165

Z

M45 162

C45 160 44 157 44 155

C43 152 39 147 36 147

C34 146 35 154 37 158

C39 161 45 167 46 167

C46 167 45 165 45 162

Z

M272 164

C272 162 254 130 253 131

C253 131 254 136 256 141

C257 146 258 153 258 157

L258 164

L264 164

C268 164 271 165 271 165

C272 165 272 165 272 164

Z

M80 158

C81 156 83 152 84 151

C84 148 84 148 80 146

L76 144

L73 146

C71 147 70 148 70 148

C70 148 71 151 73 153

C74 156 75 159 75 161

C75 164 76 164 80 158

Z

M298 160

C300 159 304 157 305 156

C307 154 307 154 305 153

C302 152 296 152 293 153

C290 155 285 160 285 162

C285 164 292 162 298 160

Z

M490 161

C492 161 493 160 493 158

C493 157 492 156 490 156

C489 155 487 155 486 154

C484 154 484 155 484 159

C484 163 484 163 486 163

C487 162 489 162 490 161

Z

M163 157

C163 150 166 143 172 135

C178 128 180 123 179 119

C178 116 168 105 167 105

C166 105 166 106 166 107

C166 109 160 121 156 126

L153 131

L154 140

C155 145 155 152 155 155

L155 162

L159 162

L163 162

L163 157

Z

M385 157

C382 152 376 150 369 150

L363 151

L369 154

C376 158 380 160 384 160

C386 160 386 160 385 157

Z

M550 156

C553 150 554 139 553 130

C552 125 552 120 553 119

L553 116

L549 117

C546 117 542 117 540 117

L535 117

L534 126

C533 139 534 146 536 152

C537 155 538 158 537 158

C536 158 543 160 546 160

C548 160 549 159 550 156

Z

M572 156

C576 153 579 146 581 137

C582 132 582 130 580 123

C579 119 578 114 577 113

C576 110 576 110 572 111

C562 112 562 113 561 135

C561 144 561 152 561 154

C560 155 560 156 563 157

C567 160 568 159 572 156

Z

M282 142

C286 135 286 129 282 113

C277 97 276 91 276 86

L276 83

L273 86

C268 93 261 100 256 103

C248 109 248 110 255 117

C261 122 269 134 274 143

C275 146 277 149 277 149

C278 149 280 146 282 142

Z

M464 146

C466 145 468 143 469 142

C472 138 474 125 472 124

C471 123 471 123 471 124

C472 125 471 125 468 124

C463 124 455 126 451 129

C447 132 446 131 449 126

C450 122 456 117 458 117

C459 117 459 117 458 116

C456 114 448 114 443 116

C437 119 431 125 428 135

C426 139 425 143 425 143

C425 143 428 143 431 143

C434 144 439 145 443 146

C451 148 459 148 464 146

Z

M525 140

C525 136 525 130 526 128

C527 122 526 117 523 113

C520 111 512 108 508 108

C502 108 502 109 502 117

C503 127 501 131 498 125

C497 124 495 121 493 119

L490 116

L488 118

C480 125 479 138 486 145

C488 146 490 147 504 147

C513 147 521 148 523 148

C525 148 525 148 525 140

Z

M53 141

C53 139 52 135 52 132

C50 127 50 122 51 122

C52 122 55 126 59 134

C62 141 63 142 64 141

C67 140 69 134 69 130

C69 124 67 120 60 113

C54 107 49 99 49 96

C49 94 47 95 41 100

C34 106 30 111 29 117

C29 121 29 122 33 128

C39 138 47 145 51 145

C53 145 53 144 53 141

Z

M395 136

C397 132 399 124 400 119

L402 110

L397 103

C394 99 390 95 389 93

L388 91

L381 99

L374 108

L378 114

C381 120 384 129 384 136

C384 140 384 141 388 143

C390 144 392 145 392 144

C393 144 394 140 395 136

Z

M322 141

C324 140 324 139 322 134

C322 130 320 126 319 124

C318 120 317 120 317 122

C317 123 316 127 315 131

L314 137

L316 140

C320 144 320 144 322 141

Z

M103 140

C105 139 109 136 111 133

C116 128 125 114 125 112

C125 112 122 110 117 109

C108 107 91 108 86 110

C83 112 79 118 78 124

L78 128

L81 127

C82 126 84 124 85 123

C88 122 92 122 92 123

C92 124 90 127 88 131

C86 134 84 137 84 138

C84 139 93 142 96 142

C97 142 100 141 103 140

Z

M209 136

C216 128 216 122 210 105

L208 98

L203 103

C197 110 194 116 194 122

C194 127 194 128 199 134

C202 138 205 141 205 141

C205 141 207 138 209 136

Z

M354 137

C355 133 355 132 354 127

C353 125 351 122 351 120

C349 119 349 119 349 124

C349 127 348 132 347 134

C347 136 346 138 346 139

C351 142 353 142 354 137

Z

M338 134

C340 130 342 118 340 118

C340 118 338 121 336 124

C333 128 333 130 334 133

C334 136 335 138 335 138

C336 138 337 136 338 134

Z

M375 131

C374 126 370 116 369 116

C369 116 368 119 368 124

C367 128 367 132 366 134

C366 136 366 136 370 136

C372 136 374 137 374 137

C375 137 375 134 375 131

Z

M305 128

C307 121 307 107 305 103

C303 99 297 93 291 88

L287 86

L287 91

C288 93 290 101 292 108

C294 115 295 124 296 128

L296 136

L300 135

C303 134 303 133 305 128

Z

M231 113

C234 109 238 104 240 102

C244 99 244 99 244 90

C244 82 244 78 247 55

L247 47

L242 47

C239 46 234 45 231 43

C228 42 226 41 225 41

C225 41 225 43 224 45

C223 47 221 52 219 56

C216 61 216 64 216 69

C216 82 218 93 221 104

C223 110 225 116 225 118

C225 120 225 121 225 121

C226 121 228 118 231 113

Z

M152 113

C157 102 158 99 157 79

C157 77 157 70 157 64

L158 52

L154 52

C152 52 148 51 144 51

C140 50 136 49 135 49

L132 49

L131 61

C130 80 130 91 133 97

C135 102 147 119 148 119

C148 119 150 116 152 113

Z

M431 111

C437 105 437 104 439 94

C444 69 450 34 449 33

C449 32 446 32 443 32

C439 32 438 32 436 34

C431 43 418 79 415 97

L413 107

L418 113

C421 116 424 118 424 118

C424 118 427 115 431 111

Z

M334 78

L334 52

L328 46

C318 37 318 37 318 45

C317 50 316 58 314 65

C311 78 310 88 312 92

C312 93 315 96 317 98

C319 101 322 106 325 110

L328 116

L331 110

L334 105

L334 78

Z

M479 114

C480 112 479 108 478 97

C475 80 467 43 467 42

C466 42 464 42 462 41

L459 41

L458 48

C458 59 454 81 449 98

C449 99 449 99 451 97

C453 94 455 92 456 93

C457 93 457 96 457 98

C457 105 458 107 460 107

C461 107 472 112 475 114

C477 116 478 116 479 114

Z

M18 109

C17 105 15 97 14 96

C14 95 4 107 3 110

C3 111 5 111 9 111

C12 111 16 112 17 112

C19 112 19 112 18 109

Z

M195 95

C202 88 206 78 206 75

C205 71 200 66 194 63

C187 59 175 49 174 45

C174 42 173 42 170 45

C168 47 168 49 168 51

C169 52 169 60 168 67

C166 86 167 89 177 100

L186 109

L188 105

C190 102 193 98 195 95

Z

M558 105

C564 103 569 102 570 102

C572 102 571 101 567 95

C561 85 556 80 551 79

C547 77 537 78 532 81

C529 83 519 92 519 94

C519 94 525 94 532 94

C539 93 545 94 545 94

C545 95 539 98 531 101

C524 103 524 103 526 105

C533 110 543 110 558 105

Z

M70 100

C70 93 73 82 79 68

C81 60 84 51 85 48

C86 42 86 42 83 39

C79 34 68 27 67 27

C65 28 58 48 57 58

C53 80 56 94 65 105

C68 108 69 108 69 106

C70 105 70 102 70 100

Z

M357 105

C359 104 360 103 361 102

C361 101 362 93 362 84

L362 68

L359 66

C356 64 348 60 346 60

C345 60 345 68 345 79

L345 97

L349 102

C352 106 353 107 357 105

Z

M83 102

C86 101 90 100 95 99

L103 99

L103 95

C104 93 105 88 107 85

C113 73 113 71 111 66

C110 63 98 50 97 50

C97 50 96 53 95 56

C94 59 91 67 88 74

C85 80 83 88 82 90

C81 94 79 104 79 104

C80 104 81 103 83 102

Z

M121 97

C121 95 120 92 120 90

C120 85 119 85 116 91

C113 99 113 100 121 101

C123 101 123 101 121 97

Z

M31 98

C32 97 35 94 39 91

L45 86

L45 74

C45 68 45 62 44 62

C44 62 27 78 24 82

L22 85

L25 93

C26 97 28 100 28 100

C28 100 30 99 31 98

Z

M492 90

C492 87 492 85 493 85

C495 85 497 89 498 93

C498 97 499 98 500 97

C501 97 501 95 501 88

C501 74 497 60 490 47

L487 42

L482 43

C477 44 477 45 478 48

C479 52 488 89 489 95

L489 101

L491 98

C491 96 492 92 492 90

Z

M405 89

C407 80 417 53 424 40

L427 33

L423 34

C422 34 418 35 415 35

L410 36

L403 55

C399 65 396 75 395 77

L393 81

L398 87

C401 91 404 94 404 93

C404 93 405 91 405 89

Z

M376 80

L373 77

L373 85

L373 93

L376 88

L379 83

L376 80

Z

M269 73

C275 65 275 64 271 57

C269 54 263 50 260 50

C259 50 258 52 258 54

C257 61 255 81 255 86

L255 91

L259 86

C261 84 266 78 269 73

Z

M517 80

C517 75 514 66 510 59

C506 50 504 43 504 37

L504 32

L501 33

C499 34 497 35 495 37

L493 39

L496 43

C503 54 510 74 510 85

L510 91

L513 87

C516 84 517 81 517 80

Z

M300 79

C300 77 301 71 303 64

C305 57 306 48 307 43

L307 35

L304 39

C302 41 297 46 293 51

L285 59

L286 66

L287 73

L293 77

C300 82 300 82 300 79

Z

M569 70

C575 54 574 48 566 36

C561 29 561 29 559 39

C558 42 556 50 554 56

C552 62 550 68 550 68

C550 69 551 70 553 70

C554 71 558 73 561 74

C563 76 566 78 566 78

C567 78 568 74 569 70

Z

M388 66

C393 55 399 34 399 31

C398 27 391 19 388 16

C386 15 384 14 383 14

C383 15 377 38 376 47

C373 63 373 62 379 67

C382 70 385 72 385 72

C385 72 386 69 388 66

Z

M208 58

C209 57 211 53 213 50

C215 45 216 43 216 38

C216 35 215 31 215 29

C213 26 205 18 203 18

C201 18 199 25 199 33

C200 46 196 41 194 27

C193 20 192 18 190 18

C189 18 188 18 187 19

C186 21 181 33 181 36

C181 42 188 50 197 54

C199 56 203 58 204 59

C207 62 208 62 208 58

Z

M530 38

C530 32 530 30 529 27

C526 22 525 22 519 25

L514 28

L514 36

C514 44 514 45 518 53

L522 61

L526 53

C528 47 529 44 530 38

Z

M589 46

C593 41 596 35 597 31

C598 28 598 28 592 34

C583 42 582 44 583 49

C583 52 584 53 584 52

C585 51 587 48 589 46

Z

M166 36

C170 33 173 28 174 27

C175 25 175 25 171 26

C165 27 154 26 156 24

C156 23 158 23 160 22

C163 21 166 20 166 19

C168 17 168 17 163 14

C156 10 151 8 145 8

C137 8 136 9 133 17

C132 22 131 27 131 32

L131 40

L134 40

C136 40 140 41 143 41

C146 42 151 43 154 43

L160 43

L166 36

Z

M259 38

C259 37 258 32 258 28

C257 19 254 14 248 9

C244 5 235 1 231 1

C228 1 216 6 216 7

C216 7 217 8 218 9

C220 11 222 12 224 11

C229 11 233 13 240 21

C247 29 247 30 238 25

C232 21 230 20 226 23

C222 24 222 26 226 30

C231 35 237 37 248 39

C253 39 258 40 259 40

C260 41 260 40 259 38

Z

M91 16

L92 8

L85 10

C77 12 75 13 73 16

C72 17 72 17 73 18

C74 18 78 21 82 24

L90 30

L90 27

C90 25 91 20 91 16

Z

M486 25

C485 24 481 20 478 17

C467 9 468 9 464 13

C462 15 457 17 454 18

L447 21

L456 22

C461 22 468 24 472 25

C476 27 481 28 483 28

L487 28

L486 25

Z

M422 23

L431 22

L426 19

C423 17 418 14 415 12

C412 10 407 8 404 7

C400 6 397 6 396 5

C395 5 397 7 399 11

C402 14 406 18 407 21

C410 26 410 26 422 23

Z

M508 20

C517 16 521 13 521 7

C521 3 521 4 514 5

C511 6 506 7 503 7

L498 8

L498 14

C497 18 496 21 496 22

C495 24 495 25 508 20

Z

M489 11

C490 9 490 7 489 7

C489 7 487 7 485 7

L482 8

L485 11

C486 13 488 14 488 14

C488 14 489 13 489 11

Z

"/>

</svg>

