<?xml version="1.0" standalone="no"?>

<!DOCTYPE svg PUBLIC "-//W3C//DTD SVG 20010904//EN"

 "http://www.w3.org/TR/2001/REC-SVG-20010904/DTD/svg10.dtd">

<svg version="1.0" xmlns="http://www.w3.org/2000/svg"

 width="591.000000pt" height="591.000000pt" viewBox="0 0 591.000000 591.000000"

 preserveAspectRatio="xMidYMid meet">

<path fill="#f8faf6" stroke="none" d="
M0 296

L0 0

L296 0

L591 0

L591 296

L591 591

L296 591

L0 591

L0 296

Z

"/>

<path fill="#2b793d" stroke="none" d="
M29 589

C31 589 34 588 36 588

C40 588 40 588 39 586

C38 583 37 577 38 572

C38 568 38 567 35 562

C31 555 27 543 26 532

C25 526 24 523 23 523

C23 523 20 525 18 529

C14 534 2 544 1 544

C0 544 0 540 0 535

L0 525

L3 524

C6 523 7 522 7 520

C7 518 6 518 3 518

C0 518 0 518 0 515

C0 512 0 512 3 512

C6 512 7 511 8 510

C9 507 7 505 3 505

L0 506

L0 498

L0 490

L4 489

L9 488

L12 478

C14 473 17 465 19 461

L23 453

L19 449

C17 447 16 446 16 447

C14 449 13 448 11 443

C4 430 0 403 0 376

C0 361 0 357 1 358

C2 358 3 359 4 359

C5 359 6 360 5 361

C5 363 6 368 7 373

C11 385 13 396 14 407

C14 415 15 416 17 416

L20 416

L19 405

C19 399 19 391 18 387

C15 373 11 360 9 359

C8 359 8 358 10 356

C11 354 11 352 9 349

C8 348 3 348 1 349

C0 350 0 346 0 333

C0 315 0 315 3 306

C7 293 15 280 27 266

C30 263 30 263 31 265

C32 266 33 271 34 275

L37 284

L43 280

C51 275 66 269 76 267

L84 266

L78 262

C74 260 69 257 65 253

C60 248 59 247 58 248

C57 249 52 250 47 251

C36 253 20 254 9 252

C5 251 1 250 1 251

C0 251 0 248 0 244

C0 238 0 235 2 231

C7 222 14 196 14 185

C14 180 14 179 12 179

C10 179 9 179 9 181

C8 182 7 189 6 196

C5 202 3 210 2 213

L0 219

L0 199

C0 186 0 180 1 179

C2 178 2 178 1 178

C0 178 0 176 0 173

C0 170 0 168 1 168

C2 168 2 168 1 167

C1 166 0 163 0 159

L0 153

L3 155

C6 157 7 158 8 157

C11 156 11 154 8 151

C7 150 4 147 3 145

L0 140

L0 116

L0 92

L2 95

L4 99

L7 96

C13 88 17 74 17 61

L17 53

L9 59

C4 63 1 66 0 66

C0 66 0 62 0 58

L0 50

L10 38

C15 32 24 22 29 17

C34 12 38 7 38 6

C38 3 35 3 32 5

C28 8 15 22 7 31

L1 39

L0 32

C0 24 0 23 3 20

C7 14 14 6 19 3

C23 0 24 0 33 0

C43 0 43 0 45 3

C46 4 48 5 49 5

C50 5 52 4 54 3

C59 -3 70 0 86 10

C97 17 107 22 108 22

C108 22 106 17 103 12

C100 7 97 2 97 1

C97 0 99 0 105 0

L113 0

L115 4

C116 9 118 11 121 9

C122 8 122 5 121 2

C120 0 121 0 127 0

L134 0

L134 4

C135 8 136 8 141 11

C146 13 148 13 148 13

C149 12 149 9 149 6

L149 0

L160 0

L171 0

L164 11

L158 21

L164 28

C176 41 184 58 188 75

L189 84

L193 81

C195 79 199 76 202 74

L208 70

L207 65

C207 59 209 48 213 41

C215 38 218 31 220 25

C221 20 225 12 226 7

L230 0

L240 0

C252 0 252 -1 240 12

C233 21 232 23 234 25

C236 27 238 26 242 21

C243 18 248 13 253 8

L260 0

L270 0

L279 0

L277 3

C276 5 273 9 270 12

L265 18

L268 22

C269 24 274 29 278 33

L286 40

L287 37

C288 34 289 32 289 32

C289 31 289 30 290 29

C292 26 300 48 303 62

L304 65

L311 65

C314 64 318 64 318 63

C318 63 318 59 317 53

C315 41 316 30 319 23

C320 19 321 16 320 16

C314 12 303 5 298 3

L292 0

L303 0

L315 0

L320 4

L326 8

L330 4

C333 0 333 0 341 0

C345 0 349 1 350 1

C352 2 353 2 355 1

C357 1 362 0 367 0

L376 0

L379 6

C380 9 383 15 385 19

C387 25 387 26 389 24

C392 21 400 15 403 15

C405 14 406 14 406 14

C406 13 405 10 404 7

L401 0

L416 0

L432 0

L431 2

C430 6 431 7 444 12

C458 18 464 23 471 33

C474 38 481 51 484 58

C485 61 486 63 486 63

C487 62 485 52 481 38

C476 22 475 15 476 7

L477 1

L488 0

L499 0

L502 7

C516 38 517 52 508 69

C507 73 506 74 507 75

C509 77 510 76 514 73

C522 66 531 63 553 60

C562 59 569 58 571 57

C572 56 574 54 575 49

C577 43 577 41 577 30

C577 16 577 15 572 2

C571 0 571 0 576 0

L582 0

L584 6

C585 9 587 15 587 20

C588 27 589 28 590 26

C591 25 591 26 591 32

L591 40

L586 47

C581 53 580 55 584 57

C585 57 586 56 588 54

L591 51

L591 59

L591 67

L587 70

C584 72 582 74 582 74

C582 74 584 78 586 83

L591 91

L591 114

C591 136 591 137 589 133

C587 127 584 112 583 103

C582 94 581 92 578 94

C576 95 576 96 576 102

C578 119 583 138 588 148

C590 151 591 154 591 159

L591 165

L584 156

C580 152 576 145 575 143

C573 138 573 138 572 140

C566 156 562 164 560 169

C557 174 557 175 559 175

C568 171 577 169 583 168

L591 168

L591 173

L591 178

L584 178

C576 179 567 182 557 187

C544 193 545 193 547 199

C549 205 550 219 547 231

C547 235 546 239 546 239

C546 239 548 240 551 240

C558 241 564 244 570 250

L575 254

L575 234

C576 220 576 211 578 208

C579 201 585 189 589 184

L591 182

L591 201

L591 221

L588 228

C585 235 585 237 589 237

C591 237 591 237 591 245

L591 252

L585 257

L579 261

L582 269

C585 279 592 306 591 307

C590 307 588 307 586 308

C582 308 582 308 580 315

C579 319 578 322 578 323

C579 323 584 320 588 318

L591 316

L591 324

C591 328 591 331 590 330

C590 329 588 330 582 332

C573 336 562 338 547 339

L534 339

L534 343

C534 344 533 348 532 351

L531 355

L535 360

C538 362 541 366 543 368

L546 372

L549 368

C553 362 562 353 568 349

C574 346 582 342 587 342

L591 341

L591 363

C591 376 590 384 590 381

L590 377

L584 385

L578 393

L580 397

C589 414 585 449 572 470

L569 475

L575 477

C577 479 582 483 585 486

L591 492

L591 499

C591 504 591 506 589 506

C587 507 587 507 587 505

C587 503 586 502 577 497

C566 491 563 490 563 494

C563 496 564 497 573 502

C578 505 583 508 583 508

C583 508 581 510 577 512

C570 516 567 520 567 522

C569 526 571 525 576 521

C581 517 588 513 590 513

C591 513 591 514 591 516

C591 518 590 519 589 520

C586 520 575 531 568 539

C562 548 561 551 565 552

C566 552 568 550 574 543

C577 539 583 533 586 530

L591 526

L591 535

C591 546 592 545 574 554

L561 561

L568 570

C572 575 577 582 579 585

L582 591

L576 591

C571 591 570 591 569 588

C568 586 564 581 560 575

C556 570 551 563 549 559

L547 553

L542 557

C539 559 529 565 520 571

C504 581 502 582 500 586

L498 591

L488 591

L478 591

L475 585

C470 575 453 558 435 545

C431 543 428 541 428 541

C428 542 429 548 431 555

C433 567 434 578 433 586

L432 591

L426 591

L420 591

L419 583

C419 579 419 567 419 556

C420 538 420 536 418 536

C415 534 414 537 413 551

C412 565 412 584 414 588

L415 591

L408 591

L401 591

L400 587

C399 584 399 577 398 570

C398 558 398 557 401 547

C403 541 407 533 409 529

L412 522

L412 505

C413 495 413 485 414 482

L414 477

L408 484

C401 493 389 505 380 512

L374 516

L374 523

C374 527 374 532 375 534

C375 540 373 557 371 563

C370 567 368 571 366 573

L364 576

L368 581

C370 583 372 587 373 588

L375 591

L367 591

L358 591

L358 588

C358 584 356 582 353 582

C349 582 347 585 347 588

C348 591 348 591 341 591

C337 591 334 591 334 590

C334 590 336 589 338 588

C340 588 341 587 341 586

C341 586 337 585 333 584

C317 581 303 574 299 567

L297 564

L292 567

C289 569 286 570 286 570

C286 570 286 573 286 575

L285 580

L292 581

C296 582 303 585 307 587

L315 591

L303 591

C297 591 289 591 286 590

C282 589 280 589 280 590

C280 591 276 591 270 591

L260 591

L262 588

C264 587 265 585 265 584

C264 584 264 583 264 582

C264 582 263 582 262 582

C260 582 258 584 255 587

L251 591

L240 591

L230 591

L233 588

C235 586 236 584 236 584

C236 581 230 576 225 573

C222 571 218 568 217 567

L215 564

L218 561

C220 559 222 558 223 557

C225 557 225 556 224 553

C223 544 222 543 208 543

C200 543 189 541 182 539

C179 538 177 537 176 537

C176 537 177 540 178 542

C184 555 182 572 174 587

L171 591

L160 591

L149 591

L149 583

C149 574 148 562 145 549

C144 543 144 535 144 528

C144 517 144 516 143 516

C141 516 139 516 138 515

C136 515 136 515 136 521

C136 531 133 537 124 546

L117 553

L120 558

C126 566 132 579 133 587

L134 591

L127 591

L120 591

L115 580

C110 567 109 567 107 567

C103 567 104 570 108 580

C110 585 112 590 112 590

C112 591 108 591 104 591

L96 591

L93 583

C92 578 91 573 90 570

C90 566 89 566 88 566

C86 567 83 568 80 568

L74 569

L73 575

C72 578 70 583 68 586

L66 591

L61 591

C56 591 55 591 55 588

C54 585 50 583 47 585

C45 586 44 588 44 589

C44 591 43 591 34 591

C25 591 25 591 29 589

Z

M56 579

C56 578 56 575 57 572

C57 564 60 554 66 544

C71 535 72 533 68 532

C67 532 65 533 64 535

C60 540 53 553 52 560

C50 566 49 577 51 579

C53 580 55 580 56 579

Z

M168 576

C170 573 171 556 169 548

C166 533 161 521 158 521

C155 521 155 523 159 534

C163 549 165 561 163 570

C161 577 162 580 165 580

C166 580 167 578 168 576

Z

M260 578

C277 576 285 573 281 569

C279 568 279 568 273 570

C269 571 260 571 251 572

C237 572 235 573 235 574

C234 579 241 580 260 578

Z

M352 578

C353 576 351 573 345 569

C334 561 312 551 308 553

C307 553 307 554 307 556

C307 558 309 559 318 562

C328 566 340 573 345 577

C348 579 352 580 352 578

Z

M495 568

C496 562 496 554 494 545

L493 540

L487 543

C484 544 477 547 472 549

C467 552 462 553 462 554

C462 554 465 557 468 560

C471 564 476 568 477 571

C480 575 481 575 482 573

C483 572 485 572 488 576

C490 578 490 578 492 576

C493 575 494 572 495 568

Z

M363 572

C363 570 356 562 350 557

C347 554 345 552 345 552

C343 552 341 554 341 555

C341 556 345 561 350 566

C358 574 360 575 361 574

C362 573 363 572 363 572

Z

M268 564

C276 563 282 561 284 558

C286 556 286 556 284 554

C283 552 283 552 279 554

C274 557 263 559 252 560

C245 560 242 561 242 562

C241 563 241 564 242 566

C243 567 245 567 252 567

C257 566 264 565 268 564

Z

M513 563

C519 560 538 548 538 548

C538 548 532 547 526 547

C517 547 512 547 509 546

C507 545 505 544 504 544

C504 544 505 547 505 550

C505 553 506 558 506 561

C506 564 506 567 506 567

C507 567 510 565 513 563

Z

M107 562

C112 559 114 558 114 556

C114 552 112 552 103 556

C95 560 94 561 95 564

C96 566 100 565 107 562

Z

M79 561

C81 558 82 545 81 543

C81 541 80 541 78 541

C76 541 75 542 75 545

C75 546 74 551 74 555

C73 559 73 562 73 563

C75 565 78 564 79 561

Z

M99 550

C107 544 120 532 122 528

C124 525 124 525 122 524

C122 523 120 522 120 522

C120 522 117 525 114 528

C110 533 98 544 89 550

C84 553 83 554 86 556

C88 558 90 557 99 550

Z

M360 556

C362 555 365 544 367 535

C368 530 368 529 367 528

C364 524 362 526 361 534

C360 537 359 543 357 547

C355 554 355 555 356 556

C358 558 358 558 360 556

Z

M302 553

C304 551 304 547 301 545

C299 543 295 544 293 547

C292 549 292 550 293 552

C295 555 300 556 302 553

Z

M47 546

C49 541 53 534 55 531

L60 524

L55 525

C53 525 47 525 43 526

L36 526

L36 529

C36 537 41 554 42 554

C43 554 45 550 47 546

Z

M344 534

L347 528

L343 525

C337 520 326 506 322 497

C320 493 318 489 317 489

C316 489 310 493 308 496

C306 499 306 500 307 504

C309 513 308 524 304 536

C304 537 304 538 307 538

C312 539 326 545 331 549

L336 552

L339 545

C340 542 342 537 344 534

Z

M242 548

C250 544 259 542 268 541

L275 541

L271 538

C266 534 257 524 252 514

C250 510 247 506 246 506

C243 506 236 515 235 520

C232 527 233 540 235 546

C236 548 236 550 237 550

C237 550 239 549 242 548

Z

M557 545

C558 544 557 543 557 543

C556 543 556 544 556 545

C556 546 556 547 556 547

C557 547 557 546 557 545

Z

M466 541

C473 538 488 532 489 530

C489 530 489 529 488 527

C487 525 482 521 476 515

C463 505 457 499 453 492

C449 486 443 469 439 457

L437 447

L433 447

L428 447

L427 455

C423 482 421 516 423 523

C424 525 427 528 434 533

C440 537 446 541 449 543

C453 546 453 546 466 541

Z

M292 539

C294 538 294 537 291 533

C288 528 276 513 268 506

C263 502 262 501 260 502

C259 503 258 504 258 504

C258 505 263 511 269 517

C276 523 283 531 285 535

C287 538 289 541 290 541

C290 541 292 540 292 539

Z

M538 537

C542 536 548 535 553 533

C561 531 562 531 563 527

C565 524 564 523 561 519

C557 513 553 505 552 500

L552 496

L549 498

C545 501 537 505 532 507

C529 508 528 509 527 512

C525 516 517 524 510 529

C505 533 506 534 514 536

C521 538 529 538 538 537

Z

M88 528

C95 521 106 516 114 514

C120 513 122 511 119 509

C118 509 109 511 99 513

L81 518

L81 526

C81 530 81 534 81 534

C81 534 84 531 88 528

Z

M214 532

C217 532 216 527 214 527

C213 526 211 526 209 526

C203 525 195 521 185 514

C176 509 174 508 173 512

C172 517 202 532 212 533

C212 533 214 533 214 532

Z

M359 521

C365 514 366 511 363 510

C361 509 358 512 352 519

C348 524 348 527 352 527

C353 527 356 525 359 521

Z

M298 516

C298 512 297 505 295 499

C292 487 290 471 290 463

L290 457

L282 448

L273 440

L274 448

C274 459 272 473 267 482

C266 486 264 489 264 490

C264 490 266 491 268 492

C274 496 282 505 290 517

C297 527 298 527 298 516

Z

M511 516

C513 513 515 511 515 511

C515 511 511 511 507 511

L499 511

L499 518

L499 525

L503 522

C505 521 508 518 511 516

Z

M224 519

C226 512 233 502 239 498

L243 496

L240 488

C238 484 237 481 237 480

C238 480 241 481 246 482

C250 484 254 485 254 485

C254 485 251 478 247 471

L240 458

L238 464

C234 471 230 477 225 481

C222 483 221 484 221 486

C221 487 219 494 218 501

L214 514

L218 519

C220 522 223 524 223 523

C223 523 224 521 224 519

Z

M164 514

C174 509 182 503 182 499

C182 498 182 497 182 497

C181 497 181 497 180 496

C179 496 176 498 174 500

C169 504 160 509 154 511

C149 512 148 514 149 516

C150 519 155 518 164 514

Z

M23 513

C26 510 25 505 21 504

C15 502 11 510 16 513

C19 516 21 515 23 513

Z

M71 512

C83 510 90 505 86 502

C84 501 83 501 81 502

C75 506 66 507 49 508

C31 508 28 509 30 512

C30 513 31 514 32 514

C35 515 63 514 71 512

Z

M352 511

C352 510 351 507 349 505

C344 500 337 490 331 479

C327 471 326 470 324 470

C320 470 320 472 326 482

C336 501 345 513 349 513

C351 513 352 512 352 511

Z

M135 511

C137 510 138 504 136 502

C133 499 126 502 126 506

C126 511 131 513 135 511

Z

M484 506

C484 501 474 480 462 461

C458 455 456 453 455 453

C453 453 452 454 452 455

C452 456 455 463 460 470

C470 488 474 495 478 507

C479 510 483 509 484 506

Z

M499 506

C500 504 500 502 499 495

C497 485 495 482 492 485

C491 487 491 489 492 496

C494 506 496 509 499 506

Z

M209 495

C210 489 211 486 210 484

C210 482 209 479 209 477

C208 473 208 473 204 473

C196 473 193 474 192 477

C191 479 189 483 187 487

C186 490 184 493 185 493

C185 493 187 494 189 495

C192 496 202 502 204 505

C206 507 206 505 209 495

Z

M366 502

C369 499 374 481 377 469

C379 461 379 456 379 444

L380 429

L372 413

C368 404 364 396 363 395

C363 393 362 395 361 402

C359 419 351 437 341 452

L335 459

L342 465

C352 476 360 491 363 502

C363 506 364 506 366 502

Z

M152 499

C166 491 181 478 181 475

C181 473 179 471 178 471

C178 471 175 474 171 477

C165 483 154 490 146 494

C142 496 141 498 141 499

C141 502 142 503 144 503

C144 503 148 501 152 499

Z

M40 497

C44 495 50 494 53 493

L60 492

L63 485

C65 482 69 477 72 473

C75 470 77 468 77 467

C77 467 71 467 65 467

L54 466

L43 483

C38 492 33 500 33 500

C34 500 37 499 40 497

Z

M112 489

C111 483 109 474 108 470

C107 466 107 462 106 462

C106 462 96 467 90 471

C83 476 75 483 73 488

C72 490 71 492 71 492

C71 493 82 497 89 498

C98 499 100 500 109 500

L116 500

L112 489

Z

M393 486

C404 474 415 457 418 445

L419 441

L413 434

C409 431 403 424 400 420

L395 412

L393 420

C393 425 392 430 391 433

C391 435 390 440 390 445

C390 456 387 473 383 488

L379 499

L383 496

C385 494 389 490 393 486

Z

M524 496

C542 491 549 488 545 484

C543 483 543 483 538 485

C534 487 515 491 508 492

C505 493 503 495 505 497

C506 499 507 499 524 496

Z

M127 496

C127 495 126 491 125 487

C124 482 124 477 124 469

L125 457

L122 456

C119 456 118 457 117 468

C117 476 119 491 121 495

C122 497 126 498 127 496

Z

M25 495

C25 494 26 491 27 488

C29 478 35 468 46 454

C48 452 48 451 47 450

C45 447 42 448 36 456

C26 468 17 489 19 494

C20 496 24 497 25 495

Z

M150 476

L154 473

L155 465

C155 460 156 453 157 448

C159 444 160 440 159 440

C159 440 155 442 150 445

C145 448 140 450 138 451

L135 452

L136 457

C137 460 137 468 137 475

L136 487

L141 483

C143 481 147 478 150 476

Z

M312 481

C314 480 316 478 316 477

C316 473 315 471 313 471

C312 471 308 470 305 468

C302 466 300 465 300 465

C300 467 302 483 303 484

C303 486 303 486 305 485

C307 484 309 482 312 481

Z

M559 482

C561 480 560 477 558 475

C556 473 554 472 551 475

C548 477 548 481 551 483

C554 485 557 485 559 482

Z

M511 472

C520 470 536 469 542 471

L545 472

L544 462

C544 452 546 440 549 432

L550 428

L546 431

C543 433 539 437 536 439

L531 444

L531 429

C532 421 533 410 534 405

C535 399 536 395 536 394

C536 394 533 394 531 393

C517 389 496 376 483 364

L475 356

L469 359

C464 361 461 361 454 361

C447 361 445 362 445 362

C446 363 449 370 452 378

C455 387 459 398 461 403

C464 412 464 413 463 419

C462 422 461 428 459 432

L457 438

L461 442

L465 445

L474 436

C489 421 503 413 517 411

C527 409 528 410 525 417

C521 430 510 448 496 466

C490 473 488 476 489 477

C490 479 491 479 497 476

C500 475 507 473 511 472

Z

M261 474

C263 469 262 450 261 441

C258 430 255 420 253 418

C251 416 251 416 249 417

C248 419 248 419 250 427

C255 443 255 446 256 462

C256 470 256 477 256 477

C256 478 257 478 258 478

C259 478 260 477 261 474

Z

M487 469

C487 467 474 449 473 449

C471 449 469 450 469 452

C469 453 472 458 476 462

C481 469 483 471 484 471

C486 471 487 470 487 469

Z

M221 469

C221 468 222 465 223 462

C224 453 230 441 236 431

C241 421 242 419 238 418

C236 418 233 421 227 432

C220 445 214 466 216 469

C218 470 220 470 221 469

Z

M563 468

C565 467 571 438 571 425

C571 419 571 418 569 418

C566 418 565 420 564 432

C563 437 562 447 560 454

C558 465 558 467 559 468

C561 469 561 469 563 468

Z

M170 465

C178 462 189 455 194 451

C196 449 198 447 198 447

C199 447 198 450 198 454

C197 464 196 463 203 463

L208 463

L208 458

C208 455 209 448 211 442

C218 416 213 381 200 358

C196 353 196 353 194 354

C192 355 192 356 194 361

C195 368 196 384 194 393

C191 410 178 438 174 437

C173 436 172 437 169 444

C168 449 166 455 166 458

C165 460 165 464 164 465

C164 468 165 468 170 465

Z

M325 462

C326 460 326 459 325 457

C321 451 313 455 315 461

C317 466 323 466 325 462

Z

M102 453

C107 450 113 447 115 445

L120 440

L117 437

C110 429 105 418 102 405

L100 397

L96 404

C85 420 78 426 61 434

L56 436

L56 446

L56 456

L59 456

C61 456 69 457 78 457

L93 457

L102 453

Z

M307 451

C307 450 308 449 308 448

C308 448 302 441 295 433

C286 423 281 419 280 419

C278 419 277 419 277 421

C277 422 281 427 290 437

C297 445 304 452 304 452

C305 452 306 451 307 451

Z

M487 450

C488 449 491 445 494 442

C497 438 502 433 504 431

C508 429 509 427 509 426

C508 420 499 425 488 438

C482 447 481 449 483 451

C485 452 486 452 487 450

Z

M336 446

C337 445 337 444 335 440

C332 434 330 422 329 411

C329 398 328 397 326 397

C323 397 322 399 322 408

C324 420 325 430 327 437

C330 447 333 450 336 446

Z

M44 437

L48 435

L50 420

C53 404 55 400 61 392

C65 386 66 384 63 379

C59 370 52 364 41 362

C36 361 26 361 26 362

C26 362 27 365 28 369

C34 389 33 413 26 430

L23 437

L26 441

L29 446

L34 442

C37 440 41 438 44 437

Z

M322 439

C322 434 317 409 314 398

C313 394 312 392 310 392

C309 392 308 392 307 393

C307 394 308 401 310 408

C312 415 314 426 315 432

C317 445 317 445 319 445

C321 445 322 444 322 439

Z

M449 442

C453 439 450 433 446 433

C443 433 440 436 440 438

C440 443 446 446 449 442

Z

M157 429

C162 426 164 424 163 423

C158 412 157 396 159 383

C161 373 164 363 168 357

L171 353

L167 349

C162 344 157 335 154 329

C153 326 152 324 152 324

C150 324 144 327 140 330

C133 336 123 352 119 364

L117 370

L120 374

C128 383 136 403 137 417

C137 425 136 432 132 442

C132 444 147 436 157 429

Z

M273 434

C277 433 274 425 266 413

L261 407

L263 401

C265 396 265 395 263 394

C261 391 259 394 255 407

C254 408 255 410 258 414

C261 418 264 423 266 427

C269 432 271 435 272 435

C272 435 273 435 273 434

Z

M433 430

C433 429 431 426 427 422

C423 418 417 410 413 404

C406 393 403 391 401 395

C400 398 413 418 423 427

C428 432 432 433 433 430

Z

M544 426

C544 425 546 421 547 417

C550 409 550 409 549 407

C546 405 544 407 541 416

C538 422 538 424 539 425

C541 427 542 427 544 426

Z

M560 422

C563 419 567 413 570 409

C577 400 577 397 573 396

C571 396 570 397 567 401

C566 404 561 410 558 415

C554 419 551 423 551 424

C551 425 553 427 555 427

C555 427 558 425 560 422

Z

M127 419

C127 413 124 403 118 392

C113 381 110 378 107 379

C106 380 105 381 105 381

C105 382 107 385 109 389

C115 399 119 407 120 416

C121 424 123 426 126 425

C127 425 127 423 127 419

Z

M304 420

C299 406 300 387 304 377

C308 370 309 370 319 384

C321 388 324 391 324 391

C324 391 325 389 325 387

C326 381 331 371 337 364

C342 357 342 357 341 354

C333 342 330 326 333 306

C335 297 335 297 329 299

L325 300

L325 307

C325 311 325 314 325 314

C325 314 321 311 317 307

C313 304 306 298 302 295

C293 290 287 284 279 274

L274 268

L275 279

L275 290

L285 299

C300 315 312 334 316 348

L318 353

L314 353

C311 352 304 350 299 348

C298 347 292 353 280 367

C270 378 262 387 262 388

C262 388 263 389 265 389

C267 390 271 392 273 393

C279 397 291 410 299 418

C302 422 305 426 305 425

C305 425 304 423 304 420

Z

M65 421

C77 405 80 400 86 394

C91 388 93 385 93 384

C92 378 85 384 71 402

C62 414 59 419 60 421

C61 424 64 423 65 421

Z

M449 421

C452 416 451 402 447 386

C445 378 443 376 440 378

C439 378 439 379 442 395

C444 402 444 406 444 413

C443 418 443 422 444 422

C445 424 448 423 449 421

Z

M342 421

C342 420 343 414 343 408

C343 396 344 389 350 379

C351 376 352 373 352 372

C352 370 349 369 347 370

C345 372 339 385 338 392

C335 401 335 417 338 420

C339 422 341 423 342 421

Z

M233 403

C232 401 231 397 230 395

C229 391 221 380 220 381

C220 381 221 384 222 388

C222 392 223 399 224 405

L224 416

L230 411

L235 406

L233 403

Z

M248 412

C252 409 249 403 244 403

C241 403 239 405 239 409

C239 414 244 416 248 412

Z

M178 409

C179 407 181 395 182 376

C184 363 184 361 182 360

C181 359 181 359 179 360

C178 360 177 363 176 373

C176 379 174 390 173 397

C173 403 172 409 172 410

C173 412 177 411 178 409

Z

M397 402

C397 399 396 394 395 390

C392 375 390 371 386 374

C385 376 385 377 387 385

C389 390 390 397 390 401

C391 408 392 410 395 408

C397 407 397 406 397 402

Z

M385 403

C386 398 375 373 369 367

C367 365 366 365 365 366

C362 367 362 369 366 374

C370 380 374 388 377 397

C380 406 380 406 382 406

C384 406 385 405 385 403

Z

M430 395

C429 387 429 376 430 366

L432 359

L428 358

C420 356 409 352 402 348

L395 345

L388 351

C384 355 381 358 381 358

C381 358 382 361 384 364

C386 369 386 370 388 369

C395 366 411 377 426 395

C429 399 431 402 432 402

C432 402 431 399 430 395

Z

M561 399

L565 399

L558 388

C553 378 551 377 549 377

C545 377 545 379 550 386

C554 394 554 394 546 394

C541 394 538 396 540 399

C541 401 542 401 549 400

C554 400 559 399 561 399

Z

M248 391

C251 388 248 364 244 343

C242 335 240 333 237 336

C236 338 236 341 238 351

C242 367 243 377 243 385

C243 389 243 392 244 392

C245 393 247 393 248 391

Z

M539 383

C539 382 538 379 536 378

C533 374 516 362 502 352

C491 345 487 344 486 348

C486 349 489 352 502 360

C510 366 521 374 526 378

C535 385 538 386 539 383

Z

M568 375

C571 371 575 368 579 367

C584 364 585 362 582 360

C580 358 574 360 566 368

C559 374 557 378 558 380

C560 382 563 381 568 375

Z

M103 377

C106 374 105 371 102 369

C100 367 99 367 97 368

C94 370 93 373 94 375

C96 380 100 380 103 377

Z

M86 369

C86 368 85 367 84 364

C83 362 83 356 82 349

L82 338

L66 346

C58 350 51 354 51 354

C51 354 53 355 54 356

C60 358 68 366 71 372

L74 378

L80 373

C83 371 86 369 86 369

Z

M272 357

C272 351 269 341 265 332

L261 323

L256 328

L251 333

L254 340

C259 348 261 358 261 367

L261 373

L267 367

C271 362 272 360 272 357

Z

M228 340

L230 331

L224 323

L219 316

L217 321

C215 327 211 333 207 339

C205 342 204 345 204 345

C204 346 209 352 215 359

L226 371

L226 360

C227 354 228 345 228 340

Z

M105 361

C106 359 106 352 106 346

C105 336 105 333 103 332

C100 330 99 332 99 348

C99 357 99 364 100 364

C101 366 104 364 105 361

Z

M359 362

C364 357 357 350 352 355

C350 357 349 361 351 363

C353 364 358 364 359 362

Z

M186 352

C188 351 188 346 187 344

C184 341 177 344 177 348

C177 351 180 354 183 354

C184 354 186 353 186 352

Z

M38 348

C42 346 50 343 55 341

L64 337

L64 331

C66 316 79 292 90 282

C93 279 94 278 93 277

C91 272 58 282 43 292

L38 296

L37 307

C36 324 32 335 24 346

C22 348 20 351 20 351

C20 352 29 351 38 348

Z

M383 337

C381 336 378 333 377 332

L374 329

L383 327

L392 324

L392 317

C393 308 393 288 392 281

C391 275 388 263 386 260

C385 258 384 259 383 265

C381 273 377 283 373 287

L371 289

L369 285

C367 282 366 280 365 280

C365 280 363 282 361 284

C358 286 355 288 354 290

L351 292

L355 301

C364 317 365 319 366 325

C367 329 367 334 366 339

C365 343 365 346 365 346

C365 346 367 347 369 349

L373 351

L380 345

L386 340

L383 337

Z

M478 348

C479 346 479 345 478 343

C478 342 476 341 476 340

C473 339 469 341 468 344

C466 350 474 354 478 348

Z

M527 348

C528 345 526 343 518 338

C511 335 511 335 509 336

C507 339 508 341 517 346

C524 351 526 351 527 348

Z

M285 345

C287 343 288 341 287 341

C284 338 278 334 278 334

C277 335 281 349 282 349

C282 349 284 347 285 345

Z

M351 342

C351 341 350 337 350 334

C349 330 348 321 347 313

C347 301 346 299 345 298

C341 296 340 301 341 319

C342 332 345 344 347 345

C350 346 351 345 351 342

Z

M458 343

C458 340 457 339 452 340

C448 340 432 338 416 335

C409 334 402 333 401 333

C399 334 400 338 402 339

C403 340 420 343 432 345

C435 345 442 346 448 346

C457 346 458 345 458 343

Z

M16 338

C21 327 28 299 28 290

C28 287 24 286 22 288

C22 289 21 293 21 296

C20 305 16 319 12 331

C8 341 8 343 12 343

C13 343 15 341 16 338

Z

M303 340

C305 337 304 335 297 327

C290 318 284 313 281 313

C278 315 279 317 286 325

C290 329 295 334 296 336

C300 341 301 342 303 340

Z

M95 333

C101 326 106 317 110 310

C112 303 112 303 111 301

C108 299 107 300 103 308

C99 317 93 325 89 330

C86 333 85 336 87 337

C88 339 91 338 95 333

Z

M132 324

C135 321 139 318 141 317

L145 316

L137 308

C129 301 123 293 122 290

C121 289 112 291 112 292

C112 292 114 298 116 305

C118 312 120 321 121 325

C121 336 122 336 125 332

C126 330 130 326 132 324

Z

M174 334

C175 333 174 330 171 325

C167 316 164 306 163 296

C162 288 160 285 157 288

C152 293 165 335 171 335

C172 335 173 334 174 334

Z

M196 332

C204 323 211 303 211 290

C211 283 211 283 209 283

C207 283 207 283 205 292

C202 307 198 320 191 328

C188 332 188 335 192 335

C193 335 195 334 196 332

Z

M502 330

C502 328 501 324 501 321

C501 317 501 317 499 317

C498 318 494 319 490 319

L484 320

L484 327

L484 333

L487 332

C490 331 492 331 497 333

C500 334 503 335 503 335

C504 335 503 333 502 330

Z

M523 334

C524 331 522 324 518 314

L514 305

L520 296

C524 289 525 286 524 285

C522 282 520 283 515 291

C512 295 510 299 510 299

C509 299 508 298 506 298

C501 295 486 295 484 298

C483 299 483 300 484 301

C484 302 487 302 494 302

C500 302 503 303 505 304

C507 306 514 320 516 328

C518 334 519 335 520 335

C522 335 523 334 523 334

Z

M473 331

C475 329 468 314 460 298

C450 281 448 278 446 278

C442 279 443 282 449 292

C456 304 462 316 465 325

C469 333 471 335 473 331

Z

M86 323

C95 310 102 296 101 292

C100 289 96 290 95 292

C95 293 93 297 92 300

C90 305 83 316 77 325

C74 328 75 331 78 331

C80 331 82 329 86 323

Z

M562 327

C566 327 566 327 569 316

L573 306

L567 303

C563 301 558 297 555 294

L550 289

L549 292

C547 297 539 304 534 305

C531 306 529 307 529 307

C529 308 531 313 532 319

L534 329

L546 329

C553 328 560 328 562 327

Z

M274 322

C276 313 278 300 278 298

C277 295 274 294 272 296

C272 297 271 299 271 301

C271 303 270 309 268 315

C266 325 266 325 267 327

C270 329 272 327 274 322

Z

M449 316

L445 308

L435 305

C429 304 424 302 424 302

C423 301 427 297 432 293

L435 291

L433 285

C431 281 430 276 429 273

C429 271 428 269 428 269

C428 269 425 272 421 275

C414 282 414 283 416 269

C417 262 416 261 414 259

L412 257

L410 262

C404 276 403 279 403 301

L403 321

L409 320

C413 320 421 320 428 320

C439 320 441 320 447 322

C450 324 453 325 453 324

C453 324 451 321 449 316

Z

M251 304

C249 299 245 289 244 283

C239 263 240 243 246 237

C247 236 248 235 248 235

C248 233 239 234 235 236

C230 238 230 239 231 248

C232 252 233 256 232 256

C232 256 229 254 225 251

L219 247

L218 252

C218 254 219 263 219 271

C220 280 221 290 221 294

L221 302

L227 310

C230 314 233 317 233 317

C233 316 234 313 235 310

L236 304

L241 314

L246 323

L251 319

L255 314

L251 304

Z

M483 311

C483 309 480 302 475 296

C472 292 470 291 468 294

C467 295 468 297 470 300

C472 302 474 306 476 309

C478 313 479 314 480 314

C482 314 483 313 483 311

Z

M189 292

L193 284

L191 280

C190 278 188 272 186 267

L183 257

L179 263

C177 267 174 272 172 274

L168 277

L172 285

C174 290 177 298 179 303

L182 312

L184 306

C184 302 187 296 189 292

Z

M149 292

C148 285 148 277 148 275

L148 271

L144 275

C141 277 137 280 135 282

C133 283 131 285 131 286

C131 288 148 307 150 306

C150 306 150 299 149 292

Z

M262 298

C263 297 263 296 261 284

C260 280 259 272 258 265

C258 251 257 248 253 251

C250 254 253 290 258 297

C259 299 260 299 262 298

Z

M582 292

C583 286 572 273 556 259

C546 252 543 250 542 255

C542 256 544 258 548 262

C557 268 570 282 574 287

C575 289 577 292 578 293

C579 294 582 293 582 292

Z

M333 287

C338 286 338 286 340 278

C343 271 345 268 345 272

C345 277 346 281 348 281

C348 281 352 278 355 275

L361 270

L359 265

C355 253 354 239 358 227

C359 223 359 222 358 222

C356 222 350 230 344 241

C338 253 332 261 330 261

C328 261 323 254 321 249

C321 246 319 239 319 233

L318 222

L311 222

C308 223 303 224 300 225

C295 226 281 234 281 235

C281 235 283 236 285 237

C287 238 293 243 301 251

C315 265 318 269 322 283

C324 291 323 291 333 287

Z

M501 287

C499 283 506 272 515 265

L519 262

L506 262

C496 262 492 262 489 261

C487 260 480 255 473 249

C466 244 461 239 460 239

C460 239 458 241 456 244

C454 247 450 251 446 254

L440 259

L443 262

C445 263 450 268 455 273

L464 282

L474 283

C480 283 488 285 493 286

C497 288 501 289 501 289

C501 289 501 288 501 287

Z

M548 285

C548 284 548 282 545 277

C543 273 541 267 540 264

L539 259

L534 260

C526 261 525 261 525 264

C525 266 525 267 529 267

L534 267

L536 273

C539 280 543 287 545 287

C546 287 547 286 548 285

Z

M108 284

C112 281 109 275 104 275

C101 275 99 277 99 280

C99 285 104 288 108 284

Z

M309 284

C311 282 311 282 303 271

C295 262 281 247 276 245

C269 241 266 246 273 251

C279 255 290 266 299 277

C303 282 307 286 307 286

C307 286 309 285 309 284

Z

M123 276

C130 273 143 261 150 250

C156 242 157 240 155 238

C152 236 151 238 146 245

C139 255 127 267 119 271

C114 273 112 275 112 276

C112 280 115 280 123 276

Z

M207 265

C211 258 217 246 217 246

C213 243 203 235 198 230

C189 223 189 223 189 232

C189 242 193 259 197 271

L199 275

L201 273

C202 272 204 268 207 265

Z

M170 259

C174 251 177 239 179 222

L180 218

L178 220

C177 221 173 228 169 236

C166 243 162 251 161 253

L158 257

L161 262

C163 268 163 268 165 266

C166 265 168 262 170 259

Z

M102 265

C103 265 102 262 101 260

C99 256 99 254 99 244

C99 233 99 230 102 219

C105 208 105 206 104 204

C101 202 99 204 97 211

C93 225 92 235 92 247

C93 256 93 259 95 263

C96 266 98 267 99 267

C101 267 102 266 102 265

Z

M405 248

C405 248 403 245 401 242

C399 239 396 233 394 229

C390 221 390 221 388 233

L387 239

L391 248

C394 253 396 258 397 260

L398 263

L402 256

C403 252 405 248 405 248

Z

M129 243

C131 241 135 237 138 234

L144 229

L141 223

L139 216

L135 222

C131 228 128 232 122 236

C120 238 119 240 119 244

C118 247 118 251 117 253

L117 257

L121 252

C123 249 127 245 129 243

Z

M418 255

C420 255 420 253 420 249

C420 245 421 240 422 237

C424 227 424 225 422 225

C420 224 418 227 415 234

C413 241 413 252 415 254

C416 256 416 256 418 255

Z

M538 254

C540 252 541 248 539 246

C537 244 531 245 530 247

C528 250 529 253 531 254

C534 256 536 256 538 254

Z

M370 248

C371 248 371 245 371 242

C371 236 374 223 379 212

C382 202 383 199 380 198

C377 198 375 203 371 215

C365 231 362 247 365 249

C366 251 370 250 370 248

Z

M442 245

C447 239 450 229 451 218

C451 208 450 205 447 205

C445 205 444 206 444 217

C443 230 441 236 435 243

C431 248 431 250 436 250

C437 250 439 248 442 245

Z

M522 247

C522 245 521 245 514 243

C509 243 501 241 495 239

C489 237 484 236 483 236

C481 237 482 241 485 243

C491 245 511 250 516 250

C521 250 522 249 522 247

Z

M24 232

C31 226 37 220 39 220

C41 219 42 218 42 218

C42 217 28 203 27 203

C27 203 26 204 26 206

C26 214 19 228 10 241

L5 247

L9 245

C11 244 18 238 24 232

Z

M45 242

C51 239 53 236 51 233

C50 232 49 232 48 233

C47 233 45 234 43 235

C41 237 39 237 34 238

C26 238 24 239 26 242

C28 245 39 245 45 242

Z

M263 240

C265 238 264 234 262 231

C258 228 252 232 253 237

C254 241 259 243 263 240

Z

M85 239

C86 238 86 238 84 236

C81 233 73 231 72 231

C71 232 70 233 70 234

C70 236 71 237 75 238

C82 241 83 242 85 239

Z

M335 239

C336 235 345 194 344 193

C344 192 343 192 341 192

C338 193 338 193 332 220

C330 229 329 237 329 238

C330 240 334 241 335 239

Z

M537 237

C539 235 539 220 536 208

C533 193 533 193 530 192

C528 192 527 192 527 193

C526 194 527 199 529 205

C530 211 531 219 532 226

C532 239 534 241 537 237

Z

M519 230

C517 227 516 222 515 219

C514 214 513 213 511 212

C510 211 506 209 504 207

C501 206 499 204 499 204

C498 204 498 207 498 210

C497 214 497 218 496 219

C496 221 496 222 501 224

C507 226 517 232 519 235

C521 237 521 235 519 230

Z

M65 233

C67 231 68 228 65 226

C63 224 59 223 57 226

C55 228 55 232 58 234

C60 236 63 235 65 233

Z

M218 229

C219 228 218 226 211 219

C206 214 199 206 196 201

C190 194 188 192 187 192

C183 193 184 196 190 205

C198 216 213 231 216 231

C217 231 218 230 218 229

Z

M414 229

C415 228 415 227 414 224

C411 215 398 197 394 198

C391 199 392 203 396 208

C402 214 406 220 408 225

C410 231 412 232 414 229

Z

M239 224

C241 224 242 224 242 224

C242 223 241 221 239 218

C235 207 233 196 233 185

L233 174

L229 174

C224 174 211 170 205 166

C202 164 200 163 199 163

C199 163 197 164 196 166

L193 169

L200 176

C212 189 219 202 227 228

C227 228 228 228 232 226

C234 225 238 224 239 224

Z

M257 223

C257 223 255 219 253 214

C251 209 249 200 247 195

C245 184 243 182 240 183

C239 183 239 184 239 189

C241 199 249 223 252 225

C253 226 257 224 257 223

Z

M128 214

C131 207 134 199 134 195

C134 192 134 192 132 192

C131 193 128 193 125 194

L121 195

L124 192

C125 190 129 186 132 183

L137 177

L132 177

C129 177 123 176 120 176

C116 175 112 174 112 175

C111 175 111 178 115 200

C117 208 118 218 119 220

L119 225

L122 223

C124 221 126 217 128 214

Z

M481 221

C484 221 485 221 486 218

C488 213 489 202 488 194

C487 181 487 181 481 186

C478 189 473 193 469 196

L462 200

L464 203

C465 206 465 208 465 215

L464 225

L471 223

C475 222 479 221 481 221

Z

M91 200

C93 195 96 188 98 186

C100 183 101 181 100 181

C99 181 86 190 81 194

C78 197 74 201 73 203

C70 206 70 207 71 211

C72 215 73 216 77 219

C80 221 82 223 82 223

C82 224 83 221 84 217

C85 213 88 205 91 200

Z

M281 212

C284 205 287 192 288 182

L288 175

L284 168

C281 164 279 160 278 158

C277 155 276 139 277 136

C278 134 278 134 271 137

C267 138 259 140 254 141

C237 143 238 143 242 144

C251 148 272 160 272 162

C272 163 261 168 253 170

C250 171 248 171 247 172

C247 172 249 175 253 179

C266 192 270 199 273 215

L274 224

L276 221

C277 219 279 215 281 212

Z

M160 219

C163 217 169 214 172 213

C175 212 178 211 178 210

C178 210 176 207 173 202

C171 198 167 193 166 190

C165 188 163 186 163 186

C162 186 159 187 156 187

C153 188 149 189 148 189

C144 190 144 193 147 205

C148 212 152 223 153 223

C153 223 156 221 160 219

Z

M428 211

C431 205 433 203 436 200

C439 198 441 197 440 197

C437 197 430 190 427 184

C419 168 418 147 424 129

C426 124 428 118 429 116

L431 113

L427 109

C426 108 423 103 421 100

L418 94

L412 101

L405 108

L404 119

C403 125 402 132 401 136

C400 141 400 143 400 146

C401 147 401 156 401 165

L401 182

L408 189

C415 196 421 207 423 215

C423 217 423 219 424 219

C424 219 426 215 428 211

Z

M60 217

C62 214 58 202 51 193

C46 188 39 182 36 183

C34 184 35 187 41 193

C48 199 54 209 54 213

C54 217 58 219 60 217

Z

M299 215

C302 214 308 213 312 213

L319 213

L320 207

C323 193 326 185 331 180

L334 176

L330 173

C327 171 323 168 320 164

L315 159

L315 165

C314 170 308 193 307 194

C307 194 305 192 303 190

C300 188 298 186 298 186

C297 186 297 190 296 194

C295 198 294 205 292 210

C290 217 289 218 291 217

C292 217 295 216 299 215

Z

M360 216

C361 216 362 214 362 213

C362 209 366 198 368 194

C370 192 372 190 374 189

C377 187 378 186 376 184

C374 183 371 174 370 168

C370 161 371 150 374 140

C376 133 376 130 372 130

C369 130 365 145 364 161

C364 171 364 173 366 179

L368 185

L366 187

C360 193 353 213 356 217

C358 218 358 218 360 216

Z

M457 200

C458 198 458 197 457 195

C456 192 454 190 450 192

C448 192 447 193 447 196

C447 198 447 200 448 201

C450 203 454 202 457 200

Z

M517 186

C518 177 519 169 519 167

C519 163 520 163 523 167

C524 169 528 174 532 178

C539 185 539 185 540 184

C546 177 556 154 565 130

L570 118

L570 99

C570 88 570 79 570 79

C570 79 567 82 565 86

C558 95 547 106 539 111

C536 113 533 114 533 115

C533 115 534 119 534 124

C536 134 537 154 537 159

L536 163

L534 160

C533 158 529 154 525 151

C522 147 514 140 509 135

C499 125 500 124 498 143

C497 149 496 157 495 162

C493 169 493 170 495 177

C496 182 498 186 501 190

C505 196 513 203 514 201

C514 201 516 194 517 186

Z

M31 196

C31 195 31 190 31 186

C30 179 30 179 34 174

C37 169 38 166 35 165

C33 164 33 164 28 171

L24 177

L24 187

C24 193 24 198 25 198

C25 199 26 199 28 199

C29 199 30 198 31 196

Z

M69 190

C80 174 84 156 79 147

C75 138 67 126 62 122

L57 118

L55 125

C53 140 49 150 42 157

L38 160

L41 161

C48 165 60 180 64 190

C64 192 66 194 66 194

C67 194 68 192 69 190

Z

M391 193

C394 190 391 183 387 183

C384 183 381 186 381 189

C381 193 388 196 391 193

Z

M177 185

C181 184 190 175 190 173

C190 171 187 169 186 170

C185 170 183 172 182 174

C179 176 173 180 169 181

C168 182 167 183 167 184

C167 188 169 188 177 185

Z

M472 183

C477 177 483 167 486 156

C489 148 488 146 485 146

C483 146 482 147 480 155

C475 166 472 173 466 179

C462 184 461 185 463 187

C465 189 467 188 472 183

Z

M350 182

C353 178 347 172 342 175

C339 176 339 180 340 183

C343 186 347 186 350 182

Z

M444 182

C444 181 443 177 442 174

C439 167 437 155 437 141

C437 131 436 129 433 131

C431 131 431 132 431 144

C431 162 434 175 439 183

C441 186 445 185 444 182

Z

M158 176

C172 169 181 161 181 157

C180 154 177 155 171 160

C168 163 161 167 156 170

C147 175 146 176 148 179

C150 181 150 180 158 176

Z

M387 176

C388 176 387 174 387 173

C386 172 386 164 386 155

L386 139

L383 139

C381 139 380 139 380 144

C379 151 379 172 381 175

C382 178 386 179 387 176

Z

M97 164

C95 162 92 160 92 160

C92 160 91 163 90 166

C90 170 89 173 88 174

C88 176 89 175 95 172

L102 169

L97 164

Z

M18 173

C20 171 21 169 18 166

C15 161 7 165 9 171

C10 175 15 176 18 173

Z

M149 163

C153 158 159 152 161 150

C164 148 164 147 163 145

C161 142 159 143 152 150

C146 156 135 170 135 171

C135 173 138 175 139 174

C140 174 144 169 149 163

Z

M302 172

C303 169 301 156 297 145

C293 133 292 130 289 132

C286 133 287 134 290 145

C294 153 296 164 296 169

C296 175 301 177 302 172

Z

M358 162

C362 156 362 154 359 153

C357 152 356 152 353 158

C348 165 348 167 349 168

C352 170 354 169 358 162

Z

M252 161

C253 160 253 160 252 158

C252 157 249 157 241 157

C232 156 229 156 221 153

C210 150 208 149 208 152

C207 154 208 156 216 159

C232 164 248 165 252 161

Z

M336 163

C337 162 336 160 334 154

C332 151 329 143 327 136

C325 124 323 122 321 123

C318 124 318 126 321 138

C326 158 332 167 336 163

Z

M455 156

C456 154 459 150 461 148

L464 144

L462 136

C461 131 461 126 461 118

L462 106

L456 111

C453 114 449 117 448 118

L445 121

L447 127

C449 135 452 149 452 156

C452 159 452 161 452 161

C453 161 454 159 455 156

Z

M27 157

C30 154 36 142 41 128

C46 111 47 107 44 106

C42 105 40 107 37 118

C33 131 26 148 24 151

C20 157 23 162 27 157

Z

M133 157

C135 154 132 152 117 149

C98 144 95 144 96 149

C97 150 101 152 113 155

C122 157 130 159 131 159

C132 159 133 158 133 157

Z

M194 152

C196 150 197 146 195 144

C193 143 188 143 187 145

C182 150 189 157 194 152

Z

M355 134

C359 127 372 112 374 111

C375 111 376 112 376 113

C377 115 377 117 378 119

L379 121

L383 118

L387 114

L389 117

C390 119 391 122 392 123

C394 133 395 104 392 91

C392 87 391 83 390 83

C390 82 387 85 384 88

C380 91 375 95 372 97

L367 101

L365 98

C363 94 363 78 364 71

C366 66 366 65 363 62

C360 58 357 49 356 41

L356 34

L352 43

C341 66 330 85 321 91

L318 93

L319 83

L319 74

L313 74

C309 75 306 75 306 75

C306 75 307 78 307 80

C309 87 308 99 305 104

C304 107 301 111 298 114

L293 120

L296 121

C297 122 301 125 304 129

L311 136

L312 123

C313 116 314 110 314 110

C317 107 337 126 346 139

L350 147

L351 143

C352 141 353 137 355 134

Z

M175 127

C176 116 177 105 179 101

C179 100 176 97 171 93

C161 85 153 76 147 65

L144 60

L145 65

C145 68 145 76 145 83

C145 93 145 97 143 101

L141 107

L146 112

C152 117 158 127 163 137

L167 144

L171 141

L175 139

L175 127

Z

M146 140

C147 138 146 137 139 130

C130 121 123 114 119 106

C115 100 113 99 111 101

C110 104 112 108 119 118

C124 125 142 142 144 142

C145 142 146 141 146 140

Z

M24 125

C27 117 28 116 26 113

C26 112 24 106 23 101

L21 92

L19 96

C17 99 14 103 12 105

L9 109

L12 120

C14 126 16 132 17 134

L17 138

L19 136

C20 135 22 130 24 125

Z

M115 132

C113 129 110 125 108 122

C105 116 102 115 92 113

C85 112 67 112 67 112

C67 113 69 115 71 117

C74 119 78 123 80 126

L83 131

L94 131

C103 132 107 132 112 134

C115 136 118 137 118 136

C118 136 117 134 115 132

Z

M193 136

C193 135 194 132 195 129

C198 116 204 102 208 96

C211 93 212 91 210 89

C205 85 196 101 190 122

C187 134 187 136 191 137

C191 137 192 136 193 136

Z

M479 130

C482 128 487 124 490 122

L495 119

L492 114

C489 105 487 97 486 85

C486 76 485 74 484 75

C481 76 475 92 473 106

C471 116 471 135 473 135

C473 135 476 133 479 130

Z

M255 130

C263 129 275 125 275 124

C275 124 272 122 269 120

C266 118 261 114 258 111

L253 106

L250 111

C246 118 238 126 233 130

L229 133

L238 133

C243 132 251 131 255 130

Z

M220 126

C227 123 240 110 243 103

L246 97

L243 85

C239 72 235 64 232 61

C230 60 230 60 229 65

C228 68 225 79 223 90

C218 113 215 123 210 128

C209 130 209 130 212 130

C213 129 217 128 220 126

Z

M522 126

C522 125 521 123 519 120

C515 115 510 106 505 93

C501 84 500 82 498 82

C497 82 496 82 495 84

C494 87 508 118 515 126

C518 130 521 130 522 126

Z

M287 122

C291 119 289 113 284 113

C280 113 278 115 278 118

C278 121 281 124 284 124

C284 124 286 123 287 122

Z

M276 110

C277 109 276 107 271 102

C266 97 263 92 259 84

C254 75 252 73 251 73

C247 74 248 76 251 84

C256 94 262 103 267 108

C272 112 274 113 276 110

Z

M447 106

C455 99 463 89 468 81

L472 75

L467 73

C460 71 453 66 450 61

L448 57

L447 71

C446 89 444 97 439 109

C438 112 440 111 447 106

Z

M296 103

C300 92 300 73 294 62

C292 58 290 57 288 59

C287 60 288 63 290 69

C293 79 293 92 290 100

C288 107 288 109 292 109

C293 109 294 107 296 103

Z

M531 106

C531 104 527 93 522 86

C520 82 518 81 517 81

C513 81 513 84 517 90

C520 94 523 101 525 107

C526 110 530 109 531 106

Z

M48 90

C50 88 52 87 52 87

C53 87 54 90 54 93

L56 98

L57 95

C58 93 59 89 60 85

C60 79 60 79 54 67

C47 53 43 43 42 34

L40 27

L37 32

C35 34 32 38 30 40

C26 44 26 42 28 66

C29 76 33 99 34 102

C34 104 35 103 39 98

C42 95 46 91 48 90

Z

M99 102

C98 96 97 92 97 85

C97 73 97 73 105 80

C109 83 113 87 114 88

C117 90 117 90 117 88

C111 74 109 46 114 35

C114 33 114 33 112 33

C106 33 99 30 86 22

C73 14 64 9 63 10

C63 11 65 20 68 30

C74 52 74 60 71 71

C71 74 70 80 69 84

C69 91 68 95 66 101

C65 102 66 102 76 102

C82 102 89 102 92 103

C100 104 100 104 99 102

Z

M410 88

L415 82

L414 72

C413 66 413 59 413 55

L413 48

L409 55

C407 59 403 65 401 67

L398 72

L400 79

C401 83 402 88 403 90

C403 92 404 94 404 94

C405 94 408 91 410 88

Z

M134 90

C134 89 133 87 132 85

C131 84 130 81 129 79

C128 73 128 54 129 46

C130 41 130 40 129 38

C127 37 124 37 124 40

C123 44 121 58 121 64

C121 79 126 93 131 92

C133 92 134 91 134 90

Z

M542 88

C549 83 555 77 555 75

C555 71 550 70 549 74

C548 74 545 77 541 80

C533 86 531 89 534 90

C536 91 537 91 542 88

Z

M277 79

C276 73 277 64 280 55

L282 50

L274 42

L266 34

L265 44

C265 51 264 55 262 58

L260 63

L266 70

C269 73 273 78 275 81

C276 83 278 85 278 85

C278 85 277 82 277 79

Z

M432 81

C434 78 435 64 434 54

C432 39 427 27 422 27

C419 27 419 30 422 37

C427 46 428 56 428 69

C427 76 428 80 428 81

C430 82 431 82 432 81

Z

M501 74

C503 72 502 67 499 65

C497 64 496 64 494 65

C489 68 491 75 496 75

C498 75 500 74 501 74

Z

M174 70

C177 66 166 49 154 37

C146 29 142 26 140 27

C136 29 138 31 147 39

C156 48 163 57 167 65

C169 71 172 72 174 70

Z

M390 54

C394 46 399 38 402 35

C407 29 407 27 403 26

C400 26 399 27 395 33

C392 36 388 44 384 51

C378 64 377 67 382 67

C383 67 386 63 390 54

Z

M478 64

C478 63 476 61 472 58

C464 53 457 45 451 37

C449 32 447 31 446 31

C442 32 443 35 447 42

C454 53 470 67 475 67

C477 67 478 66 478 64

Z

M227 56

C231 54 233 52 233 53

C232 55 232 55 236 55

C239 54 242 54 246 55

C252 57 252 57 254 51

C255 47 255 33 254 29

L254 26

L238 35

L223 44

L220 49

C219 52 218 57 217 59

C217 64 217 64 227 56

Z

M501 61

C502 57 498 32 493 12

C490 3 488 0 486 3

C485 5 485 7 488 21

C492 38 495 53 495 58

C495 62 496 63 499 63

C500 63 501 62 501 61

Z

M330 60

C331 60 332 55 333 50

C335 35 340 21 345 16

C347 14 346 10 343 10

C341 10 337 14 334 21

C329 31 324 57 326 60

C327 61 330 61 330 60

Z

M374 57

C375 56 377 49 380 43

C384 32 384 32 383 30

C381 30 380 29 379 30

C378 31 373 40 370 51

C368 57 368 58 369 59

C371 62 373 61 374 57

Z

M64 58

C65 56 63 46 60 33

C54 16 52 10 50 10

C46 10 46 12 51 26

C53 34 56 44 57 49

C58 54 59 59 60 59

C62 60 64 59 64 58

Z

M371 30

C374 30 373 26 371 21

C366 12 358 2 355 4

C352 5 352 7 357 13

C360 16 363 21 365 24

C367 29 369 31 370 31

C370 31 371 31 371 30

Z

M133 28

C136 25 135 20 131 19

C125 17 121 25 126 28

C129 31 131 30 133 28

Z

M423 21

C428 16 421 9 416 14

C412 17 415 23 420 23

C421 23 423 22 423 21

Z

"/>

</svg>

