<?xml version="1.0" standalone="no"?>

<!DOCTYPE svg PUBLIC "-//W3C//DTD SVG 20010904//EN"

 "http://www.w3.org/TR/2001/REC-SVG-20010904/DTD/svg10.dtd">

<svg version="1.0" xmlns="http://www.w3.org/2000/svg"

 width="591.000000pt" height="591.000000pt" viewBox="0 0 591.000000 591.000000"

 preserveAspectRatio="xMidYMid meet">

<path fill="#f5f6f0" stroke="none" d="
M0 296

L0 0

L296 0

L591 0

L591 296

L591 591

L296 591

L0 591

L0 296

Z

"/>

<path fill="#5f813b" stroke="none" d="
M0 576

C0 562 0 561 2 561

C5 561 8 558 8 555

C8 552 5 549 2 549

C0 549 0 548 0 540

L0 532

L3 533

C6 534 10 531 10 527

C10 523 7 521 3 521

L0 522

L0 514

C0 508 0 507 2 507

C4 507 7 503 7 501

C7 498 4 495 2 495

C0 495 -1 489 1 485

C2 483 2 482 1 481

C-1 478 -1 419 1 421

C3 422 8 422 9 420

C11 418 11 415 9 413

C8 411 3 411 1 412

C0 413 0 412 0 409

C0 406 0 405 2 405

C5 405 8 402 8 399

C8 396 5 393 2 393

C-1 393 -1 388 3 385

C6 382 6 380 3 377

C-1 374 -1 372 2 368

C5 365 5 363 2 361

C-1 358 -1 353 3 352

C7 350 7 344 2 342

C-1 340 -1 336 2 336

C5 336 8 333 8 330

C8 327 5 324 2 324

C0 324 0 323 0 320

C0 316 0 316 2 318

C4 322 12 320 12 315

C12 311 10 309 7 309

C4 309 3 310 2 311

C0 313 0 311 0 284

C0 256 0 255 2 255

C4 255 7 252 7 249

C7 247 4 244 2 244

C0 244 0 243 0 236

C0 232 1 228 1 227

C2 225 2 224 1 222

C-1 217 -1 18 1 18

C3 18 6 15 6 12

C6 10 3 7 1 7

C0 7 0 6 0 4

L0 0

L24 0

L48 0

L47 3

C46 7 47 10 51 11

C56 12 59 8 57 3

C56 0 56 0 58 0

C59 0 61 1 63 2

C65 3 65 3 68 2

C71 0 75 0 99 0

L126 0

L126 2

C126 5 129 8 132 8

C135 8 138 4 138 2

C137 0 138 0 148 0

C154 1 160 1 162 1

C164 2 166 2 166 1

C167 0 169 0 170 0

C173 0 174 0 173 3

C173 6 173 7 175 8

C177 10 179 10 180 10

C183 9 185 5 185 2

C184 0 184 0 217 0

L250 0

L250 3

C252 8 260 8 262 3

C262 0 262 0 272 0

C278 0 282 0 283 1

C283 2 284 2 286 2

C288 2 289 2 290 1

C290 0 295 0 302 0

C314 0 315 0 316 2

C316 3 318 5 319 5

C322 6 323 6 325 3

L328 0

L352 0

C373 0 377 0 377 1

C378 2 379 4 380 4

C383 6 387 5 388 2

C389 0 390 0 421 0

L454 0

L455 2

C457 7 464 7 465 2

C466 0 467 0 499 0

L533 0

L534 2

C536 7 543 7 544 2

C545 0 546 0 568 0

L591 0

L591 3

C591 6 591 7 589 7

C588 8 587 9 586 10

C585 12 585 13 586 15

C587 17 589 18 590 18

C591 18 591 31 591 119

L591 220

L588 219

C585 219 584 219 582 222

C581 224 581 224 582 227

C583 229 584 230 587 230

L591 230

L591 236

C591 242 591 243 589 245

C585 248 585 251 589 254

L591 256

L591 290

C591 323 591 324 589 326

C586 329 586 331 589 334

C592 337 592 340 589 342

C588 342 586 344 586 345

C585 348 585 349 588 351

C592 354 592 359 589 359

C586 359 583 362 583 365

C583 367 586 370 589 370

C592 370 592 375 588 375

C587 376 585 377 585 379

C583 382 585 386 588 387

C591 387 591 388 591 391

C591 392 591 394 590 394

C589 394 588 395 588 397

C587 399 587 400 589 402

C591 405 591 406 591 441

L591 478

L588 477

C586 477 585 477 583 479

C579 483 582 490 588 489

C591 488 591 488 591 491

C591 493 590 495 589 497

C585 500 585 502 589 505

C591 508 591 508 591 516

C590 526 590 526 591 539

C591 548 591 549 589 551

C586 554 586 556 589 559

C591 561 591 562 591 576

L591 591

L568 591

C549 591 545 591 545 590

C545 588 542 585 539 585

C536 585 533 588 533 590

C533 591 524 591 500 591

C472 591 466 591 466 590

C466 588 463 585 460 585

C458 585 456 586 455 588

L454 591

L421 591

L389 591

L389 588

C388 585 383 583 380 586

C379 586 378 588 377 589

C377 591 375 591 352 591

L328 591

L326 588

C325 586 323 585 321 585

C318 585 315 587 315 590

C315 591 313 591 303 591

L291 591

L292 588

C292 585 289 581 286 581

C283 581 280 585 280 588

L281 591

L271 591

C266 591 262 591 262 590

C262 588 259 586 256 586

C254 586 253 587 251 589

L250 591

L217 591

C188 591 184 591 182 589

C179 588 179 588 176 589

C174 590 172 591 170 591

C168 591 168 591 169 588

C169 585 166 581 163 581

C160 581 157 585 157 588

L158 591

L148 591

C139 591 137 591 136 589

C135 588 134 587 132 587

C131 587 128 588 128 589

C126 591 124 591 98 591

L71 591

L71 588

C72 585 68 581 65 582

C62 582 60 585 60 588

L61 591

L30 591

L0 591

L0 576

Z

M105 588

C108 586 107 582 105 580

C102 577 100 577 97 581

C94 584 94 585 97 588

C99 590 103 591 105 588

Z

M344 587

C348 584 345 577 340 577

C337 577 334 581 334 583

C334 585 337 589 340 589

C341 589 343 588 344 587

Z

M512 587

C514 585 513 580 511 579

C510 577 506 577 504 578

C501 580 502 586 505 588

C507 589 509 589 512 587

Z

M36 586

C41 582 36 574 30 577

C25 579 26 588 32 588

C33 588 35 587 36 586

Z

M220 585

C222 583 221 578 219 577

C216 573 210 576 210 581

C210 586 215 588 220 585

Z

M422 586

C425 584 425 581 423 578

C422 576 420 575 419 575

C416 575 413 578 413 581

C413 586 418 589 422 586

Z

M12 584

C16 581 13 574 8 574

C6 574 3 577 3 580

C3 585 8 588 12 584

Z

M127 582

C128 581 129 579 129 578

C129 575 126 572 123 572

C120 572 117 575 117 578

C117 581 120 584 123 584

C124 584 126 583 127 582

Z

M559 582

C563 578 561 572 556 572

C550 572 548 579 552 582

C555 584 557 584 559 582

Z

M152 581

C157 578 151 568 145 572

C144 573 142 577 143 578

C145 583 148 584 152 581

Z

M398 581

C400 579 399 574 397 573

C394 569 388 572 388 577

C388 582 394 584 398 581

Z

M471 580

C475 577 472 571 466 571

C465 571 463 572 462 574

C461 576 461 577 462 579

C464 582 468 583 471 580

Z

M327 579

C330 576 329 572 326 570

C324 569 323 569 321 570

C316 573 318 581 323 581

C325 581 326 580 327 579

Z

M539 578

C542 575 542 573 539 570

C537 568 533 567 531 570

C528 572 529 576 531 578

C534 581 536 581 539 578

Z

M575 578

C577 577 578 572 575 570

C572 566 567 568 566 573

C565 574 566 576 567 577

C570 580 572 581 575 578

Z

M60 577

C64 575 62 567 57 567

C51 567 49 574 53 577

C56 579 57 579 60 577

Z

M195 577

C199 574 197 567 192 567

C186 567 184 574 188 577

C191 579 192 579 195 577

Z

M501 576

C501 575 502 573 502 572

C502 565 493 564 491 571

C490 574 494 578 497 577

C498 577 500 576 501 576

Z

M365 573

C366 572 367 570 367 569

C367 566 364 563 361 563

C358 563 355 566 355 569

C355 572 358 575 361 575

C362 575 364 574 365 573

Z

M486 573

C488 569 487 567 484 565

C482 563 481 563 479 564

C476 566 475 567 475 569

C475 575 483 577 486 573

Z

M107 572

C110 570 109 566 107 564

C104 561 102 561 99 564

C96 567 96 569 99 572

C101 574 105 575 107 572

Z

M259 572

C260 572 260 570 260 569

C260 567 260 565 259 565

C258 563 252 563 250 564

C249 566 249 571 251 572

C253 574 257 574 259 572

Z

M29 571

C33 568 30 562 25 562

C22 562 19 565 19 568

C19 572 26 575 29 571

Z

M275 571

C279 568 277 562 271 562

C270 562 268 563 267 564

C265 567 265 568 267 571

C268 573 273 574 275 571

Z

M292 570

C296 567 294 560 289 560

C283 560 281 567 285 570

C286 571 288 572 289 572

C289 572 291 571 292 570

Z

M380 570

C384 567 381 560 376 560

C374 560 370 564 370 566

C370 568 374 572 376 572

C377 572 379 571 380 570

Z

M431 570

C432 569 433 567 433 566

C433 563 430 560 427 560

C424 560 421 563 421 566

C421 569 424 572 427 572

C428 572 430 571 431 570

Z

M588 570

C590 568 590 565 588 563

C586 560 581 561 579 564

C578 566 578 567 579 569

C581 572 586 573 588 570

Z

M242 569

C245 566 244 563 241 561

C236 557 229 564 234 569

C236 572 241 572 242 569

Z

M139 568

C144 563 137 555 132 559

C129 562 129 565 131 567

C134 571 136 571 139 568

Z

M310 566

C313 564 312 560 310 558

C307 555 305 555 302 558

C299 561 299 563 302 566

C304 568 308 569 310 566

Z

M352 565

C353 563 353 562 352 560

C349 555 341 557 341 563

C341 568 349 570 352 565

Z

M181 564

C182 563 183 561 183 560

C183 557 180 554 177 554

C174 554 171 557 171 560

C171 563 174 566 177 566

C178 566 180 565 181 564

Z

M227 561

C228 559 228 558 227 556

C224 551 216 553 216 559

C216 564 224 566 227 561

Z

M53 561

C54 560 55 558 55 557

C55 554 52 551 49 551

C46 551 43 554 43 557

C43 560 46 563 49 563

C50 563 52 562 53 561

Z

M543 561

C544 560 545 558 545 557

C545 556 544 554 543 553

C542 552 540 551 539 551

C538 551 536 552 535 553

C534 554 533 556 533 557

C533 558 534 560 535 561

C536 562 538 563 539 563

C540 563 542 562 543 561

Z

M575 560

C578 558 578 553 575 552

C572 549 569 550 567 553

C563 558 570 565 575 560

Z

M392 557

C393 555 393 554 392 552

C389 547 381 549 381 555

C381 560 389 562 392 557

Z

M325 557

C327 556 328 551 325 549

C322 545 317 547 316 552

C315 553 316 555 317 556

C320 559 322 560 325 557

Z

M22 557

C23 556 25 553 25 551

C25 549 21 546 19 546

C13 546 11 553 15 556

C18 558 20 558 22 557

Z

M111 556

C115 554 113 546 108 546

C102 546 100 554 105 557

C107 558 108 558 111 556

Z

M441 556

C442 555 443 553 443 552

C443 549 440 546 437 546

C434 546 431 549 431 552

C431 555 434 558 437 558

C438 558 440 557 441 556

Z

M128 554

C131 550 128 545 123 545

C120 545 119 546 118 550

C117 553 121 557 124 556

C125 556 127 555 128 554

Z

M558 555

C562 552 560 545 555 545

C549 545 547 552 551 555

C552 556 554 557 555 557

C555 557 557 556 558 555

Z

M252 554

C254 551 255 549 252 546

C251 544 246 543 244 546

C240 549 243 555 248 556

C249 556 250 555 252 554

Z

M286 555

C289 552 289 549 287 547

C284 543 282 543 279 546

C274 551 281 559 286 555

Z

M343 553

C346 551 346 547 343 544

C337 541 332 546 334 551

C335 555 339 556 343 553

Z

M414 550

C418 547 415 540 410 540

C408 540 405 543 405 546

C405 551 410 554 414 550

Z

M310 549

C315 545 310 537 304 540

C299 542 300 551 306 551

C307 551 309 550 310 549

Z

M216 547

C217 545 217 544 216 542

C213 537 205 539 205 544

C205 550 213 552 216 547

Z

M526 548

C529 545 528 541 525 539

C523 538 522 538 520 539

C515 542 517 550 522 550

C524 550 525 549 526 548

Z

M588 546

C589 544 589 543 588 541

C585 536 577 538 577 544

C577 549 585 551 588 546

Z

M272 546

C277 542 271 534 265 537

C262 540 262 543 263 546

C265 548 269 549 272 546

Z

M456 546

C457 545 458 543 458 542

C458 539 455 536 452 536

C449 536 446 539 446 542

C446 545 449 548 452 548

C453 548 455 547 456 546

Z

M49 544

C50 542 50 541 49 539

C46 534 38 536 38 542

C38 547 46 549 49 544

Z

M238 543

C242 538 234 531 229 536

C226 539 226 541 230 544

C232 546 235 546 238 543

Z

M392 544

C392 544 393 542 394 541

C395 539 395 538 393 536

C391 533 389 532 385 534

C383 536 382 540 385 543

C386 545 390 546 392 544

Z

M509 543

C513 541 511 533 506 533

C500 533 498 538 501 542

C503 545 506 546 509 543

Z

M570 542

C574 538 571 532 565 533

C563 533 560 536 560 538

C560 543 566 546 570 542

Z

M116 541

C120 539 118 531 113 531

C109 531 107 533 107 536

C107 540 110 543 113 543

C113 543 115 542 116 541

Z

M177 541

C178 540 179 538 179 537

C179 534 176 531 173 531

C170 531 167 534 167 537

C167 540 170 543 173 543

C174 543 176 542 177 541

Z

M297 540

C298 538 298 537 297 535

C294 530 286 532 286 538

C286 543 294 545 297 540

Z

M473 541

C477 538 475 532 469 532

C468 532 466 533 465 534

C463 537 463 538 465 541

C466 543 471 544 473 541

Z

M491 541

C495 538 493 531 488 531

C482 531 480 538 484 541

C485 542 487 543 488 543

C488 543 490 542 491 541

Z

M24 538

C25 537 26 535 26 534

C26 532 22 528 20 528

C17 528 14 532 14 534

C14 539 20 542 24 538

Z

M154 537

C155 536 156 534 156 533

C156 530 153 527 150 527

C147 527 144 530 144 533

C144 536 148 539 150 539

C151 539 153 538 154 537

Z

M257 538

C257 537 258 535 258 534

C258 530 256 528 253 528

C249 528 247 530 247 534

C247 537 249 539 253 539

C254 539 256 538 257 538

Z

M345 537

C347 535 348 532 345 530

C342 526 335 529 335 533

C335 538 341 541 345 537

Z

M555 534

C559 531 556 524 552 524

C547 524 544 530 548 534

C550 536 553 537 555 534

Z

M281 533

C284 531 283 527 281 525

C278 522 276 522 273 525

C270 528 270 530 273 533

C275 535 279 536 281 533

Z

M211 532

C215 528 212 522 207 522

C205 522 201 525 201 528

C201 530 205 534 207 534

C208 534 210 533 211 532

Z

M417 532

C421 528 418 522 413 522

C410 522 407 526 407 528

C407 531 410 534 413 534

C414 534 416 533 417 532

Z

M580 532

C584 530 582 522 577 522

C571 522 569 529 573 532

C574 533 576 534 577 534

C577 534 579 533 580 532

Z

M44 528

C45 527 46 525 45 524

C45 521 42 519 40 519

C34 519 32 526 36 529

C39 532 41 531 44 528

Z

M95 529

C96 526 96 523 93 520

C87 517 81 524 86 529

C88 532 93 532 95 529

Z

M385 529

C387 527 388 524 385 522

C382 518 375 521 375 525

C375 530 381 533 385 529

Z

M439 528

C443 525 441 518 435 518

C430 518 428 525 432 528

C433 529 435 530 436 530

C436 530 438 529 439 528

Z

M69 527

C72 524 72 522 68 519

C66 517 63 517 60 520

C56 525 64 532 69 527

Z

M244 527

C244 526 245 524 245 522

C245 519 243 517 239 517

C236 517 234 519 234 523

C234 526 236 528 240 528

C241 528 243 527 244 527

Z

M355 526

C359 523 356 516 352 516

C349 516 346 519 346 522

C346 527 351 530 355 526

Z

M266 524

C269 522 268 517 265 515

C263 514 262 514 260 515

C258 516 257 518 257 519

C257 525 263 528 266 524

Z

M542 522

C543 520 543 519 542 517

C539 512 531 514 531 519

C531 526 539 527 542 522

Z

M371 523

C372 522 373 520 373 519

C373 516 370 513 367 513

C364 513 361 516 361 519

C361 522 364 525 367 525

C368 525 370 524 371 523

Z

M166 522

C169 520 168 515 165 513

C163 512 162 512 160 513

C156 515 156 521 159 523

C161 524 165 524 166 522

Z

M329 519

C332 517 332 512 329 510

C324 508 320 510 320 515

C320 518 323 521 326 521

C326 521 328 520 329 519

Z

M112 517

C116 513 113 507 108 507

C106 507 102 510 102 513

C102 515 106 519 108 519

C109 519 111 518 112 517

Z

M501 517

C505 514 502 508 497 508

C495 508 491 511 491 513

C491 518 498 521 501 517

Z

M395 516

C396 515 397 513 397 512

C397 511 396 509 395 508

C394 507 392 506 391 506

C390 506 388 507 387 508

C386 509 385 511 385 512

C385 515 388 518 391 518

C392 518 394 517 395 516

Z

M583 517

C586 515 586 510 584 508

C582 506 578 506 576 508

C574 510 574 514 576 516

C577 518 581 518 583 517

Z

M210 516

C213 515 214 511 213 508

C210 505 207 505 204 506

C198 510 204 519 210 516

Z

M422 516

C425 513 425 510 423 507

C420 505 417 505 414 508

C410 513 417 520 422 516

Z

M469 515

C470 512 470 509 467 506

C461 503 455 510 460 515

C462 518 467 518 469 515

Z

M35 514

C38 512 38 507 35 505

C32 504 29 504 26 507

C23 513 30 519 35 514

Z

M255 513

C258 509 255 504 250 504

C247 504 244 507 244 510

C244 511 245 513 247 514

C250 516 253 516 255 513

Z

M233 513

C237 510 234 504 228 504

C227 504 225 505 224 507

C223 509 223 510 224 512

C226 515 230 516 233 513

Z

M530 511

C533 508 532 504 529 502

C527 501 526 501 524 502

C519 505 521 513 526 513

C528 513 529 512 530 511

Z

M298 510

C300 509 301 504 298 502

C295 498 290 500 289 505

C288 506 289 508 290 509

C293 512 295 513 298 510

Z

M154 508

C158 505 156 498 151 498

C145 498 143 505 147 508

C148 509 150 510 151 510

C151 510 153 509 154 508

Z

M446 508

C448 506 448 502 446 500

C444 498 440 498 438 500

C436 502 436 506 438 508

C440 510 444 510 446 508

Z

M23 504

C26 501 26 499 23 496

C21 494 17 493 15 496

C12 498 13 502 15 504

C18 507 20 507 23 504

Z

M72 504

C73 501 73 498 70 495

C64 492 58 499 63 504

C65 507 70 507 72 504

Z

M318 504

C321 501 320 497 317 495

C315 494 314 494 312 495

C307 498 309 506 314 506

C316 506 317 505 318 504

Z

M385 503

C387 501 388 497 385 495

C383 492 379 493 377 495

C374 498 374 500 377 503

C380 506 382 506 385 503

Z

M484 503

C488 500 486 493 481 493

C475 493 473 500 477 503

C478 504 480 505 481 505

C481 505 483 504 484 503

Z

M244 501

C246 499 246 498 245 496

C243 493 242 492 240 492

C234 492 232 499 236 502

C239 505 242 504 244 501

Z

M403 500

C404 498 404 497 403 495

C400 490 392 492 392 497

C392 503 400 505 403 500

Z

M221 501

C221 500 222 498 222 497

C222 493 220 491 217 491

C213 491 211 493 211 497

C211 500 213 502 217 502

C218 502 220 501 221 501

Z

M521 496

C525 493 522 487 517 487

C514 487 511 490 511 493

C511 497 518 500 521 496

Z

M462 494

C463 494 463 492 463 491

C463 487 461 485 457 485

C454 485 452 487 452 491

C452 495 459 498 462 494

Z

M110 493

C113 490 112 485 107 484

C105 483 100 486 100 489

C100 494 106 497 110 493

Z

M142 493

C147 490 141 480 135 484

C134 485 132 489 133 490

C135 495 138 496 142 493

Z

M374 492

C376 490 375 485 373 484

C370 480 364 483 364 488

C364 493 369 495 374 492

Z

M54 490

C55 489 56 487 56 486

C56 480 49 478 46 482

C43 485 44 487 46 490

C49 493 51 493 54 490

Z

M95 490

C97 488 97 487 96 484

C94 479 90 479 87 482

C85 484 84 488 87 490

C89 493 93 492 95 490

Z

M335 490

C340 486 334 478 328 481

C325 484 325 487 326 490

C328 492 332 493 335 490

Z

M233 489

C235 487 235 484 233 482

C231 479 226 480 224 483

C223 485 223 486 224 488

C226 491 231 492 233 489

Z

M310 490

C313 488 313 483 311 481

C309 479 305 478 303 481

C300 483 301 487 303 489

C305 491 308 492 310 490

Z

M438 489

C439 488 440 486 440 485

C440 484 439 482 438 481

C437 480 435 479 434 479

C433 479 431 480 430 481

C429 482 428 484 428 485

C428 486 429 488 430 489

C431 490 433 491 434 491

C435 491 437 490 438 489

Z

M411 488

C414 486 413 481 410 479

C408 478 407 478 405 479

C403 480 402 482 402 483

C402 489 408 492 411 488

Z

M124 487

C128 485 126 477 121 477

C115 477 113 482 116 486

C118 489 121 490 124 487

Z

M175 486

C179 483 176 477 170 477

C169 477 167 478 166 480

C165 482 165 483 166 485

C168 488 172 489 175 486

Z

M495 486

C496 485 497 483 497 482

C497 481 496 479 495 478

C494 477 492 476 491 476

C490 476 488 477 487 478

C486 479 485 481 485 482

C485 483 486 485 487 486

C488 487 490 488 491 488

C492 488 494 487 495 486

Z

M564 483

C568 480 565 474 559 474

C558 474 556 475 555 477

C554 479 554 480 555 482

C557 485 561 486 564 483

Z

M195 481

C198 479 198 474 195 472

C192 471 189 471 186 474

C183 480 190 486 195 481

Z

M295 481

C299 478 296 472 290 472

C289 472 287 473 286 475

C285 477 285 478 286 480

C288 483 292 484 295 481

Z

M389 481

C391 477 390 475 387 473

C382 469 376 475 379 481

C382 484 386 484 389 481

Z

M548 482

C551 480 551 475 548 473

C545 471 544 471 541 473

C539 474 538 479 541 481

C543 483 546 484 548 482

Z

M362 480

C364 478 364 475 362 473

C360 470 355 471 353 474

C352 476 352 477 353 479

C355 482 360 483 362 480

Z

M514 479

C518 474 511 467 506 472

C503 474 504 478 506 480

C509 483 511 483 514 479

Z

M154 479

C155 478 156 476 156 475

C156 473 152 469 150 469

C147 469 144 473 144 475

C144 480 150 483 154 479

Z

M279 480

C282 478 282 475 280 472

C279 470 277 469 276 469

C273 469 270 472 270 475

C270 480 275 483 279 480

Z

M85 478

C86 475 86 472 84 471

C83 469 78 469 76 470

C75 472 75 477 76 479

C78 481 84 480 85 478

Z

M426 479

C426 478 427 476 427 475

C427 473 426 471 426 470

C425 470 423 469 422 469

C420 469 418 470 417 470

C417 471 416 473 416 475

C416 476 417 478 417 479

C418 479 420 480 422 480

C423 480 425 479 426 479

Z

M15 476

C19 473 17 466 12 466

C6 466 4 473 8 476

C9 477 11 478 12 478

C12 478 14 477 15 476

Z

M579 476

C581 473 580 470 576 467

C573 465 568 468 568 472

C568 478 576 480 579 476

Z

M224 476

C229 473 228 465 222 465

C216 465 214 472 218 475

C221 477 221 477 224 476

Z

M309 474

C312 471 311 468 308 466

C303 462 296 469 301 474

C303 477 308 477 309 474

Z

M132 473

C136 470 133 464 128 464

C125 464 122 467 122 469

C122 474 128 477 132 473

Z

M402 470

C405 468 404 463 401 461

C399 460 398 460 396 461

C394 462 393 464 393 465

C393 471 399 474 402 470

Z

M537 470

C540 468 539 463 536 461

C534 460 533 460 531 461

C528 463 527 468 530 470

C532 472 535 472 537 470

Z

M441 468

C444 464 441 459 436 459

C433 459 430 462 430 465

C430 466 431 468 433 469

C436 471 439 471 441 468

Z

M268 468

C271 466 270 461 267 459

C265 458 264 458 262 459

C260 460 259 462 259 463

C259 469 265 472 268 468

Z

M352 468

C353 467 354 466 354 464

C354 460 352 458 349 458

C345 458 343 460 343 463

C343 468 347 470 352 468

Z

M32 464

C36 461 34 456 29 455

C28 454 26 455 25 456

C21 459 21 461 24 464

C26 466 30 467 32 464

Z

M380 464

C381 464 381 462 381 461

C381 457 379 455 376 455

C371 455 369 459 371 464

C372 466 378 467 380 464

Z

M82 464

C82 464 83 462 84 461

C85 459 85 458 83 456

C81 453 79 452 75 454

C73 456 72 460 75 463

C76 465 80 466 82 464

Z

M509 462

C512 460 511 455 508 453

C506 452 505 452 503 453

C501 454 500 456 500 457

C500 463 506 466 509 462

Z

M586 461

C587 459 587 458 586 456

C583 451 575 453 575 458

C575 464 583 466 586 461

Z

M159 459

C160 457 160 456 159 454

C156 449 148 451 148 456

C148 462 156 464 159 459

Z

M317 460

C319 456 318 454 315 452

C313 450 312 450 310 451

C307 453 306 454 306 456

C306 462 314 464 317 460

Z

M220 459

C222 457 223 454 220 452

C217 448 210 451 210 455

C210 460 216 463 220 459

Z

M130 458

C134 455 132 448 126 448

C122 448 119 454 123 458

C125 460 127 460 130 458

Z

M470 457

C471 456 472 454 472 453

C472 452 471 450 470 449

C469 448 467 447 466 447

C465 447 463 448 462 449

C461 450 460 452 460 453

C460 454 461 456 462 457

C463 458 465 459 466 459

C467 459 469 458 470 457

Z

M399 455

C403 452 400 446 394 446

C393 446 391 447 390 449

C389 451 389 452 390 454

C392 457 397 458 399 455

Z

M451 456

C451 455 452 453 452 452

C452 450 451 448 451 447

C450 447 448 446 447 446

C445 446 443 447 442 447

C442 448 441 450 441 452

C441 453 442 455 442 456

C443 456 445 457 447 457

C448 457 450 456 451 456

Z

M535 455

C536 454 537 452 537 451

C537 448 534 445 531 445

C528 445 525 448 525 451

C525 454 528 457 531 457

C532 457 534 456 535 455

Z

M59 454

C63 451 61 445 55 445

C54 445 52 446 51 447

C49 450 49 451 51 454

C52 456 57 457 59 454

Z

M266 453

C268 451 269 448 266 445

C264 442 260 442 257 445

C253 452 261 458 266 453

Z

M344 453

C345 452 346 451 346 449

C346 444 338 442 335 447

C334 449 334 450 335 452

C337 455 341 456 344 453

Z

M489 452

C492 449 489 443 484 443

C478 443 476 451 481 454

C484 455 487 454 489 452

Z

M23 451

C25 448 26 446 23 443

C22 441 17 440 15 443

C11 446 14 452 19 453

C20 453 21 452 23 451

Z

M91 450

C92 448 92 443 90 442

C89 440 84 440 82 441

C81 443 81 448 82 450

C83 450 85 451 87 451

C88 451 90 450 91 450

Z

M379 448

C383 444 381 438 376 438

C370 438 368 445 372 448

C375 450 377 450 379 448

Z

M179 447

C182 445 181 441 179 439

C176 436 172 436 170 441

C169 444 169 445 171 447

C173 449 177 450 179 447

Z

M414 447

C417 444 416 440 413 438

C411 437 410 437 408 438

C406 440 405 441 405 443

C405 449 411 451 414 447

Z

M582 447

C585 445 585 440 582 438

C578 436 576 437 574 440

C572 442 572 443 573 445

C575 449 579 450 582 447

Z

M120 446

C122 443 122 441 120 439

C117 435 110 437 110 442

C110 448 117 450 120 446

Z

M313 445

C318 442 312 432 306 436

C305 437 303 441 304 442

C306 447 309 448 313 445

Z

M215 444

C219 441 217 434 211 434

C206 434 204 440 208 444

C210 446 212 446 215 444

Z

M510 445

C510 444 511 442 511 441

C511 439 510 437 510 436

C509 436 507 435 506 435

C504 435 502 436 501 436

C500 438 500 443 502 444

C503 446 508 446 510 445

Z

M103 444

C106 443 107 439 106 436

C103 433 100 433 97 434

C91 438 97 447 103 444

Z

M158 441

C160 440 161 435 158 433

C155 429 150 431 149 436

C148 437 149 439 150 440

C153 443 155 444 158 441

Z

M542 441

C543 440 544 438 544 437

C544 434 541 431 538 431

C535 431 532 434 532 437

C532 440 535 443 538 443

C539 443 541 442 542 441

Z

M273 439

C274 438 275 436 275 435

C275 434 274 432 273 431

C272 430 270 429 269 429

C268 429 266 430 265 431

C264 432 263 434 263 435

C263 436 264 438 265 439

C266 440 268 441 269 441

C270 441 272 440 273 439

Z

M401 439

C405 436 402 430 396 430

C395 430 393 431 392 433

C391 435 391 436 392 438

C394 441 399 442 401 439

Z

M339 437

C343 434 340 428 335 428

C332 428 330 430 330 434

C330 435 330 437 331 437

C333 439 337 439 339 437

Z

M453 437

C455 435 455 432 453 430

C451 427 446 428 444 431

C443 433 443 434 444 436

C446 439 451 440 453 437

Z

M16 436

C19 433 18 429 15 427

C13 426 12 426 10 427

C8 428 7 430 7 432

C7 437 13 440 16 436

Z

M571 436

C574 434 574 429 571 428

C568 425 565 426 563 429

C559 434 566 441 571 436

Z

M51 435

C52 433 53 431 53 431

C53 428 49 425 47 425

C41 425 39 432 43 435

C46 438 48 437 51 435

Z

M429 435

C431 432 431 430 429 428

C426 424 419 427 419 431

C419 437 426 439 429 435

Z

M302 434

C307 431 303 423 297 424

C294 425 292 429 293 432

C294 436 298 437 302 434

Z

M556 434

C559 431 559 429 556 426

C554 424 550 423 548 426

C545 428 546 432 548 434

C551 437 553 437 556 434

Z

M287 432

C289 429 290 427 287 424

C286 422 281 421 279 424

C275 427 278 433 283 434

C284 434 285 433 287 432

Z

M475 432

C479 429 476 422 472 422

C466 422 464 429 468 432

C471 434 473 434 475 432

Z

M373 430

C374 430 374 428 374 427

C374 423 372 421 369 421

C364 421 362 425 364 430

C365 432 371 433 373 430

Z

M211 429

C215 425 212 419 207 419

C205 419 201 422 201 425

C201 427 205 431 207 431

C208 431 210 430 211 429

Z

M512 427

C513 426 514 424 513 423

C513 420 510 418 508 418

C502 418 500 425 504 428

C507 431 509 430 512 427

Z

M391 426

C393 423 394 421 391 418

C390 416 385 415 383 418

C379 421 382 427 387 428

C388 428 389 427 391 426

Z

M185 424

C188 421 187 417 184 415

C182 414 181 414 179 415

C174 418 176 426 181 426

C183 426 184 425 185 424

Z

M406 423

C407 421 407 417 405 416

C403 413 398 414 396 417

C393 423 401 428 406 423

Z

M337 421

C339 419 339 416 337 414

C335 411 330 412 328 415

C327 417 327 418 328 420

C330 423 335 424 337 421

Z

M449 422

C449 421 450 419 450 417

C450 414 448 412 444 412

C441 412 439 414 439 418

C439 419 440 421 440 422

C441 422 443 423 445 423

C446 423 448 422 449 422

Z

M63 420

C64 418 64 413 62 412

C61 410 56 410 54 411

C54 412 53 414 53 416

C53 419 55 421 59 421

C60 421 62 420 63 420

Z

M261 418

C264 414 261 409 256 409

C253 409 250 412 250 415

C250 416 251 418 253 419

C256 421 259 421 261 418

Z

M362 419

C364 417 365 413 362 411

C360 408 356 409 354 411

C351 414 351 416 354 419

C357 422 359 422 362 419

Z

M41 417

C42 416 43 414 42 413

C42 410 39 408 37 408

C31 408 29 415 33 418

C36 421 38 420 41 417

Z

M83 418

C86 415 85 411 82 409

C80 408 79 408 77 409

C72 412 74 420 79 420

C81 420 82 419 83 418

Z

M486 416

C486 415 487 414 487 413

C487 407 480 405 477 409

C474 412 475 414 478 417

C480 419 483 419 486 416

Z

M320 416

C324 413 321 406 317 406

C312 406 309 412 313 416

C315 418 318 419 320 416

Z

M553 416

C555 414 555 410 553 408

C553 407 551 407 550 407

C546 407 544 409 544 413

C544 418 550 420 553 416

Z

M157 415

C158 414 159 412 159 411

C159 409 156 405 153 405

C150 405 147 408 147 411

C147 414 150 417 153 417

C154 417 156 416 157 415

Z

M207 414

C211 411 209 404 204 404

C198 404 196 411 200 414

C201 415 203 416 204 416

C204 416 206 415 207 414

Z

M434 414

C438 412 436 404 431 404

C425 404 423 411 427 414

C428 415 430 416 431 416

C431 416 433 415 434 414

Z

M574 414

C577 412 576 408 574 406

C571 403 569 403 566 406

C563 409 563 411 566 414

C568 416 572 417 574 414

Z

M519 413

C521 409 520 406 516 404

C514 403 513 403 511 404

C506 407 508 415 514 415

C516 415 517 414 519 413

Z

M128 412

C132 409 129 402 125 402

C120 402 117 408 121 412

C123 414 126 415 128 412

Z

M419 413

C419 412 420 410 420 409

C420 407 419 405 419 404

C418 404 416 403 415 403

C413 403 411 404 410 404

C410 405 409 407 409 409

C409 410 410 412 410 413

C411 413 413 414 415 414

C416 414 418 413 419 413

Z

M464 410

C468 408 466 400 461 400

C457 400 455 402 455 405

C455 409 458 412 461 412

C461 412 463 411 464 410

Z

M389 409

C393 406 390 399 385 399

C383 399 380 402 380 405

C380 410 385 413 389 409

Z

M282 408

C286 405 283 399 278 399

C273 399 271 404 274 409

C276 411 281 410 282 408

Z

M298 406

C301 404 301 399 298 397

C295 396 292 396 289 399

C286 405 293 411 298 406

Z

M344 405

C348 402 345 396 339 396

C338 396 336 397 335 399

C334 401 334 402 335 404

C337 407 342 408 344 405

Z

M266 402

C267 401 268 399 267 398

C267 395 264 393 262 393

C256 393 254 400 258 403

C261 406 263 405 266 402

Z

M405 402

C406 400 406 399 405 397

C402 392 394 394 394 399

C394 405 402 407 405 402

Z

M186 402

C190 399 187 393 181 393

C180 393 178 394 177 396

C176 398 176 399 177 401

C179 404 183 405 186 402

Z

M376 400

C377 399 378 397 378 396

C378 395 377 393 376 392

C375 391 373 390 372 390

C371 390 369 391 368 392

C367 393 366 395 366 396

C366 397 367 399 368 400

C369 401 371 402 372 402

C373 402 375 401 376 400

Z

M360 399

C362 397 361 392 359 391

C358 389 354 389 352 390

C349 392 350 398 353 400

C355 401 357 401 360 399

Z

M320 398

C324 396 322 388 317 388

C311 388 309 395 313 398

C314 399 316 400 317 400

C317 400 319 399 320 398

Z

M209 397

C213 394 210 388 204 388

C203 388 201 389 200 391

C199 393 199 394 200 396

C202 399 206 400 209 397

Z

M527 397

C530 392 527 388 522 388

C520 388 518 389 517 391

C516 393 516 394 517 396

C520 400 525 400 527 397

Z

M563 397

C566 391 559 385 554 390

C552 392 551 394 553 397

C555 400 560 400 563 397

Z

M489 396

C490 395 491 393 491 392

C491 391 490 389 489 388

C488 387 486 386 485 386

C484 386 482 387 481 388

C480 389 479 391 479 392

C479 393 480 395 481 396

C482 397 484 398 485 398

C486 398 488 397 489 396

Z

M83 394

C85 392 86 389 83 387

C80 383 73 386 73 390

C73 395 79 398 83 394

Z

M473 394

C476 392 476 387 473 385

C468 382 464 385 464 390

C464 392 465 394 467 395

C470 396 470 396 473 394

Z

M100 393

C101 391 102 389 102 389

C102 386 98 383 96 383

C90 383 88 390 92 393

C95 396 97 395 100 393

Z

M161 393

C162 392 163 390 163 389

C163 388 162 386 161 385

C160 384 158 383 157 383

C156 383 154 384 153 385

C152 386 151 388 151 389

C151 390 152 392 153 393

C154 394 156 395 157 395

C158 395 160 394 161 393

Z

M64 393

C67 391 68 390 68 388

C68 382 61 380 58 384

C55 387 56 389 58 392

C61 394 61 394 64 393

Z

M28 390

C30 388 29 383 27 382

C24 378 18 381 18 386

C18 391 23 393 28 390

Z

M48 388

C49 386 49 384 47 381

C44 377 37 380 37 385

C37 386 38 388 39 389

C41 391 46 391 48 388

Z

M222 389

C225 387 226 384 223 381

C222 379 217 378 215 381

C211 384 214 390 219 391

C219 391 221 390 222 389

Z

M238 389

C242 386 240 379 235 379

C229 379 227 386 231 389

C232 390 234 391 235 391

C235 391 237 390 238 389

Z

M286 389

C290 387 288 379 283 379

C277 379 275 386 279 389

C280 390 282 391 283 391

C283 391 285 390 286 389

Z

M503 388

C506 385 506 384 503 381

C501 379 497 378 495 381

C492 383 493 387 495 389

C498 392 500 392 503 388

Z

M115 387

C119 384 117 377 111 377

C106 377 104 384 108 387

C109 388 111 389 112 389

C112 389 114 388 115 387

Z

M406 387

C410 384 407 378 402 378

C399 378 396 381 396 384

C396 388 403 391 406 387

Z

M462 383

C466 380 464 373 459 373

C453 373 451 380 455 383

C456 384 458 385 459 385

C459 385 461 384 462 383

Z

M579 380

C583 378 581 370 576 370

C570 370 568 377 572 380

C573 381 575 382 576 382

C576 382 578 381 579 380

Z

M211 379

C214 374 211 370 206 370

C201 371 199 375 201 379

C204 382 209 382 211 379

Z

M251 379

C255 376 252 370 246 370

C245 370 243 371 242 373

C241 375 241 376 242 378

C244 381 249 382 251 379

Z

M562 378

C563 377 564 375 563 374

C563 371 560 369 558 369

C552 369 550 376 554 379

C557 382 559 381 562 378

Z

M187 378

C191 375 188 369 182 369

C181 369 179 370 178 372

C177 374 177 375 178 377

C180 380 184 381 187 378

Z

M305 377

C306 375 306 374 305 372

C302 367 294 369 294 374

C294 380 302 382 305 377

Z

M368 377

C369 376 370 374 370 374

C370 371 366 367 364 367

C361 367 358 370 358 373

C358 378 364 381 368 377

Z

M164 375

C165 374 166 373 166 372

C166 365 158 364 155 369

C152 375 160 379 164 375

Z

M351 375

C352 374 353 372 353 371

C353 370 352 368 351 367

C350 366 348 365 347 365

C346 365 344 366 343 367

C342 368 341 370 341 371

C341 372 342 374 343 375

C344 376 346 377 347 377

C348 377 350 376 351 375

Z

M509 376

C512 374 512 369 510 367

C508 365 505 364 502 367

C499 369 499 372 502 375

C504 377 507 378 509 376

Z

M67 375

C68 374 69 373 69 371

C69 367 67 365 64 365

C60 365 58 367 58 370

C58 375 62 377 67 375

Z

M129 373

C130 371 130 370 129 368

C126 363 118 365 118 370

C118 376 126 378 129 373

Z

M322 373

C325 369 322 364 317 364

C315 364 314 365 312 367

C308 373 317 379 322 373

Z

M289 372

C292 370 292 365 289 363

C286 362 283 362 280 365

C277 371 284 377 289 372

Z

M409 372

C412 370 411 365 408 363

C406 362 405 362 403 363

C400 365 399 370 402 372

C404 374 407 374 409 372

Z

M32 370

L34 367

L32 364

C31 363 29 361 28 361

C23 360 20 368 24 371

C27 374 30 373 32 370

Z

M105 371

C108 368 107 365 104 363

C99 359 92 366 97 371

C99 374 104 374 105 371

Z

M546 371

C550 368 547 362 541 362

C540 362 538 363 537 365

C536 367 536 368 537 370

C539 373 543 374 546 371

Z

M51 370

C54 368 54 364 51 361

C47 359 44 360 42 364

C41 367 41 368 43 370

C45 372 48 373 51 370

Z

M384 370

C385 369 386 367 386 367

C386 364 382 360 380 360

C377 360 374 363 374 366

C374 371 380 374 384 370

Z

M460 367

C462 364 462 362 460 360

C457 356 450 358 450 363

C450 369 457 371 460 367

Z

M338 366

C342 363 339 356 335 356

C329 356 327 363 331 366

C334 368 336 368 338 366

Z

M205 365

C209 362 207 355 202 355

C196 355 194 362 198 365

C199 366 201 367 202 367

C202 367 204 366 205 365

Z

M254 366

C260 363 258 355 252 355

C246 355 244 364 250 366

C251 367 252 367 252 367

C252 367 253 366 254 366

Z

M91 363

C94 359 91 354 86 354

C84 354 83 355 81 357

C77 363 86 369 91 363

Z

M574 362

C577 360 577 355 574 354

C571 351 569 352 566 354

C563 357 563 359 566 362

C568 364 572 365 574 362

Z

M75 361

C76 360 77 358 77 357

C77 355 73 351 71 351

C68 351 65 355 65 357

C65 362 71 365 75 361

Z

M303 361

C306 359 305 355 303 353

C300 350 296 350 294 355

C293 358 293 359 295 361

C297 363 301 364 303 361

Z

M397 360

C399 358 400 355 397 353

C394 349 387 352 387 356

C387 361 393 364 397 360

Z

M279 359

C280 358 281 356 281 355

C281 354 280 352 279 351

C278 350 276 349 275 349

C272 349 269 352 269 355

C269 358 272 361 275 361

C276 361 278 360 279 359

Z

M507 359

C509 357 509 354 507 352

C505 349 500 350 498 353

C497 355 497 356 498 358

C500 361 505 362 507 359

Z

M132 356

C133 354 133 354 132 351

C130 347 123 347 121 351

C119 358 128 363 132 356

Z

M157 358

C159 355 160 353 157 350

C155 346 147 348 147 353

C147 356 148 357 151 359

C153 360 154 360 157 358

Z

M324 359

C327 357 328 356 328 354

C328 348 321 346 318 350

C315 353 316 355 318 358

C321 360 321 360 324 359

Z

M415 358

C417 357 418 353 417 351

C415 345 406 347 406 353

C406 357 411 360 415 358

Z

M537 356

C539 354 539 353 538 351

C536 348 535 347 533 347

C527 347 525 354 529 357

C532 360 535 359 537 356

Z

M58 356

C59 355 60 353 60 352

C60 349 57 346 54 346

C51 346 48 349 48 352

C48 353 49 355 50 356

C51 357 53 358 54 358

C55 358 57 357 58 356

Z

M180 355

C181 353 181 352 180 350

C176 343 166 349 170 356

C172 359 177 359 180 355

Z

M36 354

C38 352 37 347 35 346

C34 344 30 344 28 345

C25 347 26 353 29 355

C31 356 33 356 36 354

Z

M354 353

C357 351 357 346 354 344

C350 342 345 344 345 349

C345 352 348 355 351 355

C351 355 353 354 354 353

Z

M468 352

C469 350 469 349 468 347

C465 342 457 344 457 349

C457 355 465 357 468 352

Z

M338 352

C344 349 342 341 336 341

C330 341 328 349 333 352

C334 352 336 353 336 353

C336 353 337 352 338 352

Z

M97 350

C99 349 99 344 98 342

C97 342 95 341 94 341

C92 341 90 342 89 342

C88 344 88 349 89 351

C91 352 96 352 97 350

Z

M210 350

C215 347 209 337 203 341

C202 342 200 346 201 347

C203 352 206 353 210 350

Z

M251 350

C252 349 253 347 253 346

C253 345 252 343 251 342

C250 341 248 340 247 340

C246 340 244 341 243 342

C242 343 241 345 241 346

C241 347 242 349 243 350

C244 351 246 352 247 352

C248 352 250 351 251 350

Z

M115 349

C118 347 117 342 114 340

C112 339 111 339 109 340

C107 341 106 343 106 344

C106 350 112 353 115 349

Z

M497 348

C498 346 498 343 496 341

C492 336 484 341 487 347

C489 351 495 351 497 348

Z

M482 346

C483 343 483 340 480 337

C474 334 468 341 473 346

C475 349 480 349 482 346

Z

M573 346

C577 343 574 337 568 337

C567 337 565 338 564 340

C563 342 563 343 564 345

C566 348 571 349 573 346

Z

M80 344

C83 340 80 335 75 335

C72 335 69 338 69 341

C69 342 70 344 72 345

C75 347 78 347 80 344

Z

M303 345

C306 343 305 339 303 337

C300 334 298 334 295 338

C292 341 292 342 295 345

C297 347 301 348 303 345

Z

M425 344

C428 341 428 339 425 336

C423 334 419 333 417 336

C414 338 415 342 417 344

C420 347 422 347 425 344

Z

M276 343

C277 342 278 340 278 339

C278 338 277 336 276 335

C275 334 273 333 272 333

C271 333 269 334 268 335

C267 336 266 338 266 339

C266 340 267 342 268 343

C269 344 271 345 272 345

C273 345 275 344 276 343

Z

M555 343

C557 342 557 337 556 335

C555 335 553 334 552 334

C548 334 546 336 546 340

C546 345 552 347 555 343

Z

M318 342

C320 340 320 336 318 334

C318 333 316 333 315 333

C311 333 309 335 309 339

C309 344 315 346 318 342

Z

M367 342

C369 340 368 335 366 334

C363 330 357 333 357 338

C357 343 362 345 367 342

Z

M224 340

C225 338 225 336 223 333

C220 329 213 332 213 337

C213 338 214 340 215 341

C217 343 222 343 224 340

Z

M238 341

C242 338 240 331 235 331

C229 331 227 338 231 341

C232 342 234 343 235 343

C235 343 237 342 238 341

Z

M65 340

C69 337 66 331 61 331

C58 331 55 334 55 336

C55 341 61 344 65 340

Z

M532 340

C535 338 534 333 531 331

C529 330 528 330 526 331

C523 333 522 338 525 340

C527 342 530 342 532 340

Z

M154 337

C155 336 156 334 155 333

C155 330 152 328 150 328

C144 328 142 335 146 338

C149 341 151 340 154 337

Z

M41 336

C42 335 43 333 42 332

C42 329 39 327 37 327

C31 327 29 334 33 337

C36 340 38 339 41 336

Z

M171 335

C175 332 173 325 168 325

C162 325 160 332 164 335

C165 336 167 337 168 337

C168 337 170 336 171 335

Z

M332 335

C336 332 334 326 329 326

C325 326 323 328 323 332

C323 333 323 335 324 335

C326 337 330 337 332 335

Z

M103 334

C104 333 105 332 105 330

C105 325 97 323 94 328

C93 330 93 331 94 333

C96 336 100 337 103 334

Z

M87 333

C89 332 90 328 89 326

C86 320 78 322 78 328

C78 332 83 335 87 333

Z

M349 332

C352 329 352 326 350 323

C347 321 344 321 341 324

C337 329 344 336 349 332

Z

M435 331

C436 328 436 325 433 322

C427 319 421 326 426 331

C428 334 433 334 435 331

Z

M137 330

C141 327 138 321 132 321

C131 321 129 322 128 324

C127 326 127 327 128 329

C130 332 134 333 137 330

Z

M573 330

C575 328 576 324 573 322

C571 319 567 320 565 322

C562 325 562 326 565 329

C568 333 570 333 573 330

Z

M189 329

C193 326 190 320 184 320

C183 320 181 321 180 323

C179 325 179 326 180 328

C182 331 187 332 189 329

Z

M307 327

C308 325 308 323 306 320

C303 316 296 319 296 324

C296 325 297 327 298 328

C300 330 305 330 307 327

Z

M555 328

C559 325 557 318 552 318

C546 318 544 325 548 328

C549 329 551 330 552 330

C552 330 554 329 555 328

Z

M280 327

C283 325 283 320 280 319

C277 316 274 317 272 320

C268 325 275 332 280 327

Z

M403 326

C405 325 405 321 404 319

C402 316 396 317 394 320

C393 322 393 323 394 325

C396 328 401 329 403 326

Z

M368 325

C369 324 370 322 370 321

C370 319 367 315 364 315

C361 315 358 318 358 321

C358 326 364 329 368 325

Z

M69 323

C71 319 69 316 65 315

C61 315 59 316 59 320

C59 324 61 326 65 326

C67 326 68 325 69 323

Z

M535 323

C537 322 537 317 535 316

C533 314 529 314 527 316

C524 318 525 323 528 325

C530 326 533 325 535 323

Z

M206 323

C209 320 208 317 205 315

C200 311 193 318 198 323

C200 326 205 326 206 323

Z

M447 321

C449 316 447 312 442 312

C439 312 437 314 437 318

C437 321 439 323 443 323

C445 323 446 322 447 321

Z

M335 320

C338 318 337 314 335 312

C332 309 330 309 327 312

C324 315 324 317 327 320

C329 322 333 323 335 320

Z

M45 319

C49 317 47 309 42 309

C36 309 34 316 38 319

C39 320 41 321 42 321

C42 321 44 320 45 319

Z

M222 319

C225 316 224 312 221 310

C219 309 218 309 216 310

C214 311 213 313 213 315

C213 320 219 323 222 319

Z

M108 317

C110 314 111 312 108 309

C106 305 98 307 98 312

C98 315 99 316 102 318

C104 319 105 319 108 317

Z

M90 314

C90 313 91 312 91 311

C91 305 84 303 81 307

C78 310 79 312 82 315

C84 317 87 317 90 314

Z

M129 316

C131 315 132 311 131 309

C129 303 120 305 120 311

C120 315 125 318 129 316

Z

M239 314

C243 312 241 304 236 304

C230 304 228 309 231 313

C233 316 236 317 239 314

Z

M579 314

C582 312 581 307 578 305

C576 304 575 304 573 305

C570 307 569 312 572 314

C574 316 577 316 579 314

Z

M460 313

C463 311 463 306 460 305

C457 302 455 303 452 305

C449 308 449 310 452 313

C454 315 458 316 460 313

Z

M147 312

C151 309 149 302 144 302

C138 302 136 309 140 312

C141 313 143 314 144 314

C144 314 146 313 147 312

Z

M286 312

C290 309 288 302 283 302

C277 302 275 309 279 312

C280 313 282 314 283 314

C283 314 285 313 286 312

Z

M309 311

C310 310 311 308 310 307

C310 304 307 302 305 302

C299 302 297 309 301 312

C304 315 306 314 309 311

Z

M561 312

C564 310 564 307 562 304

C561 302 559 301 558 301

C555 301 552 304 552 307

C552 312 557 315 561 312

Z

M254 310

C257 308 258 305 255 302

C254 300 249 299 247 302

C243 305 246 311 251 312

C251 312 253 311 254 310

Z

M325 309

C328 306 325 300 320 300

C314 300 312 308 317 311

C320 312 323 311 325 309

Z

M360 310

C361 309 362 308 362 306

C362 301 354 299 351 304

C350 306 350 307 351 309

C353 312 357 313 360 310

Z

M391 310

C394 307 394 305 391 302

C389 300 385 299 383 302

C379 305 382 311 387 312

C388 312 389 311 391 310

Z

M476 308

C478 306 477 300 475 299

C470 296 466 299 466 304

C467 309 472 311 476 308

Z

M543 308

C544 307 545 305 545 304

C545 301 542 298 539 298

C536 298 533 301 533 304

C533 307 536 310 539 310

C540 310 542 309 543 308

Z

M58 307

C58 307 59 305 60 304

C61 302 61 301 59 299

C57 296 55 295 51 297

C49 299 48 303 51 306

C52 308 56 309 58 307

Z

M429 305

C432 300 429 296 424 296

C422 296 420 297 419 299

C418 301 418 302 419 304

C422 308 427 308 429 305

Z

M491 305

C495 303 493 295 488 295

C482 295 480 302 484 305

C485 306 487 307 488 307

C488 307 490 306 491 305

Z

M510 304

C511 302 511 301 510 299

C507 294 499 296 499 302

C499 307 507 309 510 304

Z

M15 304

C19 301 17 294 11 294

C6 294 4 301 8 304

C9 305 11 306 12 306

C12 306 14 305 15 304

Z

M76 304

C80 302 78 294 73 294

C69 294 67 296 67 299

C67 303 70 306 73 306

C73 306 75 305 76 304

Z

M163 304

C167 301 164 295 158 295

C157 295 155 296 154 298

C153 300 153 301 154 303

C156 306 160 307 163 304

Z

M181 300

C182 298 182 297 181 295

C178 290 170 292 170 297

C170 303 178 305 181 300

Z

M410 300

C411 298 411 297 410 295

C407 290 399 292 399 297

C399 303 407 305 410 300

Z

M114 300

C115 299 116 298 116 297

C116 290 108 289 105 294

C102 300 110 304 114 300

Z

M348 299

L350 296

L348 293

C346 290 344 289 340 291

C337 294 337 298 340 300

C343 303 346 302 348 299

Z

M586 299

C588 297 588 294 586 291

C584 289 580 290 578 292

C574 295 577 301 582 302

C583 302 584 301 586 299

Z

M196 299

C198 297 198 293 196 291

C196 290 194 290 193 290

C189 290 187 292 187 295

C187 298 189 301 193 301

C194 301 196 300 196 299

Z

M223 300

C228 297 224 288 219 290

C215 291 214 292 214 295

C214 300 219 303 223 300

Z

M132 298

C133 295 133 292 130 289

C124 286 118 293 123 298

C125 301 130 301 132 298

Z

M295 297

C298 295 297 290 294 288

C292 287 291 287 289 288

C286 290 285 295 288 297

C290 299 293 299 295 297

Z

M243 296

C246 293 245 289 242 287

C240 286 239 286 237 287

C232 290 234 298 239 298

C241 298 242 297 243 296

Z

M554 294

C556 290 554 287 550 286

C546 286 544 287 544 291

C544 295 546 297 550 297

C552 297 553 296 554 294

Z

M332 294

C336 292 334 284 329 284

C323 284 321 291 325 294

C328 296 329 296 332 294

Z

M381 293

C382 292 383 290 383 289

C383 288 382 286 381 285

C380 284 378 283 377 283

C376 283 374 284 373 285

C372 286 371 288 371 289

C371 290 372 292 373 293

C374 294 376 295 377 295

C378 295 380 294 381 293

Z

M260 291

C261 290 262 288 262 287

C262 286 261 284 260 283

C259 282 257 281 256 281

C255 281 253 282 252 283

C251 284 250 286 250 287

C250 288 251 290 252 291

C253 292 255 293 256 293

C257 293 259 292 260 291

Z

M210 289

C211 288 212 286 212 285

C212 284 211 282 210 281

C209 280 207 279 206 279

C205 279 203 280 202 281

C201 282 200 284 200 285

C200 286 201 288 202 289

C203 290 205 291 206 291

C207 291 209 290 210 289

Z

M317 289

C318 288 319 286 319 285

C319 284 318 282 317 281

C316 280 314 279 313 279

C312 279 310 280 309 281

C308 282 307 284 307 285

C307 286 308 288 309 289

C310 290 312 291 313 291

C314 291 316 290 317 289

Z

M23 288

C24 287 25 285 25 284

C25 282 21 278 19 278

C16 278 13 282 13 284

C13 289 19 292 23 288

Z

M144 288

C148 286 146 278 141 278

C135 278 133 285 137 288

C140 290 141 290 144 288

Z

M462 288

C465 285 465 283 462 280

C460 278 456 277 454 280

C450 283 453 289 458 290

C459 290 460 289 462 288

Z

M161 287

C163 285 164 282 161 279

C158 275 151 278 151 283

C151 286 155 289 157 289

C158 289 160 288 161 287

Z

M568 287

C569 286 570 284 570 283

C570 280 567 277 564 277

C561 277 558 280 558 283

C558 286 561 289 564 289

C565 289 567 288 568 287

Z

M120 285

C124 283 122 275 117 275

C113 275 111 277 111 280

C111 284 114 287 117 287

C117 287 119 286 120 285

Z

M423 284

C424 283 425 281 424 280

C423 275 418 274 415 277

C411 280 414 286 419 287

C420 287 421 286 423 284

Z

M181 281

C182 279 182 278 181 276

C178 271 170 273 170 278

C170 285 178 287 181 281

Z

M304 282

C304 281 305 280 305 279

C305 273 298 271 295 275

C292 278 293 280 296 283

C298 285 301 285 304 282

Z

M478 283

C481 280 480 276 477 274

C475 273 474 273 472 274

C470 275 469 277 469 279

C469 284 475 287 478 283

Z

M234 281

C238 278 235 272 230 272

C227 272 224 275 224 278

C224 282 231 285 234 281

Z

M585 280

C587 278 587 277 586 275

C584 272 583 271 581 271

C575 271 573 278 577 281

C580 284 583 283 585 280

Z

M198 280

C198 279 199 277 199 276

C199 272 197 270 194 270

C190 270 188 272 188 276

C188 279 190 281 194 281

C195 281 197 280 198 280

Z

M279 278

C280 276 280 275 279 273

C276 268 268 270 268 276

C268 281 276 283 279 278

Z

M540 277

C541 275 541 274 540 272

C537 267 529 269 529 275

C529 280 537 282 540 277

Z

M12 274

C15 270 12 265 6 265

C1 266 0 273 5 276

C8 277 10 276 12 274

Z

M494 274

C495 272 495 271 494 269

C491 264 483 266 483 271

C483 277 491 279 494 274

Z

M64 275

C65 274 66 273 66 271

C66 267 64 265 61 265

C57 265 55 267 55 270

C55 275 59 277 64 275

Z

M149 274

C152 272 152 267 148 264

C146 263 145 263 143 264

C141 265 140 267 140 269

C140 274 144 277 149 274

Z

M29 272

C33 269 30 263 25 263

C22 263 19 266 19 269

C19 273 26 276 29 272

Z

M166 272

C169 270 168 266 166 264

C163 261 161 261 158 265

C157 266 156 268 157 269

C158 274 163 275 166 272

Z

M87 270

C90 268 89 263 86 261

C84 260 83 260 81 261

C78 263 77 268 80 270

C82 272 85 272 87 270

Z

M256 270

C257 269 258 267 258 266

C258 265 257 263 256 262

C255 261 253 260 252 260

C249 260 246 263 246 266

C246 271 252 274 256 270

Z

M122 268

C126 265 123 258 118 258

C116 258 113 261 113 264

C113 269 118 272 122 268

Z

M406 268

C408 267 408 262 407 260

C406 260 404 259 403 259

C401 259 399 260 398 260

C398 261 397 263 397 265

C397 266 398 268 398 269

C400 270 405 270 406 268

Z

M188 266

C189 265 190 263 190 262

C190 261 189 259 188 258

C187 257 185 256 184 256

C183 256 181 257 180 258

C179 259 178 261 178 262

C178 263 179 265 180 266

C181 267 183 268 184 268

C185 268 187 267 188 266

Z

M223 266

C227 263 224 256 220 256

C214 256 212 263 216 266

C219 268 221 268 223 266

Z

M389 266

C391 264 391 260 389 258

C387 256 383 256 381 258

C379 260 379 264 381 266

C383 268 387 268 389 266

Z

M507 264

C508 262 508 261 507 259

C504 254 496 256 496 261

C496 268 504 270 507 264

Z

M578 266

C582 264 580 256 575 256

C570 256 567 262 571 266

C573 268 575 268 578 266

Z

M342 265

C346 263 344 255 339 255

C334 255 331 261 335 265

C337 267 339 267 342 265

Z

M551 264

C555 262 553 254 548 254

C542 254 540 259 543 263

C545 266 548 267 551 264

Z

M424 263

C427 257 423 252 417 254

C411 256 413 265 419 265

C421 265 422 264 424 263

Z

M138 260

C141 256 138 251 133 251

C129 251 126 255 127 258

C128 263 135 264 138 260

Z

M157 259

C160 257 161 254 158 251

C156 247 148 249 148 254

C148 257 149 258 152 260

C154 261 154 261 157 259

Z

M321 259

C324 257 324 252 321 250

C316 247 312 250 312 255

C312 257 313 259 315 260

C318 261 318 261 321 259

Z

M373 258

C374 257 375 255 375 254

C375 253 374 251 373 250

C372 249 370 248 369 248

C368 248 366 249 365 250

C364 251 363 253 363 254

C363 255 364 257 365 258

C366 259 368 260 369 260

C370 260 372 259 373 258

Z

M281 255

C282 253 282 252 281 250

C278 245 270 247 270 253

C270 258 278 260 281 255

Z

M435 253

C439 250 437 243 432 243

C426 243 424 250 428 253

C429 254 431 255 432 255

C432 255 434 254 435 253

Z

M517 254

C517 253 518 251 518 250

C518 246 516 244 513 244

C509 244 507 246 507 250

C507 253 509 255 513 255

C514 255 516 254 517 254

Z

M213 251

C214 250 215 249 215 247

C215 242 207 240 204 245

C203 247 203 248 204 250

C206 253 210 254 213 251

Z

M256 251

C258 248 258 246 256 244

C253 240 246 243 246 247

C246 253 253 255 256 251

Z

M123 250

C125 246 124 244 121 242

C119 240 118 240 116 241

C113 243 112 244 112 246

C112 252 120 254 123 250

Z

M84 247

C85 245 85 244 84 242

C81 237 73 239 73 244

C73 251 81 252 84 247

Z

M181 248

C182 245 182 242 179 239

C173 236 167 243 172 248

C174 251 179 251 181 248

Z

M396 247

C398 245 398 243 396 240

C394 236 386 238 386 243

C386 248 392 251 396 247

Z

M412 247

C413 247 413 245 413 244

C413 242 413 240 412 240

C410 238 406 238 404 240

C402 241 402 246 403 248

C405 249 411 249 412 247

Z

M569 247

C572 241 567 236 562 238

C556 240 558 249 564 249

C566 249 567 248 569 247

Z

M66 247

C66 246 67 244 67 243

C67 241 66 239 66 238

C65 238 63 237 62 237

C58 237 56 239 56 243

C56 246 58 248 62 248

C63 248 65 247 66 247

Z

M50 243

C51 241 51 240 50 238

C47 233 39 235 39 241

C39 246 47 248 50 243

Z

M151 244

C151 244 152 242 153 241

C154 239 154 238 152 236

C150 233 148 232 144 234

C142 236 141 240 144 243

C145 245 149 246 151 244

Z

M364 244

C364 243 365 241 365 240

C365 236 363 234 359 234

C354 234 352 240 356 243

C357 245 362 245 364 244

Z

M32 241

C33 240 34 238 34 237

C34 234 31 231 28 231

C25 231 22 234 22 237

C22 238 23 240 24 241

C25 242 27 243 28 243

C29 243 31 242 32 241

Z

M525 240

C527 238 527 234 525 232

C525 231 523 231 522 231

C520 231 518 231 518 232

C516 233 516 239 517 241

C519 242 524 242 525 240

Z

M381 239

C385 236 382 229 377 229

C375 229 372 233 372 235

C372 240 377 243 381 239

Z

M482 239

C486 237 484 229 479 229

C473 229 471 236 475 239

C476 240 478 241 479 241

C479 241 481 240 482 239

Z

M202 237

C203 236 204 234 203 233

C203 230 200 228 198 228

C192 228 190 235 194 238

C197 241 199 240 202 237

Z

M16 238

C17 236 17 231 16 229

C15 229 13 228 12 228

C8 228 6 230 6 234

C6 237 8 239 12 239

C13 239 15 238 16 238

Z

M443 237

C444 236 445 234 445 233

C445 232 444 230 443 229

C442 228 440 227 439 227

C436 227 433 230 433 233

C433 238 439 241 443 237

Z

M423 236

C424 235 425 233 425 232

C425 231 424 229 423 228

C422 227 420 226 419 226

C418 226 416 227 415 228

C414 229 413 231 413 232

C413 233 414 235 415 236

C416 237 418 238 419 238

C420 238 422 237 423 236

Z

M119 234

C121 231 122 229 119 226

C118 224 113 223 111 226

C107 229 110 235 115 236

C116 236 117 235 119 234

Z

M398 233

C399 232 400 230 400 229

C400 228 399 226 398 225

C397 224 395 223 394 223

C393 223 391 224 390 225

C389 226 388 228 388 229

C388 230 389 232 390 233

C391 234 393 235 394 235

C395 235 397 234 398 233

Z

M79 231

C81 229 81 228 80 226

C78 223 77 222 75 222

C69 222 67 229 71 232

C74 235 77 234 79 231

Z

M316 231

C318 229 318 228 317 226

C315 223 314 222 312 222

C306 222 304 229 308 232

C311 235 314 234 316 231

Z

M59 229

C60 227 60 226 59 224

C56 219 48 221 48 227

C48 232 56 234 59 229

Z

M280 231

C280 230 281 228 281 227

C281 223 279 221 276 221

C272 221 270 223 270 227

C270 230 272 232 276 232

C277 232 279 231 280 231

Z

M298 230

C299 230 299 228 299 227

C299 225 299 223 298 223

C296 221 292 221 290 223

C288 224 288 229 289 231

C291 232 297 232 298 230

Z

M333 230

C337 227 335 220 329 220

C324 220 322 227 326 230

C327 231 329 232 330 232

C330 232 332 231 333 230

Z

M239 229

C241 227 241 224 239 222

C237 219 232 220 230 223

C229 225 229 226 230 228

C232 231 237 232 239 229

Z

M461 230

C464 228 464 223 461 221

C458 219 457 219 454 221

C452 222 451 227 454 229

C456 231 459 232 461 230

Z

M262 228

C266 225 266 223 263 220

C261 218 257 217 255 220

C252 222 253 226 255 228

C258 231 259 231 262 228

Z

M558 229

C558 228 559 226 559 225

C559 221 557 219 554 219

C550 219 548 221 548 224

C548 228 550 230 553 230

C555 230 557 229 558 229

Z

M156 226

C157 224 157 223 156 221

C153 216 145 218 145 223

C145 229 153 231 156 226

Z

M187 226

C188 225 189 224 189 222

C189 217 181 215 178 220

C177 222 177 223 178 225

C180 228 184 229 187 226

Z

M351 225

C354 221 351 216 346 216

C343 216 340 219 340 222

C340 223 341 225 343 226

C346 228 349 228 351 225

Z

M531 225

C531 224 532 223 532 222

C532 216 525 214 522 218

C519 221 520 223 523 226

C525 228 528 228 531 225

Z

M414 224

C416 222 416 219 414 216

C412 214 408 215 406 217

C402 220 405 226 410 227

C411 227 412 226 414 224

Z

M368 219

C369 217 369 216 368 214

C365 209 357 211 357 217

C357 222 365 224 368 219

Z

M445 220

C447 218 448 215 445 213

C442 209 435 212 435 216

C435 221 441 224 445 220

Z

M110 218

C112 216 112 214 110 211

C108 207 100 209 100 214

C100 219 106 222 110 218

Z

M170 218

C174 215 171 208 166 208

C164 208 161 211 161 214

C161 219 166 222 170 218

Z

M220 218

C223 215 222 211 219 209

C217 208 216 208 214 209

C212 210 211 212 211 214

C211 219 217 222 220 218

Z

M47 217

C49 215 49 211 47 209

C47 208 45 208 44 208

C42 208 40 208 40 209

C38 210 38 216 39 218

C41 219 46 219 47 217

Z

M80 216

C81 215 82 213 82 212

C82 211 81 209 80 208

C79 207 77 206 76 206

C75 206 73 207 72 208

C71 209 70 211 70 212

C70 213 71 215 72 216

C73 217 75 218 76 218

C77 218 79 217 80 216

Z

M62 216

C65 213 65 210 63 207

C60 205 57 205 54 208

C50 213 57 220 62 216

Z

M383 215

C386 213 385 208 382 206

C380 205 379 205 377 206

C374 208 373 213 376 215

C378 217 381 217 383 215

Z

M488 215

C491 212 490 208 486 206

C484 205 483 205 481 207

C478 209 477 211 479 215

C481 217 485 218 488 215

Z

M235 213

C236 212 237 210 237 209

C237 206 234 203 231 203

C228 203 225 206 225 209

C225 210 226 212 227 213

C228 214 230 215 231 215

C232 215 234 214 235 213

Z

M583 213

C584 212 585 210 585 209

C585 207 581 203 578 203

C576 203 573 207 573 209

C573 214 579 217 583 213

Z

M18 211

C19 209 19 208 18 206

C15 201 7 203 7 209

C7 214 15 216 18 211

Z

M33 211

C34 210 35 208 35 208

C35 205 31 201 29 201

C26 201 23 204 23 207

C23 212 29 215 33 211

Z

M424 211

C425 210 426 209 426 207

C426 204 423 201 420 201

C419 201 417 202 416 203

C415 204 414 206 414 207

C414 210 417 213 420 213

C421 213 423 212 424 211

Z

M536 209

C537 207 537 206 536 204

C533 199 525 201 525 206

C525 212 533 214 536 209

Z

M554 208

C556 206 555 201 553 200

C552 198 548 198 546 199

C543 201 544 207 547 209

C549 210 551 210 554 208

Z

M399 207

C400 206 401 204 401 203

C401 202 400 200 399 199

C398 198 396 197 395 197

C394 197 392 198 391 199

C390 200 389 202 389 203

C389 204 390 206 391 207

C392 208 394 209 395 209

C396 209 398 208 399 207

Z

M208 206

C210 204 210 202 208 199

C206 195 198 197 198 202

C198 207 204 210 208 206

Z

M341 207

C342 205 342 200 340 199

C338 197 334 197 332 199

C331 199 331 201 331 203

C331 204 331 206 332 206

C333 208 339 208 341 207

Z

M467 205

C471 202 468 196 462 196

C461 196 459 197 458 199

C457 201 457 202 458 204

C460 207 465 208 467 205

Z

M445 204

C446 203 447 201 447 200

C447 197 444 194 441 194

C438 194 435 197 435 200

C435 203 439 206 441 206

C442 206 444 205 445 204

Z

M102 202

C103 201 104 200 104 198

C104 193 96 191 93 196

C92 198 92 199 93 201

C95 204 99 205 102 202

Z

M274 201

C275 201 275 199 275 198

C275 194 273 192 269 192

C266 192 264 194 264 198

C264 202 271 205 274 201

Z

M58 200

C59 199 60 197 60 196

C60 194 57 190 54 190

C51 190 48 193 48 196

C48 201 54 204 58 200

Z

M79 201

C82 200 83 196 82 194

C81 190 77 189 73 191

C68 195 73 204 79 201

Z

M125 201

C128 199 128 194 126 192

C124 190 120 190 118 192

C116 194 116 198 118 200

C119 202 123 202 125 201

Z

M164 199

C169 195 163 187 157 190

C154 193 154 196 155 199

C157 201 161 202 164 199

Z

M313 197

C316 195 315 191 313 189

C310 186 308 186 305 189

C302 192 302 194 305 197

C307 199 311 200 313 197

Z

M588 197

C591 191 586 186 580 188

C575 191 577 199 583 199

C585 199 586 198 588 197

Z

M231 196

C232 195 233 193 233 192

C233 190 229 186 226 186

C224 186 221 190 221 192

C221 197 227 200 231 196

Z

M27 195

C30 193 29 189 27 187

C24 184 22 184 19 188

C18 189 17 191 18 192

C19 197 24 198 27 195

Z

M414 195

C415 195 415 193 415 192

C415 188 413 186 410 186

C407 186 404 188 404 192

C404 193 405 195 406 195

C408 197 412 197 414 195

Z

M293 194

C296 191 295 187 292 185

C290 184 289 184 287 185

C285 186 284 188 284 190

C284 195 290 198 293 194

Z

M536 194

C537 193 538 191 538 190

C538 187 535 184 532 184

C529 184 526 187 526 190

C526 193 529 196 532 196

C533 196 535 195 536 194

Z

M142 193

C145 191 145 186 142 185

C139 182 136 183 134 186

C130 191 137 198 142 193

Z

M196 193

C199 190 198 186 195 184

C193 183 192 183 190 184

C188 185 187 187 187 189

C187 194 193 197 196 193

Z

M496 194

C501 193 500 185 495 183

C492 183 488 185 488 189

C488 193 492 196 496 194

Z

M559 192

C562 188 561 184 556 183

C554 182 549 186 549 188

C549 194 556 196 559 192

Z

M11 191

C16 188 12 180 5 181

C2 182 1 186 2 189

C4 193 7 194 11 191

Z

M40 189

C44 186 42 179 36 179

C31 179 29 186 33 189

C34 190 36 191 37 191

C37 191 39 190 40 189

Z

M443 187

C444 186 445 184 445 183

C445 182 444 180 443 179

C442 178 440 177 439 177

C436 177 433 180 433 183

C433 188 439 191 443 187

Z

M96 185

C99 183 98 178 95 176

C93 175 92 175 90 176

C86 178 86 184 89 186

C91 187 95 187 96 185

Z

M56 184

C60 181 57 174 52 174

C50 174 47 177 47 180

C47 185 52 188 56 184

Z

M78 185

C78 185 79 183 80 182

C81 180 81 179 79 177

C77 174 75 173 71 175

C69 177 68 181 71 184

C72 186 76 187 78 185

Z

M427 184

C432 181 428 173 422 174

C419 175 417 179 418 182

C419 186 423 187 427 184

Z

M353 183

C355 180 356 178 353 175

C352 173 347 172 345 175

C341 178 344 184 349 185

C350 185 351 184 353 183

Z

M377 183

C379 180 380 178 377 175

C376 173 371 172 369 175

C365 178 368 184 373 185

C374 185 375 184 377 183

Z

M478 183

C480 179 479 177 476 175

C474 173 473 173 471 174

C468 176 467 177 467 179

C467 185 475 187 478 183

Z

M127 181

C128 181 128 179 128 178

C128 174 126 172 123 172

C118 172 116 176 118 181

C119 183 125 184 127 181

Z

M275 180

C276 180 276 178 276 177

C276 173 274 171 271 171

C266 171 264 175 266 180

C267 182 273 183 275 180

Z

M310 180

C314 177 311 171 305 171

C304 171 302 172 301 174

C300 176 300 177 301 179

C303 182 308 183 310 180

Z

M185 179

C187 177 188 174 185 172

C182 168 175 171 175 175

C175 180 181 183 185 179

Z

M212 179

C216 176 213 170 207 170

C206 170 204 171 203 173

C202 175 202 176 203 178

C205 181 209 182 212 179

Z

M228 178

C229 176 229 175 228 173

C225 168 217 170 217 176

C217 181 225 183 228 178

Z

M567 180

C570 179 571 175 570 172

C567 169 564 169 561 170

C555 174 561 183 567 180

Z

M535 179

C538 174 536 169 531 169

C526 169 523 174 527 178

C529 180 533 181 535 179

Z

M30 176

C34 173 31 167 26 167

C23 167 20 170 20 172

C20 177 26 180 30 176

Z

M332 176

C336 173 333 167 328 167

C325 167 322 170 322 172

C322 177 328 180 332 176

Z

M11 174

C15 171 13 166 8 165

C5 164 1 168 2 171

C2 172 3 174 3 175

C5 177 9 176 11 174

Z

M157 173

C158 170 158 167 155 164

C149 161 143 168 148 173

C150 176 155 176 157 173

Z

M585 172

C587 170 587 169 586 167

C584 164 583 163 581 163

C575 163 573 170 577 173

C580 176 583 175 585 172

Z

M253 172

C256 169 256 167 253 164

C250 161 248 161 245 164

C243 166 242 170 245 172

C247 175 251 174 253 172

Z

M395 173

C398 171 398 166 395 164

C392 162 391 162 388 164

C386 165 385 170 388 172

C390 174 393 175 395 173

Z

M112 171

C115 165 110 159 105 162

C99 164 101 173 107 173

C109 173 110 172 112 171

Z

M441 170

C442 168 442 167 441 165

C438 160 430 162 430 168

C430 173 438 175 441 170

Z

M195 169

C198 166 197 162 194 160

C192 159 191 159 189 160

C184 163 186 171 191 171

C193 171 194 170 195 169

Z

M54 168

C58 165 55 158 50 158

C48 158 45 161 45 164

C45 169 50 172 54 168

Z

M71 169

C74 167 74 164 72 161

C71 159 69 158 68 158

C65 158 62 161 62 164

C62 169 67 172 71 169

Z

M94 166

C98 163 95 157 90 157

C87 157 85 159 85 163

C85 164 85 166 86 166

C88 168 92 168 94 166

Z

M127 164

C129 162 129 161 128 159

C126 156 125 155 123 155

C117 155 115 162 119 165

C122 168 125 167 127 164

Z

M177 164

C179 162 179 161 178 159

C176 156 175 155 173 155

C167 155 165 162 169 165

C172 168 175 167 177 164

Z

M210 163

C211 162 212 160 212 159

C212 156 209 153 206 153

C203 153 200 156 200 159

C200 160 201 162 202 163

C203 164 205 165 206 165

C207 165 209 164 210 163

Z

M227 162

C228 161 229 159 228 158

C228 155 225 153 223 153

C217 153 215 160 219 163

C222 166 224 165 227 162

Z

M296 164

C299 163 300 159 299 156

C296 153 293 153 290 154

C284 158 290 167 296 164

Z

M313 162

C316 160 315 156 313 154

C310 151 308 151 305 154

C302 157 302 159 305 162

C307 164 311 165 313 162

Z

M499 162

C503 160 501 152 496 152

C490 152 488 159 492 162

C493 163 495 164 496 164

C496 164 498 163 499 162

Z

M533 161

C534 159 534 158 533 156

C530 151 522 153 522 159

C522 164 530 166 533 161

Z

M29 160

C33 157 31 151 26 151

C22 151 20 153 20 157

C20 158 20 160 21 160

C23 162 27 162 29 160

Z

M350 159

C352 156 353 154 350 151

C349 149 344 148 342 151

C338 154 341 160 346 161

C347 161 348 160 350 159

Z

M484 159

C485 158 486 156 486 155

C486 152 483 149 480 149

C477 149 474 152 474 155

C474 158 478 161 480 161

C481 161 483 160 484 159

Z

M515 158

C520 154 514 146 508 149

C505 152 505 155 506 158

C508 160 512 161 515 158

Z

M559 157

C561 156 562 151 560 149

C555 146 550 148 550 153

C550 158 556 161 559 157

Z

M284 155

C288 153 286 145 281 145

C275 145 273 152 277 155

C278 156 280 157 281 157

C281 157 283 156 284 155

Z

M60 154

C63 152 62 147 59 145

C57 144 56 144 54 145

C52 146 51 148 51 149

C51 155 57 158 60 154

Z

M151 153

C152 153 152 151 152 150

C152 146 150 144 146 144

C143 144 141 146 141 150

C141 154 148 157 151 153

Z

M190 153

C192 151 192 148 190 146

C188 143 183 144 181 147

C180 149 180 150 181 152

C183 155 188 156 190 153

Z

M545 152

C548 149 545 143 540 143

C534 143 532 151 537 154

C540 155 543 154 545 152

Z

M576 153

C577 153 577 151 577 150

C577 146 575 144 572 144

C567 144 565 148 567 153

C568 155 574 156 576 153

Z

M325 152

C328 150 327 146 325 144

C322 141 320 141 317 144

C314 147 314 149 317 152

C319 154 323 155 325 152

Z

M44 151

C46 148 46 146 44 144

C41 140 34 142 34 147

C34 153 41 155 44 151

Z

M94 149

C96 148 97 143 94 141

C91 137 86 139 85 144

C84 145 85 147 86 148

C89 151 91 152 94 149

Z

M173 148

C176 146 175 141 172 139

C170 138 169 138 167 139

C164 141 163 146 166 148

C168 150 171 150 173 148

Z

M126 148

C129 147 130 143 129 140

C126 137 123 137 120 138

C114 142 120 151 126 148

Z

M389 147

C392 144 391 140 388 138

C386 137 385 137 383 138

C381 140 380 141 380 143

C380 149 386 151 389 147

Z

M210 146

C213 140 208 134 203 137

C197 139 199 148 205 148

C207 148 208 147 210 146

Z

M229 146

C232 143 232 141 229 138

C226 135 224 135 221 138

C219 140 218 144 221 146

C223 149 227 148 229 146

Z

M474 145

C477 142 476 138 473 136

C471 135 470 135 468 136

C463 139 465 147 470 147

C472 147 473 146 474 145

Z

M524 144

C528 142 526 134 521 134

C517 134 515 136 515 139

C515 143 518 146 521 146

C521 146 523 145 524 144

Z

M588 142

C591 139 590 134 585 133

C583 132 578 135 578 138

C578 143 584 146 588 142

Z

M279 140

C280 140 280 138 280 137

C280 133 278 131 274 131

C271 131 269 133 269 137

C269 141 276 144 279 140

Z

M499 139

C499 138 500 137 500 136

C500 130 493 128 490 132

C487 135 488 137 491 140

C493 142 496 142 499 139

Z

M440 140

C441 138 441 133 439 132

C438 130 433 130 431 131

C431 132 430 134 430 136

C430 139 432 141 436 141

C437 141 439 140 440 140

Z

M194 137

C198 135 196 127 191 127

C185 127 183 135 188 138

C190 139 191 139 194 137

Z

M329 137

C330 136 331 134 331 133

C331 132 330 130 329 129

C328 128 326 127 325 127

C324 127 322 128 321 129

C320 130 319 132 319 133

C319 134 320 136 321 137

C322 138 324 139 325 139

C326 139 328 138 329 137

Z

M537 138

C542 135 538 126 533 128

C529 129 528 130 528 133

C528 138 533 141 537 138

Z

M401 136

C404 133 404 131 401 128

C399 126 395 125 393 128

C390 130 391 134 393 136

C396 139 398 139 401 136

Z

M567 135

C568 134 569 132 569 131

C569 129 565 125 563 125

C560 125 557 129 557 131

C557 136 563 139 567 135

Z

M378 134

C380 131 381 129 378 126

C377 124 372 123 370 126

C366 129 369 135 374 136

C375 136 376 135 378 134

Z

M178 131

C179 129 179 129 178 126

C176 122 169 122 167 126

C165 133 174 138 178 131

Z

M100 130

C104 127 101 120 97 120

C94 120 91 123 91 126

C91 131 96 134 100 130

Z

M234 130

C238 127 235 121 230 121

C227 121 224 124 224 127

C224 131 231 134 234 130

Z

M211 129

C215 126 212 120 206 120

C205 120 203 121 202 123

C201 125 201 126 202 128

C204 131 208 132 211 129

Z

M471 127

C474 124 473 120 470 118

C468 117 467 117 465 118

C463 119 462 121 462 123

C462 128 468 131 471 127

Z

M523 127

C526 125 525 120 522 118

C520 117 519 117 517 118

C513 120 513 126 516 128

C518 129 522 129 523 127

Z

M553 127

C556 125 556 120 553 118

C550 117 547 117 544 120

C541 126 548 132 553 127

Z

M414 126

C416 125 416 120 415 118

C414 118 412 117 411 117

C407 117 405 119 405 123

C405 124 406 126 406 127

C408 128 413 128 414 126

Z

M282 125

C284 123 284 119 282 117

C281 115 276 115 275 117

C273 119 273 123 275 125

C275 126 277 127 279 127

C280 127 282 126 282 125

Z

M588 125

C589 124 590 122 590 121

C590 118 587 115 584 115

C581 115 578 118 578 121

C578 124 581 127 584 127

C585 127 587 126 588 125

Z

M64 124

C67 122 66 118 64 116

C61 113 59 113 56 116

C53 119 53 121 56 124

C58 126 62 127 64 124

Z

M132 124

C133 121 133 118 130 115

C124 112 118 119 123 124

C125 127 130 127 132 124

Z

M508 124

C512 121 509 114 505 114

C500 114 497 120 501 124

C503 126 506 127 508 124

Z

M324 122

C327 118 324 113 319 113

C317 113 316 114 314 116

C310 122 319 128 324 122

Z

M26 122

C29 120 28 115 25 113

C23 112 22 112 20 113

C18 114 17 116 17 117

C17 123 23 126 26 122

Z

M45 122

C48 119 47 115 44 113

C42 112 41 112 39 113

C34 116 36 124 41 124

C43 124 44 123 45 122

Z

M365 122

C369 119 366 112 361 112

C359 112 356 116 356 118

C356 123 361 126 365 122

Z

M392 119

C395 116 394 112 391 110

C389 109 388 109 386 110

C384 111 383 113 383 115

C383 120 389 123 392 119

Z

M185 118

C186 117 187 115 187 114

C187 113 186 111 185 110

C184 109 182 108 181 108

C180 108 178 109 177 110

C176 111 175 113 175 114

C175 115 176 117 177 118

C178 119 180 120 181 120

C182 120 184 119 185 118

Z

M220 116

C224 113 221 106 217 106

C212 106 209 112 213 116

C215 118 218 119 220 116

Z

M240 115

C244 113 242 105 237 105

C231 105 229 110 232 114

C234 117 237 118 240 115

Z

M294 115

C296 113 296 109 294 107

C293 105 288 105 287 107

C285 109 285 113 287 115

C287 116 289 117 291 117

C292 117 294 116 294 115

Z

M427 115

C428 114 429 112 429 111

C429 110 428 108 427 107

C426 106 424 105 423 105

C422 105 420 106 419 107

C418 108 417 110 417 111

C417 112 418 114 419 115

C420 116 422 117 423 117

C424 117 426 116 427 115

Z

M310 114

C313 111 312 107 308 105

C306 104 305 104 303 106

C300 108 299 110 301 114

C303 116 307 117 310 114

Z

M541 113

C545 111 543 103 538 103

C534 103 532 105 532 108

C532 112 535 115 538 115

C538 115 540 114 541 113

Z

M91 111

C94 109 93 104 90 102

C88 101 87 101 85 102

C82 104 81 109 84 111

C86 113 89 113 91 111

Z

M477 111

C479 109 479 105 477 103

C476 101 471 101 470 103

C467 105 468 111 470 112

C472 113 476 113 477 111

Z

M521 112

C521 111 522 109 522 108

C522 104 520 102 517 102

C515 102 513 103 512 103

C511 105 511 110 513 111

C514 113 519 113 521 112

Z

M353 110

C355 107 356 105 353 102

C352 100 347 99 345 102

C341 105 344 111 349 112

C350 112 351 111 353 110

Z

M584 110

C586 106 585 104 582 102

L579 100

L576 102

C575 103 573 105 573 106

C572 111 580 114 584 110

Z

M199 109

C202 107 202 102 199 100

C194 97 190 100 190 105

C190 107 191 109 193 110

C196 111 196 111 199 109

Z

M76 107

C79 105 79 100 76 98

C72 96 67 98 67 103

C67 106 70 109 73 109

C73 109 75 108 76 107

Z

M106 106

C109 104 109 99 106 97

C103 96 100 96 97 99

C94 105 101 111 106 106

Z

M405 106

C407 104 407 102 405 99

C403 95 395 97 395 102

C395 107 401 110 405 106

Z

M141 105

C145 102 142 96 136 96

C135 96 133 97 132 99

C131 101 131 102 132 104

C134 107 139 108 141 105

Z

M162 105

C166 102 163 96 157 96

C156 96 154 97 153 99

C152 101 152 102 153 104

C155 107 159 108 162 105

Z

M386 103

C388 101 388 98 386 96

C384 93 379 94 377 97

C376 99 376 100 377 102

C379 105 384 106 386 103

Z

M439 103

C443 100 441 94 436 94

C432 94 430 96 430 100

C430 101 431 103 431 104

C433 105 438 105 439 103

Z

M215 101

C217 100 217 96 216 94

C214 91 208 92 206 95

C205 97 205 98 206 100

C208 103 213 104 215 101

Z

M247 100

C250 98 250 93 247 90

C243 88 239 90 238 95

C238 100 242 103 247 100

Z

M489 98

C491 96 490 91 488 90

C486 87 481 88 479 91

C476 97 483 102 489 98

Z

M514 97

C515 95 515 94 514 92

C511 87 503 89 503 95

C503 100 511 102 514 97

Z

M232 97

C235 94 234 91 231 89

C226 85 219 92 224 97

C226 100 231 100 232 97

Z

M536 97

C538 96 539 91 536 89

C533 85 528 87 527 92

C526 93 527 95 528 96

C531 99 533 100 536 97

Z

M574 97

C576 95 575 90 573 89

C572 87 568 87 566 88

C563 90 564 96 567 98

C569 99 571 99 574 97

Z

M322 96

C325 95 326 91 325 88

C322 85 319 85 316 86

C310 90 316 99 322 96

Z

M343 95

C346 92 345 88 342 86

C340 85 339 85 337 86

C332 89 334 97 339 97

C341 97 342 96 343 95

Z

M415 95

C418 92 417 88 414 86

C412 85 411 85 409 86

C404 89 406 97 411 97

C413 97 414 96 415 95

Z

M67 94

C71 91 69 85 63 85

C62 85 60 86 59 87

C57 90 57 91 59 94

C60 96 65 97 67 94

Z

M115 93

C116 92 117 91 117 90

C117 83 109 82 106 87

C103 93 111 97 115 93

Z

M298 93

C298 93 299 91 300 90

C301 88 301 87 299 85

C297 82 295 81 291 83

C289 85 288 89 291 92

C292 94 296 95 298 93

Z

M452 91

C453 90 454 88 454 87

C454 86 453 84 452 83

C451 82 449 81 448 81

C447 81 445 82 444 83

C443 84 442 86 442 87

C442 88 443 90 444 91

C445 92 447 93 448 93

C449 93 451 92 452 91

Z

M174 89

C178 86 176 79 171 79

C165 79 163 86 167 89

C168 90 170 91 171 91

C171 91 173 90 174 89

Z

M380 89

C381 88 382 86 382 85

C382 84 381 82 380 81

C379 80 377 79 376 79

C375 79 373 80 372 81

C371 82 370 84 370 85

C370 86 371 88 372 89

C373 90 375 91 376 91

C377 91 379 90 380 89

Z

M154 87

C155 86 156 84 155 83

C155 80 152 78 150 78

C144 78 142 85 146 88

C149 91 151 90 154 87

Z

M561 86

C565 84 563 76 558 76

C552 76 550 81 553 85

C555 88 558 89 561 86

Z

M256 85

C259 83 260 80 257 77

C256 75 251 74 249 77

C245 80 248 86 253 87

C253 87 255 86 256 85

Z

M426 84

C428 81 429 79 426 76

C425 74 420 73 418 76

C414 79 417 85 422 86

C423 86 424 85 426 84

Z

M498 85

C501 83 501 78 497 75

C495 74 494 74 492 75

C485 79 491 89 498 85

Z

M582 84

C586 81 583 74 579 74

C576 74 573 77 573 80

C573 85 578 88 582 84

Z

M406 84

C409 82 410 81 410 79

C410 73 403 71 400 75

C397 78 398 80 400 83

C403 85 403 85 406 84

Z

M523 83

C525 81 525 78 523 76

C521 73 516 74 514 77

C513 79 513 80 514 82

C516 85 521 86 523 83

Z

M32 81

C33 79 33 78 32 76

C29 71 21 73 21 79

C21 84 29 86 32 81

Z

M311 80

C315 77 312 71 306 71

C305 71 303 72 302 74

C301 76 301 77 302 79

C304 82 309 83 311 80

Z

M66 79

C70 76 70 74 67 71

C65 69 61 68 59 71

C56 73 57 77 59 79

C62 82 63 82 66 79

Z

M338 79

C340 77 340 74 338 72

C336 69 331 70 329 73

C328 75 328 76 329 78

C331 81 336 82 338 79

Z

M115 78

C118 75 118 73 115 70

C113 68 109 67 107 70

C104 72 105 76 107 78

C110 81 112 81 115 78

Z

M549 76

C551 72 550 70 547 68

L544 66

L541 68

C540 69 538 71 538 72

C537 77 545 80 549 76

Z

M191 74

C195 71 193 66 188 65

C185 64 181 68 182 71

C182 72 183 74 183 75

C185 77 189 76 191 74

Z

M456 74

C459 71 458 67 454 65

C452 64 451 64 449 66

C446 68 445 70 447 74

C449 76 453 77 456 74

Z

M51 73

C53 71 53 68 51 66

C49 63 44 64 42 67

C41 69 41 70 42 72

C44 75 49 76 51 73

Z

M373 74

C376 71 376 68 374 65

C371 63 368 63 365 66

C361 71 368 78 373 74

Z

M267 71

C270 68 269 64 266 62

C264 61 263 61 261 62

C259 64 258 65 258 67

C258 73 264 75 267 71

Z

M435 71

C438 69 437 65 435 63

C432 60 430 60 427 63

C424 66 424 68 427 71

C429 73 433 74 435 71

Z

M220 70

C223 67 222 63 219 61

C217 60 216 60 214 61

C209 64 211 72 216 72

C218 72 219 71 220 70

Z

M12 70

C18 67 16 59 10 59

C4 59 2 66 6 69

C9 71 10 71 12 70

Z

M535 69

C538 63 533 57 528 60

C522 62 524 71 530 71

C532 71 533 70 535 69

Z

M411 68

C414 66 414 61 411 60

C408 57 405 58 403 61

C399 66 406 73 411 68

Z

M505 67

C506 65 506 64 505 62

C502 57 494 59 494 65

C494 70 502 72 505 67

Z

M570 67

C574 63 571 57 565 58

C563 58 560 61 560 63

C560 68 566 71 570 67

Z

M74 67

C77 66 78 62 77 60

C76 56 72 55 68 57

C63 61 68 70 74 67

Z

M105 65

C107 64 107 59 106 57

C105 57 103 56 102 56

C100 56 98 57 97 57

C96 59 96 64 97 66

C99 67 104 67 105 65

Z

M312 64

C314 62 315 58 312 56

C310 53 306 54 304 56

C301 59 301 60 304 63

C307 67 309 67 312 64

Z

M394 64

C398 61 396 54 391 54

C385 54 383 61 387 64

C388 65 390 66 391 66

C391 66 393 65 394 64

Z

M338 63

C340 62 341 57 338 55

C335 51 330 53 329 58

C328 59 329 61 330 62

C333 65 335 66 338 63

Z

M519 62

C522 59 521 55 518 53

C516 52 515 52 513 53

C511 55 510 56 510 58

C510 64 516 66 519 62

Z

M90 61

C94 59 92 51 87 51

C81 51 79 58 83 61

C84 62 86 63 87 63

C87 63 89 62 90 61

Z

M449 59

C451 56 452 54 449 51

C448 49 443 48 441 51

C437 54 440 60 445 61

C446 61 447 60 449 59

Z

M250 57

C252 56 252 51 250 50

C248 48 244 48 242 50

C239 52 240 57 243 59

C245 60 248 59 250 57

Z

M278 58

C280 55 281 53 278 50

C277 48 272 47 270 50

C266 53 269 59 274 60

C275 60 276 59 278 58

Z

M370 57

C370 56 371 54 371 53

C371 49 369 47 366 47

C362 47 360 49 360 53

C360 56 362 58 366 58

C367 58 369 57 370 57

Z

M420 54

C421 52 421 46 420 45

C419 44 417 44 415 44

C412 44 411 45 411 47

C409 52 411 55 415 55

C417 55 419 54 420 54

Z

M506 52

C510 49 507 43 502 43

C499 43 496 46 496 49

C496 53 503 56 506 52

Z

M208 51

C210 48 210 46 208 44

C205 40 198 43 198 47

C198 53 205 55 208 51

Z

M475 50

C475 49 476 48 476 47

C476 41 469 39 466 43

C463 46 464 48 467 51

C469 53 472 53 475 50

Z

M44 49

C48 44 41 37 36 42

C33 44 33 49 36 50

C39 53 42 52 44 49

Z

M138 51

C138 50 139 48 139 47

C139 43 137 41 134 41

C132 41 130 42 129 42

C129 43 128 45 128 47

C128 50 130 52 134 52

C135 52 137 51 138 51

Z

M156 50

C158 45 156 41 151 41

C148 41 146 43 146 47

C146 50 148 52 152 52

C154 52 155 51 156 50

Z

M435 49

C440 45 434 37 428 40

C425 43 425 46 426 49

C428 51 432 52 435 49

Z

M345 47

C348 45 347 40 344 38

C342 37 341 37 339 38

C336 40 335 45 338 47

C340 49 343 49 345 47

Z

M23 46

C26 44 25 40 23 38

C21 36 20 36 17 37

C13 39 12 42 14 46

C16 48 20 49 23 46

Z

M392 46

C395 44 394 39 391 37

C389 36 388 36 386 37

C383 39 382 44 385 46

C387 48 390 48 392 46

Z

M290 45

C293 43 293 38 290 36

C287 35 284 35 281 38

C278 44 285 50 290 45

Z

M172 44

C175 41 174 38 171 36

C166 32 159 39 164 44

C166 47 171 47 172 44

Z

M572 44

C573 43 574 42 574 40

C574 35 566 33 563 38

C562 40 562 41 563 43

C565 46 569 47 572 44

Z

M121 44

C124 42 124 37 121 35

C118 33 117 33 114 35

C112 36 111 41 114 43

C116 45 119 46 121 44

Z

M408 41

C409 40 410 38 410 37

C410 34 407 31 404 31

C403 31 401 32 400 33

C399 34 398 36 398 37

C398 38 399 40 400 41

C401 42 403 43 404 43

C405 43 407 42 408 41

Z

M555 40

C558 38 557 33 554 31

C552 30 551 30 549 31

C546 33 545 38 548 40

C550 42 553 42 555 40

Z

M361 38

C363 36 364 32 361 30

C359 27 355 28 353 30

C350 33 350 34 353 37

C356 41 358 41 361 38

Z

M378 35

C381 33 382 30 379 27

C378 25 373 24 371 27

C367 30 370 36 375 37

C375 37 377 36 378 35

Z

M303 34

C305 31 306 29 303 26

C302 24 297 23 295 26

C291 29 294 35 299 36

C300 36 301 35 303 34

Z

M493 32

C497 29 494 23 488 23

C487 23 485 24 484 26

C483 28 483 29 484 31

C486 34 491 35 493 32

Z

M110 31

C112 29 112 25 110 23

C109 21 104 21 103 23

C101 25 101 29 103 31

C103 32 105 33 107 33

C108 33 110 32 110 31

Z

M150 31

C154 28 151 21 146 21

C144 21 141 24 141 27

C141 32 146 35 150 31

Z

M183 31

C184 30 185 28 185 27

C185 24 182 21 179 21

C178 21 176 22 175 23

C174 24 173 26 173 27

C173 28 174 30 175 31

C176 32 178 33 179 33

C180 33 182 32 183 31

Z

M477 31

C480 28 480 25 478 23

C475 19 473 19 470 22

C465 27 472 35 477 31

Z

M135 29

C136 28 137 26 137 25

C137 22 134 19 131 19

C130 19 128 20 127 21

C126 22 125 24 125 25

C125 26 126 28 127 29

C128 30 130 31 131 31

C132 31 134 30 135 29

Z

M268 28

C272 25 269 19 263 19

C262 19 260 20 259 22

C258 24 258 25 259 27

C261 30 265 31 268 28

Z

M285 28

C287 26 288 23 285 20

C282 16 275 19 275 24

C275 27 279 30 281 30

C282 30 284 29 285 28

Z

M250 26

C255 22 249 14 243 17

C240 20 240 23 241 26

C243 28 247 29 250 26

Z

M232 25

C236 22 233 16 228 16

C225 16 222 19 222 21

C222 26 228 29 232 25

Z

M414 25

C416 23 416 19 414 17

C413 15 408 15 407 17

C404 19 405 25 407 26

C409 27 413 27 414 25

Z

M507 25

C510 23 509 19 506 17

C504 15 502 15 499 18

C497 20 497 22 499 25

C500 27 505 28 507 25

Z

M166 24

C168 22 168 20 166 17

C164 13 156 15 156 20

C156 25 162 28 166 24

Z

M445 23

C447 21 447 19 445 16

C443 12 435 14 435 19

C435 24 441 27 445 23

Z

M213 22

C216 21 217 17 216 14

C213 11 210 11 207 12

C201 16 207 25 213 22

Z

M319 20

C323 16 320 10 315 10

C312 10 309 13 309 16

C309 17 310 19 311 20

C312 21 314 22 315 22

C316 22 318 21 319 20

Z

M466 20

C469 18 469 13 466 11

C463 9 462 9 459 11

C457 12 456 17 459 19

C461 21 464 22 466 20

Z

M126 16

C128 12 127 10 124 8

L121 6

L118 8

C117 9 115 11 115 12

C114 17 122 20 126 16

Z

M150 16

C155 12 149 4 143 7

C140 10 140 13 141 16

C143 18 147 19 150 16

Z

M576 16

C578 15 578 12 577 9

C576 8 575 7 572 7

C567 7 565 12 568 17

C570 19 575 18 576 16

Z

M22 15

C24 12 24 11 22 8

C19 4 12 6 12 11

C12 17 19 19 22 15

Z

M105 15

C109 11 106 5 101 5

C98 5 95 9 95 12

C97 17 101 19 105 15

Z

M199 14

L201 11

L199 8

C197 5 195 4 191 6

C189 8 188 12 191 15

C193 18 197 17 199 14

Z

M38 13

C41 11 40 6 37 4

C35 3 34 3 32 4

C28 6 28 12 31 14

C33 15 37 15 38 13

Z

M558 14

C561 12 561 7 557 4

C555 3 554 3 552 4

C550 5 549 7 549 9

C549 14 553 17 558 14

Z

M419 11

C423 8 421 1 416 1

C410 1 408 8 412 11

C415 13 416 13 419 11

Z

M514 11

C516 9 517 6 514 4

C511 0 504 3 504 7

C504 12 510 15 514 11

Z

"/>

</svg>

