<?xml version="1.0" standalone="no"?>

<!DOCTYPE svg PUBLIC "-//W3C//DTD SVG 20010904//EN"

 "http://www.w3.org/TR/2001/REC-SVG-20010904/DTD/svg10.dtd">

<svg version="1.0" xmlns="http://www.w3.org/2000/svg"

 width="586.000000pt" height="586.000000pt" viewBox="0 0 586.000000 586.000000"

 preserveAspectRatio="xMidYMid meet">

<path fill="#f1eded" stroke="none" d="
M0 293

L0 0

L293 0

L586 0

L586 293

L586 586

L293 586

L0 586

L0 293

Z

"/>

<path fill="#7d546c" stroke="none" d="
M0 563

C0 540 0 540 2 541

C6 545 11 541 9 536

C8 534 3 533 1 535

C0 536 0 535 0 530

L0 523

L3 527

C7 530 11 531 11 529

C11 528 11 527 10 527

C10 527 8 525 7 523

C5 520 5 514 6 508

C8 505 5 505 2 509

L0 511

L0 499

C0 488 0 487 2 487

C4 487 6 484 5 481

C5 480 4 479 2 478

L0 478

L0 414

C0 352 0 351 2 350

C7 349 7 343 2 342

C0 341 0 340 0 315

C0 291 0 289 2 289

C4 289 6 287 6 285

C6 282 4 280 2 280

C0 280 0 278 0 254

C0 229 0 227 2 226

C3 225 4 223 4 222

C4 221 3 219 2 218

C0 217 0 215 0 205

C0 193 0 193 2 195

C5 197 9 195 9 191

C9 187 6 185 2 187

L0 189

L0 158

C0 131 0 128 2 129

C5 133 9 131 9 126

C9 124 8 123 6 122

C5 122 3 122 2 123

C0 124 0 124 0 121

C0 119 1 117 2 116

C3 114 3 111 2 109

C0 108 0 101 0 54

L0 0

L62 0

C124 0 125 0 125 2

C127 6 134 5 134 1

C134 0 146 0 210 0

L287 0

L288 2

C288 4 289 5 292 5

C294 5 295 4 295 2

L296 0

L336 0

L376 0

L377 2

C377 4 378 5 381 5

C383 5 384 4 384 2

C385 0 386 0 396 0

L407 0

L402 2

C398 4 395 8 396 10

C397 10 399 9 401 8

C406 5 411 5 416 8

C418 9 420 10 421 10

C422 8 419 4 415 2

L411 0

L441 0

C458 0 471 0 470 1

C466 2 466 7 469 9

C474 12 478 5 474 2

C472 0 472 0 492 0

C512 0 513 0 514 2

C515 3 516 4 518 4

C520 4 521 3 522 2

C523 0 524 0 555 0

L586 0

L586 54

C586 101 586 108 585 108

C584 108 582 109 581 110

C580 113 581 117 584 117

C586 117 586 118 586 167

L586 216

L584 218

C580 221 580 224 584 226

L586 227

L586 254

C586 276 586 280 585 282

C583 284 583 285 585 287

C587 290 587 342 585 342

C583 343 583 349 585 350

C586 350 586 355 586 381

L586 412

L583 411

C580 411 579 411 578 413

C577 416 577 416 578 418

C581 420 583 421 585 419

C586 418 586 424 586 448

C586 473 586 478 585 479

C584 480 583 481 583 483

C583 484 584 485 585 486

C585 487 586 489 586 490

C586 493 586 493 584 492

C579 489 575 496 579 499

C581 500 582 501 584 500

L586 499

L586 525

C586 551 586 551 584 550

C581 549 577 551 577 554

C577 557 581 559 584 558

C586 557 586 557 586 571

L586 586

L555 586

L523 586

L522 584

C520 580 515 580 514 584

C513 586 511 586 483 586

L452 586

L453 584

C453 581 451 578 449 578

C446 578 444 581 444 584

L445 586

L415 586

L386 586

L384 584

C381 581 377 581 376 584

C376 586 375 586 356 586

C342 586 336 586 337 585

C338 583 336 579 333 578

C330 578 328 579 328 583

L328 586

L312 586

C297 586 296 586 296 584

C294 581 291 580 288 583

C287 585 285 586 284 586

C282 586 282 586 283 584

C285 582 285 579 283 578

C281 576 277 577 276 579

C275 582 275 583 277 584

C278 586 277 586 264 586

C254 586 251 586 252 585

C255 583 255 578 252 577

C250 576 249 576 247 577

C245 579 244 582 247 584

C248 586 246 586 191 586

C142 586 134 586 134 585

C134 584 133 583 132 582

C130 581 129 581 127 582

C126 583 125 584 125 585

C125 586 122 586 117 586

L110 586

L113 584

C116 582 119 577 117 576

C117 575 115 576 112 578

C107 581 104 582 98 579

C96 578 94 578 93 578

C92 579 94 582 97 584

L101 586

L55 586

C13 586 9 586 10 584

C12 583 12 582 11 579

C10 577 6 576 4 578

C3 580 3 583 4 585

C5 586 5 586 3 586

L0 586

L0 563

Z

M170 583

C172 579 170 576 166 576

C162 576 160 580 162 583

C165 586 168 586 170 583

Z

M67 582

C68 580 68 577 67 575

C64 573 59 574 59 578

C59 582 64 584 67 582

Z

M228 581

C229 580 230 579 230 578

C230 576 227 573 225 573

C223 573 220 576 220 578

C220 579 224 583 225 583

C226 583 227 582 228 581

Z

M567 582

C568 581 568 579 568 577

C568 575 567 574 565 574

C560 574 557 578 561 581

C563 583 565 583 567 582

Z

M26 580

C28 579 28 577 27 575

C25 572 21 573 19 576

C18 577 18 578 20 580

C21 582 24 583 26 580

Z

M269 580

C270 579 271 578 271 577

C271 576 267 572 266 572

C265 572 261 575 261 577

C261 579 264 582 266 582

C266 582 268 581 269 580

Z

M304 580

C305 579 306 578 306 577

C306 576 302 572 301 572

C300 572 296 576 296 577

C296 578 300 582 301 582

C302 582 303 581 304 580

Z

M362 581

C362 580 363 579 363 578

C363 576 362 575 362 574

C361 574 360 573 359 573

C357 573 356 574 355 574

C355 575 354 576 354 578

C354 579 355 580 355 581

C356 581 357 582 359 582

C360 582 361 581 362 581

Z

M375 580

C376 580 377 578 377 577

C377 575 374 572 373 572

C371 572 368 575 368 577

C368 579 371 582 373 582

C373 582 375 581 375 580

Z

M394 581

C394 580 395 579 395 578

C395 576 394 575 394 574

C393 574 392 573 391 573

C389 573 388 574 387 574

C387 575 386 576 386 578

C386 579 387 580 387 581

C388 581 389 582 391 582

C392 582 393 581 394 581

Z

M142 578

C144 574 142 571 138 571

C134 571 132 574 134 578

C135 579 137 580 138 580

C139 580 141 579 142 578

Z

M467 579

C470 575 464 569 460 572

C459 573 459 577 460 579

C462 580 466 580 467 579

Z

M196 578

C199 575 196 570 193 570

C188 570 187 574 190 577

C191 579 194 579 196 578

Z

M327 572

C327 568 326 564 323 561

C319 557 319 557 317 561

C315 566 316 572 321 576

C324 578 326 577 327 572

Z

M486 576

C489 574 489 569 486 568

C481 566 477 572 481 575

C482 577 483 577 486 576

Z

M543 576

C546 574 543 567 539 568

C536 569 534 572 536 575

C537 577 541 578 543 576

Z

M54 575

C56 573 55 572 49 571

C44 571 40 569 38 564

C35 559 33 559 33 563

C33 567 36 572 39 574

C43 576 51 577 54 575

Z

M155 573

C157 570 155 568 152 567

C149 567 147 569 147 571

C147 576 153 578 155 573

Z

M436 574

C439 572 439 567 436 566

C433 565 433 565 431 566

C428 569 428 572 431 573

C434 575 434 575 436 574

Z

M286 569

C291 564 290 554 285 555

C281 557 278 562 278 567

C278 575 281 575 286 569

Z

M341 573

C341 572 342 571 342 570

C342 568 341 567 341 566

C340 566 339 565 338 565

C336 565 335 566 334 566

C334 567 333 568 333 570

C333 571 334 572 334 573

C335 573 336 574 338 574

C339 574 340 573 341 573

Z

M452 573

C453 572 453 570 453 568

C453 566 452 565 450 565

C445 565 442 569 446 572

C448 574 450 575 452 573

Z

M520 573

C522 570 520 566 517 565

C514 565 512 566 512 569

C512 574 517 576 520 573

Z

M246 571

C247 568 247 568 246 566

C243 563 240 563 238 566

C236 570 238 573 242 573

C244 573 245 572 246 571

Z

M417 571

C420 569 419 566 416 564

C415 563 414 563 412 565

C410 566 409 570 412 572

C414 573 416 573 417 571

Z

M88 569

C90 567 91 564 89 564

C89 564 87 565 85 566

C81 568 75 567 71 564

C67 561 65 560 65 562

C65 564 68 568 71 570

C76 573 84 572 88 569

Z

M212 569

C214 566 212 562 209 562

C206 562 204 564 204 567

C204 571 210 573 212 569

Z

M265 570

C265 569 266 568 266 567

C266 565 265 564 265 563

C264 563 263 562 262 562

C260 562 259 563 258 563

C258 564 257 565 257 567

C257 568 258 569 258 570

C259 570 260 571 262 571

C263 571 264 570 265 570

Z

M175 568

C177 565 175 562 172 561

C168 560 165 567 168 569

C170 571 174 570 175 568

Z

M387 568

C389 565 387 561 383 561

C379 561 377 565 379 568

C380 569 382 570 383 570

C384 570 386 569 387 568

Z

M20 567

C23 564 22 560 18 560

C15 560 13 562 13 565

C13 569 17 570 20 567

Z

M369 568

C371 567 371 565 371 563

C371 561 370 560 368 560

C363 560 360 564 364 567

C365 569 367 569 369 568

Z

M231 564

C233 560 231 557 227 557

C223 557 221 561 223 564

C226 567 229 567 231 564

Z

M307 559

C309 553 307 545 303 547

C298 548 296 558 300 563

C301 565 301 565 303 564

C304 563 306 561 307 559

Z

M134 562

C137 560 140 555 140 552

C140 548 138 548 136 552

C132 557 129 559 123 559

C119 559 118 560 118 561

C118 564 128 565 134 562

Z

M408 562

C409 561 410 559 410 559

C410 557 407 554 405 554

C403 554 400 557 400 559

C400 560 404 564 405 564

C406 564 407 563 408 562

Z

M472 562

C474 559 472 555 469 555

C466 555 464 557 464 560

C464 564 470 566 472 562

Z

M570 563

C571 562 571 560 571 558

C571 556 570 555 568 555

C563 555 560 559 564 562

C566 564 568 564 570 563

Z

M425 562

C428 560 428 555 425 554

C422 553 422 553 420 554

C417 557 417 560 420 561

C423 563 423 563 425 562

Z

M487 560

C491 557 488 553 483 553

C481 553 480 554 480 556

C480 561 484 564 487 560

Z

M504 560

C504 559 505 558 505 557

C505 555 504 554 504 553

C503 553 502 552 501 552

C499 552 498 553 497 553

C497 554 496 555 496 557

C496 558 497 559 497 560

C498 560 499 561 501 561

C502 561 503 560 504 560

Z

M108 556

C111 554 114 549 112 548

C112 547 110 548 108 549

C104 553 99 554 93 552

C88 551 87 551 89 554

C92 559 102 560 108 556

Z

M163 557

C169 554 172 545 169 540

C167 538 167 539 166 544

C165 546 164 548 163 550

C162 552 155 556 153 556

C151 556 151 557 152 558

C153 560 160 559 163 557

Z

M185 557

C187 554 185 550 181 550

C177 550 175 553 177 557

C179 560 182 560 185 557

Z

M242 557

C246 554 243 550 238 550

C236 550 235 551 235 553

C235 558 239 561 242 557

Z

M256 557

C260 554 257 550 252 550

C250 550 249 551 249 553

C249 558 253 561 256 557

Z

M337 556

C339 551 336 544 331 542

C327 540 327 541 327 546

C327 550 329 555 333 557

C336 558 337 558 337 556

Z

M376 556

C377 555 378 554 378 553

C378 552 374 548 373 548

C372 548 368 552 368 553

C368 554 372 558 373 558

C374 558 375 557 376 556

Z

M360 556

C361 555 361 555 360 551

C358 547 353 543 348 543

C345 543 345 543 345 546

C345 552 355 559 360 556

Z

M444 556

C447 554 447 549 444 548

C439 546 435 552 439 555

C440 557 441 557 444 556

Z

M459 554

C462 552 461 549 459 547

C455 545 452 547 452 551

C452 555 456 557 459 554

Z

M542 554

C543 551 543 551 542 549

C538 545 534 547 534 552

C534 555 535 556 538 556

C540 556 541 555 542 554

Z

M15 552

C16 551 17 550 17 549

C17 548 13 544 12 544

C11 544 7 547 7 549

C7 551 10 554 12 554

C12 554 14 553 15 552

Z

M219 552

C220 552 221 550 221 549

C221 547 219 544 217 544

C214 544 212 546 212 549

C212 553 216 555 219 552

Z

M69 552

C73 550 72 549 66 548

C60 547 56 544 54 539

C52 535 50 536 51 540

C51 549 61 556 69 552

Z

M279 548

C281 547 282 544 283 542

C283 538 283 538 281 538

C274 538 269 543 269 550

C269 552 269 552 273 552

C275 551 278 550 279 548

Z

M44 549

C44 547 43 547 42 547

C36 547 31 542 30 534

C29 529 27 531 26 536

C26 542 28 547 33 549

C37 551 43 551 44 549

Z

M394 549

C395 546 395 546 394 544

C393 543 391 542 390 542

C389 542 387 543 386 544

C384 547 386 551 390 551

C392 551 393 550 394 549

Z

M204 548

C207 544 203 538 198 541

C194 543 196 549 201 549

C202 549 203 548 204 548

Z

M233 547

C236 543 230 537 226 540

C225 541 224 546 226 547

C227 549 232 548 233 547

Z

M372 546

C372 545 373 544 373 543

C373 541 372 540 372 539

C371 539 370 538 369 538

C367 538 366 539 365 539

C365 540 364 541 364 543

C364 544 365 545 365 546

C366 546 367 547 369 547

C370 547 371 546 372 546

Z

M430 546

C430 545 431 544 431 543

C431 541 430 540 430 539

C429 539 428 538 427 538

C425 538 424 539 423 539

C423 540 422 541 422 543

C422 544 423 545 423 546

C424 546 425 547 427 547

C428 547 429 546 430 546

Z

M477 546

C479 545 480 541 477 539

C475 537 475 537 472 539

C470 540 469 543 472 545

C473 547 474 547 477 546

Z

M569 545

C572 543 572 538 569 537

C564 535 560 541 564 544

C565 546 566 546 569 545

Z

M261 542

C264 540 266 535 265 534

C265 533 263 533 260 533

C256 533 251 536 249 541

C248 544 248 545 253 545

C257 545 259 544 261 542

Z

M319 542

C321 538 320 533 317 530

C314 527 314 527 312 528

C310 532 311 537 314 541

C317 545 318 545 319 542

Z

M413 543

C415 541 413 536 411 536

C407 534 403 540 406 543

C408 544 412 544 413 543

Z

M299 540

C302 537 302 536 302 532

C302 530 301 527 300 527

C300 527 297 528 295 530

C293 533 292 535 292 538

C292 544 294 545 299 540

Z

M381 540

C384 537 383 533 379 533

C377 533 376 534 375 534

C375 535 374 536 374 538

C374 542 378 543 381 540

Z

M451 541

C453 539 452 535 449 534

C446 532 444 534 443 537

C443 541 448 544 451 541

Z

M516 541

C518 539 516 534 514 534

C510 532 506 538 509 541

C511 542 515 542 516 541

Z

M138 538

C143 535 145 527 143 522

C142 519 140 520 140 523

C140 528 136 533 131 536

C126 538 126 538 128 540

C130 541 134 541 138 538

Z

M96 534

C97 530 96 525 94 523

C92 521 90 523 88 528

C87 531 87 534 90 538

C91 540 91 540 93 538

C94 537 95 535 96 534

Z

M464 539

C467 535 463 529 458 532

C454 534 456 540 461 540

C462 540 463 539 464 539

Z

M184 538

C187 536 187 531 184 530

C179 528 175 534 179 537

C180 539 181 539 184 538

Z

M545 538

C548 536 548 531 545 530

C540 528 536 533 540 537

C542 539 542 539 545 538

Z

M221 535

C224 533 224 528 221 527

C218 526 218 526 216 527

C213 530 213 533 216 534

C219 536 219 536 221 535

Z

M359 535

C361 534 361 533 359 530

C356 526 351 523 347 525

C344 525 344 526 344 528

C345 533 355 538 359 535

Z

M482 534

C482 533 481 532 480 531

C479 530 477 528 476 526

C474 523 474 522 474 516

C475 510 475 509 473 509

C469 510 467 521 469 527

C473 533 482 538 482 534

Z

M506 526

C513 519 511 513 499 507

C490 502 489 502 489 506

C490 507 490 513 490 518

C491 522 491 528 492 531

L492 535

L497 532

C500 531 504 528 506 526

Z

M77 532

C80 530 82 525 81 522

C81 519 76 520 73 524

C69 528 69 534 72 534

C74 534 76 533 77 532

Z

M113 530

C113 527 112 525 110 522

C106 518 103 518 102 522

C101 526 106 534 111 534

C113 534 113 533 113 530

Z

M337 533

C337 531 335 525 332 524

C329 522 323 521 323 523

C323 527 325 530 328 532

C332 534 336 535 337 533

Z

M561 533

C564 531 562 525 558 525

C556 525 553 528 553 530

C553 533 558 535 561 533

Z

M580 529

C583 527 583 524 580 522

C578 521 577 521 575 522

C572 523 572 528 575 530

C577 531 577 531 580 529

Z

M287 527

C289 526 291 522 291 520

C290 519 285 519 281 521

C276 523 274 528 278 529

C280 530 284 529 287 527

Z

M442 529

C442 528 443 527 443 526

C443 524 442 523 442 522

C441 522 440 521 439 521

C437 521 436 522 435 522

C435 523 434 524 434 526

C434 527 435 528 435 529

C436 529 437 530 439 530

C440 530 441 529 442 529

Z

M388 527

C390 524 388 520 384 520

C383 520 381 521 380 523

C379 524 379 525 381 527

C383 530 387 530 388 527

Z

M236 527

C240 525 238 519 234 519

C231 519 229 521 229 524

C229 527 232 529 236 527

Z

M43 526

C43 525 42 524 41 523

C40 522 39 520 38 517

C36 513 36 512 37 508

C38 502 38 501 35 503

C31 507 30 514 33 520

C35 525 43 529 43 526

Z

M162 526

C163 525 165 523 166 522

C170 518 170 508 166 504

C163 501 162 503 163 507

C165 512 164 518 160 522

C158 523 157 525 157 526

C158 527 159 527 162 526

Z

M409 525

C412 523 411 520 409 519

C407 517 404 517 403 519

C400 524 406 529 409 525

Z

M456 525

C456 524 457 523 457 522

C457 517 451 515 449 519

C448 522 448 523 450 524

C451 526 454 526 456 525

Z

M264 524

C268 522 272 518 271 517

C269 516 262 514 260 515

C257 516 252 520 252 521

C252 522 257 525 259 525

C260 525 263 524 264 524

Z

M528 523

C529 520 529 520 527 518

C524 514 518 518 520 523

C521 526 527 526 528 523

Z

M543 522

C544 522 545 520 545 519

C545 517 542 514 541 514

C539 514 536 517 536 519

C536 521 539 524 541 524

C541 524 543 523 543 522

Z

M375 520

C377 518 377 518 374 516

C370 513 363 512 359 515

C356 517 356 518 360 521

C364 524 372 523 375 520

Z

M68 519

C71 516 71 513 66 512

C62 512 57 514 55 517

C54 520 54 520 55 521

C57 523 65 521 68 519

Z

M129 519

C129 518 128 515 126 514

C123 512 122 511 118 511

C115 511 114 511 114 513

C114 514 115 516 117 518

C119 520 121 521 124 521

C128 521 129 521 129 519

Z

M202 518

C205 515 204 511 200 511

C197 511 195 513 195 516

C195 520 199 521 202 518

Z

M562 518

C564 516 563 512 561 511

C558 509 555 511 554 514

C553 518 560 521 562 518

Z

M181 517

C183 516 183 514 183 512

C183 510 182 509 180 509

C175 509 172 513 176 516

C177 518 179 518 181 517

Z

M315 515

C318 512 317 511 315 508

C312 504 305 504 302 507

C300 509 299 511 302 514

C305 518 312 519 315 515

Z

M344 515

L346 513

L344 510

C340 507 334 507 330 510

L328 513

L331 515

C335 518 340 518 344 515

Z

M433 516

C436 513 433 508 429 508

C426 509 424 513 426 515

C427 517 431 517 433 516

Z

M579 513

C581 509 579 506 575 506

C571 506 569 510 572 513

C574 515 577 515 579 513

Z

M228 512

C230 509 228 505 224 505

C220 505 218 508 220 512

C222 515 225 515 228 512

Z

M286 511

C289 509 289 508 285 506

C281 504 277 503 274 505

C270 507 270 508 274 511

C277 513 283 514 286 511

Z

M459 511

C461 508 460 505 457 504

C455 503 451 505 451 508

C451 510 454 513 456 513

C457 513 459 512 459 511

Z

M97 509

C98 508 99 507 99 505

C99 500 96 498 91 498

C84 498 80 505 86 509

C89 511 94 512 97 509

Z

M257 507

C261 505 261 504 257 501

C256 500 253 499 250 499

C245 499 240 502 240 504

C240 506 246 509 250 509

C252 509 255 508 257 507

Z

M528 506

C530 503 528 500 525 499

C521 498 519 502 520 506

C521 509 526 509 528 506

Z

M398 506

C398 505 399 504 399 503

C399 501 398 500 398 499

C397 499 396 498 395 498

C393 498 392 499 391 499

C391 500 390 501 390 503

C390 504 391 505 391 506

C392 506 393 507 395 507

C396 507 397 506 398 506

Z

M552 505

C553 502 553 502 552 500

C549 497 546 497 544 500

C542 504 544 507 548 507

C550 507 551 506 552 505

Z

M359 504

C361 504 362 502 363 501

C364 499 364 499 361 498

C359 497 357 496 355 496

C352 496 346 499 345 502

C344 506 353 508 359 504

Z

M19 500

C17 494 18 490 23 485

C25 483 26 481 25 481

C24 479 17 483 15 487

C12 492 13 499 16 503

C19 506 21 504 19 500

Z

M65 504

C69 503 69 501 65 498

C62 496 55 495 52 497

C51 499 51 499 53 501

C56 505 61 506 65 504

Z

M129 503

C132 501 131 498 126 497

C123 496 122 496 119 497

C117 498 115 500 115 501

C113 505 124 507 129 503

Z

M148 502

C149 500 150 498 150 494

C150 489 150 488 146 485

C142 481 138 480 138 482

C138 483 139 484 140 485

C144 487 146 495 143 503

C142 506 145 506 148 502

Z

M214 503

C217 502 217 496 214 495

C212 494 211 494 209 495

C207 497 206 500 209 502

C211 504 211 504 214 503

Z

M332 502

C335 500 338 497 338 494

C338 492 337 492 334 492

C329 492 324 497 324 501

C324 503 329 504 332 502

Z

M512 495

C511 492 507 492 501 495

C497 497 497 497 499 498

C500 498 504 500 507 501

L512 503

L512 500

C513 498 513 496 512 495

Z

M294 498

C294 494 290 489 285 488

C283 488 282 488 281 489

C280 494 286 501 292 501

C294 501 294 500 294 498

Z

M564 498

C565 497 566 496 566 495

C566 494 562 490 561 490

C560 490 556 494 556 495

C556 497 559 500 561 500

C561 500 563 499 564 498

Z

M428 498

C428 497 429 496 429 495

C429 493 428 492 428 491

C427 491 426 490 425 490

C423 490 422 491 421 491

C421 492 420 493 420 495

C420 496 421 497 421 498

C422 498 423 499 425 499

C426 499 427 498 428 498

Z

M464 497

C467 495 466 494 460 493

C454 492 450 490 447 484

C443 477 440 481 444 489

C448 497 457 501 464 497

Z

M487 497

C492 494 495 492 497 488

C503 479 487 481 479 490

C473 498 477 501 487 497

Z

M181 496

C184 493 185 485 183 481

C180 477 172 472 172 475

C172 476 173 478 175 480

C178 484 180 489 178 493

C177 495 177 497 177 497

C177 499 180 498 181 496

Z

M198 496

C200 493 198 489 194 489

C190 489 188 493 190 496

C191 497 193 498 194 498

C195 498 197 497 198 496

Z

M319 495

C322 492 323 486 321 483

C320 482 320 482 317 484

C313 486 312 490 312 495

C313 499 316 499 319 495

Z

M306 494

C308 490 306 485 303 482

L300 480

L298 482

C297 485 297 488 298 492

C300 495 302 497 304 497

C305 497 306 496 306 494

Z

M274 495

C275 493 272 488 269 487

C264 484 258 485 258 488

C258 490 261 493 264 495

C266 496 274 496 274 495

Z

M542 493

C542 492 543 491 543 490

C543 488 542 487 542 486

C539 484 534 485 534 489

C534 493 539 495 542 493

Z

M117 491

C120 489 123 483 121 482

C118 479 108 485 108 491

C108 493 109 493 111 493

C112 493 115 492 117 491

Z

M228 492

C231 488 225 482 221 485

C220 486 219 491 221 492

C222 494 227 493 228 492

Z

M74 491

C76 486 70 479 65 479

C62 479 62 479 62 482

C62 485 64 488 67 490

C71 492 74 493 74 491

Z

M42 484

C43 477 47 474 54 472

C56 471 56 471 55 469

C52 467 46 468 42 473

C39 476 38 477 38 481

C38 490 41 492 42 484

Z

M245 487

C247 483 245 480 241 480

C237 480 235 484 237 487

C240 490 243 490 245 487

Z

M575 487

C576 486 577 485 577 484

C577 483 573 479 572 479

C571 479 567 483 567 484

C567 485 571 489 572 489

C573 489 574 488 575 487

Z

M362 487

C365 485 369 479 367 477

C366 475 360 476 356 478

C353 480 350 485 351 487

C351 489 359 488 362 487

Z

M412 486

C414 483 412 479 409 479

C406 479 404 481 404 484

C404 488 410 490 412 486

Z

M515 486

C519 482 515 476 510 479

C507 480 507 485 510 487

C512 488 513 488 515 486

Z

M86 484

C88 479 86 472 82 471

C78 469 76 479 81 484

C84 488 84 488 86 484

Z

M101 484

C104 481 105 477 103 472

C102 470 102 470 100 471

C99 472 97 474 96 476

C94 479 94 481 95 483

C96 488 98 488 101 484

Z

M338 485

C341 483 343 480 344 476

C344 472 344 472 342 472

C336 472 329 481 330 485

C331 487 334 487 338 485

Z

M386 483

C390 480 387 476 382 476

C380 476 379 477 379 479

C379 484 383 487 386 483

Z

M554 482

C556 479 554 475 550 475

C546 475 544 479 547 482

C549 485 551 484 554 482

Z

M477 478

C477 472 475 464 472 461

C467 457 459 459 450 468

L447 472

L461 477

C469 480 476 483 476 483

C477 483 477 481 477 478

Z

M293 475

C292 471 288 466 284 465

C281 465 281 465 281 469

C281 474 284 479 288 481

C291 482 292 482 292 480

C293 479 293 477 293 475

Z

M219 477

C223 474 219 467 214 470

C211 471 211 476 214 478

C216 479 216 479 219 477

Z

M316 474

C318 469 318 467 316 463

C314 459 312 459 310 463

C306 469 308 480 313 478

C314 478 315 476 316 474

Z

M157 474

C158 470 156 464 152 461

C150 459 148 458 144 458

C138 458 137 460 143 462

C147 463 153 469 153 471

C153 474 155 478 156 478

C156 477 157 476 157 474

Z

M274 474

C273 470 269 465 263 464

C259 464 258 465 259 470

C261 474 266 478 271 478

C274 478 274 478 274 474

Z

M492 469

C493 466 493 466 491 464

C490 463 488 462 486 462

C484 462 484 462 484 470

L484 478

L487 475

C489 473 491 470 492 469

Z

M508 473

C508 467 504 465 500 469

C499 471 499 471 500 474

C501 476 502 476 504 476

C507 476 508 475 508 473

Z

M189 473

C191 470 189 467 186 466

C182 465 179 472 182 474

C184 476 188 475 189 473

Z

M245 473

C249 470 246 466 242 466

C238 467 237 470 239 473

C240 475 243 476 245 473

Z

M130 471

C131 468 129 463 126 460

C123 456 118 455 113 456

C108 457 108 460 113 460

C118 460 123 463 126 468

C128 472 129 473 130 471

Z

M207 469

C209 465 207 462 203 462

C199 462 197 466 199 469

C202 472 205 472 207 469

Z

M524 468

C525 466 523 462 521 462

C518 461 515 463 515 466

C515 471 521 472 524 468

Z

M18 466

C19 460 22 456 28 455

C33 453 33 450 27 451

C19 451 14 456 14 464

C14 471 16 472 18 466

Z

M403 469

C407 468 408 463 404 461

C400 459 396 464 399 468

C400 470 401 470 403 469

Z

M334 465

C336 463 337 461 337 458

C337 450 334 449 329 455

C327 457 326 459 326 462

C326 470 329 471 334 465

Z

M432 468

C436 466 434 460 430 460

C428 460 427 461 426 461

C424 464 425 469 429 469

C430 469 431 469 432 468

Z

M541 467

C545 465 543 459 539 459

C537 459 536 460 535 460

C533 463 534 468 538 468

C539 468 540 468 541 467

Z

M367 465

C368 464 369 463 369 462

C369 460 366 457 364 457

C363 457 359 461 359 462

C359 463 363 467 364 467

C365 467 366 466 367 465

Z

M302 457

C301 453 301 451 298 449

C294 445 292 446 291 452

C291 456 293 461 296 464

L298 466

L300 464

C302 462 302 460 302 457

Z

M564 464

C567 460 561 454 557 457

C556 458 556 462 557 464

C559 465 563 465 564 464

Z

M273 462

C276 461 276 455 273 454

C271 453 270 453 268 454

C266 456 265 459 268 461

C270 463 270 463 273 462

Z

M47 457

C50 452 55 449 62 449

C66 449 66 447 61 445

C53 443 45 448 43 455

C43 458 43 461 44 461

C45 461 46 459 47 457

Z

M72 459

C76 455 81 454 86 456

C91 458 92 458 91 455

C89 452 84 450 79 450

C74 451 73 451 70 454

C65 460 66 463 72 459

Z

M10 457

C11 455 9 451 7 451

C1 449 -2 457 4 459

C6 460 9 459 10 457

Z

M253 458

C254 455 254 455 252 453

C249 449 243 453 245 458

C246 461 252 461 253 458

Z

M356 456

C356 455 357 454 357 453

C357 451 356 450 356 449

C353 447 348 448 348 452

C348 456 353 458 356 456

Z

M383 456

C384 455 384 453 384 451

C384 449 383 448 381 448

C376 448 373 452 377 455

C379 457 381 457 383 456

Z

M221 454

C222 452 222 448 221 447

C217 444 211 450 214 454

C215 455 219 455 221 454

Z

M453 453

C454 452 455 451 455 450

C455 449 454 448 453 447

C452 446 451 445 450 445

C449 445 445 449 445 450

C445 452 448 455 450 455

C450 455 452 454 453 453

Z

M467 453

C470 451 469 449 467 446

C464 444 460 446 460 450

C460 454 464 456 467 453

Z

M198 452

C199 449 197 445 194 445

C192 445 189 447 189 449

C189 454 196 456 198 452

Z

M169 451

C170 450 171 449 171 448

C171 447 168 443 166 443

C164 443 161 446 161 448

C161 449 165 453 166 453

C167 453 168 452 169 451

Z

M523 450

C524 447 524 447 523 445

C520 442 517 442 515 445

C513 449 515 452 519 452

C521 452 522 451 523 450

Z

M117 448

C117 440 104 435 96 440

C92 442 92 446 95 445

C103 442 109 443 113 448

C116 451 117 451 117 448

Z

M240 449

C244 447 242 441 238 441

C233 441 231 447 235 449

C237 450 238 450 240 449

Z

M261 449

C262 448 262 446 262 445

C260 439 253 441 253 446

C253 447 253 449 254 449

C255 451 260 450 261 449

Z

M281 448

C283 445 281 441 277 441

C273 441 271 444 273 448

C275 451 278 451 281 448

Z

M502 449

C502 448 503 447 503 446

C503 444 502 443 502 442

C501 442 500 441 499 441

C497 441 496 442 495 442

C495 443 494 444 494 446

C494 447 495 448 495 449

C496 449 497 450 499 450

C500 450 501 449 502 449

Z

M553 448

C556 445 553 440 549 440

C546 441 544 445 546 447

C547 449 551 449 553 448

Z

M150 447

C151 444 148 439 145 436

C141 432 133 431 129 433

C126 436 127 437 131 436

C136 436 143 439 145 444

C147 448 149 449 150 447

Z

M11 446

C14 443 11 438 8 438

C5 438 3 440 3 443

C3 445 5 447 8 447

C9 447 10 446 11 446

Z

M420 446

C421 446 421 444 421 443

C421 440 420 438 417 438

C415 438 412 441 412 443

C412 446 417 448 420 446

Z

M580 446

C580 445 581 444 581 443

C581 441 580 440 580 439

C579 439 578 438 577 438

C575 438 574 439 573 439

C573 440 572 441 572 443

C572 444 573 445 573 446

C574 446 575 447 577 447

C578 447 579 446 580 446

Z

M391 442

C393 439 393 436 390 435

C388 434 385 435 384 438

C383 440 386 444 388 444

C389 444 391 443 391 442

Z

M454 441

C455 440 456 439 456 438

C456 436 453 433 451 433

C449 433 446 436 446 438

C446 439 450 443 451 443

C452 443 453 442 454 441

Z

M307 441

C310 438 306 432 302 434

C300 434 298 439 300 441

C301 442 305 442 307 441

Z

M364 441

C367 440 367 434 364 433

C362 432 361 432 359 433

C357 435 356 438 359 440

C361 442 361 442 364 441

Z

M25 439

C27 436 25 432 21 432

C17 432 15 435 17 439

C19 442 22 442 25 439

Z

M440 440

C440 439 441 438 441 437

C441 435 440 434 440 433

C439 433 438 432 437 432

C435 432 434 433 433 433

C433 434 432 435 432 437

C432 438 433 439 433 440

C434 440 435 441 437 441

C438 441 439 440 440 440

Z

M474 439

C474 438 475 437 475 436

C475 434 474 433 474 432

C471 430 466 431 466 435

C466 439 471 441 474 439

Z

M43 438

C43 437 44 436 44 435

C44 430 38 428 36 432

C35 435 35 436 37 437

C38 439 41 439 43 438

Z

M183 437

C184 436 185 435 185 434

C185 433 182 429 180 429

C178 429 175 432 175 434

C175 435 179 439 180 439

C181 439 182 438 183 437

Z

M319 438

C321 437 321 435 321 433

C321 431 320 430 318 430

C313 430 310 434 314 437

C316 439 317 439 319 438

Z

M342 436

C346 433 343 428 339 428

C337 428 335 431 335 433

C335 435 338 438 340 438

C340 438 342 437 342 436

Z

M530 436

C534 433 531 428 526 429

C524 430 523 431 523 433

C523 438 527 440 530 436

Z

M163 435

C164 433 164 432 163 430

C161 427 158 427 155 430

C154 432 154 432 155 435

C156 438 161 438 163 435

Z

M236 435

C239 432 236 427 233 427

C230 427 228 429 228 432

C228 434 230 436 233 436

C234 436 235 435 236 435

Z

M251 435

C253 433 251 428 249 428

C245 426 242 430 244 434

C244 436 249 436 251 435

Z

M214 431

C217 428 216 424 212 424

C209 424 207 426 207 429

C207 433 211 434 214 431

Z

M56 431

C59 429 59 424 56 423

C53 422 53 422 51 423

C48 426 48 427 51 430

C53 432 53 432 56 431

Z

M70 430

C74 427 80 426 85 429

C88 430 88 430 89 428

C90 426 85 422 80 421

C75 420 69 423 66 427

C62 433 64 434 70 430

Z

M413 429

C414 428 415 427 415 426

C415 425 411 421 410 421

C408 421 405 424 405 426

C405 427 409 431 410 431

C411 431 412 430 413 429

Z

M430 429

C432 426 430 422 426 422

C422 422 420 426 422 429

C423 430 425 431 426 431

C427 431 429 430 430 429

Z

M114 429

C116 427 115 423 112 422

C109 420 107 422 106 425

C106 429 111 432 114 429

Z

M274 427

C278 424 275 420 270 420

C268 420 267 421 267 423

C267 428 271 431 274 427

Z

M398 424

C398 422 398 421 396 420

C393 419 393 419 391 420

C388 423 388 426 391 427

C394 430 397 428 398 424

Z

M356 427

C358 426 359 422 357 420

C356 418 353 418 351 420

C349 421 348 424 351 426

C352 428 353 428 356 427

Z

M374 426

C376 423 376 420 373 419

C369 417 365 421 367 425

C369 429 372 429 374 426

Z

M567 427

C568 425 568 421 567 420

C563 417 557 423 560 427

C561 428 565 428 567 427

Z

M133 425

C134 423 134 423 133 420

C132 418 131 418 129 418

C126 418 125 419 125 421

C125 427 129 429 133 425

Z

M479 425

C480 422 480 422 479 420

C478 419 476 418 475 418

C474 418 472 419 471 420

C469 423 471 427 475 427

C477 427 478 426 479 425

Z

M493 426

C493 425 494 424 494 423

C494 421 493 420 493 419

C492 419 491 418 490 418

C488 418 487 419 486 419

C486 420 485 421 485 423

C485 424 486 425 486 426

C487 426 488 427 490 427

C491 427 492 426 493 426

Z

M151 424

C154 422 153 419 151 417

C147 415 144 417 144 421

C144 425 148 427 151 424

Z

M465 425

C466 423 466 419 465 418

C461 415 455 421 458 425

C459 426 463 426 465 425

Z

M18 423

C20 420 18 416 15 416

C12 416 10 418 10 421

C10 425 16 427 18 423

Z

M449 424

C452 422 452 417 449 416

C446 415 446 415 444 416

C441 419 441 422 444 423

C447 425 447 425 449 424

Z

M32 422

C35 419 34 415 30 415

C27 415 25 417 25 420

C25 424 29 425 32 422

Z

M174 422

C178 419 175 415 171 415

C167 416 166 419 168 422

C169 424 172 425 174 422

Z

M202 422

C204 419 202 416 199 415

C196 415 194 417 194 420

C194 423 195 424 198 424

C200 424 201 423 202 422

Z

M257 422

C259 418 257 415 253 415

C249 415 247 419 250 422

C252 425 255 424 257 422

Z

M328 422

C329 421 330 420 330 419

C330 418 329 417 328 416

C327 415 326 414 325 414

C324 414 323 415 322 416

C321 417 320 418 320 419

C320 420 321 421 322 422

C323 423 324 424 325 424

C326 424 327 423 328 422

Z

M298 419

C299 416 299 416 298 414

C295 411 292 411 290 414

C288 418 290 421 294 421

C296 421 297 420 298 419

Z

M102 417

C104 414 104 411 101 410

C97 408 92 413 96 417

C98 420 101 420 102 417

Z

M393 417

C396 414 395 410 391 410

C389 410 388 411 387 411

C387 412 386 413 386 415

C386 419 390 420 393 417

Z

M63 413

C63 407 56 407 54 412

C54 414 54 415 56 416

C58 418 59 418 60 417

C62 416 63 414 63 413

Z

M239 416

C242 413 240 409 236 409

C232 409 230 412 232 416

C234 418 237 419 239 416

Z

M343 417

C345 416 345 414 345 412

C345 410 344 409 342 409

C337 409 334 413 338 416

C339 418 341 418 343 417

Z

M520 414

C523 410 525 406 524 405

C523 404 522 405 520 407

C515 411 511 413 505 411

C501 410 500 410 501 413

C503 417 515 418 520 414

Z

M541 416

C541 415 542 414 542 413

C542 411 541 410 541 409

C540 409 539 408 538 408

C536 408 535 409 534 409

C534 410 533 411 533 413

C533 414 534 415 534 416

C535 416 536 417 538 417

C539 417 540 416 541 416

Z

M218 414

C220 411 218 406 215 406

C211 406 208 411 212 414

C213 416 217 416 218 414

Z

M417 414

C419 410 417 407 413 407

C409 407 407 411 410 414

C412 417 415 416 417 414

Z

M436 415

C439 414 439 409 436 408

C434 406 433 406 432 407

C429 409 428 412 431 414

C432 416 433 416 436 415

Z

M45 414

C48 412 48 407 45 406

C42 405 42 405 40 406

C37 409 37 412 40 413

C43 415 43 415 45 414

Z

M78 414

C81 412 78 405 74 406

C71 407 69 410 71 413

C72 415 76 416 78 414

Z

M366 414

C367 413 367 411 367 410

C365 404 358 406 358 411

C358 412 358 414 359 414

C360 416 365 415 366 414

Z

M316 413

C317 411 317 407 316 406

C312 403 306 409 309 413

C310 414 314 414 316 413

Z

M283 412

C286 411 286 405 283 404

C281 403 280 403 278 404

C276 406 275 409 278 411

C279 413 280 413 283 412

Z

M460 411

C464 409 464 407 459 407

C453 407 448 404 445 399

C443 394 441 395 441 399

C441 408 453 415 460 411

Z

M24 408

C25 406 23 402 21 402

C15 400 12 408 18 410

C20 411 23 410 24 408

Z

M142 405

C142 401 139 399 135 401

C132 402 132 406 135 408

C137 410 138 410 139 409

C141 408 142 406 142 405

Z

M265 408

C266 408 267 406 267 405

C267 403 264 400 263 400

C261 400 258 403 258 405

C258 407 261 410 263 410

C263 410 265 409 265 408

Z

M557 406

C558 404 558 400 557 399

C553 396 547 402 550 406

C551 407 555 407 557 406

Z

M300 404

C303 402 302 398 300 397

C295 394 291 401 295 404

C298 406 298 406 300 404

Z

M491 405

C495 404 500 399 500 397

C500 395 497 396 495 398

C492 400 485 401 480 398

C476 396 475 395 475 398

C475 400 478 403 483 405

C487 406 487 406 491 405

Z

M59 404

C62 403 62 397 59 396

C57 395 56 395 54 396

C52 398 51 401 54 403

C56 405 56 405 59 404

Z

M164 401

C165 398 165 398 164 396

C161 393 158 393 156 396

C154 400 156 403 160 403

C162 403 163 402 164 401

Z

M193 400

C194 397 191 393 188 394

C185 395 183 398 185 401

C187 404 192 403 193 400

Z

M356 402

C360 400 358 393 354 393

C352 393 349 396 349 398

C349 400 351 403 353 403

C354 403 355 403 356 402

Z

M117 400

C120 397 117 392 114 392

C111 392 109 394 109 397

C109 399 111 401 114 401

C115 401 116 400 117 400

Z

M239 400

C242 397 239 392 236 392

C233 392 231 394 231 397

C231 399 233 401 236 401

C237 401 238 400 239 400

Z

M340 398

C341 395 341 395 340 393

C337 390 334 390 332 393

C330 397 332 400 336 400

C338 400 339 399 340 398

Z

M416 398

C417 395 417 395 416 393

C413 390 410 390 408 393

C406 397 408 400 412 400

C414 400 415 399 416 398

Z

M432 398

C434 396 433 392 431 391

C428 389 425 391 424 394

C423 398 430 401 432 398

Z

M42 397

C43 395 43 391 42 390

C38 387 32 393 35 397

C36 398 40 398 42 397

Z

M322 397

C322 396 323 395 323 394

C323 392 322 391 322 390

C321 390 320 389 319 389

C317 389 316 390 315 390

C315 391 314 392 314 394

C314 395 315 396 315 397

C316 397 317 398 319 398

C320 398 321 397 322 397

Z

M220 394

C223 391 220 386 217 386

C214 386 212 388 212 391

C212 393 214 395 217 395

C218 395 219 394 220 394

Z

M391 391

C392 389 392 388 391 386

C389 383 386 383 383 386

C382 388 382 388 383 391

C384 394 389 394 391 391

Z

M575 391

C578 389 577 386 575 384

C571 382 568 384 568 388

C568 392 572 394 575 391

Z

M89 391

C91 389 89 384 87 384

C83 382 79 388 82 391

C84 392 88 392 89 391

Z

M374 390

C378 386 373 380 368 383

C366 385 365 388 368 390

C370 393 372 392 374 390

Z

M536 389

C540 387 543 382 543 377

C542 373 541 372 540 376

C538 382 532 387 526 387

C523 387 522 389 524 390

C527 391 532 391 536 389

Z

M24 389

C25 387 25 384 24 382

C21 379 16 382 16 386

C16 388 18 390 21 390

C22 390 23 389 24 389

Z

M142 388

C145 386 145 381 142 380

C139 379 139 379 137 380

C134 383 134 386 137 387

C140 389 140 389 142 388

Z

M291 387

C293 382 287 378 284 382

C282 384 282 384 283 387

C284 390 290 390 291 387

Z

M513 386

C517 383 520 378 518 377

C517 376 516 377 513 379

L509 383

L501 383

C494 382 493 383 496 385

C500 389 508 390 513 386

Z

M311 387

C311 386 312 385 312 384

C312 382 311 381 311 380

C310 380 309 379 308 379

C306 379 305 380 304 380

C304 381 303 382 303 384

C303 385 304 386 304 387

C305 387 306 388 308 388

C309 388 310 387 311 387

Z

M425 386

C425 385 426 384 426 383

C426 381 425 380 425 379

C424 379 423 378 422 378

C420 378 419 379 418 379

C418 380 417 381 417 383

C417 384 418 385 418 386

C419 386 420 387 422 387

C423 387 424 386 425 386

Z

M162 385

C165 382 162 377 159 377

C154 377 153 381 156 384

C157 386 160 386 162 385

Z

M249 384

C251 382 250 378 248 377

C245 375 242 377 241 380

C240 384 247 387 249 384

Z

M449 385

C450 385 448 383 446 382

C441 379 438 376 437 370

C436 362 433 364 433 372

C433 377 435 382 439 384

C443 386 448 387 449 385

Z

M478 385

C483 383 482 381 476 381

C470 380 467 378 464 373

C461 369 459 369 459 373

C460 378 463 382 467 384

C472 386 474 386 478 385

Z

M206 383

C210 379 205 373 200 376

C198 378 197 381 200 383

C202 386 204 385 206 383

Z

M269 383

C270 382 271 381 271 380

C271 379 267 375 266 375

C265 375 261 378 261 380

C261 382 264 385 266 385

C266 385 268 384 269 383

Z

M332 383

C333 382 334 381 334 380

C334 379 331 375 329 375

C328 375 324 378 324 380

C324 381 325 382 326 383

C327 384 328 385 329 385

C330 385 331 384 332 383

Z

M178 383

C182 381 180 375 176 375

C173 375 171 377 171 380

C171 383 174 385 178 383

Z

M10 381

C13 378 10 373 7 373

C4 373 2 375 2 378

C2 380 4 382 7 382

C8 382 9 381 10 381

Z

M564 379

C565 379 568 376 569 375

C572 370 572 360 569 360

C568 360 567 362 567 364

C566 370 563 374 558 377

C556 378 554 379 554 379

C554 381 559 382 564 379

Z

M357 379

C360 377 360 372 357 371

C354 370 354 370 352 371

C349 374 349 377 352 378

C355 380 355 380 357 379

Z

M57 378

C59 376 58 371 56 371

C53 369 51 370 50 372

C49 375 49 376 51 377

C52 379 55 379 57 378

Z

M105 376

C108 374 107 370 104 369

C101 368 98 370 98 373

C98 375 101 378 103 378

C103 378 105 377 105 376

Z

M23 375

C24 375 25 373 25 372

C25 370 22 367 20 367

C19 367 15 371 15 372

C15 373 19 377 20 377

C20 377 22 376 23 375

Z

M126 375

C128 371 126 368 122 368

C118 368 116 372 118 375

C121 378 124 378 126 375

Z

M78 374

C81 370 77 364 72 367

C68 369 70 375 75 375

C76 375 77 374 78 374

Z

M312 370

C316 366 312 361 307 363

C303 365 305 372 310 372

C310 372 311 371 312 370

Z

M39 369

C43 366 41 362 36 362

C30 362 31 371 37 371

C37 371 39 370 39 369

Z

M163 368

C164 366 162 362 160 362

C155 360 152 366 156 369

C158 371 161 370 163 368

Z

M233 370

C236 368 236 365 234 363

C232 361 230 360 228 363

C225 365 226 368 228 369

C231 371 231 371 233 370

Z

M280 370

C282 369 283 365 281 363

C280 361 277 361 275 363

C273 364 272 367 275 369

C276 371 277 371 280 370

Z

M403 368

C406 365 405 361 401 361

C399 361 398 362 397 362

C397 363 396 364 396 366

C396 370 400 371 403 368

Z

M488 368

C492 365 494 359 492 356

C491 353 491 353 488 355

C484 357 483 359 483 364

C483 371 484 371 488 368

Z

M388 368

C388 367 389 366 389 365

C389 363 388 362 388 361

C387 361 386 360 385 360

C383 360 382 361 381 361

C381 362 380 363 380 365

C380 366 381 367 381 368

C382 368 383 369 385 369

C386 369 387 368 388 368

Z

M11 364

C12 362 10 358 8 358

C2 356 -1 364 5 366

C7 367 10 366 11 364

Z

M508 364

C509 361 509 355 506 352

C503 349 502 349 500 353

C499 357 500 362 503 365

C505 367 506 367 508 364

Z

M538 366

C540 365 543 363 544 361

C546 358 547 357 547 353

C547 348 546 345 544 345

C543 345 543 347 543 349

C543 354 540 359 537 361

C532 364 531 365 531 366

C532 367 534 367 538 366

Z

M61 364

C64 361 63 357 59 357

C56 357 54 359 54 362

C54 366 58 367 61 364

Z

M422 364

C422 363 421 362 420 360

C416 356 415 351 418 345

C420 342 420 341 418 340

C416 340 414 342 412 346

C410 352 411 359 417 363

C420 365 421 365 422 364

Z

M214 359

C214 358 213 357 212 356

C210 354 210 354 207 355

C204 356 204 362 207 363

C210 364 213 362 214 359

Z

M340 359

C340 353 333 353 331 358

C331 360 331 361 333 362

C335 364 336 364 337 363

C339 362 340 360 340 359

Z

M368 362

C371 359 370 355 366 355

C359 355 360 364 366 364

C366 364 368 363 368 362

Z

M582 362

C583 361 584 360 584 359

C584 358 580 354 579 354

C578 354 574 358 574 359

C574 361 577 364 579 364

C579 364 581 363 582 362

Z

M29 359

C30 357 28 353 26 353

C23 352 20 354 20 357

C20 362 26 363 29 359

Z

M138 361

C141 358 138 353 135 353

C132 353 130 355 130 358

C130 360 132 362 135 362

C136 362 137 361 138 361

Z

M194 361

C197 359 197 354 194 353

C189 351 185 356 189 360

C191 362 191 362 194 361

Z

M262 361

C265 357 259 351 255 354

C254 355 254 359 255 361

C257 362 261 362 262 361

Z

M302 360

C305 358 304 355 302 354

C300 352 297 352 296 354

C293 359 299 364 302 360

Z

M320 357

C322 354 320 352 317 351

C314 351 312 353 312 355

C312 360 318 362 320 357

Z

M452 358

C452 357 451 355 450 354

C446 349 445 345 449 337

C450 333 445 335 443 338

C439 345 441 353 447 357

C449 359 452 359 452 358

Z

M82 356

C85 354 84 352 82 349

C79 347 75 349 75 353

C75 357 79 359 82 356

Z

M121 357

C124 353 118 347 114 350

C113 351 113 355 114 357

C116 358 120 358 121 357

Z

M475 356

C479 355 482 348 480 347

C478 345 473 347 470 350

C467 353 466 356 467 357

C467 358 472 358 475 356

Z

M398 356

C401 355 401 349 398 348

C396 347 395 347 393 348

C391 350 390 353 393 355

C395 357 395 357 398 356

Z

M229 353

C232 351 231 348 229 346

C225 345 222 346 222 350

C222 355 226 357 229 353

Z

M524 352

C524 348 521 344 516 343

C512 342 510 343 511 347

C512 351 517 355 521 355

C524 355 524 355 524 352

Z

M99 351

C102 348 99 343 96 343

C93 343 91 345 91 348

C91 350 93 352 96 352

C97 352 98 351 99 351

Z

M156 350

C160 347 157 343 152 343

C150 343 149 344 149 346

C149 351 153 354 156 350

Z

M283 350

C283 349 284 348 284 347

C284 345 283 344 283 343

C282 343 281 342 280 342

C278 342 277 343 276 343

C276 344 275 345 275 347

C275 348 276 349 276 350

C277 350 278 351 280 351

C281 351 282 350 283 350

Z

M200 348

C201 347 202 346 202 345

C202 343 199 340 197 340

C195 340 192 343 192 345

C192 346 196 350 197 350

C198 350 199 349 200 348

Z

M215 349

C218 346 215 341 212 341

C209 341 207 343 207 346

C207 348 209 350 212 350

C213 350 214 349 215 349

Z

M296 349

C296 348 297 347 297 346

C297 344 296 343 296 342

C295 342 294 341 293 341

C291 341 290 342 289 342

C289 343 288 344 288 346

C288 347 289 348 289 349

C290 349 291 350 293 350

C294 350 295 349 296 349

Z

M564 348

C565 346 567 344 568 342

C570 336 568 326 563 326

C562 326 562 327 562 328

C565 336 564 341 559 345

C554 350 559 352 564 348

Z

M25 346

C26 344 24 340 22 340

C16 338 13 346 19 348

C21 349 24 348 25 346

Z

M176 348

C179 345 176 340 173 340

C170 340 168 342 168 345

C168 347 170 349 173 349

C174 349 175 348 176 348

Z

M371 346

C371 345 372 344 372 343

C372 341 371 340 371 339

C368 337 363 338 363 342

C363 346 368 348 371 346

Z

M243 345

C246 342 243 337 240 337

C237 337 235 339 235 342

C235 344 237 346 240 346

C241 346 242 345 243 345

Z

M309 345

C309 344 310 343 310 342

C310 337 304 335 302 339

C301 342 301 343 303 344

C304 346 307 346 309 345

Z

M341 344

C343 342 343 339 341 338

C339 336 335 337 334 339

C333 342 333 343 335 344

C337 347 340 346 341 344

Z

M324 342

C324 337 320 334 317 338

C313 341 315 345 320 345

C323 345 324 344 324 342

Z

M75 342

C78 340 77 337 75 336

C72 334 72 334 70 336

C67 338 68 342 70 343

C72 344 74 344 75 342

Z

M39 342

C41 341 42 337 40 335

C39 333 36 333 34 335

C32 336 31 339 34 341

C35 343 36 343 39 342

Z

M55 341

C57 338 55 334 51 334

C47 334 45 337 47 341

C49 344 52 344 55 341

Z

M113 340

C117 338 125 331 125 330

C125 329 98 318 97 318

C96 318 96 328 97 333

C99 341 105 344 113 340

Z

M358 340

C361 337 360 333 356 333

C354 333 353 334 352 334

C352 335 351 336 351 338

C351 342 355 343 358 340

Z

M404 340

C405 338 405 337 404 335

C402 332 399 332 396 335

C395 337 395 337 396 340

C397 343 402 343 404 340

Z

M273 339

C275 335 274 329 271 326

C269 324 267 322 266 322

C265 322 263 329 263 332

C264 335 269 341 271 341

C271 341 272 340 273 339

Z

M474 338

C478 335 477 334 471 332

C468 331 462 332 460 335

C459 336 459 337 461 338

C464 341 471 341 474 338

Z

M88 331

L88 323

L84 327

C79 332 79 336 83 338

C85 338 87 339 87 339

C88 339 88 335 88 331

Z

M502 336

C505 333 506 329 503 326

C500 323 494 324 491 329

C490 333 490 335 492 337

C495 340 499 340 502 336

Z

M533 337

C534 336 534 335 532 333

C528 330 525 329 520 330

C516 332 516 335 522 337

C525 339 531 339 533 337

Z

M288 337

C289 336 289 334 289 332

C289 330 288 329 286 329

C281 329 278 333 282 336

C284 338 286 339 288 337

Z

M13 336

C16 334 16 329 13 328

C10 327 10 327 8 328

C5 331 5 334 8 335

C11 337 11 337 13 336

Z

M193 336

C196 333 193 328 190 328

C187 328 185 330 185 333

C185 335 187 337 190 337

C191 337 192 336 193 336

Z

M232 335

C237 330 238 320 234 319

C232 319 226 324 225 327

C225 329 225 332 225 334

C226 338 229 338 232 335

Z

M387 336

C387 335 388 334 388 333

C388 331 387 330 387 329

C384 327 379 328 379 332

C379 336 384 338 387 336

Z

M434 335

C431 327 432 323 436 318

C439 315 439 314 438 313

C437 313 435 314 433 314

C426 318 424 329 430 335

C432 338 434 338 434 335

Z

M140 333

C142 329 140 326 136 326

C132 326 130 330 132 333

C135 336 138 336 140 333

Z

M159 334

C162 331 159 326 156 326

C153 326 151 328 151 331

C151 334 156 336 159 334

Z

M212 334

C215 331 212 326 209 326

C204 326 203 330 206 333

C207 335 210 335 212 334

Z

M301 332

C305 328 301 323 296 325

C292 327 294 334 299 334

C299 334 300 333 301 332

Z

M333 332

C337 329 333 323 328 325

C324 327 326 334 331 334

C331 334 333 333 333 332

Z

M317 331

C318 330 319 329 319 328

C319 327 318 326 317 325

C316 324 315 323 314 323

C313 323 312 324 311 325

C310 326 309 327 309 328

C309 329 310 330 311 331

C312 332 313 333 314 333

C315 333 316 332 317 331

Z

M30 330

C31 329 32 328 32 327

C32 326 28 322 27 322

C26 322 22 326 22 327

C22 328 26 332 27 332

C28 332 29 331 30 330

Z

M66 328

C67 325 67 324 65 323

C63 320 60 321 58 323

C57 325 57 326 58 328

C59 331 65 331 66 328

Z

M177 328

C180 326 179 323 177 321

C173 319 170 321 170 325

C170 329 174 331 177 328

Z

M253 325

C256 321 256 315 253 312

L251 310

L248 312

C245 316 244 322 247 326

C249 330 250 329 253 325

Z

M552 325

C554 322 554 321 554 316

C553 311 553 310 550 307

C546 304 543 303 543 305

C543 306 544 307 545 308

C547 310 549 315 549 319

C549 320 548 322 547 324

C544 330 548 331 552 325

Z

M415 326

C418 322 412 316 408 319

C407 320 407 324 408 326

C410 327 414 327 415 326

Z

M479 323

C479 319 475 316 470 315

C467 315 466 315 465 316

C464 321 470 326 476 326

C479 326 479 325 479 323

Z

M55 324

C58 321 55 316 52 316

C49 316 47 318 47 321

C47 323 49 325 52 325

C53 325 54 324 55 324

Z

M397 323

C399 320 397 316 393 316

C389 316 387 320 389 323

C390 324 392 325 393 325

C394 325 396 324 397 323

Z

M363 322

C364 322 365 320 365 320

C365 317 362 315 359 315

C357 315 355 317 355 320

C355 322 358 324 360 324

C361 324 363 323 363 322

Z

M189 321

C192 319 191 316 189 315

C187 313 184 313 183 315

C180 320 186 325 189 321

Z

M203 321

C206 319 205 316 203 315

C201 313 198 313 197 315

C194 320 200 325 203 321

Z

M380 322

C380 321 381 320 381 319

C381 317 380 316 380 315

C379 315 378 314 377 314

C375 314 374 315 373 315

C373 316 372 317 372 319

C372 320 373 321 373 322

C374 322 375 323 377 323

C378 323 379 322 380 322

Z

M583 319

C586 315 586 308 583 304

C581 300 577 298 575 298

C574 299 574 300 577 303

C581 309 581 311 577 321

C576 325 580 323 583 319

Z

M285 316

C285 313 284 311 282 308

C280 307 277 305 276 305

C274 305 274 306 274 309

C274 311 275 314 276 316

C277 319 283 322 284 321

C285 321 285 319 285 316

Z

M325 319

C326 317 324 313 322 313

C316 311 313 319 319 321

C321 322 324 321 325 319

Z

M532 318

C535 315 535 315 533 313

C530 311 525 312 521 316

C518 319 518 319 520 321

C523 323 529 322 532 318

Z

M130 319

C132 316 129 310 125 307

C121 303 120 303 115 303

C111 303 109 303 108 304

C106 306 108 308 110 308

C115 306 124 312 126 318

C127 321 129 322 130 319

Z

M308 317

C307 312 301 307 296 307

C291 307 291 308 294 314

C296 318 299 320 304 320

C308 320 308 320 308 317

Z

M451 316

C451 310 454 305 459 303

C461 302 463 300 463 300

C463 298 456 298 452 301

C447 304 445 312 447 317

C449 322 451 321 451 316

Z

M23 317

C24 315 24 312 23 310

C20 308 15 309 15 313

C15 317 20 319 23 317

Z

M88 315

C101 307 100 298 86 304

C79 307 72 315 75 317

C76 319 83 318 88 315

Z

M168 313

C168 311 168 310 166 309

C163 307 160 309 159 312

C159 315 161 317 164 317

C167 317 168 316 168 313

Z

M224 314

C228 313 230 309 230 304

C230 301 230 301 227 302

C221 303 218 306 216 312

C215 316 218 317 224 314

Z

M489 314

C490 310 488 304 484 302

C479 300 479 301 479 305

C479 309 481 313 484 315

C488 317 489 316 489 314

Z

M341 314

C341 313 342 312 342 311

C342 309 341 308 341 307

C340 307 339 306 338 306

C336 306 335 307 334 307

C334 308 333 309 333 311

C333 312 334 313 334 314

C335 314 336 315 338 315

C339 315 340 314 341 314

Z

M519 310

C520 308 521 306 522 303

C522 299 522 299 520 299

C515 299 509 307 510 312

C511 314 516 313 519 310

Z

M180 311

C183 308 180 303 177 303

C174 303 172 305 172 308

C172 310 174 312 177 312

C178 312 179 311 180 311

Z

M419 310

C421 307 419 303 415 303

C411 303 409 306 411 310

C413 313 416 313 419 310

Z

M319 310

C322 307 319 302 315 302

C312 303 310 305 312 308

C313 311 317 312 319 310

Z

M503 308

C506 305 506 299 503 296

L501 294

L499 296

C496 300 495 305 498 309

C500 312 500 312 503 308

Z

M36 308

C39 306 38 303 36 301

C32 299 29 301 29 305

C29 309 33 311 36 308

Z

M151 309

C154 306 151 301 148 301

C145 301 143 303 143 306

C143 308 145 310 148 310

C149 310 150 309 151 309

Z

M208 306

C211 304 214 298 213 297

C211 296 204 297 201 299

C198 301 195 307 196 308

C197 310 206 308 208 306

Z

M365 307

C367 304 367 301 364 300

C362 299 359 300 358 303

C357 305 360 309 362 309

C363 309 365 308 365 307

Z

M398 307

C399 306 400 305 400 304

C400 303 396 299 395 299

C394 299 393 300 392 301

C391 302 390 303 390 304

C390 305 394 309 395 309

C396 309 397 308 398 307

Z

M267 305

C268 300 267 297 264 293

C261 291 261 291 259 292

C257 296 259 304 263 307

C265 308 266 308 267 305

Z

M72 305

L76 304

L69 300

C66 299 62 297 62 298

C61 298 61 305 62 306

C63 308 68 307 72 305

Z

M244 306

C248 304 250 298 249 294

C249 290 247 290 243 294

C240 296 238 301 239 305

C240 307 240 307 244 306

Z

M328 305

C332 303 330 297 326 297

C321 297 319 301 323 304

C324 306 325 306 328 305

Z

M12 300

C15 299 15 296 12 293

C10 292 10 292 7 293

C4 294 4 299 7 301

C9 302 9 302 12 300

Z

M428 299

C428 294 428 293 431 290

C432 288 435 286 437 285

C441 284 440 281 436 282

C427 282 421 291 424 300

C424 303 427 302 428 299

Z

M132 299

C133 298 134 297 134 296

C134 295 133 294 132 293

C131 292 130 291 129 291

C128 291 124 295 124 296

C124 298 127 301 129 301

C129 301 131 300 132 299

Z

M383 299

C387 296 384 292 379 292

C377 292 376 293 376 295

C376 300 380 303 383 299

Z

M308 298

C308 298 308 296 307 295

C305 290 299 288 294 288

C286 290 295 301 304 299

C306 299 308 299 308 298

Z

M170 297

C171 294 171 294 170 292

C167 289 164 289 162 292

C160 296 162 299 166 299

C168 299 169 298 170 297

Z

M411 298

C411 297 412 296 412 295

C412 290 406 288 404 292

C403 295 403 296 405 297

C406 299 409 299 411 298

Z

M83 283

C82 275 82 268 82 267

C82 265 82 265 77 268

C70 272 66 275 64 279

C62 283 64 287 70 291

C73 294 83 298 84 298

C84 297 84 291 83 283

Z

M284 296

C285 294 282 289 279 287

C276 286 270 286 270 287

C270 288 271 290 272 292

C274 297 282 300 284 296

Z

M560 295

C562 292 561 285 559 282

C557 279 552 276 548 276

C544 276 544 278 548 280

C554 283 556 287 557 292

C557 297 559 299 560 295

Z

M32 294

C34 290 32 287 28 287

C24 287 22 291 24 294

C27 297 30 297 32 294

Z

M235 290

C237 288 238 286 238 285

C238 283 237 283 234 283

C229 283 223 287 223 291

C223 293 224 293 228 293

C231 293 233 292 235 290

Z

M335 292

C335 291 336 290 336 289

C336 287 335 286 335 285

C334 285 333 284 332 284

C330 284 329 285 328 285

C328 286 327 287 327 289

C327 290 328 291 328 292

C329 292 330 293 332 293

C333 293 334 292 335 292

Z

M535 292

C535 291 534 288 533 285

C531 281 530 280 526 279

C521 277 521 277 517 278

C511 280 511 282 518 282

C523 283 527 285 530 290

C532 293 534 294 535 292

Z

M104 287

C107 281 106 275 102 271

C98 267 93 264 92 266

C91 267 92 268 93 269

C95 270 97 273 98 275

C100 279 100 281 98 289

C97 294 101 292 104 287

Z

M152 291

C155 288 152 283 149 283

C146 283 144 285 144 288

C144 290 146 292 149 292

C150 292 151 291 152 291

Z

M183 291

C187 289 185 283 181 283

C176 283 174 287 178 290

C179 292 180 292 183 291

Z

M400 290

C403 288 402 285 400 283

C396 281 393 283 393 287

C393 291 397 293 400 290

Z

M56 290

C57 288 57 284 56 283

C52 280 46 286 49 290

C50 291 54 291 56 290

Z

M577 290

C580 289 580 283 577 282

C575 281 574 281 572 282

C570 284 569 287 572 289

C574 291 574 291 577 290

Z

M457 286

C459 282 464 278 470 277

C472 277 474 276 474 276

C474 273 465 272 459 275

C456 277 453 282 453 287

C453 291 456 291 457 286

Z

M211 288

C214 287 218 283 218 282

C218 281 216 280 214 279

C210 277 205 279 201 282

C198 285 199 287 203 288

C208 289 207 289 211 288

Z

M357 286

C358 286 359 284 359 284

C359 282 356 279 354 279

C352 279 349 282 349 284

C349 285 352 288 354 288

C355 288 357 287 357 286

Z

M479 286

C482 282 486 281 493 281

C498 282 499 282 499 280

C499 278 491 275 486 276

C482 276 475 283 475 286

C475 288 477 289 479 286

Z

M322 284

C324 283 324 283 322 280

C321 279 318 277 316 277

C313 276 312 276 308 278

C304 280 303 282 308 285

C312 288 319 287 322 284

Z

M134 284

C137 281 136 277 132 277

C129 277 127 279 127 282

C127 286 131 287 134 284

Z

M421 283

C422 280 422 280 421 278

C418 275 415 275 413 278

C411 282 413 285 417 285

C419 285 420 284 421 283

Z

M121 283

C122 282 122 280 122 279

C120 273 113 275 113 280

C113 281 113 283 114 283

C115 285 120 284 121 283

Z

M262 279

C266 276 264 271 259 269

C250 266 244 276 252 280

C256 282 259 282 262 279

Z

M291 278

L294 276

L291 274

C288 271 281 271 278 274

C276 276 276 276 277 277

C280 281 288 282 291 278

Z

M174 276

C178 273 176 269 171 269

C165 269 166 278 172 278

C172 278 174 277 174 276

Z

M14 274

C15 272 13 268 11 268

C5 266 2 274 8 276

C10 277 13 276 14 274

Z

M234 275

C235 273 235 273 233 270

C230 268 225 267 221 269

C218 270 217 271 219 273

C222 277 230 278 234 275

Z

M379 275

C380 274 381 273 381 272

C381 270 378 267 376 267

C375 267 371 271 371 272

C371 273 375 277 376 277

C377 277 378 276 379 275

Z

M567 274

C568 273 568 272 566 270

C563 266 556 270 559 275

C560 278 565 277 567 274

Z

M396 272

C397 271 397 270 395 268

C394 265 389 265 388 268

C387 271 387 272 389 273

C391 276 394 275 396 272

Z

M583 273

C586 271 585 268 583 266

C579 264 576 266 576 270

C576 274 580 276 583 273

Z

M56 272

C58 269 56 265 52 265

C48 265 46 268 48 272

C50 275 53 275 56 272

Z

M204 271

C207 269 208 268 205 266

C201 262 192 262 189 266

C187 268 187 268 189 270

C193 274 199 274 204 271

Z

M38 270

C39 268 39 264 38 263

C36 261 31 263 31 265

C29 269 35 273 38 270

Z

M345 270

C346 269 346 267 346 265

C346 263 345 262 343 262

C338 262 335 266 339 269

C341 271 343 271 345 270

Z

M118 268

C119 267 120 266 120 265

C120 264 116 260 115 260

C114 260 110 264 110 265

C110 266 111 267 112 268

C113 269 114 270 115 270

C116 270 117 269 118 268

Z

M306 268

C310 266 312 263 309 262

C304 259 295 260 293 265

C291 269 300 272 306 268

Z

M147 267

C149 264 147 261 144 260

C141 260 139 261 139 264

C139 269 145 271 147 267

Z

M456 267

C458 264 456 260 452 260

C451 260 449 261 448 263

C447 264 447 265 449 267

C451 270 455 270 456 267

Z

M418 267

C419 267 418 265 415 260

L412 253

L410 256

C409 260 409 266 410 267

C411 268 416 268 418 267

Z

M280 265

C283 264 287 257 286 256

C285 255 279 256 277 257

C274 258 271 264 271 266

C272 267 276 267 280 265

Z

M367 266

C370 265 370 259 367 258

C362 255 358 262 362 265

C365 267 365 267 367 266

Z

M509 262

C510 262 513 263 515 264

C519 267 520 267 521 265

C522 262 515 257 509 257

C503 257 495 262 496 265

C497 267 498 266 502 264

C504 263 507 262 509 262

Z

M242 264

C243 259 236 251 231 252

C226 253 230 261 235 264

C239 265 241 265 242 264

Z

M389 261

C391 257 388 253 384 255

C382 255 380 260 382 262

C384 263 389 263 389 261

Z

M552 260

C552 257 549 252 546 250

C540 247 530 248 530 252

C530 253 531 253 535 253

C540 253 541 253 544 256

C546 258 548 260 549 261

C549 264 552 263 552 260

Z

M20 261

C21 259 21 256 20 254

C17 251 12 254 12 258

C12 260 14 262 17 262

C18 262 19 261 20 261

Z

M266 259

C269 256 269 254 269 250

C269 246 267 246 265 247

C261 249 260 252 260 257

C260 263 262 264 266 259

Z

M439 258

C442 256 443 253 445 248

C446 244 447 241 447 240

C446 240 415 244 415 245

C415 247 425 259 428 260

C433 263 435 262 439 258

Z

M253 259

C255 255 254 249 250 246

C247 243 246 244 245 247

C244 251 245 255 248 258

C251 262 252 262 253 259

Z

M94 258

C95 257 95 256 94 254

C93 249 86 250 86 255

C86 260 91 262 94 258

Z

M222 258

C222 257 221 254 219 252

C216 250 214 249 211 249

C209 249 207 249 206 250

C204 251 206 254 209 258

C212 260 213 260 217 260

C220 260 222 259 222 258

Z

M482 251

C484 250 487 250 489 251

C494 252 495 252 493 249

C492 247 486 245 482 245

C477 246 471 251 471 255

C469 259 471 259 475 256

C477 254 480 252 482 251

Z

M48 255

C50 254 50 253 49 250

C48 248 44 247 42 249

C40 250 40 253 42 255

C43 257 46 258 48 255

Z

M569 255

C572 252 569 247 566 247

C563 247 561 249 561 252

C561 254 563 256 566 256

C567 256 568 255 569 255

Z

M403 252

C409 246 412 236 410 233

C408 231 408 231 405 232

C402 235 400 236 397 243

C392 253 396 259 403 252

Z

M162 251

C166 247 161 242 157 244

C154 245 154 248 156 251

C157 254 160 254 162 251

Z

M191 251

C195 247 191 242 186 244

C182 246 184 253 189 253

C189 253 190 252 191 251

Z

M466 251

C468 248 466 244 462 244

C458 244 456 247 458 251

C460 254 463 254 466 251

Z

M9 250

C12 249 12 246 9 243

C7 242 7 242 4 243

C1 244 1 249 4 251

C6 252 6 252 9 250

Z

M309 250

C312 249 315 244 315 241

C314 240 308 240 304 241

C300 243 298 247 298 250

C298 252 299 252 302 252

C304 252 307 251 309 250

Z

M386 249

C387 247 390 245 390 244

C391 242 391 242 379 244

C376 244 375 246 378 250

C380 253 381 253 386 249

Z

M127 250

C131 248 129 242 125 242

C120 242 118 248 122 250

C124 251 125 251 127 250

Z

M288 247

C290 244 291 242 291 240

C291 237 291 236 289 236

C286 236 281 239 280 241

C279 242 278 245 278 247

C278 250 278 250 281 250

C283 250 285 249 288 247

Z

M75 247

C76 246 77 245 77 244

C77 243 73 239 72 239

C71 239 67 243 67 244

C67 246 70 249 72 249

C72 249 74 248 75 247

Z

M333 248

C336 247 336 241 333 240

C331 239 330 239 328 240

C326 242 325 245 328 247

C329 249 330 249 333 248

Z

M240 241

C240 237 238 232 234 230

C230 228 228 229 228 233

C228 239 233 245 238 245

C240 245 240 244 240 241

Z

M370 244

C373 241 369 235 365 237

C363 237 361 242 363 244

C364 245 368 245 370 244

Z

M539 243

C542 240 539 235 536 235

C533 235 531 237 531 240

C531 243 536 245 539 243

Z

M509 242

C510 241 510 239 510 237

C510 235 509 234 507 234

C502 234 499 238 503 241

C505 243 507 243 509 242

Z

M53 240

C57 237 53 231 48 233

C44 235 46 242 51 242

C51 242 53 241 53 240

Z

M179 241

C182 239 182 234 179 233

C174 231 170 237 174 240

C175 242 176 242 179 241

Z

M221 241

C222 240 221 238 220 236

C218 231 214 228 209 228

C206 228 206 228 206 231

C206 234 210 240 213 241

C216 242 221 242 221 241

Z

M263 239

C265 235 266 229 263 226

C261 223 259 224 257 228

C254 233 256 242 260 242

C260 242 262 241 263 239

Z

M102 239

C106 236 102 229 97 232

C94 233 94 238 97 240

C99 241 99 241 102 239

Z

M23 238

C24 238 25 236 25 236

C25 234 22 231 20 231

C18 231 15 234 15 236

C15 237 18 240 20 240

C21 240 23 239 23 238

Z

M36 239

C38 237 37 232 35 232

C32 230 30 231 29 233

C28 236 28 237 30 238

C31 240 34 240 36 239

Z

M144 239

C144 238 145 237 145 236

C145 234 144 233 144 232

C143 232 142 231 141 231

C139 231 138 232 137 232

C137 233 136 234 136 236

C136 237 137 238 137 239

C138 239 139 240 141 240

C142 240 143 239 144 239

Z

M563 239

C565 238 566 234 564 232

C563 230 560 230 558 232

C556 233 555 236 558 238

C559 240 560 240 563 239

Z

M192 237

C195 235 194 232 192 231

C190 229 187 229 186 231

C183 236 189 241 192 237

Z

M161 237

C161 236 162 235 162 234

C162 232 161 231 161 230

C160 230 159 229 158 229

C156 229 155 230 154 230

C154 231 153 232 153 234

C153 235 154 236 154 237

C155 237 156 238 158 238

C159 238 160 237 161 237

Z

M477 236

C481 233 478 229 474 229

C470 230 469 233 471 236

C472 238 475 239 477 236

Z

M493 237

C494 236 494 234 494 232

C494 230 493 229 491 229

C486 229 483 233 487 236

C489 238 491 238 493 237

Z

M394 233

C395 233 378 207 377 207

C376 207 370 218 369 222

C368 226 368 227 369 229

C372 234 376 235 385 235

C390 234 394 234 394 233

Z

M354 231

C355 229 353 225 351 225

C348 224 345 226 345 229

C345 234 351 235 354 231

Z

M70 231

C73 228 72 224 68 224

C65 224 63 226 63 229

C63 233 67 234 70 231

Z

M280 231

C285 226 286 216 282 215

C276 214 271 225 274 231

C275 234 277 234 280 231

Z

M446 230

C446 227 441 222 437 221

C435 220 432 220 430 220

C425 221 419 225 419 228

C419 230 420 230 425 228

C430 225 435 225 440 229

C445 232 446 233 446 230

Z

M550 230

C551 229 552 228 552 227

C552 226 548 222 547 222

C546 222 542 226 542 227

C542 228 546 232 547 232

C548 232 549 231 550 230

Z

M124 228

C126 226 125 222 123 221

C120 219 117 221 116 224

C115 228 122 231 124 228

Z

M177 227

C179 224 177 220 173 220

C169 220 167 223 169 227

C171 230 174 230 177 227

Z

M248 227

C250 222 248 213 244 211

C241 210 240 210 239 215

C238 219 239 223 242 227

C245 230 247 230 248 227

Z

M41 226

C45 222 40 217 36 219

C33 220 33 223 35 226

C36 229 39 229 41 226

Z

M56 227

C57 225 57 221 56 220

C52 217 46 223 49 227

C50 228 54 228 56 227

Z

M137 227

C139 225 138 221 135 220

C132 218 130 220 129 223

C129 227 134 230 137 227

Z

M306 226

C307 224 307 223 306 221

C304 218 301 218 298 221

C297 223 297 223 298 226

C299 229 304 229 306 226

Z

M17 226

C18 224 18 221 17 219

C14 216 9 219 9 223

C9 225 11 227 14 227

C15 227 16 226 17 226

Z

M221 225

C222 224 223 223 223 222

C223 220 220 217 218 217

C216 217 213 220 213 222

C213 223 217 227 218 227

C219 227 220 226 221 225

Z

M83 224

C86 223 86 217 83 216

C78 213 74 220 78 223

C81 225 81 225 83 224

Z

M151 222

C152 219 150 215 147 215

C145 215 142 217 142 219

C142 224 149 226 151 222

Z

M164 222

C165 221 166 220 166 219

C166 218 165 217 164 216

C163 215 162 214 161 214

C159 214 156 218 156 219

C156 221 160 224 161 224

C162 224 163 223 164 222

Z

M200 223

C200 222 201 221 201 220

C201 218 200 217 200 216

C199 216 198 215 197 215

C195 215 194 216 193 216

C193 217 192 218 192 220

C192 221 193 222 193 223

C194 223 195 224 197 224

C198 224 199 223 200 223

Z

M508 222

C508 221 509 220 509 219

C509 214 503 212 501 216

C499 221 504 225 508 222

Z

M530 220

C531 217 528 213 525 214

C522 215 520 218 522 221

C524 224 529 223 530 220

Z

M471 221

C474 217 468 211 464 214

C463 215 463 219 464 221

C466 222 470 222 471 221

Z

M330 219

C331 218 332 217 332 216

C332 214 329 211 327 211

C326 211 322 215 322 216

C322 217 326 221 327 221

C328 221 329 220 330 219

Z

M407 215

C407 206 401 200 392 200

C386 201 384 203 390 204

C396 205 403 212 403 218

C403 219 403 220 404 220

C405 222 407 220 407 215

Z

M115 212

C115 207 115 206 111 203

C107 199 106 200 105 205

C104 210 106 215 110 218

C112 220 113 220 114 218

C114 217 115 214 115 212

Z

M492 218

C494 215 492 211 488 211

C484 211 482 214 484 218

C486 221 489 221 492 218

Z

M449 216

C452 215 452 212 449 209

C447 208 447 208 444 209

C441 210 441 215 444 217

C446 218 446 218 449 216

Z

M562 216

C564 215 564 214 563 211

C561 207 555 209 555 213

C555 218 559 220 562 216

Z

M35 211

C35 207 32 205 28 207

C25 208 25 212 28 214

C30 216 31 216 32 215

C34 214 35 212 35 211

Z

M76 210

C78 207 78 200 76 198

C75 196 70 198 68 202

C66 205 66 210 67 213

C68 216 68 216 71 215

C73 214 75 212 76 210

Z

M129 214

C131 212 131 209 129 208

C127 206 123 207 122 209

C121 212 121 213 123 214

C125 217 128 216 129 214

Z

M187 213

C190 212 190 206 187 205

C185 204 184 204 182 205

C180 207 179 210 182 212

C184 214 184 214 187 213

Z

M208 213

C208 212 209 211 209 210

C209 208 208 207 208 206

C207 206 206 205 205 205

C203 205 202 206 201 206

C201 207 200 208 200 210

C200 211 201 212 201 213

C202 213 203 214 205 214

C206 214 207 213 208 213

Z

M227 212

C230 210 229 207 227 206

C224 204 224 204 222 206

C219 208 220 212 222 213

C224 214 226 214 227 212

Z

M53 212

C53 211 54 210 54 209

C54 204 48 202 46 206

C44 211 49 215 53 212

Z

M142 210

C145 207 144 203 140 203

C138 203 137 204 136 204

C136 205 135 206 135 208

C135 212 139 213 142 210

Z

M175 211

C175 210 176 209 176 208

C176 206 175 205 175 204

C174 204 173 203 172 203

C170 203 169 204 168 204

C168 205 167 206 167 208

C167 209 168 210 168 211

C169 211 170 212 172 212

C173 212 174 211 175 211

Z

M365 210

C368 208 367 205 365 203

C361 201 358 203 358 207

C358 211 362 213 365 210

Z

M159 209

C161 206 159 202 155 202

C151 202 149 205 151 209

C153 212 156 212 159 209

Z

M423 207

C423 204 421 202 418 202

C416 203 415 204 414 206

C414 209 416 211 419 211

C422 211 423 210 423 207

Z

M18 206

C21 203 20 199 16 199

C13 199 11 201 11 204

C11 208 15 209 18 206

Z

M250 207

C250 206 251 205 251 204

C251 202 250 201 250 200

C249 200 248 199 247 199

C245 199 244 200 243 200

C243 201 242 202 242 204

C242 205 243 206 243 207

C244 207 245 208 247 208

C248 208 249 207 250 207

Z

M439 206

C443 203 439 196 434 199

C431 200 431 205 434 207

C436 208 436 208 439 206

Z

M93 204

C97 200 97 193 94 190

C92 188 92 188 91 189

C88 191 86 195 86 198

C86 201 89 207 90 207

C90 207 92 206 93 204

Z

M312 204

C313 203 314 202 314 201

C314 199 311 196 309 196

C307 196 304 199 304 201

C304 202 308 206 309 206

C310 206 311 205 312 204

Z

M482 204

C483 201 483 201 482 199

C479 196 476 196 474 199

C472 203 474 206 478 206

C480 206 481 205 482 204

Z

M552 204

C555 201 552 196 549 196

C546 196 544 198 544 201

C544 203 546 205 549 205

C550 205 551 204 552 204

Z

M267 201

C268 201 269 199 269 198

C269 196 266 193 264 193

C263 193 259 197 259 198

C259 199 263 203 264 203

C264 203 266 202 267 201

Z

M31 200

C34 197 31 192 28 192

C25 192 23 194 23 197

C23 200 28 202 31 200

Z

M45 200

C48 197 45 192 42 192

C39 192 37 194 37 197

C37 200 42 202 45 200

Z

M291 199

C292 196 290 193 288 192

C285 192 282 195 282 197

C282 201 289 203 291 199

Z

M455 199

C458 196 457 192 453 192

C450 192 448 194 448 197

C448 201 452 202 455 199

Z

M500 199

C501 199 502 197 502 196

C502 194 499 191 497 191

C496 191 492 195 492 196

C492 197 496 201 497 201

C497 201 499 200 500 199

Z

M532 199

C535 194 529 190 525 194

C523 196 523 196 524 198

C525 202 530 202 532 199

Z

M126 195

C126 190 126 189 123 186

C118 182 116 182 115 187

C115 192 117 196 120 198

C125 201 126 201 126 195

Z

M164 198

C167 196 166 193 163 191

C162 190 161 190 159 192

C157 193 156 197 159 199

C161 200 163 200 164 198

Z

M198 199

C199 197 199 193 198 192

C194 189 188 195 191 199

C192 200 196 200 198 199

Z

M149 197

C149 197 149 195 148 193

C146 188 143 186 137 185

L133 185

L133 188

C134 193 136 195 140 197

C144 199 148 199 149 197

Z

M408 197

C410 195 409 192 406 191

C402 188 399 193 400 198

C401 200 407 199 408 197

Z

M347 195

C348 194 348 193 346 191

C343 186 336 191 339 196

C340 199 345 198 347 195

Z

M566 196

C569 194 569 191 566 189

C564 188 563 188 561 189

C558 190 558 195 561 197

C563 198 563 198 566 196

Z

M429 194

C430 193 430 192 430 191

C430 189 427 187 425 187

C423 187 420 190 420 192

C420 196 427 198 429 194

Z

M254 193

C256 192 256 191 255 188

C254 186 250 185 248 187

C246 188 246 191 248 193

C249 195 252 196 254 193

Z

M65 193

C69 190 71 187 71 183

C71 180 71 180 68 180

C64 180 59 184 58 189

C58 191 57 193 58 193

C58 194 62 194 65 193

Z

M469 193

C471 192 471 190 471 188

C471 186 470 185 468 185

C463 185 460 189 464 192

C465 194 467 194 469 193

Z

M182 192

C184 190 183 186 180 185

C177 183 175 185 174 188

C174 192 179 195 182 192

Z

M221 192

C223 191 224 187 221 185

C219 183 219 183 216 185

C214 186 213 189 216 191

C217 193 218 193 221 192

Z

M303 191

C306 189 306 184 303 183

C300 182 300 182 298 183

C295 186 295 189 298 190

C301 192 301 192 303 191

Z

M323 189

C324 187 322 183 320 183

C317 182 314 184 314 187

C314 192 320 193 323 189

Z

M440 190

C442 187 440 183 437 183

C434 183 432 185 432 188

C432 192 438 194 440 190

Z

M21 188

C23 184 20 180 16 182

C14 182 12 187 14 189

C16 190 21 190 21 188

Z

M159 188

C161 188 161 183 160 181

C158 179 153 181 153 183

C151 187 155 190 159 188

Z

M370 187

C373 184 372 180 368 180

C365 180 363 182 363 185

C363 189 367 190 370 187

Z

M48 186

C51 184 54 179 54 177

C54 175 53 175 50 175

C43 175 37 180 37 185

C37 187 37 187 41 187

C44 187 47 186 48 186

Z

M276 186

C277 185 277 183 277 182

C275 176 268 178 268 183

C268 184 268 186 269 186

C270 188 275 187 276 186

Z

M108 183

C109 178 108 175 105 171

C101 168 100 169 100 176

C100 180 100 182 102 184

C106 187 107 187 108 183

Z

M85 183

C89 182 91 176 90 172

C90 169 90 169 86 171

C81 173 79 179 81 183

C81 185 81 185 85 183

Z

M245 184

C245 183 246 182 246 181

C246 179 245 178 245 177

C244 177 243 176 242 176

C240 176 239 177 238 177

C238 178 237 179 237 181

C237 182 238 183 238 184

C239 184 240 185 242 185

C243 185 244 184 245 184

Z

M170 183

C170 182 171 181 171 180

C171 178 170 177 170 176

C167 174 162 175 162 179

C162 183 167 185 170 183

Z

M557 182

C558 181 559 180 559 179

C559 178 555 174 554 174

C552 174 549 177 549 179

C549 181 552 184 554 184

C555 184 556 183 557 182

Z

M583 183

C586 179 580 173 576 176

C575 177 575 181 576 183

C578 184 582 184 583 183

Z

M186 180

C189 177 188 173 184 173

C177 173 178 182 184 182

C184 182 186 181 186 180

Z

M291 180

C292 179 293 178 293 177

C293 176 292 175 291 174

C290 173 289 172 288 172

C287 172 286 173 285 174

C284 175 283 176 283 177

C283 178 284 179 285 180

C286 181 287 182 288 182

C289 182 290 181 291 180

Z

M521 180

C522 178 522 178 521 175

C520 173 519 173 517 173

C513 174 511 177 514 180

C515 183 518 183 521 180

Z

M336 180

C340 178 338 171 334 171

C332 171 329 174 329 176

C329 178 331 181 333 181

C334 181 335 181 336 180

Z

M394 179

C398 175 394 170 389 172

C385 174 387 181 392 181

C392 181 393 180 394 179

Z

M500 179

C501 178 502 177 502 176

C502 175 498 171 497 171

C495 171 492 174 492 176

C492 178 495 181 497 181

C498 181 499 180 500 179

Z

M412 179

C415 175 409 169 405 172

C404 173 404 177 405 179

C407 180 411 180 412 179

Z

M459 178

C460 178 461 176 461 175

C461 173 458 170 456 170

C455 170 452 173 452 175

C452 177 455 180 457 180

C457 180 459 179 459 178

Z

M313 178

C316 174 312 169 308 171

C303 173 305 179 310 179

C311 179 312 178 313 178

Z

M441 178

C444 175 441 170 438 170

C435 170 433 172 433 175

C433 177 435 179 438 179

C439 179 440 178 441 178

Z

M10 176

C13 174 13 171 10 169

C8 168 7 168 5 169

C2 170 2 175 5 177

C7 178 7 178 10 176

Z

M149 177

C150 176 147 171 144 169

C141 167 134 166 132 167

C131 169 134 174 137 176

C140 178 141 178 144 178

C146 177 148 177 149 177

Z

M229 176

C233 173 230 169 226 169

C222 170 221 173 223 176

C224 178 227 179 229 176

Z

M263 176

C264 176 265 174 265 174

C265 172 262 169 260 169

C258 169 255 172 255 174

C255 175 258 178 260 178

C261 178 263 177 263 176

Z

M125 173

C125 169 119 164 115 164

C111 164 110 164 112 169

C113 173 118 176 122 176

C125 176 125 176 125 173

Z

M539 175

C542 172 539 167 536 167

C533 167 531 169 531 172

C531 174 533 176 536 176

C537 176 538 175 539 175

Z

M214 171

C215 168 213 165 211 164

C208 164 205 167 205 169

C205 173 212 175 214 171

Z

M76 168

C81 164 80 161 74 161

C71 161 64 167 64 169

C64 173 72 172 76 168

Z

M176 170

C176 169 177 168 177 167

C177 165 176 164 176 163

C175 163 174 162 173 162

C171 162 170 163 169 163

C169 164 168 165 168 167

C168 168 169 169 169 170

C170 170 171 171 173 171

C174 171 175 170 176 170

Z

M25 169

C26 167 26 164 25 162

C22 160 17 161 17 165

C17 169 22 171 25 169

Z

M483 168

C484 165 482 161 479 161

C478 161 476 162 475 163

C473 167 475 170 479 170

C481 170 482 169 483 168

Z

M249 166

C250 163 247 159 244 160

C241 161 239 164 241 167

C243 170 248 169 249 166

Z

M394 167

C398 165 396 159 392 159

C387 159 385 165 389 167

C391 168 392 168 394 167

Z

M424 166

C428 165 431 160 429 159

C428 158 427 158 425 160

C422 163 414 163 410 160

C408 159 406 158 406 158

C404 158 405 162 407 164

C412 168 418 169 424 166

Z

M54 165

C61 162 60 157 51 157

C47 157 45 158 43 160

C39 163 39 164 43 166

C48 167 49 167 54 165

Z

M345 165

C347 164 347 163 346 160

C345 158 341 157 339 159

C337 160 337 163 339 165

C340 167 343 168 345 165

Z

M305 163

C305 158 301 155 298 159

C294 162 296 166 301 166

C304 166 305 165 305 163

Z

M369 163

C370 161 368 157 366 157

C363 156 360 158 360 161

C360 166 366 167 369 163

Z

M162 163

C166 162 166 161 162 158

C158 155 153 154 148 157

C144 158 144 159 148 162

C152 165 157 166 162 163

Z

M287 163

C290 160 287 155 284 155

C281 155 279 157 279 160

C279 162 281 164 284 164

C285 164 286 163 287 163

Z

M450 162

C451 162 452 160 452 159

C452 157 449 154 447 154

C446 154 442 158 442 159

C442 160 446 164 447 164

C447 164 449 163 450 162

Z

M270 160

C271 156 270 153 266 153

C261 153 259 157 263 160

C265 163 268 162 270 160

Z

M102 158

C108 154 104 147 97 147

C92 147 89 149 89 153

C89 159 97 162 102 158

Z

M465 158

C469 155 466 151 461 151

C459 151 458 152 458 154

C458 159 462 162 465 158

Z

M131 157

C133 157 134 155 134 155

C134 153 129 150 126 150

C123 150 117 153 117 154

C117 156 122 159 125 159

C127 159 129 158 131 157

Z

M233 157

C234 156 235 154 235 154

C235 152 232 149 230 149

C228 149 225 152 225 154

C225 155 229 159 230 159

C231 159 232 158 233 157

Z

M324 158

C325 157 326 156 326 154

C326 149 322 147 319 151

C316 153 317 156 319 157

C322 159 322 159 324 158

Z

M381 157

C383 155 383 154 381 151

C380 149 377 148 375 151

C372 153 373 156 375 157

C378 159 379 159 381 157

Z

M512 156

C513 154 511 150 509 150

C503 148 500 156 506 158

C508 159 511 158 512 156

Z

M549 157

C552 156 552 153 549 150

C547 149 547 149 544 150

C541 151 541 156 544 158

C546 159 546 159 549 157

Z

M16 155

C17 153 17 150 16 148

C13 145 8 148 8 152

C8 154 10 156 13 156

C14 156 15 155 16 155

Z

M73 154

C77 152 77 151 73 148

C70 146 64 145 61 148

C58 150 58 151 62 153

C66 155 70 156 73 154

Z

M211 154

C214 150 210 144 205 147

C201 149 203 155 208 155

C209 155 210 154 211 154

Z

M494 152

C494 146 490 144 486 148

C485 150 485 150 486 153

C487 155 488 155 490 155

C493 155 494 154 494 152

Z

M258 150

C259 149 259 147 259 146

C258 144 257 143 255 143

C250 143 248 147 252 150

C254 152 257 152 258 150

Z

M46 149

L49 146

L46 144

C42 140 36 140 31 143

C28 145 28 147 32 149

C36 152 42 152 46 149

Z

M400 148

C402 148 403 146 403 145

C403 144 402 144 397 145

C391 145 387 144 383 139

C380 136 378 137 380 142

C382 146 384 148 389 150

C393 151 396 151 400 148

Z

M367 148

C367 146 366 146 364 146

C358 146 353 141 351 135

C350 132 348 132 347 135

C347 138 348 142 351 145

C354 149 356 150 362 150

C365 150 367 149 367 148

Z

M582 149

C585 146 582 141 579 141

C576 141 574 143 574 146

C574 149 579 151 582 149

Z

M186 148

C186 147 187 146 187 145

C187 140 181 138 179 142

C178 145 178 146 180 147

C181 149 184 149 186 148

Z

M448 147

C452 145 455 141 455 137

C455 134 454 134 451 138

C447 142 443 144 437 144

C431 143 430 144 434 147

C438 149 443 150 448 147

Z

M149 145

C152 143 152 142 151 141

C149 139 145 138 141 138

C138 139 133 143 133 145

C133 146 137 148 142 148

C145 148 147 147 149 145

Z

M280 147

C283 143 277 137 273 140

C272 141 272 145 273 147

C275 148 279 148 280 147

Z

M479 146

C483 143 485 139 485 134

C485 129 483 129 481 134

C480 139 475 143 470 144

C466 144 464 146 466 147

C469 149 475 148 479 146

Z

M122 143

C124 142 127 137 127 135

C127 134 125 134 123 134

C118 134 113 138 112 142

C112 145 112 145 116 145

C118 145 121 144 122 143

Z

M83 141

C83 136 77 130 72 130

C69 130 70 135 72 138

C76 143 83 145 83 141

Z

M221 141

C223 137 221 134 217 134

C213 134 211 138 214 141

C216 144 219 143 221 141

Z

M343 141

C345 137 342 133 338 135

C336 135 334 140 336 142

C338 143 343 143 343 141

Z

M532 141

C535 138 532 133 529 133

C526 133 524 135 524 138

C524 140 526 142 529 142

C530 142 531 141 532 141

Z

M236 140

C239 136 233 130 229 133

C228 134 228 138 229 140

C231 141 235 141 236 140

Z

M327 139

C330 137 330 134 327 132

C325 131 324 131 322 132

C319 133 319 138 322 140

C324 141 324 141 327 139

Z

M107 137

C110 134 111 130 110 127

C109 123 108 123 104 127

C102 129 101 131 101 134

C101 141 103 142 107 137

Z

M421 139

C425 137 428 134 428 132

C428 129 426 130 423 132

C419 135 415 135 409 133

C403 131 402 131 404 134

C407 139 416 142 421 139

Z

M94 137

C96 133 94 125 90 124

C87 123 86 124 86 129

C86 133 87 134 88 136

C91 139 93 140 94 137

Z

M63 137

C64 133 57 127 52 127

C45 127 44 131 50 135

C54 138 62 139 63 137

Z

M310 133

C310 127 303 127 301 132

C301 134 301 135 303 136

C305 138 306 138 307 137

C309 136 310 134 310 133

Z

M512 135

C514 132 512 128 509 128

C506 128 504 130 504 133

C504 137 510 139 512 135

Z

M259 134

C260 134 261 132 261 131

C261 129 258 126 257 126

C255 126 252 129 252 131

C252 133 255 136 257 136

C257 136 259 135 259 134

Z

M558 134

C561 133 561 127 558 126

C556 125 555 125 553 126

C551 128 550 131 553 133

C555 135 555 135 558 134

Z

M32 129

C35 126 34 122 30 122

C27 122 25 124 25 127

C25 131 29 132 32 129

Z

M151 128

C154 126 157 122 156 120

C155 117 150 117 145 120

C142 121 139 125 139 128

C139 131 147 131 151 128

Z

M289 126

C289 120 282 120 280 125

C280 127 280 128 282 129

C284 131 285 131 286 130

C288 129 289 127 289 126

Z

M128 126

C130 125 132 121 132 118

C133 114 130 113 125 116

C121 117 119 121 119 126

C119 129 119 129 122 128

C124 128 126 127 128 126

Z

M387 127

C387 126 386 125 383 125

C378 124 373 119 371 115

C370 111 368 110 367 112

C366 117 370 126 375 128

C379 130 386 129 387 127

Z

M175 126

C175 125 176 124 176 123

C176 121 175 120 175 119

C172 117 167 118 167 122

C167 126 172 128 175 126

Z

M341 125

C342 122 342 122 341 120

C338 117 335 117 333 120

C331 124 333 127 337 127

C339 127 340 126 341 125

Z

M490 126

C494 124 492 117 487 117

C485 117 483 120 483 122

C483 124 485 127 487 127

C488 127 489 127 490 126

Z

M245 124

C247 122 247 122 242 117

L237 112

L236 116

C236 123 237 126 241 126

C242 126 244 125 245 124

Z

M457 124

C460 121 463 114 462 110

C462 106 459 106 459 110

C457 116 451 122 446 122

C444 122 442 124 444 125

C446 126 454 126 457 124

Z

M81 119

C81 114 78 110 74 108

C71 107 71 107 70 108

C67 112 71 120 76 122

C80 124 81 124 81 119

Z

M360 123

C360 122 359 121 357 120

C352 118 349 114 348 108

C348 102 346 101 344 106

C342 111 345 119 350 122

C354 124 360 125 360 123

Z

M547 121

C550 117 544 111 540 114

C539 115 538 120 540 121

C541 123 546 122 547 121

Z

M103 118

C107 114 107 107 104 104

L102 102

L100 104

C96 107 95 113 98 117

C98 119 100 121 100 121

C100 121 102 120 103 118

Z

M506 118

C507 116 505 112 503 112

C497 110 494 118 500 120

C502 121 505 120 506 118

Z

M63 117

C61 111 56 107 51 107

C47 106 46 109 49 114

C51 118 54 120 59 120

C63 120 63 120 63 117

Z

M211 115

C212 112 213 109 213 109

C213 108 201 113 199 115

C199 115 200 116 201 118

C205 122 208 121 211 115

Z

M413 116

C415 113 415 109 413 105

C412 102 412 102 410 103

C409 104 407 107 406 109

C405 113 405 113 406 117

C408 120 408 120 410 119

C411 118 412 117 413 116

Z

M572 117

C573 115 571 111 569 111

C566 110 563 112 563 115

C563 120 569 121 572 117

Z

M227 114

C230 108 231 96 229 94

C225 89 220 97 219 108

C218 118 223 122 227 114

Z

M321 117

C324 116 324 110 321 109

C319 108 318 108 316 109

C313 111 313 114 316 116

C319 118 319 118 321 117

Z

M34 116

C37 113 34 108 31 108

C28 108 26 110 26 113

C26 115 28 117 31 117

C32 117 33 116 34 116

Z

M195 115

C197 112 195 109 192 108

C188 107 185 114 188 116

C190 118 194 117 195 115

Z

M431 112

C431 107 429 104 425 102

C422 100 421 102 421 107

C421 109 422 111 424 114

C426 116 429 117 429 117

C430 117 431 114 431 112

Z

M482 114

C489 111 491 100 487 95

C484 91 483 92 484 98

C484 105 483 108 478 112

C476 113 475 115 475 115

C475 117 479 116 482 114

Z

M261 112

C265 109 266 104 266 96

C266 91 266 89 265 89

C259 92 237 102 237 103

C237 104 246 111 250 112

C255 114 258 114 261 112

Z

M333 113

C336 112 336 106 333 105

C328 102 324 109 328 112

C331 114 331 114 333 113

Z

M124 106

C126 103 126 96 124 94

C123 93 122 93 121 94

C116 96 113 104 115 109

C116 112 116 112 119 111

C121 110 123 108 124 106

Z

M395 110

C396 110 399 107 399 106

C402 100 401 99 398 99

C394 99 388 105 388 109

C388 112 389 113 395 110

Z

M524 109

C526 106 524 102 520 102

C516 102 514 106 516 109

C517 110 519 111 520 111

C521 111 523 110 524 109

Z

M283 108

C285 107 286 103 284 101

C283 99 280 99 278 101

C276 102 275 105 278 107

C279 109 280 109 283 108

Z

M89 106

C92 101 90 92 85 89

C83 88 83 88 81 90

C81 91 80 94 80 96

C80 100 81 102 83 104

C87 109 88 109 89 106

Z

M17 105

C19 104 19 103 18 100

C16 96 10 98 10 103

C10 107 14 108 17 105

Z

M448 103

C448 99 443 95 438 95

C435 95 434 95 434 97

C434 98 436 101 437 103

C440 105 442 106 444 106

C448 106 448 106 448 103

Z

M511 104

C515 101 511 94 506 97

C503 98 503 103 506 105

C508 106 508 106 511 104

Z

M62 103

C63 102 64 101 64 100

C64 99 60 95 59 95

C58 95 54 99 54 100

C54 101 58 105 59 105

C60 105 61 104 62 103

Z

M208 101

L214 98

L202 88

L189 78

L188 81

C187 82 187 87 186 92

C186 100 186 100 188 103

C191 105 192 105 196 105

C199 105 204 103 208 101

Z

M313 104

C316 100 310 94 306 97

C305 98 305 102 306 104

C308 105 312 105 313 104

Z

M149 102

C149 101 150 100 150 99

C150 97 149 96 149 95

C148 95 147 94 146 94

C144 94 143 95 142 95

C142 96 141 97 141 99

C141 100 142 101 142 102

C143 102 144 103 146 103

C147 103 148 102 149 102

Z

M41 101

C44 97 40 91 35 94

C31 96 33 102 38 102

C39 102 40 101 41 101

Z

M330 98

C330 97 329 96 328 94

C325 90 325 86 327 80

C329 75 329 75 327 75

C326 75 324 77 322 79

C320 82 320 83 320 88

C321 93 321 94 324 97

C328 100 330 100 330 98

Z

M362 99

C363 99 362 97 361 96

C357 91 356 85 359 81

C361 76 360 74 357 77

C352 81 351 88 353 94

C356 98 360 101 362 99

Z

M171 97

C175 94 172 90 167 90

C165 90 164 91 164 93

C164 98 168 101 171 97

Z

M539 97

C541 94 539 91 536 90

C533 90 531 91 531 94

C531 99 537 101 539 97

Z

M556 98

C558 95 556 91 553 90

C549 89 547 93 549 97

C549 99 554 99 556 98

Z

M388 95

C391 92 391 92 390 90

C386 88 376 90 375 94

C374 96 377 98 381 98

C384 98 386 97 388 95

Z

M302 94

C304 91 302 87 298 87

C294 87 292 90 294 94

C296 97 299 97 302 94

Z

M522 92

C526 89 523 85 518 85

C516 85 515 86 515 88

C515 93 519 96 522 92

Z

M578 92

C580 90 579 86 577 85

C574 83 571 85 570 88

C569 92 576 95 578 92

Z

M50 88

C50 83 43 81 41 87

C41 89 41 90 43 91

C46 94 49 92 50 88

Z

M469 90

C475 84 474 74 466 69

C462 67 461 69 464 73

C468 77 468 84 465 89

C464 91 464 93 466 93

C466 93 468 92 469 90

Z

M29 91

C30 90 30 88 30 86

C30 84 29 83 27 83

C22 83 19 87 23 90

C25 92 27 92 29 91

Z

M69 91

C69 90 70 89 70 88

C70 86 69 85 69 84

C66 81 61 84 61 88

C61 90 63 92 66 92

C67 92 68 91 69 91

Z

M419 89

C424 85 419 78 412 78

C406 78 403 85 407 89

C410 92 417 92 419 89

Z

M505 86

C509 80 506 69 500 67

C496 65 495 66 498 70

C502 75 503 81 501 85

C498 89 499 92 502 90

C503 89 504 87 505 86

Z

M450 88

C454 87 454 86 450 83

C448 81 447 81 443 81

C441 82 438 83 437 83

C436 85 436 85 438 88

C442 90 446 91 450 88

Z

M316 86

C317 86 318 84 318 83

C318 81 315 78 313 78

C312 78 308 82 308 83

C308 84 312 88 313 88

C313 88 315 87 316 86

Z

M241 84

C246 79 250 78 257 80

C259 81 261 81 262 81

C264 78 254 72 248 73

C242 75 235 81 235 85

C235 88 237 87 241 84

Z

M564 83

C570 82 575 77 575 74

C575 70 572 65 566 60

C564 57 561 55 560 55

C560 55 558 61 556 68

C554 76 553 83 552 84

C552 86 552 86 555 86

C557 85 561 84 564 83

Z

M285 84

C288 81 285 76 282 76

C279 76 277 78 277 81

C277 83 279 85 282 85

C283 85 284 84 285 84

Z

M89 82

C92 80 91 77 89 76

C87 74 84 74 83 76

C80 81 86 86 89 82

Z

M153 82

C156 80 155 78 153 76

C149 72 143 77 146 82

C148 84 151 85 153 82

Z

M221 81

C221 78 218 72 215 70

C211 67 205 66 200 68

C194 70 195 72 201 72

C208 72 213 74 216 79

C218 83 221 84 221 81

Z

M543 82

C543 81 542 79 541 77

C538 72 538 66 542 61

C545 56 544 53 539 57

C534 61 531 70 534 75

C537 81 543 85 543 82

Z

M108 79

C112 76 109 72 104 72

C102 72 101 73 101 75

C101 80 105 83 108 79

Z

M390 79

C390 76 385 72 381 72

C373 72 372 74 377 78

C380 81 381 81 385 81

C388 81 390 80 390 79

Z

M11 79

C14 76 11 71 8 71

C5 71 3 73 3 76

C3 78 5 80 8 80

C9 80 10 79 11 79

Z

M131 78

C132 77 133 76 133 75

C133 74 129 70 128 70

C127 70 123 74 123 75

C123 77 126 80 128 80

C128 80 130 79 131 78

Z

M40 74

C40 72 40 71 38 70

C35 69 35 69 33 70

C30 73 30 76 33 77

C36 80 39 78 40 74

Z

M443 73

C447 69 447 66 444 66

C440 65 435 67 432 70

C430 74 431 76 436 76

C438 76 440 75 443 73

Z

M234 74

C234 73 235 72 235 71

C235 69 234 68 234 67

C233 67 232 66 231 66

C229 66 228 67 227 67

C227 68 226 69 226 71

C226 72 227 73 227 74

C228 74 229 75 231 75

C232 75 233 74 234 74

Z

M311 73

C312 70 312 70 311 68

C308 65 305 65 303 68

C301 72 303 75 307 75

C309 75 310 74 311 73

Z

M342 74

C343 74 342 73 342 71

C341 66 343 61 347 57

C352 53 352 52 349 52

C346 52 341 55 338 58

C335 64 338 79 342 74

Z

M63 70

C66 67 63 62 60 62

C55 62 54 66 57 69

C58 71 61 71 63 70

Z

M520 69

C521 69 522 67 522 66

C522 64 519 61 518 61

C516 61 513 64 513 66

C513 68 516 71 518 71

C518 71 520 70 520 69

Z

M145 68

C147 65 147 62 144 61

C140 59 135 64 139 68

C141 71 144 71 145 68

Z

M162 68

C165 66 164 63 161 61

C160 60 159 60 157 62

C155 63 154 67 157 69

C159 70 161 70 162 68

Z

M398 66

C398 61 394 56 390 56

C387 56 387 56 387 59

C387 64 392 70 397 70

C398 70 398 69 398 66

Z

M427 64

C429 61 430 54 428 53

C425 53 422 55 421 58

C419 61 419 64 420 67

C421 69 424 68 427 64

Z

M279 66

C282 65 282 62 279 59

C277 58 277 58 274 59

C271 60 271 65 274 67

C276 68 276 68 279 66

Z

M297 67

C300 64 297 59 293 59

C290 60 288 64 290 66

C291 68 295 68 297 67

Z

M327 66

C328 65 329 64 329 63

C329 62 325 58 324 58

C323 58 319 62 319 63

C319 64 320 65 321 66

C322 67 323 68 324 68

C325 68 326 67 327 66

Z

M482 65

C484 62 483 56 481 52

C478 48 475 46 471 46

C466 45 465 47 469 49

C473 51 478 56 478 59

C478 61 478 62 479 63

C479 64 479 65 479 66

C479 68 481 67 482 65

Z

M116 64

C119 62 118 59 116 57

C112 55 109 57 109 61

C109 65 113 67 116 64

Z

M259 64

C261 60 259 57 255 57

C251 57 249 61 252 64

C254 67 257 66 259 64

Z

M410 64

C413 61 412 55 410 52

C407 48 406 48 405 52

C402 56 403 60 405 63

C408 67 408 67 410 64

Z

M189 62

C190 60 190 59 189 57

C187 54 184 54 181 57

C180 59 180 59 181 62

C182 65 187 65 189 62

Z

M219 62

C220 62 221 60 221 59

C221 58 218 54 216 54

C215 54 211 58 211 59

C211 60 215 64 216 64

C216 64 218 63 219 62

Z

M86 62

C88 60 87 56 84 55

C81 53 79 55 78 58

C78 62 83 65 86 62

Z

M367 58

C368 53 374 48 377 48

C380 48 382 46 381 45

C381 44 379 44 375 44

C370 45 369 45 366 48

C363 52 362 54 363 59

C364 64 365 64 367 58

Z

M243 61

C246 58 243 53 240 53

C237 53 235 55 235 58

C235 60 237 62 240 62

C241 62 242 61 243 61

Z

M583 58

C585 52 581 49 572 51

L569 51

L574 56

C577 59 580 61 580 61

C581 61 582 60 583 58

Z

M28 59

C29 57 29 54 28 52

C25 49 20 52 20 56

C20 58 22 60 25 60

C26 60 27 59 28 59

Z

M133 58

C134 56 134 56 133 53

C132 51 131 51 129 51

C125 52 123 55 126 58

C127 61 130 61 133 58

Z

M312 59

C313 58 313 56 313 54

C313 52 312 51 310 51

C305 51 302 55 306 58

C308 60 310 60 312 59

Z

M520 57

C522 54 522 54 520 52

C518 49 514 50 513 52

C512 55 512 56 514 57

C516 60 519 59 520 57

Z

M153 57

C156 55 156 50 153 49

C150 48 150 48 148 49

C145 52 145 55 148 56

C151 58 151 58 153 57

Z

M456 56

C457 52 455 46 451 43

C448 40 447 40 442 40

C438 40 437 41 437 42

C437 43 438 44 441 44

C444 44 446 46 449 48

C450 50 452 52 452 52

C452 54 454 58 455 58

C455 58 456 57 456 56

Z

M16 55

C18 52 16 49 13 48

C9 47 6 51 9 55

C11 58 15 58 16 55

Z

M105 54

C106 51 106 51 104 49

C101 45 95 49 97 54

C98 57 104 57 105 54

Z

M265 53

C266 53 267 51 267 51

C267 49 264 46 262 46

C260 46 257 49 257 51

C257 52 260 55 262 55

C263 55 265 54 265 53

Z

M535 54

C538 51 535 46 531 46

C528 47 526 51 528 53

C529 55 533 55 535 54

Z

M54 50

C55 49 56 48 56 47

C56 46 55 45 54 44

C53 43 52 42 51 42

C50 42 46 46 46 47

C46 49 49 52 51 52

C51 52 53 51 54 50

Z

M325 51

C328 48 325 43 322 43

C319 43 317 45 317 48

C317 50 319 52 322 52

C323 52 324 51 325 51

Z

M501 50

C503 50 503 45 502 43

C500 41 495 43 495 45

C493 49 497 52 501 50

Z

M346 48

C349 46 348 44 346 42

C342 38 349 28 357 27

C362 26 362 23 358 22

C348 21 339 30 341 39

C342 40 342 41 341 41

C338 42 339 48 341 49

C343 50 344 50 346 48

Z

M89 46

C90 45 91 44 91 43

C91 42 87 38 86 38

C85 38 81 42 81 43

C81 44 85 48 86 48

C87 48 88 47 89 46

Z

M172 46

C174 43 174 40 171 39

C169 38 166 39 165 42

C164 44 167 48 169 48

C170 48 172 47 172 46

Z

M564 47

C573 44 577 38 571 36

C567 35 559 37 554 39

C543 45 551 51 564 47

Z

M9 45

C10 44 11 43 11 42

C11 41 7 37 6 37

C5 37 1 41 1 42

C1 43 5 47 6 47

C7 47 8 46 9 45

Z

M234 45

C238 43 236 37 232 37

C227 37 226 41 229 44

C230 46 231 46 234 45

Z

M143 44

C147 43 148 38 144 36

C140 34 136 39 139 43

C140 45 141 45 143 44

Z

M190 44

C193 41 190 36 187 36

C184 36 182 38 182 41

C182 43 184 45 187 45

C188 45 189 44 190 44

Z

M518 44

C519 43 519 41 519 39

C519 37 518 36 516 36

C511 36 508 40 512 43

C514 45 516 45 518 44

Z

M289 41

C290 40 291 39 291 38

C291 37 287 33 286 33

C285 33 281 37 281 38

C281 39 285 43 286 43

C287 43 288 42 289 41

Z

M68 40

C72 37 69 33 65 33

C61 34 60 37 62 40

C63 42 66 43 68 40

Z

M128 41

C130 39 129 35 126 34

C123 32 121 34 120 37

C120 41 125 44 128 41

Z

M490 40

C493 39 493 36 490 33

C488 32 488 32 485 33

C482 34 482 39 485 41

C487 42 487 42 490 40

Z

M540 40

C540 39 538 37 535 36

C528 33 526 30 525 24

C525 21 524 19 523 19

C522 19 520 23 520 26

C520 30 524 37 528 39

C532 41 540 42 540 40

Z

M110 38

C112 35 112 35 110 33

C108 30 104 31 103 33

C102 36 102 37 104 38

C106 41 109 40 110 38

Z

M210 38

C211 38 212 36 212 35

C212 33 209 30 208 30

C206 30 203 33 203 35

C203 37 206 40 208 40

C208 40 210 39 210 38

Z

M252 38

C253 38 254 36 254 35

C254 33 251 30 250 30

C248 30 245 33 245 35

C245 37 248 40 250 40

C250 40 252 39 252 38

Z

M313 38

C316 37 316 34 313 31

C311 30 311 30 308 31

C305 32 305 37 308 39

C310 40 310 40 313 38

Z

M334 39

C337 36 334 31 331 31

C328 31 326 33 326 36

C326 39 331 41 334 39

Z

M400 37

C403 34 410 34 415 37

C419 39 421 38 419 35

C417 32 411 29 408 29

C402 29 395 34 395 37

C395 40 397 39 400 37

Z

M44 35

C45 34 45 32 45 31

C43 25 36 27 36 32

C36 33 36 35 37 35

C38 37 43 36 44 35

Z

M479 33

C479 30 475 22 472 21

C468 18 459 19 459 21

C459 22 460 23 463 23

C468 24 472 27 474 32

C476 36 478 37 479 33

Z

M19 34

C20 32 20 29 19 27

C17 26 14 26 12 27

C9 30 12 35 16 35

C17 35 18 34 19 34

Z

M375 32

C377 28 382 26 388 26

C394 26 395 25 392 23

C389 20 381 21 377 23

C374 25 371 30 371 33

C371 36 373 36 375 32

Z

M232 32

C234 29 232 26 229 25

C225 24 223 28 224 32

C225 35 230 35 232 32

Z

M446 32

C446 26 439 20 433 20

C429 20 424 22 423 24

C421 26 423 27 427 26

C431 24 437 26 441 31

C445 35 446 35 446 32

Z

M508 32

C510 29 508 26 505 25

C501 24 498 31 501 33

C503 35 507 34 508 32

Z

M583 33

C586 30 583 25 580 25

C577 25 575 27 575 30

C575 32 577 34 580 34

C581 34 582 33 583 33

Z

M81 31

C82 31 83 29 83 29

C83 27 80 24 78 24

C75 24 74 26 74 29

C74 33 78 35 81 31

Z

M168 31

C169 28 169 28 167 26

C164 22 158 26 160 31

C161 34 167 34 168 31

Z

M147 30

C149 27 147 24 144 23

C140 22 137 29 140 31

C142 33 146 32 147 30

Z

M556 26

C560 6 553 0 535 9

L529 12

L541 22

C548 27 554 32 554 31

C555 31 555 29 556 26

Z

M100 27

C101 26 101 25 99 23

C96 18 89 23 92 28

C93 31 98 30 100 27

Z

M272 28

C273 27 273 25 272 24

C272 22 267 20 265 22

C264 24 264 29 265 29

C268 30 271 30 272 28

Z

M194 27

C197 25 196 22 194 20

C190 18 187 20 187 24

C187 28 191 30 194 27

Z

M572 24

C573 23 574 21 574 20

C574 18 570 14 568 14

C567 14 563 27 563 28

C563 29 569 26 572 24

Z

M120 25

C121 25 122 23 122 22

C122 20 120 17 118 17

C115 17 113 19 113 22

C113 26 117 28 120 25

Z

M11 25

C14 21 8 15 4 18

C3 20 3 25 4 25

C7 26 10 26 11 25

Z

M29 25

C32 21 28 15 23 18

C19 20 21 26 26 26

C27 26 28 25 29 25

Z

M67 23

C70 20 69 16 65 16

C58 16 59 25 65 25

C65 25 67 24 67 23

Z

M333 24

C337 22 335 16 331 16

C326 16 324 22 328 24

C330 25 331 25 333 24

Z

M156 22

C160 19 157 14 152 15

C150 16 149 17 149 19

C149 24 153 26 156 22

Z

M349 22

C352 21 352 15 349 14

C344 11 340 18 344 21

C347 23 347 23 349 22

Z

M493 22

C496 19 493 14 490 14

C487 14 485 16 485 19

C485 21 487 23 490 23

C491 23 492 22 493 22

Z

M517 22

C520 19 517 14 514 14

C511 14 509 16 509 19

C509 21 511 23 514 23

C515 23 516 22 517 22

Z

M214 19

C218 16 215 12 210 12

C208 12 207 13 207 15

C207 20 211 23 214 19

Z

M286 20

C290 18 288 12 284 12

C279 12 277 18 281 20

C283 21 284 21 286 20

Z

M145 15

C146 15 147 13 147 13

C147 11 144 8 142 8

C140 8 137 11 137 13

C137 14 140 17 142 17

C143 17 145 16 145 15

Z

M458 15

C459 14 460 13 460 12

C460 11 456 7 455 7

C453 7 450 10 450 12

C450 14 453 17 455 17

C456 17 457 16 458 15

Z

M16 14

C19 13 19 7 16 6

C14 5 13 5 11 6

C9 8 8 11 11 13

C13 15 13 15 16 14

Z

M190 14

C193 11 190 6 187 6

C184 6 182 8 182 11

C182 13 184 15 187 15

C188 15 189 14 190 14

Z

M56 12

C57 11 58 10 58 9

C58 7 55 4 53 4

C52 4 48 8 48 9

C48 10 52 14 53 14

C54 14 55 13 56 12

Z

M100 13

C104 11 102 5 98 5

C93 5 92 9 95 12

C96 14 97 14 100 13

Z

M167 12

C170 11 170 8 167 5

C165 4 165 4 162 5

C159 6 159 11 162 13

C164 14 164 14 167 12

Z

M266 12

C268 8 266 5 262 5

C258 5 256 9 258 12

C261 15 264 15 266 12

Z

M32 12

C33 10 33 6 32 5

C29 3 25 5 24 8

C24 9 24 11 25 12

C26 13 30 13 32 12

Z

M314 11

C315 10 316 9 316 8

C316 7 312 3 311 3

C310 3 306 7 306 8

C306 10 309 13 311 13

C311 13 313 12 314 11

Z

M338 12

C341 9 338 4 335 4

C332 4 330 6 330 9

C330 11 332 13 335 13

C336 13 337 12 338 12

Z

M365 11

C369 8 365 2 360 4

C356 6 358 13 363 13

C363 13 365 12 365 11

Z

M499 11

C502 9 501 7 499 5

C495 1 489 6 492 11

C494 13 497 14 499 11

Z

M80 10

C81 7 81 7 80 5

C77 2 74 2 72 5

C70 9 72 12 76 12

C78 12 79 11 80 10

Z

M248 11

C251 8 248 3 245 3

C242 3 240 5 240 8

C240 10 242 12 245 12

C246 12 247 11 248 11

Z

M581 11

C582 9 582 5 581 4

C579 2 574 4 574 6

C572 10 578 14 581 11

Z

M121 8

C122 7 122 6 120 4

C119 1 114 1 113 4

C112 7 112 8 114 9

C116 12 119 11 121 8

Z

M442 10

C445 7 442 2 439 2

C436 2 434 4 434 7

C434 9 436 11 439 11

C440 11 441 10 442 10

Z

"/>

</svg>

