<?xml version="1.0" standalone="no"?>

<!DOCTYPE svg PUBLIC "-//W3C//DTD SVG 20010904//EN"

 "http://www.w3.org/TR/2001/REC-SVG-20010904/DTD/svg10.dtd">

<svg version="1.0" xmlns="http://www.w3.org/2000/svg"

 width="532.000000pt" height="532.000000pt" viewBox="0 0 532.000000 532.000000"

 preserveAspectRatio="xMidYMid meet">

<path fill="#f9f2f2" stroke="none" d="
M0 266

L0 0

L266 0

L532 0

L532 266

L532 532

L266 532

L0 532

L0 266

Z

"/>

<path fill="#cb3e36" stroke="none" d="
M7 531

C7 529 17 515 22 510

C27 506 28 505 31 505

C34 505 35 506 37 508

C38 509 39 511 39 512

C39 515 34 520 25 526

C18 531 16 532 12 532

C9 532 7 532 7 531

Z

M31 529

C48 518 58 518 57 530

C57 532 56 532 42 532

L27 532

L31 529

Z

M61 528

C61 522 56 517 50 517

C47 517 47 517 48 515

C53 512 58 515 61 521

C64 528 65 532 63 532

C61 532 61 531 61 528

Z

M70 531

C69 530 69 526 68 520

C68 511 68 510 70 508

C72 505 78 505 81 508

C83 509 83 510 83 520

C82 525 82 530 82 531

C81 532 70 532 70 531

Z

M88 529

C90 516 98 510 104 516

C107 519 107 523 104 528

L102 532

L94 532

L87 532

L88 529

Z

M114 531

C115 531 117 531 118 531

C119 532 118 532 116 532

C113 532 113 532 114 531

Z

M151 530

C140 528 130 525 127 523

C124 521 124 516 126 513

C129 510 135 510 143 515

C150 519 166 529 168 531

C168 532 159 532 151 530

Z

M221 531

C221 531 225 528 229 525

C239 517 252 511 256 511

C261 511 264 514 264 518

C263 524 256 527 238 530

C229 532 221 532 221 531

Z

M259 531

C259 529 264 525 266 525

C269 525 273 527 274 530

C275 532 275 532 267 532

C261 532 259 532 259 531

Z

M282 526

C282 522 282 520 284 519

C286 516 290 516 293 517

C296 519 297 521 294 521

C291 521 285 523 285 524

C285 524 284 526 284 529

L282 533

L282 526

Z

M287 530

C287 529 288 527 289 526

C291 524 292 524 302 524

C314 525 344 530 347 531

C348 532 336 532 318 532

C288 532 287 532 287 530

Z

M368 531

C368 528 371 525 374 524

C376 524 377 524 379 526

C384 531 383 532 375 532

C370 532 368 532 368 531

Z

M403 531

C405 530 437 525 449 524

C459 524 459 524 461 526

C463 528 464 530 464 530

C464 532 460 532 433 532

C414 532 402 532 403 531

Z

M467 530

C467 530 466 528 465 526

C465 524 464 523 465 523

C465 523 474 528 478 530

L481 532

L474 532

C468 532 467 532 467 530

Z

M484 528

C473 520 469 516 469 512

C469 508 471 505 476 505

C478 505 480 505 481 506

C483 507 493 519 497 526

L501 532

L496 532

C491 532 490 531 484 528

Z

M505 527

C497 517 489 504 489 500

C489 497 493 493 497 493

C498 493 501 494 502 494

C505 497 509 512 511 527

C512 534 510 534 505 527

Z

M519 531

C517 529 513 505 512 497

C512 488 512 488 514 486

C518 483 521 483 524 486

L527 488

L527 498

C526 504 525 514 523 520

C521 531 520 533 519 531

Z

M528 525

C529 521 530 515 530 513

C532 508 532 508 532 520

C532 531 531 532 529 532

C527 532 527 532 528 525

Z

M0 517

C0 505 2 497 6 494

C8 492 12 493 15 495

C19 498 19 502 14 510

C10 517 1 529 0 529

C0 529 0 524 0 517

Z

M119 528

C117 528 115 527 115 527

C115 526 120 526 122 527

C124 527 125 529 123 529

C123 529 121 528 119 528

Z

M169 523

C153 515 143 506 143 502

C143 498 147 495 151 495

C153 495 155 496 159 499

C166 506 179 525 178 527

C178 528 174 526 169 523

Z

M213 522

C217 514 229 499 232 497

C241 491 250 500 243 508

C239 512 214 528 210 528

C210 528 211 525 213 522

Z

M276 525

C275 524 273 523 271 522

C268 521 268 520 269 519

C269 517 269 514 270 511

L270 506

L272 509

C274 511 276 513 277 514

C280 515 280 516 279 517

C278 518 278 521 278 523

C278 525 277 527 277 527

C277 527 277 526 276 525

Z

M111 523

C111 521 111 519 110 517

C109 515 109 515 111 516

C114 518 116 519 120 521

C121 521 121 521 119 522

C117 522 114 523 113 524

C111 525 111 525 111 523

Z

M337 524

C328 523 316 520 311 518

C305 515 303 508 308 504

C312 502 315 503 324 508

C332 512 349 523 349 524

C349 525 345 525 337 524

Z

M402 524

C402 521 432 503 438 503

C441 503 445 507 445 510

C445 515 442 517 434 519

C423 523 402 526 402 524

Z

M182 520

C171 507 164 495 164 490

C164 485 171 481 176 484

C179 486 184 502 186 514

C186 517 186 521 187 522

C187 525 186 524 182 520

Z

M202 522

C202 511 209 487 212 484

C217 481 225 485 225 490

C225 495 212 515 205 522

L202 524

L202 522

Z

M194 522

C191 513 187 495 187 486

C187 479 187 478 189 476

C193 473 196 473 200 476

C202 478 202 478 202 487

C201 496 197 519 195 522

C194 523 194 523 194 522

Z

M299 518

C297 515 295 513 292 513

C290 513 290 513 292 509

C293 507 293 503 292 499

C291 497 291 497 295 500

C297 501 300 502 301 503

C304 503 304 503 303 507

C300 511 301 514 305 518

L308 521

L305 521

C302 521 301 520 299 518

Z

M447 520

C447 519 447 517 447 517

C448 515 448 515 450 516

C453 517 453 518 450 520

C448 521 448 521 447 520

Z

M349 515

C338 510 329 503 326 499

C323 496 323 492 326 489

C331 485 336 487 344 497

C350 504 359 518 359 520

C359 521 356 520 349 515

Z

M394 515

C403 500 414 487 418 487

C422 487 426 491 426 494

C426 497 425 499 422 502

C415 508 395 520 392 520

C391 520 392 518 394 515

Z

M459 517

C459 517 460 515 461 515

C464 513 466 514 465 516

C464 518 459 519 459 517

Z

M61 514

C60 512 58 512 55 511

L51 511

L55 504

C57 501 61 496 64 493

L69 488

L68 495

C68 499 67 504 66 505

C65 506 64 510 64 512

L64 517

L61 514

Z

M115 515

C109 511 92 486 93 484

C94 483 110 492 118 498

C128 505 129 507 126 509

C124 510 123 512 122 514

C121 518 118 518 115 515

Z

M383 514

C383 507 387 488 391 480

C394 474 401 474 405 480

C406 483 406 483 403 490

C399 497 393 506 386 514

L383 518

L383 514

Z

M363 512

C354 503 345 488 345 483

C345 479 348 476 352 476

C356 476 359 478 361 484

C364 491 367 507 367 512

L367 516

L363 512

Z

M375 515

C372 507 368 487 368 478

C368 472 368 471 370 469

C373 466 378 466 381 470

C383 472 383 473 383 481

C382 489 378 509 376 514

C375 516 375 516 375 515

Z

M89 513

C88 512 85 495 85 492

L85 488

L90 492

C94 497 102 508 103 510

C103 512 103 512 100 511

C97 510 96 510 93 512

C91 513 89 513 89 513

Z

M450 513

C450 513 449 511 449 509

C448 505 443 500 440 500

C439 500 437 499 435 496

C431 489 427 482 427 481

C429 480 459 499 461 503

C463 506 462 510 460 512

C457 514 453 515 450 513

Z

M263 509

C261 507 259 507 256 507

C254 507 252 507 252 506

C252 499 257 471 259 471

C260 471 267 502 267 510

C267 512 266 511 263 509

Z

M276 509

C275 507 273 504 273 502

C270 496 267 479 267 474

L267 470

L271 474

C280 485 289 499 289 504

C289 510 281 514 276 509

Z

M41 506

C38 501 38 496 41 494

C44 492 60 484 61 484

C63 484 46 509 44 510

C43 510 42 508 41 506

Z

M139 508

C137 508 135 507 133 507

C132 507 131 506 130 505

C127 501 128 501 131 502

C132 503 135 504 137 504

C138 505 140 506 141 507

C143 510 142 510 139 508

Z

M464 503

C462 500 464 499 468 500

L471 502

L468 504

L465 506

L464 503

Z

M22 502

C23 497 20 493 15 491

C11 489 5 489 3 492

C1 494 0 493 0 490

L0 486

L6 487

C22 489 33 493 35 498

C36 501 36 501 32 501

C30 501 27 502 25 503

C21 506 21 506 22 502

Z

M483 503

C482 502 482 502 483 500

C485 499 485 499 485 500

C485 501 485 503 486 503

C486 505 485 505 483 503

Z

M73 501

C73 500 76 489 77 489

C77 489 78 491 79 494

C80 497 80 500 81 501

C81 502 80 502 77 502

C75 502 73 502 73 501

Z

M320 501

C318 501 316 500 314 500

C310 500 311 500 313 496

C314 493 313 488 310 485

C309 483 309 483 313 485

C316 486 319 487 320 487

C322 487 322 487 320 490

C319 494 319 494 321 498

C323 502 323 502 320 501

Z

M428 500

C429 498 431 497 432 499

C432 500 430 502 428 502

C427 502 427 502 428 500

Z

M128 497

C120 493 105 482 104 480

C104 478 129 482 139 486

C146 489 147 490 142 494

C141 496 139 498 139 499

C139 502 137 501 128 497

Z

M299 499

C297 498 288 488 283 480

C278 473 275 467 275 466

C276 466 289 473 296 477

C305 483 310 489 310 492

C310 495 307 499 305 499

C305 499 304 499 303 499

C302 500 301 500 299 499

Z

M462 494

C454 490 438 479 438 477

C438 475 464 479 473 483

C481 486 483 491 479 496

C475 499 472 499 462 494

Z

M158 493

C156 492 154 491 153 491

C151 491 149 489 150 486

C150 484 152 483 156 486

C159 487 160 488 160 491

C160 493 161 495 161 495

C161 495 159 494 158 493

Z

M244 492

C242 492 240 491 238 491

L234 491

L238 485

C240 482 244 477 247 475

L251 470

L251 476

C250 486 248 494 247 494

C246 494 245 493 244 492

Z

M531 490

C530 488 530 487 530 486

C531 485 532 487 532 490

L531 493

L531 490

Z

M228 487

C228 485 223 481 221 480

C220 479 220 479 222 478

C225 475 242 466 243 466

C244 467 231 488 229 488

C228 488 228 487 228 487

Z

M32 486

C23 485 5 482 2 481

C1 481 0 480 0 479

C0 478 2 477 15 475

C24 474 35 473 40 472

C49 472 49 472 52 474

C55 477 55 482 51 485

C48 487 45 487 32 486

Z

M492 484

C491 482 491 482 492 481

C493 480 494 480 495 480

C496 480 498 479 499 477

C503 475 504 475 504 479

C504 485 496 488 492 484

Z

M179 482

C177 480 175 479 175 479

C174 479 173 478 173 476

C172 475 172 473 171 472

C171 470 171 470 175 472

C178 474 181 475 182 475

C184 475 184 475 183 479

C182 481 182 483 182 484

C183 485 183 485 179 482

Z

M334 484

C331 483 330 481 332 481

C333 481 335 481 337 480

C340 480 340 480 340 482

C339 485 339 485 334 484

Z

M316 482

C308 479 286 465 286 463

C286 461 299 463 312 466

C319 467 319 467 319 470

C319 475 321 478 324 479

C326 480 327 481 326 482

C323 484 320 484 316 482

Z

M527 480

C525 479 525 479 526 479

C529 478 532 478 532 480

C532 481 530 481 527 480

Z

M73 478

C69 475 69 471 72 468

C74 467 76 466 77 466

C80 466 84 470 84 473

C84 476 80 480 77 480

C76 480 74 479 73 478

Z

M137 479

C125 477 105 474 105 473

C105 471 142 466 154 466

C160 466 162 466 164 468

C166 471 166 475 164 478

C162 480 161 480 153 480

C148 480 141 479 137 479

Z

M167 479

C167 479 167 478 168 478

C169 477 169 477 169 478

C169 478 169 479 168 480

C167 480 167 480 167 479

Z

M204 477

C203 473 201 472 196 470

C193 470 193 470 200 467

C208 465 225 462 230 462

C232 462 232 463 227 467

C221 472 208 480 206 480

C206 480 205 478 204 477

Z

M324 474

C323 473 322 471 322 470

C322 469 323 467 324 466

C326 463 327 463 334 463

C341 463 364 466 365 466

C365 467 365 468 364 470

C363 473 363 473 360 473

C352 472 348 473 345 475

C343 477 341 477 334 477

C327 477 326 477 324 474

Z

M407 475

C402 471 405 463 411 463

C414 463 418 467 418 470

C418 473 414 477 411 477

C410 477 408 476 407 475

Z

M474 476

C466 475 439 471 439 470

C437 469 470 464 483 463

C494 463 495 463 497 465

C500 467 500 473 497 475

C495 477 484 477 474 476

Z

M528 469

C531 466 532 466 532 468

C532 472 531 473 527 473

L524 473

L528 469

Z

M0 469

C0 466 1 465 6 462

C14 457 25 451 28 451

C30 451 34 454 35 456

C36 460 34 464 30 465

C26 468 14 471 6 472

L0 472

L0 469

Z

M176 469

C174 468 173 467 173 466

C173 466 177 465 182 465

C186 465 190 466 190 466

C190 466 189 468 187 469

C184 473 180 473 176 469

Z

M514 467

C514 465 519 459 522 456

C525 454 526 452 527 450

C527 448 528 446 528 445

C531 443 532 446 532 453

L532 459

L524 464

C517 468 514 469 514 467

Z

M44 466

L38 466

L39 462

C39 460 39 458 40 458

C40 458 48 463 49 465

C51 466 50 467 44 466

Z

M104 466

C104 464 120 453 128 449

C138 444 141 444 145 447

C149 452 147 457 139 460

C129 464 104 468 104 466

Z

M381 463

C364 462 347 458 343 454

C339 450 342 442 349 442

C350 442 354 443 357 445

C365 449 385 462 384 463

C384 463 382 463 381 463

Z

M438 463

C439 460 453 451 461 447

C471 441 475 441 479 444

C484 449 480 455 471 458

C458 462 438 465 438 463

Z

M505 462

C506 462 506 459 506 457

C506 453 507 453 510 456

L512 458

L509 461

C506 464 504 465 505 462

Z

M154 462

C149 462 148 461 150 457

C152 453 151 451 149 447

C147 445 146 443 147 443

C148 443 158 455 161 460

L163 463

L161 463

C160 463 156 462 154 462

Z

M174 462

C173 461 172 459 171 458

C169 454 171 450 175 449

C179 447 198 449 216 452

C234 455 234 455 223 457

C200 462 178 464 174 462

Z

M51 457

C41 452 38 450 31 444

C25 439 25 437 29 437

C31 437 33 436 35 434

C38 432 39 431 40 432

C44 434 63 462 60 462

C60 462 56 460 51 457

Z

M93 461

C93 461 95 457 98 453

C103 444 111 434 115 431

C122 425 131 432 127 440

C125 443 112 453 102 458

C94 462 93 462 93 461

Z

M254 460

C250 456 253 449 259 449

C261 449 263 449 264 451

C267 454 266 456 264 459

C261 463 257 463 254 460

Z

M308 460

C287 456 285 456 287 455

C290 454 327 448 335 448

C336 448 337 449 337 450

C337 453 339 456 342 458

L346 460

L337 460

C331 459 328 459 325 460

C323 461 322 462 322 462

C322 462 315 461 308 460

Z

M496 459

C496 458 495 455 494 453

C494 449 494 449 496 449

C497 449 499 448 500 447

C503 444 503 445 502 449

C502 451 501 454 500 457

C499 461 498 462 496 459

Z

M0 453

C0 447 0 447 2 448

C5 450 12 449 14 446

C15 445 16 445 16 446

C16 447 9 453 3 457

L0 459

L0 453

Z

M386 455

C376 450 369 445 364 440

C361 438 360 436 360 433

C360 429 363 426 368 426

C371 426 372 427 376 431

C383 439 397 459 394 459

C394 459 390 457 386 455

Z

M427 458

C427 455 443 433 448 429

C452 425 457 425 460 428

C463 432 463 436 458 440

C454 444 441 453 433 456

C428 459 427 459 427 458

Z

M483 458

C482 457 483 456 484 453

C484 451 485 449 484 447

C484 445 484 445 486 446

C488 447 489 451 489 456

C489 458 489 459 487 459

C485 459 484 459 483 458

Z

M64 453

C58 446 50 434 47 428

C46 424 47 421 50 421

C51 421 52 420 53 420

C55 417 59 418 61 421

C64 427 70 450 69 456

C69 458 68 458 64 453

Z

M85 454

C85 448 88 433 91 426

C94 417 99 415 105 419

C108 422 108 425 105 432

C101 439 92 452 88 456

L85 458

L85 454

Z

M163 454

C159 447 155 440 155 439

C156 439 170 446 170 447

C170 447 170 448 169 449

C168 449 168 452 167 454

L166 459

L163 454

Z

M75 451

C70 433 68 416 70 412

C73 407 81 407 84 413

C85 415 85 417 84 428

C82 440 78 457 77 457

C77 457 76 454 75 451

Z

M400 453

C386 435 379 425 381 420

C381 418 382 416 385 415

C392 412 396 417 400 433

C402 443 404 455 402 455

C402 455 401 454 400 453

Z

M419 451

C419 446 422 428 425 423

C428 415 433 412 438 416

C442 419 442 423 438 430

C435 436 425 450 421 453

L419 455

L419 451

Z

M511 452

C508 449 508 448 509 436

C510 427 515 406 516 406

C517 406 522 427 523 439

L524 449

L521 452

C517 456 515 456 511 452

Z

M409 448

C405 434 402 416 403 411

C404 407 410 405 413 406

C418 408 419 412 418 424

C417 432 412 454 411 454

C411 454 410 451 409 448

Z

M17 450

C17 448 21 446 22 447

C24 448 24 448 20 450

C18 450 17 451 17 450

Z

M224 448

C208 446 193 442 191 439

C188 436 189 432 191 429

C195 426 198 426 208 432

C216 436 232 447 232 448

C232 449 229 449 224 448

Z

M288 446

C292 443 304 435 308 433

C311 431 311 431 314 433

C315 435 317 435 320 435

C323 434 326 434 327 434

C329 433 329 433 329 435

C329 439 326 441 318 443

C311 446 292 449 287 449

C285 449 285 449 288 446

Z

M2 444

C0 443 0 442 0 428

L0 414

L2 416

C6 421 14 434 15 437

C15 439 15 441 12 443

C9 446 6 447 2 444

Z

M184 445

C179 445 177 444 172 441

C170 439 167 436 166 435

C165 434 165 434 169 434

C171 435 176 435 179 436

C183 436 185 437 185 437

C185 439 190 444 192 444

C192 444 193 444 194 445

C194 446 193 446 192 446

C191 446 188 445 184 445

Z

M488 444

C485 440 485 436 490 428

C495 420 502 411 505 407

L508 405

L508 409

C508 415 505 430 502 437

C499 446 494 448 488 444

Z

M234 440

C224 435 215 429 211 424

C207 420 207 416 211 413

L214 411

L217 414

C218 416 220 417 223 418

C226 418 227 419 231 424

C236 432 243 444 243 444

C243 445 239 443 234 440

Z

M275 445

C275 442 287 423 291 419

C293 417 294 417 296 418

C298 419 304 419 307 418

C310 417 310 417 310 419

C310 423 299 432 283 441

C278 443 275 445 275 445

Z

M329 443

C331 441 331 441 332 442

C333 443 334 444 333 444

C333 445 331 445 330 445

L327 445

L329 443

Z

M22 443

C22 443 21 442 21 441

C21 440 20 438 19 436

C16 432 15 432 18 433

C19 433 21 436 22 439

C25 444 25 444 22 443

Z

M336 441

C333 438 334 435 337 429

C341 420 354 403 356 403

C358 403 353 429 350 435

C349 437 348 439 345 439

C344 440 342 441 341 441

C339 444 337 443 336 441

Z

M480 441

C479 440 478 439 476 439

L474 438

L477 436

C478 435 480 434 481 433

C483 432 483 432 482 437

C482 442 482 442 480 441

Z

M245 434

C242 431 238 425 236 422

L232 417

L234 414

C235 412 236 409 236 405

L236 400

L238 403

C239 404 241 407 243 408

C245 410 246 412 248 418

C250 426 252 441 251 441

C250 441 248 438 245 434

Z

M267 437

C267 426 272 406 276 402

C279 399 285 399 287 402

C292 407 286 419 270 439

L267 442

L267 437

Z

M357 440

C357 439 357 439 358 440

C359 440 359 440 359 441

C359 441 359 441 358 441

C357 441 357 441 357 440

Z

M529 435

C527 428 524 414 524 408

L524 405

L528 409

L532 413

L532 427

L532 442

L529 435

Z

M256 431

C252 415 251 409 253 408

C254 408 255 407 257 405

C259 403 260 397 258 394

C257 391 257 391 261 394

C263 396 266 397 266 397

C268 398 262 438 259 439

C259 440 257 436 256 431

Z

M135 433

C131 430 131 425 134 423

C139 419 145 422 145 428

C145 431 144 432 141 434

C138 435 138 435 135 433

Z

M19 429

C12 421 -1 402 0 401

C2 400 32 419 34 423

C37 428 33 434 27 434

C24 434 23 433 19 429

Z

M467 432

C465 429 464 426 466 423

C468 418 498 400 500 401

C501 403 484 428 478 432

C475 435 470 435 467 432

Z

M176 430

C171 429 167 428 167 428

C166 427 177 425 194 423

C203 421 204 421 205 423

C208 427 207 427 204 425

C197 423 190 424 187 430

C186 431 185 432 185 432

C185 432 181 431 176 430

Z

M315 430

C313 427 312 423 315 420

C319 414 346 398 348 399

C349 401 331 427 326 430

C322 433 318 432 315 430

Z

M41 428

C40 427 35 420 35 418

C35 418 37 419 38 420

C41 421 42 422 42 425

C43 429 43 429 41 428

Z

M444 426

C445 425 445 423 445 421

L445 419

L449 421

C452 422 452 422 450 423

C449 424 447 425 446 426

C444 427 444 427 444 426

Z

M375 424

C374 421 372 403 372 402

C373 402 375 404 377 407

L381 412

L378 416

C376 419 376 420 376 423

C377 426 376 427 375 424

Z

M359 424

C359 422 363 406 364 404

C364 403 365 405 367 411

C370 421 370 422 367 422

C366 422 364 423 362 424

C360 425 359 425 359 424

Z

M458 422

C457 422 456 421 457 421

C458 421 460 420 461 419

C465 418 465 418 463 421

C461 424 460 424 458 422

Z

M168 418

C172 415 186 405 189 404

C191 403 192 403 194 405

C197 408 203 410 206 409

L209 409

L206 411

C202 416 181 421 169 421

L165 421

L168 418

Z

M37 415

C31 412 14 401 12 398

C8 394 47 401 52 406

C55 409 54 413 52 416

C48 419 45 419 37 415

Z

M88 415

C88 412 85 407 82 406

C79 405 73 405 71 406

C69 407 69 407 69 406

C69 404 72 400 74 400

C75 400 76 401 78 402

C79 403 82 404 84 404

C88 404 90 405 95 408

C104 414 104 414 99 414

C96 414 94 414 93 416

C90 419 88 419 88 415

Z

M448 416

C443 410 446 405 457 402

C465 399 479 397 485 397

L490 397

L486 400

C477 408 459 418 454 418

C452 418 450 417 448 416

Z

M61 415

C59 414 58 413 58 411

C58 409 57 407 56 405

L53 401

L60 401

C67 401 67 401 66 403

C65 404 65 408 65 411

C65 414 65 417 64 417

C64 417 62 416 61 415

Z

M113 412

C102 406 94 400 94 398

C95 398 95 395 95 392

L95 387

L99 391

C103 395 104 396 107 396

C109 396 111 397 113 401

C118 406 123 417 122 417

C122 417 118 415 113 412

Z

M155 416

C155 414 164 400 169 394

C171 392 171 392 172 393

C174 396 179 398 183 398

C185 397 186 398 185 398

C183 401 155 419 155 416

Z

M298 415

C292 410 294 404 301 401

C306 399 322 396 332 395

L338 394

L336 396

C333 399 316 411 310 413

C303 416 300 417 298 415

Z

M396 413

C394 412 392 411 391 411

C390 411 389 411 388 411

C386 410 380 400 381 399

C382 399 397 407 399 408

C399 409 399 411 399 413

L399 416

L396 413

Z

M221 413

L218 411

L218 401

C219 388 224 365 226 366

C228 368 233 396 233 405

C233 410 233 411 230 413

C227 416 224 416 221 413

Z

M422 413

C422 409 419 404 416 403

C413 402 407 402 404 403

C402 404 391 396 391 395

C391 393 415 397 425 400

C431 402 434 404 434 408

C434 409 433 410 430 411

C428 412 426 413 425 414

C425 416 422 415 422 413

Z

M440 413

C439 412 438 411 438 409

C438 407 438 405 437 404

C436 403 436 402 436 401

C436 401 440 401 444 400

L451 400

L447 402

C443 404 442 407 442 411

C443 413 443 414 443 414

C443 414 441 413 440 413

Z

M128 411

C121 402 115 394 115 393

C115 393 116 392 117 391

C118 390 119 383 117 380

C116 377 117 377 120 380

C121 381 124 383 124 384

C126 385 129 396 130 406

C131 413 131 414 128 411

Z

M147 408

C147 399 152 380 154 378

C154 378 155 379 157 380

C159 382 161 382 164 382

C167 381 169 381 169 382

C169 385 149 413 147 413

C147 413 146 411 147 408

Z

M137 408

C135 399 133 392 133 388

C132 385 132 384 135 381

C140 377 140 373 137 368

C136 366 135 365 135 365

C135 364 137 365 140 366

L146 369

L146 375

C146 383 141 409 139 411

C139 412 138 411 137 408

Z

M213 406

C212 405 213 404 213 403

C214 402 214 402 214 404

C214 407 214 408 213 406

Z

M198 404

C194 401 194 398 198 390

C202 382 216 364 217 365

C219 367 213 394 210 401

C207 407 202 408 198 404

Z

M243 404

C240 402 236 390 234 376

C234 370 233 366 233 365

C235 364 248 381 252 390

C257 398 257 400 254 404

C251 406 247 407 243 404

Z

M270 400

C270 399 271 398 273 397

C276 395 276 396 273 400

C270 402 270 402 270 400

Z

M291 401

C289 399 290 398 294 398

C297 398 298 398 297 399

C296 399 295 400 294 401

C293 402 292 402 291 401

Z

M79 399

C77 397 77 396 77 388

C78 376 83 351 85 352

C85 353 89 368 91 377

C93 388 92 397 90 399

C87 402 82 402 79 399

Z

M47 396

C24 393 11 391 12 390

C13 389 46 384 57 383

L69 383

L71 386

C74 389 74 391 71 394

C69 397 69 397 59 397

C54 397 48 397 47 396

Z

M511 395

C510 393 509 391 509 390

C509 387 513 383 516 383

C519 383 523 387 523 390

C523 393 519 397 516 397

C515 397 513 396 511 395

Z

M454 394

C455 393 456 390 456 389

C456 387 457 386 459 385

C461 385 487 389 488 390

C489 391 459 396 455 396

C453 396 453 396 454 394

Z

M279 394

C278 393 278 393 279 391

C280 390 280 387 279 385

L279 381

L292 381

C304 382 335 386 337 388

C337 388 335 389 326 390

C303 394 282 396 279 394

Z

M361 394

C360 393 358 391 358 390

C356 383 364 378 369 383

C372 386 372 390 368 393

C365 395 364 395 361 394

Z

M429 394

C424 394 395 389 393 388

C392 388 391 388 391 387

C392 387 423 382 433 381

C444 380 444 380 446 382

C447 384 449 385 450 385

C454 386 454 389 450 393

C448 395 447 395 440 395

C436 395 431 394 429 394

Z

M176 391

C173 388 173 386 177 382

C183 375 209 359 209 362

C209 365 198 381 191 388

C186 393 185 394 182 394

C179 394 178 393 176 391

Z

M260 389

C254 382 239 361 241 361

C242 361 245 362 248 364

C263 371 277 383 277 387

C277 388 276 390 275 391

C273 393 272 394 269 394

C266 394 264 393 260 389

Z

M102 390

C98 387 94 370 92 357

L92 351

L94 353

C99 357 107 369 111 376

C115 384 116 387 113 390

C110 393 104 393 102 390

Z

M12 381

C14 379 32 367 38 365

C46 361 48 361 52 364

C54 367 55 371 52 374

C48 378 26 383 15 383

C11 383 11 383 12 381

Z

M450 381

C447 379 447 379 447 369

C448 360 452 336 454 335

C456 333 461 356 462 370

C462 379 462 379 459 381

C456 384 453 384 450 381

Z

M474 382

C464 380 464 381 465 375

L465 369

L469 373

C472 377 473 377 478 377

C482 377 483 378 486 380

L490 383

L484 383

C481 383 476 382 474 382

Z

M68 380

C67 380 63 379 61 379

L56 379

L59 374

C65 364 77 349 77 352

C77 359 72 381 71 381

C71 381 69 380 68 380

Z

M119 376

C112 368 100 350 101 348

C102 347 119 357 126 362

C131 366 135 369 135 371

C137 376 133 381 128 381

C125 381 123 380 119 376

Z

M320 379

C316 379 310 377 306 376

C299 374 299 374 299 371

C299 369 298 367 297 366

C295 362 296 361 302 361

C307 361 309 362 315 365

C321 368 329 374 336 379

L339 381

L333 381

C330 381 324 380 320 379

Z

M392 380

C394 377 407 368 414 365

L421 361

L421 365

C420 368 420 369 422 372

L425 376

L418 377

C409 380 399 381 395 381

C391 381 391 381 392 380

Z

M2 375

C6 368 13 357 19 351

C23 347 24 346 27 346

C32 346 35 349 35 353

C35 356 34 358 30 361

C27 364 22 367 19 369

C14 373 2 379 1 379

C0 379 1 377 2 375

Z

M493 376

L488 373

L488 368

C487 365 487 362 487 361

C485 357 493 366 496 372

C498 375 500 378 500 379

C500 379 498 379 493 376

Z

M158 376

C155 374 155 368 158 366

C162 362 190 356 197 357

C203 358 171 378 164 378

C162 378 159 377 158 376

Z

M279 375

C273 373 259 364 255 360

L252 357

L256 357

C266 357 289 362 293 366

C296 369 296 373 293 376

C290 379 286 379 279 375

Z

M340 373

C337 371 331 368 327 365

C315 358 313 354 321 354

C323 354 326 353 328 352

L331 350

L335 356

C340 362 349 376 348 376

C348 377 344 375 340 373

Z

M383 371

C389 361 401 345 403 346

C403 346 402 348 401 351

C398 355 399 357 401 361

L403 364

L401 366

C398 368 382 377 381 377

C380 377 381 374 383 371

Z

M439 375

C441 373 442 373 442 373

C444 376 443 377 440 377

L437 377

L439 375

Z

M150 372

C150 370 150 368 151 368

C152 368 152 372 151 374

C150 375 150 375 150 372

Z

M504 371

C500 367 499 365 501 365

C502 365 503 364 504 364

C505 363 506 362 506 362

C507 362 508 370 508 373

C508 375 507 375 504 371

Z

M524 369

C525 365 526 359 527 355

C528 349 529 348 530 348

C532 348 532 349 532 358

L532 368

L528 372

L524 376

L524 369

Z

M426 372

C423 369 423 365 427 358

C431 350 445 332 446 333

C448 335 443 362 439 369

C436 375 430 376 426 372

Z

M472 373

C470 371 467 363 465 352

C463 344 462 333 462 333

C464 333 478 351 482 359

C486 366 486 368 483 372

C480 374 476 375 472 373

Z

M513 363

C511 357 510 351 510 350

C510 348 510 348 513 349

C515 350 517 350 519 350

C521 349 522 349 522 351

C522 354 517 374 516 374

C516 374 514 369 513 363

Z

M350 366

C340 354 329 335 337 342

C340 346 343 346 348 345

C351 343 351 343 352 346

C354 352 357 373 356 373

C356 373 353 370 350 366

Z

M372 368

C373 359 375 351 377 344

C380 336 381 334 381 339

C381 342 384 347 387 349

C388 350 390 350 390 351

C391 351 379 367 375 370

L372 374

L372 368

Z

M364 371

C363 371 362 366 361 360

C358 347 356 331 357 331

C363 334 366 334 369 333

L372 331

L372 339

C371 346 366 368 365 371

C365 372 364 372 364 371

Z

M0 357

C0 349 0 348 2 348

C5 348 9 344 10 340

C10 335 11 335 14 338

C15 341 15 342 14 344

C13 348 6 359 3 364

L0 367

L0 357

Z

M56 364

C55 362 53 360 52 360

C50 359 49 358 49 358

C49 357 67 348 68 348

C68 349 67 350 66 352

C65 355 58 366 58 366

C57 366 57 365 56 364

Z

M140 363

C138 362 133 359 129 357

L122 353

L124 351

C125 349 126 348 126 347

C126 345 128 345 131 346

C134 346 134 346 134 351

C134 355 135 356 137 358

C139 360 140 361 146 361

C150 361 153 361 153 361

C153 362 149 365 147 365

C145 365 143 364 140 363

Z

M405 359

C402 356 402 354 406 350

C411 344 438 327 438 330

C438 333 427 349 420 356

C415 361 414 362 411 362

C408 362 407 361 405 359

Z

M493 361

C489 359 469 331 470 329

C472 328 500 345 504 350

C508 355 505 362 498 362

C496 362 494 362 493 361

Z

M39 354

C39 352 39 349 38 348

C37 347 37 346 38 346

C39 345 57 343 58 343

C58 344 47 353 42 356

L38 358

L39 354

Z

M141 357

C137 355 136 349 139 345

C142 343 148 342 162 344

C176 346 196 349 197 350

C198 351 179 354 165 356

C151 358 144 358 141 357

Z

M294 357

C284 356 254 351 253 350

C252 350 265 347 285 345

C303 342 309 342 312 345

C314 348 315 350 313 353

C313 355 308 358 305 358

C304 358 299 357 294 357

Z

M221 355

C220 354 219 353 219 351

C219 344 224 341 229 345

C236 351 229 361 221 355

Z

M113 350

C109 348 108 345 108 337

C110 325 114 302 116 302

C117 302 122 323 123 334

L124 345

L122 347

C119 350 116 351 113 350

Z

M318 350

C317 350 317 349 317 348

C317 347 316 345 315 344

C313 342 313 341 314 333

C315 324 320 304 321 303

C322 302 327 320 328 331

C330 343 329 346 327 349

C324 351 319 352 318 350

Z

M387 344

C385 343 385 341 385 338

C385 335 386 334 390 332

C398 328 429 323 428 326

C426 328 411 338 403 342

C395 347 389 347 387 344

Z

M504 341

C499 339 492 334 488 331

C481 326 481 325 483 325

C487 325 505 328 513 330

C517 331 521 333 522 334

C525 337 525 341 522 344

C519 347 514 347 504 341

Z

M0 337

L0 329

L4 329

L7 329

L7 335

C7 340 7 341 4 343

C3 344 1 345 1 345

C0 345 0 341 0 337

Z

M528 344

C528 344 528 342 528 340

C528 338 528 336 526 333

C525 331 524 330 524 329

C524 329 526 329 528 329

L532 329

L532 337

C532 345 532 346 528 344

Z

M83 343

C78 342 76 335 80 332

C82 330 82 330 82 334

C82 336 83 339 84 340

C86 343 86 344 83 343

Z

M186 342

C174 341 162 338 159 335

C153 331 156 322 164 322

C168 322 187 333 196 340

C200 344 200 344 186 342

Z

M252 343

C252 340 282 322 287 322

C291 322 295 326 295 329

C295 334 293 335 285 338

C277 341 252 345 252 343

Z

M18 341

C18 339 18 339 20 340

C23 340 29 338 31 335

L34 332

L45 334

C57 336 58 337 56 337

C54 338 31 342 24 343

C18 343 18 343 18 341

Z

M89 340

C86 338 85 335 87 331

C88 326 98 312 103 305

L108 301

L108 305

C108 310 106 323 103 331

C100 341 95 344 89 340

Z

M134 340

C130 336 124 315 124 305

L124 301

L129 306

C134 312 144 327 146 332

C147 334 147 335 146 337

C145 339 143 340 142 340

C141 341 139 341 138 341

C137 342 135 341 134 340

Z

M339 340

C335 336 329 313 329 304

L329 301

L334 306

C342 315 352 331 352 336

C352 336 351 338 350 340

C346 343 342 343 339 340

Z

M154 340

L150 340

L150 335

C150 332 150 330 150 330

C150 330 151 332 152 333

C153 335 155 338 157 338

C160 340 161 341 159 341

C159 341 156 340 154 340

Z

M127 338

C127 336 127 336 128 337

C129 339 129 340 128 340

C127 340 127 339 127 338

Z

M294 340

C294 339 295 338 297 336

C299 333 300 330 298 324

C297 322 297 321 299 318

C303 312 312 301 313 301

C315 301 308 337 305 338

C304 339 294 340 294 340

Z

M199 334

C190 329 177 320 175 317

C172 312 176 306 182 306

C185 306 186 307 191 312

C199 321 211 339 208 339

C208 339 204 337 199 334

Z

M242 338

C242 337 250 324 254 318

C263 307 268 304 274 307

C278 311 277 316 272 321

C267 325 256 333 249 336

C243 339 242 339 242 338

Z

M16 334

C14 331 14 331 14 320

C14 314 13 313 11 310

C9 308 8 306 7 301

L7 295

L10 297

C17 304 30 324 30 329

C30 335 21 338 16 334

Z

M210 328

C203 319 195 305 195 302

C195 296 203 292 208 297

C210 299 215 311 216 320

C218 333 218 335 217 335

C216 335 213 332 210 328

Z

M224 330

C221 319 219 309 218 300

C218 291 218 290 220 288

C223 285 228 285 231 288

C233 290 233 291 233 300

C232 309 229 327 226 333

C225 335 225 335 224 330

Z

M233 334

C233 330 236 312 238 307

C242 296 245 293 251 295

C258 297 258 302 251 313

C243 326 233 338 233 334

Z

M376 332

C376 329 376 329 379 329

C381 329 381 329 380 330

C379 331 378 332 377 333

C376 334 376 334 376 332

Z

M362 330

C359 329 354 324 349 317

C343 309 337 298 337 297

C338 297 350 303 358 308

C363 312 364 313 363 315

C361 319 364 327 368 328

C369 329 369 329 369 329

C368 330 364 331 362 330

Z

M47 329

C37 328 33 327 32 324

C31 321 31 321 36 325

C41 328 44 329 48 326

L52 324

L55 327

L59 330

L54 330

C52 330 48 330 47 329

Z

M67 328

C62 322 66 317 80 308

C88 302 99 297 100 297

C101 299 84 324 78 328

C75 331 70 331 67 328

Z

M0 319

L0 311

L3 311

C7 311 11 315 11 318

C11 322 8 325 4 326

L0 326

L0 319

Z

M148 322

C141 314 131 297 133 297

C134 297 151 306 157 311

C167 318 167 319 162 319

C160 319 158 320 155 323

C153 324 152 326 152 326

C152 326 150 324 148 322

Z

M371 325

C366 323 364 317 368 313

C371 311 371 311 381 311

C392 312 424 317 426 318

C429 320 376 327 371 325

Z

M526 325

C508 324 481 319 483 318

C486 317 523 311 530 311

C532 311 532 311 532 319

C532 324 532 326 531 326

C530 326 528 326 526 325

Z

M39 324

C38 323 34 319 31 315

C25 308 16 294 16 292

C16 291 24 294 35 301

C50 312 53 316 49 321

C46 325 43 325 39 324

Z

M450 323

C447 320 447 314 451 312

C456 310 461 313 461 319

C461 324 453 327 450 323

Z

M57 321

C56 320 55 319 55 318

C55 318 62 315 63 316

C63 316 61 322 60 322

C60 322 58 321 57 321

Z

M277 321

C277 321 278 320 279 319

C279 317 280 315 280 314

C280 312 281 311 285 308

C292 304 305 297 305 298

C305 299 298 310 295 314

C293 318 292 318 288 319

C285 319 282 319 280 320

C278 321 277 322 277 321

Z

M169 318

C167 315 166 314 169 315

C170 315 174 321 172 321

C172 321 170 320 169 318

Z

M52 312

C49 308 50 308 53 309

C55 310 57 311 59 312

L61 312

L59 313

C55 314 53 314 52 312

Z

M421 311

C405 309 390 306 387 303

C384 300 384 295 388 292

C391 289 393 289 400 293

C406 295 423 307 426 310

C428 312 428 312 426 312

C425 312 422 312 421 311

Z

M481 311

C481 309 500 297 509 293

C516 289 518 289 521 292

C523 294 524 295 524 298

C524 302 521 304 513 307

C502 310 481 313 481 311

Z

M163 307

C155 303 144 295 143 294

C143 293 145 293 151 293

C164 294 184 300 184 302

C184 303 183 303 183 302

C180 302 174 305 172 308

C171 310 169 311 169 311

C169 311 166 309 163 307

Z

M58 308

C52 306 41 299 33 293

C26 288 26 287 28 287

C37 286 66 293 68 297

C72 304 66 310 58 308

Z

M386 308

C385 308 381 308 376 308

L368 308

L359 302

C355 299 350 296 349 295

L348 293

L355 293

C364 294 377 297 379 298

C380 299 381 300 381 301

C381 303 383 305 388 308

C389 309 389 309 388 309

C387 309 386 309 386 308

Z

M0 303

C0 297 1 298 2 305

C3 307 3 308 2 308

C0 308 0 307 0 303

Z

M529 305

C529 303 530 300 531 299

C532 296 532 296 532 302

C532 307 532 308 530 308

C528 308 528 308 529 305

Z

M259 305

C260 304 260 302 260 301

C260 298 263 297 277 295

C289 293 295 292 295 294

C294 294 291 297 286 300

L278 306

L274 304

C270 301 269 301 263 304

C258 307 258 307 259 305

Z

M427 302

C417 296 406 288 404 285

C401 279 407 273 413 275

C415 275 419 278 422 283

C428 289 438 304 438 306

C438 308 435 307 427 302

Z

M471 306

C471 305 479 292 484 285

C490 278 494 274 497 274

C503 274 507 280 505 285

C503 289 490 298 478 304

C472 307 471 307 471 306

Z

M190 305

C190 305 189 303 188 301

L185 297

L188 297

C191 297 191 297 191 302

C191 304 191 306 191 306

C190 306 190 306 190 305

Z

M73 301

C73 299 72 297 72 296

C71 294 72 294 78 293

C90 292 91 293 82 299

C78 302 74 305 74 305

C73 305 73 303 73 301

Z

M443 301

C434 291 424 275 424 270

C424 265 427 263 432 263

C437 264 439 266 442 277

C445 285 447 303 447 304

C447 304 445 303 443 301

Z

M463 298

C464 284 468 269 472 265

C476 260 485 264 485 270

C485 274 475 290 466 300

L462 305

L463 298

Z

M453 298

C450 289 447 272 447 265

C447 259 447 258 449 256

C452 253 457 253 460 256

C462 258 462 259 462 267

C461 276 457 299 455 302

C454 303 454 302 453 298

Z

M211 294

L208 291

L212 286

C216 282 217 283 215 287

C214 288 214 291 214 293

C214 295 214 297 214 297

C214 297 212 295 211 294

Z

M236 289

C235 287 233 284 233 284

C233 283 234 282 235 281

C237 279 238 279 248 279

C258 280 288 284 292 286

C294 287 292 287 285 288

C267 292 255 293 253 292

C250 291 244 291 241 292

C239 295 238 294 236 289

Z

M111 291

C110 289 109 287 109 286

C109 283 113 279 116 279

C119 279 123 283 123 286

C123 289 119 293 116 293

C115 293 113 292 111 291

Z

M167 290

C158 289 150 288 147 287

C145 287 143 286 144 286

C145 285 174 280 185 279

C192 279 193 279 193 280

C193 283 199 289 202 289

C204 289 203 291 199 292

C194 294 185 293 167 290

Z

M317 291

C314 289 314 285 315 282

C317 281 318 280 321 280

C325 280 328 283 328 287

C328 292 320 295 317 291

Z

M363 289

C356 288 349 287 349 287

C343 287 369 282 386 280

C399 279 399 279 399 281

C399 282 400 285 401 287

L403 290

L399 288

C394 286 389 287 385 290

C382 293 380 293 363 289

Z

M62 287

C50 285 27 281 26 281

C25 279 69 273 78 273

C86 273 91 280 86 285

C84 288 77 288 62 287

Z

M0 281

C0 274 1 272 4 276

C7 278 6 283 4 285

C1 288 0 287 0 281

Z

M527 285

C523 281 526 274 530 274

C532 274 532 275 532 281

C532 286 532 287 530 287

C529 287 528 286 527 285

Z

M199 284

C198 283 197 282 197 281

C197 280 197 279 197 279

C196 275 210 253 217 247

L219 245

L219 249

C219 260 213 280 209 284

C206 287 202 287 199 284

Z

M219 281

C220 280 220 277 220 274

C221 266 226 246 227 246

C228 246 232 264 234 272

C234 276 234 277 232 279

C229 282 219 284 219 281

Z

M143 279

C143 277 167 261 173 260

C175 259 175 259 174 262

C172 265 172 269 173 272

C174 273 174 274 174 275

C172 276 143 280 143 279

Z

M280 278

C266 276 254 272 252 269

C250 265 252 260 258 258

C262 257 281 268 293 277

L296 280

L292 280

C290 280 284 279 280 278

Z

M348 279

C348 278 364 267 373 262

C383 257 387 257 389 261

C393 266 391 270 384 273

C377 276 348 281 348 279

Z

M246 276

L240 276

L239 272

C237 266 235 252 235 248

C235 244 236 244 243 254

C248 260 249 261 248 263

C246 267 248 273 254 275

C258 277 258 277 246 276

Z

M296 271

C280 263 270 254 270 250

C270 244 277 240 282 244

C285 246 292 253 297 261

C301 267 305 275 305 276

C305 276 301 274 296 271

Z

M391 274

C391 273 393 272 393 272

C393 272 394 273 393 274

C393 275 392 276 391 276

C389 276 389 276 391 274

Z

M399 275

C398 274 404 250 405 250

C406 250 410 267 410 270

C410 270 409 271 408 271

C407 271 405 272 403 274

C400 276 400 276 399 275

Z

M90 271

C80 265 73 260 73 258

C73 256 70 251 67 250

C66 249 65 248 65 248

C65 245 70 242 73 242

C75 242 76 243 78 245

C79 247 81 249 82 250

C84 250 87 253 89 256

C92 261 100 274 100 275

C100 276 98 275 90 271

Z

M134 271

C137 265 143 257 149 249

C155 243 157 241 154 246

C153 249 154 255 156 259

C158 261 158 261 153 264

C148 268 134 275 133 275

C132 275 133 273 134 271

Z

M191 275

C191 274 192 274 193 274

C193 273 194 273 193 274

C193 275 191 275 191 275

Z

M340 270

C345 261 350 253 356 248

C362 241 365 241 369 244

C373 247 373 252 369 256

C362 262 342 275 338 275

C337 275 338 273 340 270

Z

M418 273

C416 271 415 269 414 263

C413 254 412 249 413 249

C414 249 419 254 422 258

L424 261

L422 264

C420 266 420 268 420 271

C421 273 421 275 421 275

C420 275 419 274 418 273

Z

M28 272

C31 268 50 256 56 254

C61 252 64 252 67 255

C70 257 69 262 67 265

C64 267 49 271 37 273

C25 274 25 274 28 272

Z

M178 272

C175 269 175 264 180 260

C186 254 209 240 211 241

C212 243 196 266 190 271

C186 275 181 275 178 272

Z

M489 272

C489 272 488 271 489 270

C490 267 486 262 482 260

C480 259 478 258 478 257

C478 257 478 256 479 256

C481 256 501 269 501 270

C501 270 499 271 497 271

C495 271 493 272 492 272

C491 273 490 273 489 272

Z

M309 268

C293 249 288 237 293 233

C296 230 302 231 304 233

C308 237 314 262 313 269

L313 272

L309 268

Z

M329 269

C329 260 335 237 338 233

C341 230 347 230 350 234

C351 235 352 237 352 238

C352 242 341 259 333 269

L329 273

L329 269

Z

M103 266

C101 264 97 259 95 256

L92 251

L94 249

C97 246 99 240 98 236

C98 233 98 233 99 234

C103 239 109 261 108 268

L108 271

L103 266

Z

M124 264

C125 252 131 232 134 232

C134 232 135 234 136 235

C137 238 139 239 141 240

C143 241 145 242 145 242

C145 245 132 264 126 269

L124 272

L124 264

Z

M321 270

C318 262 314 243 314 233

C314 227 314 226 316 224

C319 221 324 221 327 225

C329 227 329 227 329 235

C327 249 322 273 321 270

Z

M67 270

C67 269 68 268 69 268

C72 266 72 266 74 267

C77 269 76 270 72 270

C69 270 67 270 67 270

Z

M114 263

C113 260 111 253 111 250

C109 244 109 243 111 242

C116 241 119 239 121 236

C122 233 122 232 121 229

C119 224 119 223 122 226

C124 229 124 229 123 239

C122 250 117 270 116 270

C116 270 114 267 114 263

Z

M508 266

C500 262 486 253 486 252

C486 251 487 251 489 251

C493 251 496 250 497 246

L499 244

L503 249

C508 256 515 268 515 269

C515 269 512 268 508 266

Z

M16 268

C16 266 27 249 33 242

C40 235 46 234 50 240

C52 244 50 248 43 253

C33 262 16 271 16 268

Z

M7 260

C9 246 13 231 17 227

C21 222 30 226 30 232

C30 237 17 257 9 264

L7 267

L7 260

Z

M519 262

C516 258 508 247 506 243

C505 242 506 242 508 243

C511 243 513 243 515 242

C517 241 519 240 519 240

C520 240 525 265 524 266

C523 266 522 264 519 262

Z

M439 262

C437 260 435 259 432 259

C429 259 428 259 425 252

C422 249 421 246 421 245

C422 245 438 253 441 255

C443 256 443 258 443 261

L443 265

L439 262

Z

M530 260

C528 253 524 235 524 231

C524 229 524 229 526 230

C527 230 529 230 530 231

C532 231 532 231 532 248

C532 257 532 265 532 265

C531 265 530 263 530 260

Z

M392 259

L390 256

L393 252

C397 247 398 248 396 258

C396 261 395 263 395 263

C395 263 393 261 392 259

Z

M0 247

L0 232

L4 230

L7 228

L7 234

C6 240 2 257 1 260

C0 262 0 257 0 247

Z

M465 258

C463 251 456 249 447 251

C446 252 444 251 439 247

C435 244 432 242 432 241

C432 239 457 243 467 247

C476 250 478 257 471 260

C467 263 466 262 465 258

Z

M159 255

C154 249 158 244 174 241

C180 239 188 238 193 237

L201 237

L199 239

C196 242 183 250 175 254

C166 259 162 259 159 255

Z

M265 256

C262 255 257 255 253 256

C252 257 242 242 243 241

C244 241 246 242 249 244

C263 251 276 261 265 256

Z

M373 257

C373 257 374 255 375 253

C377 250 385 245 388 245

C389 245 388 247 386 250

C384 254 383 255 381 255

C380 255 378 256 376 257

C374 257 373 258 373 257

Z

M52 251

C52 250 53 249 54 247

C56 241 53 235 46 233

C43 232 42 232 38 234

L33 237

L34 233

C34 228 33 225 29 223

C24 220 18 220 14 224

L11 227

L11 224

C11 222 10 219 9 217

C8 214 7 212 7 212

C7 212 9 213 11 214

C16 216 26 216 32 213

C34 212 36 211 36 212

C36 212 35 214 34 216

C31 221 32 224 36 228

C40 232 45 232 50 228

L54 226

L53 229

C53 234 55 238 59 241

C61 242 62 243 61 244

C61 245 61 246 60 247

C60 248 52 252 52 251

Z

M83 246

C80 244 80 244 80 235

C81 222 86 198 88 200

C90 202 95 228 95 237

C95 243 95 244 92 246

C89 249 86 249 83 246

Z

M474 246

C473 244 473 244 474 245

C475 245 476 246 476 247

C477 249 477 248 474 246

Z

M482 246

C480 243 479 238 481 227

C483 216 487 199 488 200

C491 202 497 239 495 243

C493 248 486 250 482 246

Z

M259 242

C256 240 254 238 254 237

C254 237 269 238 272 239

C272 239 272 240 269 243

C267 244 265 246 265 246

C264 246 262 244 259 242

Z

M374 243

C373 242 373 241 375 241

C378 240 379 241 377 243

C376 244 375 244 374 243

Z

M401 239

C396 235 398 227 405 227

C408 227 412 231 412 234

C412 237 408 241 405 241

C404 241 402 240 401 239

Z

M473 241

C473 239 475 235 476 235

C477 235 477 236 477 238

C477 240 477 241 475 241

C474 241 473 241 473 241

Z

M462 239

C461 239 459 237 458 235

C456 232 457 229 462 220

C466 214 478 199 479 199

C480 199 480 203 479 212

C475 233 470 242 462 239

Z

M509 239

C504 238 502 235 499 222

C497 214 495 199 496 199

C497 199 503 206 508 213

C514 221 518 229 518 233

C518 237 513 240 509 239

Z

M59 237

C56 233 56 231 61 223

C66 214 78 197 80 198

C81 199 77 219 75 228

C73 233 71 236 70 237

C66 240 62 239 59 237

Z

M75 238

C74 238 75 237 75 236

C76 235 76 235 76 237

C76 239 75 240 75 238

Z

M106 238

C104 236 103 234 100 226

C98 219 95 199 96 198

C96 198 97 199 99 201

C111 215 118 227 118 232

C118 237 110 241 106 238

Z

M143 237

C142 237 140 235 139 234

C138 231 138 231 139 228

C141 224 143 223 149 223

C159 223 197 228 198 230

C199 231 188 233 171 235

C155 238 146 238 143 237

Z

M356 237

C355 237 355 236 355 235

C355 234 354 233 353 232

C352 231 352 230 352 230

C352 229 358 230 365 231

C372 232 378 234 377 234

C377 235 359 238 357 238

C357 238 356 238 356 237

Z

M442 236

C437 235 433 234 433 234

C432 234 437 233 443 232

C448 231 453 230 453 230

C454 230 454 232 454 234

C455 239 455 239 442 236

Z

M222 235

C221 233 220 231 220 230

C220 227 224 223 227 223

C230 223 234 227 234 230

C234 233 230 237 227 237

C225 237 223 236 222 235

Z

M279 235

C276 234 269 233 264 232

C259 232 255 230 256 230

C257 229 289 224 300 223

L310 223

L310 228

C310 231 309 233 309 233

C309 233 308 232 306 230

C304 228 302 227 300 227

C295 227 290 230 288 233

C286 236 286 236 279 235

Z

M332 231

C332 227 332 227 335 227

C337 227 338 227 338 227

C338 228 337 229 335 231

L332 234

L332 231

Z

M127 232

C127 232 127 231 128 231

C129 230 129 230 129 231

C129 231 129 232 128 233

C127 233 127 233 127 232

Z

M0 220

C0 216 0 212 1 212

C3 212 7 218 7 221

C7 223 3 228 1 228

C0 228 0 225 0 220

Z

M439 226

C436 223 436 219 440 214

C446 208 469 194 471 195

C473 196 461 214 454 221

C447 229 443 230 439 226

Z

M526 226

C521 223 503 197 504 195

C505 195 521 203 527 208

L532 211

L532 220

C532 227 532 228 530 228

C529 228 527 227 526 226

Z

M38 225

C35 221 36 217 41 213

C48 207 68 194 72 194

C74 194 60 215 53 222

C49 226 47 227 44 227

C42 227 40 226 38 225

Z

M122 221

C115 214 104 198 104 195

C104 193 119 201 126 206

C134 212 139 217 139 220

C139 221 138 223 137 224

C135 226 134 227 131 227

C128 227 127 226 122 221

Z

M360 225

C356 225 350 223 347 222

C342 221 341 220 341 218

C341 217 341 214 341 211

L341 206

L344 210

C348 215 351 217 357 215

C361 214 361 214 368 219

C379 226 379 227 373 227

C370 227 364 226 360 225

Z

M431 227

C431 226 432 226 433 226

C433 225 434 225 434 226

C434 227 433 227 433 227

C432 227 431 227 431 227

Z

M193 223

C179 222 161 217 159 214

C158 213 158 212 159 211

C160 209 161 207 161 206

C162 201 165 201 176 207

C185 211 200 221 200 223

C200 224 200 224 193 223

Z

M254 223

C254 222 267 212 275 208

C280 206 284 204 288 204

C293 203 294 203 295 205

C299 211 296 215 287 218

C276 221 254 225 254 223

Z

M337 223

C338 223 338 223 339 223

C339 224 338 224 337 224

C336 224 336 224 337 223

Z

M384 221

C381 220 376 217 372 214

C364 210 364 210 364 205

C364 203 363 200 363 199

C362 197 362 197 364 199

C367 202 372 204 375 204

C377 204 379 205 382 210

C387 218 389 223 388 223

C388 223 386 222 384 221

Z

M421 222

C421 220 425 215 427 215

C428 215 431 214 433 213

L437 211

L435 214

C434 216 431 218 428 220

C422 223 421 223 421 222

Z

M326 219

C323 217 323 217 323 211

C323 205 325 192 327 184

C328 182 328 178 329 176

C330 172 330 172 331 173

C333 177 337 197 338 207

L338 217

L336 219

C332 222 330 222 326 219

Z

M140 215

L138 211

L143 213

C146 214 150 215 152 215

C153 215 155 215 155 216

C155 216 156 217 158 218

C160 220 160 220 152 220

L143 220

L140 215

Z

M296 219

C296 219 297 218 298 216

C300 213 301 213 303 215

C308 218 314 216 317 211

L319 208

L319 211

C319 212 319 214 320 216

C320 217 320 218 317 219

C314 219 296 220 296 219

Z

M202 215

C186 207 176 198 176 194

C176 190 180 186 183 186

C186 186 190 189 190 191

C190 192 191 193 193 193

C198 196 213 219 210 219

C209 219 206 217 202 215

Z

M246 213

C250 206 257 197 261 192

C264 189 266 188 269 188

C272 187 275 187 275 187

C275 188 276 191 276 194

L275 200

L269 205

C261 210 248 218 245 219

C243 219 243 219 246 213

Z

M392 214

C389 212 386 207 385 205

C382 201 382 201 384 198

C386 195 385 189 382 187

C379 185 381 184 386 186

L392 188

L394 197

C396 206 398 219 397 219

C396 219 394 217 392 214

Z

M413 214

C413 207 414 206 416 211

C418 214 418 214 416 217

C415 218 413 219 413 219

C413 219 413 217 413 214

Z

M403 212

C401 204 399 194 399 194

C399 193 402 194 405 194

C410 195 411 196 411 197

C410 198 409 203 408 208

C407 214 405 218 405 218

C405 218 404 215 403 212

Z

M215 212

C213 209 209 205 207 201

L202 195

L205 192

C208 190 209 188 209 183

L210 177

L212 182

C215 188 219 207 219 212

L219 216

L215 212

Z

M235 213

C235 208 238 193 240 186

C243 177 245 175 250 175

C254 175 256 177 257 181

C259 184 250 199 238 214

L235 217

L235 213

Z

M224 203

C220 186 220 186 223 186

C228 185 232 180 232 176

C232 174 232 172 231 171

C229 168 230 168 233 170

L235 172

L234 182

C233 194 228 214 227 214

C227 214 225 209 224 203

Z

M8 208

L1 204

L0 198

C0 192 0 192 2 192

C3 193 6 193 9 194

C22 197 27 201 25 207

C24 210 20 212 17 212

C16 212 12 210 8 208

Z

M302 210

C299 207 299 204 303 197

C308 187 323 168 323 172

C323 173 322 178 322 183

C320 196 316 209 313 210

C309 213 305 212 302 210

Z

M348 211

C345 208 340 192 339 176

L338 171

L343 176

C352 185 361 200 361 205

C361 211 353 214 348 211

Z

M421 210

C417 207 417 202 420 199

C423 197 436 193 445 192

C455 190 461 190 461 191

C461 192 444 204 436 208

C426 213 424 213 421 210

Z

M29 206

C29 202 29 200 28 199

C25 196 26 195 32 195

C35 195 39 194 42 193

C44 192 50 191 54 190

L62 190

L59 192

C52 198 38 207 31 210

C28 211 28 211 29 206

Z

M138 207

C134 204 126 200 122 197

C114 191 114 190 116 190

C123 189 151 195 155 199

C158 201 158 207 155 209

C152 212 147 211 138 207

Z

M524 199

C520 196 516 192 515 192

C513 190 512 190 527 192

L532 192

L532 198

C532 201 532 204 532 204

C532 204 528 202 524 199

Z

M172 200

C170 200 167 199 165 199

C161 199 160 198 158 197

L156 194

L163 194

L171 194

L173 198

C175 201 175 201 172 200

Z

M284 200

C283 200 281 198 281 197

C277 192 281 187 295 177

C306 170 314 167 314 168

C314 172 296 197 291 199

C288 201 287 201 284 200

Z

M370 200

C365 197 347 172 347 168

C347 167 349 168 354 171

C368 178 379 186 381 191

C383 194 381 199 377 200

C373 201 373 201 370 200

Z

M416 196

C416 195 417 194 417 194

C418 194 420 194 420 193

C421 193 422 193 422 194

C422 195 421 195 421 195

C420 195 419 196 418 197

C416 198 416 198 416 196

Z

M14 189

C7 189 2 188 1 187

C1 187 0 186 0 184

L0 180

L8 179

C19 177 37 176 39 177

C44 179 46 185 42 189

C40 191 39 191 32 191

C28 191 20 190 14 189

Z

M156 190

C145 189 116 184 115 183

C114 183 117 182 127 181

C142 178 160 176 166 176

C171 176 172 176 174 178

C178 183 175 190 168 190

C166 191 160 190 156 190

Z

M193 189

C191 187 191 186 191 180

C191 172 195 150 197 145

C199 142 199 142 201 153

C207 174 207 186 204 189

C201 192 195 192 193 189

Z

M402 189

C400 187 400 186 402 183

C403 182 404 180 404 179

C404 176 405 176 417 177

C428 178 459 183 460 184

C461 184 458 185 448 187

C433 189 416 191 409 191

C405 191 403 191 402 189

Z

M484 189

C480 186 480 182 483 179

C487 175 494 178 494 184

C494 190 488 193 484 189

Z

M83 188

C80 186 80 181 84 178

C89 174 94 177 94 184

C94 187 91 190 88 190

C86 190 84 189 83 188

Z

M522 186

C519 185 516 184 516 184

C515 183 518 183 522 182

C526 181 530 181 531 180

C532 180 532 181 532 184

C532 187 532 188 522 186

Z

M48 184

C46 181 47 181 53 181

C60 182 61 184 56 184

C53 185 51 185 50 186

C49 186 48 185 48 184

Z

M266 184

C261 183 260 177 262 173

C263 171 272 168 283 166

C291 164 304 163 304 163

C304 165 287 176 279 180

C270 185 269 185 266 184

Z

M382 181

C374 176 357 165 357 163

C357 163 370 164 379 166

C389 168 398 171 399 173

C401 176 400 181 398 182

C395 186 392 185 382 181

Z

M185 182

C185 181 185 180 186 180

C187 179 187 179 187 181

C187 183 186 184 185 182

Z

M217 181

C212 178 208 163 207 148

L206 141

L209 144

C215 151 224 163 226 169

C230 176 229 179 225 181

C221 183 220 183 217 181

Z

M177 178

C176 176 174 174 172 174

C170 173 169 172 169 172

C169 167 189 140 190 142

C192 144 186 170 183 177

C181 181 180 182 177 178

Z

M51 176

C47 175 43 175 41 174

C38 174 35 173 33 173

C27 172 27 171 29 167

C30 164 30 163 29 160

C28 157 27 155 27 155

C29 154 61 174 61 176

C61 177 60 177 51 176

Z

M116 175

C119 172 137 160 143 157

C152 154 157 156 157 162

C157 167 154 169 147 172

C141 173 128 176 120 176

L114 177

L116 175

Z

M238 176

C238 175 238 174 239 174

C240 174 240 174 240 175

C240 175 240 176 239 177

C238 177 238 176 238 176

Z

M444 175

C432 173 422 170 420 168

C418 166 418 166 420 163

C421 162 422 160 422 158

C422 153 434 157 450 168

C462 176 463 177 456 177

C454 177 448 176 444 175

Z

M514 176

C515 176 517 175 519 175

C524 174 528 170 528 167

C528 167 529 166 530 165

C532 164 532 164 532 170

L532 176

L527 176

C519 177 514 177 514 176

Z

M0 169

L0 163

L4 165

C7 167 8 167 11 166

C15 164 18 162 19 159

L21 156

L23 158

C26 160 26 165 23 168

C22 170 6 175 2 175

C0 175 0 174 0 169

Z

M416 173

C416 173 415 171 414 170

C412 167 413 166 415 169

C416 170 418 171 420 172

C422 174 422 174 420 174

C419 174 417 174 416 173

Z

M254 172

C249 170 251 168 260 167

C264 166 265 166 264 167

C262 168 260 169 259 170

C257 172 256 173 254 172

Z

M402 172

C401 169 408 169 410 172

C411 173 411 173 407 173

C405 173 403 173 402 172

Z

M462 168

C453 164 442 156 439 152

C434 147 438 140 445 140

C448 140 449 141 453 145

C460 153 474 173 471 173

C471 173 467 171 462 168

Z

M504 172

C504 172 505 170 505 169

C507 167 507 167 508 169

C508 170 509 171 508 171

C506 172 504 173 504 172

Z

M62 168

C55 164 46 158 41 154

C39 152 38 151 39 150

C39 149 40 146 40 144

C40 140 41 139 44 139

C47 139 52 142 59 151

C63 157 71 170 71 171

C71 173 70 172 62 168

Z

M104 170

C106 166 116 151 122 145

C127 140 128 139 131 139

C137 139 141 145 138 150

C136 153 122 163 113 168

C104 173 104 173 104 170

Z

M162 172

C162 171 163 171 164 171

C164 170 165 170 165 171

C165 172 164 172 164 172

C163 172 162 172 162 172

Z

M514 171

C511 170 510 166 510 158

C511 146 516 123 518 123

C519 123 524 145 525 155

C526 166 526 168 522 170

C519 172 518 172 514 171

Z

M232 164

C225 157 213 139 215 138

C216 138 229 144 235 149

C239 151 239 152 239 156

C239 162 241 165 246 167

C248 167 249 169 246 170

C241 172 238 171 232 164

Z

M160 167

C162 163 162 160 159 156

C158 154 157 153 157 153

C157 151 181 137 182 138

C183 140 168 161 162 167

L159 170

L160 167

Z

M74 163

C69 156 62 146 59 140

C57 136 57 133 61 129

C62 127 64 127 66 128

C70 129 72 131 74 136

C77 144 81 169 80 169

C79 169 77 166 74 163

Z

M96 164

C97 148 102 133 105 130

C107 127 111 127 114 129

C119 131 119 135 114 145

C109 153 101 164 97 167

L95 169

L96 164

Z

M476 165

C470 159 465 152 468 154

C469 154 472 154 474 154

L478 155

L479 160

C481 169 480 170 476 165

Z

M495 168

C495 168 496 167 497 167

C498 166 498 166 498 167

C497 169 495 170 495 168

Z

M487 166

C486 162 486 162 488 163

C489 164 489 167 488 167

C488 168 487 167 487 166

Z

M86 162

C83 152 81 142 80 132

C80 124 80 123 82 121

C84 119 90 118 93 121

C95 122 95 123 95 133

C94 143 90 164 88 166

C87 167 87 165 86 162

Z

M245 162

C241 158 241 154 245 151

C248 149 248 149 261 150

C274 151 303 155 304 156

C305 157 272 162 256 164

C247 164 247 164 245 162

Z

M400 163

C384 162 357 157 357 156

C358 155 393 150 403 149

C413 149 414 149 416 151

C420 154 420 159 416 162

C414 164 410 164 400 163

Z

M3 160

L0 157

L0 143

C0 135 0 129 0 129

C1 129 11 143 14 148

C17 154 17 158 13 161

C10 164 6 164 3 160

Z

M326 161

C323 159 324 154 326 152

C328 149 333 150 335 152

C338 154 337 159 335 161

C333 164 328 163 326 161

Z

M489 161

C488 159 487 157 487 156

C487 151 500 131 507 124

L510 122

L510 125

C510 135 504 157 500 161

C497 164 493 164 489 161

Z

M433 154

C430 153 430 152 430 149

C430 148 430 146 430 146

C431 146 432 148 433 151

C435 153 436 155 436 155

C436 155 434 154 433 154

Z

M140 152

C143 146 143 145 142 142

C141 140 140 139 140 138

C142 137 169 133 171 134

C173 135 151 150 143 153

C140 154 140 154 140 152

Z

M530 148

C527 139 525 122 526 122

C527 122 528 123 529 125

C532 128 532 129 532 141

C532 148 532 154 532 154

C531 154 531 151 530 148

Z

M420 150

C419 148 417 147 415 146

C413 146 411 145 411 145

C411 145 412 140 413 135

C415 122 418 110 419 111

C421 112 425 133 426 143

C426 148 427 152 427 152

C427 152 426 152 424 152

C423 153 422 152 420 150

Z

M483 152

C483 151 483 150 484 150

C485 149 485 150 485 150

C485 151 485 152 484 153

C483 153 483 152 483 152

Z

M18 151

C17 149 19 149 20 150

C21 151 21 152 20 152

C20 152 19 152 18 151

Z

M20 145

C12 137 1 120 2 118

C3 118 16 125 23 129

C31 135 37 141 37 144

C37 148 34 151 29 151

C26 151 25 150 20 145

Z

M469 149

C468 148 467 147 467 144

C467 140 469 138 479 131

C484 127 500 118 501 118

C504 118 490 139 483 147

C479 150 478 151 475 151

C473 151 470 150 469 149

Z

M289 148

C277 147 266 143 263 141

C260 138 260 133 264 130

C265 129 267 128 268 128

C272 128 298 143 303 148

C304 150 304 150 301 150

C299 150 293 149 289 148

Z

M359 148

C364 142 385 130 392 128

C396 128 400 131 400 135

C400 140 398 142 390 144

C383 147 364 150 359 150

C357 150 357 150 359 148

Z

M238 144

C232 140 225 135 225 134

C225 133 241 135 249 136

C254 138 256 139 258 141

C260 143 262 145 263 146

C265 146 262 147 253 147

C243 147 241 146 238 144

Z

M460 143

C459 141 458 139 458 139

C459 138 466 135 467 135

C467 135 466 136 465 138

C464 139 463 142 463 144

L462 148

L460 143

Z

M304 141

C293 134 282 126 280 123

C277 117 283 111 289 113

C291 113 295 116 298 121

C305 128 314 143 314 145

C314 145 309 144 304 141

Z

M347 145

C347 143 356 129 362 122

C368 114 372 111 377 113

C380 114 383 119 382 122

C380 127 347 149 347 145

Z

M401 143

C406 138 405 130 399 126

L397 125

L401 119

C404 116 407 112 409 111

L411 109

L411 116

C410 123 407 137 404 143

C403 145 402 146 401 146

C399 146 399 146 401 143

Z

M319 139

C310 129 300 113 300 108

C300 105 304 101 308 101

C313 101 315 103 318 112

C320 120 323 139 323 141

C323 142 321 141 319 139

Z

M339 137

C340 121 345 105 348 102

C353 99 361 102 361 108

C361 113 348 133 341 140

L338 142

L339 137

Z

M432 139

C431 136 427 119 427 116

C427 114 427 114 429 115

C430 116 432 117 433 117

C435 118 437 121 441 127

L447 136

L443 136

C440 136 438 138 436 139

L433 142

L432 139

Z

M329 137

C325 121 323 110 323 102

C323 95 326 92 331 92

C336 92 338 95 338 102

C338 112 333 138 331 141

C330 141 330 139 329 137

Z

M37 136

C36 135 36 135 37 135

C38 135 38 135 38 136

C38 137 38 137 38 137

C37 137 37 137 37 136

Z

M37 131

C33 129 26 125 21 121

L12 115

L15 114

C20 114 33 116 43 119

C55 122 59 126 54 132

C51 136 46 136 37 131

Z

M450 133

C447 130 447 126 450 123

C454 119 476 114 487 114

L492 114

L488 117

C483 122 472 129 465 132

C457 136 453 136 450 133

Z

M124 130

C123 128 123 126 123 126

C124 126 125 128 126 130

L129 134

L127 134

C125 134 124 133 124 130

Z

M194 132

C189 128 192 120 199 120

C205 120 207 128 202 132

C199 134 197 135 194 132

Z

M241 130

C233 129 226 127 226 127

C226 126 262 120 270 120

C274 120 275 120 277 124

L279 128

L275 126

C268 124 264 125 259 130

L257 133

L241 130

Z

M131 130

C127 127 121 106 121 95

L121 91

L125 95

C130 100 138 112 141 117

C144 123 144 127 141 130

C138 133 134 133 131 130

Z

M146 130

C146 129 146 126 147 125

C147 122 146 122 161 125

C167 126 171 127 171 127

C171 127 166 128 160 129

C154 130 148 131 147 132

C145 132 145 132 146 130

Z

M73 127

L70 124

L73 123

C76 122 76 122 76 126

L76 129

L73 127

Z

M117 126

C115 125 112 124 110 124

C106 124 106 124 106 121

C106 116 112 92 113 92

C114 92 119 114 120 122

C120 125 120 128 120 128

C120 128 118 127 117 126

Z

M382 127

C382 127 383 126 384 124

C385 123 385 120 385 118

C385 114 386 114 394 109

C398 107 402 105 402 105

C403 105 401 110 396 118

C392 124 391 125 387 126

C384 127 382 128 382 127

Z

M59 124

C59 124 58 122 56 121

C54 118 54 118 56 118

C57 118 59 119 61 121

C63 123 64 124 63 124

C63 124 61 124 61 125

C60 125 59 125 59 124

Z

M96 120

C95 118 93 116 91 116

C89 115 87 114 87 114

C87 113 95 101 100 96

L105 91

L105 98

C104 105 100 122 99 122

C99 123 98 121 96 120

Z

M443 120

C442 118 443 117 448 117

L452 117

L449 120

C444 122 444 122 443 120

Z

M65 119

C65 119 67 118 68 118

C73 117 77 114 77 111

C78 109 77 106 76 103

C76 101 75 99 75 99

C75 99 77 97 80 96

C84 93 96 87 96 87

C99 87 85 107 78 115

C74 119 73 120 69 120

C67 120 65 120 65 119

Z

M147 114

C139 106 128 89 129 87

C131 86 155 101 161 107

C167 113 164 120 156 120

C153 120 152 119 147 114

Z

M166 118

C167 116 167 116 170 118

C173 120 173 120 168 120

C165 120 165 120 166 118

Z

M225 119

C226 118 242 107 248 104

L255 100

L259 104

C261 106 264 108 265 108

C267 108 268 110 266 112

C261 116 223 123 225 119

Z

M174 112

C167 109 160 103 165 104

C172 107 174 108 176 108

C178 108 179 109 180 112

C183 117 183 117 174 112

Z

M216 111

C221 103 226 96 230 92

L234 88

L236 91

C237 93 239 95 241 96

L245 98

L239 102

C231 108 220 114 216 116

L214 116

L216 111

Z

M269 113

C271 112 272 110 272 109

C272 108 273 106 275 104

L278 101

L278 106

C279 113 277 116 271 116

L267 116

L269 113

Z

M54 114

C43 113 14 108 13 107

C12 107 15 106 25 105

C41 102 56 100 63 100

C71 100 74 102 74 107

C74 114 69 116 54 114

Z

M434 114

C431 113 429 109 429 106

C429 106 430 104 431 102

C434 100 435 100 441 100

C451 100 490 106 490 107

C490 108 459 113 444 114

C440 115 435 114 434 114

Z

M364 112

C365 110 365 108 365 107

C365 105 366 104 371 103

C378 102 392 100 392 101

C392 102 390 104 387 106

C382 109 381 110 377 109

C372 109 369 110 365 113

C363 114 363 114 364 112

Z

M513 112

C510 109 510 105 514 102

C517 100 519 99 522 102

C525 104 525 108 523 111

C520 115 516 115 513 112

Z

M187 109

C184 105 184 105 185 101

C187 97 186 93 183 89

L181 87

L184 87

C187 87 187 87 188 92

C188 94 189 99 189 102

C190 105 190 109 191 110

C191 113 190 113 187 109

Z

M207 105

C208 93 214 73 216 73

C216 73 217 74 218 76

C219 78 225 82 227 80

C230 79 226 87 220 96

C216 102 208 111 207 112

C206 112 206 109 207 105

Z

M198 110

C197 110 194 96 192 89

C192 88 193 87 195 87

C199 86 204 83 204 80

C204 80 204 79 205 79

C206 78 205 82 202 97

C200 109 199 112 198 110

Z

M292 110

C291 109 289 109 286 109

L282 109

L282 103

C282 94 286 69 289 66

C290 64 291 67 293 76

C296 89 297 99 296 106

C296 111 295 112 292 110

Z

M263 104

C261 103 259 100 259 97

C259 96 261 91 263 88

C267 80 279 64 281 64

C281 64 282 66 281 68

C279 88 275 100 271 103

C269 105 267 105 263 104

Z

M164 100

C160 98 153 94 148 90

L139 84

L143 83

C145 83 151 84 156 84

C179 88 187 94 181 101

C178 105 173 105 164 100

Z

M315 99

C312 97 311 97 308 97

C303 98 303 97 300 84

C298 73 297 64 298 64

C299 64 310 78 315 86

C317 90 318 93 319 97

C319 100 319 102 318 102

C318 102 316 101 315 99

Z

M13 100

C14 96 43 79 48 79

C53 79 57 84 55 89

C53 93 47 95 34 98

C20 101 13 101 13 100

Z

M341 97

C341 94 341 93 342 91

C343 90 344 88 344 88

C344 87 347 87 355 88

C366 89 390 93 391 94

C392 95 389 95 376 97

C362 100 360 100 358 98

C354 96 350 97 347 99

C343 102 343 102 341 97

Z

M414 99

C411 96 411 92 415 89

C418 87 420 86 423 89

C426 91 426 95 424 98

C421 102 417 102 414 99

Z

M484 100

C468 99 452 94 449 91

C447 87 448 83 451 81

C454 78 456 78 465 82

C474 87 491 98 491 100

C491 101 491 101 484 100

Z

M252 96

C253 93 256 91 256 93

C256 94 254 97 252 97

C250 98 250 98 252 96

Z

M56 94

C58 92 59 90 59 90

C59 89 59 88 60 87

C61 86 76 83 83 83

L87 83

L83 86

C81 88 77 91 74 93

C69 96 68 96 61 97

L54 97

L56 94

Z

M2 95

C2 92 20 68 24 64

C28 62 32 63 35 65

C38 69 38 73 32 78

C25 85 2 98 2 95

Z

M491 91

C475 82 467 75 467 70

C467 66 470 63 474 63

C479 63 490 75 499 91

C501 95 502 96 501 96

C500 96 495 94 491 91

Z

M240 90

C237 87 238 83 242 79

C250 72 271 59 273 60

C274 62 262 80 255 88

C248 94 245 95 240 90

Z

M503 86

C497 78 491 69 489 63

C487 60 487 58 488 57

C490 51 497 50 501 54

C505 59 512 92 509 92

C509 92 506 89 503 86

Z

M515 81

C512 69 510 59 510 52

C510 48 511 47 512 45

C515 42 520 42 523 45

C525 47 525 48 525 54

C525 64 520 89 518 91

C518 92 516 87 515 81

Z

M526 85

C527 77 530 64 531 62

C532 61 532 66 532 74

C532 87 532 87 529 89

C528 91 526 92 526 92

C526 92 526 89 526 85

Z

M335 89

C333 88 330 88 328 88

C325 89 325 88 321 84

C315 77 305 61 306 60

C309 59 332 74 338 80

C340 83 341 85 341 87

C340 91 339 91 335 89

Z

M379 86

C373 86 365 84 362 83

L355 81

L357 79

C360 78 363 73 363 70

C363 68 363 68 369 71

C375 74 392 86 392 87

C392 88 391 88 379 86

Z

M0 73

C0 57 1 54 6 52

C11 50 16 53 16 58

C16 63 9 75 2 83

L0 86

L0 73

Z

M180 83

C170 82 141 77 140 76

C139 76 142 75 152 74

C166 71 184 69 191 69

C198 69 201 71 201 76

C201 83 196 85 180 83

Z

M342 81

C341 79 340 77 341 77

C341 77 344 79 347 81

L352 84

L348 84

C345 84 344 84 342 81

Z

M108 81

C105 78 105 74 109 71

C112 69 114 68 117 71

C120 73 120 77 118 80

C115 84 111 84 108 81

Z

M232 82

C232 81 233 79 236 78

L238 77

L236 80

C234 83 232 84 232 82

Z

M393 79

C389 76 383 73 380 71

L376 68

L379 66

C382 65 384 64 385 61

L387 58

L392 65

C399 76 403 83 402 83

C401 83 397 81 393 79

Z

M435 82

C435 81 444 67 449 60

C455 52 458 50 462 50

C466 50 470 54 470 57

C470 61 456 73 442 80

C436 83 435 83 435 82

Z

M57 79

C53 75 47 75 40 78

C39 78 38 78 38 77

C38 77 39 75 40 73

C41 69 41 69 46 70

C59 71 85 75 85 76

C86 77 64 81 60 81

C59 81 58 80 57 79

Z

M406 75

C401 69 394 59 394 59

C394 58 396 58 398 58

C400 58 402 57 404 56

C406 56 407 55 407 55

C408 56 411 76 411 78

C411 80 410 80 406 75

Z

M416 68

C413 56 411 45 412 44

C412 44 413 44 413 45

C416 47 419 47 423 45

L426 44

L426 50

C425 57 420 77 419 78

C419 79 417 74 416 68

Z

M427 71

C429 58 433 43 437 40

C439 38 445 38 447 40

C450 43 450 47 446 53

C442 62 429 79 427 79

C427 79 427 76 427 71

Z

M462 77

C461 77 461 76 461 75

C462 73 463 74 465 76

C466 78 466 78 465 78

C464 78 463 78 462 77

Z

M205 76

C204 76 204 75 204 74

C204 70 199 66 195 66

C192 66 192 64 196 63

C202 61 206 65 206 73

C206 75 205 77 205 76

Z

M222 75

C219 72 220 66 223 64

C228 60 260 54 262 56

C263 57 249 67 239 72

C230 78 225 78 222 75

Z

M340 73

C336 70 331 67 329 66

C321 61 316 57 316 56

C318 54 351 60 356 64

C362 68 358 77 352 77

C350 77 345 75 340 73

Z

M210 69

C209 67 208 64 207 62

C205 59 206 59 210 63

C211 65 214 66 214 66

C217 66 216 67 213 71

L210 74

L210 69

Z

M73 68

C67 68 59 66 54 65

C46 62 43 60 43 55

C43 52 47 48 50 48

C55 48 69 56 81 65

C89 70 89 71 73 68

Z

M142 67

C151 59 170 48 175 48

C179 48 182 51 182 55

C182 57 182 60 181 60

C179 63 160 68 145 69

L139 70

L142 67

Z

M43 66

C40 66 38 64 38 61

C39 60 39 60 42 62

C43 63 46 65 47 66

C49 67 48 67 43 66

Z

M182 65

C182 64 182 64 183 64

C183 64 183 64 183 65

C183 66 183 66 182 66

C181 66 181 66 182 65

Z

M87 61

C78 56 72 52 66 47

C63 44 62 42 62 39

C62 36 66 32 70 32

C74 32 85 45 94 60

C98 66 97 66 87 61

Z

M129 65

C129 64 137 51 140 46

C150 32 156 29 162 34

C165 38 165 42 160 46

C152 54 129 67 129 65

Z

M187 64

C186 58 189 38 193 27

C194 22 194 22 195 24

C196 25 197 30 198 34

C199 41 199 42 198 45

C197 49 197 53 200 56

L202 59

L197 59

C194 59 192 60 190 62

C188 64 187 65 187 64

Z

M362 64

C358 62 357 60 361 60

C362 60 364 61 365 62

C367 65 366 65 362 64

Z

M371 63

C368 61 367 57 368 47

C369 37 374 16 375 16

C377 15 382 37 383 50

C383 59 383 59 381 61

C378 64 375 65 371 63

Z

M21 61

C20 59 21 58 22 60

C23 61 23 61 22 62

C22 63 21 63 21 61

Z

M99 55

C92 47 86 38 84 32

C82 28 82 28 83 25

C86 20 94 19 97 24

C100 31 106 54 105 60

C105 62 104 61 99 55

Z

M213 61

C211 60 212 59 218 59

C223 59 223 59 221 60

C219 62 214 63 213 61

Z

M110 50

C106 37 105 28 105 21

C105 17 105 16 107 14

C111 11 117 11 119 15

C121 18 121 18 120 28

C119 39 115 59 113 60

C113 61 111 57 110 50

Z

M121 54

C122 44 125 34 128 27

C130 22 134 19 138 21

C145 23 145 29 137 41

C132 50 123 61 121 61

C121 61 121 58 121 54

Z

M21 55

C14 47 3 30 4 28

C5 27 23 37 30 43

C39 50 40 53 38 57

C37 59 36 60 31 60

C26 60 26 60 21 55

Z

M475 59

C474 59 474 58 474 56

C474 55 473 53 472 52

L470 49

L473 46

C481 39 501 27 503 28

C504 30 492 48 488 50

C487 51 485 53 484 56

C482 59 481 60 478 60

C477 60 475 60 475 59

Z

M203 54

C202 53 201 51 201 49

C201 47 202 45 203 44

C206 41 217 41 238 44

C260 48 262 48 262 49

C262 50 223 56 212 56

C206 56 205 56 203 54

Z

M285 54

C280 50 283 42 290 42

C295 42 298 50 294 54

C291 56 288 57 285 54

Z

M362 53

C363 52 364 50 364 50

C364 50 364 51 364 53

C364 55 364 56 362 56

C360 56 360 56 362 53

Z

M347 53

C343 49 345 42 355 29

C358 25 361 20 363 18

L367 14

L367 18

C367 29 362 48 358 53

C355 56 350 56 347 53

Z

M393 53

C389 49 383 27 383 17

L383 14

L386 16

C393 23 406 44 406 48

C406 49 405 51 404 53

C400 56 396 56 393 53

Z

M329 52

C322 51 317 49 317 49

C317 48 323 47 329 47

C331 47 334 46 336 46

C341 44 341 44 341 46

C341 48 341 50 342 51

C343 54 344 54 329 52

Z

M505 53

C504 52 503 50 501 49

L498 47

L504 40

C507 36 510 32 511 31

C513 30 511 40 509 42

C507 44 507 46 506 53

C505 54 505 54 505 53

Z

M529 47

C529 44 528 39 528 36

L527 31

L529 33

C532 35 532 36 532 44

C532 48 532 52 531 52

C531 52 530 50 529 47

Z

M452 50

C452 49 454 48 455 48

C455 49 454 49 454 50

C453 51 452 51 452 50

Z

M0 43

C0 39 0 36 1 37

C4 40 9 47 9 47

C9 48 8 48 6 48

C4 48 3 48 3 49

C1 52 0 49 0 43

Z

M40 47

C39 45 39 45 41 46

C42 46 43 47 43 47

C42 49 40 49 40 47

Z

M466 46

C466 45 466 45 467 45

C468 45 468 45 468 46

C467 47 467 47 466 47

C466 47 466 47 466 46

Z

M168 45

C168 44 179 29 182 25

C186 21 187 21 187 25

C186 26 186 31 185 36

C183 46 183 47 179 45

C177 44 174 44 172 45

C168 46 168 46 168 45

Z

M42 42

C36 40 18 28 16 25

L14 23

L20 24

C30 25 46 28 51 30

C56 32 58 36 57 40

C56 43 52 45 49 45

C48 45 45 44 42 42

Z

M454 44

C453 43 450 38 450 36

C450 33 453 31 459 29

C469 26 493 22 493 24

C493 25 477 36 469 40

C460 45 457 46 454 44

Z

M328 42

C325 41 324 39 324 36

C324 32 334 23 345 17

C355 12 359 10 359 11

C359 14 345 34 339 40

C335 43 332 44 328 42

Z

M415 42

C411 41 402 29 396 19

C393 14 391 10 391 10

C393 9 416 23 422 29

C425 32 426 33 426 36

C426 42 421 45 415 42

Z

M316 42

C316 41 319 39 320 39

C322 41 321 42 319 42

C317 43 316 42 316 42

Z

M245 41

C234 39 225 36 222 34

C221 32 220 31 220 28

C220 24 223 21 227 21

C232 21 248 30 259 39

L263 42

L257 42

C254 42 248 41 245 41

Z

M430 38

C430 35 429 32 428 30

L426 27

L430 29

C436 32 441 32 444 29

C446 28 448 27 450 27

L454 27

L450 29

C449 30 447 32 446 33

C446 35 445 35 443 35

C438 34 435 35 432 39

L430 42

L430 38

Z

M204 36

C202 26 202 21 203 21

C204 22 216 37 216 38

C216 38 213 39 210 39

C204 39 204 39 204 36

Z

M518 37

C518 36 518 35 519 34

C520 32 520 32 521 35

C522 39 522 39 520 39

C519 39 518 38 518 37

Z

M264 34

C249 26 238 17 238 13

C238 9 242 5 246 5

C251 5 260 15 269 30

C275 40 275 40 264 34

Z

M307 35

C308 32 309 31 313 31

C315 30 318 29 320 29

C324 27 324 27 323 28

C322 30 311 36 307 37

L305 38

L307 35

Z

M166 33

C165 32 163 31 162 30

C160 29 159 28 159 28

C159 27 173 19 176 19

C177 18 178 18 178 19

C178 20 169 35 168 35

C167 35 167 34 166 33

Z

M275 27

C268 19 264 13 261 7

C258 0 258 0 267 0

L275 0

L277 6

C279 12 280 19 281 30

C282 32 281 34 281 34

C280 34 278 31 275 27

Z

M297 33

C297 29 300 11 301 10

C302 10 304 9 306 9

C310 9 310 9 309 10

C304 13 302 15 302 19

C302 21 302 24 303 25

C304 27 304 28 301 31

C298 34 297 35 297 33

Z

M289 32

C288 31 283 10 283 5

L282 0

L284 4

C286 8 289 10 293 10

C296 10 295 11 293 22

C291 31 290 34 289 32

Z

M147 26

C147 25 145 22 144 20

C141 18 140 17 142 17

C144 16 155 14 162 13

L169 13

L167 15

C165 17 151 27 149 28

C147 28 147 28 147 26

Z

M213 23

C210 18 210 17 215 20

C218 21 218 22 217 25

C215 27 215 27 213 23

Z

M307 24

C302 18 306 14 318 11

C327 8 343 6 347 6

C349 6 348 7 342 12

C331 20 320 26 314 27

C310 27 309 27 307 24

Z

M425 23

C417 18 405 10 403 7

C402 6 402 6 409 6

C424 8 439 12 443 15

C446 18 446 22 443 25

C440 28 435 28 425 23

Z

M53 23

C43 22 16 18 16 17

C14 16 49 10 63 10

C72 10 72 10 74 12

C77 15 77 19 74 22

C72 24 70 24 64 24

C60 24 55 24 53 23

Z

M449 21

C449 18 448 16 446 14

L443 10

L448 10

C458 10 494 16 492 17

C490 18 468 22 460 22

C456 23 452 23 451 24

C449 24 449 24 449 21

Z

M516 22

C512 19 512 14 515 12

C520 8 526 11 526 17

C526 20 525 21 522 23

C519 24 519 24 516 22

Z

M98 20

L96 18

L99 13

C101 11 102 9 103 9

C103 10 103 12 102 14

C102 17 101 19 101 21

C101 23 100 23 98 20

Z

M234 19

C233 18 231 18 229 18

C226 18 220 15 221 13

C222 13 224 13 228 14

C233 14 234 15 236 17

C238 20 237 21 234 19

Z

M84 16

C84 14 85 10 85 6

L86 0

L94 0

C98 0 101 0 101 1

C101 1 99 5 96 9

C92 14 89 17 87 18

L84 19

L84 16

Z

M124 18

C124 17 126 16 127 16

C129 16 129 16 128 17

C125 19 124 19 124 18

Z

M120 11

C117 8 116 8 111 8

C106 9 106 9 106 6

C106 5 107 3 108 2

C111 -1 126 0 146 2

C166 6 168 6 166 7

C164 8 143 12 134 12

C130 13 127 13 126 13

C124 14 122 13 120 11

Z

M192 13

C190 12 189 12 189 11

C189 11 189 10 188 8

C187 6 188 5 189 3

C193 -3 201 0 201 7

C201 12 195 15 192 13

Z

M77 10

C76 9 75 8 74 7

C71 7 70 5 70 1

C70 0 72 0 76 0

L81 0

L81 4

C79 11 78 13 77 10

Z

M14 10

C14 9 17 7 20 5

L26 0

L41 0

C55 0 56 0 55 1

C53 3 38 8 29 9

C21 10 14 10 14 10

Z

M476 8

C465 7 465 7 466 3

C467 0 468 0 474 0

C480 0 481 0 487 4

C490 7 493 9 493 9

C493 10 484 10 476 8

Z

M226 8

C220 7 220 6 228 5

C231 4 235 4 236 3

C238 3 238 3 236 6

C234 9 232 9 226 8

Z

M290 5

C288 4 287 2 287 1

C287 0 291 0 316 0

C334 0 343 1 341 1

C335 2 310 6 301 7

C293 7 292 7 290 5

Z

M442 6

C432 5 408 1 407 0

C407 0 420 0 435 0

L464 0

L463 2

C461 7 457 8 442 6

Z

M4 5

C4 2 7 0 11 0

L15 1

L10 3

C6 5 4 6 4 5

Z

M58 3

C61 -1 65 -1 65 3

C66 6 66 6 61 6

L56 6

L58 3

Z

M371 4

C367 0 368 0 375 0

C382 0 383 1 380 4

C378 6 373 7 371 4

Z

M497 3

L492 0

L496 0

C500 0 501 0 503 3

C504 7 504 7 497 3

Z

M252 3

L250 1

L252 1

C254 1 255 2 255 3

C256 5 255 5 252 3

Z

M510 1

C510 0 510 0 511 0

C512 0 512 0 512 1

C512 2 512 2 511 2

C510 2 510 2 510 1

Z

M527 1

C527 0 528 0 529 0

C529 0 530 0 530 1

C529 2 528 2 528 2

C527 2 527 2 527 1

Z

"/>

</svg>

