<?xml version="1.0" standalone="no"?>

<!DOCTYPE svg PUBLIC "-//W3C//DTD SVG 20010904//EN"

 "http://www.w3.org/TR/2001/REC-SVG-20010904/DTD/svg10.dtd">

<svg version="1.0" xmlns="http://www.w3.org/2000/svg"

 width="575.000000pt" height="586.000000pt" viewBox="0 0 575.000000 586.000000"

 preserveAspectRatio="xMidYMid meet">

<path fill="#f8f3f2" stroke="none" d="
M0 293

L0 0

L288 0

L575 0

L575 293

L575 586

L288 586

L0 586

L0 293

Z

"/>

<path fill="#913c51" stroke="none" d="
M0 523

C0 461 0 460 2 460

C4 460 8 455 10 450

C12 443 11 443 4 446

L0 448

L0 431

C0 415 0 414 2 414

C5 414 5 412 2 409

C0 406 0 404 0 376

L0 347

L2 348

C6 349 9 347 9 343

C9 339 4 330 2 329

C0 329 0 322 0 273

L0 217

L3 215

C7 213 9 209 7 201

C6 198 6 196 5 196

C5 196 4 197 2 198

L0 200

L0 160

L0 120

L2 120

C7 120 15 111 15 104

C15 101 10 99 4 99

L0 99

L0 87

C0 78 0 76 1 77

C2 78 3 77 5 75

C10 70 8 59 2 54

C0 52 0 51 0 26

L0 0

L47 0

C89 0 93 0 93 2

C90 7 91 8 96 8

L101 9

L101 13

C101 17 101 17 104 17

C110 15 114 10 114 4

L114 0

L143 0

L173 0

L173 5

C173 11 175 17 178 17

C180 17 182 11 182 5

L183 0

L213 0

L243 0

L240 3

C238 5 236 7 236 8

C236 12 236 13 238 14

C240 15 241 15 243 14

C246 12 250 5 250 2

C250 0 251 0 265 0

L281 0

L282 4

C284 10 288 14 291 14

C297 13 297 7 291 3

L288 0

L314 0

L340 0

L339 2

C337 6 339 9 343 9

C347 9 351 7 354 3

L357 0

L382 0

C405 0 407 0 408 2

C410 5 417 9 420 9

C423 9 425 6 425 3

L424 0

L500 0

L575 0

L575 26

L575 53

L571 54

C566 58 563 62 563 68

C563 75 564 76 568 73

C572 71 572 71 574 73

C575 74 575 78 575 87

C575 97 575 99 573 99

C572 99 565 105 565 107

C565 107 567 108 569 109

C573 110 573 110 573 114

C572 116 572 118 571 119

C571 120 571 120 573 120

C575 120 575 120 575 134

L575 148

L573 144

C571 140 570 139 568 139

C564 139 562 141 562 145

C562 147 568 154 572 156

L575 157

L575 214

C575 269 575 271 573 270

C566 263 562 274 567 284

C569 289 570 288 573 283

C575 279 575 279 575 342

L575 405

L572 403

C567 399 561 402 562 408

C563 410 570 414 573 414

C575 414 575 415 575 424

L575 435

L569 435

C564 435 561 436 560 437

C557 440 557 444 561 446

C563 447 563 447 566 446

C568 445 571 444 572 442

L575 440

L575 513

L575 586

L562 586

L549 586

L550 583

C551 576 542 575 534 581

C530 583 530 584 532 585

C533 586 528 586 504 586

C484 586 475 586 476 585

C477 582 464 576 460 578

C457 579 456 582 457 584

C457 586 456 586 441 586

C428 586 424 586 421 585

C418 583 409 583 407 585

C405 586 401 586 381 586

C367 586 357 586 357 585

C357 583 348 583 344 584

C338 586 306 587 308 585

C310 583 309 580 307 577

C305 575 294 574 292 576

C290 577 290 577 292 579

C293 581 296 583 297 584

L301 586

L294 586

C291 586 287 585 285 585

C282 584 282 584 281 585

C281 586 276 586 265 586

C254 586 250 586 251 585

C251 584 251 584 249 584

C248 585 243 585 240 586

L233 586

L237 582

C242 578 242 576 239 576

C230 573 220 579 223 584

C224 586 224 586 169 586

L114 586

L114 583

C114 580 114 580 108 580

C103 580 97 582 95 584

C94 586 89 586 47 586

L0 586

L0 523

Z

M146 571

C146 563 145 563 142 559

C136 555 134 555 133 561

L133 565

L128 565

L124 565

L124 569

C125 576 131 579 140 579

L146 579

L146 571

Z

M204 575

C208 573 210 566 210 559

L210 555

L205 554

C195 554 187 559 187 566

C187 568 187 568 192 568

L196 568

L196 573

C196 577 196 577 198 577

C199 577 202 576 204 575

Z

M352 574

C356 573 355 571 349 568

C344 566 339 565 337 568

C334 570 335 574 338 576

C341 577 348 577 352 574

Z

M427 574

C430 571 430 570 427 567

C424 564 420 565 413 569

C408 572 408 573 413 575

C419 577 425 576 427 574

Z

M480 570

C476 563 469 559 466 563

C461 567 466 573 476 574

C482 575 482 574 480 570

Z

M533 573

C538 571 541 568 541 565

C541 559 536 558 530 563

C527 566 524 571 524 573

C524 574 529 574 533 573

Z

M48 569

C50 567 51 558 49 553

L48 551

L46 553

C43 555 41 560 39 564

C39 566 39 567 41 569

C44 572 45 572 48 569

Z

M66 569

C70 566 67 558 62 553

L59 551

L58 554

C54 565 60 575 66 569

Z

M236 566

C240 565 239 563 233 560

C225 556 219 558 219 564

C220 569 227 570 236 566

Z

M311 566

C314 563 314 562 311 559

C309 557 308 557 305 557

C301 558 293 563 293 564

C294 566 300 568 305 568

C308 568 310 567 311 566

Z

M492 562

C491 555 489 551 485 550

C483 550 482 551 480 552

C479 555 479 555 481 559

C482 562 489 568 491 568

C492 568 492 566 492 562

Z

M519 566

C528 560 528 548 520 550

C518 551 516 552 515 555

C514 558 513 568 515 568

C515 568 517 567 519 566

Z

M506 562

C511 552 508 543 500 548

C498 549 498 550 498 554

C499 559 502 566 503 566

C504 566 505 564 506 562

Z

M33 562

C36 559 38 554 38 550

C38 548 38 548 35 548

C31 550 26 553 24 556

C23 560 23 560 25 562

C27 565 31 564 33 562

Z

M82 562

C85 560 84 558 82 555

C80 552 73 548 71 548

C68 548 69 552 71 557

C74 563 79 566 82 562

Z

M360 562

C360 558 352 549 348 549

C343 549 341 555 345 558

C349 562 360 565 360 562

Z

M414 560

C420 557 422 553 418 550

C417 549 415 548 414 548

C412 548 406 554 404 558

L402 562

L406 562

C408 562 412 561 414 560

Z

M566 558

C572 555 572 554 570 549

C569 547 566 544 564 542

C562 540 560 539 556 539

C550 539 549 540 551 544

C554 548 553 549 550 551

C546 553 546 553 547 555

C550 560 558 561 566 558

Z

M456 557

C461 555 459 547 453 541

C450 538 449 537 445 537

L441 537

L442 541

C442 543 442 545 442 545

C442 546 441 547 439 548

C434 549 434 550 437 554

C440 559 448 560 456 557

Z

M158 555

C160 552 161 546 159 541

L158 538

L155 541

C149 546 148 553 151 556

C153 559 156 558 158 555

Z

M176 556

C178 554 178 553 178 551

C177 547 172 540 170 539

C168 538 168 539 167 543

C165 554 170 562 176 556

Z

M403 549

C406 545 406 542 403 540

C400 537 396 538 395 542

C393 545 391 553 392 555

C393 557 393 557 397 555

C399 553 401 551 403 549

Z

M371 551

C370 544 368 539 364 538

C361 538 358 540 358 543

C358 546 362 552 365 554

C371 557 371 557 371 551

Z

M244 554

C244 550 236 541 232 541

C227 541 225 547 229 550

C233 554 244 556 244 554

Z

M385 550

C389 542 387 535 382 535

C378 535 377 537 377 542

C377 547 381 555 382 554

C383 554 384 552 385 550

Z

M298 552

C304 549 306 543 301 541

C297 539 292 543 289 549

L286 554

L290 554

C292 554 295 553 298 552

Z

M19 550

C24 548 30 541 28 540

C26 538 18 539 14 541

C10 543 9 547 12 549

C15 551 15 551 19 550

Z

M143 548

C145 545 148 538 148 536

C148 533 140 537 136 541

C131 545 132 551 138 551

C140 551 142 550 143 548

Z

M191 550

C194 548 194 543 190 540

C187 537 180 534 178 535

C177 536 180 544 183 548

C186 551 188 552 191 550

Z

M96 547

C97 544 97 544 95 541

C92 539 91 539 86 539

C82 539 79 539 78 540

C78 541 79 542 80 544

C84 548 88 550 92 550

C95 550 96 549 96 547

Z

M255 543

C254 536 252 531 248 530

C245 530 242 532 242 535

C242 538 246 544 249 546

C255 549 255 549 255 543

Z

M283 544

C288 540 290 536 288 533

C283 526 276 533 276 544

C276 549 278 549 283 544

Z

M270 540

C271 536 271 532 270 529

C268 526 263 526 261 529

C260 532 260 536 263 543

C265 547 265 547 267 545

C268 544 269 542 270 540

Z

M476 539

C477 536 478 533 478 530

C478 526 477 524 475 521

L471 518

L469 522

C468 524 467 526 466 526

C466 526 464 525 462 524

C458 522 457 522 457 529

C457 534 460 538 467 542

C472 545 473 544 476 539

Z

M332 538

C332 537 332 534 332 531

C332 523 329 519 322 517

C320 516 320 516 320 520

L319 525

L314 525

L310 525

L310 529

C311 531 312 533 313 535

C318 539 330 542 332 538

Z

M130 536

C133 534 135 532 137 530

C139 528 139 527 137 527

C135 526 128 526 124 527

C120 529 118 534 122 537

C124 539 126 538 130 536

Z

M205 536

C207 533 206 529 203 527

C200 526 188 526 188 527

C187 528 194 535 196 536

C200 537 204 537 205 536

Z

M521 531

C524 528 524 524 523 518

C522 514 522 513 520 514

C517 516 513 523 513 527

C513 532 518 535 521 531

Z

M539 532

C543 530 541 521 535 516

L532 513

L531 517

C530 523 530 528 533 531

C535 533 536 533 539 532

Z

M23 531

C27 529 27 527 21 524

C15 521 10 521 7 525

C6 527 6 527 7 530

C9 532 10 532 14 532

C17 532 21 531 23 531

Z

M99 530

C99 529 100 527 100 526

C100 520 92 520 84 525

C80 528 80 528 86 531

C90 532 96 532 99 530

Z

M352 529

C356 526 359 519 358 515

C358 511 356 508 355 508

C354 508 352 509 351 511

L348 513

L345 511

C344 509 342 508 341 508

C340 508 337 514 337 517

C337 521 345 532 348 532

C348 532 350 531 352 529

Z

M407 526

C409 525 410 520 410 515

C409 508 408 507 405 510

C399 515 397 524 401 526

C404 528 404 528 407 526

Z

M425 526

C426 526 427 523 427 522

C427 518 423 510 420 509

C418 508 418 508 417 512

C414 522 420 532 425 526

Z

M506 524

C510 520 513 510 510 510

C508 510 503 513 500 516

C497 519 496 523 498 525

C500 527 504 526 506 524

Z

M555 525

C558 523 558 519 554 516

C549 511 542 508 542 511

C542 514 545 521 547 523

C550 526 552 527 555 525

Z

M393 518

C395 516 399 506 398 505

C396 504 389 507 386 510

C383 513 382 518 384 520

C386 522 390 521 393 518

Z

M441 519

C446 515 441 508 431 505

C428 504 428 504 428 506

C428 510 433 519 435 520

C438 521 440 521 441 519

Z

M246 517

C249 515 251 515 254 518

C256 521 257 520 259 516

C261 510 259 505 253 499

L249 495

L245 498

C241 502 238 508 238 511

C238 513 241 520 242 520

C242 520 244 519 246 517

Z

M31 518

C32 517 28 510 25 508

C21 504 18 504 16 507

C12 511 17 516 26 518

C29 519 31 519 31 518

Z

M132 517

C137 516 136 514 130 511

C123 507 116 509 116 513

C116 519 124 521 132 517

Z

M207 517

C213 513 209 507 202 508

C198 509 190 513 190 515

C190 516 198 519 202 519

C204 519 206 518 207 517

Z

M83 517

C88 515 91 512 91 509

C91 501 81 503 76 513

C75 515 74 517 74 517

C74 518 79 518 83 517

Z

M227 511

C231 508 233 504 233 497

C233 490 231 489 225 490

C217 491 212 495 211 501

C210 504 210 504 215 504

L220 504

L220 509

C220 514 221 514 227 511

Z

M292 510

C294 507 295 501 293 496

L292 493

L289 496

C283 501 282 508 285 511

C287 514 290 513 292 510

Z

M311 510

C312 507 312 507 309 501

C307 496 304 493 302 494

C301 496 300 503 301 507

C303 513 308 515 311 510

Z

M495 511

C500 508 503 503 501 502

C500 501 498 501 495 501

C485 501 480 506 485 511

C488 514 489 514 495 511

Z

M42 507

C42 501 39 495 36 494

C31 493 28 499 32 504

C34 508 39 512 41 512

C42 512 42 510 42 507

Z

M68 511

C73 508 76 503 76 499

C75 492 68 492 66 499

C64 503 63 512 65 512

C65 512 66 511 68 511

Z

M569 511

C571 509 570 505 567 503

C565 501 563 501 559 501

C552 501 551 501 552 504

C555 510 566 514 569 511

Z

M56 506

C57 505 58 501 59 499

C59 495 59 494 57 492

C54 489 53 489 50 492

C47 495 47 499 50 505

C52 511 54 511 56 506

Z

M381 505

C385 502 388 498 388 497

C387 496 377 496 374 497

C369 499 368 505 372 507

C375 508 378 507 381 505

Z

M454 506

C456 505 457 501 455 499

C453 496 447 495 441 496

C439 496 437 496 437 497

C437 498 441 502 444 505

C449 507 451 508 454 506

Z

M141 505

C141 503 136 495 134 494

C129 490 124 492 124 497

C124 501 128 504 134 505

C140 506 141 506 141 505

Z

M277 503

C280 499 283 491 282 490

C281 489 274 492 270 495

C265 500 266 506 272 506

C274 506 276 505 277 503

Z

M326 505

C329 501 326 494 319 491

C313 489 312 489 313 493

C315 503 322 509 326 505

Z

M196 502

C200 500 201 498 201 494

C200 491 196 490 192 492

C189 494 185 499 184 502

L184 505

L188 505

C190 504 194 503 196 502

Z

M152 495

C152 491 150 485 148 483

C145 479 139 482 139 486

C139 489 143 494 147 497

C151 500 152 500 152 495

Z

M180 496

C182 494 184 491 185 489

C188 482 180 477 176 484

C173 489 172 499 175 499

C175 499 177 497 180 496

Z

M166 493

C168 487 169 481 166 479

C163 475 158 478 158 485

C158 489 161 497 163 497

C163 497 165 495 166 493

Z

M496 492

L500 490

L496 488

C491 484 484 483 482 485

C479 487 480 492 482 493

C484 495 492 494 496 492

Z

M572 492

C573 490 574 489 574 488

C574 486 570 483 567 483

C562 483 552 489 554 491

C556 492 563 494 566 494

C568 494 570 493 572 492

Z

M264 491

C266 490 269 488 270 486

L273 483

L271 482

C267 480 258 481 256 483

C254 486 253 491 256 492

C258 493 260 493 264 491

Z

M339 491

C341 488 340 484 337 482

C334 481 323 480 322 482

C321 483 324 487 328 490

C332 492 337 493 339 491

Z

M380 488

C382 487 384 486 385 486

C386 484 380 480 375 479

C372 478 370 478 368 479

C364 483 367 489 373 489

C375 489 378 489 380 488

Z

M459 486

C460 483 460 483 459 481

C457 479 456 478 453 478

C450 478 443 481 441 483

C439 486 444 488 451 488

C456 488 457 488 459 486

Z

M104 484

C107 482 110 476 110 470

C111 466 111 466 108 465

C104 463 96 464 92 465

C90 467 86 472 86 474

C86 475 88 475 91 475

L95 476

L94 481

L94 486

L97 486

C100 485 102 484 104 484

Z

M225 479

C232 475 232 474 229 469

C225 463 221 461 215 461

C208 462 207 463 210 467

C213 471 213 472 209 474

C207 475 206 477 206 477

C206 478 207 479 209 480

C214 483 220 483 225 479

Z

M505 480

C505 476 497 467 493 467

C487 467 486 474 491 477

C495 480 505 482 505 480

Z

M560 477

C565 475 566 471 564 468

C563 467 561 466 559 466

C556 466 550 473 548 477

L547 480

L551 480

C554 479 558 478 560 477

Z

M391 474

C391 473 386 465 384 464

C378 460 374 462 374 468

C375 471 381 475 387 475

C389 475 391 475 391 474

Z

M445 472

C448 471 451 467 451 465

C451 463 448 461 446 461

C444 461 442 462 440 464

C437 466 433 473 434 474

C435 475 442 474 445 472

Z

M267 472

C270 470 270 470 268 469

C263 464 254 462 251 465

C250 467 250 470 252 472

C254 475 262 475 267 472

Z

M341 472

C347 468 343 462 336 463

C332 464 324 468 324 470

C324 471 332 474 336 474

C338 474 340 473 341 472

Z

M516 471

C516 469 516 466 515 464

C513 457 508 454 505 458

C502 460 503 464 508 469

C513 475 515 475 516 471

Z

M544 471

C549 466 551 462 549 458

C547 457 546 456 544 456

C540 457 538 461 537 468

C537 475 538 476 544 471

Z

M529 469

C533 461 533 455 529 453

C524 450 520 456 522 463

C523 468 526 472 527 472

C527 472 529 470 529 469

Z

M402 463

C401 456 398 452 395 451

C389 450 387 456 392 462

C395 466 400 469 401 468

C402 468 402 465 402 463

Z

M429 466

C431 465 433 462 434 460

C436 457 436 456 435 454

C434 451 433 451 431 451

C426 452 424 455 423 463

C423 467 423 469 424 469

C424 469 426 468 429 466

Z

M21 465

C23 462 24 456 22 450

L21 447

L18 450

C12 455 10 463 14 465

C17 468 18 467 21 465

Z

M39 465

C40 464 41 462 41 461

C41 459 37 452 35 449

L32 447

L31 449

C28 457 30 467 36 467

C36 467 38 466 39 465

Z

M416 462

C420 453 417 446 412 447

C407 449 406 455 410 463

C412 468 413 467 416 462

Z

M475 461

C476 458 475 448 474 446

C472 443 469 441 465 440

C463 439 463 439 463 443

L462 448

L457 448

L453 448

L453 452

C454 454 455 456 456 458

C461 462 473 465 475 461

Z

M162 460

C165 458 166 450 164 444

L163 441

L160 443

C157 446 154 452 154 455

C154 459 159 462 162 460

Z

M182 458

C184 455 182 450 178 444

L174 441

L173 443

C171 448 172 457 174 459

C177 462 180 462 182 458

Z

M275 460

C275 457 269 450 267 448

C263 446 259 448 258 452

C258 455 260 458 267 460

C273 461 275 461 275 460

Z

M54 459

C57 457 57 452 54 449

C51 447 46 444 43 444

C42 444 41 444 41 444

C41 444 42 447 43 450

C43 453 45 456 47 457

C50 460 51 460 54 459

Z

M330 458

C334 456 335 453 335 449

C334 446 330 445 326 447

C324 449 318 456 318 459

C318 461 326 460 330 458

Z

M98 455

C99 455 102 453 103 451

L106 448

L103 444

C100 440 96 437 91 436

C88 436 82 437 82 439

C82 439 83 441 84 443

L87 446

L83 449

C80 452 80 452 82 454

C85 458 91 458 98 455

Z

M495 452

C499 449 502 442 501 438

C501 434 499 431 498 431

C497 431 495 432 494 434

L491 436

L488 434

C487 432 485 431 484 431

C483 431 480 437 480 440

C480 444 488 455 491 455

C491 455 493 454 495 452

Z

M148 451

C152 447 154 438 152 438

C149 438 142 442 140 445

C134 452 142 458 148 451

Z

M198 452

C199 449 199 449 198 446

C196 443 191 439 186 438

C183 438 183 438 184 441

C185 446 186 448 189 451

C192 455 195 455 198 452

Z

M286 450

C286 446 284 440 282 438

C279 434 273 437 273 441

C273 444 277 449 281 452

C285 455 286 455 286 450

Z

M315 449

C320 444 321 440 318 438

C316 435 312 436 310 439

C308 443 306 450 307 452

C308 455 310 454 315 449

Z

M300 447

C303 441 302 435 299 433

C296 432 296 432 294 433

C293 435 292 437 292 440

C292 444 295 452 297 452

C298 452 299 450 300 447

Z

M236 448

C238 446 241 445 241 444

C242 443 238 435 234 432

C232 430 230 429 226 429

C220 429 219 431 221 434

C224 438 223 439 219 441

C215 443 215 445 220 448

C224 451 229 451 236 448

Z

M68 445

C68 444 69 442 69 441

C69 437 65 435 58 435

C50 435 49 436 53 439

C58 445 65 448 68 445

Z

M135 439

C137 438 140 436 141 434

L144 431

L142 430

C138 428 129 429 127 431

C125 434 124 439 127 440

C129 441 131 441 135 439

Z

M210 439

C212 436 211 432 208 430

C205 429 196 429 194 430

C192 430 192 431 194 433

C199 439 207 442 210 439

Z

M356 438

C356 437 356 434 356 431

C356 423 353 418 346 416

C344 415 344 415 343 419

L343 424

L338 424

C334 424 334 424 334 427

C334 431 339 437 343 438

C348 439 355 439 356 438

Z

M399 434

C401 432 402 427 401 422

C400 416 398 416 395 421

C390 427 390 431 391 434

C393 436 397 437 399 434

Z

M418 434

C419 433 419 431 419 430

C419 427 413 418 411 417

C408 416 407 431 410 434

C412 437 417 436 418 434

Z

M384 428

C386 426 389 419 389 416

C389 413 389 413 387 414

C382 415 379 417 377 420

C373 424 373 425 376 428

C378 430 381 430 384 428

Z

M253 426

C254 424 254 420 254 417

C254 412 252 408 247 405

L244 404

L243 409

L242 413

L237 412

C232 412 232 412 232 414

C232 417 234 422 237 424

C239 427 246 429 249 429

C251 429 252 428 253 426

Z

M434 427

C435 425 435 423 434 422

C433 419 427 414 423 413

C420 413 420 413 420 415

C420 418 423 424 425 427

C428 430 433 430 434 427

Z

M71 425

C75 422 72 417 67 417

C63 417 56 420 54 422

C53 424 53 424 55 425

C61 428 68 428 71 425

Z

M570 426

C572 426 574 424 574 424

C574 423 572 422 570 420

C564 417 557 417 555 419

C553 422 554 424 556 426

C558 428 564 429 570 426

Z

M502 425

C505 422 506 412 503 408

C502 407 502 407 499 409

C494 414 492 422 495 425

C497 426 501 426 502 425

Z

M521 425

C524 422 521 413 516 409

C514 407 514 407 513 408

C510 412 511 422 514 424

C515 426 519 426 521 425

Z

M138 420

C141 419 141 419 140 417

C137 414 131 412 127 412

C123 412 122 413 122 415

C119 421 129 424 138 420

Z

M211 421

C217 419 215 411 209 411

C205 411 195 416 195 418

C195 419 203 422 207 422

C208 422 210 422 211 421

Z

M486 418

C490 416 495 403 492 403

C490 403 483 406 481 409

C477 412 477 418 480 419

C483 420 483 420 486 418

Z

M537 418

C540 414 536 408 529 405

C523 402 522 402 524 409

C526 417 533 422 537 418

Z

M372 414

C375 412 380 407 380 406

C380 404 371 404 367 405

C361 407 359 411 363 414

C365 417 368 416 372 414

Z

M446 414

C449 412 448 407 443 405

C440 404 432 404 430 405

C427 407 438 416 443 416

C443 416 445 415 446 414

Z

M59 411

C65 408 66 401 60 400

C58 400 56 401 55 402

C52 403 47 411 47 413

C47 415 54 414 59 411

Z

M294 411

C295 410 296 407 296 405

C297 401 295 392 294 392

C293 392 291 395 289 397

C286 403 285 408 288 410

C290 412 291 412 294 411

Z

M312 411

C313 410 314 409 314 406

C314 402 312 398 308 395

L305 392

L304 396

C303 401 303 407 306 410

C308 412 309 412 312 411

Z

M146 407

C146 405 142 399 139 397

C136 395 133 394 131 397

C126 401 133 408 144 409

C145 409 146 408 146 407

Z

M15 403

C15 398 13 392 10 391

C9 390 7 390 6 390

C0 392 2 400 9 405

C11 407 14 408 14 408

C15 408 15 406 15 403

Z

M44 403

C49 398 51 394 48 391

C46 389 41 390 39 392

C36 397 35 408 38 408

C39 408 41 406 44 403

Z

M201 405

C205 403 206 401 206 398

C204 392 196 394 191 402

C188 408 188 408 194 408

C196 407 200 406 201 405

Z

M29 402

C31 396 32 390 29 388

C26 384 21 387 21 393

C21 398 24 406 26 406

C27 406 28 404 29 402

Z

M477 403

C481 400 484 396 482 395

C482 395 479 395 476 395

C467 395 461 400 466 404

C468 407 472 406 477 403

Z

M549 404

C552 402 552 399 549 396

C547 394 535 393 533 395

C532 396 532 396 535 399

C538 403 543 406 546 406

C546 406 548 405 549 404

Z

M277 404

C281 403 287 389 283 389

C281 389 276 392 273 395

C267 400 271 407 277 404

Z

M328 403

C331 401 330 397 326 394

C322 390 317 388 315 389

C314 391 317 399 320 402

C323 405 326 406 328 403

Z

M157 396

C156 389 154 385 150 384

C146 384 143 388 145 392

C147 396 153 402 156 402

C157 402 157 399 157 396

Z

M186 397

C191 392 192 388 189 386

C188 384 186 384 183 385

C179 387 176 402 180 402

C181 402 183 400 186 397

Z

M171 396

C172 394 173 390 173 388

C173 384 173 383 171 381

C168 380 168 380 166 381

C163 383 163 384 163 387

C163 392 166 400 168 400

C168 400 170 398 171 396

Z

M371 397

C376 395 377 394 376 392

C374 390 367 387 363 387

C357 387 355 395 361 397

C364 398 366 398 371 397

Z

M449 395

C452 393 452 390 449 387

C447 386 446 386 442 387

C438 388 430 393 431 394

C433 395 440 397 443 397

C445 397 448 396 449 395

Z

M266 391

C267 390 270 388 272 386

C276 381 275 380 268 380

C258 380 253 385 258 390

C260 392 262 393 266 391

Z

M342 389

C344 386 342 382 339 381

C337 380 326 380 325 381

C324 382 326 385 330 388

C335 391 340 392 342 389

Z

M98 387

C99 385 100 383 100 379

C100 376 100 373 99 371

L98 369

L95 371

C92 374 89 380 89 383

C89 385 92 389 94 389

C95 389 96 388 98 387

Z

M116 387

C117 386 118 384 118 383

C118 380 114 374 112 371

L109 369

L108 371

C107 373 107 377 107 379

C107 384 107 385 110 387

C113 389 113 390 116 387

Z

M475 386

C478 386 480 385 480 384

C481 383 471 377 467 377

C463 377 461 379 461 383

C461 384 462 386 464 387

C467 388 469 388 475 386

Z

M552 386

C555 384 555 378 551 376

C546 375 534 381 535 383

C536 386 549 388 552 386

Z

M49 382

C52 380 55 376 55 373

C55 371 54 371 51 371

L46 371

L46 367

C46 363 46 362 44 362

C37 362 32 369 32 379

C32 383 32 384 34 384

C37 385 46 384 49 382

Z

M383 383

C383 383 382 380 380 378

C377 374 373 370 370 370

C369 370 365 374 365 375

C365 378 368 381 373 382

C377 384 383 384 383 383

Z

M437 381

C443 378 444 372 440 370

C436 368 430 372 427 378

C426 380 425 382 425 382

C425 384 433 383 437 381

Z

M83 379

C86 376 88 371 88 367

C88 364 79 368 75 372

C73 376 72 378 75 380

C77 383 80 382 83 379

Z

M132 380

C133 379 134 377 134 377

C134 373 126 367 121 366

C119 366 119 366 119 368

C120 375 125 382 129 382

C129 382 131 381 132 380

Z

M424 372

C428 367 428 362 425 360

C420 357 415 364 415 373

L415 378

L418 377

C419 376 422 373 424 372

Z

M393 372

C393 363 388 357 383 360

C380 361 380 366 383 370

C385 373 390 377 392 377

C393 377 393 375 393 372

Z

M407 372

C410 366 411 361 409 358

C406 354 399 356 399 362

C399 366 403 376 405 376

C405 376 406 374 407 372

Z

M24 369

C28 363 28 357 25 352

C24 350 23 349 22 349

C22 349 20 351 18 352

L16 356

L12 353

C9 351 8 351 7 353

C5 355 6 362 8 366

C10 369 17 374 19 374

C20 374 22 372 24 369

Z

M485 372

C484 368 480 363 477 361

C473 360 470 360 469 363

C468 367 470 371 478 373

C479 374 481 374 483 374

C486 374 486 374 485 372

Z

M204 372

C207 370 208 364 206 357

L205 353

L202 356

C199 359 196 364 196 367

C196 372 200 374 204 372

Z

M224 370

C225 368 225 368 224 364

C222 359 217 353 215 354

C214 356 213 363 214 366

C215 373 220 375 224 370

Z

M269 371

C272 370 273 370 272 368

C268 364 258 361 255 364

C252 366 253 371 255 372

C257 373 264 373 269 371

Z

M342 372

C348 370 347 362 341 362

C336 362 327 367 327 369

C327 370 331 372 335 372

C338 373 340 373 342 372

Z

M540 371

C546 368 548 363 543 360

C539 358 532 363 529 370

C528 373 528 373 532 373

C534 373 537 372 540 371

Z

M75 363

C77 361 79 358 78 358

C78 357 67 357 64 358

C59 360 59 366 63 368

C66 369 71 367 75 363

Z

M146 366

C147 363 147 363 146 361

C144 358 137 356 132 357

C127 357 127 359 131 363

C138 369 143 370 146 366

Z

M497 365

C497 365 497 361 496 359

C495 352 491 348 488 349

C482 351 484 360 491 365

C495 367 496 368 497 365

Z

M525 363

C532 357 532 351 527 349

C522 348 518 355 518 363

C518 368 520 368 525 363

Z

M190 363

C193 360 196 351 195 350

C194 349 187 352 183 355

C178 360 179 366 185 366

C187 366 189 365 190 363

Z

M239 365

C241 363 240 359 237 356

C235 353 228 350 226 350

C223 350 228 363 232 365

C234 366 237 366 239 365

Z

M512 358

C514 350 513 346 508 346

C502 346 500 354 505 362

L507 366

L509 364

C510 363 511 360 512 358

Z

M278 359

C278 357 275 352 272 349

C266 344 261 345 261 351

C261 355 264 357 270 359

C276 360 278 360 278 359

Z

M333 356

C338 354 339 350 336 347

C334 344 331 345 327 348

C324 350 320 357 320 359

C320 360 329 358 333 356

Z

M448 355

C450 353 455 347 454 347

C454 346 452 346 450 345

L446 344

L446 340

L446 335

L442 335

C435 336 431 341 430 350

C429 355 429 355 432 356

C436 358 444 357 448 355

Z

M362 353

C367 351 367 350 363 347

C361 345 360 344 360 343

C360 343 361 341 363 340

C365 336 365 335 360 334

C357 333 355 333 353 334

C349 335 341 343 341 345

C341 348 352 355 357 355

C358 355 360 354 362 353

Z

M180 350

C184 346 186 343 184 342

C182 341 175 341 172 342

C167 344 165 347 168 351

C169 353 170 353 173 353

C175 352 178 351 180 350

Z

M251 351

C253 350 254 347 252 344

C250 341 239 340 235 342

C233 343 238 349 243 351

C248 353 248 353 251 351

Z

M288 347

C288 341 286 336 282 335

C279 334 277 336 276 340

C276 343 277 344 281 348

C284 351 287 353 287 353

C288 352 288 350 288 347

Z

M314 352

C317 350 322 345 323 342

C324 339 320 335 317 335

C313 336 311 340 310 347

C310 350 310 353 310 353

C311 353 312 352 314 352

Z

M303 346

C304 343 305 340 305 338

C305 335 302 331 300 331

C298 331 295 333 295 336

C294 340 297 351 300 351

C300 351 302 349 303 346

Z

M72 348

C74 348 76 346 76 346

C76 345 68 340 64 339

C61 339 60 339 58 341

C55 344 55 345 58 348

C60 350 66 351 72 348

Z

M402 348

C403 344 403 338 402 335

C400 331 397 328 393 327

C390 327 390 327 390 330

C390 335 389 336 384 336

C381 336 380 336 380 338

C380 340 384 346 388 348

C390 349 394 350 397 350

C401 350 402 350 402 348

Z

M149 347

C150 345 150 344 149 342

C149 340 148 339 144 339

C140 339 134 341 131 344

C128 348 145 351 149 347

Z

M565 347

C567 344 567 338 566 333

C565 328 564 328 561 331

C557 336 555 344 557 347

C559 348 564 348 565 347

Z

M423 339

C429 333 431 325 426 320

C425 318 425 318 422 321

L419 324

L415 321

C411 318 410 318 408 324

C406 328 408 333 413 339

C415 341 418 343 418 343

C418 343 421 341 423 339

Z

M23 340

C25 339 26 336 24 333

C23 331 16 327 12 326

C10 325 10 325 10 327

C10 331 15 340 17 341

C20 342 20 342 23 340

Z

M549 340

C551 338 553 334 554 329

C555 326 555 326 553 326

C550 326 542 331 541 333

C537 340 544 345 549 340

Z

M523 334

C523 326 521 321 516 319

C511 316 510 317 510 322

L510 326

L506 326

C501 326 501 326 501 329

C501 336 508 341 519 341

L523 341

L523 334

Z

M80 332

C75 323 64 319 64 328

C64 332 70 336 78 336

L82 336

L80 332

Z

M136 333

C142 330 143 323 137 322

C135 322 133 323 132 324

C129 325 124 333 124 335

C124 336 131 335 136 333

Z

M180 332

C184 331 183 329 177 326

C170 323 163 324 163 328

C163 334 170 336 180 332

Z

M255 332

C256 331 257 329 257 329

C257 326 253 323 251 323

C248 323 239 327 238 329

C237 330 237 331 242 333

C247 335 253 334 255 332

Z

M92 325

C92 321 90 314 88 313

C87 312 85 312 84 312

C80 312 78 316 81 321

C82 324 89 330 91 330

C92 330 92 328 92 325

Z

M121 325

C125 322 126 320 126 317

C126 314 124 312 121 312

C117 312 114 317 114 324

C114 327 114 330 115 330

C116 330 118 328 121 325

Z

M36 326

C40 323 38 319 32 317

C28 316 19 316 19 318

C19 319 23 323 26 326

C31 328 34 329 36 326

Z

M106 324

C110 317 109 309 104 308

C100 307 98 311 98 316

C99 321 102 328 103 328

C104 328 105 326 106 324

Z

M536 327

C540 325 545 320 545 318

C545 317 543 317 537 317

C531 317 530 318 528 320

C526 323 526 324 528 326

C529 328 533 328 536 327

Z

M449 321

C452 318 451 304 448 304

C447 304 443 310 441 315

C439 321 445 326 449 321

Z

M468 321

C469 320 469 318 469 317

C469 314 463 305 461 304

C458 303 457 318 460 321

C462 324 467 323 468 321

Z

M188 320

C188 316 180 307 176 307

C171 307 169 313 173 316

C177 320 188 322 188 320

Z

M242 318

C248 315 250 310 245 307

C242 305 236 309 233 314

C232 316 231 318 231 319

C231 321 237 320 242 318

Z

M336 318

C339 315 339 311 338 305

C337 301 337 300 335 301

C332 303 328 310 328 314

C328 320 333 322 336 318

Z

M355 319

C356 317 356 312 355 309

C354 306 349 301 348 301

C346 301 345 308 345 312

C346 319 351 322 355 319

Z

M434 315

C436 313 439 306 439 303

C439 300 439 300 437 301

C432 302 429 304 427 307

C423 311 423 312 426 315

C428 317 431 317 434 315

Z

M484 314

C485 312 485 310 484 309

C483 306 477 301 473 300

C470 300 470 300 470 302

C470 305 473 311 475 314

C478 317 483 317 484 314

Z

M199 310

C199 300 193 293 188 298

C185 300 186 304 191 309

C197 315 199 315 199 310

Z

M226 312

C229 309 233 304 233 301

C233 300 232 299 231 298

C228 295 224 296 223 300

C220 305 219 314 222 314

C222 314 224 313 226 312

Z

M321 311

C325 307 328 297 326 297

C324 297 317 300 315 303

C312 306 311 310 313 312

C315 314 319 313 321 311

Z

M371 312

C373 309 372 305 369 302

C365 299 358 296 357 297

C356 299 359 307 362 310

C365 313 369 314 371 312

Z

M213 308

C214 305 215 302 215 299

C215 296 215 295 213 293

C210 292 210 292 207 293

C205 295 205 296 205 301

C206 306 208 312 210 312

C211 312 212 310 213 308

Z

M282 310

C286 307 287 305 283 304

C279 301 279 301 281 296

C283 292 283 291 275 291

C272 291 270 292 267 294

C264 297 260 304 260 305

C260 306 262 307 265 309

C272 313 277 313 282 310

Z

M71 310

C72 308 72 299 71 295

C69 291 66 289 62 287

C59 287 59 287 59 291

L59 296

L54 296

C51 296 49 296 49 297

C49 300 52 306 54 307

C59 311 69 312 71 310

Z

M537 309

C543 307 543 306 539 303

C533 299 527 298 525 301

C521 304 524 310 531 310

C532 310 535 309 537 309

Z

M39 308

C41 307 42 302 39 300

C37 298 30 299 25 302

C24 303 22 305 22 305

C22 308 35 310 39 308

Z

M422 301

C425 299 430 294 430 293

C430 291 421 291 417 292

C411 294 409 298 413 301

C415 304 418 303 422 301

Z

M496 301

C499 299 498 294 493 292

C490 291 482 291 480 292

C479 293 479 293 481 295

C483 299 485 300 489 302

C492 303 493 303 496 301

Z

M310 298

C315 295 318 290 316 289

C315 288 313 288 311 288

C301 288 296 292 299 297

C301 301 304 301 310 298

Z

M384 298

C386 296 385 293 383 290

C381 288 370 287 368 289

C366 290 366 290 369 293

C373 299 380 301 384 298

Z

M144 293

C146 284 142 276 135 274

L132 273

L132 278

L131 283

L126 282

L122 282

L122 286

C123 293 129 297 139 297

L144 297

L144 293

Z

M547 294

C546 288 540 283 536 283

C533 283 531 285 531 289

C531 291 532 292 536 294

C538 295 542 296 544 296

C548 296 548 296 547 294

Z

M26 294

C34 290 35 282 28 282

C24 282 20 286 17 292

L15 295

L19 295

C21 295 25 294 26 294

Z

M238 288

C242 280 242 274 237 269

C235 267 233 266 233 266

C233 266 231 268 231 270

C230 272 229 274 229 274

C228 274 226 273 224 273

C220 271 220 271 219 274

C218 278 220 282 223 285

C225 288 233 292 235 292

C236 292 237 290 238 288

Z

M11 287

C16 283 18 278 17 275

C15 270 9 271 7 277

C5 281 4 290 6 290

C6 290 8 289 11 287

Z

M165 285

C171 279 172 273 168 267

L167 265

L163 267

C162 269 160 270 159 270

C159 270 157 269 156 267

C153 265 153 265 152 267

C147 272 149 278 155 285

C160 290 160 291 165 285

Z

M260 288

C267 284 271 277 269 272

C268 269 268 269 265 271

C260 273 260 272 258 269

C256 265 255 264 253 266

C248 270 247 277 250 284

C253 291 254 291 260 288

Z

M559 286

C559 282 557 276 555 274

C553 272 549 271 547 273

C544 276 547 283 553 287

C558 290 559 290 559 286

Z

M76 287

C79 285 79 280 78 275

C77 270 76 269 74 271

C70 274 66 285 69 288

C71 290 74 289 76 287

Z

M95 288

C98 285 95 276 90 272

C87 269 86 270 85 276

C85 282 85 285 88 287

C89 289 93 289 95 288

Z

M424 282

C427 281 427 281 426 279

C424 277 417 274 413 274

C407 274 405 282 411 284

C414 285 421 284 424 282

Z

M499 282

C502 280 502 277 499 274

C497 273 496 273 492 274

C488 275 480 280 481 281

C483 282 490 284 493 284

C495 284 498 283 499 282

Z

M61 281

C63 279 66 272 66 269

C66 266 66 266 64 267

C60 268 57 270 54 272

C48 279 54 286 61 281

Z

M111 280

C112 278 112 276 111 275

C110 272 104 267 100 266

C97 266 97 266 97 268

C97 271 100 277 102 280

C105 283 110 283 111 280

Z

M312 279

L315 277

L311 275

C306 271 299 270 297 272

C295 273 295 278 296 280

C298 282 308 281 312 279

Z

M387 279

C390 276 390 275 387 272

C385 270 384 270 381 270

C376 271 369 275 369 277

C369 278 369 278 369 278

C369 278 371 279 374 279

C380 282 384 281 387 279

Z

M531 278

C533 277 535 276 535 274

C537 272 537 272 533 270

L529 268

L531 264

C534 259 533 258 526 258

C523 258 519 260 516 263

C515 265 511 272 511 273

C511 273 513 275 516 276

C521 279 527 280 531 278

Z

M433 270

C433 270 432 267 430 265

C427 261 423 257 420 257

C419 257 415 261 415 262

C415 265 418 268 423 269

C427 271 433 271 433 270

Z

M485 269

C490 267 492 264 492 261

C492 256 487 255 482 259

C479 261 475 268 475 269

C475 271 482 270 485 269

Z

M50 267

C53 264 57 260 57 259

C57 258 51 257 47 257

C39 259 36 264 40 267

C42 270 45 269 50 267

Z

M123 267

C126 265 126 262 123 259

C121 257 109 256 107 258

C106 259 106 259 109 262

C112 266 117 269 120 269

C120 269 122 268 123 267

Z

M320 267

C320 263 312 254 308 254

C303 254 301 261 306 264

C310 267 320 269 320 267

Z

M375 264

C380 262 381 258 378 255

C377 253 376 253 373 253

C370 254 365 260 363 264

L362 267

L367 267

C370 266 374 265 375 264

Z

M443 259

C443 250 438 244 433 247

C430 248 430 253 433 257

C435 260 440 264 442 264

C443 264 443 262 443 259

Z

M473 260

C476 256 477 255 477 252

C477 249 476 248 475 247

C470 244 465 250 465 259

C465 265 467 265 473 260

Z

M457 259

C460 253 461 248 459 245

C456 241 449 243 449 249

C449 253 453 263 455 263

C455 263 456 261 457 259

Z

M410 261

C411 259 411 250 410 246

C408 242 405 240 401 238

C398 238 398 238 398 242

L398 247

L393 247

C388 247 388 247 389 250

C390 256 394 260 400 261

C405 262 408 262 410 261

Z

M331 258

C332 251 327 243 323 243

C321 243 318 246 318 248

C318 251 321 256 325 259

C329 261 330 261 331 258

Z

M359 257

C364 253 366 249 364 246

C359 239 352 246 352 257

C352 262 354 262 359 257

Z

M344 256

C348 248 348 242 344 240

C341 239 338 241 337 244

C335 248 339 259 342 259

C342 259 344 257 344 256

Z

M512 256

C516 254 519 250 519 245

L519 242

L514 242

L510 243

L509 238

L508 234

L504 236

C500 238 497 243 497 247

C497 249 498 252 498 255

L499 259

L504 259

C506 258 510 257 512 256

Z

M17 253

C21 251 24 246 24 242

C24 239 24 239 19 239

L15 240

L14 236

C14 232 13 232 11 232

C6 232 0 241 2 248

C3 256 3 255 8 255

C11 254 15 253 17 253

Z

M221 253

C224 251 225 243 223 237

L221 234

L218 237

C211 244 211 254 218 254

C219 254 220 254 221 253

Z

M240 252

C242 251 242 246 240 243

C239 240 234 235 233 235

C231 235 230 243 231 247

C231 249 232 251 233 252

C235 254 238 255 240 252

Z

M51 249

C55 247 55 246 49 243

C41 238 34 240 35 246

C36 251 41 252 51 249

Z

M169 249

C170 248 169 247 167 244

L165 241

L169 237

C172 235 172 234 170 233

C167 230 164 229 161 229

C158 229 152 232 148 235

L146 237

L148 240

C151 245 155 249 159 250

C161 251 167 250 169 249

Z

M126 248

C130 245 128 239 123 239

C118 239 109 244 109 246

C110 250 123 251 126 248

Z

M207 244

C210 241 213 232 212 231

C211 230 204 233 200 236

C196 240 196 244 199 246

C202 248 205 247 207 244

Z

M256 246

C258 243 257 239 254 236

C250 233 243 230 242 231

C241 232 244 240 247 244

C249 247 253 248 256 246

Z

M299 234

C299 225 297 222 292 219

C289 218 287 217 287 217

C287 218 287 220 286 222

L285 227

L281 226

C277 226 277 226 277 228

C277 236 284 241 294 241

L299 241

L299 234

Z

M60 236

C60 234 55 227 52 225

C48 222 47 222 44 225

C40 229 43 233 50 236

C54 237 60 237 60 236

Z

M554 234

C558 228 556 220 550 215

C547 211 546 212 540 218

C537 221 536 223 535 226

C535 230 536 236 538 236

C538 236 540 235 542 233

L545 231

L548 234

C551 238 552 238 554 234

Z

M114 234

C119 232 121 228 119 225

C116 220 110 222 105 230

C103 232 102 235 102 235

C102 237 109 236 114 234

Z

M197 231

C200 228 203 224 202 223

C201 223 199 223 197 222

C192 222 186 224 184 227

C183 229 183 229 184 232

C186 234 187 234 190 234

C192 233 195 232 197 231

Z

M268 232

C271 230 271 227 268 224

C266 222 255 221 253 223

C251 224 251 224 254 227

C256 230 263 234 265 234

C265 234 267 233 268 232

Z

M70 228

C71 225 69 218 67 215

C65 212 62 211 60 214

C56 217 59 224 65 228

C69 230 70 230 70 228

Z

M99 226

C105 221 106 214 101 213

C96 211 92 217 92 225

C92 231 94 231 99 226

Z

M85 224

C86 221 87 217 87 216

C87 210 81 207 78 211

C76 213 76 214 76 217

C77 221 80 229 82 229

C82 229 83 227 85 224

Z

M335 227

C336 226 337 224 337 222

C338 218 336 209 335 209

C332 210 327 219 327 223

C327 229 332 231 335 227

Z

M353 228

C357 226 355 217 349 212

L346 209

L345 213

C344 218 344 224 347 227

C349 229 350 229 353 228

Z

M446 227

C448 225 449 217 447 212

L446 209

L443 211

C440 214 437 220 437 223

C437 226 440 229 442 229

C443 229 445 228 446 227

Z

M465 226

C467 223 465 218 461 212

L457 209

L456 211

C454 216 455 225 457 227

C460 230 463 230 465 226

Z

M523 225

C529 223 531 218 531 210

L531 205

L525 204

C518 204 513 206 510 210

C507 215 507 217 512 217

L517 218

L517 222

C517 225 518 227 518 227

C519 227 521 226 523 225

Z

M321 219

C323 216 326 207 325 206

C325 205 317 209 314 211

C311 214 310 218 312 221

C314 223 319 222 321 219

Z

M369 220

C372 218 371 215 368 212

C363 207 356 204 356 207

C356 211 358 216 361 219

C364 222 367 223 369 220

Z

M431 219

C435 215 437 206 435 206

C432 206 425 210 423 213

C417 220 425 226 431 219

Z

M481 220

C482 218 482 217 481 215

C480 212 474 207 469 206

C466 206 466 206 467 209

C468 214 469 216 472 219

C475 223 478 223 481 220

Z

M162 219

C166 217 168 215 169 210

L169 207

L165 207

C160 207 160 207 160 204

C160 199 159 198 155 199

C150 201 147 205 146 212

C146 215 146 219 146 219

C147 222 157 222 162 219

Z

M23 214

C27 211 25 204 19 199

L16 196

L15 200

C13 206 14 212 17 214

C20 216 21 216 23 214

Z

M197 213

C201 212 200 210 194 207

C186 203 180 205 180 210

C180 213 181 214 185 215

C187 216 193 215 197 213

Z

M272 213

C273 212 274 210 274 210

C274 207 270 204 268 204

C265 204 255 209 254 211

C254 212 261 215 266 215

C269 215 271 214 272 213

Z

M136 209

C141 204 142 200 141 195

C140 190 138 189 134 193

L131 195

L127 192

L124 189

L122 192

C120 196 119 200 122 204

C124 208 129 214 131 214

C131 214 134 212 136 209

Z

M39 207

C40 206 41 205 41 204

C41 201 35 195 30 194

C26 192 26 192 26 194

C26 197 29 203 31 206

C34 209 37 210 39 207

Z

M308 207

C310 206 313 203 314 202

C317 198 316 197 309 197

C300 197 294 203 299 207

C302 210 304 209 308 207

Z

M418 207

C419 207 422 204 424 202

L427 199

L425 198

C421 196 412 198 410 200

C408 202 407 207 410 208

C412 209 414 209 418 207

Z

M565 207

C569 203 572 193 570 193

C564 193 556 200 556 204

C556 209 561 211 565 207

Z

M383 207

C385 205 384 201 381 199

C379 197 377 197 372 197

C369 197 366 197 366 198

C365 199 369 204 372 206

C376 208 381 209 383 207

Z

M493 206

C497 201 492 197 483 197

C476 197 475 198 477 201

C482 208 490 210 493 206

Z

M205 201

C205 197 197 188 193 188

C188 188 186 194 190 197

C194 201 205 203 205 201

Z

M259 199

C265 196 267 190 262 188

C258 186 253 190 250 196

L247 201

L251 201

C253 201 256 200 259 199

Z

M526 193

C532 190 532 189 530 185

C526 176 519 172 511 175

L509 176

L511 179

C514 184 514 184 509 187

C506 189 506 189 508 191

C512 196 519 197 526 193

Z

M551 195

C555 193 561 187 561 185

C560 183 549 184 546 185

C540 188 541 194 548 196

C548 196 550 195 551 195

Z

M52 193

C56 190 54 186 47 184

C43 183 35 184 35 185

C35 186 40 192 43 193

C47 195 50 195 52 193

Z

M216 190

C215 180 210 174 205 179

C201 182 203 188 210 193

C215 196 216 196 216 190

Z

M244 191

C249 187 251 183 249 180

C244 173 237 180 237 191

C237 196 239 196 244 191

Z

M230 189

C234 181 232 174 227 174

C222 174 221 177 222 184

C223 189 226 194 227 193

C228 193 229 191 230 189

Z

M311 188

L314 186

L310 184

C305 180 298 179 296 181

C294 182 294 187 295 189

C297 191 307 190 311 188

Z

M386 188

C390 183 385 177 377 180

C373 181 367 185 368 187

C369 188 377 190 380 190

C382 190 384 189 386 188

Z

M421 188

C424 187 424 187 423 185

C421 183 414 180 411 180

C405 180 402 184 406 188

C408 190 416 191 421 188

Z

M494 189

C498 188 499 184 496 181

C495 179 494 179 491 179

C487 180 478 184 478 186

C478 187 486 190 490 190

C491 190 493 190 494 189

Z

M123 178

C126 175 126 168 124 162

L123 160

L121 162

C118 164 116 169 114 173

C114 175 114 176 116 178

C119 181 120 181 123 178

Z

M141 178

C145 175 142 167 137 162

L134 160

L133 163

C129 174 135 184 141 178

Z

M56 175

C57 173 57 169 56 167

C53 164 43 167 39 171

C37 173 38 174 44 176

C49 177 54 177 56 175

Z

M319 176

C319 174 316 169 313 166

C308 162 305 162 302 166

C301 168 301 168 302 170

C304 173 307 175 312 176

C316 177 319 177 319 176

Z

M429 175

C429 173 425 167 422 165

C419 163 416 162 414 165

C409 169 416 176 427 177

C428 177 429 176 429 175

Z

M555 175

L559 173

L556 171

C554 169 551 168 548 167

C545 166 543 166 541 167

C539 169 538 173 541 175

C543 178 550 178 555 175

Z

M373 173

C378 171 380 168 378 165

C375 161 371 161 367 166

C365 168 363 171 362 173

L361 176

L365 176

C368 176 371 174 373 173

Z

M481 175

C487 173 489 170 489 167

C489 164 487 162 484 162

C480 162 472 171 472 175

C472 176 477 176 481 175

Z

M108 171

C111 168 113 163 113 159

C113 157 113 157 110 157

C106 158 100 163 99 166

C96 172 103 176 108 171

Z

M157 171

C160 169 159 167 157 164

C155 161 148 157 146 157

C143 157 144 161 146 166

C149 172 154 175 157 171

Z

M330 168

C330 164 327 154 325 153

C322 151 318 153 317 156

C316 159 319 164 324 167

C328 171 329 171 330 168

Z

M358 167

C363 162 365 158 363 154

C361 153 360 152 358 152

C354 153 352 157 351 164

C351 171 352 172 358 167

Z

M440 164

C439 157 437 153 433 152

C429 152 426 156 428 160

C430 164 436 170 439 170

C440 170 440 167 440 164

Z

M467 168

C472 164 475 159 473 155

C472 152 469 151 466 153

C464 154 461 164 462 167

C462 171 463 171 467 168

Z

M262 164

C266 159 266 157 262 156

C257 155 257 155 257 150

L258 146

L253 146

C248 147 244 151 242 157

C240 164 241 166 244 167

C246 167 250 168 253 168

C258 167 259 167 262 164

Z

M344 163

C345 160 346 157 346 155

C346 152 343 148 341 148

C337 148 335 153 335 158

C336 162 339 168 341 168

C341 168 343 166 344 163

Z

M454 164

C455 162 456 158 456 156

C456 152 456 151 454 149

C451 148 451 148 449 149

C446 151 446 152 446 155

C446 160 449 168 451 168

C451 168 453 166 454 164

Z

M43 160

C45 159 47 157 48 156

C49 153 49 153 48 151

C45 148 42 148 38 152

C35 154 31 161 31 163

C31 164 40 162 43 160

Z

M564 162

C564 161 559 153 557 152

C551 148 547 150 547 156

C548 159 554 163 560 163

C562 163 564 163 564 162

Z

M214 160

C214 159 214 156 214 153

C214 145 211 140 204 138

C202 137 202 137 201 141

L201 146

L196 146

C192 146 192 146 192 149

C192 153 197 158 201 160

C206 161 213 161 214 160

Z

M95 159

C96 158 99 155 101 153

C105 149 104 148 97 148

C88 148 82 153 87 158

C89 160 91 161 95 159

Z

M409 156

C411 148 408 141 403 139

C398 136 397 137 396 142

L396 146

L391 146

C388 146 387 146 387 148

C387 155 394 160 403 160

L409 160

L409 156

Z

M171 157

C173 154 171 150 167 149

C164 148 154 148 153 149

C153 150 154 151 155 153

C161 159 169 161 171 157

Z

M27 154

C29 153 31 150 32 148

C34 144 34 144 33 141

C30 138 26 139 24 142

C21 145 20 157 22 157

C22 157 24 156 27 154

Z

M15 147

C16 142 16 140 14 137

C12 134 7 135 6 138

C5 141 6 149 9 153

L10 155

L12 153

C13 152 14 149 15 147

Z

M235 149

C240 143 242 138 240 134

C238 129 236 128 233 132

C230 134 229 134 225 131

C223 129 223 129 221 131

C218 136 219 142 224 149

C226 151 229 153 230 153

C231 153 233 151 235 149

Z

M501 144

C502 141 502 130 500 129

C498 127 493 133 492 138

C490 144 492 147 496 147

C498 147 500 146 501 144

Z

M519 144

C520 142 520 142 519 138

C517 133 512 127 510 128

C510 129 509 132 509 136

C509 142 509 143 511 145

C513 148 517 148 519 144

Z

M356 144

C361 140 362 132 358 124

L356 120

L352 122

C344 124 339 130 339 136

C339 141 340 141 344 140

C349 138 350 138 351 143

C352 147 353 147 356 144

Z

M445 140

C446 137 447 136 448 136

C448 136 450 136 452 137

C456 137 456 137 456 134

C456 127 449 120 441 120

C437 120 437 120 435 124

C434 126 434 130 434 132

C435 137 435 138 438 141

C440 143 442 144 443 144

C443 144 444 142 445 140

Z

M98 140

C99 139 101 138 101 137

C101 135 94 132 89 131

C85 131 84 131 82 133

C81 136 81 136 82 139

C84 141 85 141 89 141

C92 141 96 140 98 140

Z

M173 139

C176 137 176 132 172 131

C168 129 162 131 158 134

C155 137 155 138 161 140

C166 141 170 141 173 139

Z

M482 140

C485 139 489 133 490 128

C490 124 490 124 488 124

C484 126 477 130 476 132

C474 135 475 138 477 139

C480 141 479 141 482 140

Z

M534 139

C536 137 535 133 532 130

C530 127 523 124 521 124

C519 124 522 134 526 138

C528 140 532 141 534 139

Z

M43 122

C45 118 43 112 38 107

L35 103

L31 106

C25 110 21 116 22 121

C24 127 24 128 29 125

L32 122

L35 126

C38 129 38 129 40 127

C41 127 42 124 43 122

Z

M263 127

C266 125 267 119 265 113

C264 108 262 108 258 115

C255 120 254 124 257 127

C259 129 260 129 263 127

Z

M281 128

C283 127 283 125 283 123

C283 120 279 111 276 110

C274 109 274 110 273 114

C272 120 273 126 275 128

C278 129 279 129 281 128

Z

M107 127

C107 126 103 119 100 117

C96 114 93 113 91 116

C87 120 91 125 100 127

C103 128 107 128 107 127

Z

M158 126

C163 124 166 121 166 118

C166 110 156 112 151 122

C150 124 149 126 149 126

C149 127 154 127 158 126

Z

M334 125

C338 123 341 117 342 112

C342 108 342 108 337 107

C335 106 331 105 330 105

C325 105 320 108 318 111

L317 114

L321 116

C325 117 326 118 324 123

C323 124 323 126 324 126

C325 128 330 127 334 125

Z

M471 126

C474 124 480 119 480 117

C480 115 469 115 464 118

C462 119 461 124 463 126

C465 127 468 127 471 126

Z

M546 126

C549 125 549 120 546 117

C544 115 535 114 531 116

L529 117

L532 120

C534 123 540 127 543 127

C544 127 545 127 546 126

Z

M410 124

C411 123 412 121 412 120

C412 117 409 111 406 108

L403 106

L402 108

C401 110 401 113 401 116

C401 120 402 122 403 124

C406 127 407 127 410 124

Z

M392 123

C394 120 395 112 393 108

L392 106

L389 108

C387 111 383 117 383 120

C383 125 389 127 392 123

Z

M62 119

L62 115

L67 115

L72 116

L72 113

C72 106 66 100 57 99

C51 99 51 99 50 107

C50 114 51 119 55 121

C60 124 61 123 62 119

Z

M247 121

C249 120 252 114 253 109

C254 107 254 106 253 106

C250 106 245 109 242 112

C236 117 240 125 247 121

Z

M297 121

C302 118 298 111 291 107

C285 105 284 105 285 109

C286 116 290 122 294 122

C294 122 296 122 297 121

Z

M117 116

C117 107 111 100 106 104

C105 106 105 110 107 114

C108 116 115 121 116 121

C117 121 117 119 117 116

Z

M143 120

C152 115 154 102 146 103

C142 104 140 108 139 115

C139 118 139 121 139 121

C140 121 141 120 143 120

Z

M202 116

C204 115 207 112 208 109

C210 105 210 104 209 101

C208 99 208 97 208 97

C207 97 205 98 203 99

C199 102 200 102 195 96

C194 94 194 94 192 95

C190 97 188 102 188 105

C188 108 191 116 194 118

C195 120 197 120 202 116

Z

M131 115

C132 114 133 110 134 108

C134 104 134 103 132 101

C129 98 128 98 125 101

C122 104 122 108 125 114

C127 120 129 120 131 115

Z

M377 116

C380 113 382 108 382 104

C382 101 375 104 371 108

C367 112 366 114 369 117

C371 120 374 119 377 116

Z

M426 117

C429 114 429 113 425 109

C422 106 414 101 413 103

C412 103 414 110 416 113

C417 116 421 119 423 119

C424 119 425 118 426 117

Z

M236 107

C240 105 245 100 244 98

C242 95 226 98 226 101

C226 101 226 103 225 103

C225 105 228 109 230 109

C231 109 233 108 236 107

Z

M475 106

L478 105

L475 102

C472 100 467 98 463 98

C458 98 456 106 461 108

C464 109 471 108 475 106

Z

M311 106

C313 103 311 99 308 98

C305 97 295 96 294 98

C293 99 298 105 302 107

C305 108 310 108 311 106

Z

M550 106

C553 103 553 102 550 99

C548 97 547 97 544 97

C539 99 531 103 532 105

C536 108 547 109 550 106

Z

M365 103

C369 101 373 96 372 95

C371 94 360 94 358 95

C355 97 354 98 354 101

C354 105 360 106 365 103

Z

M440 103

C441 100 441 100 440 98

C438 94 432 93 426 93

C421 94 421 96 425 99

C431 105 437 107 440 103

Z

M483 94

C483 91 477 83 473 82

C468 80 464 87 468 90

C472 94 483 97 483 94

Z

M536 93

C540 91 543 88 543 85

C543 82 539 80 536 81

C532 82 526 90 526 93

C526 94 532 94 536 93

Z

M238 88

L242 86

L239 84

C232 78 223 78 222 84

C221 90 230 92 238 88

Z

M311 89

C317 87 316 79 310 79

C305 79 296 84 296 86

C296 87 304 90 307 90

C308 90 310 90 311 89

Z

M54 87

C55 86 56 84 57 82

C57 78 55 69 54 69

C51 70 46 79 46 83

C46 88 51 91 54 87

Z

M72 88

C76 86 74 77 68 72

L65 69

L64 73

C63 79 63 84 66 87

C68 89 69 89 72 88

Z

M525 82

C528 77 529 74 526 72

C524 69 523 70 520 72

C517 74 515 82 516 86

L516 89

L519 87

C521 86 524 84 525 82

Z

M494 84

C494 78 491 71 488 71

C485 70 482 72 481 75

C481 78 484 82 488 86

C493 89 494 89 494 84

Z

M345 85

C346 84 345 83 343 80

L341 76

L344 73

C346 72 347 70 347 70

C347 68 341 65 338 65

C334 65 327 68 324 71

L322 74

L324 77

C327 82 329 84 334 85

C337 87 342 86 345 85

Z

M367 85

C369 84 370 83 370 83

C369 81 359 76 356 76

C354 76 350 79 350 82

C350 82 351 84 352 85

C354 87 355 87 359 87

C362 86 366 86 367 85

Z

M508 82

C510 78 511 70 509 68

C508 68 506 67 505 67

C501 67 500 69 500 74

C500 78 504 87 505 86

C506 86 507 84 508 82

Z

M442 84

C444 82 445 79 443 77

C440 74 429 77 425 81

C424 83 424 83 427 84

C432 86 440 86 442 84

Z

M127 83

C135 79 138 72 136 65

L135 62

L132 64

C127 67 126 67 124 63

L121 59

L119 62

C115 65 114 70 116 75

C117 78 121 85 123 85

C123 85 125 84 127 83

Z

M38 81

C42 79 46 66 43 66

C41 66 36 69 33 72

C27 77 31 85 38 81

Z

M88 80

C91 78 90 74 86 71

C82 67 77 65 75 66

C74 68 77 76 80 79

C83 82 86 83 88 80

Z

M171 78

C174 76 175 70 174 64

C173 61 172 59 172 59

C170 59 165 66 164 70

C163 74 164 78 167 78

C168 79 169 79 169 79

C169 79 170 79 171 78

Z

M190 77

C194 74 192 67 186 62

L183 59

L182 63

C180 68 181 75 184 77

C187 79 188 79 190 77

Z

M247 75

C247 74 242 66 240 65

C235 61 230 63 230 68

C230 71 233 74 237 75

C239 76 247 76 247 75

Z

M302 73

C306 71 308 68 307 65

C306 63 302 61 298 63

C295 64 290 72 290 74

C290 76 290 76 294 76

C296 75 300 74 302 73

Z

M374 70

C372 64 367 60 364 60

C355 60 357 69 365 72

C366 72 369 73 372 73

L376 73

L374 70

Z

M157 70

C162 64 164 56 160 56

C157 56 149 62 148 65

C146 70 152 74 157 70

Z

M206 70

C207 69 208 68 208 67

C208 64 202 58 197 57

L193 55

L193 58

C193 63 199 72 203 72

C204 72 205 71 206 70

Z

M430 70

C436 67 437 60 430 59

C427 59 423 62 420 67

C419 69 418 71 418 71

C418 73 426 72 430 70

Z

M258 66

C258 63 257 60 256 57

C254 53 253 52 251 52

C247 52 245 54 245 57

C245 61 254 70 257 70

C258 70 258 68 258 66

Z

M285 67

C292 61 294 54 288 52

C285 52 283 53 281 56

C279 62 278 70 281 70

C281 70 283 69 285 67

Z

M26 68

C27 67 30 65 32 63

C36 58 35 57 28 57

C18 57 13 62 18 67

C20 69 22 70 26 68

Z

M544 66

C547 64 550 58 550 52

C550 48 550 48 547 47

C537 45 529 48 527 56

C526 58 526 58 531 59

L535 59

L534 64

L534 69

L537 69

C540 68 542 67 544 66

Z

M102 66

C104 63 102 59 99 58

C97 57 86 57 85 58

C84 59 86 62 90 65

C95 68 100 69 102 66

Z

M272 64

C276 55 274 47 268 48

C265 49 263 53 264 58

C265 62 268 68 269 68

C269 68 271 66 272 64

Z

M384 54

C382 49 382 49 379 49

C376 49 375 49 374 52

C372 56 376 61 382 65

L386 67

L386 63

C386 60 385 56 384 54

Z

M417 61

C422 55 421 49 415 49

C411 49 408 54 408 61

L408 67

L411 66

C412 65 415 62 417 61

Z

M400 61

C402 56 403 49 401 47

C398 43 392 46 392 52

C392 56 396 65 398 65

C398 65 399 63 400 61

Z

M145 56

C149 55 153 49 152 48

C150 46 138 47 136 49

C133 52 133 55 136 57

C138 59 140 59 145 56

Z

M219 56

C223 53 221 49 214 47

C210 46 202 47 202 48

C202 50 207 55 210 56

C214 58 217 58 219 56

Z

M336 56

C340 54 343 49 343 45

C343 43 342 43 339 43

C334 43 333 42 333 36

C333 34 333 34 331 35

C324 37 321 41 321 49

C320 58 321 58 327 58

C330 57 334 56 336 56

Z

M311 46

C315 41 316 35 314 30

C313 28 312 27 311 27

C311 27 309 28 307 30

L305 33

L302 30

C300 28 298 27 298 27

C296 27 294 33 294 37

C294 41 298 47 302 50

C305 52 307 51 311 46

Z

M29 48

C32 47 33 47 32 45

C28 41 17 38 14 41

C12 43 13 48 15 49

C17 50 24 50 29 48

Z

M103 49

C109 46 107 39 101 39

C95 39 85 45 87 47

C88 48 96 50 98 50

C100 50 102 50 103 49

Z

M455 45

C456 36 453 29 446 26

C442 25 442 25 442 27

C442 33 441 34 436 34

C433 34 432 34 432 36

C432 39 434 43 436 45

C439 47 445 49 450 49

C454 49 454 49 455 45

Z

M498 39

C500 37 501 29 499 24

L498 21

L495 23

C492 26 489 32 489 35

C489 38 492 41 494 41

C495 41 497 40 498 39

Z

M517 38

C518 36 518 35 517 32

C516 28 511 22 509 22

C507 22 506 35 509 39

C511 42 515 42 517 38

Z

M146 39

C151 37 151 35 147 33

C137 27 130 29 131 36

C131 40 139 41 146 39

Z

M223 38

C224 36 224 32 223 30

C220 28 212 29 206 34

L204 36

L206 37

C211 40 220 40 223 38

Z

M38 36

C38 34 35 29 32 26

C26 21 21 22 21 28

C21 32 24 34 30 36

C36 37 38 37 38 36

Z

M93 33

C98 31 99 27 97 24

C94 21 90 21 86 26

C84 28 82 31 81 33

L80 36

L85 36

C87 35 91 34 93 33

Z

M483 31

C487 27 489 18 487 18

C484 18 477 22 475 25

C469 32 477 38 483 31

Z

M532 33

C534 31 533 26 530 23

C527 20 520 17 518 18

C517 19 521 29 523 31

C526 34 530 35 532 33

Z

M567 28

C572 23 574 17 572 13

C571 11 570 9 569 8

C568 7 567 7 565 10

L562 13

L558 10

C555 8 555 8 553 10

C551 13 551 18 553 21

C554 25 561 32 563 32

C563 32 565 30 567 28

Z

M48 25

C48 16 45 12 40 12

C38 12 36 15 36 18

C36 21 45 30 47 30

C48 29 48 27 48 25

Z

M77 27

C82 22 84 18 82 14

C80 13 79 12 77 12

C73 13 71 17 70 24

C70 31 71 32 77 27

Z

M396 24

C396 21 395 19 393 15

C391 13 389 10 388 10

C387 10 385 16 385 20

C385 24 387 28 389 29

C393 30 395 28 396 24

Z

M378 26

C378 24 379 21 379 20

C379 16 377 10 376 10

C373 11 369 18 368 22

C368 27 369 29 373 29

C376 29 376 28 378 26

Z

M63 23

C64 20 65 17 65 15

C65 12 62 8 60 8

C58 8 55 10 55 13

C54 17 57 28 60 28

C60 28 62 26 63 23

Z

M156 25

C156 22 147 13 144 13

C141 13 138 15 138 17

C138 20 141 23 144 25

C147 26 156 27 156 25

Z

M210 23

C211 23 214 21 215 20

C216 17 216 17 215 15

C212 11 208 11 204 15

C201 19 198 24 199 25

C199 26 205 25 210 23

Z

M362 19

C364 18 365 16 365 15

C365 15 365 13 366 11

C366 9 366 7 366 7

C365 6 357 10 354 12

C351 15 351 20 354 22

C357 24 359 23 362 19

Z

M410 21

C415 18 410 10 399 7

C397 6 397 6 397 8

C397 12 400 18 404 21

C407 23 407 23 410 21

Z

M259 20

C262 19 263 13 262 7

C261 4 260 2 260 2

C259 2 254 7 253 10

C252 13 252 18 253 20

C255 21 257 21 259 20

Z

M279 20

C281 18 280 12 277 7

C275 5 273 2 272 2

C269 1 268 16 271 19

C272 21 277 21 279 20

Z

M472 18

C474 16 477 14 477 13

C479 11 479 11 477 10

C474 8 466 9 463 11

C459 13 459 18 462 20

C465 22 468 21 472 18

Z

M543 20

C548 18 548 13 543 10

C540 9 530 8 528 10

C526 11 536 20 541 21

C541 21 542 20 543 20

Z

M166 11

C164 5 162 2 159 2

C151 2 153 12 162 18

L165 20

L166 18

C167 16 166 13 166 11

Z

M194 17

C202 11 202 0 194 2

C192 3 191 4 190 7

C188 11 187 20 189 20

C189 20 191 19 194 17

Z

"/>

</svg>

