<?xml version="1.0" standalone="no"?>

<!DOCTYPE svg PUBLIC "-//W3C//DTD SVG 20010904//EN"

 "http://www.w3.org/TR/2001/REC-SVG-20010904/DTD/svg10.dtd">

<svg version="1.0" xmlns="http://www.w3.org/2000/svg"

 width="591.000000pt" height="591.000000pt" viewBox="0 0 591.000000 591.000000"

 preserveAspectRatio="xMidYMid meet">

<path fill="#f1f4ef" stroke="none" d="
M0 296

L0 0

L296 0

L591 0

L591 296

L591 591

L296 591

L0 591

L0 296

Z

"/>

<path fill="#006f43" stroke="none" d="
M0 535

L0 478

L2 477

C5 476 5 471 2 470

C0 469 0 468 0 453

C0 440 0 438 2 437

C5 434 5 433 2 430

C0 427 0 426 0 414

C0 404 0 401 2 400

C3 398 3 396 2 393

C0 392 0 379 0 305

C0 248 0 218 1 218

C2 217 2 216 2 214

C2 212 2 211 1 211

C0 210 0 204 1 204

C2 203 2 197 1 197

C0 196 0 103 1 103

C2 102 2 97 1 97

C0 96 0 92 0 87

C0 78 0 78 2 79

C4 79 5 79 7 77

C8 74 8 74 7 71

C5 69 4 69 2 69

L0 70

L0 60

C0 51 0 51 2 55

C2 57 3 59 3 59

C3 59 3 59 4 59

C4 59 6 57 7 54

C10 50 10 49 9 46

C7 43 5 42 2 45

L0 47

L0 24

L0 0

L15 0

C29 0 29 0 29 2

C29 5 31 7 34 7

C36 7 39 3 38 1

C38 0 43 0 67 0

C93 0 97 0 96 1

C96 3 98 7 100 8

C103 8 106 6 106 2

C106 0 106 0 114 0

C121 0 121 0 120 2

C117 4 118 7 121 9

C124 10 124 10 126 9

C128 6 129 3 127 1

C126 0 129 0 141 0

C155 0 156 0 155 2

C152 4 153 6 155 8

C157 11 159 10 162 8

C163 6 163 5 162 3

L161 0

L195 0

L228 0

L228 2

C228 5 230 7 233 7

C235 7 239 3 238 1

C237 0 243 0 257 0

C276 0 278 0 280 2

C282 5 285 5 287 2

C288 0 290 0 324 0

C347 0 360 0 361 1

C361 2 363 2 365 2

C366 2 368 2 369 1

C369 -1 380 0 382 2

C385 3 387 3 389 2

C390 0 396 -1 397 1

C397 2 399 2 401 2

C402 2 404 2 405 1

C405 0 426 0 430 1

C432 2 433 2 434 1

C437 -1 440 0 440 2

C440 6 445 7 448 4

C449 3 450 2 450 1

C450 1 451 0 453 0

C454 0 455 1 455 2

C455 6 459 9 462 7

C464 6 465 3 465 1

C464 -1 467 0 470 2

C472 3 477 3 477 1

C477 0 487 0 503 0

C528 0 529 0 529 2

C531 6 537 6 539 2

C539 0 540 0 565 0

C586 0 591 1 591 2

C591 3 590 3 588 2

C583 1 580 7 584 10

C586 12 588 12 590 11

C591 10 591 16 591 40

C591 59 591 70 590 71

C589 71 589 72 589 74

C589 76 589 77 590 78

C591 78 591 82 591 87

C591 95 591 95 589 95

C586 95 584 97 584 100

C584 102 586 104 589 104

L591 104

L591 149

L591 195

L588 196

C585 196 584 197 584 199

C584 203 586 205 589 205

C590 205 591 206 591 207

C591 209 591 210 590 209

C587 208 584 211 584 214

C584 217 586 219 589 219

L591 219

L591 305

L591 391

L586 389

L582 387

L582 391

C584 396 586 400 589 401

L591 401

L591 415

C591 428 591 428 589 428

C584 430 584 436 589 438

L591 438

L591 454

C591 467 591 469 589 469

C587 469 586 473 587 476

C588 477 589 478 590 478

C591 478 591 486 591 535

C591 590 591 591 589 591

C587 591 587 590 588 588

C588 584 586 582 582 582

C580 582 580 583 580 587

L580 591

L559 591

L539 591

L538 588

C537 586 536 586 534 586

C532 586 530 587 530 589

C529 591 528 591 503 591

L478 591

L477 588

C477 585 476 584 474 584

C470 584 468 586 468 589

C468 591 466 592 462 589

C460 588 460 588 458 589

C454 592 451 591 449 589

C448 588 446 587 444 587

C443 587 441 588 441 589

C439 592 436 592 436 589

C437 586 435 583 432 583

C429 583 427 585 427 588

L428 591

L416 591

L405 591

L405 588

C405 585 403 583 400 583

C398 583 395 587 396 589

C396 591 396 591 394 591

C392 591 391 590 390 588

C390 585 389 584 387 584

C383 584 381 586 381 589

C381 591 381 591 375 591

C369 591 369 591 369 588

C369 585 367 583 364 583

C362 583 359 587 360 589

C360 591 357 591 324 591

C290 591 288 591 288 589

C288 587 286 585 283 585

C280 585 280 586 279 588

L278 591

L257 591

C241 591 237 591 236 590

C235 589 234 588 233 588

C231 588 230 589 229 590

C228 591 225 591 211 591

C202 591 195 591 196 590

C199 590 200 585 199 583

C197 580 191 581 190 584

C189 586 190 587 191 589

L194 591

L155 591

C124 591 116 591 117 590

C118 588 118 585 117 583

C116 583 114 582 113 582

C109 582 107 585 109 589

C110 591 110 591 108 591

C107 591 105 590 103 589

C101 588 101 588 99 589

C96 591 93 591 72 591

C54 591 49 591 50 590

C51 588 51 584 50 582

C49 582 48 581 47 581

C44 581 42 583 42 586

C42 587 43 589 43 590

C44 591 44 591 41 591

C40 591 38 590 37 590

C36 589 35 588 34 588

C32 588 31 589 30 590

C29 590 28 591 26 591

C24 591 24 591 25 590

C26 588 26 584 25 582

C24 582 23 581 22 581

C20 581 19 582 18 582

C17 584 17 588 18 590

C19 591 17 591 10 591

L0 591

L0 535

Z

M223 588

C226 585 224 580 220 580

C218 580 215 583 215 585

C215 587 218 590 220 590

C221 590 223 589 223 588

Z

M10 587

C12 586 12 584 12 583

C10 578 4 578 2 583

C2 585 4 589 7 589

C8 589 9 588 10 587

Z

M572 587

C575 585 574 583 572 580

C567 576 561 583 566 587

C568 589 570 589 572 587

Z

M166 586

C168 584 169 582 166 580

C164 578 161 577 159 579

C158 581 158 585 160 586

C162 589 164 588 166 586

Z

M416 586

C420 582 416 577 411 578

C408 579 407 584 410 586

C411 587 412 588 413 588

C414 588 415 587 416 586

Z

M377 585

C380 582 379 578 375 577

C370 576 367 581 371 585

C373 588 375 588 377 585

Z

M528 584

C530 581 529 579 527 577

C524 576 524 576 522 577

C517 580 519 586 524 586

C526 586 527 585 528 584

Z

M129 583

C131 581 132 579 129 577

C127 575 124 574 122 576

C121 578 121 582 123 583

C125 586 127 585 129 583

Z

M450 582

C452 581 452 577 451 575

C449 573 445 574 444 576

C442 579 442 580 444 582

C446 584 448 585 450 582

Z

M485 582

C489 579 487 574 483 574

C480 574 477 577 477 579

C477 580 481 584 482 584

C483 584 484 583 485 582

Z

M213 578

C215 574 208 570 205 573

C203 575 204 579 206 580

C209 582 212 581 213 578

Z

M430 578

C430 574 428 572 425 572

C421 572 419 579 423 581

C427 582 429 581 430 578

Z

M247 579

C252 577 253 575 253 571

C253 569 252 568 249 568

C247 568 246 568 244 570

C243 573 241 581 242 581

C243 581 245 580 247 579

Z

M560 579

C562 577 562 575 560 573

C558 571 556 570 554 573

C551 576 553 581 557 581

C558 581 559 580 560 579

Z

M92 572

C90 566 84 564 82 568

C81 572 83 575 88 577

C92 580 93 580 93 578

C93 577 93 574 92 572

Z

M287 579

C287 578 288 577 288 576

C288 573 286 571 283 571

C279 571 277 575 279 578

C280 580 285 581 287 579

Z

M19 577

C22 576 22 570 19 569

C16 567 14 568 12 571

C11 573 11 573 12 576

C14 578 16 579 19 577

Z

M51 577

C51 576 52 574 52 573

C52 570 50 568 48 568

C45 568 43 570 43 573

C43 577 48 580 51 577

Z

M143 576

C145 573 143 569 139 569

C136 569 134 571 134 574

C134 576 136 578 139 578

C141 578 142 577 143 576

Z

M198 575

C200 572 199 569 196 568

C192 568 190 570 190 572

C190 577 196 579 198 575

Z

M156 573

C158 571 158 569 156 567

C154 565 151 564 149 566

C146 569 149 575 153 575

C154 575 155 574 156 573

Z

M185 574

C186 573 186 571 186 569

C185 564 177 564 177 570

C177 571 178 573 178 574

C180 575 183 575 185 574

Z

M440 574

C442 573 443 568 441 566

C440 566 439 565 438 565

C435 565 433 567 433 570

C433 574 436 576 440 574

Z

M171 572

C173 570 171 565 169 565

C164 563 161 569 164 573

C166 574 170 574 171 572

Z

M374 572

C377 570 376 568 374 566

C372 564 371 564 368 566

C366 567 365 571 367 573

C369 574 373 574 374 572

Z

M522 572

C524 570 525 568 522 566

C520 564 517 563 515 565

C514 567 514 571 516 572

C518 575 520 574 522 572

Z

M548 571

C550 569 548 564 546 564

C544 563 540 564 540 567

C539 568 540 569 541 571

C542 573 547 574 548 571

Z

M234 569

C238 566 240 562 238 559

C236 557 232 558 231 560

C229 563 227 572 229 572

C229 572 232 571 234 569

Z

M107 567

C107 561 106 559 103 557

C101 556 100 556 99 557

C96 559 97 564 101 567

C103 569 106 571 106 571

C107 571 107 569 107 567

Z

M490 569

C491 569 492 567 492 566

C492 564 489 561 487 561

C485 561 482 564 482 566

C482 568 485 571 487 571

C488 571 490 570 490 569

Z

M278 568

C280 566 280 565 279 562

C278 560 273 559 271 561

C269 563 270 567 272 568

C275 570 276 570 278 568

Z

M61 567

C63 565 63 565 62 562

C61 557 53 558 53 564

C53 566 56 569 58 569

C58 569 60 568 61 567

Z

M453 566

C454 566 455 564 455 563

C455 561 452 558 450 558

C448 558 445 561 445 563

C445 565 448 568 450 568

C451 568 453 567 453 566

Z

M223 556

C224 552 223 551 219 550

C216 550 216 550 214 554

C213 556 213 559 214 561

L214 565

L218 562

C220 560 222 558 223 556

Z

M264 564

C265 563 266 562 266 560

C266 555 260 553 257 558

C256 560 256 560 257 563

C259 565 261 566 264 564

Z

M536 563

C538 561 538 559 536 557

C534 555 532 554 530 557

C527 560 529 565 533 565

C534 565 535 564 536 563

Z

M19 563

C21 562 22 557 20 555

C18 553 14 554 12 557

C11 559 11 559 12 562

C14 564 16 565 19 563

Z

M73 563

C75 562 76 557 74 555

C73 555 72 554 71 554

C68 554 66 556 66 559

C66 563 69 565 73 563

Z

M122 557

C122 553 120 549 116 549

C114 549 112 551 112 554

C112 555 114 557 116 560

C121 565 122 564 122 557

Z

M572 562

C577 560 579 556 577 553

C574 548 568 553 566 560

C566 565 566 565 572 562

Z

M417 558

C416 555 415 553 413 551

C410 549 410 548 408 551

C404 554 406 557 412 561

C417 564 418 564 417 558

Z

M466 560

C470 556 466 551 461 552

C458 553 457 558 460 560

C461 561 462 562 463 562

C464 562 465 561 466 560

Z

M375 559

C378 557 377 555 375 553

C373 551 372 551 369 553

C367 554 366 558 368 560

C370 561 374 561 375 559

Z

M522 559

C524 557 525 555 522 553

C520 551 517 550 515 552

C514 554 514 558 516 559

C518 562 520 561 522 559

Z

M206 550

C208 545 202 542 198 546

C197 548 197 550 198 553

C198 556 198 558 199 558

C199 560 206 553 206 550

Z

M509 557

C511 555 512 553 509 551

C508 549 504 549 502 550

C500 552 501 556 503 557

C506 559 507 559 509 557

Z

M138 553

C138 547 137 544 134 543

C128 542 127 548 132 554

C134 556 136 558 136 558

C136 558 137 556 138 553

Z

M481 555

C482 553 482 552 481 550

C478 548 476 547 474 550

C472 552 471 554 474 556

C476 559 480 558 481 555

Z

M495 556

C498 553 496 548 491 548

C487 548 485 554 489 556

C492 558 493 558 495 556

Z

M278 555

C279 554 280 552 280 552

C280 550 277 547 275 547

C270 547 269 552 272 555

C274 558 276 557 278 555

Z

M190 546

C191 541 185 538 181 542

C180 545 180 545 181 551

L183 556

L186 552

C188 550 189 548 190 546

Z

M154 552

C156 545 155 539 151 539

C148 539 146 542 146 544

C146 546 151 555 152 555

C152 555 153 553 154 552

Z

M557 553

C562 550 563 548 563 545

C563 541 557 540 554 544

C553 547 552 555 553 555

C554 555 556 554 557 553

Z

M291 552

C294 549 292 544 288 544

C286 544 283 547 283 549

C283 551 286 554 288 554

C289 554 291 553 291 552

Z

M431 549

C430 542 429 540 425 540

C423 540 422 541 421 542

C421 544 421 546 421 547

C422 549 429 554 430 554

C431 554 431 552 431 549

Z

M11 551

C13 550 13 548 13 547

C11 542 5 542 3 547

C3 549 5 553 8 553

C9 553 10 552 11 551

Z

M171 548

C173 544 173 543 172 541

C171 539 170 539 168 539

C166 539 165 539 164 541

C163 543 163 544 165 548

C166 551 167 553 168 553

C169 553 170 551 171 548

Z

M365 550

C367 548 368 546 365 544

C361 539 354 545 359 550

C361 553 363 552 365 550

Z

M385 550

C390 546 384 539 379 543

C377 546 376 548 379 550

C381 552 383 553 385 550

Z

M77 549

C80 545 75 540 71 543

C69 544 68 548 70 550

C72 552 76 551 77 549

Z

M262 550

C265 547 261 541 257 542

C254 542 252 546 254 549

C255 551 260 552 262 550

Z

M304 547

C305 546 305 544 305 542

C304 537 296 538 296 543

C296 548 301 550 304 547

Z

M543 544

C546 542 547 540 547 537

C547 535 547 534 544 533

C540 532 538 535 538 542

C538 545 538 548 538 548

C539 548 541 546 543 544

Z

M589 547

C591 545 590 540 588 539

C584 537 581 539 581 543

C581 546 583 548 586 548

C587 548 588 547 589 547

Z

M398 545

C399 544 400 542 400 542

C400 540 396 537 395 537

C391 537 389 543 391 546

C393 548 397 547 398 545

Z

M446 541

C446 535 444 532 440 532

C438 532 437 533 437 536

C437 539 437 540 441 543

C443 545 445 547 445 547

C446 547 446 544 446 541

Z

M85 540

C87 538 87 536 85 534

C83 532 81 531 79 534

C76 537 78 542 82 542

C83 542 84 541 85 540

Z

M356 540

C358 538 358 536 356 534

C354 532 352 531 350 534

C347 537 349 542 353 542

C354 542 355 541 356 540

Z

M462 534

C462 529 460 526 458 526

C456 526 453 529 453 531

C453 533 455 536 458 539

C460 542 461 542 461 540

C462 539 462 536 462 534

Z

M528 538

C532 532 532 527 527 527

C524 527 522 530 522 535

C522 543 524 544 528 538

Z

M268 539

C270 537 270 536 269 533

C268 531 263 530 261 532

C259 534 260 538 262 539

C265 541 266 541 268 539

Z

M315 539

C317 537 317 536 315 533

C313 529 307 531 307 536

C307 541 312 542 315 539

Z

M253 539

C253 538 254 537 254 536

C254 533 252 531 249 531

C245 531 243 535 245 538

C246 540 251 541 253 539

Z

M511 535

C514 530 515 527 512 525

C509 521 505 524 505 529

C505 533 507 539 508 539

C508 539 509 537 511 535

Z

M126 536

C128 535 128 533 128 532

C126 527 120 527 118 532

C118 534 120 538 123 538

C124 538 125 537 126 536

Z

M478 535

C481 527 478 520 473 523

C470 525 469 528 472 533

C474 536 475 538 476 538

C476 538 477 537 478 535

Z

M496 530

C497 527 497 526 496 524

C494 521 491 520 489 523

C487 524 488 531 490 535

C492 537 492 537 493 535

C494 534 495 532 496 530

Z

M99 534

C101 531 100 529 98 527

C95 526 95 526 93 527

C88 530 90 536 95 536

C97 536 98 535 99 534

Z

M112 534

C114 532 114 527 111 526

C106 524 102 531 106 534

C109 537 110 536 112 534

Z

M210 533

C213 529 209 523 204 526

C202 527 201 532 203 534

C205 536 209 535 210 533

Z

M239 533

C241 531 242 528 240 526

C237 524 231 526 231 530

C231 531 235 535 236 535

C237 535 238 534 239 533

Z

M401 533

C403 531 404 529 401 527

C397 522 390 528 395 533

C397 536 399 535 401 533

Z

M585 533

C587 532 587 528 586 526

C584 524 580 525 579 527

C577 530 577 531 579 533

C581 535 583 536 585 533

Z

M280 532

C284 528 280 523 275 524

C272 525 271 530 274 532

C275 533 276 534 277 534

C278 534 279 533 280 532

Z

M226 531

C227 529 227 528 226 526

C224 522 217 523 217 528

C217 533 223 535 226 531

Z

M387 530

C390 528 389 526 387 524

C385 522 384 522 381 524

C379 525 378 529 380 531

C382 532 386 532 387 530

Z

M351 528

C354 526 353 523 350 521

C346 519 342 523 344 527

C345 530 349 531 351 528

Z

M86 528

C86 527 87 525 87 524

C87 520 83 518 80 520

C78 521 77 526 79 528

C81 529 84 529 86 528

Z

M320 528

C324 526 322 519 317 519

C315 519 312 522 312 524

C312 526 315 529 317 529

C317 529 319 529 320 528

Z

M134 526

C135 524 135 521 134 519

C133 518 131 518 129 518

C124 519 125 527 130 527

C132 527 133 526 134 526

Z

M293 526

C295 524 294 519 292 518

C288 516 285 518 285 522

C285 525 287 527 290 527

C291 527 292 526 293 526

Z

M410 524

C413 520 408 514 404 516

C400 518 401 525 406 525

C407 525 409 524 410 524

Z

M201 523

C204 519 199 513 195 515

C191 517 192 524 197 524

C198 524 200 523 201 523

Z

M375 523

C376 522 377 521 377 519

C377 514 371 512 368 517

C367 519 367 519 368 522

C370 524 372 525 375 523

Z

M576 523

C578 522 579 517 577 515

C576 515 575 514 574 514

C571 514 569 516 569 519

C569 523 572 525 576 523

Z

M216 521

C218 519 218 518 216 515

C214 511 208 513 208 518

C208 523 213 524 216 521

Z

M256 518

C256 512 254 510 252 509

C249 508 246 510 246 513

C246 516 248 518 253 520

C257 523 257 522 256 518

Z

M305 520

C307 519 308 514 306 512

C305 512 304 511 303 511

C300 511 298 513 298 516

C298 520 301 522 305 520

Z

M451 520

C451 519 452 517 452 516

C452 511 445 510 443 514

C441 518 447 523 451 520

Z

M75 519

C79 516 77 510 72 510

C69 511 68 513 68 516

C69 518 70 519 73 520

C73 520 74 519 75 519

Z

M361 518

C366 514 360 507 355 512

C352 514 353 516 355 518

C357 520 359 521 361 518

Z

M422 518

C424 517 425 513 423 511

C421 509 416 510 415 512

C414 515 414 516 416 518

C418 520 419 520 422 518

Z

M437 518

C440 515 437 509 433 509

C432 509 430 510 429 512

C428 514 428 514 429 517

C431 519 435 520 437 518

Z

M535 516

C537 513 535 509 531 509

C528 509 526 511 526 514

C526 518 533 520 535 516

Z

M144 517

C146 515 145 510 143 509

C140 507 138 508 136 511

C135 513 135 513 136 516

C138 518 142 519 144 517

Z

M348 516

C350 514 351 511 349 509

C346 507 340 509 340 513

C340 514 344 518 345 518

C346 518 347 517 348 516

Z

M564 517

C566 515 565 510 563 509

C559 507 556 509 556 513

C556 516 558 518 561 518

C562 518 563 517 564 517

Z

M320 516

C322 514 321 509 319 508

C315 506 312 508 312 512

C312 515 314 517 317 517

C318 517 319 516 320 516

Z

M334 515

C336 514 337 510 335 508

C333 506 328 507 327 509

C326 512 326 513 328 515

C330 517 331 517 334 515

Z

M188 515

C188 514 189 513 189 512

C189 509 187 507 184 507

C180 507 178 511 180 514

C181 516 186 517 188 515

Z

M550 514

C552 511 550 507 546 507

C543 507 541 509 541 512

C541 514 543 516 546 516

C548 516 549 515 550 514

Z

M228 512

C230 509 228 505 224 505

C221 505 219 507 219 510

C219 512 221 514 224 514

C226 514 227 513 228 512

Z

M397 511

C401 509 403 506 402 503

C401 499 395 500 393 505

C392 508 392 514 393 514

C393 514 395 513 397 511

Z

M158 512

C160 510 159 506 157 505

C153 502 148 507 151 511

C152 513 156 514 158 512

Z

M270 508

C270 502 268 499 264 499

C262 499 260 502 261 505

C261 507 268 513 269 513

C270 513 270 511 270 508

Z

M174 510

C176 507 175 505 173 503

C170 502 170 502 168 503

C163 506 165 512 170 512

C172 512 173 511 174 510

Z

M40 509

C42 507 42 502 39 501

C34 499 30 506 34 509

C37 512 38 511 40 509

Z

M55 510

C57 508 56 504 54 503

C53 502 51 501 51 501

C49 501 46 505 46 506

C46 510 52 512 55 510

Z

M458 509

C460 507 460 506 458 503

C457 501 453 500 451 502

C450 504 450 508 452 509

C454 512 456 511 458 509

Z

M69 507

C71 505 69 500 67 500

C64 499 61 500 60 503

C59 508 67 511 69 507

Z

M525 506

C526 504 526 501 525 499

C523 497 519 498 518 500

C516 503 516 504 518 506

C520 508 524 508 525 506

Z

M196 502

C197 497 190 495 188 499

C186 502 187 505 189 506

C192 507 195 505 196 502

Z

M383 503

C387 499 388 495 386 493

C383 491 380 493 378 496

C377 499 377 507 378 507

C378 507 381 505 383 503

Z

M429 505

C431 502 430 500 428 498

C425 497 425 497 423 498

C418 501 420 507 425 507

C427 507 428 506 429 505

Z

M238 505

C240 502 238 496 234 496

C233 496 229 500 229 501

C229 505 235 507 238 505

Z

M285 502

C286 499 286 496 285 495

C283 490 276 490 276 496

C276 498 282 506 284 506

C284 506 285 504 285 502

Z

M27 503

C30 500 28 495 24 495

C22 495 19 498 19 500

C19 502 22 505 24 505

C25 505 27 504 27 503

Z

M302 494

C302 489 300 485 297 485

C292 485 292 491 296 497

C300 502 301 501 302 494

Z

M367 497

C370 494 371 489 369 487

C364 484 360 489 361 496

C362 499 362 501 363 501

C363 501 365 499 367 497

Z

M468 500

C470 498 469 493 467 492

C462 490 458 496 461 500

C463 501 466 501 468 500

Z

M511 499

C513 498 514 493 512 491

C510 489 506 490 505 492

C503 495 503 496 505 498

C507 500 508 500 511 499

Z

M114 496

C115 494 115 493 113 489

C112 487 111 485 110 484

C109 484 106 491 106 494

C106 499 112 501 114 496

Z

M95 496

C96 496 97 494 97 492

C97 489 95 482 94 482

C93 482 88 491 88 493

C88 495 90 498 93 498

C93 498 95 497 95 496

Z

M350 494

C352 492 353 489 353 487

C353 482 348 480 345 485

C344 487 344 488 345 493

C346 496 346 498 347 498

C347 498 349 496 350 494

Z

M131 495

C132 492 131 488 128 484

C125 481 124 482 123 489

C123 495 124 497 128 497

C129 497 130 496 131 495

Z

M318 492

C319 487 319 483 316 482

C310 479 308 488 313 494

C316 498 316 497 318 492

Z

M482 495

C484 493 484 492 482 489

C481 487 477 486 475 488

C474 490 474 494 476 495

C478 498 480 497 482 495

Z

M19 494

C21 492 22 490 19 488

C18 486 14 486 12 487

C10 489 11 493 13 494

C16 496 17 496 19 494

Z

M203 494

C205 493 206 489 204 487

C201 485 195 487 195 491

C195 492 198 496 200 496

C200 496 202 495 203 494

Z

M334 492

C337 486 336 480 332 480

C330 480 327 483 327 485

C327 488 331 496 331 496

C332 496 333 494 334 492

Z

M497 494

C499 493 500 489 498 487

C495 485 489 487 489 491

C489 492 492 496 494 496

C494 496 496 495 497 494

Z

M79 493

C81 491 80 479 78 479

C76 479 71 487 71 489

C71 492 73 494 76 494

C77 494 78 493 79 493

Z

M240 492

C245 488 239 481 234 486

C231 488 232 490 234 492

C236 494 238 495 240 492

Z

M425 492

C427 490 428 488 425 486

C421 481 414 487 419 492

C421 495 423 494 425 492

Z

M148 492

C148 491 149 490 149 488

C149 486 142 478 141 479

C139 480 139 490 141 491

C142 493 146 494 148 492

Z

M63 486

C64 484 64 474 63 474

C62 473 55 481 55 484

C55 489 60 490 63 486

Z

M165 483

C165 479 164 478 160 475

L156 472

L156 477

C156 485 157 487 161 487

C164 487 165 486 165 483

Z

M249 482

C252 478 247 473 243 476

C241 477 240 481 242 483

C244 485 248 484 249 482

Z

M17 481

C18 479 18 478 17 476

C15 472 8 473 8 478

C8 483 14 485 17 481

Z

M416 481

C419 479 418 474 415 473

C410 472 406 477 410 481

C411 482 412 483 413 483

C414 483 415 482 416 481

Z

M207 481

C207 480 208 478 208 477

C208 472 201 471 199 475

C197 479 203 484 207 481

Z

M46 479

C48 478 48 476 49 471

L49 466

L46 467

C41 471 39 473 39 476

C39 481 42 482 46 479

Z

M290 478

C293 476 292 474 290 472

C288 470 286 469 284 472

C282 474 281 477 283 479

C285 480 289 480 290 478

Z

M181 477

C181 476 181 474 180 473

C180 471 173 465 171 465

C170 465 171 474 173 477

C174 480 180 480 181 477

Z

M262 477

C264 475 264 474 262 471

C261 469 257 468 255 470

C253 472 254 476 256 477

C259 479 260 479 262 477

Z

M276 476

C277 475 278 473 278 473

C278 471 274 468 273 468

C269 468 267 474 269 477

C271 479 275 478 276 476

Z

M375 476

C378 473 375 468 371 468

C369 468 367 471 367 473

C367 478 373 480 375 476

Z

M221 474

C223 471 221 469 218 468

C214 468 212 470 212 472

C212 477 219 479 221 474

Z

M403 475

C404 475 405 473 405 472

C405 470 402 467 400 467

C398 467 395 470 395 472

C395 474 398 477 400 477

C401 477 403 476 403 475

Z

M389 474

C389 473 390 472 390 471

C390 468 388 466 385 466

C381 466 379 470 381 473

C382 475 387 476 389 474

Z

M112 472

C115 470 115 467 113 465

C112 463 108 462 106 464

C104 466 105 471 107 472

C109 473 110 473 112 472

Z

M98 470

C101 468 100 465 98 463

C95 462 95 462 93 463

C90 465 89 467 91 470

C92 472 96 473 98 470

Z

M127 470

C129 468 129 467 127 464

C126 462 122 461 120 463

C119 465 119 469 121 470

C123 473 125 472 127 470

Z

M31 470

C33 469 35 464 35 460

L35 457

L31 459

C25 462 22 467 25 470

C27 471 29 471 31 470

Z

M140 468

C141 467 142 465 142 465

C142 463 139 460 137 460

C132 460 130 466 134 468

C137 470 138 470 140 468

Z

M84 467

C86 465 86 464 85 461

C84 459 79 458 77 460

C75 462 76 466 78 467

C81 469 82 469 84 467

Z

M195 467

C196 465 194 461 189 458

C187 457 185 456 185 456

C183 456 185 464 187 467

C188 470 193 470 195 467

Z

M298 467

C299 466 300 464 300 464

C300 462 296 459 295 459

C291 459 289 465 291 468

C293 470 297 469 298 467

Z

M585 467

C586 464 586 464 585 462

C582 457 576 459 576 464

C576 469 582 471 585 467

Z

M366 467

C368 466 369 461 367 459

C365 457 361 458 360 460

C358 462 358 465 361 467

C363 468 364 468 366 467

Z

M229 465

C229 464 230 463 230 462

C230 459 228 457 225 457

C221 457 219 461 221 464

C222 466 227 467 229 465

Z

M514 464

C517 460 513 454 508 457

C506 458 505 463 507 465

C509 467 513 466 514 464

Z

M155 463

C157 460 155 456 151 456

C148 456 146 458 146 461

C146 463 148 465 151 465

C153 465 154 464 155 463

Z

M498 463

C499 463 500 461 500 460

C500 458 497 455 495 455

C493 455 490 458 490 460

C490 462 493 465 495 465

C496 465 498 464 498 463

Z

M72 460

C73 457 72 454 70 453

C66 451 61 457 64 461

C66 463 71 462 72 460

Z

M529 460

C530 457 530 457 529 455

C526 450 520 452 520 457

C520 462 526 464 529 460

Z

M307 458

C310 456 309 451 306 450

C301 449 297 454 301 458

C302 459 303 460 304 460

C305 460 306 459 307 458

Z

M485 458

C487 455 485 451 481 451

C478 451 476 453 476 456

C476 458 478 460 481 460

C483 460 484 459 485 458

Z

M131 456

C134 454 133 452 131 450

C129 448 127 447 125 450

C120 454 126 461 131 456

Z

M166 455

C168 453 166 448 164 448

C161 447 158 448 157 451

C156 456 164 459 166 455

Z

M358 456

C360 454 359 450 357 448

C354 447 354 447 352 448

C349 450 348 452 350 455

C351 457 356 458 358 456

Z

M584 454

C585 451 585 451 584 449

C581 444 575 446 575 451

C575 456 581 458 584 454

Z

M59 454

C61 452 60 448 58 447

C56 445 51 447 51 449

C50 452 52 455 55 455

C56 455 58 454 59 454

Z

M86 452

C88 450 88 448 86 446

C84 444 82 443 80 446

C77 449 79 454 83 454

C84 454 85 453 86 452

Z

M541 452

C542 451 543 449 543 449

C543 447 539 444 538 444

C534 444 532 450 534 453

C536 455 540 454 541 452

Z

M229 451

C229 450 230 449 230 448

C230 445 228 443 225 443

C221 443 219 447 221 450

C222 452 227 453 229 451

Z

M318 449

C319 449 320 447 320 446

C320 444 317 441 315 441

C313 441 310 444 310 446

C310 448 313 451 315 451

C316 451 318 450 318 449

Z

M474 449

C475 449 476 447 476 446

C476 444 473 441 471 441

C469 441 466 444 466 446

C466 448 469 451 471 451

C472 451 474 450 474 449

Z

M345 448

C348 445 346 440 342 440

C340 440 337 443 337 445

C337 447 340 450 342 450

C343 450 345 449 345 448

Z

M46 448

C48 447 49 442 47 440

C45 438 41 439 40 441

C38 444 38 445 40 447

C42 449 43 449 46 448

Z

M178 447

C181 445 180 443 178 441

C176 439 175 439 172 441

C170 442 169 446 171 448

C173 449 177 449 178 447

Z

M332 447

C334 445 333 440 331 439

C327 437 324 439 324 443

C324 446 326 448 329 448

C330 448 331 447 332 447

Z

M136 443

C137 443 138 441 138 440

C138 434 130 433 129 438

C128 441 128 441 130 443

C133 445 133 445 136 443

Z

M566 444

C568 442 567 438 565 437

C564 436 562 435 562 435

C560 435 557 439 557 440

C557 444 563 446 566 444

Z

M580 442

C582 440 583 438 580 436

C576 431 569 437 574 442

C576 445 578 444 580 442

Z

M453 441

C455 439 455 438 453 435

C452 433 448 432 446 434

C445 436 445 440 447 441

C449 444 451 443 453 441

Z

M551 440

C552 437 552 437 550 435

C548 433 548 433 545 434

C542 436 541 439 544 441

C546 444 550 443 551 440

Z

M35 440

C37 437 35 433 31 433

C28 433 26 435 26 438

C26 440 28 442 31 442

C33 442 34 441 35 440

Z

M439 441

C441 439 440 434 438 433

C434 431 431 433 431 437

C431 440 433 442 436 442

C437 442 438 441 439 441

Z

M191 439

C193 436 191 432 187 432

C184 432 182 434 182 437

C182 439 184 441 187 441

C189 441 190 440 191 439

Z

M220 439

C222 436 220 432 216 432

C213 432 211 434 211 437

C211 439 213 441 216 441

C218 441 219 440 220 439

Z

M467 439

C469 437 470 435 467 433

C466 431 462 431 460 432

C458 434 459 438 461 439

C464 441 465 441 467 439

Z

M84 438

C86 435 84 431 80 431

C77 431 75 433 75 436

C75 438 77 440 80 440

C82 440 83 439 84 438

Z

M204 438

C206 437 207 432 205 430

C203 428 199 429 197 432

C196 434 196 434 197 437

C199 439 201 440 204 438

Z

M22 436

C25 432 20 426 16 428

C13 429 13 432 15 435

C16 437 20 438 22 436

Z

M331 433

C332 430 332 430 330 428

C328 426 328 426 325 427

C322 428 321 432 324 434

C326 437 329 436 331 433

Z

M426 435

C426 434 427 433 427 432

C427 430 426 429 426 428

C425 428 424 427 423 427

C421 427 420 428 419 428

C419 429 418 430 418 432

C418 433 419 434 419 435

C420 435 421 436 423 436

C424 436 425 435 426 435

Z

M314 433

C317 430 315 425 311 425

C309 425 306 428 306 430

C306 432 309 435 311 435

C312 435 314 434 314 433

Z

M147 433

C149 431 148 426 146 425

C142 423 139 425 139 429

C139 432 141 434 144 434

C145 434 146 433 147 433

Z

M344 430

C346 428 347 426 344 424

C340 419 333 425 338 430

C340 433 342 432 344 430

Z

M511 429

C512 429 513 427 513 425

C513 423 510 415 509 415

C508 415 504 423 504 425

C504 428 507 431 509 431

C509 431 511 430 511 429

Z

M301 427

C302 424 302 424 300 422

C298 420 298 420 295 421

C292 423 291 426 294 428

C296 431 300 430 301 427

Z

M495 426

C496 424 496 423 495 418

C494 415 493 413 493 413

C492 413 491 415 490 417

C486 423 486 429 491 429

C493 429 494 428 495 426

Z

M529 428

C531 426 530 421 527 417

C526 415 524 413 524 413

C523 413 521 420 521 423

C521 427 526 431 529 428

Z

M160 426

C163 423 161 418 157 418

C155 418 152 421 152 423

C152 425 155 428 157 428

C158 428 160 427 160 426

Z

M12 425

C13 423 13 422 12 420

C10 416 3 417 3 422

C3 427 9 429 12 425

Z

M80 425

C81 422 81 422 80 420

C77 415 71 417 71 422

C71 427 77 429 80 425

Z

M417 425

C420 422 418 417 414 417

C412 417 409 420 409 422

C409 424 412 427 414 427

C415 427 417 426 417 425

Z

M190 424

C195 420 189 413 184 418

C182 420 182 421 184 424

C185 426 188 427 190 424

Z

M477 424

C479 422 479 419 478 414

L477 410

L474 412

C473 413 471 416 470 418

C469 421 469 421 470 424

C472 427 474 427 477 424

Z

M175 423

C177 421 177 420 175 417

C173 413 167 415 167 420

C167 425 172 426 175 423

Z

M546 424

C548 421 547 417 543 413

C540 409 540 409 539 411

C538 416 538 421 540 423

C542 425 544 426 546 424

Z

M357 422

C359 420 359 418 357 416

C355 414 353 413 351 416

C348 419 350 424 354 424

C355 424 356 423 357 422

Z

M290 419

C292 417 292 413 290 412

C287 410 283 412 282 415

C281 419 287 423 290 419

Z

M460 418

C462 417 462 415 462 411

C462 408 462 405 461 405

C461 405 459 407 457 409

C454 411 453 413 453 415

C453 420 457 421 460 418

Z

M563 417

C564 416 564 414 564 413

C564 412 557 404 555 404

C554 404 554 406 554 410

C554 414 554 415 556 417

C559 420 562 420 563 417

Z

M70 415

C70 414 71 413 71 412

C71 409 69 407 66 407

C62 407 60 411 62 414

C63 416 68 417 70 415

Z

M204 414

C206 411 204 407 200 407

C197 407 195 409 195 412

C195 414 197 416 200 416

C202 416 203 415 204 414

Z

M41 414

C41 413 42 412 42 411

C42 408 40 406 37 406

C33 406 31 410 33 413

C34 415 39 416 41 414

Z

M414 413

C415 413 416 411 416 410

C416 404 408 403 407 408

C406 411 406 411 408 413

C411 415 411 415 414 413

Z

M368 412

C369 412 370 410 370 409

C370 407 367 404 365 404

C363 404 360 407 360 409

C360 411 363 414 365 414

C366 414 368 413 368 412

Z

M15 411

C17 408 15 404 11 404

C8 404 6 406 6 409

C6 411 8 413 11 413

C13 413 14 412 15 411

Z

M55 410

C58 408 57 406 55 404

C53 402 52 402 49 404

C47 405 46 409 48 411

C50 412 54 412 55 410

Z

M218 411

C221 407 216 401 212 403

C209 404 209 407 211 410

C212 412 216 413 218 411

Z

M256 410

C257 407 257 407 256 405

C253 400 247 402 247 407

C247 412 253 414 256 410

Z

M270 410

C272 407 270 403 266 403

C263 403 261 405 261 408

C261 410 263 412 266 412

C268 412 269 411 270 410

Z

M445 410

C447 407 448 398 446 398

C444 398 437 406 437 408

C437 412 443 414 445 410

Z

M383 410

C385 408 384 404 382 402

C379 401 379 401 377 402

C374 404 373 406 375 409

C376 411 381 412 383 410

Z

M578 410

C581 407 578 401 572 398

C569 396 569 397 569 402

C570 409 574 413 578 410

Z

M284 408

C286 405 284 401 280 401

C277 401 275 403 275 406

C275 408 277 410 280 410

C282 410 283 409 284 408

Z

M401 409

C403 408 404 403 402 401

C401 401 400 400 399 400

C396 400 394 402 394 405

C394 409 397 411 401 409

Z

M27 408

C29 407 30 402 28 400

C26 398 22 399 21 401

C19 404 19 405 21 407

C23 409 24 409 27 408

Z

M151 408

C154 405 151 400 148 400

C146 400 145 401 144 401

C143 402 143 407 144 408

C145 409 150 409 151 408

Z

M136 406

C138 403 136 399 132 399

C129 399 127 401 127 404

C127 406 129 408 132 408

C134 408 135 407 136 406

Z

M242 404

C243 403 244 401 244 401

C244 399 240 396 239 396

C235 396 233 402 235 405

C237 407 241 406 242 404

Z

M165 403

C168 399 164 394 159 396

C157 397 156 402 158 404

C160 406 164 405 165 403

Z

M121 402

C123 400 124 398 121 396

C119 394 116 393 114 395

C113 397 113 401 115 402

C117 405 119 404 121 402

Z

M496 402

C498 401 498 397 497 395

C495 393 491 394 490 396

C488 398 488 401 491 403

C493 404 495 404 496 402

Z

M511 402

C512 402 513 400 513 399

C513 397 510 394 508 394

C506 394 503 397 503 399

C503 401 506 404 508 404

C509 404 511 403 511 402

Z

M525 401

C526 401 527 399 527 398

C527 396 524 393 522 393

C520 393 517 396 517 398

C517 400 520 403 522 403

C523 403 525 402 525 401

Z

M430 401

C432 400 435 390 434 389

C433 388 429 390 426 393

C423 395 422 400 424 401

C425 402 428 402 430 401

Z

M327 399

C328 399 329 397 329 395

C329 392 326 385 325 385

C324 385 320 393 320 395

C320 397 323 401 325 401

C325 401 327 400 327 399

Z

M538 399

C541 396 539 391 535 391

C533 391 530 394 530 396

C530 398 533 401 535 401

C536 401 538 400 538 399

Z

M392 399

C392 398 393 397 393 396

C393 393 391 391 388 391

C384 391 382 395 384 398

C385 400 390 401 392 399

Z

M482 399

C483 398 484 397 484 395

C484 390 478 388 475 393

C474 395 474 395 475 398

C477 400 479 401 482 399

Z

M310 397

C312 395 312 391 310 387

L308 383

L306 387

C304 390 303 393 303 394

C303 399 307 401 310 397

Z

M344 398

C347 396 347 391 343 387

C342 385 341 383 340 383

C339 383 337 391 337 393

C337 395 340 399 342 399

C342 399 343 399 344 398

Z

M37 396

C38 393 38 393 37 391

C34 386 28 388 28 393

C28 398 34 400 37 396

Z

M179 394

C181 390 174 386 171 389

C169 391 170 395 172 396

C175 398 178 397 179 394

Z

M233 396

C235 395 236 390 234 388

C232 386 228 387 226 390

C225 392 225 392 226 395

C228 397 230 398 233 396

Z

M552 395

C557 391 551 384 546 388

C544 391 543 393 546 395

C548 397 550 398 552 395

Z

M293 394

C295 392 295 391 295 387

C294 380 293 379 289 384

C286 388 285 393 288 395

C290 396 291 396 293 394

Z

M362 394

C364 391 363 387 359 383

L355 379

L355 383

C354 389 354 391 356 393

C358 395 360 396 362 394

Z

M112 392

C114 389 112 385 108 385

C105 385 103 387 103 390

C103 392 105 394 108 394

C110 394 111 393 112 392

Z

M469 392

C471 391 471 387 470 385

C468 383 464 384 463 386

C461 389 461 390 463 392

C465 394 467 395 469 392

Z

M277 387

C279 385 279 384 279 380

C278 378 278 375 277 375

C276 374 269 383 269 385

C269 387 272 390 273 390

C274 390 276 389 277 387

Z

M496 388

C498 387 499 383 497 381

C495 379 490 380 489 382

C488 385 488 386 490 388

C492 390 493 390 496 388

Z

M525 388

C528 385 526 380 522 380

C520 380 517 383 517 385

C517 387 520 390 522 390

C523 390 525 389 525 388

Z

M202 387

C204 386 204 385 204 383

C203 379 201 379 198 379

C194 380 193 385 196 387

C197 388 199 389 199 389

C199 389 201 388 202 387

Z

M378 387

C379 387 380 385 380 384

C380 382 373 374 371 374

C370 374 370 376 370 379

C370 383 370 385 372 387

C375 389 376 390 378 387

Z

M565 386

C567 382 562 377 558 380

C556 381 555 385 557 387

C559 389 564 388 565 386

Z

M187 385

C189 383 189 383 188 380

C187 375 179 376 179 382

C179 384 182 387 184 387

C184 387 186 386 187 385

Z

M218 385

C219 383 219 382 218 380

C216 376 209 377 209 382

C209 387 215 389 218 385

Z

M391 386

C391 385 392 384 392 383

C392 380 390 378 387 378

C383 378 381 382 383 385

C384 387 389 388 391 386

Z

M458 385

C459 382 459 382 458 380

C456 377 453 376 451 379

C448 382 450 387 454 387

C455 387 457 386 458 385

Z

M77 381

C78 376 71 374 69 378

C67 381 68 384 70 385

C73 386 76 384 77 381

Z

M90 385

C92 383 91 378 89 377

C85 375 82 377 82 381

C82 384 84 386 87 386

C88 386 89 385 90 385

Z

M36 382

C38 380 38 379 36 376

C34 372 28 374 28 379

C28 384 33 385 36 382

Z

M104 383

C106 381 105 376 103 375

C99 373 96 375 96 379

C96 382 98 384 101 384

C102 384 103 383 104 383

Z

M261 380

C262 379 263 377 263 376

C263 375 263 373 264 371

C264 367 262 367 258 371

C253 375 252 377 254 380

C255 383 258 383 261 380

Z

M231 379

C233 376 231 372 227 372

C224 372 222 374 222 377

C222 379 224 381 227 381

C229 381 230 380 231 379

Z

M576 379

C578 377 579 374 577 372

C574 370 568 372 568 376

C568 377 572 381 573 381

C574 381 575 380 576 379

Z

M62 379

C64 378 65 373 63 371

C61 369 57 370 56 372

C54 375 54 376 56 378

C58 380 59 380 62 379

Z

M445 378

C448 376 447 374 445 372

C443 370 441 369 439 372

C437 374 436 377 438 379

C440 380 444 380 445 378

Z

M555 378

C557 376 555 371 553 371

C550 370 547 371 546 374

C545 379 553 382 555 378

Z

M494 376

C496 374 495 369 493 368

C489 366 486 368 486 372

C486 375 488 377 491 377

C492 377 493 376 494 376

Z

M527 375

C529 373 530 370 528 368

C525 366 519 368 519 372

C519 373 523 377 524 377

C525 377 526 376 527 375

Z

M393 373

C396 370 394 365 390 365

C388 365 385 368 385 370

C385 372 388 375 390 375

C391 375 393 374 393 373

Z

M149 372

C150 369 150 364 147 361

L145 358

L143 362

C141 366 140 371 142 373

C144 375 148 374 149 372

Z

M327 372

C330 369 328 364 324 364

C322 364 319 367 319 369

C319 371 322 374 324 374

C325 374 327 373 327 372

Z

M432 373

C433 372 434 371 434 369

C434 364 428 362 425 367

C424 369 424 369 425 372

C427 374 429 375 432 373

Z

M26 372

C29 371 29 365 26 364

C23 362 21 363 19 366

C18 368 18 368 19 371

C21 373 23 374 26 372

Z

M131 371

C132 370 133 368 133 368

C133 365 130 357 129 357

C129 357 127 359 125 362

C123 368 123 368 124 370

C126 374 128 374 131 371

Z

M313 371

C315 368 314 365 311 364

C307 364 305 366 305 368

C305 373 311 375 313 371

Z

M341 371

C344 369 343 365 341 364

C338 362 336 363 334 366

C333 368 333 368 334 371

C336 373 339 374 341 371

Z

M588 371

C591 368 589 363 585 363

C583 363 580 366 580 368

C580 370 583 373 585 373

C586 373 588 372 588 371

Z

M166 371

C168 369 167 364 164 360

L161 356

L159 359

C158 363 158 368 159 370

C160 372 164 373 166 371

Z

M354 369

C356 368 356 364 355 362

C353 360 349 361 348 363

C346 366 346 367 348 369

C350 371 352 372 354 369

Z

M12 368

C15 366 14 364 12 362

C10 360 9 360 6 362

C4 363 3 367 5 369

C7 370 11 370 12 368

Z

M55 369

C55 368 56 367 56 366

C56 363 54 361 51 361

C48 361 46 363 46 366

C46 368 48 370 51 370

C52 370 54 369 55 369

Z

M239 369

C242 367 240 361 236 361

C233 361 231 363 231 366

C231 369 235 371 239 369

Z

M298 369

C300 368 301 363 299 361

C298 361 297 360 296 360

C293 360 291 362 291 365

C291 369 294 371 298 369

Z

M115 367

C116 364 116 363 115 358

L114 353

L110 357

C106 361 105 364 107 367

C109 370 113 370 115 367

Z

M420 367

C421 366 422 364 422 364

C422 362 419 359 417 359

C412 359 411 364 414 367

C416 370 418 369 420 367

Z

M183 367

C185 365 184 361 180 356

C177 353 177 353 176 355

C175 357 175 364 176 366

C177 368 181 369 183 367

Z

M406 367

C408 364 406 358 402 358

C401 358 397 362 397 363

C397 367 403 369 406 367

Z

M443 366

C448 362 442 356 437 359

C435 360 435 365 437 366

C440 368 440 368 443 366

Z

M368 365

C370 364 370 360 369 358

C367 356 363 357 362 359

C360 362 360 363 362 365

C364 367 366 368 368 365

Z

M553 365

C556 361 551 355 547 357

C543 359 544 366 549 366

C550 366 552 365 553 365

Z

M488 363

C490 362 491 357 489 355

C488 355 487 354 486 354

C483 354 481 356 481 359

C481 363 484 365 488 363

Z

M97 361

C99 360 100 348 98 348

C98 348 96 350 94 352

C90 355 89 358 91 361

C91 363 95 363 97 361

Z

M286 362

C286 361 287 360 287 359

C287 357 286 356 286 355

C285 355 284 354 283 354

C281 354 280 355 279 355

C278 356 278 361 279 362

C280 363 285 363 286 362

Z

M533 362

C534 360 534 357 533 355

C532 354 530 354 528 354

C525 355 523 359 525 361

C526 363 531 363 533 362

Z

M200 360

C202 357 201 355 196 350

L192 347

L191 352

C191 355 191 358 192 360

C194 363 199 363 200 360

Z

M312 359

C314 358 315 353 313 351

C312 351 311 350 310 350

C307 350 305 352 305 355

C305 359 308 361 312 359

Z

M583 358

C585 357 586 352 584 350

C583 350 582 349 581 349

C578 349 576 351 576 354

C576 358 579 360 583 358

Z

M51 356

C53 354 53 352 51 350

C49 348 47 347 45 350

C42 353 44 358 48 358

C49 358 50 357 51 356

Z

M381 356

C382 353 381 350 379 349

C375 347 370 353 373 357

C375 359 380 358 381 356

Z

M243 355

C244 352 244 352 243 350

C240 345 234 347 234 352

C234 357 240 359 243 355

Z

M273 355

C277 352 273 345 268 347

C265 348 265 353 267 355

C269 357 270 358 273 355

Z

M347 356

C348 355 349 354 349 352

C349 347 343 345 340 350

C339 352 339 352 340 355

C342 357 344 358 347 356

Z

M82 354

C84 352 84 350 84 346

L84 341

L81 343

C75 346 72 351 76 354

C78 357 79 356 82 354

Z

M216 351

C216 347 215 345 210 342

L206 340

L206 344

C206 351 209 354 213 354

C215 354 216 353 216 351

Z

M443 352

C445 350 445 349 444 346

C443 344 438 343 436 345

C434 347 435 351 437 352

C440 354 441 354 443 352

Z

M544 353

C544 352 545 351 545 350

C545 347 543 345 540 345

C536 345 534 349 536 352

C537 354 542 355 544 353

Z

M39 351

C41 349 39 344 37 344

C33 342 29 347 32 351

C33 353 38 353 39 351

Z

M481 352

C481 351 482 350 482 349

C482 346 480 344 477 344

C473 344 471 348 473 351

C474 353 479 354 481 352

Z

M256 351

C258 348 256 342 252 342

C251 342 247 346 247 347

C247 351 253 353 256 351

Z

M393 349

C393 348 394 347 394 346

C394 343 392 341 389 341

C385 341 383 345 385 348

C386 350 391 351 393 349

Z

M573 349

C576 345 571 339 567 341

C564 342 564 345 566 348

C567 350 571 351 573 349

Z

M149 345

C151 342 149 338 145 338

C142 338 140 340 140 343

C140 347 147 349 149 345

Z

M558 346

C561 344 560 340 556 339

C554 338 554 338 552 339

C550 342 549 345 551 347

C553 349 556 348 558 346

Z

M133 346

C137 344 134 337 130 337

C129 337 127 338 126 340

C125 342 125 342 126 345

C128 347 130 348 133 346

Z

M67 345

C69 343 72 333 71 332

C70 332 63 336 61 337

C59 339 59 344 61 345

C63 346 64 346 67 345

Z

M163 344

C165 341 163 337 159 337

C156 337 154 339 154 342

C154 344 156 346 159 346

C161 346 162 345 163 344

Z

M307 344

C311 340 307 335 302 336

C299 337 298 342 301 344

C302 345 303 346 304 346

C305 346 306 345 307 344

Z

M469 344

C471 341 469 337 465 337

C462 337 460 339 460 342

C460 344 462 346 465 346

C467 346 468 345 469 344

Z

M28 342

C30 340 31 338 28 336

C25 333 20 335 20 339

C20 341 23 344 25 344

C26 344 27 343 28 342

Z

M176 342

C178 339 176 335 172 335

C169 335 167 337 167 340

C167 342 169 344 172 344

C174 344 175 343 176 342

Z

M230 342

C232 339 230 335 224 333

C222 332 220 331 219 331

C218 332 221 340 223 342

C225 344 229 344 230 342

Z

M355 343

C355 342 356 341 356 340

C356 337 354 335 351 335

C347 335 345 339 347 342

C348 344 353 345 355 343

Z

M455 342

C457 339 455 335 451 335

C448 335 446 337 446 340

C446 342 448 344 451 344

C453 344 454 343 455 342

Z

M120 342

C120 341 121 340 121 339

C121 336 119 334 116 334

C112 334 110 338 112 341

C113 343 118 344 120 342

Z

M404 341

C406 340 406 336 405 334

C403 332 399 333 398 335

C396 338 396 339 398 341

C400 343 402 344 404 341

Z

M433 342

C435 341 436 336 434 334

C433 334 432 333 431 333

C428 333 426 335 426 338

C426 342 429 344 433 342

Z

M264 339

C267 336 264 331 260 331

C258 331 256 334 256 336

C256 341 262 343 264 339

Z

M190 338

C192 335 191 333 189 331

C186 330 186 330 184 331

C179 334 181 340 186 340

C188 340 189 339 190 338

Z

M419 338

C420 338 421 336 421 335

C421 333 418 330 416 330

C414 330 411 333 411 335

C411 337 414 340 416 340

C417 340 419 339 419 338

Z

M107 336

C109 334 108 331 106 328

C104 327 104 327 101 328

C98 330 97 333 100 335

C101 337 105 338 107 336

Z

M295 335

C297 333 296 328 294 327

C290 325 287 327 287 331

C287 334 289 336 292 336

C293 336 294 335 295 335

Z

M554 334

C559 330 553 323 548 328

C545 330 546 332 548 334

C550 336 552 337 554 334

Z

M143 332

C145 330 145 328 143 326

C141 324 139 324 137 326

C135 328 135 330 137 332

C139 334 141 335 143 332

Z

M280 332

C282 330 281 326 279 325

C278 324 276 323 276 323

C274 323 271 327 271 328

C271 332 277 334 280 332

Z

M365 331

C367 328 366 326 364 324

C361 323 361 323 359 324

C354 327 356 333 361 333

C363 333 364 332 365 331

Z

M200 331

C202 330 203 325 201 323

C200 323 199 322 198 322

C195 322 193 324 193 327

C193 331 196 333 200 331

Z

M27 329

C29 327 30 325 27 323

C24 320 19 322 19 326

C19 328 22 331 24 331

C25 331 26 330 27 329

Z

M176 328

C178 325 176 323 173 322

C169 322 167 324 167 326

C167 331 174 333 176 328

Z

M94 329

C97 327 96 322 92 321

C88 320 84 326 87 329

C89 330 92 330 94 329

Z

M264 325

C267 321 263 315 258 318

C256 319 255 324 257 326

C259 328 263 327 264 325

Z

M377 324

C379 322 378 317 376 316

C373 314 369 316 369 320

C369 321 370 323 370 324

C372 325 375 325 377 324

Z

M82 322

C84 320 84 319 82 316

C81 314 77 313 75 315

C73 317 74 321 76 322

C79 324 80 324 82 322

Z

M213 322

C214 322 215 320 215 319

C215 317 212 314 210 314

C208 314 205 317 205 319

C205 321 208 324 210 324

C211 324 213 323 213 322

Z

M410 320

C410 316 408 314 405 314

C401 314 399 321 403 323

C407 324 409 323 410 320

Z

M561 322

C564 319 562 314 558 314

C556 314 553 317 553 319

C553 321 556 324 558 324

C559 324 561 323 561 322

Z

M392 320

C395 318 394 316 392 314

C390 312 388 311 386 314

C384 316 383 319 385 321

C387 322 391 322 392 320

Z

M105 318

C105 314 104 312 101 312

C98 312 96 314 96 317

C96 320 98 321 101 321

C104 321 105 320 105 318

Z

M139 320

C142 317 139 312 136 312

C134 312 133 313 132 313

C131 314 131 319 132 320

C133 321 138 321 139 320

Z

M325 319

C325 318 326 316 326 315

C326 312 324 310 322 310

C319 310 317 312 317 315

C317 319 322 322 325 319

Z

M180 317

C182 315 182 313 180 311

C178 309 176 309 174 311

C172 313 172 315 174 317

C176 319 178 320 180 317

Z

M31 317

C32 315 32 312 31 310

C29 308 24 309 23 311

C21 314 23 318 27 318

C28 318 30 317 31 317

Z

M274 315

C276 312 274 310 271 309

C267 309 265 311 265 313

C265 318 272 320 274 315

Z

M70 316

C73 312 68 306 64 308

C60 310 61 317 66 317

C67 317 69 316 70 316

Z

M575 315

C576 312 576 312 575 310

C572 305 566 307 566 312

C566 317 572 319 575 315

Z

M226 314

C228 311 227 309 225 307

C222 306 222 306 220 307

C215 310 217 316 222 316

C224 316 225 315 226 314

Z

M255 315

C258 311 253 305 249 307

C245 309 246 316 251 316

C252 316 254 315 255 315

Z

M239 313

C242 311 242 308 240 306

C239 304 235 303 233 305

C231 307 232 312 234 313

C236 314 237 314 239 313

Z

M492 312

C495 310 494 306 491 305

C487 303 483 307 485 311

C487 314 490 315 492 312

Z

M88 311

C90 309 90 309 89 306

C88 301 80 302 80 308

C80 310 83 313 85 313

C85 313 87 312 88 311

Z

M22 310

C23 308 23 307 22 305

C20 301 13 302 13 307

C13 312 19 314 22 310

Z

M42 310

C44 308 44 308 43 305

C43 303 42 303 39 303

C36 303 35 303 35 305

C34 308 34 308 36 310

C37 311 39 312 39 312

C39 312 41 311 42 310

Z

M58 310

C59 308 59 307 58 305

C56 301 49 302 49 307

C49 312 55 314 58 310

Z

M129 310

C130 310 131 308 131 307

C131 301 123 300 122 305

C121 308 121 308 123 310

C126 312 126 312 129 310

Z

M285 310

C287 308 287 308 286 305

C285 300 277 301 277 307

C277 309 280 312 282 312

C282 312 284 311 285 310

Z

M313 310

C314 310 315 308 315 307

C315 301 307 300 306 305

C305 308 305 308 307 310

C310 312 310 312 313 310

Z

M419 310

C421 308 420 304 418 303

C416 300 413 301 411 304

C410 307 410 307 411 309

C414 311 417 312 419 310

Z

M191 308

C191 307 192 306 192 305

C192 302 190 300 187 300

C183 300 181 304 183 307

C184 309 189 310 191 308

Z

M102 306

C104 303 102 299 98 299

C95 299 93 301 93 304

C93 306 95 308 98 308

C100 308 101 307 102 306

Z

M300 307

C300 306 301 305 301 304

C301 301 299 299 296 299

C293 299 291 301 291 304

C291 306 293 308 296 308

C297 308 299 307 300 307

Z

M116 305

C119 303 118 298 115 297

C110 296 106 301 110 305

C111 306 112 307 113 307

C114 307 115 306 116 305

Z

M480 304

C481 302 481 299 480 297

C479 296 477 296 475 296

C472 297 470 301 472 303

C473 305 478 305 480 304

Z

M202 301

C204 299 204 294 201 293

C199 292 195 294 194 297

C194 299 196 303 199 303

C200 303 201 302 202 301

Z

M243 301

C248 297 242 290 237 295

C234 297 235 299 237 301

C239 303 241 304 243 301

Z

M48 300

C50 298 51 296 48 294

C44 289 37 295 42 300

C44 303 46 302 48 300

Z

M433 300

C435 297 433 293 429 293

C426 293 424 295 424 298

C424 300 426 302 429 302

C431 302 432 301 433 300

Z

M465 299

C466 296 466 296 465 294

C462 289 456 291 456 297

C456 301 462 302 465 299

Z

M26 298

C28 297 28 293 27 291

C25 289 21 290 20 292

C18 294 18 297 21 299

C23 300 25 300 26 298

Z

M449 298

C450 295 450 295 449 293

C446 288 440 290 440 295

C440 300 446 302 449 298

Z

M95 293

C95 290 93 288 90 288

C85 288 84 295 88 297

C91 298 94 296 95 293

Z

M217 295

C219 290 213 286 209 289

C208 291 208 294 209 296

C211 298 216 297 217 295

Z

M230 296

C234 294 231 287 227 287

C226 287 224 289 223 290

C222 293 222 293 223 295

C226 297 227 297 230 296

Z

M268 293

C269 293 270 291 270 290

C270 288 267 285 265 285

C263 285 260 288 260 290

C260 292 263 295 265 295

C266 295 268 294 268 293

Z

M81 290

C83 288 83 287 81 284

C79 280 73 282 73 287

C73 292 78 293 81 290

Z

M283 291

C283 290 284 289 284 288

C284 285 282 283 279 283

C276 283 274 285 274 288

C274 290 276 292 279 292

C280 292 282 291 283 291

Z

M39 289

C40 286 39 283 37 282

C33 280 28 286 31 290

C33 292 38 291 39 289

Z

M576 288

C578 286 579 284 576 282

C574 280 571 279 569 281

C568 283 568 287 570 288

C572 291 574 290 576 288

Z

M52 287

C55 285 54 280 50 279

C47 279 45 279 44 283

C44 285 44 286 46 287

C47 288 49 289 49 289

C49 289 51 288 52 287

Z

M254 287

C257 285 256 283 254 281

C252 279 250 278 248 281

C246 283 245 286 247 288

C249 289 253 289 254 287

Z

M67 287

C69 285 68 280 66 279

C62 277 59 279 59 283

C59 286 61 288 64 288

C65 288 66 287 67 287

Z

M324 286

C326 284 326 283 324 280

C322 276 316 278 316 283

C316 288 321 289 324 286

Z

M114 285

C116 282 116 279 113 278

C109 276 104 282 107 286

C109 288 113 287 114 285

Z

M310 286

C312 284 311 280 309 278

C306 277 306 277 304 278

C301 280 300 282 302 285

C303 287 308 288 310 286

Z

M130 285

C132 282 130 276 126 276

C125 276 121 280 121 281

C121 285 127 287 130 285

Z

M295 283

C297 281 297 281 296 278

C296 276 295 276 292 276

C289 276 288 276 288 278

C287 281 287 281 289 283

C290 284 292 285 292 285

C292 285 294 284 295 283

Z

M338 282

C341 280 340 276 336 275

C334 274 334 274 332 275

C330 278 329 281 331 283

C333 285 336 284 338 282

Z

M589 282

C590 279 590 279 589 277

C586 272 580 274 580 279

C580 284 586 286 589 282

Z

M26 281

C28 278 26 274 22 274

C19 274 17 276 17 279

C17 281 19 283 22 283

C24 283 25 282 26 281

Z

M100 282

C102 280 101 275 99 274

C95 272 92 274 92 278

C92 281 94 283 97 283

C98 283 99 282 100 282

Z

M143 280

C147 278 145 272 141 272

C136 272 134 277 137 280

C139 282 140 282 143 280

Z

M12 279

C13 276 13 276 12 274

C9 270 3 271 3 275

C3 281 9 283 12 279

Z

M242 279

C244 277 245 275 242 273

C238 268 231 274 236 279

C238 282 240 281 242 279

Z

M487 278

C488 277 489 276 489 274

C489 269 483 267 480 272

C479 274 479 274 480 277

C482 279 484 280 487 278

Z

M351 277

C351 276 352 275 352 274

C352 271 350 269 347 269

C343 269 341 273 343 276

C344 278 349 279 351 277

Z

M474 276

C476 273 474 269 470 269

C467 269 465 271 465 274

C465 276 467 278 470 278

C472 278 473 277 474 276

Z

M284 275

C286 273 285 268 283 267

C278 265 274 271 277 275

C279 276 282 276 284 275

Z

M87 274

C88 273 88 271 88 269

C87 264 79 264 79 270

C79 271 80 273 80 274

C82 275 85 275 87 274

Z

M306 272

C308 269 307 267 305 265

C302 264 302 264 300 265

C297 267 296 271 298 273

C300 275 305 274 306 272

Z

M460 272

C462 269 460 263 456 263

C455 263 451 267 451 268

C451 272 457 274 460 272

Z

M501 272

C501 271 502 269 502 268

C502 263 495 262 493 266

C491 270 497 275 501 272

Z

M154 271

C156 269 155 266 153 263

C149 260 143 266 147 270

C149 272 152 273 154 271

Z

M373 268

C377 266 374 259 370 259

C369 259 367 261 366 262

C365 265 365 265 366 267

C369 269 370 269 373 268

Z

M234 267

C236 265 235 260 233 259

C229 257 226 259 226 263

C226 266 228 268 231 268

C232 268 233 267 234 267

Z

M359 266

C359 265 360 264 360 263

C360 260 358 258 355 258

C351 258 349 262 351 265

C352 267 357 268 359 266

Z

M557 266

C557 265 558 264 558 263

C558 260 556 258 553 258

C549 258 547 262 549 265

C550 267 555 268 557 266

Z

M63 265

C63 264 64 263 64 262

C64 259 62 257 59 257

C56 257 54 259 54 262

C54 264 56 266 59 266

C60 266 62 265 63 265

Z

M448 265

C448 264 449 263 449 262

C449 259 447 257 444 257

C440 257 438 261 440 264

C441 266 446 267 448 265

Z

M47 264

C49 263 50 258 48 256

C46 254 42 255 40 258

C39 260 39 260 40 263

C42 265 44 266 47 264

Z

M78 263

C78 262 79 261 79 260

C79 257 77 255 74 255

C70 255 68 259 70 262

C71 264 76 265 78 263

Z

M175 262

C177 260 177 259 175 256

C173 252 167 254 167 259

C167 264 172 265 175 262

Z

M278 262

C281 260 280 258 278 255

C273 251 267 258 272 262

C274 264 276 264 278 262

Z

M300 263

C300 262 301 261 301 260

C301 257 299 255 296 255

C292 255 290 259 292 262

C293 264 298 265 300 263

Z

M315 261

C316 258 316 258 314 256

C312 254 312 254 309 255

C306 256 305 260 308 262

C310 265 313 264 315 261

Z

M387 263

C387 262 388 261 388 260

C388 257 386 255 383 255

C379 255 377 259 379 262

C380 264 385 265 387 263

Z

M543 263

C543 262 544 261 544 260

C544 257 542 255 539 255

C535 255 533 259 535 262

C536 264 541 265 543 263

Z

M571 263

C571 262 572 261 572 260

C572 257 570 255 567 255

C563 255 561 259 563 262

C564 264 569 265 571 263

Z

M189 261

C191 260 191 258 190 256

C188 253 185 253 183 255

C181 256 180 260 182 262

C184 263 188 263 189 261

Z

M346 262

C348 260 347 256 345 254

C342 253 342 253 340 254

C337 256 336 258 338 261

C339 263 344 264 346 262

Z

M160 261

C162 260 163 255 161 253

C160 253 159 252 158 252

C155 252 153 254 153 257

C153 261 156 263 160 261

Z

M497 260

C500 258 499 256 497 254

C495 252 494 252 491 254

C489 255 488 259 490 261

C492 262 496 262 497 260

Z

M482 258

C484 256 485 253 483 251

C480 249 474 251 474 255

C474 256 478 260 479 260

C480 260 481 259 482 258

Z

M511 258

C513 257 513 253 512 251

C510 249 506 250 505 252

C503 255 503 256 505 258

C507 260 509 261 511 258

Z

M35 258

C35 257 36 255 36 254

C36 249 29 248 27 252

C25 256 31 261 35 258

Z

M326 257

C330 254 328 249 324 249

C321 249 318 252 318 254

C318 255 322 259 323 259

C324 259 325 258 326 257

Z

M202 256

C204 254 205 252 202 250

C201 248 197 248 195 249

C193 251 194 255 196 256

C199 258 200 258 202 256

Z

M287 256

C289 255 290 251 288 249

C285 247 279 249 279 253

C279 254 282 258 284 258

C284 258 286 257 287 256

Z

M530 256

C532 255 533 251 531 249

C529 247 524 248 523 250

C522 253 522 254 524 256

C526 258 527 258 530 256

Z

M438 256

C438 255 439 253 439 252

C439 247 432 246 430 250

C428 254 434 259 438 256

Z

M583 254

C584 251 584 251 583 249

C580 244 574 246 574 251

C574 256 580 258 583 254

Z

M362 252

C364 249 362 245 358 245

C355 245 353 247 353 250

C353 252 355 254 358 254

C360 254 361 253 362 252

Z

M397 252

C398 248 397 246 394 245

C390 245 388 247 388 249

C388 252 390 254 393 254

C395 254 396 253 397 252

Z

M116 250

C117 249 117 247 117 246

C117 244 113 236 112 236

C112 236 108 244 108 247

C108 251 114 254 116 250

Z

M340 250

C342 247 340 243 336 243

C333 243 331 245 331 248

C331 250 333 252 336 252

C338 252 339 251 340 250

Z

M470 250

C473 247 471 242 467 242

C465 242 462 245 462 247

C462 249 465 252 467 252

C468 252 470 251 470 250

Z

M133 249

C135 247 135 246 135 244

C134 241 130 235 129 235

C128 235 127 237 127 240

C125 244 125 245 126 247

C128 251 130 252 133 249

Z

M98 248

C100 246 100 245 100 241

C99 234 98 233 94 238

C91 243 90 245 92 248

C93 251 96 251 98 248

Z

M521 247

C523 245 523 244 521 241

C520 239 516 238 514 240

C513 242 513 246 515 247

C517 250 519 249 521 247

Z

M26 247

C28 245 27 240 25 239

C21 237 18 239 18 243

C18 246 20 248 23 248

C24 248 25 247 26 247

Z

M211 246

C213 243 212 241 210 239

C207 238 207 238 205 239

C200 242 202 248 207 248

C209 248 210 247 211 246

Z

M150 245

C151 245 152 243 152 242

C152 240 149 236 147 233

L144 231

L143 236

C142 243 143 247 148 247

C148 247 150 246 150 245

Z

M81 244

C83 242 84 235 82 232

C81 231 80 231 77 234

C74 238 73 243 75 245

C77 246 79 246 81 244

Z

M351 244

C353 242 354 240 351 238

C350 236 346 236 344 237

C342 239 343 243 345 244

C348 246 349 246 351 244

Z

M284 243

C285 243 286 241 286 240

C286 238 283 235 281 235

C279 235 276 238 276 240

C276 242 279 245 281 245

C282 245 284 244 284 243

Z

M432 243

C434 242 435 238 433 236

C431 234 426 235 425 237

C424 240 424 241 426 243

C428 245 429 245 432 243

Z

M459 242

C460 240 460 239 459 237

C457 233 450 234 450 239

C450 244 456 246 459 242

Z

M400 241

C401 240 402 239 402 237

C402 232 396 230 393 235

C392 237 392 237 393 240

C395 242 397 243 400 241

Z

M167 240

C169 238 168 234 164 230

C162 228 160 226 160 226

C158 226 159 237 161 239

C163 241 165 242 167 240

Z

M66 238

C67 236 67 233 67 230

L67 225

L62 228

C58 232 57 234 58 238

C59 241 63 241 66 238

Z

M363 238

C365 237 366 232 364 230

C362 228 358 229 356 232

C355 234 355 234 356 237

C358 239 360 240 363 238

Z

M213 234

C215 232 216 229 214 227

C211 225 205 227 205 231

C205 232 209 236 210 236

C211 236 212 235 213 234

Z

M446 234

C448 232 449 229 447 227

C444 225 438 227 438 231

C438 232 442 236 443 236

C444 236 445 235 446 234

Z

M22 234

C24 233 25 228 23 226

C21 224 17 225 16 227

C14 230 14 231 16 233

C18 235 19 235 22 234

Z

M482 233

C487 230 489 226 487 224

C485 221 482 222 480 224

C478 225 476 232 476 234

C476 236 478 235 482 233

Z

M521 233

C523 231 524 229 521 227

C519 225 516 224 514 226

C513 228 513 232 515 233

C517 236 519 235 521 233

Z

M327 230

C327 225 325 221 322 220

C319 220 317 222 317 225

C317 228 319 230 324 232

C328 235 328 234 327 230

Z

M183 232

C185 229 184 226 180 223

C178 221 175 219 175 219

C173 219 174 228 176 231

C177 233 181 234 183 232

Z

M376 231

C380 229 378 223 373 223

C371 223 368 226 368 228

C368 229 372 233 373 233

C373 233 375 232 376 231

Z

M50 229

C52 227 53 218 51 218

C50 218 45 222 43 224

C42 226 42 229 43 231

C45 233 48 232 50 229

Z

M285 230

C286 230 287 228 287 227

C287 225 284 222 282 222

C280 222 277 225 277 227

C277 229 280 232 282 232

C283 232 285 231 285 230

Z

M432 230

C434 229 435 225 433 223

C431 221 426 222 425 224

C424 227 424 228 426 230

C428 232 429 232 432 230

Z

M227 229

C228 226 228 226 227 224

C224 219 218 221 218 226

C218 231 224 233 227 229

Z

M9 228

C11 226 11 224 9 222

C7 220 5 219 3 222

C1 224 1 226 3 228

C5 230 7 230 9 228

Z

M391 228

C393 226 392 221 390 220

C387 218 385 219 383 222

C382 224 382 224 383 227

C385 229 389 230 391 228

Z

M420 228

C420 227 421 226 421 225

C421 222 419 220 416 220

C412 220 410 224 412 227

C413 229 418 230 420 228

Z

M406 227

C406 226 407 225 407 224

C407 221 405 219 402 219

C399 219 397 221 397 224

C397 226 399 228 402 228

C403 228 405 227 406 227

Z

M469 223

C472 221 473 220 473 216

C473 213 472 212 470 212

C466 212 464 215 463 221

C463 224 463 226 464 226

C464 226 466 225 469 223

Z

M117 224

C120 220 115 214 111 216

C107 218 108 225 113 225

C114 225 116 224 117 224

Z

M132 222

C133 219 133 219 132 217

C128 213 123 215 123 220

C123 225 129 227 132 222

Z

M339 213

C337 211 334 210 332 212

C330 215 332 219 336 222

L341 225

L341 220

C341 216 341 214 339 213

Z

M103 223

C106 219 101 213 97 215

C93 217 94 224 99 224

C100 224 102 223 103 223

Z

M197 222

C200 219 198 215 193 212

C188 209 187 209 188 213

C189 219 190 222 192 223

C195 224 195 224 197 222

Z

M512 223

C514 222 515 217 513 215

C511 213 507 214 506 216

C504 219 504 220 506 222

C508 224 509 224 512 223

Z

M295 222

C297 221 298 216 296 214

C295 214 294 213 293 213

C290 213 288 215 288 218

C288 222 291 224 295 222

Z

M36 220

C38 217 40 210 39 209

C38 208 30 212 28 215

C27 217 27 218 28 220

C29 223 33 223 36 220

Z

M90 221

C92 219 91 216 89 213

C87 212 87 212 84 213

C81 215 80 218 83 220

C84 222 88 223 90 221

Z

M236 220

C238 219 238 214 236 213

C231 210 225 216 230 220

C233 222 233 222 236 220

Z

M145 219

C148 217 147 214 144 212

C140 210 136 214 138 218

C139 221 143 222 145 219

Z

M453 216

C457 212 459 209 457 206

C456 203 452 203 450 206

C448 208 447 219 449 219

C449 219 451 217 453 216

Z

M499 217

C501 215 501 213 499 211

C497 209 495 208 493 211

C488 215 494 222 499 217

Z

M75 216

C76 216 77 214 77 213

C77 211 74 208 72 208

C70 208 67 211 67 213

C67 215 70 218 72 218

C73 218 75 217 75 216

Z

M308 216

C309 216 310 214 310 213

C310 211 307 208 305 208

C303 208 300 211 300 213

C300 215 303 218 305 218

C306 218 308 217 308 216

Z

M356 206

C354 204 353 203 352 203

C346 203 345 209 351 214

L355 219

L356 214

C357 211 357 209 356 206

Z

M158 213

C160 211 160 209 158 207

C156 205 154 204 152 207

C149 210 151 215 155 215

C156 215 157 214 158 213

Z

M372 206

C374 199 368 194 365 199

C363 202 363 204 367 209

C371 214 371 213 372 206

Z

M438 209

C442 204 442 198 437 198

C433 198 431 204 433 211

C433 214 434 214 438 209

Z

M121 210

C124 207 123 203 119 202

C116 202 114 202 113 205

C113 208 115 212 118 212

C119 212 120 211 121 210

Z

M63 209

C66 207 66 204 64 202

C63 200 59 199 57 201

C55 203 56 208 58 209

C60 210 61 210 63 209

Z

M423 204

C426 197 422 191 417 196

C415 198 415 201 416 206

C417 210 417 210 419 208

C420 207 422 205 423 204

Z

M90 208

C92 206 91 203 89 200

C87 199 87 199 84 200

C81 202 80 205 83 207

C84 209 88 210 90 208

Z

M237 207

C239 206 240 202 238 200

C235 198 229 200 229 204

C229 205 232 209 234 209

C234 209 236 208 237 207

Z

M389 204

C390 201 390 198 390 197

C389 194 386 193 383 194

C380 196 381 202 385 207

C387 210 387 209 389 204

Z

M171 207

C173 205 172 200 170 199

C166 197 163 199 163 203

C163 206 165 208 168 208

C169 208 170 207 171 207

Z

M405 204

C407 200 408 197 406 194

C404 190 398 193 398 198

C398 200 402 208 402 208

C403 208 404 206 405 204

Z

M312 204

C312 203 313 202 313 201

C313 198 311 196 308 196

C304 196 302 200 304 203

C305 205 310 206 312 204

Z

M497 203

C499 200 497 196 493 196

C490 196 488 198 488 201

C488 203 490 205 493 205

C495 205 496 204 497 203

Z

M51 200

C56 196 49 189 45 194

C43 196 42 198 45 200

C47 203 49 202 51 200

Z

M183 200

C185 198 184 194 182 193

C179 191 176 192 175 195

C173 199 180 203 183 200

Z

M126 197

C127 196 128 194 128 194

C128 192 124 189 123 189

C119 189 117 195 119 198

C121 200 125 199 126 197

Z

M530 197

C533 195 533 192 531 190

C530 188 526 187 524 189

C522 191 523 196 525 197

C527 198 528 198 530 197

Z

M84 195

C89 191 83 185 78 188

C76 189 76 194 78 195

C81 197 81 197 84 195

Z

M234 194

C235 194 236 192 236 191

C236 189 233 186 231 186

C229 186 226 189 226 191

C226 193 229 196 231 196

C232 196 234 195 234 194

Z

M320 195

C322 193 321 188 319 187

C315 185 312 187 312 191

C312 194 314 196 317 196

C318 196 319 195 320 195

Z

M583 195

C585 193 584 190 582 187

C580 186 580 186 577 187

C574 189 573 192 576 194

C577 196 581 197 583 195

Z

M195 193

C196 193 197 191 197 190

C197 188 194 185 192 185

C190 185 187 188 187 190

C187 192 190 195 192 195

C193 195 195 194 195 193

Z

M487 193

C489 191 489 190 488 187

C487 185 482 184 480 186

C478 188 479 192 481 193

C484 195 485 195 487 193

Z

M10 192

C12 190 12 188 10 186

C8 184 6 183 4 186

C1 189 3 194 7 194

C8 194 10 193 10 192

Z

M39 192

C40 192 41 190 41 189

C41 187 38 184 36 184

C34 184 31 187 31 189

C31 191 34 194 36 194

C37 194 39 193 39 192

Z

M362 190

C363 187 363 187 362 185

C359 180 353 182 353 187

C353 192 359 194 362 190

Z

M25 190

C26 188 26 185 25 183

C22 180 17 183 17 187

C17 189 19 191 22 191

C23 191 24 190 25 190

Z

M207 189

C209 188 210 183 208 181

C207 181 206 180 205 180

C202 180 200 182 200 185

C200 189 203 191 207 189

Z

M305 188

C307 186 305 182 302 181

C300 181 298 181 297 182

C296 184 296 187 297 189

C299 190 304 190 305 188

Z

M333 188

C335 185 334 182 331 181

C328 181 326 182 325 185

C324 190 331 192 333 188

Z

M348 188

C349 185 349 185 348 183

C345 178 339 180 339 185

C339 190 345 192 348 188

Z

M136 186

C138 183 136 181 133 180

C129 180 127 182 127 184

C127 189 134 191 136 186

Z

M223 188

C224 186 224 183 223 181

C221 179 216 180 215 182

C213 185 215 189 219 189

C220 189 222 188 223 188

Z

M445 188

C445 187 446 186 446 185

C446 182 444 180 441 180

C437 180 435 184 437 187

C438 189 443 190 445 188

Z

M474 187

C476 185 476 183 474 181

C472 179 470 178 468 181

C465 184 467 189 471 189

C472 189 473 188 474 187

Z

M543 188

C544 186 544 183 543 181

C541 179 536 180 535 182

C533 185 535 189 539 189

C540 189 542 188 543 188

Z

M571 188

C571 187 572 186 572 185

C572 182 570 180 567 180

C563 180 561 184 563 187

C564 189 569 190 571 188

Z

M75 185

C77 182 76 180 74 178

C71 177 71 177 69 178

C64 181 66 187 71 187

C73 187 74 186 75 185

Z

M460 186

C462 184 461 180 459 179

C458 178 456 177 456 177

C454 177 451 181 451 182

C451 186 457 188 460 186

Z

M164 185

C166 183 165 179 163 178

C162 177 160 176 160 176

C158 176 155 180 155 181

C155 185 161 187 164 185

Z

M291 185

C293 183 292 179 290 177

C287 176 287 176 285 177

C282 179 281 181 283 184

C284 186 289 187 291 185

Z

M557 185

C559 183 558 179 556 177

C553 176 553 176 551 177

C548 179 547 181 549 184

C550 186 555 187 557 185

Z

M148 183

C150 181 150 181 149 178

C149 176 148 176 145 176

C142 176 141 176 141 178

C140 181 140 181 142 183

C143 184 145 185 145 185

C145 185 147 184 148 183

Z

M530 181

C532 179 531 174 529 173

C525 171 522 173 522 177

C522 180 524 182 527 182

C528 182 529 181 530 181

Z

M369 180

C371 178 370 173 368 172

C364 170 361 172 361 176

C361 179 363 181 366 181

C367 181 368 180 369 180

Z

M22 178

C24 175 22 171 18 171

C15 171 13 173 13 176

C13 178 15 180 18 180

C20 180 21 179 22 178

Z

M63 179

C64 177 64 174 63 172

C62 171 60 171 58 171

C55 172 53 176 55 178

C56 180 61 180 63 179

Z

M435 178

C436 177 437 176 437 174

C437 169 431 167 428 172

C427 174 427 174 428 177

C430 179 432 180 435 178

Z

M172 176

C174 175 175 170 173 168

C172 168 171 167 170 167

C167 167 165 169 165 172

C165 176 168 178 172 176

Z

M279 175

C281 173 281 173 280 170

C279 165 271 166 271 172

C271 174 274 177 276 177

C276 177 278 176 279 175

Z

M34 173

C37 170 36 166 32 165

C29 165 27 165 26 168

C26 171 28 175 31 175

C32 175 33 174 34 173

Z

M49 173

C51 171 49 166 47 166

C44 165 41 167 41 170

C41 171 42 173 42 174

C44 175 48 175 49 173

Z

M518 174

C519 173 519 171 519 169

C518 164 510 164 510 170

C510 171 511 173 511 174

C513 175 516 175 518 174

Z

M488 171

C490 170 490 166 489 164

C487 162 483 163 482 165

C480 168 480 169 482 171

C484 173 486 174 488 171

Z

M378 170

C383 166 377 160 372 163

C370 164 370 169 372 170

C375 172 375 172 378 170

Z

M504 171

C504 170 505 168 505 167

C505 161 497 161 496 166

C495 170 501 174 504 171

Z

M96 168

C99 166 98 163 96 161

C93 160 93 160 91 161

C88 163 87 165 89 168

C90 170 94 171 96 168

Z

M182 169

C187 167 185 160 181 160

C179 160 178 161 177 161

C175 163 176 168 178 169

C180 170 179 170 182 169

Z

M113 167

C115 165 115 164 113 161

C111 157 105 159 105 164

C105 169 110 170 113 167

Z

M426 167

C428 165 428 163 426 161

C424 159 422 158 420 161

C417 164 419 169 423 169

C424 169 425 168 426 167

Z

M343 167

C345 165 344 162 342 159

C340 158 340 158 337 159

C334 161 333 164 336 166

C337 168 341 169 343 167

Z

M82 164

C83 161 83 161 82 159

C79 154 73 156 73 161

C73 166 79 168 82 164

Z

M198 165

C198 164 199 162 199 161

C199 158 197 156 195 156

C192 156 190 158 190 161

C190 164 192 166 195 166

C196 166 197 165 198 165

Z

M212 165

C212 164 213 163 213 162

C213 159 211 157 208 157

C204 157 202 161 204 164

C205 166 210 167 212 165

Z

M291 164

C291 163 292 162 292 161

C292 158 290 156 287 156

C283 156 281 160 283 163

C284 165 289 166 291 164

Z

M358 164

C358 163 359 162 359 161

C359 158 357 156 354 156

C350 156 348 162 351 164

C353 165 356 165 358 164

Z

M326 163

C326 162 327 160 327 159

C327 154 320 153 318 157

C316 161 322 166 326 163

Z

M127 162

C129 160 128 155 126 154

C122 152 119 154 119 158

C119 161 121 163 124 163

C125 163 126 162 127 162

Z

M275 161

C277 159 278 157 275 155

C273 153 270 152 268 154

C267 156 267 160 269 161

C271 164 273 163 275 161

Z

M389 161

C392 159 391 157 389 154

C384 150 378 157 383 161

C385 163 387 163 389 161

Z

M416 160

C420 156 416 151 411 152

C408 153 407 158 410 160

C411 161 412 162 413 162

C414 162 415 161 416 160

Z

M305 159

C306 158 307 157 307 155

C307 150 301 148 298 153

C297 155 297 155 298 158

C300 160 302 161 305 159

Z

M403 158

C403 157 404 155 404 154

C404 149 397 148 395 152

C393 156 399 161 403 158

Z

M372 156

C372 155 373 153 373 152

C373 147 366 146 364 150

C362 154 368 159 372 156

Z

M69 155

C72 151 67 145 63 147

C59 149 60 156 65 156

C66 156 68 155 69 155

Z

M262 154

C267 150 261 143 256 148

C253 150 254 152 256 154

C258 156 260 157 262 154

Z

M335 153

C337 152 338 147 336 145

C334 143 330 144 329 146

C327 148 327 151 330 153

C332 154 333 154 335 153

Z

M321 151

C324 149 323 147 321 145

C319 143 317 142 315 145

C313 147 312 150 314 152

C316 153 320 153 321 151

Z

M138 150

C140 148 140 147 139 144

C138 142 133 141 131 143

C129 145 130 149 132 150

C135 152 136 152 138 150

Z

M171 150

C172 150 173 148 173 147

C173 145 170 142 168 142

C166 142 163 145 163 147

C163 149 166 152 168 152

C169 152 171 151 171 150

Z

M186 149

C188 148 188 144 187 142

C185 140 181 141 180 143

C178 146 178 147 180 149

C182 151 184 152 186 149

Z

M123 148

C127 146 124 139 120 139

C119 139 117 140 116 142

C115 144 115 144 116 147

C118 149 120 150 123 148

Z

M153 148

C155 146 154 141 152 140

C148 138 145 140 145 144

C145 147 147 149 150 149

C151 149 152 148 153 148

Z

M277 148

C279 147 280 142 278 140

C277 140 276 139 275 139

C272 139 270 141 270 144

C270 148 273 150 277 148

Z

M308 147

C309 146 310 145 310 143

C310 138 304 136 301 141

C300 143 300 143 301 146

C303 148 305 149 308 147

Z

M347 146

C349 145 350 140 348 138

C346 136 342 137 340 140

C339 142 339 142 340 145

C342 147 344 148 347 146

Z

M415 146

C415 145 416 144 416 143

C416 140 414 138 411 138

C407 138 405 144 408 146

C410 147 413 147 415 146

Z

M253 145

C255 143 254 138 252 137

C248 135 245 137 245 141

C245 144 247 146 250 146

C251 146 252 145 253 145

Z

M201 144

C203 142 202 139 200 136

C196 133 190 139 194 143

C196 145 199 146 201 144

Z

M457 143

C457 142 458 141 458 140

C458 137 456 135 453 135

C449 135 448 138 449 141

C450 143 451 144 453 144

C454 144 456 143 457 143

Z

M362 142

C364 140 363 135 361 134

C357 132 354 134 354 138

C354 141 356 143 359 143

C360 143 361 142 362 142

Z

M473 141

C474 141 475 139 475 138

C475 136 472 133 470 133

C468 133 465 136 465 138

C465 140 468 143 470 143

C471 143 473 142 473 141

Z

M296 140

C298 138 299 136 296 134

C292 129 285 135 290 140

C292 143 294 142 296 140

Z

M165 140

C167 138 166 133 164 132

C160 130 157 132 157 136

C157 139 159 141 162 141

C163 141 164 140 165 140

Z

M441 137

C444 134 442 129 438 129

C436 129 433 132 433 134

C433 136 436 139 438 139

C439 139 441 138 441 137

Z

M72 137

C74 136 75 131 73 129

C71 127 67 128 66 130

C64 132 64 135 67 137

C69 138 70 138 72 137

Z

M114 136

C116 134 116 132 114 130

C112 128 110 127 108 130

C105 133 107 138 111 138

C112 138 113 137 114 136

Z

M88 135

C90 132 89 130 87 128

C84 127 84 127 82 128

C77 131 79 137 84 137

C86 137 87 136 88 135

Z

M489 136

C489 135 490 134 490 133

C490 130 488 128 485 128

C481 128 479 132 481 135

C482 137 487 138 489 136

Z

M373 134

C375 132 376 129 374 127

C371 125 365 127 365 131

C365 132 369 136 370 136

C371 136 372 135 373 134

Z

M427 135

C427 134 428 133 428 132

C428 129 426 127 423 127

C419 127 417 131 419 134

C420 136 425 137 427 135

Z

M101 133

C103 132 103 127 101 126

C96 123 90 129 95 133

C98 135 98 135 101 133

Z

M284 133

C286 131 286 129 284 127

C282 125 280 124 278 127

C275 130 277 135 281 135

C282 135 283 134 284 133

Z

M59 132

C61 130 59 125 57 125

C55 124 51 125 51 128

C50 129 51 130 52 132

C53 134 58 135 59 132

Z

M212 133

C212 132 213 130 213 129

C213 124 206 123 204 127

C202 131 208 136 212 133

Z

M351 132

C353 130 353 129 352 128

C349 124 343 125 343 129

C343 134 349 136 351 132

Z

M178 130

C180 127 178 125 175 124

C171 124 169 126 169 128

C169 133 176 135 178 130

Z

M250 130

C253 128 252 126 250 124

C248 122 246 121 244 124

C239 128 245 135 250 130

Z

M387 127

C389 124 387 120 383 120

C380 120 378 122 378 125

C378 127 380 129 383 129

C385 129 386 128 387 127

Z

M500 127

C502 125 502 123 500 121

C498 119 496 118 494 121

C491 124 493 129 497 129

C498 129 499 128 500 127

Z

M47 126

C49 123 47 119 43 119

C40 119 38 121 38 124

C38 126 40 128 43 128

C45 128 46 127 47 126

Z

M272 126

C274 124 272 119 270 119

C268 118 264 119 264 122

C263 123 264 124 265 126

C266 128 271 129 272 126

Z

M515 127

C515 126 516 125 516 124

C516 121 514 119 511 119

C507 119 505 125 508 127

C510 128 513 128 515 127

Z

M152 120

C150 113 144 109 142 113

C140 116 142 120 147 122

C152 125 153 125 152 120

Z

M189 124

C189 123 190 121 190 120

C190 115 183 114 181 118

C179 122 185 127 189 124

Z

M92 123

C94 121 93 117 91 116

C90 115 88 114 88 114

C86 114 83 118 83 119

C83 123 89 125 92 123

Z

M114 122

C116 120 116 118 114 116

C112 114 110 113 108 116

C105 119 107 124 111 124

C112 124 113 123 114 122

Z

M306 121

C311 119 312 116 312 112

C311 109 306 109 303 112

C302 115 300 123 301 123

C302 123 304 122 306 121

Z

M398 121

C400 119 400 118 398 115

C397 113 393 112 391 114

C390 116 390 120 392 121

C394 124 396 123 398 121

Z

M430 121

C432 118 430 114 426 114

C423 114 421 116 421 119

C421 121 423 123 426 123

C428 123 429 122 430 121

Z

M487 121

C490 119 489 117 487 115

C485 113 484 113 481 115

C479 116 478 120 480 122

C482 123 486 123 487 121

Z

M529 121

C531 118 530 116 528 114

C525 113 525 113 523 114

C518 117 520 123 525 123

C527 123 528 122 529 121

Z

M258 121

C259 120 260 119 260 117

C260 112 254 110 251 115

C250 117 250 117 251 120

C253 122 255 123 258 121

Z

M202 120

C204 119 205 114 203 112

C202 112 201 111 200 111

C197 111 195 113 195 116

C195 120 198 122 202 120

Z

M350 120

C353 117 350 112 347 112

C344 112 342 114 342 117

C342 119 344 121 347 121

C348 121 349 120 350 120

Z

M23 117

C24 117 25 115 25 114

C25 112 22 109 20 109

C18 109 15 112 15 114

C15 116 18 119 20 119

C21 119 23 118 23 117

Z

M215 118

C217 117 218 112 216 110

C215 110 214 109 213 109

C210 109 208 111 208 114

C208 118 211 120 215 118

Z

M230 116

C232 114 232 113 230 110

C228 106 222 108 222 113

C222 118 227 119 230 116

Z

M245 117

C247 115 246 111 244 110

C243 109 241 108 241 108

C239 108 236 112 236 113

C236 117 242 119 245 117

Z

M39 116

C40 114 40 111 39 109

C38 108 36 108 34 108

C31 109 29 113 31 115

C32 117 37 117 39 116

Z

M410 114

C413 111 411 106 407 106

C405 106 402 109 402 111

C402 113 405 116 407 116

C408 116 410 115 410 114

Z

M541 114

C543 111 541 107 537 107

C534 107 532 109 532 112

C532 114 534 116 537 116

C539 116 540 115 541 114

Z

M166 110

C164 103 162 100 158 102

C154 103 155 109 160 112

C165 116 166 116 166 110

Z

M11 112

C13 109 11 105 7 105

C4 105 2 107 2 110

C2 112 4 114 7 114

C9 114 10 113 11 112

Z

M82 113

C84 112 85 107 83 105

C81 103 77 104 75 107

C74 109 74 109 75 112

C77 114 79 115 82 113

Z

M98 112

C100 109 98 105 94 105

C91 105 89 107 89 110

C89 112 91 114 94 114

C96 114 97 113 98 112

Z

M293 111

C297 108 297 108 297 104

C297 101 296 100 294 100

C290 100 288 103 287 109

C287 112 287 114 288 114

C288 114 291 113 293 111

Z

M52 112

C54 110 53 106 51 104

C48 103 48 103 46 104

C43 106 42 108 44 111

C45 113 50 114 52 112

Z

M123 112

C125 110 124 106 122 105

C120 102 117 103 115 106

C114 109 114 109 115 111

C118 113 121 114 123 112

Z

M339 110

C341 108 341 106 339 104

C337 102 335 102 333 104

C331 106 331 108 333 110

C335 112 337 113 339 110

Z

M491 110

C493 108 491 103 489 103

C484 101 481 106 484 110

C485 112 490 112 491 110

Z

M374 107

C373 101 372 99 369 98

C367 97 367 97 365 99

C362 102 364 106 370 109

C375 112 375 112 374 107

Z

M423 108

C427 105 425 100 421 100

C418 100 415 103 415 105

C415 106 419 110 420 110

C421 110 422 109 423 108

Z

M476 108

C478 106 479 104 476 102

C472 97 465 103 470 108

C472 111 474 110 476 108

Z

M505 108

C507 106 507 106 506 103

C506 101 505 101 502 101

C499 101 498 101 498 103

C497 106 497 106 499 108

C500 109 502 110 502 110

C502 110 504 109 505 108

Z

M70 107

C72 105 73 103 70 101

C69 99 65 99 63 100

C61 102 62 106 64 107

C67 109 68 109 70 107

Z

M109 106

C111 104 111 104 110 101

C109 96 101 97 101 103

C101 105 104 108 106 108

C106 108 108 107 109 106

Z

M137 106

C139 103 137 99 133 99

C130 99 128 101 128 104

C128 106 130 108 133 108

C135 108 136 107 137 106

Z

M180 100

C179 94 175 91 172 94

C170 97 171 101 175 105

L179 108

L180 106

C181 105 181 102 180 100

Z

M279 103

C281 100 282 97 281 94

C278 89 272 93 272 100

C272 107 274 108 279 103

Z

M327 105

C329 102 328 99 326 98

C322 97 319 99 319 103

C319 107 325 109 327 105

Z

M550 105

C552 103 552 101 550 99

C548 97 546 96 544 99

C539 103 545 110 550 105

Z

M438 105

C440 103 439 98 437 97

C434 95 432 96 430 99

C429 101 429 101 430 104

C432 106 436 107 438 105

Z

M453 103

C455 100 453 96 449 96

C446 96 444 98 444 101

C444 103 446 105 449 105

C451 105 452 104 453 103

Z

M36 103

C38 101 37 97 35 96

C33 94 28 96 28 98

C27 101 29 104 32 104

C33 104 35 103 36 103

Z

M58 101

C58 100 59 99 59 98

C59 95 57 93 54 93

C50 93 49 96 50 99

C51 101 52 102 54 102

C55 102 57 101 58 101

Z

M196 98

C197 96 197 94 197 93

C197 91 194 87 192 87

C190 87 187 90 187 92

C187 94 193 102 195 102

C195 102 196 100 196 98

Z

M262 98

C266 93 266 88 263 87

C259 85 256 88 256 93

C256 97 257 102 258 102

C258 102 260 100 262 98

Z

M388 97

C388 95 387 91 386 90

C384 86 378 88 378 92

C378 94 385 102 387 102

C388 102 388 100 388 97

Z

M517 100

C520 98 519 93 516 92

C511 91 507 96 511 100

C512 101 513 102 514 102

C515 102 516 101 517 100

Z

M342 99

C344 98 345 93 343 91

C342 91 341 90 340 90

C337 90 335 92 335 95

C335 99 338 101 342 99

Z

M213 94

C214 88 213 84 210 83

C208 83 207 83 206 85

C205 86 204 88 204 88

C204 90 210 99 211 99

C211 98 212 96 213 94

Z

M466 98

C468 97 469 92 467 90

C466 90 465 89 464 89

C461 89 459 91 459 94

C459 98 462 100 466 98

Z

M245 94

C249 88 249 83 244 83

C239 83 238 87 240 94

C241 96 242 98 242 98

C243 98 244 96 245 94

Z

M229 92

C231 87 231 86 230 84

C228 81 224 81 222 84

C221 87 221 88 223 92

C224 95 226 97 226 97

C226 97 228 95 229 92

Z

M46 94

C47 92 47 89 46 87

C44 85 40 86 39 88

C37 91 37 92 39 94

C41 96 45 96 46 94

Z

M112 93

C113 93 114 91 114 90

C114 88 111 85 109 85

C107 85 104 88 104 90

C104 92 107 95 109 95

C110 95 112 94 112 93

Z

M139 93

C141 91 141 89 139 87

C137 85 135 84 133 87

C130 90 132 95 136 95

C137 95 138 94 139 93

Z

M323 94

C325 93 326 88 324 86

C322 84 318 85 317 87

C315 89 315 92 318 94

C320 95 321 95 323 94

Z

M355 93

C356 93 357 91 357 90

C357 88 354 85 352 85

C350 85 347 88 347 90

C347 92 350 95 352 95

C353 95 355 94 355 93

Z

M403 89

C403 85 403 83 401 82

C398 78 394 80 394 85

C394 87 400 95 402 95

C403 95 403 92 403 89

Z

M555 93

C556 93 557 91 557 90

C557 84 549 83 548 88

C547 91 547 91 549 93

C552 95 552 95 555 93

Z

M530 93

C532 91 531 86 529 85

C525 83 522 85 522 89

C522 92 524 94 527 94

C528 94 529 93 530 93

Z

M587 90

C589 88 589 86 587 84

C585 82 583 81 581 84

C578 87 580 92 584 92

C585 92 586 91 587 90

Z

M420 80

C420 78 417 74 415 74

C414 74 412 75 411 76

C410 79 410 82 415 87

L417 90

L419 86

C419 84 420 82 420 80

Z

M33 87

C35 85 35 83 33 81

C31 79 29 78 27 81

C25 83 25 85 27 87

C29 89 31 89 33 87

Z

M435 83

C438 76 437 73 434 71

C432 70 428 71 428 74

C427 76 432 86 433 86

C433 86 434 85 435 83

Z

M541 84

C544 82 543 77 540 76

C535 75 531 80 535 84

C536 85 537 86 538 86

C539 86 540 85 541 84

Z

M316 84

C316 83 317 82 317 81

C317 78 315 76 312 76

C308 76 306 80 308 83

C309 85 314 86 316 84

Z

M452 81

C455 75 454 69 450 69

C447 69 445 72 445 75

C445 77 449 85 450 85

C450 85 451 83 452 81

Z

M466 84

C468 83 469 78 467 76

C466 76 465 75 464 75

C461 75 459 77 459 80

C459 84 462 86 466 84

Z

M504 81

C503 74 497 70 494 74

C492 76 494 80 499 83

C504 86 505 86 504 81

Z

M67 82

C73 79 75 75 72 72

C70 70 70 70 68 71

C66 71 65 73 64 74

C63 78 62 84 62 84

C63 84 65 83 67 82

Z

M149 82

C150 79 150 79 149 77

C146 72 140 74 140 79

C140 84 146 86 149 82

Z

M20 81

C22 79 23 77 20 75

C19 73 15 73 13 74

C11 76 12 80 14 81

C17 83 18 83 20 81

Z

M358 81

C359 81 360 79 360 78

C360 72 352 71 351 76

C350 79 350 79 352 81

C355 83 355 83 358 81

Z

M111 80

C112 80 113 78 113 77

C113 75 110 72 108 72

C106 72 103 75 103 77

C103 79 106 82 108 82

C109 82 111 81 111 80

Z

M555 80

C556 80 557 78 557 77

C557 71 549 70 548 75

C547 78 547 78 549 80

C552 82 552 82 555 80

Z

M275 79

C276 76 275 73 273 72

C269 70 264 76 267 80

C269 82 274 81 275 79

Z

M302 78

C304 76 304 71 301 70

C296 68 292 75 296 78

C299 81 300 80 302 78

Z

M190 78

C192 77 193 72 191 70

C190 70 189 69 188 69

C185 69 183 71 183 74

C183 78 186 80 190 78

Z

M289 77

C291 74 290 72 288 70

C285 69 285 69 283 70

C278 73 280 79 285 79

C287 79 288 78 289 77

Z

M569 78

C569 77 570 76 570 75

C570 72 568 70 565 70

C561 70 559 74 561 77

C562 79 567 80 569 78

Z

M161 76

C164 74 163 70 159 69

C157 68 157 68 155 69

C153 72 152 75 154 77

C156 79 159 78 161 76

Z

M583 77

C583 76 584 75 584 74

C584 71 582 69 579 69

C575 69 573 73 575 76

C576 78 581 79 583 77

Z

M176 75

C177 73 177 70 176 68

C173 65 166 69 168 73

C169 77 174 78 176 75

Z

M517 66

C515 61 508 61 508 66

C508 69 510 71 514 74

L518 76

L518 72

C518 70 518 67 517 66

Z

M57 69

C60 65 59 61 55 61

C51 61 49 64 49 70

L49 75

L52 73

C54 72 56 70 57 69

Z

M475 72

C477 70 478 68 475 66

C471 61 464 67 469 72

C471 75 473 74 475 72

Z

M101 71

C103 69 103 68 101 65

C99 61 93 63 93 68

C93 73 98 74 101 71

Z

M367 72

C367 71 368 69 368 68

C368 62 360 62 359 67

C358 71 364 75 367 72

Z

M268 69

C269 66 269 66 268 64

C265 59 259 61 259 66

C259 71 265 73 268 69

Z

M409 67

C410 65 410 64 409 62

C407 58 400 59 400 64

C400 69 406 71 409 67

Z

M489 68

C489 67 490 65 490 64

C490 59 483 58 481 62

C479 66 485 71 489 68

Z

M532 56

C530 53 525 53 524 56

C522 59 523 61 528 66

L533 69

L533 64

C533 61 533 58 532 56

Z

M39 64

C43 60 44 58 42 55

C42 53 38 53 36 55

C34 56 33 68 35 68

C35 68 37 66 39 64

Z

M88 66

C89 66 90 64 90 63

C90 61 87 58 85 58

C83 58 80 61 80 63

C80 65 83 68 85 68

C86 68 88 67 88 66

Z

M200 66

C204 62 200 56 195 58

C192 59 192 64 194 66

C196 69 198 69 200 66

Z

M380 66

C380 65 381 64 381 63

C381 58 375 56 373 60

C369 65 376 70 380 66

Z

M394 66

C396 64 395 59 393 58

C390 56 386 58 386 62

C386 63 387 65 387 66

C389 67 392 67 394 66

Z

M26 56

C27 53 27 52 26 50

C25 46 21 46 18 49

C17 52 17 53 18 58

L19 63

L21 61

C23 60 25 57 26 56

Z

M548 61

C550 58 549 51 547 50

C544 46 540 48 540 53

C540 55 545 63 547 63

C547 63 548 62 548 61

Z

M258 59

C260 56 258 52 254 52

C251 52 249 54 249 57

C249 59 251 61 254 61

C256 61 257 60 258 59

Z

M213 58

C215 56 215 54 213 52

C211 50 209 49 207 52

C204 55 206 60 210 60

C211 60 212 59 213 58

Z

M566 50

C566 45 561 42 558 45

C556 47 557 52 560 56

L563 60

L565 57

C565 55 566 52 566 50

Z

M416 57

C416 56 417 54 417 53

C417 47 409 47 408 52

C407 56 413 60 416 57

Z

M581 54

C584 47 583 42 578 42

C576 42 574 45 574 48

C574 49 578 58 579 58

C579 58 580 56 581 54

Z

M243 55

C245 53 245 52 243 49

C241 45 235 47 235 52

C235 57 240 58 243 55

Z

M227 54

C230 52 229 47 226 46

C221 45 217 50 221 54

C222 55 223 56 224 56

C225 56 226 55 227 54

Z

M86 53

C88 51 86 47 83 46

C81 46 79 46 78 47

C77 49 77 52 78 54

C80 55 85 55 86 53

Z

M493 52

C493 49 492 47 489 46

C486 46 484 48 484 51

C484 54 485 55 489 55

C491 55 492 55 493 52

Z

M480 48

C482 45 481 43 479 41

C476 40 476 40 474 41

C469 44 471 50 476 50

C478 50 479 49 480 48

Z

M425 47

C427 45 428 43 425 41

C423 39 420 38 418 40

C417 42 417 46 419 47

C421 50 423 49 425 47

Z

M78 44

C79 42 79 41 78 39

C76 35 69 36 69 41

C69 46 75 48 78 44

Z

M500 43

C504 41 502 35 498 35

C493 35 491 40 494 43

C496 45 497 45 500 43

Z

M89 41

C91 39 91 37 89 35

C87 33 85 33 83 35

C81 37 80 39 83 41

C85 43 87 43 89 41

Z

M36 41

C38 39 37 34 34 33

C31 31 29 32 28 36

C26 40 33 44 36 41

Z

M438 40

C440 38 440 36 438 34

C436 32 434 31 432 34

C429 37 431 42 435 42

C436 42 437 41 438 40

Z

M468 41

C470 39 469 34 467 33

C464 31 460 33 460 37

C460 38 461 40 461 41

C463 42 466 42 468 41

Z

M49 39

C51 38 52 33 50 31

C48 30 45 30 43 31

C41 33 42 38 44 39

C46 40 47 40 49 39

Z

M64 38

C66 35 65 32 62 31

C58 31 56 33 56 35

C56 40 62 42 64 38

Z

M452 39

C454 38 455 33 453 31

C451 30 448 30 446 31

C446 32 445 34 445 35

C445 39 448 41 452 39

Z

M104 38

C104 37 105 36 105 35

C105 32 103 30 100 30

C96 30 94 34 96 37

C97 39 102 40 104 38

Z

M513 38

C515 37 516 32 514 30

C512 28 508 29 507 31

C505 34 505 35 507 37

C509 39 510 39 513 38

Z

M544 38

C544 37 545 36 545 35

C545 32 543 30 540 30

C536 30 534 34 536 37

C537 39 542 40 544 38

Z

M529 35

C531 32 530 30 528 28

C525 27 525 27 523 28

C520 30 519 34 521 36

C523 38 528 37 529 35

Z

M116 32

C118 30 118 29 116 26

C115 24 111 23 109 25

C108 27 108 31 110 32

C112 35 114 34 116 32

Z

M238 32

C240 30 241 27 239 25

C236 23 230 25 230 29

C230 30 234 34 235 34

C236 34 237 33 238 32

Z

M253 32

C256 30 255 28 253 26

C251 24 250 24 247 26

C245 27 244 31 246 33

C248 34 252 34 253 32

Z

M357 33

C360 31 360 28 358 26

C357 24 353 23 351 25

C349 27 350 32 352 33

C354 34 355 34 357 33

Z

M28 30

C30 29 31 25 29 23

C27 21 22 22 21 24

C20 27 20 28 22 30

C24 32 25 32 28 30

Z

M307 30

C309 28 308 23 306 22

C302 20 299 22 299 26

C299 29 301 31 304 31

C305 31 306 30 307 30

Z

M343 30

C345 29 346 24 344 22

C342 21 339 21 337 22

C335 24 336 29 338 30

C340 31 341 31 343 30

Z

M373 29

C374 27 374 26 373 24

C371 20 364 21 364 26

C364 31 370 33 373 29

Z

M70 28

C72 27 73 23 71 21

C69 20 66 20 64 21

C62 22 62 27 65 29

C67 30 67 30 70 28

Z

M294 27

C296 24 294 20 290 20

C287 20 285 22 285 25

C285 27 287 29 290 29

C292 29 293 28 294 27

Z

M321 27

C323 25 324 23 321 21

C319 19 316 18 314 20

C313 22 313 26 315 27

C317 30 319 29 321 27

Z

M226 26

C228 22 223 17 219 20

C217 21 216 25 218 27

C220 29 225 28 226 26

Z

M267 26

C269 23 267 19 263 19

C260 19 258 21 258 24

C258 26 260 28 263 28

C265 28 266 27 267 26

Z

M553 27

C554 25 554 22 553 20

C551 18 547 19 545 22

C543 26 549 30 553 27

Z

M279 25

C281 24 282 19 280 17

C278 15 274 16 272 19

C271 21 271 21 272 24

C274 26 276 27 279 25

Z

M400 24

C401 21 401 21 400 19

C397 15 391 16 391 20

C391 26 397 28 400 24

Z

M140 22

C142 17 138 13 133 16

C131 17 130 21 132 23

C134 25 138 24 140 22

Z

M123 22

C125 21 126 16 124 14

C122 13 119 13 117 14

C115 16 116 21 118 22

C120 23 121 23 123 22

Z

M385 22

C388 20 387 16 384 14

C380 12 375 18 378 22

C380 23 383 23 385 22

Z

M414 22

C417 18 412 12 408 14

C405 15 405 18 407 21

C408 23 412 24 414 22

Z

M427 22

C429 21 430 16 428 14

C426 12 422 13 421 15

C419 17 419 20 422 22

C424 23 425 23 427 22

Z

M19 21

C21 18 19 12 15 12

C14 12 10 16 10 17

C10 21 16 23 19 21

Z

M213 20

C215 18 215 17 213 14

C212 12 208 11 206 13

C205 15 205 19 207 20

C209 23 211 22 213 20

Z

M335 20

C337 18 337 17 335 14

C333 10 327 12 327 17

C327 22 332 23 335 20

Z

M41 19

C43 17 44 14 42 12

C39 10 33 12 33 16

C33 17 37 21 38 21

C39 21 40 20 41 19

Z

M65 18

C67 16 67 15 65 12

C64 10 60 9 58 11

C57 13 57 17 59 18

C61 21 63 20 65 18

Z

M152 18

C154 16 154 15 152 12

C151 10 147 9 145 11

C144 13 144 17 146 18

C148 21 150 20 152 18

Z

M80 17

C82 15 80 10 78 10

C75 9 72 10 71 13

C70 18 78 21 80 17

Z

M110 18

C112 17 113 12 111 10

C109 9 106 9 104 10

C102 12 103 17 105 18

C107 19 108 19 110 18

Z

M262 16

C264 15 265 11 263 9

C261 7 256 8 255 10

C254 13 254 14 256 16

C258 18 259 18 262 16

Z

M577 16

C578 16 579 14 579 13

C579 7 571 6 570 11

C569 14 569 14 571 16

C574 18 574 18 577 16

Z

M440 15

C441 15 442 13 442 12

C442 10 439 7 437 7

C435 7 432 10 432 12

C432 14 435 17 437 17

C438 17 440 16 440 15

Z

M563 16

C563 15 564 13 564 12

C564 6 556 6 555 11

C554 15 560 19 563 16

Z

M249 13

C250 10 250 10 249 8

C246 3 240 5 240 10

C240 15 246 17 249 13

Z

M278 13

C279 11 279 11 278 8

C275 3 269 5 269 11

C269 15 274 16 278 13

Z

M373 14

C377 12 375 5 370 5

C368 5 365 8 365 10

C365 12 368 15 370 15

C370 15 372 15 373 14

Z

M93 12

C94 9 94 9 93 7

C90 2 84 4 84 9

C84 14 90 16 93 12

Z

M54 11

C55 8 55 8 54 6

C51 1 45 3 45 8

C45 13 51 15 54 11

Z

M395 11

C397 9 397 8 395 5

C393 1 387 3 387 8

C387 13 392 14 395 11

Z

M204 10

C206 7 204 3 200 3

C197 3 195 5 195 8

C195 10 197 12 200 12

C202 12 203 11 204 10

Z

M549 10

C551 8 551 6 549 4

C547 2 545 1 543 4

C540 7 542 12 546 12

C547 12 548 11 549 10

Z

"/>

</svg>

