<?xml version="1.0" standalone="no"?>

<!DOCTYPE svg PUBLIC "-//W3C//DTD SVG 20010904//EN"

 "http://www.w3.org/TR/2001/REC-SVG-20010904/DTD/svg10.dtd">

<svg version="1.0" xmlns="http://www.w3.org/2000/svg"

 width="658.000000pt" height="618.000000pt" viewBox="0 0 658.000000 618.000000"

 preserveAspectRatio="xMidYMid meet">

<path fill="#fafaf9" stroke="none" d="
M0 309

L0 0

L329 0

L658 0

L658 309

L658 618

L329 618

L0 618

L0 309

Z

"/>

<path fill="#1c1a1a" stroke="none" d="
M33 490

L33 379

L36 378

C40 375 41 373 39 370

C38 369 36 368 35 368

C33 367 33 366 33 341

C33 316 33 315 35 314

C38 313 45 307 45 305

C45 302 41 298 37 295

L33 294

L33 286

L33 279

L38 279

C43 278 48 274 48 272

C48 269 40 265 35 265

C33 265 33 261 33 199

L33 134

L36 135

C37 135 42 135 46 135

C51 135 53 135 58 133

C63 130 67 126 67 123

C67 121 62 116 58 114

C53 111 41 110 36 112

L33 113

L33 61

L33 9

L274 9

L515 9

L513 12

C512 15 512 15 514 18

C519 24 525 27 535 26

C544 26 548 25 554 20

C557 17 558 13 556 12

C553 10 556 9 566 9

C576 9 578 9 581 11

C583 13 585 13 590 13

C594 13 597 12 598 11

C599 9 602 9 612 9

L624 10

L624 61

L624 112

L620 115

C614 119 612 122 613 125

C614 127 619 131 622 133

L624 134

L624 199

L624 265

L620 267

C616 269 614 271 616 274

C616 275 618 276 620 277

L624 279

L624 286

L624 293

L617 292

C608 292 600 294 595 299

C593 301 591 304 591 305

C591 308 599 315 605 316

C607 317 612 317 617 317

L624 316

L624 341

L624 366

L620 366

C615 366 609 368 608 371

C607 373 607 374 610 376

C613 379 616 380 622 379

L624 379

L624 490

L624 601

L611 601

L599 601

L600 599

C601 597 601 596 599 594

C594 589 584 589 579 594

C577 597 577 597 578 599

C579 601 579 601 567 601

C557 601 556 601 553 599

C547 595 542 593 535 593

C528 593 520 596 516 599

C515 601 510 601 274 601

L33 601

L33 490

Z

M170 596

C177 591 164 582 155 586

C151 587 148 591 149 593

C152 599 163 600 170 596

Z

M263 596

C269 593 268 589 261 586

C255 584 246 586 244 590

C243 592 243 593 245 595

C250 599 257 600 263 596

Z

M317 593

C322 591 326 587 326 584

C326 581 322 577 316 574

C309 571 299 571 292 574

C288 576 281 582 281 584

C281 586 287 592 290 594

C298 598 308 597 317 593

Z

M428 595

C430 594 432 593 432 592

C433 590 433 589 430 587

C426 583 418 583 413 586

C403 592 417 600 428 595

Z

M71 592

C76 591 84 584 84 582

C84 579 76 572 71 570

C65 568 54 569 49 571

C44 574 39 579 39 582

C39 584 44 589 48 591

C54 594 63 595 71 592

Z

M360 592

C365 590 366 587 363 584

C358 579 343 580 341 586

C341 589 341 590 345 592

C349 594 355 595 360 592

Z

M469 588

C474 585 475 582 471 579

C466 575 457 575 452 580

L450 583

L452 586

C456 590 463 591 469 588

Z

M216 582

C221 580 225 577 226 574

C228 571 224 565 217 562

C206 557 191 559 185 567

C183 569 182 571 182 572

C182 575 189 581 193 582

C200 585 211 584 216 582

Z

M129 578

C132 576 133 573 130 570

C124 566 115 567 110 572

L108 574

L110 577

C114 581 124 582 129 578

Z

M616 578

C622 574 622 571 616 568

C610 564 599 567 597 572

C597 573 599 577 603 578

C606 579 613 579 616 578

Z

M280 569

C285 565 283 561 275 559

C270 558 264 559 261 562

C259 565 259 565 261 567

C265 572 275 573 280 569

Z

M385 570

C390 567 390 563 385 561

C377 556 362 561 366 567

C370 572 379 573 385 570

Z

M573 567

C576 563 575 561 570 559

C565 556 559 557 555 559

C550 562 550 564 554 567

C557 570 558 570 564 570

C569 569 571 569 573 567

Z

M518 568

C520 567 522 565 523 564

C525 562 525 562 523 559

C518 555 509 554 503 559

C496 564 509 572 518 568

Z

M174 565

C184 559 170 550 159 556

C156 557 153 560 155 562

C157 567 169 569 174 565

Z

M89 564

C90 564 92 563 94 561

C97 559 97 558 96 556

C94 552 85 550 79 552

C73 555 72 559 76 562

C79 564 84 565 86 564

C87 564 88 564 89 564

Z

M336 562

C341 559 340 556 334 553

C330 550 324 551 320 553

C316 556 315 559 318 562

C324 565 330 565 336 562

Z

M421 562

C425 560 426 558 424 555

C417 550 408 549 403 555

C402 557 401 558 402 559

C405 564 415 566 421 562

Z

M469 555

C474 554 482 547 482 544

C482 542 474 535 469 533

C459 530 446 533 440 540

C436 544 436 545 440 549

C446 556 458 559 469 555

Z

M133 551

C138 548 139 545 135 542

C130 538 121 538 116 543

L114 546

L116 549

C120 553 127 554 133 551

Z

M355 546

C357 545 359 543 360 542

C362 540 362 540 360 538

C355 533 347 532 341 536

C337 539 337 541 341 544

C345 547 350 548 355 546

Z

M249 543

C258 539 252 531 240 532

C235 533 230 536 230 539

C230 540 234 543 236 544

C239 545 246 545 249 543

Z

M603 542

C605 541 608 540 609 539

L611 536

L609 534

C604 529 595 528 590 532

C586 535 586 537 590 540

C594 543 598 544 603 542

Z

M393 540

C397 538 398 535 395 532

C390 528 378 528 375 533

C370 539 384 545 393 540

Z

M311 538

C314 536 315 533 312 530

C306 526 297 527 292 531

C290 534 290 534 292 536

C296 541 306 542 311 538

Z

M560 537

C562 537 563 535 564 534

C565 532 565 532 562 530

C557 525 548 525 543 530

C541 532 540 533 541 534

C544 539 554 541 560 537

Z

M173 537

C175 536 177 534 178 533

L180 531

L177 528

C173 524 167 523 162 526

C154 529 154 533 161 536

C165 538 169 538 173 537

Z

M56 534

C60 531 60 528 56 525

C52 522 45 522 40 525

C36 528 35 530 38 532

C42 537 51 537 56 534

Z

M217 530

C219 530 221 528 222 527

C223 525 223 524 221 522

C216 518 208 517 201 521

C193 527 208 535 217 530

Z

M511 527

C513 525 513 524 512 522

C510 518 500 516 494 518

C488 521 488 525 493 528

C497 531 507 530 511 527

Z

M97 526

C108 520 93 510 82 516

C79 517 76 520 78 522

C80 527 91 528 97 526

Z

M280 518

C285 517 289 513 287 510

C286 507 278 505 273 505

C269 506 265 509 264 511

C264 513 266 516 271 517

C275 519 276 519 280 518

Z

M542 516

C545 514 546 511 542 508

C537 504 528 504 523 509

L521 512

L523 515

C527 519 535 520 542 516

Z

M425 513

C428 511 429 508 425 505

C420 501 411 501 406 506

L404 509

L406 512

C410 516 418 517 425 513

Z

M139 511

C144 508 145 505 142 502

C136 498 127 499 122 504

L120 506

L122 509

C126 513 133 514 139 511

Z

M336 507

C340 505 346 499 346 497

C346 494 342 490 336 487

C332 485 329 485 324 485

C318 485 315 485 311 487

C305 490 301 494 301 497

C301 498 303 500 305 502

C311 509 325 511 336 507

Z

M384 508

C389 506 391 504 389 501

C388 499 381 496 378 496

C375 496 368 499 367 501

C365 504 367 506 371 508

C376 510 379 510 384 508

Z

M471 507

C475 504 475 502 471 499

C466 495 457 496 452 501

C450 503 450 503 452 505

C456 510 465 511 471 507

Z

M589 508

C595 505 595 502 591 499

C585 495 577 495 572 501

C570 503 570 503 572 505

C574 508 579 510 582 510

C583 510 587 509 589 508

Z

M197 506

C203 503 207 497 205 494

C201 486 185 481 173 486

C168 487 161 493 161 496

C161 500 168 506 176 508

C182 509 190 508 197 506

Z

M61 502

C65 499 65 498 62 495

C55 489 37 493 41 500

C44 505 57 507 61 502

Z

M240 495

C245 491 243 487 235 485

C230 484 224 485 221 488

C219 491 219 491 221 493

C225 498 235 499 240 495

Z

M101 495

C105 492 106 491 105 488

C102 482 88 481 83 487

C78 493 93 499 101 495

Z

M511 493

C516 490 517 488 514 485

C511 482 504 481 500 482

C493 484 490 488 494 491

C498 495 505 496 511 493

Z

M550 486

C555 485 563 478 563 476

C563 475 561 472 559 470

C552 463 540 461 530 465

C524 467 518 473 518 476

C518 478 523 483 527 485

C533 488 543 489 550 486

Z

M615 483

C620 480 620 478 616 475

C613 472 612 472 606 472

C601 473 599 473 597 475

C594 479 595 481 600 483

C605 486 611 485 615 483

Z

M292 481

C294 480 297 479 298 478

L300 475

L298 472

C293 467 284 467 279 471

C274 475 275 478 283 481

C287 482 288 482 292 481

Z

M433 478

C435 478 437 476 438 475

C439 473 439 472 437 470

C432 466 424 465 417 469

C409 475 424 483 433 478

Z

M138 478

C140 477 143 476 144 475

L146 472

L144 469

C139 464 130 464 125 468

C121 471 122 474 127 477

C132 479 133 479 138 478

Z

M486 467

C489 464 488 461 484 459

C477 456 467 457 465 462

C462 469 479 473 486 467

Z

M192 466

C194 464 196 463 196 462

C196 458 189 455 184 455

C179 455 173 458 173 462

C173 465 179 468 184 468

C187 468 190 467 192 466

Z

M340 466

C342 464 344 463 344 462

C344 458 337 455 332 455

C327 455 321 458 321 462

C321 465 327 468 332 468

C335 468 338 467 340 466

Z

M66 465

C70 463 72 461 69 458

C65 454 57 453 51 456

C45 459 45 461 51 465

C54 467 62 468 66 465

Z

M259 466

C261 465 263 463 264 462

C266 460 266 460 264 457

C259 453 250 452 244 456

C242 458 241 461 244 463

C248 467 254 468 259 466

Z

M396 458

C401 456 407 450 407 448

C407 446 401 440 396 438

C386 433 371 436 364 443

C361 447 361 449 364 452

C370 460 385 463 396 458

Z

M609 455

C611 454 613 452 614 451

L616 449

L613 446

C609 442 603 441 598 444

C590 447 590 451 597 454

C601 456 605 456 609 455

Z

M144 450

C149 448 150 445 147 442

C143 438 133 438 127 441

C124 444 125 447 129 450

C133 452 139 453 144 450

Z

M105 445

C110 443 113 441 115 437

C116 435 116 434 113 431

C108 425 102 423 93 423

C87 423 84 423 81 425

C76 427 70 433 70 435

C70 437 75 442 79 444

C87 448 97 448 105 445

Z

M225 447

C226 447 228 446 230 444

C234 441 234 439 228 436

C224 434 219 434 214 436

C209 438 208 441 211 444

C214 446 219 448 222 447

C223 447 224 447 225 447

Z

M450 447

C451 447 453 446 455 444

C459 441 459 439 453 436

C447 433 437 434 435 439

C434 441 434 442 436 444

C439 446 444 448 447 447

C448 447 449 447 450 447

Z

M296 445

C298 445 300 443 301 442

C307 436 291 430 282 435

C278 438 278 441 283 444

C287 446 292 447 296 445

Z

M522 444

C527 441 527 439 523 436

C520 433 519 433 513 433

C508 434 506 434 504 436

C501 440 502 442 507 444

C512 447 518 446 522 444

Z

M567 441

C572 440 576 436 574 433

C573 430 565 428 560 428

C557 429 551 432 551 434

C551 437 554 439 558 440

C562 442 563 442 567 441

Z

M338 434

C343 432 345 430 343 427

C342 425 335 422 332 422

C329 422 322 425 321 427

C319 430 321 432 325 434

C330 436 333 436 338 434

Z

M192 429

C194 427 196 426 196 425

C196 421 189 418 184 418

C179 418 173 421 173 425

C173 428 179 431 184 431

C187 431 190 430 192 429

Z

M430 425

C436 423 437 421 434 417

C431 414 425 413 420 414

C413 416 410 420 414 423

C418 427 424 428 430 425

Z

M605 425

C607 424 610 423 611 422

L613 419

L611 416

C606 411 597 411 592 415

C589 418 588 420 591 422

C594 426 600 427 605 425

Z

M261 422

C265 420 265 417 261 414

C255 410 247 411 242 415

C240 418 240 418 242 420

C246 425 256 426 261 422

Z

M153 421

C156 419 157 417 154 414

C149 409 139 409 134 414

C132 416 132 417 133 419

C136 424 147 425 153 421

Z

M55 421

C61 417 61 414 55 411

C49 407 38 410 36 415

C36 416 38 420 42 421

C45 422 52 422 55 421

Z

M386 417

C388 416 390 415 390 414

C391 412 391 411 388 409

C384 405 377 405 371 408

C360 413 375 423 386 417

Z

M489 413

C492 411 492 410 491 408

C490 406 484 403 480 403

C476 403 470 406 469 408

C468 410 468 411 471 413

C474 416 475 416 480 416

C485 416 486 416 489 413

Z

M299 408

C300 408 301 406 302 405

C304 401 294 396 287 397

C283 398 279 402 279 404

C279 410 292 412 299 408

Z

M212 408

C217 406 218 404 215 400

C212 397 206 396 201 397

C196 398 192 402 194 405

C195 407 201 410 205 410

C207 410 210 409 212 408

Z

M560 400

C564 398 569 393 569 391

C569 390 568 388 566 386

C558 376 538 375 528 385

C526 387 524 390 524 391

C524 393 531 400 536 401

C542 404 554 403 560 400

Z

M354 399

C357 397 358 394 354 391

C349 387 340 387 335 392

L333 395

L335 398

C339 402 349 403 354 399

Z

M600 397

C605 395 607 393 605 390

C604 388 597 385 594 385

C591 385 584 388 583 390

C581 393 583 395 587 397

C592 399 595 399 600 397

Z

M409 394

C414 392 416 390 414 387

C413 385 406 382 403 382

C400 382 393 385 392 387

C390 390 392 392 396 394

C401 396 404 396 409 394

Z

M88 392

C94 388 93 385 87 382

C80 379 67 383 69 389

C70 393 83 396 88 392

Z

M135 393

C139 390 140 389 139 386

C136 381 124 379 118 384

C117 385 116 387 116 388

C116 389 120 392 122 393

C125 394 132 394 135 393

Z

M179 388

C182 385 181 383 177 380

C171 376 161 378 158 383

C157 385 157 387 161 389

C166 392 175 391 179 388

Z

M455 388

C460 386 462 384 460 381

C459 379 452 376 449 376

C446 376 439 379 438 381

C436 384 438 386 442 388

C447 390 450 390 455 388

Z

M260 381

C265 379 270 374 270 371

C270 368 266 364 261 362

C250 356 235 359 228 367

C226 369 225 370 225 371

C225 373 231 379 234 381

C242 384 253 385 260 381

Z

M323 381

C326 379 327 376 324 374

C317 369 309 370 304 374

C302 376 302 377 303 379

C306 384 317 385 323 381

Z

M493 377

C497 375 497 373 495 370

C491 367 488 366 485 366

C478 366 471 371 473 374

C476 379 486 381 493 377

Z

M371 374

C377 371 376 367 369 364

C365 363 361 363 356 365

C351 367 350 370 353 373

C358 377 365 378 371 374

Z

M537 367

C541 364 541 361 537 358

C532 355 523 355 519 359

C516 362 517 364 521 367

C526 370 533 370 537 367

Z

M203 365

C207 362 207 360 203 357

C198 353 189 353 184 358

L182 361

L184 364

C189 368 197 369 203 365

Z

M111 365

C113 365 115 363 116 362

C122 356 106 350 97 355

C96 356 94 358 94 359

C94 361 97 364 100 365

C102 366 109 366 111 365

Z

M584 365

C591 362 591 358 585 354

C577 350 563 356 567 361

C569 365 578 367 584 365

Z

M62 361

C64 360 66 358 67 357

C69 355 69 355 67 353

C62 348 53 347 48 351

C44 354 44 356 48 359

C52 362 57 363 62 361

Z

M151 358

C153 357 155 355 156 354

C158 352 158 352 156 349

C151 345 142 344 136 348

C134 351 133 353 136 355

C140 359 146 360 151 358

Z

M454 355

C458 353 458 351 456 348

C452 345 449 344 446 344

C439 344 432 349 434 352

C437 357 447 359 454 355

Z

M411 355

C416 354 424 348 424 345

C424 342 418 336 413 334

C406 331 395 332 388 335

C384 337 379 342 379 345

C379 345 381 348 383 350

C389 356 400 359 411 355

Z

M300 353

C306 350 304 346 298 343

C292 341 287 342 283 346

C279 349 280 352 285 354

C290 356 296 356 300 353

Z

M505 347

C510 343 508 339 500 337

C495 336 489 337 486 340

C484 343 484 343 486 345

C490 350 500 351 505 347

Z

M103 343

C106 340 105 338 101 335

C96 332 90 332 85 335

C81 338 80 340 83 342

C85 345 88 346 94 346

C99 345 101 345 103 343

Z

M351 343

C355 340 355 337 350 334

C345 331 337 331 332 336

C326 342 342 348 351 343

Z

M233 343

C235 342 237 340 238 339

C239 337 239 336 237 334

C232 329 222 329 217 334

C214 338 215 340 220 342

C224 344 229 344 233 343

Z

M613 342

C615 341 617 340 617 339

C618 337 618 336 615 334

C611 330 603 330 598 333

C588 339 602 347 613 342

Z

M182 337

C186 336 189 332 188 330

C185 325 175 323 169 327

C160 332 172 341 182 337

Z

M556 331

C562 329 561 324 554 321

C550 320 546 320 541 322

C536 324 535 327 538 330

C542 334 550 335 556 331

Z

M269 325

C275 323 274 318 267 316

C265 315 262 314 261 314

C258 314 251 317 250 319

C249 320 249 322 250 323

C251 324 251 325 251 325

C251 325 253 326 256 327

C260 328 265 328 269 325

Z

M461 324

C466 322 466 318 461 315

C456 311 445 313 442 318

C439 324 452 328 461 324

Z

M305 324

C311 320 311 317 305 314

C299 311 291 312 287 316

C282 322 297 328 305 324

Z

M514 320

C518 317 518 316 515 313

C508 307 490 311 494 318

C497 323 509 325 514 320

Z

M144 316

C148 313 148 311 144 308

C138 304 130 305 125 310

C123 312 123 312 125 314

C129 319 138 320 144 316

Z

M85 315

C89 313 90 311 88 308

C83 303 72 303 67 308

C61 314 76 320 85 315

Z

M231 311

C236 308 233 302 225 300

C220 300 213 302 211 305

C210 307 210 308 212 310

C216 314 224 315 231 311

Z

M348 307

C352 305 352 302 348 299

C342 295 333 296 329 301

C327 303 327 303 329 305

C333 310 343 311 348 307

Z

M410 309

C412 308 414 306 415 305

C417 303 417 303 415 301

C411 296 402 295 395 299

C387 305 401 313 410 309

Z

M563 300

C567 298 568 296 566 293

C562 290 559 289 556 289

C552 289 549 290 545 293

C542 296 545 300 553 302

C556 303 559 302 563 300

Z

M266 301

C268 300 270 298 271 297

C273 295 273 295 271 293

C266 288 258 287 252 291

C249 293 248 296 251 298

C255 302 261 303 266 301

Z

M200 297

C204 295 209 290 209 287

C209 284 201 278 196 277

C185 273 175 275 168 282

C166 284 164 286 164 287

C164 291 171 297 178 299

C183 301 195 300 200 297

Z

M377 293

C381 290 382 288 379 285

C376 283 375 283 369 283

C363 283 362 283 359 285

C358 287 357 288 357 289

C358 292 364 295 369 295

C372 295 375 294 377 293

Z

M487 294

C491 293 494 289 493 287

C490 280 473 280 470 287

C469 288 470 289 472 291

C473 293 475 294 476 294

C478 295 485 295 487 294

Z

M315 287

C319 284 319 281 315 278

C310 275 301 275 297 279

C294 282 295 284 299 287

C304 290 311 290 315 287

Z

M444 286

C449 284 450 280 446 277

C442 274 436 273 431 276

C424 279 424 283 432 287

C436 288 439 288 444 286

Z

M117 280

C121 278 126 272 126 270

C126 267 122 263 117 260

C109 256 99 256 91 260

C84 264 80 268 82 272

C83 274 89 279 93 281

C98 282 113 282 117 280

Z

M239 280

C241 279 244 278 244 277

C245 275 245 274 242 272

C240 270 237 269 236 268

C231 268 223 270 222 274

C221 276 221 276 223 279

C228 282 233 283 239 280

Z

M282 270

C293 264 278 254 267 260

C264 261 261 264 263 266

C265 271 276 272 282 270

Z

M397 269

C408 264 402 256 388 257

C386 257 384 258 382 260

C379 262 379 263 380 265

C382 269 391 271 397 269

Z

M464 263

C469 261 471 257 468 255

C463 249 448 250 446 256

C445 262 456 266 464 263

Z

M525 260

C528 259 531 256 532 254

L534 251

L532 248

C528 243 521 240 513 239

C503 239 494 242 490 249

L488 252

L492 256

C499 264 514 266 525 260

Z

M598 263

C603 261 605 258 604 256

C600 249 585 249 581 256

C580 258 582 260 587 263

C589 264 596 264 598 263

Z

M64 259

C66 258 69 257 70 256

C72 254 72 253 71 251

C68 246 57 245 51 249

C46 252 47 256 55 259

C59 260 60 260 64 259

Z

M167 255

C172 252 173 249 169 246

C164 242 155 242 150 247

L148 250

L150 253

C154 257 161 258 167 255

Z

M225 251

C227 251 229 249 230 248

C236 242 220 236 211 241

C208 243 207 245 208 247

C211 251 220 253 225 251

Z

M325 248

C330 245 333 241 333 238

C333 235 325 229 320 228

C313 226 309 226 302 228

C297 229 291 234 289 237

C287 240 292 246 298 249

C303 251 305 251 312 251

C319 250 321 250 325 248

Z

M431 245

C435 242 436 241 435 238

C432 233 420 231 414 236

C413 237 412 239 412 240

C412 241 416 244 418 245

C421 246 428 246 431 245

Z

M268 240

C271 237 270 235 266 232

C261 229 254 229 250 232

C246 235 246 238 250 241

C255 244 264 244 268 240

Z

M375 241

C379 239 381 237 378 234

C373 229 362 229 357 234

C352 240 366 246 375 241

Z

M571 241

C573 239 575 238 575 237

C575 233 568 230 563 230

C558 230 552 233 551 236

C551 237 553 241 557 242

C561 244 568 243 571 241

Z

M110 238

C112 238 113 236 114 235

C115 233 115 233 112 231

C108 226 98 226 93 230

C90 233 91 236 95 238

C98 240 106 241 110 238

Z

M489 233

C492 231 493 229 490 226

C485 221 475 221 470 226

C468 228 468 229 469 231

C472 236 483 237 489 233

Z

M147 229

C158 224 152 216 138 217

C136 217 134 218 132 220

C129 222 129 223 130 225

C132 229 141 231 147 229

Z

M191 228

C196 226 197 224 194 220

C191 217 185 216 180 217

C175 218 171 222 173 225

C174 227 180 230 184 230

C186 230 189 229 191 228

Z

M604 229

C609 227 611 224 610 222

C606 215 591 215 587 222

C586 224 588 226 593 229

C595 230 602 230 604 229

Z

M535 225

C540 222 540 218 535 216

C527 211 512 216 516 222

C520 227 529 228 535 225

Z

M68 219

C73 218 81 211 81 209

C81 206 73 199 68 197

C62 195 51 196 46 198

C41 201 36 206 36 209

C36 211 41 216 45 218

C51 221 60 222 68 219

Z

M410 220

C414 219 417 215 416 213

C413 206 396 206 393 213

C392 214 393 215 395 217

C396 219 398 220 399 220

C401 221 408 221 410 220

Z

M232 216

C236 213 237 211 234 208

C231 206 230 206 224 206

C218 206 217 206 214 208

C213 210 212 211 212 212

C213 215 219 218 224 218

C227 218 230 217 232 216

Z

M457 216

C461 213 462 211 459 208

C456 206 455 206 449 206

C443 206 442 206 439 208

C438 210 437 211 437 212

C438 215 444 218 449 218

C452 218 455 217 457 216

Z

M272 214

C278 211 277 207 270 205

C264 202 258 203 255 206

C252 209 251 210 253 212

C256 217 266 218 272 214

Z

M364 215

C369 212 370 209 366 206

C360 202 349 203 346 208

C345 210 345 211 347 213

C351 217 358 218 364 215

Z

M317 211

C320 209 321 206 317 203

C312 199 303 199 298 204

L296 207

L298 210

C302 214 312 215 317 211

Z

M563 204

C567 202 569 200 566 197

C561 192 550 192 545 197

C544 199 543 200 544 201

C547 206 557 208 563 204

Z

M504 203

C506 202 509 201 509 200

C510 198 510 197 507 195

C503 191 497 190 492 193

C484 196 484 200 491 203

C495 205 499 205 504 203

Z

M178 200

C182 197 182 195 177 192

C173 190 167 189 163 191

C159 193 156 196 158 198

C159 201 165 203 170 203

C174 203 176 203 178 200

Z

M109 200

C115 196 115 193 110 190

C105 187 95 188 91 192

C90 194 90 194 91 196

C93 200 103 202 109 200

Z

M601 191

C603 189 603 188 602 186

C601 184 595 181 591 181

C587 181 581 184 580 186

C579 188 579 189 581 191

C586 195 596 195 601 191

Z

M232 189

C236 186 237 185 236 182

C233 177 223 176 217 179

C212 182 212 184 216 187

C218 189 220 190 224 190

C227 190 230 189 232 189

Z

M403 187

C404 187 405 185 406 184

C409 182 407 179 402 176

C395 173 385 176 384 182

C383 187 396 190 403 187

Z

M140 185

C145 182 145 180 141 177

C139 175 137 174 133 174

C125 174 119 178 121 182

C124 187 134 189 140 185

Z

M282 186

C284 185 286 183 287 182

C290 176 276 171 268 176

C265 177 263 180 265 182

C267 186 276 188 282 186

Z

M447 186

C451 185 454 181 453 179

C450 172 433 172 430 179

C429 181 431 183 436 186

C438 187 444 187 447 186

Z

M331 182

C336 179 336 177 332 174

C330 172 328 171 324 171

C316 171 310 175 312 179

C315 184 325 186 331 182

Z

M73 172

C78 170 80 168 78 165

C77 163 70 160 67 160

C64 160 57 163 56 165

C54 168 56 170 60 172

C65 174 68 174 73 172

Z

M196 172

C201 170 203 168 201 165

C200 163 193 160 190 160

C187 160 180 163 179 165

C177 168 179 170 183 172

C188 174 191 174 196 172

Z

M367 173

C369 172 371 170 372 169

C374 167 374 167 372 165

C367 160 358 159 353 163

C350 166 349 168 352 170

C356 174 362 175 367 173

Z

M555 172

C561 169 561 166 557 163

C550 159 543 160 538 165

C536 167 536 167 538 169

C540 172 545 174 548 174

C549 174 553 173 555 172

Z

M503 170

C508 169 516 162 516 160

C516 156 508 150 502 148

C496 146 486 147 481 149

C476 152 471 157 471 160

C471 163 478 169 485 171

C489 172 498 172 503 170

Z

M619 169

C623 166 623 165 620 162

C613 156 595 160 599 167

C602 172 615 174 619 169

Z

M431 157

C433 156 435 155 435 154

C436 152 436 151 433 149

C429 145 422 145 416 148

C405 153 420 163 431 157

Z

M339 155

C343 153 343 151 341 148

C337 145 334 144 331 144

C324 144 317 149 319 152

C322 157 332 159 339 155

Z

M112 155

C113 154 115 152 116 151

C118 149 118 149 116 147

C112 142 103 141 96 145

C88 151 103 159 112 155

Z

M257 150

C259 148 262 146 264 144

C266 141 266 141 265 138

C263 135 256 130 251 129

C239 126 225 131 221 139

C219 142 227 150 235 152

C240 154 252 152 257 150

Z

M588 148

C592 146 594 143 592 141

C587 135 571 136 570 142

C569 145 569 146 573 148

C577 150 583 151 588 148

Z

M386 144

C391 141 392 138 388 135

C383 131 374 131 369 136

L367 139

L369 142

C373 146 380 147 386 144

Z

M174 140

C177 139 180 136 182 134

L184 131

L182 128

C181 126 178 123 175 122

C164 116 150 117 142 126

L138 130

L140 133

C142 136 146 140 151 142

C156 144 169 143 174 140

Z

M308 140

C311 138 312 135 308 132

C303 128 294 128 289 133

L287 136

L289 138

C293 143 303 144 308 140

Z

M538 130

C543 128 543 123 538 121

C531 118 521 119 519 124

C516 130 529 134 538 130

Z

M502 124

C506 121 506 118 501 115

C496 112 488 112 483 117

C477 123 493 129 502 124

Z

M445 122

C450 121 458 114 458 112

C458 111 456 108 454 106

C445 97 427 97 417 106

C412 110 412 111 415 116

C422 123 433 126 445 122

Z

M347 121

C352 119 352 117 349 114

C344 109 334 109 330 114

C328 116 327 117 328 118

C331 123 341 125 347 121

Z

M117 121

C119 120 121 118 122 117

C124 115 124 115 122 113

C116 107 107 107 101 113

C99 115 99 115 101 117

C105 122 111 123 117 121

Z

M240 117

C242 115 242 114 241 112

C239 107 229 106 223 109

C218 111 217 113 220 117

C225 121 235 121 240 117

Z

M570 117

C571 117 573 116 575 114

C578 112 578 111 577 109

C575 105 566 103 560 105

C554 108 553 112 557 115

C560 117 565 118 567 117

C568 117 569 117 570 117

Z

M286 114

C290 112 292 109 289 107

C284 101 269 102 268 108

C267 111 267 112 271 114

C275 116 281 117 286 114

Z

M390 112

C392 111 394 109 395 108

C396 106 396 105 394 103

C392 101 390 101 385 100

C379 100 378 100 375 103

C371 106 371 108 376 111

C380 113 386 114 390 112

Z

M200 106

C204 103 204 101 200 98

C195 94 186 94 181 99

L179 102

L181 104

C185 109 194 110 200 106

Z

M616 101

C618 101 620 99 621 98

C623 96 623 96 622 94

C619 87 603 87 599 94

C598 95 599 96 601 98

C602 100 604 101 605 101

C607 102 614 102 616 101

Z

M155 99

C157 97 159 96 159 95

C159 91 152 88 147 88

C142 88 136 91 136 95

C136 98 142 101 147 101

C150 101 153 100 155 99

Z

M67 98

C69 97 71 95 72 94

C73 92 73 91 71 89

C66 84 56 84 51 89

C48 93 49 95 54 97

C58 99 63 99 67 98

Z

M541 96

C545 94 546 91 543 88

C538 84 526 84 523 89

C518 95 532 101 541 96

Z

M326 94

C330 91 330 89 326 86

C320 82 312 82 307 88

C305 90 305 90 307 92

C311 97 321 98 326 94

Z

M500 93

C502 91 504 90 504 89

C504 85 497 82 492 82

C487 82 481 85 480 88

C480 89 482 93 486 94

C490 96 497 95 500 93

Z

M245 90

C249 88 250 85 247 82

C242 78 232 78 227 83

C225 85 225 85 226 87

C229 92 239 94 245 90

Z

M366 85

C372 82 368 75 359 74

C354 74 350 75 347 79

C345 81 345 81 347 83

C351 88 359 89 366 85

Z

M407 87

C409 86 411 84 412 83

L414 81

L411 78

C407 74 401 73 396 76

C388 79 388 83 395 86

C399 88 403 88 407 87

Z

M453 81

C455 80 456 79 458 78

C460 75 459 73 455 70

C449 67 439 69 436 74

C435 76 437 78 442 81

C444 82 451 82 453 81

Z

M302 78

C306 76 306 74 304 71

C298 66 291 66 286 69

C282 72 281 75 284 78

C290 81 296 81 302 78

Z

M586 75

C592 71 592 68 587 65

C582 62 572 63 568 67

C567 69 567 69 568 71

C570 75 580 77 586 75

Z

M178 72

C187 67 173 58 162 63

C157 66 156 68 159 71

C164 75 171 76 178 72

Z

M92 70

C94 69 97 66 99 64

L102 61

L100 58

C99 56 96 53 93 52

C81 45 64 48 58 58

C56 60 56 61 58 63

C60 66 64 70 70 72

C75 74 86 73 92 70

Z

M543 69

C549 65 549 62 544 59

C539 55 528 57 525 62

C522 67 535 73 543 69

Z

M259 64

C264 62 265 58 261 55

C257 52 251 51 246 54

C239 57 239 61 247 65

C251 66 254 66 259 64

Z

M218 62

C221 60 222 57 218 54

C213 50 204 50 199 55

L197 58

L199 60

C203 65 213 66 218 62

Z

M138 61

C142 58 142 57 139 54

C132 48 114 52 118 59

C121 64 134 66 138 61

Z

M493 60

C499 56 494 50 485 50

C476 49 471 55 475 59

C478 63 488 64 493 60

Z

M321 59

C323 58 325 56 326 55

C328 53 328 53 326 51

C321 46 313 45 307 49

C304 51 303 54 306 56

C310 60 316 61 321 59

Z

M407 59

C409 58 411 56 412 55

C414 53 414 53 412 50

C407 46 398 45 392 49

C390 51 389 54 392 56

C396 60 402 61 407 59

Z

M610 47

C614 44 614 41 609 38

C604 35 595 35 591 40

C585 46 601 52 610 47

Z

M454 41

C458 38 459 36 456 33

C451 29 442 29 437 33

C433 36 433 37 436 40

C441 44 449 45 454 41

Z

M356 40

C360 39 363 37 366 34

L370 30

L368 27

C364 20 355 17 345 17

C337 18 330 21 326 26

L324 29

L326 32

C331 40 344 44 356 40

Z

M268 37

C273 35 274 33 271 29

C266 24 256 24 251 29

C249 31 249 32 250 34

C251 36 257 39 261 39

C263 39 266 38 268 37

Z

M172 35

C175 33 176 30 172 27

C167 23 158 23 153 29

L151 31

L153 34

C158 38 165 39 172 35

Z

M496 34

C501 33 505 29 503 26

C502 23 494 21 489 21

C485 22 481 25 480 27

C480 29 482 32 487 33

C491 35 492 35 496 34

Z

M308 31

C313 30 317 26 315 23

C314 20 306 18 301 18

C297 19 292 22 292 24

C292 27 295 29 299 30

C303 32 304 32 308 31

Z

M62 29

C68 25 68 22 63 19

C58 16 48 17 44 21

C43 23 43 23 44 25

C46 29 56 31 62 29

Z

M228 26

C231 23 230 21 226 18

C220 14 210 16 207 21

C206 23 206 25 210 27

C215 30 224 29 228 26

Z

M401 27

C406 24 407 21 404 18

C398 14 389 15 384 20

L382 22

L384 25

C388 29 395 30 401 27

Z

M118 25

C120 23 122 22 122 21

C122 17 115 14 110 14

C105 14 99 17 99 21

C99 22 100 23 102 25

C107 28 113 28 118 25

Z

"/>

</svg>

