<?xml version="1.0" standalone="no"?>

<!DOCTYPE svg PUBLIC "-//W3C//DTD SVG 20010904//EN"

 "http://www.w3.org/TR/2001/REC-SVG-20010904/DTD/svg10.dtd">

<svg version="1.0" xmlns="http://www.w3.org/2000/svg"

 width="614.000000pt" height="589.000000pt" viewBox="0 0 614.000000 589.000000"

 preserveAspectRatio="xMidYMid meet">

<path fill="#f7f9fa" stroke="none" d="
M0 295

L0 0

L307 0

L614 0

L614 295

L614 589

L307 589

L0 589

L0 295

Z

"/>

<path fill="#0067a5" stroke="none" d="
M0 580

C0 572 0 572 2 574

C2 575 3 577 4 578

C4 581 4 581 10 580

C16 580 16 580 12 585

C9 589 8 589 4 589

L0 589

L0 580

Z

M41 586

C44 583 45 580 47 572

C49 567 54 560 56 560

C57 560 100 587 101 589

C101 589 87 589 70 589

L39 589

L41 586

Z

M150 587

C151 585 155 584 157 586

C159 588 158 589 154 589

C151 589 150 589 150 587

Z

M209 587

C211 586 221 579 231 573

C241 566 250 561 252 561

C255 561 258 566 260 574

C261 577 263 582 265 585

L268 589

L237 589

L206 589

L209 587

Z

M295 585

C293 584 292 581 292 581

C292 580 299 580 301 581

C302 582 303 581 304 577

C305 574 306 573 307 573

C308 573 309 574 310 577

C311 581 312 582 313 581

C314 580 316 580 318 580

C322 580 322 580 321 582

C318 588 316 589 307 589

L298 589

L295 585

Z

M347 587

C349 585 353 578 353 575

C353 572 358 563 360 561

C363 560 361 558 398 582

L409 589

L377 589

L345 589

L347 587

Z

M457 587

C458 584 463 585 464 587

C464 589 463 589 460 589

C456 589 456 589 457 587

Z

M515 588

C516 586 554 562 557 561

C559 560 564 565 565 570

C566 572 568 576 569 579

C569 581 571 584 573 586

L575 589

L544 589

C517 589 513 589 515 588

Z

M602 585

C598 580 598 580 604 580

C610 581 610 581 610 578

C611 577 612 575 612 574

C614 572 614 572 614 580

L614 589

L610 589

C606 589 605 589 602 585

Z

M26 584

C28 582 28 581 25 581

C23 581 23 581 24 579

C25 574 25 574 22 574

C19 574 19 574 20 572

C21 569 21 569 19 569

C15 569 15 568 18 565

C21 561 27 559 33 561

C36 562 40 563 42 563

C44 563 44 563 43 565

C43 566 42 569 41 573

C39 581 35 585 29 586

C25 586 25 586 26 584

Z

M274 584

C270 582 269 580 265 569

L263 563

L266 563

C267 563 271 562 274 561

C280 559 284 560 288 564

C291 567 292 568 289 568

C288 568 287 569 288 571

C288 574 288 574 285 574

C282 574 281 574 284 578

C285 580 285 580 283 580

C280 580 279 582 281 584

C282 584 282 585 282 585

C282 587 278 586 274 584

Z

M332 585

C332 585 332 584 333 584

C335 582 334 581 332 581

C330 581 330 580 331 576

C332 574 332 574 329 574

C326 574 325 573 327 571

C328 570 327 569 325 569

L322 569

L325 565

C329 560 333 559 340 561

C343 562 347 563 349 563

C351 563 351 563 350 565

C350 566 349 569 348 571

C346 579 344 582 341 584

C337 586 332 587 332 585

Z

M582 585

C577 583 575 580 573 573

C572 569 571 566 571 565

C570 564 571 563 574 563

C576 563 580 562 582 561

C587 559 591 560 595 564

C598 567 599 568 596 568

C594 568 594 568 595 571

C595 574 595 574 592 574

C590 574 589 574 589 576

C590 576 590 578 591 579

C591 580 591 580 589 580

C586 580 586 580 587 582

C589 586 587 587 582 585

Z

M58 553

C31 535 8 521 8 521

C6 520 5 521 27 507

L46 495

L97 527

C136 552 147 560 146 561

C145 561 136 567 126 573

L108 585

L58 553

Z

M136 582

L131 578

L133 577

C137 574 137 575 143 578

L148 581

L146 583

C143 586 142 585 136 582

Z

M162 583

L159 582

L164 578

C170 575 171 574 174 577

L176 578

L171 582

C165 585 165 585 162 583

Z

M180 572

L160 560

L163 558

C187 542 261 495 262 496

C267 498 300 520 300 520

C300 520 281 533 257 548

C233 563 211 578 207 580

L199 585

L180 572

Z

M364 553

C337 535 314 520 314 520

C314 520 317 517 341 502

L353 495

L402 526

C429 543 451 558 452 559

C454 560 452 561 435 572

C425 578 416 584 416 584

C415 584 392 570 364 553

Z

M443 582

L438 578

L440 577

C443 574 444 575 450 578

L455 582

L452 583

C448 585 448 585 443 582

Z

M468 583

L466 581

L471 578

C477 575 477 574 481 577

L483 578

L478 582

C472 585 471 586 468 583

Z

M486 572

C476 565 468 560 468 559

C468 559 505 535 557 502

L568 495

L587 507

C598 514 607 520 607 520

C607 521 508 583 506 584

C505 584 496 579 486 572

Z

M2 562

C0 560 0 558 0 549

L0 539

L5 544

C8 547 11 550 12 552

C13 554 13 561 12 563

C11 565 11 565 9 564

C8 562 8 562 6 563

C4 565 4 565 2 562

Z

M295 562

C293 556 294 553 301 545

L307 538

L310 542

C312 544 314 546 314 546

C315 546 316 548 317 550

C320 554 321 559 319 563

C317 565 317 565 316 563

C315 562 315 562 313 564

C312 565 311 565 310 564

C310 564 309 562 309 561

C307 560 307 560 306 562

L304 565

L302 563

L301 561

L299 563

L297 566

L295 562

Z

M602 562

C599 556 601 552 609 544

L614 539

L614 549

C614 558 614 560 612 562

L610 565

L609 563

L607 561

L606 563

C604 566 604 566 602 562

Z

M36 556

C34 555 25 554 22 555

C20 556 19 556 18 552

C17 550 14 545 11 541

C7 537 5 534 4 531

C4 529 4 528 4 527

C5 527 15 533 27 541

C40 549 50 556 49 556

C48 557 38 557 36 556

Z

M258 556

C260 554 300 528 303 527

C307 526 302 535 296 542

C292 545 290 550 289 552

L288 556

L283 555

C280 554 278 554 273 555

C270 556 265 557 262 557

C257 557 257 557 258 556

Z

M340 555

C337 554 334 554 331 555

L326 556

L325 552

C324 549 321 545 318 542

C316 539 313 536 312 535

C311 531 310 527 311 527

C312 527 355 555 356 556

C356 557 345 557 340 555

Z

M564 556

C564 555 608 528 610 527

C611 527 611 527 610 529

C609 535 608 536 602 542

C598 547 596 550 595 553

C595 555 594 556 593 555

C589 554 585 554 580 555

C574 557 564 558 564 556

Z

M127 538

C111 528 104 523 105 523

C107 522 112 522 118 524

C122 525 125 525 129 525

C134 524 135 524 135 526

C135 528 138 533 143 539

C149 545 153 553 150 553

C150 553 139 546 127 538

Z

M157 550

C157 547 159 543 163 540

C167 536 172 528 172 526

C172 524 173 524 178 525

C182 525 186 525 190 524

C197 522 204 522 202 524

C200 526 158 553 157 553

C157 553 157 552 157 550

Z

M435 539

C422 531 412 525 412 524

C410 522 416 522 424 524

C429 525 433 525 436 525

C441 524 441 524 442 528

C443 530 446 534 449 537

C454 543 457 548 457 551

C457 553 453 551 435 539

Z

M463 550

C465 545 467 542 471 537

C474 535 477 531 478 529

L479 524

L484 525

C488 525 492 525 496 524

C504 522 511 522 509 524

C507 526 466 552 464 553

C463 553 463 553 463 550

Z

M148 535

C145 532 142 528 142 528

C141 526 141 519 142 517

C143 515 143 515 145 517

C146 518 146 518 147 517

C149 514 150 515 152 518

C153 520 153 520 155 519

C155 518 156 516 156 516

C157 515 158 516 159 517

L160 519

L162 516

L163 514

L165 518

C168 524 167 527 159 535

L154 541

L148 535

Z

M459 540

C459 540 457 537 454 534

C448 528 446 524 448 519

C449 515 450 514 451 517

C452 518 452 518 454 516

C456 515 456 515 458 517

L461 520

L462 517

C463 515 463 515 465 517

C467 518 467 518 469 516

C470 515 470 515 472 516

C472 518 473 520 473 523

C473 527 472 528 467 534

C461 541 459 542 459 540

Z

M205 517

C204 515 202 511 201 509

C198 499 198 498 195 494

L192 491

L195 487

C196 485 199 480 200 476

C202 469 207 462 209 462

C210 462 244 483 253 490

C255 491 253 492 233 505

C221 512 211 519 210 519

C209 520 208 519 205 517

Z

M514 518

C511 516 508 510 507 505

C506 500 503 496 500 493

C499 491 498 490 499 490

C501 490 505 483 507 476

C508 470 512 463 515 463

C516 462 523 466 539 476

C551 484 561 490 561 491

C561 491 552 497 541 504

C531 511 520 517 519 518

C516 520 516 520 514 518

Z

M76 506

C65 499 55 492 54 492

C53 491 57 488 75 476

C87 469 97 462 97 462

C99 462 104 467 105 472

C106 474 108 478 109 481

C109 483 111 486 113 488

L115 491

L113 494

C111 495 109 498 109 501

C108 503 106 507 105 509

C104 514 100 519 98 519

C97 519 87 513 76 506

Z

M120 518

C119 518 117 517 114 517

C111 516 110 515 111 514

C111 513 112 510 113 506

C115 498 119 494 125 494

C128 494 128 494 127 495

C125 497 126 498 129 498

C131 499 131 500 130 501

C130 502 130 503 129 504

C129 505 130 505 131 505

C134 505 134 505 134 508

C133 511 133 511 135 511

C139 511 139 512 134 516

C132 518 130 519 126 519

C124 519 121 519 120 518

Z

M174 517

C172 516 170 514 170 513

C169 511 169 511 171 511

C173 512 173 512 173 509

C172 506 173 506 176 506

C179 506 180 506 177 502

C176 501 176 500 177 500

C180 500 181 498 180 496

C179 494 179 494 183 494

C190 495 192 498 195 510

C197 516 197 516 192 517

C181 519 177 519 174 517

Z

M382 505

C370 498 360 491 360 491

C360 490 370 483 382 476

C406 461 406 461 410 467

C411 468 413 473 414 477

C415 481 417 485 419 487

L422 491

L419 494

C417 496 415 500 414 505

C411 513 407 519 404 519

C404 519 394 513 382 505

Z

M422 517

L416 516

L418 511

C419 509 420 505 421 504

C421 502 423 499 424 497

C427 495 429 494 432 494

C435 494 435 494 434 495

C432 497 433 498 436 498

C438 499 438 499 436 502

L435 505

L438 505

C441 505 441 505 441 508

C440 511 440 511 443 511

L446 512

L442 515

C439 519 438 519 433 519

C431 519 426 518 422 517

Z

M479 516

C476 512 475 511 478 511

C480 512 480 512 480 509

C479 506 479 506 482 506

C485 506 486 504 484 503

C482 501 483 500 486 500

C488 499 488 499 487 497

C486 494 486 494 489 494

C493 494 497 497 499 502

C501 506 503 514 503 516

C504 517 498 518 488 519

C483 519 482 519 479 516

Z

M152 505

C151 503 150 501 150 500

C150 498 150 498 147 499

C138 500 137 499 142 494

L145 490

L142 487

C138 482 138 482 145 482

C150 483 150 483 150 481

C150 478 153 474 154 474

C154 474 156 476 157 478

L158 483

L163 482

C169 482 170 483 165 488

L162 491

L165 494

C169 498 169 500 165 499

C158 498 158 498 157 502

C154 508 153 509 152 505

Z

M459 506

C458 505 457 502 456 501

C456 499 455 498 454 498

C448 500 446 500 446 499

C446 498 447 496 449 494

L452 491

L449 488

C444 483 445 482 451 482

L456 483

L457 478

C458 476 460 474 460 474

C461 474 463 477 464 480

C464 483 464 483 470 482

C476 482 476 482 472 487

L469 491

L472 494

C477 499 476 500 467 499

C465 498 464 498 464 500

C464 501 463 503 462 505

L460 508

L459 506

Z

M11 502

C8 500 6 498 6 498

C6 498 7 497 9 496

C12 494 12 494 17 498

L23 501

L20 503

C19 504 17 505 17 505

C17 505 14 503 11 502

Z

M287 503

L285 501

L290 498

C295 494 295 494 298 496

C300 497 301 498 301 498

C301 499 291 505 290 505

C290 505 288 504 287 503

Z

M318 502

C315 500 313 498 313 498

C313 498 314 497 316 496

C319 494 319 494 323 497

C326 499 328 500 329 500

C329 501 325 505 324 505

C324 505 321 503 318 502

Z

M594 503

C591 501 591 501 597 497

C602 494 603 494 605 496

C607 497 608 498 608 498

C608 499 598 505 597 505

C596 505 595 504 594 503

Z

M0 491

C0 488 0 487 2 487

C4 488 5 492 3 494

C1 496 0 495 0 491

Z

M304 494

C301 490 305 485 309 488

C312 490 311 495 307 495

C306 495 305 494 304 494

Z

M611 494

C609 492 610 488 612 487

C614 487 614 488 614 491

C614 495 613 496 611 494

Z

M122 487

C117 485 115 482 113 475

C112 471 111 468 111 467

C110 466 111 465 116 464

C127 462 131 462 135 465

C138 469 139 470 136 470

C134 470 134 470 135 473

C135 476 135 476 132 476

C130 476 129 476 129 478

C130 478 130 480 131 481

C131 482 131 482 129 482

C126 482 126 482 127 484

C129 488 127 489 122 487

Z

M179 487

C179 487 179 486 180 486

C182 484 181 483 179 483

C176 483 176 482 178 479

C179 476 179 476 176 476

C173 476 173 476 173 473

C174 470 174 470 172 471

C168 471 168 470 172 466

C176 462 179 461 187 463

C191 464 194 465 195 465

C197 465 197 465 197 467

C196 468 195 472 194 475

C193 481 191 484 188 485

C186 487 179 489 179 487

Z

M428 486

C425 485 424 484 422 481

C420 476 417 466 417 466

C418 465 432 462 434 462

C437 462 443 465 444 468

C445 470 445 470 443 470

C441 470 441 471 441 473

C441 475 441 476 438 476

C435 476 435 476 436 478

C439 481 438 482 435 482

C433 482 433 482 433 484

C434 484 434 486 435 487

C435 488 433 488 428 486

Z

M486 486

C488 484 488 483 486 483

C483 483 483 482 485 479

L486 476

L482 476

C479 476 479 476 480 474

C482 471 481 470 479 471

C475 471 475 470 479 466

C483 462 486 461 494 463

C497 464 501 465 502 465

C504 465 504 465 503 467

C503 468 502 471 501 475

C500 478 498 482 497 483

C495 486 490 488 487 488

C485 488 485 488 486 486

Z

M8 485

L6 483

L11 480

C16 476 17 476 19 478

C21 478 22 479 22 480

C22 481 13 487 11 487

C11 487 9 486 8 485

Z

M290 484

C288 482 285 481 285 480

C285 480 286 479 288 478

C290 476 291 476 296 480

L301 483

L299 485

C296 487 295 487 290 484

Z

M315 485

L313 483

L318 480

C323 476 324 476 326 478

C328 479 329 480 329 480

C329 481 319 487 318 487

C318 487 316 486 315 485

Z

M597 484

C594 482 592 480 592 480

C592 479 593 478 595 478

C597 476 598 476 603 480

L608 483

L606 485

C603 488 602 487 597 484

Z

M26 474

C16 468 8 462 8 462

C7 461 106 397 108 398

C109 398 118 403 128 410

C142 419 147 422 146 423

C143 425 47 486 46 486

C45 486 36 481 26 474

Z

M211 454

C183 437 161 422 161 422

C161 421 199 397 200 397

C204 399 299 461 299 462

C299 463 263 486 262 486

C261 486 238 472 211 454

Z

M333 474

C323 468 315 462 315 461

C315 460 413 397 415 397

C416 398 425 403 435 410

L454 422

L404 454

C377 471 354 485 353 486

C352 486 343 481 333 474

Z

M518 454

C491 437 468 423 468 422

C467 422 476 416 487 409

L506 397

L511 400

C521 406 606 460 606 461

C607 462 570 486 568 486

C567 486 544 472 518 454

Z

M142 464

C140 460 141 456 144 452

C145 450 146 448 147 448

C147 448 149 446 151 444

L153 440

L159 446

C168 456 168 458 165 464

L164 467

L163 465

L162 463

L160 465

L157 467

L156 465

C154 461 154 461 152 465

L151 467

L149 465

L147 463

L146 465

C144 468 144 468 142 464

Z

M449 465

C448 462 448 456 449 453

C450 452 453 449 456 446

L461 440

L466 447

C473 453 474 457 473 462

C472 467 471 468 470 465

L468 463

L467 465

L465 467

L462 464

L460 462

L459 464

L457 467

L456 465

L454 463

L452 465

L450 467

L449 465

Z

M104 458

C104 458 148 429 149 429

C150 429 150 430 150 431

C150 434 147 440 141 445

C138 448 137 451 136 454

C135 457 134 458 133 457

C130 456 124 456 119 457

C113 459 104 460 104 458

Z

M187 457

C183 456 177 456 174 458

C172 458 172 458 172 456

C172 453 169 448 163 442

C159 438 157 432 157 430

C157 429 165 433 180 443

C193 451 203 458 202 458

C202 459 192 459 187 457

Z

M411 458

C411 458 422 451 434 443

C453 431 457 428 457 430

C457 434 454 438 449 444

C445 448 443 451 442 456

C441 458 441 458 437 457

C434 456 432 456 426 457

C419 459 411 460 411 458

Z

M494 457

C490 456 484 456 481 458

C480 458 479 458 479 457

C479 454 475 448 472 444

C467 440 464 434 464 431

C464 429 467 430 487 443

C500 451 510 458 509 458

C509 459 499 459 494 457

Z

M3 453

C3 450 6 445 11 439

C14 436 17 432 18 430

L19 426

L25 427

C29 427 32 427 36 426

C42 424 47 424 49 425

C50 425 43 430 27 440

C15 448 4 455 4 455

C3 455 3 454 3 453

Z

M280 440

C263 429 258 425 259 425

C260 424 266 424 274 426

C279 427 281 427 284 426

C287 425 288 426 288 427

C288 430 291 435 296 440

C301 445 304 450 304 453

C304 454 304 455 303 455

C303 455 292 448 280 440

Z

M310 453

C310 450 313 445 319 439

C322 435 324 432 325 429

L325 426

L330 427

C334 427 338 427 343 425

C349 424 352 424 354 425

C357 425 357 426 334 440

C322 448 311 455 311 455

C310 455 310 454 310 453

Z

M587 440

C575 432 565 426 565 425

C565 424 573 424 578 426

C582 427 585 427 589 427

C594 426 595 426 595 428

C595 430 599 437 604 441

C608 445 613 455 610 455

C610 455 599 448 587 440

Z

M0 433

C0 424 0 421 2 419

C3 417 3 417 5 419

C7 420 7 420 9 418

L10 416

L12 418

C13 421 13 427 12 430

C11 431 8 434 5 437

L0 443

L0 433

Z

M301 436

C295 430 293 427 294 422

C295 417 297 416 298 418

C299 420 299 420 301 418

C303 417 303 417 305 419

L307 422

L309 419

C310 417 310 417 312 419

C314 420 314 420 315 418

L317 416

L319 419

C321 425 320 429 313 436

C310 440 307 443 307 443

C307 443 304 440 301 436

Z

M609 437

C606 434 603 431 602 430

C601 427 601 421 603 418

L604 416

L605 418

L605 420

L608 418

L610 416

L612 419

C614 422 614 424 614 433

C614 438 614 443 614 443

C614 443 611 440 609 437

Z

M22 420

C19 419 16 415 16 414

C16 413 17 413 18 413

C20 413 20 413 19 411

C19 408 19 408 22 408

C25 408 26 406 24 405

C22 403 23 402 25 401

C28 401 28 400 27 399

C26 398 26 397 26 397

C26 395 31 396 34 398

C37 399 39 401 41 409

C42 412 43 415 43 416

C44 417 43 418 37 419

C29 421 24 421 22 420

Z

M52 419

C50 416 47 411 46 407

C46 402 43 397 40 395

L38 393

L41 390

C43 388 45 384 46 379

C49 370 53 364 56 364

C58 364 101 391 100 393

C100 394 58 421 56 421

C55 421 53 420 52 419

Z

M228 407

C217 400 207 393 207 393

C207 392 243 368 249 365

C253 363 258 369 261 380

C262 383 263 387 266 389

L269 393

L266 396

C264 398 262 401 260 407

C258 415 254 421 251 421

C250 421 240 415 228 407

Z

M269 419

L263 418

L265 412

C269 399 271 397 278 396

C281 395 281 395 280 397

C280 399 280 400 282 400

C284 401 284 401 282 406

C282 407 283 407 285 407

C288 407 288 407 287 410

C286 412 286 412 288 413

C291 413 292 414 289 417

C285 421 280 422 269 419

Z

M326 418

C323 415 322 413 325 413

C326 413 327 412 326 411

C326 408 326 408 329 408

C332 408 332 408 331 406

C330 403 330 402 333 401

C335 401 335 401 333 398

C332 396 332 396 335 396

C342 396 345 399 349 412

L351 418

L347 419

C345 419 342 420 341 420

C340 421 337 421 334 421

C330 421 329 420 326 418

Z

M359 418

C355 415 354 412 353 406

C352 403 350 399 348 397

L345 392

L347 390

C350 388 352 383 354 376

C355 371 360 364 362 364

C363 364 374 370 386 378

C403 389 408 393 407 394

C404 396 364 421 363 421

C362 421 360 420 359 418

Z

M536 407

C524 400 514 394 514 393

C513 393 523 386 535 378

C556 364 558 364 560 365

C563 367 567 374 567 379

C568 381 569 385 571 388

L575 393

L572 395

C571 397 569 400 569 402

C568 405 566 409 565 411

C564 416 560 421 558 421

C557 421 547 415 536 407

Z

M576 419

C571 418 570 417 571 416

C571 415 572 412 573 408

C575 401 578 397 583 396

C587 395 589 396 587 397

C585 399 586 400 588 400

C591 401 591 402 590 405

C589 407 589 407 592 407

C594 407 594 407 594 409

C593 412 593 412 595 413

C599 413 599 414 594 418

C590 421 587 422 576 419

Z

M0 392

L0 376

L2 378

C3 379 4 381 4 383

C4 385 4 385 10 384

C16 384 16 384 12 389

L9 393

L12 396

C14 398 15 400 15 400

C15 401 8 401 6 400

C4 399 4 399 4 401

C4 403 1 409 0 409

C0 409 0 401 0 392

Z

M305 406

C304 404 303 402 303 402

C303 400 302 400 297 401

L292 401

L293 398

C294 396 296 395 297 394

C298 393 298 393 296 391

C295 390 294 387 293 386

L292 384

L297 384

C303 385 303 385 303 382

C304 381 305 379 305 378

L307 376

L309 378

C309 379 310 381 311 382

C311 385 311 385 317 384

L322 384

L321 387

C320 388 318 390 317 391

C315 393 315 393 318 395

C319 396 321 398 321 399

C322 401 322 401 318 401

C316 401 314 401 313 400

C312 399 311 400 310 404

C308 409 307 410 305 406

Z

M612 408

C612 407 611 405 610 403

C610 400 610 400 604 401

C601 401 599 401 599 400

C599 400 600 398 602 396

L605 393

L602 389

C598 384 598 384 604 384

L610 385

L610 382

C611 380 612 378 613 377

C614 376 614 378 614 392

C614 402 614 409 614 409

C613 409 613 408 612 408

Z

M134 405

C133 404 132 403 132 403

C132 403 135 401 137 399

C142 396 142 396 145 398

C147 399 148 400 148 400

C148 400 138 407 137 407

C137 407 135 406 134 405

Z

M165 404

C162 402 160 400 160 400

C160 400 161 398 163 398

C165 396 165 396 171 399

C173 401 176 403 176 403

C176 403 175 404 173 405

C170 407 170 407 165 404

Z

M441 405

L438 403

L443 400

L449 396

L452 398

L455 400

L450 403

C446 405 444 407 444 407

C444 407 442 406 441 405

Z

M471 403

L466 400

L469 398

L472 396

L478 400

L483 403

L480 405

C478 406 477 407 477 407

C477 407 474 405 471 403

Z

M151 396

C149 393 150 390 153 389

C157 389 159 392 156 395

C154 397 153 397 151 396

Z

M458 395

C455 392 457 389 461 389

C464 390 465 393 463 396

C461 397 460 397 458 395

Z

M26 389

C25 389 26 388 27 387

C28 386 28 385 26 385

C23 384 23 383 24 380

C25 378 25 378 22 378

C19 378 19 378 20 375

C21 372 21 372 19 373

C15 373 15 371 19 368

C23 364 27 363 36 366

C42 367 44 368 43 369

C43 370 42 373 41 377

C39 384 36 388 31 389

C27 390 26 390 26 389

Z

M332 389

C332 389 332 388 333 388

C335 386 334 385 332 385

C330 384 330 384 330 383

C331 382 331 380 332 380

C332 378 331 378 329 378

C327 378 326 378 326 377

C327 376 327 374 328 373

C328 372 328 372 325 372

L322 373

L324 370

C327 364 331 363 345 366

L351 367

L349 373

C346 383 344 386 342 387

C339 389 332 391 332 389

Z

M137 386

C134 384 132 382 132 382

C132 382 133 381 134 380

C137 378 137 378 143 382

L148 385

L145 387

C144 388 142 389 142 389

C142 389 139 388 137 386

Z

M162 387

L159 385

L165 382

C170 378 170 378 173 380

C175 381 176 382 176 382

C176 382 166 389 165 389

C165 389 163 388 162 387

Z

M271 386

C269 384 268 382 267 380

C267 379 266 375 265 372

L263 367

L269 366

C282 363 286 364 290 369

L292 372

L290 372

C288 372 287 373 287 375

C287 377 287 378 285 378

C283 378 282 379 283 380

C285 382 284 384 282 384

C280 384 280 384 281 387

C282 389 282 389 278 389

C275 389 273 388 271 386

Z

M443 386

C440 384 438 382 438 382

C438 382 439 381 441 380

C444 378 444 378 449 382

L455 385

L452 387

C451 388 449 389 449 389

C449 389 446 387 443 386

Z

M469 387

L466 385

L471 382

C477 378 477 378 480 380

C481 381 482 382 482 382

C482 383 473 389 472 389

C472 389 470 388 469 387

Z

M578 387

C577 385 575 381 573 376

C571 371 570 368 570 367

C576 366 585 364 588 364

C590 364 592 365 594 367

C598 371 599 372 596 372

C594 372 594 372 595 375

C595 377 595 377 592 378

C589 378 588 379 590 381

C592 382 591 384 588 384

C586 384 586 384 587 386

C588 389 588 389 585 389

C582 389 580 388 578 387

Z

M58 356

C31 339 8 325 8 324

C7 323 41 301 45 300

C46 299 67 312 96 331

C123 348 146 362 146 363

C147 364 110 388 108 388

C108 388 85 374 58 356

Z

M180 376

C169 369 160 364 160 364

C160 363 258 300 260 299

C261 299 269 303 281 311

C297 321 300 324 299 325

C297 326 200 388 199 388

C199 388 190 383 180 376

Z

M365 357

C338 339 315 325 315 324

C314 323 352 299 353 299

C355 300 454 363 454 364

C452 365 415 388 415 388

C414 388 392 374 365 357

Z

M486 376

C476 369 467 363 468 363

C470 360 567 299 568 299

C571 300 607 323 606 324

C605 325 507 388 506 388

C506 388 497 383 486 376

Z

M2 366

C0 364 0 362 0 353

L0 343

L5 348

C8 350 11 354 12 355

C13 359 13 364 12 367

L10 369

L10 367

L9 365

L7 367

L4 369

L2 366

Z

M296 366

C293 360 294 357 301 349

L307 342

L312 348

C315 351 318 354 319 356

C320 359 320 364 319 367

C317 369 317 369 316 367

C315 366 315 366 313 367

C311 369 311 369 309 366

C308 365 307 364 306 365

C305 368 304 368 302 367

C300 365 300 365 299 367

L297 370

L296 366

Z

M602 366

C599 360 601 355 609 347

L614 343

L614 353

C614 362 614 364 612 366

C610 369 610 369 609 367

C608 364 606 364 606 367

C605 370 604 370 602 366

Z

M35 359

C30 358 25 358 22 359

C20 360 19 360 19 358

C19 356 15 350 12 346

C7 342 4 336 4 333

C4 331 6 332 27 345

C42 354 49 360 49 360

C47 361 40 361 35 359

Z

M258 360

C257 360 268 353 280 345

C293 337 304 330 304 331

C305 333 301 339 296 345

C293 349 290 354 289 356

L288 360

L284 359

C281 358 279 358 274 359

C267 361 258 361 258 360

Z

M340 359

C335 358 333 358 330 359

L326 360

L325 356

C324 354 322 350 318 346

C313 340 309 333 311 331

C311 330 355 358 355 360

C356 361 346 361 340 359

Z

M565 360

C564 359 609 330 610 331

C612 333 608 340 602 346

C599 349 596 353 596 355

L595 359

L589 358

C585 358 582 358 578 359

C572 361 565 362 565 360

Z

M127 342

C114 334 104 327 105 327

C105 325 112 326 119 328

C125 329 127 329 130 328

C134 327 134 327 135 329

C136 334 138 337 142 341

C148 347 153 357 150 357

C150 357 139 350 127 342

Z

M157 354

C157 351 160 346 166 340

C168 337 170 334 171 332

L172 327

L176 328

C179 329 182 329 186 328

C194 326 201 326 202 327

C203 327 196 332 182 341

C171 348 160 355 159 356

C157 357 157 357 157 354

Z

M434 342

C422 335 411 328 411 327

C411 325 419 326 426 328

C432 329 434 329 437 328

L441 327

L442 331

C443 333 446 338 449 342

C454 347 456 350 457 353

C457 355 457 356 457 356

C457 357 446 350 434 342

Z

M464 354

C465 349 466 347 472 341

C475 338 477 333 478 331

L479 327

L483 328

C486 329 488 329 493 328

C501 326 507 326 508 327

C510 327 505 331 487 342

C474 350 464 357 463 357

C463 357 463 356 464 354

Z

M147 338

C142 332 141 331 141 327

C141 324 142 321 142 320

L144 318

L144 320

L145 322

L147 320

L150 318

L152 321

L153 323

L155 321

C157 319 157 319 159 321

C160 322 160 322 162 320

C164 318 165 318 166 323

C167 328 165 332 159 339

L154 345

L147 338

Z

M455 339

C448 331 446 327 449 321

C450 318 450 318 451 320

L452 322

L455 320

C456 319 457 318 457 319

C457 319 458 320 459 322

C460 323 460 323 462 321

C464 319 464 319 465 321

C467 322 467 322 469 320

L470 318

L472 320

C473 323 473 329 472 332

C471 333 468 336 465 339

L460 345

L455 339

Z

M75 309

C57 297 53 294 54 293

C55 293 65 286 76 279

C91 269 98 266 99 266

C102 267 104 271 106 277

C109 286 110 289 113 291

L115 294

L111 299

C110 301 108 304 108 304

C108 310 101 323 98 323

C97 323 87 317 75 309

Z

M120 322

C117 321 114 320 113 320

C110 320 110 320 111 316

C112 314 113 311 113 309

C114 304 118 299 123 298

C127 297 129 297 127 299

C125 301 126 302 128 302

C131 302 131 303 129 306

C128 309 128 309 131 309

C134 309 134 309 134 312

C133 314 133 314 135 314

C139 314 139 315 135 319

C132 323 126 324 120 322

Z

M172 319

C169 316 169 316 171 315

C173 315 173 314 173 312

C172 311 173 310 176 310

C179 309 179 309 178 307

C176 304 176 303 179 303

C181 303 181 303 180 300

C179 298 179 298 183 298

C187 298 193 303 193 308

C194 309 195 313 196 315

L198 320

L192 321

C189 322 184 322 181 323

C176 323 176 323 172 319

Z

M206 321

C203 318 200 312 200 308

C199 306 197 302 196 299

L192 294

L195 292

C196 290 198 287 198 285

C199 282 201 278 202 276

C203 271 207 266 209 266

C211 266 254 294 254 295

C253 296 211 323 209 323

C209 323 207 322 206 321

Z

M382 309

C370 302 361 295 360 294

C360 294 398 269 403 267

C407 265 412 272 414 281

C415 284 417 288 419 290

C422 295 422 295 420 297

C417 299 414 305 414 308

C414 312 407 323 404 323

C404 323 394 317 382 309

Z

M426 321

C423 321 420 320 419 320

C416 320 416 320 417 317

C418 316 419 313 419 311

C421 302 425 299 431 297

C435 297 435 297 434 299

C433 302 433 302 435 302

C438 302 438 303 436 306

C435 309 435 309 438 309

C441 309 441 309 440 312

C439 314 439 314 441 314

C445 314 445 315 443 318

C440 323 434 324 426 321

Z

M480 320

C475 316 475 315 478 315

C480 315 480 315 480 313

C479 310 479 310 482 309

C484 309 485 308 485 307

C484 307 484 305 483 305

C483 303 483 303 485 303

C488 303 488 303 487 301

C486 298 486 298 489 298

C495 298 499 302 501 310

C502 314 503 317 503 318

C504 319 503 320 497 321

C486 324 484 324 480 320

Z

M512 320

C508 315 507 313 506 307

C505 304 504 300 501 298

L498 294

L501 291

C503 289 505 286 506 281

C509 272 513 266 516 266

C518 266 560 293 560 294

C561 296 518 323 516 323

C515 323 513 322 512 320

Z

M152 309

C151 309 150 307 150 305

C150 303 149 302 148 302

C144 303 139 303 139 302

C139 302 140 300 142 298

L145 294

L142 291

C137 286 139 285 147 286

C150 287 150 287 150 285

C150 282 153 277 154 277

C154 278 156 280 157 282

C158 287 158 287 161 286

C168 284 170 286 165 291

L162 294

L165 298

C167 300 168 302 168 302

C168 303 163 303 159 302

C158 302 157 302 157 304

C157 307 155 311 154 311

C154 311 153 310 152 309

Z

M457 306

C456 302 455 301 454 302

C451 303 446 303 446 302

C446 301 447 299 449 298

L452 295

L449 291

C444 286 446 284 453 286

C455 287 456 287 456 284

C457 283 458 281 459 279

L460 277

L462 280

C463 281 464 284 464 285

C464 287 464 287 471 285

C472 285 473 285 474 286

C475 287 474 289 471 292

L469 294

L472 298

C474 300 475 302 475 302

C475 303 470 303 467 302

C464 301 464 301 464 303

C464 306 461 311 460 311

C460 311 458 309 457 306

Z

M12 306

C5 301 5 301 9 300

C12 298 12 298 17 301

C20 303 22 305 22 305

C22 306 18 309 17 309

C17 309 14 307 12 306

Z

M288 307

C286 306 285 305 285 305

C285 305 287 303 290 301

C296 298 296 298 298 300

C302 302 302 302 299 304

C298 304 295 306 294 307

C291 309 290 309 288 307

Z

M318 305

L313 302

L315 300

C316 299 318 298 318 298

C319 298 329 304 329 305

C329 305 328 306 326 307

C324 309 323 309 318 305

Z

M594 307

C593 306 592 305 592 305

C592 305 594 303 597 301

C602 298 602 298 605 300

C607 300 608 301 608 302

C608 302 597 309 597 309

C597 309 595 308 594 307

Z

M305 298

C303 297 303 296 303 294

C304 291 305 291 307 291

C310 291 311 292 311 294

C311 295 311 297 309 298

C307 299 307 299 305 298

Z

M0 295

C0 292 0 291 2 291

C4 292 4 297 2 298

C0 298 0 297 0 295

Z

M610 297

C609 294 610 292 612 291

C614 291 614 292 614 294

C614 297 614 298 612 298

C612 298 611 297 610 297

Z

M9 289

L6 287

L11 284

C17 280 17 280 19 282

C21 282 22 284 22 284

C22 284 12 291 12 291

C12 291 10 290 9 289

Z

M120 290

C117 289 115 285 113 278

C112 275 111 272 111 271

C110 270 111 269 117 268

C127 266 130 266 133 268

C138 271 139 274 136 274

C134 274 134 274 135 277

C135 278 135 279 133 279

C132 279 131 279 130 280

C129 281 129 281 130 282

C131 284 131 286 128 286

C126 286 126 286 127 288

C128 289 128 290 128 290

C128 291 123 291 120 290

Z

M180 290

C182 288 181 287 178 287

C176 286 176 286 178 283

L179 280

L176 280

C173 280 172 279 174 276

C175 274 175 274 172 274

C168 275 168 274 172 269

C176 266 176 266 181 266

C183 267 188 267 192 268

L198 269

L196 274

C195 276 194 280 193 281

C193 283 191 286 190 288

C187 290 185 291 182 291

C179 291 179 291 180 290

Z

M290 288

C287 286 285 284 285 284

C285 284 286 282 288 282

C290 280 290 280 296 283

C299 285 301 287 301 287

C301 288 300 289 298 289

C296 291 295 291 290 288

Z

M316 289

C314 289 313 288 313 287

C313 287 315 285 318 283

C324 280 324 280 326 282

C329 284 330 284 327 286

C326 286 324 288 322 289

C319 291 318 291 316 289

Z

M425 288

C423 287 421 284 420 279

C419 275 418 271 417 271

C417 269 424 267 433 266

C438 266 438 266 442 270

C445 273 445 273 443 274

C441 274 441 275 441 277

C442 279 442 279 440 279

C439 279 437 279 437 280

C435 280 435 280 437 282

C438 285 438 286 435 286

C433 286 432 287 434 289

C436 290 435 291 432 291

C429 291 427 290 425 288

Z

M486 289

C488 287 488 287 485 287

C483 286 483 285 484 284

C484 283 484 282 485 281

C485 280 484 280 482 280

C479 280 479 280 480 277

C481 274 481 274 479 274

C475 275 475 273 480 269

C484 265 486 265 497 268

C503 269 504 270 503 271

C503 272 502 275 501 279

C499 287 495 291 489 291

C485 291 485 291 486 289

Z

M597 288

C594 286 592 284 592 284

C592 284 593 282 595 282

C597 280 597 280 603 283

C605 285 608 287 608 287

C608 288 603 291 602 291

C602 291 599 289 597 288

Z

M26 278

C11 268 7 265 8 264

C11 262 107 201 108 201

C110 201 147 225 146 226

C145 227 48 289 47 290

C46 290 37 284 26 278

Z

M211 258

C184 241 162 226 162 225

C162 224 198 201 199 201

C201 201 300 264 300 265

C300 266 262 290 261 290

C261 290 238 276 211 258

Z

M333 278

C323 271 314 266 314 265

C314 264 413 201 415 201

C416 201 454 225 453 226

C451 228 353 290 352 290

C352 290 343 284 333 278

Z

M518 258

C490 240 468 226 468 225

C468 224 505 201 506 201

C507 201 604 262 606 264

C607 265 603 268 588 278

C578 284 569 290 569 290

C568 290 545 276 518 258

Z

M142 268

C140 261 141 258 149 249

C154 244 154 244 156 246

C156 247 159 250 161 252

C166 257 168 261 166 266

C165 270 164 271 163 268

C162 267 162 267 160 269

C158 270 158 270 156 268

L154 266

L152 268

C151 270 151 270 149 268

C147 267 147 267 145 269

L143 271

L142 268

Z

M449 269

C449 267 448 264 448 262

C448 259 449 257 454 251

L460 244

L466 250

C469 254 472 257 472 258

C474 260 473 266 472 269

L471 271

L470 269

L469 267

L466 269

L464 271

L463 269

C461 265 461 265 459 268

C457 270 457 270 456 269

C454 267 454 267 452 269

L450 271

L449 269

Z

M105 262

C104 262 111 257 127 247

C148 233 150 232 150 235

C150 238 148 242 143 247

C139 251 135 257 135 259

C135 261 134 261 129 260

C125 260 122 260 118 261

C112 263 107 263 105 262

Z

M189 261

C186 260 182 260 178 260

C173 261 172 261 172 259

C172 257 169 252 164 246

C160 242 156 235 157 233

C157 232 168 239 180 247

C196 257 203 262 202 262

C200 263 194 263 189 261

Z

M412 262

C411 262 421 255 434 247

C453 234 457 232 457 234

C457 237 454 242 448 248

C445 252 443 255 442 257

L442 261

L436 260

C431 260 428 260 424 261

C418 263 412 263 412 262

Z

M496 261

C492 260 488 260 485 260

L479 261

L478 257

C477 255 475 251 472 248

C466 242 464 238 464 234

C464 232 466 233 487 247

C505 258 510 262 508 262

C506 263 501 263 496 261

Z

M3 258

C3 254 6 249 11 243

C15 240 17 235 18 233

L19 229

L23 230

C26 231 28 231 34 230

C41 228 49 227 49 229

C50 229 7 258 4 259

C3 259 3 258 3 258

Z

M281 244

C269 237 258 230 258 229

C258 227 266 228 273 230

C278 231 282 231 286 229

C287 229 288 229 288 230

C288 233 291 238 296 244

C301 249 304 254 304 257

C304 259 300 256 281 244

Z

M310 257

C310 253 313 249 318 243

C322 239 324 236 325 231

C326 229 326 229 330 230

C333 231 335 231 341 230

C348 228 356 227 356 229

C357 229 331 247 314 257

C310 259 310 259 310 257

Z

M587 244

C574 236 564 229 564 229

C564 227 574 228 580 230

C585 231 589 231 593 229

C594 229 595 231 596 233

C597 236 599 239 602 243

C607 248 612 257 611 258

C611 259 600 252 587 244

Z

M306 246

C306 246 304 243 301 240

C294 233 293 229 295 223

L296 220

L298 222

L300 224

L301 222

C302 221 303 220 304 221

C305 223 307 225 308 225

C309 221 310 221 312 222

C314 224 314 224 315 222

C317 220 317 220 318 221

C320 224 320 229 319 233

C318 234 315 238 313 240

C310 243 308 246 308 246

C308 247 308 247 307 247

C306 247 306 247 306 246

Z

M0 236

C0 227 0 225 2 223

C4 220 4 220 5 222

C6 225 8 225 9 222

C9 219 10 219 12 223

C15 229 13 234 5 241

L0 246

L0 236

Z

M608 241

C606 238 603 235 602 233

C601 231 601 226 602 222

C603 220 603 220 605 221

C606 223 606 223 608 222

C610 220 610 220 612 223

C614 226 614 227 614 236

L614 246

L608 241

Z

M20 222

C16 218 15 217 18 217

C20 217 20 216 20 214

C20 212 20 211 22 211

C24 211 25 210 25 209

C24 209 24 207 23 207

C23 205 23 205 25 205

C28 205 28 205 27 202

C25 199 26 199 31 200

C36 201 39 205 41 212

C42 216 43 219 43 220

C44 221 42 222 37 223

C26 226 24 226 20 222

Z

M52 222

C49 219 48 216 46 208

C45 205 43 201 41 199

L38 197

L42 193

C44 190 45 187 46 184

C48 177 50 172 54 169

L56 167

L69 175

C76 180 86 186 91 189

C97 193 101 196 101 196

C101 197 57 225 56 225

C55 225 54 224 52 222

Z

M228 211

C212 200 206 196 207 195

C210 193 250 168 251 168

C254 168 259 175 261 182

C261 187 264 192 267 194

C269 196 269 196 266 199

C263 202 262 205 260 213

C258 218 253 225 251 225

C251 225 240 219 228 211

Z

M273 223

C271 223 267 222 266 222

C263 222 263 222 264 218

C265 216 266 213 267 210

C268 205 271 201 276 200

C280 199 282 199 280 201

C279 203 280 204 282 204

C284 204 284 205 283 209

C282 211 282 211 285 211

C288 211 288 211 287 214

C286 216 286 216 289 216

C292 216 292 218 288 221

C285 225 279 226 273 223

Z

M328 223

C323 220 322 217 325 217

C327 217 327 217 326 214

C326 211 326 211 329 211

C332 211 333 210 331 209

C329 207 330 205 332 205

C335 205 335 205 334 202

C332 199 333 199 338 200

C343 201 346 205 347 210

C348 213 349 216 350 218

C350 220 351 221 351 221

C350 222 339 224 335 225

C332 225 330 225 328 223

Z

M358 221

C357 219 354 215 353 210

C352 206 350 202 348 200

L345 196

L348 193

C350 191 352 187 353 182

C356 174 360 168 363 168

C364 168 404 193 407 195

C408 196 403 200 386 211

C374 219 363 225 362 225

C362 225 360 223 358 221

Z

M535 211

C523 203 514 197 514 196

C514 195 556 168 558 168

C559 168 560 169 562 171

C565 174 566 176 568 185

C569 187 570 191 572 192

L575 196

L572 200

C571 202 568 207 567 211

C565 216 564 219 561 222

C560 224 558 225 557 225

C557 225 547 219 535 211

Z

M580 223

C577 223 574 222 573 222

C570 222 570 222 571 217

C572 215 573 212 574 209

C575 204 580 200 584 199

C588 199 589 200 587 202

C585 202 587 204 589 204

C591 204 591 204 589 208

L588 211

L592 211

C595 211 595 211 594 213

C593 216 593 216 596 216

C598 216 599 217 596 220

C593 225 587 226 580 223

Z

M0 197

C0 187 0 180 1 180

C2 180 4 185 4 187

C4 189 4 189 5 189

C6 188 8 188 10 187

C15 187 16 188 12 193

L9 197

L12 200

C14 202 15 204 15 204

C15 205 9 205 6 204

C4 203 4 203 4 205

C4 207 1 213 0 213

C0 213 0 206 0 197

Z

M304 210

C304 208 303 205 303 205

C303 203 302 203 300 204

C297 205 292 205 292 204

C292 204 293 202 295 200

C298 196 298 196 297 195

C296 194 294 192 294 191

C292 188 292 188 293 187

C295 187 298 187 301 189

C303 189 303 189 303 187

C303 186 304 184 305 182

L307 179

L309 182

C310 184 311 186 311 187

C311 189 311 189 313 189

C316 187 321 187 321 188

C322 188 321 191 319 193

C315 196 315 197 317 198

C318 198 320 200 320 202

L322 205

L319 205

C317 205 315 205 314 204

C312 203 311 204 310 208

C309 211 307 213 307 213

C306 213 305 211 304 210

Z

M612 210

C611 208 610 206 610 205

C610 203 610 203 608 204

C605 205 599 205 599 204

C599 204 600 202 602 200

L605 196

L602 193

C598 188 598 187 603 187

C605 188 608 188 608 189

C610 189 610 189 610 187

C610 185 612 180 613 180

C614 180 614 187 614 197

C614 206 614 213 614 213

C613 213 612 212 612 210

Z

M135 209

C133 208 132 207 132 207

C132 206 141 200 143 200

C143 200 145 201 146 202

L148 204

L143 207

C138 211 137 211 135 209

Z

M165 207

C162 206 160 204 159 204

C159 204 160 203 162 202

L166 200

L171 203

L176 207

L173 209

L170 211

L165 207

Z

M441 209

L438 207

L443 203

L449 200

L452 202

L455 204

L451 206

C449 207 447 209 445 210

C444 211 443 211 441 209

Z

M471 207

L466 204

L468 202

C471 199 472 200 478 203

L483 207

L481 208

C478 211 476 210 471 207

Z

M151 199

C149 198 150 194 152 193

C154 192 155 192 156 194

C158 196 158 196 157 198

C156 200 152 201 151 199

Z

M457 199

C455 197 456 196 458 194

C459 192 460 192 462 193

C465 195 464 199 461 200

C460 200 458 200 457 199

Z

M26 191

C28 189 28 189 25 189

C23 188 23 187 24 186

C24 185 24 184 25 183

C25 182 24 182 22 182

C19 182 19 182 20 179

C21 176 21 176 19 176

C15 176 15 175 18 172

C22 168 26 167 38 170

C41 171 43 171 44 171

C44 172 43 173 43 176

C42 178 40 182 39 184

C38 190 33 193 28 193

C25 193 25 193 26 191

Z

M137 189

L131 186

L134 184

L137 182

L142 185

C145 187 148 189 148 189

C148 189 147 190 145 191

C142 193 142 193 137 189

Z

M162 191

C161 190 160 189 160 189

C160 189 162 187 165 185

C170 182 170 182 173 184

C175 184 176 185 176 185

C176 186 165 193 165 193

C165 193 163 192 162 191

Z

M272 190

C269 188 268 186 267 182

C266 179 265 175 264 174

C263 171 263 171 267 170

C269 170 272 169 273 169

C274 168 277 168 280 168

C285 168 286 168 289 172

L293 176

L290 176

C288 176 287 177 288 179

C288 181 288 181 285 181

C282 181 281 182 284 185

C285 186 285 187 284 187

C281 187 280 189 281 191

C282 193 282 193 279 193

C276 193 274 192 272 190

Z

M333 191

C335 189 335 189 333 189

C330 188 329 186 331 185

C333 183 332 182 329 182

C326 182 326 182 327 179

C328 176 328 176 325 176

L322 176

L325 172

C329 167 332 167 343 170

L351 171

L349 177

C345 190 342 193 335 193

C332 193 332 193 333 191

Z

M444 190

C438 186 437 185 441 184

C444 182 444 182 449 185

C452 187 454 189 454 189

C454 190 449 193 449 193

C449 193 446 192 444 190

Z

M469 191

C467 190 466 189 466 189

C466 189 469 187 472 185

L477 182

L480 184

L483 186

L479 188

C471 193 472 193 469 191

Z

M579 191

C576 189 576 189 572 176

L570 171

L577 170

C587 167 591 167 595 171

C598 174 599 176 596 176

C594 175 594 175 595 178

C595 181 595 181 592 181

C590 181 589 181 589 183

C590 183 590 185 591 185

C591 186 590 187 589 188

C586 188 586 189 587 190

C588 191 588 192 588 192

C588 194 582 193 579 191

Z

M58 160

C30 142 7 128 7 128

C7 127 45 103 47 103

C48 104 147 166 147 167

C147 168 111 191 109 191

C108 192 85 178 58 160

Z

M180 180

C170 173 162 168 162 167

C162 166 184 152 211 134

L261 102

L272 109

C294 123 300 127 300 127

C300 128 202 191 200 191

C199 192 190 187 180 180

Z

M364 160

C324 134 314 127 315 126

C316 126 325 120 335 114

L353 102

L396 130

C419 145 442 159 446 162

L454 167

L435 179

C425 186 416 191 416 192

C415 192 392 178 364 160

Z

M486 180

C476 173 467 167 467 167

C467 167 490 152 518 134

L568 102

L588 115

C598 122 607 128 606 128

C605 129 506 192 506 192

C506 192 497 186 486 180

Z

M2 170

C0 167 0 165 0 156

L0 146

L5 152

C8 155 11 158 12 159

C13 162 13 168 12 171

L10 173

L10 171

L9 169

L7 171

L4 173

L2 170

Z

M295 170

C293 164 294 160 300 154

C302 152 305 149 305 148

C307 146 307 146 312 151

C320 160 321 163 319 169

C318 172 316 173 316 171

C316 170 316 169 315 169

C315 169 314 170 313 171

C311 173 311 172 309 169

L307 167

L306 169

C304 173 303 173 302 170

C301 168 301 168 299 171

L297 173

L295 170

Z

M602 170

C601 167 601 162 602 159

C603 158 606 155 609 152

L614 146

L614 156

C614 163 614 167 612 169

C611 172 611 172 609 170

C607 169 607 169 606 170

C605 173 603 172 602 170

Z

M36 163

C32 162 28 162 25 162

L19 163

L18 159

C17 157 15 153 12 150

C6 144 4 140 4 136

C4 134 6 135 27 149

C47 162 50 164 48 164

C44 165 41 165 36 163

Z

M259 164

C257 164 262 160 280 149

C293 141 303 134 304 134

C305 136 301 143 297 149

C294 152 290 156 289 159

L288 163

L281 162

C277 162 273 162 272 163

C270 164 261 165 259 164

Z

M343 163

C339 162 336 162 332 162

L326 163

L325 159

C324 157 321 153 318 150

C313 144 309 136 310 134

C311 134 321 140 333 148

C359 165 356 163 356 164

C354 165 347 165 343 163

Z

M565 164

C564 164 571 159 587 149

C600 140 610 134 611 134

C612 136 608 143 603 148

C598 154 595 159 595 161

C595 162 594 163 589 162

C585 162 581 162 577 163

C571 165 567 165 565 164

Z

M127 146

C115 138 104 131 104 131

C104 129 114 130 120 132

C125 133 128 133 133 131

C135 131 135 131 135 133

C135 136 137 139 142 145

C147 150 152 158 151 160

C151 161 140 154 127 146

Z

M157 159

C157 154 159 151 164 146

C169 140 172 135 172 132

C172 131 173 131 173 131

C178 133 182 133 187 132

C193 130 203 129 203 131

C203 131 197 136 189 141

C181 146 171 152 166 155

C157 161 157 161 157 159

Z

M434 146

C421 138 411 131 411 131

C411 129 421 130 427 132

C430 132 434 133 435 133

C436 132 438 132 439 131

C440 131 441 132 442 136

C443 138 446 142 449 145

C455 151 457 155 457 158

C457 160 454 159 434 146

Z

M463 159

C463 156 467 150 471 145

C475 141 477 137 478 135

C479 132 480 131 481 132

C485 133 488 133 494 132

C500 130 510 129 510 131

C510 132 466 160 464 160

C463 160 463 160 463 159

Z

M148 143

C146 140 143 137 142 136

C141 133 141 127 142 124

C143 122 143 122 145 123

C146 125 146 125 148 124

C150 122 150 122 152 125

L153 127

L155 125

C157 123 157 123 159 124

C160 126 160 126 162 124

L164 122

L165 124

C167 127 167 133 165 136

C164 137 161 140 158 143

L153 149

L148 143

Z

M454 142

C447 134 446 131 448 125

C450 122 450 122 451 124

C453 125 453 125 455 124

C457 122 457 122 458 125

L460 127

L462 124

L464 122

L465 124

C467 127 468 127 469 124

C469 123 469 122 470 122

C471 122 473 127 473 130

C473 134 472 137 465 143

L460 149

L454 142

Z

M75 113

C63 105 53 99 53 98

C53 97 94 71 97 70

C101 69 105 75 108 87

C109 89 110 93 112 95

L115 98

L113 101

C109 104 108 107 107 113

C106 118 102 124 99 126

C98 127 93 124 75 113

Z

M120 125

C118 125 114 124 113 124

C111 124 110 124 110 124

C110 123 111 119 113 115

C116 106 118 102 123 101

C128 101 129 101 127 103

C126 105 126 105 128 106

C131 106 131 106 129 110

L128 113

L131 113

C134 113 134 113 134 116

C133 118 133 118 135 118

C137 118 138 118 138 119

C138 121 134 124 131 126

C127 127 126 127 120 125

Z

M175 126

C173 125 172 123 171 122

C169 119 169 119 171 119

C173 119 173 118 173 116

C173 114 173 113 176 113

C179 113 179 112 178 111

C175 108 176 107 179 107

C181 107 181 107 181 106

C179 100 178 101 182 101

C189 103 193 106 195 115

C195 117 196 120 197 121

C198 124 198 124 195 124

C194 124 190 125 188 126

C183 127 178 127 175 126

Z

M205 124

C203 121 201 117 200 113

C199 109 196 104 195 102

L192 98

L194 95

C198 92 199 89 200 83

C201 78 205 72 208 70

C209 69 214 72 232 83

C244 91 254 97 254 98

C255 99 211 127 209 127

C209 127 207 125 205 124

Z

M382 113

C370 105 360 99 360 98

C360 98 370 91 382 84

C405 69 406 68 410 74

C411 76 413 79 413 82

C415 88 417 93 420 96

L422 98

L420 100

C418 102 414 109 414 112

C414 116 407 127 404 127

C404 127 394 121 382 113

Z

M427 125

C425 125 421 124 420 124

C416 124 416 124 420 114

C422 107 423 105 426 103

C430 101 436 100 434 102

C433 104 434 106 436 106

C438 106 439 107 437 110

C434 112 435 113 438 113

C441 113 441 113 440 116

C439 118 439 118 442 118

C446 118 446 119 442 122

C438 127 435 128 427 125

Z

M481 125

C480 124 478 122 477 121

C476 119 476 119 478 119

C480 119 480 119 480 116

C479 113 479 113 482 113

C486 113 486 113 485 111

C482 108 483 107 486 107

C488 107 488 107 488 106

C487 105 487 103 486 103

C485 99 494 102 498 106

C499 108 500 111 501 113

C501 115 502 118 503 120

C503 122 504 123 504 123

C503 124 491 126 488 127

C486 127 483 126 481 125

Z

M512 124

C510 122 508 118 507 113

C505 107 503 103 501 101

L498 98

L501 96

C503 94 505 89 507 82

C508 78 512 72 515 70

C516 69 519 71 539 83

C551 91 561 98 561 98

C561 99 517 127 516 127

C515 127 514 126 512 124

Z

M152 112

C151 110 150 108 150 107

C149 105 149 105 146 106

C143 107 139 107 139 106

C139 105 142 101 144 99

C145 99 145 98 142 95

C140 93 139 91 139 90

C139 89 143 89 146 90

C149 91 149 91 150 89

C150 88 151 86 152 84

C153 81 153 81 155 82

C155 83 157 85 157 87

C158 91 158 91 161 90

C164 89 168 89 168 90

C168 91 167 93 165 95

L162 98

L165 101

C169 106 169 107 164 107

C162 106 160 106 159 106

C158 106 157 107 157 109

C154 115 153 116 152 112

Z

M457 110

C456 106 455 105 453 106

C452 107 450 107 448 107

C445 107 445 105 449 101

L452 98

L449 95

C447 93 446 91 446 90

C446 89 450 89 453 90

C456 91 456 91 457 87

C457 85 459 83 459 82

C461 81 461 81 462 84

C463 86 464 88 464 89

C464 91 464 91 466 91

C468 89 475 89 475 89

C475 91 472 96 470 97

C469 98 469 98 472 101

C474 103 475 106 475 106

C475 107 469 107 466 106

C465 105 464 106 463 110

C462 112 461 115 460 115

C460 115 458 113 457 110

Z

M11 109

L6 106

L8 104

C11 101 12 101 18 105

L23 109

L21 110

C17 113 16 112 11 109

Z

M287 111

C286 110 285 109 285 109

C285 109 287 107 290 105

C295 102 298 102 300 104

C301 106 300 106 296 109

C291 112 291 112 287 111

Z

M318 109

C313 106 313 104 317 102

C319 102 329 107 329 109

C329 110 325 112 323 112

C323 112 320 111 318 109

Z

M594 111

C593 110 592 109 592 109

C592 108 601 102 603 102

C603 102 605 103 606 104

L608 106

L603 109

C598 112 596 113 594 111

Z

M0 98

C0 94 1 93 3 95

C5 97 4 101 2 102

C0 102 0 101 0 98

Z

M304 101

C302 99 303 96 306 95

C309 93 312 96 311 99

C310 102 306 103 304 101

Z

M611 101

C610 100 610 96 611 95

C613 93 614 94 614 98

C614 102 613 103 611 101

Z

M9 93

L6 90

L11 87

L17 84

L20 86

L23 88

L20 90

C18 91 15 92 14 93

C12 95 11 95 9 93

Z

M119 93

C116 91 116 90 112 79

C111 76 111 74 110 73

C110 72 111 72 113 72

C115 72 119 71 121 70

C127 69 133 70 136 74

C139 77 139 78 136 77

C134 77 134 77 134 80

C135 83 135 83 132 83

C130 83 129 83 129 85

C130 85 130 87 131 87

C131 88 130 89 129 89

C126 90 126 90 128 93

C128 95 128 95 125 95

C124 95 121 94 119 93

Z

M179 93

C181 91 181 91 179 90

C176 90 176 90 178 86

C179 84 179 84 176 84

C173 84 173 84 173 81

C174 78 174 78 171 78

L169 78

L172 74

C176 70 176 70 182 70

C188 71 196 72 196 73

C197 73 196 77 194 82

C191 91 189 94 182 95

L178 95

L179 93

Z

M290 91

C286 89 285 88 286 86

C288 84 291 84 296 87

C299 89 301 91 301 91

C301 91 300 92 298 93

C296 95 295 95 290 91

Z

M316 93

C314 92 313 91 313 91

C313 91 315 89 318 87

C323 84 324 84 326 85

C327 86 328 87 328 88

C328 88 326 90 323 92

C319 95 318 95 316 93

Z

M426 93

C422 91 422 90 420 82

C419 78 418 75 417 74

C417 72 417 72 419 72

C421 72 424 71 428 71

C435 69 438 69 442 73

C446 77 446 78 443 78

C441 77 441 77 441 80

C442 83 442 83 438 83

L435 83

L436 86

C438 89 438 89 436 89

C433 90 433 90 435 93

C435 95 435 95 432 95

C431 95 428 94 426 93

Z

M486 93

C488 91 488 91 486 90

C484 90 483 89 484 88

C484 87 484 86 485 85

C485 84 484 84 482 84

C480 84 480 84 480 81

C481 78 481 78 478 78

C475 78 475 77 479 73

C482 70 483 70 488 70

C495 71 503 72 504 73

C504 73 503 75 503 78

C502 80 500 84 499 86

C498 92 493 95 488 95

C485 95 485 95 486 93

Z

M597 91

L591 88

L594 86

C595 85 597 84 597 84

C597 84 600 86 603 87

L608 91

L605 93

L602 95

L597 91

Z

M26 82

C16 75 7 69 7 69

C7 69 30 54 57 36

L108 4

L126 16

C136 22 145 28 146 28

C147 29 135 37 97 62

C69 79 47 94 46 94

C46 94 37 88 26 82

Z

M212 62

C184 45 161 30 161 29

C161 29 198 5 199 5

C200 4 300 68 300 69

C300 69 264 93 262 94

C262 94 239 80 212 62

Z

M333 82

C323 75 314 69 314 69

C315 68 413 5 415 5

C415 5 424 10 435 17

L454 29

L451 31

C449 33 426 47 400 64

C374 80 353 94 353 94

C353 94 344 88 333 82

Z

M517 62

C490 44 467 29 468 29

C468 28 477 23 487 16

L506 4

L556 36

C584 54 607 69 607 69

C607 70 569 94 568 94

C568 94 545 79 517 62

Z

M142 71

C141 68 141 64 142 61

C143 60 146 57 149 54

L154 48

L159 54

C166 61 168 65 166 70

C165 74 164 75 163 72

C162 71 162 71 160 73

C158 74 158 74 156 72

L153 69

L152 72

L151 74

L149 72

C147 70 147 70 146 72

C145 75 144 75 142 71

Z

M449 72

C447 69 448 63 450 60

C451 59 454 55 456 53

L460 48

L466 54

C472 60 474 65 473 69

C472 73 470 75 469 73

C469 71 469 71 467 73

C465 74 465 74 462 71

C461 70 460 69 460 70

C460 70 459 71 458 72

C457 74 457 74 456 72

C454 71 454 71 453 72

C451 74 450 74 449 72

Z

M106 66

L104 65

L106 64

C140 42 150 36 150 38

C151 41 149 44 144 50

C138 56 135 61 135 64

C135 65 134 65 133 64

C130 64 122 64 119 65

C114 66 109 67 106 66

Z

M190 65

C187 64 182 64 178 64

L172 65

L172 61

C171 59 169 56 165 52

C160 46 156 38 157 36

C158 36 198 61 203 65

C205 66 196 67 190 65

Z

M413 66

C410 65 408 67 440 46

C449 41 456 36 457 36

C457 36 457 37 457 38

C457 41 454 46 449 52

C446 55 443 59 442 61

C442 63 441 64 439 64

C435 64 427 64 425 65

C423 66 415 67 413 66

Z

M497 65

C494 64 489 64 485 64

L479 65

L478 61

C477 59 474 54 471 51

C467 46 465 43 464 40

C464 39 464 37 464 36

C465 36 507 63 509 65

C510 66 510 66 508 66

C507 66 506 66 505 66

C503 67 500 66 497 65

Z

M310 61

C310 57 313 52 318 46

C322 43 324 39 325 37

C325 33 326 33 330 34

C333 35 336 35 340 34

C343 33 349 32 352 32

C359 32 359 32 338 45

C329 51 319 57 316 59

C310 63 310 63 310 61

Z

M3 61

C3 58 7 51 12 46

C15 43 17 40 18 37

C19 34 20 33 21 33

C22 34 24 34 25 35

C26 35 30 34 33 34

C39 32 50 31 50 33

C50 34 6 61 4 62

C4 62 3 62 3 61

Z

M280 47

C258 33 257 33 260 32

C262 32 265 32 268 32

C270 33 276 33 280 33

L288 34

L289 37

C290 39 292 44 295 47

C298 50 301 54 302 56

C304 59 305 62 303 62

C303 62 292 55 280 47

Z

M592 51

C583 45 573 39 570 37

L564 33

L567 32

C569 32 572 32 575 32

C577 33 583 33 587 33

L595 33

L595 37

C596 39 598 42 602 47

C609 54 613 62 610 62

C610 62 602 57 592 51

Z

M0 40

C0 33 0 29 2 27

L3 24

L5 26

L7 28

L8 26

C10 23 10 23 12 27

C15 33 13 37 5 45

L0 50

L0 40

Z

M302 44

C294 36 293 32 295 27

C296 24 298 23 298 26

C298 26 298 27 299 27

C299 27 300 26 301 26

C303 23 303 24 305 27

C307 30 307 30 309 26

L310 24

L312 26

L314 28

L315 26

C316 25 316 24 317 24

C318 24 320 32 320 34

C319 37 309 49 307 50

C307 50 304 47 302 44

Z

M608 44

C605 41 602 37 602 37

C601 35 601 28 602 26

C603 24 603 24 605 25

C606 27 606 27 608 26

C610 24 610 24 612 26

C614 29 614 31 614 41

L614 50

L608 44

Z

M22 27

C20 26 18 24 17 23

C16 21 16 21 18 21

C20 21 20 21 20 18

C19 15 19 15 22 15

C26 15 26 15 25 13

C22 10 23 9 26 9

C28 9 28 9 28 8

C27 7 27 5 26 5

C26 2 29 3 34 5

C37 6 41 13 41 16

C41 17 42 19 43 21

C44 26 44 26 41 26

C40 26 36 27 34 28

C27 29 26 29 22 27

Z

M52 26

C49 23 46 16 46 12

C46 11 44 8 43 5

L39 0

L70 0

L101 0

L98 2

C90 7 58 28 57 29

C56 29 54 28 52 26

Z

M229 15

C218 8 208 1 207 1

C207 0 220 0 237 0

L268 0

L265 4

C264 6 261 11 260 15

C258 22 255 26 252 28

C251 29 245 26 229 15

Z

M275 27

C272 27 268 26 267 26

C265 26 264 26 264 26

C263 25 269 9 271 7

C273 4 279 2 281 3

C281 4 281 5 280 5

C279 7 279 7 281 8

C284 8 284 9 283 13

C282 15 282 15 285 15

C288 15 288 15 287 17

C286 20 286 20 289 20

C290 20 291 20 291 21

C291 23 285 28 284 28

C283 28 282 28 281 28

C280 29 277 28 275 27

Z

M330 28

C328 28 323 23 323 22

C323 21 324 21 325 21

C327 21 327 21 326 18

C326 15 326 15 329 15

C331 15 332 15 332 14

C331 13 331 11 330 11

C330 9 330 9 332 9

C334 9 335 8 333 5

C332 3 332 3 335 3

C338 3 343 6 345 9

C346 10 347 14 348 17

C349 20 350 23 350 24

C351 26 351 26 348 26

C347 26 343 27 341 28

C336 29 333 29 330 28

Z

M360 27

C358 26 353 17 353 14

C353 11 350 6 347 3

L345 0

L376 0

C394 0 408 0 408 0

C407 1 364 28 364 29

C363 29 361 28 360 27

Z

M538 16

C527 10 517 3 516 2

L513 0

L544 0

L575 0

L573 3

C569 6 568 9 567 15

C566 20 562 26 559 28

C558 29 554 26 538 16

Z

M581 27

C579 27 575 26 573 26

C571 26 570 26 570 26

C570 24 575 10 576 8

C577 6 582 3 585 3

C588 3 588 3 587 5

C586 7 586 7 589 8

C590 8 591 9 590 10

C589 14 589 15 591 15

C594 15 594 15 594 18

C593 20 593 20 595 20

C598 20 598 20 597 23

C595 28 588 30 581 27

Z

M0 9

L0 0

L4 0

C8 0 9 0 12 4

C14 5 15 8 15 8

C15 9 9 9 6 8

C5 7 4 8 4 10

C3 12 2 15 2 16

C0 17 0 17 0 9

Z

M305 14

C304 12 303 9 303 8

C303 7 303 7 301 7

C298 9 292 9 292 8

C292 8 293 5 295 4

L298 0

L307 0

L316 0

L319 4

C321 6 322 8 322 8

C322 9 316 9 313 8

C312 7 311 8 310 12

C309 15 308 17 307 17

C307 17 306 15 305 14

Z

M612 14

C611 12 610 10 610 9

C610 7 610 7 608 7

C605 9 599 9 599 8

C599 7 602 3 604 1

C605 1 607 0 610 0

L614 0

L614 9

C614 13 614 17 614 17

C613 17 612 16 612 14

Z

M134 13

C131 11 131 10 137 7

C142 4 143 3 146 6

L148 8

L143 11

C137 14 137 14 134 13

Z

M165 11

C160 7 159 7 162 6

C164 3 166 4 171 7

L176 10

L174 12

C171 15 170 14 165 11

Z

M440 12

L438 10

L443 7

C449 3 449 3 453 6

L455 7

L450 11

C444 15 443 15 440 12

Z

M471 11

L466 7

L468 6

C471 3 472 4 478 7

L483 11

L481 12

C477 15 477 15 471 11

Z

M151 3

C151 3 150 2 150 1

C150 0 151 0 154 0

C158 0 158 0 157 2

C156 4 154 4 151 3

Z

M457 2

C456 0 456 0 460 0

C463 0 464 0 464 1

C464 4 459 5 457 2

Z

"/>

</svg>

