<?xml version="1.0" standalone="no"?>

<!DOCTYPE svg PUBLIC "-//W3C//DTD SVG 20010904//EN"

 "http://www.w3.org/TR/2001/REC-SVG-20010904/DTD/svg10.dtd">

<svg version="1.0" xmlns="http://www.w3.org/2000/svg"

 width="591.000000pt" height="591.000000pt" viewBox="0 0 591.000000 591.000000"

 preserveAspectRatio="xMidYMid meet">

<path fill="#fdf9f9" stroke="none" d="
M0 296

L0 0

L296 0

L591 0

L591 296

L591 591

L296 591

L0 591

L0 296

Z

"/>

<path fill="#c04d7c" stroke="none" d="
M15 588

C18 587 21 584 22 582

L25 579

L30 584

C32 587 34 589 34 590

C34 591 29 591 22 591

L11 591

L15 588

Z

M56 588

C62 582 61 571 53 561

L50 557

L54 556

C56 555 58 554 58 554

C60 554 95 583 96 585

C96 585 95 587 95 589

L93 591

L73 591

L54 591

L56 588

Z

M141 588

L142 585

L138 586

L134 586

L134 583

C134 579 133 578 129 581

C127 581 126 582 125 582

C125 581 126 578 128 575

C131 569 131 568 135 568

C140 567 147 562 150 558

L152 554

L155 558

C157 560 160 562 162 563

C166 565 166 565 166 570

C166 574 165 576 164 578

C162 581 161 585 162 589

C163 591 163 591 152 591

L141 591

L141 588

Z

M189 588

C191 583 187 576 179 574

C175 573 175 573 175 569

C175 565 175 565 178 564

C187 560 193 551 192 543

C191 541 191 538 190 537

C190 535 190 535 194 536

C203 537 209 540 210 542

C214 548 217 551 221 554

C223 556 225 557 224 558

C222 559 219 566 219 571

C219 575 222 582 224 584

C226 586 226 586 222 588

C218 591 217 591 202 591

L187 591

L189 588

Z

M255 588

C256 586 259 583 260 582

L261 579

L265 583

C267 585 270 588 272 589

L276 591

L263 591

L251 591

L255 588

Z

M325 588

C326 587 326 584 327 582

L327 580

L323 580

C317 581 317 580 320 573

L322 569

L319 569

C316 569 316 569 314 564

C313 561 312 558 312 558

C311 558 309 561 306 564

C302 571 300 572 300 570

C300 569 299 567 298 565

C296 564 295 562 295 562

C295 561 297 560 300 559

C304 557 307 554 311 548

C311 546 313 546 326 550

C334 552 343 554 347 555

C353 555 353 555 354 558

C355 560 357 563 359 564

C361 566 362 566 367 566

L372 565

L376 571

C380 576 387 586 389 590

C390 591 383 591 357 591

L325 591

L325 588

Z

M396 584

C392 577 382 564 379 560

C377 559 376 557 376 555

C376 553 376 551 375 550

C374 548 374 547 376 544

C377 540 378 540 381 540

C386 541 394 539 397 536

L400 533

L405 537

C411 541 415 542 424 542

L432 541

L433 544

C433 546 436 550 438 554

C441 559 441 560 440 562

C439 564 438 567 437 569

C436 578 445 587 454 589

C456 589 458 590 458 590

C458 591 445 591 429 591

L400 591

L396 584

Z

M473 589

C473 587 480 579 481 579

C482 579 484 585 484 588

C484 591 484 591 478 591

C472 591 472 591 473 589

Z

M554 589

C555 587 556 586 558 586

C560 586 563 586 565 585

C567 585 568 585 569 588

L571 591

L562 591

L552 591

L554 589

Z

M581 590

C581 589 581 589 582 590

C583 590 583 590 583 591

C583 591 583 591 582 591

C581 591 581 591 581 590

Z

M497 586

C495 584 493 582 493 580

L491 577

L496 576

C501 576 505 577 507 580

C508 582 508 583 507 585

C506 589 500 589 497 586

Z

M460 577

C456 575 457 568 462 566

C464 566 471 568 473 571

C475 573 475 573 470 575

C465 578 464 578 460 577

Z

M553 576

C549 571 538 570 531 573

L527 575

L522 571

L517 567

L520 564

C524 561 527 555 527 549

C527 545 527 544 529 544

C534 542 549 543 554 545

L559 547

L562 559

C563 566 564 573 564 574

C565 577 565 577 561 577

C559 577 557 577 556 578

C555 578 554 577 553 576

Z

M573 570

C572 566 571 560 570 558

L570 553

L574 555

C576 557 578 558 579 558

C582 558 582 559 579 565

C577 568 576 572 576 574

C576 579 574 577 573 570

Z

M82 561

C68 549 65 547 65 544

C65 539 65 538 62 535

C59 531 54 528 47 527

L42 527

L42 523

C42 520 41 517 40 515

L38 512

L40 511

C42 510 45 508 49 506

C54 504 55 503 58 505

C62 506 65 506 71 504

L75 503

L84 507

C89 509 96 512 99 513

C105 514 105 515 108 520

C110 524 111 526 115 528

C120 532 121 532 119 535

C118 537 117 540 116 543

C115 550 116 558 120 562

L123 565

L120 569

C119 572 118 573 118 572

C117 570 117 570 115 571

C114 572 113 572 113 572

C112 572 112 568 112 562

C112 557 112 552 111 552

C111 552 109 553 106 555

C103 558 102 559 102 564

C101 572 100 574 99 574

C98 574 90 568 82 561

Z

M32 571

C30 569 30 567 29 563

C29 557 29 557 31 558

C35 559 39 561 41 563

C43 566 42 570 40 571

C37 574 36 573 32 571

Z

M6 570

C4 568 4 567 5 563

C7 561 8 560 12 558

C15 558 17 557 18 557

C19 558 16 568 14 570

C12 572 8 573 6 570

Z

M271 570

C269 569 268 567 268 565

C267 563 267 561 266 560

C266 558 266 558 268 558

C273 558 278 560 279 563

C281 567 281 568 279 570

C276 573 274 573 271 570

Z

M240 569

C238 567 238 566 239 562

C241 559 247 556 251 556

C254 556 251 567 248 569

C245 572 242 571 240 569

Z

M491 567

C491 563 493 557 496 556

C501 553 506 558 504 564

C502 566 501 567 497 568

C494 569 491 570 491 570

C491 570 491 569 491 567

Z

M478 563

C474 559 473 554 476 552

C480 548 485 551 485 558

C485 562 484 567 482 567

C482 567 480 565 478 563

Z

M446 550

C444 547 442 543 441 540

C439 535 439 534 440 530

C442 525 440 518 436 513

L434 510

L438 509

C446 506 452 499 452 493

C452 491 453 490 454 490

C458 488 473 485 473 486

C474 486 473 489 472 492

C471 496 470 499 467 501

C466 503 464 506 463 508

C462 512 463 519 466 522

C467 523 468 525 469 526

C469 529 469 530 466 532

C461 537 460 542 460 548

L461 553

L457 553

C456 553 453 553 451 554

C449 554 448 554 446 550

Z

M5 551

C1 549 0 544 3 542

C6 539 10 540 15 544

L19 548

L15 550

C11 552 7 552 5 551

Z

M36 549

C34 548 33 547 33 547

C33 546 35 544 37 542

C40 539 42 538 44 538

C49 538 52 544 48 548

C45 550 42 550 36 549

Z

M273 549

L270 548

L272 545

C276 539 282 536 285 539

C288 542 288 545 286 547

C283 550 279 551 273 549

Z

M236 547

C233 545 233 539 237 538

C241 536 245 538 248 543

C251 546 251 546 249 547

C245 549 239 549 236 547

Z

M349 546

C343 545 320 540 313 537

C312 537 311 535 311 533

C310 529 303 521 298 519

L293 518

L301 505

C305 497 310 487 313 482

C315 477 317 473 318 473

C318 473 321 474 325 475

C330 477 331 478 331 480

C333 486 339 491 346 491

C349 491 350 492 353 496

C354 498 358 502 361 504

C366 507 366 507 364 510

C360 516 361 525 366 531

C368 533 369 535 369 536

C369 539 366 543 363 544

C362 544 360 545 359 545

C357 546 354 546 349 546

Z

M136 544

C135 543 134 542 134 540

C134 535 137 532 144 531

L147 530

L147 535

C146 543 141 547 136 544

Z

M163 542

C161 540 161 539 161 534

L161 528

L166 530

C173 534 175 539 171 542

C169 545 165 544 163 542

Z

M20 540

C17 535 17 532 18 529

C20 524 26 524 28 529

C29 533 28 536 24 541

L22 543

L20 540

Z

M258 537

C255 531 255 528 258 525

C261 523 261 523 264 524

C267 525 269 529 267 532

C267 535 262 541 261 541

C261 541 259 539 258 537

Z

M555 536

C554 535 549 535 544 534

C539 534 535 534 535 533

C535 533 538 529 542 523

C547 518 550 513 551 512

C552 510 552 510 555 512

C558 514 559 518 559 530

C559 537 559 537 555 536

Z

M518 534

C517 533 514 532 511 531

C509 531 507 531 507 530

C507 530 508 527 510 523

C512 517 513 516 515 515

C522 514 525 504 521 499

C519 496 519 496 521 486

L524 476

L532 474

L541 472

L546 475

C548 476 551 477 551 478

C551 478 550 480 549 483

C547 486 546 489 546 495

L546 503

L540 513

C536 518 530 525 527 528

C521 535 520 535 518 534

Z

M495 531

C493 529 486 526 482 526

L478 526

L481 522

C484 519 485 518 485 512

C485 507 484 505 482 502

C480 499 480 499 482 491

C483 486 484 484 485 483

C488 482 513 477 514 477

C514 477 513 481 512 485

C511 493 510 493 507 494

C499 496 495 506 501 512

L503 514

L500 524

C498 529 497 533 497 533

C496 533 496 532 495 531

Z

M568 530

C567 528 567 524 567 520

L567 513

L571 511

C575 508 580 503 580 501

C580 499 581 500 586 506

L591 511

L590 519

L590 527

L585 526

C579 526 576 526 572 529

L568 532

L568 530

Z

M203 529

C198 528 194 527 194 526

C194 526 195 525 196 524

C200 522 203 515 203 509

C203 505 203 504 206 503

C208 502 209 502 213 504

C223 508 231 504 236 495

L238 490

L251 486

C258 484 265 482 265 483

C265 483 264 488 262 494

L259 505

L255 505

C247 507 239 516 239 523

C239 526 239 526 237 525

C234 524 225 524 222 524

C220 525 216 526 215 528

C213 530 211 531 211 531

C211 531 207 530 203 529

Z

M132 520

C127 517 131 509 137 511

C140 511 146 517 146 520

C146 522 136 523 132 520

Z

M167 521

C165 520 164 520 164 519

C164 519 165 517 167 515

C171 510 176 509 179 512

C182 514 181 517 178 520

C176 522 173 522 167 521

Z

M408 520

C405 518 403 514 401 510

L401 507

L405 507

C414 508 419 514 414 519

C412 521 411 521 408 520

Z

M381 517

C379 515 379 514 380 510

C381 509 383 507 386 505

L392 503

L392 507

C392 511 391 515 389 517

C386 520 384 520 381 517

Z

M0 514

C0 512 1 511 2 511

C2 511 3 512 3 512

C3 513 2 514 2 515

C0 516 0 516 0 514

Z

M279 511

C277 509 274 507 272 506

C270 506 269 506 269 505

C268 505 270 500 271 495

C274 486 275 485 278 484

C280 483 283 481 284 479

C287 476 288 476 297 474

C302 473 307 472 307 473

C308 474 286 515 284 515

C284 515 282 513 279 511

Z

M154 509

C152 504 152 502 153 499

C155 495 158 494 161 496

C163 498 163 499 163 503

C163 506 157 513 156 513

C156 513 155 511 154 509

Z

M26 505

C29 497 27 490 20 483

L15 478

L18 477

C19 477 21 477 22 476

C22 476 27 478 33 481

C38 484 44 486 45 487

C47 488 48 488 48 492

L48 497

L38 502

C28 507 25 508 26 505

Z

M97 502

C81 497 80 496 80 493

C81 489 79 483 75 480

L72 477

L74 472

C76 467 77 467 79 468

C83 469 91 468 95 467

C96 466 99 464 100 462

L103 460

L106 463

C115 471 128 471 135 462

C137 460 137 460 147 461

L156 461

L156 464

C155 465 155 469 154 473

C154 478 153 479 151 481

C147 483 142 488 141 493

C140 497 140 497 138 497

C127 493 117 495 110 501

L106 506

L97 502

Z

M411 499

C407 498 408 497 413 491

C418 486 425 487 425 494

C425 498 418 501 411 499

Z

M194 495

C192 494 189 494 184 494

L176 495

L174 489

C171 485 167 480 164 480

C163 480 163 478 163 474

C165 462 165 462 176 459

C181 458 193 454 201 451

C210 448 217 446 217 446

C218 446 218 464 217 468

C217 470 216 471 213 472

C208 475 205 481 205 488

C205 493 204 494 202 495

C198 497 197 497 194 495

Z

M375 496

C370 494 369 488 374 485

C376 484 376 484 379 485

C383 487 389 494 387 494

C387 495 385 495 384 495

C382 496 380 496 379 496

C378 497 377 496 375 496

Z

M1 493

C0 493 -1 479 1 479

C2 479 7 482 8 484

C12 490 8 496 1 493

Z

M589 489

C588 487 588 478 589 478

C591 478 591 480 591 486

C591 491 590 491 589 489

Z

M563 488

C560 486 561 484 563 481

C565 479 572 475 575 475

C575 475 575 477 575 480

C574 489 567 493 563 488

Z

M397 486

C394 478 395 472 401 472

C405 472 406 474 406 478

C406 481 405 483 403 485

C399 490 398 490 397 486

Z

M448 480

C445 477 438 474 432 473

C427 473 427 472 426 469

C425 467 424 465 424 464

C423 464 424 462 426 460

C429 455 435 444 436 439

C437 435 438 434 440 432

C442 432 445 429 447 425

L451 420

L458 420

C462 420 469 420 473 419

L481 419

L481 423

C481 425 481 427 481 427

C481 428 483 427 487 425

C490 424 492 423 492 423

C492 424 491 426 489 429

C487 435 487 435 489 435

C494 432 494 432 492 439

C489 446 489 446 493 444

C495 442 495 443 493 448

C492 452 489 465 489 469

L489 473

L481 474

C477 475 468 477 461 479

C451 481 449 481 448 480

Z

M234 478

C234 476 232 474 230 473

L227 471

L227 455

L227 439

L238 430

C244 425 251 420 253 419

L258 416

L261 418

C265 420 266 420 272 420

C278 419 278 419 279 422

C279 426 286 433 290 435

C296 437 307 436 311 432

C314 428 314 430 314 437

C312 451 311 461 310 462

C309 462 304 464 298 465

L287 467

L283 463

C279 460 278 460 274 460

C269 460 268 460 264 464

C262 466 260 468 259 471

C258 474 258 475 248 478

C243 479 238 481 237 481

C237 481 235 480 234 478

Z

M49 479

L47 478

L49 476

C51 475 53 473 53 472

C56 466 51 461 42 459

C37 458 37 457 35 454

C33 446 26 442 17 442

L11 442

L11 439

C11 437 11 435 11 433

C10 432 11 431 12 430

C16 428 18 423 17 420

C17 418 17 417 18 416

C19 416 26 417 35 419

C51 422 51 422 55 428

C56 430 60 432 63 434

C66 435 69 436 69 437

C69 437 68 438 67 441

C65 445 66 455 68 458

C70 461 70 461 67 467

C65 470 63 473 63 474

C62 475 61 476 60 476

C59 476 57 477 55 478

C53 479 52 480 52 480

C52 480 50 479 49 479

Z

M353 472

C350 469 344 467 339 469

C336 469 334 469 328 467

L320 464

L320 458

C321 455 322 449 322 445

C323 440 323 434 323 432

L323 427

L328 427

C331 427 335 426 337 425

C341 424 341 424 342 425

C343 426 347 431 352 437

C357 442 365 451 371 456

C380 465 380 466 381 469

L381 474

L372 474

C367 474 361 474 360 474

C357 475 356 474 353 472

Z

M6 469

L2 468

L4 465

C9 459 16 457 19 462

C21 465 19 469 15 470

C12 471 11 471 6 469

Z

M512 460

C512 456 512 447 512 440

C512 427 513 420 518 411

L520 406

L530 426

L541 445

L538 448

C536 451 534 457 535 461

C536 463 536 464 536 464

C536 464 531 465 525 466

C519 467 514 468 514 468

C513 468 513 465 512 460

Z

M559 464

C556 461 556 458 559 455

C563 453 567 455 571 461

C574 466 573 467 566 467

C563 467 561 466 559 464

Z

M581 459

C578 452 580 445 586 445

C593 445 593 455 585 461

C583 462 583 462 581 459

Z

M372 444

C359 431 348 419 348 417

C348 417 349 415 350 412

C350 410 351 407 351 405

C350 404 350 403 351 403

C351 403 355 405 360 408

C364 411 371 415 375 416

C381 419 382 420 382 423

C384 428 389 432 394 432

C397 432 400 431 401 431

C403 429 405 430 413 432

C417 433 423 434 425 434

C428 434 428 434 428 436

C427 440 420 452 418 455

C416 457 416 457 411 456

C404 453 397 454 391 456

C388 457 385 458 385 458

C385 458 379 452 372 444

Z

M148 452

C144 452 141 451 141 451

C141 451 140 448 139 446

C138 444 137 440 135 438

L133 435

L139 429

C144 424 151 419 152 419

C153 419 154 421 155 423

C157 426 157 426 162 426

L166 425

L166 428

C165 431 165 431 170 431

C176 431 175 433 168 444

C161 454 161 453 148 452

Z

M82 450

C79 447 79 445 82 442

C84 439 91 435 92 437

C92 437 93 439 93 442

C93 450 87 455 82 450

Z

M111 450

C108 449 106 445 105 440

L105 436

L108 436

C115 437 121 443 118 447

C117 450 114 451 111 450

Z

M175 449

C175 448 188 431 188 431

C189 432 194 433 199 435

C204 437 208 439 208 439

C208 440 178 450 176 450

C175 450 175 450 175 449

Z

M554 441

L549 441

L538 421

C533 410 528 401 528 400

C528 399 547 401 551 402

C552 403 556 404 559 404

C566 404 571 401 573 396

C574 392 588 376 590 376

C591 376 591 385 591 396

C591 413 591 416 590 416

C589 416 586 418 583 421

C581 423 578 425 577 425

C570 425 561 433 561 439

C561 441 561 442 560 442

C559 442 556 441 554 441

Z

M207 428

C199 426 193 424 193 424

C193 423 194 421 196 418

C198 416 199 412 200 411

C200 407 199 397 196 389

C195 386 194 383 194 383

C194 382 197 382 200 382

C206 382 217 380 221 377

C223 377 228 371 232 366

C241 355 246 352 253 352

C256 352 259 353 264 356

C270 360 271 361 269 362

C267 364 267 369 269 373

C269 375 270 376 270 376

C270 377 268 377 266 377

C255 379 248 393 251 406

C252 408 252 409 247 412

C244 414 237 420 231 424

C225 429 220 433 220 433

C220 433 214 431 207 428

Z

M72 427

C68 424 70 417 75 417

C78 417 81 419 84 424

C86 427 86 427 85 428

C83 430 75 429 72 427

Z

M111 427

C107 425 107 424 112 419

C114 417 116 416 118 416

C124 416 126 422 121 426

C118 428 116 428 111 427

Z

M421 425

C410 422 407 421 407 418

C407 414 404 410 400 409

C395 407 393 407 388 409

L384 411

L371 404

C364 400 358 397 358 396

C358 395 362 392 370 386

C371 385 375 386 380 388

C384 390 392 392 396 393

C402 395 406 397 408 399

C410 400 412 402 414 402

C417 403 425 402 426 400

C426 399 442 399 443 400

C443 400 443 404 442 409

C440 417 440 418 436 422

C433 424 431 426 430 426

C429 426 425 425 421 425

Z

M293 419

C290 416 291 412 294 407

C296 405 297 403 297 403

C298 403 299 405 300 407

C305 415 299 425 293 419

Z

M93 416

C91 411 91 409 92 406

C94 401 101 401 102 407

C103 410 101 415 97 418

L95 420

L93 416

Z

M0 396

L0 376

L4 374

C5 373 8 370 9 369

C10 367 11 366 12 366

C13 366 20 368 27 370

C35 371 41 373 41 373

C41 374 12 410 10 412

C9 413 7 414 4 414

L0 415

L0 396

Z

M140 411

C136 407 130 405 122 405

L115 405

L116 402

C116 398 115 395 112 391

L109 387

L116 369

C119 359 122 351 123 351

C123 351 124 352 125 353

C127 355 129 355 131 355

L135 354

L135 358

C135 362 135 362 138 362

C140 362 140 362 141 368

C142 372 143 374 143 374

C148 372 149 372 149 374

C149 375 149 379 148 381

L147 386

L150 385

L153 385

L153 391

L152 397

L155 396

C158 396 158 396 158 399

C158 402 157 403 153 407

C143 414 143 414 140 411

Z

M37 411

C31 409 26 408 26 408

C25 407 46 381 49 378

C51 376 51 376 58 380

C62 383 67 387 70 390

C74 394 75 395 75 397

C75 400 74 401 68 401

C61 402 55 405 53 410

C51 414 51 414 37 411

Z

M461 410

C458 407 458 405 462 402

C464 400 464 400 467 401

C470 403 471 408 468 410

C465 413 464 412 461 410

Z

M315 407

C314 407 312 405 311 403

C308 400 308 399 310 398

C313 396 319 396 322 397

C324 399 325 400 325 402

C325 407 321 409 315 407

Z

M483 405

C482 404 482 402 482 400

C482 398 483 396 482 396

C482 396 481 396 479 397

C475 399 473 397 473 391

C473 389 473 387 473 387

C472 387 471 388 469 388

C463 391 462 389 462 381

C462 373 463 371 467 371

C468 371 469 373 469 376

C469 378 469 380 470 380

C470 380 471 379 473 378

C478 376 480 377 480 383

C480 388 480 389 485 387

C488 386 490 387 490 393

L490 397

L494 397

C498 397 499 397 499 399

C501 403 499 404 489 406

C485 406 484 406 483 405

Z

M271 401

C267 399 269 393 274 391

C277 391 287 395 287 396

C287 397 278 403 276 403

C274 403 272 402 271 401

Z

M342 391

C339 389 337 388 337 388

C333 388 333 386 335 383

C339 376 337 364 331 359

C328 357 328 357 328 344

C328 325 329 324 345 331

C350 333 350 333 350 336

C350 338 351 341 352 343

C353 346 358 350 361 350

C363 350 363 351 363 365

L363 380

L355 386

C351 390 347 393 346 393

C346 394 344 393 342 391

Z

M532 391

C529 391 529 390 529 385

C529 381 528 378 526 376

C523 373 523 372 524 364

C524 359 524 355 523 353

C522 349 522 349 527 343

C530 340 533 337 534 336

C534 334 537 334 553 332

L571 331

L575 333

C580 336 580 336 581 344

C582 348 583 352 583 353

C584 353 582 355 580 357

C576 362 575 367 577 371

C579 374 579 374 575 379

L571 383

L568 381

C564 378 557 377 552 380

C547 382 546 384 544 390

C543 392 539 392 532 391

Z

M431 390

C430 390 429 388 428 387

C425 380 414 378 408 383

C407 385 405 386 404 386

C401 386 383 380 383 379

C383 379 386 376 390 374

C399 367 408 358 412 351

C415 345 415 345 421 345

C424 344 429 344 431 343

C434 343 435 343 435 345

C435 347 437 348 441 349

C445 350 446 351 445 353

C444 355 445 355 446 356

C449 358 449 358 448 360

C447 362 447 362 453 363

C456 363 458 363 458 364

C458 364 456 366 455 368

C451 372 450 374 453 375

C453 375 455 375 456 375

C458 376 448 390 445 390

C441 391 433 391 431 390

Z

M305 388

C305 383 308 378 311 377

C316 374 321 379 318 385

C317 387 314 388 308 390

C305 390 305 390 305 388

Z

M75 382

C72 380 67 376 63 374

C60 371 57 369 57 369

C57 367 83 337 84 338

C85 338 90 339 95 341

C99 343 106 345 109 346

C112 346 114 347 114 347

C114 348 111 356 107 366

L101 383

L96 383

C94 383 90 384 88 385

C85 385 83 386 82 387

C81 387 78 385 75 382

Z

M290 382

C286 378 285 373 288 371

C291 367 297 371 297 377

C297 382 296 386 295 386

C295 386 292 384 290 382

Z

M189 373

C186 372 189 354 193 352

C194 351 195 351 197 353

C199 355 199 355 197 361

C196 364 195 368 195 369

C195 373 193 375 189 373

Z

M373 362

C373 352 373 349 374 349

C376 349 380 345 382 341

C383 338 383 335 381 331

C380 328 380 328 382 326

C383 324 384 323 384 323

C384 323 386 325 387 327

C390 330 402 340 405 341

C407 342 404 348 397 355

C391 361 385 367 376 372

L373 374

L373 362

Z

M502 365

C495 362 485 354 485 352

C485 350 487 348 489 348

C490 348 492 350 495 352

C498 354 503 357 505 358

C511 361 512 363 509 365

C507 367 507 367 502 365

Z

M24 360

C14 358 10 356 8 355

C6 353 4 352 3 352

C1 352 0 348 0 340

C0 336 1 333 2 332

C2 330 3 328 3 326

L3 322

L19 315

C28 311 36 308 36 309

C36 309 36 313 35 317

C34 324 33 326 31 329

C26 334 26 339 31 343

C34 346 35 348 36 353

C37 357 38 360 39 361

C39 363 39 363 24 360

Z

M47 359

C43 344 43 345 45 342

C48 339 48 333 44 329

L42 327

L44 315

C45 309 46 304 46 304

C46 303 50 302 63 296

C65 295 66 295 68 297

L71 300

L69 306

C64 316 65 320 73 328

L76 332

L63 347

C56 356 49 363 49 363

C48 363 48 361 47 359

Z

M300 356

C296 353 289 352 282 354

C277 355 276 355 275 353

C273 352 269 349 265 347

C261 344 258 342 258 341

C258 341 261 339 264 337

L270 333

L274 336

C282 341 293 339 298 330

L299 327

L310 327

C319 327 320 327 320 329

C319 329 319 336 319 343

L319 355

L316 355

C315 355 312 356 310 357

C305 359 304 359 300 356

Z

M225 343

C222 341 223 338 225 336

C227 334 229 334 232 336

C236 338 234 345 229 345

C227 345 225 344 225 343

Z

M590 339

C589 337 589 335 589 334

C591 333 591 335 591 339

L590 343

L590 339

Z

M110 339

C103 336 96 332 86 325

C79 320 78 319 78 316

C79 312 82 312 90 318

C98 325 109 331 115 333

C120 334 122 336 120 339

C119 341 116 341 110 339

Z

M507 336

C506 335 502 332 499 331

C493 327 491 326 493 323

C494 320 496 320 503 324

C510 327 514 331 514 335

C513 340 510 340 507 336

Z

M420 336

C411 335 401 331 399 329

C397 328 397 327 398 325

C399 323 400 322 407 325

C411 326 417 328 422 328

C430 329 432 329 440 328

C448 326 449 326 451 327

C452 328 452 330 452 331

C450 335 433 338 420 336

Z

M171 335

C164 334 163 333 163 330

C163 328 164 327 178 327

C192 327 195 328 195 331

C195 335 184 337 171 335

Z

M250 330

C247 327 241 325 233 324

C223 323 218 323 212 326

C206 329 205 328 206 320

C207 312 210 303 212 302

C212 301 220 301 232 301

C250 301 252 301 253 303

C253 304 256 309 260 314

C263 319 266 324 266 325

C266 326 255 332 253 332

C252 332 251 331 250 330

Z

M115 327

C107 324 97 317 88 309

C84 304 83 303 83 301

C84 296 86 296 93 303

C102 311 110 316 119 321

C123 323 126 325 127 326

C127 327 124 331 123 331

C123 331 119 329 115 327

Z

M530 311

C530 294 530 289 525 278

C524 275 523 271 524 271

C524 271 530 270 537 270

L549 269

L555 281

C558 287 563 296 565 300

L569 308

L567 311

C565 313 565 314 565 318

L565 324

L553 325

C546 325 538 326 535 326

L529 327

L530 311

Z

M352 324

C350 323 345 321 342 320

C338 319 335 318 334 318

C333 317 342 290 343 291

C344 291 379 312 380 313

C380 313 378 315 376 318

C372 324 372 324 368 323

C365 323 362 323 360 324

C357 325 356 326 356 326

C356 326 354 325 352 324

Z

M426 321

C416 320 402 315 401 313

C400 312 401 308 402 308

C403 307 407 308 411 310

C425 314 440 316 447 314

C450 313 451 313 453 314

C455 317 453 320 448 321

C442 323 435 323 426 321

Z

M131 316

C123 310 115 304 104 298

L95 293

L98 291

L101 288

L106 289

C116 292 123 291 129 285

L132 281

L148 285

C161 288 165 290 166 291

C168 294 167 295 162 295

C158 295 157 297 160 300

C163 302 163 303 159 303

C158 303 156 303 154 304

L152 304

L154 308

C155 310 156 312 156 313

C156 313 154 313 151 313

L145 312

L147 316

C148 318 149 319 149 320

C148 320 145 320 142 321

L136 321

L131 316

Z

M294 316

C289 311 280 310 274 314

L271 316

L267 309

C264 305 262 301 262 300

C262 299 264 299 266 299

C269 299 275 298 280 298

C289 296 290 296 292 298

C296 301 303 302 307 301

C311 301 318 297 318 294

C319 292 320 291 327 290

C331 290 332 290 332 291

C332 292 330 298 328 305

L324 318

L310 318

C297 318 296 318 294 316

Z

M470 312

C466 308 465 306 463 300

C461 295 460 290 460 288

C459 285 459 285 462 285

C466 285 473 281 475 278

C478 275 478 267 477 262

C476 260 476 259 479 257

C484 254 487 248 488 242

L488 237

L495 236

C504 235 504 235 504 245

C504 251 504 252 502 252

C500 252 500 252 501 261

C502 265 503 268 502 268

C502 269 501 269 499 268

C497 268 496 268 496 268

C496 269 497 271 499 274

C500 277 501 279 501 279

C501 280 498 280 495 280

C492 280 489 280 489 281

C489 281 490 284 491 287

C491 290 492 293 492 293

C492 293 490 293 488 293

C483 293 484 292 486 301

C486 303 486 303 483 303

C479 303 479 303 480 305

C480 306 481 309 482 311

C483 313 484 315 484 315

C484 316 481 316 479 316

C475 317 474 316 470 312

Z

M0 299

L0 284

L3 287

C6 291 10 293 15 293

C19 293 27 297 27 299

C27 299 28 300 28 300

C29 301 29 301 29 301

C29 302 14 308 3 313

L0 314

L0 299

Z

M588 312

C587 311 584 310 583 309

C581 308 578 303 571 291

C562 277 554 261 554 260

C554 259 562 264 573 270

L591 281

L591 298

C591 307 591 314 590 314

C590 314 589 313 588 312

Z

M367 294

C356 288 346 282 346 281

C345 281 347 275 348 269

C350 263 352 256 353 253

C354 250 354 249 356 249

C357 250 360 250 363 249

C367 248 369 247 373 244

C375 241 377 238 377 236

C378 233 379 233 380 233

C382 234 386 235 390 236

C396 237 397 238 398 240

C398 242 400 245 402 247

C404 250 405 251 404 252

C402 253 399 260 399 265

C399 271 402 277 406 281

C410 284 410 284 410 289

C410 294 410 295 408 295

C407 295 405 296 405 297

C403 298 401 299 399 299

C396 299 395 300 392 303

C390 305 388 307 388 307

C388 307 378 301 367 294

Z

M427 304

C419 302 419 302 419 294

L419 287

L424 287

C429 286 435 283 438 279

L441 276

L445 280

C448 283 449 285 452 294

C453 300 455 305 454 305

C454 307 433 306 427 304

Z

M49 286

C56 274 56 275 57 275

C59 276 59 277 59 280

C59 283 59 286 60 286

C60 287 59 289 55 290

C44 295 44 295 49 286

Z

M216 290

L213 287

L224 274

C240 256 238 257 243 263

C248 268 256 272 262 272

C266 272 267 272 274 280

C280 285 282 288 281 288

C277 290 247 292 234 292

C219 292 218 292 216 290

Z

M28 288

C27 287 26 286 26 284

C26 274 15 267 6 270

C3 271 1 272 1 271

C0 271 0 264 0 255

L0 239

L4 236

C6 233 7 231 7 230

C7 228 9 225 12 222

C14 219 17 217 17 217

C17 217 18 219 19 221

C20 225 20 225 23 224

C24 223 25 222 25 222

C26 222 26 224 26 227

C26 231 26 231 30 231

C33 231 33 231 32 236

C31 239 31 239 34 240

C39 241 39 241 37 246

C35 250 36 251 39 252

C41 253 41 264 40 272

C39 280 35 289 32 290

C31 290 29 289 28 288

Z

M75 281

C73 280 72 276 74 273

C75 271 82 267 84 267

C85 267 85 269 85 272

C85 277 85 278 82 280

C79 283 78 284 75 281

Z

M317 282

C315 277 297 275 293 280

C291 281 290 282 289 282

C289 282 286 279 282 276

L276 269

L277 266

C278 264 279 261 279 260

C279 258 281 257 292 252

C305 247 306 246 308 248

C316 252 329 247 335 238

L337 235

L338 238

C339 239 341 242 342 243

C344 244 345 246 345 247

C345 249 337 279 336 280

C335 280 320 283 318 283

C318 283 317 282 317 282

Z

M203 278

C201 276 199 267 199 258

L199 253

L204 251

C207 250 210 247 212 245

L216 241

L219 244

C221 246 224 249 227 250

L232 252

L227 257

C225 260 219 267 215 272

C210 277 206 281 206 281

C206 281 204 280 203 278

Z

M100 278

C98 277 96 273 96 271

C94 266 94 266 96 266

C106 266 113 274 107 278

C105 281 103 280 100 278

Z

M150 277

C143 275 136 273 135 273

C133 272 132 271 132 271

C132 270 131 268 129 266

L127 263

L131 258

C133 256 135 253 135 251

C137 248 136 241 134 237

L133 234

L137 229

C142 224 166 203 169 202

C170 201 171 202 174 205

C176 208 180 210 182 211

L186 213

L183 217

C175 225 175 238 183 246

C185 248 186 250 186 253

C186 257 185 257 181 255

C179 255 179 255 179 260

C180 266 180 266 178 266

C172 264 172 263 173 269

L173 275

L169 274

L164 274

L164 277

C165 281 166 281 150 277

Z

M574 261

C565 255 557 250 557 250

C557 250 561 247 567 244

C576 238 576 238 580 239

C583 239 586 239 588 239

L591 239

L591 255

C591 264 591 271 591 271

C591 271 583 266 574 261

Z

M423 268

C418 265 422 258 431 255

L434 254

L434 260

C433 264 433 266 430 268

C427 270 426 271 423 268

Z

M452 269

C448 267 444 255 448 256

C448 257 451 257 453 257

C459 257 464 265 459 268

C456 270 455 270 452 269

Z

M66 262

C63 260 63 255 66 253

C70 251 73 252 77 256

L82 260

L77 262

C72 264 69 265 66 262

Z

M519 254

C518 250 518 243 517 238

C517 233 517 229 517 229

C518 228 531 231 538 235

L545 238

L544 246

C544 250 544 255 544 257

C544 260 544 260 528 262

L519 262

L519 254

Z

M101 258

C97 258 97 256 98 253

C102 249 104 247 107 247

C113 247 115 252 111 256

C108 259 107 259 101 258

Z

M85 250

C81 245 80 242 82 238

C84 237 85 236 87 236

C92 236 94 242 91 248

C90 251 89 253 88 253

C88 253 86 251 85 250

Z

M270 246

C268 244 264 241 261 240

L255 239

L256 233

C256 228 256 225 255 222

C253 218 253 218 255 217

C260 216 262 215 265 212

C267 210 269 207 269 205

C271 201 271 201 277 201

C288 199 290 200 292 203

C295 207 297 209 302 212

L306 214

L304 217

C300 221 298 227 298 233

L299 239

L288 244

C281 247 276 249 275 249

C274 249 272 247 270 246

Z

M451 246

C449 246 449 245 451 241

C455 236 461 233 464 236

C466 238 465 244 463 245

C461 247 455 247 451 246

Z

M418 244

C415 241 415 237 418 235

C421 232 425 233 430 238

C434 243 433 244 425 245

C422 245 420 245 418 244

Z

M60 240

C59 235 60 235 64 238

C67 241 67 244 63 244

C60 244 60 244 60 240

Z

M555 238

C555 236 562 195 563 193

C563 191 572 188 573 189

C573 189 573 191 572 193

C571 196 570 198 571 198

C571 198 573 197 575 196

C580 193 580 193 580 197

C580 201 580 201 587 198

L591 196

L591 207

L591 218

L587 217

C579 216 573 221 572 228

C572 229 568 232 564 235

C556 240 555 241 555 238

Z

M439 236

C436 231 436 229 437 225

C438 223 439 222 442 222

C445 222 447 224 447 228

C447 232 444 239 442 239

C441 239 440 238 439 236

Z

M99 229

C98 228 96 225 94 224

L91 221

L94 218

C95 215 97 214 99 214

C102 214 107 210 109 206

C110 202 110 202 108 198

L106 194

L109 190

C111 188 114 185 117 183

L121 179

L130 181

C143 184 165 191 165 192

C165 192 161 196 156 201

C151 205 142 213 135 219

L124 229

L118 229

C113 229 110 229 107 231

C104 232 101 233 101 233

C101 233 100 231 99 229

Z

M318 229

C314 225 317 219 325 217

C327 216 329 216 329 216

C330 216 329 219 329 221

C328 229 322 233 318 229

Z

M343 229

C341 227 341 225 341 221

C341 218 341 215 341 215

C342 215 344 216 346 217

C353 220 355 226 351 229

C348 232 346 231 343 229

Z

M64 227

L61 226

L62 216

C62 201 62 201 51 197

C46 195 42 193 41 193

C41 192 42 192 44 191

C49 190 52 187 53 182

C55 177 56 176 77 165

L86 161

L95 165

C99 167 105 170 108 172

L112 174

L105 182

C101 186 98 189 98 190

C98 190 96 191 95 192

C93 193 90 194 89 196

C87 198 87 199 87 204

C88 210 88 211 84 216

C82 219 79 221 76 222

C74 223 71 225 70 227

C67 229 67 229 64 227

Z

M541 226

C538 225 532 223 527 222

C518 219 518 219 517 216

C516 212 513 206 511 204

C511 203 510 202 510 202

C510 202 515 201 520 201

C529 200 545 198 551 197

C552 197 553 197 553 198

C553 200 547 229 547 229

C547 229 544 228 541 226

Z

M386 226

C379 224 378 223 376 220

C375 218 373 216 373 216

C371 216 373 214 376 214

C384 212 391 204 391 197

C391 196 397 189 406 181

C418 170 423 165 431 161

L441 155

L441 166

C441 176 441 177 439 179

C434 183 433 189 434 196

C435 198 435 199 432 199

C426 201 421 207 421 214

C421 217 421 217 415 217

C409 218 402 222 400 225

C398 229 397 229 386 226

Z

M479 225

C476 224 473 223 471 223

L467 224

L467 219

C467 214 464 207 459 204

L455 202

L457 198

C461 191 459 182 453 178

L450 176

L450 163

L450 149

L456 145

L462 141

L466 146

C469 148 472 150 474 151

C479 152 483 159 483 167

C483 171 483 173 484 175

C486 177 486 177 485 181

C482 188 483 194 487 199

C489 201 489 201 487 205

C484 210 484 217 487 222

C489 225 489 227 489 227

C488 227 487 227 486 227

C484 228 481 227 479 225

Z

M225 226

C223 225 221 220 222 215

L222 210

L226 212

C233 216 235 222 231 225

C228 227 227 227 225 226

Z

M201 220

C198 218 199 214 201 211

C203 209 214 208 214 210

C214 212 211 218 208 220

C205 222 203 223 201 220

Z

M1 218

C0 218 0 213 0 208

C0 202 0 199 1 200

C2 201 2 201 5 199

C7 198 9 197 9 197

C9 197 10 200 10 203

C11 209 11 209 7 214

C3 219 2 220 1 218

Z

M314 209

C312 208 311 207 311 205

C311 201 313 199 317 199

C319 199 321 200 323 202

C328 208 329 209 324 210

C319 211 317 211 314 209

Z

M344 208

L340 206

L343 203

C347 199 350 198 354 198

C359 200 359 207 354 209

C351 210 348 210 344 208

Z

M232 206

C230 205 228 204 228 203

C228 203 230 201 232 199

C239 195 245 196 245 202

C245 208 239 210 232 206

Z

M203 201

C197 200 194 193 198 189

C201 188 201 188 204 189

C207 191 211 198 211 201

C211 202 208 202 203 201

Z

M331 198

C330 192 330 187 333 186

C335 185 339 185 340 186

C342 188 341 194 338 198

C337 200 335 202 334 202

C334 202 332 200 331 198

Z

M220 193

C218 185 220 179 225 179

C233 179 232 189 224 194

C220 195 220 195 220 193

Z

M267 188

C263 183 257 180 250 180

C245 180 245 180 246 178

C246 177 247 174 247 173

C248 171 250 170 254 167

C260 164 260 164 264 166

C272 169 283 163 283 155

C283 153 284 152 298 145

C306 141 313 138 313 139

C313 139 314 142 315 144

C316 147 317 149 318 149

C318 149 319 148 321 147

C324 146 324 145 326 156

C327 163 327 164 323 166

C318 168 314 173 314 177

C314 180 313 180 307 180

C299 181 294 183 291 188

C291 190 289 191 288 191

C287 191 282 191 278 192

L270 193

L267 188

Z

M497 190

C497 189 496 188 496 187

C496 184 498 183 511 183

C525 182 535 180 544 178

C552 176 554 177 554 181

C554 183 552 184 548 185

C535 189 500 192 497 190

Z

M384 184

C380 181 372 179 365 179

C360 180 360 180 360 178

C360 176 362 174 368 170

C373 167 379 163 382 160

L388 155

L398 156

C409 157 414 158 414 159

C415 160 389 186 387 186

C387 186 385 185 384 184

Z

M157 180

L145 176

L144 169

C143 162 143 161 146 161

C151 161 159 150 159 142

C159 137 154 128 149 125

C145 123 137 124 134 126

C131 128 130 128 124 125

C119 122 118 121 117 119

C117 117 116 115 117 115

C117 115 118 115 120 116

C122 117 123 117 124 117

C124 117 123 114 123 111

C122 105 122 104 125 107

C128 109 128 108 127 103

C126 101 125 100 125 99

C125 99 127 99 130 99

C135 99 136 98 134 92

C133 91 133 90 133 89

C134 89 136 90 138 91

C140 92 142 93 142 92

C142 92 141 90 140 88

C138 83 138 83 139 84

C140 84 142 84 144 83

C147 82 148 82 153 87

C158 92 174 112 175 114

C175 114 173 115 171 115

C164 117 157 127 158 134

C160 143 167 148 178 148

L185 149

L194 156

C202 163 203 164 202 166

C201 168 201 171 201 172

C201 175 201 175 199 174

C196 173 187 173 183 174

C180 175 177 177 174 180

C172 182 170 184 170 184

C170 184 164 182 157 180

Z

M127 171

C123 170 118 168 117 167

C115 166 110 163 106 160

L98 156

L97 149

C97 145 97 142 97 142

C98 142 100 143 102 145

L106 147

L106 144

C106 140 107 139 110 139

C112 140 112 139 111 136

C110 135 109 133 109 133

C109 131 119 132 122 134

C125 135 125 135 124 140

C124 147 126 154 131 158

C133 159 134 161 135 166

C136 174 137 174 127 171

Z

M499 172

C496 170 495 168 497 166

C497 166 506 165 523 165

C547 164 549 164 550 166

C552 169 549 171 541 172

C528 173 502 173 499 172

Z

M25 170

C21 169 14 161 12 158

C10 155 10 154 11 153

C12 152 13 151 14 151

C15 151 30 165 30 167

C30 169 27 171 25 170

Z

M45 170

C44 169 43 169 43 169

C43 168 45 165 48 160

C51 156 54 151 55 151

C55 149 56 149 64 152

C69 154 73 156 73 156

C74 156 49 171 48 171

C48 171 46 170 45 170

Z

M351 166

C349 165 345 164 342 163

L337 162

L335 154

C332 142 332 142 339 137

L344 132

L347 134

C354 139 365 146 371 149

C376 152 377 153 376 154

C374 156 366 161 360 165

L355 168

L351 166

Z

M240 157

C238 155 235 153 233 152

C229 152 229 149 233 149

C235 149 237 148 240 145

C243 142 243 142 243 137

C242 133 242 133 251 122

C256 116 261 109 263 108

L265 105

L273 107

C278 108 286 110 293 110

C299 111 305 112 307 113

L310 113

L310 121

L310 129

L293 137

C278 145 276 146 274 145

C266 143 258 147 256 153

C255 156 254 157 250 159

C248 160 246 161 245 161

C245 161 243 159 240 157

Z

M488 153

C487 151 486 149 486 149

C486 148 487 146 489 144

C491 142 492 137 493 135

L494 129

L498 130

C500 131 503 131 507 130

L512 129

L528 142

L545 156

L539 156

C536 156 524 156 512 156

L491 157

L488 153

Z

M201 150

C197 146 194 143 194 142

C194 141 195 139 195 136

C196 134 197 131 196 130

C196 128 197 126 198 124

C199 123 200 120 201 119

C202 117 202 117 206 117

C216 118 220 112 216 100

C216 98 216 98 223 98

C233 98 250 100 254 101

C256 102 256 102 246 114

C236 126 236 127 232 127

C224 127 220 132 220 143

L221 151

L215 153

C212 154 209 155 209 156

C208 156 204 153 201 150

Z

M419 151

C416 150 411 149 400 148

C382 146 375 143 355 129

C347 123 346 122 347 120

C348 115 349 113 351 113

C353 113 362 116 371 120

C394 130 404 132 410 127

C413 125 414 125 421 126

C433 127 446 127 451 125

C453 125 456 124 457 124

C459 124 459 124 459 128

C459 132 459 132 452 137

C443 143 426 154 424 154

C424 154 421 153 419 151

Z

M537 138

C527 130 518 123 518 123

C518 122 519 121 519 119

C523 111 520 101 513 96

C509 94 509 94 511 92

C512 91 515 88 516 86

C520 81 520 80 530 77

C538 74 540 74 542 75

C545 77 545 77 542 79

C540 79 539 80 539 81

C539 81 542 83 545 86

L551 90

L548 92

C546 93 544 95 544 95

C544 95 546 97 548 99

C553 103 553 103 552 106

C550 108 550 108 553 110

C557 112 558 114 556 114

C555 114 553 114 551 115

L549 116

L553 118

C558 121 559 123 556 123

C553 124 553 125 557 128

C558 129 559 130 558 131

C558 131 556 132 555 132

C554 134 554 134 557 136

C561 139 562 141 560 141

C557 141 558 142 560 145

L562 147

L559 150

C558 152 557 153 556 153

C556 153 547 146 537 138

Z

M73 146

C66 143 60 141 60 141

C59 141 60 138 60 134

C62 127 62 122 61 117

C60 114 60 114 63 111

C66 108 80 101 82 101

C86 100 88 109 88 122

C88 133 86 149 85 150

C85 150 79 149 73 146

Z

M572 148

C571 146 571 146 573 144

C574 143 576 142 577 142

C580 142 586 139 588 137

C590 134 591 135 591 140

C591 144 590 145 585 147

C578 151 574 151 572 148

Z

M0 140

C0 135 1 134 3 136

C5 138 4 140 2 143

C0 144 0 144 0 140

Z

M329 129

C327 128 326 122 328 120

C330 118 335 119 337 121

C340 127 334 132 329 129

Z

M11 124

C9 122 7 120 7 119

C7 118 17 107 45 78

C56 66 66 55 67 53

C70 51 71 50 74 50

C76 50 81 49 85 49

C93 48 93 48 95 49

C95 51 96 54 96 58

C96 63 95 65 90 76

L83 89

L68 97

C54 104 52 105 45 105

C30 107 26 109 20 121

C18 125 16 128 16 128

C15 128 13 126 11 124

Z

M36 126

C33 123 33 121 37 118

C42 114 48 122 43 126

C41 129 38 128 36 126

Z

M472 120

C470 118 470 113 473 109

C474 107 476 105 477 105

C477 105 479 107 480 110

C482 114 482 118 480 121

C478 123 473 122 472 120

Z

M421 119

C421 119 421 117 422 115

L423 112

L419 112

C415 113 415 113 415 109

C415 106 415 106 413 106

C413 107 411 107 409 108

C407 108 407 108 409 102

C409 101 408 101 405 101

L401 101

L401 97

L401 92

L398 93

C396 94 394 94 394 94

C394 94 394 93 395 92

C396 86 397 86 391 86

C388 86 385 86 385 85

C384 85 386 83 388 82

C392 79 392 77 389 77

C387 77 386 77 385 76

C383 75 392 66 398 63

C407 59 429 57 441 59

C444 60 446 60 447 60

C447 60 446 62 445 65

C442 71 442 77 448 83

L451 86

L446 89

C437 96 434 104 436 112

L438 116

L435 117

C432 117 426 119 423 120

C422 120 421 120 421 119

Z

M183 115

C183 115 182 113 181 111

C180 106 173 97 166 89

C159 82 158 79 161 77

C166 74 190 105 189 113

C188 116 186 117 183 115

Z

M491 111

C489 109 484 103 484 100

C484 99 486 99 489 99

C494 99 495 99 497 101

C499 104 500 108 497 110

C496 112 494 112 491 111

Z

M2 106

C1 103 1 88 0 72

L0 42

L3 41

C5 40 10 36 13 32

C17 28 20 25 20 25

C21 25 24 26 27 26

L32 28

L29 32

C26 38 26 39 31 38

C39 36 45 37 53 42

C57 45 61 47 61 47

C61 47 13 99 5 107

L2 110

L2 106

Z

M452 106

C449 100 454 95 462 96

C465 96 467 97 468 97

C468 98 464 105 462 107

C458 109 454 108 452 106

Z

M197 106

C196 105 194 102 192 98

C190 95 183 87 178 82

C172 76 168 71 168 70

C168 68 171 66 173 66

C178 68 201 95 203 102

C204 106 200 109 197 106

Z

M305 103

C303 103 295 92 291 85

C288 79 288 79 290 75

C293 68 290 60 283 57

C279 56 279 55 278 48

C277 44 276 41 276 41

C276 40 283 40 292 40

L308 39

L309 42

C310 44 314 48 318 52

L325 59

L322 62

C317 71 315 77 314 87

C314 92 314 98 314 100

C313 104 312 104 310 104

C308 104 306 104 305 103

Z

M278 99

C273 98 266 96 262 94

C258 93 252 92 250 91

C241 90 241 90 239 77

L237 65

L239 62

C241 59 242 57 243 55

C243 53 243 45 242 42

C242 41 243 41 254 41

L266 41

L269 50

C271 59 271 60 269 65

C268 70 268 70 270 75

C271 79 272 80 276 82

C279 83 281 85 283 89

C284 92 287 95 288 97

L290 101

L288 101

C287 101 282 100 278 99

Z

M350 100

C348 99 349 95 353 90

C358 84 363 81 367 81

C370 82 370 86 366 89

C364 90 360 93 358 96

C355 101 352 102 350 100

Z

M588 95

C587 94 582 91 577 89

C570 85 562 79 556 70

L554 67

L560 63

C564 60 567 58 568 59

C569 59 572 60 575 60

C580 60 580 60 584 56

C587 54 588 51 588 49

C588 44 588 44 590 43

C591 43 591 49 591 70

C591 86 591 98 591 98

C590 98 589 97 588 95

Z

M202 82

C197 77 194 73 194 73

C194 73 195 72 197 72

L200 71

L194 67

C190 65 186 63 185 62

L183 60

L186 59

C190 58 191 57 187 55

C185 54 180 51 175 48

L167 42

L158 42

L149 42

L149 39

C149 35 155 32 168 28

C178 26 179 25 178 27

C178 28 178 31 178 34

C178 39 178 39 181 43

C187 48 196 48 202 43

C205 40 206 40 212 40

C219 40 219 40 218 42

C217 43 217 47 217 50

C217 57 220 64 225 66

C228 67 228 68 230 78

C231 84 232 89 232 89

C232 89 227 90 221 90

L211 90

L202 82

Z

M480 85

C481 79 483 76 487 75

C490 74 492 76 493 80

C493 84 491 87 486 88

C480 91 480 91 480 85

Z

M466 86

C462 83 461 81 461 77

C461 72 466 70 469 73

C472 75 472 76 472 80

C472 85 471 88 470 88

C470 88 468 87 466 86

Z

M337 77

C336 75 333 74 332 73

C328 72 327 70 328 67

C329 65 332 65 337 67

C346 71 348 80 340 80

C340 80 338 79 337 77

Z

M519 67

C518 65 516 61 514 58

L510 54

L513 54

C515 54 517 53 519 52

C522 51 522 51 526 53

C529 55 533 58 535 60

L540 64

L532 67

C528 69 523 70 522 70

C521 71 520 70 519 67

Z

M126 65

C122 62 120 61 112 60

L105 60

L104 56

C104 54 104 53 107 52

C110 52 119 53 124 55

C128 56 134 62 134 64

C134 68 129 69 126 65

Z

M479 56

C477 54 474 53 472 52

C469 51 467 50 467 50

C467 50 468 48 469 46

C471 42 471 41 469 35

L467 29

L469 26

C471 22 472 22 479 22

C486 22 490 21 494 16

C496 14 497 11 498 9

C498 6 499 5 503 8

C509 11 522 9 525 4

C527 2 527 2 530 4

C534 5 534 6 534 10

C534 15 534 15 527 20

C521 24 519 26 517 25

C514 24 508 24 506 25

C496 30 493 42 501 50

L504 53

L500 53

C495 53 486 57 485 59

C484 60 483 60 479 56

Z

M543 55

C539 52 535 48 532 46

C528 44 527 43 527 40

C527 38 527 36 526 34

C526 33 527 31 533 27

C543 19 543 19 543 11

C543 6 543 5 545 4

C546 4 549 3 550 2

C552 0 555 0 562 0

L571 0

L574 5

C576 9 576 9 576 21

C575 30 574 32 573 33

C565 35 561 40 561 47

C561 51 561 51 555 55

C552 58 549 60 549 60

C549 60 546 58 543 55

Z

M404 51

C402 49 402 48 403 46

C405 45 421 41 434 40

C446 38 449 39 449 43

C449 46 448 47 437 48

C429 48 410 51 407 53

C406 53 405 52 404 51

Z

M395 42

C394 41 394 39 394 38

C394 36 396 35 404 32

C427 22 446 18 448 22

C450 25 448 27 440 29

C431 30 422 33 408 38

C399 42 397 43 395 42

Z

M63 37

C60 35 61 29 64 27

C68 24 73 32 69 36

C67 38 65 39 63 37

Z

M584 24

C584 18 584 12 585 10

C585 9 584 7 583 5

C582 3 582 1 582 1

C582 0 584 1 587 1

L591 2

L591 18

L591 33

L587 34

C586 35 584 36 583 36

C583 36 583 31 584 24

Z

M358 27

L355 21

L353 25

C352 27 350 29 350 29

C350 29 349 27 348 25

C347 23 346 21 346 21

C346 21 344 22 342 23

L339 25

L339 21

L339 17

L336 18

C332 20 331 20 331 18

C332 17 332 15 332 14

L333 11

L331 12

C328 14 327 14 329 6

L330 0

L360 0

L390 1

L396 10

C399 16 401 21 400 21

C400 22 396 21 392 20

C384 19 376 19 374 20

C374 21 373 23 372 25

C372 29 370 30 370 27

C369 24 368 25 364 30

L361 34

L358 27

Z

M0 17

L0 2

L6 1

C13 0 33 0 33 1

C32 2 30 2 28 2

C22 2 15 8 14 13

C14 16 13 18 7 25

L0 33

L0 17

Z

M111 30

C110 29 107 26 105 23

C101 19 100 18 100 16

C101 12 105 12 110 18

C118 25 119 29 115 31

C113 32 113 32 111 30

Z

M248 31

L242 31

L242 24

C241 20 241 13 241 9

L240 2

L245 1

C250 1 274 0 282 1

C284 1 288 1 290 1

L294 0

L294 7

C294 12 294 15 297 21

C299 26 301 30 301 30

C301 31 260 32 248 31

Z

M206 28

C205 26 203 24 202 23

C199 20 199 20 201 19

C202 19 209 15 217 11

L231 3

L231 8

C232 11 232 17 232 22

L233 31

L220 31

L207 31

L206 28

Z

M150 23

C150 23 151 22 152 20

C155 16 154 15 149 14

C145 14 145 13 146 8

C147 6 148 5 148 5

C148 5 146 5 143 5

C139 5 139 5 139 4

C140 3 140 1 140 1

C140 0 145 0 152 0

C163 0 164 0 166 3

C167 4 172 7 176 10

C180 12 183 15 183 15

C182 15 150 24 150 23

Z

M405 10

L400 0

L429 0

C447 0 458 0 458 1

C458 2 457 2 455 3

C454 3 448 5 441 8

C429 13 414 19 411 19

C411 19 408 15 405 10

Z

M47 14

C47 12 46 9 44 7

C43 5 42 3 43 3

C44 1 52 1 73 0

C93 0 93 0 92 2

C90 3 87 4 83 5

C79 6 70 9 62 12

C55 15 48 17 48 17

C47 17 47 16 47 14

Z

M191 9

C189 7 186 5 185 5

C184 4 184 4 186 2

C187 0 189 0 203 0

L218 1

L209 5

C196 12 196 12 191 9

Z

M475 4

C471 2 472 0 478 0

L484 0

L483 3

C482 4 481 5 481 5

C481 5 480 5 479 6

C478 6 476 5 475 4

Z

M325 1

C325 0 326 0 327 0

C329 0 329 0 328 1

C326 2 324 2 325 1

Z

"/>

</svg>

