<?xml version="1.0" standalone="no"?>

<!DOCTYPE svg PUBLIC "-//W3C//DTD SVG 20010904//EN"

 "http://www.w3.org/TR/2001/REC-SVG-20010904/DTD/svg10.dtd">

<svg version="1.0" xmlns="http://www.w3.org/2000/svg"

 width="591.000000pt" height="591.000000pt" viewBox="0 0 591.000000 591.000000"

 preserveAspectRatio="xMidYMid meet">

<path fill="#e9ebe4" stroke="none" d="
M0 296

L0 0

L296 0

L591 0

L591 296

L591 591

L296 591

L0 591

L0 296

Z

"/>

<path fill="#507853" stroke="none" d="
M0 534

C0 486 0 476 1 477

C2 477 3 476 4 476

C5 474 5 474 4 473

C3 472 2 471 1 471

C0 471 0 456 0 378

C0 286 0 285 2 286

C4 288 7 286 6 284

C5 282 1 281 1 283

C0 284 0 283 0 282

C0 280 0 279 2 280

C3 280 4 279 5 279

C6 277 6 277 5 275

C3 274 3 274 2 275

C0 276 0 271 0 223

C0 176 0 170 2 170

C2 170 3 169 4 168

C4 167 2 164 1 165

C0 165 0 130 0 83

L0 0

L14 0

L28 0

L28 21

L28 41

L25 44

L23 47

L29 47

C33 47 36 47 36 46

C36 46 35 44 34 43

L31 41

L31 20

L31 0

L59 0

L87 0

L87 4

C87 7 86 9 84 11

L82 14

L88 14

L95 14

L93 11

C91 9 90 7 90 4

L90 0

L118 0

L146 0

L146 21

L146 41

L143 44

L141 47

L147 47

C151 47 154 47 154 46

C154 46 153 44 152 43

L149 41

L149 20

L149 0

L177 0

L205 0

L205 4

C205 7 204 9 202 11

L200 14

L206 14

C210 14 213 14 213 13

C213 13 212 11 211 11

C210 9 209 7 209 4

L209 0

L237 0

L264 0

L264 21

C264 40 264 42 262 44

C259 46 260 47 266 47

C272 47 273 46 270 44

C268 42 268 40 268 21

L268 0

L296 0

L323 0

L323 4

C323 7 322 9 321 11

C318 13 319 14 325 14

C331 14 332 13 329 11

C328 9 327 7 327 4

L327 0

L355 0

L382 0

L382 21

C382 40 382 42 380 44

C377 46 378 47 384 47

C390 47 391 46 388 44

C386 42 386 40 386 21

L386 0

L414 0

L441 0

L441 4

C441 7 440 9 439 11

C438 11 437 13 437 13

C437 14 440 14 444 14

L450 14

L448 11

C446 9 445 7 445 4

L445 0

L473 0

L500 0

L500 21

C500 40 500 42 498 44

C497 44 496 46 496 46

C496 47 499 47 503 47

L509 47

L507 44

L504 41

L504 21

L504 0

L531 0

L559 0

L559 4

C560 7 559 9 557 11

L555 14

L562 14

L568 14

L566 11

C564 9 563 7 563 4

L563 0

L577 0

L591 0

L591 82

C591 135 591 165 590 166

C589 167 589 168 590 168

C591 169 591 171 591 174

C591 177 591 178 590 177

C589 175 586 176 586 179

C586 181 589 182 590 180

C591 179 591 270 591 385

L591 591

L577 591

L563 591

L563 571

L563 550

L566 548

C567 547 568 545 568 545

C568 544 565 544 562 544

C558 544 555 544 555 545

C555 545 556 547 557 548

C559 550 559 551 559 571

L559 591

L531 591

L504 591

L504 587

C504 585 505 583 507 581

L509 578

L503 577

C500 577 497 577 496 577

C496 578 497 579 498 580

C499 582 500 584 500 587

L500 591

L473 591

L445 591

L445 571

L445 551

L448 547

L450 544

L444 544

C437 544 436 545 439 548

C441 549 441 551 441 570

L441 591

L414 591

L386 591

L386 587

C386 584 387 582 388 581

C391 578 390 577 384 577

C378 577 377 578 380 581

C381 582 382 584 382 587

L382 591

L355 591

L327 591

L327 570

C327 551 327 549 329 548

C332 545 331 544 325 544

C319 544 318 545 321 548

C323 549 323 551 323 570

L323 591

L296 591

L268 591

L268 587

C268 584 269 582 270 581

C273 578 272 577 266 577

C260 577 259 578 262 581

C263 582 264 584 264 587

L264 591

L237 591

L209 591

L209 570

C209 551 209 549 211 548

C214 545 213 544 207 544

C201 544 200 545 203 548

C205 549 205 551 205 570

L205 591

L177 591

L149 591

L149 587

C149 584 150 583 152 581

C153 580 154 578 154 578

C154 577 151 577 147 577

L141 577

L143 580

C145 582 146 584 146 587

L146 591

L118 591

L90 591

L90 571

L90 550

L93 548

C94 547 95 545 95 545

C95 544 92 544 89 544

C85 544 82 544 82 545

C82 545 83 547 85 548

L87 550

L87 571

L87 591

L59 591

L31 591

L31 587

C31 584 32 583 34 581

C35 580 36 578 36 578

C36 577 33 577 30 577

C26 577 23 577 23 578

C23 578 24 580 26 581

C27 583 28 584 28 587

L28 591

L14 591

L0 591

L0 534

Z

M35 572

C36 572 35 570 33 569

L31 567

L31 542

L31 517

L34 515

C35 514 36 512 36 512

C36 511 33 511 30 511

C26 511 23 511 23 512

C23 512 24 514 26 515

L28 517

L28 542

L28 567

L26 569

C24 570 23 572 24 572

C24 573 27 573 30 573

C32 573 35 573 35 572

Z

M154 572

C154 572 153 570 152 569

L149 566

L149 542

L149 518

L152 515

C153 514 154 512 154 512

C154 511 142 511 142 512

C141 512 142 514 144 515

L146 517

L146 542

L146 567

L144 569

C142 570 141 572 142 572

C142 573 154 573 154 572

Z

M272 572

C272 571 271 569 270 569

C268 567 268 565 268 542

C268 518 268 516 270 515

C273 512 272 511 266 511

C263 511 260 511 260 512

C260 512 261 513 262 515

C264 517 264 519 264 542

C264 565 264 567 262 569

C258 572 259 573 266 573

C270 573 272 573 272 572

Z

M390 572

C390 571 389 569 388 569

C386 567 386 565 386 542

C386 519 386 517 388 516

C392 512 391 511 384 511

C378 511 377 512 380 515

C382 516 382 518 382 542

C382 565 382 567 380 569

C376 572 377 573 384 573

C388 573 390 573 390 572

Z

M508 572

C509 572 508 570 506 569

L504 567

L504 542

L504 517

L507 515

C508 514 509 512 509 512

C509 511 506 511 503 511

C496 511 495 512 498 515

C500 516 500 518 500 542

C500 566 500 568 498 570

C497 570 496 572 496 572

C496 573 508 573 508 572

Z

M416 548

C416 547 415 546 415 546

C413 545 411 548 411 550

C412 552 415 551 416 548

Z

M420 543

C422 542 422 541 421 540

C420 540 419 539 418 539

C416 539 416 542 417 544

C419 545 419 545 420 543

Z

M95 539

C95 539 94 537 93 536

L90 534

L90 509

L90 484

L93 482

C94 481 95 479 95 479

C95 478 83 478 83 479

C82 479 83 481 85 482

L87 484

L87 509

L87 534

L85 536

C83 537 82 539 82 539

C82 540 85 540 89 540

C92 540 95 540 95 539

Z

M213 539

C213 539 212 537 211 537

C209 535 209 533 209 509

C209 485 209 483 211 482

C212 481 213 479 213 479

C213 478 201 478 201 479

C200 479 201 481 203 482

L205 484

L205 509

C205 532 205 534 203 536

C199 539 200 540 207 540

C210 540 213 540 213 539

Z

M331 539

C331 539 330 537 329 537

C327 535 327 533 327 510

C327 486 327 484 329 483

C333 479 332 478 325 478

C318 478 317 479 321 483

C323 484 323 486 323 510

C323 533 323 535 321 537

C318 539 319 540 325 540

C328 540 331 540 331 539

Z

M449 539

C450 539 449 537 447 536

L445 534

L445 509

L445 484

L447 482

C449 481 450 479 449 479

C449 478 437 478 437 479

C437 479 438 481 439 482

C441 483 441 485 441 509

C441 533 441 535 439 537

C438 537 437 539 437 539

C437 540 449 540 449 539

Z

M568 539

C568 539 567 537 566 536

L563 534

L563 509

L563 484

L565 482

C567 481 568 479 567 479

C567 478 557 478 556 479

C555 479 556 480 557 482

C559 484 559 485 559 509

C559 533 559 534 557 536

C556 538 555 539 555 539

C555 540 558 540 562 540

C565 540 568 540 568 539

Z

M427 536

C428 535 428 535 427 533

C425 532 425 532 423 533

C422 535 422 538 424 538

C425 538 426 537 427 536

Z

M498 535

C499 533 497 530 495 531

C493 531 492 534 494 535

C495 536 497 536 498 535

Z

M433 531

C434 530 433 527 431 527

C429 527 428 529 428 531

C429 532 433 533 433 531

Z

M426 529

C427 527 426 525 424 525

C422 525 421 527 421 529

C422 530 426 530 426 529

Z

M498 524

C498 522 495 520 493 522

C492 524 492 524 493 525

C495 528 497 527 498 524

Z

M551 525

C551 523 550 522 548 522

C546 522 546 522 546 525

C546 527 546 527 548 527

C550 527 551 526 551 525

Z

M440 524

C440 522 437 520 436 522

C434 523 436 526 438 526

C439 526 440 525 440 524

Z

M430 521

C431 520 431 520 430 518

C428 517 425 517 425 519

C425 521 427 523 428 523

C428 523 429 522 430 521

Z

M494 518

C495 516 495 513 493 513

C492 513 491 514 490 515

C489 516 489 516 490 518

C492 519 492 519 494 518

Z

M551 518

C552 516 552 516 551 515

C549 513 547 513 546 515

C546 516 548 519 549 519

C549 519 550 518 551 518

Z

M452 513

C452 511 451 511 450 511

C447 511 446 514 448 515

C450 516 452 516 452 513

Z

M435 512

C435 510 435 510 433 510

C431 510 430 511 430 512

C430 516 434 516 435 512

Z

M545 514

C546 512 546 512 545 511

C543 509 541 509 540 511

C540 512 542 515 543 515

C543 515 544 514 545 514

Z

M366 509

C366 506 364 505 362 506

C361 506 361 509 362 510

C363 512 365 511 366 509

Z

M492 508

C492 506 491 506 490 506

C487 506 486 509 488 510

C490 511 492 511 492 508

Z

M457 509

C458 507 458 504 456 504

C455 504 454 505 453 506

C452 507 452 507 453 509

C455 510 455 510 457 509

Z

M551 508

C552 506 549 503 547 505

C546 506 546 508 546 508

C547 511 551 510 551 508

Z

M440 506

C440 505 440 504 438 503

C437 502 436 502 435 503

C434 504 434 506 434 506

C435 508 439 508 440 506

Z

M541 507

C542 506 542 505 540 504

C539 502 539 502 537 503

C536 505 536 508 538 508

C539 508 540 507 541 507

Z

M36 506

C36 506 35 504 34 503

L31 501

L31 476

L31 452

L34 449

L36 446

L30 446

L23 446

L25 449

L28 452

L28 476

L28 501

L26 503

C24 504 23 506 23 506

C23 507 26 507 30 507

C33 507 36 507 36 506

Z

M154 506

C154 506 153 504 152 503

L149 501

L149 477

L149 453

L152 450

C153 448 154 447 154 447

C153 446 142 446 142 446

C141 446 142 448 144 449

L146 451

L146 476

C146 497 146 501 144 502

C144 503 142 504 142 505

C141 507 141 507 147 507

C151 507 154 507 154 506

Z

M272 506

C272 506 271 504 270 504

C268 502 268 500 268 477

C268 453 268 451 270 450

C271 449 272 447 272 447

C272 447 269 446 266 446

C260 445 259 446 262 450

C264 451 264 453 264 477

C264 500 264 502 262 504

C259 506 260 507 266 507

C269 507 272 507 272 506

Z

M390 506

C390 506 389 504 388 504

C386 502 386 500 386 477

C386 453 386 451 388 450

C391 446 390 445 384 446

C381 446 378 447 378 447

C378 447 379 449 380 450

C382 451 382 453 382 477

C382 500 382 502 380 504

C377 506 378 507 384 507

C387 507 390 507 390 506

Z

M509 506

C509 506 508 504 507 503

L504 501

L504 476

L504 452

L507 449

L509 446

L503 446

L496 446

L498 448

C500 451 500 451 500 476

C500 500 500 502 498 504

C495 506 496 507 503 507

C506 507 509 507 509 506

Z

M373 504

C373 504 373 502 372 501

C370 499 367 502 368 504

C368 506 372 507 373 504

Z

M464 500

C464 498 461 498 459 499

C458 501 458 501 460 502

C461 504 462 504 463 503

C463 502 464 501 464 500

Z

M490 500

C490 497 486 496 485 499

C484 501 485 502 487 502

C489 502 490 501 490 500

Z

M537 500

C537 500 537 498 536 497

C534 496 534 496 532 497

C531 499 531 499 532 500

C534 502 536 502 537 500

Z

M551 500

C552 499 551 498 551 497

C549 496 549 496 547 497

C546 498 546 500 546 500

C547 503 551 502 551 500

Z

M380 499

C380 499 380 497 379 496

C377 495 377 495 375 496

C374 498 374 499 375 500

C377 501 379 501 380 499

Z

M511 498

C511 495 509 494 507 495

C506 495 506 498 507 499

C508 501 510 500 511 498

Z

M457 496

C457 493 453 492 452 495

C451 497 452 498 454 498

C456 498 457 497 457 496

Z

M470 495

C470 492 466 492 465 495

C465 497 465 497 467 497

C469 497 470 496 470 495

Z

M542 496

C543 494 542 492 540 492

C538 492 537 494 537 496

C538 497 542 497 542 496

Z

M393 492

C393 490 391 488 389 490

C388 490 388 493 389 494

C390 496 392 494 393 492

Z

M488 492

C488 489 484 488 483 490

C481 492 483 494 485 494

C487 494 488 493 488 492

Z

M532 492

C532 490 531 489 530 489

C529 489 528 489 527 490

C526 492 528 494 530 494

C531 494 532 493 532 492

Z

M550 492

C550 489 546 489 545 492

C545 494 545 494 547 494

C549 494 550 493 550 492

Z

M401 490

C402 489 402 489 401 487

C399 486 399 486 397 487

C396 489 396 489 397 490

C398 491 399 492 399 492

C399 492 400 491 401 490

Z

M462 491

C463 489 462 487 460 487

C458 487 457 489 457 491

C458 492 462 492 462 491

Z

M512 490

C513 489 513 489 512 487

C510 486 510 486 508 487

C507 489 507 492 509 492

C510 492 511 491 512 490

Z

M476 488

C476 485 472 484 471 486

C469 488 471 490 473 490

C475 490 476 489 476 488

Z

M539 487

C539 485 536 483 534 485

C533 487 533 487 534 488

C536 491 538 490 539 487

Z

M410 486

C410 483 406 482 405 484

C404 487 406 489 408 489

C409 489 410 488 410 486

Z

M452 486

C452 484 451 483 450 483

C448 483 446 485 447 488

C448 490 452 489 452 486

Z

M526 486

C527 485 527 485 526 483

C524 482 524 482 522 483

C521 485 521 485 522 486

C523 487 524 488 524 488

C524 488 525 487 526 486

Z

M487 484

C487 481 483 480 482 482

C480 484 482 486 484 486

C486 486 487 485 487 484

Z

M547 485

C548 483 547 481 545 481

C543 481 542 483 542 485

C543 486 547 486 547 485

Z

M396 483

C397 482 397 482 396 480

C394 479 394 479 392 480

C391 482 391 482 392 483

C393 484 394 485 394 485

C394 485 395 484 396 483

Z

M418 484

C419 482 418 480 416 480

C414 480 413 482 413 484

C414 485 418 485 418 484

Z

M467 483

C467 481 466 480 464 480

C462 480 462 480 462 483

C462 485 462 485 464 485

C466 485 467 484 467 483

Z

M514 481

C514 479 513 478 512 478

C510 478 508 480 509 483

C510 485 514 484 514 481

Z

M480 480

C480 479 479 478 477 478

C476 478 475 478 475 480

C475 481 475 482 476 482

C477 484 480 482 480 480

Z

M427 480

C427 477 423 476 422 478

C421 480 422 482 424 482

C426 482 427 481 427 480

Z

M455 481

C457 481 457 477 455 476

C455 476 453 476 452 477

C451 479 451 479 452 480

C453 482 453 482 455 481

Z

M535 480

C535 477 531 476 530 478

C529 480 530 482 532 482

C534 482 535 481 535 480

Z

M521 478

C521 476 521 476 519 476

C517 476 516 477 516 478

C516 482 520 482 521 478

Z

M13 478

C13 475 9 474 8 476

C6 478 8 480 10 480

C12 480 13 479 13 478

Z

M403 477

C403 475 403 475 401 475

C399 475 398 476 398 477

C398 481 402 481 403 477

Z

M435 477

C435 474 431 473 430 475

C429 478 431 480 433 480

C434 480 435 479 435 477

Z

M471 478

C473 477 472 474 470 473

C468 473 466 475 467 478

C468 479 469 479 471 478

Z

M544 478

C545 476 544 474 542 474

C540 474 539 476 539 478

C540 479 544 479 544 478

Z

M486 475

C486 473 485 473 484 473

C481 473 480 476 482 477

C484 478 486 478 486 475

Z

M423 474

C423 471 419 470 418 472

C417 474 418 476 420 476

C422 476 423 475 423 474

Z

M515 473

C515 470 511 469 510 471

C508 473 510 475 512 475

C514 475 515 474 515 473

Z

M530 473

C530 470 526 469 525 471

C524 471 524 472 525 473

C526 476 530 475 530 473

Z

M95 473

C95 473 94 471 93 470

L90 468

L90 444

L90 419

L93 417

C94 416 95 414 95 414

C95 413 92 413 88 413

L82 413

L84 416

L87 419

L87 444

L87 468

L84 471

L82 474

L88 474

C92 474 95 474 95 473

Z

M213 473

C213 473 212 471 211 471

C209 469 209 467 209 444

C209 420 209 418 211 417

C212 416 213 414 213 414

C213 413 210 413 206 413

L200 413

L202 416

L205 419

L205 444

L205 468

L202 471

L200 474

L206 474

C210 474 213 474 213 473

Z

M331 473

C331 473 330 471 329 471

C327 469 327 467 327 444

C327 420 327 418 329 417

C332 414 331 413 325 413

C319 413 318 414 321 417

C323 418 323 420 323 444

C323 467 323 469 321 471

C318 473 319 474 325 474

C328 474 331 474 331 473

Z

M410 472

C410 469 406 468 405 470

C404 470 404 471 405 472

C406 475 410 474 410 472

Z

M448 471

L445 468

L445 444

L445 419

L448 416

L450 413

L444 413

C440 413 437 413 437 414

C437 414 438 416 439 417

C441 418 441 420 441 444

C441 467 441 469 439 471

C438 471 437 473 437 473

C437 474 440 474 444 474

L450 474

L448 471

Z

M461 473

C462 471 461 469 459 469

C457 469 456 471 456 473

C457 474 461 474 461 473

Z

M566 471

L563 468

L563 444

L563 419

L566 416

L568 413

L562 413

C558 413 555 413 555 414

C555 414 556 415 557 417

C559 419 559 420 559 444

C559 467 559 468 557 470

C556 472 555 473 555 473

C555 474 558 474 562 474

L568 474

L566 471

Z

M587 473

C588 471 588 471 587 470

C585 468 583 468 582 470

C582 471 584 474 585 474

C585 474 586 473 587 473

Z

M430 471

C431 469 431 469 430 468

C428 466 426 466 425 468

C425 469 427 472 428 472

C428 472 429 471 430 471

Z

M477 469

C477 467 477 467 475 467

C473 467 472 468 472 469

C472 473 476 473 477 469

Z

M541 470

C541 467 537 466 536 468

C535 470 536 472 538 472

C540 472 541 471 541 470

Z

M579 470

C580 468 579 466 577 466

C575 466 574 468 574 470

C575 471 579 471 579 470

Z

M487 469

C489 467 488 464 485 464

C483 464 482 467 483 469

C485 470 485 470 487 469

Z

M523 469

C525 467 524 464 521 464

C519 464 518 467 519 469

C521 470 521 470 523 469

Z

M416 466

C416 465 416 464 414 464

C412 464 411 466 411 468

C412 470 415 469 416 466

Z

M570 468

C571 466 571 463 569 463

C568 463 567 464 566 465

C565 466 565 466 566 468

C568 469 568 469 570 468

Z

M467 465

C467 464 465 462 463 462

C461 462 461 465 462 466

C463 468 464 468 465 467

C466 466 467 466 467 465

Z

M439 465

C439 465 439 463 438 462

C436 461 436 461 434 462

C432 464 433 467 436 467

C437 467 438 466 439 465

Z

M514 465

C515 464 514 463 514 462

C512 461 512 461 510 462

C509 463 509 465 509 465

C510 468 514 467 514 465

Z

M536 463

C537 462 534 460 533 460

C531 461 530 465 532 465

C534 466 536 465 536 463

Z

M557 464

C557 460 552 459 551 462

C550 464 553 466 555 465

C556 464 557 464 557 464

Z

M584 462

C584 460 581 460 579 461

C578 463 578 463 580 464

C581 466 582 466 583 465

C583 464 584 463 584 462

Z

M482 463

C482 460 478 459 477 461

C475 463 477 465 479 465

C481 465 482 464 482 463

Z

M423 462

C424 461 424 461 423 459

C421 458 420 458 419 459

C418 461 418 464 420 464

C421 464 422 463 423 462

Z

M548 461

C548 458 546 457 544 458

C543 458 543 461 544 462

C545 464 547 463 548 461

Z

M452 460

C452 458 449 456 448 458

C446 459 448 462 450 462

C451 462 452 461 452 460

Z

M471 460

C472 459 471 458 471 457

C469 456 469 456 467 457

C466 458 466 460 466 460

C467 463 471 462 471 460

Z

M461 459

C461 458 460 457 460 456

C458 456 455 458 456 460

C456 462 460 461 461 459

Z

M490 459

C490 456 486 455 485 458

C484 460 485 461 487 461

C489 461 490 460 490 459

Z

M352 459

C353 458 352 455 350 455

C348 455 347 457 347 459

C348 460 352 461 352 459

Z

M577 459

C578 457 576 454 574 455

C572 455 571 458 573 459

C574 460 576 460 577 459

Z

M431 457

C431 454 427 454 426 457

C426 459 426 459 428 459

C430 459 431 458 431 457

Z

M512 456

C512 454 510 452 508 454

C507 454 507 457 508 458

C509 460 511 458 512 456

Z

M531 457

C531 454 530 453 528 454

C526 454 525 457 527 458

C528 460 530 459 531 457

Z

M540 457

C540 454 536 453 535 455

C534 457 535 459 537 459

C539 459 540 458 540 457

Z

M412 455

C412 453 409 451 408 453

C406 454 408 457 410 457

C411 457 412 456 412 455

Z

M419 456

C420 454 419 452 417 452

C415 452 414 454 414 456

C415 457 419 457 419 456

Z

M439 454

C439 452 438 452 437 452

C435 452 434 452 434 454

C434 456 434 456 437 456

C439 456 439 456 439 454

Z

M477 454

C477 452 476 452 475 452

C473 452 472 452 472 454

C472 456 472 456 475 456

C477 456 477 456 477 454

Z

M493 452

C493 452 493 450 492 449

C490 448 490 448 488 449

C487 451 487 451 488 452

C490 454 492 454 493 452

Z

M524 452

C525 451 525 451 524 449

C522 448 522 448 520 449

C519 451 519 451 520 452

C521 453 522 454 522 454

C522 454 523 453 524 452

Z

M551 452

C552 451 552 451 551 449

C549 448 549 448 547 449

C546 451 546 454 548 454

C549 454 550 453 551 452

Z

M571 452

C571 449 567 448 566 451

C565 453 566 454 568 454

C570 454 571 453 571 452

Z

M452 451

C452 451 452 449 451 448

C449 447 449 447 447 448

C446 450 446 450 447 451

C449 453 451 453 452 451

Z

M468 451

C468 449 467 448 465 448

C463 448 463 448 463 451

C463 453 463 453 465 453

C467 453 468 452 468 451

Z

M485 451

C485 448 481 447 480 449

C478 451 480 453 482 453

C484 453 485 452 485 451

Z

M355 450

C355 447 351 447 350 450

C350 452 350 452 352 452

C354 452 355 451 355 450

Z

M516 450

C516 447 512 447 511 450

C511 452 511 452 513 452

C515 452 516 451 516 450

Z

M542 450

C543 449 543 449 542 447

C540 446 537 447 537 449

C537 452 540 453 542 450

Z

M460 449

C460 446 456 445 455 447

C454 449 455 451 457 451

C459 451 460 450 460 449

Z

M533 449

C533 447 532 446 531 446

C530 446 529 446 528 447

C527 449 529 451 531 451

C532 451 533 450 533 449

Z

M474 448

C475 447 475 447 474 445

C472 444 472 444 470 445

C469 447 469 447 470 448

C471 449 472 450 472 450

C472 450 473 449 474 448

Z

M363 447

C363 445 360 443 359 445

C357 446 359 449 361 449

C362 449 363 448 363 447

Z

M409 447

C409 445 408 444 407 444

C406 444 405 444 404 445

C403 447 405 449 407 449

C408 449 409 448 409 447

Z

M420 446

C420 444 417 442 415 444

C414 446 414 446 415 447

C417 450 419 449 420 446

Z

M291 443

C292 442 292 442 291 440

C289 439 289 439 287 440

C286 442 286 442 287 443

C288 444 289 445 289 445

C289 445 290 444 291 443

Z

M520 443

C521 442 521 442 520 440

C518 439 518 439 516 440

C515 442 515 442 516 443

C517 444 518 445 518 445

C518 445 519 444 520 443

Z

M555 443

C555 441 554 440 552 440

C550 440 550 440 550 443

C550 445 550 445 552 445

C554 445 555 444 555 443

Z

M358 442

C358 439 354 438 353 440

C351 442 353 444 355 444

C357 444 358 443 358 442

Z

M368 440

C368 438 367 437 366 437

C364 437 362 439 363 442

C364 444 368 443 368 440

Z

M469 441

C470 439 469 438 467 438

C465 438 464 440 464 442

C465 443 469 443 469 441

Z

M477 439

C477 436 473 435 472 437

C471 440 473 442 475 442

C476 442 477 441 477 439

Z

M528 439

C528 436 524 435 523 437

C522 440 524 442 526 442

C527 442 528 441 528 439

Z

M546 441

C547 439 546 437 544 437

C542 437 541 439 541 441

C542 442 546 442 546 441

Z

M36 440

C36 440 35 438 34 437

L31 435

L31 411

L31 386

L34 384

C35 383 36 381 36 381

C36 380 33 380 30 380

C26 380 23 380 23 381

C23 381 24 383 26 384

L28 386

L28 411

L28 435

L25 438

L23 441

L29 441

C33 441 36 441 36 440

Z

M154 440

C154 440 153 438 152 437

L149 435

L149 411

L149 386

L152 384

C153 383 154 381 154 381

C154 380 151 380 147 380

L141 380

L143 383

L146 386

L146 411

L146 435

L143 438

L141 441

L147 441

C151 441 154 441 154 440

Z

M272 440

C272 440 271 438 270 438

C268 436 268 434 268 411

C268 387 268 385 270 384

C273 381 272 380 266 380

C260 380 259 381 262 384

C264 385 264 387 264 411

C264 434 264 436 262 438

C259 440 260 441 266 441

C269 441 272 441 272 440

Z

M299 440

C300 438 299 436 297 436

C295 436 294 438 294 440

C295 441 299 441 299 440

Z

M390 440

C390 440 389 438 388 438

C386 436 386 434 386 411

C386 387 386 385 388 384

C391 381 390 380 384 380

C378 380 377 381 380 384

C382 385 382 387 382 411

C382 434 382 436 380 438

C377 440 378 441 384 441

C387 441 390 441 390 440

Z

M407 439

C407 436 403 435 402 437

C400 439 402 441 404 441

C406 441 407 440 407 439

Z

M507 438

L504 435

L504 411

L504 386

L507 383

L509 380

L503 380

C499 380 496 380 496 381

C496 381 497 383 498 384

C500 385 500 387 500 411

C500 434 500 436 498 438

C497 438 496 440 496 440

C496 441 499 441 503 441

L509 441

L507 438

Z

M535 440

C537 440 537 436 535 435

C535 435 533 435 532 436

C531 438 531 438 532 439

C533 441 533 441 535 440

Z

M421 438

C421 435 417 434 416 436

C415 438 416 440 418 440

C420 440 421 439 421 438

Z

M306 435

C307 434 307 434 306 432

C305 431 303 431 303 431

C301 432 300 436 302 436

C304 437 305 437 306 435

Z

M464 436

C465 434 464 432 462 432

C460 432 459 434 459 436

C460 437 464 437 464 436

Z

M361 434

C361 431 357 430 356 432

C354 434 356 436 358 436

C360 436 361 435 361 434

Z

M373 432

C373 431 373 430 371 430

C369 430 368 432 368 434

C369 436 372 435 373 432

Z

M475 433

C476 431 476 431 475 430

C473 428 471 428 470 430

C470 431 472 434 473 434

C473 434 474 433 475 433

Z

M405 431

C405 428 401 427 400 429

C398 431 400 433 402 433

C404 433 405 432 405 431

Z

M422 431

C423 429 422 427 420 427

C418 427 417 429 417 431

C418 432 422 432 422 431

Z

M313 429

C314 427 313 426 311 426

C309 426 308 428 308 430

C309 431 313 431 313 429

Z

M534 428

C534 427 533 426 533 426

C531 425 529 428 529 430

C530 432 533 431 534 428

Z

M459 428

C459 428 459 426 458 425

C456 424 456 424 455 425

C454 426 453 428 454 429

C454 430 458 430 459 428

Z

M379 428

C380 427 380 426 378 425

C377 423 377 423 375 424

C374 426 374 429 376 429

C377 429 378 428 379 428

Z

M306 426

C306 425 304 422 302 423

C301 423 300 426 302 427

C303 429 305 428 306 426

Z

M364 426

C364 423 360 422 359 424

C357 426 359 428 361 428

C363 428 364 427 364 426

Z

M320 426

C321 424 320 421 318 421

C315 421 314 424 316 426

C318 427 318 427 320 426

Z

M526 425

C526 422 524 421 522 422

C521 422 521 425 522 426

C523 428 525 427 526 425

Z

M473 424

C473 421 471 420 469 421

C468 421 468 424 469 425

C470 427 472 426 473 424

Z

M403 423

C403 420 401 419 399 420

C398 420 398 423 399 424

C400 426 402 425 403 423

Z

M423 422

C423 422 423 420 422 419

C420 418 420 418 419 420

C417 421 417 422 418 423

C420 424 422 424 423 422

Z

M454 421

C454 418 450 417 449 420

C448 422 449 423 451 423

C453 423 454 422 454 421

Z

M518 421

C518 418 516 417 514 418

C513 418 513 421 514 422

C515 424 517 423 518 421

Z

M310 418

C310 416 308 414 306 416

C305 416 305 419 306 420

C307 422 309 420 310 418

Z

M368 419

C368 419 368 417 367 416

C365 415 365 415 363 416

C363 417 362 418 363 419

C363 421 367 422 368 419

Z

M469 416

C469 414 467 412 465 414

C464 414 464 417 465 418

C466 420 468 418 469 416

Z

M511 417

C511 415 510 415 509 415

C507 415 506 415 506 417

C506 419 506 419 509 419

C511 419 511 419 511 417

Z

M524 417

C524 414 522 413 520 414

C519 414 519 417 520 418

C521 420 523 419 524 417

Z

M403 414

C403 411 399 410 398 412

C396 414 398 416 400 416

C402 416 403 415 403 414

Z

M423 414

C424 413 424 413 423 411

C421 410 421 410 419 411

C418 413 418 416 420 416

C421 416 422 415 423 414

Z

M316 412

C316 410 314 408 312 410

C311 410 311 413 312 414

C313 416 315 414 316 412

Z

M340 412

C340 409 336 408 335 410

C334 412 335 414 337 414

C339 414 340 413 340 412

Z

M371 412

C371 409 370 408 368 409

C366 409 365 412 367 413

C368 415 370 414 371 412

Z

M393 411

C393 408 389 408 388 411

C388 413 388 413 390 413

C392 413 393 412 393 411

Z

M498 412

C499 410 497 407 495 408

C493 408 492 411 494 412

C495 413 497 413 498 412

Z

M518 411

C518 409 517 409 516 409

C514 409 513 409 513 411

C513 413 513 413 516 413

C518 413 518 413 518 411

Z

M464 411

C465 409 464 407 462 407

C460 407 459 409 459 411

C460 412 464 412 464 411

Z

M348 407

C348 405 347 404 346 404

C344 404 342 406 343 409

C344 411 348 410 348 407

Z

M491 407

C491 405 490 404 489 404

C488 404 487 404 486 405

C485 407 487 409 489 409

C490 409 491 408 491 407

Z

M93 405

L90 402

L90 378

L90 353

L93 351

C94 350 95 348 95 348

C95 347 92 347 89 347

C85 347 82 347 82 348

C82 348 83 350 85 351

L87 353

L87 378

L87 402

L84 405

L82 408

L89 408

L95 408

L93 405

Z

M213 407

C213 407 212 405 211 405

C209 403 209 401 209 378

C209 354 209 352 211 351

C214 348 213 347 207 347

C200 347 199 348 203 352

C205 353 205 355 205 378

L205 402

L202 405

L200 408

L206 408

C210 408 213 408 213 407

Z

M331 407

C331 407 330 405 329 405

C327 403 327 401 327 378

C327 354 327 352 329 351

C332 348 331 347 325 347

C319 347 318 348 321 351

C323 352 323 354 323 378

C323 401 323 403 321 405

C318 407 319 408 325 408

C328 408 331 408 331 407

Z

M402 405

C402 403 401 402 400 402

C398 402 396 404 397 407

C398 409 402 408 402 405

Z

M423 406

C424 405 424 405 423 403

C421 402 418 403 418 405

C418 408 421 409 423 406

Z

M448 405

L445 402

L445 378

L445 354

L448 351

L450 348

L444 347

C441 347 438 347 437 347

C437 348 438 349 439 350

C441 353 441 353 441 378

C441 401 441 403 439 405

C438 405 437 407 437 407

C437 408 440 408 444 408

L450 408

L448 405

Z

M512 405

C512 403 511 402 510 402

C508 402 506 404 507 407

C508 409 512 408 512 405

Z

M566 405

L563 402

L563 378

L563 353

L566 351

C567 350 568 348 568 348

C568 347 565 347 562 347

C558 347 555 347 555 348

C555 348 556 349 557 351

C559 353 559 354 559 378

C559 403 559 403 557 406

L555 408

L562 408

L568 408

L566 405

Z

M376 405

C376 402 372 401 371 403

C370 405 371 407 373 407

C375 407 376 406 376 405

Z

M356 403

C356 401 355 400 354 400

C352 400 350 402 351 405

C352 407 356 406 356 403

Z

M395 403

C395 401 394 400 393 400

C391 400 389 402 390 405

C391 407 395 406 395 403

Z

M436 404

C437 403 437 403 436 401

C434 400 434 400 432 401

C431 403 431 403 432 404

C433 405 434 406 434 406

C434 406 435 405 436 404

Z

M458 405

C459 403 458 401 456 401

C454 401 453 403 453 405

C454 406 458 406 458 405

Z

M484 403

C484 400 480 399 479 401

C478 404 480 406 482 406

C483 406 484 405 484 403

Z

M363 401

C364 400 364 400 363 398

C361 397 361 397 359 398

C358 400 358 400 359 401

C360 402 361 403 361 403

C361 403 362 402 363 401

Z

M476 401

C477 400 477 400 476 398

C474 397 474 397 472 398

C471 400 471 400 472 401

C473 402 474 403 474 403

C474 403 475 402 476 401

Z

M371 399

C371 397 370 396 369 396

C368 396 367 396 366 397

C365 399 367 401 369 401

C370 401 371 400 371 399

Z

M468 400

C470 399 469 396 467 395

C465 395 463 397 464 400

C465 401 466 401 468 400

Z

M246 399

C248 399 248 395 246 394

C246 394 244 394 243 395

C242 397 242 397 243 398

C244 400 244 400 246 399

Z

M334 397

C334 395 333 395 332 395

C329 395 328 398 330 399

C332 400 334 400 334 397

Z

M379 398

C380 396 378 393 376 394

C374 395 373 399 375 399

C377 400 378 400 379 398

Z

M401 398

C402 397 402 397 401 395

C399 394 399 394 397 395

C396 397 396 397 397 398

C398 399 399 400 399 400

C399 400 400 399 401 398

Z

M423 398

C424 397 424 397 423 395

C422 394 420 394 420 394

C418 395 417 399 419 399

C421 400 422 400 423 398

Z

M453 397

C453 395 452 395 451 395

C448 395 447 398 449 399

C451 400 453 400 453 397

Z

M431 397

C432 395 431 394 429 394

C427 394 426 396 426 398

C427 399 431 399 431 397

Z

M461 397

C461 394 457 393 456 395

C455 397 456 399 458 399

C460 399 461 398 461 397

Z

M496 396

C498 396 498 392 496 391

C496 391 494 391 493 392

C492 394 492 394 493 395

C494 397 494 397 496 396

Z

M341 391

C341 388 337 387 336 389

C335 391 336 393 338 393

C340 393 341 392 341 391

Z

M491 390

C491 388 490 388 489 388

C486 388 485 391 487 392

C489 393 491 392 491 390

Z

M403 389

C403 387 402 387 401 387

C398 387 397 390 399 391

C401 392 403 391 403 389

Z

M247 389

C247 386 246 385 244 386

C242 386 241 389 243 390

C244 392 246 391 247 389

Z

M422 390

C423 389 422 387 421 386

C420 385 420 385 418 386

C417 387 417 389 417 389

C418 391 422 391 422 390

Z

M484 388

C486 386 485 383 482 383

C480 383 479 386 480 388

C482 389 482 389 484 388

Z

M348 386

C348 385 346 382 344 383

C343 383 342 386 344 387

C345 389 347 388 348 386

Z

M394 386

C394 383 392 382 390 383

C389 383 389 386 390 387

C391 389 393 388 394 386

Z

M293 383

C293 380 291 379 289 380

C288 380 288 383 289 384

C290 386 292 385 293 383

Z

M477 383

C477 380 475 379 473 380

C472 380 472 383 473 384

C474 386 476 385 477 383

Z

M407 382

C407 382 407 380 406 379

C404 378 404 378 402 379

C402 380 401 381 402 382

C402 384 406 385 407 382

Z

M428 381

C428 378 425 377 423 379

C422 381 422 381 423 382

C425 384 428 383 428 381

Z

M355 381

C355 378 353 377 351 378

C350 378 350 381 351 382

C352 384 354 383 355 381

Z

M419 381

C419 381 419 379 418 378

C416 377 416 377 414 378

C413 380 413 380 414 381

C416 383 418 383 419 381

Z

M399 379

C399 377 398 377 397 377

C394 377 393 380 395 381

C397 382 399 381 399 379

Z

M469 380

C469 377 467 376 465 377

C464 377 464 380 465 381

C466 383 468 382 469 380

Z

M246 379

C246 376 242 375 241 378

C240 380 241 381 243 381

C245 381 246 380 246 379

Z

M436 379

C437 378 436 377 436 376

C434 375 434 375 432 376

C431 377 431 379 431 379

C432 382 436 381 436 379

Z

M461 377

C461 375 458 373 456 375

C455 377 455 377 456 378

C458 381 460 380 461 377

Z

M452 377

C452 375 449 373 448 375

C446 376 448 379 450 379

C451 379 452 378 452 377

Z

M363 376

C363 373 359 372 358 374

C356 376 358 378 360 378

C362 378 363 377 363 376

Z

M412 376

C412 376 412 374 411 373

C409 372 409 372 407 373

C406 375 406 375 407 376

C409 378 411 378 412 376

Z

M287 375

C288 374 288 374 287 372

C285 371 285 371 283 372

C282 374 282 377 284 377

C285 377 286 376 287 375

Z

M35 375

C36 375 35 373 33 372

L31 370

L31 345

L31 320

L34 318

C35 317 36 315 36 315

C36 314 33 314 30 314

C26 314 23 314 23 315

C23 315 24 317 26 318

L28 320

L28 345

L28 370

L26 372

C24 373 23 375 24 375

C24 376 27 376 30 376

C32 376 35 376 35 375

Z

M154 375

C154 375 153 373 152 372

L149 369

L149 345

L149 321

L152 318

C153 317 154 315 154 315

C154 314 142 314 142 315

C141 315 142 317 144 318

L146 320

L146 345

L146 370

L144 372

C142 373 141 375 142 375

C142 376 154 376 154 375

Z

M272 375

C272 374 271 372 270 372

C268 370 268 368 268 345

C268 321 268 319 270 318

C273 315 272 314 266 314

C259 314 258 315 262 319

C264 320 264 322 264 345

C264 368 264 370 262 372

C258 375 259 376 266 376

C270 376 272 376 272 375

Z

M390 375

C390 374 389 372 388 372

C386 370 386 368 386 345

C386 321 386 319 388 318

C391 315 390 314 384 314

C378 314 377 315 380 318

C382 319 382 321 382 345

C382 368 382 370 380 372

C376 375 377 376 384 376

C388 376 390 376 390 375

Z

M508 375

C509 375 508 373 506 372

L504 370

L504 345

L504 320

L506 318

C508 317 509 315 508 315

C508 314 496 314 496 315

C496 315 497 317 498 318

C500 319 500 321 500 345

C500 369 500 371 498 373

C497 373 496 375 496 375

C496 376 508 376 508 375

Z

M370 372

C370 369 369 368 367 369

C365 369 364 372 366 373

C367 375 369 374 370 372

Z

M401 371

C401 369 400 368 399 368

C397 368 395 370 396 373

C397 375 401 374 401 371

Z

M242 371

C243 370 243 370 242 368

C241 367 239 367 239 367

C237 368 236 372 238 372

C240 373 241 373 242 371

Z

M378 370

C379 368 378 366 376 366

C374 366 373 368 373 370

C374 371 378 371 378 370

Z

M393 369

C394 368 393 365 391 365

C389 365 388 367 388 369

C389 370 393 371 393 369

Z

M281 367

C281 364 277 363 276 365

C275 367 276 369 278 369

C280 369 281 368 281 367

Z

M249 364

C249 362 248 362 247 362

C244 362 243 365 245 366

C247 367 249 366 249 364

Z

M239 362

C239 360 238 360 237 360

C234 360 233 363 235 364

C237 365 239 364 239 362

Z

M275 362

C276 360 275 358 273 358

C271 358 270 360 270 362

C271 363 275 363 275 362

Z

M284 361

C284 359 283 358 282 358

C281 358 280 358 279 359

C278 361 280 363 282 363

C283 363 284 362 284 361

Z

M248 356

C249 355 249 355 248 353

C246 352 246 352 245 353

C243 355 243 357 244 357

C246 358 247 358 248 356

Z

M123 355

C123 353 120 351 119 353

C117 354 119 357 121 357

C122 357 123 356 123 355

Z

M235 354

C235 352 234 352 233 352

C230 352 229 355 231 356

C233 357 235 356 235 354

Z

M280 353

C280 351 279 350 278 350

C277 350 276 350 275 351

C274 353 276 355 278 355

C279 355 280 354 280 353

Z

M193 350

C193 348 192 347 191 347

C189 347 187 349 188 352

C189 354 193 353 193 350

Z

M245 347

C245 345 244 344 243 344

C241 344 239 346 240 349

C241 351 245 350 245 347

Z

M121 347

C121 344 117 343 116 345

C114 347 116 349 118 349

C120 349 121 348 121 347

Z

M229 346

C229 343 225 342 224 344

C223 346 224 348 226 348

C228 348 229 347 229 346

Z

M275 345

C275 344 275 343 273 343

C271 343 270 345 270 347

C271 349 274 348 275 345

Z

M187 345

C187 343 186 342 184 342

C182 342 182 342 182 345

C182 347 182 347 184 347

C186 347 187 346 187 345

Z

M261 345

C261 342 259 341 257 342

C256 342 256 345 257 346

C258 348 260 347 261 345

Z

M95 342

C95 342 94 340 93 339

L90 337

L90 312

L90 287

L93 285

C94 284 95 282 95 282

C95 281 83 281 83 282

C82 282 83 284 85 285

L87 287

L87 312

L87 337

L85 339

C83 340 82 342 82 342

C82 343 85 343 89 343

C92 343 95 343 95 342

Z

M213 342

C213 342 212 340 211 340

C209 338 209 336 209 312

C209 288 209 286 211 285

C212 284 213 282 213 282

C213 281 201 281 201 282

C200 282 201 284 203 285

L205 287

L205 312

C205 335 205 337 203 339

C199 342 200 343 207 343

C210 343 213 343 213 342

Z

M331 342

C331 341 330 339 329 339

C327 337 327 335 327 312

C327 289 327 287 329 286

C333 282 332 281 325 281

C318 281 317 282 321 286

C323 287 323 289 323 313

C323 336 323 338 321 340

C318 342 319 343 325 343

C329 343 331 343 331 342

Z

M449 342

C450 342 449 340 447 339

L445 337

L445 312

L445 287

L447 285

C449 284 450 282 449 282

C449 281 437 281 437 282

C437 282 438 284 439 285

C441 286 441 288 441 312

C441 336 441 338 439 340

C438 340 437 342 437 342

C437 343 449 343 449 342

Z

M568 342

C568 342 567 340 566 339

L563 337

L563 312

L563 287

L565 285

C567 284 568 282 567 282

C567 281 555 281 555 282

C555 282 556 283 557 285

C559 287 559 288 559 312

C559 336 559 337 557 339

C556 341 555 342 555 342

C555 343 558 343 562 343

C565 343 568 343 568 342

Z

M117 340

C117 337 113 336 112 338

C110 340 112 342 114 342

C116 342 117 341 117 340

Z

M241 341

C242 339 242 336 240 336

C239 336 238 337 237 338

C236 339 236 339 237 341

C239 342 239 342 241 341

Z

M181 340

C182 338 182 338 181 337

C179 335 177 335 176 337

C176 338 178 341 179 341

C179 341 180 340 181 340

Z

M223 339

C223 339 223 337 222 336

C220 335 220 335 218 336

C217 338 217 339 218 340

C220 341 222 341 223 339

Z

M254 339

C255 338 254 337 254 336

C252 335 252 335 250 336

C249 337 249 339 249 339

C250 342 254 341 254 339

Z

M124 338

C124 336 123 335 122 335

C121 335 120 335 119 336

C118 338 120 340 122 340

C123 340 124 339 124 338

Z

M47 336

C47 335 47 334 45 334

C43 334 42 336 42 338

C43 340 46 339 47 336

Z

M187 336

C189 335 188 332 186 331

C184 331 182 333 183 336

C184 337 185 337 187 336

Z

M114 334

C115 332 114 329 113 329

C112 329 111 330 110 331

C109 332 109 332 110 334

C112 335 112 335 114 334

Z

M236 333

C237 332 237 332 236 330

C234 329 231 330 231 332

C231 335 234 336 236 333

Z

M248 333

C248 333 248 331 247 330

C245 329 245 329 244 331

C242 332 242 333 243 334

C245 335 247 335 248 333

Z

M176 333

C178 332 177 329 175 328

C173 328 171 330 172 333

C173 334 174 334 176 333

Z

M218 330

C218 328 217 327 216 327

C214 327 212 329 213 332

C214 334 218 333 218 330

Z

M53 330

C53 327 49 326 48 328

C47 328 47 329 48 330

C49 333 53 332 53 330

Z

M125 329

C125 328 125 327 123 327

C121 327 120 329 120 331

C121 333 124 332 125 329

Z

M241 327

C241 325 240 325 239 325

C236 325 235 328 237 329

C239 330 241 330 241 327

Z

M185 327

C186 325 185 324 183 324

C181 324 180 326 180 328

C181 329 185 329 185 327

Z

M259 326

C260 325 260 325 259 323

C257 322 257 322 255 323

C254 325 254 328 256 328

C257 328 258 327 259 326

Z

M112 326

C113 324 112 321 110 321

C107 321 106 324 108 326

C110 327 110 327 112 326

Z

M171 325

C173 324 173 323 172 322

C171 322 170 321 169 321

C167 321 167 324 168 326

C170 327 170 327 171 325

Z

M57 324

C59 323 59 322 58 321

C57 321 56 320 55 320

C53 320 53 323 54 325

C56 326 56 326 57 324

Z

M234 323

C234 320 230 319 229 321

C227 323 229 325 231 325

C233 325 234 324 234 323

Z

M127 322

C127 319 125 318 123 319

C122 319 122 322 123 323

C124 325 126 324 127 322

Z

M217 322

C218 321 217 318 215 318

C213 318 212 320 212 322

C213 323 217 324 217 322

Z

M253 320

C254 319 254 319 253 317

C251 316 251 316 249 317

C248 319 248 322 250 322

C251 322 252 321 253 320

Z

M52 319

C52 316 48 315 47 318

C46 320 47 321 49 321

C51 321 52 320 52 319

Z

M183 319

C184 318 183 317 183 316

C181 315 181 315 179 316

C178 317 178 319 178 319

C179 322 183 321 183 319

Z

M167 319

C168 317 166 314 164 315

C162 315 161 318 163 319

C164 320 166 320 167 319

Z

M226 318

C226 315 224 314 222 315

C221 315 221 318 222 319

C223 321 225 320 226 318

Z

M63 317

C64 316 64 316 63 314

C61 313 61 313 59 314

C58 316 58 319 60 319

C61 319 62 318 63 317

Z

M111 316

C111 313 109 312 107 313

C106 313 106 316 107 317

C108 319 110 318 111 316

Z

M237 316

C237 313 235 312 233 313

C232 313 232 316 233 317

C234 319 236 318 237 316

Z

M129 314

C129 314 129 312 128 311

C126 310 126 310 124 311

C123 313 123 313 124 314

C126 316 128 316 129 314

Z

M247 315

C248 313 248 313 247 312

C245 308 241 311 242 315

C243 315 244 316 244 316

C245 316 246 315 247 315

Z

M218 314

C219 312 219 309 217 309

C216 309 215 310 214 311

C213 312 213 312 214 314

C216 315 216 315 218 314

Z

M55 311

C55 309 52 307 50 309

C49 311 49 311 50 312

C52 315 54 314 55 311

Z

M69 310

C69 307 65 306 64 308

C63 311 65 313 67 313

C68 313 69 312 69 310

Z

M162 311

C162 308 161 307 159 308

C157 308 156 311 158 312

C159 314 161 313 162 311

Z

M181 311

C181 308 177 308 176 311

C176 313 176 313 178 313

C180 313 181 312 181 311

Z

M230 310

C230 307 226 307 225 310

C225 312 225 312 227 312

C229 312 230 311 230 310

Z

M36 309

C36 309 35 307 34 306

L31 304

L31 279

L31 255

L34 252

L36 249

L30 249

L23 249

L25 252

L28 255

L28 279

L28 304

L26 306

C24 307 23 309 23 309

C23 310 26 310 30 310

C33 310 36 310 36 309

Z

M109 308

C110 307 110 307 109 305

C107 304 107 304 105 305

C104 307 104 307 105 308

C106 309 107 310 107 310

C107 310 108 309 109 308

Z

M154 309

C154 309 153 307 152 306

L149 304

L149 279

L149 255

L152 252

L154 249

L147 249

L141 249

L143 252

L146 255

L146 279

C146 300 146 304 144 305

C144 306 142 307 142 308

C141 310 141 310 147 310

C151 310 154 310 154 309

Z

M241 308

C241 305 237 304 236 306

C235 306 235 307 236 308

C237 311 241 310 241 308

Z

M272 309

C272 309 271 307 270 307

C268 305 268 303 268 280

C268 256 268 254 270 253

C273 250 272 249 266 249

C260 249 259 250 262 253

C264 254 264 256 264 280

C264 303 264 305 262 307

C259 309 260 310 266 310

C269 310 272 310 272 309

Z

M390 309

C390 309 389 307 388 307

C386 305 386 303 386 280

C386 256 386 254 388 253

C391 250 390 249 384 249

C378 249 377 250 380 253

C382 254 382 256 382 280

C382 303 382 305 380 307

C377 309 378 310 384 310

C387 310 390 310 390 309

Z

M509 309

C509 309 508 307 507 306

L504 304

L504 279

L504 255

L507 252

L509 249

L503 249

L496 249

L498 251

C500 254 500 254 500 279

C500 303 500 305 498 307

C495 309 496 310 503 310

C506 310 509 310 509 309

Z

M130 305

C130 303 127 301 125 303

C124 305 124 305 125 306

C127 309 129 308 130 305

Z

M223 305

C223 303 221 301 219 303

C218 303 218 306 219 307

C220 309 222 307 223 305

Z

M76 305

C76 302 72 301 71 303

C69 305 71 307 73 307

C75 307 76 306 76 305

Z

M58 305

C59 303 58 301 56 301

C54 301 53 303 53 305

C54 306 58 306 58 305

Z

M157 304

C157 301 153 300 152 302

C150 304 152 306 154 306

C156 306 157 305 157 304

Z

M178 304

C179 303 179 303 178 301

C176 300 173 301 173 303

C173 306 176 307 178 304

Z

M167 303

C167 300 163 299 162 301

C161 303 162 305 164 305

C166 305 167 304 167 303

Z

M233 302

C233 300 233 300 231 300

C229 300 228 301 228 302

C228 306 232 306 233 302

Z

M216 301

C216 298 212 297 211 299

C210 301 211 303 213 303

C215 303 216 302 216 301

Z

M69 301

C70 299 70 299 69 298

C67 296 65 296 64 298

C64 299 66 302 67 302

C67 302 68 301 69 301

Z

M82 299

C82 296 78 295 77 297

C76 300 78 302 80 302

C81 302 82 301 82 299

Z

M118 300

C119 299 119 299 118 297

C116 296 116 296 114 297

C113 299 113 299 114 300

C115 301 116 302 116 302

C116 302 117 301 118 300

Z

M108 298

C108 297 107 296 105 296

C104 296 103 296 103 298

C103 299 103 300 104 300

C105 302 108 300 108 298

Z

M224 299

C225 297 224 296 222 296

C220 296 219 298 219 300

C220 301 224 301 224 299

Z

M62 297

C63 296 63 296 62 294

C61 293 59 293 59 293

C57 294 56 298 58 298

C60 299 61 299 62 297

Z

M131 297

C131 294 127 293 126 295

C125 297 126 299 128 299

C130 299 131 298 131 297

Z

M162 296

C162 294 161 293 160 293

C158 293 156 295 157 298

C158 300 162 299 162 296

Z

M175 297

C176 295 175 293 173 293

C171 293 170 295 170 297

C171 298 175 298 175 297

Z

M202 294

C202 291 198 290 197 292

C196 292 196 293 197 294

C198 297 202 296 202 294

Z

M573 293

C573 291 572 290 571 290

C569 290 567 292 568 295

C569 297 573 296 573 293

Z

M74 294

C75 292 75 292 74 291

C72 289 70 289 69 291

C69 292 71 295 72 295

C72 295 73 294 74 294

Z

M216 294

C218 294 218 290 216 289

C214 288 212 291 213 293

C214 295 214 295 216 294

Z

M118 291

C118 289 117 289 116 289

C113 289 112 292 114 293

C116 294 118 294 118 291

Z

M138 293

C140 292 139 289 137 288

C135 288 133 290 134 293

C135 294 136 294 138 293

Z

M98 292

C99 290 99 290 98 289

C96 287 94 287 93 289

C93 290 95 293 96 293

C96 293 97 292 98 292

Z

M106 292

C107 290 107 290 106 289

C104 287 102 287 101 289

C101 290 103 293 104 293

C104 293 105 292 106 292

Z

M194 292

C196 290 195 287 192 287

C190 287 189 290 190 292

C192 293 192 293 194 292

Z

M580 292

C581 290 580 287 579 287

C578 287 577 288 576 289

C575 290 575 290 576 292

C578 293 578 293 580 292

Z

M157 289

C157 287 157 287 155 287

C153 287 152 288 152 289

C152 293 156 293 157 289

Z

M67 289

C67 286 65 285 63 286

C62 286 62 289 63 290

C64 292 66 291 67 289

Z

M131 290

C132 288 132 285 130 285

C129 285 128 286 127 287

C126 288 126 288 127 290

C129 291 129 291 131 290

Z

M172 290

C173 288 172 286 170 286

C168 286 167 288 167 290

C168 291 172 291 172 290

Z

M588 289

C589 287 589 284 587 284

C586 284 585 285 584 286

C583 287 583 287 584 289

C586 290 586 290 588 289

Z

M187 287

C188 285 187 284 185 284

C183 284 182 286 182 288

C183 289 187 289 187 287

Z

M80 286

C80 286 80 284 79 283

C77 282 77 282 75 283

C73 285 74 288 77 288

C78 288 79 287 80 286

Z

M180 284

C180 281 178 280 176 281

C175 281 175 284 176 285

C177 287 179 286 180 284

Z

M14 284

C15 282 14 279 12 279

C9 279 8 282 10 284

C12 285 12 285 14 284

Z

M119 283

C119 283 119 281 118 280

C116 279 116 279 114 280

C114 281 113 282 114 283

C114 285 118 286 119 283

Z

M106 282

C106 278 101 277 100 280

C99 282 102 284 104 283

C105 282 106 282 106 282

Z

M197 282

C197 282 197 280 196 279

C194 278 194 278 192 279

C192 280 191 281 192 282

C192 284 196 285 197 282

Z

M23 280

C23 278 22 278 21 278

C18 278 17 281 19 282

C21 283 23 282 23 280

Z

M71 282

C72 281 71 278 69 278

C67 278 66 280 66 282

C67 283 71 284 71 282

Z

M172 282

C173 281 173 280 171 279

C170 277 170 277 168 278

C167 280 167 283 169 283

C170 283 171 282 172 282

Z

M132 280

C133 278 130 276 129 276

C127 277 126 279 128 280

C129 282 132 281 132 280

Z

M164 278

C164 276 161 274 160 276

C158 277 160 280 162 280

C163 280 164 279 164 278

Z

M189 278

C189 276 188 276 187 276

C185 276 184 276 184 278

C184 280 184 280 187 280

C189 280 189 280 189 278

Z

M40 277

C40 274 36 273 35 275

C33 277 35 279 37 279

C39 279 40 278 40 277

Z

M48 276

C48 274 45 272 44 274

C42 275 44 278 46 278

C47 278 48 277 48 276

Z

M57 275

C57 272 53 271 52 273

C51 275 52 277 54 277

C56 277 57 276 57 275

Z

M65 276

C66 275 65 272 63 272

C61 272 60 274 60 276

C61 277 65 278 65 276

Z

M95 276

C95 276 94 274 93 273

L90 271

L90 247

L90 222

L93 220

C94 219 95 217 95 217

C95 216 92 216 88 216

L82 216

L84 219

L87 222

L87 246

L87 271

L84 274

L82 277

L88 277

C92 277 95 277 95 276

Z

M119 275

C119 272 117 271 115 272

C114 272 114 275 115 276

C116 278 118 277 119 275

Z

M156 275

C156 273 155 273 154 273

C152 273 151 273 151 275

C151 277 151 277 154 277

C156 277 156 277 156 275

Z

M181 275

C182 274 182 274 181 272

C179 271 179 271 177 272

C176 274 176 277 178 277

C179 277 180 276 181 275

Z

M213 276

C213 276 212 274 211 274

C209 272 209 270 209 247

C209 223 209 221 211 220

C212 219 213 217 213 217

C213 216 210 216 206 216

L200 216

L202 219

L205 222

L205 247

L205 271

L202 274

L200 277

L206 277

C210 277 213 277 213 276

Z

M331 276

C331 276 330 274 329 274

C327 272 327 270 327 247

C327 223 327 221 329 220

C332 217 331 216 325 216

C319 216 318 217 321 220

C323 221 323 223 323 247

C323 270 323 272 321 274

C318 276 319 277 325 277

C328 277 331 277 331 276

Z

M448 274

L445 271

L445 247

L445 222

L448 219

L450 216

L444 216

C440 216 437 216 437 217

C437 217 438 219 439 220

C441 221 441 223 441 247

C441 270 441 272 439 274

C438 274 437 276 437 276

C437 277 440 277 444 277

L450 277

L448 274

Z

M567 275

C567 274 565 273 565 272

C563 271 563 267 563 246

L563 222

L566 219

L568 216

L562 216

C558 216 555 216 555 217

C555 217 556 218 557 220

C559 222 559 223 559 247

C559 270 559 271 557 273

C556 275 555 276 555 276

C555 277 558 277 562 277

C568 277 568 277 567 275

Z

M76 274

C76 271 72 270 71 272

C69 274 71 276 73 276

C75 276 76 275 76 274

Z

M199 274

C199 271 198 270 196 271

C194 271 193 274 195 275

C196 277 198 276 199 274

Z

M14 273

C14 271 13 271 12 271

C10 271 9 271 9 273

C9 275 9 275 12 275

C14 275 14 275 14 273

Z

M105 273

C105 270 101 270 100 273

C100 275 100 275 102 275

C104 275 105 274 105 273

Z

M142 272

C142 269 138 269 137 272

C137 274 137 274 139 274

C141 274 142 273 142 272

Z

M173 272

C174 270 173 268 171 268

C169 268 168 270 168 272

C169 273 173 273 173 272

Z

M23 270

C23 267 19 266 18 268

C16 270 18 272 20 272

C22 272 23 271 23 270

Z

M44 270

C45 269 44 268 44 267

C42 266 42 266 40 267

C39 269 39 269 40 270

C42 272 44 272 44 270

Z

M133 270

C133 267 129 266 128 268

C127 270 128 272 130 272

C132 272 133 271 133 270

Z

M191 270

C192 269 192 269 191 267

C189 266 189 266 187 267

C186 269 186 269 187 270

C188 271 189 272 189 272

C189 272 190 271 191 270

Z

M53 269

C54 267 53 265 51 265

C49 265 48 267 48 269

C49 270 53 270 53 269

Z

M97 269

C98 267 97 265 95 265

C93 265 92 267 92 269

C93 270 97 270 97 269

Z

M165 267

C165 265 164 264 163 264

C161 264 159 266 160 269

C161 271 165 270 165 267

Z

M79 267

C80 266 80 266 79 264

C77 263 77 263 75 264

C74 266 74 266 75 267

C76 268 77 269 77 269

C77 269 78 268 79 267

Z

M62 267

C63 265 62 263 60 263

C58 263 57 265 57 267

C58 268 62 268 62 267

Z

M120 266

C120 264 119 263 118 263

C117 263 116 263 115 264

C114 266 116 268 118 268

C119 268 120 267 120 266

Z

M184 265

C184 263 183 262 182 262

C180 262 178 264 179 267

C180 269 184 268 184 265

Z

M107 265

C107 262 103 261 102 263

C100 265 102 267 104 267

C106 267 107 266 107 265

Z

M156 265

C157 264 157 264 156 262

C154 261 154 261 152 262

C151 264 151 264 152 265

C153 266 154 267 154 267

C154 267 155 266 156 265

Z

M40 264

C40 261 36 260 35 262

C33 264 35 266 37 266

C39 266 40 265 40 264

Z

M72 264

C72 261 68 260 67 262

C65 264 67 266 69 266

C71 266 72 265 72 264

Z

M48 261

C48 259 47 258 46 258

C44 258 42 260 43 263

C44 265 48 264 48 261

Z

M176 262

C177 261 177 261 176 259

C175 258 173 258 173 258

C171 259 170 263 172 263

C174 264 175 264 176 262

Z

M132 262

C133 260 132 258 130 258

C128 258 127 260 127 262

C128 263 132 263 132 262

Z

M141 261

C142 259 141 258 139 258

C137 258 136 260 136 262

C137 263 141 263 141 261

Z

M57 259

C57 256 53 255 52 257

C51 259 52 261 54 261

C56 261 57 260 57 259

Z

M109 258

C110 257 110 257 109 255

C107 254 107 254 105 255

C104 257 104 257 105 258

C106 259 107 260 107 260

C107 260 108 259 109 258

Z

M121 258

C121 255 117 254 116 256

C114 258 116 260 118 260

C120 260 121 259 121 258

Z

M168 259

C169 257 168 255 166 255

C164 255 163 257 163 259

C164 260 168 260 168 259

Z

M65 258

C66 256 66 256 65 255

C63 253 61 253 60 255

C60 256 62 259 63 259

C63 259 64 258 65 258

Z

M74 257

C75 255 75 255 74 254

C72 252 70 252 70 254

C69 255 71 258 72 258

C72 258 73 257 74 257

Z

M160 254

C160 252 159 252 158 252

C155 252 154 255 156 256

C158 257 160 257 160 254

Z

M84 254

C84 251 80 250 79 252

C77 254 79 256 81 256

C83 256 84 255 84 254

Z

M129 254

C129 251 125 250 124 252

C123 254 124 256 126 256

C128 256 129 255 129 254

Z

M102 253

C103 251 102 250 100 250

C98 250 97 252 97 254

C98 255 102 255 102 253

Z

M113 250

C113 248 112 248 111 248

C108 248 107 251 109 252

C111 253 113 252 113 250

Z

M138 250

C138 249 137 248 135 248

C134 248 133 248 133 250

C133 251 133 252 134 252

C135 254 138 252 138 250

Z

M121 250

C121 247 119 246 117 247

C116 247 116 250 117 251

C118 253 120 252 121 250

Z

M34 241

L31 238

L31 214

L31 189

L34 187

C35 186 36 184 36 184

C36 183 33 183 30 183

C26 183 23 183 23 184

C23 184 24 186 26 187

L28 189

L28 214

L28 238

L25 241

L23 244

L30 244

L36 244

L34 241

Z

M154 243

C154 243 153 241 152 240

L149 238

L149 214

L149 189

L152 187

C153 186 154 184 154 184

C154 183 151 183 147 183

L141 183

L143 186

L146 189

L146 214

L146 238

L143 241

L141 244

L147 244

C151 244 154 244 154 243

Z

M272 243

C272 243 271 241 270 241

C268 239 268 237 268 214

C268 190 268 188 270 187

C273 184 272 183 266 183

C260 183 259 184 262 187

C264 188 264 190 264 214

C264 237 264 239 262 241

C259 243 260 244 266 244

C269 244 272 244 272 243

Z

M390 243

C390 243 389 241 388 241

C386 239 386 237 386 214

C386 190 386 188 388 187

C391 184 390 183 384 183

C378 183 377 184 380 187

C382 188 382 190 382 214

C382 237 382 239 380 241

C377 243 378 244 384 244

C387 244 390 244 390 243

Z

M507 241

L504 238

L504 214

L504 189

L507 186

L509 183

L503 183

C499 183 496 183 496 184

C496 184 497 186 498 187

C500 188 500 190 500 214

C500 237 500 239 498 241

C497 241 496 243 496 243

C496 244 499 244 503 244

L509 244

L507 241

Z

M402 228

C402 225 398 224 397 226

C396 228 397 230 399 230

C401 230 402 229 402 228

Z

M410 229

C411 228 410 225 408 225

C406 225 405 227 405 229

C406 230 410 231 410 229

Z

M419 228

C419 225 415 224 414 226

C412 228 414 230 416 230

C418 230 419 229 419 228

Z

M393 226

C393 224 392 223 391 223

C389 223 387 225 388 228

C389 230 393 229 393 226

Z

M427 227

C427 225 426 224 425 224

C424 224 423 224 422 225

C421 227 423 229 425 229

C426 229 427 228 427 227

Z

M435 225

C435 223 434 222 433 222

C431 222 429 224 430 227

C431 229 435 228 435 225

Z

M379 220

C379 217 375 216 374 218

C373 221 375 223 377 223

C378 223 379 222 379 220

Z

M456 221

C456 218 452 217 451 219

C449 221 451 223 453 223

C455 223 456 222 456 221

Z

M476 217

C476 215 475 215 474 215

C471 215 470 218 472 219

C474 220 476 220 476 217

Z

M371 217

C372 215 371 214 369 214

C367 214 366 216 366 218

C367 219 371 219 371 217

Z

M463 217

C463 214 459 213 458 215

C456 217 458 219 460 219

C462 219 463 218 463 217

Z

M524 216

C525 214 525 214 524 213

C522 211 520 211 519 213

C519 214 521 217 522 217

C522 217 523 216 524 216

Z

M533 213

C533 211 533 211 531 211

C529 211 528 212 528 213

C528 217 532 217 533 213

Z

M470 213

C470 210 466 209 465 211

C464 211 464 212 465 213

C466 216 470 215 470 213

Z

M480 213

C482 213 482 209 480 208

C478 207 476 210 477 212

C478 214 478 214 480 213

Z

M490 213

C491 211 491 211 490 210

C488 208 486 208 485 210

C485 211 487 214 488 214

C488 214 489 213 490 213

Z

M516 213

C517 211 516 209 514 209

C512 209 511 211 511 213

C512 214 514 214 516 213

Z

M541 213

C543 211 542 208 539 208

C537 208 536 211 537 213

C539 214 539 214 541 213

Z

M379 212

C380 210 379 207 377 207

C374 207 373 210 375 212

C377 213 377 213 379 212

Z

M393 212

C394 210 394 207 392 207

C391 207 390 208 389 209

C388 210 388 210 389 212

C391 213 391 213 393 212

Z

M401 212

C403 212 403 208 401 207

C399 206 397 209 398 211

C399 213 399 213 401 212

Z

M94 211

C95 211 94 209 92 208

L90 206

L90 181

L90 156

L93 154

C94 153 95 151 95 151

C95 150 92 150 89 150

C85 150 82 150 82 151

C82 151 83 153 85 154

L87 156

L87 181

L87 206

L85 208

C83 209 82 211 83 211

C83 212 86 212 89 212

C91 212 94 212 94 211

Z

M213 211

C213 210 212 208 211 208

C209 206 209 204 209 181

C209 157 209 155 211 154

C214 151 213 150 207 150

C204 150 201 150 201 151

C201 151 202 152 203 154

C205 156 205 158 205 181

L205 206

L203 208

C201 209 200 211 201 211

C201 212 204 212 207 212

C211 212 213 212 213 211

Z

M331 211

C331 210 330 208 329 208

C327 206 327 204 327 181

C327 157 327 155 329 154

C332 151 331 150 325 150

C319 150 318 151 321 154

C323 155 323 157 323 181

C323 204 323 206 321 208

C317 211 318 212 325 212

C329 212 331 212 331 211

Z

M371 209

C371 207 370 207 369 207

C366 207 365 210 367 211

C369 212 371 211 371 209

Z

M411 211

C412 209 412 209 411 208

C409 206 407 206 406 208

C406 209 408 212 409 212

C409 212 410 211 411 211

Z

M449 211

C450 211 449 209 447 208

L445 206

L445 181

L445 157

L448 154

L450 151

L444 150

C441 150 438 150 437 150

C437 151 438 152 439 153

C441 156 441 156 441 181

C441 204 441 206 439 208

C438 210 437 211 437 211

C437 212 449 212 449 211

Z

M567 211

C568 211 567 209 565 208

L563 206

L563 181

L563 156

L566 154

C567 153 568 151 568 151

C568 150 565 150 562 150

C558 150 555 150 555 151

C555 151 556 152 557 154

C559 156 559 157 559 181

C559 205 559 206 557 208

C556 210 555 211 556 211

C557 212 567 212 567 211

Z

M457 208

C457 206 456 206 455 206

C452 206 451 209 453 210

C455 211 457 210 457 208

Z

M363 208

C363 208 363 206 362 205

C360 204 360 204 359 206

C357 207 357 208 358 209

C360 210 362 210 363 208

Z

M420 208

C420 205 418 204 416 205

C415 205 415 208 416 209

C417 211 419 210 420 208

Z

M498 208

C498 205 496 204 494 205

C493 205 493 208 494 209

C495 211 497 210 498 208

Z

M550 208

C550 208 550 206 549 205

C547 203 544 206 545 208

C545 210 549 211 550 208

Z

M464 206

C464 204 463 204 462 204

C459 204 458 207 460 208

C462 209 464 208 464 206

Z

M354 205

C354 203 353 203 352 203

C349 203 348 206 350 207

C352 208 354 207 354 205

Z

M429 206

C429 206 429 204 428 203

C426 201 423 204 424 206

C424 208 428 209 429 206

Z

M511 205

C511 203 510 203 509 203

C506 203 505 206 507 207

C509 208 511 207 511 205

Z

M487 205

C487 201 482 200 481 203

C480 205 483 207 485 206

C486 205 487 205 487 205

Z

M556 204

C558 203 558 202 557 201

C556 201 555 200 554 200

C552 200 552 203 553 205

C555 206 555 206 556 204

Z

M346 202

C346 199 342 198 341 200

C339 202 341 204 343 204

C345 204 346 203 346 202

Z

M436 202

C436 202 436 200 435 199

C434 198 433 198 431 199

C430 201 430 201 431 202

C433 204 435 204 436 202

Z

M463 198

C464 197 463 196 463 195

C461 194 461 194 459 195

C458 197 459 200 461 200

C462 200 463 199 463 198

Z

M487 196

C487 194 486 193 484 193

C482 193 482 193 482 196

C482 198 482 198 484 198

C486 198 487 197 487 196

Z

M571 195

C571 193 569 191 567 193

C566 193 566 196 567 197

C568 199 570 197 571 195

Z

M432 194

C432 192 429 190 428 192

C426 193 428 196 430 196

C431 196 432 195 432 194

Z

M525 194

C525 191 521 190 520 192

C519 194 520 196 522 196

C524 196 525 195 525 194

Z

M533 193

C533 190 529 189 528 191

C527 194 529 196 531 196

C532 196 533 195 533 193

Z

M541 191

C541 188 537 187 536 189

C535 192 537 194 539 194

C540 194 541 193 541 191

Z

M518 191

C518 188 514 187 513 189

C512 191 513 193 515 193

C517 193 518 192 518 191

Z

M454 190

C454 187 450 186 449 188

C447 190 449 192 451 192

C453 192 454 191 454 190

Z

M578 190

C578 187 574 187 573 190

C573 192 573 192 575 192

C577 192 578 191 578 190

Z

M464 189

C464 186 460 185 459 187

C457 189 459 191 461 191

C463 191 464 190 464 189

Z

M549 189

C549 187 548 186 547 186

C546 186 545 186 544 187

C543 189 545 191 547 191

C548 191 549 190 549 189

Z

M426 187

C426 184 422 183 421 185

C420 188 422 190 424 190

C425 190 426 189 426 187

Z

M487 187

C487 185 486 184 485 184

C483 184 481 186 482 189

C483 191 487 190 487 187

Z

M524 187

C525 185 524 183 522 183

C520 183 519 185 519 187

C520 188 524 188 524 187

Z

M557 187

C558 185 556 181 554 182

C552 183 551 186 553 187

C554 188 556 188 557 187

Z

M584 185

C585 184 585 184 584 182

C582 181 582 181 580 182

C579 184 579 184 580 185

C581 186 582 187 582 187

C582 187 583 186 584 185

Z

M494 183

C494 180 490 179 489 181

C487 183 489 185 491 185

C493 185 494 184 494 183

Z

M422 180

C422 178 421 177 420 177

C418 177 416 179 417 182

C418 184 422 183 422 180

Z

M439 180

C439 178 438 178 437 178

C434 178 433 181 435 182

C437 183 439 183 439 180

Z

M464 181

C464 178 460 177 459 179

C457 181 459 183 461 183

C463 183 464 182 464 181

Z

M356 181

C358 181 358 177 356 176

C356 176 354 176 353 177

C352 179 352 179 353 180

C354 182 354 182 356 181

Z

M571 180

C571 178 570 177 568 177

C566 177 566 177 566 180

C566 182 566 182 568 182

C570 182 571 181 571 180

Z

M350 179

C350 176 346 175 345 177

C344 177 344 178 345 179

C346 182 350 181 350 179

Z

M374 180

C375 178 375 178 374 177

C372 175 370 175 370 177

C369 178 371 181 372 181

C372 181 373 180 374 180

Z

M485 180

C487 179 486 176 484 175

C482 175 480 177 481 180

C482 181 483 181 485 180

Z

M529 179

C529 177 528 176 526 176

C524 176 524 176 524 179

C524 181 524 181 526 181

C528 181 529 180 529 179

Z

M36 178

C36 178 35 176 34 175

L31 173

L31 148

L31 123

L34 121

C35 120 36 118 36 118

C36 117 33 117 30 117

C26 117 23 117 23 118

C23 118 24 120 26 121

L28 123

L28 148

L28 173

L26 175

C24 176 23 178 23 178

C23 179 26 179 30 179

C33 179 36 179 36 178

Z

M154 178

C154 178 153 176 152 175

L149 172

L149 148

L149 124

L152 121

C153 120 154 118 154 118

C154 117 142 117 142 118

C141 118 142 120 144 121

L146 123

L146 148

L146 173

L144 175

C142 176 141 178 142 178

C142 179 154 179 154 178

Z

M272 178

C272 178 271 176 270 176

C268 174 268 172 268 148

C268 124 268 122 270 121

C273 118 272 117 266 117

C259 117 258 118 262 122

C264 123 264 125 264 148

C264 171 264 173 262 175

C258 178 259 179 266 179

C269 179 272 179 272 178

Z

M339 176

C339 174 338 174 337 174

C334 174 333 177 335 178

C337 179 339 178 339 176

Z

M390 178

C390 177 389 175 388 175

C386 173 386 171 386 148

C386 125 386 123 388 122

C392 118 391 117 384 117

C378 117 377 118 380 121

C382 122 382 124 382 148

C382 171 382 173 380 175

C376 178 377 179 384 179

C388 179 390 179 390 178

Z

M508 178

C509 178 508 176 506 175

L504 173

L504 148

L504 123

L506 121

C508 120 509 118 508 118

C508 117 496 117 496 118

C496 118 497 120 498 121

C500 122 500 124 500 148

C500 172 500 174 498 176

C497 176 496 178 496 178

C496 179 508 179 508 178

Z

M579 176

C579 173 575 172 574 174

C573 177 575 179 577 179

C578 179 579 178 579 176

Z

M320 176

C321 174 319 171 317 172

C315 173 314 177 316 177

C318 178 319 178 320 176

Z

M365 177

C366 175 366 175 365 174

C363 172 361 172 360 174

C360 175 362 178 363 178

C363 178 364 177 365 177

Z

M432 177

C433 175 433 172 431 172

C430 172 429 173 428 174

C427 175 427 175 428 177

C430 178 430 178 432 177

Z

M397 175

C397 172 393 171 392 173

C391 175 392 177 394 177

C396 177 397 176 397 175

Z

M311 173

C311 172 311 171 309 171

C307 171 306 173 306 175

C307 177 310 176 311 173

Z

M418 175

C419 173 418 170 416 170

C413 170 412 173 414 175

C416 176 416 176 418 175

Z

M302 172

C302 170 302 170 300 170

C298 170 297 171 297 172

C297 176 301 176 302 172

Z

M586 174

C587 172 587 169 585 169

C584 169 583 170 582 171

C581 172 581 172 582 174

C584 175 584 175 586 174

Z

M346 171

C346 169 346 169 344 169

C342 169 341 170 341 171

C341 175 345 175 346 171

Z

M357 172

C358 171 358 170 357 169

C354 166 351 170 353 173

C355 174 356 174 357 172

Z

M405 171

C405 169 404 169 403 169

C400 169 399 172 401 173

C403 174 405 173 405 171

Z

M465 172

C465 169 461 168 460 170

C458 172 460 174 462 174

C464 174 465 173 465 172

Z

M513 172

C513 169 509 168 508 170

C507 170 507 171 508 172

C509 175 513 174 513 172

Z

M533 172

C534 170 533 169 531 169

C529 169 528 171 528 173

C529 174 533 174 533 172

Z

M293 172

C294 170 293 167 291 167

C288 167 287 170 289 172

C291 173 291 173 293 172

Z

M427 171

C429 169 428 166 425 166

C423 166 422 169 423 171

C425 172 425 172 427 171

Z

M485 170

C485 167 481 166 480 168

C479 170 481 172 483 172

C484 172 485 171 485 170

Z

M369 168

C369 166 368 166 367 166

C364 166 363 169 365 170

C367 171 369 170 369 168

Z

M378 168

C378 166 377 166 376 166

C373 166 372 169 374 170

C376 171 378 170 378 168

Z

M285 168

C285 168 285 166 284 165

C282 164 282 164 281 166

C279 167 279 168 280 169

C282 170 284 170 285 168

Z

M413 168

C413 165 411 164 409 165

C408 165 408 168 409 169

C410 171 412 170 413 168

Z

M519 168

C520 167 520 166 518 165

C517 163 517 163 515 164

C514 166 514 169 516 169

C517 169 518 168 519 168

Z

M276 165

C276 163 275 163 274 163

C271 163 270 166 272 167

C274 168 276 167 276 165

Z

M308 165

C308 163 307 163 306 163

C303 163 302 166 304 167

C306 168 308 167 308 165

Z

M343 164

C343 162 342 162 341 162

C338 162 337 165 339 166

C341 167 343 166 343 164

Z

M393 166

C394 165 394 164 393 163

C391 161 388 162 388 164

C388 167 391 168 393 166

Z

M299 163

C299 161 298 161 297 161

C294 161 293 164 295 165

C297 166 299 165 299 163

Z

M357 162

C356 160 352 160 352 161

C351 162 352 164 353 165

C354 166 354 166 356 165

C357 164 357 162 357 162

Z

M421 164

C421 164 421 162 420 161

C418 160 418 160 416 161

C416 162 415 163 416 164

C416 166 420 167 421 164

Z

M466 164

C466 161 464 160 462 161

C461 161 461 164 462 165

C463 167 465 166 466 164

Z

M537 165

C538 164 537 161 535 161

C533 161 532 163 532 165

C533 166 537 167 537 165

Z

M11 162

C11 160 10 160 9 160

C6 160 5 163 7 164

C9 165 11 164 11 162

Z

M316 163

C316 160 314 159 312 160

C311 160 311 163 312 164

C313 166 315 165 316 163

Z

M290 160

C289 159 288 158 287 158

C285 159 284 162 286 163

C288 164 290 162 290 160

Z

M402 161

C402 159 399 157 397 160

C396 161 396 162 397 163

C399 165 401 164 402 161

Z

M483 162

C484 161 484 161 483 159

C481 158 481 158 479 159

C478 161 478 164 480 164

C481 164 482 163 483 162

Z

M334 161

C334 159 333 159 332 159

C330 159 329 159 329 161

C329 163 329 163 332 163

C334 163 334 163 334 161

Z

M281 161

C282 159 280 156 278 157

C276 157 275 160 277 161

C278 162 280 162 281 161

Z

M428 160

C428 157 427 156 425 157

C423 157 422 160 424 161

C425 163 427 162 428 160

Z

M524 161

C525 159 524 157 522 157

C520 157 519 159 519 161

C520 162 524 162 524 161

Z

M259 160

C260 158 259 156 257 156

C255 156 254 158 254 160

C255 161 259 161 259 160

Z

M369 160

C370 159 369 156 367 156

C365 156 364 158 364 160

C365 161 369 162 369 160

Z

M410 158

C410 155 406 155 405 158

C405 160 405 160 407 160

C409 160 410 159 410 158

Z

M18 157

C18 154 14 153 13 155

C11 157 13 159 15 159

C17 159 18 158 18 157

Z

M379 157

C379 154 375 153 374 155

C372 157 374 159 376 159

C378 159 379 158 379 157

Z

M541 157

C542 156 542 156 541 154

C539 153 539 153 537 154

C536 156 536 156 537 157

C538 158 539 159 539 159

C539 159 540 158 541 157

Z

M251 156

C251 153 247 152 246 154

C244 156 246 158 248 158

C250 158 251 157 251 156

Z

M342 156

C342 153 338 152 337 154

C335 156 337 158 339 158

C341 158 342 157 342 156

Z

M436 155

C436 153 433 151 431 153

C430 155 430 155 431 156

C433 159 435 158 436 155

Z

M468 156

C468 156 468 154 467 153

C465 152 465 152 463 153

C462 155 462 155 463 156

C465 158 467 158 468 156

Z

M312 155

C312 153 309 151 308 153

C306 154 308 157 310 157

C311 157 312 156 312 155

Z

M356 154

C356 152 353 150 351 152

C350 154 350 154 351 155

C353 158 355 157 356 154

Z

M418 154

C418 152 417 151 416 151

C414 151 412 153 413 156

C414 158 418 157 418 154

Z

M293 155

C294 154 293 151 291 151

C289 151 288 153 288 155

C289 156 293 157 293 155

Z

M302 154

C302 152 301 152 300 152

C298 152 297 152 297 154

C297 156 297 156 300 156

C302 156 302 156 302 154

Z

M393 154

C393 151 389 150 388 152

C387 154 388 156 390 156

C392 156 393 155 393 154

Z

M482 154

C483 153 483 153 482 151

C480 150 477 151 477 153

C477 156 480 157 482 154

Z

M530 154

C530 152 529 151 527 151

C525 151 525 151 525 154

C525 156 525 156 527 156

C529 156 530 155 530 154

Z

M285 153

C285 150 281 149 280 151

C279 153 280 155 282 155

C284 155 285 154 285 153

Z

M242 151

C242 148 238 147 237 149

C236 152 238 154 240 154

C241 154 242 153 242 151

Z

M276 152

C276 150 275 149 274 149

C273 149 272 149 271 150

C270 152 272 154 274 154

C275 154 276 153 276 152

Z

M401 151

C401 148 397 147 396 149

C395 151 396 153 398 153

C400 153 401 152 401 151

Z

M426 151

C426 148 422 147 421 149

C419 151 421 153 423 153

C425 153 426 152 426 151

Z

M369 150

C369 148 368 147 366 147

C364 147 364 147 364 150

C364 152 364 152 366 152

C368 152 369 151 369 150

Z

M260 149

C260 146 256 145 255 147

C254 149 255 151 257 151

C259 151 260 150 260 149

Z

M409 148

C409 146 408 145 407 145

C405 145 403 147 404 150

C405 152 409 151 409 148

Z

M545 148

C545 145 541 144 540 146

C539 149 541 151 543 151

C544 151 545 150 545 148

Z

M308 148

C308 146 307 145 306 145

C305 145 304 145 303 146

C302 148 304 150 306 150

C307 150 308 149 308 148

Z

M342 148

C342 146 341 145 340 145

C339 145 338 145 337 146

C336 148 338 150 340 150

C341 150 342 149 342 148

Z

M433 147

C433 144 429 143 428 145

C427 148 429 150 431 150

C432 150 433 149 433 147

Z

M251 146

C251 145 251 144 249 144

C247 144 246 146 246 148

C247 150 250 149 251 146

Z

M355 147

C356 145 354 142 352 143

C350 144 349 148 351 148

C353 149 354 149 355 147

Z

M470 147

C470 144 466 143 465 145

C463 147 465 149 467 149

C469 149 470 148 470 147

Z

M536 147

C536 145 535 144 533 144

C531 144 531 144 531 147

C531 149 531 149 533 149

C535 149 536 148 536 147

Z

M416 146

C417 145 417 145 416 143

C414 142 414 142 412 143

C411 145 411 145 412 146

C413 147 414 148 414 148

C414 148 415 147 416 146

Z

M480 145

C480 143 479 142 478 142

C476 142 474 144 475 147

C476 149 480 148 480 145

Z

M242 145

C243 144 243 144 242 142

C240 141 240 141 238 142

C237 144 237 144 238 145

C239 146 240 147 240 147

C240 147 241 146 242 145

Z

M95 145

C95 145 94 143 93 142

L90 140

L90 115

L90 90

L92 88

C94 87 95 85 94 85

C94 84 91 84 89 84

C86 84 83 84 83 85

C82 85 83 87 85 88

L87 90

L87 115

L87 140

L85 142

C83 143 82 145 82 145

C82 146 85 146 89 146

C92 146 95 146 95 145

Z

M213 145

C213 145 212 143 211 143

C209 141 209 139 209 116

C209 92 209 90 211 89

C215 85 214 84 207 84

C204 84 201 84 201 85

C200 85 201 87 203 88

L205 90

L205 115

C205 138 205 140 203 142

C199 145 200 146 207 146

C210 146 213 146 213 145

Z

M316 143

C316 141 315 140 314 140

C312 140 310 142 311 145

C312 147 316 146 316 143

Z

M331 145

C331 145 330 143 329 143

C327 141 327 139 327 116

C327 92 327 90 329 89

C333 85 332 84 325 84

C318 84 317 85 321 89

C323 90 323 92 323 116

C323 139 323 141 321 143

C318 145 319 146 325 146

C328 146 331 146 331 145

Z

M449 145

C450 145 449 143 447 142

L445 140

L445 115

L445 90

L447 88

C449 87 450 85 449 85

C449 84 437 84 437 85

C437 85 438 87 439 88

C441 89 441 91 441 115

C441 139 441 141 439 143

C438 143 437 145 437 145

C437 146 449 146 449 145

Z

M568 145

C568 145 567 143 566 142

L563 140

L563 115

L563 90

L565 88

C567 87 568 85 567 85

C567 84 557 84 556 85

C555 85 556 86 557 88

C559 90 559 91 559 115

C559 139 559 140 557 142

C556 144 555 145 555 145

C555 146 558 146 562 146

C565 146 568 146 568 145

Z

M424 142

C424 139 420 138 419 140

C418 143 420 145 422 145

C423 145 424 144 424 142

Z

M234 142

C235 140 234 139 232 139

C230 139 229 141 229 143

C230 144 234 144 234 142

Z

M303 141

C304 140 304 140 303 138

C301 137 301 137 299 138

C298 140 298 140 299 141

C300 142 301 143 301 143

C301 143 302 142 303 141

Z

M368 141

C369 139 368 138 366 138

C364 138 363 140 363 142

C364 143 368 143 368 141

Z

M408 142

C410 141 409 138 407 137

C405 137 403 139 404 142

C405 143 406 143 408 142

Z

M548 140

C548 139 548 138 546 138

C544 138 543 140 543 142

C544 144 547 143 548 140

Z

M392 141

C394 141 394 137 392 136

C392 136 390 136 389 137

C388 139 388 139 389 140

C390 142 390 142 392 141

Z

M541 139

C541 137 541 137 539 137

C537 137 536 138 536 139

C536 143 540 143 541 139

Z

M226 140

C227 138 226 136 224 136

C222 136 221 138 221 140

C222 141 226 141 226 140

Z

M335 138

C335 136 335 136 333 136

C331 136 330 137 330 138

C330 142 334 142 335 138

Z

M343 138

C343 136 343 136 341 136

C339 136 338 137 338 138

C338 142 342 142 343 138

Z

M431 138

C431 137 431 136 429 136

C427 136 426 138 426 140

C427 142 430 141 431 138

Z

M472 139

C472 136 468 135 467 137

C466 137 466 138 467 139

C468 142 472 141 472 139

Z

M355 138

C355 135 351 134 350 136

C349 138 350 140 352 140

C354 140 355 139 355 138

Z

M376 138

C376 135 372 134 371 136

C369 138 371 140 373 140

C375 140 376 139 376 138

Z

M479 138

C479 135 475 134 474 136

C473 138 474 140 476 140

C478 140 479 139 479 138

Z

M311 136

C311 135 311 134 309 134

C307 134 306 136 306 138

C307 140 310 139 311 136

Z

M455 137

C455 134 451 133 450 135

C448 137 450 139 452 139

C454 139 455 138 455 137

Z

M219 136

C219 133 215 132 214 134

C213 134 213 135 214 136

C215 139 219 138 219 136

Z

M438 137

C439 135 439 135 438 134

C436 132 434 132 433 134

C433 135 435 138 436 138

C436 138 437 137 438 137

Z

M412 133

C412 131 411 131 410 131

C407 131 406 134 408 135

C410 136 412 135 412 133

Z

M299 132

C299 130 299 130 297 130

C295 130 294 131 294 132

C294 136 298 136 299 132

Z

M367 134

C368 132 367 129 365 129

C362 129 361 132 363 134

C365 135 365 135 367 134

Z

M399 133

C399 130 395 129 394 131

C393 133 395 135 397 135

C398 135 399 134 399 133

Z

M547 133

C547 130 543 129 542 131

C541 131 541 132 542 133

C543 136 547 135 547 133

Z

M344 132

C346 130 345 127 342 127

C340 127 339 130 340 132

C342 133 342 133 344 132

Z

M461 130

C461 128 460 128 459 128

C456 128 455 131 457 132

C459 133 461 132 461 130

Z

M474 131

C474 128 470 127 469 129

C468 129 468 130 469 131

C470 134 474 133 474 131

Z

M306 129

C306 127 306 127 304 127

C302 127 301 128 301 129

C301 133 305 133 306 129

Z

M319 130

C319 127 315 126 314 128

C313 128 313 129 314 130

C315 133 319 132 319 130

Z

M355 131

C356 129 355 127 353 127

C351 127 350 129 350 131

C351 132 353 132 355 131

Z

M452 130

C453 128 452 125 450 125

C447 125 446 128 448 130

C450 131 450 131 452 130

Z

M404 127

C404 123 399 122 398 125

C397 127 400 129 402 128

C403 127 404 127 404 127

Z

M295 125

C295 123 294 123 293 123

C290 123 289 126 291 127

C293 128 295 127 295 125

Z

M415 126

C415 123 413 122 411 123

C410 123 410 126 411 127

C412 129 414 128 415 126

Z

M551 126

C551 123 549 122 547 123

C546 123 546 126 547 127

C548 129 550 128 551 126

Z

M312 124

C312 122 311 122 310 122

C307 122 306 125 308 126

C310 127 312 126 312 124

Z

M393 126

C394 124 391 122 390 122

C388 123 387 125 389 126

C390 128 393 127 393 126

Z

M366 124

C367 123 367 123 366 121

C364 120 364 120 362 121

C361 123 361 126 363 126

C364 126 365 125 366 124

Z

M459 124

C460 123 459 122 459 121

C457 120 457 120 455 121

C454 122 454 124 454 124

C455 127 459 126 459 124

Z

M475 123

C475 120 473 119 471 120

C470 120 470 123 471 124

C472 126 474 125 475 123

Z

M346 122

C346 119 345 118 343 119

C341 119 340 122 342 123

C343 125 345 124 346 122

Z

M306 119

C306 119 306 117 305 116

C303 115 303 115 301 116

C300 118 300 118 301 119

C303 121 305 121 306 119

Z

M399 118

C399 116 396 114 394 117

C393 118 393 119 394 120

C396 122 398 121 399 118

Z

M467 119

C467 116 463 115 462 117

C460 119 462 121 464 121

C466 121 467 120 467 119

Z

M291 118

C292 117 292 117 291 115

C289 114 289 114 287 115

C286 117 286 120 288 120

C289 120 290 119 291 118

Z

M418 118

C418 115 414 114 413 116

C411 118 413 120 415 120

C417 120 418 119 418 118

Z

M365 116

C366 115 366 115 365 113

C363 112 363 112 361 113

C360 115 360 118 362 118

C363 118 364 117 365 116

Z

M348 114

C348 114 348 112 347 111

C345 110 345 110 343 111

C342 113 342 113 343 114

C345 116 347 116 348 114

Z

M474 114

C474 114 474 112 473 111

C471 110 471 110 469 111

C468 113 468 113 469 114

C471 116 473 116 474 114

Z

M300 112

C300 109 296 108 295 110

C294 113 296 115 298 115

C299 115 300 114 300 112

Z

M404 111

C404 108 400 107 399 109

C398 112 400 114 402 114

C403 114 404 113 404 111

Z

M36 112

C36 112 35 110 34 109

L31 107

L31 82

L31 58

L34 55

L36 52

L30 52

L23 52

L25 55

L28 58

L28 82

L28 107

L26 109

C24 110 23 112 23 112

C23 113 26 113 30 113

C33 113 36 113 36 112

Z

M154 112

C154 112 153 110 152 109

L149 107

L149 83

L149 58

L152 56

C153 55 154 53 154 53

C154 52 151 52 147 52

L141 52

L143 55

L146 58

L146 82

C146 103 146 107 144 108

C144 109 142 110 142 111

C141 113 141 113 147 113

C151 113 154 113 154 112

Z

M272 112

C272 112 271 110 270 110

C268 108 268 106 268 83

C268 59 268 57 270 56

C273 53 272 52 266 52

C260 52 259 53 262 56

C264 57 264 59 264 83

C264 106 264 108 262 110

C259 112 260 113 266 113

C269 113 272 113 272 112

Z

M390 112

C390 112 389 110 388 110

C386 108 386 106 386 83

C386 59 386 57 388 56

C391 53 390 52 384 52

C378 52 377 53 380 56

C382 57 382 59 382 83

C382 106 382 108 380 110

C377 112 378 113 384 113

C387 113 390 113 390 112

Z

M420 110

C420 108 419 107 418 107

C416 107 414 109 415 112

C416 114 420 113 420 110

Z

M509 112

C509 112 508 110 507 109

L504 107

L504 82

L504 58

L507 55

L509 52

L503 52

L496 52

L498 55

C500 57 500 58 500 82

C500 106 500 108 498 110

C495 112 496 113 503 113

C506 113 509 113 509 112

Z

M288 111

C289 109 288 107 286 107

C284 107 283 109 283 111

C284 112 288 112 288 111

Z

M364 107

C364 104 360 103 359 105

C358 108 360 110 362 110

C363 110 364 109 364 107

Z

M295 106

C295 104 294 103 292 103

C290 103 290 103 290 106

C290 108 290 108 292 108

C294 108 295 107 295 106

Z

M349 105

C349 103 348 102 347 102

C346 102 345 102 344 103

C343 105 345 107 347 107

C348 107 349 106 349 105

Z

M409 104

C409 103 408 102 406 102

C405 102 404 102 404 104

C404 105 404 106 405 106

C406 108 409 106 409 104

Z

M422 102

C422 99 418 98 417 100

C416 103 418 105 420 105

C421 105 422 104 422 102

Z

M289 101

C290 99 290 99 289 98

C287 96 285 96 284 98

C284 99 286 102 287 102

C287 102 288 101 289 101

Z

M360 101

C362 101 362 97 360 96

C358 95 356 98 357 100

C358 102 358 102 360 101

Z

M414 98

C414 95 410 94 409 96

C407 98 409 100 411 100

C413 100 414 99 414 98

Z

M351 96

C351 95 351 94 349 94

C347 94 346 96 346 98

C347 100 350 99 351 96

Z

M235 94

C235 92 233 90 231 92

C230 92 230 95 231 96

C232 98 234 96 235 94

Z

M425 95

C425 92 421 91 420 93

C419 93 419 94 420 95

C421 98 425 97 425 95

Z

M226 95

C227 93 226 91 224 91

C222 91 221 93 221 95

C222 96 226 96 226 95

Z

M244 94

C244 91 240 90 239 92

C237 94 239 96 241 96

C243 96 244 95 244 94

Z

M218 93

C218 90 214 89 213 91

C212 93 213 95 215 95

C217 95 218 94 218 93

Z

M253 93

C253 93 253 91 252 90

C250 89 250 89 248 90

C247 92 247 92 248 93

C250 95 252 95 253 93

Z

M282 94

C284 94 284 90 282 89

C280 88 278 91 279 93

C280 95 280 95 282 94

Z

M261 92

C262 91 262 91 261 89

C259 88 256 89 256 91

C256 94 259 95 261 92

Z

M361 90

C361 88 358 88 356 89

C355 91 355 91 357 92

C358 94 359 94 360 93

C360 92 361 91 361 90

Z

M299 92

C300 90 299 87 297 87

C294 87 293 90 295 92

C297 93 297 93 299 92

Z

M418 91

C418 88 416 87 414 88

C413 88 413 91 414 92

C415 94 417 93 418 91

Z

M353 89

C354 88 351 86 350 86

C348 87 347 91 349 91

C351 92 353 91 353 89

Z

M276 88

C276 86 275 86 274 86

C271 86 270 89 272 90

C274 91 276 90 276 88

Z

M308 89

C308 86 304 85 303 87

C302 87 302 88 303 89

C304 92 308 91 308 89

Z

M197 88

C198 87 197 86 197 85

C195 84 195 84 193 85

C192 86 192 88 192 88

C193 91 197 90 197 88

Z

M291 88

C292 86 289 83 287 85

C286 86 286 88 286 88

C287 91 291 90 291 88

Z

M316 85

C315 83 311 83 311 84

C310 85 311 87 312 88

C313 89 313 89 315 88

C316 87 316 85 316 85

Z

M189 84

C189 82 187 80 185 82

C184 82 184 85 185 86

C186 88 188 86 189 84

Z

M284 83

C284 81 281 81 279 82

C278 84 278 84 280 85

C281 87 282 87 283 86

C283 85 284 84 284 83

Z

M424 84

C424 81 420 80 419 83

C418 85 419 86 421 86

C423 86 424 85 424 84

Z

M297 82

C297 80 296 80 295 80

C292 80 291 83 293 84

C295 85 297 84 297 82

Z

M357 83

C358 81 357 79 355 79

C353 79 352 81 352 83

C353 84 357 84 357 83

Z

M180 81

C181 79 180 77 178 77

C176 77 175 79 175 81

C176 82 180 82 180 81

Z

M220 80

C221 79 220 78 220 77

C218 76 218 76 216 77

C215 79 216 82 218 82

C219 82 220 81 220 80

Z

M229 79

C229 77 228 77 227 77

C225 77 224 77 224 79

C224 81 224 81 227 81

C229 81 229 81 229 79

Z

M430 79

C430 79 430 77 429 76

C427 75 427 75 425 76

C424 78 424 78 425 79

C427 81 429 81 430 79

Z

M95 79

C95 79 94 77 93 76

L90 74

L90 50

L90 25

L93 23

C94 22 95 20 95 20

C95 19 92 19 88 19

L82 19

L84 22

L87 25

L87 49

L87 73

L84 77

L82 80

L88 80

C92 80 95 80 95 79

Z

M198 77

C198 75 197 74 196 74

C194 74 192 76 193 79

C194 81 198 80 198 77

Z

M213 79

C213 79 212 77 211 77

C209 75 209 73 209 50

C209 26 209 24 211 23

C212 22 213 20 213 20

C213 19 210 19 206 19

L200 19

L202 22

L205 25

L205 50

L205 74

L202 77

L200 80

L206 80

C210 80 213 80 213 79

Z

M238 79

C239 77 238 75 236 75

C234 75 233 77 233 79

C234 80 238 80 238 79

Z

M331 79

C331 79 330 77 329 77

C327 75 327 73 327 50

C327 26 327 24 329 23

C332 20 331 19 325 19

C319 19 318 20 321 23

C323 24 323 26 323 50

C323 73 323 75 321 77

C318 79 319 80 325 80

C328 80 331 80 331 79

Z

M448 77

L445 74

L445 50

L445 25

L448 22

L450 19

L444 19

C440 19 437 19 437 20

C437 20 438 22 439 23

C441 24 441 26 441 50

C441 73 441 75 439 77

C438 77 437 79 437 79

C437 80 440 80 444 80

L450 80

L448 77

Z

M566 77

L563 74

L563 50

L563 25

L566 22

L568 19

L562 19

C558 19 555 19 555 20

C555 20 556 21 557 23

C559 25 559 26 559 50

C559 73 559 74 557 76

C556 78 555 79 555 79

C555 80 558 80 562 80

L568 80

L566 77

Z

M281 78

C282 76 281 74 279 74

C277 74 276 76 276 78

C277 79 281 79 281 78

Z

M189 76

C190 75 190 75 189 73

C187 72 184 73 184 75

C184 78 187 79 189 76

Z

M247 75

C247 73 245 71 243 73

C242 73 242 76 243 77

C244 79 246 77 247 75

Z

M301 75

C301 72 297 71 296 73

C294 75 296 77 298 77

C300 77 301 76 301 75

Z

M360 74

C360 71 356 70 355 72

C354 74 355 76 357 76

C359 76 360 75 360 74

Z

M181 73

C181 70 177 69 176 71

C175 73 176 75 178 75

C180 75 181 74 181 73

Z

M255 72

C255 69 251 68 250 70

C248 72 250 74 252 74

C254 74 255 73 255 72

Z

M335 72

C335 69 331 69 330 72

C330 74 330 74 332 74

C334 74 335 73 335 72

Z

M172 71

C173 70 173 70 172 68

C170 67 170 67 168 68

C167 70 167 70 168 71

C169 72 170 73 170 73

C170 73 171 72 172 71

Z

M280 69

C280 66 276 65 275 67

C274 69 275 71 277 71

C279 71 280 70 280 69

Z

M307 69

C308 68 308 68 307 66

C305 65 305 65 303 66

C302 68 302 68 303 69

C304 70 305 71 305 71

C305 71 306 70 307 69

Z

M164 68

C165 67 165 67 164 65

C162 64 162 64 160 65

C159 67 159 67 160 68

C161 69 162 70 162 70

C162 70 163 69 164 68

Z

M300 67

C300 64 296 63 295 65

C294 68 296 70 298 70

C299 70 300 69 300 67

Z

M247 68

C248 66 247 64 245 64

C243 64 242 66 242 68

C243 69 247 69 247 68

Z

M156 66

C158 65 157 62 155 61

C153 61 151 63 152 66

C153 67 154 67 156 66

Z

M341 65

C341 62 337 61 336 63

C334 65 336 67 338 67

C340 67 341 66 341 65

Z

M313 65

C314 63 314 60 312 60

C311 60 310 61 309 62

C308 63 308 63 309 65

C311 66 311 66 313 65

Z

M239 63

C241 63 241 59 239 58

C239 58 237 58 236 59

C235 61 235 61 236 62

C237 64 237 64 239 63

Z

M280 61

C280 58 276 57 275 59

C274 61 275 63 277 63

C279 63 280 62 280 61

Z

M300 59

C300 57 299 56 298 56

C296 56 294 58 295 61

C296 63 300 62 300 59

Z

M320 59

C321 57 319 54 317 55

C315 56 314 60 316 60

C318 61 319 61 320 59

Z

M344 57

C344 55 343 55 342 55

C339 55 338 58 340 59

C342 60 344 60 344 57

Z

M235 54

C235 53 235 52 233 52

C231 52 230 54 230 56

C231 58 234 57 235 54

Z

M257 56

C258 54 258 54 257 53

C255 51 253 51 252 53

C252 54 254 57 255 57

C255 57 256 56 257 56

Z

M280 53

C280 50 276 49 275 51

C274 53 275 55 277 55

C279 55 280 54 280 53

Z

M299 51

C299 49 298 49 297 49

C294 49 293 52 295 53

C297 54 299 53 299 51

Z

M333 52

C334 50 333 47 331 47

C328 47 327 50 329 52

C331 53 331 53 333 52

Z

M251 49

C251 47 250 47 249 47

C246 47 245 50 247 51

C249 52 251 51 251 49

Z

M348 50

C348 50 348 48 347 47

C345 46 345 46 343 47

C343 48 342 49 343 50

C343 52 347 53 348 50

Z

M231 48

C231 45 229 44 227 45

C226 45 226 48 227 49

C228 51 230 50 231 48

Z

M281 43

C281 41 278 41 276 42

C275 44 275 44 277 45

C278 47 279 47 280 46

C280 45 281 44 281 43

Z

M341 45

C341 42 337 41 336 43

C334 45 336 47 338 47

C340 47 341 46 341 45

Z

M245 44

C246 43 246 43 245 41

C243 40 243 40 241 41

C240 43 240 46 242 46

C243 46 244 45 245 44

Z

M298 44

C298 40 293 39 292 42

C291 44 294 46 296 45

C297 44 298 44 298 44

Z

M348 41

C348 39 347 39 346 39

C343 39 342 42 344 43

C346 44 348 43 348 41

Z

M227 40

C227 38 226 38 225 38

C222 38 221 41 223 42

C225 43 227 42 227 40

Z

M240 37

C240 34 236 33 235 35

C234 37 235 39 237 39

C239 39 240 38 240 37

Z

M283 36

C283 33 279 32 278 34

C277 36 278 38 280 38

C282 38 283 37 283 36

Z

M296 35

C296 32 292 31 291 33

C289 35 291 37 293 37

C295 37 296 36 296 35

Z

M223 32

C223 30 222 29 221 29

C219 29 217 31 218 34

C219 36 223 35 223 32

Z

M234 30

C234 27 230 26 229 29

C228 31 229 32 231 32

C233 32 234 31 234 30

Z

M284 29

C285 27 284 25 282 25

C280 25 279 27 279 29

C280 30 284 30 284 29

Z

M293 27

C293 25 292 24 290 24

C288 24 288 24 288 27

C288 29 288 29 290 29

C292 29 293 28 293 27

Z

M221 24

C221 22 220 21 219 21

C217 21 215 23 216 26

C217 28 221 27 221 24

Z

M229 22

C229 20 228 19 227 19

C225 19 223 21 224 24

C225 26 229 25 229 22

Z

M288 22

C289 20 289 20 288 19

C286 17 284 17 283 19

C283 20 285 23 286 23

C286 23 287 22 288 22

Z

M222 18

C223 16 223 16 222 15

C220 13 218 13 218 15

C217 16 219 19 220 19

C220 19 221 18 222 18

Z

M287 14

C289 13 288 10 286 9

C284 9 282 11 283 14

C284 15 285 15 287 14

Z

"/>

</svg>

