<?xml version="1.0" standalone="no"?>

<!DOCTYPE svg PUBLIC "-//W3C//DTD SVG 20010904//EN"

 "http://www.w3.org/TR/2001/REC-SVG-20010904/DTD/svg10.dtd">

<svg version="1.0" xmlns="http://www.w3.org/2000/svg"

 width="591.000000pt" height="591.000000pt" viewBox="0 0 591.000000 591.000000"

 preserveAspectRatio="xMidYMid meet">

<path fill="#f9f7f5" stroke="none" d="
M0 296

L0 0

L296 0

L591 0

L591 296

L591 591

L296 591

L0 591

L0 296

Z

"/>

<path fill="#6e4844" stroke="none" d="
M0 581

L0 570

L6 573

C10 574 16 576 19 576

L26 578

L30 584

C31 587 33 590 33 590

C33 591 26 591 17 591

L0 591

L0 581

Z

M43 590

C43 589 42 586 40 583

C39 579 37 575 37 573

C36 569 36 569 41 566

C48 561 64 544 64 540

C64 537 60 534 58 534

C56 534 54 536 51 541

C46 548 35 559 33 559

C32 559 28 556 24 552

C20 547 15 544 9 541

L0 537

L0 502

L0 467

L3 469

C5 470 9 471 12 471

C16 473 17 473 17 477

C17 482 19 485 22 485

C26 485 27 483 27 477

C27 472 27 471 31 470

C35 468 35 465 31 461

C29 460 28 457 28 456

C28 454 33 450 40 447

L44 445

L50 448

C69 457 94 456 109 444

C110 443 113 439 115 435

C117 431 120 427 122 426

C126 422 135 419 142 418

L148 418

L148 414

C148 406 145 405 129 411

C119 414 113 418 108 425

C106 428 104 431 104 431

C104 432 101 431 98 429

C86 424 69 423 57 425

C51 427 50 427 49 425

C47 422 45 412 45 402

C44 394 44 393 42 391

C40 390 37 390 35 392

C32 395 34 416 38 427

C40 432 40 432 38 434

C37 436 34 438 32 439

C25 443 21 447 19 450

C18 453 18 453 9 453

L0 453

L0 433

L0 414

L4 417

C9 420 18 424 21 424

C24 424 26 422 26 419

C26 416 25 414 20 413

C12 411 7 407 5 400

C4 398 3 396 2 395

C0 395 0 393 0 316

C0 238 0 237 2 237

C4 238 8 237 9 234

C11 229 6 224 2 225

C0 226 0 221 0 189

L0 151

L7 155

C21 161 38 163 52 158

C61 155 67 151 71 143

C73 139 76 135 78 134

C82 131 91 128 98 128

C102 128 103 128 104 126

C106 122 105 118 102 117

C100 116 98 116 91 118

C76 122 69 126 62 136

L59 140

L53 137

C49 135 44 133 40 132

C33 131 17 130 10 132

C7 132 6 132 5 132

C3 129 2 121 1 110

C1 103 1 98 1 97

C0 97 0 82 0 65

L0 32

L3 31

C5 31 6 29 7 28

C8 25 8 25 6 22

C5 21 3 19 2 19

C0 19 0 18 0 9

L0 0

L17 0

L33 0

L33 4

C33 6 33 7 32 7

C30 7 24 9 22 10

C21 11 21 12 23 15

L25 19

L22 23

C17 28 18 33 24 33

C26 33 28 32 30 29

L33 26

L39 28

C48 31 60 30 63 27

C65 26 56 17 49 13

C43 9 43 9 43 4

L43 0

L73 0

L103 0

L102 4

C102 11 105 19 109 24

C114 28 121 32 124 32

C126 32 128 30 128 27

C128 25 127 23 122 20

C116 16 114 13 112 5

L111 0

L124 0

L136 0

L136 4

C138 10 143 24 146 28

C149 33 148 35 140 42

C137 45 133 49 132 51

L130 56

L119 56

C113 57 107 57 105 58

C102 59 102 59 104 62

C106 67 115 73 124 75

L129 76

L129 80

C129 84 130 86 132 87

C136 90 140 86 139 79

C139 75 139 74 142 73

C147 70 147 68 143 64

C139 61 139 60 140 57

C142 55 148 49 152 46

C154 44 155 44 159 46

C165 48 182 49 190 47

C202 45 214 38 219 30

C221 28 223 23 224 20

C226 12 230 8 239 4

L245 1

L320 0

L395 0

L395 5

C395 10 395 11 397 12

C402 15 406 12 406 5

L406 0

L420 0

L434 0

L435 3

C436 8 440 9 443 6

C444 5 445 4 445 2

L444 0

L462 0

C478 0 479 0 479 2

C479 4 482 7 485 7

C488 7 491 4 491 2

C491 0 493 0 507 0

L524 0

L523 3

C521 7 524 11 529 11

C534 11 537 4 534 1

C533 0 539 0 562 0

L591 0

L591 9

C591 18 591 18 589 21

C587 22 586 24 586 25

C586 27 587 29 589 30

L591 32

L591 64

L591 96

L588 96

C585 95 582 96 582 100

C581 105 583 126 585 132

L587 138

L585 140

C583 141 580 144 577 145

C574 147 569 150 567 152

L563 157

L555 155

C547 153 538 153 536 154

C535 155 540 163 544 167

C546 169 550 172 553 173

L558 175

L558 181

C558 187 559 188 561 188

C565 190 568 187 568 182

C568 178 569 177 573 175

C577 174 578 172 575 167

C572 163 572 163 573 161

C575 158 588 150 590 150

C591 150 591 167 591 188

C591 219 591 226 589 227

C588 230 588 233 590 235

C591 236 591 239 591 252

L591 268

L586 264

C583 261 580 258 578 258

C575 256 575 256 576 250

C576 244 575 242 571 242

C568 242 566 243 565 249

C565 253 564 253 560 254

C556 255 556 256 556 258

C556 259 557 262 558 264

L560 267

L557 270

C555 272 551 274 547 275

L541 278

L537 275

C525 267 513 264 498 264

C482 265 475 269 467 280

C465 283 462 286 460 287

C455 290 447 291 440 291

C434 290 433 291 433 297

C433 302 437 303 451 300

C463 298 469 295 475 288

L480 282

L483 284

C493 292 506 295 522 295

L533 295

L534 299

C535 303 535 322 533 327

C532 333 542 335 544 329

C546 326 545 299 544 295

C542 291 542 291 545 289

C547 287 551 285 555 283

C559 282 563 279 565 277

L568 274

L574 276

C577 277 582 278 585 279

L591 279

L591 337

C591 372 591 395 590 395

C588 395 586 398 586 401

C586 402 587 406 589 409

C591 414 591 414 591 434

L591 453

L587 454

C584 455 582 455 582 456

C581 456 583 459 586 462

L591 467

L591 502

L591 537

L586 535

C584 535 580 534 579 534

L576 534

L575 525

C575 515 573 510 564 498

C557 489 554 487 550 491

C547 494 547 497 553 502

C557 505 560 509 562 513

C565 519 565 520 564 527

C563 537 564 543 570 552

C574 558 582 566 588 569

L591 570

L591 581

L591 591

L561 591

C545 590 530 590 529 590

C528 590 519 590 509 591

C494 591 491 591 491 590

C491 588 488 585 485 585

C482 585 479 588 479 590

C479 591 474 591 462 591

L445 591

L442 585

C438 578 433 574 424 571

C418 569 417 569 415 571

C412 572 412 576 415 578

C416 579 419 580 422 581

C426 582 433 588 433 590

C433 591 429 591 420 591

L406 591

L405 586

C404 577 403 570 401 566

L399 562

L401 559

C402 557 405 556 407 555

C412 552 418 547 420 544

C422 541 422 541 431 541

C441 540 449 539 449 537

C449 535 443 529 439 526

C437 525 432 523 429 522

L423 521

L422 516

C421 510 419 507 415 509

C413 510 412 511 412 516

C412 522 412 522 409 524

C407 525 405 526 405 527

C405 528 407 530 408 533

C411 535 412 537 411 538

C411 541 406 544 400 547

L395 549

L391 546

C384 543 372 540 362 540

C343 540 330 547 323 561

C320 566 319 568 315 570

C310 573 300 576 296 576

C293 576 292 577 292 578

C290 581 291 584 293 586

C295 587 296 587 301 586

C310 584 321 579 326 576

C328 574 331 570 333 567

C334 564 336 562 336 562

C337 562 339 563 341 564

C350 569 366 571 378 569

C391 567 390 567 392 573

C393 576 394 581 395 584

L395 591

L323 591

C256 591 251 591 251 589

C253 586 250 581 247 580

C245 580 233 585 227 589

C224 591 223 591 185 591

L147 591

L146 587

C146 583 145 582 140 582

C136 582 135 584 135 588

L136 591

L123 591

C116 591 111 591 111 590

C110 589 109 589 107 589

C105 589 104 589 104 590

C103 592 43 591 43 590

Z

M84 575

C86 573 90 571 91 570

C93 567 93 567 92 564

C91 560 87 560 81 564

C76 567 72 568 64 565

C58 563 56 564 55 567

C54 570 54 570 56 572

C60 577 75 579 84 575

Z

M133 571

C134 570 135 568 135 567

C135 565 131 560 129 560

C126 560 122 564 122 567

C122 570 125 573 129 573

C130 573 132 572 133 571

Z

M250 570

C252 568 252 567 251 565

C248 558 239 560 239 567

C239 573 247 575 250 570

Z

M206 567

C209 564 209 562 206 558

C203 555 200 555 197 558

C194 561 194 564 197 567

C200 570 203 570 206 567

Z

M279 566

C281 563 281 563 280 560

C279 559 277 557 276 557

C273 556 273 556 271 558

C267 561 267 564 270 567

C273 570 277 569 279 566

Z

M529 565

C534 563 539 561 541 560

C545 557 543 551 539 551

C538 551 532 553 526 555

C514 559 507 559 500 555

C498 554 494 552 491 550

C484 546 478 546 475 549

C471 553 474 560 483 562

C492 565 510 569 515 568

C517 568 524 566 529 565

Z

M164 560

C167 558 168 557 168 554

C168 551 165 548 162 548

C155 548 153 558 159 560

C162 561 162 561 164 560

Z

M311 547

C313 546 314 540 312 539

C311 539 307 538 302 538

L294 537

L289 532

C284 527 281 526 279 529

C276 531 277 534 281 539

C285 544 290 547 295 548

C301 549 309 549 311 547

Z

M191 546

C193 545 194 540 192 538

C190 534 183 535 181 539

C179 545 186 551 191 546

Z

M104 540

C105 538 106 536 106 536

C106 533 101 529 99 529

C96 529 93 532 93 536

C93 539 96 542 99 542

C100 542 102 541 104 540

Z

M248 541

C250 540 251 536 250 533

C249 532 248 531 246 530

C241 528 236 536 240 540

C241 542 246 543 248 541

Z

M145 538

C148 536 148 530 144 528

C141 527 141 527 138 528

C134 530 134 536 137 538

C138 539 140 540 141 540

C142 540 144 539 145 538

Z

M543 526

C544 525 545 524 545 522

C545 519 541 515 533 511

C522 506 505 510 507 517

C508 521 512 522 516 520

C522 518 526 519 533 523

C539 527 540 528 543 526

Z

M220 521

C224 517 221 510 216 510

C213 510 210 514 210 517

C210 522 217 525 220 521

Z

M313 517

C316 514 315 513 310 505

C304 496 297 489 293 487

C291 486 284 483 277 480

C264 475 259 475 255 478

C253 481 252 483 255 486

C257 489 262 491 272 492

C278 493 283 494 286 495

C290 497 297 504 302 512

C307 520 309 521 313 517

Z

M56 513

C59 510 59 508 56 505

C53 501 50 501 47 504

C44 507 44 511 49 514

C51 515 53 515 56 513

Z

M473 511

C475 508 475 507 474 504

C472 499 467 499 464 502

C461 505 461 508 465 511

C468 514 470 514 473 511

Z

M81 508

C86 502 77 495 72 500

C69 503 69 506 73 509

C76 511 79 511 81 508

Z

M175 507

C178 503 178 501 174 498

C171 495 166 493 158 493

C146 493 139 488 129 475

C126 470 123 467 122 466

C122 466 120 466 118 467

C115 469 115 472 120 480

C127 491 134 497 144 501

C164 510 170 511 175 507

Z

M30 503

C32 498 29 494 24 494

C19 494 16 500 20 504

C22 507 28 506 30 503

Z

M343 502

C344 502 345 500 345 498

C345 494 343 492 339 492

C334 492 331 498 335 502

C337 504 341 505 343 502

Z

M435 500

C440 496 436 490 430 490

C422 491 423 502 431 502

C432 502 434 501 435 500

Z

M373 495

C375 492 375 492 374 490

C374 488 372 486 370 486

C368 485 368 485 365 487

C362 489 361 493 364 496

C367 499 371 498 373 495

Z

M402 491

C404 488 404 488 403 485

C402 484 400 482 399 482

C396 481 396 481 394 483

C390 486 390 489 393 492

C396 495 400 494 402 491

Z

M234 490

C236 488 237 484 234 482

C232 480 228 479 226 481

C223 483 223 488 225 490

C227 492 232 492 234 490

Z

M581 490

C582 489 583 487 583 486

C583 483 580 479 577 479

C574 479 571 482 571 486

C571 489 574 492 577 492

C578 492 580 491 581 490

Z

M312 475

C317 471 313 465 307 465

C299 466 300 477 308 477

C309 477 311 476 312 475

Z

M343 475

C345 473 346 469 343 467

C343 466 341 465 339 465

C335 465 333 467 333 471

C333 476 339 479 343 475

Z

M445 474

C449 471 448 465 443 463

C438 461 433 469 437 473

C438 475 443 476 445 474

Z

M541 471

C543 470 543 468 543 466

C542 458 531 459 531 467

C531 472 538 475 541 471

Z

M208 469

C211 466 211 463 207 460

C206 459 204 458 203 458

C201 458 197 463 197 465

C197 468 200 471 204 471

C205 471 207 470 208 469

Z

M386 466

C388 465 388 463 387 459

C387 454 388 437 390 433

C391 431 392 431 397 432

C413 434 430 431 441 425

L445 423

L448 427

C455 437 462 441 477 445

C484 447 486 447 488 446

C491 445 492 441 490 437

C489 435 488 435 484 435

C476 435 465 431 462 427

C461 426 458 422 456 418

C452 412 451 411 444 408

C435 403 424 401 413 403

C404 404 395 407 390 411

C385 413 385 413 376 409

C368 405 367 402 371 398

C376 393 376 391 371 389

C367 388 367 387 367 382

C367 376 366 374 362 374

C358 374 357 375 357 382

L356 387

L350 388

C347 389 342 391 340 393

C336 396 331 402 331 404

C331 405 340 407 350 406

L359 406

L361 410

C363 412 366 415 370 417

C373 419 378 422 379 423

L382 426

L380 432

C377 440 376 464 378 466

C380 469 384 468 386 466

Z

M518 465

C522 462 520 454 514 454

C511 454 508 458 508 461

C508 463 511 467 514 467

C515 467 517 466 518 465

Z

M475 463

C477 460 477 459 476 456

C474 451 469 451 466 454

C463 457 463 460 467 463

C470 466 472 466 475 463

Z

M169 456

C170 453 170 453 169 450

C166 446 159 440 154 438

C152 438 147 437 143 437

C136 437 133 438 133 442

C133 445 136 447 142 447

C150 447 154 449 158 454

C162 459 166 459 169 456

Z

M346 449

C350 443 353 441 359 440

C367 439 368 439 369 437

C370 434 369 431 366 430

C363 429 353 431 348 433

C342 436 335 445 335 449

C335 452 337 454 340 454

C343 454 344 453 346 449

Z

M275 447

C277 442 274 438 269 438

C264 438 261 445 265 448

C269 452 273 451 275 447

Z

M302 441

C305 438 305 436 302 433

C299 430 296 430 293 433

C289 437 292 444 297 444

C299 444 301 443 302 441

Z

M222 438

C226 435 224 427 219 427

C213 427 210 434 214 438

C216 440 219 441 222 438

Z

M564 427

C565 427 566 425 566 423

C566 419 564 417 560 417

C555 417 552 423 556 427

C558 429 562 430 564 427

Z

M249 424

C253 421 252 415 247 413

C242 411 237 419 241 423

C242 425 247 426 249 424

Z

M527 421

C530 418 530 415 526 412

C525 411 523 410 522 410

C520 410 516 415 516 417

C516 420 519 423 523 423

C524 423 526 422 527 421

Z

M185 419

C188 416 187 412 184 410

C181 407 178 408 175 412

C171 418 180 424 185 419

Z

M499 415

C505 412 511 405 511 402

C511 399 508 396 505 397

C504 397 502 399 500 401

C495 406 490 407 483 406

C478 406 477 406 476 408

C473 411 474 415 478 416

C482 417 495 417 499 415

Z

M99 413

C103 410 101 402 96 402

C90 402 87 409 91 413

C93 415 96 416 99 413

Z

M209 403

C210 400 210 400 209 397

C207 393 201 393 199 396

C198 397 197 399 197 400

C197 401 198 403 199 404

C201 407 207 407 209 403

Z

M124 401

C126 400 127 395 126 393

C123 388 114 390 114 396

C114 401 120 404 124 401

Z

M295 396

C298 392 295 385 290 385

C285 385 282 391 285 395

C287 398 292 398 295 396

Z

M160 394

C163 391 162 387 159 385

C156 382 153 383 150 387

C146 393 155 399 160 394

Z

M74 388

C78 385 76 377 71 377

C65 377 62 384 66 388

C68 390 71 391 74 388

Z

M245 388

C246 387 247 384 247 383

C247 381 246 380 243 379

C237 377 231 374 226 369

C223 365 222 363 221 357

C220 352 218 348 216 345

C206 331 180 323 160 327

L154 329

L150 325

C147 323 144 321 143 319

C141 316 140 311 142 311

C144 311 150 306 150 305

C150 304 149 302 147 301

L144 298

L145 293

C147 289 147 289 146 286

C144 285 143 284 141 284

C139 284 138 286 136 290

C134 295 133 295 130 294

C123 293 107 299 105 304

C105 306 111 309 121 312

C130 314 131 315 131 317

C131 319 138 329 142 332

C143 334 145 336 146 337

C147 340 147 340 144 343

C141 347 137 356 134 365

C130 377 130 380 137 380

C140 380 141 379 143 372

C144 365 150 353 152 350

L155 347

L162 351

C174 357 189 359 203 357

C207 356 208 356 209 358

C213 371 218 378 231 385

C239 391 243 391 245 388

Z

M467 384

C472 378 480 371 484 368

C487 367 491 366 500 366

C515 365 518 364 519 358

C519 350 512 349 493 355

C476 360 471 363 461 376

C454 384 454 389 461 389

C463 389 465 388 467 384

Z

M550 386

C551 384 552 382 552 381

C552 378 549 375 546 375

C542 375 539 378 539 381

C539 383 543 388 546 388

C546 388 548 387 550 386

Z

M576 380

C577 377 577 377 576 374

C573 370 566 370 564 375

C563 380 568 385 573 383

C574 383 575 381 576 380

Z

M24 367

C27 365 27 359 23 357

C20 356 20 356 17 357

C13 359 13 365 16 367

C17 368 19 369 20 369

C21 369 23 368 24 367

Z

M414 365

C417 363 417 357 413 355

C410 354 410 354 407 355

C403 357 403 363 406 365

C407 366 409 367 410 367

C411 367 413 366 414 365

Z

M102 365

C103 364 105 362 106 360

C109 356 115 353 121 353

C128 353 130 352 130 348

C130 344 128 343 122 343

C112 343 107 345 101 351

C96 356 95 357 95 360

C95 365 98 367 102 365

Z

M267 360

C274 357 277 354 277 351

C277 350 276 348 276 347

C274 345 269 346 268 348

C264 352 259 353 245 350

C242 350 241 350 240 352

C238 355 240 359 243 360

C251 363 261 364 267 360

Z

M558 356

C562 353 559 346 554 346

C550 346 547 349 548 354

C549 358 555 360 558 356

Z

M304 350

C306 348 307 345 304 342

C301 338 293 340 293 346

C293 351 300 354 304 350

Z

M70 348

C72 347 73 342 71 340

C68 336 61 337 60 343

C60 349 66 352 70 348

Z

M345 346

C347 344 348 339 345 337

C343 335 338 335 336 338

C332 344 340 351 345 346

Z

M456 342

C457 341 458 339 458 338

C458 334 455 331 452 331

C450 331 445 335 445 337

C445 338 446 340 447 341

C450 345 453 345 456 342

Z

M420 336

C423 334 423 331 421 328

C418 324 415 324 412 327

C409 330 409 334 414 337

C416 338 417 338 420 336

Z

M29 334

C32 330 29 323 24 323

C19 323 16 329 19 333

C21 336 26 336 29 334

Z

M519 335

C520 335 521 334 522 333

C523 330 523 327 520 325

C517 321 510 324 510 329

C510 332 515 336 517 336

C518 335 519 335 519 335

Z

M577 332

C581 328 581 315 577 307

C574 303 567 296 565 296

C563 296 560 299 560 301

C560 302 562 305 563 307

C570 316 571 319 568 328

C568 329 569 331 570 332

C573 335 574 335 577 332

Z

M241 324

C246 318 256 312 261 310

C265 309 268 309 273 310

C277 311 282 311 286 311

C291 311 292 311 294 309

C298 306 298 303 295 300

C291 297 285 296 270 298

C261 300 256 301 252 303

C245 306 233 315 230 320

C229 322 229 322 230 325

C233 328 237 328 241 324

Z

M487 325

C489 323 490 319 487 317

C487 316 485 315 483 315

C479 315 477 317 477 321

C477 326 483 329 487 325

Z

M405 305

C407 302 406 298 403 297

C397 294 391 299 394 305

C396 309 402 310 405 305

Z

M75 306

C77 301 75 296 70 296

C65 296 62 303 66 306

C68 309 74 308 75 306

Z

M325 304

C327 302 327 297 324 295

C318 291 311 299 316 304

C318 306 323 307 325 304

Z

M370 298

C372 297 372 295 372 293

C371 285 360 286 360 294

C360 299 367 302 370 298

Z

M217 285

C220 281 217 275 212 275

C206 275 204 283 208 286

C211 288 215 288 217 285

Z

M24 281

C26 279 26 275 24 273

C21 269 14 272 14 277

C14 281 16 283 20 283

C22 283 24 282 24 281

Z

M252 279

C255 276 254 273 252 271

C246 265 237 273 243 279

C245 282 250 282 252 279

Z

M327 275

C329 273 330 270 327 267

C324 263 316 265 316 270

C316 276 323 279 327 275

Z

M447 273

C452 271 455 269 453 265

C452 262 451 262 438 264

C432 264 432 264 427 261

C421 256 418 256 416 261

C414 264 416 267 422 270

C429 275 436 275 447 273

Z

M281 269

C284 266 284 263 280 260

C279 259 277 258 276 258

C274 258 270 263 270 265

C270 268 273 271 277 271

C278 271 280 270 281 269

Z

M191 267

C192 266 193 264 193 263

C193 260 190 256 187 256

C184 256 181 259 181 263

C181 266 184 269 187 269

C188 269 190 268 191 267

Z

M377 266

C379 263 379 263 378 260

C377 259 375 257 374 257

C371 256 371 256 369 258

C365 261 365 264 368 267

C371 270 375 269 377 266

Z

M101 265

C105 262 103 254 97 254

C94 254 91 258 91 261

C91 263 94 267 97 267

C98 267 100 266 101 265

Z

M161 263

C163 261 164 258 161 255

C158 251 150 253 150 259

C150 264 157 267 161 263

Z

M234 251

C235 248 235 248 234 245

C232 241 226 241 224 244

C223 245 222 247 222 248

C222 249 223 251 224 252

C226 255 232 255 234 251

Z

M45 250

C47 248 48 244 45 242

C44 240 38 239 36 241

C34 243 35 249 37 250

C39 252 43 252 45 250

Z

M301 248

C304 245 300 218 295 211

C294 209 294 209 296 206

C297 205 301 202 305 199

C308 197 313 193 314 191

C316 187 316 187 319 188

C323 189 342 189 343 188

C344 187 339 178 334 175

C332 173 327 171 325 170

L320 169

L320 163

C320 157 317 154 313 156

C312 156 310 157 310 158

C310 159 310 162 310 164

C309 168 309 169 306 169

C300 171 300 173 305 179

L307 182

L305 185

C303 188 291 196 290 196

C276 190 270 188 258 188

C239 188 225 195 219 209

C214 219 208 223 194 225

C187 227 186 228 187 234

C188 237 192 237 199 235

C214 231 223 225 228 215

L231 210

L235 212

C246 217 265 219 278 216

C283 214 285 214 286 215

C288 218 290 227 291 238

C291 243 292 248 292 249

C294 250 299 250 301 248

Z

M334 246

C337 244 337 233 333 226

C331 221 323 213 319 212

C316 212 313 214 313 217

C313 218 315 221 318 224

C324 229 326 233 326 240

C326 245 326 246 328 247

C330 248 332 248 334 246

Z

M478 247

C481 244 479 240 471 233

C459 221 455 220 433 216

C422 214 417 215 414 218

C412 221 413 224 417 227

C419 229 420 229 434 229

L449 229

L455 232

C458 235 463 239 466 242

C472 248 475 249 478 247

Z

M73 235

C76 231 73 225 68 225

C64 225 62 228 62 232

C63 238 69 240 73 235

Z

M121 235

C124 231 121 225 116 225

C112 225 110 228 110 232

C111 238 117 240 121 235

Z

M152 220

C155 218 155 213 153 211

C151 209 146 209 144 211

C142 213 141 217 144 219

C146 221 150 222 152 220

Z

M499 217

C501 215 501 210 498 208

C492 204 485 212 490 217

C492 219 497 220 499 217

Z

M535 217

C538 215 538 211 535 208

C533 206 530 205 527 208

C523 211 525 219 531 219

C532 219 534 218 535 217

Z

M373 215

C374 213 375 211 375 211

C375 208 370 204 368 204

C365 204 362 207 362 211

C362 214 365 217 368 217

C369 217 371 216 373 215

Z

M566 211

C569 209 569 205 566 202

C563 198 556 201 556 206

C556 212 562 215 566 211

Z

M190 209

C196 206 203 199 203 196

C203 193 200 190 198 190

C197 190 195 192 192 194

C185 201 184 201 177 201

C168 201 168 201 167 203

C165 207 167 210 171 211

C176 212 185 211 190 209

Z

M38 203

C39 200 39 200 38 197

C36 193 30 193 28 196

C26 199 26 201 28 204

C30 207 36 207 38 203

Z

M127 200

C131 197 131 194 128 191

C124 188 119 187 110 189

C105 190 100 191 99 191

C94 191 84 186 76 179

C72 176 68 173 67 173

C65 173 62 176 62 179

C62 182 81 197 87 199

C93 201 110 203 118 203

C124 202 125 202 127 200

Z

M424 194

C428 191 427 185 422 183

C419 183 415 186 414 189

C414 194 421 198 424 194

Z

M385 188

C389 184 386 177 381 177

C378 177 374 181 374 184

C374 186 379 190 381 190

C382 190 384 189 385 188

Z

M459 187

C462 183 459 177 454 177

C451 177 447 181 447 184

C447 184 448 186 450 188

C452 190 453 190 455 190

C456 189 458 188 459 187

Z

M492 184

C494 182 493 177 491 175

C488 171 481 174 481 179

C481 185 487 188 492 184

Z

M227 183

C230 181 229 177 223 169

C214 158 209 155 194 150

C180 145 175 144 171 146

C167 147 165 151 167 154

C169 159 173 160 187 161

C196 161 199 162 202 164

C206 166 213 173 218 180

C222 185 225 186 227 183

Z

M416 165

C419 163 419 157 415 155

C412 154 412 154 409 155

C405 157 405 163 408 165

C409 166 411 167 412 167

C413 167 415 166 416 165

Z

M450 165

C453 162 453 160 450 157

C447 153 444 153 441 156

C438 159 438 162 441 165

C444 168 447 168 450 165

Z

M514 165

C517 163 517 157 513 155

C510 154 510 154 507 155

C503 157 503 163 506 165

C507 166 509 167 510 167

C511 167 513 166 514 165

Z

M98 163

C103 158 108 157 116 157

C122 158 123 158 124 156

C126 152 124 149 120 148

C115 146 106 146 102 148

C97 150 90 155 88 158

C87 161 87 161 88 164

C91 167 95 167 98 163

Z

M355 159

C357 158 358 156 358 154

C358 151 355 148 352 148

C349 148 345 151 345 154

C345 156 347 159 349 160

C352 161 352 161 355 159

Z

M388 144

C402 136 406 131 412 116

C412 115 413 115 417 116

C424 117 439 116 446 115

C450 114 455 111 459 110

C465 107 465 107 467 108

C470 111 475 123 477 131

C478 137 479 139 481 139

C484 140 487 140 488 137

C490 134 482 112 476 104

C473 99 473 99 475 96

C476 95 479 91 482 87

C485 84 488 80 489 78

L490 74

L498 74

C506 73 517 70 517 69

C517 69 516 67 514 65

C511 61 503 57 496 56

L490 54

L489 50

C488 45 486 43 483 43

C479 43 478 46 479 51

C479 56 479 56 475 59

L472 63

L476 67

C481 72 481 74 473 82

C468 87 466 88 465 88

C463 87 459 86 455 86

C436 83 411 92 403 105

C402 107 400 112 399 116

C398 122 396 125 394 127

C390 131 383 136 378 137

C374 139 373 139 373 142

C373 146 375 149 378 149

C380 149 384 147 388 144

Z

M260 140

C264 136 261 129 256 129

C253 129 249 133 249 136

C249 138 254 142 256 142

C257 142 259 141 260 140

Z

M137 131

C141 128 138 121 133 121

C130 121 126 124 126 127

C126 129 128 132 130 133

C133 134 135 133 137 131

Z

M567 130

C570 127 569 125 565 122

C559 116 558 112 558 105

C558 98 557 97 555 96

C552 95 552 95 550 97

C548 98 548 100 547 105

C547 114 550 120 556 127

C562 133 565 133 567 130

Z

M520 128

C522 126 521 117 518 112

C516 108 513 105 507 101

C500 97 497 97 494 100

C492 104 494 106 500 109

C506 113 510 117 511 122

C511 125 512 127 512 128

C513 130 518 131 520 128

Z

M212 127

C216 124 213 117 207 117

C204 117 202 119 202 123

C202 128 208 131 212 127

Z

M362 123

C366 121 374 114 377 108

C379 105 379 104 378 102

C377 98 372 98 369 102

C363 111 359 114 352 114

C347 114 345 116 345 119

C345 125 350 126 362 123

Z

M178 121

C182 118 181 112 176 110

C173 110 169 113 168 116

C168 121 175 125 178 121

Z

M315 119

C319 116 316 109 311 109

C307 109 305 111 305 115

C305 120 311 123 315 119

Z

M232 106

C235 100 230 94 224 97

C218 99 220 108 227 108

C229 108 230 107 232 106

Z

M275 103

C279 100 277 92 271 92

C268 92 265 96 265 99

C265 101 268 105 271 105

C272 105 274 104 275 103

Z

M104 93

C107 90 106 87 102 84

C96 80 90 89 95 94

C98 97 102 96 104 93

Z

M33 90

C34 88 35 86 35 86

C35 83 31 79 28 79

C25 79 22 82 22 86

C22 89 25 92 28 92

C29 92 31 91 33 90

Z

M70 90

C73 88 73 82 69 80

C66 79 66 79 63 80

C59 82 59 88 62 90

C65 92 67 92 70 90

Z

M174 90

C178 87 176 79 170 79

C167 79 164 83 164 86

C164 88 167 92 170 92

C171 92 173 91 174 90

Z

M350 82

C364 75 370 75 387 83

C393 86 393 86 396 85

C398 83 399 79 396 77

C394 74 379 68 372 67

C367 66 353 67 340 71

C330 73 325 79 330 84

C333 87 339 87 350 82

Z

M563 78

C567 75 565 67 559 67

C551 67 551 79 560 80

C560 80 562 79 563 78

Z

M272 72

C284 70 289 68 291 64

C292 62 292 61 291 59

C288 55 283 54 276 57

C259 63 259 63 254 63

C250 62 245 60 238 57

C233 54 227 52 226 52

C223 52 222 54 222 58

C222 60 224 61 232 65

C247 73 251 74 272 72

Z

M41 60

C44 58 45 57 45 54

C45 49 38 46 35 50

C32 53 33 58 36 60

C39 61 39 61 41 60

Z

M422 55

C424 50 421 46 416 46

C411 46 408 52 412 56

C414 59 420 58 422 55

Z

M364 48

C366 47 367 42 365 40

C362 36 355 37 354 43

C354 49 360 52 364 48

Z

M398 41

C401 38 401 36 398 33

C395 30 392 30 389 33

C385 37 388 44 393 44

C395 44 397 43 398 41

Z

M439 42

C442 40 442 34 438 32

C435 31 435 31 432 32

C428 34 428 40 431 42

C432 43 434 44 435 44

C436 44 438 43 439 42

Z

M544 41

C545 40 546 38 545 37

C545 34 541 31 539 31

C536 31 533 35 533 38

C533 41 536 44 539 44

C540 44 542 43 544 41

Z

M567 42

C569 41 570 35 568 33

C566 31 561 32 559 34

C557 36 556 40 559 42

C561 44 565 45 567 42

Z

M252 38

C260 27 261 27 270 26

C276 26 277 25 277 23

C278 21 278 20 276 18

C275 16 274 16 267 16

C259 17 253 20 247 27

C243 32 242 37 244 39

C246 41 250 40 252 38

Z

M347 36

C350 34 350 31 348 28

C345 24 342 24 339 27

C336 30 336 34 341 37

C343 38 344 38 347 36

Z

M478 32

C480 29 479 25 476 24

C470 21 464 26 467 32

C469 36 475 37 478 32

Z

M312 31

C316 28 313 21 308 21

C302 21 300 27 303 32

C305 34 310 33 312 31

Z

M510 31

C512 29 513 25 510 23

C508 21 504 20 502 23

C500 24 499 30 501 32

C503 34 508 33 510 31

Z

M154 22

C152 18 147 4 147 1

C147 0 153 0 186 0

L224 0

L220 4

C218 6 215 11 213 14

C211 21 210 21 208 21

C192 17 180 17 166 22

C161 24 157 25 156 25

C156 25 155 24 154 22

Z

"/>

</svg>

