<?xml version="1.0" standalone="no"?>

<!DOCTYPE svg PUBLIC "-//W3C//DTD SVG 20010904//EN"

 "http://www.w3.org/TR/2001/REC-SVG-20010904/DTD/svg10.dtd">

<svg version="1.0" xmlns="http://www.w3.org/2000/svg"

 width="590.000000pt" height="591.000000pt" viewBox="0 0 590.000000 591.000000"

 preserveAspectRatio="xMidYMid meet">

<path fill="#f5f5f4" stroke="none" d="
M0 296

L0 0

L295 0

L590 0

L590 296

L590 591

L295 591

L0 591

L0 296

Z

"/>

<path fill="#1d1b1b" stroke="none" d="
M0 587

C0 585 0 584 1 584

C8 587 13 586 13 582

C13 579 12 578 6 576

L1 574

L0 548

C0 526 0 522 2 519

C4 514 5 504 2 494

C0 486 0 484 0 387

C0 309 0 289 1 289

C2 289 4 289 6 290

C10 291 13 290 13 286

C13 283 12 282 4 280

L0 279

L0 253

C0 230 0 227 2 222

C5 215 4 205 2 196

C0 191 0 178 0 95

L0 0

L11 0

L22 0

L24 5

C29 13 37 21 40 21

C43 21 44 20 44 16

C44 15 42 12 39 9

C31 0 31 0 40 0

L48 0

L48 6

C48 19 56 38 66 49

C71 55 74 56 77 54

C79 52 78 49 73 43

C64 33 57 17 57 5

L57 0

L78 0

L100 0

L107 6

C111 9 115 11 116 11

C120 11 121 6 118 2

L116 0

L162 0

L209 0

L209 4

C208 8 205 13 201 14

C200 14 197 13 195 12

C190 10 188 10 186 11

C183 15 187 20 195 22

C205 25 216 17 218 5

L218 0

L300 0

L382 0

L382 7

C382 22 374 27 358 22

C350 20 337 13 331 7

C325 2 323 2 321 4

C320 5 319 7 319 7

C319 11 338 24 352 30

C360 33 372 34 377 32

C386 29 391 20 391 8

L391 0

L394 0

C402 0 415 23 416 39

C417 54 410 60 396 57

C389 56 375 49 368 43

C357 35 358 36 356 37

C354 38 353 40 353 41

C353 46 378 62 392 65

C408 70 420 65 424 52

C428 40 423 20 413 5

C411 3 410 1 410 1

C410 0 423 0 440 0

L469 0

L473 3

C482 10 492 13 496 10

C500 7 497 2 492 2

C490 2 488 2 487 1

C486 0 492 0 505 0

C521 0 524 0 523 1

C523 2 523 4 524 5

C525 7 526 7 531 7

C541 5 548 10 552 19

C555 26 553 32 545 37

C541 39 540 42 543 44

C545 46 545 46 549 44

C554 42 561 35 562 30

C563 21 559 10 552 3

L548 0

L569 0

L590 0

L590 94

L590 189

L586 182

C582 174 575 165 572 162

C569 161 569 161 567 162

C563 165 563 167 567 171

C572 176 579 187 582 195

C587 209 586 222 579 226

C570 230 551 223 535 211

C528 205 525 205 523 209

C522 211 522 212 527 216

C530 219 536 223 541 226

C560 237 579 239 587 231

L590 228

L590 253

L590 278

L588 277

C575 273 563 261 560 247

C558 238 557 237 554 237

C551 237 550 238 550 241

C549 249 556 265 565 274

C569 277 573 280 580 284

L590 289

L590 387

L590 485

L586 477

C581 467 572 457 568 457

C566 457 564 459 564 462

C564 462 566 466 570 469

C579 480 585 494 585 507

C585 514 583 519 578 521

C574 523 573 523 567 522

C559 521 545 514 535 507

C531 503 527 501 527 501

C524 501 522 505 522 507

C523 510 538 520 548 525

C559 531 570 533 577 531

C581 530 584 529 587 527

L590 524

L590 549

L590 574

L586 572

C572 566 563 555 559 540

C558 534 557 532 554 532

C550 532 549 538 552 548

C556 562 566 573 581 580

C590 584 590 584 590 588

L590 591

L569 591

C553 591 546 591 543 589

C536 588 531 588 526 590

C524 590 521 591 520 591

L517 591

L520 589

C531 583 533 571 526 562

C524 559 523 559 521 559

C517 560 517 563 519 568

C522 574 521 577 517 580

C513 583 504 584 498 582

C489 579 486 576 479 560

C471 543 466 536 459 530

C454 525 451 524 448 526

C446 529 447 531 454 538

C460 544 462 546 469 561

C478 580 482 585 490 589

L496 591

L490 591

C486 591 484 590 481 589

C475 584 469 575 466 565

C464 557 461 555 458 557

C456 558 456 559 456 563

C456 567 462 580 466 585

C467 588 469 590 469 591

C469 591 452 591 430 591

L391 591

L389 583

C385 573 380 562 374 555

C368 549 366 548 363 551

C360 553 361 555 366 561

C372 568 379 581 381 587

L381 591

L300 591

L218 591

L218 585

C217 578 212 568 207 564

C205 562 198 558 190 554

C175 547 166 542 161 535

C158 531 155 530 152 532

C149 535 151 538 158 545

C164 551 167 553 181 560

C190 564 199 569 200 570

C204 573 208 580 209 586

L209 591

L162 591

L115 591

L109 586

C96 577 77 570 67 572

C58 573 52 578 49 587

L48 591

L40 591

L32 591

L29 585

C25 576 22 565 23 559

C24 555 25 553 27 550

C30 547 31 547 37 547

C47 547 61 553 74 563

C80 568 83 569 85 567

C87 564 86 561 80 556

C66 545 49 538 37 538

C27 538 21 541 17 550

C15 553 15 555 15 564

C15 573 16 578 20 589

C21 591 20 591 11 591

L0 591

L0 587

Z

M346 588

C358 581 359 560 348 537

C330 498 280 467 260 482

C252 487 249 498 251 511

C253 525 257 534 266 546

C271 552 273 553 276 552

C280 551 280 547 275 542

C265 530 260 518 260 504

C260 493 262 490 268 488

C282 484 312 502 330 525

C347 548 353 575 341 580

C330 585 306 571 294 553

C286 542 284 527 289 522

C290 520 291 520 294 520

C306 522 320 535 323 546

C324 550 323 551 317 547

C314 545 310 544 310 545

C307 546 306 549 307 551

C309 554 316 558 322 559

C326 559 327 559 330 557

C332 554 332 554 332 549

C332 537 321 522 306 515

C298 511 289 510 284 514

C278 518 275 530 279 541

C282 552 287 560 297 570

C310 583 323 590 336 590

C340 590 343 589 346 588

Z

M226 581

C230 579 228 567 221 558

C216 551 199 541 189 539

C186 539 185 539 184 541

C181 545 183 548 187 549

C192 550 205 556 209 559

C214 563 219 571 219 575

C219 578 221 582 223 582

C224 582 225 582 226 581

Z

M442 579

C448 576 449 568 443 568

C442 568 440 569 439 570

C437 572 432 573 426 571

C421 570 418 571 418 574

C418 579 423 581 433 581

C437 581 440 580 442 579

Z

M439 565

C440 565 442 562 444 559

C448 553 448 544 444 536

C436 520 419 506 397 499

C386 495 381 495 380 499

C378 502 380 504 389 506

C393 507 401 510 407 513

C416 517 419 520 425 526

C434 535 438 541 437 548

C437 557 433 560 425 556

C419 554 416 555 415 557

C414 559 414 560 415 562

C418 566 434 569 439 565

Z

M132 547

C136 545 140 536 140 531

C140 529 139 528 138 527

C134 525 131 528 131 532

C130 534 129 537 128 538

C127 540 126 540 122 540

C117 539 114 540 114 544

C114 549 125 551 132 547

Z

M61 534

C64 529 54 507 45 498

C38 491 28 485 18 484

C10 482 8 483 8 488

C8 491 9 491 16 493

C33 496 44 507 51 526

C52 530 54 534 54 535

C55 537 60 536 61 534

Z

M123 532

C136 526 137 510 126 493

C122 487 119 485 116 487

C113 488 113 491 116 495

C120 500 123 506 124 511

C126 517 124 522 119 524

C116 526 115 526 115 524

C112 520 110 519 108 520

C105 521 104 527 107 530

C111 536 115 536 123 532

Z

M185 527

C192 524 193 520 193 513

C192 502 187 495 182 499

C181 501 181 502 182 506

C183 508 184 512 184 514

C184 517 184 518 181 519

C178 521 171 522 166 520

C161 517 151 509 146 503

C140 495 135 483 132 473

C130 465 129 463 126 463

C121 463 121 469 125 481

C130 497 140 511 150 520

C165 531 174 533 185 527

Z

M204 528

C206 525 206 524 207 518

C207 514 207 510 206 507

C205 503 204 502 201 502

C197 502 195 504 197 509

C199 515 198 520 196 523

C194 525 193 528 195 530

C197 532 201 531 204 528

Z

M246 519

C248 517 247 514 242 508

C236 502 230 489 228 481

C225 472 226 466 228 461

C233 452 243 452 261 461

C265 463 273 467 276 470

C284 476 284 477 287 475

C290 473 289 470 285 466

C273 455 251 445 240 445

C220 445 212 465 221 490

C226 504 238 520 243 520

C244 520 245 519 246 519

Z

M453 513

C459 511 465 505 465 501

C466 499 466 495 465 493

C464 490 463 489 461 488

C457 487 455 491 456 495

C458 499 455 503 450 504

C444 506 443 507 443 509

C443 514 446 515 453 513

Z

M441 505

C448 501 453 491 450 485

C449 481 442 478 439 479

C435 480 435 487 440 488

C442 488 443 489 440 493

C436 501 425 500 412 491

C408 488 404 487 403 491

C401 495 414 504 427 507

C430 508 438 507 441 505

Z

M545 497

C557 494 563 480 560 464

C557 450 551 438 542 428

C536 423 535 422 532 425

C529 427 530 428 535 435

C545 446 551 460 551 473

C551 480 549 485 544 488

C536 492 518 485 502 473

C497 470 493 467 492 467

C490 467 488 471 489 473

C490 476 504 487 513 491

C527 497 537 499 545 497

Z

M377 493

C379 490 377 486 372 484

C356 479 341 468 336 456

C334 452 332 450 331 450

C329 449 327 449 327 448

C324 447 325 454 328 461

C334 473 348 485 364 491

C371 494 375 495 377 493

Z

M350 489

C350 489 348 487 346 486

C342 483 333 474 331 470

C328 467 327 466 327 469

C325 473 333 484 340 488

C344 490 350 491 350 489

Z

M212 485

C214 483 213 480 208 474

C198 463 191 444 193 433

C193 427 197 423 201 421

C210 418 231 427 246 439

C251 443 255 443 255 437

C255 432 235 419 219 413

C212 411 200 411 196 413

C192 415 188 419 186 424

C179 437 187 464 202 481

C206 486 209 487 212 485

Z

M395 485

C397 484 398 480 396 478

C395 478 392 477 390 477

C383 476 378 473 370 468

C364 464 349 450 349 448

C349 447 343 450 341 452

C340 453 354 469 362 474

C375 484 389 488 395 485

Z

M111 479

C112 478 112 476 112 473

C110 458 101 443 85 430

C78 424 77 423 77 425

C77 426 76 428 75 429

L73 431

L84 442

C96 454 100 460 102 472

C104 481 107 483 111 479

Z

M79 472

C82 468 80 466 72 461

C57 453 47 441 47 431

C47 427 46 426 43 423

L39 420

L38 424

C37 431 38 439 41 445

C45 452 57 464 67 469

C75 473 77 474 79 472

Z

M383 469

C385 467 384 465 379 456

C373 445 369 439 364 435

C360 432 350 428 349 429

C348 429 349 431 349 434

C350 437 351 439 356 441

C361 444 365 449 372 461

C374 464 376 468 376 469

C378 470 381 470 383 469

Z

M95 466

C98 462 96 460 86 455

C75 449 69 443 66 438

C65 435 64 434 62 434

C61 433 58 433 57 432

C55 432 55 432 56 435

C57 441 61 448 66 453

C72 458 89 468 92 468

C93 468 95 467 95 466

Z

M325 465

C325 464 324 462 322 461

C317 456 316 451 317 447

C318 443 318 443 315 440

C314 438 312 437 312 437

C312 437 310 439 310 441

C307 447 309 454 316 462

C320 466 325 467 325 465

Z

M517 461

C519 459 522 456 524 453

C526 448 526 446 526 439

C526 423 520 407 508 395

C502 389 500 388 498 391

C496 394 496 395 502 402

C511 411 517 427 517 439

C517 454 509 458 492 452

C484 450 476 445 467 439

C460 433 459 433 457 434

C456 435 455 436 455 438

C455 440 456 442 462 446

C471 453 481 459 490 462

C500 465 511 465 517 461

Z

M119 460

C121 458 121 457 119 453

C113 431 92 409 78 409

C74 409 74 409 74 411

C75 412 76 414 76 415

C77 417 78 418 81 419

C91 422 103 436 109 451

C111 456 113 460 113 461

C115 463 118 462 119 460

Z

M388 453

C390 451 389 448 386 442

C382 434 374 424 369 420

C360 414 356 412 347 412

C337 412 336 413 340 417

C343 420 344 421 348 421

C358 421 369 430 377 445

C381 452 383 454 384 454

C386 454 387 453 388 453

Z

M179 450

C180 447 181 448 175 442

C165 430 159 416 159 404

C159 391 163 387 173 387

C183 387 199 395 211 405

C216 408 218 409 221 405

C222 403 222 403 219 400

C212 392 192 381 179 378

C163 375 151 383 149 399

C148 413 156 434 169 448

C173 453 177 453 179 450

Z

M341 442

C347 436 339 421 328 415

C325 414 322 413 321 413

C319 413 315 411 307 403

C295 392 289 389 283 389

C280 389 278 390 276 392

C273 395 272 399 275 405

C278 412 282 415 285 411

C287 409 287 408 284 404

C282 398 282 398 284 398

C287 398 292 402 302 411

C309 418 311 420 312 423

C316 438 334 450 341 442

Z

M116 429

C115 420 101 408 95 410

C92 411 93 412 99 417

C102 419 107 424 110 427

C112 431 115 434 115 433

C116 433 116 431 116 429

Z

M305 429

C307 427 308 422 305 419

C304 418 303 417 300 417

C296 417 293 419 293 424

C293 428 296 431 300 431

C302 431 304 430 305 429

Z

M481 428

C491 423 495 410 491 393

C489 383 482 369 476 363

C470 356 468 355 465 356

C461 358 463 362 468 368

C478 378 485 398 484 408

C483 414 480 419 476 420

C467 424 450 417 434 405

C430 402 426 400 425 400

C423 400 421 402 421 405

C421 409 445 425 459 428

C466 430 476 430 481 428

Z

M66 426

C69 426 71 421 70 417

C68 407 56 395 48 395

C44 395 24 372 24 368

C24 365 26 366 30 368

C34 370 36 371 38 369

C42 365 35 358 26 357

C21 357 20 357 18 360

C16 362 15 364 15 367

C15 374 18 379 32 393

C37 399 39 402 39 404

C39 413 53 426 62 427

C63 427 65 427 66 426

Z

M145 417

C147 415 146 413 143 409

C133 400 125 382 125 370

C125 357 129 352 141 353

C151 354 167 362 178 371

C182 375 186 375 187 371

C188 369 188 369 185 366

C182 362 170 354 163 351

C148 343 133 342 125 347

C109 358 114 391 135 414

C138 418 142 419 145 417

Z

M30 408

C35 404 33 395 26 395

C20 395 17 404 22 408

C23 409 25 410 26 410

C27 410 29 409 30 408

Z

M92 408

C93 406 90 401 86 398

C79 392 71 391 66 394

L63 395

L66 399

C69 401 70 402 71 401

C75 399 82 401 88 407

C90 409 92 410 92 408

Z

M324 405

C328 401 325 393 319 393

C314 393 312 396 312 400

C312 406 320 409 324 405

Z

M446 395

C457 391 462 375 457 358

C454 346 448 335 440 327

C434 321 434 321 432 322

C428 325 428 327 433 332

C442 343 449 356 450 368

C450 376 449 381 445 384

C437 391 418 385 400 371

C396 368 392 366 391 366

C389 366 387 368 387 370

C387 375 408 389 423 394

C429 396 441 397 446 395

Z

M54 389

C58 386 58 381 54 378

C53 377 51 376 50 376

C47 376 43 380 43 384

C43 387 47 391 50 391

C51 391 53 390 54 389

Z

M110 383

C113 381 113 379 109 375

C100 367 92 350 91 339

C91 330 92 325 96 322

C101 317 112 318 126 326

C133 329 142 335 144 338

C148 341 154 340 154 336

C154 333 141 322 130 317

C117 311 102 308 95 311

C81 317 78 338 88 361

C91 368 99 379 103 382

C107 385 107 385 110 383

Z

M256 363

C258 362 262 360 264 359

C267 356 267 355 267 353

C266 349 262 348 258 351

C254 355 250 355 243 354

C240 354 237 353 236 354

C234 355 234 359 235 361

C238 364 249 365 256 363

Z

M414 360

C417 358 419 356 421 353

C424 348 424 347 424 337

C424 327 424 325 421 317

C418 308 412 299 406 293

C402 288 398 287 396 289

C394 291 395 294 399 298

C413 312 420 336 414 347

C412 351 409 353 402 353

C392 353 379 347 366 337

C362 334 358 332 357 332

C355 332 352 336 354 338

C355 341 363 347 371 352

C389 362 403 365 414 360

Z

M76 350

C79 348 78 345 73 339

C66 332 59 318 58 309

C54 285 67 279 93 292

C97 294 103 298 107 301

C114 307 115 307 118 305

C121 303 120 301 116 296

C104 286 86 277 73 276

C62 275 55 279 51 287

C49 291 49 293 49 302

C49 311 49 313 52 321

C56 331 61 339 67 346

C72 351 73 352 76 350

Z

M253 347

C256 345 261 340 262 336

C263 333 262 331 260 330

C257 329 255 330 253 333

C248 343 238 344 228 335

C224 331 223 325 223 319

C224 315 224 314 223 313

C220 311 220 311 217 313

C215 315 215 316 215 323

C215 332 217 337 223 342

C232 351 243 353 253 347

Z

M571 341

C574 337 576 329 575 323

C574 315 574 314 572 313

C570 312 569 312 568 313

C565 315 565 315 566 322

C566 331 566 334 563 337

C560 340 561 344 564 345

C566 346 568 345 571 341

Z

M551 339

C565 332 566 313 553 300

C548 295 543 293 534 293

C525 293 520 296 525 301

C526 302 527 303 532 302

C538 302 539 302 543 304

C548 307 553 315 553 320

C553 325 550 330 546 332

C542 334 540 336 542 339

C543 342 546 342 551 339

Z

M376 328

C382 326 388 320 390 314

C394 299 387 275 374 261

C367 254 364 252 362 256

C360 259 361 259 366 265

C372 271 378 283 381 291

C383 299 382 311 379 315

C376 319 371 320 364 319

C356 318 341 311 332 304

C328 301 324 298 324 298

C322 298 319 301 319 303

C319 306 338 320 350 324

C362 329 368 330 376 328

Z

M208 316

C212 314 215 309 217 304

C219 298 218 286 215 280

C211 271 206 266 189 258

C172 250 165 245 161 239

C158 235 156 234 153 236

C149 238 152 245 162 253

C164 255 174 261 183 265

C192 270 200 274 202 276

C210 285 212 300 205 307

C202 310 199 310 194 307

C190 305 190 305 187 306

C178 312 198 322 208 316

Z

M43 316

C45 314 44 311 39 305

C29 294 24 280 24 268

C23 259 26 254 31 252

C40 249 59 256 73 267

C81 273 81 274 84 272

C89 269 85 263 71 254

C59 247 46 242 37 242

C23 242 14 252 14 268

C14 279 21 297 30 308

C36 317 40 319 43 316

Z

M496 306

C498 305 499 301 497 299

C496 299 494 298 492 298

C480 296 470 285 466 269

C464 261 460 259 457 263

C455 265 455 266 457 270

C461 284 469 297 478 302

C484 306 492 308 496 306

Z

M520 293

C530 288 532 279 527 269

C525 264 524 264 522 264

C517 265 516 267 519 272

C522 279 522 282 516 285

C513 287 511 287 506 287

C492 287 488 283 477 262

C469 244 463 236 456 232

C452 228 448 229 447 233

C447 235 448 236 452 240

C459 247 463 252 470 268

C474 276 478 283 480 285

C490 297 508 300 520 293

Z

M342 295

C352 293 357 285 357 272

C357 252 345 229 325 210

C308 194 287 183 274 183

C265 183 255 190 253 198

C252 203 252 217 254 224

C257 237 269 256 275 258

C277 258 280 257 280 254

C280 253 278 249 275 246

C269 238 264 228 262 220

C261 217 261 211 261 207

C261 200 262 199 264 196

C268 192 273 191 281 193

C299 198 322 216 335 237

C345 250 349 262 348 274

C347 280 347 282 345 284

C340 287 332 287 321 282

C311 276 297 263 292 253

C286 240 286 228 292 226

C297 224 312 232 319 242

C322 246 325 252 325 254

C325 256 320 254 317 252

C313 249 309 250 308 253

C307 256 309 259 315 262

C327 267 335 263 334 251

C333 245 328 237 321 230

C314 223 306 219 298 217

C293 216 292 216 288 218

C282 220 279 224 278 231

C277 244 283 260 296 273

C308 286 321 294 336 296

C337 296 339 296 342 295

Z

M227 285

C227 284 228 282 228 280

C228 267 215 253 196 246

C188 243 184 243 183 246

C182 250 184 252 190 254

C206 259 219 270 219 280

C219 285 224 288 227 285

Z

M443 283

C447 280 448 277 447 275

C445 272 442 272 439 274

C435 277 435 277 427 276

C422 275 421 275 420 276

C417 278 418 282 420 283

C426 286 438 287 443 283

Z

M438 270

C440 269 442 267 444 262

C447 257 447 255 447 251

C446 240 437 228 425 218

C417 212 403 205 392 202

L383 200

L381 202

C379 204 379 204 380 206

C380 208 382 209 388 210

C400 213 415 221 423 229

C435 240 439 249 437 256

C437 258 435 260 434 261

C432 263 432 263 419 259

C418 259 417 259 416 261

C413 265 415 267 421 269

C430 272 433 273 438 270

Z

M131 252

C136 249 139 244 140 238

C140 233 139 231 136 231

C133 231 131 233 131 237

C130 238 129 241 128 242

C126 245 125 245 121 244

C116 244 113 245 114 249

C116 254 125 255 131 252

Z

M61 238

C64 234 55 214 46 203

C41 199 38 196 32 193

C18 186 7 186 7 192

C7 195 10 197 16 197

C32 199 45 213 52 232

C53 235 54 238 54 239

C56 240 59 240 61 238

Z

M123 237

C134 231 137 219 130 204

C124 193 119 188 115 192

C113 194 114 196 117 200

C121 206 124 214 124 219

C124 224 124 225 121 227

C118 230 114 231 114 229

C114 227 111 224 109 224

C108 224 106 225 106 226

C104 228 104 229 106 232

C106 234 108 236 109 237

C112 240 118 239 123 237

Z

M202 234

C206 231 207 227 207 219

C206 210 204 206 201 206

C198 206 196 209 196 211

C197 213 197 216 198 219

C198 224 198 225 196 227

C194 229 193 234 196 235

C198 236 199 236 202 234

Z

M184 233

C186 231 190 229 191 227

C193 225 193 224 193 218

C192 214 191 210 190 208

C189 204 188 204 186 204

C181 204 180 206 182 212

C185 219 184 222 182 224

C174 228 165 226 154 215

C144 206 135 190 132 175

C130 169 128 166 124 168

C121 169 121 174 125 184

C129 200 137 213 148 222

C161 234 173 238 184 233

Z

M246 223

C248 220 247 217 242 212

C235 205 229 193 227 183

C225 173 226 167 230 162

C233 159 234 159 239 159

C250 159 263 164 276 174

C280 178 284 180 285 180

C287 180 289 178 289 175

C288 170 265 155 252 152

C244 149 234 150 229 152

C215 159 213 180 225 203

C230 214 240 226 244 224

C245 224 246 223 246 223

Z

M455 216

C463 213 467 205 465 198

C464 196 463 194 462 193

C458 191 454 195 456 200

C458 205 456 207 448 209

C444 210 443 211 443 213

C443 219 447 220 455 216

Z

M442 209

C447 206 451 198 451 194

C451 191 450 189 448 187

C443 182 437 182 437 188

C437 190 437 191 439 192

C443 194 443 195 439 200

C436 202 434 203 432 203

C427 203 419 200 413 196

C407 192 405 192 403 195

C401 198 403 200 410 204

C418 210 424 212 432 212

C437 212 440 211 442 209

Z

M549 200

C554 197 558 193 559 185

C563 171 556 148 541 132

C537 127 533 127 531 130

C530 133 530 133 535 138

C544 149 550 161 551 174

C552 188 548 193 538 193

C528 193 516 188 503 179

C500 176 496 173 495 173

C494 171 489 173 489 175

C488 178 492 182 502 189

C521 201 538 205 549 200

Z

M377 198

C378 196 378 193 377 191

C376 191 374 190 372 189

C357 184 340 172 336 161

C334 156 333 155 329 154

L325 152

L325 156

C327 171 343 188 364 196

C372 199 375 200 377 198

Z

M350 194

C350 193 347 190 344 188

C340 185 336 181 333 177

C331 174 328 171 328 171

C327 171 327 172 326 173

C326 176 329 183 334 188

C339 193 349 197 350 194

Z

M211 190

C215 188 213 184 208 178

C195 165 189 142 195 131

C200 120 221 125 243 141

C248 145 251 147 252 146

C254 146 256 142 255 140

C253 135 226 120 216 117

C200 113 188 119 184 132

C181 141 184 155 191 170

C195 178 206 191 208 191

C209 191 210 191 211 190

Z

M396 189

C398 186 396 182 394 182

C393 181 390 181 387 181

C377 179 365 171 353 157

C348 152 348 152 346 153

C345 154 344 155 343 155

C342 156 341 156 341 157

C341 158 354 172 360 177

C367 183 372 185 379 188

C386 190 394 191 396 189

Z

M111 183

C112 182 112 180 112 177

C110 162 100 147 85 134

C79 129 77 128 77 130

C77 131 76 133 75 134

C73 136 73 136 79 141

C93 152 101 165 103 178

C103 180 104 183 104 184

C106 185 109 185 111 183

Z

M79 176

C79 175 80 174 80 172

C80 171 79 169 73 167

C56 158 47 146 47 135

C47 132 46 131 44 128

C42 126 40 125 39 125

C38 127 38 139 39 144

C42 154 53 166 67 173

C74 177 77 178 79 176

Z

M383 174

C385 172 384 169 379 159

C370 144 362 136 352 134

C348 133 348 133 349 135

C349 136 349 138 350 140

C350 142 351 143 354 145

C360 147 366 154 371 164

C373 168 376 173 377 173

C378 175 381 175 383 174

Z

M96 170

C97 166 96 165 87 160

C76 154 70 149 67 144

C64 139 64 138 60 137

C57 137 55 137 55 137

C55 140 58 147 61 151

C64 156 70 161 82 167

C91 173 95 173 96 170

Z

M325 169

C325 168 324 167 323 166

C321 165 319 162 318 159

C316 155 316 154 317 151

C318 148 318 147 315 145

C314 143 312 142 312 142

C311 142 310 144 309 146

C307 150 309 156 313 163

C318 170 325 174 325 169

Z

M512 168

C528 163 532 141 519 116

C513 103 505 94 501 94

C499 94 497 95 497 97

C496 99 497 100 502 105

C512 117 519 136 517 147

C517 152 513 157 509 159

C500 162 483 155 466 143

C460 138 458 137 456 139

C454 141 455 145 458 148

C468 157 484 165 495 168

C503 169 506 169 512 168

Z

M120 164

C121 162 120 159 118 154

C111 133 93 115 78 113

C74 113 74 113 74 114

C75 115 75 117 76 119

C76 120 78 122 82 124

C85 125 90 128 93 131

C101 139 105 146 112 164

C113 165 114 166 116 166

C118 166 119 165 120 164

Z

M387 158

C390 156 389 152 384 144

C378 133 369 124 361 120

C355 117 354 117 346 117

C342 117 338 117 337 117

C337 118 338 120 340 122

C343 125 344 125 348 126

C351 126 355 127 357 128

C363 131 373 141 377 149

C382 159 383 160 387 158

Z

M178 155

C179 154 180 152 180 152

C180 151 178 148 175 145

C162 131 155 109 161 98

C166 86 187 90 209 108

C213 111 217 113 217 113

C219 113 221 110 221 108

C220 102 200 89 184 84

C176 81 167 82 161 84

C156 87 151 93 150 101

C147 115 155 138 169 152

C174 158 176 158 178 155

Z

M341 147

C344 144 344 139 341 133

C338 126 326 117 319 117

C318 117 313 113 308 109

C293 95 286 91 279 94

C276 95 273 100 273 103

C273 107 278 116 280 117

C282 118 285 117 286 115

C287 114 286 111 284 108

C279 98 287 101 302 115

C309 122 311 124 312 127

C313 133 315 137 320 141

C327 149 336 151 341 147

Z

M116 135

C116 128 109 120 100 116

C96 114 93 114 93 116

C93 116 95 118 97 119

C101 122 110 131 112 135

C115 139 116 139 116 135

Z

M304 134

C309 130 306 121 300 121

C293 121 290 130 296 134

C297 135 299 136 300 136

C301 136 303 135 304 134

Z

M482 132

C485 130 488 127 490 124

C492 119 492 118 492 109

C492 98 489 88 483 77

C475 64 468 58 464 61

C462 63 463 66 468 72

C477 82 483 97 483 109

C484 121 480 126 469 125

C459 125 443 117 431 107

C426 104 424 103 422 105

C420 108 421 111 428 116

C437 124 452 132 462 134

C469 135 477 134 482 132

Z

M68 129

C71 126 71 123 70 119

C67 110 59 102 50 100

C46 99 44 97 37 90

C28 80 24 75 24 72

C24 69 24 70 30 72

C35 75 38 75 39 72

C40 68 38 66 32 63

C19 57 11 66 17 80

C19 82 24 89 29 95

C36 103 39 107 39 108

C39 112 42 118 46 122

C52 129 65 133 68 129

Z

M144 121

C147 119 146 117 141 111

C131 100 125 86 125 73

C125 65 127 61 133 58

C142 55 160 62 177 75

C183 80 184 80 187 77

C189 73 188 71 179 65

C166 55 149 48 139 48

C124 48 116 57 116 73

C116 89 123 106 135 118

C140 123 142 124 144 121

Z

M31 112

C33 110 34 104 31 102

C29 100 23 99 21 102

C18 104 18 109 21 112

C22 113 24 114 26 114

C28 114 30 113 31 112

Z

M92 110

C92 108 85 101 81 99

C75 96 69 96 66 98

L63 100

L66 103

C69 107 69 107 72 105

C76 103 80 105 85 109

C90 113 93 114 92 110

Z

M324 110

C327 106 327 102 323 99

C319 96 315 96 312 101

C309 108 318 115 324 110

Z

M447 99

C457 94 461 80 457 63

C453 45 437 23 431 27

C428 29 429 32 434 38

C443 48 450 64 450 76

C450 79 449 82 448 85

C445 91 440 93 431 91

C422 89 410 83 401 76

C396 73 392 70 391 70

C389 70 387 73 387 75

C388 81 413 96 426 99

C433 101 442 101 447 99

Z

M55 93

C59 89 56 81 50 81

C46 81 43 84 43 88

C43 92 46 95 50 95

C52 95 54 94 55 93

Z

M111 88

C113 86 112 83 108 78

C97 67 90 51 91 38

C92 30 94 26 100 24

C108 21 125 27 140 39

C149 45 152 46 153 42

C155 39 153 37 145 31

C129 19 110 12 99 15

C88 17 82 25 82 39

C82 43 83 49 84 53

C86 62 93 76 100 83

C105 89 108 90 111 88

Z

M260 66

C265 63 268 59 266 56

C265 54 262 54 257 57

C254 59 253 59 245 59

C236 58 234 59 234 63

C234 67 237 68 248 68

C254 68 256 68 260 66

Z

M250 53

C257 51 264 41 262 37

C262 34 257 33 255 36

C254 37 252 39 251 41

C247 46 243 47 236 45

C227 41 222 34 223 24

C224 18 223 16 220 16

C218 16 217 17 216 17

C214 20 214 29 215 35

C219 49 237 59 250 53

Z

M570 48

C574 43 575 39 575 31

C575 22 574 18 570 17

C566 17 565 19 566 29

C566 37 566 38 564 41

C562 42 561 45 561 46

C561 50 566 51 570 48

Z

M58 590

C58 587 61 583 64 582

C70 580 80 581 89 586

C94 588 98 590 98 590

C98 591 89 591 78 591

C65 591 58 591 58 590

Z

"/>

</svg>

