<?xml version="1.0" standalone="no"?>

<!DOCTYPE svg PUBLIC "-//W3C//DTD SVG 20010904//EN"

 "http://www.w3.org/TR/2001/REC-SVG-20010904/DTD/svg10.dtd">

<svg version="1.0" xmlns="http://www.w3.org/2000/svg"

 width="594.000000pt" height="592.000000pt" viewBox="0 0 594.000000 592.000000"

 preserveAspectRatio="xMidYMid meet">

<path fill="#f4f0f3" stroke="none" d="
M0 296

L0 0

L297 0

L594 0

L594 296

L594 592

L297 592

L0 592

L0 296

Z

"/>

<path fill="#85568a" stroke="none" d="
M0 499

C0 447 0 405 1 405

C1 405 3 406 4 407

C10 411 18 415 23 416

C26 416 28 416 27 416

C27 416 25 415 23 415

C19 414 13 410 13 409

C14 409 15 408 17 407

C20 407 20 407 15 406

C12 405 7 404 5 403

L0 401

L0 393

L0 385

L6 391

C19 403 29 409 40 410

C46 412 45 410 38 409

C35 408 32 407 30 406

L28 403

L32 402

L37 401

L31 400

C23 399 15 395 7 387

L0 381

L0 373

C0 367 0 365 2 363

L5 361

L2 362

L0 363

L0 332

L0 301

L3 302

C5 302 6 302 8 300

C10 298 11 295 8 292

C7 290 6 290 3 290

L0 291

L0 280

L0 270

L10 270

C22 270 30 269 30 268

C30 267 21 264 14 264

C10 263 5 262 3 261

L0 260

L0 246

L0 232

L5 231

C12 228 14 229 20 233

C23 236 25 237 27 237

C30 237 36 233 36 230

C36 228 42 226 52 225

C57 224 63 223 65 223

C66 222 56 222 43 223

C20 223 7 224 2 226

C0 226 0 223 0 173

L0 120

L5 114

C10 108 15 100 15 96

C15 92 11 87 5 85

C3 84 0 84 0 83

C0 83 1 81 3 80

C7 75 10 69 10 66

C10 62 6 55 3 53

L0 51

L0 25

L0 0

L40 0

C71 0 80 0 80 1

C80 2 78 6 76 11

C71 22 64 30 57 33

C52 36 52 36 55 36

L58 37

L56 39

C55 41 52 43 49 44

C47 46 45 47 46 47

C49 47 56 42 62 36

C68 30 76 18 81 7

L83 0

L94 0

C106 0 106 0 101 10

C95 24 87 33 77 37

L74 38

L77 38

C79 38 81 38 81 39

C81 41 77 45 72 47

C69 49 67 50 68 50

C71 50 80 45 84 40

C86 38 91 33 93 29

C97 23 107 4 107 1

C107 -1 124 0 133 2

C138 3 145 4 150 5

C160 6 200 7 200 6

C200 5 198 5 196 5

C191 5 177 2 176 1

C175 0 185 0 200 0

C224 0 226 0 230 2

C236 5 245 13 250 20

C253 24 255 26 255 25

C257 24 254 20 244 9

L235 0

L243 0

C251 0 252 0 255 3

C257 5 261 9 264 13

C268 18 270 20 270 19

C271 18 269 14 261 6

L256 0

L275 0

C293 0 294 0 293 2

C292 3 288 4 281 4

C275 5 270 5 270 5

C270 6 273 6 276 6

C280 7 283 8 285 9

C289 13 291 14 294 14

C298 14 302 10 302 6

C302 3 304 0 306 0

C309 0 316 2 317 4

C320 6 319 10 317 14

C313 21 305 23 286 23

C272 23 263 25 257 28

C253 30 244 36 244 37

C245 37 247 36 249 35

C254 33 260 32 260 33

C260 33 258 35 256 37

C253 40 252 41 254 40

C255 40 258 40 261 39

L266 39

L261 43

L257 47

L263 46

L270 46

L266 49

L262 53

L265 53

C271 53 280 51 285 48

C290 45 291 45 299 45

C306 45 308 45 311 47

C316 51 314 61 306 69

C302 73 302 74 304 73

C315 69 325 60 329 51

C334 42 332 36 323 32

L317 30

L321 25

C328 17 329 10 324 4

L322 0

L354 0

L386 0

L386 3

C386 4 388 6 389 7

C392 9 392 9 395 8

C397 7 398 5 398 3

L398 0

L485 0

C571 0 572 0 571 2

C569 7 571 11 577 11

C581 11 584 7 581 3

L580 0

L587 0

L594 0

L594 25

L594 51

L589 49

C580 47 578 47 572 52

C567 57 564 58 552 58

C545 58 546 59 554 60

C558 61 561 62 563 64

C570 70 578 68 579 59

C579 55 580 54 583 54

C585 54 588 55 590 55

C594 57 594 57 594 62

C594 67 594 68 591 71

C586 75 580 76 562 76

C545 77 540 78 532 82

C526 85 519 91 523 89

C528 88 534 86 535 86

C537 86 537 87 533 90

C529 93 529 94 531 94

C532 93 536 93 538 92

L543 92

L538 96

L534 100

L540 99

L547 99

L543 103

L539 106

L546 106

C551 106 555 105 557 104

C559 103 562 101 564 100

C572 96 588 98 590 103

C592 108 589 115 583 123

C579 127 579 127 581 127

C582 126 586 125 588 123

C591 121 593 120 594 120

C594 120 594 144 594 173

L594 226

L585 228

C580 229 573 231 570 232

C558 236 537 237 513 233

L509 233

L513 235

C515 236 522 238 528 239

C541 242 540 243 525 243

C514 243 515 244 528 246

L539 248

L531 248

C527 249 522 249 521 248

C520 248 519 248 519 249

C520 249 524 251 529 252

L538 253

L533 254

C531 255 527 255 525 254

C523 254 522 254 523 255

C524 256 531 257 539 259

C545 259 543 261 534 262

C530 263 524 264 520 266

C517 268 511 269 508 270

C505 271 501 272 499 272

C496 273 484 280 484 281

C484 281 492 280 501 280

C529 278 542 275 546 267

C547 264 549 262 553 259

C555 258 558 256 559 256

C559 256 563 253 566 250

C573 244 581 239 589 235

L594 232

L594 246

L594 260

L590 257

C587 256 583 252 581 250

L577 245

L573 249

C571 251 568 254 567 255

C565 256 564 257 564 257

C567 260 587 269 590 270

L594 270

L594 281

C593 287 593 293 593 295

C592 297 592 299 593 299

C594 300 594 310 594 331

L594 363

L591 364

C589 364 586 365 585 365

C582 366 582 366 586 362

C590 357 590 357 587 358

C586 359 583 359 580 359

L577 359

L581 356

C583 354 585 352 585 352

C585 352 582 352 579 352

L573 352

L577 349

L581 345

L574 345

C566 346 562 347 558 350

C550 356 532 355 529 349

C528 348 528 346 528 345

C528 341 534 330 538 327

C541 324 541 324 539 325

C527 328 512 344 510 354

C510 357 510 358 513 361

C515 363 518 365 520 366

C522 367 524 367 524 368

C525 368 523 371 521 374

C514 384 513 389 520 396

C524 401 530 403 537 403

C542 403 543 403 546 400

C550 396 553 394 558 394

C561 394 565 394 568 393

L574 393

L566 391

C561 390 558 389 555 387

C549 381 540 385 540 393

C540 398 533 399 526 395

C520 392 525 380 535 377

C537 376 547 375 557 375

C575 374 580 373 589 369

C591 367 593 366 594 366

C594 366 594 369 594 373

L594 380

L591 377

C590 375 588 373 587 373

C585 373 586 374 590 379

L594 384

L594 392

L594 400

L587 395

C584 391 579 386 577 384

C575 381 573 378 573 378

C573 378 573 378 572 379

C571 380 576 387 587 397

L594 405

L594 498

L594 592

L496 592

C399 592 398 592 397 590

C394 587 391 587 388 590

C386 592 385 592 354 592

C323 592 323 592 318 590

C315 588 310 587 307 586

C302 586 301 586 298 589

L294 592

L275 592

L255 592

L252 589

C245 581 229 573 221 573

C220 573 221 574 224 575

C230 576 235 578 235 580

C235 580 233 581 231 582

L228 584

L233 584

C236 584 240 585 244 587

C253 591 253 592 243 592

C235 592 235 592 229 588

C221 583 215 580 209 579

L204 579

L208 580

C213 581 219 584 220 586

C220 586 218 587 216 588

L212 589

L218 590

C232 591 226 592 200 592

L174 592

L173 589

C172 586 166 583 163 584

C162 584 159 586 157 588

C154 590 152 591 149 591

C140 591 121 581 109 570

C107 568 103 565 102 564

C96 562 91 557 89 553

C86 548 78 545 66 542

C55 541 27 539 28 541

C30 543 44 549 51 550

C55 551 61 553 64 554

C66 556 72 557 76 558

C88 560 90 561 80 562

C76 563 72 564 70 564

L66 565

L74 566

C78 566 81 567 81 567

C80 567 76 568 72 569

C60 571 60 572 71 572

C83 572 83 573 73 574

C69 575 64 576 61 576

L58 578

L64 577

C70 577 83 578 82 579

C81 579 78 580 75 580

C67 581 56 585 54 586

C52 587 54 587 62 586

C69 585 78 585 90 585

C105 586 107 586 116 589

L125 592

L104 592

C87 592 84 592 84 591

C84 590 83 589 83 589

C82 589 81 590 81 591

C80 592 75 592 40 592

L0 592

L0 499

Z

M30 586

C31 585 32 584 32 582

C32 578 30 576 27 576

C21 576 18 582 22 586

C24 588 27 589 30 586

Z

M272 586

C277 581 272 574 266 576

C261 578 261 584 264 586

C267 589 270 588 272 586

Z

M568 586

C572 583 570 576 564 576

C559 576 556 582 560 586

C562 588 565 589 568 586

Z

M431 582

C434 577 430 571 424 572

C421 573 419 577 420 580

C422 585 428 585 431 582

Z

M289 580

C291 578 290 573 287 571

C285 570 284 570 282 571

C279 573 277 576 279 579

C281 583 287 583 289 580

Z

M51 578

C54 576 54 570 49 568

C43 566 38 573 43 578

C45 580 48 581 51 578

Z

M551 577

C554 575 554 569 549 567

C546 566 542 568 541 570

C540 573 542 577 544 578

C547 579 548 579 551 577

Z

M137 561

C141 559 144 558 151 557

C159 556 167 554 167 552

C167 551 145 550 137 550

C130 551 125 553 111 561

L107 563

L113 569

L119 575

L126 569

C129 566 134 562 137 561

Z

M194 570

C197 568 196 564 194 562

C192 560 189 559 186 562

C183 564 184 571 188 572

C190 573 192 572 194 570

Z

M268 570

C269 568 270 566 270 566

C270 563 266 560 264 560

C261 560 257 563 257 566

C257 568 262 572 264 572

C264 572 266 571 268 570

Z

M213 567

C217 564 215 557 209 557

C203 557 201 564 205 567

C206 568 208 569 209 569

C210 569 212 568 213 567

Z

M356 567

C360 563 357 557 352 557

C349 557 348 558 347 559

C345 562 345 563 347 566

C350 570 353 570 356 567

Z

M564 567

C569 562 563 554 556 558

C555 559 554 560 554 562

C554 568 560 571 564 567

Z

M373 566

C374 565 374 563 374 561

C374 558 373 557 371 556

C368 555 368 555 365 557

C361 559 361 563 365 566

C367 568 370 568 373 566

Z

M36 563

C38 560 39 558 36 555

C35 553 29 552 27 554

C25 557 25 560 27 562

C30 566 33 566 36 563

Z

M336 560

C340 557 338 550 332 550

C327 550 324 556 328 560

C330 562 333 563 336 560

Z

M460 560

C463 558 463 552 460 551

C457 549 453 550 452 552

C449 555 450 558 452 560

C454 562 458 563 460 560

Z

M541 559

C542 558 543 556 543 555

C543 552 540 548 538 548

C535 548 531 552 531 555

C531 557 535 561 538 561

C538 561 540 560 541 559

Z

M434 553

C436 551 437 548 434 545

C431 541 424 543 424 549

C424 554 430 557 434 553

Z

M358 552

C359 551 360 549 360 548

C360 545 357 541 355 541

C352 541 348 545 348 548

C348 550 352 554 355 554

C355 554 357 553 358 552

Z

M474 552

C477 550 477 544 473 542

C470 541 470 541 467 543

C463 545 463 549 467 552

C470 554 471 554 474 552

Z

M202 550

C205 548 204 544 202 542

C196 536 188 544 194 550

C196 552 200 553 202 550

Z

M510 548

C512 546 511 540 509 539

C506 536 503 537 501 539

C499 541 498 545 501 547

C503 549 508 550 510 548

Z

M452 545

C457 540 452 533 446 535

C441 537 441 543 444 545

C447 548 450 547 452 545

Z

M111 542

C114 539 111 532 106 532

C103 532 100 535 100 538

C100 544 107 547 111 542

Z

M182 544

C183 543 184 542 184 540

C184 534 178 531 174 535

C169 540 175 548 182 544

Z

M322 539

C324 537 323 531 321 529

C316 526 310 531 311 536

C312 540 318 542 322 539

Z

M27 538

C29 537 30 531 27 529

C24 526 17 529 17 534

C17 536 20 540 23 540

C24 540 26 539 27 538

Z

M158 538

C162 534 159 528 154 528

C150 528 148 530 148 534

C148 539 154 542 158 538

Z

M419 534

C426 529 419 520 412 525

C409 527 409 533 413 535

C416 536 416 536 419 534

Z

M64 530

C66 527 66 527 65 524

C63 520 57 520 55 523

C52 526 53 528 56 531

C59 534 62 533 64 530

Z

M375 525

C378 524 384 521 388 518

C397 512 413 497 412 496

C412 495 408 499 403 503

C392 514 384 518 374 518

L367 519

L370 520

C372 521 374 522 374 523

C373 524 368 526 362 527

L357 528

L363 528

C367 527 372 526 375 525

Z

M44 524

C48 521 46 514 40 514

C34 514 32 521 36 524

C37 525 39 526 40 526

C41 526 43 525 44 524

Z

M286 524

C289 521 288 518 286 516

C282 512 276 515 276 520

C276 526 283 528 286 524

Z

M543 521

C545 519 546 516 543 513

C540 509 533 511 533 517

C533 522 539 525 543 521

Z

M227 520

C231 516 228 510 223 510

C217 510 214 516 218 520

C219 521 221 522 223 522

C224 522 226 521 227 520

Z

M353 519

C361 516 373 508 383 499

C389 493 391 490 390 490

C389 489 388 490 385 493

C374 505 360 513 352 513

C347 513 347 513 349 514

C351 515 352 516 352 516

C352 518 346 520 340 521

L335 522

L341 522

C345 521 350 520 353 519

Z

M23 518

C27 515 24 508 20 508

C16 508 13 511 13 514

C13 519 19 522 23 518

Z

M140 513

C152 509 164 499 175 485

C180 479 181 477 179 477

C178 477 177 479 175 482

C170 488 161 497 155 500

C152 502 147 504 144 504

C138 506 138 506 141 506

C143 507 144 508 144 508

C143 510 138 513 133 514

C129 515 129 515 132 515

C133 515 137 514 140 513

Z

M480 508

C485 505 494 503 500 503

L505 503

L499 502

C496 502 490 501 486 501

C480 501 477 500 476 499

C472 497 467 498 463 502

L459 505

L455 503

C450 501 445 496 432 481

C428 476 423 472 419 470

L414 467

L417 461

C424 448 419 439 396 424

C386 418 385 417 385 420

C386 421 386 424 387 426

C388 432 390 437 394 440

C403 445 405 453 401 460

C399 463 398 463 395 463

C393 463 389 464 386 464

L381 465

L388 467

C392 467 395 468 396 468

C396 469 392 469 387 469

C378 469 378 469 382 470

C384 471 389 472 392 473

C396 474 396 474 385 474

C373 474 372 475 383 476

C386 477 390 478 393 478

C396 479 396 479 385 480

C379 481 371 482 369 482

C365 484 365 484 378 484

C403 486 415 488 430 496

C447 505 466 511 473 510

C475 510 478 509 480 508

Z

M127 507

C130 505 135 503 137 501

C148 494 168 473 165 472

C164 471 161 474 158 478

C153 484 144 492 138 495

C136 496 132 498 128 498

C122 500 122 500 125 500

C127 501 129 501 129 502

C130 503 125 506 120 508

C115 509 115 509 118 509

C120 509 124 508 127 507

Z

M83 500

C87 497 84 490 79 490

C76 490 73 493 73 496

C73 501 79 504 83 500

Z

M223 500

C229 499 234 494 236 488

C238 484 236 478 230 471

L226 466

L231 465

C241 462 244 454 238 445

C233 436 222 426 213 424

C211 423 212 424 215 427

C223 436 225 446 220 450

C217 452 215 452 209 452

C201 452 200 452 193 449

C188 445 185 445 178 444

L171 444

L175 447

C177 449 179 450 179 451

C179 451 176 451 173 451

C167 450 166 450 167 451

C168 452 170 454 172 455

L176 458

L171 458

C168 457 165 457 164 456

C162 456 163 457 165 460

C169 464 169 464 167 464

C166 464 162 463 159 462

L154 460

L156 462

C158 465 165 469 172 471

C177 473 183 473 197 474

C213 475 215 475 220 477

C226 480 230 487 228 491

C226 494 221 496 217 496

C213 496 213 495 212 491

C209 483 203 480 196 486

C193 488 190 489 185 490

L178 492

L188 492

C199 493 201 494 206 499

C209 501 210 502 213 502

C216 502 220 501 223 500

Z

M523 496

C527 493 524 486 519 486

C514 486 511 492 515 496

C517 498 521 499 523 496

Z

M41 495

C44 493 44 488 40 485

C38 484 37 484 35 485

C34 486 32 487 32 488

C30 490 32 495 34 496

C37 497 38 497 41 495

Z

M273 483

C269 479 264 475 261 474

C254 470 245 469 239 469

L235 470

L238 474

C239 476 240 479 241 482

C241 485 242 486 243 486

C249 483 263 484 273 488

C276 489 279 489 279 489

C279 489 277 486 273 483

Z

M346 474

C348 473 349 468 346 466

C346 465 344 464 342 464

C338 464 336 466 336 470

C336 473 339 476 342 476

C343 476 345 475 346 474

Z

M441 464

C446 458 453 454 461 451

C467 449 475 445 475 443

C475 442 458 444 449 447

C445 447 440 449 438 450

C434 453 419 464 419 465

C419 466 421 467 424 469

C427 470 430 473 431 474

C432 475 433 475 434 472

C436 471 438 467 441 464

Z

M12 468

C15 466 14 462 12 460

C6 454 -2 462 4 468

C6 470 10 471 12 468

Z

M292 468

C296 464 293 458 288 458

C282 458 279 464 283 468

C284 469 286 470 288 470

C289 470 291 469 292 468

Z

M476 468

C480 465 477 458 472 458

C469 458 466 461 466 464

C466 469 472 472 476 468

Z

M536 468

C539 465 538 462 536 460

C532 456 526 459 526 464

C526 470 533 472 536 468

Z

M329 467

C330 466 331 465 331 463

C331 459 329 457 326 457

C320 457 317 463 321 467

C323 469 326 470 329 467

Z

M138 464

C140 462 141 458 138 456

C135 452 128 455 128 460

C128 465 134 468 138 464

Z

M584 463

C585 461 586 459 586 459

C586 456 582 452 580 452

C577 452 573 456 573 459

C573 461 577 465 580 465

C580 465 582 464 584 463

Z

M29 460

C33 456 30 450 25 450

C19 450 17 455 20 459

C23 463 26 463 29 460

Z

M110 460

C114 456 111 450 106 450

C102 450 100 452 100 456

C100 461 106 464 110 460

Z

M345 456

C346 454 347 452 347 452

C347 449 343 446 341 446

C338 446 334 449 334 452

C334 454 339 458 341 458

C341 458 343 457 345 456

Z

M11 452

C15 449 15 446 12 443

C10 441 7 440 4 443

C1 445 1 451 5 453

C8 454 8 454 11 452

Z

M511 452

C514 448 514 447 511 443

C508 441 507 441 504 442

C499 444 500 451 504 453

C508 454 508 454 511 452

Z

M300 449

C304 445 301 439 295 439

C292 439 290 441 290 445

C290 448 293 451 296 451

C297 451 299 450 300 449

Z

M152 446

C156 442 153 436 148 436

C144 436 142 438 142 442

C142 447 148 450 152 446

Z

M129 446

C131 445 132 444 133 442

C134 437 128 432 123 436

C120 438 120 444 124 446

C127 447 126 447 129 446

Z

M576 442

C577 441 578 440 578 438

C578 434 576 432 573 432

C567 432 564 438 568 442

C570 444 573 445 576 442

Z

M82 439

C84 437 85 434 82 431

C79 427 72 429 72 435

C72 440 78 443 82 439

Z

M290 439

C294 436 291 429 286 429

C281 429 278 435 282 439

C284 441 288 442 290 439

Z

M491 437

C495 432 489 425 483 428

C479 430 479 436 482 438

C485 440 489 440 491 437

Z

M57 435

C61 431 58 425 53 425

C47 425 45 430 48 434

C51 438 54 438 57 435

Z

M519 435

C523 432 521 425 515 425

C509 425 507 432 511 435

C512 436 514 437 515 437

C516 437 518 436 519 435

Z

M343 429

C347 426 344 419 339 419

C336 419 333 422 333 425

C333 430 340 433 343 429

Z

M98 426

C100 425 100 423 100 421

C100 417 98 415 94 415

C91 415 88 418 88 421

C88 426 94 429 98 426

Z

M500 425

C501 424 502 422 502 421

C502 417 496 413 492 416

C490 417 489 421 490 423

C492 428 497 428 500 425

Z

M444 422

C447 420 446 416 444 414

C442 412 439 411 436 414

C434 415 433 420 436 422

C438 424 442 424 444 422

Z

M73 421

C76 418 76 414 73 412

C71 410 66 411 65 413

C62 416 63 419 65 421

C68 424 71 424 73 421

Z

M573 419

C575 418 575 416 575 414

C575 410 573 408 569 408

C566 408 563 411 563 414

C563 419 569 422 573 419

Z

M196 413

C198 411 199 407 196 405

C193 401 186 404 186 409

C186 414 192 417 196 413

Z

M382 405

C385 400 380 394 375 396

C370 398 370 404 373 406

C376 408 380 408 382 405

Z

M402 404

C405 402 404 398 402 396

C396 390 388 398 394 404

C396 406 400 407 402 404

Z

M254 403

C257 401 256 397 254 395

C249 390 241 396 245 403

C246 406 252 406 254 403

Z

M128 400

C130 397 129 395 126 393

C123 391 123 391 120 392

C116 394 115 400 120 403

C123 404 126 403 128 400

Z

M234 397

C237 393 235 388 229 388

C226 388 223 391 223 394

C223 397 227 400 229 400

C231 400 233 399 234 397

Z

M325 397

C336 392 346 383 357 368

C362 361 363 360 361 360

C360 360 358 362 357 365

C349 378 334 389 324 389

L320 389

L323 390

C325 391 327 392 327 392

C328 394 323 397 317 398

C312 400 312 400 316 400

C318 399 322 398 325 397

Z

M305 393

C309 391 315 386 320 381

C329 373 339 360 339 358

C339 355 336 358 333 363

C329 369 318 380 313 383

C311 384 308 386 305 386

C300 388 300 388 302 388

C304 389 305 389 305 390

C305 391 301 394 295 395

L291 397

L295 396

C297 396 302 394 305 393

Z

M216 394

C217 392 218 390 218 390

C218 387 214 383 212 383

C209 383 205 387 205 390

C205 392 209 396 212 396

C212 396 214 395 216 394

Z

M390 391

C390 390 391 388 391 387

C391 381 385 378 381 382

C379 384 378 387 381 390

C382 392 388 393 390 391

Z

M500 386

L511 387

L511 384

C511 383 512 379 513 376

C515 374 516 371 516 371

C516 371 512 371 507 371

C499 372 496 372 492 374

C486 377 473 388 473 390

C473 390 477 390 481 388

C488 386 491 386 500 386

Z

M169 389

C171 388 171 386 171 384

C171 380 169 378 165 378

C162 378 159 381 159 384

C159 389 165 392 169 389

Z

M410 388

C413 386 413 380 409 378

C406 377 406 377 403 379

C399 381 399 385 403 388

C406 390 407 390 410 388

Z

M241 387

C245 385 246 382 244 378

C242 373 233 375 233 381

C233 384 235 386 237 387

C238 388 239 388 239 388

C239 388 240 387 241 387

Z

M455 383

C458 381 457 377 455 375

C453 373 450 372 447 375

C445 376 444 381 447 383

C449 385 453 385 455 383

Z

M121 375

C137 373 144 370 146 363

C148 360 157 353 160 353

C160 353 164 350 167 347

C178 337 196 327 205 327

C209 327 211 327 214 330

C220 336 227 335 231 328

C232 324 238 322 250 321

C254 321 257 320 258 320

C258 319 250 319 218 320

C205 321 188 324 174 328

C163 332 155 333 144 333

C136 333 118 332 112 330

C109 330 109 330 110 331

C113 333 126 337 133 338

C136 338 139 339 139 339

C139 340 128 341 121 340

L116 340

L120 342

C122 342 128 343 132 344

C141 345 138 346 127 346

L120 346

L124 348

C126 348 130 349 132 350

C139 351 138 352 130 352

L124 352

L128 354

C130 354 134 355 137 356

C141 356 143 357 143 357

C143 358 143 358 143 358

C139 358 124 362 120 363

C118 365 112 367 108 367

C101 369 89 374 86 377

C84 379 107 377 121 375

Z

M222 366

L226 366

L222 364

C219 362 214 361 209 361

C199 360 192 357 183 349

L177 343

L171 349

C167 352 164 355 164 355

C164 355 169 357 175 361

C182 365 187 367 191 367

C197 368 216 367 222 366

Z

M44 364

C48 361 46 354 40 354

C34 354 32 361 36 364

C37 365 39 366 40 366

C41 366 43 365 44 364

Z

M259 365

C264 362 261 354 255 354

C252 354 249 357 249 360

C249 364 255 368 259 365

Z

M429 363

C434 359 439 357 446 355

C453 353 450 353 438 354

C431 355 428 355 424 354

C418 352 416 353 413 358

C410 362 410 362 406 362

C402 361 395 356 383 346

C375 339 364 332 360 332

C359 332 359 331 361 327

C362 325 362 321 362 318

C362 312 360 307 352 301

C345 297 324 286 323 287

C323 288 327 300 329 303

C330 304 333 306 336 308

C343 312 346 315 346 320

C346 325 344 330 342 330

C341 330 337 331 333 332

L327 334

L334 335

L342 336

L337 336

C334 337 329 338 327 338

L323 340

L332 340

C337 340 341 340 341 341

C342 341 339 342 335 342

C331 343 325 344 323 344

L319 346

L325 345

C332 345 344 346 343 347

C342 347 338 348 334 349

C326 350 315 353 314 355

C313 355 315 355 319 355

C322 354 334 354 346 354

L367 354

L377 357

C386 360 399 364 406 365

C407 366 412 366 417 366

C425 366 426 365 429 363

Z

M304 360

C305 357 305 357 303 354

C301 350 297 350 294 354

C292 357 292 358 294 361

C296 364 302 364 304 360

Z

M494 350

C498 347 495 340 490 340

C485 340 482 346 486 350

C488 352 492 353 494 350

Z

M383 329

C388 319 393 314 402 309

C409 306 418 298 415 298

C413 298 391 305 385 308

C381 310 378 313 371 320

C367 325 363 329 363 329

C363 330 364 330 365 330

C366 330 369 331 372 333

C375 335 378 336 378 336

C379 336 381 333 383 329

Z

M27 328

C28 327 29 326 29 324

C29 320 27 318 24 318

C18 318 15 324 19 328

C21 330 24 331 27 328

Z

M48 328

C52 325 50 318 45 318

C39 318 36 324 40 328

C42 330 45 331 48 328

Z

M141 327

C141 325 133 309 129 302

C122 291 112 281 105 280

C103 279 104 279 106 281

C110 283 115 288 115 289

C115 290 114 290 112 290

C109 290 109 290 114 292

C116 294 121 297 123 300

C128 305 137 321 138 327

C139 329 141 330 141 327

Z

M288 323

C290 320 289 318 286 316

C281 312 275 317 277 322

C279 327 285 328 288 323

Z

M163 321

C154 298 139 280 127 277

C125 276 126 277 129 278

C133 281 138 285 138 287

C138 288 137 288 134 288

L131 288

L135 290

C145 293 156 307 161 324

C162 325 163 326 163 326

C165 326 165 325 163 321

Z

M494 319

C496 315 495 312 491 310

C488 308 484 310 483 315

C483 319 484 321 489 321

C491 321 492 320 494 319

Z

M98 319

C99 318 100 316 101 315

C101 312 98 308 95 308

C91 308 88 311 88 314

C88 319 95 322 98 319

Z

M567 318

C569 316 570 313 567 310

C564 306 557 308 557 314

C557 319 563 322 567 318

Z

M244 316

C247 314 248 313 248 310

C248 306 244 304 240 304

C235 306 235 314 239 316

C242 317 242 317 244 316

Z

M323 312

C327 309 324 302 319 302

C314 302 311 308 315 312

C317 314 321 315 323 312

Z

M182 311

C185 309 185 306 184 303

C181 300 176 300 174 303

C172 306 172 307 174 310

C176 313 180 314 182 311

Z

M29 307

C30 306 31 304 31 303

C31 300 28 297 25 297

C19 297 17 302 20 306

C23 310 26 310 29 307

Z

M202 307

C204 305 205 301 202 299

C199 295 192 298 192 303

C192 308 198 311 202 307

Z

M451 303

C455 299 452 293 447 293

C443 293 441 295 441 299

C441 304 447 307 451 303

Z

M516 300

C521 298 521 291 516 289

C513 288 513 288 511 289

C507 292 507 297 510 299

C513 301 513 301 516 300

Z

M190 296

C193 293 192 290 190 288

C186 284 180 287 180 292

C180 298 187 300 190 296

Z

M538 295

C540 293 540 292 539 289

C537 285 531 285 529 288

C526 291 527 294 529 296

C532 299 536 298 538 295

Z

M212 291

C213 288 213 288 211 285

C209 281 205 281 202 285

C200 288 200 289 202 292

C204 295 210 295 212 291

Z

M394 289

C396 287 395 283 391 281

C387 278 381 284 383 289

C385 293 391 294 394 289

Z

M582 289

C586 286 584 279 578 279

C573 279 570 285 574 289

C576 291 579 292 582 289

Z

M416 283

C419 281 418 277 416 275

C414 273 411 272 408 275

C406 276 405 281 408 283

C410 285 414 285 416 283

Z

M315 281

C317 279 318 275 315 273

C312 269 305 272 305 277

C305 282 311 285 315 281

Z

M294 280

C297 278 297 273 294 272

C291 269 288 270 286 272

C280 278 288 286 294 280

Z

M76 276

C80 273 77 266 72 266

C69 266 66 270 66 272

C66 277 73 280 76 276

Z

M384 274

C387 271 386 267 383 265

C380 264 380 264 377 265

C372 268 374 276 380 276

C381 276 383 275 384 274

Z

M230 273

C233 270 232 266 229 264

C226 263 226 263 223 264

C218 267 220 275 226 275

C227 275 229 274 230 273

Z

M280 267

C284 263 281 257 276 257

C270 257 268 264 272 267

C275 270 278 269 280 267

Z

M325 265

C326 262 326 261 324 259

C322 256 318 255 315 258

C313 261 312 263 315 266

C317 269 323 269 325 265

Z

M303 264

C307 261 305 254 299 254

C294 254 291 260 295 264

C297 266 300 267 303 264

Z

M469 262

C472 260 471 256 469 254

C467 252 464 251 461 254

C459 255 458 260 461 262

C463 264 467 264 469 262

Z

M187 257

C190 255 190 249 186 247

C183 246 183 246 180 247

C179 248 178 250 177 251

C176 253 178 257 180 258

C183 259 184 259 187 257

Z

M361 253

C364 250 363 247 361 245

C359 243 356 242 353 245

C351 247 350 251 352 253

C354 256 360 255 361 253

Z

M438 253

C440 252 441 246 438 244

C435 241 428 244 428 249

C428 251 431 255 434 255

C435 255 437 254 438 253

Z

M109 249

C111 248 112 246 112 245

C112 242 108 238 105 238

C105 238 103 239 102 240

C99 242 99 247 102 249

C105 252 106 251 109 249

Z

M152 243

C156 240 153 233 148 233

C146 233 142 236 142 239

C142 244 149 247 152 243

Z

M133 241

C135 239 134 233 132 232

C129 229 126 230 124 232

C122 234 121 238 124 240

C126 242 131 243 133 241

Z

M236 233

C238 231 237 225 235 223

C230 220 224 225 225 230

C226 234 232 236 236 233

Z

M145 229

C148 226 147 223 145 221

C139 215 131 223 136 230

C138 232 144 231 145 229

Z

M163 230

C165 229 165 227 165 225

C165 221 163 219 159 219

C156 219 153 222 153 225

C153 230 159 233 163 230

Z

M540 229

C539 224 532 210 528 204

C520 192 510 183 503 182

C501 181 502 182 505 183

C509 185 515 191 515 192

C515 193 514 193 512 193

L509 193

L512 194

C520 197 530 210 536 224

C537 228 539 231 540 231

C541 231 541 230 540 229

Z

M345 227

C347 224 346 222 343 219

C341 217 341 217 338 218

C333 219 332 226 337 229

C340 230 343 229 345 227

Z

M472 228

C475 225 474 221 471 219

C469 217 468 217 465 218

C461 220 461 226 464 228

C467 231 469 230 472 228

Z

M564 228

C564 226 558 212 553 205

C546 192 532 179 526 179

C525 179 527 180 529 182

C532 183 535 185 536 187

L538 190

L534 190

L530 191

L534 192

C539 193 545 198 549 203

C553 208 560 221 561 225

C561 227 562 229 563 229

C563 229 564 229 564 228

Z

M278 226

C268 223 265 220 272 218

L276 218

L270 217

C266 216 262 215 260 214

C253 211 244 203 239 196

C235 191 233 189 233 190

C231 191 235 196 246 207

C259 220 271 227 279 227

C282 227 282 227 278 226

Z

M379 221

C386 216 395 200 400 183

C403 174 404 172 402 172

C401 172 400 176 399 180

C397 188 391 199 387 205

C385 207 381 210 378 212

L373 214

L377 214

C380 213 382 214 382 214

C382 215 374 224 371 226

C369 226 370 226 372 225

C374 224 377 223 379 221

Z

M449 223

C452 220 449 213 444 213

C441 213 438 216 438 219

C438 225 445 228 449 223

Z

M296 221

C296 220 295 220 294 220

C291 220 284 217 283 215

C282 215 284 214 286 213

L291 212

L285 211

C281 210 276 209 273 207

C266 203 256 194 252 187

C250 185 248 183 247 184

C246 184 250 190 260 200

C270 211 281 218 291 221

C293 221 296 222 296 222

C296 222 296 222 296 221

Z

M398 218

C405 214 410 206 416 195

C421 184 426 168 425 167

C423 167 423 167 421 175

C417 190 409 202 400 207

L396 209

L400 208

C403 208 404 208 404 209

C404 211 401 215 396 218

C394 220 392 221 393 221

C393 221 396 220 398 218

Z

M98 216

C100 214 99 209 97 207

C92 204 86 209 87 214

C89 219 95 220 98 216

Z

M483 214

C487 210 484 204 479 204

C473 204 471 211 475 214

C478 217 481 216 483 214

Z

M208 210

L212 206

L223 205

L235 204

L227 202

C223 202 219 200 218 199

C213 195 208 194 204 197

C202 198 201 200 201 202

C201 207 200 208 195 208

C189 208 184 205 184 201

C184 196 188 191 194 189

C198 187 201 187 217 186

C238 185 245 183 253 177

C258 173 260 171 256 173

C253 175 243 177 243 176

C243 176 245 174 247 172

C250 170 251 168 250 169

C248 169 245 169 243 170

L238 170

L242 166

L246 162

L240 163

L234 163

L238 159

L242 156

L234 156

C228 157 225 158 219 161

C212 164 211 165 203 165

C197 165 195 164 192 162

C187 158 189 148 197 139

C200 137 201 135 201 135

C200 135 197 136 194 138

C187 141 176 152 173 158

C168 168 171 174 184 178

C186 179 186 179 183 183

C178 188 176 192 176 197

C176 207 185 214 198 214

C203 214 203 214 208 210

Z

M462 208

C466 205 463 198 458 198

C455 198 452 201 452 204

C452 209 458 212 462 208

Z

M13 204

C15 202 16 198 13 196

C11 193 6 194 5 196

C2 199 3 202 5 204

C7 206 11 207 13 204

Z

M158 198

L171 198

L172 194

C172 192 173 189 175 186

L177 182

L168 182

C160 182 158 183 152 186

C145 189 138 194 135 199

L133 202

L139 200

C144 198 148 198 158 198

Z

M120 192

C121 190 122 188 122 188

C122 187 121 185 120 183

C118 182 116 181 116 181

C113 181 109 185 109 188

C109 188 110 190 111 192

C113 193 115 194 116 194

C116 194 118 193 120 192

Z

M572 190

C576 187 573 180 568 180

C566 180 562 183 562 186

C562 191 569 194 572 190

Z

M322 183

C326 179 323 173 318 173

C314 173 312 175 312 179

C312 184 318 187 322 183

Z

M349 183

C350 182 351 180 352 179

C352 176 349 172 346 172

C342 172 339 175 339 178

C339 183 346 186 349 183

Z

M472 182

C476 178 473 172 468 172

C464 172 462 174 462 178

C462 183 468 186 472 182

Z

M59 182

C62 181 64 177 62 174

C62 173 60 172 59 171

C57 170 56 170 54 171

C50 174 50 179 53 181

C56 183 56 183 59 182

Z

M282 181

C285 178 284 174 281 172

C278 171 278 171 275 172

C272 174 271 179 274 181

C276 184 280 183 282 181

Z

M302 180

C303 177 303 177 302 174

C299 169 291 171 291 177

C291 183 299 185 302 180

Z

M131 179

C134 177 134 171 130 169

C127 168 127 168 124 170

C120 172 120 176 124 179

C127 181 128 181 131 179

Z

M80 177

C81 176 82 175 82 173

C82 167 76 164 72 168

C67 173 73 181 80 177

Z

M369 174

C371 172 382 167 388 166

C392 165 399 164 404 164

C409 164 419 163 425 162

C435 160 441 160 454 160

C471 160 477 161 491 167

C495 168 498 169 498 169

C498 168 497 167 496 165

C494 161 487 156 479 153

C467 148 441 146 430 150

C426 150 424 151 423 151

C422 151 436 134 443 127

C455 116 469 102 473 100

C475 99 477 98 477 97

C477 97 474 98 470 100

C466 102 460 104 456 104

C448 105 445 108 444 115

C442 124 434 132 420 137

C415 138 411 139 404 139

C391 139 384 141 375 148

C371 151 371 152 377 150

C385 147 387 147 380 150

C369 157 368 158 379 154

C389 151 390 151 381 156

C377 158 372 161 371 162

C368 165 368 165 376 162

C380 160 385 158 388 158

C391 157 391 157 384 161

C377 164 364 175 367 175

C367 175 368 175 369 174

Z

M41 171

C42 168 42 168 41 165

C38 160 30 162 30 168

C30 174 38 176 41 171

Z

M540 168

C544 165 542 158 536 158

C531 158 528 164 532 168

C534 170 538 171 540 168

Z

M313 167

C316 164 315 161 313 159

C309 155 303 158 303 163

C303 169 310 171 313 167

Z

M56 155

C60 153 65 149 71 144

C81 134 92 120 90 119

C89 118 87 121 84 126

C75 139 65 146 54 148

L49 149

L52 149

C54 150 56 151 56 151

C56 153 50 156 45 158

L40 159

L44 159

C47 158 52 157 56 155

Z

M151 157

C153 156 154 152 153 150

C151 144 141 146 141 152

C141 156 147 159 151 157

Z

M94 155

C96 152 97 150 94 147

C92 145 88 144 86 146

C83 148 84 154 86 155

C89 158 91 157 94 155

Z

M28 155

C38 151 52 139 63 125

C68 117 69 116 67 116

C66 116 64 118 62 121

C54 134 39 146 31 146

L28 146

L31 147

L34 149

L32 151

C29 153 26 154 21 155

C19 156 19 156 21 156

C23 156 26 155 28 155

Z

M279 150

C283 146 280 140 275 140

C269 140 267 147 271 150

C274 153 277 152 279 150

Z

M335 149

C337 148 337 147 337 144

C336 140 333 137 329 139

C323 142 325 151 332 151

C332 151 334 150 335 149

Z

M529 147

C533 144 530 137 525 137

C520 137 517 143 521 147

C523 149 527 150 529 147

Z

M235 144

C239 140 236 134 231 134

C227 134 225 136 225 140

C225 145 231 148 235 144

Z

M571 143

C572 141 572 141 571 138

C569 133 562 133 560 138

C558 142 561 146 566 146

C568 146 569 145 571 143

Z

M139 138

C141 135 141 135 140 132

C138 128 132 128 130 131

C128 134 128 135 130 138

C133 142 137 142 139 138

Z

M164 138

C166 135 166 135 165 132

C163 128 157 128 155 131

C153 134 153 135 155 138

C158 142 162 142 164 138

Z

M401 135

C407 135 407 135 408 131

C410 125 409 115 407 112

C404 106 377 86 377 89

C377 92 383 99 388 104

C390 106 393 110 394 112

C396 116 395 124 393 131

C391 137 391 137 393 136

C394 136 397 136 401 135

Z

M517 135

C524 130 517 121 510 126

C507 128 507 134 511 136

C514 137 514 137 517 135

Z

M364 135

C367 133 367 128 365 126

C361 122 353 125 354 131

C355 134 358 136 361 136

C362 136 363 135 364 135

Z

M491 132

C493 131 494 125 492 123

C491 123 488 122 485 122

C481 122 478 123 477 123

C475 125 476 131 478 132

C481 134 488 134 491 132

Z

M538 128

C542 125 542 121 538 119

C535 117 535 117 532 118

C528 120 528 126 531 128

C534 130 535 130 538 128

Z

M159 121

C165 117 174 113 178 113

C180 113 180 113 179 112

C178 112 173 112 167 113

C159 114 156 114 152 113

C148 112 147 112 144 113

C143 114 141 116 141 118

C138 124 129 120 110 104

C103 97 92 91 89 91

C87 91 87 91 89 86

C91 81 92 74 90 70

C88 66 83 62 76 57

C70 54 58 48 53 47

L51 46

L53 52

C56 61 59 64 66 68

C75 73 76 77 73 86

C72 88 71 89 70 89

C69 89 65 90 61 91

L55 93

L62 94

L70 95

L65 95

C62 96 58 97 56 97

C52 98 52 99 61 99

C70 99 74 101 65 101

C60 101 49 103 48 104

C48 105 50 105 54 104

C61 104 72 105 70 106

C69 106 66 107 63 107

C57 108 43 113 42 114

C41 115 41 115 43 115

C48 113 67 112 80 112

C95 113 96 113 108 117

C124 122 135 125 145 125

C152 125 153 125 159 121

Z

M259 121

C264 116 258 108 251 112

C250 113 249 114 249 116

C249 122 255 125 259 121

Z

M510 121

C511 119 512 117 512 117

C512 114 508 110 506 110

C503 110 499 114 499 117

C499 119 503 123 506 123

C506 123 508 122 510 121

Z

M311 115

C315 111 312 105 307 105

C303 105 301 107 301 111

C301 116 307 119 311 115

Z

M331 113

C334 110 333 107 331 105

C325 99 317 107 323 113

C325 116 330 116 331 113

Z

M215 111

C219 108 217 101 211 101

C206 101 203 107 207 111

C209 113 213 114 215 111

Z

M296 105

C300 102 297 95 292 95

C289 95 286 98 286 101

C286 106 292 109 296 105

Z

M431 103

C434 101 434 96 431 93

C424 89 418 98 424 103

C427 105 428 105 431 103

Z

M337 101

C339 100 340 96 339 94

C337 88 327 90 327 96

C327 100 333 103 337 101

Z

M319 98

C321 96 321 93 319 90

C317 88 311 89 310 91

C307 94 308 96 310 99

C313 102 315 102 319 98

Z

M111 88

C116 78 122 72 130 68

C137 65 145 59 144 58

C143 57 121 64 114 67

C110 69 106 73 100 79

C92 87 91 89 93 89

C94 89 97 90 101 92

C104 94 107 95 107 95

C107 95 109 92 111 88

Z

M519 89

C522 87 522 81 518 79

C515 78 515 78 512 79

C511 80 510 82 509 83

C508 85 510 89 512 90

C515 91 516 91 519 89

Z

M265 83

C269 80 266 73 261 73

C256 73 253 79 257 83

C259 85 263 86 265 83

Z

M454 82

C455 80 456 78 456 78

C456 75 452 72 450 72

C447 72 443 75 443 78

C443 80 448 84 450 84

C450 84 452 83 454 82

Z

M156 80

C159 77 158 73 155 71

C152 70 152 70 149 71

C144 74 146 82 152 82

C153 82 155 81 156 80

Z

M26 79

C30 79 34 77 37 75

C42 72 53 62 52 62

C52 61 48 62 44 63

C36 66 24 67 18 65

L14 64

L14 67

C14 69 13 73 12 75

C10 78 9 80 10 80

C13 81 21 81 26 79

Z

M532 78

C533 77 525 67 516 59

C505 48 492 41 484 41

C481 41 482 42 486 42

C492 44 497 46 497 48

C497 48 495 49 493 50

C490 51 488 51 488 51

C488 51 491 52 494 52

C502 52 510 56 519 65

C523 69 527 74 528 76

C530 79 531 80 532 78

Z

M188 73

C192 70 189 63 184 63

C181 63 178 67 178 69

C178 74 185 77 188 73

Z

M548 72

C548 69 527 48 518 42

C512 38 503 35 498 35

C497 35 498 36 501 37

C507 38 512 41 512 42

C512 43 511 43 511 43

C510 43 508 44 507 44

C504 45 504 46 509 46

C519 46 533 55 541 67

C544 70 546 73 547 73

C547 73 548 73 548 72

Z

M174 62

C178 59 175 52 170 52

C167 52 164 55 164 58

C164 63 171 66 174 62

Z

M213 62

C217 59 214 52 209 52

C207 52 203 55 203 58

C203 63 210 66 213 62

Z

M353 58

C355 56 354 52 350 50

C346 47 340 53 342 58

C344 62 350 63 353 58

Z

M420 58

C422 55 421 53 418 51

C413 47 407 52 409 57

C411 62 417 63 420 58

Z

M393 58

C397 55 394 48 389 48

C386 48 383 51 383 54

C383 58 385 60 389 60

C391 60 393 59 393 58

Z

M197 57

C198 55 199 53 199 53

C199 50 195 47 193 47

C190 47 186 50 186 53

C186 55 191 59 193 59

C193 59 195 58 197 57

Z

M442 48

C445 45 444 42 442 40

C438 36 432 39 432 44

C432 48 434 50 438 50

C440 50 441 49 442 48

Z

M407 45

C410 41 406 34 401 35

C398 36 396 39 396 42

C396 47 403 50 407 45

Z

M20 44

C24 41 21 34 16 34

C14 34 10 37 10 40

C10 45 17 48 20 44

Z

M589 41

C593 38 590 31 585 31

C582 31 579 35 579 37

C579 42 586 45 589 41

Z

M224 41

C227 39 227 32 223 31

C219 29 214 32 214 36

C214 40 220 44 224 41

Z

M427 39

C431 35 429 29 423 29

C419 29 417 31 417 35

C417 38 420 41 423 41

C424 41 426 40 427 39

Z

M152 29

C153 26 153 25 151 23

C149 20 145 19 142 22

C140 24 139 27 142 30

C144 33 150 33 152 29

Z

M444 30

C447 28 446 24 444 22

C440 18 434 21 434 26

C434 31 440 34 444 30

Z

M15 29

C19 25 16 19 11 19

C5 19 3 24 6 28

C9 32 12 32 15 29

Z

M486 26

C489 23 488 20 486 18

C482 14 476 17 476 22

C476 28 483 30 486 26

Z

M351 23

C358 20 371 9 370 7

C370 7 367 8 363 9

C358 11 355 11 344 11

L331 12

L331 15

C331 17 330 20 328 23

L326 27

L335 27

C343 26 346 26 351 23

Z

M121 22

C125 19 123 12 117 12

C111 12 109 19 113 22

C114 23 116 24 117 24

C118 24 120 23 121 22

Z

M0 62

C0 60 0 58 1 59

C2 59 2 63 1 65

C0 66 0 65 0 62

Z

"/>

</svg>

