<?xml version="1.0" standalone="no"?>

<!DOCTYPE svg PUBLIC "-//W3C//DTD SVG 20010904//EN"

 "http://www.w3.org/TR/2001/REC-SVG-20010904/DTD/svg10.dtd">

<svg version="1.0" xmlns="http://www.w3.org/2000/svg"

 width="591.000000pt" height="591.000000pt" viewBox="0 0 591.000000 591.000000"

 preserveAspectRatio="xMidYMid meet">

<path fill="#f9f9f9" stroke="none" d="
M0 296

L0 0

L296 0

L591 0

L591 296

L591 591

L296 591

L0 591

L0 296

Z

"/>

<path fill="#304469" stroke="none" d="
M9 589

C8 587 6 585 4 583

L0 581

L0 439

L0 296

L6 296

C18 297 17 292 6 286

L0 283

L0 256

C0 235 0 229 1 229

C4 229 9 233 13 239

C15 242 18 245 20 246

C22 247 22 247 27 245

C32 242 33 242 36 245

C37 246 38 248 38 252

C38 260 39 261 47 261

C52 260 54 260 58 262

C68 267 83 266 100 261

C111 258 116 255 117 253

C117 251 109 248 103 248

C100 248 93 249 87 251

C74 254 65 254 60 251

C58 249 57 248 55 242

C53 232 51 228 47 226

C42 224 35 224 28 227

C23 228 21 228 19 228

C14 226 10 220 7 212

C6 207 4 203 2 201

C0 199 0 199 0 177

L0 154

L13 154

C20 154 27 154 28 154

C31 153 38 144 41 138

C46 129 40 127 30 136

L25 141

L16 141

C11 141 6 141 4 140

L0 139

L0 70

L0 2

L3 3

C8 4 11 4 10 2

C10 0 19 0 186 0

C283 0 362 0 362 1

C362 2 355 13 353 14

C352 16 349 16 340 16

C326 16 326 16 320 27

C318 31 315 35 314 36

C312 37 305 38 296 38

C285 38 281 39 279 40

C273 44 277 48 289 51

C299 54 302 54 312 50

L321 47

L327 50

C335 53 336 52 338 44

C340 34 340 34 346 35

C349 35 353 35 356 35

L360 36

L360 28

L360 20

L368 12

C372 7 376 3 377 2

C377 0 380 0 415 0

C440 0 452 0 451 1

C450 2 444 2 438 3

C425 3 420 4 420 7

C421 9 432 15 439 16

C445 17 445 17 453 13

C460 10 462 9 466 9

C478 10 478 10 480 7

C480 6 481 4 480 2

L479 0

L533 0

C563 0 589 0 589 1

C591 1 591 8 591 70

C591 121 591 138 590 138

C588 138 580 133 580 131

C579 130 580 127 581 123

C585 116 585 113 582 108

C579 103 575 100 568 99

C561 97 557 94 557 88

C557 82 559 74 562 70

C567 64 565 59 560 59

C557 59 548 68 544 75

C540 83 539 87 542 93

C543 95 544 101 544 105

L545 112

L551 114

C555 114 559 115 559 116

C560 117 560 121 560 126

C559 131 559 135 560 136

C560 136 562 137 565 138

C568 139 571 141 574 143

C580 149 587 154 589 154

C591 154 591 155 591 177

C591 199 591 199 589 202

C588 203 586 205 586 206

C585 208 582 208 579 209

C572 210 570 211 570 215

C570 221 577 226 586 228

L591 228

L591 255

C591 281 591 282 589 281

C577 276 568 275 556 277

C549 278 548 278 545 276

C540 273 538 274 535 278

C534 280 534 284 535 288

C536 289 535 290 534 292

C531 293 531 293 526 291

C519 289 517 288 513 291

C509 293 509 295 510 298

C512 303 511 303 507 309

C502 315 500 318 499 324

C497 333 502 348 506 348

C509 348 511 343 513 332

C514 323 518 315 523 311

C525 309 525 309 532 310

C541 313 545 312 549 308

C551 305 553 302 554 296

C555 292 557 288 557 287

C560 284 570 286 583 292

L591 296

L591 329

L591 362

L588 354

C585 345 581 339 573 335

C563 331 563 335 571 347

C575 355 576 358 577 363

C579 372 577 374 571 377

C564 380 560 384 557 389

C554 396 554 398 558 403

C561 406 561 407 561 409

C559 416 551 421 537 423

C528 425 524 426 524 428

C524 430 530 433 537 434

C548 437 556 434 565 425

C569 421 573 419 578 417

C582 415 585 414 585 413

C585 412 584 409 582 406

C575 398 578 392 589 389

L591 388

L591 484

L591 581

L587 578

C579 573 570 564 569 560

C566 556 567 554 572 548

C577 543 578 540 578 534

C578 528 577 526 571 522

C567 519 564 515 564 511

C564 510 565 508 567 506

C570 501 571 487 569 486

C566 486 564 488 556 498

C550 506 549 506 550 510

C550 513 550 516 548 519

C547 521 546 523 546 523

C546 524 548 525 552 526

C555 528 557 530 558 531

C559 534 557 537 552 540

C546 543 545 544 545 548

C545 551 545 552 550 555

C559 564 562 566 563 572

C566 579 568 581 579 587

L588 591

L533 591

C474 591 477 591 478 586

C479 582 485 579 491 579

C497 579 498 577 498 571

C498 566 499 564 503 558

C507 553 508 548 508 538

C507 527 506 524 500 519

C495 514 492 514 491 518

C491 520 491 524 494 539

C496 546 496 551 493 557

C491 561 489 562 485 560

C483 559 481 559 475 560

C463 562 459 566 461 577

C461 585 461 587 456 589

C452 591 450 591 415 591

L377 591

L379 586

C380 581 380 567 379 565

C377 562 368 560 359 562

C346 564 344 568 353 571

C362 575 366 577 366 578

C366 581 366 582 364 587

L363 591

L187 591

L10 591

L9 589

Z

M147 580

C147 577 141 559 139 556

C139 554 137 553 136 553

C134 553 131 550 128 546

C127 543 125 542 125 543

C124 543 122 545 120 546

C117 548 115 549 114 549

C111 549 109 545 109 538

C109 533 109 531 107 529

C104 526 102 526 92 530

L83 533

L75 532

L68 530

L60 534

C57 536 50 540 46 543

C35 551 35 554 42 554

C45 554 48 553 52 551

C60 547 73 543 79 542

C84 542 85 542 87 544

C89 546 90 549 92 552

C93 559 98 564 104 566

C107 567 109 567 113 565

C122 561 127 563 130 569

C133 576 147 584 147 580

Z

M297 573

C298 571 298 567 298 562

C298 554 298 553 295 546

C290 535 288 533 279 526

C270 520 269 518 269 515

C269 512 267 512 259 515

C249 518 247 517 242 510

C238 503 237 503 230 507

C226 509 225 509 215 509

L203 509

L195 514

C185 521 177 529 177 532

C177 533 179 534 183 534

C190 534 197 532 206 527

C216 520 223 518 227 518

C229 518 230 519 232 526

C235 535 238 539 244 541

C250 543 252 542 258 538

C265 533 267 533 273 539

C280 546 284 553 285 558

C286 570 286 570 290 574

C291 576 293 577 294 577

C295 577 296 575 297 573

Z

M419 526

C421 525 428 525 434 525

C448 524 448 524 448 515

C448 512 449 509 450 507

C451 505 452 505 460 505

C470 506 470 506 472 499

C473 495 475 492 480 487

C487 479 488 476 486 466

C484 454 478 445 473 446

C471 447 471 448 471 458

C471 464 470 472 469 476

C466 491 463 494 454 491

C447 488 441 488 436 489

C429 491 429 492 428 502

C427 508 427 511 426 512

C424 514 415 514 401 512

C391 511 390 510 387 507

C384 504 383 502 382 496

C380 489 378 487 376 488

C371 489 369 502 372 509

C377 520 405 530 419 526

Z

M59 496

C59 495 57 490 54 484

C51 479 49 473 48 471

C47 465 50 458 54 454

C57 451 58 450 63 450

C74 448 77 441 71 428

C68 420 67 415 70 410

C72 407 82 399 89 396

C91 394 94 392 96 391

C98 388 101 382 100 380

C100 378 93 379 85 382

C81 383 77 384 75 384

C74 384 71 386 67 389

C64 392 61 395 59 397

C58 398 57 400 56 402

C56 403 56 406 55 407

C55 408 53 410 51 411

C46 414 45 416 48 421

C52 427 52 430 49 434

C46 436 43 437 40 435

C36 434 34 435 32 439

C30 442 30 444 30 447

C31 449 31 455 32 461

C32 471 33 472 36 477

C38 479 41 485 43 488

C46 496 50 499 55 499

C58 499 59 498 59 496

Z

M127 487

C127 487 126 482 124 478

C119 466 118 463 120 459

C122 454 134 444 139 444

C140 444 144 446 148 448

C152 451 157 453 158 453

C163 453 168 450 171 445

C176 437 177 436 180 436

C186 436 202 447 207 454

C211 461 214 464 217 464

C222 464 223 460 220 451

C217 442 212 438 201 432

C195 429 189 427 187 426

C185 426 183 425 182 423

C176 415 175 415 173 415

C171 416 169 418 168 421

C163 430 160 431 153 426

C150 424 148 423 147 423

C147 423 145 425 143 428

C140 432 140 433 132 435

C119 440 114 444 111 453

C107 465 108 476 113 482

C117 487 125 491 127 487

Z

M332 475

C336 471 340 470 350 469

C361 468 369 466 373 462

C375 459 380 446 380 442

C379 438 376 438 368 444

C363 447 359 449 356 450

C352 450 351 451 349 455

C344 464 337 462 326 447

C324 443 322 442 317 440

C310 438 308 438 305 442

C302 446 299 446 292 443

C285 441 284 439 282 432

C280 425 277 420 273 418

C271 417 269 416 269 417

C267 418 269 432 271 441

C275 450 277 453 286 457

C293 459 293 459 295 464

C297 472 300 472 308 467

C314 462 318 463 321 470

C325 479 328 480 332 475

Z

M404 413

C405 411 398 406 392 405

C388 404 381 401 376 398

C362 392 358 386 363 379

C366 374 367 369 366 363

C365 357 362 354 355 352

C349 350 345 345 346 341

C349 333 348 324 345 319

C344 317 341 319 338 327

C332 338 331 343 332 345

C333 348 334 351 333 357

L332 361

L337 361

C344 362 346 363 346 367

C346 369 345 371 342 375

C334 383 336 387 348 393

C355 395 357 397 364 406

C366 409 368 410 374 411

C389 415 403 416 404 413

Z

M500 404

C507 402 511 400 511 398

C510 396 506 395 492 395

C479 395 469 393 465 389

C463 387 463 385 463 379

C463 372 462 371 460 367

C455 361 451 359 443 359

C433 360 432 359 428 345

C426 338 426 336 427 331

C429 325 427 321 423 320

C420 319 416 324 413 333

C409 345 410 348 419 359

L423 363

L420 366

C419 368 418 370 418 371

C418 373 419 374 426 374

C434 375 439 377 441 380

C442 382 442 383 440 386

C435 397 438 401 449 398

C457 395 458 396 461 399

C464 402 469 404 474 405

C478 406 492 405 500 404

Z

M215 386

C219 385 224 383 227 382

C229 381 233 380 235 380

C239 380 239 379 240 375

C241 369 244 364 247 362

C248 361 251 361 254 362

C258 362 259 362 260 360

C261 359 262 355 263 352

C263 348 264 344 267 339

C274 328 275 324 275 315

C275 305 274 301 269 298

C265 296 259 295 258 298

C257 299 258 300 259 303

C263 310 263 315 262 323

C260 332 255 342 253 344

C251 345 250 345 247 344

C238 341 231 342 224 347

C219 350 216 354 215 362

C214 365 213 369 212 370

C208 376 199 377 186 374

C179 372 176 373 173 378

C172 380 172 380 174 382

C181 388 203 390 215 386

Z

M131 352

C138 348 138 347 146 349

C152 351 153 351 156 349

C160 347 171 338 175 333

C177 330 177 329 177 322

C176 312 174 306 171 306

C170 306 169 307 169 315

C168 322 167 325 166 327

C164 331 146 339 141 339

C137 339 137 339 135 336

C131 329 122 320 118 319

C113 318 110 318 103 323

C98 326 92 327 82 329

C75 329 70 327 63 321

C60 319 56 317 54 316

C48 314 38 318 39 321

C40 323 51 330 62 335

C71 340 72 340 81 340

L90 340

L93 344

C97 349 99 349 104 345

C108 341 109 341 114 341

C117 341 118 343 118 348

C119 353 121 356 123 356

C124 356 127 354 131 352

Z

M421 292

C423 291 428 288 430 286

C434 283 435 283 441 283

L448 283

L448 279

C448 273 450 268 452 267

C453 266 457 266 460 267

C470 268 472 265 468 256

C467 252 467 252 468 248

C470 243 473 229 473 223

C473 219 472 216 470 210

C464 200 460 197 456 201

C453 204 453 206 456 212

C459 220 460 230 459 239

C458 249 456 250 446 250

C437 250 432 252 430 256

C429 257 428 262 428 266

C427 272 426 275 424 277

C422 280 415 283 407 284

C402 284 401 284 398 281

C396 280 393 274 390 270

C387 265 384 260 383 260

C381 260 379 266 379 271

C379 281 389 291 403 294

C410 296 414 296 421 292

Z

M172 276

C172 274 173 269 173 266

C174 257 176 253 179 250

C182 248 183 248 190 248

C203 248 207 245 208 235

C210 227 210 227 214 225

C219 223 235 222 243 223

C250 224 251 225 253 235

C255 241 256 244 259 244

C266 244 270 234 267 227

C263 220 248 212 234 210

C230 210 225 210 219 211

C213 212 205 213 201 213

L193 214

L190 218

C186 224 183 226 179 225

C177 224 173 224 171 224

C167 224 165 225 162 227

C159 230 157 231 154 231

C149 231 148 233 148 240

L149 245

L154 247

C160 249 164 252 164 254

C164 255 162 257 161 259

C157 264 156 267 159 272

C161 278 164 280 168 280

C171 280 171 280 172 276

Z

M321 278

C326 276 332 269 338 261

C343 253 345 252 351 252

C355 252 356 249 354 244

C353 241 352 238 352 236

C352 232 352 232 357 229

C363 225 364 223 358 214

C356 211 354 207 354 204

C353 202 352 197 351 193

C348 186 344 181 335 177

C328 174 324 173 322 175

C320 178 322 182 332 193

C336 198 341 205 343 207

C346 214 345 216 336 219

C333 220 328 222 327 224

C324 226 324 227 324 232

C324 236 324 239 326 241

C329 246 329 249 328 253

C326 255 325 256 322 257

C319 258 317 259 315 263

C314 265 312 267 311 267

C310 267 307 265 305 262

C299 257 293 253 287 251

C282 250 279 251 279 255

C279 258 281 260 286 261

C291 261 294 263 296 267

C301 276 313 281 321 278

Z

M511 235

C523 231 530 223 533 211

C534 207 536 203 538 202

C541 198 541 195 534 192

C531 190 528 188 528 187

C526 185 528 181 532 176

C536 171 536 168 529 163

C526 159 525 157 522 151

C520 144 519 142 515 137

C507 130 493 125 490 129

C488 132 490 134 499 141

C508 148 512 153 515 159

C517 165 517 166 510 174

C507 177 505 179 502 180

C499 181 497 182 497 184

C494 191 499 195 512 197

C518 199 520 200 520 204

C520 209 518 214 509 222

C505 227 501 232 501 232

C501 234 504 236 506 236

C506 236 509 235 511 235

Z

M83 214

C83 213 84 207 84 201

C85 184 90 171 96 169

C98 168 101 168 106 169

C112 170 113 170 116 168

C123 165 126 157 124 148

C123 143 124 135 127 132

C131 129 133 129 145 131

C158 132 160 132 160 128

C160 123 146 117 137 117

C129 117 124 119 117 126

C113 130 111 131 109 131

C107 131 104 132 103 133

L101 135

L102 140

C104 145 104 147 100 150

C98 152 98 152 93 151

C86 149 85 150 85 158

C85 162 85 163 80 168

C73 177 71 184 71 192

C71 201 73 208 77 212

C80 215 81 216 83 214

Z

M433 188

C436 186 441 182 440 182

C437 182 417 179 415 178

C413 177 407 171 406 168

C405 166 406 164 407 161

C410 154 411 150 410 146

C409 141 406 139 397 137

C389 136 388 135 386 132

C384 128 381 117 381 110

C381 100 384 96 396 94

C400 93 404 92 405 91

C406 89 406 89 404 87

C400 83 380 78 379 82

C379 82 376 87 373 92

C370 97 367 102 366 104

C366 105 368 112 370 120

L374 134

L373 140

C370 148 371 150 378 150

C384 151 388 154 388 156

C388 158 387 161 386 163

C384 166 383 169 383 169

C383 170 385 172 388 173

C390 174 395 178 399 182

C402 186 407 189 408 190

C414 192 428 191 433 188

Z

M262 169

C267 166 271 165 275 164

C281 164 281 163 282 157

C285 144 286 142 294 144

C300 145 302 144 303 138

C303 135 305 131 307 128

C309 125 311 121 312 120

C313 112 307 96 301 91

C297 87 295 88 293 91

C292 93 292 95 294 99

C296 105 296 117 294 120

C291 124 287 126 280 126

C273 126 269 128 265 132

L262 135

L262 145

C263 154 263 154 261 155

C257 158 247 159 240 159

C231 158 225 155 222 150

C217 142 212 139 210 142

C208 143 208 147 212 157

C216 167 217 167 235 172

C248 175 252 174 262 169

Z

M461 121

C462 120 462 118 461 114

C460 103 460 91 463 85

C466 77 467 76 472 78

C474 78 477 79 479 79

C482 79 489 76 491 73

C493 71 495 64 497 55

C497 48 499 44 502 44

C503 43 510 43 516 42

C533 40 542 37 538 33

C535 30 508 29 503 31

C501 32 497 35 495 36

C491 39 489 40 485 40

C482 40 479 41 478 42

C476 44 476 44 477 49

C479 57 478 58 468 57

C460 57 460 57 458 60

C457 61 456 64 456 66

C456 69 455 71 453 73

C449 78 448 81 448 89

L448 96

L443 101

C437 107 437 108 446 117

C453 124 454 124 456 124

C458 123 460 122 461 121

Z

M199 113

C200 110 200 107 197 100

C195 93 194 74 196 70

C197 69 199 68 200 68

C206 68 213 66 216 62

L220 58

L220 44

L219 30

L222 28

C227 23 237 19 247 17

C264 13 265 12 266 11

C266 11 265 9 263 8

C256 5 235 7 222 14

C218 16 216 18 212 22

C209 27 208 29 205 29

C203 29 201 31 199 32

L197 35

L199 41

C201 51 199 53 187 50

C182 48 182 48 179 49

C175 53 175 54 178 62

C182 69 182 72 181 81

C180 85 180 88 182 93

C185 102 191 115 193 117

C195 118 197 117 199 113

Z

M28 87

C30 86 34 80 37 76

C43 67 50 61 55 59

C56 59 61 60 66 61

C80 66 81 65 88 52

C90 47 93 43 94 42

C96 41 99 42 105 44

C108 46 112 46 119 46

C125 46 129 46 130 47

C131 48 131 52 131 58

C131 63 131 68 132 68

C132 71 135 70 137 68

C140 65 144 56 145 50

C145 45 145 45 142 42

C137 37 126 32 118 29

C114 29 108 28 102 28

C97 28 90 28 87 27

C83 26 82 26 80 27

C77 29 77 30 77 34

C77 37 77 39 76 40

C75 40 70 39 65 38

C60 38 55 37 53 37

C51 37 50 38 49 44

C47 52 46 54 41 55

C38 56 35 56 34 57

C31 57 30 59 28 62

C25 67 21 79 20 85

C20 90 20 90 22 90

C23 90 25 89 28 87

Z

M590 376

C590 372 591 371 591 373

C591 375 591 377 591 379

C590 380 590 379 590 376

Z

"/>

</svg>

