<?xml version="1.0" standalone="no"?>

<!DOCTYPE svg PUBLIC "-//W3C//DTD SVG 20010904//EN"

 "http://www.w3.org/TR/2001/REC-SVG-20010904/DTD/svg10.dtd">

<svg version="1.0" xmlns="http://www.w3.org/2000/svg"

 width="593.000000pt" height="593.000000pt" viewBox="0 0 593.000000 593.000000"

 preserveAspectRatio="xMidYMid meet">

<path fill="#ececeb" stroke="none" d="
M0 297

L0 0

L297 0

L593 0

L593 297

L593 593

L297 593

L0 593

L0 297

Z

"/>

<path fill="#1e1c1c" stroke="none" d="
M0 532

C0 490 0 471 1 470

C2 470 2 469 1 469

C0 468 0 464 1 462

C2 461 2 461 1 460

C0 458 0 455 1 455

C2 454 2 454 1 452

C-1 449 0 446 2 446

C3 446 5 445 5 444

C5 443 3 442 2 442

C1 442 0 441 0 439

C0 437 0 437 3 438

C5 439 7 440 7 439

C9 438 8 436 4 435

C1 433 0 433 0 430

C0 428 0 427 1 427

C3 427 8 430 11 433

C13 435 14 435 15 434

C16 433 16 432 12 429

C10 427 6 425 4 424

L1 423

L0 415

L0 407

L3 408

C15 410 22 414 27 421

C32 428 32 428 33 427

C35 426 31 419 25 414

C20 409 11 405 4 404

L0 404

L0 353

C0 326 0 303 1 303

C2 303 17 314 24 319

C30 325 40 337 43 342

C44 343 44 343 45 342

C46 341 44 334 39 327

C37 323 36 319 36 318

C36 316 34 312 33 311

C32 310 30 310 28 310

C25 310 21 308 16 306

C11 303 6 301 5 301

C0 301 0 304 0 245

L0 190

L2 192

C7 196 12 197 14 195

C15 194 14 193 8 190

L0 186

L0 132

C0 84 0 77 1 77

C2 77 6 75 11 72

C15 70 19 68 19 69

C20 69 21 71 22 73

C24 77 24 77 29 76

C33 76 34 76 36 77

C37 79 39 79 40 79

C41 78 41 78 39 75

C37 73 35 73 31 72

C26 72 26 72 23 68

L20 63

L14 66

C11 68 7 70 4 72

L0 74

L0 37

L0 0

L65 0

C124 0 130 0 130 2

C130 3 131 3 138 3

C147 4 151 5 157 11

C160 15 161 15 162 14

C164 11 157 5 150 2

C147 0 175 0 370 0

L593 0

L593 62

C593 132 594 127 586 121

C580 117 575 117 570 123

C568 126 567 126 563 126

C558 125 557 127 560 129

C563 131 568 130 572 126

C577 121 580 121 584 125

C586 126 589 127 590 128

L593 128

L593 162

C593 181 593 196 592 196

C592 196 590 195 589 194

C586 190 585 190 586 194

C587 198 589 200 591 200

C593 200 593 202 593 263

C593 325 593 325 591 324

C589 323 587 321 586 315

C586 313 585 310 584 309

C582 304 574 301 574 305

C574 305 574 306 575 306

C577 306 582 311 583 315

C583 321 586 325 590 327

L593 329

L593 376

L593 423

L587 423

C582 423 581 424 581 425

C581 426 582 427 587 427

C593 427 593 427 593 430

C593 433 593 433 586 433

C579 434 575 435 577 437

C577 437 581 438 585 437

L593 437

L593 439

C593 442 593 442 587 442

C584 443 580 443 578 444

C574 446 570 450 570 452

C570 455 572 454 574 452

C576 449 583 446 588 446

C593 446 593 446 593 449

C593 451 593 451 589 451

C581 451 573 457 571 466

C569 472 570 480 572 480

C573 480 574 478 574 473

C575 464 577 460 581 457

C586 454 593 454 593 457

C593 458 592 459 590 459

C588 460 585 461 584 463

C580 467 577 474 579 475

C581 476 582 475 582 472

C584 466 593 460 593 465

C593 467 592 468 590 470

C585 473 584 475 585 484

C585 490 585 492 583 496

C579 503 583 504 587 497

C588 494 588 491 588 485

C588 477 589 472 592 472

C593 472 593 494 593 533

L593 593

L493 593

C397 593 393 593 394 591

C395 590 398 589 399 589

C402 589 402 589 402 587

C402 586 403 583 404 582

C407 577 407 573 404 570

C400 567 398 568 399 573

C399 580 397 582 389 585

C384 586 381 588 379 591

C378 593 369 593 268 593

L158 593

L162 589

C165 587 167 585 167 584

C167 583 165 581 163 579

C159 575 153 573 147 574

C143 574 143 574 144 576

C144 578 145 581 145 584

L146 589

L150 591

C153 591 155 592 155 592

C155 593 120 593 78 593

L0 593

L0 532

Z

M208 589

C210 588 212 587 212 586

C213 586 211 584 209 582

C207 579 206 577 206 575

C206 570 208 565 211 564

C214 562 214 562 209 559

C202 555 192 556 188 561

C187 562 187 563 189 564

C196 569 196 577 191 582

C188 585 188 585 189 587

C193 591 201 592 208 589

Z

M331 588

C339 586 351 572 348 569

C347 568 347 568 346 569

C342 575 339 579 335 582

C332 584 331 584 325 584

C320 584 318 585 318 586

C318 589 325 590 331 588

Z

M21 581

C22 580 22 579 21 578

C20 576 18 576 17 578

C15 579 15 580 16 581

C17 583 19 584 21 581

Z

M36 580

C36 577 34 575 32 577

C30 578 30 581 31 582

C32 584 36 582 36 580

Z

M559 582

C563 580 561 578 555 579

C549 579 545 577 542 571

C540 567 539 567 538 570

C538 573 542 578 547 581

C552 583 555 584 559 582

Z

M54 579

C54 577 53 576 51 576

C49 576 47 578 48 581

C49 582 50 582 51 582

C53 582 54 581 54 579

Z

M314 580

C320 575 317 563 309 561

C307 561 306 560 305 559

C305 557 299 553 297 553

C294 553 295 556 299 557

C301 559 302 560 303 562

C303 565 304 565 307 565

C309 565 310 566 312 568

C316 573 314 578 307 579

C304 579 302 580 302 581

C302 583 311 582 314 580

Z

M282 580

C284 579 281 577 278 577

C274 577 272 575 272 571

C272 566 276 563 280 563

C282 564 283 564 284 561

C285 559 286 558 289 557

C291 556 292 555 292 554

C292 553 291 553 291 553

C290 553 289 553 288 553

C287 553 284 555 283 557

C281 558 278 560 277 560

C276 560 273 562 271 563

C266 569 267 577 273 580

C277 581 281 581 282 580

Z

M329 579

C333 578 340 571 340 568

C340 565 338 566 336 569

C334 573 328 576 325 576

C323 576 322 577 323 579

C323 580 323 580 329 579

Z

M68 576

C68 574 67 573 65 573

C63 573 61 575 62 578

C63 579 64 579 65 579

C67 579 68 578 68 576

Z

M573 576

C578 572 584 563 585 557

C585 552 584 546 582 546

C581 546 581 547 581 552

C581 561 577 569 569 574

C565 577 564 579 567 579

C568 579 571 578 573 576

Z

M186 577

C189 573 185 568 181 570

C177 572 179 578 183 578

C184 578 185 577 186 577

Z

M221 575

C222 573 222 573 220 571

C218 569 217 569 216 570

C212 573 213 578 218 578

C219 578 220 577 221 575

Z

M452 577

C452 576 450 576 448 576

C445 576 442 575 441 575

C438 573 438 573 439 573

C443 571 441 570 437 571

C432 571 432 571 429 568

C427 566 425 564 423 563

C422 562 413 563 410 564

C407 565 413 566 418 565

C422 565 423 565 426 569

C429 571 431 573 432 573

C434 573 435 574 436 575

C437 575 438 577 439 577

C442 578 452 578 452 577

Z

M585 573

C588 567 589 564 587 563

C587 563 586 563 586 563

C583 568 580 574 580 575

C580 577 583 576 585 573

Z

M554 567

C554 558 553 555 550 557

C548 559 547 558 547 556

C547 554 547 553 546 553

C545 553 545 561 546 562

C547 562 548 561 549 561

C550 560 551 559 551 559

C552 559 552 563 552 567

C552 572 552 575 553 575

C554 575 554 572 554 567

Z

M564 563

C563 552 562 550 559 552

C556 553 556 553 556 550

C556 546 555 544 553 544

C553 544 552 543 552 543

C551 541 549 543 549 545

C549 548 550 549 552 548

C552 547 553 548 553 551

C554 555 556 557 558 555

C561 553 561 554 561 563

C561 572 562 575 563 574

C564 574 564 570 564 563

Z

M32 572

C33 572 28 564 26 564

C24 563 20 563 20 564

C19 564 20 567 21 569

L23 574

L27 573

C30 573 32 573 32 572

Z

M92 568

C93 567 96 567 98 568

C105 569 114 565 113 562

C112 560 112 560 108 562

C105 565 104 565 97 564

C90 564 89 564 86 567

C84 569 83 570 83 572

C84 573 84 573 87 571

C88 569 90 568 92 568

Z

M15 569

C16 567 14 565 12 565

C9 566 8 569 10 571

C12 572 15 572 15 569

Z

M60 569

C60 568 61 565 61 563

C61 560 61 560 52 562

C49 563 47 567 49 570

C50 572 51 572 55 572

C59 571 60 571 60 569

Z

M257 569

C257 568 259 568 260 568

C264 568 265 567 264 565

C262 563 255 564 249 569

C249 569 249 570 249 570

C250 572 250 572 253 571

C255 570 256 569 257 569

Z

M373 569

C378 567 384 564 388 564

C391 563 392 561 389 561

C388 561 387 560 387 560

C387 558 383 556 382 557

C382 558 382 559 383 559

C384 560 384 561 384 562

C383 563 376 563 376 562

C375 561 372 561 372 562

C372 563 373 564 374 564

C375 565 375 565 373 567

C371 568 368 568 366 568

C360 568 361 572 366 572

C367 572 370 571 373 569

Z

M491 570

C496 568 499 565 501 561

C503 557 504 551 502 550

C502 549 501 551 500 552

C497 556 490 560 486 560

C481 560 475 557 472 553

C470 550 469 549 469 551

C467 555 471 564 476 568

C481 571 486 572 491 570

Z

M329 566

C333 562 335 557 335 547

C335 542 335 541 334 541

C333 541 332 542 332 545

C332 555 330 560 326 564

C324 566 322 568 322 569

C322 571 325 570 329 566

Z

M247 565

C249 564 252 562 254 560

C257 558 258 558 261 558

C266 560 267 560 267 559

C267 558 266 557 264 556

C259 553 255 554 248 560

C245 563 242 564 239 565

C234 565 232 567 234 568

C236 569 243 568 247 565

Z

M37 562

C41 556 45 553 54 548

L60 545

L53 545

C44 546 37 549 30 555

L24 559

L27 561

C29 561 31 563 31 565

C32 567 33 568 33 568

C34 568 35 565 37 562

Z

M71 565

C72 563 72 563 71 561

C69 559 66 560 66 563

C66 567 69 568 71 565

Z

M441 565

C442 564 442 563 441 562

C441 560 436 557 434 557

C434 557 432 556 431 555

C429 553 427 552 426 552

C425 552 424 551 423 550

C422 548 416 547 414 550

C413 550 411 551 410 551

C408 551 406 552 405 554

C403 555 402 556 401 556

C399 556 395 561 395 563

C395 565 398 565 401 564

C410 558 411 558 419 558

C423 559 427 559 429 561

C433 563 438 566 439 566

C439 566 440 565 441 565

Z

M573 563

C573 561 573 558 573 556

C573 552 572 552 570 552

C568 552 567 551 567 549

C566 546 564 545 564 548

C564 549 564 552 565 553

C565 555 566 555 568 555

C571 554 571 554 571 556

C571 558 571 560 570 561

C570 563 569 564 570 564

C571 566 572 565 573 563

Z

M53 559

C57 559 57 557 54 555

C50 552 49 552 45 556

C42 559 42 559 43 561

L45 564

L48 562

C49 560 51 559 53 559

Z

M343 562

C344 560 345 556 345 546

C345 545 347 542 349 540

C351 537 352 536 351 535

C350 533 345 537 343 541

C342 543 341 548 341 552

C340 556 340 561 339 562

C339 565 341 565 343 562

Z

M540 558

C540 549 543 543 552 536

C554 535 554 534 553 533

C552 532 551 532 549 534

C541 538 536 549 536 559

C536 563 536 564 538 564

C540 564 540 563 540 558

Z

M323 556

C325 552 325 550 325 543

C325 533 323 524 320 521

C317 519 317 522 319 527

C321 531 321 535 322 541

C322 548 322 549 320 555

C316 563 319 565 323 556

Z

M112 557

C116 555 116 552 112 554

C109 554 102 555 99 554

C96 552 96 556 100 557

C103 559 107 559 112 557

Z

M246 557

C249 555 251 553 251 552

C251 551 251 551 242 554

C236 556 236 556 229 555

C225 554 221 553 221 553

C220 555 222 557 226 558

C233 560 240 559 246 557

Z

M375 555

C379 552 380 552 385 552

C389 552 392 552 393 553

C396 555 399 555 401 554

C402 552 401 550 398 550

C398 550 397 549 396 548

C396 548 394 547 393 547

C391 547 390 546 389 545

C386 543 381 542 379 545

C378 545 377 546 376 546

C373 546 372 547 370 550

C370 551 368 552 367 552

C366 552 364 553 364 554

C363 556 363 556 364 558

C367 559 371 558 375 555

Z

M315 554

C317 546 315 529 312 529

C310 529 310 529 312 539

C313 545 313 548 310 556

C310 558 310 558 312 558

C313 558 314 557 315 554

Z

M274 555

C275 553 273 550 270 549

C265 546 252 547 253 550

C254 552 255 552 262 551

C265 550 266 550 269 553

C273 556 274 557 274 555

Z

M90 554

C90 553 94 550 99 547

C110 540 124 533 134 530

C138 529 141 528 142 528

C142 527 141 527 139 526

C136 525 129 525 122 527

C119 528 117 528 114 527

C111 526 110 526 108 527

C106 528 105 530 104 532

C104 534 102 537 99 539

C94 543 86 552 86 554

C86 555 89 555 90 554

Z

M491 551

C493 550 495 546 495 543

C495 541 495 541 492 543

C490 545 488 546 486 546

C483 546 481 545 479 543

L476 541

L476 543

C476 546 480 552 483 552

C486 553 488 552 491 551

Z

M529 552

C533 551 533 551 536 545

L538 540

L535 536

C534 535 532 532 531 531

L530 529

L526 531

C521 535 516 544 518 550

C518 553 518 553 522 553

C524 552 527 552 529 552

Z

M282 550

C282 550 281 547 279 545

C274 538 265 535 256 539

C249 541 242 547 246 547

C247 547 250 546 253 544

C264 539 272 540 277 548

C279 552 281 553 282 550

Z

M306 548

C307 546 307 542 307 540

C306 534 299 523 297 523

C294 523 295 525 297 528

C302 535 303 539 303 546

C302 551 302 552 304 552

C305 552 306 550 306 548

Z

M34 549

C36 548 37 547 36 547

C35 546 13 545 14 545

C15 546 28 551 30 551

C30 551 32 550 34 549

Z

M163 548

C169 544 171 543 175 544

C180 545 186 544 187 541

C189 539 186 538 184 539

C181 541 180 541 174 540

C168 540 168 540 163 543

C158 548 156 548 150 545

C147 544 144 543 143 543

C140 543 132 547 132 548

C132 550 134 550 137 549

C141 546 145 547 150 549

C155 551 159 551 163 548

Z

M121 549

C123 548 127 547 128 545

C132 542 134 537 133 536

C132 534 130 535 130 537

C130 538 125 544 123 544

C122 544 122 543 122 542

C122 540 122 539 121 539

C120 538 118 541 118 544

C118 546 115 547 111 546

C109 546 107 547 109 549

C109 550 116 550 121 549

Z

M290 547

C290 545 283 535 279 532

C274 529 268 529 267 531

C267 533 268 533 270 533

C274 533 280 538 285 545

C288 549 290 550 290 547

Z

M298 546

C299 543 291 528 286 527

C283 525 283 528 287 532

C291 537 294 542 294 546

C294 548 297 549 298 546

Z

M448 546

C448 545 446 545 443 545

C437 545 435 544 438 542

C439 541 440 540 440 539

C439 539 438 539 438 540

C436 541 430 541 427 540

C426 539 425 539 425 540

C425 540 428 542 431 544

C435 546 438 547 443 547

C446 547 448 546 448 546

Z

M77 539

C80 534 78 531 74 531

C69 532 68 534 71 540

C72 543 74 545 74 544

C75 544 76 542 77 539

Z

M580 541

C581 540 580 539 579 537

L577 534

L574 537

C570 542 570 543 575 543

C577 542 580 542 580 541

Z

M490 538

C490 536 489 531 486 529

C485 528 485 529 483 531

C480 535 480 539 483 540

C486 542 489 541 490 538

Z

M568 539

C569 538 570 536 571 534

L573 532

L571 531

C568 529 559 530 558 531

C557 534 563 542 567 542

C567 542 568 541 568 539

Z

M412 538

C412 538 409 537 405 537

C398 537 397 538 402 540

C406 541 411 540 412 538

Z

M396 536

C400 532 411 531 416 533

C421 536 428 536 428 534

C428 532 425 530 422 530

C421 530 420 529 419 528

C418 527 417 526 415 526

C414 526 412 525 411 524

C410 521 404 521 402 524

C401 525 399 526 397 526

C396 526 394 527 394 529

C393 530 391 531 390 532

C386 534 385 536 388 538

C390 539 393 539 396 536

Z

M67 529

C71 525 76 525 80 529

L83 531

L83 528

C83 526 82 524 80 523

C75 517 66 520 64 528

C64 532 64 532 67 529

Z

M176 525

C176 521 176 520 180 518

C182 516 183 516 182 515

C181 514 180 514 178 515

C177 516 173 518 169 520

C160 524 161 526 171 523

C173 523 173 523 173 526

C173 527 173 529 174 529

C175 531 176 529 176 525

Z

M457 528

C457 526 456 526 454 526

C452 526 450 525 448 523

C443 518 441 517 435 517

C428 517 427 516 423 510

C421 504 417 502 410 502

C406 502 406 504 412 505

C417 507 419 508 421 513

C424 519 428 521 435 521

C441 521 441 521 444 524

C448 529 451 530 454 530

C456 530 457 530 457 528

Z

M280 524

C280 522 276 521 266 521

C252 522 249 521 246 520

C244 519 240 516 239 514

C236 509 234 508 233 511

C233 513 240 521 245 523

C249 525 250 525 260 525

C266 524 272 524 274 525

C279 526 280 526 280 524

Z

M311 525

C311 525 310 522 308 520

C304 515 299 511 292 509

C288 507 288 507 287 509

C287 509 287 510 287 510

C287 510 291 512 295 514

C299 517 302 519 305 522

C307 525 311 527 311 525

Z

M209 523

C209 521 197 513 196 514

C195 514 197 516 201 519

C207 524 209 525 209 523

Z

M71 512

C75 512 77 512 81 514

C83 515 86 518 88 520

C90 524 91 524 91 519

C91 515 87 507 84 505

C73 497 57 505 57 518

L57 523

L62 518

C66 514 67 513 71 512

Z

M294 520

C294 519 291 517 288 516

C284 513 281 513 275 512

C266 512 261 513 261 515

C262 516 263 516 264 516

C265 516 269 516 273 516

C279 516 281 516 286 519

C292 522 294 522 294 520

Z

M43 512

C43 507 37 505 35 509

C33 511 33 512 35 515

C37 521 38 522 41 517

C42 515 43 513 43 512

Z

M477 512

C482 509 486 502 486 497

C486 493 485 492 483 495

C483 496 481 498 479 500

C475 502 474 503 469 503

C462 503 458 501 454 495

L452 492

L452 497

C452 503 454 506 457 510

C462 515 471 515 477 512

Z

M190 502

C189 494 188 494 186 501

C185 507 185 511 186 511

C189 512 190 509 190 502

Z

M216 508

L224 505

L219 505

C210 504 206 504 204 506

C202 508 202 508 203 509

C205 512 207 511 216 508

Z

M535 508

C535 507 534 507 532 507

C529 507 523 504 521 501

C520 499 520 499 524 499

C527 499 529 499 529 498

C529 498 526 496 523 495

C518 493 517 491 514 483

C513 481 513 481 512 482

C511 482 512 486 514 492

C519 504 520 505 526 508

C531 510 534 510 535 508

Z

M182 506

C182 505 181 503 176 500

C173 498 170 496 170 497

C170 497 172 500 174 503

C178 509 181 511 182 506

Z

M202 504

C204 501 206 498 206 497

C206 497 204 498 201 500

C196 503 192 506 193 508

C195 510 198 509 202 504

Z

M37 502

C41 502 44 504 46 506

L48 509

L48 506

C48 501 43 496 38 496

C34 496 29 501 29 505

L29 508

L32 505

C34 503 36 502 37 502

Z

M172 507

C174 504 170 501 162 499

C157 499 154 498 153 498

C153 499 161 505 165 507

C169 508 170 508 172 507

Z

M552 505

C553 504 553 503 553 503

C553 503 550 503 547 503

C544 503 541 502 539 500

C535 497 535 496 540 496

C547 496 546 494 539 493

C534 492 533 491 530 488

C528 486 526 483 526 483

C526 482 525 482 525 482

C524 482 523 482 523 483

C523 484 533 498 536 501

C541 505 548 507 552 505

Z

M573 500

C578 494 580 490 580 483

C580 480 580 479 579 479

C578 479 577 480 577 482

C577 488 574 494 569 498

C566 501 564 504 564 504

C564 507 568 504 573 500

Z

M385 501

C385 500 383 499 380 499

C377 499 375 499 371 495

C366 490 361 488 356 490

C353 492 354 493 359 493

C363 493 364 493 368 497

C373 502 375 503 380 503

C383 503 385 502 385 501

Z

M111 499

C112 498 114 497 115 497

C117 497 119 496 119 495

C120 494 121 493 122 493

C125 493 128 491 128 490

C128 488 124 487 121 488

C120 488 118 489 116 490

C114 491 111 491 107 491

C102 491 100 490 96 487

C92 484 91 484 88 485

C85 486 86 488 90 491

C91 492 93 493 94 495

C94 496 96 497 97 497

C99 497 101 498 102 499

C105 502 108 502 111 499

Z

M53 487

C49 479 38 475 30 480

C25 483 21 489 21 495

C21 500 22 500 24 496

C27 491 32 489 38 489

C44 489 49 491 53 497

L55 500

L55 495

C55 493 54 490 53 487

Z

M391 496

C391 495 389 494 386 494

C383 493 382 492 380 489

C378 485 374 484 376 488

C377 492 380 496 383 497

C388 498 391 498 391 496

Z

M410 497

C414 496 417 493 415 492

C415 491 413 491 411 492

C408 494 402 495 402 493

C402 493 403 492 404 491

C405 489 405 489 404 488

C403 487 402 487 400 489

L397 492

L394 490

C390 487 388 486 388 488

C388 491 394 495 399 497

C405 498 406 498 410 497

Z

M475 493

C477 491 478 489 478 487

L478 484

L475 487

C471 491 465 491 461 486

L459 484

L459 486

C459 489 462 494 464 495

C467 497 472 496 475 493

Z

M226 492

C226 491 224 490 222 490

C217 489 217 489 215 484

C212 478 209 477 203 479

C200 480 197 480 195 481

C193 481 192 482 192 482

C192 485 196 485 201 483

C208 481 210 482 213 488

C214 490 216 492 217 493

C220 494 226 494 226 492

Z

M309 487

C310 480 310 479 309 478

C307 475 305 478 305 483

C305 487 306 494 307 494

C307 494 308 491 309 487

Z

M321 487

C318 482 317 481 316 481

C311 481 313 484 318 489

C321 492 324 494 324 494

C324 493 323 490 321 487

Z

M428 491

C428 489 421 483 414 480

C411 479 407 476 406 474

C402 470 399 470 395 473

C393 474 390 475 385 475

C376 476 367 478 367 480

C367 481 370 481 373 481

C390 481 410 485 422 490

C428 492 428 492 428 491

Z

M4 488

C5 488 5 485 5 484

C5 482 6 480 7 479

C7 478 8 477 8 476

C8 474 5 475 3 478

C1 481 0 490 2 490

C3 490 4 489 4 488

Z

M297 485

C302 483 304 478 300 478

C298 478 296 480 293 484

L288 489

L292 487

C294 487 296 486 297 485

Z

M343 489

C343 488 339 486 335 484

C327 480 322 479 322 482

C322 485 326 487 332 488

C340 489 343 489 343 489

Z

M113 485

C113 484 112 484 110 483

C106 482 98 483 99 485

C100 486 112 486 113 485

Z

M472 484

C474 482 473 478 471 474

C470 472 469 471 469 471

C468 471 464 479 464 481

C464 483 466 485 469 485

C470 485 471 484 472 484

Z

M132 482

C134 482 137 482 138 483

C138 484 139 484 140 484

C140 483 139 482 138 481

C135 479 137 478 143 478

C146 478 148 478 148 478

C148 477 146 476 143 476

C138 476 135 477 127 481

C125 482 124 484 127 483

C128 483 130 482 132 482

Z

M291 482

C293 480 293 480 291 478

C289 476 285 477 278 481

L272 484

L280 484

C288 484 289 484 291 482

Z

M252 482

C253 480 253 479 251 477

C248 474 245 473 244 476

C244 478 248 483 250 483

C250 483 251 482 252 482

Z

M233 479

C234 479 235 478 235 477

C235 476 234 476 230 476

C227 477 224 477 223 476

C221 475 221 474 221 469

C221 465 221 464 220 463

C218 463 217 468 217 472

C218 480 223 482 233 479

Z

M89 478

C90 477 92 476 93 476

C95 476 96 476 96 475

C96 475 97 474 99 473

C100 472 102 471 102 470

C102 468 97 468 94 469

C88 473 79 472 74 467

C71 464 67 464 65 465

C63 466 63 467 64 469

C65 470 66 471 68 471

C69 471 70 472 70 472

C70 475 73 477 75 477

C77 477 78 478 79 479

C81 481 86 480 89 478

Z

M260 475

C262 472 261 466 259 463

C258 462 256 461 254 460

C251 459 246 460 246 462

C246 463 247 463 250 463

C253 463 254 463 256 466

C258 469 259 471 256 473

C256 474 255 475 255 476

C257 478 259 477 260 475

Z

M514 475

C513 473 514 472 516 474

C517 475 517 475 518 474

C518 474 519 473 520 473

C521 472 522 471 521 471

C521 470 522 469 522 468

C523 467 524 466 523 465

C523 464 523 463 524 463

C526 463 525 461 522 459

C520 456 517 455 518 457

C519 458 518 460 516 461

C515 462 514 464 514 464

C514 465 512 465 510 464

C506 464 506 464 507 465

C508 467 508 467 505 467

C504 467 502 466 501 466

C495 463 503 473 508 475

C514 477 514 477 514 475

Z

M25 473

C29 470 30 467 28 467

C27 467 25 468 23 470

C20 474 18 474 15 471

C11 468 11 463 14 460

C16 459 16 459 14 456

C12 453 12 452 13 447

C13 446 13 445 12 445

C10 445 8 450 9 455

C10 457 10 459 9 460

C6 466 11 476 18 476

C21 476 23 475 25 473

Z

M123 473

C124 472 125 471 126 471

C127 471 129 470 130 469

C132 467 135 466 137 465

C141 464 143 459 141 458

C139 457 137 458 132 460

C122 467 111 467 102 460

C99 458 96 457 95 460

C95 462 98 466 101 467

C102 467 104 468 106 470

C107 471 109 472 110 472

C112 472 113 473 114 474

C116 476 122 475 123 473

Z

M242 472

C244 469 244 469 243 467

C241 462 218 439 216 439

C215 439 213 440 212 442

L210 444

L213 447

C218 453 238 474 239 474

C239 474 241 473 242 472

Z

M327 465

C328 461 328 457 328 457

C327 455 324 455 323 456

C323 458 324 472 325 472

C325 471 326 468 327 465

Z

M549 469

C555 466 558 464 562 456

C564 452 567 447 569 445

C571 442 573 440 573 439

C573 435 564 444 559 452

C555 460 553 463 549 465

C546 466 542 467 540 467

C535 467 533 468 535 470

C536 472 544 471 549 469

Z

M318 462

C320 459 319 457 317 457

C316 457 314 459 311 463

C309 466 307 469 307 469

C307 470 317 464 318 462

Z

M341 466

C337 460 335 457 333 457

C332 457 331 458 331 460

C331 461 332 463 336 465

C343 470 344 470 341 466

Z

M491 466

C492 464 492 464 490 464

C489 464 487 465 486 466

C485 468 485 468 487 468

C489 468 490 467 491 466

Z

M359 466

C357 463 346 458 344 458

C336 458 341 464 350 466

C358 467 361 467 359 466

Z

M483 465

C486 461 485 461 481 463

C478 465 477 465 478 466

C480 468 482 467 483 465

Z

M85 465

C86 465 87 464 87 463

C87 463 88 462 89 462

C92 462 91 460 87 459

C85 458 82 458 81 457

C80 457 77 456 75 454

C70 451 63 450 63 453

C63 454 64 454 66 455

C68 455 71 455 73 456

C75 458 75 458 74 459

C73 459 72 460 72 461

C72 462 75 462 76 461

C76 460 83 460 84 461

C84 462 84 463 83 463

C81 466 82 467 85 465

Z

M477 461

C481 459 481 458 479 458

C477 458 469 462 470 463

C471 465 473 464 477 461

Z

M308 461

C311 459 311 459 310 457

C308 455 305 456 297 459

L289 462

L293 462

C302 463 306 463 308 461

Z

M470 459

C473 457 475 455 475 455

C475 454 467 456 464 458

C461 460 460 461 461 461

C463 462 464 462 470 459

Z

M124 459

C126 458 128 456 129 455

C132 452 133 452 137 452

C141 453 143 452 139 451

C136 449 139 448 146 447

C152 447 153 446 151 445

C149 443 139 446 137 448

C135 449 133 450 132 450

C131 450 128 452 126 454

C123 458 122 458 118 458

C113 457 110 458 110 459

C110 460 112 460 115 460

C118 460 121 461 121 461

C121 461 123 460 124 459

Z

M265 460

C266 459 268 458 272 458

C285 458 292 450 293 435

C293 431 293 430 292 430

C291 430 290 431 290 436

C288 449 284 453 272 454

C265 455 261 457 261 460

C261 461 263 461 265 460

Z

M511 459

C511 458 507 453 506 453

C504 453 505 459 507 459

C510 460 511 460 511 459

Z

M460 456

C464 453 464 452 459 452

C455 453 449 457 450 458

C451 460 456 459 460 456

Z

M451 453

L455 450

L451 450

C448 450 438 455 438 456

C438 457 444 458 446 457

C447 456 449 455 451 453

Z

M498 455

C497 453 494 449 493 450

C492 450 492 451 493 452

C493 452 493 453 492 453

C490 453 491 455 494 456

C499 457 499 457 498 455

Z

M175 453

C180 449 179 446 173 450

C171 451 171 451 168 449

C166 446 166 446 168 445

C169 443 169 443 168 440

C167 436 166 434 168 430

C168 428 166 427 164 429

C163 431 163 437 164 440

C165 441 165 442 163 443

C161 445 162 447 166 452

C169 454 171 456 171 456

C171 456 173 455 175 453

Z

M440 451

C450 446 449 446 449 445

C448 444 424 454 425 455

C426 457 433 456 440 451

Z

M104 453

C106 450 107 445 104 442

C103 441 103 439 103 436

C103 433 103 433 100 433

C99 434 97 433 95 432

C92 429 91 429 92 432

C92 435 88 435 85 432

C84 431 82 430 81 430

L79 431

L81 434

C83 436 86 437 89 438

C92 439 96 441 97 442

C99 445 99 446 99 449

C98 455 100 457 104 453

Z

M317 452

C317 450 306 442 304 443

C302 443 303 445 309 449

C315 453 317 454 317 452

Z

M44 449

C48 442 45 434 38 432

C35 432 29 433 27 436

C26 436 24 437 22 437

C18 437 14 439 14 442

C14 443 15 443 19 441

C22 440 23 440 25 441

C28 442 28 441 30 439

C33 435 37 435 41 438

C44 441 44 442 41 446

C38 452 40 454 44 449

Z

M337 449

C339 447 343 445 346 444

C348 443 350 442 350 442

C350 440 348 440 344 441

C340 443 339 443 339 439

C339 434 337 436 336 441

C336 444 336 446 333 448

C327 453 330 454 337 449

Z

M483 449

C483 447 479 445 474 443

C472 443 470 442 469 441

C467 439 467 439 463 440

L459 441

L466 444

C471 445 475 447 477 449

C480 451 482 451 483 449

Z

M506 449

C506 447 503 444 500 444

C499 444 499 445 499 445

C500 446 499 447 499 448

C498 449 498 449 500 450

C504 451 506 451 506 449

Z

M512 446

C507 441 506 440 502 439

C496 436 496 438 501 441

C504 442 507 445 510 447

C513 450 515 451 515 450

C516 450 515 448 512 446

Z

M558 445

C561 438 567 432 573 430

C577 428 578 425 575 425

C572 425 564 431 561 434

C557 438 553 447 553 449

C554 451 556 450 558 445

Z

M383 445

C390 443 395 441 402 436

L407 432

L404 430

C402 430 400 428 399 426

C398 424 397 423 397 423

C397 423 395 425 394 427

C391 433 386 438 378 442

C372 446 372 446 375 446

C376 446 380 445 383 445

Z

M417 446

C417 445 413 444 409 442

C401 440 401 440 397 441

C391 444 395 446 410 446

C414 446 417 446 417 446

Z

M529 443

C529 441 524 440 520 441

L517 442

L520 444

C525 445 528 445 529 443

Z

M486 440

C488 438 489 438 488 436

C487 435 487 435 488 434

C490 434 490 433 489 432

C487 429 489 424 493 420

C497 416 497 412 494 412

C493 412 492 411 492 410

C492 407 490 406 485 406

C482 406 482 409 485 412

C488 414 488 418 483 422

C481 424 478 426 478 426

C477 426 475 432 475 435

C476 437 481 443 482 443

C482 443 484 442 486 440

Z

M58 438

C62 434 63 429 63 422

C62 417 58 406 56 406

C54 406 54 408 57 414

C61 423 60 432 54 437

C51 440 51 441 54 441

C55 441 57 440 58 438

Z

M385 435

C387 434 389 432 389 432

C389 432 388 430 387 429

L385 427

L383 429

C383 430 380 431 378 432

L374 433

L376 436

C380 439 381 439 385 435

Z

M535 436

C535 434 528 434 524 435

C522 436 520 437 521 437

C521 439 534 438 535 436

Z

M266 429

C267 426 265 423 262 423

C258 423 256 427 259 431

C262 437 262 437 264 434

C265 433 266 430 266 429

Z

M510 434

C511 433 513 430 514 428

C516 421 517 420 533 418

C546 416 552 415 555 413

C558 411 555 411 550 412

C547 413 539 415 532 416

C516 417 514 419 511 427

C510 430 509 433 508 433

C508 433 506 434 505 435

C504 436 504 436 506 436

C508 436 509 435 510 434

Z

M208 434

C208 433 204 429 200 425

L192 417

L188 420

C184 423 183 424 181 423

C178 422 173 422 170 424

C167 426 168 427 174 426

C178 426 180 426 181 427

C184 429 184 429 188 425

L192 422

L199 428

C205 435 208 436 208 434

Z

M53 430

C55 426 54 418 52 414

C49 410 48 413 49 419

C51 423 51 424 49 428

C47 434 49 436 53 430

Z

M27 430

C27 425 10 414 4 414

C0 414 1 416 6 418

C14 422 17 423 21 428

C25 432 27 432 27 430

Z

M363 430

C365 430 365 427 364 425

C362 423 359 425 359 427

C359 431 360 432 363 430

Z

M379 429

C382 428 383 424 382 421

C381 419 380 419 376 419

C374 420 372 420 371 420

C370 421 369 429 370 430

C370 431 375 430 379 429

Z

M539 429

C541 427 541 427 538 427

C536 426 531 427 527 428

C524 430 526 431 532 431

C536 431 538 431 539 429

Z

M43 424

C43 420 41 415 38 412

C35 408 27 402 25 402

C22 402 23 404 29 409

C36 414 38 417 39 423

C40 426 40 428 41 428

C42 430 43 428 43 424

Z

M411 427

C411 426 410 423 409 421

C408 418 407 417 406 417

C404 418 402 418 401 418

L398 418

L400 421

C401 423 402 425 403 426

C405 428 411 429 411 427

Z

M421 424

C421 421 419 419 417 420

C415 421 414 424 416 425

C417 427 420 426 421 424

Z

M546 422

C547 422 547 421 547 420

C545 419 536 420 532 421

L530 423

L532 423

C539 425 543 425 546 422

Z

M568 423

C573 419 578 418 583 417

C588 417 590 416 590 415

C590 413 589 413 586 413

C577 413 564 419 563 423

C563 426 565 425 568 423

Z

M255 422

C257 417 265 417 268 421

C270 422 271 423 272 423

C273 422 270 415 268 414

C265 412 260 412 257 414

C254 415 252 420 252 422

C252 423 254 423 255 422

Z

M345 420

C347 419 349 418 349 417

C349 415 347 415 344 417

C343 417 340 418 339 419

C337 420 336 421 336 421

C336 423 339 423 345 420

Z

M132 414

C134 407 135 404 133 404

C130 403 129 405 129 413

C128 422 129 422 132 414

Z

M144 412

C142 409 140 407 139 406

C138 406 136 408 136 410

C136 411 146 419 147 419

C147 418 146 416 144 412

Z

M161 416

C160 414 157 412 155 411

C148 406 143 408 146 412

C148 415 156 418 162 418

C164 418 164 418 161 416

Z

M368 416

C369 415 367 412 366 412

C364 412 362 415 362 416

C363 419 368 418 368 416

Z

M120 414

C125 411 127 408 126 406

C124 403 121 406 114 416

C112 418 113 417 120 414

Z

M340 413

C346 410 353 401 353 396

C353 394 350 395 348 399

C345 407 335 413 325 413

C321 413 319 416 323 416

C327 417 336 415 340 413

Z

M258 405

C264 403 269 405 275 411

L279 415

L279 410

C278 399 271 393 261 394

C251 395 246 400 245 410

L245 415

L249 411

C252 408 255 406 258 405

Z

M382 413

C383 412 381 409 380 409

C378 409 376 412 377 413

C377 414 378 415 380 415

C381 415 382 414 382 413

Z

M401 412

C401 409 398 407 396 409

C394 410 394 412 396 413

C397 415 398 415 399 414

C400 413 401 412 401 412

Z

M414 414

C417 411 413 406 410 408

C408 410 410 415 412 415

C412 415 413 414 414 414

Z

M316 413

C316 412 315 410 313 410

C307 407 305 404 305 397

C305 392 305 391 304 391

C302 391 301 397 301 401

C302 403 303 406 304 408

C308 413 316 416 316 413

Z

M213 410

C216 404 215 399 211 399

C208 399 206 401 206 403

C206 405 210 413 210 413

C211 413 212 411 213 410

Z

M452 405

L456 398

L451 395

C449 393 446 392 445 392

C443 392 444 395 448 397

C449 398 451 399 451 399

C451 400 450 402 448 404

L446 409

L440 406

C437 404 435 403 434 404

C433 404 433 405 433 406

C434 407 445 413 447 413

C448 413 450 409 452 405

Z

M48 410

C49 408 45 404 40 400

C34 397 31 392 31 388

C31 386 30 385 30 385

C27 385 27 390 30 396

C30 398 34 401 37 403

C40 405 43 408 44 409

C45 411 47 412 48 410

Z

M115 409

C118 408 118 404 115 403

C113 403 98 407 98 408

C98 409 102 409 110 410

C112 410 114 410 115 409

Z

M481 405

C481 404 477 402 472 401

C469 401 469 401 474 404

C481 407 481 407 481 405

Z

M98 404

C100 402 98 399 93 399

C89 399 73 402 73 403

C74 404 83 405 90 405

C93 405 96 404 98 404

Z

M429 401

C429 400 426 398 422 396

C419 395 416 393 416 392

C416 392 418 388 419 384

C423 377 423 375 421 375

C420 375 411 392 411 394

C411 395 425 402 427 402

C428 402 429 401 429 401

Z

M149 389

C149 383 149 383 147 383

C146 383 145 385 145 393

C145 401 145 401 147 398

C148 396 148 392 149 389

Z

M208 394

C212 394 215 395 218 398

L220 400

L220 397

C220 392 215 388 211 388

C206 388 201 392 201 397

L201 400

L203 398

C205 396 207 395 208 394

Z

M543 396

C543 396 545 395 546 395

C548 395 551 393 551 390

C551 390 552 389 553 389

C556 389 558 385 557 383

C555 381 552 382 547 385

C541 389 535 390 527 387

C521 385 516 385 516 388

C516 389 521 392 522 391

C522 390 523 391 525 393

C526 394 528 395 529 395

C530 395 532 396 533 397

C535 399 536 399 538 399

C540 398 542 397 543 396

Z

M135 394

C140 391 142 388 140 386

C140 385 139 385 138 386

C136 386 127 398 129 398

C129 398 132 396 135 394

Z

M163 395

C162 393 160 390 158 388

C155 385 155 385 153 386

C151 388 153 390 159 395

C162 396 165 398 165 398

C165 398 164 397 163 395

Z

M182 395

C180 393 170 388 168 387

C165 386 162 387 162 388

C162 391 166 393 174 395

C181 396 183 396 182 395

Z

M108 391

C106 389 106 387 107 385

C107 382 107 381 106 381

C105 381 104 382 104 383

L103 386

L99 383

C95 381 88 378 87 379

C86 380 88 382 92 383

C94 384 99 387 103 390

C106 392 110 395 110 394

C110 394 109 393 108 391

Z

M384 389

C386 385 386 383 383 381

C381 380 381 380 379 381

C376 383 376 385 378 389

C379 392 381 394 381 394

C381 394 383 392 384 389

Z

M202 383

C209 378 219 381 225 389

L227 392

L228 389

C228 386 227 380 223 376

C217 368 204 368 198 376

C194 380 193 386 193 389

L194 392

L196 389

C198 387 200 385 202 383

Z

M50 390

C50 389 49 388 48 387

C46 386 45 384 44 381

C43 375 42 372 37 369

C32 366 31 365 31 356

C31 351 31 349 28 346

C25 342 22 340 21 343

C21 344 22 345 24 346

C26 349 27 349 27 357

C28 365 28 366 30 369

C32 371 35 372 36 373

C39 374 41 379 41 383

C41 385 46 391 48 391

C48 391 49 390 50 390

Z

M130 389

C133 387 133 385 129 384

C126 384 110 389 113 390

C118 391 127 391 130 389

Z

M354 387

C354 384 354 383 352 383

C349 383 345 386 345 387

C345 388 351 391 353 391

C354 391 354 390 354 387

Z

M308 385

C310 381 317 375 322 373

C323 373 327 372 330 372

C335 371 336 371 335 369

C333 367 325 368 320 370

C312 374 303 384 305 387

C306 389 307 388 308 385

Z

M344 383

C345 382 347 381 349 380

C351 380 352 379 352 379

C352 378 344 371 342 371

C338 370 337 377 340 382

C341 386 341 386 344 383

Z

M544 383

C543 381 537 380 534 381

C532 382 531 382 531 383

C532 384 544 384 544 383

Z

M163 380

C166 378 171 377 173 376

C176 376 177 375 177 374

C177 373 176 373 172 373

L167 374

L167 371

C168 368 166 366 165 368

C164 369 164 371 164 373

C164 375 164 376 163 376

C161 376 156 380 157 381

C157 382 157 382 163 380

Z

M508 380

C511 379 511 379 515 380

C517 381 518 382 519 382

C519 381 517 378 516 378

C515 378 513 377 511 376

C506 374 495 373 495 375

C495 376 498 376 501 376

C507 376 509 377 506 378

C505 379 504 380 504 381

C504 381 504 382 505 382

C505 382 507 381 508 380

Z

M148 378

C151 375 152 372 150 372

C149 372 148 373 147 374

L146 376

L144 374

C141 372 139 371 139 373

C139 374 144 381 145 381

C145 381 147 380 148 378

Z

M374 378

C378 374 384 374 388 378

L390 381

L390 378

C390 370 380 367 375 372

C372 374 370 381 371 381

C372 381 373 380 374 378

Z

M565 377

C566 376 569 375 570 374

C572 373 573 372 574 371

C574 370 575 369 576 369

C577 369 578 368 579 367

C581 365 581 365 580 364

C578 361 573 362 568 367

C564 369 556 370 551 367

C547 366 543 366 543 368

C543 369 544 370 545 371

C546 371 548 372 548 373

C549 373 550 374 552 374

C553 374 555 375 556 376

C558 378 561 379 565 377

Z

M368 368

C374 359 390 361 395 370

L398 374

L398 371

C399 363 394 355 387 352

C376 348 364 356 364 369

C364 373 364 373 365 372

C366 371 367 369 368 368

Z

M433 365

C436 360 440 352 442 346

C447 336 446 335 441 333

C438 333 438 333 434 341

C429 350 421 369 421 370

C421 371 425 373 427 373

C428 373 430 370 433 365

Z

M530 372

C531 371 533 370 535 370

C537 369 539 368 539 367

C540 366 542 365 543 364

C547 363 549 360 548 357

C547 355 544 356 539 359

C535 362 534 362 527 362

C520 362 519 362 512 359

C505 355 502 354 502 357

C502 360 506 363 508 363

C510 363 511 364 512 365

C513 367 515 368 517 368

C518 369 520 370 521 371

C522 373 527 374 530 372

Z

M318 368

L323 366

L323 358

L323 351

L318 351

C310 351 301 356 300 362

C300 363 311 371 312 371

C312 371 315 369 318 368

Z

M146 365

C145 363 136 357 126 351

C113 344 112 343 112 334

C112 328 110 323 107 324

C106 325 106 326 108 327

C110 329 110 330 110 336

C110 345 111 346 125 354

C131 357 138 361 140 363

C144 366 146 367 146 365

Z

M245 363

C245 362 242 361 239 360

C227 358 223 354 223 346

C223 342 224 341 228 337

C233 331 234 329 232 329

C230 329 223 335 221 339

C219 345 218 348 221 354

C223 358 226 360 232 363

C236 364 245 364 245 363

Z

M270 361

C272 360 275 357 276 356

C278 353 280 346 279 342

C278 339 269 329 267 329

C264 329 265 331 270 336

C275 341 276 345 275 350

C273 356 268 359 259 360

C255 361 254 362 254 363

C254 365 265 364 270 361

Z

M562 363

C562 363 562 362 561 362

C559 360 560 359 562 358

C564 357 565 357 568 358

C571 360 574 359 570 356

C569 355 569 355 572 353

C575 353 577 352 579 352

C581 352 582 352 582 351

C582 350 580 349 578 349

C576 349 573 350 566 354

C564 355 558 357 555 357

C552 357 551 359 554 360

C555 360 556 361 557 362

C559 364 562 365 562 363

Z

M530 358

C533 358 534 358 534 357

C533 356 531 355 527 355

C521 355 521 355 517 352

C515 350 513 348 512 348

C511 348 509 347 507 345

C504 344 502 343 498 343

C491 342 491 344 498 345

C505 346 507 347 505 348

C502 350 503 351 508 350

C512 350 513 350 514 352

C515 355 522 359 524 359

C525 358 527 358 530 358

Z

M141 355

C141 354 140 353 140 352

C139 350 137 349 134 347

C126 345 125 346 128 349

C131 352 141 356 141 355

Z

M291 351

C294 348 294 347 294 342

C294 336 293 332 291 332

C289 332 289 333 290 338

C292 345 290 348 283 351

C279 352 280 354 284 354

C286 354 288 353 291 351

Z

M545 349

C545 341 546 339 558 335

C560 334 562 333 563 331

L565 329

L563 328

C562 328 560 329 558 330

C555 333 552 333 553 330

C553 328 551 327 549 330

C548 330 546 331 544 331

C541 331 541 331 541 334

C541 336 540 338 540 340

C537 343 538 349 540 351

C544 354 546 353 545 349

Z

M215 348

C215 347 213 346 210 345

C204 342 202 339 202 334

C203 330 203 329 202 329

C201 329 200 330 199 332

C196 339 201 346 209 348

C214 350 215 350 215 348

Z

M425 348

C426 348 425 346 424 344

C420 337 423 333 431 333

C433 333 434 333 434 331

C433 330 433 330 429 330

C422 330 420 333 419 338

C419 344 423 351 425 348

Z

M168 344

C174 341 175 342 181 345

C187 348 196 348 196 344

C196 343 194 343 190 343

C186 343 184 342 181 340

C176 337 173 337 167 340

C165 341 162 342 160 343

C157 343 156 345 158 346

C158 347 162 346 168 344

Z

M251 345

C252 344 251 341 250 339

L249 336

L247 339

C246 343 246 347 249 347

C250 347 251 346 251 345

Z

M352 345

C354 345 355 343 356 341

C356 340 357 339 357 340

C359 342 360 341 359 339

C359 337 359 336 361 336

C365 334 364 333 359 332

L355 332

L355 328

C355 325 355 324 354 324

C352 324 350 328 352 332

C352 334 352 335 350 337

C348 339 347 341 347 343

C347 347 348 348 352 345

Z

M86 344

C86 342 87 342 89 342

C91 343 91 343 91 340

C91 338 90 335 89 333

C88 329 88 325 90 323

C91 322 92 320 91 320

C91 319 91 318 92 318

C93 317 92 315 90 311

C88 309 88 309 85 310

C78 313 76 319 80 326

C84 333 84 337 80 340

C74 343 75 345 83 346

C84 346 85 345 86 344

Z

M137 345

C137 342 135 341 130 339

C127 338 124 337 124 338

C123 338 127 342 131 344

C136 346 137 346 137 345

Z

M73 343

C74 342 74 342 72 342

C71 343 67 343 65 343

C62 343 61 343 63 344

C66 346 73 345 73 343

Z

M460 340

C464 335 461 324 456 324

C454 324 453 327 456 328

C458 329 459 333 458 335

C457 337 456 338 453 339

C451 340 449 341 449 342

C449 344 457 343 460 340

Z

M242 339

C244 337 245 336 245 336

C245 335 242 336 240 336

C235 336 233 338 234 341

C235 343 239 342 242 339

Z

M263 341

C265 339 262 336 259 336

C257 336 255 336 254 335

C251 333 252 335 255 339

C258 342 261 343 263 341

Z

M34 337

C34 336 32 336 31 335

C25 334 19 330 24 330

C26 330 28 328 26 327

C25 326 24 326 22 327

C19 328 19 328 17 323

C16 319 14 318 13 320

C12 321 15 329 18 332

C22 337 26 339 31 339

C33 339 34 339 34 337

Z

M211 337

C212 337 214 336 215 335

C220 334 220 331 215 332

C212 332 207 335 207 338

C207 339 209 339 211 337

Z

M490 335

C490 334 489 333 488 333

C487 332 485 330 485 328

C482 321 474 317 466 319

C463 319 462 320 462 321

C462 322 463 322 467 322

C474 322 479 324 481 329

C483 335 490 339 490 335

Z

M135 335

C135 333 133 332 128 330

C122 329 120 329 124 332

C128 335 135 337 135 335

Z

M404 329

C406 324 406 321 402 320

C399 320 397 321 396 324

C396 326 400 334 401 333

C402 333 403 331 404 329

Z

M255 330

C257 329 258 328 258 327

C258 325 256 324 255 326

C254 327 244 327 242 326

C241 325 241 325 240 326

C239 327 239 328 241 329

C244 331 251 332 255 330

Z

M339 330

C340 330 339 329 338 329

C334 328 332 328 332 330

C332 331 338 332 339 330

Z

M377 329

C379 328 380 324 378 324

C377 324 376 325 374 326

C373 327 371 328 370 328

C370 328 369 329 369 330

C369 332 373 331 377 329

Z

M449 327

C450 323 450 321 447 321

C445 321 442 327 443 329

C445 331 448 330 449 327

Z

M219 327

C223 324 227 323 229 325

C230 326 230 326 231 325

C232 324 232 323 230 322

C227 319 221 320 217 323

C214 326 209 326 205 322

C203 320 202 320 201 321

C201 323 202 325 205 327

C210 330 214 329 219 327

Z

M291 328

C296 326 299 322 297 321

C296 320 295 320 293 322

C289 326 285 326 281 323

C276 319 267 319 267 324

C267 325 268 325 272 324

C274 323 275 323 279 326

C285 329 287 330 291 328

Z

M11 326

C11 325 10 324 9 322

C7 321 6 319 6 316

C6 311 5 309 3 312

C1 316 3 323 7 326

C10 328 11 328 11 326

Z

M132 326

C132 324 131 324 124 323

C121 322 121 322 122 324

C123 326 127 328 131 328

C131 328 132 327 132 326

Z

M368 322

C369 319 369 316 367 315

C366 315 366 316 365 317

C365 319 365 319 362 317

C355 314 347 315 343 321

C341 324 344 325 347 321

C350 319 351 319 355 319

C357 320 360 321 362 322

C366 326 367 326 368 322

Z

M438 324

C439 324 438 321 437 319

L435 316

L437 312

C440 307 440 301 437 299

C436 298 433 296 431 294

C427 291 425 290 425 293

C425 294 427 296 432 300

C437 303 437 305 434 310

C431 313 431 318 434 322

C436 325 437 326 438 324

Z

M116 318

C118 317 121 317 122 316

C123 316 123 316 122 315

C122 314 119 315 115 316

C112 317 108 318 105 318

C101 318 100 319 102 320

C103 321 110 320 116 318

Z

M400 315

C403 315 405 316 407 318

L410 321

L410 318

C410 311 402 307 396 310

C394 311 391 316 391 319

C391 321 391 321 394 318

C396 316 398 315 400 315

Z

M338 319

C339 318 338 317 337 315

C333 310 333 308 334 306

C335 302 333 300 331 303

C329 307 330 311 333 316

C336 320 337 321 338 319

Z

M206 315

C208 313 210 312 213 312

C216 312 217 312 218 309

C221 305 225 303 230 303

C232 303 234 302 237 300

C239 298 241 297 242 297

C243 297 244 297 246 297

C247 297 248 296 248 295

C248 294 246 294 243 294

C239 294 237 294 235 296

C233 298 231 299 229 299

C225 299 219 302 216 305

C215 307 213 308 212 308

C207 308 200 314 201 316

C202 319 203 318 206 315

Z

M239 314

C235 311 229 310 228 313

C227 315 229 316 234 316

C237 317 239 317 240 317

C240 318 241 318 241 318

C242 318 241 316 239 314

Z

M251 309

C251 309 250 308 249 307

C248 306 248 306 246 307

C245 309 245 309 246 314

L247 318

L249 314

C250 312 251 310 251 309

Z

M262 316

C266 316 267 315 267 313

C267 310 261 310 257 314

C254 316 253 318 255 317

C256 317 259 317 262 316

Z

M298 316

C298 314 293 309 289 308

C287 308 284 306 283 305

C279 302 273 299 270 299

C269 299 266 298 264 296

C258 292 249 292 252 296

C252 296 254 297 256 297

C258 297 260 298 262 300

C265 302 266 303 270 303

C274 303 280 306 281 309

C282 312 283 312 286 312

C290 312 291 313 294 315

C297 318 298 319 298 316

Z

M112 313

C114 311 113 310 109 310

C106 309 106 309 106 311

C107 312 107 313 106 313

C105 313 105 313 105 314

C105 316 111 315 112 313

Z

M391 305

C395 302 400 301 405 302

C409 303 416 309 416 311

C416 312 416 312 417 312

C419 312 418 304 416 300

C407 284 384 290 384 308

L384 314

L386 310

C387 309 389 306 391 305

Z

M366 310

C366 306 358 299 352 298

C346 296 343 296 338 297

C332 299 334 301 341 300

C350 300 358 303 361 308

C364 312 366 313 366 310

Z

M134 309

C136 307 136 296 134 295

C133 295 133 294 133 293

C133 293 132 293 131 293

C129 293 129 293 130 292

C131 290 130 289 126 289

C121 289 116 291 114 293

C113 295 113 295 116 295

C119 295 122 296 120 298

C118 298 121 300 124 300

C125 300 126 301 126 303

C127 305 128 307 128 307

C129 308 129 308 128 309

C128 309 127 310 127 310

C127 312 132 310 134 309

Z

M498 309

C503 307 504 305 501 303

C498 300 496 297 496 294

C496 291 499 285 502 284

L504 283

L502 280

C496 276 488 275 481 279

C477 282 477 282 480 284

C487 289 487 297 480 303

C479 304 478 305 478 306

C480 308 487 311 491 311

C492 311 495 310 498 309

Z

M326 309

C326 308 324 307 319 306

C312 306 311 306 312 308

C313 311 326 311 326 309

Z

M119 307

C121 306 121 305 120 304

C119 303 115 303 116 305

C116 305 116 306 115 306

C114 306 114 307 114 308

C114 310 116 309 119 307

Z

M85 306

C91 306 92 305 92 304

C92 302 91 302 89 302

C88 302 82 302 77 302

L67 303

L70 305

C73 308 74 308 75 307

C77 306 81 306 85 306

Z

M108 305

C110 303 109 302 105 302

C102 302 101 302 101 305

C101 308 101 308 104 307

C105 306 107 305 108 305

Z

M543 301

C542 297 542 297 544 294

C546 292 547 291 546 290

C546 289 544 290 541 294

C538 296 534 300 532 301

C530 302 529 304 530 304

C530 305 531 305 535 303

C539 300 540 300 540 303

C540 305 542 307 543 306

C544 306 543 304 543 301

Z

M371 304

C372 301 372 299 370 299

C369 299 367 304 368 305

C368 307 370 306 371 304

Z

M327 301

C328 297 302 293 299 296

C298 298 300 298 309 299

C314 300 320 300 322 301

C325 302 327 302 327 301

Z

M364 296

C364 290 359 277 357 280

C356 281 356 282 358 286

C359 289 360 293 360 296

C360 299 360 300 362 300

C363 300 364 298 364 296

Z

M476 296

C479 294 478 293 476 291

C472 287 468 291 470 296

C471 298 474 299 476 296

Z

M511 297

C512 295 512 292 510 291

C508 289 507 289 505 291

C503 293 503 294 505 296

C506 298 509 298 511 297

Z

M211 295

C213 294 215 293 215 292

C216 292 214 290 212 288

C210 285 209 283 209 281

C209 276 211 271 214 270

C217 268 217 268 212 265

C205 261 195 262 191 267

C190 268 190 269 193 270

C196 273 198 278 197 282

C197 284 195 287 194 288

C191 291 191 291 192 293

C196 297 204 298 211 295

Z

M86 294

C85 293 83 290 82 288

C81 286 79 285 79 285

C79 285 77 285 77 284

C74 283 75 286 80 291

C85 296 89 298 86 294

Z

M330 294

C330 292 322 289 314 288

C309 287 302 286 297 286

C289 285 287 285 289 287

C290 289 296 290 308 291

C315 292 321 293 323 294

C328 296 330 296 330 294

Z

M355 295

C356 295 356 292 355 289

C353 284 345 274 342 274

C339 274 340 276 344 280

C348 284 350 287 353 295

C353 296 355 296 355 295

Z

M53 286

C49 280 46 278 43 277

C36 275 37 277 50 288

C55 292 59 295 59 295

C59 294 57 291 53 286

Z

M91 291

C89 288 87 286 86 286

C83 286 84 287 88 291

C93 296 95 296 91 291

Z

M75 293

C75 292 71 285 70 284

C69 283 67 283 66 283

L63 283

L65 286

C68 291 75 296 75 293

Z

M98 290

C98 287 97 286 95 286

C94 286 93 286 93 287

C93 288 98 294 99 294

C99 294 99 292 98 290

Z

M62 287

C60 283 59 282 56 281

C54 281 52 280 52 280

C52 281 58 289 61 291

C65 294 66 292 62 287

Z

M106 292

C106 290 103 287 102 287

C101 287 101 290 102 292

C104 293 106 293 106 292

Z

M337 291

C337 290 327 283 321 281

C319 280 312 279 307 278

C299 278 294 277 289 275

C284 273 281 272 281 273

C278 276 291 281 306 282

C315 283 317 283 324 286

C327 288 331 291 333 291

C335 293 337 293 337 291

Z

M347 291

C347 288 338 279 331 276

C324 272 316 271 316 273

C316 274 317 275 319 276

C330 278 339 284 343 290

C344 293 346 294 347 291

Z

M575 292

C575 291 562 285 560 285

C559 285 559 286 559 286

C559 287 562 289 565 290

C570 293 575 293 575 292

Z

M148 286

C153 283 153 283 159 284

C167 285 169 284 163 282

C157 280 157 280 160 279

C162 277 169 277 173 278

C177 280 178 279 175 277

C171 274 165 274 162 275

C157 277 142 286 142 288

C142 289 142 289 148 286

Z

M534 285

C535 284 535 284 533 282

C531 280 529 280 525 280

C520 280 512 281 514 282

C514 282 518 283 522 284

C530 287 531 287 534 285

Z

M552 284

C552 283 551 279 550 275

C549 268 549 268 548 271

C546 278 547 286 550 286

C551 286 551 285 552 284

Z

M136 281

C141 276 141 276 147 276

C154 276 155 275 149 273

C147 272 145 272 145 271

C145 269 150 268 155 268

C159 268 162 268 162 267

C162 266 156 265 151 265

C147 266 146 267 139 274

C134 278 131 283 131 284

C131 286 131 286 136 281

Z

M544 284

C546 282 544 280 539 278

C530 274 529 274 535 280

C540 285 543 286 544 284

Z

M189 283

C192 279 188 274 184 276

C180 278 182 284 186 284

C187 284 188 283 189 283

Z

M224 282

C226 278 222 274 218 277

C214 279 216 284 221 284

C222 284 223 283 224 282

Z

M563 275

C564 271 566 268 566 268

C566 267 564 269 561 272

C555 277 554 280 556 281

C557 283 560 281 563 275

Z

M450 279

C456 276 456 276 453 272

C449 269 449 268 449 264

C449 260 449 259 452 256

C456 252 456 252 454 251

C448 246 437 246 432 251

C430 252 430 252 434 256

C437 259 437 260 437 264

C437 268 437 269 433 272

L430 276

L432 277

C437 280 439 281 443 281

C445 281 449 280 450 279

Z

M577 276

C581 274 585 271 585 271

C584 271 572 273 569 274

C566 275 564 278 565 280

C566 282 570 281 577 276

Z

M71 269

C71 268 72 267 73 267

C73 267 75 268 77 269

C79 271 83 272 83 270

C83 268 78 264 73 263

C65 260 63 258 63 251

C64 246 62 245 58 248

C55 251 55 255 58 260

C59 261 60 264 60 265

C60 267 60 268 63 268

C65 268 67 268 68 269

C70 272 71 271 71 269

Z

M429 266

C431 263 429 261 425 261

C423 261 422 261 422 263

C422 264 422 266 422 267

C423 269 428 268 429 266

Z

M464 264

C464 261 463 260 461 260

C457 260 454 264 457 267

C458 268 460 268 461 268

C463 268 464 267 464 264

Z

M295 262

C295 261 293 258 290 256

C287 253 285 251 285 250

C285 249 286 247 288 245

C290 241 291 236 288 232

C286 226 283 229 286 235

C287 239 287 239 285 243

C280 249 281 252 287 258

C293 264 295 265 295 262

Z

M139 262

C146 260 154 256 162 249

L168 244

L166 240

C165 235 163 232 162 234

C161 235 159 235 158 235

C155 235 154 235 153 239

C151 244 146 252 142 254

C141 256 137 258 134 260

C128 263 128 263 131 263

C132 263 136 263 139 262

Z

M173 262

C172 262 169 261 164 259

C156 257 156 256 153 258

C149 261 150 261 156 262

C162 263 173 263 173 262

Z

M391 261

C392 261 395 261 397 262

C400 262 401 262 403 259

C404 258 405 256 405 255

C405 255 408 252 411 249

C420 242 424 236 423 234

C422 234 419 236 414 239

C400 249 384 256 371 259

C369 259 367 260 367 260

C367 262 369 262 378 262

C383 261 389 261 391 261

Z

M246 258

L249 256

L246 253

C243 251 241 246 242 242

C242 239 246 235 248 234

C252 233 242 227 236 227

C232 227 225 230 224 232

C223 232 225 234 227 236

C229 239 230 240 230 244

C230 248 229 249 227 252

L223 256

L226 258

C230 261 231 261 237 261

C241 260 244 260 246 258

Z

M535 257

C538 256 537 254 534 253

C532 251 530 251 523 252

C519 253 515 254 516 254

C516 255 528 258 531 258

C532 258 534 258 535 257

Z

M20 256

C22 255 25 254 26 253

C27 252 28 251 30 251

C31 251 33 249 36 247

C39 243 40 243 44 243

C48 244 54 243 52 242

C52 241 42 241 39 241

C39 241 36 243 34 245

C30 249 29 249 25 249

C21 248 19 249 23 250

C25 251 23 253 17 254

C11 254 10 255 10 256

C11 256 12 257 14 257

C15 256 18 256 20 256

Z

M554 255

C554 254 553 251 552 247

L550 240

L549 247

C549 251 549 255 549 256

C550 258 553 257 554 255

Z

M545 253

C545 252 544 251 542 249

C538 247 532 244 532 245

C532 245 534 248 537 251

C542 256 544 257 545 253

Z

M141 252

C143 251 145 250 145 249

C145 249 143 246 141 242

L137 236

L132 236

C127 237 126 238 126 244

C126 247 127 248 131 251

C133 253 136 255 136 255

C137 255 139 254 141 252

Z

M561 253

C562 252 568 242 568 241

C568 240 558 248 557 250

C555 252 558 255 561 253

Z

M379 250

C381 247 385 244 386 244

C387 244 387 245 387 246

C387 248 387 249 388 249

C389 251 391 248 391 245

C391 242 391 242 396 242

C401 242 403 241 400 239

C398 237 389 238 384 241

C379 244 375 249 376 252

C377 254 378 253 379 250

Z

M577 248

C580 246 583 243 584 242

C585 241 585 241 583 241

C570 244 565 247 566 250

C567 253 570 252 577 248

Z

M100 248

C100 247 99 246 96 246

C94 246 91 246 89 245

C87 243 87 243 88 242

C89 242 90 241 90 240

C90 239 87 239 87 240

C86 241 79 241 78 240

C78 239 78 238 79 237

C80 237 80 236 80 235

C79 234 75 236 75 238

C75 238 74 239 73 239

C70 239 71 241 74 242

C78 242 84 244 86 246

C92 250 99 251 100 248

Z

M119 247

C121 247 121 242 119 242

C116 240 114 244 116 247

C118 248 117 248 119 247

Z

M222 247

C225 244 222 239 218 240

C216 241 215 242 215 244

C215 245 215 247 216 247

C217 248 221 248 222 247

Z

M257 245

C257 239 250 238 249 243

C249 247 250 248 253 248

C256 248 257 247 257 245

Z

M326 246

C329 245 330 245 335 246

L340 247

L345 244

C351 239 354 239 359 242

C362 243 365 244 367 244

C371 244 377 242 377 239

C377 238 373 237 373 239

C371 241 366 241 361 239

C354 235 351 235 345 240

C340 243 339 243 334 242

C328 241 323 243 322 246

C322 248 322 248 326 246

Z

M30 241

C38 235 49 234 56 238

C62 243 64 243 65 243

C66 242 67 241 67 240

C67 238 63 234 61 234

C60 234 59 233 57 232

C56 230 54 229 52 229

C51 229 49 228 48 228

C46 225 40 226 39 228

C38 229 37 230 36 230

C35 230 33 231 32 232

C30 234 27 235 26 236

C21 237 19 240 21 243

C23 244 25 244 30 241

Z

M177 242

C178 240 177 237 175 237

C174 236 171 238 171 239

C171 240 172 241 172 242

C174 243 175 243 177 242

Z

M98 236

C100 234 98 231 95 230

C93 230 92 229 92 229

C92 226 89 224 87 224

C85 224 84 223 83 223

C81 220 76 221 74 223

C73 224 71 225 69 225

C68 225 67 226 66 227

C65 227 64 228 64 228

C61 228 60 230 61 232

C63 233 66 233 69 231

C70 230 73 230 77 230

C82 230 83 230 87 233

C93 237 95 238 98 236

Z

M401 234

C404 233 405 233 408 234

C411 236 413 236 413 234

C413 233 411 232 408 231

C404 229 404 229 399 230

C396 232 395 233 395 234

C395 235 395 236 396 236

C397 235 399 235 401 234

Z

M454 234

C454 231 450 229 448 231

C446 233 448 236 451 236

C453 236 454 235 454 234

Z

M468 233

C468 231 467 230 465 230

C464 230 463 230 462 231

C461 234 463 236 465 236

C467 236 468 235 468 233

Z

M484 235

C486 235 486 230 485 230

C481 228 478 232 481 235

C483 236 482 236 484 235

Z

M125 232

C125 230 124 229 122 229

C120 229 118 231 119 234

C120 235 121 235 122 235

C124 235 125 234 125 232

Z

M498 232

C500 232 501 227 499 226

C496 224 492 229 495 232

C497 233 496 233 498 232

Z

M139 229

C139 227 138 226 136 226

C134 226 132 228 133 231

C134 232 135 232 136 232

C138 232 139 231 139 229

Z

M171 228

C170 225 167 225 166 227

C165 229 165 229 166 230

C169 232 171 231 171 228

Z

M279 229

C281 227 281 226 280 224

C278 222 276 223 274 226

C273 229 272 230 273 231

C275 233 277 232 279 229

Z

M157 228

C157 226 156 225 154 225

C153 225 152 225 151 226

C150 229 152 231 154 231

C156 231 157 230 157 228

Z

M200 228

C203 226 206 225 212 224

C221 223 229 220 229 219

C229 218 223 218 217 218

C201 218 190 217 179 213

C168 210 168 210 168 211

C168 213 178 220 184 221

C187 223 189 224 190 225

C190 227 194 230 196 230

C196 230 198 229 200 228

Z

M269 227

C269 226 268 225 267 224

C266 223 265 221 265 220

C265 217 269 213 273 213

C275 213 277 211 276 210

C274 209 268 210 266 212

C262 214 261 219 262 224

C264 228 269 230 269 227

Z

M402 226

C404 224 405 224 412 225

C420 225 425 224 427 220

C429 217 426 216 423 219

C419 222 418 222 411 221

C406 220 405 220 401 222

C399 223 397 225 397 226

C397 229 399 228 402 226

Z

M458 227

C458 226 459 226 461 227

C465 227 465 226 462 221

C460 219 458 217 456 217

C451 215 450 217 453 223

C455 228 456 229 458 227

Z

M343 224

C349 221 351 217 352 210

C352 207 352 204 352 204

C351 204 350 206 349 207

C346 213 342 215 335 215

C328 215 324 213 321 207

L319 204

L318 208

C317 221 331 230 343 224

Z

M486 225

C487 225 488 225 489 225

C490 226 491 225 492 223

C494 218 493 214 491 214

C483 214 478 219 481 224

C482 226 483 226 486 225

Z

M29 223

C36 220 36 219 37 218

C37 217 37 217 35 218

C32 219 26 219 24 218

C24 217 23 217 22 217

C22 218 23 219 24 220

C26 222 26 222 25 223

C24 223 21 223 18 223

C14 222 12 223 14 224

C15 226 25 225 29 223

Z

M303 223

C304 222 305 220 305 218

C306 213 302 204 300 207

C299 207 299 209 301 211

C303 217 302 220 298 221

C296 222 293 222 292 222

C290 222 289 222 289 223

C289 225 289 225 295 225

C299 225 302 224 303 223

Z

M447 224

C449 222 447 219 444 219

C442 219 440 221 442 224

C444 225 445 225 447 224

Z

M552 219

C555 216 556 213 554 213

C554 213 550 215 543 221

C541 223 541 223 545 223

C548 223 549 223 552 219

Z

M468 217

C471 211 478 205 485 202

C488 201 490 199 490 199

C490 198 481 199 475 201

C470 203 456 211 456 213

C456 213 457 214 459 215

C461 215 463 217 464 219

C465 221 466 222 466 222

C466 222 467 220 468 217

Z

M536 220

C537 220 540 218 540 217

C542 215 542 215 536 217

C532 217 528 218 527 218

C524 218 524 220 527 221

C530 222 532 222 536 220

Z

M132 218

C137 214 139 209 139 203

L139 199

L136 202

C133 208 129 210 122 210

C115 210 111 208 108 202

C107 201 106 199 105 199

C105 199 105 202 105 205

C106 215 113 221 123 221

C127 220 130 220 132 218

Z

M293 208

C297 201 302 193 303 191

L306 186

L304 184

C300 181 298 182 293 190

C287 200 278 215 278 217

C278 218 283 221 285 221

C285 221 289 215 293 208

Z

M503 218

C504 215 503 214 501 214

C498 214 496 217 498 219

C500 221 503 220 503 218

Z

M563 217

C564 215 565 213 565 212

C565 210 564 210 561 214

C556 219 556 220 559 220

C561 220 562 219 563 217

Z

M61 218

C65 216 63 216 57 216

C50 216 48 217 53 218

C56 219 57 219 61 218

Z

M485 212

C487 212 489 212 489 211

C489 211 487 209 486 208

L482 206

L479 208

C474 211 474 213 476 215

L477 218

L479 216

C480 214 483 213 485 212

Z

M572 217

C574 215 575 214 576 211

C578 201 577 199 573 207

C573 209 571 213 570 214

C567 218 567 219 572 217

Z

M75 216

C76 214 75 211 72 210

C71 209 69 208 68 207

C68 205 66 204 65 204

C63 204 61 203 60 202

C58 199 54 199 51 202

C50 203 48 204 47 204

C45 204 43 205 43 206

C42 207 41 208 40 208

C37 208 34 210 34 211

C34 214 39 214 43 212

C49 210 61 210 64 213

C71 217 73 218 75 216

Z

M219 208

C217 205 212 202 207 202

C203 202 205 205 209 206

C211 206 213 207 213 207

C214 207 215 209 216 211

C219 215 221 214 219 208

Z

M546 211

C556 208 569 201 576 194

C579 190 579 190 577 189

C576 189 575 188 573 187

C570 184 569 186 572 190

L575 192

L569 197

C561 202 551 207 543 209

C540 210 533 210 527 211

C517 211 513 212 519 213

C523 214 540 212 546 211

Z

M196 210

L198 208

L202 210

C205 212 207 213 207 212

C210 209 198 203 191 203

C184 203 177 207 180 209

C181 210 182 209 183 209

C188 205 195 206 192 209

C192 210 191 211 191 212

C191 214 194 213 196 210

Z

M240 208

C241 208 241 207 241 206

C241 205 240 205 237 206

C233 206 232 206 228 202

C221 196 214 194 211 197

C210 199 211 200 215 200

C219 200 220 201 223 204

C228 208 233 210 237 209

C238 209 240 209 240 208

Z

M264 208

C264 206 260 202 256 201

C250 200 246 197 244 194

C242 190 241 182 242 175

C243 172 243 172 241 172

C239 172 238 176 238 185

C238 196 244 203 254 205

C257 205 259 207 260 208

C262 211 264 211 264 208

Z

M339 207

C342 206 345 200 345 197

C344 196 343 197 341 199

C337 203 333 203 329 200

C325 196 324 197 327 202

C329 207 334 209 339 207

Z

M395 205

C400 203 401 201 398 199

C396 198 393 193 393 190

C393 187 396 182 399 180

L401 178

L397 175

C392 172 384 172 379 175

C377 176 375 177 375 178

C375 178 376 180 378 181

C383 186 383 195 377 199

C376 200 375 201 376 202

C377 204 384 207 388 207

C389 207 392 206 395 205

Z

M466 203

L470 201

L467 200

C465 200 459 199 455 199

L446 199

L454 202

C458 204 462 205 462 205

C462 205 464 204 466 203

Z

M126 202

C129 201 132 195 132 192

C131 191 130 192 128 194

C124 198 120 198 116 194

C112 191 111 192 113 196

C115 202 121 204 126 202

Z

M188 197

C188 196 186 195 183 195

C179 194 177 193 172 185

C169 182 164 180 158 181

C154 181 154 181 150 178

C146 174 142 172 139 173

C136 173 137 176 140 176

C142 176 144 177 148 181

C153 185 153 185 158 184

C165 184 167 185 171 191

C173 194 176 197 177 198

C181 199 188 199 188 197

Z

M563 197

C565 194 566 192 565 192

C564 192 562 193 558 195

C555 197 553 198 554 198

C557 200 560 199 563 197

Z

M538 195

C536 192 536 192 538 192

C539 191 539 191 538 190

C537 188 537 186 539 186

C540 186 540 185 540 184

C539 183 539 182 540 182

C541 182 542 182 542 181

C542 180 543 179 544 178

C546 176 546 176 542 175

C537 173 532 172 532 175

C533 176 532 176 530 176

C528 176 528 176 529 179

C529 180 529 181 528 181

C526 181 525 184 527 185

C528 185 528 186 527 186

C526 187 526 188 529 191

C533 195 538 198 539 197

C540 197 539 196 538 195

Z

M338 195

C339 195 340 193 340 193

C340 192 336 183 335 183

C334 183 330 191 330 193

C330 194 333 197 335 197

C336 197 338 196 338 195

Z

M373 192

C375 190 375 189 373 187

C372 186 371 185 370 185

C369 185 366 188 366 190

C366 194 371 195 373 192

Z

M408 193

C409 191 409 188 407 187

C405 185 404 185 402 187

C400 189 400 190 402 192

C403 194 406 194 408 193

Z

M561 191

C562 189 562 189 555 189

C547 189 546 189 548 192

C550 194 559 193 561 191

Z

M93 190

C98 188 104 177 102 172

C102 170 102 170 99 173

C97 177 90 181 85 181

C81 181 74 177 71 173

C70 172 69 170 69 171

C67 172 68 178 70 182

C74 190 83 194 93 190

Z

M125 190

C126 190 127 188 127 188

C127 187 123 178 122 178

C121 178 117 186 117 188

C117 189 120 192 122 192

C123 192 125 191 125 190

Z

M23 188

L26 186

L17 186

C10 186 9 186 10 187

C12 188 17 190 20 190

C20 190 22 189 23 188

Z

M436 186

C437 176 433 168 423 160

C419 157 415 153 413 151

C412 149 410 147 410 147

C406 147 410 155 417 160

C431 171 432 174 432 183

C432 190 432 190 433 190

C434 190 435 189 436 186

Z

M560 185

C561 185 559 184 556 183

C550 182 549 182 551 184

C552 186 558 187 560 185

Z

M30 181

C32 180 37 174 36 174

C34 174 22 181 23 181

C24 182 27 182 30 181

Z

M313 171

C316 167 318 163 318 163

C318 162 304 153 302 153

C299 153 301 156 307 160

C310 162 313 164 313 164

C313 164 311 168 309 172

C305 177 304 179 305 180

C307 181 307 181 313 171

Z

M25 175

C33 171 47 162 47 161

C47 159 45 159 41 163

C39 165 32 168 27 171

C18 175 16 176 10 176

C4 176 1 177 4 178

C8 180 18 178 25 175

Z

M564 177

C565 176 567 173 569 170

C571 164 573 162 577 162

C578 162 579 161 580 158

C583 154 583 154 579 154

C572 154 569 156 566 162

C564 165 562 167 562 168

C561 168 558 168 555 167

C550 166 549 167 551 172

C553 175 555 176 555 174

C555 173 556 172 557 172

C558 172 558 173 558 174

C557 176 557 177 558 177

C559 178 562 178 564 177

Z

M578 176

C579 175 579 175 580 176

C582 177 582 177 583 175

C583 173 583 173 585 174

C586 175 586 175 587 173

C587 172 588 171 589 171

C591 171 590 167 588 162

L586 158

L583 160

C582 161 581 163 581 165

C581 167 580 169 579 171

C575 176 575 177 576 177

C576 177 577 176 578 176

Z

M92 170

C94 168 95 166 95 164

L95 161

L92 164

C88 168 82 168 79 164

L76 161

L76 164

C76 172 86 176 92 170

Z

M183 168

C183 164 184 163 186 161

C189 159 189 158 188 157

C188 156 186 157 184 159

C182 160 178 162 175 164

C172 165 170 167 170 168

C170 169 172 169 175 168

C179 165 180 166 180 169

C180 170 180 172 181 172

C182 174 183 172 183 168

Z

M522 170

C523 170 518 166 511 162

C500 156 498 155 493 154

C489 154 487 154 486 155

C483 157 484 158 488 157

C491 156 498 156 498 158

C498 158 497 159 496 160

C492 161 492 164 495 163

C496 163 500 163 503 163

C507 163 509 163 514 167

C521 171 522 171 522 170

Z

M536 169

C536 168 535 168 534 167

C533 167 527 162 521 157

C515 151 509 147 508 146

C504 144 493 145 492 148

C492 149 493 149 496 148

C501 147 505 148 508 149

C510 150 510 150 507 151

C501 152 502 154 509 154

C515 155 516 156 527 166

C532 170 534 171 536 169

Z

M361 167

C368 164 371 159 371 151

L371 147

L367 151

C361 158 354 160 346 156

C344 155 341 153 340 150

L338 147

L337 151

C336 164 349 172 361 167

Z

M417 167

C417 166 415 164 412 162

C406 158 402 152 400 146

C399 140 396 139 396 144

C396 147 399 154 402 158

C406 164 417 170 417 167

Z

M474 166

C474 164 469 156 465 152

C461 149 451 145 450 147

C448 148 450 149 456 151

C461 153 466 158 469 164

C471 167 473 168 474 166

Z

M141 161

C141 156 138 148 135 144

C133 142 128 139 124 137

C121 135 116 132 114 130

C110 126 107 126 107 128

C107 130 115 136 122 140

C126 142 130 145 132 146

C135 149 137 155 137 160

C137 162 137 164 138 164

C139 166 141 164 141 161

Z

M549 163

C548 160 545 159 546 161

C547 162 547 164 547 164

C547 165 548 165 549 165

C550 165 550 165 549 163

Z

M199 163

C199 163 199 162 200 161

C201 160 201 160 203 161

C204 163 206 163 207 163

C208 162 208 161 205 158

C203 157 201 155 200 155

C199 155 195 162 195 163

C195 164 199 164 199 163

Z

M89 161

C91 159 90 156 88 152

L85 148

L83 151

C81 155 80 160 82 161

C83 162 88 162 89 161

Z

M285 159

C285 159 284 157 282 156

C280 155 279 154 279 154

C279 153 284 145 285 145

C285 145 287 146 290 148

C294 151 297 152 297 150

C297 149 288 142 284 140

C283 140 274 153 274 154

C274 156 283 162 284 161

C285 161 285 160 285 159

Z

M450 155

C450 154 450 154 442 152

C431 149 426 141 428 132

C429 130 429 128 428 128

C426 126 424 130 424 136

C424 142 427 148 432 151

C439 156 450 158 450 155

Z

M394 154

C394 153 393 150 392 147

C390 144 390 141 390 135

C389 128 389 127 388 127

C387 127 387 128 387 136

C387 143 387 146 389 150

C391 155 394 157 394 154

Z

M182 152

C182 151 181 150 180 149

C179 147 177 147 170 147

C160 147 159 148 168 151

C174 153 181 154 182 152

Z

M191 149

C191 147 185 144 179 142

L177 142

L179 145

C180 146 183 149 185 150

C189 153 190 153 191 152

C191 151 192 150 191 149

Z

M199 149

C199 144 197 134 196 136

C195 137 195 147 195 151

C195 152 196 153 197 153

C199 153 199 152 199 149

Z

M423 152

C424 152 423 149 421 147

C419 144 419 143 419 134

C420 125 420 124 418 124

C416 125 415 128 415 136

C415 143 416 148 419 151

C422 153 423 154 423 152

Z

M357 150

C361 148 363 145 363 141

C363 139 363 139 362 140

C360 143 355 145 352 144

C350 144 348 143 347 141

C345 138 344 138 344 142

C345 146 347 149 351 150

C353 151 354 151 357 150

Z

M207 148

C209 146 213 137 212 136

C212 136 210 138 207 141

C203 145 202 146 203 148

C204 150 205 151 207 148

Z

M224 145

C228 143 231 140 231 140

C232 140 228 140 224 141

C215 142 211 144 212 147

C213 150 217 149 224 145

Z

M473 148

C473 147 471 145 469 143

C466 141 463 140 457 140

C449 139 447 138 445 133

C444 132 443 131 443 131

C439 131 443 140 448 142

C449 142 454 143 457 144

C462 144 465 145 467 147

C470 149 473 150 473 148

Z

M240 145

L240 142

L245 144

C252 147 257 147 257 146

C257 144 255 143 251 143

C249 143 239 139 235 136

C231 133 230 134 234 138

C236 140 237 141 237 144

C237 145 237 147 238 147

C239 149 240 148 240 145

Z

M447 146

C447 146 446 144 444 143

C439 141 436 137 436 133

C436 128 433 127 432 132

C431 136 434 141 439 145

C444 148 446 148 447 146

Z

M119 145

C119 144 117 142 114 141

C106 137 103 134 99 128

C96 122 95 121 94 123

C93 127 102 138 110 143

C116 146 119 147 119 145

Z

M43 131

C43 127 43 125 41 126

C39 127 38 133 40 141

L40 145

L42 140

C42 138 43 134 43 131

Z

M409 136

C410 131 410 128 412 126

C414 121 415 119 412 119

C409 120 407 127 406 135

C406 142 406 143 408 143

C409 143 409 141 409 136

Z

M29 137

C32 135 35 133 35 132

C35 129 34 128 32 129

C30 130 22 141 23 141

C23 141 26 139 29 137

Z

M55 135

C50 128 49 127 47 129

C46 130 46 131 47 133

C48 134 58 141 59 141

C59 140 57 138 55 135

Z

M355 139

C359 138 359 135 357 131

C356 128 354 126 354 126

C353 126 349 133 349 135

C349 137 352 140 353 140

C353 140 355 140 355 139

Z

M76 138

C73 136 65 131 63 130

C59 129 56 130 56 131

C56 134 60 136 68 138

C75 139 77 139 76 138

Z

M399 133

C400 125 403 120 407 116

C411 113 412 111 409 111

C407 111 399 119 398 122

C396 127 395 136 396 137

C397 140 399 138 399 133

Z

M94 136

C95 136 93 133 92 130

C88 124 86 120 86 115

C86 111 84 108 83 110

C82 110 82 112 82 114

C82 124 91 141 94 136

Z

M464 135

C464 134 461 133 459 132

C456 131 453 130 452 129

C451 126 449 127 449 129

C449 131 453 135 456 135

C458 135 459 135 460 136

C462 137 464 136 464 135

Z

M24 132

C27 130 27 128 24 127

C21 127 6 131 5 133

C4 135 21 134 24 132

Z

M175 133

C175 132 173 129 170 126

C166 123 163 121 159 120

C152 117 148 117 148 120

C148 121 150 122 154 122

C160 123 165 126 169 131

C172 134 175 135 175 133

Z

M123 128

C123 128 122 126 120 124

C117 121 115 116 115 108

C115 103 115 102 113 102

C111 102 111 102 111 110

C112 119 114 124 119 128

C121 130 123 130 123 128

Z

M210 123

C210 120 210 116 209 115

C208 112 208 112 207 119

C206 127 206 130 209 130

C210 129 210 128 210 123

Z

M149 127

C149 126 147 125 141 125

C130 124 124 119 124 109

C124 105 124 104 122 104

C119 105 119 112 122 118

C125 123 128 125 134 128

C139 129 149 129 149 127

Z

M194 127

C194 126 194 125 192 124

C190 122 188 122 182 122

L175 122

L181 126

C189 129 193 130 194 127

Z

M203 128

C204 125 202 123 197 120

C191 117 190 117 192 120

C197 127 202 131 203 128

Z

M258 124

L268 120

L261 120

C252 120 245 121 243 123

C241 125 241 126 242 127

C244 129 248 128 258 124

Z

M222 121

C223 117 225 114 224 114

C224 114 215 121 214 123

C214 123 214 125 214 126

C216 129 219 126 222 121

Z

M235 123

C239 121 242 120 242 119

C241 119 238 119 234 120

C228 120 226 121 224 123

C219 128 225 128 235 123

Z

M303 124

C309 122 320 115 325 110

L327 107

L325 102

C324 100 323 98 322 98

C322 98 320 98 318 98

C315 98 314 98 312 104

C309 111 301 119 293 123

L288 126

L292 126

C295 126 300 125 303 124

Z

M325 123

L316 120

L312 122

L309 125

L312 125

C314 125 320 126 325 126

L334 126

L325 123

Z

M448 123

C449 122 451 120 452 119

C453 116 453 115 451 111

C449 108 448 106 446 106

C443 106 443 106 447 111

C450 115 450 117 446 120

C443 123 439 123 436 119

C434 117 434 117 432 118

C431 119 427 119 422 117

C421 117 420 117 420 118

C420 121 426 123 430 123

C432 122 434 123 435 123

C438 126 444 126 448 123

Z

M33 124

C33 122 22 114 20 114

C17 114 20 117 25 121

C32 125 33 126 33 124

Z

M381 124

C381 123 383 119 385 115

C389 107 395 101 402 98

C406 97 407 95 405 94

C403 92 392 99 388 103

C381 111 376 125 380 125

C380 125 381 124 381 124

Z

M53 120

C57 118 61 116 62 115

C65 115 66 112 63 112

C62 112 60 113 58 114

L55 115

L55 112

C55 109 55 108 54 108

C52 108 52 109 52 112

C52 116 52 117 49 119

C46 121 45 124 47 124

C47 124 50 122 53 120

Z

M392 122

C393 118 401 109 405 106

C407 105 409 103 409 102

C409 98 398 105 392 114

C390 117 388 121 388 122

C388 124 391 125 392 122

Z

M107 114

C107 109 107 103 107 101

C108 97 107 97 104 101

C101 105 102 123 105 123

C106 123 107 121 107 114

Z

M145 119

C145 118 143 117 140 116

C134 113 133 112 132 108

C131 104 128 103 128 106

C128 112 133 117 140 120

C143 121 145 120 145 119

Z

M96 111

C96 103 98 97 103 94

C105 92 104 91 102 91

C99 91 94 97 93 103

C92 107 92 118 93 119

C95 121 96 119 96 111

Z

M301 116

C303 114 305 112 304 112

C297 100 296 99 292 99

C288 100 287 100 286 103

C284 109 285 110 290 115

C293 117 296 119 296 119

C296 119 298 118 301 116

Z

M493 117

C498 115 499 113 495 110

C490 105 490 95 497 92

L499 91

L497 88

C491 84 483 83 476 87

C472 89 472 91 475 92

C476 93 478 94 478 96

C481 101 480 107 475 111

C474 112 473 113 473 114

C475 116 482 119 486 119

C487 119 490 118 493 117

Z

M170 115

C170 114 168 113 165 112

C162 110 160 110 153 111

C145 111 142 110 141 106

C140 104 137 103 137 106

C137 109 140 112 144 114

C146 115 149 115 155 114

C161 114 163 114 166 116

C168 118 172 117 170 115

Z

M419 115

C419 114 418 112 418 110

C417 108 417 107 418 105

C420 102 420 102 418 100

C414 97 414 93 418 89

C420 87 423 87 427 90

C428 92 430 92 431 92

C432 91 432 90 429 87

C422 82 414 84 412 92

C411 95 411 96 413 100

C413 102 414 105 414 108

C414 110 414 113 415 114

C416 116 419 117 419 115

Z

M568 115

C572 113 575 103 572 101

C571 99 569 102 569 105

C569 110 567 112 564 112

C562 112 559 111 558 110

C556 109 553 109 553 111

C553 112 561 116 564 116

C565 116 567 116 568 115

Z

M542 110

C547 107 545 102 539 105

C536 106 535 109 537 111

C539 112 539 112 542 110

Z

M280 109

C281 106 280 105 278 105

C275 105 273 108 275 110

C277 112 280 111 280 109

Z

M77 102

C80 91 83 87 94 78

C96 77 96 76 95 75

C95 74 93 74 90 76

C84 80 80 85 77 92

C74 97 72 108 73 110

C74 111 76 109 77 102

Z

M86 106

C86 102 91 93 95 88

C100 83 101 81 99 81

C96 81 90 87 87 94

C83 102 82 107 85 107

C85 107 86 107 86 106

Z

M159 105

C159 103 156 102 151 102

C150 102 148 101 147 101

C145 98 144 99 144 101

C144 104 147 105 152 106

C158 107 159 106 159 105

Z

M37 103

C42 100 43 99 41 97

C39 95 39 94 42 92

C44 89 45 85 43 82

C41 79 40 81 40 85

C40 87 39 89 37 91

C35 93 35 94 36 96

C37 98 37 99 33 101

C31 102 30 102 29 100

C26 97 25 96 25 99

C25 101 29 106 30 106

C31 106 34 105 37 103

Z

M337 103

C337 101 336 100 334 100

C332 100 330 102 331 105

C332 106 333 106 334 106

C336 106 337 105 337 103

Z

M471 104

C472 104 473 102 473 102

C473 100 470 97 468 97

C467 97 464 100 464 102

C464 103 467 106 469 106

C469 106 471 105 471 104

Z

M506 105

C508 102 506 98 504 98

C500 96 497 100 500 104

C501 106 504 107 506 105

Z

M562 100

C579 90 586 86 586 84

C586 83 585 81 584 80

L582 78

L574 82

C563 88 547 98 547 99

C547 101 550 106 551 106

C551 106 556 103 562 100

Z

M534 102

C534 101 534 100 533 99

C533 98 534 96 535 94

C538 92 538 92 542 93

C549 95 550 91 543 89

C539 88 535 88 532 92

C530 94 529 99 531 102

C531 104 535 104 534 102

Z

M205 101

C205 100 203 98 201 96

C199 93 197 90 196 88

C195 84 193 83 192 85

C190 86 194 94 198 98

C203 102 203 103 205 101

Z

M222 100

C222 99 219 98 216 97

C211 95 208 92 204 88

C203 85 202 85 201 86

C200 87 200 88 203 91

C206 96 210 98 216 101

C220 102 222 102 222 100

Z

M138 99

C142 97 145 93 145 89

C145 85 139 78 136 79

C135 80 135 80 138 83

C142 88 142 92 137 95

C134 97 131 96 129 94

C128 92 128 92 124 94

C122 96 120 96 118 95

C116 94 115 94 114 96

C112 98 116 99 123 99

C126 98 129 99 131 99

C133 100 135 100 138 99

Z

M386 97

C391 91 397 88 403 88

C406 88 408 87 409 87

C411 83 397 83 392 87

C387 90 380 97 380 99

C380 101 383 100 386 97

Z

M283 97

C285 96 284 92 281 92

C279 93 277 96 279 97

C281 99 281 99 283 97

Z

M244 95

C246 93 246 93 234 93

C226 92 224 92 219 90

C216 88 214 87 214 86

C213 84 210 85 210 86

C210 88 216 93 221 94

C226 96 242 96 244 95

Z

M297 94

C299 93 298 89 295 89

C293 90 291 93 293 94

C295 96 295 96 297 94

Z

M316 94

C317 92 317 91 315 90

C314 88 313 88 312 89

C311 90 310 91 310 91

C310 93 312 95 314 95

C314 95 315 94 316 94

Z

M330 93

C331 92 331 91 330 90

C329 88 327 88 326 90

C324 91 324 92 325 93

C326 95 328 96 330 93

Z

M112 93

C112 92 111 91 110 89

C109 88 109 86 109 83

C110 80 110 79 108 79

C104 78 103 69 108 66

C110 65 110 65 114 67

C118 69 120 69 120 67

C120 65 114 62 110 62

C102 62 98 73 103 79

C104 80 105 83 105 86

C106 90 108 94 111 94

C111 94 112 94 112 93

Z

M375 93

C377 92 380 90 382 88

C384 86 387 83 389 82

C391 81 392 79 392 78

C392 75 387 77 380 85

C374 90 374 90 369 90

C366 90 364 90 364 91

C364 92 364 93 365 93

C366 94 372 94 375 93

Z

M186 85

C186 82 186 81 185 81

C183 81 182 84 183 86

C184 90 186 88 186 85

Z

M254 84

C260 82 263 82 269 82

C276 82 278 82 278 81

C278 80 277 79 272 79

C265 78 260 78 250 82

C242 84 236 85 227 83

C220 81 219 81 219 83

C219 85 221 85 232 87

C237 88 245 87 254 84

Z

M533 85

C533 82 529 79 524 78

C517 76 512 72 511 66

C511 64 511 60 512 56

C513 49 512 46 510 49

C508 51 507 67 509 71

C511 75 516 80 523 82

C526 82 529 84 529 85

C531 88 533 88 533 85

Z

M76 81

C81 72 85 70 95 69

C97 68 97 66 94 65

C90 65 84 67 81 70

C77 74 70 82 70 84

C70 87 74 85 76 81

Z

M360 81

C360 78 361 77 365 80

C368 81 369 81 370 80

C371 79 370 78 366 76

C363 75 359 72 357 71

C354 68 353 68 352 69

C351 70 351 71 354 73

C357 75 357 76 357 79

C357 82 357 84 358 84

C359 86 360 84 360 81

Z

M214 80

C217 78 219 77 219 76

C219 74 217 74 211 77

C204 80 196 80 190 76

C188 74 186 73 186 74

C184 75 185 77 188 79

C195 84 205 84 214 80

Z

M65 79

C66 78 69 75 71 72

C73 69 76 66 77 65

C78 64 79 63 79 61

C78 60 78 60 76 61

C75 62 72 65 70 67

C65 75 62 77 58 78

C54 78 53 79 54 80

C55 82 61 81 65 79

Z

M415 79

C415 77 408 73 404 73

C399 73 394 75 394 76

C395 77 397 77 401 77

C406 77 408 77 410 79

C413 81 415 81 415 79

Z

M246 78

C250 77 256 75 260 75

C266 73 269 72 266 70

C264 70 254 72 244 75

C241 75 235 76 232 76

C225 76 224 77 226 79

C227 81 238 80 246 78

Z

M424 76

C424 75 418 68 415 66

C408 63 390 65 390 69

C390 71 390 71 398 69

C401 68 405 68 409 68

C413 69 414 70 418 74

C421 78 423 78 424 76

Z

M333 73

C339 69 340 68 338 67

C337 66 324 74 324 76

C324 78 326 77 333 73

Z

M453 71

C453 71 455 70 456 70

C457 70 459 69 460 68

C462 66 464 65 466 65

C468 65 469 64 469 63

C469 60 464 59 458 62

C451 65 443 64 437 60

C435 58 432 57 432 57

C429 57 427 58 427 59

C427 61 430 64 432 64

C433 64 434 65 434 65

C434 68 437 70 440 70

C441 70 442 70 442 71

C442 74 450 74 453 71

Z

M221 68

C220 64 216 60 212 57

C209 56 209 56 208 58

C208 59 208 60 210 60

C213 62 217 67 217 69

C217 72 218 73 220 72

C221 71 221 70 221 68

Z

M245 70

C252 68 254 67 252 65

C252 64 249 65 244 66

C241 67 235 69 232 69

C227 69 225 70 225 71

C225 73 225 73 231 73

C235 72 241 71 245 70

Z

M184 69

C183 68 184 67 189 67

C193 67 195 67 197 66

C202 63 205 55 202 55

C201 55 199 56 199 58

C196 64 190 65 181 62

C179 62 179 62 179 64

C179 69 180 71 182 71

C184 71 184 71 184 69

Z

M171 65

C172 64 173 62 174 61

C177 59 176 58 173 58

C170 59 167 63 167 65

C168 68 170 67 171 65

Z

M348 58

C348 47 346 45 345 54

C345 57 345 61 344 62

C344 63 346 66 347 66

C348 65 348 63 348 58

Z

M231 63

C237 61 239 58 233 59

C228 59 223 62 223 63

C223 65 223 65 231 63

Z

M279 60

C282 54 281 51 276 51

C271 51 270 54 273 60

C274 62 275 64 276 64

C277 64 278 62 279 60

Z

M330 63

C333 63 332 60 330 58

C328 57 325 57 319 57

L311 58

L318 61

C326 64 328 64 330 63

Z

M360 58

C363 55 365 52 365 52

C364 52 358 55 355 57

C351 60 351 63 355 64

C356 64 358 61 360 58

Z

M341 60

C341 58 339 57 335 54

C332 52 329 50 329 50

C329 51 333 58 336 61

C338 64 341 63 341 60

Z

M375 59

C382 56 382 55 379 55

C371 54 361 58 362 61

C363 64 368 63 375 59

Z

M86 60

C89 58 94 58 97 59

C101 61 103 59 99 56

C94 53 81 55 81 59

C81 61 82 61 86 60

Z

M193 56

C193 54 192 52 191 50

C189 48 189 48 190 46

C193 43 192 35 189 35

C187 35 184 40 184 43

C185 45 184 45 182 45

C180 44 179 45 182 47

C183 48 183 49 181 50

C177 53 179 54 184 53

C187 52 187 52 189 53

C189 55 190 56 190 57

C190 58 191 59 192 59

C193 59 193 58 193 56

Z

M454 58

C454 57 450 55 447 55

C444 55 440 57 440 58

C441 59 453 59 454 58

Z

M470 56

C473 54 475 54 478 55

C479 56 480 57 480 57

C482 57 481 54 480 53

C476 52 478 51 484 51

C492 51 491 49 483 49

C479 49 477 49 475 50

C474 51 473 52 472 52

C470 52 466 54 466 56

C466 57 466 57 470 56

Z

M110 55

C111 53 104 47 99 46

C94 45 87 45 81 48

C71 52 72 56 82 52

C92 48 101 48 105 54

C108 56 109 57 110 55

Z

M554 53

C555 53 558 53 560 54

C565 54 567 53 568 49

C568 47 571 44 575 41

C581 35 588 28 587 26

C586 26 582 28 578 31

C562 42 550 47 537 50

C534 51 531 52 531 52

C531 54 533 54 542 54

C547 53 553 53 554 53

Z

M135 51

C135 50 134 49 132 49

C131 48 128 47 127 46

C125 45 124 44 123 45

C122 46 122 46 124 48

C126 49 133 53 134 53

C135 53 135 52 135 51

Z

M429 51

C430 50 432 49 434 49

C435 49 436 48 437 48

C437 47 438 46 439 46

C441 46 443 43 443 42

C442 41 437 41 434 43

C430 45 421 44 418 42

C416 41 415 40 415 40

C415 40 414 39 412 38

C409 37 404 37 404 39

C404 41 407 44 409 44

C410 44 411 45 411 45

C411 47 415 50 417 50

C418 50 419 50 420 51

C423 54 427 53 429 51

Z

M269 49

C273 45 279 45 282 48

C284 50 285 51 285 50

C286 49 284 44 282 42

C280 40 274 39 271 41

C269 42 266 47 266 49

C266 52 266 51 269 49

Z

M210 47

C212 46 211 45 209 45

C206 45 203 47 203 48

C203 49 208 48 210 47

Z

M151 46

C152 45 153 44 153 44

C152 42 152 42 146 43

C138 45 131 42 125 36

C122 33 119 31 119 31

C117 31 117 33 121 38

C129 47 141 50 151 46

Z

M464 46

C465 45 467 44 469 43

C470 43 472 41 472 40

C473 39 474 38 476 38

C479 38 484 34 483 32

C482 29 480 30 472 34

C461 39 452 39 444 33

C441 31 437 30 436 33

C436 35 438 39 442 39

C443 40 445 41 446 42

C447 43 449 44 450 44

C451 45 454 45 455 46

C458 49 463 48 464 46

Z

M35 41

C35 38 35 37 38 35

C42 33 43 31 41 31

C40 31 22 40 22 41

C22 42 25 42 30 40

C32 40 32 40 32 43

C32 44 32 46 33 46

C34 48 35 45 35 41

Z

M322 41

C324 37 325 34 323 32

C320 29 315 31 315 35

C315 37 319 45 320 45

C320 45 321 43 322 41

Z

M543 43

C544 41 548 36 550 36

C551 36 551 37 551 39

C550 43 553 42 554 38

C555 34 555 34 560 34

C564 34 565 34 565 33

C565 30 559 29 551 32

C544 34 537 42 540 44

C541 45 542 45 543 43

Z

M272 32

C279 31 289 36 291 41

C292 44 293 43 293 39

C293 24 276 16 265 26

C261 29 259 33 259 38

L259 43

L264 38

C267 35 270 33 272 32

Z

M161 39

L164 37

L161 35

C159 33 154 32 154 34

C154 36 156 42 157 42

C158 42 160 41 161 39

Z

M68 40

C69 39 58 30 56 30

C53 30 56 33 61 37

C67 41 68 42 68 40

Z

M490 39

C492 37 494 37 498 38

C503 39 504 39 507 37

C516 31 516 31 523 34

C527 37 532 37 537 35

C544 31 540 29 533 32

C531 33 530 33 524 31

C517 27 514 28 508 32

C504 35 503 35 497 34

C490 34 489 34 487 36

C486 37 485 38 485 39

C486 40 486 40 490 39

Z

M427 37

C428 36 429 35 430 35

C433 34 432 32 430 32

C427 32 421 30 419 29

C412 25 409 24 407 24

C403 25 402 27 406 27

C408 27 411 28 413 29

C416 30 416 30 414 31

C412 34 414 35 417 33

C420 32 421 32 423 33

C425 34 426 36 424 36

C423 36 423 37 423 38

C423 40 425 39 427 37

Z

M236 36

C238 35 241 33 242 33

C244 31 244 31 241 28

C235 23 235 15 241 10

C244 8 244 8 242 6

C235 1 227 1 220 6

C218 8 218 8 221 11

C225 14 225 15 225 20

C225 24 225 25 222 28

C218 31 218 31 220 33

C222 34 229 37 231 37

C232 37 234 36 236 36

Z

M166 27

C166 20 165 18 161 20

C159 20 154 26 154 28

C154 28 156 29 158 30

C160 30 162 32 163 32

C165 35 166 33 166 27

Z

M466 31

C467 30 469 29 470 27

C472 25 473 25 477 25

C482 26 483 25 480 23

C478 22 480 21 487 20

C493 19 494 18 490 17

C486 17 479 19 478 20

C477 21 475 22 473 23

C472 23 469 25 467 27

C463 31 463 31 458 30

C453 30 449 30 450 32

C451 33 463 33 466 31

Z

M320 26

C322 26 324 27 326 29

L329 32

L329 29

C329 24 324 20 320 20

C315 20 310 24 310 29

L310 32

L313 29

C315 27 317 26 320 26

Z

M49 25

C49 21 48 11 47 13

C46 15 44 26 45 27

C46 29 48 28 49 25

Z

M75 25

L84 23

L80 22

C70 20 62 22 62 25

C62 29 65 29 75 25

Z

M445 26

C448 23 448 18 445 14

C444 12 443 10 444 8

C444 6 444 6 441 6

C439 6 437 5 436 5

C434 2 432 3 432 5

C433 7 430 7 427 5

C425 4 423 3 422 3

C420 4 420 4 423 7

C424 8 428 10 430 11

C433 12 436 13 437 15

C440 17 440 18 440 22

C439 29 440 30 445 26

Z

M563 26

C567 25 567 25 571 26

C575 28 576 28 576 27

C576 25 570 22 567 22

C564 22 558 25 558 26

C558 27 559 28 560 28

C560 28 562 27 563 26

Z

M117 22

C115 17 117 10 123 7

C126 5 128 3 126 2

C123 2 117 6 115 9

C112 15 113 29 117 26

C118 25 118 24 117 22

Z

M41 24

C42 22 38 18 32 15

L29 13

L30 16

C31 17 33 20 35 22

C37 26 40 27 41 24

Z

M62 20

C64 17 66 14 65 14

C65 14 62 15 59 17

C54 20 53 22 53 24

C53 28 57 26 62 20

Z

M30 24

C33 24 32 21 30 19

C27 18 13 14 12 15

C12 16 24 24 26 24

C28 25 29 25 30 24

Z

M216 23

C220 20 216 13 212 16

C210 17 209 21 211 23

C213 24 214 24 216 23

Z

M251 23

C253 21 252 17 250 16

C246 13 242 20 246 23

C248 24 249 24 251 23

Z

M311 15

C318 10 330 13 334 20

C335 23 335 23 336 21

C338 16 333 7 327 3

C320 0 309 3 305 9

C303 13 302 19 302 22

C303 23 303 23 305 20

C306 19 309 16 311 15

Z

M565 18

C568 16 570 16 577 17

C584 17 585 17 588 15

C591 12 592 9 590 9

C589 9 587 10 586 12

C583 14 582 14 578 13

C570 12 567 12 563 15

C560 17 559 20 561 20

C562 20 563 19 565 18

Z

M385 591

C387 590 389 589 390 589

C391 589 392 589 391 591

C391 593 390 593 387 593

L383 593

L385 591

Z

"/>

</svg>

