<?xml version="1.0" standalone="no"?>

<!DOCTYPE svg PUBLIC "-//W3C//DTD SVG 20010904//EN"

 "http://www.w3.org/TR/2001/REC-SVG-20010904/DTD/svg10.dtd">

<svg version="1.0" xmlns="http://www.w3.org/2000/svg"

 width="588.000000pt" height="586.000000pt" viewBox="0 0 588.000000 586.000000"

 preserveAspectRatio="xMidYMid meet">

<path fill="#f1f2f3" stroke="none" d="
M0 293

L0 0

L294 0

L588 0

L588 293

L588 586

L294 586

L0 586

L0 293

Z

"/>

<path fill="#1d3f5f" stroke="none" d="
M0 502

L0 418

L7 421

C13 424 15 424 22 424

C27 424 31 424 34 422

L38 420

L31 418

C23 415 22 415 25 412

C26 410 27 409 27 409

C27 408 14 411 2 414

C0 414 0 414 0 405

L0 397

L10 396

C21 396 25 395 33 388

C37 384 37 384 39 385

C42 389 47 387 47 383

C47 378 41 376 38 380

C37 381 34 382 30 382

C27 383 24 383 23 384

C22 384 22 384 23 380

L23 376

L21 378

C19 379 14 383 9 387

L0 395

L0 382

C0 372 0 369 2 368

C3 366 3 363 2 361

C0 360 0 354 0 317

L0 275

L3 275

C4 275 8 275 10 274

L15 274

L14 277

C13 280 13 281 13 281

C13 282 19 278 26 272

C40 262 40 261 26 262

C17 262 11 263 4 269

L0 272

L0 228

L0 184

L3 185

C7 185 9 184 9 181

C9 177 7 176 3 176

L0 177

L0 171

C0 166 0 165 2 166

C4 166 8 164 8 161

C8 159 4 156 2 157

C0 157 0 156 0 117

C0 86 0 78 1 79

C3 80 6 80 8 79

C11 75 6 69 2 71

C0 72 0 72 0 66

C0 59 0 59 2 59

C6 59 8 56 6 52

C5 51 3 50 2 50

C0 50 0 49 0 25

L0 0

L32 0

C59 0 64 0 65 2

C67 3 70 3 72 2

C73 0 77 0 91 0

C108 0 108 0 111 2

C113 6 114 6 118 3

L120 0

L150 0

L180 0

L180 3

C180 5 181 6 182 7

C186 9 189 7 189 3

L189 0

L246 0

C296 0 302 0 305 2

C307 3 307 3 309 2

C312 0 317 0 349 0

C372 0 386 0 387 1

C387 2 393 2 394 1

C394 0 407 0 430 0

C462 0 465 0 464 2

C461 4 462 8 465 9

C467 10 468 10 469 9

C472 7 471 2 469 1

C468 0 476 0 497 0

C525 0 527 0 528 2

C529 5 534 5 535 2

C537 -1 539 -1 542 2

C544 4 548 4 549 1

C549 1 550 0 551 0

C553 0 554 0 553 3

C553 6 555 8 558 8

C561 8 562 7 562 3

L562 0

L575 0

L588 0

L588 25

C588 46 588 50 587 52

C585 54 585 56 587 58

C588 59 588 66 588 108

C588 145 588 158 587 159

C586 161 586 161 587 163

C588 164 588 169 588 177

C588 188 588 188 586 187

C584 186 583 186 581 187

C577 190 580 197 585 196

L588 195

L588 278

C588 356 588 360 586 360

C584 360 582 362 582 365

C582 367 584 369 586 369

C588 369 588 371 588 392

C588 412 588 414 586 414

C585 414 585 414 586 416

C588 417 588 420 588 431

L588 444

L585 443

C582 443 580 444 580 448

C580 451 583 453 586 452

C588 452 588 453 588 519

L588 586

L569 586

L550 586

L549 583

C546 578 540 579 540 584

C540 587 537 586 535 584

C535 582 534 582 532 582

C529 582 528 582 528 584

L527 586

L460 586

C403 586 394 586 395 585

C396 582 393 579 390 579

C387 579 384 582 385 585

C386 586 380 586 349 586

C313 586 311 586 312 584

C312 582 309 579 306 579

C304 580 303 581 302 583

L302 586

L244 586

C212 585 186 585 185 585

C183 585 168 585 151 586

L119 586

L118 584

C117 580 113 580 110 583

C109 586 109 586 97 586

L85 586

L86 583

C87 581 87 581 85 579

C84 577 82 577 81 577

C78 578 76 582 78 585

C79 586 79 586 76 586

C74 586 73 586 73 584

C73 582 71 580 69 580

C66 580 64 582 64 584

C64 586 62 586 32 586

L0 586

L0 502

Z

M178 583

C179 582 180 581 180 580

C180 578 177 575 175 575

C173 575 170 578 170 580

C170 582 173 585 175 585

C175 585 177 584 178 583

Z

M427 584

C428 584 428 582 428 581

C428 578 427 576 423 576

C421 576 419 578 419 581

C419 584 423 586 427 584

Z

M441 584

C443 582 442 578 440 577

C436 574 431 579 434 583

C435 585 439 586 441 584

Z

M245 582

C247 578 243 574 239 575

C236 576 236 581 237 583

C239 585 244 584 245 582

Z

M407 583

C410 580 407 575 403 575

C400 575 397 579 399 582

C400 584 405 585 407 583

Z

M297 581

C300 580 300 577 297 575

C294 572 290 573 289 577

C289 579 289 580 291 581

C294 583 294 583 297 581

Z

M475 582

C477 580 476 575 474 574

C470 572 467 574 467 578

C467 581 469 583 472 583

C473 583 474 582 475 582

Z

M60 580

C65 576 58 569 54 574

C51 576 51 577 54 580

C57 583 58 583 60 580

Z

M126 576

C128 572 121 568 118 571

C116 573 117 577 119 578

C122 580 125 579 126 576

Z

M498 578

C500 576 500 574 498 572

C496 570 494 570 492 572

C490 574 490 576 492 578

C494 580 496 580 498 578

Z

M259 574

C263 571 265 570 265 571

C266 572 266 574 267 575

C268 578 268 577 274 565

C277 558 280 551 280 551

C280 549 277 550 271 552

C262 557 254 566 252 575

C252 577 251 579 252 579

C252 579 255 577 259 574

Z

M321 578

C321 577 322 575 322 574

C322 569 314 569 313 574

C313 578 318 581 321 578

Z

M384 575

C388 572 386 568 381 568

C378 568 376 570 376 572

C376 574 379 577 381 577

C382 577 384 576 384 575

Z

M532 575

C535 572 535 571 532 569

C529 566 525 567 524 571

C524 573 524 574 526 575

C529 577 530 577 532 575

Z

M417 575

C420 571 417 565 412 567

C407 569 408 576 414 576

C415 576 416 575 417 575

Z

M452 574

C454 570 450 566 446 567

C443 568 443 573 444 575

C446 577 451 576 452 574

Z

M486 574

C486 573 487 572 487 571

C487 569 486 568 486 567

C485 567 484 566 483 566

C481 566 480 567 479 567

C479 568 478 569 478 571

C478 572 479 573 479 574

C480 574 481 575 483 575

C484 575 485 574 486 574

Z

M39 573

C42 572 45 571 45 571

C45 571 22 555 20 554

C19 554 19 555 20 556

C22 562 22 562 13 561

L5 561

L7 563

C10 567 17 571 22 572

C29 574 32 574 39 573

Z

M237 570

C237 567 236 565 233 564

C228 563 226 570 230 572

C233 574 236 573 237 570

Z

M175 569

C176 568 177 567 177 566

C177 564 174 561 172 561

C170 561 167 564 167 566

C167 568 170 571 172 571

C172 571 174 570 175 569

Z

M569 569

C571 568 571 568 568 566

L565 564

L571 560

C575 557 578 555 578 555

C578 554 573 554 566 554

C558 554 547 561 542 568

L540 571

L553 570

C561 570 568 569 569 569

Z

M194 568

C195 566 195 565 194 563

C191 559 185 561 185 566

C185 568 187 570 190 570

C192 570 193 569 194 568

Z

M507 568

C509 567 510 563 508 561

C506 559 502 560 501 562

C499 565 499 566 501 568

C503 570 504 570 507 568

Z

M57 567

C58 564 58 564 57 562

C55 559 52 558 50 561

C48 563 48 565 50 567

C52 570 55 569 57 567

Z

M297 567

C300 565 299 563 297 561

C293 557 287 562 290 567

C292 569 295 570 297 567

Z

M522 567

C523 564 523 564 522 562

C520 559 517 558 515 561

C512 564 514 569 518 569

C519 569 521 568 522 567

Z

M131 565

C134 562 132 558 128 558

C125 558 123 560 123 563

C123 567 128 569 131 565

Z

M224 565

C227 563 226 560 224 558

C221 557 221 557 219 558

C216 560 215 563 218 565

C220 567 222 567 224 565

Z

M329 566

C332 562 327 556 323 558

C321 559 320 562 322 565

C323 567 327 568 329 566

Z

M391 563

C391 562 392 561 392 560

C392 558 391 557 391 556

C390 556 389 555 388 555

C386 555 385 556 384 556

C383 557 383 562 384 563

C385 564 390 564 391 563

Z

M452 561

C455 558 453 553 449 553

C448 553 446 554 445 556

C444 558 444 558 445 561

C447 563 450 564 452 561

Z

M211 560

C214 557 212 552 208 552

C206 552 203 555 203 557

C203 559 207 562 208 562

C209 562 211 561 211 560

Z

M539 555

C554 546 555 545 550 545

C548 545 546 545 546 544

C545 544 547 541 549 537

C551 534 552 531 552 530

C551 529 545 532 540 535

C536 539 532 543 530 549

C528 553 526 562 527 562

C527 562 532 559 539 555

Z

M465 557

C468 555 467 552 465 551

C464 550 462 549 462 549

C460 549 457 553 457 554

C457 556 460 559 462 559

C463 559 465 558 465 557

Z

M180 555

C183 552 181 547 177 547

C175 547 172 550 172 552

C172 554 176 557 177 557

C178 557 180 556 180 555

Z

M303 555

C304 554 305 553 305 552

C305 550 302 547 300 547

C298 547 295 550 295 552

C295 554 298 557 300 557

C300 557 302 556 303 555

Z

M63 554

C64 551 64 551 63 549

C59 545 54 547 54 552

C54 556 61 558 63 554

Z

M139 554

C142 552 141 549 139 547

C134 544 129 550 133 554

C135 556 137 557 139 554

Z

M200 553

C203 550 200 545 197 545

C195 545 194 546 193 546

C192 547 192 552 193 553

C194 554 199 554 200 553

Z

M400 552

C403 550 402 548 400 546

C396 542 390 547 393 552

C395 554 398 555 400 552

Z

M332 551

C334 548 332 544 328 544

C326 544 325 545 324 546

C322 550 324 553 328 553

C330 553 331 552 332 551

Z

M357 550

C359 549 359 548 359 546

C358 542 354 541 351 544

C348 546 348 547 351 550

C353 552 354 552 357 550

Z

M274 531

C272 530 261 529 256 530

C248 532 239 537 236 542

C235 544 235 544 237 544

C238 543 242 543 245 543

L251 542

L250 546

L250 550

L262 541

C269 536 274 532 274 531

Z

M51 547

C53 544 52 541 50 540

C46 538 41 544 44 548

C46 550 50 549 51 547

Z

M292 548

C294 546 293 542 291 541

C290 540 288 540 287 540

C281 542 283 549 288 549

C289 549 291 548 292 548

Z

M345 547

C347 544 345 540 341 540

C339 540 338 541 337 542

C335 546 337 549 341 549

C343 549 344 548 345 547

Z

M124 546

C127 542 122 537 118 540

C116 541 115 545 117 547

C119 549 123 548 124 546

Z

M413 546

C414 545 415 544 415 543

C415 541 412 538 410 538

C408 538 405 541 405 543

C405 545 408 548 410 548

C410 548 412 547 413 546

Z

M148 545

C151 543 151 538 148 537

C144 535 141 537 141 541

C141 545 144 547 148 545

Z

M163 544

C164 541 164 541 163 539

C161 536 158 535 156 538

C153 541 155 546 159 546

C160 546 162 545 163 544

Z

M188 545

C191 543 191 538 188 537

C184 535 181 537 181 541

C181 545 184 547 188 545

Z

M370 544

C372 542 372 540 370 538

C368 536 366 536 364 538

C362 540 362 542 364 544

C366 546 368 546 370 544

Z

M470 545

C471 543 471 540 470 538

C468 536 464 537 462 540

C460 544 466 548 470 545

Z

M87 543

C89 543 90 538 88 536

C85 533 80 536 80 540

C80 543 83 545 87 543

Z

M101 539

C103 536 103 533 100 532

C96 530 91 536 94 540

C96 542 100 541 101 539

Z

M44 536

C46 534 45 530 43 529

C42 528 40 528 39 528

C33 530 35 537 40 537

C41 537 43 536 44 536

Z

M138 535

C141 532 140 528 136 527

C134 527 133 527 132 529

C130 532 130 533 132 535

C135 538 136 538 138 535

Z

M288 534

C292 531 289 527 285 527

C281 528 279 530 281 533

C282 536 286 537 288 534

Z

M79 531

C81 527 79 525 75 525

C71 525 69 529 72 532

C74 535 78 534 79 531

Z

M414 533

C414 532 415 531 415 530

C415 528 414 527 414 526

C413 526 412 525 411 525

C409 525 408 526 407 526

C407 527 406 528 406 530

C406 531 407 532 407 533

C408 533 409 534 411 534

C412 534 413 533 414 533

Z

M188 531

C190 527 188 523 185 523

C183 523 182 524 181 524

C179 526 180 531 182 532

C184 533 187 532 188 531

Z

M378 531

C381 529 380 526 378 525

C377 524 375 523 375 523

C373 523 370 527 370 528

C370 530 373 533 375 533

C376 533 378 532 378 531

Z

M466 532

C469 528 466 522 461 524

C456 526 457 533 463 533

C464 533 465 532 466 532

Z

M111 531

C113 529 112 524 110 523

C107 522 107 522 105 523

C101 527 103 532 108 532

C109 532 110 531 111 531

Z

M360 529

C362 526 361 523 358 522

C354 522 352 524 352 526

C352 531 358 533 360 529

Z

M126 528

C128 523 124 519 119 522

C117 523 116 527 118 529

C120 531 124 530 126 528

Z

M65 526

C67 524 67 522 65 520

C63 517 60 518 58 521

C57 523 57 523 58 526

C60 528 63 529 65 526

Z

M51 524

C52 524 53 522 53 521

C53 519 50 516 48 516

C46 516 43 519 43 521

C43 522 46 526 48 526

C48 526 50 525 51 524

Z

M560 525

C563 521 558 515 554 517

C551 518 551 521 553 524

C554 526 558 527 560 525

Z

M293 523

C296 521 295 516 293 515

C290 513 286 515 286 519

C286 523 290 525 293 523

Z

M457 521

C460 518 459 514 455 513

C453 513 452 513 451 515

C449 518 449 519 451 521

C454 524 455 524 457 521

Z

M264 521

C264 520 265 519 265 518

C265 516 264 515 264 514

C263 514 262 513 261 513

C259 513 258 514 257 514

C257 515 256 516 256 518

C256 519 257 520 257 521

C258 521 259 522 261 522

C262 522 263 521 264 521

Z

M408 520

C410 517 409 514 406 513

C402 513 400 515 400 517

C400 522 406 524 408 520

Z

M545 521

C547 520 548 515 545 513

C543 511 539 513 538 516

C538 519 540 522 542 522

C543 522 544 522 545 521

Z

M574 520

C576 517 575 514 572 513

C568 511 564 517 567 521

C569 523 573 522 574 520

Z

M189 520

C192 518 191 513 189 512

C186 510 182 512 182 516

C182 520 186 522 189 520

Z

M249 519

C252 517 251 513 248 512

C245 511 245 511 243 513

C241 516 241 517 243 519

C245 521 246 521 249 519

Z

M382 518

C384 516 384 514 382 512

C380 510 378 510 376 512

C374 514 373 516 376 518

C378 520 380 520 382 518

Z

M307 518

C309 516 308 511 306 510

C302 508 299 510 299 514

C299 517 301 519 304 519

C305 519 306 518 307 518

Z

M204 517

C207 514 204 509 201 509

C198 509 196 511 196 514

C196 516 198 518 201 518

C202 518 203 517 204 517

Z

M502 513

C503 508 496 506 494 510

C492 513 492 516 495 517

C498 518 501 516 502 513

Z

M10 516

C12 516 13 511 11 509

C8 506 3 509 3 513

C3 516 6 518 10 516

Z

M487 515

C489 512 487 508 483 508

C481 508 480 509 479 510

C477 514 479 517 483 517

C485 517 486 516 487 515

Z

M369 515

C369 514 370 513 370 512

C370 510 369 509 369 508

C368 508 367 507 366 507

C364 507 363 508 362 508

C362 509 361 510 361 512

C361 513 362 514 362 515

C363 515 364 516 366 516

C367 516 368 515 369 515

Z

M176 513

C179 510 179 509 176 507

C173 504 169 505 168 509

C168 511 168 512 170 513

C173 515 174 515 176 513

Z

M236 513

C238 511 238 509 236 507

C234 505 232 505 230 507

C228 509 228 511 230 513

C232 515 234 516 236 513

Z

M585 514

C588 512 588 507 585 506

C581 504 578 506 578 510

C578 514 581 516 585 514

Z

M428 512

C430 508 426 504 422 505

C419 506 419 511 420 513

C422 515 427 514 428 512

Z

M514 512

C519 508 512 501 508 506

C505 508 505 511 508 512

C511 514 512 514 514 512

Z

M56 511

C59 506 53 501 49 505

C47 507 46 509 49 511

C51 514 54 513 56 511

Z

M393 512

C397 510 394 502 389 503

C386 505 385 508 386 511

C388 513 390 514 393 512

Z

M448 512

C449 510 449 507 448 505

C445 503 441 504 440 507

C438 511 444 515 448 512

Z

M69 510

C71 507 70 505 68 503

C65 502 62 503 60 506

C59 511 67 514 69 510

Z

M137 510

C139 509 139 509 132 506

C129 504 125 502 125 502

C125 502 126 501 128 499

C129 497 130 496 129 496

C126 496 101 499 100 500

C98 501 108 508 114 510

C120 512 133 512 137 510

Z

M356 510

C357 509 357 507 357 505

C356 500 348 501 348 506

C348 511 353 513 356 510

Z

M538 510

C540 508 539 503 537 502

C534 501 533 501 532 503

C528 506 530 511 535 511

C536 511 537 510 538 510

Z

M271 508

C274 505 272 501 268 501

C265 501 263 503 263 506

C263 510 268 512 271 508

Z

M213 507

C216 505 215 503 213 501

C209 497 203 502 206 507

C208 509 211 510 213 507

Z

M410 506

C414 503 412 499 407 499

C404 499 402 501 402 504

C402 506 405 508 407 508

C408 508 410 507 410 506

Z

M562 507

C562 506 563 505 563 504

C563 502 562 501 562 500

C561 500 560 499 559 499

C557 499 556 500 555 500

C555 501 554 502 554 504

C554 505 555 506 555 507

C556 507 557 508 559 508

C560 508 561 507 562 507

Z

M152 505

C156 502 152 496 147 497

C144 499 143 503 146 505

C147 506 149 507 149 507

C149 507 151 506 152 505

Z

M43 504

C45 502 45 500 43 498

C41 496 39 496 37 498

C35 500 34 502 37 504

C39 506 41 506 43 504

Z

M165 504

C168 502 167 500 165 498

C161 494 155 499 158 504

C160 506 163 507 165 504

Z

M307 504

C310 501 310 500 307 498

C304 495 300 496 299 500

C299 502 299 503 301 504

C304 506 305 506 307 504

Z

M226 503

C229 501 228 498 226 496

C221 493 216 499 220 503

C222 505 224 506 226 503

Z

M526 504

C526 503 527 502 527 501

C527 499 526 498 526 497

C525 497 524 496 523 496

C521 496 520 497 519 497

C518 499 518 504 519 504

C522 505 525 505 526 504

Z

M344 502

C348 498 343 492 338 495

C336 497 335 500 338 502

C340 505 342 504 344 502

Z

M481 503

C482 501 482 498 481 496

C478 494 474 495 473 498

C471 502 477 506 481 503

Z

M89 502

C91 500 90 495 88 494

C87 493 86 493 85 493

C83 493 81 496 81 499

C81 502 86 504 89 502

Z

M190 501

C192 499 192 497 190 495

C188 493 186 493 184 495

C182 497 182 499 184 501

C186 503 188 503 190 501

Z

M579 501

C581 498 579 494 575 494

C573 494 572 495 571 496

C569 500 571 503 575 503

C577 503 578 502 579 501

Z

M439 500

C442 498 441 495 439 493

C436 492 436 492 434 493

C432 494 431 496 431 497

C431 499 434 502 436 502

C437 502 439 501 439 500

Z

M75 499

C77 498 77 497 77 495

C76 491 72 490 69 493

C66 495 66 496 69 499

C71 501 72 501 75 499

Z

M263 497

C266 495 265 491 261 490

C257 488 253 494 257 497

C259 500 261 499 263 497

Z

M289 495

C288 493 288 491 288 491

C288 490 292 490 296 490

L304 490

L301 487

C300 485 296 483 293 481

C288 479 286 479 279 479

C273 479 268 479 266 480

L263 482

L276 490

C284 494 290 498 290 497

C290 497 290 496 289 495

Z

M319 495

C321 492 319 490 315 489

C313 489 312 489 311 491

C309 495 311 498 315 498

C317 498 318 497 319 495

Z

M333 496

C334 495 334 493 333 492

C333 490 328 488 326 490

C324 491 323 495 325 497

C327 499 332 498 333 496

Z

M421 496

C422 494 422 491 421 489

C420 488 418 488 416 488

C411 489 412 497 417 497

C419 497 420 496 421 496

Z

M36 492

C38 488 36 486 32 486

C28 486 26 490 29 493

C31 496 35 495 36 492

Z

M100 493

C102 490 102 489 100 487

C98 485 96 484 94 487

C91 490 93 495 97 495

C98 495 100 494 100 493

Z

M175 494

C176 492 176 489 175 487

C171 484 165 488 167 493

C168 495 173 496 175 494

Z

M491 492

C492 490 492 490 491 487

C489 483 482 485 482 490

C482 494 487 496 491 492

Z

M395 486

L390 479

L394 478

L398 476

L384 470

C377 467 370 464 370 464

C368 464 370 467 373 474

C377 483 385 490 395 492

C397 492 399 493 399 492

C399 492 397 489 395 486

Z

M252 491

C254 489 253 484 251 483

C247 481 244 483 244 487

C244 490 246 492 249 492

C250 492 251 491 252 491

Z

M572 489

C575 486 575 485 572 483

C569 480 565 481 564 485

C564 487 564 488 566 489

C569 491 570 491 572 489

Z

M432 488

C435 486 434 483 432 481

C427 478 422 484 426 488

C428 490 430 491 432 488

Z

M502 487

C504 485 504 483 502 481

C500 479 498 479 496 481

C494 483 494 485 496 487

C498 489 500 489 502 487

Z

M132 483

C137 481 140 480 144 476

L150 471

L141 472

L133 472

L133 469

C134 467 134 465 134 465

C133 465 109 482 109 483

C110 483 118 485 122 485

C124 485 129 484 132 483

Z

M182 482

C185 480 184 478 182 475

C178 472 172 478 176 482

C178 484 180 485 182 482

Z

M29 482

C32 479 30 474 26 474

C23 474 21 475 21 479

C21 481 23 483 26 483

C27 483 28 482 29 482

Z

M103 481

C106 479 106 474 103 473

C99 471 96 473 96 477

C96 481 99 483 103 481

Z

M474 475

C483 471 486 469 485 468

C483 466 473 464 466 464

C460 464 452 466 447 470

C445 472 445 472 453 473

C457 474 461 474 461 474

C461 475 461 476 460 477

C457 482 456 482 474 475

Z

M258 477

C259 475 259 474 258 472

C257 470 256 470 254 470

C250 471 248 475 250 477

C252 480 257 479 258 477

Z

M568 476

C569 476 570 474 570 473

C570 471 567 468 565 468

C563 468 560 471 560 473

C560 474 563 478 565 478

C565 478 567 477 568 476

Z

M437 475

C439 472 437 468 433 468

C431 468 430 469 429 470

C427 474 429 477 433 477

C435 477 436 476 437 475

Z

M498 474

C502 471 500 466 496 466

C489 466 490 476 496 476

C496 476 498 475 498 474

Z

M20 470

C23 467 21 463 17 463

C14 463 12 465 12 468

C12 472 17 474 20 470

Z

M189 469

C190 466 190 466 189 464

C185 460 180 462 180 467

C180 471 187 473 189 469

Z

M97 468

C99 467 99 466 99 464

C98 460 94 459 91 462

C88 464 88 465 91 468

C93 470 94 470 97 468

Z

M347 467

C350 464 350 463 347 461

C344 458 340 459 339 463

C339 465 339 466 341 467

C344 469 345 469 347 467

Z

M252 465

C254 464 254 463 254 461

C253 457 248 456 246 459

C244 462 244 463 246 465

C248 467 249 467 252 465

Z

M289 464

C287 463 286 461 286 461

C286 460 289 459 292 457

C295 455 298 454 298 453

C299 453 296 452 293 451

C282 449 271 453 263 461

C260 465 260 465 262 465

C276 466 289 467 290 467

C291 467 290 466 289 464

Z

M361 466

C361 465 362 464 362 463

C362 461 361 460 361 459

C360 459 359 458 358 458

C356 458 355 459 354 459

C354 460 353 461 353 463

C353 464 354 465 354 466

C355 466 356 467 358 467

C359 467 360 466 361 466

Z

M325 465

C327 463 326 458 324 457

C319 455 315 461 318 465

C320 466 323 466 325 465

Z

M564 463

C566 460 564 456 560 456

C557 456 555 458 555 461

C555 463 557 465 560 465

C562 465 563 464 564 463

Z

M35 462

C38 459 38 458 35 456

C31 451 24 458 29 462

C31 465 32 465 35 462

Z

M416 463

L420 462

L413 458

C410 456 406 455 406 454

C406 454 407 453 409 451

L412 448

L408 448

C405 449 400 449 396 449

C391 450 386 450 384 451

C380 451 380 451 382 453

C384 456 391 460 396 462

C400 464 411 464 416 463

Z

M505 462

C508 461 508 458 505 456

C502 453 498 454 497 458

C497 460 497 461 499 462

C502 464 502 464 505 462

Z

M227 461

C229 459 229 457 227 455

C225 452 222 453 220 456

C219 458 219 458 220 461

C222 463 225 464 227 461

Z

M531 462

C534 459 531 454 527 454

C524 454 521 458 523 461

C524 463 529 464 531 462

Z

M11 461

C12 459 12 454 9 453

C5 452 1 456 3 460

C4 462 9 463 11 461

Z

M109 460

C110 458 110 458 109 455

C107 452 104 451 102 454

C100 456 99 458 102 460

C104 463 106 462 109 460

Z

M195 458

C197 455 196 452 194 451

C190 449 185 455 188 459

C190 461 194 460 195 458

Z

M242 456

C242 452 240 450 238 450

C233 450 231 456 235 458

C238 460 241 459 242 456

Z

M313 459

C315 457 314 452 312 451

C309 450 308 450 307 452

C303 455 305 460 310 460

C311 460 312 459 313 459

Z

M336 459

C338 458 339 454 336 452

C333 449 329 451 329 455

C329 459 332 461 336 459

Z

M71 457

C73 455 73 454 71 451

C70 449 69 449 67 449

C63 450 62 455 65 457

C68 459 69 459 71 457

Z

M371 457

C374 453 370 447 365 449

C363 450 362 455 364 457

C366 458 369 458 371 457

Z

M518 457

C518 456 519 455 519 454

C519 452 518 451 518 450

C517 450 516 449 515 449

C513 449 512 450 511 450

C511 451 510 452 510 454

C510 455 511 456 511 457

C512 457 513 458 515 458

C516 458 517 457 518 457

Z

M492 455

C488 449 482 444 477 442

C471 439 469 439 463 439

L456 439

L458 441

C460 443 462 445 465 447

L469 450

L465 452

C463 453 462 454 462 454

C463 454 486 457 489 457

C493 457 493 457 492 455

Z

M57 455

C60 453 60 448 57 447

C53 445 50 447 50 451

C50 455 53 457 57 455

Z

M553 454

C555 451 555 450 553 448

C551 446 549 445 547 448

C544 451 546 456 550 456

C551 456 553 455 553 454

Z

M539 453

C542 451 542 446 539 445

C535 443 532 445 532 449

C532 453 535 455 539 453

Z

M20 451

C23 449 22 446 19 444

C16 443 16 443 14 444

C12 447 11 449 14 451

C16 454 18 453 20 451

Z

M206 450

C207 450 208 448 208 447

C208 446 205 442 203 442

C202 442 198 445 198 447

C198 451 203 454 206 450

Z

M219 451

C221 450 222 446 219 444

C216 441 212 443 212 447

C212 451 215 453 219 451

Z

M115 448

C119 444 114 438 109 441

C107 443 106 446 109 448

C111 451 113 450 115 448

Z

M80 446

C81 446 82 444 82 443

C82 442 79 438 77 438

C75 438 72 441 72 443

C72 445 75 448 77 448

C78 448 80 447 80 446

Z

M306 446

C308 444 308 442 306 440

C304 438 302 438 300 440

C298 442 298 444 300 446

C302 448 304 448 306 446

Z

M48 446

C51 442 47 436 42 438

C40 439 39 444 41 446

C43 447 46 447 48 446

Z

M33 444

C35 442 36 440 33 438

C31 435 28 436 26 439

C25 441 25 441 26 444

C28 446 31 447 33 444

Z

M274 443

L278 441

L270 438

L263 434

L266 431

L269 428

L262 428

C258 429 252 429 247 430

C242 430 238 431 238 431

C238 432 245 438 248 440

C256 444 266 445 274 443

Z

M372 443

C374 441 373 437 371 436

C370 435 368 435 367 435

C361 437 363 444 368 444

C369 444 371 443 372 443

Z

M385 442

C387 440 386 436 384 435

C383 434 381 434 380 434

C375 436 377 443 382 443

C383 443 384 442 385 442

Z

M93 439

C95 437 95 436 94 435

C91 431 85 432 85 436

C85 441 91 443 93 439

Z

M192 436

C194 432 188 428 184 431

C182 433 183 437 185 438

C188 440 191 439 192 436

Z

M205 438

C205 437 206 436 206 435

C206 432 204 430 201 430

C198 430 196 432 196 435

C196 438 202 440 205 438

Z

M107 437

C110 434 107 429 104 429

C101 429 99 431 99 434

C99 436 101 438 104 438

C105 438 106 437 107 437

Z

M396 436

C398 435 399 430 397 428

C396 428 395 427 394 427

C391 427 389 429 389 432

C389 436 392 438 396 436

Z

M535 435

C537 433 537 431 535 429

C533 427 531 427 529 429

C527 431 527 433 529 435

C531 437 533 437 535 435

Z

M305 433

C308 430 308 429 305 427

C302 424 298 425 297 429

C297 431 297 432 299 433

C302 435 303 435 305 433

Z

M548 433

C551 431 550 429 548 427

C544 423 538 428 541 433

C543 435 546 436 548 433

Z

M179 431

C183 429 180 421 175 422

C172 424 171 427 172 430

C174 432 176 433 179 431

Z

M463 431

C464 430 464 428 464 426

C463 421 455 422 455 427

C455 432 460 434 463 431

Z

M225 429

C228 427 227 425 225 423

C223 420 220 421 218 424

C217 427 217 427 218 429

C221 431 223 432 225 429

Z

M522 430

C525 428 525 423 522 422

C518 420 515 422 515 426

C515 430 518 432 522 430

Z

M212 427

C214 425 213 420 211 419

C209 418 208 418 206 419

C202 422 204 428 209 428

C210 428 211 427 212 427

Z

M104 419

C105 412 103 403 99 397

C96 392 91 387 91 388

C90 388 90 395 89 404

L89 419

L92 416

L94 413

L98 420

C103 428 103 428 104 419

Z

M568 422

C569 422 570 420 570 419

C570 418 567 414 565 414

C563 414 560 417 560 419

C560 421 563 424 565 424

C566 424 568 423 568 422

Z

M237 422

C240 419 237 414 234 414

C231 414 229 416 229 419

C229 421 231 423 234 423

C235 423 236 422 237 422

Z

M554 421

C557 419 556 417 554 415

C550 411 544 416 547 421

C549 423 552 424 554 421

Z

M396 421

C398 419 397 415 395 414

C394 413 392 413 391 413

C385 415 387 422 392 422

C393 422 395 421 396 421

Z

M172 419

C174 417 174 415 172 413

C170 411 168 411 166 413

C164 415 163 417 166 419

C168 421 170 421 172 419

Z

M305 419

C306 419 307 417 307 416

C307 414 304 411 302 411

C301 411 297 414 297 416

C297 416 298 418 299 419

C300 421 303 422 305 419

Z

M355 420

C356 418 356 413 353 412

C349 411 345 415 347 419

C348 421 353 422 355 420

Z

M514 419

C517 418 517 415 514 413

C511 410 507 411 506 415

C506 417 506 418 508 419

C511 421 511 421 514 419

Z

M457 419

C460 417 458 411 454 411

C451 411 449 413 449 416

C449 419 453 421 457 419

Z

M382 416

C383 415 384 414 384 413

C384 411 381 408 379 408

C377 408 374 411 374 413

C374 415 377 418 379 418

C379 418 381 417 382 416

Z

M368 416

C371 412 366 406 362 408

C361 409 360 410 360 412

C360 415 362 417 365 417

C366 417 367 416 368 416

Z

M66 414

C68 412 68 411 66 408

C64 406 64 406 61 407

C58 408 57 411 60 414

C62 417 63 417 66 414

Z

M271 414

C274 413 279 410 281 408

L286 404

L277 404

C268 404 268 404 271 397

C271 396 249 410 246 413

C244 414 251 416 259 416

C264 416 268 415 271 414

Z

M444 414

C445 413 445 411 445 410

C443 405 436 407 436 412

C436 413 437 414 437 415

C439 416 443 416 444 414

Z

M52 414

C54 412 53 407 51 406

C47 404 44 406 44 410

C44 413 46 415 49 415

C50 415 51 414 52 414

Z

M579 414

C581 412 580 408 578 407

C576 405 571 407 571 409

C570 413 576 417 579 414

Z

M430 412

C432 410 432 409 430 406

C429 404 428 404 426 404

C422 405 421 410 424 412

C427 414 428 414 430 412

Z

M417 412

C419 410 418 406 416 405

C415 404 413 404 412 404

C406 406 408 413 413 413

C414 413 416 412 417 412

Z

M345 411

C345 410 346 409 346 408

C346 405 344 403 341 403

C338 403 336 405 336 408

C336 411 342 413 345 411

Z

M403 410

C405 408 406 406 403 404

C400 401 395 403 395 407

C395 409 398 412 400 412

C401 412 402 411 403 410

Z

M242 408

C243 406 243 405 242 403

C239 399 233 401 233 406

C233 408 235 410 238 410

C240 410 241 409 242 408

Z

M166 407

C168 405 168 404 166 401

C164 398 159 399 158 403

C158 405 158 406 160 407

C163 409 164 409 166 407

Z

M507 408

C507 407 508 406 508 405

C508 403 507 402 507 401

C506 401 505 400 504 400

C502 400 501 401 500 401

C500 402 499 403 499 405

C499 406 500 407 500 408

C501 408 502 409 504 409

C505 409 506 408 507 408

Z

M130 405

C128 395 119 385 109 381

C104 379 102 379 102 380

C102 380 105 387 108 394

L115 407

L116 403

L117 399

L124 404

C127 406 131 408 131 408

C131 408 131 407 130 405

Z

M322 404

C324 400 317 396 314 399

C312 401 313 405 315 406

C318 408 321 407 322 404

Z

M304 406

C307 402 302 396 298 398

C297 399 296 400 296 402

C296 405 298 407 301 407

C302 407 303 406 304 406

Z

M461 406

C463 404 462 399 460 398

C457 397 456 397 455 399

C451 402 453 407 458 407

C459 407 460 406 461 406

Z

M392 403

C394 401 393 397 391 396

C390 395 388 395 387 395

C381 397 383 404 388 404

C389 404 391 403 392 403

Z

M73 401

C74 399 74 398 73 396

C72 394 71 394 69 394

C65 395 63 399 65 401

C67 404 72 403 73 401

Z

M46 400

C50 397 48 392 44 392

C37 392 38 402 44 402

C44 402 46 401 46 400

Z

M581 400

C583 398 583 396 581 394

C579 392 577 392 575 394

C573 396 573 398 575 400

C577 402 579 402 581 400

Z

M340 398

C343 395 343 394 340 392

C337 389 333 390 332 394

C332 396 332 397 334 398

C337 400 338 400 340 398

Z

M444 397

C446 395 446 393 444 391

C442 389 440 389 438 391

C436 393 436 395 438 397

C440 399 442 399 444 397

Z

M497 397

C500 392 496 388 491 390

C489 392 488 394 490 397

C491 400 496 400 497 397

Z

M235 396

C239 392 234 386 229 389

C227 391 226 394 229 396

C231 399 233 398 235 396

Z

M158 396

C161 393 158 388 155 388

C152 388 150 390 150 393

C150 395 152 397 155 397

C156 397 157 396 158 396

Z

M300 392

C302 391 303 388 300 386

C298 384 296 384 294 386

C292 388 292 390 294 392

C296 394 297 394 300 392

Z

M386 391

C387 390 387 388 387 386

C386 381 378 382 378 387

C378 392 383 394 386 391

Z

M461 391

C463 389 462 384 460 383

C457 382 456 382 455 384

C451 387 453 392 458 392

C459 392 460 391 461 391

Z

M473 390

C475 389 475 388 475 386

C474 382 470 381 467 384

C464 386 464 389 467 390

C470 392 470 392 473 390

Z

M246 389

C249 388 249 385 246 383

C243 380 239 381 238 385

C238 387 238 388 240 389

C243 391 243 391 246 389

Z

M313 389

C315 388 316 384 314 382

C312 380 308 381 307 383

C305 385 305 388 308 390

C310 391 310 391 313 389

Z

M329 390

C330 388 330 385 329 383

C326 381 322 382 321 385

C319 389 325 393 329 390

Z

M73 389

C75 387 74 382 72 381

C70 380 69 380 67 381

C63 384 65 390 70 390

C71 390 72 389 73 389

Z

M487 389

C488 387 488 384 487 382

C484 380 480 381 479 384

C477 388 483 392 487 389

Z

M574 389

C574 388 575 387 575 386

C575 384 574 383 574 382

C573 382 572 381 571 381

C569 381 568 382 567 382

C567 383 566 384 566 386

C566 387 567 388 567 389

C568 389 569 390 571 390

C572 390 573 389 574 389

Z

M86 388

C88 387 89 383 86 381

C83 378 79 380 79 384

C79 388 82 390 86 388

Z

M174 388

C176 385 174 381 172 380

C169 380 166 381 165 384

C165 387 167 389 170 389

C172 389 173 388 174 388

Z

M512 388

C514 386 513 382 511 381

C510 380 508 380 507 380

C501 382 503 389 508 389

C509 389 511 388 512 388

Z

M135 385

C139 381 134 375 129 378

C127 380 126 383 129 385

C131 388 133 387 135 385

Z

M149 386

C149 385 150 384 150 383

C150 380 148 378 145 378

C142 378 140 380 140 383

C140 386 146 388 149 386

Z

M289 386

C290 384 290 381 289 379

C286 377 282 378 281 381

C279 385 285 389 289 386

Z

M209 384

C212 382 211 380 209 377

C207 376 207 376 204 377

C201 379 200 382 203 384

C205 386 207 387 209 384

Z

M196 381

C198 379 199 377 196 375

C193 372 188 374 188 378

C188 380 191 383 193 383

C194 383 195 382 196 381

Z

M584 380

C586 378 586 377 584 374

C583 372 582 372 580 372

C576 373 575 377 578 380

C580 383 581 383 584 380

Z

M392 380

C394 379 395 374 393 372

C392 372 391 371 390 371

C387 371 385 373 385 376

C385 380 388 382 392 380

Z

M547 380

C547 379 548 378 548 377

C548 375 547 374 547 373

C546 373 545 372 544 372

C542 372 541 373 540 373

C540 374 539 375 539 377

C539 378 540 379 540 380

C541 380 542 381 544 381

C545 381 546 380 547 380

Z

M454 378

C456 374 454 371 450 371

C447 371 445 373 445 376

C445 380 451 382 454 378

Z

M495 379

C498 377 498 372 495 371

C491 369 488 371 488 375

C488 379 491 381 495 379

Z

M533 378

C535 377 535 376 535 374

C534 370 530 369 527 372

C524 374 524 375 527 378

C529 380 530 380 533 378

Z

M95 377

C98 375 97 371 94 370

C90 368 88 370 88 374

C88 378 92 380 95 377

Z

M254 378

C257 375 254 370 251 370

C248 370 246 372 246 375

C246 377 248 379 251 379

C252 379 253 378 254 378

Z

M159 377

C162 374 158 367 154 369

C149 371 150 378 156 378

C157 378 158 377 159 377

Z

M312 369

C317 361 319 349 317 341

C316 339 316 339 299 361

L297 363

L301 363

C305 362 305 362 305 364

C304 365 304 368 303 372

L303 378

L306 376

C308 375 311 372 312 369

Z

M218 375

C220 374 221 369 218 367

C216 365 212 367 211 370

C211 373 213 376 215 376

C216 376 217 376 218 375

Z

M344 371

C347 364 346 357 344 351

C342 346 336 336 335 336

C334 337 329 367 330 366

C331 366 332 365 334 364

L336 362

L337 365

C341 374 341 376 342 376

C343 376 344 374 344 371

Z

M441 374

C442 372 442 369 441 367

C438 365 434 366 433 369

C431 373 437 377 441 374

Z

M49 372

C50 372 51 370 51 369

C51 367 48 364 46 364

C45 364 41 367 41 369

C41 369 42 371 43 372

C44 374 47 375 49 372

Z

M187 372

C188 370 188 365 185 364

C181 363 177 367 179 371

C180 373 185 374 187 372

Z

M172 370

C174 368 175 366 172 364

C169 361 164 363 164 367

C164 369 167 372 169 372

C170 372 171 371 172 370

Z

M508 370

C512 367 508 361 503 362

C500 364 499 368 502 370

C503 371 505 372 505 372

C505 372 507 371 508 370

Z

M522 370

C523 370 524 368 524 367

C524 365 521 362 519 362

C518 362 514 365 514 367

C514 367 515 369 516 370

C517 372 520 373 522 370

Z

M384 368

C387 365 386 361 382 360

C380 360 379 360 378 362

C376 365 376 366 378 368

C381 371 382 371 384 368

Z

M556 368

C558 364 556 361 552 361

C549 361 547 363 547 366

C547 370 553 372 556 368

Z

M233 366

C233 362 232 360 229 360

C226 360 224 362 224 365

C224 368 226 369 229 369

C232 369 233 368 233 366

Z

M246 365

C248 362 247 359 244 358

C240 358 238 360 238 362

C238 367 244 369 246 365

Z

M96 363

C99 361 98 358 96 357

C95 356 93 355 93 355

C91 355 88 359 88 360

C88 362 91 365 93 365

C94 365 96 364 96 363

Z

M431 364

C434 362 434 357 431 356

C427 354 424 356 424 360

C424 364 427 366 431 364

Z

M40 363

C40 362 41 360 41 359

C41 354 33 354 32 359

C32 363 37 366 40 363

Z

M157 360

C159 358 159 356 157 354

C155 351 153 352 151 354

C149 356 149 357 151 360

C152 362 155 363 157 360

Z

M568 360

C569 358 569 357 568 355

C567 353 566 353 564 353

C560 354 558 358 560 360

C562 363 567 362 568 360

Z

M28 358

C30 355 28 351 24 351

C21 351 19 353 19 356

C19 358 21 360 24 360

C26 360 27 359 28 358

Z

M172 355

C174 351 172 349 168 349

C164 349 162 353 165 356

C167 359 171 358 172 355

Z

M581 357

C581 356 582 355 582 354

C582 352 581 351 581 350

C580 350 579 349 578 349

C576 349 575 350 574 350

C574 351 573 352 573 354

C573 355 574 356 574 357

C575 357 576 358 578 358

C579 358 580 357 581 357

Z

M143 355

C146 353 145 351 143 348

C139 345 133 351 137 355

C139 357 141 358 143 355

Z

M217 355

C218 354 219 353 219 352

C219 350 216 347 214 347

C212 347 209 350 209 352

C209 354 212 357 214 357

C214 357 216 356 217 355

Z

M232 355

C234 352 232 348 228 348

C224 348 222 352 224 355

C225 358 231 358 232 355

Z

M387 354

C389 351 387 347 383 347

C381 347 380 348 379 349

C377 353 379 356 383 356

C385 356 386 355 387 354

Z

M486 350

C488 347 491 344 491 343

C492 343 493 344 494 346

L497 349

L497 333

C497 325 497 318 496 318

C494 318 486 328 484 333

C481 338 480 345 481 351

C482 354 482 356 482 356

C483 356 484 353 486 350

Z

M87 353

C89 351 89 349 87 347

C85 345 83 345 81 347

C79 349 79 351 81 353

C83 355 85 355 87 353

Z

M203 350

C206 348 205 345 203 344

C202 343 200 342 200 342

C198 342 195 346 195 347

C195 349 198 352 200 352

C201 352 203 351 203 350

Z

M437 350

C438 349 439 348 439 347

C439 345 436 342 434 342

C432 342 429 345 429 347

C429 349 432 352 434 352

C434 352 436 351 437 350

Z

M118 350

C121 348 121 343 118 342

C114 340 111 342 111 346

C111 350 114 352 118 350

Z

M18 347

C21 345 20 342 18 341

C17 340 15 339 15 339

C13 339 10 343 10 344

C10 346 13 349 15 349

C16 349 18 348 18 347

Z

M132 347

C134 344 134 341 131 340

C127 338 122 344 125 348

C127 350 131 349 132 347

Z

M180 346

C182 343 182 340 179 339

C175 337 170 343 173 347

C175 349 179 348 180 346

Z

M397 345

C398 342 398 342 397 340

C395 337 392 336 390 339

C387 342 389 347 393 347

C394 347 396 346 397 345

Z

M409 346

C412 344 411 339 409 338

C406 336 402 338 402 342

C402 346 406 348 409 346

Z

M237 343

C239 342 240 338 238 336

C236 334 232 335 231 337

C229 339 229 342 232 344

C234 345 234 345 237 343

Z

M156 342

C159 340 158 338 156 336

C154 333 151 334 149 337

C148 340 148 340 149 342

C152 344 154 345 156 342

Z

M289 342

C291 339 289 335 285 335

C283 335 282 336 281 337

C279 341 281 344 285 344

C287 344 288 343 289 342

Z

M94 341

C95 338 95 338 94 336

C92 333 89 332 87 335

C84 338 86 343 90 343

C91 343 93 342 94 341

Z

M193 342

C196 338 192 332 187 334

C185 335 184 340 186 342

C188 343 191 343 193 342

Z

M524 341

C529 337 522 330 518 335

C515 337 515 338 518 341

C521 344 522 344 524 341

Z

M539 341

C541 339 539 334 537 334

C532 332 529 338 532 342

C534 343 538 343 539 341

Z

M379 342

C379 341 377 335 374 327

C368 313 368 313 367 315

C366 317 366 319 366 319

C366 321 365 320 359 315

C355 313 353 311 352 311

C351 312 354 321 357 326

C358 328 361 331 363 333

C368 338 379 343 379 342

Z

M34 339

C37 337 36 335 34 332

C30 329 24 335 28 339

C30 341 32 342 34 339

Z

M140 336

C143 334 142 330 138 329

C134 327 130 333 134 336

C136 339 138 338 140 336

Z

M300 336

C303 334 302 332 300 330

C296 326 290 331 293 336

C295 338 298 339 300 336

Z

M438 335

C440 330 434 326 430 329

C429 331 429 334 430 336

C432 338 437 337 438 335

Z

M278 333

C279 331 279 330 278 328

C277 326 276 326 274 326

C270 327 268 329 270 332

C271 336 276 336 278 333

Z

M320 334

C323 332 323 327 319 326

C316 324 314 326 313 330

C313 331 313 333 315 334

C317 335 318 335 320 334

Z

M17 332

C18 332 19 330 19 329

C19 328 16 324 14 324

C12 324 9 327 9 329

C9 331 12 334 14 334

C15 334 17 333 17 332

Z

M229 333

C231 331 230 326 228 325

C224 323 221 325 221 329

C221 332 223 334 226 334

C227 334 228 333 229 333

Z

M413 329

C413 326 411 324 409 324

C406 324 404 326 404 329

C404 335 412 335 413 329

Z

M334 330

C335 329 336 328 336 327

C336 325 333 322 331 322

C329 322 326 325 326 327

C326 329 329 332 331 332

C331 332 333 331 334 330

Z

M87 330

C89 328 88 324 86 323

C82 320 77 325 80 329

C81 331 85 332 87 330

Z

M395 315

C398 298 398 298 394 301

C393 303 391 304 391 304

C391 304 389 301 388 297

C386 293 384 290 384 291

C384 291 383 293 382 295

C380 302 381 312 384 319

C387 324 392 330 393 330

C393 329 394 323 395 315

Z

M469 326

L470 330

L476 319

C479 313 483 306 484 305

L485 303

L481 303

C468 306 457 315 454 327

L453 330

L460 326

L468 322

L469 326

Z

M520 328

C523 323 517 318 513 322

C511 324 510 326 513 328

C515 331 518 330 520 328

Z

M545 329

C548 326 544 319 540 321

C535 323 536 330 542 330

C543 330 544 329 545 329

Z

M217 327

C219 325 218 320 216 319

C213 318 212 318 211 320

C207 323 209 328 214 328

C215 328 216 327 217 327

Z

M308 327

C310 326 311 321 309 319

C308 319 307 318 306 318

C301 318 299 323 303 326

C304 328 305 328 308 327

Z

M147 324

C149 322 149 321 147 318

C145 316 145 316 142 317

C139 318 138 322 141 324

C143 327 145 326 147 324

Z

M47 323

C50 321 49 318 47 316

C44 315 44 315 42 316

C40 317 39 319 39 320

C39 322 42 325 44 325

C45 325 47 324 47 323

Z

M74 323

C76 321 76 319 74 317

C72 315 70 315 68 317

C66 319 65 321 68 323

C70 325 72 325 74 323

Z

M33 322

C35 321 35 320 35 318

C34 314 30 313 27 316

C24 318 24 319 27 322

C29 324 30 324 33 322

Z

M61 322

C64 318 59 313 55 316

C53 317 52 321 54 323

C56 325 60 324 61 322

Z

M433 322

C435 320 435 319 433 316

C431 314 431 314 428 315

C425 316 424 320 427 322

C429 325 431 324 433 322

Z

M254 319

C253 317 252 316 252 316

C252 315 254 315 257 315

C260 315 264 314 265 314

L268 313

L265 311

C255 304 243 302 230 307

L227 309

L241 316

C248 320 255 323 255 322

C255 322 254 321 254 319

Z

M282 318

C282 314 280 312 278 312

C273 312 271 318 275 320

C278 322 281 321 282 318

Z

M418 321

C421 319 421 314 418 313

C414 311 411 313 411 317

C411 321 414 323 418 321

Z

M19 320

C22 318 22 315 20 313

C19 311 15 310 13 312

C12 314 12 318 14 319

C15 321 17 321 19 320

Z

M343 320

C345 318 344 314 342 313

C339 311 336 312 335 315

C333 319 340 323 343 320

Z

M519 315

C521 314 521 313 521 311

C520 307 516 306 513 309

C510 311 510 312 513 315

C515 317 516 317 519 315

Z

M547 315

C549 313 548 308 546 307

C545 306 544 306 543 306

C541 306 539 309 539 312

C539 315 544 317 547 315

Z

M221 313

C225 309 220 303 215 306

C213 308 212 311 215 313

C217 316 219 315 221 313

Z

M506 313

C506 312 507 311 507 310

C507 308 506 307 506 306

C505 306 504 305 503 305

C501 305 500 306 499 306

C499 307 498 308 498 310

C498 311 499 312 499 313

C500 313 501 314 503 314

C504 314 505 313 506 313

Z

M151 312

C153 311 154 307 151 305

C148 302 144 304 144 308

C144 312 147 314 151 312

Z

M48 309

C50 308 50 307 50 305

C49 301 45 300 42 303

C39 305 39 306 42 309

C44 311 45 311 48 309

Z

M13 307

C16 304 14 300 10 300

C7 300 5 302 5 305

C5 309 10 311 13 307

Z

M289 306

C291 303 289 301 285 300

C283 300 282 300 281 302

C279 306 281 309 285 309

C287 309 288 308 289 306

Z

M342 305

C344 302 342 299 339 298

C336 298 334 299 333 302

C332 307 340 310 342 305

Z

M63 305

C65 302 63 298 59 298

C57 298 56 299 55 300

C53 304 55 307 59 307

C61 307 62 306 63 305

Z

M497 302

C499 301 500 297 498 295

C496 293 492 294 491 296

C489 298 489 301 492 303

C494 304 494 304 497 302

Z

M215 301

C217 300 217 299 217 297

C216 293 212 292 209 295

C206 297 206 298 209 301

C211 303 212 303 215 301

Z

M544 301

C545 300 545 298 545 296

C544 291 536 292 536 297

C536 302 541 304 544 301

Z

M122 300

C123 298 123 295 122 293

C121 292 119 292 117 292

C112 293 113 301 118 301

C120 301 121 300 122 300

Z

M157 300

C161 298 159 291 154 291

C153 291 149 294 149 296

C149 297 152 301 154 301

C154 301 156 301 157 300

Z

M190 299

C193 297 192 293 188 292

C184 290 180 296 184 299

C186 302 188 301 190 299

Z

M299 299

C302 296 301 292 297 291

C295 291 294 291 293 293

C291 296 291 297 293 299

C296 302 297 302 299 299

Z

M353 300

C354 299 354 297 354 295

C353 290 345 291 345 296

C345 301 350 303 353 300

Z

M75 299

C78 296 75 291 72 291

C69 291 67 293 67 296

C67 298 69 300 72 300

C73 300 74 299 75 299

Z

M108 299

C108 298 109 297 109 296

C109 293 107 291 104 291

C101 291 99 293 99 296

C99 299 105 301 108 299

Z

M40 298

C43 295 40 290 37 290

C34 290 32 292 32 295

C32 297 34 299 37 299

C38 299 39 298 40 298

Z

M203 295

C205 293 206 291 203 289

C200 286 195 288 195 292

C195 294 198 297 200 297

C201 297 202 296 203 295

Z

M134 292

C137 290 136 286 133 285

C129 283 127 285 127 289

C127 293 131 295 134 292

Z

M555 291

C557 288 555 284 551 284

C549 284 548 285 547 286

C545 290 547 293 551 293

C553 293 554 292 555 291

Z

M97 291

C99 289 98 284 96 283

C95 282 94 282 93 282

C91 282 89 285 89 287

C89 291 94 293 97 291

Z

M168 290

C172 286 167 280 162 283

C160 285 159 288 162 290

C164 293 166 292 168 290

Z

M251 290

C251 290 250 289 249 288

C247 287 246 286 246 285

C246 285 249 283 252 281

C256 278 258 276 257 276

C255 274 240 275 235 278

C230 280 221 289 221 290

C221 291 225 291 236 291

C244 291 251 291 251 290

Z

M181 289

C183 287 183 285 181 283

C179 280 176 281 174 284

C173 286 173 286 174 289

C176 291 179 292 181 289

Z

M445 289

C449 286 447 281 443 281

C436 281 437 291 443 291

C443 291 445 290 445 289

Z

M498 289

C500 287 499 282 497 281

C494 280 493 280 492 282

C488 285 490 290 495 290

C496 290 497 289 498 289

Z

M568 288

C570 285 568 281 564 281

C562 281 561 282 560 283

C558 287 560 290 564 290

C566 290 567 289 568 288

Z

M84 288

C87 285 84 280 81 280

C79 280 78 281 77 281

C76 282 76 287 77 288

C78 289 83 289 84 288

Z

M354 286

C355 286 356 284 356 283

C356 281 353 278 351 278

C350 278 346 281 346 283

C346 283 347 285 348 286

C349 288 352 289 354 286

Z

M372 287

C374 285 373 280 371 279

C370 278 369 278 368 278

C366 278 364 281 364 283

C364 287 369 289 372 287

Z

M47 286

C47 285 48 284 48 283

C48 280 46 278 43 278

C41 278 40 279 39 280

C37 284 43 289 47 286

Z

M298 285

C300 282 298 278 294 278

C290 278 288 282 290 285

C291 288 297 287 298 285

Z

M387 285

C390 280 384 275 380 279

C378 281 377 283 380 285

C382 288 385 287 387 285

Z

M432 286

C432 285 433 284 433 283

C433 281 432 280 432 279

C431 279 430 278 429 278

C427 278 426 279 425 279

C425 280 424 281 424 283

C424 284 425 285 425 286

C426 286 427 287 429 287

C430 287 431 286 432 286

Z

M460 284

C460 283 461 282 461 281

C461 279 460 278 460 277

C459 277 458 276 457 276

C455 276 454 277 453 277

C453 278 452 279 452 281

C452 282 453 283 453 284

C454 284 455 285 457 285

C458 285 459 284 460 284

Z

M144 282

C146 280 146 278 144 276

C142 274 140 274 138 276

C136 278 136 280 138 282

C140 284 142 284 144 282

Z

M120 282

C120 281 121 280 121 279

C121 276 119 274 116 274

C112 274 110 278 112 281

C113 283 118 284 120 282

Z

M158 282

C160 280 159 276 157 275

C153 272 148 277 151 281

C152 283 156 284 158 282

Z

M400 280

C402 278 400 273 398 273

C393 271 390 277 393 281

C395 282 399 282 400 280

Z

M508 279

C508 278 509 277 509 276

C509 274 508 273 508 272

C507 272 506 271 505 271

C503 271 502 272 501 272

C501 273 500 274 500 276

C500 277 501 278 501 279

C502 279 503 280 505 280

C506 280 507 279 508 279

Z

M576 279

C579 277 579 272 576 271

C572 269 569 271 569 275

C569 279 572 281 576 279

Z

M58 277

C60 272 56 268 51 271

C49 272 48 276 50 278

C52 280 56 279 58 277

Z

M484 277

C486 275 486 274 484 271

C483 269 482 269 480 269

C476 270 475 274 478 277

C480 280 481 280 484 277

Z

M289 275

C291 274 291 273 291 271

C290 267 286 266 283 269

C280 271 280 272 283 275

C285 277 286 277 289 275

Z

M423 276

C423 275 424 274 424 273

C424 271 423 270 423 269

C422 269 421 268 420 268

C418 268 417 269 416 269

C416 270 415 271 415 273

C415 274 416 275 416 276

C417 276 418 277 420 277

C421 277 422 276 423 276

Z

M471 276

C471 275 472 274 472 273

C472 271 471 270 471 269

C470 269 469 268 468 268

C466 268 465 269 464 269

C464 270 463 271 463 273

C463 274 464 275 464 276

C465 276 466 277 468 277

C469 277 470 276 471 276

Z

M348 274

C351 273 351 270 348 268

C345 265 341 266 340 270

C340 272 340 273 342 274

C345 276 345 276 348 274

Z

M366 273

C368 270 366 266 362 266

C360 266 359 267 358 268

C356 272 358 275 362 275

C364 275 365 274 366 273

Z

M135 272

C137 268 133 264 129 265

C126 266 126 271 127 273

C129 275 134 274 135 272

Z

M187 271

C189 270 193 268 194 266

C198 263 203 257 203 256

C202 256 195 256 187 257

L172 258

L175 261

L178 264

L172 268

C169 271 166 273 166 273

C166 274 170 274 174 274

C180 273 184 273 187 271

Z

M410 271

C413 268 413 267 410 265

C407 262 403 263 402 267

C402 268 402 270 404 271

C406 274 407 274 410 271

Z

M446 271

C448 270 448 269 448 267

C447 263 443 262 440 265

C437 267 437 268 440 271

C442 273 443 273 446 271

Z

M563 266

C564 261 557 259 555 263

C553 266 553 269 556 270

C559 271 562 269 563 266

Z

M503 267

C505 265 504 260 502 259

C499 258 498 258 497 260

C493 263 495 268 500 268

C501 268 502 267 503 267

Z

M50 265

C53 263 52 260 50 259

C49 258 47 257 47 257

C45 257 42 261 42 262

C42 264 45 267 47 267

C48 267 50 266 50 265

Z

M338 266

C338 265 339 264 339 263

C339 261 338 260 338 259

C337 259 336 258 335 258

C333 258 332 259 331 259

C331 260 330 261 330 263

C330 264 331 265 331 266

C332 266 333 267 335 267

C336 267 337 266 338 266

Z

M463 265

C463 264 464 263 464 262

C464 259 462 257 459 257

C455 257 453 261 455 264

C456 266 461 267 463 265

Z

M307 264

C308 262 308 259 307 257

C304 255 300 256 299 259

C297 263 303 267 307 264

Z

M579 263

C582 258 578 254 573 256

C571 258 570 261 573 263

C575 266 578 265 579 263

Z

M125 262

C127 260 127 258 125 256

C123 254 121 254 119 256

C117 258 117 260 119 262

C121 264 123 264 125 262

Z

M375 261

C375 257 374 255 371 255

C368 255 366 257 366 260

C366 263 368 264 371 264

C374 264 375 263 375 261

Z

M246 261

C246 260 247 259 247 258

C247 255 245 253 242 253

C239 253 237 255 237 258

C237 261 243 263 246 261

Z

M289 261

C292 258 289 253 286 253

C283 253 281 255 281 258

C281 259 282 260 282 261

C283 261 284 262 286 262

C287 262 288 261 289 261

Z

M259 259

C260 257 260 254 259 252

C258 251 256 251 254 251

C249 252 250 260 255 260

C257 260 258 259 259 259

Z

M326 258

C329 256 328 253 326 251

C323 250 323 250 321 251

C318 253 317 256 320 258

C322 260 324 261 326 258

Z

M223 256

C225 254 225 254 224 251

C223 248 219 247 217 250

C214 252 215 254 217 256

C219 258 220 258 223 256

Z

M386 257

C387 255 387 252 386 250

C385 249 383 249 381 249

C376 250 377 258 382 258

C384 258 385 257 386 257

Z

M510 255

C512 253 512 251 510 249

C508 247 506 247 504 249

C502 251 502 253 504 255

C506 257 508 257 510 255

Z

M53 253

C56 251 56 246 53 245

C49 243 46 245 46 249

C46 253 49 255 53 253

Z

M456 253

C456 252 457 251 457 250

C457 247 455 245 452 245

C448 245 446 249 448 252

C449 254 454 255 456 253

Z

M549 253

C552 251 551 246 549 245

C546 243 542 245 542 249

C542 253 546 255 549 253

Z

M236 251

C238 249 239 247 236 245

C233 242 228 244 228 248

C228 250 231 253 233 253

C234 253 235 252 236 251

Z

M564 252

C567 249 564 244 561 244

C558 244 556 246 556 249

C556 251 558 253 561 253

C562 253 563 252 564 252

Z

M118 250

C121 248 120 245 118 243

C115 242 115 242 113 243

C111 244 110 246 110 247

C110 249 113 252 115 252

C116 252 118 251 118 250

Z

M211 251

C213 249 212 244 210 243

C205 241 201 247 204 251

C206 252 209 252 211 251

Z

M522 251

C524 250 525 245 523 243

C522 243 521 242 520 242

C515 242 513 248 517 250

C520 252 520 252 522 251

Z

M536 250

C538 248 538 246 536 244

C534 242 532 242 530 244

C528 246 528 248 530 250

C532 252 534 252 536 250

Z

M268 250

C271 248 271 243 268 242

C264 240 261 242 261 246

C261 250 264 252 268 250

Z

M315 250

C317 249 318 244 316 242

C315 242 314 241 313 241

C308 241 307 246 310 249

C312 251 312 251 315 250

Z

M578 250

C578 249 579 248 579 247

C579 244 577 242 574 242

C570 242 568 246 570 249

C571 251 576 252 578 250

Z

M296 248

C300 245 298 240 294 240

C287 240 288 250 294 250

C294 250 296 249 296 248

Z

M358 243

C365 239 371 235 370 235

C370 235 367 233 364 232

C352 229 341 232 333 239

L330 241

L335 241

C337 242 341 242 343 242

C346 242 347 243 344 247

C344 249 343 250 344 250

C344 250 350 246 358 243

Z

M29 246

C35 245 41 244 41 244

C41 243 31 236 26 235

C19 232 5 233 2 236

C1 236 4 238 8 240

C12 241 15 243 15 243

C15 243 14 245 13 246

L11 249

L14 249

C15 248 22 247 29 246

Z

M79 245

C81 242 79 239 76 238

C73 238 71 239 70 242

C69 247 77 250 79 245

Z

M181 245

C184 244 186 243 186 242

C185 241 159 230 158 230

C158 231 159 232 159 234

C160 236 161 237 161 237

C161 238 158 238 153 238

C148 239 146 240 146 240

C147 242 152 245 157 247

C162 249 175 248 181 245

Z

M64 244

C67 242 66 238 63 237

C60 236 60 236 58 238

C56 241 56 242 58 244

C60 246 62 247 64 244

Z

M381 244

C381 243 382 241 382 240

C382 235 374 235 373 240

C373 244 378 247 381 244

Z

M452 237

C453 232 447 230 444 234

C441 236 442 240 445 241

C448 242 451 240 452 237

Z

M111 239

C112 237 112 236 111 234

C110 232 109 232 107 232

C103 233 101 237 103 239

C105 242 110 241 111 239

Z

M205 239

C208 235 203 229 199 231

C196 232 196 235 198 238

C199 240 203 241 205 239

Z

M307 239

C310 236 307 231 304 231

C301 231 299 233 299 236

C299 238 301 240 304 240

C305 240 306 239 307 239

Z

M586 238

C587 235 587 235 586 233

C582 229 577 231 577 236

C577 240 584 242 586 238

Z

M274 237

C277 234 277 233 274 231

C270 226 263 233 268 237

C270 240 271 240 274 237

Z

M85 235

C87 233 86 228 84 227

C80 225 77 227 77 231

C77 235 82 238 85 235

Z

M98 233

C101 230 101 229 98 227

C94 222 87 229 92 233

C94 236 95 236 98 233

Z

M386 231

C389 228 387 223 383 223

C382 223 380 224 379 226

C378 228 378 228 379 231

C381 233 384 234 386 231

Z

M412 229

C415 226 412 221 409 221

C407 221 406 222 405 222

C404 223 404 228 405 229

C406 230 411 230 412 229

Z

M444 228

C446 226 446 224 444 222

C442 220 440 220 438 222

C436 224 436 226 438 228

C440 230 442 230 444 228

Z

M551 223

C552 218 545 216 543 220

C541 223 542 226 544 227

C547 228 550 226 551 223

Z

M208 225

C210 223 210 221 208 219

C206 217 204 217 202 219

C200 221 200 223 202 225

C204 227 206 227 208 225

Z

M308 225

C310 222 309 219 307 218

C303 216 298 222 301 226

C303 228 307 227 308 225

Z

M493 224

C495 222 499 219 501 217

L505 213

L493 213

C487 212 480 212 478 211

L474 211

L476 214

C478 215 479 217 479 217

C479 217 476 219 473 221

C469 223 466 225 466 225

C466 226 470 227 479 227

C486 226 488 226 493 224

Z

M564 225

C566 220 560 216 556 219

C555 221 555 224 556 226

C558 228 563 227 564 225

Z

M120 223

C122 219 120 217 116 217

C112 217 110 221 113 224

C115 227 119 226 120 223

Z

M278 224

C280 222 280 221 278 218

C277 216 273 215 271 217

C269 219 270 223 272 224

C275 226 276 226 278 224

Z

M399 225

C402 222 399 217 395 217

C392 217 389 221 391 224

C392 226 397 227 399 225

Z

M134 223

C136 222 136 221 136 219

C135 215 131 214 128 217

C125 219 125 222 128 223

C131 225 131 225 134 223

Z

M160 223

C161 221 161 218 160 216

C156 213 150 217 152 222

C153 224 158 225 160 223

Z

M197 219

C199 215 193 210 189 213

C187 215 188 219 190 220

C193 222 196 221 197 219

Z

M373 219

C370 215 363 210 357 208

C353 206 341 205 338 207

C336 207 337 208 343 211

C346 214 349 216 349 216

C349 217 348 218 347 219

C345 220 344 221 344 221

C344 222 351 222 360 222

L375 222

L373 219

Z

M434 220

C434 219 435 218 435 217

C435 212 428 210 426 214

C425 217 425 217 426 219

C429 221 432 222 434 220

Z

M147 218

C149 216 149 215 147 212

C146 210 145 210 143 210

C139 211 138 215 141 218

C143 221 144 221 147 218

Z

M420 218

C423 215 421 211 417 211

C414 211 412 213 412 216

C412 220 417 222 420 218

Z

M528 218

C531 215 530 211 526 210

C524 210 523 210 522 212

C520 215 520 216 522 218

C525 221 526 221 528 218

Z

M574 218

C576 217 576 216 576 214

C575 210 571 209 568 212

C565 214 565 215 568 218

C570 220 571 220 574 218

Z

M107 218

C107 217 108 216 108 215

C108 213 107 212 107 211

C104 208 99 211 99 215

C99 216 100 217 100 218

C101 218 102 219 104 219

C105 219 106 218 107 218

Z

M541 216

C543 215 544 210 542 208

C541 208 540 207 539 207

C534 207 532 212 536 215

C537 217 538 217 541 216

Z

M284 211

C287 209 286 206 284 204

C281 203 281 203 279 204

C277 205 276 207 276 208

C276 210 279 213 281 213

C282 213 284 212 284 211

Z

M518 209

C518 205 517 203 514 203

C511 203 509 205 509 208

C509 211 511 212 514 212

C517 212 518 211 518 209

Z

M187 210

C188 208 188 205 187 203

C183 200 177 204 179 209

C180 211 185 212 187 210

Z

M231 209

C233 208 234 204 232 202

C230 200 226 201 225 203

C223 205 223 208 226 210

C228 211 228 211 231 209

Z

M124 208

C126 207 127 203 124 201

C121 198 117 200 117 204

C117 208 120 210 124 208

Z

M397 206

C405 201 412 191 414 181

L414 177

L400 185

L387 194

L391 194

C393 194 394 195 394 196

C394 196 393 199 391 203

C388 208 388 209 390 209

C391 209 394 208 397 206

Z

M102 203

C102 200 100 198 98 198

C95 198 93 200 93 203

C93 209 101 209 102 203

Z

M267 207

C270 205 270 200 267 199

C263 197 260 199 260 203

C260 207 263 209 267 207

Z

M582 206

C584 203 582 199 578 199

C574 199 572 203 574 206

C575 209 581 208 582 206

Z

M63 206

C66 203 63 198 60 198

C57 198 55 200 55 203

C55 205 57 207 60 207

C61 207 62 206 63 206

Z

M142 206

C144 204 143 199 141 198

C137 196 134 198 134 202

C134 206 139 209 142 206

Z

M77 204

C79 201 79 198 76 197

C72 195 67 201 70 205

C72 207 76 206 77 204

Z

M48 204

C50 203 51 198 49 196

C48 196 47 195 46 195

C43 195 41 197 41 200

C41 204 44 206 48 204

Z

M244 204

C246 202 245 197 243 196

C242 195 241 195 240 195

C238 195 236 198 236 201

C236 204 241 206 244 204

Z

M221 199

C223 195 221 193 217 193

C213 193 211 197 214 200

C216 203 220 202 221 199

Z

M292 200

C295 197 292 192 289 192

C286 192 284 194 284 197

C284 199 286 201 289 201

C290 201 291 200 292 200

Z

M367 200

C368 199 368 197 368 195

C367 190 359 191 359 196

C359 201 364 203 367 200

Z

M89 198

C92 195 90 190 86 190

C85 190 83 191 82 193

C81 195 81 195 82 198

C84 200 87 201 89 198

Z

M512 198

C514 197 514 196 514 194

C513 190 509 189 506 192

C503 194 503 197 506 198

C509 200 509 200 512 198

Z

M305 198

C307 196 306 191 304 190

C301 189 300 189 299 191

C295 194 297 199 302 199

C303 199 304 198 305 198

Z

M193 196

C194 194 194 193 193 191

C192 188 186 188 185 191

C183 195 185 198 189 198

C191 198 192 197 193 196

Z

M207 197

C207 196 208 195 208 194

C208 191 206 189 203 189

C201 189 200 190 199 191

C197 195 203 200 207 197

Z

M495 197

C497 196 499 195 499 195

C499 194 475 179 474 179

C473 179 474 181 474 183

L476 186

L468 186

C464 186 460 186 460 187

C460 189 468 194 473 196

C478 198 488 199 495 197

Z

M342 194

C345 192 345 188 342 186

C337 184 333 188 336 193

C337 195 339 196 342 194

Z

M139 191

C141 187 135 182 131 185

C129 187 130 191 132 192

C135 194 138 193 139 191

Z

M253 192

C254 191 254 189 253 188

C253 186 248 184 246 186

C244 187 243 191 245 193

C247 195 252 194 253 192

Z

M280 192

C283 189 281 185 277 185

C274 185 272 187 272 190

C272 194 277 196 280 192

Z

M327 191

C330 189 329 185 326 184

C322 182 320 184 320 188

C320 192 324 194 327 191

Z

M357 191

C359 187 355 183 351 184

C348 185 348 190 349 192

C351 194 356 193 357 191

Z

M45 189

C48 186 46 181 42 181

C40 181 37 184 37 186

C37 188 41 191 42 191

C43 191 45 190 45 189

Z

M266 189

C269 185 264 179 260 181

C259 182 258 183 258 185

C258 188 260 190 263 190

C264 190 265 189 266 189

Z

M518 186

C520 184 519 179 517 178

C512 176 508 182 511 186

C513 187 516 187 518 186

Z

M56 181

C60 179 58 173 54 173

C52 173 51 174 50 174

C48 176 49 181 51 182

C53 183 53 183 56 181

Z

M317 181

C321 177 316 171 311 174

C309 176 308 179 311 181

C313 184 315 183 317 181

Z

M185 180

C187 178 187 177 185 174

C184 172 183 172 181 172

C177 173 176 177 179 180

C181 183 182 183 185 180

Z

M199 181

C201 179 200 174 198 173

C193 171 189 177 192 181

C194 182 197 182 199 181

Z

M384 179

C388 177 399 167 399 166

C399 165 396 165 391 165

C386 166 379 166 375 166

L368 166

L371 169

L374 172

L368 176

C365 178 362 181 363 181

C364 183 379 182 384 179

Z

M71 175

C72 170 65 168 63 172

C61 175 61 178 64 179

C67 180 70 178 71 175

Z

M136 178

C137 178 138 176 138 175

C138 173 135 170 133 170

C132 170 128 173 128 175

C128 175 129 177 130 178

C131 180 134 181 136 178

Z

M354 178

C356 176 356 174 354 172

C352 170 350 170 348 172

C346 174 346 176 348 178

C350 180 352 180 354 178

Z

M507 179

C510 175 505 169 501 171

C500 172 499 173 499 175

C499 178 501 180 504 180

C505 180 506 179 507 179

Z

M211 175

C212 175 213 173 213 173

C213 171 211 168 209 168

C207 167 203 170 203 172

C203 174 206 177 208 177

C209 177 211 176 211 175

Z

M338 175

C340 172 338 168 334 168

C331 168 329 170 329 173

C329 175 331 177 334 177

C336 177 337 176 338 175

Z

M580 176

C583 172 578 166 574 168

C571 169 571 172 573 175

C574 177 578 178 580 176

Z

M16 174

C18 173 19 169 16 167

C13 164 9 166 9 170

C9 174 12 176 16 174

Z

M30 173

C33 171 31 165 27 165

C23 165 20 170 23 173

C25 174 28 174 30 173

Z

M174 172

C176 170 176 168 174 166

C172 164 170 164 168 166

C166 168 166 170 168 172

C170 174 172 174 174 172

Z

M544 173

C544 172 545 171 545 170

C545 167 543 165 540 165

C536 165 534 169 536 172

C537 174 542 175 544 173

Z

M422 170

C423 168 423 167 422 165

C421 163 420 163 418 163

C414 164 412 168 414 170

C416 173 421 172 422 170

Z

M434 171

C437 169 437 164 434 163

C430 161 427 163 427 167

C427 171 430 173 434 171

Z

M223 169

C225 167 226 165 223 163

C221 160 217 161 216 164

C215 167 215 167 217 169

C220 171 221 171 223 169

Z

M556 169

C558 168 558 167 558 165

C557 161 553 160 550 163

C547 165 547 166 550 169

C552 171 553 171 556 169

Z

M261 169

C264 166 261 161 258 161

C256 161 255 162 254 162

C254 163 253 164 253 166

C253 167 254 168 254 169

C255 169 256 170 258 170

C259 170 260 169 261 169

Z

M314 168

C317 166 316 163 314 161

C311 160 311 160 309 161

C306 163 305 166 308 168

C310 170 312 171 314 168

Z

M498 168

C500 167 501 162 499 160

C498 160 497 159 496 159

C493 159 491 161 491 164

C491 168 494 170 498 168

Z

M133 165

C136 163 135 161 133 159

C129 155 123 160 126 165

C128 167 131 168 133 165

Z

M68 164

C70 162 70 160 68 158

C66 156 64 156 62 158

C60 160 60 162 62 164

C64 166 66 166 68 164

Z

M236 164

C239 162 238 160 236 157

C232 154 226 160 230 164

C232 166 234 167 236 164

Z

M354 164

C356 161 356 160 354 158

C352 156 350 155 348 158

C345 161 347 166 351 166

C352 166 354 165 354 164

Z

M457 165

C460 162 457 157 454 157

C451 157 449 159 449 162

C449 164 451 166 454 166

C455 166 456 165 457 165

Z

M410 163

C412 161 413 159 410 157

C408 154 404 155 403 158

C402 161 402 161 404 163

C407 165 408 165 410 163

Z

M534 163

C535 161 535 158 534 156

C530 153 524 157 526 162

C527 164 532 165 534 163

Z

M250 162

C252 160 251 155 249 154

C245 152 242 154 242 158

C242 162 247 165 250 162

Z

M293 159

C293 155 291 153 288 153

C285 154 284 156 284 159

C286 164 292 163 293 159

Z

M444 160

C446 158 446 157 444 154

C443 152 442 152 440 152

C436 153 435 157 438 160

C440 163 441 163 444 160

Z

M174 159

C176 157 176 157 175 154

C174 151 170 150 168 153

C165 155 166 157 168 159

C170 161 171 161 174 159

Z

M567 159

C568 156 567 153 564 152

C561 152 559 153 558 156

C558 159 560 161 563 161

C565 161 566 160 567 159

Z

M278 159

C279 157 279 154 278 152

C275 150 271 151 270 154

C268 158 274 162 278 159

Z

M305 158

C308 155 307 151 303 150

C301 150 300 150 299 152

C297 155 297 156 299 158

C302 161 303 161 305 158

Z

M55 153

L60 152

L58 150

C49 143 35 140 25 143

C22 144 20 146 20 146

C19 146 22 148 26 149

C29 150 33 151 33 152

C34 152 33 154 31 155

L29 159

L39 156

C45 155 52 153 55 153

Z

M102 158

C102 157 103 156 103 155

C103 153 102 152 102 151

C99 148 94 151 94 155

C94 156 95 157 95 158

C96 158 97 159 99 159

C100 159 101 158 102 158

Z

M467 157

C471 154 469 149 465 149

C458 149 459 159 465 159

C465 159 467 158 467 157

Z

M520 157

C522 155 522 155 521 152

C520 149 517 148 514 151

C511 153 511 154 514 157

C516 159 517 159 520 157

Z

M580 157

C583 152 579 148 574 150

C572 152 571 155 574 157

C576 160 579 159 580 157

Z

M506 155

C508 154 508 153 508 151

C507 147 503 146 500 149

C497 151 497 152 500 155

C502 157 503 157 506 155

Z

M125 154

C127 152 127 150 125 148

C123 146 121 146 119 148

C117 150 117 152 119 154

C121 156 123 156 125 154

Z

M77 154

C77 153 78 152 78 151

C78 149 77 148 77 147

C74 144 69 147 69 151

C69 152 70 153 70 154

C71 154 72 155 74 155

C75 155 76 154 77 154

Z

M162 154

C164 152 163 148 160 146

C156 144 152 150 155 154

C157 155 160 155 162 154

Z

M265 153

C267 151 266 146 264 145

C261 144 260 144 259 146

C255 149 257 154 262 154

C263 154 264 153 265 153

Z

M91 150

C94 146 89 140 84 144

C82 145 81 147 83 150

C84 153 88 153 91 150

Z

M114 147

C115 142 108 140 106 144

C104 147 105 150 107 151

C110 152 113 150 114 147

Z

M356 150

C358 147 357 144 354 143

C350 143 348 145 348 147

C348 152 354 154 356 150

Z

M394 150

C396 149 396 148 396 146

C395 142 391 141 388 144

C385 146 385 147 388 150

C390 152 391 152 394 150

Z

M228 149

C231 146 231 145 228 143

C224 138 217 145 222 149

C224 152 225 152 228 149

Z

M408 150

C411 146 406 140 402 142

C400 143 399 146 401 149

C402 151 406 152 408 150

Z

M246 148

C248 147 249 143 247 141

C245 139 241 140 240 142

C238 145 238 146 240 148

C242 150 243 150 246 148

Z

M381 145

C384 142 383 138 379 137

C377 137 376 137 375 139

C373 142 373 143 375 145

C378 148 379 148 381 145

Z

M472 144

C475 142 474 138 471 137

C468 136 468 136 466 138

C464 141 464 142 466 144

C468 146 470 147 472 144

Z

M158 138

C158 135 156 133 154 133

C151 133 149 135 149 138

C149 144 157 144 158 138

Z

M265 138

C267 136 267 134 265 132

C263 130 261 130 259 132

C257 134 257 136 259 138

C261 140 263 140 265 138

Z

M511 130

C514 136 514 136 517 120

C519 112 520 105 520 105

C519 104 515 107 510 112

C503 118 500 125 499 134

L499 141

L504 135

C509 130 510 129 511 130

Z

M60 137

C59 133 52 125 49 122

C43 118 39 116 32 115

L27 115

L32 121

C36 124 38 127 38 127

C38 127 36 128 34 129

C32 130 31 130 31 131

C32 131 58 139 60 139

C60 139 61 138 60 137

Z

M142 137

C142 137 137 132 131 127

L119 117

L120 121

L120 125

L114 125

C110 124 107 124 106 123

C104 123 104 123 105 125

C108 130 118 136 125 138

C130 139 141 138 142 137

Z

M356 137

C359 135 358 132 356 130

C353 129 353 129 351 130

C348 132 347 135 350 137

C352 139 354 140 356 137

Z

M240 134

C242 130 238 126 234 127

C231 128 231 133 232 135

C234 137 239 136 240 134

Z

M558 135

C558 134 559 133 559 132

C559 129 557 127 554 127

C550 127 548 131 550 134

C551 136 556 137 558 135

Z

M278 133

C280 131 280 130 278 127

C277 125 273 124 271 126

C269 128 270 132 272 133

C275 135 276 135 278 133

Z

M291 133

C294 131 293 128 291 126

C288 125 288 125 286 126

C284 127 283 129 283 130

C283 132 286 135 288 135

C289 135 291 134 291 133

Z

M543 132

C548 128 541 121 537 126

C534 128 534 129 537 132

C540 135 541 135 543 132

Z

M382 128

C382 125 380 123 378 123

C373 123 371 129 375 131

C377 133 378 133 379 132

C381 131 382 129 382 128

Z

M473 129

C475 125 468 121 465 124

C463 126 464 130 466 131

C469 133 472 132 473 129

Z

M213 130

C216 128 215 125 212 123

C209 122 209 122 207 123

C205 126 204 128 207 130

C209 133 211 132 213 130

Z

M226 128

C229 126 228 123 226 121

C221 118 216 124 220 128

C222 130 224 131 226 128

Z

M161 128

C163 126 162 122 160 121

C159 120 157 120 156 120

C150 122 152 129 157 129

C158 129 160 128 161 128

Z

M201 126

C201 125 202 124 202 123

C202 120 200 118 197 118

C194 118 192 120 192 123

C192 126 198 128 201 126

Z

M351 124

C355 121 352 117 348 117

C344 118 342 120 344 123

C345 126 349 127 351 124

Z

M393 124

C396 122 395 119 393 117

C388 115 384 119 387 124

C388 126 391 127 393 124

Z

M421 124

C424 122 423 119 421 117

C416 114 411 120 415 124

C417 126 419 127 421 124

Z

M565 123

C568 121 567 117 564 116

C561 115 561 115 559 117

C557 120 557 121 559 123

C561 125 562 125 565 123

Z

M327 122

C329 120 330 117 328 115

C326 113 322 114 321 116

C319 118 319 121 322 123

C324 124 325 124 327 122

Z

M172 121

C173 121 174 119 174 118

C174 116 171 113 169 113

C167 113 164 116 164 118

C164 119 167 123 169 123

C169 123 171 122 172 121

Z

M408 122

C411 119 408 114 405 114

C403 114 402 115 401 115

C400 116 400 121 401 122

C402 123 407 123 408 122

Z

M294 120

C295 118 295 115 294 113

C290 110 284 114 286 119

C287 121 292 122 294 120

Z

M541 118

C543 115 541 111 537 111

C535 111 534 112 533 113

C531 117 533 120 537 120

C539 120 540 119 541 118

Z

M76 117

C79 114 78 110 74 109

C72 109 71 109 70 111

C68 114 68 115 70 117

C73 120 74 120 76 117

Z

M144 105

C141 97 138 91 138 91

C137 91 137 93 136 95

C136 96 136 98 135 98

C135 98 132 96 129 94

C126 91 123 89 122 89

C122 89 122 91 122 93

C124 102 132 112 141 116

C150 121 150 121 144 105

Z

M340 117

C341 116 342 115 342 114

C342 112 339 109 337 109

C335 109 332 112 332 114

C332 116 335 119 337 119

C337 119 339 118 340 117

Z

M470 118

C472 116 471 111 469 110

C465 108 462 110 462 114

C462 117 464 119 467 119

C468 119 469 118 470 118

Z

M90 115

C93 113 92 109 88 108

C84 106 80 112 84 115

C86 118 88 117 90 115

Z

M429 115

C432 113 432 110 430 108

C429 106 425 105 423 107

C421 109 422 113 424 114

C427 116 427 116 429 115

Z

M63 114

C65 113 66 109 63 107

C60 104 56 106 56 110

C56 114 59 116 63 114

Z

M318 112

C321 109 321 108 318 106

C314 101 307 108 312 112

C314 115 315 115 318 112

Z

M14 112

C17 109 13 102 9 104

C6 105 5 108 7 111

C8 113 12 114 14 112

Z

M199 112

C200 110 200 105 197 104

C193 103 189 107 191 111

C192 113 197 114 199 112

Z

M305 112

C305 111 306 110 306 109

C306 106 304 104 301 104

C298 104 296 106 296 109

C296 112 302 114 305 112

Z

M501 100

C506 94 510 89 510 88

C510 87 499 89 493 91

C487 94 480 100 477 105

C476 107 475 109 475 109

C475 110 478 109 482 107

C486 106 489 105 490 105

C490 105 490 107 490 109

C490 112 490 113 491 112

C491 112 496 106 501 100

Z

M277 104

C270 98 262 95 254 95

C243 95 243 96 250 101

C254 103 257 105 257 105

C257 106 256 107 255 108

C253 109 252 110 252 110

C252 111 281 112 282 111

C282 110 280 107 277 104

Z

M358 110

C360 107 359 104 356 103

C352 103 350 105 350 107

C350 112 356 114 358 110

Z

M571 109

C574 104 568 99 564 103

C562 105 561 107 564 109

C566 112 569 111 571 109

Z

M51 108

C52 107 53 105 53 105

C53 103 50 100 48 100

C43 100 41 106 45 108

C48 110 49 110 51 108

Z

M168 107

C170 103 168 101 164 101

C160 101 158 105 161 108

C163 111 167 110 168 107

Z

M100 106

C104 102 99 96 94 99

C92 101 91 104 94 106

C96 109 98 108 100 106

Z

M452 106

C455 104 454 100 451 99

C447 97 445 99 445 103

C445 107 449 109 452 106

Z

M543 106

C546 103 543 98 540 98

C537 98 535 100 535 103

C535 105 537 107 540 107

C541 107 542 106 543 106

Z

M38 105

C38 104 39 103 39 102

C39 99 37 97 34 97

C30 97 28 103 31 105

C33 106 36 106 38 105

Z

M371 105

C373 103 372 98 370 97

C365 95 361 101 364 105

C366 106 369 106 371 105

Z

M23 104

C25 103 26 98 24 96

C23 96 22 95 21 95

C18 95 16 97 16 100

C16 104 19 106 23 104

Z

M470 104

C472 102 471 97 469 96

C465 94 462 96 462 100

C462 103 464 105 467 105

C468 105 469 104 470 104

Z

M347 101

C350 99 349 95 345 94

C341 92 337 98 341 101

C343 104 345 103 347 101

Z

M529 102

C532 100 532 95 529 94

C525 92 522 94 522 98

C522 102 525 104 529 102

Z

M408 94

C407 90 404 86 401 83

C397 79 386 73 383 73

C381 73 381 73 389 91

L394 102

L395 98

C396 96 396 94 397 94

C397 94 400 96 404 98

C407 100 410 101 410 101

C410 100 409 97 408 94

Z

M433 101

C434 99 434 96 433 94

C429 91 423 95 425 100

C426 102 431 103 433 101

Z

M191 99

C194 97 193 94 191 92

C188 91 188 91 186 92

C183 94 182 97 185 99

C187 101 189 101 191 99

Z

M297 95

C295 84 285 72 276 69

C273 68 271 67 271 68

C271 68 273 71 275 75

C276 78 278 81 278 82

C278 82 276 82 274 83

L270 84

L283 91

C291 95 297 99 297 99

C297 99 297 97 297 95

Z

M569 95

C572 93 571 90 569 88

C566 87 566 87 564 88

C561 90 560 93 563 95

C565 97 567 98 569 95

Z

M168 95

C168 94 169 93 169 92

C169 90 168 89 168 88

C167 88 166 87 165 87

C163 87 162 88 161 88

C161 89 160 90 160 92

C160 93 161 94 161 95

C162 95 163 96 165 96

C166 96 167 95 168 95

Z

M98 93

C101 91 100 87 97 86

C93 84 91 86 91 90

C91 94 95 96 98 93

Z

M217 87

C219 82 219 81 219 72

C219 65 219 60 218 58

L216 55

L211 64

C208 69 205 75 203 78

C201 82 201 82 202 82

C209 79 209 79 209 87

C209 91 209 94 210 94

C211 95 213 92 217 87

Z

M442 92

C444 91 445 86 443 84

C442 84 441 83 440 83

C435 83 434 88 437 91

C439 93 439 93 442 92

Z

M371 91

C371 90 372 89 372 88

C372 85 370 83 367 83

C364 83 362 85 362 88

C362 91 368 93 371 91

Z

M26 90

C28 88 27 83 25 82

C21 80 18 82 18 86

C18 89 20 91 23 91

C24 91 25 90 26 90

Z

M181 89

C184 85 179 80 175 83

C173 84 172 88 174 90

C176 92 180 91 181 89

Z

M339 89

C341 87 341 85 339 83

C337 81 335 81 333 83

C331 85 331 87 333 89

C335 91 337 91 339 89

Z

M472 90

C472 89 473 88 473 87

C473 84 471 82 468 82

C464 82 462 86 464 89

C465 91 470 92 472 90

Z

M523 89

C525 87 525 85 523 83

C521 81 519 81 517 83

C515 85 515 87 517 89

C519 91 521 91 523 89

Z

M45 88

C47 85 45 81 41 81

C39 81 38 82 37 83

C35 87 37 90 41 90

C43 90 44 89 45 88

Z

M458 88

C460 86 458 81 456 81

C451 79 448 85 451 89

C453 90 457 90 458 88

Z

M581 89

C583 87 582 82 580 81

C576 79 573 81 573 85

C573 89 578 92 581 89

Z

M111 87

C111 86 112 85 112 84

C112 82 111 81 111 80

C109 78 104 79 104 81

C102 85 104 88 108 88

C109 88 110 87 111 87

Z

M250 82

C250 75 250 70 247 63

C244 58 237 49 235 49

C234 49 234 56 234 65

L234 80

L237 77

L240 74

L243 80

C245 84 248 87 248 87

C248 87 249 85 250 82

Z

M483 81

C485 77 480 72 476 75

C474 76 473 80 475 82

C477 84 482 83 483 81

Z

M365 79

C368 76 365 71 362 71

C359 71 357 73 357 76

C357 78 359 80 362 80

C363 80 364 79 365 79

Z

M32 76

C33 74 33 71 32 69

C29 66 24 69 24 73

C24 75 26 77 29 77

C30 77 31 76 32 76

Z

M337 76

C339 74 338 70 336 69

C333 67 330 68 329 70

C327 74 333 79 337 76

Z

M526 76

C529 73 526 68 523 68

C520 68 518 70 518 73

C518 75 520 77 523 77

C524 77 525 76 526 76

Z

M310 74

C313 71 312 67 308 66

C306 66 305 66 304 68

C302 71 302 72 304 74

C307 77 308 77 310 74

Z

M115 74

C117 72 116 68 114 67

C111 65 108 66 107 68

C105 72 111 77 115 74

Z

M324 72

C325 70 325 67 324 65

C321 63 317 64 316 67

C314 71 320 75 324 72

Z

M376 71

C381 67 374 60 370 65

C367 67 367 70 370 71

C373 73 374 73 376 71

Z

M411 70

C410 68 410 66 410 66

C410 65 414 65 418 66

L427 66

L423 63

C421 60 417 57 414 56

C408 53 406 53 400 53

C391 53 387 54 387 55

C387 56 410 73 411 73

C412 73 411 72 411 70

Z

M461 71

C464 68 461 63 458 63

C455 63 453 65 453 68

C453 70 455 72 458 72

C459 72 460 71 461 71

Z

M19 70

C20 68 20 65 19 63

C16 60 11 63 11 67

C11 68 12 69 12 70

C13 70 14 71 16 71

C17 71 18 70 19 70

Z

M43 69

C45 68 46 63 44 61

C43 61 42 60 41 60

C36 60 34 65 38 68

C39 70 40 70 43 69

Z

M57 68

C61 65 58 61 54 61

C50 62 48 64 50 67

C51 70 55 71 57 68

Z

M297 68

C300 66 299 63 297 61

C292 58 287 64 291 68

C293 70 295 71 297 68

Z

M537 68

C540 65 540 64 537 62

C534 59 530 60 529 64

C529 66 529 67 531 68

C534 70 535 70 537 68

Z

M140 68

C146 66 152 61 156 56

C158 54 159 52 159 51

C159 51 155 52 151 53

L143 55

L143 51

C144 49 144 47 143 47

C142 47 122 67 122 68

C122 70 135 69 140 68

Z

M485 64

C487 62 488 60 485 58

C482 55 477 57 477 61

C477 63 480 66 482 66

C483 66 484 65 485 64

Z

M189 64

C192 61 189 56 186 56

C184 56 183 57 182 57

C181 58 181 63 182 64

C183 65 188 65 189 64

Z

M70 63

C70 62 71 61 71 60

C71 57 69 55 66 55

C62 55 60 59 62 62

C63 64 68 65 70 63

Z

M472 63

C474 61 473 57 471 56

C470 55 468 55 467 55

C461 57 463 64 468 64

C469 64 471 63 472 63

Z

M500 61

C502 58 502 57 500 55

C498 53 496 52 494 55

C491 58 493 63 497 63

C498 63 500 62 500 61

Z

M110 61

C112 59 111 55 109 54

C108 53 106 53 105 53

C99 55 101 62 106 62

C107 62 109 61 110 61

Z

M176 57

C178 55 179 53 176 51

C173 48 168 50 168 54

C168 56 171 59 173 59

C174 59 175 58 176 57

Z

M380 58

C382 56 381 52 379 51

C378 50 376 50 375 50

C369 52 371 59 376 59

C377 59 379 58 380 58

Z

M23 55

C26 53 25 50 23 48

C20 47 20 47 18 48

C15 50 14 53 17 55

C19 57 21 58 23 55

Z

M96 56

C99 54 99 49 96 48

C91 46 87 51 91 55

C92 57 93 57 96 56

Z

M200 56

C201 54 201 51 200 49

C199 48 197 48 195 48

C190 49 191 57 196 57

C198 57 199 56 200 56

Z

M290 55

C292 52 290 48 286 48

C282 48 280 52 282 55

C283 58 289 58 290 55

Z

M534 55

C537 53 536 49 533 47

C528 46 524 52 528 55

C529 56 531 57 531 57

C531 57 533 56 534 55

Z

M308 54

C309 52 309 49 308 47

C305 45 301 46 300 49

C298 53 304 57 308 54

Z

M510 51

C513 49 512 45 508 44

C504 42 500 48 504 51

C506 54 508 53 510 51

Z

M129 41

C134 36 136 31 138 23

C138 21 138 19 137 19

C137 19 134 21 131 24

L125 29

L124 26

C123 24 122 22 122 22

C122 22 120 28 118 36

C116 43 114 50 113 51

C112 54 125 46 129 41

Z

M473 49

C475 47 475 46 473 43

C472 41 471 41 469 41

C465 42 464 46 467 49

C469 52 470 52 473 49

Z

M71 48

C73 45 71 41 67 41

C64 41 62 43 62 46

C62 48 64 50 67 50

C69 50 70 49 71 48

Z

M220 47

C220 43 219 41 216 41

C213 41 211 43 211 46

C211 49 213 50 216 50

C219 50 220 49 220 47

Z

M583 48

C585 45 584 42 582 41

C578 39 573 45 576 49

C578 51 582 50 583 48

Z

M491 46

C492 43 492 43 491 41

C489 38 486 37 484 40

C481 43 483 48 487 48

C488 48 490 47 491 46

Z

M374 46

C375 44 375 41 374 39

C373 38 371 38 369 38

C364 39 365 47 370 47

C372 47 373 46 374 46

Z

M543 45

C545 44 545 43 545 41

C544 37 540 36 537 39

C534 41 534 42 537 45

C539 47 540 47 543 45

Z

M207 42

C208 40 208 40 206 38

C204 35 200 36 199 39

C198 42 198 42 200 44

C203 46 206 46 207 42

Z

M570 45

C572 43 571 38 569 37

C566 36 565 36 564 38

C560 41 562 46 567 46

C568 46 569 45 570 45

Z

M232 44

C232 43 233 42 233 41

C233 38 231 36 228 36

C226 36 225 37 224 38

C222 42 228 47 232 44

Z

M443 39

C445 34 445 32 445 25

C445 17 445 15 443 10

C442 7 440 5 440 5

C439 5 428 32 429 33

C429 33 430 33 431 32

C435 29 436 30 436 35

C438 47 438 47 443 39

Z

M101 42

C104 38 99 33 95 35

C93 36 92 41 94 43

C96 44 100 44 101 42

Z

M178 43

C180 41 179 37 177 36

C176 35 174 35 173 35

C167 37 169 44 174 44

C175 44 177 43 178 43

Z

M286 42

C288 39 286 35 282 35

C278 35 276 39 278 42

C279 45 285 45 286 42

Z

M558 40

C559 37 557 35 554 35

C550 35 548 37 549 40

C550 45 557 45 558 40

Z

M11 41

C14 36 8 31 4 35

C2 37 1 39 4 41

C6 44 9 43 11 41

Z

M24 42

C25 41 25 39 25 37

C24 32 16 33 16 38

C16 43 21 45 24 42

Z

M361 41

C364 38 361 33 358 33

C355 33 353 35 353 38

C353 40 355 42 358 42

C359 42 360 41 361 41

Z

M299 39

C302 36 299 31 295 31

C292 31 289 35 291 38

C292 40 297 41 299 39

Z

M512 39

C515 37 515 32 512 31

C508 29 505 31 505 35

C505 39 508 41 512 39

Z

M410 33

C417 27 421 15 421 7

L421 3

L409 13

L397 23

L401 23

C404 23 405 23 404 25

C403 29 400 37 400 38

C400 39 405 36 410 33

Z

M76 35

C78 32 77 29 74 28

C70 28 68 30 68 32

C68 37 74 39 76 35

Z

M274 36

C277 33 274 28 271 28

C268 28 266 30 266 33

C266 35 268 37 271 37

C272 37 273 36 274 36

Z

M472 36

C475 34 475 31 473 29

C471 27 471 27 468 28

C465 29 464 33 467 35

C468 37 470 37 472 36

Z

M312 34

C312 33 313 32 313 31

C313 28 311 26 308 26

C305 26 303 28 303 31

C303 34 309 36 312 34

Z

M33 32

C36 31 36 28 33 26

C30 23 26 24 25 28

C25 29 25 31 27 32

C29 34 30 34 33 32

Z

M239 31

C241 28 239 24 235 24

C232 24 230 26 230 29

C230 31 232 33 235 33

C237 33 238 32 239 31

Z

M535 30

C536 29 537 28 537 27

C537 25 534 22 532 22

C530 22 527 25 527 27

C527 29 530 32 532 32

C532 32 534 31 535 30

Z

M183 29

C185 27 183 22 181 22

C176 20 173 26 176 30

C178 31 182 31 183 29

Z

M99 28

C101 26 101 25 100 24

C97 20 91 21 91 25

C91 30 97 32 99 28

Z

M360 27

C364 24 361 20 357 20

C353 21 351 23 353 26

C354 29 358 30 360 27

Z

M522 27

C524 24 522 20 518 20

C516 20 515 21 514 22

C512 26 514 29 518 29

C520 29 521 28 522 27

Z

M549 27

C550 27 551 25 551 25

C551 23 549 20 547 20

C545 19 541 22 541 24

C541 26 544 29 546 29

C547 29 549 28 549 27

Z

M324 26

C327 21 321 16 317 20

C315 22 314 24 317 26

C319 29 322 28 324 26

Z

M86 24

C88 21 86 17 82 17

C80 17 79 18 78 19

C76 23 78 26 82 26

C84 26 85 25 86 24

Z

M471 22

C472 20 472 17 471 15

C468 13 464 14 463 17

C461 21 467 25 471 22

Z

M563 19

C563 15 561 13 558 13

C555 14 554 16 554 19

C556 24 562 23 563 19

Z

M335 20

C338 17 336 13 332 13

C329 13 327 15 327 18

C327 22 332 24 335 20

Z

M349 21

C351 19 350 14 348 13

C347 12 346 12 345 12

C343 12 341 15 341 18

C341 21 346 23 349 21

Z

M192 19

C195 16 195 15 192 13

C189 10 185 11 184 15

C184 17 184 18 186 19

C189 21 190 21 192 19

Z

M234 18

C237 16 236 13 234 12

C231 10 228 11 227 14

C225 18 231 22 234 18

Z

M42 14

C46 12 50 10 52 8

L55 4

L41 3

C22 2 23 1 26 5

L29 8

L22 11

C18 13 15 15 15 15

C15 17 24 18 30 18

C34 17 38 16 42 14

Z

M92 10

C95 7 94 4 91 3

C88 2 88 2 86 4

C84 6 84 9 87 11

C89 12 90 12 92 10

Z

M106 10

C108 7 107 4 104 3

C102 2 102 2 100 3

C96 7 98 12 103 12

C104 12 106 11 106 10

Z

M244 11

C247 9 247 4 244 3

C240 1 237 3 237 7

C237 11 240 13 244 11

Z

"/>

</svg>

