<?xml version="1.0" standalone="no"?>

<!DOCTYPE svg PUBLIC "-//W3C//DTD SVG 20010904//EN"

 "http://www.w3.org/TR/2001/REC-SVG-20010904/DTD/svg10.dtd">

<svg version="1.0" xmlns="http://www.w3.org/2000/svg"

 width="598.000000pt" height="590.000000pt" viewBox="0 0 598.000000 590.000000"

 preserveAspectRatio="xMidYMid meet">

<path fill="#f2f3f3" stroke="none" d="
M0 295

L0 0

L299 0

L598 0

L598 295

L598 590

L299 590

L0 590

L0 295

Z

"/>

<path fill="#586a7b" stroke="none" d="
M0 570

L0 550

L3 552

C5 553 11 558 16 563

C25 572 29 579 30 586

L31 590

L15 590

L0 590

L0 570

Z

M43 589

C42 589 42 587 42 586

C42 576 25 556 6 544

L0 541

L0 534

C0 528 0 528 2 529

C8 530 32 543 41 549

C59 560 73 577 73 587

L73 590

L58 590

C50 590 43 590 43 589

Z

M85 587

C85 585 84 580 82 577

C78 569 63 553 52 546

C43 540 20 529 8 524

L1 521

L0 516

C0 512 0 512 2 512

C3 513 10 516 19 519

C61 533 86 547 102 563

C110 571 115 579 116 585

L116 590

L101 590

L85 590

L85 587

Z

M128 586

C127 578 122 571 113 561

C99 548 83 538 57 527

C46 522 18 512 3 507

C0 506 0 506 0 499

L0 492

L13 499

C27 506 43 512 66 520

C74 523 86 528 92 530

C128 545 153 565 158 582

C160 590 161 590 144 590

L128 590

L128 586

Z

M171 586

C170 580 166 574 160 566

C144 548 117 532 71 516

C38 504 23 498 8 488

L0 484

L0 464

C0 453 1 446 1 448

C2 455 6 461 15 470

C32 488 56 501 102 517

C125 526 142 533 154 539

C181 553 199 571 202 586

L202 590

L187 590

L171 590

L171 586

Z

M213 585

C211 575 201 561 187 551

C172 540 148 528 121 518

C88 506 80 503 68 497

C49 488 36 479 26 470

C16 459 13 453 13 443

C13 435 14 432 20 423

C32 405 61 388 106 372

C141 360 163 350 180 339

C193 331 206 317 210 308

C213 303 213 301 213 295

C213 287 211 281 203 272

C188 252 160 237 110 219

C68 204 43 191 26 175

C16 164 13 157 13 148

C12 140 14 137 20 128

C25 121 32 115 43 107

C60 95 78 87 112 75

C156 60 181 46 198 30

C207 20 211 13 213 5

L214 0

L229 0

L244 0

L244 5

C243 12 239 17 231 27

C216 43 190 56 150 71

C98 89 69 105 54 123

C46 133 43 139 44 148

C44 155 44 156 47 162

C59 184 92 204 144 222

C189 238 216 253 232 269

C242 280 244 284 244 296

C244 304 243 305 241 309

C233 323 214 338 191 349

C176 356 168 359 143 368

C98 384 69 400 54 418

C38 438 39 452 59 473

C75 489 104 503 147 519

C154 521 165 525 171 527

C213 544 242 567 244 586

L244 590

L229 590

L214 590

L213 585

Z

M256 587

C256 579 247 565 235 555

C219 542 191 528 156 515

C112 500 84 485 68 469

C58 458 56 453 56 443

C56 435 56 434 59 429

C60 426 65 420 70 415

C86 399 111 385 154 370

C203 353 233 336 248 316

C254 308 256 303 256 295

C256 287 252 279 245 271

C228 251 202 237 148 217

C99 200 69 181 58 160

C56 156 56 154 56 148

C56 141 56 139 58 134

C60 131 65 125 69 120

C86 104 112 90 156 75

C183 65 207 54 223 44

C242 31 256 14 256 3

L256 0

L272 0

L287 0

L287 5

C285 16 273 30 255 42

C238 53 220 61 185 73

C137 90 109 107 94 127

C88 135 86 141 86 150

C87 159 90 165 102 177

C119 194 144 207 190 223

C231 238 257 252 273 268

C283 279 287 285 286 296

C286 302 286 304 283 309

C279 317 267 329 255 337

C238 348 220 356 188 367

C138 385 109 401 94 422

C88 430 86 435 86 443

C86 449 88 455 93 462

C108 483 138 501 187 518

C206 524 223 531 235 537

C265 552 285 571 287 586

L287 590

L272 590

L256 590

L256 587

Z

M298 584

C297 577 291 569 282 559

C265 543 237 529 196 514

C146 497 114 478 102 458

C96 447 97 435 104 425

C117 405 147 388 196 371

C227 360 250 349 267 338

C277 331 291 317 295 309

C298 304 298 303 298 296

C299 285 296 279 285 267

C268 250 241 235 196 220

C154 205 127 191 112 175

C102 165 99 159 98 150

C97 139 101 131 113 119

C128 104 155 90 196 76

C241 60 267 46 284 29

C293 19 298 11 299 5

L299 0

L315 0

L330 0

L329 4

C327 20 309 38 278 53

C265 60 254 64 232 72

C207 81 198 85 181 93

C149 109 129 130 129 147

C129 158 133 166 146 179

C164 195 187 208 233 224

C256 232 269 237 282 244

C305 256 320 269 327 283

C329 287 329 289 329 295

C329 304 328 307 321 316

C308 334 278 351 232 367

C201 378 174 390 159 401

C148 409 136 421 132 429

C129 434 129 436 129 443

C129 452 133 459 143 470

C160 488 185 502 231 518

C263 529 280 537 295 547

C316 560 327 573 330 586

L330 590

L315 590

L299 590

L298 584

Z

M341 585

C336 561 302 537 245 517

C190 497 162 481 148 462

C142 454 141 449 141 442

C141 426 158 408 187 392

C198 386 220 377 239 371

C283 355 309 341 326 324

C337 313 341 305 341 295

C341 290 341 287 338 282

C327 260 296 240 242 221

C206 208 189 200 172 189

C160 181 147 169 144 161

C137 148 141 134 154 121

C171 104 198 90 242 75

C258 69 276 61 289 55

C318 41 339 20 341 4

L342 0

L357 0

L373 0

L372 5

C371 12 367 18 359 27

C343 43 316 58 273 73

C223 90 194 107 178 128

C168 142 169 155 182 171

C197 190 226 206 277 224

C317 238 342 251 358 268

C369 279 372 285 372 295

C372 305 369 311 359 321

C343 338 318 352 276 367

C231 382 204 396 188 413

C166 434 166 450 187 472

C203 488 229 502 270 517

C318 533 341 546 358 563

C367 572 371 578 372 586

L372 590

L357 590

L342 590

L341 585

Z

M384 587

C384 582 381 576 375 568

C360 549 331 532 281 514

C239 499 212 485 196 469

C187 459 184 452 184 443

C184 433 187 426 197 415

C214 399 239 385 282 370

C325 355 352 341 369 324

C379 313 383 307 384 298

C384 288 383 283 376 274

C366 260 351 250 326 238

C317 233 304 228 297 225

C290 223 276 218 268 215

C249 208 228 198 215 189

C204 182 190 168 186 161

C184 156 184 154 184 148

C183 138 187 131 197 120

C214 104 239 90 282 75

C325 60 352 46 369 29

C378 20 383 12 384 5

L384 0

L400 0

L415 0

L415 3

C415 8 410 18 403 25

C388 42 362 56 317 72

C265 91 238 106 222 127

C211 141 211 153 221 167

C236 188 266 205 315 223

C358 238 385 252 401 268

C411 278 414 284 415 294

C415 300 415 302 412 307

C401 329 372 348 317 367

C271 383 247 396 230 414

C212 431 210 446 221 462

C230 475 246 487 268 498

C283 506 293 510 317 518

C361 534 385 547 401 563

C409 572 414 579 415 585

L415 590

L400 590

L384 590

L384 587

Z

M427 586

C426 584 425 579 423 576

C420 569 404 553 394 546

C377 535 354 525 324 514

C280 499 251 483 236 466

C228 456 227 452 227 443

C227 432 229 428 239 417

C255 400 279 387 326 370

C357 359 378 349 395 338

C410 328 423 313 426 303

C428 296 427 287 423 281

C420 274 404 258 394 251

C378 241 354 230 324 219

C272 202 242 183 230 162

C227 157 227 156 227 148

C227 137 229 133 239 122

C252 107 278 93 309 81

C316 79 330 74 338 71

C358 63 381 52 394 43

C412 32 425 16 427 5

L427 0

L443 0

C457 0 458 0 458 2

C458 6 455 14 450 20

C436 38 407 56 361 72

C331 82 306 93 290 104

C279 111 264 126 260 134

C257 139 257 141 257 148

C257 157 261 165 271 176

C288 193 313 207 359 223

C393 235 409 242 426 254

C442 264 453 276 456 286

C460 296 458 305 450 315

C436 333 407 350 361 367

C329 378 302 390 287 401

C276 409 264 421 260 429

C258 434 257 437 257 443

C257 453 261 460 272 472

C290 489 315 502 361 518

C391 529 409 537 426 549

C444 561 456 575 458 586

L458 590

L443 590

L427 590

L427 586

Z

M469 586

C468 574 453 558 436 546

C420 536 395 524 367 515

C326 500 299 486 283 470

C273 460 269 452 269 443

C269 437 270 434 271 430

C281 411 311 391 358 374

C390 362 398 359 413 352

C438 339 453 328 463 314

C474 299 472 285 457 268

C441 251 412 235 366 219

C318 202 289 186 276 167

C270 159 269 155 269 147

C269 123 301 99 365 77

C410 60 435 48 451 32

C461 23 468 13 469 6

L470 0

L486 0

L501 0

L500 4

C497 24 471 45 427 63

C420 66 408 70 401 72

C358 87 331 102 314 119

C305 129 301 135 300 142

C298 154 303 165 316 178

C332 194 361 209 401 223

C444 238 469 251 486 268

C497 279 500 285 500 295

C500 303 498 309 491 317

C477 335 448 351 401 368

C357 383 331 397 314 414

C305 424 301 430 300 437

C298 449 303 460 316 473

C333 489 361 504 408 520

C436 530 460 542 476 554

C489 563 499 577 500 586

L501 590

L486 590

L470 590

L469 586

Z

M513 589

C512 588 512 586 512 584

C511 578 506 570 497 561

C480 544 453 530 409 514

C367 500 342 486 325 470

C315 459 311 452 312 442

C312 433 315 426 325 416

C341 400 365 387 401 374

C452 356 476 344 493 328

C500 322 507 313 510 306

C513 300 513 289 510 283

C499 260 466 239 412 220

C368 205 340 190 324 174

C315 164 312 157 312 148

C312 138 315 131 325 120

C341 105 365 92 401 79

C441 65 463 55 479 44

C498 31 510 17 512 5

L513 1

L528 0

L543 0

L543 4

C542 12 538 18 529 28

C512 45 491 55 445 72

C394 90 368 105 352 124

C343 136 340 144 343 155

C346 165 359 180 376 192

C387 199 413 211 430 218

C437 220 451 225 459 228

C501 244 531 264 540 282

C543 288 543 290 543 296

C542 306 539 312 529 323

C512 340 491 350 445 367

C393 386 368 400 352 419

C344 429 343 433 343 443

C343 450 343 451 346 457

C351 466 363 478 376 486

C392 497 416 508 446 518

C486 532 513 547 529 563

C537 571 543 581 543 587

L543 590

L528 590

C517 590 513 590 513 589

Z

M555 585

C554 579 549 571 540 562

C524 545 498 530 457 516

C422 504 403 495 385 484

C369 473 357 460 355 450

C352 438 356 428 367 416

C383 400 410 386 450 371

C509 351 542 330 553 307

C555 302 555 300 555 294

C554 284 551 278 541 268

C524 250 498 235 454 220

C408 204 379 188 364 171

C356 161 354 157 355 148

C355 137 357 132 367 121

C384 104 409 91 458 73

C501 58 530 42 545 24

C551 16 555 8 555 3

L555 0

L571 0

L586 0

L586 4

C584 16 572 30 554 42

C536 53 519 61 487 72

C444 87 417 102 401 118

C388 131 385 137 385 148

C385 157 389 164 399 175

C416 193 441 207 486 222

C520 235 538 243 554 254

C566 261 572 267 578 275

C590 291 588 305 572 322

C556 338 530 352 489 366

C459 377 435 388 418 399

C407 406 394 419 389 427

C386 433 386 434 386 442

C386 451 386 452 389 457

C393 465 408 479 418 486

C435 497 457 507 489 518

C517 528 533 536 550 546

C568 557 581 571 585 581

C587 591 588 590 571 590

L555 590

L555 585

Z

M597 582

C596 580 594 575 591 571

C576 550 547 533 495 515

C442 496 410 476 400 456

C397 449 397 448 397 441

C398 434 398 432 401 427

C413 407 443 389 496 371

C537 356 563 342 580 327

C589 318 594 311 596 305

L598 300

L598 318

L598 336

L592 340

C589 342 580 346 573 350

C559 356 551 360 521 371

C486 383 461 396 446 411

C423 432 422 449 441 469

C458 488 483 502 530 518

C553 526 574 535 585 541

C600 550 598 547 598 568

C598 579 597 584 597 582

Z

M588 535

C573 528 562 523 539 515

C513 506 503 502 490 495

C475 488 462 479 453 470

C443 459 440 452 440 443

C439 435 441 432 447 423

C460 404 490 387 540 370

C557 364 575 357 588 350

L598 345

L598 352

L598 358

L586 363

C551 375 542 379 528 386

C507 396 495 404 485 415

C472 429 468 439 471 450

C476 467 496 485 529 500

C543 507 550 510 585 522

L598 527

L598 534

C598 537 598 540 597 540

C597 540 592 538 588 535

Z

M581 515

C536 499 512 486 496 469

C485 458 483 453 483 443

C482 433 486 427 496 416

C508 404 524 394 547 384

C558 379 596 365 597 365

C598 365 598 367 598 369

L598 374

L590 377

C555 391 530 408 519 425

C511 438 511 449 520 462

C532 479 555 494 588 508

C592 510 597 512 597 512

C598 512 598 515 598 517

L598 521

L581 515

Z

M585 500

C554 485 532 467 526 452

C524 445 525 436 529 429

C537 414 563 395 594 382

L598 380

L598 387

L598 394

L589 399

C575 408 561 423 557 434

C555 440 556 450 560 457

C563 464 580 480 590 487

L598 492

L598 499

C598 502 598 505 597 505

C597 505 591 503 585 500

Z

M590 477

C582 471 574 462 571 456

C568 450 568 436 571 430

C574 424 584 413 592 406

L598 402

L598 442

C598 465 598 483 598 483

C597 483 594 480 590 477

Z

M0 421

L0 402

L6 398

C21 389 41 380 69 370

C110 356 138 342 153 326

C173 307 176 293 164 276

C149 255 119 238 68 220

C41 210 21 202 7 193

L0 189

L0 170

C0 152 0 151 1 155

C3 161 9 170 17 178

C33 193 60 208 99 222

C147 239 172 252 188 269

C202 283 205 295 198 308

C188 329 156 349 102 367

C60 382 33 396 17 413

C8 422 3 429 1 436

C0 440 0 438 0 421

Z

M0 387

L0 380

L8 377

C13 375 22 372 28 370

C73 354 103 337 118 319

C126 309 127 305 127 296

C128 284 124 278 113 266

C95 249 72 236 28 220

C17 217 7 213 4 212

L0 210

L0 204

L0 197

L8 202

C20 207 37 215 52 220

C93 235 110 243 127 254

C155 273 165 291 155 309

C154 312 149 318 145 323

C128 339 102 353 57 368

C41 374 23 381 10 388

L0 393

L0 387

Z

M0 369

L0 365

L10 361

C24 355 42 346 52 339

C63 331 76 319 81 311

C84 306 84 304 85 297

C85 289 85 289 82 282

C78 274 63 259 52 251

C43 245 20 234 8 229

L1 226

L0 221

C0 217 0 217 2 217

C3 218 11 221 21 224

C52 235 68 243 86 255

C96 262 108 273 113 281

C115 286 116 287 116 295

C116 306 113 310 103 321

C91 334 71 346 46 357

C35 361 2 373 1 373

C0 373 0 371 0 369

Z

M0 351

L0 345

L4 342

C18 334 34 319 39 308

C43 300 43 291 40 284

C35 273 21 259 6 249

L0 246

L0 239

C0 232 -1 231 18 241

C44 253 63 268 70 282

C73 288 73 290 73 297

C73 304 72 305 69 310

C61 324 43 338 19 350

C11 353 4 356 3 357

L0 358

L0 351

Z

M0 296

L0 255

L3 257

C9 260 24 276 28 282

C34 295 30 309 17 322

C13 326 7 331 5 333

L0 336

L0 296

Z

M597 287

C596 282 588 271 580 263

C563 248 536 234 494 219

C452 204 427 191 411 175

C401 165 397 157 397 148

C397 139 399 135 406 126

C420 108 448 92 496 76

C537 61 563 47 580 32

C589 23 594 16 596 10

L598 5

L598 23

L598 41

L592 45

C578 54 557 63 529 72

C489 86 462 101 445 116

C422 139 421 155 444 178

C460 194 486 208 526 222

C558 233 580 243 593 251

L598 254

L598 272

C598 282 598 290 598 290

C597 290 597 288 597 287

Z

M587 240

C573 233 559 227 539 220

C494 204 468 190 453 174

C441 162 438 153 440 142

C441 135 448 125 456 118

C473 102 499 89 540 75

C558 69 575 62 588 55

L598 50

L598 56

L598 63

L590 66

C586 67 576 71 568 74

C520 91 489 109 476 130

C471 138 470 143 470 150

C471 163 485 179 504 191

C517 200 540 211 559 218

C566 221 578 225 585 228

L598 232

L598 239

C598 242 598 245 597 245

C597 245 592 243 587 240

Z

M578 219

C556 211 539 204 529 198

C508 187 492 173 486 162

C483 156 483 155 483 148

C483 141 483 139 485 134

C490 126 503 113 514 106

C524 99 544 89 559 83

C569 80 596 70 597 70

C598 70 598 72 598 74

L598 79

L590 82

C556 96 532 111 520 128

C514 136 513 141 513 150

C514 159 517 165 529 177

C542 190 559 200 585 211

C591 214 597 217 597 217

C598 217 598 220 598 222

L598 226

L578 219

Z

M585 205

C556 191 535 175 528 161

C525 154 525 153 525 146

C526 139 526 137 529 132

C538 117 559 102 588 90

L598 85

L598 92

L598 99

L594 101

C587 104 575 114 569 121

C552 139 551 154 566 171

C572 179 581 186 590 192

L598 197

L598 204

C598 207 598 210 597 210

C597 210 591 208 585 205

Z

M591 183

C582 177 574 167 570 160

C567 154 567 146 569 139

C571 132 579 122 589 114

L598 107

L598 127

C598 138 598 156 598 168

L598 188

L591 183

Z

M0 126

L0 107

L7 103

C21 94 42 85 69 76

C87 69 102 63 116 56

C145 42 167 22 170 6

L171 0

L187 0

L202 0

L201 4

C198 27 163 52 104 72

C75 82 50 93 34 104

C18 115 4 130 2 140

C0 145 0 145 0 126

Z

M0 92

L0 85

L8 82

C13 80 21 77 28 75

C73 59 103 42 118 24

C124 16 127 10 128 5

L128 0

L144 0

L159 0

L159 5

C158 12 153 19 145 28

C128 44 102 58 57 73

C41 79 23 86 10 93

L0 98

L0 92

Z

M0 74

L0 69

L7 67

C20 62 42 50 52 44

C63 37 76 24 81 16

C83 12 84 8 85 5

L85 0

L101 0

L116 0

L116 4

C114 19 93 39 64 54

C53 59 34 67 12 74

L0 79

L0 74

Z

M0 56

L0 50

L9 44

C19 38 31 27 36 19

C40 13 41 10 42 3

L43 0

L58 0

L73 0

L73 5

C71 22 45 43 8 60

L0 63

L0 56

Z

M0 20

L0 0

L16 0

L31 0

L30 4

C29 11 24 20 17 27

C11 33 2 40 1 40

C0 40 0 31 0 20

Z

"/>

</svg>

