<?xml version="1.0" standalone="no"?>

<!DOCTYPE svg PUBLIC "-//W3C//DTD SVG 20010904//EN"

 "http://www.w3.org/TR/2001/REC-SVG-20010904/DTD/svg10.dtd">

<svg version="1.0" xmlns="http://www.w3.org/2000/svg"

 width="1007.000000pt" height="548.000000pt" viewBox="0 0 1007.000000 548.000000"

 preserveAspectRatio="xMidYMid meet">

<path fill="#89a8b4" stroke="none" d="
M0 274

L0 0

L504 0

L1007 0

L1007 274

L1007 548

L504 548

L0 548

L0 274

Z

"/>

<path fill="#6f606c" stroke="none" d="
M0 517

C0 490 0 487 2 486

C3 486 9 486 16 485

C31 485 45 487 62 492

C84 499 95 499 111 494

C129 489 136 480 139 457

C141 446 144 440 151 433

C161 423 178 415 189 415

C197 415 211 418 220 421

C235 426 246 434 254 446

C259 452 259 454 256 454

C253 456 242 466 240 472

C234 483 235 497 243 505

C247 510 250 511 268 520

C277 524 282 529 286 537

C291 547 292 547 272 547

L256 547

L254 542

C248 529 231 518 208 514

C187 511 164 515 141 527

C132 531 118 540 112 545

C110 547 108 547 55 547

L0 547

L0 517

Z

M172 545

C181 539 198 536 205 538

C208 539 209 540 209 543

L209 547

L189 547

L169 547

L172 545

Z

M322 542

C305 531 295 519 293 507

C293 502 295 492 299 485

C304 478 317 465 326 460

C331 458 341 453 350 449

C369 441 377 437 382 430

C390 420 392 406 388 397

C384 389 373 379 360 372

C353 369 354 368 364 370

C402 378 416 402 398 427

C392 435 384 440 367 447

C335 461 323 469 316 484

C313 491 312 502 314 510

C317 523 326 536 337 544

L342 547

L335 547

C329 547 328 547 322 542

Z

M357 541

C347 534 339 525 335 517

C333 512 333 510 333 503

C333 495 333 493 335 489

C343 474 359 462 385 454

C392 451 401 448 405 446

C421 438 429 425 428 409

C427 392 415 380 391 368

C377 362 368 358 336 349

C242 322 166 289 127 258

C95 233 84 227 45 217

C28 212 13 204 4 194

L0 189

L0 162

L0 136

L7 129

C18 117 31 112 53 112

C67 112 78 114 97 119

C114 125 120 125 136 125

C153 125 161 123 174 117

C195 108 206 84 198 68

C192 57 181 49 155 39

C130 28 109 16 96 5

L91 0

L159 0

C226 0 226 0 221 2

C197 9 192 28 209 41

C216 46 225 48 237 48

C249 47 257 44 263 38

C269 32 271 27 269 20

C267 12 261 6 249 2

L243 0

L392 0

L541 0

L541 4

C540 11 535 22 529 30

C523 40 514 49 500 59

C487 69 482 74 475 84

C473 87 469 92 466 94

C457 102 434 112 405 119

C381 125 370 126 338 127

C304 128 297 129 276 136

C262 141 235 153 224 160

C190 182 175 215 185 244

C194 268 224 293 259 305

C264 307 275 309 283 311

C322 319 358 330 377 338

C382 339 389 343 394 346

C414 359 444 371 469 377

C498 384 496 384 577 385

C646 386 650 386 658 388

C675 392 688 398 701 409

C720 423 727 444 721 465

C718 476 715 482 707 491

C698 500 687 507 672 514

C656 522 644 526 616 533

C602 536 585 540 578 543

C565 547 565 547 550 547

L536 547

L543 544

C558 539 569 532 576 522

C582 513 583 507 583 494

C583 484 583 482 581 477

C568 450 525 435 472 440

C428 444 398 457 389 478

C376 505 399 527 444 529

C465 530 483 523 490 511

C499 498 487 484 468 484

C459 484 453 486 449 490

C447 492 446 493 446 497

C446 500 447 503 448 504

C448 505 449 507 449 507

C449 509 437 508 431 506

C421 504 416 496 419 489

C422 479 444 466 466 461

C479 459 506 460 518 464

C534 470 541 479 540 493

C539 513 524 527 490 539

C485 541 478 543 476 545

L471 547

L418 547

L365 547

L357 541

Z

M330 51

C348 41 342 19 320 16

C306 14 292 24 292 35

C292 50 313 59 330 51

Z

M619 546

C619 545 634 539 653 534

C717 518 753 498 766 473

C769 465 769 464 770 455

C771 438 765 426 752 413

C743 406 725 396 713 393

C708 392 704 391 704 390

C703 389 723 391 733 393

C764 397 785 409 793 427

C797 433 798 439 798 449

C798 477 783 499 755 513

C743 519 731 523 703 530

C672 537 658 541 650 545

C645 547 643 547 632 547

C625 547 619 547 619 546

Z

M698 546

C705 541 720 537 776 527

C827 518 841 515 856 508

C873 502 882 496 893 486

C903 475 908 466 910 455

C914 433 899 411 870 399

C858 394 848 392 826 390

C794 387 779 384 740 373

C716 366 703 361 691 355

C677 347 665 334 662 325

C657 308 671 283 692 273

C697 271 704 268 708 267

C712 267 726 263 738 259

C767 251 777 249 791 248

C808 247 831 251 847 258

C861 264 874 270 878 273

C884 277 887 283 887 293

C887 303 886 307 882 311

C878 315 874 317 866 318

C859 319 844 318 839 316

C837 315 837 315 840 314

C845 311 847 308 847 300

C847 293 845 289 840 285

C828 276 805 276 787 284

C767 293 761 313 774 327

C781 335 786 337 803 340

C812 341 824 343 831 344

C840 346 846 346 858 346

C875 346 880 345 897 338

C917 328 925 328 948 339

C970 350 982 350 1006 339

C1007 339 1007 342 1007 352

L1007 365

L1003 364

C1001 363 996 363 991 363

C984 363 981 364 977 366

C968 370 963 375 960 381

C952 397 963 412 985 414

C990 414 1000 413 1005 411

C1007 410 1007 411 1007 428

L1007 447

L1000 447

C985 449 967 455 950 465

C944 469 935 475 929 478

C915 486 909 491 905 499

C902 506 901 512 903 521

C906 529 909 536 915 542

L919 547

L807 547

C709 547 696 547 698 546

Z

M941 544

C930 537 922 525 921 514

C920 500 931 489 967 472

C984 463 1007 456 1007 459

C1007 459 1004 461 1001 462

C998 464 990 469 983 473

C976 477 966 483 960 486

C947 492 942 497 938 506

C935 511 935 513 935 518

C935 521 936 525 938 528

C940 533 947 540 954 544

L960 547

L952 547

C946 547 945 547 941 544

Z

M998 536

C983 530 975 510 982 498

C984 495 987 491 990 488

C995 484 1004 477 1006 477

C1007 477 1007 491 1007 508

C1007 542 1008 540 998 536

Z

M808 508

C835 496 851 479 856 457

C860 437 851 420 830 409

L822 405

L831 405

C855 407 875 417 882 431

C887 442 887 455 881 467

C873 485 847 500 811 509

C799 512 798 511 808 508

Z

M0 436

L0 415

L3 411

C10 402 10 391 3 383

L0 379

L0 361

L0 344

L6 340

C9 338 15 333 18 330

C39 313 56 305 83 301

C97 299 124 299 139 302

C160 306 170 309 210 328

C231 339 252 347 283 357

C312 367 324 372 332 380

C340 388 342 392 341 402

C341 409 341 411 338 417

C334 426 326 431 306 436

C300 437 291 439 286 441

L277 444

L267 433

C250 416 235 406 216 399

C204 395 193 393 176 392

C128 390 87 405 70 429

C58 447 35 458 9 458

L0 458

L0 436

Z

M493 366

C478 364 458 356 430 342

C407 331 387 324 334 308

C318 304 302 298 296 296

C266 285 245 269 236 251

C225 228 227 201 243 181

C257 163 282 151 321 145

C326 144 325 144 314 149

C295 156 280 166 269 178

C260 186 255 193 251 203

C248 212 247 230 250 240

C258 266 287 288 329 298

C332 299 341 301 350 302

C412 313 449 327 483 353

C488 357 495 361 500 364

C508 368 508 368 504 368

C502 368 497 367 493 366

Z

M613 355

C588 350 572 340 567 328

C565 324 565 321 565 315

C566 298 579 286 601 280

C611 277 646 276 648 278

C649 279 649 279 648 279

C645 279 630 286 623 290

C613 296 604 304 601 311

C599 316 598 326 601 333

C603 341 611 350 621 356

C622 357 622 357 621 357

C619 357 616 356 613 355

Z

M539 352

C532 351 517 347 509 343

C498 338 489 333 478 325

C467 316 458 311 446 306

C435 301 413 294 397 289

C362 279 338 260 327 234

C324 226 322 216 322 210

C322 188 342 163 370 153

C380 149 388 147 403 146

C440 143 457 139 490 123

C511 113 516 112 535 112

C558 112 572 116 588 126

C593 130 603 135 609 138

C615 141 621 144 622 146

C628 152 632 161 630 169

C628 176 624 180 616 185

C612 187 604 191 598 195

C586 202 585 202 579 203

C572 203 564 201 560 198

L558 196

L561 194

C566 191 572 185 574 182

C577 174 574 161 566 154

C560 148 555 146 544 147

C535 147 533 147 529 149

C526 151 520 155 516 159

C507 168 501 172 491 173

C478 175 474 177 469 182

C458 193 460 206 474 213

C479 216 483 217 504 219

C515 220 520 222 533 231

C544 239 548 241 556 242

C573 245 592 239 610 224

C623 212 638 206 660 202

C683 198 697 192 707 182

L711 177

L720 179

C730 182 748 183 757 181

C768 179 788 173 795 170

C807 164 818 156 828 146

C846 127 851 111 843 93

C833 73 806 62 774 64

C751 66 732 77 724 92

C719 103 721 112 731 121

C744 133 762 134 776 123

C781 119 783 114 783 110

C782 108 780 104 778 101

L774 97

L779 97

C786 98 794 102 799 106

C810 117 808 131 795 144

C785 155 774 160 757 162

C748 163 734 162 724 160

C720 159 720 159 720 155

C720 152 719 149 718 146

C712 133 684 119 664 119

C651 119 631 114 616 108

C612 106 604 102 599 99

C593 95 585 91 580 90

C569 86 552 83 535 82

L521 81

L529 73

C536 65 539 64 548 59

C558 54 567 52 593 46

C614 41 629 26 635 6

L636 0

L809 0

L981 0

L984 4

C994 16 1003 35 1005 48

C1008 65 1000 81 985 93

C973 101 959 107 934 114

C915 120 903 125 893 132

C874 145 865 160 865 178

C865 199 877 218 900 232

C911 239 923 243 941 246

C960 249 969 252 978 256

C986 261 991 265 995 272

C997 276 997 278 997 285

C996 299 989 309 977 315

C971 318 970 318 963 318

C957 318 953 318 951 317

L947 315

L950 309

C954 299 955 294 952 288

C947 279 943 276 913 263

C892 254 872 245 864 239

C840 225 812 221 776 227

C761 230 748 234 731 242

C704 255 688 257 642 255

C611 254 602 254 585 259

C564 264 549 272 536 284

C527 293 524 300 522 310

C520 325 528 340 543 350

C547 353 547 353 544 353

C543 353 540 353 539 352

Z

M0 312

C0 309 1 304 2 302

C4 296 4 280 2 275

C0 270 -1 246 1 246

C4 246 14 252 18 256

C23 260 27 269 28 277

C30 288 24 301 14 309

C8 313 2 317 1 317

C0 317 0 315 0 312

Z

M333 283

C310 277 293 267 283 253

C277 245 274 239 272 229

C269 211 274 195 287 182

C296 172 309 164 323 160

C334 156 335 156 327 162

C300 180 287 199 287 219

C287 244 305 267 335 282

C343 285 343 286 333 283

Z

M1000 248

C991 244 979 241 958 237

C949 235 938 232 934 231

C914 224 900 213 893 199

C890 193 890 192 890 180

C890 168 890 167 893 161

C898 151 908 142 922 138

L927 136

L920 143

C916 148 913 153 910 158

C907 165 907 166 907 174

C907 181 907 182 910 188

C914 196 928 209 938 215

C950 222 960 225 981 228

C989 229 998 231 1001 231

L1007 232

L1007 242

C1007 248 1007 252 1007 252

C1007 252 1003 250 1000 248

Z

M1 224

C0 223 1 223 3 224

C4 225 4 225 3 225

C2 225 1 225 1 224

Z

M997 212

C967 205 949 194 944 178

C939 161 944 143 960 127

C965 122 970 120 984 113

C993 108 1002 103 1004 102

L1007 100

L1007 105

L1007 110

L998 114

C977 124 963 147 966 166

C967 173 972 182 977 189

C982 194 993 202 1002 206

C1006 209 1007 210 1007 212

C1007 214 1006 215 997 212

Z

M0 98

C0 89 0 88 3 82

C8 73 9 67 9 56

C8 46 8 45 4 37

C0 28 0 28 0 18

L0 7

L4 9

C10 12 26 29 29 35

C35 46 36 57 33 70

C31 80 27 88 22 94

C17 98 4 108 1 108

C0 108 0 106 0 98

Z

M567 37

C576 32 585 20 589 7

L591 0

L601 0

L611 0

L611 5

C610 11 605 20 600 25

C594 29 581 35 572 37

C563 40 562 39 567 37

Z

"/>

</svg>

