<?xml version="1.0" standalone="no"?>

<!DOCTYPE svg PUBLIC "-//W3C//DTD SVG 20010904//EN"

 "http://www.w3.org/TR/2001/REC-SVG-20010904/DTD/svg10.dtd">

<svg version="1.0" xmlns="http://www.w3.org/2000/svg"

 width="968.000000pt" height="900.000000pt" viewBox="0 0 968.000000 900.000000"

 preserveAspectRatio="xMidYMid meet">

<path fill="#d4d9cb" stroke="none" d="
M0 450

L0 0

L484 0

L968 0

L968 450

L968 900

L484 900

L0 900

L0 450

Z

"/>

<path fill="#61aa96" stroke="none" d="
M0 876

L0 853

L5 853

C24 856 33 856 52 856

C80 856 96 854 119 848

C144 841 168 830 187 815

C200 805 230 774 238 763

C250 745 258 724 262 702

C265 686 264 659 261 644

C260 639 259 634 259 634

C260 633 272 650 276 659

C286 677 290 694 291 720

C292 756 285 785 269 808

C259 824 238 842 217 855

C185 874 139 889 88 898

C77 900 72 900 38 900

L0 900

L0 876

Z

M203 896

C221 889 237 881 251 872

C255 870 258 869 258 871

C258 875 272 877 298 877

C321 877 331 876 348 871

C369 864 385 855 401 839

C421 818 432 797 437 768

C440 751 439 727 436 714

C433 703 429 695 425 688

L421 683

L425 683

C435 685 452 695 462 704

C479 719 488 739 490 764

C493 792 485 813 465 834

C430 868 366 887 300 883

C290 882 282 882 281 882

C279 884 293 887 315 888

C350 890 389 885 419 873

C463 857 492 828 501 794

C503 784 503 760 501 749

C497 731 489 715 478 705

C475 702 472 700 473 700

C475 700 487 704 493 707

C519 720 534 742 537 772

C540 798 532 820 514 838

C485 867 421 889 364 889

C352 889 348 890 354 892

C355 892 367 892 380 892

C399 892 406 892 418 890

C461 883 496 868 520 846

C533 833 541 820 546 803

C548 793 548 767 545 756

C541 740 535 728 525 717

C522 714 520 712 521 712

C522 712 536 720 542 723

C560 735 573 755 577 775

C579 784 579 796 577 804

C571 838 527 876 468 897

L462 900

L327 900

L193 900

L203 896

Z

M488 897

C524 883 558 859 574 838

C585 824 589 811 589 792

C589 761 579 736 559 722

C554 718 555 718 566 721

C579 725 588 730 598 740

C605 747 607 750 611 757

C617 770 618 776 618 789

C617 798 617 803 615 809

C607 834 587 864 562 890

L552 900

L516 900

L481 900

L488 897

Z

M573 889

C597 864 610 845 619 825

C629 803 631 779 626 764

C624 759 622 753 620 750

C618 747 617 745 617 744

C617 744 619 746 622 748

C634 759 640 770 641 786

C641 795 640 801 636 819

C634 829 634 847 637 856

C640 869 646 879 655 889

C660 893 665 897 666 898

C668 900 665 900 615 900

L562 900

L573 889

Z

M677 895

C654 878 643 849 650 821

C651 816 653 808 653 803

C654 794 655 793 656 795

C656 796 660 800 663 803

C666 807 668 811 668 812

C668 816 684 831 699 839

C714 847 734 854 753 856

C766 858 796 857 811 854

C893 839 950 791 966 725

L968 715

L968 807

L968 900

L826 900

L683 900

L677 895

Z

M276 871

C267 871 265 869 273 869

C286 869 308 863 325 855

C359 838 387 805 397 771

C407 738 401 699 383 678

L379 674

L382 674

C386 676 396 682 402 687

C412 696 420 710 424 726

C429 748 423 784 411 808

C397 836 365 859 326 867

C316 870 292 872 287 872

C285 872 281 871 276 871

Z

M277 852

C302 829 314 805 317 773

C319 757 318 725 315 712

C313 700 307 684 303 676

C295 659 279 641 264 631

C256 625 255 625 253 618

C245 598 228 579 210 570

C190 560 161 556 140 561

C124 565 107 575 96 588

C91 595 84 609 81 619

C80 624 80 629 80 640

C80 652 80 656 82 662

C87 679 97 690 111 695

C114 696 117 698 119 699

C120 700 120 700 119 702

C117 703 115 703 108 703

C89 702 68 689 58 671

C50 659 46 640 47 623

C50 587 70 562 107 546

C120 540 128 538 156 534

C187 529 199 527 214 523

C273 506 302 472 302 419

C302 413 301 404 300 399

C299 390 299 385 303 378

C307 371 314 364 321 360

C332 356 346 357 351 364

C352 365 352 365 350 367

C346 370 342 376 342 382

C341 387 343 395 347 400

C356 411 374 411 383 400

C387 396 390 390 390 386

C390 385 391 384 391 384

C394 384 408 400 410 406

C412 409 413 412 413 412

C413 413 410 412 407 411

C401 410 397 410 391 414

C379 421 376 438 386 449

C394 458 410 460 423 454

L428 451

L431 457

C433 461 434 463 437 464

C443 467 446 466 450 464

C455 460 458 454 458 445

C458 439 459 437 462 430

C468 416 472 396 471 379

C471 360 465 344 455 330

C453 327 451 324 451 324

C452 324 459 326 468 330

C501 341 513 348 527 362

C537 372 542 380 546 393

C554 417 549 441 533 458

C525 467 522 469 508 469

C495 470 485 471 476 474

C471 475 463 475 449 475

C427 476 419 477 403 482

C370 492 344 515 332 546

C322 575 322 611 334 635

C339 645 352 663 363 676

C374 688 377 693 381 701

C397 736 388 783 358 818

C339 840 311 855 280 860

C266 863 266 863 277 852

Z

M751 849

C733 847 716 842 702 835

C693 830 680 822 677 819

C676 818 678 819 682 821

C700 835 718 843 741 845

C783 850 828 826 851 787

C866 761 869 729 856 706

C847 688 832 680 818 684

C812 686 804 693 802 698

L800 703

L800 698

C800 692 799 688 795 684

C791 680 783 678 778 679

C773 679 772 678 767 671

C749 642 763 606 799 589

C812 584 823 582 838 582

C865 582 886 591 906 611

C943 651 947 714 916 759

C901 780 879 801 848 822

C834 832 833 833 833 836

C834 837 833 838 823 841

C796 849 773 851 751 849

Z

M32 847

C19 846 6 845 3 844

L0 844

L0 804

L0 765

L6 771

C21 784 53 801 76 809

C108 820 143 821 171 812

C175 811 179 810 179 810

C179 811 164 821 155 825

C136 835 113 842 90 845

C77 847 43 848 32 847

Z

M856 826

C885 808 908 786 924 763

C930 753 938 737 941 727

C946 711 947 704 947 683

C947 664 946 657 941 639

C941 638 941 637 942 637

C943 637 949 651 951 660

C957 684 955 714 944 739

C940 751 938 755 931 765

C914 792 890 812 859 827

C852 830 846 833 845 833

C845 833 850 830 856 826

Z

M738 831

C723 828 709 822 695 812

C681 804 671 793 660 777

C626 729 610 719 542 705

C468 690 437 679 416 658

C404 647 397 636 393 620

C391 612 391 608 391 595

C391 578 392 571 397 557

C407 529 431 505 461 492

C479 484 496 481 523 481

C546 481 563 484 579 493

C617 512 636 558 620 593

C610 613 582 619 570 604

C566 600 565 593 567 589

C568 588 570 586 572 585

C574 583 575 583 578 584

C580 585 583 587 585 589

L588 592

L591 590

C597 587 602 580 604 574

C607 566 607 553 604 545

C597 528 585 519 567 518

C560 518 556 518 551 519

C519 528 496 565 500 602

C502 618 505 622 505 609

C505 589 513 565 525 553

C537 540 551 536 564 541

C569 544 572 547 573 552

C573 557 572 561 569 561

C562 561 549 573 544 583

C542 588 542 590 542 598

C542 606 542 607 545 613

C552 628 567 636 584 635

C604 633 621 620 631 600

C649 566 638 525 606 496

C599 491 602 491 613 497

C641 514 658 552 654 590

C649 635 620 672 581 683

C570 686 550 686 540 684

C531 681 523 678 516 674

C509 670 496 658 490 650

C484 641 476 625 473 614

C471 605 471 602 471 586

C470 562 474 547 484 530

C489 521 501 509 510 504

C519 498 534 494 545 492

C557 490 558 490 558 489

C558 488 555 488 548 488

C508 491 479 513 466 550

C456 581 459 618 476 645

C496 679 535 699 572 694

C619 688 654 651 663 600

C665 588 664 562 661 550

C657 532 650 516 640 504

L633 495

L637 485

C639 479 642 470 644 464

C648 447 648 422 643 410

C643 408 650 415 658 423

C667 432 677 441 681 444

C691 451 704 457 715 461

C725 464 733 470 747 481

C758 490 765 500 770 510

C774 518 775 519 775 527

C775 536 774 537 771 544

C769 549 765 554 761 558

L756 564

L745 566

C720 571 698 583 679 601

C656 625 644 653 642 687

C642 703 643 716 649 731

C655 750 664 764 679 778

C686 785 690 788 698 792

C714 800 721 801 740 801

C757 801 765 800 778 794

C796 784 808 768 808 752

C808 740 806 734 799 727

C791 721 784 720 776 723

C767 727 763 737 766 747

L768 751

L761 757

C735 782 693 772 675 735

C667 717 664 702 664 681

C665 652 677 626 698 605

C717 585 743 574 773 571

C790 569 802 565 816 559

C837 549 847 533 846 515

C844 495 825 480 790 469

C783 467 781 466 783 466

C784 465 790 464 795 463

C853 453 896 410 904 355

C907 335 904 309 897 292

C888 272 873 257 853 250

C845 248 843 248 832 248

C817 248 811 249 802 255

C785 266 780 290 794 298

C798 301 804 301 809 299

C812 297 817 290 818 285

C820 275 836 273 850 280

C859 284 868 294 873 303

C882 322 883 348 876 370

C865 406 833 435 788 450

C774 455 763 457 749 458

C732 459 721 456 703 448

C686 440 677 433 652 407

C636 390 617 372 613 368

C598 358 584 352 555 345

C522 336 512 332 503 323

C484 305 480 279 493 252

C497 242 505 231 514 222

C536 200 591 173 668 146

C678 143 686 140 687 140

C687 140 684 143 679 146

C637 176 611 214 604 258

C602 273 603 301 606 317

C610 331 612 338 618 351

C626 367 638 383 653 395

C668 408 685 417 704 422

C717 425 737 425 748 422

C776 415 793 396 797 367

C799 353 797 332 792 321

C789 315 784 310 779 307

C771 304 762 308 757 315

C754 320 753 326 755 334

C758 346 758 353 757 361

C754 374 746 383 733 387

C705 396 663 369 645 330

C635 309 632 292 632 270

C632 252 632 246 637 231

C648 196 673 164 713 135

C720 129 722 129 736 125

C773 114 799 110 853 105

C909 100 942 83 963 50

L968 42

L968 97

C968 127 968 152 968 152

C967 152 960 149 951 146

C874 117 817 114 775 134

C751 145 737 159 727 179

C722 191 720 199 719 214

C718 240 726 263 743 283

C750 291 755 295 762 296

C766 297 767 297 772 295

C785 288 784 276 770 261

C752 241 746 221 750 200

C754 181 771 163 791 155

C823 142 864 155 898 188

C911 202 920 214 928 231

C944 264 948 295 939 334

C932 365 916 400 901 416

C892 424 889 431 887 440

C880 467 894 489 923 500

C932 504 951 508 961 510

L968 510

L968 589

L968 669

L966 659

C960 636 953 623 943 618

C940 616 936 615 934 615

C931 615 930 614 926 609

C915 594 901 582 883 573

C868 566 856 563 838 562

C816 562 801 565 782 573

C754 587 737 607 729 636

C726 649 726 668 729 679

C733 696 743 710 757 716

C763 719 764 720 773 720

C780 720 783 719 786 718

C791 715 797 710 798 706

C799 703 800 703 800 710

C800 715 802 719 803 722

C806 729 814 733 822 733

C827 733 828 735 831 746

C838 775 815 813 783 827

C771 832 753 833 738 831

Z

M118 806

C117 806 111 806 107 805

C68 800 26 779 5 755

L0 750

L0 637

L0 525

L11 513

C36 487 60 472 116 444

C133 436 150 427 155 424

C165 417 180 402 187 391

C193 382 197 370 200 358

C202 348 201 325 199 316

C190 286 171 263 142 249

C128 243 118 241 104 241

C93 241 92 242 85 245

C80 248 78 249 76 253

C72 262 75 274 84 283

C89 288 91 288 91 281

C91 275 94 269 98 266

C105 260 125 258 137 262

C154 266 172 280 181 297

L184 303

L182 313

C175 345 161 369 138 386

C125 396 118 399 75 414

C50 422 28 431 11 439

L0 444

L0 396

L0 349

L6 350

C9 350 17 350 23 350

C41 350 54 345 64 334

C74 324 78 311 77 295

C76 281 72 269 63 258

C55 248 51 249 56 259

C59 268 60 282 58 290

C54 301 47 309 37 313

C29 316 16 315 5 311

L0 308

L0 256

L0 203

L4 200

C6 198 12 193 18 189

C50 166 60 151 59 128

C58 113 49 101 35 94

C29 91 27 91 19 90

C11 90 9 90 5 92

L0 94

L0 86

C0 78 0 78 3 77

C8 75 24 75 33 76

C56 82 80 96 104 120

C123 139 138 159 152 184

C160 198 166 208 168 211

C169 212 165 210 158 206

C141 194 123 186 106 183

C97 181 75 182 66 185

C54 188 37 197 29 204

C10 219 2 236 3 256

C4 269 7 276 14 282

C30 297 50 290 52 269

C53 255 49 249 45 257

C39 266 28 269 25 262

C22 254 27 241 36 232

C43 225 55 218 66 216

C88 210 117 214 145 228

C165 238 182 251 204 272

C251 316 281 362 288 400

C290 411 290 429 288 439

C283 465 268 482 239 493

C226 499 199 506 179 511

C131 521 113 526 94 535

C61 551 40 575 33 605

C30 616 30 636 32 646

C40 676 61 701 86 709

C109 717 132 713 143 700

C145 698 148 695 149 693

C160 684 163 678 164 667

C164 657 163 656 156 661

C145 668 138 667 127 659

C117 651 115 631 122 615

C130 599 144 590 165 589

C198 588 224 608 236 646

C242 662 243 673 243 693

C242 715 239 729 229 747

C212 781 183 801 146 806

C138 807 123 807 118 806

Z

M393 663

C386 661 377 657 374 656

C357 648 345 631 340 609

C338 599 338 578 340 567

C348 532 372 505 408 493

C416 490 432 487 438 487

C440 487 438 489 431 493

C397 517 378 552 378 591

C378 622 386 645 403 663

C405 666 407 668 406 668

C406 668 400 666 393 663

Z

M768 562

C769 562 771 558 773 555

C780 545 782 539 781 528

C781 516 780 510 774 500

C769 492 759 480 750 473

L742 467

L746 467

C751 468 766 475 776 481

C786 488 794 497 798 505

C801 511 802 512 802 522

C802 533 801 534 798 540

C794 548 787 556 780 559

C774 562 767 564 768 562

Z

M798 555

C806 545 810 534 809 519

C808 510 808 508 805 502

C801 493 793 484 785 478

C781 476 779 474 779 474

C780 474 784 475 788 477

C817 486 831 495 837 508

C839 512 839 514 839 520

C838 535 826 547 806 555

C793 560 793 560 798 555

Z

M0 482

L1 454

L8 450

C27 440 49 431 90 418

C104 413 118 407 122 405

C153 390 174 365 185 331

C188 322 189 321 189 323

C190 328 190 350 189 357

C185 374 176 391 164 403

C154 412 149 415 114 433

C58 462 32 479 9 502

L0 510

L0 482

Z

M957 499

C926 493 905 480 900 463

C898 455 899 444 902 436

C906 428 913 422 929 412

C936 408 948 400 955 396

C962 391 967 387 968 387

C968 387 968 391 968 397

L968 407

L964 408

C948 413 933 423 928 435

C925 441 925 442 925 451

C925 461 925 462 927 467

C933 477 943 485 959 490

L968 493

L968 497

C968 502 968 502 957 499

Z

M622 487

C617 484 606 478 600 477

C597 476 595 476 595 475

C595 475 596 472 598 469

C605 452 609 436 609 421

C609 400 602 382 588 367

C583 361 584 361 595 367

C611 375 625 389 632 402

C638 415 639 421 639 437

C639 449 639 452 636 462

C633 474 627 490 626 490

C626 490 624 489 622 487

Z

M956 478

C949 475 942 470 938 465

C936 462 935 459 935 454

C935 445 938 438 944 432

C949 427 959 421 965 420

L968 420

L968 450

L968 480

L965 480

C964 480 960 479 956 478

Z

M560 472

C557 472 550 470 545 470

C540 469 536 468 536 468

C536 467 536 467 537 467

C538 467 548 454 551 448

C559 431 561 412 556 395

C552 384 548 375 543 367

C539 361 527 349 522 346

C520 345 519 344 519 343

C520 343 526 345 533 347

C540 349 550 352 554 353

C563 356 574 363 582 372

C590 380 594 387 598 397

C601 405 601 406 601 421

C601 439 600 445 592 464

L587 474

L576 474

C569 474 562 473 560 472

Z

M440 457

C437 456 435 450 435 447

C435 445 436 442 438 440

C439 438 441 435 441 433

C444 423 443 423 446 427

C455 442 451 463 440 457

Z

M803 453

C831 441 852 425 866 406

C887 378 893 342 883 310

C876 285 852 266 832 268

C819 269 813 274 810 283

C809 289 805 293 802 293

C796 293 792 287 794 278

C799 252 843 246 871 268

C901 292 907 352 883 395

C869 420 842 441 812 451

C803 454 798 455 803 453

Z

M398 447

C392 445 390 443 389 437

C387 431 390 423 396 420

C401 418 407 419 412 423

C420 429 423 427 422 416

C421 403 411 388 396 377

C392 374 389 372 389 371

C389 371 388 368 387 365

C385 361 384 358 385 358

C388 358 412 375 419 382

C430 394 435 405 435 419

C435 431 430 440 420 446

C414 449 403 450 398 447

Z

M452 423

C451 421 448 418 447 415

C444 413 443 410 441 405

C436 382 418 366 368 339

C343 326 329 316 314 304

C289 282 271 257 264 231

C259 213 261 191 268 174

C274 161 285 147 297 139

L301 136

L296 144

C285 160 280 176 281 196

C282 218 289 235 303 253

C321 275 349 290 387 300

C431 311 455 332 461 364

C463 374 463 392 462 403

C460 412 456 425 455 426

C455 427 453 425 452 423

Z

M709 415

C669 406 633 374 618 333

C612 315 608 290 609 273

C612 235 626 206 655 177

C662 170 668 164 667 166

C667 167 665 168 664 170

C660 173 648 190 643 199

C634 214 628 230 625 246

C623 258 624 287 626 298

C631 316 639 337 649 351

C656 361 669 375 680 382

C700 395 720 399 736 394

C744 391 748 388 754 383

C764 371 767 356 763 335

C761 325 761 320 766 316

C769 313 776 313 780 317

C787 323 790 334 790 354

C791 369 789 376 784 387

C772 410 741 422 709 415

Z

M927 389

C938 368 945 346 949 323

C950 318 950 308 950 296

C950 280 950 275 948 266

C941 233 925 205 900 181

C889 170 881 163 869 157

C863 154 862 153 865 154

C874 155 894 163 909 170

C926 178 944 190 959 202

L968 209

L968 289

L968 370

L957 377

C946 385 922 401 922 401

C922 401 924 395 927 389

Z

M358 398

C354 395 350 389 350 384

C350 381 353 376 356 373

C363 369 363 368 363 366

C362 362 354 354 350 352

C341 347 328 348 317 353

C310 356 301 365 298 370

C297 373 295 375 295 375

C295 375 293 371 292 367

C282 340 260 306 237 278

C229 268 227 265 220 250

C204 215 187 186 168 157

C125 92 85 61 36 55

C26 54 7 54 2 56

C0 56 0 56 0 51

L0 46

L5 46

C31 46 60 31 81 7

L86 0

L115 0

C130 0 143 0 143 1

C143 1 141 5 138 10

C132 23 131 30 131 46

C131 58 131 60 133 68

C137 78 142 86 150 95

C153 99 157 104 159 107

C169 120 212 195 223 217

C231 233 233 236 233 231

C233 223 217 191 186 136

C172 109 170 105 166 94

C164 87 164 84 164 72

C164 60 164 56 166 50

C170 35 180 16 190 5

L194 0

L230 0

L265 0

L270 5

C279 13 283 25 281 37

C280 40 279 45 278 46

C272 59 258 66 247 63

C239 61 234 54 237 49

C238 48 242 45 246 43

C257 37 262 31 261 22

C259 11 250 4 237 3

C220 2 203 12 194 29

C187 40 185 61 189 76

C193 94 208 110 229 119

C242 124 253 125 268 125

C281 124 288 123 298 118

C302 117 306 116 308 115

C324 113 332 111 332 110

C331 109 331 107 331 106

L330 103

L324 105

C320 105 310 106 301 107

C286 107 282 107 274 105

C255 101 243 93 235 79

C232 74 229 64 230 63

C231 63 232 64 233 66

C239 72 252 74 262 71

C268 69 276 64 281 58

C292 44 293 20 282 5

L278 0

L429 0

L580 0

L592 6

C603 12 626 26 628 28

C628 28 625 28 621 26

C609 22 587 17 571 15

C552 12 526 12 512 14

C480 20 459 33 444 56

C437 67 435 75 434 89

C434 104 436 113 442 126

L447 135

L442 131

C412 106 362 100 326 117

C322 119 317 121 317 121

C316 121 311 122 307 124

C282 131 263 147 252 168

C248 175 245 188 244 199

C241 223 248 247 264 269

C270 278 288 296 300 305

C313 316 338 332 354 341

C370 350 370 350 374 357

C383 371 384 385 378 393

C373 400 365 402 358 398

Z

M5 343

L0 342

L0 329

C0 317 0 316 2 317

C14 321 30 323 39 320

C53 314 64 299 65 282

C65 279 66 276 66 276

C68 276 70 287 71 295

C72 320 60 337 37 342

C30 344 13 344 5 343

Z

M462 319

C434 309 427 306 413 298

C389 284 372 265 365 246

C360 231 358 214 362 199

C371 162 400 144 449 144

C470 144 486 146 521 154

C536 158 554 160 576 161

C587 161 594 162 595 163

C595 163 588 167 580 171

C517 202 487 229 477 267

C475 275 475 279 475 290

C475 305 477 313 483 322

C485 325 487 327 486 327

C486 327 475 323 462 319

Z

M374 287

C351 280 333 269 320 256

C301 236 293 218 293 196

C293 158 313 132 350 120

C358 118 360 118 376 118

C391 118 395 118 402 120

C412 123 423 127 430 132

L434 135

L425 137

C405 141 390 147 378 157

C362 170 352 194 352 218

C352 242 361 263 380 282

C384 287 388 291 387 291

C386 291 380 289 374 287

Z

M759 287

C754 284 746 275 740 267

C731 252 726 236 726 217

C726 205 728 197 732 186

C740 166 757 149 780 139

C822 122 879 126 956 155

L968 159

L968 179

C968 190 968 199 967 199

C967 199 964 196 959 193

C934 172 900 155 871 148

C853 143 847 142 826 143

C802 143 796 144 781 152

C769 158 755 171 750 182

C744 193 743 199 743 213

C743 234 749 248 766 267

C774 277 776 282 771 287

C768 290 763 290 759 287

Z

M207 251

C193 236 177 214 162 188

C144 156 128 134 110 116

C77 83 40 65 11 69

C7 70 3 70 2 71

C0 71 0 71 0 67

C0 64 0 62 1 62

C1 62 6 62 10 61

C33 58 60 64 82 77

C97 85 106 92 122 109

C147 134 167 163 191 207

C202 227 214 254 213 255

C212 257 211 256 207 251

Z

M0 190

C0 187 1 186 9 181

C21 172 33 160 37 153

C39 147 39 146 39 138

C39 130 39 128 37 123

C33 116 29 112 22 109

C18 107 16 107 9 107

L0 108

L0 105

C0 99 12 95 23 97

C38 100 49 110 52 124

C53 131 53 134 51 142

C48 154 38 166 20 179

C14 183 8 188 5 190

C3 192 1 193 0 193

C0 193 0 192 0 190

Z

M0 174

C0 171 0 170 3 169

C9 167 16 161 19 154

C23 146 24 125 20 117

C19 113 26 118 29 123

C40 139 33 155 7 174

C4 176 1 178 1 178

C0 178 0 176 0 174

Z

M0 159

C0 153 0 153 3 153

C5 152 8 151 10 149

C15 146 15 146 14 150

C13 154 7 161 3 163

L0 164

L0 159

Z

M570 152

L564 152

L562 147

C552 129 552 110 561 93

C570 73 588 61 613 58

C620 57 623 57 631 58

C657 63 676 82 687 116

C689 121 690 126 689 126

C689 126 682 129 674 132

C666 135 659 137 658 138

C656 138 656 137 656 130

C656 111 648 98 634 91

C627 88 616 88 609 91

C599 96 591 105 587 117

C584 125 584 138 587 147

L589 153

L583 153

C579 153 574 152 570 152

Z

M595 148

C586 129 596 103 614 97

C626 93 640 100 646 113

C648 119 650 132 649 138

C648 141 648 142 634 147

C621 152 620 152 609 153

L597 153

L595 148

Z

M541 150

C526 147 526 147 524 144

C522 138 519 125 519 115

C519 100 524 84 534 72

C549 51 580 40 622 40

C636 40 637 40 643 43

C647 44 650 46 651 47

C652 49 652 49 641 48

C621 47 601 51 585 59

C577 63 574 65 567 72

C561 78 558 81 555 89

C549 101 548 105 548 118

C548 128 550 140 554 147

L556 151

L553 151

C551 151 546 150 541 150

Z

M0 131

C0 122 0 115 1 115

C1 115 3 115 6 114

C11 113 11 113 14 118

C16 122 17 130 15 135

C13 138 6 146 4 146

C4 146 2 146 2 147

C0 147 0 145 0 131

Z

M511 143

C508 142 502 141 497 140

L489 138

L487 133

C484 124 482 113 482 103

C482 60 515 34 580 27

C589 26 590 26 601 29

C613 32 614 33 604 33

C590 33 570 38 555 45

C546 50 543 52 535 59

C528 67 525 70 522 78

C515 92 513 100 513 116

C513 126 513 130 515 136

C516 141 517 144 517 144

C517 145 514 144 511 143

Z

M466 136

L456 135

L452 127

C445 115 442 106 441 94

C441 83 442 75 448 64

C458 43 478 29 505 23

C516 21 535 20 548 21

C561 21 561 22 547 25

C525 30 509 38 496 51

C487 60 482 68 478 81

C476 88 476 90 476 104

C476 117 476 121 478 128

C480 137 480 137 478 137

C477 137 472 136 466 136

Z

M697 123

C687 89 676 72 654 58

C653 57 653 57 657 58

C663 58 664 59 672 66

C695 85 724 99 751 104

L760 106

L754 107

C746 109 713 119 704 121

C699 123 697 124 697 123

Z

M254 116

C237 114 221 107 211 97

C199 86 195 77 195 60

C195 43 200 31 210 22

C217 15 225 12 233 12

C245 12 252 16 252 24

C252 29 249 32 241 36

C234 39 228 44 225 51

C222 57 222 68 224 76

C232 95 247 108 270 113

L279 115

L274 116

C267 117 262 117 254 116

Z

M843 95

C843 94 844 94 844 94

C846 94 861 85 868 79

C895 59 916 28 918 6

L918 0

L943 0

C966 0 968 0 968 2

C968 6 960 28 955 38

C936 73 910 89 861 94

C854 95 847 95 846 95

C844 96 843 95 843 95

Z

M769 94

C768 94 764 94 760 93

C750 91 738 88 728 82

C719 78 713 73 717 74

C738 80 757 82 772 80

C810 76 838 59 851 33

C856 23 858 17 860 4

L860 0

L877 0

L895 0

L894 4

C890 33 863 68 832 84

C816 92 804 95 785 95

C777 95 770 95 769 94

Z

M151 84

C147 80 141 66 139 57

C136 42 140 24 149 7

L153 0

L168 0

C179 0 182 0 181 1

C181 2 178 6 175 11

C161 32 155 51 155 74

C155 80 155 85 154 85

C154 86 152 85 151 84

Z

M750 71

C730 69 709 64 690 56

C675 50 666 45 651 33

C638 23 623 12 611 5

L603 0

L727 0

L852 0

L852 6

C850 21 845 32 835 42

C821 58 797 69 773 71

C767 72 762 72 761 72

C760 72 755 71 750 71

Z

M0 18

L0 0

L34 0

L68 0

L64 4

C50 22 23 36 4 36

L0 36

L0 18

Z

"/>

</svg>

