<?xml version="1.0" standalone="no"?>

<!DOCTYPE svg PUBLIC "-//W3C//DTD SVG 20010904//EN"

 "http://www.w3.org/TR/2001/REC-SVG-20010904/DTD/svg10.dtd">

<svg version="1.0" xmlns="http://www.w3.org/2000/svg"

 width="1253.000000pt" height="812.000000pt" viewBox="0 0 1253.000000 812.000000"

 preserveAspectRatio="xMidYMid meet">

<path fill="#d3d4c7" stroke="none" d="
M0 406

L0 0

L627 0

L1253 0

L1253 406

L1253 812

L627 812

L0 812

L0 406

Z

"/>

<path fill="#577a8e" stroke="none" d="
M0 803

L0 793

L4 792

C9 791 16 784 19 779

C21 775 21 773 21 767

C21 759 21 758 18 753

C15 747 7 740 3 739

L0 739

L0 714

C0 699 0 689 1 689

C3 689 17 694 23 697

C40 706 56 720 62 732

C73 754 68 783 51 802

C42 812 42 812 20 812

L0 812

L0 803

Z

M51 808

C65 796 73 772 72 752

C70 733 61 718 43 705

C33 698 16 689 7 686

L0 685

L0 669

L0 653

L3 654

C11 655 29 662 35 664

C39 666 42 667 43 667

C43 667 45 666 47 664

C52 659 58 657 65 656

C71 656 73 656 78 659

C82 661 86 664 88 666

L92 670

L97 668

C104 666 111 668 119 673

C122 675 127 677 129 678

C133 678 139 676 142 673

C144 672 144 672 145 676

C147 682 147 692 145 696

C143 700 138 704 133 706

L129 707

L131 711

C131 714 132 719 132 722

C132 732 129 737 121 741

C117 743 112 744 109 745

L103 745

L103 757

C103 775 98 794 90 808

L88 812

L67 812

L47 812

L51 808

Z

M95 807

C102 793 107 774 107 758

C107 749 107 748 112 748

C116 748 124 744 128 741

C135 735 137 727 136 715

L135 709

L139 707

C147 703 152 692 151 683

C150 678 146 666 145 666

C145 665 143 667 141 669

C139 670 136 673 134 673

C129 674 130 675 118 668

C112 664 104 663 98 664

C94 665 94 665 89 661

C80 654 74 652 65 652

C57 653 52 655 45 660

L42 662

L34 659

C27 656 16 653 4 650

L0 649

L0 561

L0 472

L14 463

C57 434 96 420 150 412

C168 410 208 410 224 412

C282 422 327 455 341 498

C353 534 345 568 318 594

C304 609 286 618 266 623

C255 625 233 624 222 621

C202 616 186 604 180 591

C171 572 173 554 184 542

C191 534 205 528 214 530

L217 531

L212 536

C205 545 202 557 206 566

C209 571 214 578 219 580

C227 584 242 584 250 580

C263 573 270 556 266 541

C264 536 264 536 266 534

C267 533 269 530 271 527

C276 517 274 505 267 495

C259 484 242 480 230 487

C227 488 226 488 226 486

C223 482 213 473 209 472

C202 470 192 470 186 472

C180 474 171 482 168 488

L166 492

L163 490

C157 483 143 481 132 483

C128 484 123 486 117 490

C111 494 105 497 102 499

C94 501 94 504 100 506

C109 510 115 519 115 527

C115 529 114 535 112 542

C111 549 110 560 109 566

C109 579 110 585 115 593

C118 597 127 603 131 605

C133 605 134 606 135 606

C135 606 134 610 133 613

C130 628 136 642 151 650

C155 652 157 653 165 653

C175 653 175 653 175 655

C175 656 176 660 177 663

C180 671 188 679 196 681

C211 686 227 680 234 668

L236 665

L245 665

C276 665 305 657 329 641

C332 639 340 632 346 626

L357 615

L359 622

C361 626 364 633 367 638

C391 679 436 708 493 718

C503 720 510 720 544 721

C587 722 593 723 611 729

C642 739 662 760 662 783

C662 789 660 799 656 806

L654 812

L635 812

L617 812

L619 808

C621 806 622 802 623 799

C625 789 619 777 608 772

C603 770 601 770 591 770

C581 770 580 770 574 773

C569 775 565 778 562 781

C555 789 553 795 551 808

L550 812

L494 812

L438 812

L436 805

C427 760 392 719 347 701

C328 693 302 689 283 690

C271 691 255 694 248 696

L244 698

L240 694

C234 688 228 686 219 686

C210 687 206 689 200 694

C196 698 193 704 192 711

C192 715 191 716 189 716

C185 716 173 721 166 725

C157 730 153 731 148 729

C144 727 142 729 145 734

C145 736 147 741 148 745

C150 758 155 767 163 771

C165 772 167 772 167 772

C167 773 166 775 164 778

C158 786 156 793 156 802

C156 805 157 809 157 810

C158 812 156 812 126 812

L93 812

L95 807

Z

M161 808

C158 798 162 785 171 775

L175 770

L171 769

C160 767 154 758 152 744

C151 739 150 736 150 735

C149 735 151 734 154 734

C157 734 161 732 163 731

C177 723 183 721 190 720

L197 720

L196 716

C196 712 198 704 201 699

C209 688 228 687 238 697

C239 699 241 701 241 702

C241 703 244 702 249 701

C268 694 296 693 318 697

C373 708 418 749 431 800

C434 813 436 812 416 812

L400 812

L398 806

C395 792 384 774 372 762

C342 732 300 720 261 732

C235 739 217 756 212 780

C209 789 210 801 212 810

L213 812

L188 812

L162 812

L161 808

Z

M216 808

C214 803 213 789 215 781

C221 761 236 744 258 737

C288 726 324 731 352 751

C371 764 386 783 393 803

C394 806 395 810 395 810

C395 812 390 812 353 812

L311 812

L310 809

C307 800 298 792 288 789

C274 786 259 793 252 807

L250 812

L234 812

L218 812

L216 808

Z

M257 807

C264 794 280 789 293 796

C298 798 304 805 306 809

L307 812

L280 812

L254 812

L257 807

Z

M555 808

C556 800 556 798 559 793

C563 786 569 779 576 776

C581 774 583 774 592 774

C604 774 608 775 614 782

C621 790 621 800 614 808

L611 812

L582 812

L554 812

L555 808

Z

M660 808

C663 802 666 790 666 784

C666 768 657 751 642 740

C630 731 611 723 591 719

C585 718 572 718 544 717

C503 716 496 716 478 711

C421 697 380 664 362 617

C360 612 358 608 358 607

C357 607 356 609 354 612

C349 619 336 631 328 637

C318 644 302 651 291 654

C276 659 266 660 249 661

L234 661

L232 664

C226 674 219 678 208 679

C201 679 200 679 194 676

C184 671 179 662 179 651

C179 648 179 646 178 646

C178 646 176 647 173 648

C168 650 158 649 152 646

C147 643 141 638 139 632

C136 626 136 616 139 610

C140 607 141 604 141 604

C141 604 139 603 137 602

C127 599 120 594 116 587

C114 582 114 581 114 569

C114 558 114 553 116 543

C119 528 119 522 116 516

C114 512 109 506 106 504

L103 503

L110 499

C113 498 118 494 121 492

C134 482 156 484 164 497

C167 501 169 501 169 498

C169 496 170 492 172 489

C177 479 185 474 197 474

C203 474 205 475 210 477

C216 480 219 483 223 490

C223 492 224 494 225 494

C225 494 226 493 228 492

C233 489 237 488 243 488

C258 488 269 499 269 514

C269 521 267 528 262 532

L259 535

L261 540

C266 554 260 570 248 576

C243 579 241 579 235 579

C228 579 226 579 221 577

C212 572 207 561 209 551

C210 545 215 538 220 535

C228 530 224 527 211 527

C193 526 179 536 173 552

C170 560 170 574 173 584

C175 592 181 601 186 606

C194 615 209 622 223 626

C235 628 263 628 273 625

C311 615 340 586 349 549

C350 545 350 538 350 529

C350 514 349 506 344 493

C325 441 263 406 189 406

C155 406 114 413 81 424

C58 432 32 445 12 459

C7 463 2 466 1 466

C0 467 0 463 0 446

L0 425

L10 420

C52 397 90 384 138 377

C190 370 228 372 269 386

C288 392 299 394 312 394

C338 394 362 384 378 368

C416 330 407 268 359 232

C348 224 331 216 319 212

C310 210 307 210 292 210

C271 210 262 211 248 218

C233 226 223 235 216 249

C211 259 210 267 210 277

C211 289 214 296 221 304

C228 312 236 316 247 317

C252 317 256 317 256 316

C257 316 256 313 255 310

C253 303 253 300 254 293

C258 282 269 274 281 274

C292 274 300 279 305 289

C308 295 308 297 308 304

C308 311 308 314 306 318

C303 324 297 330 291 333

C287 335 286 336 285 338

C282 352 273 361 260 362

C249 363 240 358 234 349

L232 347

L224 351

C217 355 216 355 211 355

C205 354 198 351 190 346

C181 339 171 338 159 342

C157 342 157 342 157 333

C157 326 158 322 159 319

C161 315 167 309 171 308

L174 308

L169 303

C167 300 164 295 162 292

C157 282 161 268 171 257

L175 252

L169 250

C165 249 162 247 160 244

C155 239 153 235 152 226

C151 222 150 218 150 217

C149 216 150 215 153 215

C159 215 161 214 168 210

C176 205 185 202 191 202

L197 202

L197 195

C197 171 227 162 240 182

L242 184

L250 182

C264 177 270 176 291 177

C312 177 319 178 336 183

C370 193 403 221 420 253

C430 272 434 289 434 310

L435 323

L443 323

C458 323 466 329 473 350

C477 360 484 368 493 372

L497 373

L495 378

C491 389 483 398 476 402

C469 405 456 404 447 400

C444 399 443 398 443 398

C442 398 442 401 441 403

C440 406 437 410 435 412

C429 418 423 420 415 420

C407 420 397 416 392 409

C390 407 388 404 388 404

C388 404 385 405 382 407

C371 414 356 421 342 424

L338 425

L346 435

C366 457 378 482 382 508

C383 513 384 527 384 540

C386 592 395 621 419 643

C429 653 437 659 451 666

C508 695 591 688 649 649

C662 640 680 624 688 612

C700 596 708 577 712 558

C714 545 713 524 710 513

C699 475 662 451 615 451

C596 451 580 454 566 460

C542 472 529 489 529 512

C529 536 546 552 577 559

C583 560 588 561 588 561

C588 560 586 558 583 555

C577 549 575 542 575 533

C576 525 578 521 583 515

C594 504 610 504 622 516

C630 524 632 535 626 547

L624 552

L628 556

C641 570 636 593 618 600

C614 601 611 601 606 601

C599 600 596 600 590 596

C588 595 588 595 587 596

C586 599 579 606 574 608

C558 615 540 607 535 590

C533 583 530 582 527 589

C525 593 524 595 520 597

C516 599 515 599 507 599

C502 599 493 599 488 599

L479 598

L482 592

C486 585 486 582 485 562

C485 554 486 549 491 542

C494 538 494 536 490 536

C480 536 470 530 466 522

C460 508 467 493 480 488

C484 487 485 486 484 485

C481 475 481 472 481 467

C484 446 506 433 526 441

C527 441 527 440 527 438

C527 437 528 433 530 430

C538 412 559 406 575 417

L581 420

L589 419

C624 415 653 419 681 432

C686 435 691 437 691 437

C692 437 692 435 692 434

C692 427 696 409 700 397

C710 367 726 341 750 319

C767 303 775 297 810 279

C859 253 891 221 914 175

C929 145 934 120 929 101

C924 80 909 65 890 58

C883 56 880 56 872 56

C846 56 826 68 821 88

C819 99 822 111 829 118

L832 121

L832 116

C832 109 835 103 840 98

C850 90 863 91 872 101

C879 109 879 121 871 130

L868 135

L870 139

C874 147 873 157 868 164

C858 176 840 176 830 164

L827 160

L825 164

C823 170 818 173 809 172

C803 172 801 172 795 169

C787 165 782 165 773 166

L769 167

L767 161

C762 148 764 138 772 131

C775 128 778 126 779 125

C782 125 783 123 781 123

C779 123 773 115 771 111

C765 98 773 80 787 76

C789 75 791 74 791 74

C791 71 798 58 803 52

L809 45

L805 41

C791 27 800 5 820 5

C825 5 826 5 826 2

L827 0

L846 0

L866 0

L870 4

C874 9 875 13 873 18

L871 22

L879 22

C906 25 934 42 949 65

L952 69

L955 64

C966 45 992 23 1017 13

C1037 5 1057 2 1082 2

C1106 3 1126 7 1148 16

L1158 20

L1161 17

C1170 9 1184 7 1194 11

C1196 13 1200 16 1203 18

L1207 23

L1211 21

C1217 19 1224 20 1231 24

C1242 31 1244 31 1249 30

L1253 29

L1253 43

L1253 56

L1249 58

L1244 60

L1246 64

C1247 69 1247 81 1246 85

C1242 91 1235 95 1225 97

L1218 98

L1218 113

C1216 152 1199 181 1165 200

C1159 203 1157 205 1156 207

C1155 211 1150 216 1146 218

C1141 220 1130 219 1127 217

C1125 217 1122 214 1120 212

L1116 209

L1113 212

C1111 214 1107 216 1104 218

C1099 220 1097 220 1091 220

C1084 220 1082 220 1077 218

C1068 213 1063 206 1061 195

L1060 189

L1050 190

C1038 190 1032 189 1027 184

C1022 180 1021 174 1021 164

L1022 157

L1017 155

C1013 153 1009 149 1008 145

C1007 143 1006 138 1006 133

C1005 125 1005 124 1003 120

C1001 118 998 116 995 114

C993 113 991 111 991 111

C991 109 1000 103 1007 100

C1013 97 1014 97 1024 97

C1032 97 1034 97 1040 99

C1043 101 1048 104 1050 105

L1053 108

L1055 102

C1057 90 1064 83 1075 79

C1081 78 1086 78 1094 81

C1098 84 1106 91 1106 93

C1106 93 1108 94 1110 95

C1120 96 1127 101 1131 109

C1138 125 1127 142 1110 142

C1100 142 1092 137 1088 128

C1087 126 1087 124 1086 124

C1086 123 1078 128 1075 132

C1072 136 1070 141 1070 149

C1070 157 1072 161 1077 167

C1088 180 1111 185 1132 179

C1142 177 1156 170 1163 163

C1182 148 1192 116 1184 92

C1174 58 1125 32 1075 32

C1054 32 1037 36 1019 45

C999 55 987 67 977 88

C971 99 967 111 964 129

C959 156 953 174 942 195

C932 214 911 243 899 254

C897 257 895 259 895 259

C895 259 901 260 907 260

C930 261 956 268 975 278

L979 280

L982 277

C983 275 987 273 991 271

C1003 265 1015 267 1026 278

C1031 282 1031 282 1034 281

C1042 278 1051 280 1060 286

C1068 291 1072 292 1079 288

L1085 285

L1086 288

C1088 293 1088 303 1087 307

C1085 313 1079 318 1074 320

C1069 322 1070 321 1072 327

C1075 338 1073 348 1067 354

C1063 357 1056 360 1049 361

L1043 362

L1042 378

C1041 396 1039 407 1031 422

C1021 444 1008 458 986 469

C979 473 978 473 976 478

C974 482 973 484 969 486

C965 489 964 489 957 489

C950 489 948 489 943 486

C941 485 938 482 937 481

L936 478

L931 482

C924 488 918 490 910 491

C904 491 901 491 897 489

C886 485 877 474 876 463

L876 457

L872 458

C865 459 855 459 849 457

C839 454 833 443 835 430

L836 424

L832 422

C828 421 823 417 821 413

C820 411 819 405 819 400

C818 391 818 390 816 386

C814 384 811 381 808 379

C805 377 803 375 803 375

C803 374 810 368 816 365

C832 357 848 358 863 368

C869 372 869 372 869 370

C870 368 870 366 870 365

C870 361 875 352 880 348

C892 337 912 339 922 353

C925 357 926 358 929 358

C938 359 946 365 950 373

C953 379 953 389 950 395

C943 408 929 412 916 406

C911 403 906 397 904 392

C904 390 903 389 903 389

C901 389 892 396 890 400

C887 404 887 407 886 412

C886 422 888 429 894 435

C910 451 939 454 964 443

C973 439 986 430 991 424

C1001 413 1008 396 1009 379

C1010 359 1004 345 991 330

C974 312 949 300 919 295

C903 292 878 293 863 296

C827 304 788 326 765 352

C752 368 742 384 736 403

C731 419 730 426 730 445

C731 462 733 474 737 488

C746 516 748 530 746 550

C745 557 744 566 743 571

C732 621 696 665 644 691

L633 696

L644 702

C678 720 696 745 699 779

L700 789

L705 795

C708 798 710 802 711 804

C711 805 711 807 712 808

C712 808 712 810 711 811

C711 812 707 812 684 812

L658 812

L660 808

Z

M715 808

C715 802 713 798 708 792

C703 787 703 787 703 777

C702 772 701 765 700 762

C698 754 692 741 687 733

C679 721 663 707 649 700

C646 698 643 697 643 697

C643 696 648 693 655 690

C673 679 684 671 700 656

C716 639 724 628 733 610

C752 571 756 532 743 495

C738 478 735 463 734 444

C734 432 734 427 735 420

C740 396 752 373 770 353

C792 328 828 308 864 300

C877 297 909 297 922 299

C962 308 994 330 1002 356

C1009 379 1002 409 984 425

C963 445 929 451 907 439

C900 436 893 429 891 423

C890 418 890 410 892 405

C894 399 902 392 902 396

C902 399 911 408 916 410

C923 413 934 413 941 410

C946 407 952 401 955 395

C957 389 957 379 954 372

C950 363 940 355 931 354

C929 354 927 353 927 353

C927 351 919 344 914 341

C895 331 872 341 867 361

C866 363 866 364 865 364

C848 355 835 353 821 358

C812 362 796 373 796 376

C796 377 799 379 802 381

C806 382 810 385 811 387

C814 391 814 392 815 401

C816 408 816 412 818 415

C820 419 826 424 829 425

C830 426 831 427 831 435

C831 448 835 455 845 460

C849 462 851 463 861 463

L872 463

L872 466

C875 482 889 494 906 495

C915 495 921 494 929 488

C932 487 934 485 935 485

C935 485 937 486 939 488

C941 489 944 491 947 492

C952 494 963 493 968 491

C973 489 980 482 981 478

C981 477 983 475 987 473

C996 469 1007 461 1013 455

C1016 452 1019 450 1020 450

C1020 450 1022 447 1025 443

C1036 426 1058 399 1077 381

C1117 342 1160 316 1208 302

C1220 299 1248 293 1251 293

C1253 293 1253 295 1253 327

L1253 361

L1250 361

C1244 361 1234 365 1228 369

C1225 371 1219 375 1214 377

C1209 379 1206 381 1206 382

C1206 383 1208 384 1210 385

C1216 387 1222 393 1224 398

C1226 403 1225 410 1222 424

C1219 440 1219 457 1221 464

C1225 473 1233 481 1242 484

C1245 485 1246 486 1245 487

C1242 495 1242 507 1246 515

C1248 517 1250 520 1251 521

C1253 523 1253 524 1253 533

C1253 542 1253 543 1251 544

C1248 546 1242 545 1239 542

C1230 536 1227 536 1217 535

C1208 535 1208 535 1203 532

C1196 525 1191 524 1182 524

C1174 524 1166 526 1160 531

L1157 534

L1150 531

C1140 527 1121 521 1107 519

C1093 516 1063 516 1051 518

C1022 523 1003 531 981 548

C971 556 958 569 955 575

C954 577 952 579 952 579

C952 579 949 576 946 572

C931 554 906 540 884 537

L878 537

L878 532

C878 527 875 520 870 517

C869 516 865 514 862 513

C854 509 852 506 852 500

L852 495

L848 496

C837 497 828 504 824 514

C823 519 823 519 817 519

C797 521 787 545 800 561

L803 564

L798 570

C796 574 792 580 790 583

C788 589 787 590 783 591

C773 596 765 607 765 618

C765 626 766 631 771 637

L774 642

L770 645

C768 647 765 650 763 653

C761 658 761 659 761 667

C761 674 761 677 764 683

C766 688 767 691 767 691

C767 691 769 690 772 690

C778 687 785 688 793 691

C805 697 821 696 826 689

L828 687

L832 690

C846 701 867 696 874 680

C877 673 877 663 875 658

C873 654 873 654 875 651

C882 642 883 631 879 622

C872 609 856 603 844 610

C838 612 833 618 830 624

C829 626 828 628 828 628

C826 628 825 621 825 615

C825 598 836 585 857 580

C888 572 918 590 925 621

C931 644 920 680 897 715

C874 750 846 774 801 797

C793 802 783 807 780 809

L775 812

L745 812

L716 812

L715 808

Z

M783 811

C783 811 792 807 802 802

C832 786 850 774 868 756

C906 721 933 665 931 630

C928 593 894 568 858 575

C829 582 813 606 823 628

C825 631 827 635 829 637

L832 641

L832 635

C832 626 837 617 845 613

C859 607 874 615 877 629

C879 637 876 644 870 650

L868 653

L870 658

C878 673 866 692 849 692

C843 692 838 690 832 684

C829 681 827 679 826 679

C826 679 826 680 826 681

C826 684 821 689 817 690

C811 692 801 691 795 688

C789 684 780 683 774 685

C770 686 769 686 767 679

C764 673 764 665 765 660

C767 654 772 648 777 645

L782 643

L778 639

C769 631 766 619 771 609

C774 603 781 596 786 595

C790 594 790 593 794 585

C797 579 801 573 804 570

L809 564

L806 561

C798 553 796 544 801 535

C805 527 811 524 820 524

L826 524

L827 519

C829 510 836 502 845 500

C848 500 848 500 848 503

C848 508 852 512 860 516

C864 518 868 521 869 522

C874 526 875 532 873 537

C871 541 871 541 881 541

C905 543 932 559 948 581

C950 584 952 587 953 587

C953 587 954 584 956 581

C960 573 968 564 978 556

C1001 537 1021 527 1049 522

C1061 520 1090 520 1102 522

C1118 525 1140 531 1152 536

L1158 539

L1160 536

C1161 535 1165 533 1168 531

C1174 528 1175 528 1182 528

C1190 528 1195 530 1203 536

C1207 541 1208 541 1210 540

C1214 539 1222 539 1226 540

C1227 541 1232 543 1235 545

C1242 549 1242 549 1248 549

L1253 548

L1253 561

L1253 575

L1249 577

C1246 578 1244 578 1244 578

C1244 579 1245 581 1246 583

C1247 586 1247 590 1247 595

C1247 602 1246 603 1244 606

C1240 611 1232 615 1224 616

L1218 616

L1218 628

C1218 656 1208 682 1190 701

C1183 707 1171 716 1162 720

C1158 722 1157 723 1155 727

C1153 733 1147 737 1140 738

C1132 739 1126 737 1120 731

L1116 727

L1113 730

C1112 732 1108 735 1104 736

C1085 746 1063 734 1060 712

L1060 707

L1055 708

C1047 710 1037 709 1031 706

C1028 704 1026 702 1024 698

C1021 693 1021 692 1021 684

L1022 676

L1017 673

C1010 670 1007 664 1006 653

C1006 648 1005 643 1004 642

C1003 639 996 633 992 630

C991 629 991 629 994 626

C999 622 1010 616 1016 615

C1026 613 1038 616 1048 623

C1051 624 1053 626 1053 626

C1054 626 1054 624 1054 621

C1056 612 1062 604 1069 600

C1074 597 1083 596 1089 598

C1094 599 1101 604 1104 609

C1106 612 1108 613 1111 613

C1126 615 1136 630 1132 645

C1130 651 1123 658 1117 660

C1105 663 1092 657 1088 646

C1087 644 1086 643 1086 643

C1082 643 1073 652 1071 658

C1070 660 1070 665 1070 669

C1071 679 1074 685 1083 691

C1091 696 1100 699 1111 700

C1124 701 1134 698 1148 691

C1158 687 1161 685 1167 678

C1191 654 1193 616 1173 591

C1163 578 1142 564 1122 558

C1106 553 1092 551 1075 551

C1052 550 1037 554 1017 565

C989 579 972 604 965 642

C961 666 960 669 956 681

C946 710 927 742 903 769

C899 774 896 778 896 778

C897 778 904 778 911 779

C931 781 952 786 971 795

L978 798

L984 793

C999 783 1014 784 1026 796

L1031 801

L1035 799

C1042 797 1050 798 1060 805

C1066 809 1067 809 1072 809

C1076 808 1079 808 1081 806

L1085 803

L1086 806

C1087 808 1087 810 1087 811

C1087 812 1062 812 935 812

C851 812 783 812 783 811

Z

M1091 808

C1090 806 1089 802 1088 800

L1086 796

L1084 798

C1080 802 1075 805 1071 805

C1069 805 1065 804 1061 801

C1052 795 1045 793 1037 795

L1032 796

L1027 792

C1025 790 1021 787 1018 785

C1013 783 1011 783 1005 783

C995 782 989 784 982 790

L978 793

L969 790

C951 782 930 776 913 775

C908 775 904 775 904 774

C904 774 907 771 910 767

C919 757 925 749 932 738

C951 709 961 684 967 653

C972 623 978 608 990 592

C998 582 1007 574 1019 568

C1039 558 1058 553 1079 554

C1127 556 1169 580 1180 610

C1182 616 1182 619 1182 629

C1182 641 1181 649 1176 660

C1169 673 1160 681 1143 689

C1121 699 1098 698 1082 685

C1076 681 1074 675 1074 667

C1074 660 1077 653 1081 650

L1084 648

L1085 651

C1090 659 1100 665 1109 665

C1128 665 1141 648 1136 630

C1134 621 1124 612 1115 610

C1111 609 1109 608 1105 604

C1089 586 1059 592 1052 615

L1051 619

L1044 615

C1029 608 1017 609 1003 616

C995 619 984 629 984 631

C984 631 985 632 986 632

C990 633 998 639 1000 642

C1001 645 1002 647 1002 652

C1002 663 1007 673 1014 677

C1017 678 1017 678 1017 685

C1017 694 1019 699 1023 704

C1029 711 1033 712 1046 713

L1056 713

L1057 717

C1058 722 1063 730 1067 734

C1069 736 1073 739 1077 740

C1088 746 1101 744 1112 736

L1116 734

L1120 737

C1125 741 1133 742 1140 742

C1149 741 1154 737 1158 730

C1161 726 1162 725 1168 721

C1188 710 1201 697 1211 678

C1218 662 1221 651 1222 634

L1222 620

L1227 619

C1230 619 1235 617 1238 616

C1249 610 1252 603 1251 588

C1250 582 1250 580 1251 580

C1252 579 1253 598 1253 674

C1253 727 1253 769 1253 770

C1253 770 1247 771 1240 772

C1198 779 1157 792 1129 809

L1122 812

L1107 812

L1091 812

L1091 808

Z

M1134 810

C1138 807 1165 796 1180 791

C1197 785 1217 780 1237 777

C1245 775 1252 774 1252 774

C1253 774 1253 781 1253 790

C1253 807 1253 807 1251 807

C1230 812 1228 812 1179 812

C1135 812 1132 812 1134 810

Z

M0 766

C0 753 0 743 1 743

C1 743 3 744 5 745

C12 749 18 758 18 767

C18 776 11 786 2 788

L0 789

L0 766

Z

M513 679

C464 674 424 652 406 621

C394 601 390 579 388 534

C387 507 386 499 380 483

C374 465 362 445 350 433

C348 430 346 428 346 428

C346 427 351 426 356 424

C365 421 377 415 384 411

L387 409

L391 414

C405 428 426 428 438 414

C440 412 443 409 444 407

C445 405 446 404 447 405

C457 409 467 409 476 406

C485 402 495 391 500 377

L502 371

L497 369

C487 365 480 357 475 342

C472 335 467 328 462 324

C457 321 448 318 442 318

L439 318

L439 307

C437 272 423 242 399 217

C374 192 345 178 311 173

C293 171 268 172 251 177

L244 179

L240 175

C223 159 195 169 192 192

C192 197 192 197 188 198

C182 199 173 202 166 206

C159 211 150 212 148 210

C146 209 143 210 143 211

C143 211 144 214 145 216

C146 219 147 224 148 227

C150 240 155 248 163 252

L167 254

L163 260

C154 275 154 290 164 303

L166 306

L162 309

C160 311 157 314 156 317

C153 322 153 324 153 336

L152 350

L157 347

C165 343 174 343 182 346

C183 346 187 349 191 351

C206 360 214 361 225 355

L231 353

L235 357

C241 363 247 365 256 366

C269 367 280 360 286 349

C288 345 289 342 289 341

C289 339 291 338 294 336

C304 331 310 322 312 311

C314 298 310 286 301 278

C294 272 288 270 279 270

C267 271 257 278 252 289

C250 294 249 303 250 309

L251 313

L246 313

C227 311 214 295 214 275

C214 256 224 238 240 227

C267 209 306 208 339 224

C352 231 360 237 371 249

C394 273 403 305 394 333

C389 353 373 371 354 380

C341 387 331 389 316 390

C300 390 289 388 273 382

C260 378 242 373 228 371

C213 369 170 369 150 371

C113 376 82 383 52 395

C39 400 14 412 6 418

L1 421

L0 383

C0 362 0 344 0 344

C1 344 2 345 4 346

C10 351 16 352 24 352

C34 351 39 348 43 340

C45 336 47 334 50 333

C85 316 105 283 107 243

L107 230

L112 230

C122 228 131 223 134 216

C136 210 137 199 135 194

C134 191 134 191 136 190

C140 189 146 183 148 179

C152 172 151 161 147 151

L145 147

L142 149

C135 156 130 157 124 152

C114 146 112 146 102 145

C92 145 92 145 89 142

C79 133 65 131 54 136

C50 138 47 140 45 141

L42 144

L35 141

C27 138 5 131 2 131

C0 131 0 128 0 66

L0 0

L57 0

L114 0

L115 4

C115 6 114 12 112 22

C110 34 110 39 110 50

C110 62 110 63 112 68

C116 75 121 80 129 84

C132 85 135 86 135 86

C135 87 134 90 133 93

C130 108 137 123 151 130

C155 132 157 133 165 133

L175 133

L175 137

C177 147 185 157 195 161

C201 163 212 164 218 161

C224 160 231 154 234 148

L236 145

L247 145

C273 145 300 138 321 126

C333 119 346 109 352 101

C354 98 356 96 356 96

C357 96 358 97 358 99

C360 105 367 119 372 127

C399 166 447 193 504 200

C509 201 525 201 541 201

C571 201 583 202 598 205

C645 215 670 246 659 279

C652 301 635 313 613 312

C605 311 599 308 597 303

L595 300

L601 299

C612 298 621 290 623 280

C625 269 619 258 609 252

C598 247 581 248 571 255

C555 264 545 290 554 302

C557 307 557 308 554 315

C551 321 551 322 551 327

C552 336 558 342 566 344

C570 344 570 344 569 347

C569 348 569 353 569 357

C569 362 569 364 571 367

C574 372 577 373 589 375

C601 377 609 380 613 383

C617 386 617 386 617 382

C617 378 620 372 624 369

C625 367 628 365 631 365

C646 361 652 358 654 351

L656 346

L664 347

C675 347 681 345 687 338

C692 333 693 327 693 319

L692 312

L697 311

C707 308 713 302 715 294

C717 286 715 280 707 272

C703 267 703 267 703 261

C703 245 696 226 686 212

C677 200 663 188 650 181

C646 178 643 177 643 176

C643 176 646 175 649 173

C699 148 736 102 747 52

C750 39 751 22 751 10

L750 0

L784 0

C807 0 817 1 815 1

C803 4 795 12 794 23

C794 30 795 36 800 41

L803 46

L799 51

C796 55 792 60 791 64

C787 71 786 72 784 73

C773 77 765 89 765 101

C765 108 767 116 772 120

L774 123

L769 128

C760 136 758 145 761 157

C763 162 766 170 767 172

C768 172 771 171 774 170

C781 169 787 169 792 172

C793 173 797 175 800 175

C810 178 819 177 825 172

L828 169

L832 172

C839 176 841 177 849 177

C858 177 863 175 868 169

C876 162 879 151 875 141

L873 135

L875 133

C881 126 883 113 880 105

C876 97 868 90 859 89

C853 88 845 90 840 93

C835 97 830 103 829 107

C828 111 827 111 826 105

C824 98 824 95 826 87

C834 61 875 51 901 68

C922 82 930 104 926 130

C920 156 905 188 884 215

C875 226 859 242 846 251

C833 261 820 269 798 280

C772 294 761 302 743 319

C713 349 696 383 689 427

L688 431

L678 426

C658 417 640 414 615 414

C605 414 594 414 590 415

L582 416

L577 413

C565 405 550 405 538 413

C532 417 527 425 525 431

L524 435

L515 435

C502 435 496 437 488 445

C479 454 475 467 478 479

L480 484

L477 485

C472 487 465 494 463 498

C460 504 459 514 461 520

C464 529 472 537 482 539

L487 540

L484 545

C481 552 480 559 481 568

C482 573 482 578 482 581

C481 586 478 594 475 597

C474 598 473 600 473 600

C474 602 483 603 507 603

C518 603 522 602 528 596

L531 592

L533 597

C538 608 549 614 563 614

C569 614 571 614 577 611

C580 609 584 606 586 604

L589 600

L593 602

C599 605 612 606 619 604

C626 601 634 594 637 587

C642 576 639 562 632 554

L629 551

L631 546

C634 540 634 528 631 522

C628 515 623 509 616 506

C611 504 609 504 603 504

C596 504 594 504 589 506

C582 510 576 516 573 524

C570 531 571 542 574 549

C575 552 576 554 576 554

C576 555 566 552 558 548

C549 544 540 536 537 529

C531 518 532 504 537 492

C539 487 542 484 548 478

C557 469 569 463 585 458

C594 456 596 456 614 456

C631 456 634 456 642 458

C676 467 699 487 707 516

C709 524 710 544 708 554

C699 617 641 666 562 677

C549 679 524 680 513 679

Z

M1249 511

C1247 507 1247 505 1247 499

C1248 494 1248 490 1250 487

C1252 484 1252 483 1251 483

C1234 478 1226 470 1224 457

C1222 449 1223 440 1227 424

C1229 409 1230 401 1227 396

C1225 392 1217 383 1215 383

C1213 383 1214 381 1220 379

C1223 377 1228 374 1232 372

C1238 367 1245 365 1251 365

L1253 365

L1253 441

C1253 483 1253 517 1252 517

C1252 517 1251 514 1249 511

Z

M1039 416

C1039 415 1040 413 1041 410

C1044 401 1046 388 1046 376

L1047 366

L1053 364

C1070 361 1077 352 1077 336

L1077 329

L1087 321

C1132 288 1184 266 1244 257

L1253 255

L1253 272

L1253 289

L1242 290

C1236 291 1225 294 1217 296

C1153 312 1093 351 1045 409

C1042 413 1039 416 1039 416

Z

M607 375

C604 374 598 373 595 372

C581 370 578 369 575 366

C571 361 571 352 576 341

C576 340 575 340 571 340

C557 340 551 329 558 317

C561 311 561 305 558 300

C555 297 555 295 555 290

C555 274 566 259 580 255

C593 251 605 253 613 261

C622 270 622 282 613 290

C608 294 603 295 596 295

L591 294

L591 297

C591 302 593 306 598 310

C603 315 607 316 616 316

C640 316 659 300 665 274

C671 243 648 215 607 203

C591 199 582 198 542 197

C514 196 501 196 494 195

C429 183 382 148 362 97

C360 92 358 88 358 88

C357 88 354 91 351 95

C328 124 289 141 245 141

L233 141

L232 144

C230 148 224 154 219 157

C211 160 201 160 194 156

C185 152 180 144 179 133

C179 129 179 126 179 126

C179 126 177 127 175 127

C161 132 146 126 139 113

C136 106 136 97 139 90

C141 84 141 83 140 83

C135 83 126 78 121 73

C112 64 111 52 116 25

C118 15 119 8 119 5

L118 0

L194 0

L269 0

L268 2

C267 6 265 9 262 12

L260 15

L262 22

C266 36 259 51 247 57

C240 61 228 60 221 57

C210 51 205 37 211 26

C213 22 218 16 221 14

C225 12 225 9 221 8

C215 6 204 7 198 8

C187 12 177 22 172 33

C170 39 170 55 172 62

C177 79 188 92 203 99

C218 106 226 108 248 107

C270 107 276 106 294 98

C328 80 350 47 350 11

L351 0

L367 0

L384 0

L384 11

C384 66 394 99 418 123

C448 153 499 168 551 163

C636 155 700 105 712 38

C713 31 713 24 713 14

L712 0

L729 0

L746 0

L746 10

C747 22 746 38 743 51

C732 101 697 143 645 170

L633 177

L641 180

C676 197 699 229 699 261

C699 267 699 268 702 272

C710 282 711 284 711 289

C711 294 710 297 706 301

C703 304 694 308 689 308

C688 308 686 308 686 308

C686 308 687 310 687 313

C689 318 689 326 687 331

C685 335 679 340 674 342

C670 344 659 343 654 341

L651 339

L651 344

C652 352 648 356 633 360

C622 363 618 366 615 374

C614 376 613 378 613 378

C613 378 610 377 607 375

Z

M13 347

C11 346 8 344 6 342

C3 339 1 338 1 338

C0 338 0 332 0 324

L0 310

L4 310

C9 310 22 307 29 304

C45 296 57 285 64 272

C70 260 71 252 71 239

C71 229 71 226 69 220

C65 210 61 203 52 195

C41 184 27 175 9 169

L0 166

L0 150

C0 138 0 135 1 135

C4 135 27 142 35 145

L43 149

L46 146

C56 137 69 135 79 140

C81 142 86 145 88 147

C92 151 93 151 95 150

C103 147 111 149 123 157

C128 160 134 160 140 157

L144 154

L145 157

C149 171 145 182 134 187

C131 188 129 188 129 189

C129 189 129 190 130 191

C132 194 133 204 132 209

C130 218 121 225 109 226

L103 226

L103 238

C103 265 94 290 76 309

C71 315 56 326 47 330

C44 332 42 333 41 336

C40 340 36 344 33 346

C29 347 18 348 13 347

Z

M1088 315

C1088 314 1089 312 1090 310

C1093 303 1092 290 1088 281

L1086 278

L1082 281

C1075 288 1069 288 1061 282

C1055 277 1048 276 1039 276

C1032 277 1032 277 1027 273

C1012 261 995 261 981 272

L978 275

L969 271

C951 263 935 259 915 257

L904 256

L910 249

C930 225 946 199 956 173

C962 159 964 150 967 131

C975 89 991 64 1021 49

C1048 35 1073 32 1105 39

C1135 46 1161 61 1174 80

C1189 102 1184 137 1164 157

C1156 165 1144 172 1132 175

C1109 181 1084 174 1076 159

C1073 154 1073 143 1076 139

C1078 135 1082 130 1084 130

C1084 130 1085 131 1086 133

C1089 140 1100 146 1110 146

C1118 146 1122 145 1128 139

C1134 134 1136 129 1137 121

C1137 115 1137 113 1135 109

C1133 106 1131 102 1129 100

C1125 96 1117 91 1113 91

C1111 91 1109 90 1106 86

C1100 79 1091 75 1082 75

C1076 75 1073 75 1069 77

C1063 80 1055 88 1052 95

C1051 97 1051 100 1050 100

C1050 100 1048 99 1046 98

C1031 89 1013 90 997 100

C991 105 983 112 984 112

C984 113 987 114 990 115

C995 118 1001 124 1001 127

C1002 128 1002 133 1002 137

C1003 147 1006 152 1012 157

L1017 160

L1017 169

C1018 176 1018 178 1020 182

C1025 191 1032 194 1047 194

C1053 194 1056 194 1056 195

C1059 206 1060 208 1065 213

C1077 226 1096 229 1111 219

L1116 215

L1120 218

C1125 222 1129 223 1136 223

C1148 223 1155 219 1159 211

C1160 208 1162 206 1165 205

C1173 201 1188 190 1194 183

C1211 165 1220 142 1222 115

L1223 102

L1227 101

C1234 100 1241 96 1245 93

C1250 87 1252 82 1251 65

C1251 63 1251 62 1252 61

C1253 61 1253 80 1253 156

L1253 251

L1239 254

C1186 262 1140 280 1098 308

C1093 312 1088 315 1088 315

Z

M0 290

L1 275

L5 273

C14 270 22 259 22 248

C22 237 15 226 5 222

L0 220

L0 195

L0 170

L4 171

C25 178 45 191 55 203

C65 216 69 231 67 247

C64 268 56 282 41 292

C28 301 14 306 3 306

L0 306

L0 290

Z

M0 247

L0 224

L4 226

C19 234 23 252 11 264

C8 267 5 269 3 270

L0 271

L0 247

Z

M511 159

C474 155 442 141 421 120

C399 98 390 71 388 20

L388 0

L424 0

L461 0

L462 3

C466 11 475 18 483 20

C485 20 487 21 487 21

C481 32 480 38 481 53

C482 61 481 68 476 75

C472 82 472 83 481 82

C485 82 491 82 494 83

C502 84 512 84 517 83

C519 82 523 80 526 77

C529 75 531 73 531 73

C531 73 533 76 534 78

C537 84 542 88 548 92

C561 97 574 95 584 86

L590 81

L595 83

C601 86 614 86 620 83

C628 80 633 75 636 68

C639 63 639 61 639 55

C639 46 637 40 632 35

L629 31

L631 27

C635 19 635 10 631 2

C631 0 634 0 669 0

L708 0

L708 5

C709 13 709 30 707 38

C696 99 640 146 564 158

C551 159 521 160 511 159

Z

M225 102

C203 97 188 87 180 71

C167 44 178 15 204 11

C207 11 212 10 214 11

L217 11

L213 15

C203 26 202 40 209 51

C218 65 242 68 256 56

C265 49 269 34 266 22

C264 17 264 16 268 12

C269 10 271 6 272 4

L273 0

L310 0

L346 0

L347 4

C347 6 347 11 347 16

C343 55 314 89 274 101

C263 104 237 105 225 102

Z

M553 89

C544 86 537 79 534 69

C533 64 531 63 529 67

C526 72 524 75 518 78

C513 80 512 80 504 80

C491 79 480 78 480 78

C480 77 481 75 483 71

C486 65 486 61 485 43

C485 36 485 34 487 29

C488 27 490 23 491 22

C495 18 494 16 487 16

C478 15 472 11 467 3

L465 0

L497 0

L529 1

L531 5

C535 19 549 31 570 37

C575 39 581 40 583 40

L588 41

L583 36

C577 29 575 22 575 14

C575 10 576 6 577 4

L579 0

L603 0

L626 0

L628 4

C629 6 629 10 629 15

C629 20 629 22 627 27

L624 32

L628 37

C633 42 635 47 635 55

C635 70 624 81 607 81

C601 81 599 81 594 78

L588 75

L584 81

C576 90 564 93 553 89

Z

M946 54

C930 35 907 22 882 19

C878 18 877 18 878 15

C879 11 877 6 874 3

L872 0

L958 0

C1042 0 1044 0 1038 2

C1019 6 1007 12 992 22

C975 33 960 47 954 57

C953 59 952 60 952 60

C952 60 949 57 946 54

Z

M568 33

C553 27 541 19 537 9

C532 0 531 0 554 0

C565 0 574 0 574 0

C574 1 573 3 573 5

C570 12 571 21 574 29

C575 32 576 35 576 35

C576 35 574 35 568 33

Z

M1240 25

C1229 18 1226 17 1221 16

C1219 16 1215 16 1213 17

C1209 18 1208 18 1206 15

C1198 8 1191 5 1181 5

C1174 5 1168 7 1162 12

L1157 15

L1148 11

C1143 9 1132 6 1124 4

L1109 0

L1181 0

L1253 0

L1253 12

L1253 25

L1250 26

C1246 27 1245 27 1240 25

Z

"/>

<path fill="#37617f" stroke="none" d="
M1 803

L1 794

L5 792

C11 789 17 784 20 778

C23 772 23 761 20 755

C17 749 10 742 4 739

L1 738

L1 714

L1 690

L4 690

C16 693 34 703 44 712

C60 726 67 739 67 757

C67 769 65 778 60 789

C56 796 54 799 48 804

L41 811

L21 811

L1 811

L1 803

Z

M97 806

C103 793 108 772 108 756

C108 750 108 749 110 749

C114 749 125 745 128 742

C136 736 139 725 136 714

C135 710 135 710 139 708

C147 703 151 696 151 686

C151 680 148 669 146 666

C144 664 144 664 143 666

C142 667 140 669 138 670

C133 674 128 674 124 670

C115 664 112 664 102 663

C93 663 93 663 88 659

C80 653 75 652 67 652

C59 652 51 654 45 659

L42 662

L32 658

C27 656 18 653 12 651

L1 649

L1 560

L1 472

L9 467

C53 435 102 418 160 412

C175 410 206 411 219 412

C258 418 291 433 314 456

C325 467 330 474 337 487

C348 512 349 540 340 562

C324 597 293 620 255 623

C247 624 230 623 221 620

C191 613 174 592 175 565

C176 554 179 547 186 541

C193 534 199 532 208 531

L216 531

L212 536

C202 547 201 563 211 574

C217 581 223 583 235 583

C243 583 245 583 249 581

C263 574 270 559 267 543

L265 537

L268 533

C272 527 274 520 274 512

C273 491 252 478 233 485

C227 487 226 487 226 485

C223 481 216 475 211 472

C204 469 191 468 184 472

C178 474 171 480 168 486

C165 491 165 491 164 489

C159 483 145 480 134 482

C127 483 124 485 117 490

C112 493 98 500 96 500

C96 500 95 501 95 502

C95 504 96 505 101 508

C106 510 108 512 110 515

C115 521 115 527 111 544

C108 562 108 577 110 585

C113 592 122 602 130 605

C132 606 135 606 135 606

C135 607 134 609 133 611

C131 617 132 629 135 635

C142 648 157 656 169 653

L174 652

L175 657

C178 672 189 682 204 684

C215 685 228 679 234 670

L237 665

L249 665

C289 665 325 650 350 623

C354 619 357 616 357 617

C357 618 359 623 362 629

C382 671 422 701 474 715

C496 720 506 721 543 722

C562 722 580 722 584 723

C614 728 633 736 647 751

C654 758 656 762 659 770

C662 778 662 789 659 799

C654 812 656 811 635 811

C618 811 618 811 619 809

C625 803 625 792 621 784

C617 775 608 770 595 768

C573 766 554 782 551 804

L550 811

L494 811

L438 811

L436 803

C436 799 433 792 432 787

C417 746 380 711 337 697

C310 688 278 688 251 695

L244 697

L240 693

C237 691 234 688 232 687

C227 685 217 684 211 686

C201 690 192 701 192 711

C192 715 192 715 188 716

C181 717 172 720 165 725

C159 728 157 729 153 729

C150 729 148 729 148 728

C147 727 146 727 144 728

C142 729 142 730 144 734

C145 737 147 742 147 745

C149 755 153 762 158 768

C161 770 164 772 165 772

C167 772 166 773 163 778

C161 780 159 785 158 787

C156 793 155 803 156 808

L157 811

L126 811

L94 811

L97 806

Z

M217 808

C216 807 215 803 215 799

C213 785 220 766 231 754

C252 733 291 726 325 738

C357 749 384 776 393 806

L395 811

L353 811

L312 811

L310 806

C305 796 294 789 282 788

C275 788 273 788 268 791

C261 794 253 802 251 807

L250 811

L234 811

L218 811

L217 808

Z

M716 808

C716 803 713 797 708 792

C704 787 704 787 704 778

C702 756 693 737 677 721

C669 712 663 708 652 701

L644 696

L653 691

C703 664 737 620 748 570

C750 563 750 555 751 543

C751 522 750 514 744 493

C734 465 732 434 737 414

C749 370 780 335 826 313

C860 297 896 293 930 302

C965 311 993 332 1001 355

C1003 361 1003 363 1003 376

C1003 388 1003 390 1001 397

C993 419 977 434 953 442

C933 448 911 444 899 433

C889 424 887 409 896 399

L900 395

L903 399

C910 411 925 416 939 411

C945 409 953 401 955 395

C961 377 951 358 932 354

C929 353 927 352 925 350

C920 341 905 335 895 336

C883 338 873 345 868 355

C867 358 866 361 866 362

C866 363 866 363 860 361

C844 352 826 353 811 363

C805 366 795 375 795 377

C795 377 797 378 798 379

C803 380 810 385 812 389

C813 390 814 394 814 400

C815 413 820 422 827 425

C830 426 830 426 830 436

C830 444 831 446 833 450

C839 460 846 463 861 463

L871 464

L873 469

C879 493 909 504 929 489

L935 485

L938 488

C943 493 950 494 959 494

C969 493 977 488 981 479

C982 477 984 475 989 473

C997 468 1008 461 1014 455

C1016 453 1019 451 1019 451

C1020 451 1023 447 1027 441

C1041 418 1072 385 1096 364

C1131 335 1166 315 1207 303

C1219 300 1245 294 1250 294

L1252 294

L1252 327

L1252 361

L1246 361

C1239 362 1234 364 1228 368

C1223 372 1209 379 1207 379

C1207 379 1206 380 1206 381

C1206 383 1207 384 1210 386

C1218 389 1223 395 1225 404

C1225 406 1224 412 1222 420

C1221 428 1220 437 1219 446

C1219 457 1219 459 1221 465

C1224 472 1232 481 1240 484

C1242 485 1245 485 1245 486

C1245 486 1244 488 1243 492

C1241 501 1242 511 1249 520

C1252 524 1252 524 1252 534

C1252 542 1252 543 1250 544

C1246 545 1242 544 1237 541

C1234 539 1230 537 1229 536

C1225 534 1217 534 1212 535

C1208 536 1208 536 1205 532

C1203 531 1199 528 1197 526

C1192 524 1191 524 1182 524

C1172 524 1166 525 1160 531

L1157 533

L1147 529

C1124 520 1101 516 1077 516

C1031 516 997 530 967 560

C961 566 956 572 955 574

C953 576 952 578 952 578

C952 578 949 575 946 571

C931 554 907 540 882 536

C878 536 878 536 879 534

C880 527 873 518 862 512

C854 509 852 506 852 499

C852 495 852 495 849 495

C848 495 844 496 841 497

C834 499 826 506 824 514

C822 519 822 519 818 519

C812 519 807 521 803 525

C792 534 790 549 799 560

L802 564

L797 570

C795 574 791 580 790 583

C787 589 786 590 782 592

C776 594 769 601 766 608

C762 619 764 628 770 637

L773 642

L769 646

C759 655 757 669 764 685

C767 691 767 691 769 691

C780 688 785 688 795 693

C800 695 802 695 809 695

C818 695 822 694 826 690

C828 688 828 688 833 691

C852 704 877 691 877 668

C877 665 876 661 875 658

C874 654 874 654 877 650

C887 635 882 616 865 608

C860 606 850 606 844 609

C838 611 832 619 829 624

L828 628

L826 624

C824 619 825 608 828 601

C833 591 843 584 856 580

C863 579 879 579 886 581

C905 586 920 601 925 620

C934 658 899 727 850 766

C836 777 808 794 798 798

C797 799 791 802 785 805

L775 811

L746 811

L716 811

L716 808

Z

M1091 807

C1090 804 1089 801 1088 799

L1086 795

L1083 798

C1080 802 1072 806 1069 804

C1068 804 1064 802 1061 800

C1053 795 1048 794 1039 794

C1032 795 1031 795 1029 792

C1022 785 1009 780 999 782

C993 783 982 788 979 791

C978 793 978 793 971 790

C955 782 935 777 917 775

L905 774

L912 766

C932 741 947 718 956 693

C962 679 965 667 968 651

C971 635 972 628 977 618

C989 586 1010 568 1047 558

C1053 556 1057 556 1074 556

C1090 556 1094 556 1103 558

C1144 567 1174 588 1180 615

C1185 633 1179 658 1167 672

C1156 685 1133 695 1115 695

C1100 695 1090 692 1081 684

C1072 675 1072 661 1080 652

C1083 649 1083 649 1084 650

C1087 655 1093 661 1098 663

C1104 666 1115 666 1121 663

C1139 655 1143 633 1130 618

C1125 614 1117 609 1113 609

C1111 609 1109 608 1107 604

C1102 599 1096 595 1089 593

C1081 591 1076 592 1067 596

C1060 599 1054 606 1052 613

C1050 618 1050 618 1047 616

C1032 607 1012 608 997 618

C990 623 982 631 984 632

C989 634 996 638 998 641

C1001 645 1001 646 1002 654

C1002 661 1003 665 1005 668

C1007 672 1012 676 1015 677

C1017 678 1017 679 1016 683

C1016 690 1018 698 1021 703

C1027 711 1034 713 1047 713

L1056 713

L1056 717

C1058 726 1066 736 1076 741

C1081 743 1083 743 1091 743

C1100 743 1101 743 1106 741

C1109 739 1113 737 1114 736

C1115 734 1115 734 1119 737

C1124 741 1129 742 1137 742

C1142 742 1145 742 1148 740

C1153 738 1159 732 1160 728

C1161 726 1163 725 1166 723

C1200 707 1220 674 1223 632

L1224 621

L1229 620

C1240 617 1248 612 1251 603

C1252 600 1252 612 1252 685

L1252 770

L1238 772

C1201 778 1170 788 1137 804

L1122 811

L1107 811

L1092 811

L1091 807

Z

M505 677

C472 673 443 660 422 640

C410 630 400 612 396 594

C391 579 390 566 389 538

C388 510 387 500 381 484

C376 467 365 449 353 435

C350 431 347 428 347 428

C347 428 351 426 355 425

C359 424 368 420 375 417

L387 410

L391 415

C406 430 432 428 443 409

C445 406 446 405 447 406

C466 411 477 409 488 398

C493 393 500 379 502 373

C502 369 502 369 500 369

C493 369 482 359 478 350

C471 328 461 319 446 318

L439 318

L439 308

C439 265 413 222 373 196

C338 173 296 166 256 175

C251 176 247 178 246 178

C244 179 243 178 241 176

C239 174 235 171 232 169

C214 161 192 174 192 193

C192 197 192 197 189 197

C184 197 174 201 166 206

C157 211 151 212 148 210

C146 209 145 208 144 209

C142 211 142 211 144 217

C146 221 147 226 148 230

C150 241 155 248 165 254

C166 255 166 255 164 258

C162 260 160 264 158 268

C156 273 156 275 156 282

C156 290 158 296 163 302

L165 305

L161 309

C154 315 153 319 152 336

C152 344 152 351 152 351

C152 351 154 350 156 349

C161 345 169 343 175 344

C177 345 182 347 186 349

C200 357 206 359 212 359

C218 359 220 359 225 356

L231 353

L235 357

C237 359 241 362 244 364

C252 368 263 368 271 364

C280 360 287 350 289 341

C290 339 291 338 296 336

C306 330 312 320 313 307

C314 291 307 279 294 272

C287 269 275 268 268 272

C261 275 256 280 252 286

C250 291 250 292 250 302

L250 313

L246 312

C226 310 212 291 215 271

C218 236 248 214 290 214

C299 214 305 214 312 216

C356 225 390 260 396 300

C398 316 396 331 388 346

C375 373 346 389 312 389

C298 389 288 387 274 382

C243 371 211 367 174 369

C113 372 55 388 10 415

L1 420

L1 382

L1 345

L6 348

C14 353 27 354 35 350

C38 348 44 342 45 338

C46 336 48 335 51 333

C60 329 72 320 80 312

C97 293 108 266 108 238

C108 230 107 231 117 229

C127 227 135 218 137 209

C137 205 137 196 136 193

C135 192 136 191 139 190

C144 187 149 181 150 175

C152 169 151 158 148 152

L145 146

L141 150

C134 156 131 156 120 150

C112 145 105 143 98 145

C93 146 93 146 89 142

C83 136 77 134 68 133

C60 133 54 134 47 140

L42 143

L33 140

C24 136 14 133 5 131

L1 130

L1 65

L1 1

L58 1

L114 1

L114 7

C114 10 113 18 111 25

C104 59 109 75 128 84

L135 87

L133 91

C131 98 132 109 135 116

C138 122 145 128 152 131

C155 133 158 133 165 133

C174 133 174 134 175 136

C176 144 179 148 183 153

C197 169 222 167 234 150

C236 145 237 145 241 146

C243 146 251 146 258 145

C296 142 323 130 347 107

C352 101 357 97 357 98

C357 101 370 125 376 133

C391 152 413 170 437 181

C468 196 501 203 540 202

C580 201 605 205 628 216

C647 227 660 243 661 260

C662 283 649 304 629 310

C622 312 609 312 604 309

C599 307 593 298 597 300

C598 300 601 300 604 299

C619 296 628 279 622 265

C619 259 613 253 606 251

C599 248 588 248 580 250

C569 253 558 263 553 275

C551 279 551 283 551 289

C551 297 551 298 553 302

C557 307 557 309 554 315

C546 327 552 340 564 344

C568 345 569 346 569 347

C566 360 568 369 576 373

C578 373 583 375 588 376

C599 377 608 380 613 384

L617 386

L618 383

C620 372 624 367 632 365

C645 362 654 356 656 350

C656 346 656 346 660 347

C669 350 682 345 688 338

C692 333 694 325 694 318

L693 312

L696 312

C702 311 709 306 712 301

C715 298 715 296 716 291

C716 284 714 279 708 272

C704 268 704 267 704 259

C702 242 696 223 686 210

C677 199 657 183 646 178

L643 177

L652 172

C702 145 737 101 748 50

C750 41 750 36 750 20

L751 1

L781 1

L812 1

L807 3

C800 7 795 14 794 23

C793 28 795 36 799 42

L802 46

L797 52

C795 56 791 61 790 65

C787 70 786 71 782 73

C776 76 768 84 766 91

C762 100 764 110 770 118

L773 123

L770 126

C759 135 757 150 764 166

C767 172 768 173 769 172

C777 169 785 169 793 173

C805 179 820 178 826 172

L828 169

L832 172

C840 178 853 180 862 175

C866 173 872 167 875 162

C877 157 878 146 876 140

C874 135 874 135 875 133

C876 132 878 129 880 126

C882 121 882 119 882 113

C881 97 868 87 852 88

C842 89 836 94 830 104

L827 109

L826 105

C824 98 825 89 828 82

C833 72 843 66 857 62

C887 54 917 72 925 101

C927 109 926 124 924 134

C917 168 893 208 864 235

C855 244 837 257 827 264

C823 266 812 272 802 278

C773 293 760 302 743 319

C721 341 705 367 696 395

C692 405 688 424 688 428

C688 431 688 431 681 427

C673 423 659 418 648 416

C634 413 609 412 593 414

C581 415 581 415 578 413

C570 407 555 405 545 409

C542 411 538 413 536 414

C531 418 524 428 524 432

L523 435

L513 435

C505 435 503 435 498 437

C491 441 484 448 480 455

C478 460 478 462 478 470

C478 474 478 480 478 481

C479 483 479 484 475 486

C470 488 464 494 462 500

C459 506 459 517 462 523

C465 531 474 538 482 540

C484 540 486 541 486 541

C481 550 480 551 481 567

C481 585 480 589 475 596

C473 598 472 600 473 601

C473 603 474 603 480 603

C485 602 489 602 495 604

C509 606 522 604 528 597

L531 593

L533 598

C536 603 543 610 549 612

C553 614 555 614 563 614

C570 614 572 614 577 612

C580 610 584 607 586 605

L590 601

L594 603

C597 605 601 605 608 605

C615 605 617 605 622 603

C628 600 634 594 637 588

C639 584 639 582 639 575

C639 565 638 561 632 554

L630 551

L632 546

C635 539 635 529 632 522

C628 514 624 510 616 506

C611 503 609 503 603 503

C589 503 579 510 573 522

C569 530 569 541 573 549

L576 554

L573 553

C562 551 547 542 542 536

C529 519 531 496 546 480

C574 451 636 447 674 472

C682 477 694 489 698 497

C706 510 710 528 709 544

C706 576 694 602 670 626

C657 639 644 648 627 657

C604 668 582 674 556 678

C541 679 519 679 505 677

Z

M1251 585

C1250 582 1250 580 1252 581

C1252 582 1252 583 1252 585

L1251 588

L1251 585

Z

M1091 310

C1093 305 1093 294 1090 286

C1087 276 1087 276 1082 281

C1074 287 1070 288 1061 282

C1053 276 1043 274 1035 276

C1033 277 1031 276 1027 272

C1020 266 1014 264 1006 263

C998 263 992 264 983 270

L977 274

L968 270

C952 263 932 258 917 256

C904 255 904 256 910 249

C922 236 937 215 946 196

C958 174 963 157 968 132

C973 105 980 87 992 72

C1006 55 1030 42 1057 37

C1075 34 1103 37 1123 45

C1149 54 1170 71 1178 88

C1187 108 1181 138 1165 155

C1158 163 1146 170 1135 174

C1128 176 1125 176 1115 176

C1101 176 1094 175 1085 168

C1073 160 1070 144 1080 134

L1083 130

L1087 135

C1094 145 1107 150 1119 145

C1134 140 1142 122 1135 108

C1131 99 1122 92 1113 90

C1110 90 1109 89 1107 86

C1106 85 1103 82 1100 80

C1084 69 1062 74 1053 91

C1052 94 1051 97 1051 97

C1051 100 1051 99 1044 96

C1030 90 1017 90 1004 96

C997 99 987 107 984 111

C983 113 983 113 988 115

C998 120 1002 126 1002 136

C1002 146 1007 155 1014 159

C1016 160 1017 160 1016 165

C1016 173 1018 181 1023 187

C1029 193 1034 195 1046 195

L1056 195

L1057 198

C1059 212 1070 222 1085 225

C1094 227 1104 224 1113 218

L1116 216

L1120 219

C1133 228 1152 224 1159 212

C1161 208 1163 206 1170 202

C1187 193 1198 182 1208 166

C1217 151 1222 133 1223 114

L1223 102

L1227 101

C1233 101 1242 97 1245 94

C1246 92 1248 89 1250 87

L1252 82

L1252 166

L1252 251

L1247 252

C1236 253 1207 259 1194 263

C1161 273 1130 287 1101 306

L1089 314

L1091 310

Z

M1 291

L1 275

L5 274

C20 268 27 250 20 236

C17 229 10 223 4 221

L1 220

L1 195

L1 171

L3 172

C4 172 9 174 14 176

C42 187 61 205 65 225

C70 244 64 268 52 282

C42 293 22 303 5 305

L1 306

L1 291

Z

M507 158

C495 156 485 154 473 150

C437 138 412 116 400 89

C393 71 390 53 389 23

L389 1

L425 1

L461 1

L464 6

C467 12 474 17 481 19

C483 20 486 20 486 21

C486 21 485 23 483 26

C481 31 481 32 481 47

C481 64 480 69 475 76

C470 82 471 83 484 83

C490 84 498 84 503 84

C513 86 520 84 526 78

L531 73

L533 77

C535 82 541 89 547 92

C551 94 554 94 561 95

C571 95 578 93 585 86

L590 81

L594 83

C597 85 599 86 608 86

C616 86 618 85 622 83

C628 80 634 74 637 69

C639 64 639 62 639 55

C639 45 638 41 633 34

C630 31 630 31 632 27

C635 20 635 11 632 3

C632 1 634 1 669 1

L707 1

L708 4

C709 9 708 32 707 41

C702 64 690 85 673 103

C645 132 606 151 559 157

C546 159 518 159 507 158

Z

M234 103

C205 99 186 86 178 65

C176 61 176 58 176 49

C176 39 176 37 178 32

C184 19 195 12 209 11

L216 11

L212 16

C206 23 204 29 204 38

C205 46 207 51 214 57

C219 62 226 64 235 64

C249 64 258 58 264 45

C267 40 267 38 267 31

C267 27 267 22 266 20

C265 17 265 16 268 14

C269 12 271 8 272 6

L274 1

L310 1

L346 1

L346 10

C346 34 337 55 319 73

C305 88 290 96 271 101

C262 103 244 104 234 103

Z

M1251 66

C1250 63 1250 61 1252 62

C1252 63 1252 64 1252 66

L1251 70

L1251 66

Z

M951 59

C951 57 935 41 928 36

C914 27 897 20 884 18

L878 18

L878 13

C878 10 878 7 876 5

L874 1

L956 1

L1038 1

L1029 4

C1016 8 1005 13 992 21

C977 31 966 41 958 51

C951 61 951 61 951 59

Z

M567 32

C550 26 540 17 536 5

L534 1

L554 1

C572 1 573 1 573 3

C569 11 570 21 573 29

C574 31 575 33 575 34

C575 34 573 34 567 32

Z

M1237 22

C1229 17 1225 16 1216 16

L1209 16

L1202 12

C1189 2 1175 2 1161 11

C1157 14 1156 15 1155 14

C1151 12 1136 7 1126 4

L1116 1

L1184 1

L1252 1

L1252 12

C1252 23 1252 24 1250 25

C1247 27 1243 26 1237 22

Z

"/>

</svg>

