<?xml version="1.0" standalone="no"?>

<!DOCTYPE svg PUBLIC "-//W3C//DTD SVG 20010904//EN"

 "http://www.w3.org/TR/2001/REC-SVG-20010904/DTD/svg10.dtd">

<svg version="1.0" xmlns="http://www.w3.org/2000/svg"

 width="963.000000pt" height="626.000000pt" viewBox="0 0 963.000000 626.000000"

 preserveAspectRatio="xMidYMid meet">

<path fill="#bcb6b1" stroke="none" d="
M0 313

L0 0

L482 0

L963 0

L963 313

L963 626

L482 626

L0 626

L0 313

Z

"/>

<path fill="#446675" stroke="none" d="
M41 624

C40 624 40 621 40 619

L40 614

L32 613

C28 612 22 610 20 608

C8 601 8 582 19 574

C21 573 23 572 23 571

C23 571 22 570 21 568

C16 562 14 550 16 542

C17 537 23 531 29 530

L33 528

L33 532

C33 537 37 547 41 554

C46 563 56 572 65 577

C75 582 82 583 96 583

C106 582 109 582 116 579

C143 569 160 545 162 517

C163 495 156 477 140 460

C133 452 125 446 114 441

C101 435 92 433 74 432

L59 432

L60 424

C62 403 56 381 45 364

C35 349 19 336 5 331

L0 330

L0 289

L0 249

L4 253

L8 257

L11 255

C19 247 31 245 41 250

C49 254 52 259 52 267

C52 274 50 278 43 286

C35 294 30 303 29 309

C29 313 29 314 31 316

C38 323 47 316 54 297

C56 292 58 287 60 284

C63 279 69 274 74 273

L77 273

L73 268

C67 261 64 251 67 242

C68 239 68 239 64 239

C60 238 56 234 53 230

C52 226 52 219 53 215

C55 212 61 207 63 207

C65 207 64 205 61 204

C56 202 47 192 44 185

C31 158 39 129 63 114

C94 94 133 106 158 142

C158 142 161 141 165 139

C186 128 212 126 233 134

C259 145 274 166 274 191

C274 202 273 208 268 218

C259 235 239 247 220 247

C215 247 213 248 215 249

C215 250 216 252 217 255

C219 265 214 274 205 278

C200 281 200 281 214 285

C247 293 282 289 315 273

C358 252 386 213 393 166

C396 149 395 119 392 99

L391 93

L389 98

C384 107 376 113 366 114

L361 114

L361 121

C361 128 360 129 358 133

L355 137

L358 140

C366 147 369 159 365 167

C362 171 357 176 352 178

L347 180

L350 185

C355 196 351 210 342 217

C336 221 331 222 324 222

L318 222

L320 228

C323 238 319 246 310 251

C304 255 297 256 290 254

C285 253 285 253 282 256

C278 260 270 264 263 265

C253 266 239 261 232 253

L228 249

L233 248

C251 244 268 229 274 212

C277 204 278 188 276 179

C272 158 254 138 231 131

C210 123 188 125 167 135

L159 138

L157 135

C153 130 137 115 131 112

C103 95 73 98 51 120

C40 131 34 147 35 163

C36 172 39 182 42 188

C44 190 44 192 43 193

C41 195 35 196 29 196

L23 196

L26 201

C31 209 30 220 24 228

C20 233 12 237 6 237

L1 238

L0 233

L0 229

L4 229

C13 229 20 222 20 213

C20 204 14 197 5 197

L0 197

L0 193

L0 188

L4 188

C6 188 9 188 10 189

C13 190 13 190 11 185

C10 182 10 171 11 167

C12 166 11 165 8 163

C2 160 0 156 0 147

C0 138 2 133 5 131

C7 129 7 129 4 126

L0 123

L0 110

C0 96 0 96 3 94

C6 91 13 87 16 87

C18 87 18 87 16 82

C11 73 13 63 21 56

L24 53

L19 53

C14 53 7 50 3 46

L0 44

L0 27

L0 11

L3 8

C7 4 13 2 20 2

C33 2 44 11 46 24

L46 29

L49 27

C57 19 69 19 80 26

L83 28

L85 24

C90 11 105 6 118 13

C122 15 124 17 126 21

C130 28 130 33 126 44

C123 56 123 61 126 65

C129 67 130 67 134 67

C147 67 151 58 146 40

C143 30 143 19 145 14

C147 9 152 4 156 1

C158 0 162 0 169 0

C178 0 179 0 183 3

C185 4 188 7 189 8

L191 10

L194 5

L198 1

L215 0

C231 0 234 0 235 2

C238 4 242 12 242 15

C242 15 242 16 243 16

C243 16 246 14 249 13

C267 4 284 11 286 28

L286 33

L291 30

C297 27 307 26 312 30

C319 34 322 41 320 50

C319 53 318 56 318 56

C318 56 320 55 323 55

C331 53 341 59 342 66

L343 70

L346 66

L350 63

L346 62

C341 60 337 57 335 52

C328 38 342 22 357 27

C364 30 370 38 370 45

C370 48 367 54 365 57

L362 60

L365 60

C370 60 376 62 381 66

C383 68 385 69 385 68

C385 67 379 51 376 42

C371 31 364 16 358 7

L354 1

L380 0

C394 0 406 0 407 0

C408 1 414 11 418 21

C432 54 440 96 440 142

C440 163 439 174 436 187

C434 194 435 195 437 193

C438 192 441 190 444 189

C450 186 459 185 466 186

L470 187

L468 184

C466 178 466 170 467 163

C468 160 469 157 469 157

C469 157 468 156 466 156

C460 156 454 152 451 147

C443 135 446 121 459 112

L464 109

L461 107

C456 105 451 99 449 94

C447 88 448 78 452 71

C455 65 462 60 467 58

C469 58 471 57 471 55

L471 53

L465 55

C460 57 459 57 455 56

C440 52 435 33 445 23

C449 19 451 18 457 17

C462 17 462 17 461 15

C459 13 458 8 457 3

C456 0 456 0 460 0

C464 0 465 0 465 2

C465 5 468 12 471 16

C475 20 483 24 489 25

C501 26 514 17 518 6

L519 0

L541 0

L563 0

L566 4

C577 16 582 27 586 49

C588 61 589 64 591 63

C592 62 586 32 583 25

C581 18 577 12 571 5

L567 0

L575 0

L584 0

L586 4

C591 11 597 26 597 33

C597 42 605 64 608 64

C609 64 609 64 606 57

C603 51 601 41 599 31

C598 23 594 11 591 6

C589 3 588 1 588 0

C588 0 592 0 598 0

L608 1

L609 6

C610 8 612 17 613 25

C615 39 619 57 621 62

C622 63 622 64 623 63

C623 63 623 58 621 52

C619 45 617 36 617 30

C615 19 613 7 611 2

C611 0 611 0 619 0

L628 0

L628 4

C629 7 630 15 630 22

C632 37 638 62 640 63

C642 63 641 62 638 48

C635 35 633 20 632 7

L631 0

L638 0

L645 0

L644 7

C644 14 645 27 648 40

C650 52 655 66 656 67

C658 67 657 65 653 50

C648 31 646 12 648 3

C648 0 648 0 653 0

L659 0

L659 16

C660 27 661 35 662 41

C664 51 668 61 669 62

C671 65 671 62 669 54

C664 39 660 16 662 5

L662 0

L668 0

L675 0

L675 13

C675 22 675 29 677 38

C679 51 680 54 682 53

C682 52 682 47 680 40

C678 26 676 13 677 6

L678 0

L686 0

C693 0 693 0 693 2

C692 3 692 9 691 15

C691 29 694 50 697 47

C697 47 697 44 696 41

C694 32 693 13 695 6

L696 0

L704 0

C708 0 711 0 711 1

C711 1 710 6 709 11

C706 23 707 44 710 43

C710 43 710 38 710 32

C710 23 710 18 712 11

C713 5 714 0 714 0

C715 0 726 0 740 0

L765 1

L759 8

C752 17 742 35 742 38

C742 42 744 40 748 32

C752 23 757 15 765 6

L769 0

L778 0

L787 0

L785 3

C784 5 779 10 776 14

C771 19 767 24 763 33

C760 40 757 46 757 47

C757 50 759 47 763 40

C768 28 773 21 781 13

C784 9 788 5 789 3

L790 0

L801 0

L812 0

L810 3

C809 5 803 12 795 20

C783 32 776 41 774 46

C773 51 776 49 780 42

C782 37 787 32 796 23

C804 15 811 7 813 5

L816 0

L826 0

C832 0 837 0 837 1

C837 1 836 4 836 6

C835 8 834 10 834 10

C834 11 836 11 838 11

C846 13 858 24 859 33

C861 40 861 40 864 38

C868 36 875 36 880 39

L884 42

L883 39

C882 32 876 18 872 10

C870 5 868 1 868 0

C868 0 879 0 893 0

L917 1

L921 11

C929 34 933 58 932 80

L931 93

L935 89

C941 82 951 80 959 85

C963 87 963 87 963 94

C963 97 963 99 962 98

C962 97 960 94 959 93

C948 81 930 95 938 109

C940 112 945 115 949 115

C954 115 960 111 962 105

C963 103 963 104 963 110

L963 117

L958 119

C947 124 935 119 931 107

L929 104

L928 113

C927 118 924 127 922 134

L917 147

L922 143

C925 141 930 138 933 137

C941 134 954 135 961 140

C963 141 963 142 963 146

L963 151

L958 148

C953 145 952 145 944 145

C937 145 935 145 931 147

C918 155 913 170 920 183

C924 191 935 198 944 198

C948 198 956 195 959 193

C961 192 962 191 962 191

C963 191 963 194 963 198

C963 204 963 204 959 207

C955 211 952 217 952 222

C952 229 954 233 959 237

L963 241

L963 284

L963 327

L951 327

C945 327 937 327 934 328

C926 330 914 336 907 341

C895 350 885 366 882 380

C880 388 880 404 881 411

C883 418 883 419 876 420

C868 421 861 418 856 410

C852 404 850 396 852 389

C853 385 852 384 851 383

C850 383 848 382 846 381

L842 378

L843 386

C843 391 843 394 841 397

C836 410 822 416 809 413

C801 410 799 408 796 397

C794 387 793 377 793 374

C794 370 800 365 806 362

C814 359 824 359 831 364

L835 367

L834 360

C833 351 836 344 842 338

C845 335 848 332 849 332

C851 331 851 330 848 324

C845 315 845 305 850 298

C854 291 860 289 871 288

L880 288

L880 281

C880 273 882 268 888 263

C899 253 918 252 925 261

C928 264 929 264 929 260

C929 256 933 250 937 248

C939 246 943 245 946 244

L952 243

L949 239

C945 234 943 224 944 218

C945 215 946 212 947 210

C947 208 948 207 948 207

C948 206 945 206 941 206

C938 206 932 204 930 203

L925 201

L925 206

C923 220 906 228 894 220

C889 216 886 211 886 204

L886 199

L876 208

C868 216 852 228 847 230

C847 230 842 235 837 240

C806 274 787 324 789 369

C793 437 835 485 897 491

C920 493 940 488 957 476

L963 471

L963 497

C963 517 963 523 962 523

C958 525 943 530 934 532

C882 543 823 522 788 482

C760 449 746 408 746 361

C746 327 754 295 770 262

L776 250

L764 248

C758 248 751 247 749 247

C746 246 746 246 747 250

C753 261 742 274 730 272

C728 271 725 269 723 268

C721 266 720 265 720 266

C720 273 710 285 702 290

L697 292

L697 299

L697 307

L703 307

C710 308 718 312 722 317

C729 326 729 341 721 349

L719 352

L725 358

C734 366 736 372 737 382

C737 395 732 405 723 411

L718 414

L718 425

C718 434 717 436 715 441

C713 444 712 446 711 446

C709 448 710 449 712 449

C716 449 722 453 724 457

C727 462 726 469 723 474

L721 477

L714 477

C700 475 699 475 697 472

C695 468 694 462 696 459

C697 457 696 457 690 458

C686 458 681 458 679 457

L676 456

L679 453

C686 443 690 432 691 418

C691 409 691 406 689 399

C682 371 661 350 634 343

C624 340 606 340 597 342

C589 344 573 351 568 355

C561 361 552 371 547 378

L542 386

L537 384

C524 378 503 376 488 379

C459 387 437 408 430 437

C428 444 428 448 428 458

C429 471 431 479 437 490

C446 508 466 521 484 522

C488 522 491 523 491 523

C491 524 490 526 490 527

C488 531 488 531 492 532

C496 533 502 540 503 544

C503 548 503 556 501 558

C501 560 501 560 504 558

C510 555 520 545 525 538

C549 507 552 458 532 436

C525 429 517 426 507 425

C500 425 499 425 493 428

C482 433 475 443 475 455

C475 461 478 468 481 471

L484 474

L488 470

C501 457 522 461 530 477

C531 479 531 483 531 487

C531 497 527 506 520 511

C509 518 494 521 481 519

C460 516 441 499 434 478

C431 467 430 450 432 438

C439 407 465 385 497 381

C505 380 508 380 517 381

C523 382 531 384 535 386

L544 390

L547 383

C549 380 553 374 557 369

C569 357 581 349 597 345

C606 343 624 343 633 345

C653 351 670 364 680 383

C696 415 687 452 659 465

C645 472 629 474 620 470

C610 466 603 455 603 445

L603 440

L599 442

C595 443 591 443 586 441

C584 440 584 441 586 448

C588 453 588 460 589 474

C589 492 589 492 591 491

C596 489 615 484 627 482

C662 475 700 476 742 485

C807 499 864 537 899 589

C904 597 918 623 918 625

C918 626 907 626 894 626

L869 626

L866 620

C856 602 836 581 817 567

C786 543 754 531 707 523

C691 521 647 521 633 523

C619 526 598 531 587 535

C582 537 577 539 577 539

C577 538 575 542 573 546

C551 589 504 618 447 625

C435 626 410 626 397 625

C356 620 322 605 294 578

L288 573

L288 578

C288 588 283 596 275 600

C262 606 246 599 242 586

L241 582

L238 584

C232 588 222 588 217 583

C214 580 214 580 213 582

C211 584 205 590 202 592

C200 592 196 593 194 594

L188 594

L188 599

C187 604 183 612 180 615

C175 619 169 621 160 622

C152 622 150 622 145 620

C142 619 140 618 139 618

C139 618 138 620 137 622

L135 626

L115 626

C98 626 94 626 93 624

C92 623 92 623 90 624

C87 627 42 627 41 624

Z

M109 618

C109 618 108 616 107 613

C107 611 106 604 105 599

C105 591 104 589 103 588

C102 588 102 589 102 598

C103 610 105 619 108 619

C108 619 109 619 109 618

Z

M74 606

C77 594 78 591 77 590

C75 590 69 612 69 616

C69 621 72 617 74 606

Z

M89 610

C91 599 91 593 89 592

C88 592 87 598 87 608

C87 617 89 619 89 610

Z

M58 610

C58 609 60 603 63 598

C66 589 67 587 65 587

C63 587 54 611 55 612

C56 614 57 613 58 610

Z

M125 611

C123 606 122 601 121 594

C119 584 117 583 118 592

C118 602 122 613 125 613

C126 613 126 612 125 611

Z

M142 604

C142 604 141 603 140 601

C138 599 131 585 131 582

C131 580 129 580 128 581

C128 583 134 598 137 602

C139 605 142 606 142 604

Z

M41 598

C43 596 48 592 51 590

C55 588 58 586 58 585

C58 583 57 584 49 588

C42 592 36 598 36 600

C36 602 37 601 41 598

Z

M156 598

C157 598 156 596 154 595

C151 592 148 586 146 578

C144 573 143 572 142 574

C141 574 145 588 148 591

C150 594 154 599 155 599

C156 599 156 599 156 598

Z

M271 592

C276 589 279 586 280 580

C281 572 273 563 265 563

C253 563 245 578 252 587

C254 590 261 594 265 594

C266 594 269 593 271 592

Z

M170 589

C171 588 152 564 151 564

C149 564 151 568 160 579

C165 585 169 590 169 590

C170 590 170 590 170 589

Z

M39 582

C47 579 50 576 49 576

C47 574 26 585 28 587

C28 588 27 589 39 582

Z

M451 580

C462 578 470 575 478 572

L485 570

L480 569

C472 567 465 559 465 551

L465 546

L458 546

C452 545 444 541 438 537

L435 535

L432 537

C420 546 408 548 397 542

C392 540 385 532 384 528

C384 525 384 525 378 525

L372 525

L372 529

C372 540 363 548 353 548

C345 548 339 544 336 538

C334 535 333 534 332 535

C324 538 322 538 317 538

L312 537

L318 543

C337 564 367 577 402 581

C412 582 441 581 451 580

Z

M235 578

C239 574 239 568 235 564

C233 561 232 561 228 561

C220 561 215 569 219 576

C223 582 230 583 235 578

Z

M183 575

C184 575 181 572 177 569

C174 565 169 560 166 556

C162 552 160 550 160 551

C158 552 163 558 173 568

C180 576 182 577 183 575

Z

M39 569

C43 569 45 566 41 566

C37 566 32 568 32 570

C32 571 33 571 34 571

C34 570 37 570 39 569

Z

M248 562

C253 556 262 553 269 555

C271 555 272 556 272 555

C272 555 269 551 265 545

C249 522 239 492 235 460

C233 447 234 416 235 404

C238 382 245 362 253 345

C257 336 256 337 273 335

C286 334 301 330 315 325

L326 321

L317 331

C298 351 286 374 281 401

C277 420 278 450 282 473

C284 484 290 501 293 508

L296 512

L297 507

C299 500 307 493 314 491

C325 488 336 493 341 504

C342 505 343 508 343 509

C343 511 343 511 346 511

C347 510 350 510 351 509

C354 509 354 509 354 504

C353 500 354 494 356 487

C356 485 356 485 351 485

C342 485 334 481 331 474

C329 468 330 458 333 452

L335 448

L329 442

C323 436 321 433 322 425

C323 422 324 420 327 417

C331 413 331 413 337 413

C344 413 352 415 363 422

C368 425 374 427 376 428

C381 428 387 426 389 423

C391 418 388 413 380 408

C375 406 373 406 361 405

C341 404 333 401 329 395

C328 393 327 391 326 391

C326 391 325 392 324 393

C317 402 301 402 294 393

C286 382 289 369 302 363

C307 361 311 361 317 363

C320 365 326 370 327 373

C328 374 329 374 331 372

C333 370 336 369 338 368

L342 368

L339 365

C336 360 334 355 334 349

C334 335 343 325 356 324

L363 324

L363 315

C364 303 366 298 375 291

C382 285 388 283 396 283

C401 284 401 283 401 282

C401 278 406 269 410 265

C424 254 442 254 455 267

C457 269 461 276 464 282

C471 296 475 300 483 300

C488 300 491 299 492 295

C496 288 493 278 485 266

C482 263 479 258 479 256

L477 251

L471 254

C457 259 439 254 430 242

C428 238 425 233 423 227

C423 226 421 229 419 233

C403 261 381 285 353 303

C343 310 321 320 308 324

C286 331 264 335 241 334

L227 333

L231 336

C236 340 240 348 240 355

C240 373 221 384 205 375

C202 374 199 371 197 368

L194 364

L192 370

C191 374 190 376 190 376

C190 377 193 377 196 378

C202 380 209 386 211 392

C216 401 216 414 210 422

C208 425 207 427 207 427

C207 428 209 429 212 430

C220 432 227 438 230 445

C232 450 232 451 232 458

C231 468 228 473 220 477

C215 480 214 480 200 480

C185 480 181 481 178 485

C175 488 176 495 178 498

C180 501 191 502 201 500

C213 497 220 497 226 503

C231 507 233 512 234 521

C234 528 233 533 228 538

C225 540 217 544 215 544

C213 544 213 544 213 546

C214 546 215 549 216 552

L217 558

L222 556

C225 554 227 554 231 554

C235 555 241 560 243 563

C243 566 244 566 248 562

Z

M491 561

C502 554 497 537 484 537

C476 537 471 542 471 550

C471 560 482 566 491 561

Z

M40 559

C40 558 37 557 32 557

C27 557 25 558 28 559

C30 560 40 560 40 559

Z

M193 555

C193 555 190 553 187 552

C184 550 178 547 174 544

C166 539 165 538 165 540

C165 542 171 546 182 552

C189 556 193 557 193 555

Z

M360 540

C363 538 366 533 366 529

C366 525 363 520 360 518

C353 514 343 517 340 523

C339 528 339 530 341 535

C343 539 347 542 353 542

C355 542 358 541 360 540

Z

M196 536

C196 535 194 534 190 533

C186 532 181 531 177 529

C167 526 167 526 167 527

C167 528 170 530 174 531

C188 537 196 538 196 536

Z

M468 534

C468 533 469 531 470 530

C472 527 473 525 471 525

C469 525 465 533 465 535

C466 536 468 536 468 534

Z

M421 529

C423 526 428 520 432 515

C441 507 444 503 438 507

C430 512 416 528 416 532

C416 535 418 534 421 529

Z

M454 529

C454 528 455 526 457 524

C459 520 459 518 456 521

C454 523 451 527 451 529

C451 530 452 530 453 530

C453 530 454 529 454 529

Z

M328 527

C337 521 337 507 328 501

C325 499 323 499 319 499

C314 500 312 500 309 503

C303 509 303 519 309 525

C313 528 314 529 320 529

C323 529 326 528 328 527

Z

M444 521

C448 517 451 514 451 514

C451 513 450 513 449 513

C447 513 437 523 437 525

C437 526 437 527 437 527

C438 527 441 524 444 521

Z

M423 506

C426 504 430 502 432 502

C436 500 437 498 434 498

C429 498 417 507 406 517

C397 527 400 528 410 518

C415 513 421 508 423 506

Z

M207 520

C207 520 203 519 195 519

C189 518 181 517 178 517

C171 515 168 516 172 518

C180 521 206 523 207 520

Z

M391 510

C403 500 419 492 426 492

C427 492 428 492 428 491

C427 488 414 491 403 498

C395 503 383 513 384 514

C384 516 385 515 391 510

Z

M377 496

C389 487 404 481 418 481

C424 481 426 480 426 479

C426 477 412 478 404 480

C400 480 393 483 389 486

C379 490 369 498 370 500

C370 501 371 501 377 496

Z

M372 474

C379 470 383 470 402 471

C412 472 419 472 422 470

C425 467 422 467 418 468

C413 470 403 470 393 468

C386 467 384 467 378 468

C372 470 363 474 363 476

C363 478 364 477 372 474

Z

M715 473

C722 469 721 457 713 455

C707 454 701 459 701 465

C701 469 706 474 710 474

C711 474 713 473 715 473

Z

M181 469

C198 466 204 464 208 461

C211 459 209 458 205 460

C201 462 182 466 171 468

C166 469 163 470 163 471

C163 473 165 472 181 469

Z

M182 455

C193 452 204 447 205 445

C207 443 204 443 201 445

C195 448 185 452 170 456

C163 458 156 459 156 459

C156 460 156 460 156 461

C157 462 166 460 182 455

Z

M420 460

C422 460 424 459 424 459

C424 458 421 457 414 458

C407 458 403 458 398 457

C386 453 376 452 365 452

C354 452 349 453 349 454

C349 455 354 456 366 456

C381 456 385 456 394 458

C403 461 413 462 420 460

Z

M165 445

C181 440 204 429 198 429

C197 429 192 431 187 434

C181 437 171 441 164 443

C149 447 147 448 148 449

C148 450 150 450 165 445

Z

M422 447

C422 447 419 446 412 446

C405 445 400 444 392 442

C376 437 351 434 351 438

C351 439 352 439 358 439

C369 439 380 441 390 444

C395 446 401 448 404 448

C410 449 421 449 422 447

Z

M701 443

C703 441 702 441 695 442

C691 442 688 443 688 444

C688 445 689 445 694 445

C697 445 701 444 701 443

Z

M163 432

C178 427 196 417 194 415

C194 414 191 416 186 418

C177 424 175 425 163 429

C151 433 136 440 136 441

C136 443 138 443 145 439

C149 437 157 434 163 432

Z

M424 438

C424 437 421 436 419 436

C417 435 410 434 405 432

C395 429 393 429 394 431

C395 432 410 437 417 438

C421 439 424 439 424 438

Z

M600 433

C604 430 604 425 600 421

C596 416 588 417 585 424

C584 427 584 427 585 430

C587 435 589 436 594 436

C597 436 598 435 600 433

Z

M136 431

C141 428 148 425 153 423

C170 415 178 411 183 406

C186 404 188 401 188 400

C188 398 187 399 183 402

C179 407 171 412 160 416

C145 422 127 432 127 434

C127 436 127 435 136 431

Z

M704 431

C709 429 707 428 701 429

C693 429 691 430 691 431

C691 432 701 432 704 431

Z

M119 427

C124 423 135 416 149 410

C167 401 183 392 183 389

C183 387 181 388 175 392

C168 397 154 404 144 408

C140 410 135 413 131 415

C124 419 114 427 114 429

C114 431 117 430 119 427

Z

M620 421

C625 420 633 420 638 422

C642 423 643 423 644 416

C645 406 636 393 625 390

C619 388 610 388 604 390

C595 393 586 403 582 414

C582 416 582 416 584 415

C594 408 607 413 609 424

L609 428

L613 425

C615 424 618 422 620 421

Z

M427 426

C427 425 423 423 418 420

C411 416 408 414 398 404

C388 394 384 391 378 388

C369 383 354 379 353 380

C351 381 352 382 359 384

C374 388 385 394 395 405

C403 414 412 420 420 424

C426 427 427 427 427 426

Z

M106 420

C115 412 127 405 135 402

C142 399 149 395 157 391

C164 386 177 375 177 374

C177 372 175 373 169 378

C159 387 147 394 135 399

C130 401 121 405 117 408

C103 417 94 426 98 426

C98 426 102 423 106 420

Z

M97 414

C103 410 112 403 117 400

C153 377 175 361 169 361

C169 361 162 366 154 372

C146 378 134 386 126 390

C107 402 85 418 85 421

C85 423 87 422 97 414

Z

M81 410

C92 399 94 398 114 386

C132 376 163 352 161 350

C161 349 157 352 150 357

C137 368 124 378 114 383

C93 395 90 397 80 407

C70 417 67 420 70 420

C70 420 75 415 81 410

Z

M705 418

C710 417 712 414 706 415

C701 415 696 417 696 418

C696 419 699 419 705 418

Z

M433 416

C433 415 431 414 429 413

C419 411 413 406 404 395

C394 382 383 374 365 365

C357 360 354 360 354 362

C354 362 357 364 361 365

C369 369 382 378 389 383

C392 385 397 391 401 396

C410 407 417 413 424 415

C430 417 434 417 433 416

Z

M874 409

C877 408 877 406 875 406

C872 406 865 410 866 411

C866 412 868 412 874 409

Z

M437 407

C437 406 435 404 433 403

C428 401 418 389 411 380

C405 370 400 365 391 358

C384 351 367 341 365 341

C362 341 364 343 370 347

C388 357 399 367 410 382

C418 394 426 403 432 406

C437 408 437 408 437 407

Z

M706 405

C711 402 714 400 713 399

C713 398 711 399 708 400

C706 402 703 403 701 404

C698 405 697 409 700 407

C701 407 704 406 706 405

Z

M828 401

C832 398 835 392 835 387

C835 379 829 371 821 369

C810 366 798 375 798 387

C798 402 816 411 828 401

Z

M870 399

C873 398 875 397 875 396

C875 395 874 395 874 395

C873 396 870 396 868 397

C863 398 862 399 863 400

C863 401 864 401 870 399

Z

M445 399

C445 398 443 396 442 395

C437 392 430 384 422 373

C413 358 402 347 383 331

C380 328 378 327 377 328

C376 328 379 331 385 336

C398 348 412 363 419 374

C427 386 432 391 438 396

C444 400 445 401 445 399

Z

M75 393

C77 391 94 381 103 377

C108 375 115 371 119 368

C128 362 146 347 147 345

C148 342 144 344 135 353

C122 364 110 371 101 375

C90 379 72 391 72 393

C72 394 75 394 75 393

Z

M315 392

C323 388 324 376 317 370

C316 370 314 369 312 368

C307 366 301 369 298 373

C291 385 303 399 315 392

Z

M712 386

C715 384 717 382 717 382

C717 380 714 381 710 384

C708 386 705 388 703 389

C698 392 698 392 698 393

C699 394 705 391 712 386

Z

M453 392

C453 391 451 388 448 385

C442 379 435 369 429 357

C422 345 416 337 403 325

C390 312 385 308 384 310

C383 310 385 312 388 315

C404 328 419 345 425 357

C431 369 437 379 445 386

C451 393 453 394 453 392

Z

M878 385

C878 384 876 384 870 384

C863 384 861 384 861 386

C861 387 862 387 869 387

C875 387 877 386 878 385

Z

M75 380

C80 377 88 371 95 368

C109 360 114 356 121 348

C127 341 133 332 133 331

C133 328 130 331 126 337

C120 346 110 356 101 361

C75 376 64 383 64 385

C64 387 66 386 75 380

Z

M456 378

C448 370 444 363 440 351

C435 336 429 327 415 310

C406 300 402 297 402 299

C402 300 405 304 410 309

C424 324 432 338 436 350

C440 361 446 372 453 379

C458 384 460 386 461 385

C462 384 460 382 456 378

Z

M701 379

C707 375 714 367 714 366

C713 365 711 367 707 371

C703 374 699 377 697 378

C695 379 694 380 694 381

C694 383 697 382 701 379

Z

M472 378

C472 378 470 374 468 371

C462 361 454 345 452 337

C448 323 440 308 426 290

C422 285 419 284 419 286

C419 287 421 290 424 293

C432 302 442 319 445 326

C447 330 449 336 450 340

C452 348 460 365 466 373

C470 379 472 380 472 378

Z

M68 371

C71 368 79 362 86 358

C92 355 99 349 101 346

C107 340 114 327 112 325

C112 324 110 326 107 332

C103 341 94 350 85 356

C76 361 61 373 60 375

C60 378 61 377 68 371

Z

M543 376

C543 376 541 373 539 371

C531 363 526 349 523 326

C522 311 519 300 515 289

C511 276 500 256 498 256

C496 256 497 258 502 267

C512 285 518 302 521 328

C524 351 529 364 537 373

C540 377 543 378 543 376

Z

M499 374

C499 374 497 372 496 370

C491 364 488 359 485 346

C481 330 474 311 472 312

C470 312 470 313 475 324

C477 330 480 339 482 346

C486 359 488 366 493 371

C496 375 499 376 499 374

Z

M879 374

C878 373 875 372 870 372

C865 371 860 371 858 371

C856 370 855 370 855 371

C855 373 856 373 864 374

C865 375 869 375 873 375

C877 375 879 375 879 374

Z

M485 373

C485 373 483 369 480 364

C474 354 469 342 467 332

C464 318 459 307 447 290

C439 277 437 275 436 277

C435 277 437 280 441 286

C454 304 460 316 464 332

C467 344 473 358 479 368

C483 374 485 375 485 373

Z

M511 371

C511 371 509 366 506 361

C503 354 500 346 498 339

C494 325 486 306 483 308

C483 309 485 314 488 319

C491 326 494 333 495 340

C498 351 502 361 506 368

C509 371 511 373 511 371

Z

M521 360

C513 346 512 341 508 324

C504 305 504 303 502 302

C500 302 500 301 505 325

C509 342 513 352 519 364

C523 371 524 372 525 371

C526 371 524 366 521 360

Z

M702 361

C705 357 708 353 708 352

C708 350 706 351 703 354

C702 356 698 360 695 364

C688 370 687 374 692 370

C694 369 698 365 702 361

Z

M224 368

C231 363 234 356 230 349

C227 340 218 337 210 341

C204 344 202 348 201 354

C200 366 214 374 224 368

Z

M62 362

C65 359 72 352 78 347

C88 338 99 325 99 323

C99 320 96 323 92 328

C89 332 82 339 77 344

C65 355 54 366 54 367

C54 369 57 368 62 362

Z

M880 362

C879 362 875 361 869 359

C864 358 859 356 858 356

C857 355 857 355 856 356

C855 356 855 357 857 358

C859 360 878 365 879 364

C880 363 880 363 880 362

Z

M549 363

C549 363 547 358 546 352

C541 340 539 326 539 317

C539 308 537 294 532 282

C528 270 519 249 517 249

C515 249 516 250 521 261

C531 282 535 297 536 316

C537 323 537 332 538 336

C539 342 545 359 546 362

C547 364 549 365 549 363

Z

M690 355

C694 351 699 340 699 338

C699 334 697 336 694 343

C691 348 688 353 685 356

C680 361 679 365 684 361

C686 360 688 357 690 355

Z

M48 360

C48 359 54 353 61 346

C68 338 75 330 76 328

C80 321 83 313 82 312

C82 311 79 315 76 321

C72 329 71 332 61 341

C51 351 45 358 45 360

C45 361 46 361 47 361

C47 361 48 361 48 360

Z

M561 354

C561 353 560 350 559 347

C553 335 551 320 553 304

C555 290 552 277 543 259

C537 247 536 245 534 245

C534 246 536 251 539 257

C542 263 546 272 548 277

C550 284 550 287 550 297

C549 325 550 330 551 336

C554 347 561 359 561 354

Z

M884 352

C884 351 863 339 861 339

C858 339 861 341 872 347

C882 353 884 354 884 352

Z

M677 349

C682 343 694 323 694 319

C694 316 692 318 688 325

C684 334 677 345 674 348

C672 349 671 351 671 351

C671 353 674 352 677 349

Z

M199 339

C201 337 204 334 207 333

C209 332 211 331 211 331

C211 331 209 330 207 330

C200 329 185 323 176 318

C159 310 145 298 135 283

C132 279 130 275 130 275

C130 275 130 278 130 281

C130 286 130 287 128 290

C125 294 125 294 127 294

C130 294 139 299 142 303

C147 309 148 314 148 322

L147 328

L152 327

C159 325 171 326 176 329

C183 332 188 337 191 343

L193 348

L195 345

C195 344 197 341 199 339

Z

M49 338

C56 329 65 314 65 312

C65 309 63 311 58 320

C55 325 50 332 47 337

C44 341 41 346 41 346

C41 349 44 346 49 338

Z

M569 338

C568 331 568 311 570 304

C572 296 571 280 569 271

C567 263 560 247 557 245

C555 243 555 246 558 252

C563 261 567 272 568 282

C569 289 569 292 567 304

C566 312 565 321 565 324

C565 331 567 341 568 344

C570 348 571 344 569 338

Z

M891 343

C891 343 887 340 883 337

C878 334 872 329 868 326

C862 321 859 320 861 323

C861 325 879 339 885 342

C889 344 891 345 891 343

Z

M666 339

C670 333 675 324 679 312

C683 302 684 301 682 301

C681 301 679 304 678 309

C674 319 669 330 665 336

C663 339 661 342 661 342

C661 344 663 343 666 339

Z

M34 336

C35 335 37 332 39 329

C42 325 43 324 40 324

C39 324 30 336 31 337

C32 339 33 338 34 336

Z

M583 336

C582 332 582 317 584 300

C587 278 586 267 582 254

C580 247 578 244 577 244

C576 244 575 243 579 254

C583 267 584 279 581 301

C578 325 579 338 583 338

C584 338 584 337 583 336

Z

M652 336

C655 332 660 318 659 317

C658 316 658 317 657 319

C656 320 654 325 652 329

C651 333 649 337 649 337

C649 339 651 338 652 336

Z

M892 327

C888 323 882 316 878 313

C872 306 869 304 872 310

C873 311 879 318 886 325

C895 334 898 337 899 336

C900 335 898 333 892 327

Z

M643 332

C645 328 646 325 644 325

C644 325 643 326 642 327

C641 328 640 330 639 332

C637 334 637 336 640 335

C640 335 642 333 643 332

Z

M630 331

C632 326 632 323 631 323

C630 323 628 327 627 331

C627 333 627 334 628 334

C629 334 630 333 630 331

Z

M597 322

C598 316 599 308 600 303

C603 290 603 283 602 273

C600 264 597 256 596 256

C594 256 594 258 597 265

C600 275 601 287 599 297

C595 311 593 329 594 331

C595 333 596 331 597 322

Z

M608 326

C609 319 611 309 615 294

C617 287 618 281 618 276

C618 267 617 261 615 260

C615 260 614 265 614 274

C614 287 614 289 611 299

C608 308 605 325 605 330

C605 331 606 332 606 332

C607 332 608 330 608 326

Z

M620 327

C622 321 623 307 622 306

C621 304 620 305 619 316

C618 322 617 328 616 329

C615 333 618 331 620 327

Z

M908 330

C908 329 907 327 905 325

C904 323 899 315 895 307

C889 293 886 290 886 294

C886 295 898 318 902 325

C904 328 906 330 906 330

C907 330 908 330 908 330

Z

M16 322

C17 318 18 312 20 308

C23 300 28 281 28 276

C28 272 26 272 26 275

C25 276 24 283 23 289

C21 295 19 303 17 308

C14 316 12 324 13 326

C15 330 16 328 16 322

Z

M917 323

C917 323 916 319 914 315

C912 312 909 303 907 297

C903 286 901 282 901 287

C901 291 910 316 914 322

C915 324 917 325 917 323

Z

M7 309

C10 294 13 272 12 271

C10 270 10 272 8 286

C7 293 5 304 4 309

C2 321 2 323 3 323

C4 323 6 316 7 309

Z

M926 317

C924 313 921 300 920 287

C919 281 918 275 918 275

C918 274 917 274 916 274

C915 274 915 277 918 296

C920 308 922 315 924 319

C927 322 928 321 926 317

Z

M646 318

C650 317 653 310 656 300

C658 293 659 289 661 287

C662 286 662 284 658 281

L655 276

L645 286

C632 299 628 306 631 313

C632 316 637 320 641 320

C642 320 644 319 646 318

Z

M940 314

C939 310 936 290 935 281

C935 274 934 272 933 272

C932 272 932 273 933 280

C933 293 936 312 937 314

C938 318 940 318 940 314

Z

M951 291

C951 275 950 268 950 268

C948 269 947 297 947 306

C948 311 949 314 949 314

C950 314 951 308 951 291

Z

M107 297

C107 296 107 296 106 296

C105 296 105 296 105 297

C105 298 105 298 106 298

C107 298 107 298 107 297

Z

M117 291

C125 288 126 280 121 274

C119 272 116 271 115 271

C103 271 99 285 109 290

C113 292 113 292 117 291

Z

M697 283

C710 276 716 261 710 248

C706 237 697 232 686 232

C675 232 666 237 661 247

C658 254 658 262 661 269

C664 275 671 282 676 284

C681 285 693 285 697 283

Z

M97 279

C97 278 97 278 96 278

C95 278 95 278 96 279

C96 280 96 280 97 280

C97 280 97 280 97 279

Z

M126 266

C124 263 123 260 123 259

C122 257 122 257 120 261

C118 264 118 265 120 266

C121 266 123 268 124 269

C126 271 128 272 128 272

C128 271 127 269 126 266

Z

M206 267

C213 259 207 247 196 248

C184 250 182 265 192 270

C197 273 202 272 206 267

Z

M102 268

C108 265 114 257 114 250

C114 235 98 226 85 232

C77 236 73 246 75 255

C76 259 81 265 86 267

C89 269 98 269 102 268

Z

M740 262

C743 259 743 258 743 255

C741 245 726 244 724 255

C724 258 724 259 726 261

C730 267 736 267 740 262

Z

M179 250

C181 246 188 241 191 240

C193 240 194 240 194 239

C194 239 193 237 191 235

C188 231 186 226 186 220

C186 209 194 199 204 195

C211 194 214 194 221 196

C228 198 229 197 229 191

C229 185 225 181 218 177

C213 175 211 175 204 175

C192 175 186 177 177 186

C166 196 161 211 162 227

C164 240 167 249 173 259

L177 264

L177 259

C178 256 179 252 179 250

Z

M269 252

C269 252 267 251 264 250

C262 249 258 248 257 247

C254 246 250 246 252 248

C253 249 266 254 267 254

C268 254 269 253 269 252

Z

M470 245

C480 240 485 232 485 221

C485 205 473 193 457 194

C446 195 438 200 434 210

C431 216 431 226 434 232

C437 238 444 245 450 247

C456 248 464 248 470 245

Z

M647 247

C652 247 652 247 654 243

C655 241 656 238 657 238

C659 236 658 235 655 235

C648 233 642 225 642 216

C642 205 650 197 662 197

C665 197 667 197 667 196

C667 196 665 193 663 190

L660 184

L658 188

C656 191 654 193 651 195

C644 198 638 197 633 192

L629 188

L624 193

C622 195 618 198 617 199

L615 201

L617 204

C620 208 620 217 617 221

L615 224

L619 225

C629 228 636 236 636 244

L636 248

L639 247

C641 247 645 247 647 247

Z

M721 247

C722 246 723 244 725 243

C728 241 728 241 726 240

C725 240 722 239 719 237

C716 236 714 235 713 235

C713 235 720 248 720 248

C720 248 721 247 721 247

Z

M283 242

C283 242 281 241 278 240

C273 240 267 238 263 237

C262 236 261 236 261 237

C261 239 264 240 271 242

C274 243 283 243 283 242

Z

M71 232

C76 230 78 227 78 223

C78 218 77 215 73 214

C68 211 65 212 61 215

C57 220 57 224 60 228

C63 233 67 234 71 232

Z

M597 231

C599 229 600 228 600 228

C600 228 598 227 597 226

C592 223 589 218 589 213

C589 210 589 207 590 206

C591 205 589 204 582 203

C570 200 559 195 552 187

C539 173 532 149 536 130

C542 105 563 84 591 76

C597 74 601 74 613 74

C626 74 627 74 636 77

C644 80 653 84 660 89

C662 90 662 90 665 87

C666 85 671 80 676 75

C683 68 686 66 694 62

C708 56 716 54 730 54

C752 54 771 62 787 78

C794 85 800 97 803 108

C807 128 801 152 789 163

C785 167 785 168 788 168

C795 168 804 179 804 187

C804 191 802 197 799 199

C798 200 798 201 798 202

C799 202 814 197 821 193

C848 180 868 155 879 121

C885 104 887 89 887 71

L887 57

L884 60

C879 70 864 70 858 60

L856 57

L853 61

L850 65

L853 68

C856 72 859 81 859 86

C859 91 855 99 850 103

C847 105 839 108 835 108

C833 108 832 108 832 114

C832 129 823 139 809 139

L805 139

L806 135

C807 126 807 110 804 102

C797 79 779 62 754 54

C743 51 723 50 711 53

C692 57 678 67 664 83

L661 86

L656 83

C650 79 640 75 632 72

C622 70 601 70 591 73

C566 80 548 95 538 116

C524 145 537 186 564 200

L570 203

L564 209

C557 215 550 218 543 218

C533 218 521 212 516 205

L514 200

L509 202

C506 203 502 203 497 203

C492 203 489 202 489 203

C489 203 490 205 491 208

C493 211 493 214 493 221

L494 229

L499 230

C502 230 506 231 507 231

C509 232 510 231 513 228

C521 216 538 216 547 227

C551 231 551 231 551 229

C552 226 557 221 560 219

C562 218 566 218 570 218

C579 218 586 222 590 228

C592 231 594 233 594 233

C594 233 596 232 597 231

Z

M120 198

C125 179 125 173 119 163

C112 152 95 146 87 152

C83 155 83 158 87 159

C94 163 100 174 100 182

C100 192 92 203 82 207

L77 208

L80 211

C82 213 84 216 84 218

L85 223

L90 222

C97 220 109 224 115 230

L117 232

L117 219

C118 210 119 203 120 198

Z

M298 231

C298 229 296 229 290 229

C286 229 280 229 276 229

C271 228 270 228 270 229

C271 231 275 232 287 232

C296 232 298 232 298 231

Z

M668 227

C673 225 675 218 674 213

C673 208 668 204 663 203

C649 202 643 218 654 227

C657 229 664 230 668 227

Z

M693 223

C693 223 690 220 687 218

L681 213

L681 216

C681 217 681 219 680 221

C680 223 680 223 686 223

C690 223 693 224 693 224

C694 224 694 224 693 223

Z

M610 219

C615 215 615 210 610 206

C607 203 606 203 603 203

C594 205 592 216 600 220

C604 223 607 222 610 219

Z

M309 218

C309 218 309 218 309 217

C307 215 278 217 277 219

C277 220 280 220 293 219

C301 219 309 219 309 218

Z

M911 216

C918 212 920 204 917 197

C910 185 892 190 892 204

C892 213 902 220 911 216

Z

M551 206

C554 202 555 199 553 199

C552 199 545 208 545 209

C545 211 548 210 551 206

Z

M305 205

C309 205 317 205 322 206

C331 206 332 206 332 205

C331 204 330 203 326 203

C324 203 317 203 311 202

C305 202 299 202 293 203

C285 204 282 205 283 207

C284 207 286 207 291 206

C294 206 301 205 305 205

Z

M540 201

C543 198 544 196 542 196

C540 196 532 204 532 205

C533 206 536 205 540 201

Z

M772 202

C766 197 763 186 766 180

C767 178 767 178 763 179

C761 179 755 179 750 179

C742 179 740 179 736 177

C729 174 724 168 722 163

C718 155 720 144 727 136

C732 129 745 126 754 129

C756 130 757 130 758 130

C758 129 758 127 758 124

C758 114 753 106 743 101

C739 99 737 99 729 99

C721 99 719 99 714 101

C703 107 696 118 694 133

C692 143 694 153 700 164

C705 175 717 187 730 193

C743 200 756 204 768 204

L774 204

L772 202

Z

M792 197

C796 194 798 188 797 185

C796 180 794 178 792 176

C788 174 782 173 778 175

C777 176 775 178 773 180

C767 189 774 200 785 200

C788 200 790 199 792 197

Z

M530 194

C534 192 535 190 535 189

C534 189 532 189 530 191

C528 192 525 193 523 194

C519 196 519 199 523 198

C524 197 527 196 530 194

Z

M292 192

C302 189 310 187 325 186

C337 185 341 184 340 183

C339 182 313 184 305 186

C296 187 284 192 283 194

C283 196 284 195 292 192

Z

M647 190

C649 189 651 187 652 186

C656 178 647 168 639 174

C633 177 634 187 640 189

C644 191 643 191 647 190

Z

M513 187

C521 185 531 181 531 179

C531 177 530 177 527 179

C524 181 512 185 507 186

C504 186 502 187 502 188

C502 189 504 189 513 187

Z

M906 185

C911 185 911 184 910 183

C910 181 910 177 909 173

L908 166

L907 169

C906 171 903 176 900 179

C896 185 896 186 898 185

C899 185 903 185 906 185

Z

M290 181

C300 176 313 171 325 168

C339 165 349 160 349 158

C349 157 349 157 343 160

C340 161 332 163 326 165

C320 167 311 169 307 171

C298 174 282 182 282 183

C282 185 284 184 290 181

Z

M502 176

C516 172 528 166 526 163

C525 163 523 164 521 165

C518 168 501 174 498 174

C496 174 492 176 492 177

C493 178 493 178 502 176

Z

M298 161

C301 159 313 154 323 150

C332 146 341 142 342 142

C343 141 342 139 341 139

C340 140 330 144 319 148

C293 159 278 167 279 170

C280 171 282 170 285 168

C288 166 294 163 298 161

Z

M643 166

C646 166 649 166 650 167

C651 168 652 168 653 168

C653 167 648 149 646 143

C642 132 635 125 626 120

C618 117 607 117 598 120

C587 124 580 133 580 142

C580 146 583 154 585 156

C586 158 586 158 591 154

C605 143 625 150 631 167

L632 170

L635 168

C638 167 640 166 643 166

Z

M511 157

C519 156 525 154 525 152

C525 151 525 151 517 153

C514 154 506 155 499 156

C485 157 484 158 485 159

C485 160 500 160 511 157

Z

M29 155

C29 154 26 153 18 153

C12 153 10 154 12 155

C13 156 29 156 29 155

Z

M284 151

C294 144 297 142 313 136

C332 129 343 122 342 119

C341 118 340 119 338 121

C334 124 322 130 311 134

C299 138 288 144 280 149

C274 154 273 156 275 156

C276 156 280 154 284 151

Z

M33 144

C33 142 28 140 20 139

C16 138 12 138 11 137

C10 137 9 137 9 138

C9 139 10 140 13 141

C15 141 20 142 24 143

C32 145 33 145 33 144

Z

M278 138

C283 133 292 120 292 118

C292 115 289 118 284 126

C281 130 276 136 274 139

C271 141 269 144 270 144

C270 146 273 144 278 138

Z

M521 142

C523 142 524 141 525 141

C525 140 517 140 502 140

C480 140 473 141 482 142

C487 143 518 143 521 142

Z

M34 133

C34 132 34 131 34 131

C34 131 29 130 25 128

C15 125 12 124 12 126

C13 127 30 133 33 134

C33 134 34 133 34 133

Z

M263 130

C265 128 270 123 273 119

C279 112 280 109 288 92

C292 84 298 74 304 67

C307 64 308 62 307 61

C305 61 304 62 298 70

C292 79 287 87 282 97

C277 109 272 117 263 125

C259 129 256 133 256 133

C256 135 258 134 263 130

Z

M525 128

C525 127 522 126 517 126

C507 126 495 125 483 123

C474 122 471 122 473 124

C473 125 487 127 498 128

C505 129 525 128 525 128

Z

M255 118

C266 107 270 100 275 84

C277 77 282 66 286 59

C289 52 292 46 292 45

C289 43 278 67 272 84

C267 99 265 103 254 115

C246 123 244 126 246 126

C246 126 251 122 255 118

Z

M42 122

C43 121 34 116 22 111

C7 106 8 106 7 108

C7 109 9 110 22 115

C32 118 39 121 40 123

C40 124 42 124 42 122

Z

M315 121

C316 120 321 117 325 114

C331 108 338 105 343 105

C343 105 343 104 341 101

C338 97 337 92 337 86

L337 82

L333 85

C329 89 326 90 312 97

C304 100 298 107 297 112

C295 119 302 125 309 123

C310 123 313 122 315 121

Z

M170 115

C172 111 176 104 181 99

C193 84 199 70 201 49

C202 42 203 34 204 30

C205 20 205 19 204 19

C202 19 200 31 198 49

C196 70 190 83 176 101

C171 107 165 117 165 119

C165 123 167 121 170 115

Z

M237 117

C246 108 250 100 257 81

C259 73 264 60 268 52

C272 44 274 37 274 36

C272 35 260 61 254 81

C251 88 248 96 247 98

C244 104 237 114 234 117

C231 119 231 121 233 121

C233 121 235 119 237 117

Z

M186 116

C187 114 192 107 198 100

C211 83 214 77 216 55

C217 49 219 38 221 31

C224 18 224 14 222 17

C221 18 215 44 213 56

C212 69 208 80 204 86

C203 89 199 94 195 98

C188 107 181 118 182 119

C183 121 184 120 186 116

Z

M527 119

C527 117 526 117 523 117

C518 117 499 112 490 109

C482 106 481 106 481 107

C481 108 485 110 494 113

C514 120 527 122 527 119

Z

M225 109

C234 96 239 84 244 66

C248 50 250 43 255 35

C256 31 257 29 256 29

C254 26 247 44 241 64

C236 85 231 95 221 109

C217 116 216 118 218 118

C218 118 221 114 225 109

Z

M157 115

C157 113 163 102 172 89

C176 81 181 73 182 70

C185 60 185 18 182 18

C181 18 181 24 181 41

C181 68 180 70 169 87

C161 100 154 113 154 115

C154 116 155 117 156 117

C156 117 157 116 157 115

Z

M208 110

C218 99 227 82 229 65

C231 56 237 35 240 28

C241 25 241 24 240 23

C239 22 239 23 238 25

C235 31 229 51 228 58

C227 61 226 67 225 70

C223 82 212 103 204 111

C201 113 200 116 202 116

C202 116 205 113 208 110

Z

M51 114

C51 111 43 105 36 102

C32 100 27 97 25 96

C22 94 20 93 19 93

C18 95 21 97 32 103

C38 106 45 110 47 112

C50 115 51 116 51 114

Z

M824 113

C824 112 810 107 809 108

C808 109 810 111 816 113

C822 115 824 115 824 113

Z

M155 89

C160 78 165 67 166 65

C168 59 167 41 164 31

C163 26 161 22 161 22

C159 19 159 23 161 31

C163 39 164 43 164 53

L164 65

L154 84

C148 95 144 105 143 106

C142 109 143 110 144 110

C144 110 149 101 155 89

Z

M532 108

C532 108 528 106 524 105

C519 103 507 98 497 93

C487 88 479 84 478 84

C478 84 478 85 478 85

C478 88 509 103 523 108

C530 110 532 110 532 108

Z

M61 105

C61 101 51 91 44 87

C41 85 36 82 33 79

C29 76 27 74 26 75

C25 77 34 84 42 89

C49 93 56 100 57 104

C58 106 61 107 61 105

Z

M373 103

C385 96 385 79 374 72

C371 69 369 69 364 69

C359 69 357 69 354 72

C339 82 346 105 364 105

C368 105 370 104 373 103

Z

M827 99

C827 99 825 98 820 97

C811 96 811 96 811 98

C811 99 820 101 824 101

C825 101 827 100 827 99

Z

M71 98

C71 93 46 65 44 67

C43 68 46 72 53 78

C58 84 64 91 66 94

C69 99 71 100 71 98

Z

M136 94

C138 87 139 77 138 76

C137 74 136 75 135 85

C134 89 133 95 132 96

C131 101 134 99 136 94

Z

M85 95

C85 92 78 79 72 71

C68 67 64 60 62 56

C58 48 55 45 56 51

C57 55 65 67 70 73

C72 76 76 83 79 88

C83 97 85 99 85 95

Z

M123 92

C124 85 124 75 123 73

C122 71 121 73 121 86

C120 94 120 97 121 97

C122 97 123 94 123 92

Z

M536 96

C537 95 535 94 530 92

C524 89 511 81 498 72

C493 68 488 65 488 65

C487 65 487 66 487 66

C487 69 513 87 526 93

C535 97 536 97 536 96

Z

M97 87

C96 79 93 71 89 64

C85 59 81 50 78 42

C76 36 75 35 74 37

C73 38 81 56 85 64

C91 73 94 82 94 89

C94 94 95 95 96 94

C97 94 97 91 97 87

Z

M110 88

C110 80 109 73 104 62

C100 52 96 41 96 32

C96 30 95 28 94 28

C91 27 95 50 101 63

C106 74 107 78 107 87

C107 92 107 94 108 94

C109 94 110 91 110 88

Z

M541 86

C542 86 540 84 538 82

C532 78 520 67 511 56

C506 50 503 47 503 48

C500 51 534 87 540 87

C540 87 541 87 541 86

Z

M829 85

C834 84 830 83 818 83

C806 83 804 83 806 85

C807 86 827 86 829 85

Z

M553 76

C553 76 551 73 548 71

C546 69 541 63 537 59

C533 53 530 51 530 52

C529 53 533 59 543 70

C550 76 553 79 553 76

Z

M819 72

C826 71 834 68 834 67

C834 65 832 65 827 67

C824 68 816 69 810 70

C801 71 798 72 798 73

C798 74 799 74 805 74

C809 73 815 72 819 72

Z

M567 70

C567 68 553 53 551 53

C549 53 550 54 557 62

C561 66 564 69 564 70

C564 71 565 71 566 71

C566 71 567 70 567 70

Z

M577 63

C577 60 564 40 562 40

C560 40 561 41 565 47

C567 49 570 55 572 58

C575 65 577 67 577 63

Z

M806 59

C816 54 828 47 830 44

C834 41 830 41 825 45

C823 47 814 51 806 55

C798 59 792 63 793 63

C793 64 796 64 806 59

Z

M878 59

C879 57 880 55 880 52

C880 44 871 40 865 46

C859 52 863 61 871 61

C874 61 876 60 878 59

Z

M360 53

C362 50 363 48 363 45

C363 32 346 28 340 40

C338 44 339 49 343 53

C346 56 347 56 351 56

C356 56 357 56 360 53

Z

M796 47

C817 29 829 17 825 17

C825 17 820 21 814 27

C808 32 799 40 794 45

C785 52 783 55 786 55

C786 55 791 51 796 47

Z

M44 51

C43 50 43 48 42 46

L42 42

L38 46

C35 48 32 50 31 51

C30 52 30 52 32 51

C33 51 36 51 39 52

C44 53 44 53 44 51

Z

M468 46

C472 43 472 42 472 37

C472 32 472 31 468 28

C465 24 464 24 459 24

C455 24 453 24 450 27

C447 31 447 31 447 37

C447 42 447 43 449 46

C452 49 454 50 460 50

C464 50 465 49 468 46

Z

M552 45

C554 42 555 41 555 37

C555 32 554 31 551 27

C549 25 545 22 542 21

C534 17 532 15 529 10

C527 7 526 5 526 6

C526 10 520 19 515 24

C512 27 510 29 510 29

C510 29 513 30 515 32

C517 33 522 36 524 38

C534 47 546 50 552 45

Z

M26 43

C33 40 37 35 37 27

C37 18 29 10 20 10

C11 10 3 18 3 27

C3 35 7 40 14 43

C18 45 21 45 26 43

Z

M729 31

C730 27 731 20 733 15

C735 8 735 6 733 6

C731 6 724 35 726 37

C727 39 728 38 729 31

Z

M481 32

C478 31 478 31 478 34

C479 36 479 36 481 34

C483 33 483 33 481 32

Z

M526 620

C526 613 529 608 535 604

C537 602 541 600 543 600

C547 599 556 599 562 601

C565 601 565 601 564 596

C563 584 570 573 581 567

C586 565 588 565 596 565

C602 565 606 565 610 567

L616 569

L616 563

C617 556 621 548 625 544

C627 543 631 541 634 539

C639 537 641 537 649 537

C658 537 659 537 666 540

C670 542 676 546 678 548

L683 552

L688 549

C704 540 717 541 728 551

C737 560 737 573 730 590

C728 595 726 601 726 603

C725 608 727 615 730 618

C732 621 734 621 738 621

C748 621 753 612 753 595

C753 590 753 585 754 583

C756 574 763 569 773 568

C778 568 780 568 783 570

C789 574 793 580 794 586

L794 592

L806 592

C817 592 818 592 823 595

C829 598 833 603 836 609

C836 611 837 616 837 619

L837 626

L826 626

C819 626 814 626 814 625

C814 625 815 624 816 623

C816 621 817 620 817 619

C817 617 815 618 813 622

L810 626

L799 626

C794 626 789 626 789 625

C789 625 790 624 791 622

C794 618 799 609 799 608

C799 606 796 607 795 610

C794 611 792 615 789 619

L785 626

L776 626

L767 626

L769 623

C773 617 780 601 780 600

C778 598 777 599 775 605

C774 608 771 614 768 618

L763 626

L738 626

L714 626

L714 622

C716 613 716 609 715 609

C714 609 714 610 712 619

L711 626

L703 626

C699 626 696 626 696 625

C696 625 698 617 701 607

C703 598 705 590 705 590

C705 589 704 589 704 589

C703 589 701 595 697 608

L693 626

L685 626

L678 626

L678 623

C679 622 680 617 681 613

C683 605 686 588 686 580

C686 572 684 571 684 579

C682 595 680 607 677 616

L675 626

L668 626

C661 626 661 627 664 611

C666 598 666 564 665 563

C664 563 663 570 663 582

C663 592 661 606 660 613

L659 626

L653 626

L648 626

L648 615

C647 600 643 577 641 573

C639 568 638 573 641 584

C643 596 645 612 645 621

L645 626

L638 626

L631 626

L629 617

C627 609 622 594 620 591

C620 590 619 590 618 590

C618 591 618 594 620 598

C623 606 628 621 628 624

C628 626 627 626 620 626

C611 626 611 626 611 623

C609 618 601 601 599 601

C598 601 598 601 600 607

C603 612 608 624 608 625

C608 626 604 626 599 626

L590 626

L586 621

C584 618 581 616 580 616

C578 616 579 617 583 622

L586 626

L578 626

C571 626 570 626 568 623

C565 620 562 621 565 624

C566 626 566 626 546 626

L526 626

L526 620

Z

M919 619

C917 616 914 609 911 604

C906 595 906 593 909 587

C910 585 911 583 911 583

C911 582 909 583 906 583

C903 584 901 584 900 583

C899 583 895 578 891 574

C886 567 884 564 884 562

C884 555 891 547 899 545

C907 543 917 548 921 556

C922 557 922 561 922 564

C922 567 923 570 923 570

C923 570 925 569 927 568

C929 567 933 566 936 565

C939 565 941 565 941 564

C941 564 940 562 938 559

C936 555 936 553 936 548

C936 537 937 535 949 531

C955 529 960 527 961 527

C963 526 963 526 963 527

C963 528 962 529 960 529

C957 529 952 531 949 535

C939 545 945 563 959 566

L963 566

L963 574

L963 582

L960 580

C948 570 933 571 923 581

C910 593 913 614 928 623

L934 626

L927 626

L921 626

L919 619

Z

M912 573

C916 570 916 569 916 564

C916 560 916 558 913 555

C909 552 909 552 903 552

C898 552 897 552 894 555

C891 557 891 559 890 563

C890 569 890 569 894 573

C897 577 898 577 903 577

C908 577 909 577 912 573

Z

M954 624

C955 623 958 622 960 620

L963 618

L963 622

L963 626

L957 626

L951 626

L954 624

Z

M84 580

C71 578 61 573 51 563

C41 552 36 541 36 527

C36 517 38 512 43 506

C53 494 72 494 83 506

C88 512 89 517 89 525

C88 529 88 534 87 535

L87 537

L93 537

C102 536 108 532 112 526

C115 521 115 520 115 514

C115 501 108 489 95 483

C80 476 62 477 43 487

C34 491 32 492 21 502

C12 509 2 517 1 517

C0 517 0 504 0 488

L0 460

L4 453

C10 443 13 432 14 421

C15 406 11 395 3 385

L0 381

L0 357

L0 333

L2 334

C3 334 7 336 11 337

C44 354 62 391 56 432

L56 436

L73 436

C87 436 91 436 98 438

C115 443 131 453 142 466

C148 474 155 488 157 497

C159 505 159 522 157 530

C149 562 117 584 84 580

Z

M930 480

C925 476 923 473 923 467

C923 463 923 460 924 459

C926 456 926 456 934 456

C939 456 944 456 946 455

C948 455 949 455 951 458

C953 462 954 470 952 474

C951 475 948 478 946 479

C940 483 934 483 930 480

Z

M944 473

C949 468 948 462 942 458

C934 454 926 463 929 470

C932 477 939 478 944 473

Z

M928 453

C915 450 906 445 897 436

C888 425 883 413 883 396

C883 384 885 377 890 366

C895 356 906 344 915 339

C927 332 943 328 956 329

L963 330

L963 353

L963 375

L961 375

C956 373 944 373 941 374

C932 378 926 387 926 397

C926 400 926 402 926 403

C927 403 929 402 932 401

C941 397 951 399 959 407

L963 410

L963 426

L963 441

L959 445

C951 452 939 455 928 453

Z

M826 308

C815 306 809 295 811 285

C813 278 819 272 826 270

C842 267 855 283 847 298

C845 302 840 307 835 308

C831 309 830 309 826 308

Z

M839 298

C843 295 843 294 843 289

C843 284 843 283 839 280

C836 277 835 276 831 276

C825 276 822 278 819 282

C817 285 817 286 817 290

C818 295 818 296 821 299

C824 302 826 302 830 302

C835 302 836 302 839 298

Z

"/>

</svg>

