<?xml version="1.0" standalone="no"?>

<!DOCTYPE svg PUBLIC "-//W3C//DTD SVG 20010904//EN"

 "http://www.w3.org/TR/2001/REC-SVG-20010904/DTD/svg10.dtd">

<svg version="1.0" xmlns="http://www.w3.org/2000/svg"

 width="963.000000pt" height="485.000000pt" viewBox="0 0 963.000000 485.000000"

 preserveAspectRatio="xMidYMid meet">

<path fill="#cfc8b4" stroke="none" d="
M0 243

L0 0

L482 0

L963 0

L963 243

L963 485

L482 485

L0 485

L0 243

Z

"/>

<path fill="#456c84" stroke="none" d="
M3 482

C2 480 1 479 1 478

C0 478 0 471 0 463

C0 452 0 449 1 449

C18 456 48 459 67 455

C99 450 125 431 137 406

C143 394 145 385 145 372

C145 360 143 351 139 340

C127 316 105 302 79 302

C63 302 50 307 39 316

C25 328 19 348 26 360

C29 369 39 375 48 375

C51 375 51 375 50 370

C50 363 51 359 54 354

C57 350 58 347 55 343

C52 340 52 336 56 332

C58 329 59 329 64 329

C67 329 69 329 71 331

C73 334 73 335 73 340

C72 346 72 347 76 349

C79 351 80 350 85 345

C89 341 89 341 93 341

C98 342 100 343 102 348

C104 354 100 361 93 361

C89 361 87 363 87 367

C87 372 89 374 95 374

C106 374 109 388 99 393

C95 396 92 395 88 392

C84 388 81 387 77 389

C73 393 74 398 79 403

C85 409 80 419 71 419

C64 419 61 416 61 408

C61 403 58 400 53 400

C47 400 45 403 46 410

C46 418 46 420 42 422

C37 424 32 423 28 420

C24 415 24 413 28 407

C30 405 31 402 31 402

C31 398 25 394 21 394

C19 394 16 397 15 401

C13 407 7 410 2 407

C0 406 0 405 0 397

C0 390 0 389 2 388

C5 387 7 385 7 382

C7 379 4 374 2 373

C0 373 0 371 0 349

C0 327 0 326 2 323

C5 320 5 315 2 313

C0 311 0 309 0 300

C0 289 0 289 2 290

C3 291 5 293 6 294

C10 302 19 302 22 295

C23 292 23 292 22 289

C21 287 19 285 18 284

C9 278 14 266 25 266

C31 266 34 269 34 275

C34 280 38 285 42 284

C48 282 52 277 50 273

C50 271 49 270 48 270

C44 267 46 258 50 256

C52 255 53 254 53 251

C53 245 45 242 40 246

C37 248 37 249 37 253

C37 256 36 258 35 259

C29 265 15 259 15 250

C15 249 17 247 19 245

C21 243 22 241 22 240

C21 240 16 242 11 245

L0 250

L0 218

L0 185

L9 194

C41 226 92 237 144 223

C174 215 200 198 216 176

C226 163 235 141 239 121

C240 110 241 86 240 77

L239 71

L235 71

C227 71 221 65 221 58

C221 55 225 51 227 51

C229 51 232 48 232 46

C232 45 231 42 230 40

C227 33 220 32 216 38

C214 42 212 43 208 43

C201 43 195 33 197 26

C198 23 201 21 205 21

C210 21 213 16 211 10

C208 2 202 1 197 6

C192 11 185 10 181 3

L180 0

L206 0

L233 0

L236 5

C241 14 252 27 259 33

C284 53 317 63 350 62

C390 59 423 40 442 9

L447 0

L461 0

C472 0 476 0 478 1

C479 2 482 3 484 3

C489 3 492 5 493 10

C494 17 488 25 482 25

C480 25 478 24 475 22

C473 20 470 18 468 18

C465 18 460 23 460 27

C460 30 465 35 468 35

C471 35 475 39 475 42

C475 49 469 56 462 56

C459 56 456 55 454 50

C454 49 452 46 450 46

C448 45 447 45 444 47

C437 50 437 58 444 61

C451 64 451 71 445 77

L443 80

L447 80

C452 80 454 78 455 73

C456 66 459 63 464 63

C469 63 473 65 475 69

C478 74 477 77 473 81

C469 85 468 86 468 89

C468 93 473 98 477 98

C482 98 483 97 486 91

C488 87 489 85 492 85

C496 83 500 85 503 88

C505 90 506 92 506 95

C506 101 504 103 499 105

C495 106 493 111 493 114

C495 122 504 125 508 119

C509 118 511 115 512 114

C515 111 516 111 519 111

C524 112 527 114 529 119

C531 125 528 131 520 133

C513 135 511 140 515 145

C518 149 523 149 528 144

C535 138 543 140 545 149

C547 156 542 161 534 161

C529 161 526 164 526 168

C526 176 534 180 540 175

C541 174 544 173 546 173

C554 173 558 184 552 190

C550 193 549 193 543 193

C538 192 537 192 535 194

C531 197 531 202 534 205

C536 207 537 207 540 207

C542 206 546 206 548 205

C553 205 555 206 557 211

C559 217 554 225 548 224

C539 222 537 222 534 224

C531 227 531 232 534 235

C536 237 537 237 542 237

C548 237 549 237 552 239

C555 243 555 249 551 253

C548 257 544 257 540 254

C533 250 526 253 526 261

C526 265 529 268 535 268

C538 269 540 269 542 271

C545 275 545 280 541 284

C537 289 532 289 528 284

C522 279 514 280 513 287

C511 292 515 296 522 297

C524 298 526 299 527 301

C530 307 526 314 519 316

C515 316 513 315 509 309

C505 304 497 305 494 310

C492 314 494 318 499 322

C505 326 506 329 504 334

C502 338 496 340 492 339

C490 339 486 335 486 332

C486 327 477 324 473 327

C468 331 468 336 473 341

C477 345 478 348 476 352

C474 356 468 358 464 357

C460 357 457 352 457 347

C457 340 449 337 443 342

C440 346 440 350 444 354

C446 358 447 360 445 364

C442 369 434 371 429 367

C427 364 427 364 427 358

C427 353 427 352 424 349

C422 347 421 347 418 347

C414 348 411 351 411 354

C411 356 412 358 412 360

C414 365 414 367 410 371

C406 374 400 373 396 369

C394 367 394 367 396 356

C397 350 391 346 385 348

C380 350 379 353 380 359

C380 365 379 367 375 369

C369 372 361 367 361 361

C361 360 362 357 363 356

C365 352 366 347 363 344

C362 342 359 341 354 343

C349 344 348 347 348 352

C348 356 345 359 341 360

C338 361 332 359 330 356

L329 354

L318 360

C265 391 235 427 223 474

L220 485

L196 485

C169 485 170 485 171 479

C172 477 173 474 175 472

C178 468 182 468 186 471

C191 475 198 472 199 465

C201 459 196 454 189 454

C183 455 180 452 180 446

C180 434 190 428 197 435

C198 437 200 438 202 438

C205 439 210 437 212 434

C215 428 212 422 207 421

C205 420 203 420 201 419

C195 418 195 408 201 402

C206 396 213 397 216 403

C219 409 223 410 229 405

C231 402 232 400 232 398

C232 394 229 390 225 390

C223 390 219 386 219 383

C219 376 226 369 232 369

C236 369 238 371 240 376

C242 382 247 383 252 378

C255 375 256 374 256 371

C256 366 254 364 250 362

C247 361 245 357 246 353

C246 352 248 349 250 347

C253 343 254 343 258 343

C264 343 267 346 267 350

C267 354 271 357 275 357

C277 357 279 356 282 354

C287 349 286 345 280 341

C271 335 279 323 290 323

C293 323 295 324 296 325

C298 327 298 327 302 324

C308 321 309 319 309 315

C309 312 309 311 306 309

C302 306 297 306 295 309

C289 316 288 317 285 317

C280 317 276 314 275 310

C273 304 276 299 284 297

C288 296 291 293 291 290

C291 285 286 280 281 280

C280 280 278 281 276 283

C271 287 268 287 265 284

C259 279 258 271 263 267

C265 265 266 264 270 265

C274 265 275 265 277 263

C280 260 280 256 277 253

C274 249 271 249 266 252

C262 254 262 254 259 253

C253 250 251 239 256 234

C259 232 262 231 265 233

C270 235 276 231 276 225

C276 222 273 217 271 216

C270 216 267 216 265 216

C261 217 258 216 256 213

C253 207 256 198 262 196

C264 195 266 195 269 197

C274 201 278 201 281 197

C285 190 283 185 276 185

C272 185 269 184 268 180

C266 175 269 168 274 166

C279 163 281 164 287 170

C289 173 293 172 296 169

C301 164 301 158 296 156

C289 152 288 147 293 142

C300 134 307 135 310 143

C313 150 318 152 323 146

C327 143 327 139 323 135

C321 133 320 131 320 130

C320 124 329 118 335 120

C340 121 341 123 341 129

C341 135 343 137 349 137

C352 137 354 136 356 134

C359 131 359 130 357 124

C355 120 357 116 362 114

C371 110 381 118 377 125

C374 129 375 132 377 135

C381 138 387 138 390 135

C392 133 392 132 392 128

C392 124 393 123 394 121

C399 117 410 120 413 127

C414 129 413 132 410 135

C406 139 406 142 409 146

C415 151 421 150 423 143

C425 136 433 134 439 140

C444 145 442 152 435 155

C430 157 430 164 434 168

C437 171 441 171 445 167

C450 161 460 165 460 174

C461 180 457 183 451 183

C444 183 441 186 443 193

C444 197 448 198 453 197

C459 194 465 198 465 205

C465 213 457 218 452 213

C447 210 441 213 441 220

C441 226 443 228 449 228

C454 228 457 231 457 236

C457 241 456 242 453 244

C449 248 445 248 441 244

C438 241 437 240 434 240

C430 240 426 245 426 249

C426 251 427 252 430 254

C436 258 436 265 430 270

C425 274 416 271 416 265

C416 261 412 257 408 257

C401 259 399 264 402 269

C409 277 395 287 387 280

C385 277 384 275 386 267

C386 263 384 260 379 260

C374 260 373 261 372 267

C371 275 369 277 363 277

C360 277 358 276 356 273

C352 269 352 265 357 261

C361 256 361 253 357 250

C355 248 353 247 352 247

C351 247 349 249 347 251

C343 256 339 256 335 253

C327 247 330 236 338 236

C343 236 347 233 347 229

C347 225 345 224 339 224

C332 224 327 218 330 211

C331 208 333 206 335 205

C339 204 341 204 346 208

C349 211 350 211 353 210

C357 208 357 205 355 201

C351 193 355 187 363 187

C369 187 374 193 371 199

C370 202 370 204 372 206

C375 209 378 208 382 205

C384 202 386 201 388 201

C395 201 400 208 397 215

C395 218 393 219 389 219

C385 219 382 221 382 226

C381 228 380 231 379 232

C378 234 377 235 377 236

C377 236 380 236 383 237

C391 239 402 235 409 229

C417 222 421 207 419 195

C416 178 407 169 388 163

C369 156 347 159 329 171

C316 180 306 194 302 211

C299 222 299 240 302 253

C305 263 311 277 318 286

C350 328 415 337 461 307

C471 300 484 287 491 277

C525 224 509 152 456 114

C448 108 435 102 424 98

L417 95

L413 97

C404 101 396 98 396 91

C396 90 395 89 389 88

C385 88 381 87 380 87

C377 87 377 90 380 93

C383 97 383 99 382 102

C381 105 375 108 370 108

C362 108 357 103 360 97

C361 92 361 91 359 88

C356 86 350 85 346 87

C343 89 342 93 343 96

C346 101 345 104 342 108

C339 110 338 110 333 110

C323 109 320 104 324 96

C326 91 325 87 321 86

C317 83 313 84 310 86

C308 88 308 89 308 97

C309 107 292 108 286 99

C284 95 285 94 288 89

C292 85 292 81 287 77

C282 72 274 76 274 84

C274 89 273 91 268 92

C265 93 264 94 264 96

C264 99 268 104 270 104

C271 104 273 103 275 103

C278 101 280 101 281 102

C287 104 289 114 285 120

C282 125 279 125 274 123

C267 119 262 121 261 130

C261 134 261 135 263 137

C265 139 266 139 270 139

C276 138 279 140 280 145

C281 149 280 155 276 158

C272 162 269 162 265 158

C260 154 258 154 254 158

C247 164 250 173 258 173

C263 173 266 176 266 181

C266 190 258 197 252 194

C251 193 249 192 248 190

C246 185 238 185 234 191

C230 197 232 202 239 203

C247 206 247 217 238 222

C232 226 227 224 224 218

C223 213 219 212 214 214

C209 216 206 219 206 223

C206 226 207 228 212 231

C219 236 211 248 201 248

C197 248 194 245 193 241

C193 234 187 231 180 235

C174 237 173 242 178 247

C182 251 183 254 181 258

C176 264 166 266 161 261

C159 259 159 258 159 255

C161 248 156 244 149 246

C142 247 138 254 143 259

C146 261 146 267 142 270

C140 272 139 273 140 275

C140 277 139 279 136 283

C132 286 131 288 131 290

C133 297 143 301 147 295

C148 294 149 292 149 292

C149 289 153 287 156 287

C162 287 169 294 169 300

C169 304 165 308 162 308

C159 308 155 312 155 316

C155 319 160 324 164 324

C165 324 168 323 170 321

C175 317 176 316 181 319

C190 325 188 341 178 340

C173 339 170 341 169 344

C168 348 170 354 173 356

L176 358

L181 356

C187 353 190 354 193 359

C197 365 195 374 189 377

C187 378 186 378 184 377

C178 375 176 375 173 377

C170 380 170 387 173 390

C174 392 175 392 181 392

C189 391 192 394 192 402

C192 412 183 417 176 412

C172 408 167 408 164 412

C159 418 162 427 169 427

C176 427 179 434 174 443

C173 446 167 449 164 449

C161 449 159 447 157 443

C153 437 149 436 144 441

C139 447 140 452 149 455

C158 459 152 475 140 475

C136 475 134 473 133 469

C131 461 124 459 118 464

C114 467 114 472 118 476

C121 479 124 483 124 484

C124 485 119 485 114 485

L103 485

L102 482

C100 478 97 476 93 476

C89 476 86 478 85 482

L84 485

L75 485

C70 484 64 484 61 483

C58 483 56 483 56 484

C54 486 34 485 31 484

C29 482 24 482 21 483

C20 484 17 485 11 485

L3 485

L3 482

Z

M323 330

C325 329 327 328 327 328

C327 326 322 328 320 330

C318 331 318 332 319 332

C319 332 321 331 323 330

Z

M116 279

C117 278 117 275 118 273

C118 271 118 269 118 269

C118 269 119 267 121 265

C127 258 123 250 113 252

C107 253 104 258 108 264

C110 268 109 272 104 274

C102 276 101 276 102 278

C105 281 113 282 116 279

Z

M81 274

C83 271 84 269 82 262

C82 259 82 258 84 256

L86 253

L83 252

C79 250 74 251 72 254

C70 255 70 257 71 262

C71 267 71 268 69 270

L66 272

L69 274

C72 277 77 277 81 274

Z

M428 72

C428 70 423 66 420 66

C419 66 416 67 415 68

L413 69

L420 72

C428 74 428 74 428 72

Z

M273 482

C273 481 272 479 270 477

C267 474 267 474 263 475

C259 475 258 475 256 473

C249 466 255 452 263 452

C266 452 267 453 270 455

C273 459 278 459 282 456

C287 450 286 444 278 442

C273 440 271 438 271 434

C271 427 277 421 283 421

C287 421 289 423 291 427

C293 433 300 433 305 429

C308 425 308 421 302 415

C298 411 298 411 298 408

C300 401 309 396 314 398

C318 399 320 403 320 407

C320 411 323 414 327 414

C335 414 339 405 334 399

C331 395 330 394 332 390

C335 384 346 382 351 386

C353 389 354 392 353 397

C351 403 359 408 365 405

C369 403 370 399 368 394

C366 388 367 385 372 382

C377 380 381 381 385 383

C390 386 391 389 388 395

C386 399 386 400 387 402

C389 407 397 409 401 405

C403 403 403 401 403 397

C403 392 403 391 406 389

C411 385 420 387 423 393

C426 397 425 398 422 403

C420 405 418 408 418 409

C418 411 420 415 423 416

C429 419 434 416 434 409

C434 399 450 398 455 409

C457 413 455 417 450 420

C447 422 447 422 447 426

C447 429 448 431 450 433

C455 438 460 437 464 431

C467 426 470 425 474 426

C479 428 482 432 483 437

C483 441 481 445 475 446

C470 448 468 450 468 454

C468 458 470 461 474 463

C477 464 482 463 483 461

C483 460 484 459 486 458

C495 454 503 468 497 476

C495 479 494 479 489 479

C484 479 483 479 481 481

C480 482 479 483 479 484

C479 485 474 485 466 485

C455 485 453 485 453 483

C453 480 447 467 442 461

C432 447 416 437 397 432

C384 429 363 429 351 432

C325 439 306 456 298 479

L297 485

L285 485

L273 485

L273 482

Z

M326 484

C326 483 331 480 334 480

C335 480 337 481 339 483

L342 485

L334 485

C330 485 326 485 326 484

Z

M350 483

C352 480 351 475 348 471

C343 465 348 456 356 456

C361 456 364 457 366 462

C367 464 367 466 366 469

C365 473 365 474 366 476

C370 482 378 480 380 472

C381 466 382 464 387 463

C391 463 398 467 400 471

C403 476 402 479 397 482

C393 485 393 485 371 485

L349 485

L350 483

Z

M500 482

C500 477 501 473 504 470

C507 466 509 466 514 469

C522 474 530 469 528 461

C528 457 525 455 520 455

C510 455 507 443 515 437

C520 433 524 433 528 438

C530 440 532 441 535 441

C540 441 543 438 543 433

C543 429 540 425 536 425

C533 425 530 422 530 417

C530 413 531 412 534 409

C537 406 539 405 541 405

C545 405 549 408 549 411

C549 413 553 416 556 416

C560 416 564 412 564 408

C564 405 562 404 559 402

C554 398 553 395 554 390

C558 381 574 381 574 390

C574 393 578 397 582 397

C584 397 586 396 588 395

C591 391 591 387 587 383

C584 380 583 376 586 372

C589 367 598 365 602 369

C604 371 605 372 605 375

C605 381 606 383 609 385

C612 386 613 386 616 385

C617 384 619 383 620 382

C621 379 621 375 619 373

C613 364 628 354 637 362

C639 364 640 366 638 374

C638 379 640 382 645 383

C648 383 649 383 652 381

C654 378 654 377 654 374

C652 368 653 366 655 364

C665 356 679 366 672 376

C669 379 669 383 673 386

C679 392 687 388 687 381

C687 376 690 373 695 373

C700 373 705 376 707 380

C708 385 708 387 703 391

C700 393 699 396 699 397

C699 401 704 405 708 405

C711 405 715 402 715 400

C715 397 719 394 722 394

C731 394 738 405 734 412

C733 413 731 414 729 414

C724 415 722 418 722 422

C722 425 723 427 724 428

C728 432 732 432 736 428

C740 423 743 423 747 426

C753 430 755 439 751 443

C749 446 748 446 744 446

C735 446 731 453 735 459

C737 463 741 464 745 462

C752 459 756 461 758 468

C760 474 757 480 753 483

C750 484 750 484 746 482

C741 479 739 479 736 483

C734 485 733 485 722 485

L711 485

L711 473

C711 456 708 445 699 433

C675 402 620 398 586 424

C568 437 556 456 550 477

L548 485

L524 485

L501 485

L500 482

Z

M593 484

C593 483 592 481 592 478

C592 469 602 465 608 470

C613 476 618 478 621 474

C624 471 623 469 620 464

C616 460 615 457 617 453

C620 447 629 445 634 449

C636 452 636 453 636 459

C636 466 637 468 642 468

C645 468 646 467 647 462

C648 456 651 453 656 453

C660 453 663 455 665 459

C667 463 666 466 657 473

C652 477 657 485 664 484

C666 483 668 483 669 484

C670 485 658 485 632 485

C604 485 594 485 593 484

Z

M791 469

C791 461 791 452 791 450

C790 447 790 447 787 448

C781 451 773 444 774 436

C775 431 776 430 783 428

L788 427

L788 420

C787 412 786 410 781 410

C779 410 777 411 775 413

C769 418 763 418 759 412

C754 404 759 396 769 396

C777 397 782 387 776 381

C772 378 769 377 764 380

C757 383 752 382 750 377

C745 368 752 359 760 362

C765 364 768 363 771 360

C774 358 774 357 774 353

C774 350 773 348 771 346

C769 344 769 344 762 345

C754 345 751 344 749 339

C747 333 750 327 755 325

C758 324 759 324 764 327

C769 329 770 329 772 328

C779 325 780 318 775 313

C772 310 771 310 768 310

C758 312 753 299 761 293

C765 289 770 289 774 293

C779 298 785 297 789 291

C791 285 787 279 780 279

C776 279 772 275 772 270

C772 264 777 259 782 259

C786 259 786 259 793 266

C796 270 801 270 805 266

C809 261 807 256 799 252

C792 249 790 246 792 240

C795 231 807 229 811 237

C814 243 818 246 821 246

C825 246 828 244 830 240

C832 236 830 232 825 229

C818 225 817 220 822 214

C825 211 826 210 825 207

C825 205 825 203 826 201

C829 198 829 198 810 189

C769 168 729 159 694 162

C667 164 650 172 635 188

C623 200 618 213 618 230

C618 242 619 248 624 258

C633 277 653 289 672 288

C688 286 699 275 695 263

C695 261 693 259 692 258

C690 256 690 256 686 257

C681 260 674 260 671 257

C668 255 665 249 665 244

C665 240 663 237 658 234

C648 229 652 216 664 216

C668 216 671 219 672 224

C673 228 676 230 680 230

C686 229 687 227 687 221

C687 214 688 212 691 210

C701 205 712 216 705 225

C700 230 700 234 706 236

C710 238 712 236 715 231

C717 229 719 227 720 226

C728 224 737 233 734 241

C733 245 730 247 726 247

C723 247 718 250 718 253

C718 254 719 256 720 258

C722 261 722 261 733 259

C738 259 740 260 743 264

C745 268 744 274 741 278

C738 281 734 281 729 279

C724 276 722 276 719 279

C715 284 717 294 723 294

C724 294 726 295 728 296

C733 301 731 311 723 314

C718 316 713 314 711 309

C708 302 703 301 698 306

C694 310 694 312 698 317

C702 321 702 325 698 329

C694 334 686 335 682 330

C680 328 680 327 680 322

C680 317 680 316 677 314

C674 311 668 312 665 315

C663 316 663 317 664 323

C664 330 664 330 661 332

C659 334 657 335 654 335

C649 335 645 333 643 328

C642 325 642 323 645 319

C648 316 648 312 644 309

C639 305 631 308 631 315

C631 317 630 319 628 321

C626 323 625 323 621 323

C616 322 612 320 610 315

C607 310 608 307 613 303

C617 301 618 300 618 297

C618 292 614 287 609 287

C605 287 603 288 600 293

C594 302 579 288 583 278

C584 275 588 273 592 273

C597 273 601 265 598 260

C597 257 591 255 588 256

C587 256 585 257 584 258

C581 261 578 260 574 257

C571 255 571 253 570 249

C569 239 574 235 583 237

C587 238 587 238 590 236

C592 235 593 233 593 230

C593 226 593 225 590 222

C588 220 587 220 580 222

C578 222 576 222 574 219

C572 217 571 215 571 212

C571 204 575 198 581 198

C582 198 585 199 587 201

C590 203 592 203 594 202

C597 201 600 197 600 192

C600 188 599 186 593 185

C587 184 585 182 585 177

C585 170 591 164 597 164

C600 164 602 165 605 170

C609 176 620 172 620 164

C620 160 619 158 615 156

C611 154 610 152 610 148

C610 141 619 135 626 137

C629 138 630 140 631 145

C632 150 637 153 642 151

C648 149 650 142 645 136

C640 130 642 124 649 121

C657 117 665 121 664 129

C663 134 664 137 668 139

C672 141 676 140 679 136

C681 133 682 130 679 127

C675 121 680 113 689 113

C698 113 702 118 699 125

C697 130 698 132 700 135

C703 137 709 138 713 135

C717 134 718 130 716 126

C715 121 715 120 717 117

C721 111 730 111 736 117

C739 119 739 123 736 128

C733 132 733 134 737 137

C740 140 744 141 749 139

C752 137 753 134 753 129

C752 125 752 124 754 122

C758 117 768 117 772 123

C776 127 776 130 772 135

C768 139 768 141 771 144

C777 152 789 148 787 139

C787 136 787 135 790 132

C794 128 796 128 806 132

C814 135 815 135 819 132

C822 128 822 124 819 121

C817 118 816 118 806 120

C804 120 803 120 801 117

C798 114 798 113 798 108

C799 103 799 101 801 99

C804 97 809 96 811 98

C813 102 821 101 823 97

C824 94 824 90 822 87

C821 85 820 85 816 85

C809 85 807 84 806 79

C805 75 806 69 810 66

C814 62 818 62 821 66

C824 69 827 70 830 69

C833 68 836 64 836 60

C836 57 833 54 829 53

C827 53 824 52 823 51

C819 47 822 38 827 34

C833 30 837 31 840 37

C843 42 848 43 852 40

C858 36 857 29 851 26

C846 24 844 20 846 16

C851 5 864 4 866 14

C867 21 874 23 880 18

C883 14 883 10 879 7

C872 1 873 0 885 0

C895 0 895 0 896 3

C897 4 899 6 900 7

C903 8 903 8 906 7

C907 6 909 4 910 3

C911 0 911 0 919 0

C926 0 928 0 929 2

C931 3 936 3 939 2

C941 -1 958 -1 958 1

C958 2 959 4 961 5

C963 6 963 7 963 18

L963 29

L960 29

C945 26 927 26 913 30

C905 32 892 38 884 43

C878 47 866 59 861 66

C837 102 840 156 868 189

C888 212 916 225 951 228

L963 229

L963 267

L963 305

L957 303

C950 302 935 302 928 304

C918 306 909 311 902 317

C884 335 883 363 901 372

C906 375 916 375 915 373

C915 372 915 369 915 366

C915 361 915 359 918 355

C923 349 923 347 920 344

C914 336 923 325 932 329

C936 331 938 335 937 341

C937 346 937 347 939 348

C943 351 945 350 949 346

C954 341 957 340 961 342

C963 343 963 344 963 351

C963 360 963 361 957 361

C954 361 951 364 951 368

C951 371 954 374 959 374

L963 374

L963 384

L963 395

L959 395

C956 395 955 395 953 392

C948 387 944 387 941 391

C938 394 938 398 942 402

C947 406 947 408 946 412

C941 423 926 421 926 410

C926 406 925 402 923 401

C920 399 914 400 912 402

C910 404 910 405 910 411

C911 417 911 417 908 420

C902 426 890 422 890 414

C890 412 891 409 893 407

C896 402 896 398 891 396

C886 393 882 394 880 400

C878 406 875 408 870 408

C859 406 856 392 865 389

C872 386 873 381 869 376

C866 372 862 372 857 377

C855 378 852 380 851 380

C845 380 839 373 840 366

C841 361 845 359 852 359

C856 359 858 359 860 356

C862 354 862 353 862 350

C861 348 860 345 859 344

C858 342 857 342 851 342

C845 343 845 343 842 340

C836 334 840 322 848 322

C850 322 853 323 854 324

C857 326 861 327 864 325

C866 325 869 320 869 317

C869 314 865 310 860 310

C851 308 849 295 858 291

C863 288 868 289 871 294

C876 305 891 299 886 288

C885 286 884 285 884 285

C884 285 882 284 881 282

C877 278 877 274 881 269

C888 263 898 266 898 275

C899 283 904 285 910 282

C916 279 917 275 913 270

C909 265 909 261 914 257

C919 252 919 250 915 246

C913 244 912 244 909 244

C903 245 902 247 902 252

C902 260 897 263 889 261

C881 259 877 249 883 245

C884 244 886 243 886 242

C887 240 887 240 885 240

C879 242 862 251 853 257

C817 281 798 318 800 359

C803 404 828 437 871 451

C885 456 896 457 915 457

C932 456 944 454 956 448

L963 445

L963 461

L963 477

L959 476

C955 476 954 476 952 478

C950 480 949 482 949 483

C949 485 949 485 939 485

C927 484 924 484 909 485

C900 485 898 485 896 484

C893 482 889 482 886 483

C885 484 882 485 876 485

C868 485 867 485 867 483

C867 478 861 473 856 475

C852 475 849 479 849 483

L849 485

L820 485

L791 485

L791 469

Z

M828 470

C830 469 831 469 833 470

C837 472 838 470 835 465

C832 459 826 458 821 463

C819 465 818 470 819 472

C820 473 825 472 828 470

Z

M946 273

C948 271 948 270 946 262

C946 259 946 258 948 256

C950 254 950 254 948 252

C946 250 941 251 938 253

C935 255 935 256 935 261

C936 267 936 267 933 269

C931 272 931 274 934 275

C939 277 943 276 946 273

Z

M851 227

C851 226 853 225 854 225

C856 224 858 222 859 221

C860 220 859 219 853 215

L847 210

L845 213

C844 215 842 217 842 218

C840 219 841 224 844 227

C847 228 851 229 851 227

Z

M825 163

C826 160 826 155 823 153

C821 150 816 151 813 153

C810 155 806 156 804 154

C803 153 803 153 803 154

C803 157 806 159 813 163

C821 167 823 167 825 163

Z

M98 206

C94 203 93 199 94 196

C97 191 96 188 93 185

C87 179 78 183 78 190

C78 196 75 199 70 199

C64 199 60 196 58 191

C56 187 57 183 61 181

C66 178 65 169 59 166

C54 165 50 166 49 170

C45 179 34 176 30 166

C29 162 29 162 30 158

C32 156 33 155 36 154

C44 153 46 147 41 141

C38 138 36 137 32 140

C28 143 25 143 22 140

C14 134 18 117 27 119

C34 121 37 121 38 119

C41 117 41 109 39 107

C38 106 35 106 33 106

C27 105 24 103 23 98

C23 94 27 87 31 85

C35 83 38 84 42 88

C45 92 49 92 53 88

C57 84 57 80 52 76

C47 72 47 69 51 64

C55 59 60 58 65 59

C69 60 70 63 70 67

C70 72 73 75 78 75

C84 75 86 72 86 66

C85 60 85 58 89 56

C95 54 102 55 106 61

C109 64 109 66 105 71

C102 75 101 78 104 81

C107 84 111 84 116 80

C119 77 120 77 123 77

C127 78 129 80 131 84

C134 91 129 97 120 97

C114 97 111 98 111 101

C110 105 112 108 116 110

C120 112 122 116 121 121

C120 124 115 128 111 128

C109 128 103 123 103 121

C103 120 102 118 101 117

C97 111 90 114 90 122

C90 126 85 131 82 131

C78 131 74 129 72 126

C70 121 71 118 75 114

C77 112 79 110 79 109

C80 106 78 100 76 100

C74 100 67 108 65 114

C59 130 68 148 86 157

C114 170 151 151 158 119

C160 112 159 96 157 87

C149 56 127 36 94 28

C84 26 63 26 54 28

C34 33 18 42 5 56

L0 61

L0 36

C0 19 0 13 1 15

C3 21 9 23 14 18

C18 15 18 11 14 6

C8 1 9 0 20 0

L31 0

L32 3

C35 9 43 9 45 3

C46 0 46 0 54 0

C60 0 63 1 64 2

C67 3 72 3 74 2

C75 0 77 0 84 0

C91 0 92 0 95 3

C99 7 104 7 107 3

L109 0

L118 0

L128 0

L126 3

C121 8 123 14 129 16

C134 16 137 15 138 11

C139 6 140 3 143 2

C146 1 147 1 152 3

C156 5 159 10 159 13

C159 15 155 20 153 20

C151 20 149 24 149 27

C149 31 153 35 157 35

C161 35 164 33 164 32

C164 31 165 29 166 28

C171 22 181 26 183 34

C185 41 183 44 175 45

C171 46 168 52 170 56

C173 63 178 64 183 59

C188 54 191 54 195 57

C199 61 200 65 200 69

C199 74 196 76 190 76

C183 76 179 82 182 89

C185 93 189 94 194 91

C203 86 210 101 203 109

C201 112 200 112 197 112

C186 110 186 110 184 113

C182 116 181 120 183 124

C185 127 187 128 192 127

C200 126 203 134 199 143

C196 150 190 151 184 146

C180 142 177 142 173 146

C168 151 169 158 176 160

C177 160 179 161 180 161

C186 166 179 180 170 180

C166 180 163 178 163 175

C163 175 162 173 161 172

C158 168 153 168 149 172

C145 175 145 179 150 184

C154 188 154 191 150 196

C147 199 146 199 141 200

C134 200 131 198 131 192

C131 186 129 183 124 183

C116 183 112 188 115 195

C117 200 116 203 112 206

C108 207 101 207 98 206

Z

M960 203

C958 200 957 197 960 195

C963 190 959 183 952 182

C946 182 943 184 943 190

C943 198 937 201 929 197

C920 193 919 187 925 181

C928 179 929 177 929 175

C929 170 922 164 917 166

C916 166 914 168 913 170

C912 172 910 174 908 175

C903 177 894 170 894 162

C894 158 898 154 902 154

C904 154 906 153 907 151

C910 148 910 146 907 142

C904 138 901 137 897 140

C892 143 889 143 886 139

C879 133 883 117 891 120

C892 120 895 120 897 121

C902 121 905 119 905 113

C905 108 902 106 896 105

C893 105 891 105 890 103

C886 98 889 88 896 85

C900 83 902 83 906 88

C910 93 914 93 918 88

C923 83 922 80 915 75

C910 72 913 64 919 60

C927 56 934 59 934 66

C934 72 937 75 943 75

C949 75 951 72 950 65

C950 58 952 56 958 55

L963 55

L963 84

L963 114

L961 114

C957 114 955 117 954 122

C953 128 952 130 948 131

C941 132 936 127 936 121

C936 119 937 117 940 114

C944 110 944 109 944 106

C943 100 942 99 939 101

C929 108 925 123 930 136

C934 146 948 158 959 160

L963 160

L963 183

C963 196 963 206 963 206

C962 206 961 205 960 203

Z

M668 107

C667 106 664 104 663 103

C662 100 662 100 663 96

C667 89 664 85 656 85

C650 85 646 88 647 92

C649 101 649 102 646 104

C641 108 632 107 628 102

C625 99 625 96 628 93

C632 88 630 82 623 80

C620 79 619 79 617 80

C614 82 612 86 612 90

C614 95 607 100 600 98

C596 97 590 91 590 88

C590 87 592 84 594 82

C598 77 598 72 595 69

C590 65 582 68 582 73

C582 74 581 76 581 78

C578 83 569 83 564 77

C559 71 559 66 565 63

C569 61 570 59 570 55

C570 52 565 47 562 47

C558 47 557 48 555 53

C552 59 549 60 543 57

C537 54 533 46 536 41

C537 40 539 39 541 38

C545 37 549 34 549 31

C549 30 548 27 547 25

C545 23 544 22 541 22

C539 22 537 23 534 26

C530 30 527 31 523 28

C520 27 516 20 516 17

C516 12 520 8 525 8

C528 8 529 7 531 5

C532 4 533 2 533 1

C533 0 536 0 546 0

L559 0

L561 3

C567 16 584 34 597 43

C645 74 708 66 749 22

C754 17 760 10 762 7

L767 0

L780 0

L794 0

L792 3

C788 10 791 17 797 17

C801 17 805 21 805 25

C805 29 802 34 798 37

C793 40 791 40 788 36

C787 35 785 32 784 31

C781 28 777 28 773 32

C771 34 770 35 770 38

C770 43 771 45 777 47

C783 49 783 58 776 63

C770 68 761 66 761 60

C761 59 760 57 759 55

C755 52 751 52 747 56

C743 60 743 64 747 68

C748 69 750 71 751 72

C755 75 752 83 744 86

C741 88 739 88 736 87

C732 86 731 83 731 79

C731 72 722 69 717 74

C714 78 714 82 718 86

C720 88 721 90 721 91

C721 95 718 99 713 100

C704 104 697 100 699 91

C700 85 697 82 691 82

C684 82 680 88 683 94

C687 99 684 106 677 107

C673 108 672 108 668 107

Z

M352 36

C348 34 346 30 348 26

C350 21 349 19 347 16

C343 13 336 13 333 17

C331 19 331 20 332 25

C332 30 332 31 329 33

C324 37 314 35 311 30

C308 26 309 23 312 19

C316 14 316 12 312 8

C310 6 308 5 306 5

C302 5 298 8 298 11

C298 14 295 18 292 18

C288 19 281 16 279 13

C276 9 276 5 277 2

L278 0

L337 0

C400 0 401 0 403 6

C406 13 395 24 387 21

C384 20 382 16 382 13

C382 11 378 8 374 8

C367 8 364 15 369 22

C370 24 371 26 371 27

C371 30 367 34 363 36

C359 37 356 37 352 36

Z

M646 5

C645 4 643 3 642 2

C640 0 640 0 651 0

C661 0 661 0 660 2

C659 3 656 4 654 5

C650 6 651 6 646 5

Z

M680 4

C674 1 675 0 686 0

C694 0 695 0 694 1

C693 3 687 5 685 5

C684 5 682 4 680 4

Z

M807 3

C806 2 805 1 805 1

C805 0 808 0 812 0

C819 0 821 1 817 3

C813 6 809 5 807 3

Z

"/>

</svg>

