<?xml version="1.0" standalone="no"?>

<!DOCTYPE svg PUBLIC "-//W3C//DTD SVG 20010904//EN"

 "http://www.w3.org/TR/2001/REC-SVG-20010904/DTD/svg10.dtd">

<svg version="1.0" xmlns="http://www.w3.org/2000/svg"

 width="600.000000pt" height="590.000000pt" viewBox="0 0 600.000000 590.000000"

 preserveAspectRatio="xMidYMid meet">

<path fill="#fafbfa" stroke="none" d="
M0 295

L0 0

L300 0

L600 0

L600 295

L600 590

L300 590

L0 590

L0 295

Z

"/>

<path fill="#4f6d75" stroke="none" d="
M23 583

C23 575 25 563 28 553

C30 546 40 525 41 525

C41 525 44 528 47 531

C50 535 54 540 57 542

L62 547

L58 556

C55 565 52 579 52 586

L52 590

L38 590

L23 590

L23 583

Z

M100 551

C100 507 99 511 109 507

C111 505 116 503 120 502

C131 498 130 494 130 545

L130 590

L115 590

L100 590

L100 551

Z

M170 585

L171 580

L179 578

C183 577 189 575 192 574

C196 573 199 572 199 572

C200 572 200 576 200 581

L200 590

L185 590

L170 590

L170 585

Z

M248 582

C247 566 240 549 231 535

C226 528 214 516 208 512

L204 509

L204 492

L204 475

L209 478

C224 485 242 501 252 514

C267 534 275 557 277 582

L278 590

L263 590

L248 590

L248 582

Z

M300 295

L300 0

L312 0

L323 0

L323 6

C323 19 328 39 335 54

C343 73 360 93 378 105

C386 110 394 115 395 115

C396 115 396 107 396 98

L396 82

L390 78

C380 70 369 57 362 44

C357 33 352 14 352 4

L352 0

L377 0

L401 0

L401 16

C401 24 401 31 401 31

C402 31 404 30 408 29

C411 28 417 26 422 25

L430 23

L430 12

L430 0

L450 0

L470 0

L470 46

C470 84 470 91 471 91

C474 91 490 85 495 82

L500 80

L500 40

L500 0

L524 0

L548 0

L548 9

C547 20 544 32 538 43

L534 52

L540 57

C543 60 548 65 550 68

L555 73

L558 68

C563 61 569 49 571 40

C574 31 578 12 578 5

L578 0

L589 0

L600 0

L600 295

L600 590

L589 590

L578 590

L578 585

C578 583 577 577 576 572

C571 538 554 509 528 489

C521 484 507 476 505 476

C504 476 504 480 504 492

L504 509

L512 515

C532 530 546 557 548 581

L548 590

L524 590

L500 590

L500 581

C500 576 500 572 500 572

C499 572 496 573 491 575

C487 576 481 578 477 578

L471 580

L470 585

L470 590

L450 590

L430 590

L430 545

L430 499

L421 502

C416 504 409 506 407 508

L402 511

L401 550

L401 590

L376 590

L352 590

L352 582

C353 573 357 559 360 552

L362 548

L356 542

C353 538 348 533 346 530

L341 524

L336 533

C328 549 323 569 323 584

L323 590

L312 590

L300 590

L300 295

Z

M461 576

C485 574 507 565 526 552

C529 550 531 547 532 546

C532 545 525 534 519 527

L515 523

L508 528

C500 534 488 540 477 544

C468 546 466 546 451 546

L435 547

L435 561

L435 576

L441 576

C444 576 447 577 449 577

C450 577 455 577 461 576

Z

M396 548

L396 531

L390 527

C362 505 347 468 354 433

C355 423 359 410 364 403

L367 398

L356 387

L345 376

L340 384

C335 394 330 406 326 419

C324 428 324 430 324 449

C324 466 324 470 326 477

C334 508 349 532 373 551

C379 555 394 564 395 564

C396 564 396 557 396 548

Z

M481 537

C485 536 491 533 494 532

L500 529

L500 473

C500 443 500 418 500 418

C499 418 496 419 492 420

C488 422 483 423 479 424

C476 425 473 425 472 426

C470 426 470 430 470 483

C470 534 470 540 472 540

C472 540 477 539 481 537

Z

M392 511

C400 506 414 499 424 496

C434 493 448 492 458 493

L466 493

L466 479

L466 464

L461 464

C434 460 393 472 372 490

L368 494

L371 500

C375 505 385 516 386 516

C386 516 389 514 392 511

Z

M564 506

C585 463 582 417 556 378

C545 362 530 348 515 339

C503 332 504 331 504 350

L504 367

L509 370

C515 375 527 387 532 395

C542 410 547 425 548 446

C548 462 547 471 542 484

L539 492

L546 500

C550 504 554 509 556 511

C557 513 559 515 559 515

C560 515 562 511 564 506

Z

M422 461

L430 460

L430 409

C430 380 430 358 429 358

C427 358 412 364 407 366

L401 369

L401 419

L401 468

L408 466

C412 464 418 462 422 461

Z

M474 420

C490 417 506 411 520 402

L528 397

L526 394

C525 392 520 387 516 383

L508 375

L505 377

C499 381 484 388 476 390

C469 392 465 392 451 392

L435 393

L435 407

L435 422

L439 422

C446 423 465 422 474 420

Z

M396 394

L396 377

L391 374

C385 369 373 357 369 351

C367 348 364 342 361 337

C350 313 349 286 358 261

L362 252

L357 248

C355 245 350 240 347 236

C344 232 341 229 341 230

C339 232 331 249 329 257

C321 282 321 311 329 336

C339 365 361 392 388 406

C391 408 395 410 395 410

C396 410 396 403 396 394

Z

M481 384

C485 382 491 380 494 378

L500 375

L500 326

C500 296 500 277 499 277

C499 277 497 277 495 278

C494 279 488 280 482 282

L471 285

L470 335

C470 393 469 388 481 384

Z

M401 365

C417 355 436 350 455 351

L466 352

L466 337

L466 323

L453 322

C426 322 402 328 380 343

C376 345 373 348 373 348

C373 350 391 369 393 369

C393 369 397 367 401 365

Z

M563 354

C572 337 578 314 578 295

C578 283 575 267 571 255

C561 225 541 201 512 184

C509 182 505 180 505 180

C504 180 504 187 504 196

L504 213

L510 217

C524 229 536 245 542 262

C547 275 548 284 548 300

C547 316 545 326 538 339

L534 347

L544 357

L555 368

L557 365

C558 364 561 359 563 354

Z

M413 323

C417 321 423 320 425 319

L430 319

L430 261

C430 230 430 204 430 204

C428 204 414 209 408 212

L401 215

L401 271

C401 323 401 326 403 326

C404 325 408 324 413 323

Z

M472 279

C489 276 506 270 522 259

C534 251 534 252 528 244

C526 240 522 235 520 233

L515 228

L509 232

C500 239 485 246 473 249

C466 251 462 251 450 251

L435 252

L435 266

C435 273 435 280 436 280

C437 282 463 281 472 279

Z

M396 252

L396 236

L388 230

C384 227 379 221 375 217

C350 187 345 147 362 112

L366 103

L356 92

L345 81

L341 88

C333 101 327 117 324 133

C323 144 323 164 325 175

C331 212 353 245 386 264

C391 267 395 269 395 269

C396 269 396 261 396 252

Z

M480 242

C484 241 490 239 494 237

L500 234

L500 178

C500 148 500 123 499 123

C499 123 496 124 492 125

C489 126 483 128 479 129

L471 131

L470 188

C470 224 470 245 471 245

C471 245 475 244 480 242

Z

M388 220

C390 217 405 208 412 205

C426 199 435 198 451 198

L466 198

L466 183

C466 167 467 168 451 168

C425 168 399 176 379 190

C370 196 368 198 368 198

C368 201 384 221 386 221

C386 221 387 220 388 220

Z

M564 211

C577 186 581 159 576 133

C570 101 555 75 530 55

C522 48 507 39 505 39

C504 39 504 45 504 55

L504 72

L512 78

C527 89 540 109 545 129

C547 135 547 139 547 154

C547 172 547 176 541 190

L539 197

L546 205

C550 209 554 214 556 216

C557 218 559 220 559 220

C559 220 562 216 564 211

Z

M422 166

L430 165

L430 114

C430 72 430 63 429 63

C426 63 414 68 407 71

L401 74

L401 123

L401 173

L407 170

C411 169 417 167 422 166

Z

M472 125

C488 123 508 115 521 106

C524 104 527 101 527 101

C527 99 512 82 509 81

C508 80 505 81 500 84

C485 94 466 98 447 98

L435 97

L435 112

L435 127

L442 127

C453 128 462 127 472 125

Z

M396 72

C401 68 417 61 426 59

C432 57 436 57 450 57

L466 57

L466 42

C466 33 466 28 465 27

C463 26 438 27 428 28

C417 30 403 35 394 40

C385 44 373 52 373 53

C373 54 392 74 393 74

C393 74 394 73 396 72

Z

M140 576

L135 576

L134 561

L134 546

L146 547

C170 548 190 542 209 528

L215 523

L220 528

C226 535 232 545 232 546

C230 551 207 564 192 569

C178 575 154 578 140 576

Z

M87 560

C54 541 31 508 24 471

C22 457 23 431 26 418

C30 406 35 394 41 384

L45 376

L56 387

L66 398

L62 406

C49 434 49 464 62 491

C68 505 79 519 92 528

L96 531

L96 548

C96 557 96 564 95 564

C95 564 91 562 87 560

Z

M170 483

L170 426

L173 425

C182 423 191 421 195 420

C197 419 199 418 200 418

C200 418 200 443 200 473

L200 528

L196 530

C192 533 179 539 174 540

L170 540

L170 483

Z

M80 511

C77 508 74 503 72 500

C68 494 68 494 70 492

C73 488 87 479 96 475

C116 466 145 461 162 464

L166 464

L166 478

C166 486 166 493 166 493

C165 493 162 493 158 493

C149 492 134 493 124 496

C114 499 100 506 92 511

C89 514 86 516 85 516

C85 516 82 514 80 511

Z

M255 511

C254 508 249 503 246 499

L239 492

L242 482

C247 469 248 461 248 449

C248 419 234 390 210 371

L204 367

L204 350

C204 341 204 334 205 334

C207 334 223 344 230 350

C245 362 257 377 265 394

C274 413 277 429 277 450

C277 464 276 474 272 487

C269 496 260 515 259 515

C259 515 257 513 255 511

Z

M100 467

C100 466 100 444 100 418

L101 370

L105 367

C109 365 122 360 127 359

L130 358

L130 409

L130 460

L122 461

C118 462 112 464 108 466

C103 467 101 468 100 467

Z

M139 422

L135 422

L135 407

L135 393

L151 393

C163 392 168 392 175 390

C183 388 196 382 204 378

L208 375

L213 380

C216 383 221 387 223 391

L227 396

L225 399

C217 406 196 415 181 419

C167 422 149 424 139 422

Z

M86 405

C70 396 53 380 43 365

C35 353 27 333 25 318

C22 305 23 284 25 271

C28 257 34 240 40 231

C41 229 41 229 47 236

C50 240 55 245 57 248

L62 252

L59 258

C54 271 53 279 53 295

C53 309 53 311 55 320

C61 342 74 360 91 373

L96 377

L96 394

C96 406 96 410 95 410

C94 410 90 408 86 405

Z

M170 335

L170 284

L175 284

C177 283 184 282 189 280

C195 278 199 277 199 277

C200 277 200 299 200 326

L200 375

L194 378

C188 381 175 386 172 386

C170 386 170 385 170 335

Z

M84 361

C80 357 75 352 74 351

C73 348 73 348 75 346

C86 338 104 330 120 325

C128 323 132 323 148 323

L166 323

L166 337

L166 352

L151 352

C134 352 128 353 114 358

C110 360 103 363 100 365

C96 367 93 369 92 369

C92 369 88 366 84 361

Z

M244 357

L234 347

L236 342

C249 320 251 291 244 266

C241 257 235 245 229 237

C224 230 212 218 207 215

L204 214

L204 197

C204 188 204 180 205 180

C206 180 216 186 223 190

C230 196 246 211 253 220

C259 229 266 241 270 252

C279 278 280 308 271 335

C269 344 260 361 257 365

L255 368

L244 357

Z

M100 271

L100 216

L105 213

C110 210 121 206 127 205

L130 204

L130 261

L130 319

L124 320

C120 320 114 322 110 324

C105 325 102 326 101 326

C100 326 100 306 100 271

Z

M135 280

C134 280 134 273 134 265

L134 251

L144 252

C167 253 191 246 209 232

L215 228

L220 233

C225 239 232 249 232 250

C232 252 225 257 216 263

C205 270 187 277 171 280

C163 281 136 282 135 280

Z

M86 264

C74 257 68 252 57 240

C42 225 32 207 26 185

C23 173 22 148 24 135

C26 119 33 102 41 87

L45 81

L56 92

L66 103

L62 112

C47 144 50 180 69 209

C74 217 84 227 90 232

L96 236

L96 252

C96 261 96 269 95 269

C95 269 91 267 86 264

Z

M170 188

L171 131

L182 128

C188 126 194 125 195 124

C197 123 199 123 199 123

C200 123 200 144 200 178

L200 233

L196 236

C191 238 178 243 173 244

L170 245

L170 188

Z

M81 216

C76 211 68 200 68 199

C68 196 82 187 95 181

C112 172 126 169 146 168

C154 168 162 168 163 168

L166 169

L166 183

L166 198

L151 198

C138 198 134 198 126 200

C114 203 101 210 92 216

C89 219 86 221 86 221

C86 221 83 219 81 216

Z

M253 213

C250 209 245 204 243 201

L238 197

L241 192

C246 180 247 172 247 154

C247 138 247 136 245 128

C238 106 226 89 210 76

L204 72

L204 55

C204 46 204 39 205 39

C205 39 207 40 210 42

C232 52 256 78 266 100

C274 118 277 134 277 153

C277 168 276 176 272 190

C270 198 260 220 259 220

C259 220 256 217 253 213

Z

M101 172

C100 172 100 150 100 123

L100 75

L104 73

C110 69 125 63 129 63

C130 63 130 74 130 114

L130 165

L122 166

C117 167 111 169 107 170

C104 172 101 172 101 172

Z

M142 127

L135 127

L134 112

L134 98

L150 97

C164 97 167 97 175 95

C184 92 198 86 204 82

C207 80 207 80 210 82

C215 86 227 99 227 101

C227 103 214 111 204 116

C185 124 162 129 142 127

Z

M87 111

C54 92 31 59 24 22

C24 18 23 11 23 7

L23 0

L37 0

L52 0

L52 8

C53 20 57 32 62 44

C69 56 77 66 88 76

L96 82

L96 99

C96 108 96 115 95 115

C95 115 91 113 87 111

Z

M170 46

L170 0

L185 0

L200 0

L200 40

L200 80

L194 83

C188 86 174 91 171 91

C170 91 170 81 170 46

Z

M85 67

C82 64 77 59 76 57

L73 53

L75 50

C80 47 92 40 101 36

C117 29 143 25 159 27

L166 28

L166 42

L166 57

L153 56

C133 56 116 60 99 70

C96 72 93 74 93 74

C92 74 89 71 85 67

Z

M244 62

L234 51

L238 43

C243 33 247 20 248 9

L248 0

L263 0

C277 0 278 0 278 2

C278 3 278 8 277 13

C275 30 269 49 261 63

C255 74 256 74 244 62

Z

M100 16

L100 0

L115 0

L130 0

L130 12

L130 23

L125 24

C123 25 116 26 111 28

C106 30 101 31 101 31

C100 31 100 24 100 16

Z

"/>

</svg>

