<?xml version="1.0" standalone="no"?>

<!DOCTYPE svg PUBLIC "-//W3C//DTD SVG 20010904//EN"

 "http://www.w3.org/TR/2001/REC-SVG-20010904/DTD/svg10.dtd">

<svg version="1.0" xmlns="http://www.w3.org/2000/svg"

 width="618.000000pt" height="589.000000pt" viewBox="0 0 618.000000 589.000000"

 preserveAspectRatio="xMidYMid meet">

<path fill="#f6f3f3" stroke="none" d="
M0 295

L0 0

L309 0

L618 0

L618 295

L618 589

L309 589

L0 589

L0 295

Z

"/>

<path fill="#754f64" stroke="none" d="
M0 490

L0 392

L4 399

C7 406 16 419 18 421

C19 421 19 411 19 392

L19 363

L10 363

L0 363

L0 359

L0 354

L10 354

L19 354

L19 325

C19 298 19 296 17 297

C14 300 7 311 4 318

L0 325

L0 211

L0 97

L3 104

C7 111 12 119 17 125

L19 128

L19 98

L19 69

L10 69

L0 69

L0 64

L0 59

L10 59

L19 59

L19 30

L19 1

L17 4

C12 9 7 17 3 24

L0 31

L0 16

L0 0

L100 0

L201 1

L207 3

C214 7 223 9 231 10

L238 10

L237 5

L237 0

L242 0

L247 0

L247 5

L247 10

L253 10

C261 9 275 5 281 2

C285 0 287 0 396 0

L507 0

L515 3

C524 7 536 10 542 10

L546 10

L546 5

L546 0

L551 0

L555 0

L555 5

L555 10

L559 10

C565 10 577 7 586 3

C594 0 595 0 606 0

L618 0

L618 16

C618 29 618 33 616 39

C615 43 614 49 613 53

L613 59

L615 59

C618 59 618 59 618 64

C618 69 618 69 615 69

L613 69

L613 75

C614 79 615 85 616 89

C618 96 618 99 618 211

C618 323 618 326 616 333

C615 337 614 344 613 347

L613 354

L615 354

C618 354 618 354 618 359

C618 363 618 363 615 363

L613 363

L613 369

C614 373 615 378 616 381

C617 386 617 396 618 488

L618 589

L606 589

L594 589

L600 585

C604 582 608 579 610 578

L613 575

L584 575

L555 575

L555 582

L555 589

L551 589

L546 589

L546 582

L546 575

L517 575

L488 575

L491 578

C493 579 497 582 501 585

L507 589

L396 589

L285 589

L291 585

C294 584 298 580 301 578

L305 575

L276 575

L247 575

L247 582

L247 589

L242 589

L237 589

L237 582

L238 575

L209 575

L180 575

L184 578

C186 580 190 584 193 585

L199 589

L100 589

L0 589

L0 490

Z

M83 572

L83 560

L80 560

C75 560 64 562 57 565

C47 568 36 574 27 582

L25 584

L54 584

L83 584

L83 572

Z

M149 582

C134 570 116 562 100 560

L93 560

L93 572

L93 584

L122 584

L152 584

L149 582

Z

M392 572

L392 560

L388 560

C377 560 358 567 345 575

C331 585 330 584 363 584

L392 584

L392 572

Z

M458 582

C455 579 443 571 436 568

C427 564 416 561 408 560

L401 560

L401 572

L401 584

L430 584

C459 584 459 584 458 582

Z

M10 559

C18 547 24 531 26 518

L26 511

L14 511

L2 511

L2 540

L2 570

L4 567

C5 566 8 562 10 559

Z

M320 558

C328 546 333 531 335 517

L335 511

L323 511

L311 511

L311 540

L311 570

L313 567

C315 565 318 561 320 558

Z

M173 539

L173 510

L161 510

C147 510 148 509 151 522

C152 532 157 544 161 551

C163 555 172 568 173 568

C173 568 173 555 173 539

Z

M482 539

L482 510

L470 510

L458 510

L458 517

C460 531 466 548 476 561

C479 565 481 568 481 568

C482 568 482 555 482 539

Z

M238 562

L238 558

L210 558

L183 558

L183 562

L183 565

L210 565

L238 565

L238 562

Z

M254 538

L254 510

L251 510

L247 510

L247 538

L247 565

L251 565

L254 565

L254 538

Z

M266 538

L266 510

L263 510

L259 510

L259 538

L259 565

L263 565

L266 565

L266 538

Z

M278 538

L278 510

L275 510

L271 510

L271 538

L271 565

L275 565

L278 565

L278 538

Z

M290 537

L290 510

L286 510

L283 511

L282 538

L282 565

L286 565

L290 565

L290 537

Z

M302 538

L302 511

L298 511

L295 511

L294 538

L294 565

L298 565

L302 565

L302 538

Z

M546 562

L546 558

L519 558

L491 558

L491 562

L491 565

L519 565

L546 565

L546 562

Z

M563 537

L563 510

L559 510

L556 511

L555 538

L555 565

L559 565

L563 565

L563 537

Z

M575 538

L575 511

L571 511

L568 511

L567 538

L567 565

L571 565

L575 565

L575 538

Z

M586 538

L586 511

L583 511

L580 511

L579 538

L579 565

L583 565

L587 565

L586 538

Z

M598 538

L598 510

L595 510

L591 510

L591 538

L591 565

L595 565

L598 565

L598 538

Z

M610 538

L610 510

L607 510

L603 510

L603 538

L603 565

L607 565

L610 565

L610 538

Z

M237 550

L237 546

L210 546

L183 546

L183 550

L183 553

L210 553

L238 553

L237 550

Z

M546 550

L546 546

L519 546

L491 546

L491 550

L491 553

L519 553

L546 553

L546 550

Z

M91 542

C97 540 99 532 95 527

L94 525

L93 527

C93 528 91 530 90 531

C88 532 87 532 85 531

C83 530 82 528 82 527

L82 525

L80 527

C78 529 77 535 79 538

C80 539 82 541 83 542

C87 543 87 543 91 542

Z

M400 542

C402 541 404 539 405 538

C407 535 406 530 404 527

L403 525

L402 527

C402 528 400 530 399 531

C397 532 396 532 394 531

C392 530 391 528 391 527

L391 525

L389 527

C387 529 386 535 388 538

C389 540 394 543 396 543

C397 543 399 542 400 542

Z

M237 538

L237 534

L210 534

L183 534

L183 538

L183 541

L210 541

L238 541

L237 538

Z

M546 538

L546 534

L519 534

L491 534

L491 538

L491 541

L519 541

L546 541

L546 538

Z

M71 525

C79 517 79 516 78 514

C76 512 76 513 65 522

C58 529 57 530 59 531

C60 532 61 533 61 533

C61 533 66 529 71 525

Z

M116 531

C118 530 117 529 108 521

C99 512 99 512 97 514

C95 516 96 517 104 525

C109 529 114 533 114 533

C114 533 115 532 116 531

Z

M380 525

C388 517 388 516 387 514

C385 512 385 512 373 523

C366 529 366 529 368 531

C369 532 370 533 370 533

C370 533 375 529 380 525

Z

M425 531

C427 530 426 529 420 523

C408 512 408 512 406 514

C405 516 405 517 414 525

C418 529 423 533 423 533

C423 533 424 532 425 531

Z

M237 526

C237 525 237 523 237 522

C237 522 225 522 210 522

L183 522

L183 526

L183 530

L210 530

L237 530

L237 526

Z

M546 526

L546 522

L519 522

L491 522

L491 526

L491 530

L519 530

L546 530

L546 526

Z

M237 514

L237 511

L210 510

L183 510

L183 514

L183 518

L210 518

L237 518

L237 514

Z

M546 514

L546 510

L519 510

L492 511

L491 514

L491 518

L518 518

L546 518

L546 514

Z

M61 514

C64 513 64 513 63 512

C57 509 56 504 61 501

L64 499

L62 498

C61 497 59 496 57 496

C47 496 43 510 52 514

C56 516 56 516 61 514

Z

M125 512

C127 510 128 508 128 506

C128 498 119 493 113 498

L111 500

L113 500

C118 502 118 509 113 511

L111 513

L114 514

C118 517 122 516 125 512

Z

M370 514

L374 513

L371 511

C366 509 366 502 371 500

L373 500

L371 498

C365 493 356 498 356 506

C356 510 361 516 365 516

C366 516 368 515 370 514

Z

M434 512

C436 510 437 508 437 506

C437 498 428 493 422 498

L420 500

L422 500

C427 502 427 509 422 511

L420 513

L423 514

C427 517 431 516 434 512

Z

M91 509

C95 505 91 498 85 501

C84 501 83 503 82 505

C81 510 88 513 91 509

Z

M400 509

C404 505 400 498 394 501

C393 501 392 503 391 505

C390 510 397 513 400 509

Z

M26 494

C24 478 16 460 4 445

L2 443

L2 472

L2 501

L14 501

L26 501

L26 494

Z

M173 472

L173 443

L171 445

C159 460 152 477 149 495

L149 501

L161 501

L173 501

L173 472

Z

M190 474

L190 446

L187 446

L183 446

L183 474

L183 501

L187 501

L190 501

L190 474

Z

M202 474

L202 446

L199 446

L195 446

L195 474

L195 501

L199 501

L202 501

L202 474

Z

M214 474

L214 446

L211 446

L207 446

L207 473

C207 488 207 500 207 501

C207 501 209 501 211 501

L214 501

L214 474

Z

M226 474

L226 446

L222 446

L218 446

L218 474

L218 501

L222 501

L226 501

L226 474

Z

M238 474

L238 446

L234 446

L230 446

L230 474

L230 501

L234 501

L238 501

L238 474

Z

M302 498

L302 494

L275 494

L247 494

L247 498

L247 501

L275 501

L302 501

L302 498

Z

M335 495

C333 478 325 459 313 446

L311 443

L311 472

L311 501

L323 501

L335 501

L335 495

Z

M482 472

L482 443

L480 445

C477 447 469 459 466 467

C462 475 458 491 458 497

L458 501

L470 501

L482 501

L482 472

Z

M499 474

L499 446

L495 446

L491 446

L491 474

L491 501

L495 501

L499 501

L499 474

Z

M511 473

L511 446

L507 446

L503 446

L503 474

L503 501

L507 501

L511 501

L511 473

Z

M522 474

L522 446

L519 446

L515 446

L515 474

L515 501

L519 501

L522 501

L522 474

Z

M534 474

L534 446

L531 446

L527 446

L527 474

L527 501

L531 501

L534 501

L534 474

Z

M546 474

L546 446

L543 446

L539 446

L539 474

L539 501

L543 501

L546 501

L546 474

Z

M610 498

L610 494

L583 494

L556 494

L556 498

L556 501

L583 501

L610 501

L610 498

Z

M78 498

C78 497 79 496 79 495

C79 495 75 491 70 486

C61 478 61 478 59 480

C57 481 57 482 66 490

C71 495 76 499 76 499

C76 499 77 498 78 498

Z

M109 490

C118 482 118 482 116 480

C114 478 114 478 105 487

C95 495 95 495 97 497

C98 498 99 499 99 499

C99 499 103 495 109 490

Z

M387 497

C389 495 389 495 379 487

C370 478 370 478 368 480

C366 481 366 482 375 490

C380 495 385 499 385 499

C385 499 386 498 387 497

Z

M418 490

C427 482 427 481 425 480

C423 478 423 478 414 487

C404 495 404 495 406 497

C407 498 408 499 408 499

C408 499 413 495 418 490

Z

M302 486

L302 482

L275 482

L247 482

L247 486

L247 489

L275 489

L302 489

L302 486

Z

M610 486

L610 482

L583 482

L556 482

L556 486

L556 489

L583 489

L610 489

L610 486

Z

M86 480

C89 480 92 481 93 484

L93 486

L95 484

C100 478 95 469 87 469

C80 469 75 478 80 484

L81 486

L82 484

C83 482 84 481 86 480

Z

M395 480

C398 480 401 481 402 484

L402 486

L404 484

C409 478 404 469 397 469

C389 469 384 478 389 484

L390 486

L391 484

C392 482 393 481 395 480

Z

M302 474

L302 470

L275 470

L247 470

L247 474

L247 477

L275 477

L302 477

L302 474

Z

M610 474

L610 470

L583 470

L556 470

L556 474

L556 477

L583 477

L610 477

L610 474

Z

M302 462

L302 458

L275 458

L247 458

L247 462

L247 466

L275 466

L302 466

L302 462

Z

M610 462

L610 458

L583 458

L556 458

L556 462

L556 466

L583 466

L610 466

L610 462

Z

M302 450

L302 446

L275 446

L247 446

L247 450

L247 454

L275 454

L302 454

L302 450

Z

M610 450

L610 446

L583 446

L556 446

L556 450

L556 454

L583 454

L610 454

L610 450

Z

M83 440

L83 428

L54 427

C38 427 25 427 25 428

C25 428 28 431 31 433

C43 442 59 449 74 451

C84 452 83 454 83 440

Z

M111 449

C123 446 142 436 148 429

L150 427

L121 427

L93 428

L92 438

C92 444 92 450 92 451

C93 452 99 452 111 449

Z

M392 440

L392 427

L363 427

C347 427 334 427 334 428

C334 429 342 435 349 439

C359 445 371 449 383 451

C393 452 392 454 392 440

Z

M420 449

C424 448 432 445 438 442

C447 437 459 429 459 428

C459 427 446 427 430 427

L402 428

L401 438

C401 444 401 450 401 451

C402 452 408 452 420 449

Z

M238 425

L238 413

L234 413

C220 413 195 423 184 433

L180 437

L209 437

L238 437

L238 425

Z

M301 433

C290 424 270 415 255 413

L247 412

L247 425

L247 437

L276 437

L306 437

L301 433

Z

M546 425

L546 413

L542 413

C534 413 521 417 511 422

C501 426 489 435 489 436

C489 437 502 437 518 437

L546 437

L546 425

Z

M612 434

C598 423 580 415 563 413

L556 412

L556 425

L556 437

L585 437

L615 437

L612 434

Z

M163 415

C172 403 179 385 180 369

L181 363

L169 363

L157 363

L157 392

C157 408 157 421 157 421

C158 421 160 418 163 415

Z

M328 392

L328 363

L316 363

L304 363

L304 367

C304 376 310 394 316 405

C319 410 327 421 328 421

C328 421 328 408 328 392

Z

M472 414

C481 401 488 384 490 369

L490 363

L478 363

L466 363

L466 392

C466 411 466 421 467 421

C468 420 470 417 472 414

Z

M83 415

L83 411

L56 411

L28 411

L28 415

L28 418

L56 418

L83 418

L83 415

Z

M100 390

L100 363

L96 363

L93 364

L92 391

L92 418

L96 418

L100 418

L100 390

Z

M112 391

L112 364

L108 363

L104 363

L104 390

L104 418

L108 418

L112 418

L112 391

Z

M124 391

L124 364

L120 363

L116 363

L116 390

L116 418

L120 418

L124 418

L124 391

Z

M135 391

L135 363

L132 363

L128 363

L128 391

L128 418

L132 418

L135 418

L135 391

Z

M147 391

L147 363

L144 363

L140 363

L140 391

L140 418

L144 418

L147 418

L147 391

Z

M392 415

L392 411

L365 411

L337 411

L337 415

L337 418

L365 418

L392 418

L392 415

Z

M409 390

L409 363

L405 363

L402 364

L401 391

L401 418

L405 418

L409 418

L409 390

Z

M421 391

L421 363

L417 363

L413 363

L413 391

L413 418

L417 418

L421 418

L421 391

Z

M433 391

L433 364

L429 363

L425 363

L425 390

L425 418

L429 418

L433 418

L433 391

Z

M444 391

L444 363

L441 363

L437 363

L437 391

L437 418

L441 418

L444 418

L444 391

Z

M456 391

L456 363

L453 363

L449 363

L449 391

L449 418

L453 418

L456 418

L456 391

Z

M83 403

L83 399

L56 399

L28 399

L28 403

L28 406

L56 406

L83 406

L83 403

Z

M392 403

L392 399

L365 399

L337 399

L337 403

L337 406

L365 406

L392 406

L392 403

Z

M558 392

C561 390 561 385 559 381

C558 378 558 378 557 380

C556 381 555 383 554 384

C551 385 551 385 548 384

C547 383 546 381 545 380

C544 378 544 378 543 381

C537 391 550 400 558 392

Z

M83 391

L83 387

L56 387

L28 387

L28 390

C28 392 28 394 29 394

C29 395 41 395 56 395

L83 395

L83 391

Z

M248 393

C252 390 253 385 250 381

C248 378 248 378 248 380

C247 381 246 383 244 384

C242 385 242 385 239 384

C238 383 237 381 236 380

C235 378 235 378 234 381

C231 385 232 389 235 393

C238 396 245 396 248 393

Z

M392 391

L392 387

L365 387

L337 387

L337 391

L337 395

L365 395

L392 395

L392 391

Z

M225 378

C229 374 234 370 234 369

C234 369 233 368 232 367

C231 365 230 366 221 374

C213 381 212 382 213 384

C214 385 214 386 215 386

C215 386 220 382 225 378

Z

M271 384

C272 383 271 381 263 374

C254 366 253 365 252 367

C251 368 250 369 250 369

C251 370 268 386 269 386

C270 386 270 385 271 384

Z

M534 378

C538 374 543 370 543 369

C543 369 542 368 541 367

C540 365 539 366 530 374

C522 381 521 383 522 384

C523 385 523 386 524 386

C524 386 529 382 534 378

Z

M580 384

C581 382 580 381 572 374

C563 366 562 365 561 367

C560 368 559 369 559 369

C560 370 577 386 578 386

C579 386 579 385 580 384

Z

M83 379

L83 375

L56 375

L28 375

L28 378

C28 380 28 382 29 382

C29 383 41 383 56 383

L83 383

L83 379

Z

M392 379

L392 375

L365 375

L337 375

L337 379

L337 383

L365 383

L392 383

L392 379

Z

M83 367

L83 363

L56 363

L29 364

L28 366

C27 371 27 371 56 371

L83 371

L83 367

Z

M392 367

L392 363

L365 363

L338 364

L337 367

L337 371

L364 371

L392 371

L392 367

Z

M217 367

C219 365 218 364 216 364

C211 363 212 355 217 353

C219 353 219 353 218 351

C217 350 214 350 212 349

C201 348 197 365 208 368

C212 369 215 368 217 367

Z

M280 365

C283 361 283 355 279 352

C275 348 270 348 267 351

C265 353 265 353 266 353

C269 353 271 356 271 359

C271 362 269 364 267 364

C265 364 265 364 266 366

C270 369 277 369 280 365

Z

M526 367

C528 365 527 364 525 364

C520 363 521 355 526 353

C528 353 528 353 527 351

C526 350 523 350 521 349

C518 349 517 349 514 352

C511 354 511 355 511 358

C511 360 512 363 512 364

C515 368 522 370 526 367

Z

M588 366

C590 365 592 360 591 357

C591 355 589 353 588 351

C585 349 584 349 581 349

C578 350 576 350 575 351

C574 353 574 353 576 353

C581 355 582 363 577 364

C575 364 574 365 576 367

C579 369 584 369 588 366

Z

M246 362

C247 361 248 359 247 358

C245 351 237 352 237 358

C237 364 242 366 246 362

Z

M555 362

C558 359 557 357 555 355

C551 351 546 353 546 359

C546 364 553 366 555 362

Z

M36 327

L36 299

L32 299

L28 299

L28 326

C28 341 28 353 29 353

C29 354 31 354 33 354

L36 354

L36 327

Z

M48 326

L48 299

L44 299

L40 299

L40 327

L40 354

L44 354

L48 354

L48 326

Z

M59 327

L59 299

L56 299

L52 299

L52 327

L52 354

L56 354

L59 354

L59 327

Z

M71 327

L71 299

L68 299

L64 299

L64 327

L64 354

L68 354

L71 354

L71 327

Z

M83 327

L83 299

L80 299

L76 299

L76 327

L76 354

L80 354

L83 354

L83 327

Z

M147 350

L147 346

L120 346

L93 346

L93 350

L93 354

L120 354

L147 354

L147 350

Z

M181 348

C179 339 176 328 172 319

C168 311 160 299 158 297

C157 297 157 307 157 325

L157 354

L169 354

L181 354

L181 348

Z

M328 325

L328 296

L324 300

C314 312 304 336 304 350

L304 354

L316 354

L328 354

L328 325

Z

M345 327

L345 299

L341 299

L337 299

L337 326

C337 341 337 353 338 353

C338 354 340 354 342 354

L345 354

L345 327

Z

M357 326

L357 299

L353 299

L349 299

L349 327

L349 354

L353 354

L357 354

L357 326

Z

M368 327

L368 299

L365 299

L361 299

L361 327

L361 354

L365 354

L368 354

L368 327

Z

M380 327

L380 299

L377 299

L373 299

L373 327

L373 354

L377 354

L380 354

L380 327

Z

M392 327

L392 299

L389 299

L385 299

L385 327

L385 354

L389 354

L392 354

L392 327

Z

M456 350

L456 346

L429 346

L402 346

L402 350

L402 354

L429 354

L456 354

L456 350

Z

M490 348

C488 335 483 320 475 308

C466 293 466 292 466 325

L466 354

L478 354

L490 354

L490 348

Z

M228 343

C215 331 215 331 213 333

C213 334 212 335 212 335

C212 335 217 339 222 344

C230 352 231 352 232 350

C234 348 234 348 228 343

Z

M267 340

C271 335 272 335 271 333

C270 332 269 331 269 331

C269 331 265 334 256 342

C250 348 250 348 251 350

C253 352 253 352 267 340

Z

M537 343

C523 330 524 331 522 333

C522 334 521 335 521 335

C521 335 525 339 530 344

C539 352 540 352 541 350

C543 348 543 348 537 343

Z

M576 340

C580 335 581 335 580 333

C579 332 578 331 578 331

C578 331 575 333 565 343

C559 348 559 348 560 350

C562 352 562 352 576 340

Z

M147 339

L147 335

L120 335

L93 335

L93 339

L93 342

L120 342

L147 342

L147 339

Z

M456 339

L456 335

L429 335

L402 335

L402 339

L402 342

L429 342

L456 342

L456 339

Z

M242 333

C244 333 245 334 247 336

L249 339

L251 336

C254 329 249 322 242 322

C234 322 230 329 233 336

L235 339

L237 336

C239 334 240 333 242 333

Z

M551 333

C553 333 554 334 556 336

L558 339

L560 336

C563 329 559 322 551 322

C543 322 539 329 542 336

L544 339

L546 336

C548 334 549 333 551 333

Z

M147 327

L147 323

L120 323

L93 323

L93 327

L93 330

L120 330

L147 330

L147 327

Z

M456 327

L456 323

L429 323

L402 323

L402 327

L402 330

L429 330

L456 330

L456 327

Z

M147 315

L147 311

L120 311

L93 311

L93 315

L93 319

L120 319

L147 319

L147 315

Z

M456 315

L456 311

L429 311

L402 311

L402 315

L402 319

L429 319

L456 319

L456 315

Z

M147 303

L147 299

L120 299

L93 299

L93 303

L93 307

L120 307

L147 307

L147 303

Z

M456 303

L456 299

L429 299

L402 299

L402 303

L402 307

L429 307

L456 307

L456 303

Z

M237 293

L237 281

L208 280

L179 280

L182 283

C189 289 202 296 212 300

C220 303 232 305 236 305

C237 305 237 302 237 293

Z

M263 302

C276 299 292 292 302 283

L306 280

L276 280

L247 280

L247 292

L247 305

L252 304

C254 304 259 303 263 302

Z

M546 293

L546 280

L517 280

L488 280

L492 283

C503 293 523 302 538 304

C541 304 545 305 545 305

C546 305 546 299 546 293

Z

M572 302

C585 299 601 292 611 283

L615 280

L585 280

L556 280

L556 292

L556 305

L561 304

C563 304 568 303 572 302

Z

M83 278

L83 265

L80 265

C79 266 74 266 71 267

C57 269 39 278 28 287

L25 290

L54 290

L83 290

L83 278

Z

M150 288

C149 288 145 284 140 281

C127 273 112 267 98 266

L93 265

L93 278

L93 290

L122 290

C149 290 151 290 150 288

Z

M392 278

L392 265

L388 266

C374 267 360 272 350 278

C343 282 335 288 335 289

C335 290 348 290 364 290

L392 290

L392 278

Z

M459 288

C458 288 454 284 449 281

C436 273 421 267 407 266

L402 265

L402 278

L402 290

L431 290

C458 290 460 290 459 288

Z

M9 266

C19 252 26 233 26 220

L26 216

L14 216

L2 216

L2 245

C2 278 2 277 9 266

Z

M318 266

C327 253 334 237 335 223

L335 216

L323 216

L311 216

L311 245

C311 278 311 277 318 266

Z

M173 245

L173 216

L161 216

L149 216

L149 221

C151 235 155 247 161 257

C164 263 172 273 173 273

C173 273 173 260 173 245

Z

M482 245

L482 216

L470 216

L458 216

L459 222

C460 237 467 254 476 267

C479 270 481 273 481 273

C482 273 482 260 482 245

Z

M237 267

L237 264

L210 263

L183 263

L183 267

L183 271

L210 271

L238 271

L237 267

Z

M254 244

L254 216

L251 216

L247 216

L247 244

L247 271

L251 271

L254 271

L254 244

Z

M266 244

L266 216

L263 216

L259 216

L259 244

L259 271

L263 271

L266 271

L266 244

Z

M278 244

L278 216

L275 216

L271 216

L271 244

L271 271

L275 271

L278 271

L278 244

Z

M290 243

L290 216

L286 216

L283 217

L282 244

L282 271

L286 271

L290 271

L290 243

Z

M302 244

L302 216

L298 216

L294 216

L294 244

L294 271

L298 271

L302 271

L302 244

Z

M546 267

L546 263

L519 263

L492 263

L492 267

L492 271

L519 271

L546 271

L546 267

Z

M563 244

L563 216

L560 216

L556 216

L556 244

L556 271

L560 271

L563 271

L563 244

Z

M575 244

L575 216

L572 216

L568 216

L568 244

L568 271

L572 271

L575 271

L575 244

Z

M587 244

L587 216

L584 216

L580 216

L580 244

L580 271

L584 271

L587 271

L587 244

Z

M599 243

L599 216

L595 216

L592 217

L591 244

L591 271

L595 271

L599 271

L599 243

Z

M611 244

L611 216

L607 216

L603 216

L603 244

L603 271

L607 271

L611 271

L611 244

Z

M238 256

L238 252

L210 252

L183 252

L183 256

L183 259

L210 259

L238 259

L238 256

Z

M546 256

L546 252

L519 252

L492 252

L492 256

L492 259

L519 259

L546 259

L546 256

Z

M94 245

C97 241 98 237 95 233

L94 231

L92 234

C91 236 91 237 88 237

C84 237 82 236 82 233

C82 231 82 231 80 233

C77 236 77 242 81 245

C85 249 91 249 94 245

Z

M237 244

L238 240

L210 240

L183 240

L183 244

L183 248

L210 248

L237 248

L237 244

Z

M403 245

C406 242 407 237 404 233

L403 231

L401 234

C400 237 400 237 397 237

C393 237 393 237 392 234

L390 231

L389 233

C382 243 395 254 403 245

Z

M546 244

L547 240

L519 240

L492 240

L492 244

L492 248

L519 248

L546 248

L546 244

Z

M70 231

C75 226 79 222 79 222

C79 222 78 221 78 219

C76 218 76 218 67 226

C57 235 57 235 59 237

C60 238 61 239 61 239

C61 239 65 235 70 231

Z

M116 237

C118 235 118 235 108 227

C99 218 99 218 97 220

C95 221 95 222 104 230

C109 235 114 239 114 239

C114 239 115 238 116 237

Z

M379 231

C384 226 388 222 388 221

C388 221 387 220 387 219

C385 218 383 220 376 227

C366 235 366 235 368 237

C369 238 370 239 370 239

C370 239 374 235 379 231

Z

M425 237

C427 235 427 235 417 227

C410 220 407 218 406 219

C406 220 405 221 405 221

C405 222 422 239 423 239

C423 239 424 238 425 237

Z

M237 236

C237 235 237 233 237 232

L237 228

L210 228

L183 228

L183 232

L183 236

L210 236

C225 236 237 236 237 236

Z

M546 232

L546 228

L519 228

L492 228

L492 232

L492 236

L519 236

L546 236

L546 232

Z

M237 220

L237 217

L210 216

L183 216

L183 220

L183 224

L210 224

L237 224

L237 220

Z

M546 224

C546 223 546 221 546 220

L546 216

L519 216

L492 216

L492 220

L492 224

L519 224

C534 224 546 224 546 224

Z

M62 220

C65 219 64 217 62 217

C60 216 59 215 58 213

C58 210 59 208 62 206

L64 205

L62 204

C56 199 47 204 47 212

C47 219 56 223 62 220

Z

M125 218

C128 215 128 214 128 211

C127 203 120 200 114 203

C111 204 110 206 112 206

C114 206 117 209 117 211

C117 214 114 217 112 217

C112 217 111 217 111 218

C111 220 114 221 118 221

C121 221 123 220 125 218

Z

M371 220

C373 219 374 217 372 217

C370 217 367 214 367 212

C367 209 370 206 372 206

C373 206 373 205 371 204

C365 199 356 204 356 212

C356 219 365 223 371 220

Z

M434 218

C442 210 433 198 423 203

C420 204 419 206 421 206

C423 206 426 209 426 211

C426 214 423 217 421 217

C421 217 420 217 420 218

C420 220 423 221 427 221

C430 221 432 220 434 218

Z

M91 215

C95 212 92 206 88 206

C85 206 82 209 82 211

C82 216 88 219 91 215

Z

M400 215

C404 212 401 206 397 206

C394 206 391 209 391 211

C391 216 397 219 400 215

Z

M26 203

C26 189 16 165 5 153

L2 149

L2 178

L2 207

L14 207

L26 207

L26 203

Z

M173 178

L173 149

L170 152

C161 162 153 180 151 195

C148 208 147 207 161 207

L173 207

L173 178

Z

M190 180

L190 152

L187 152

L183 152

L183 180

L183 207

L187 207

L190 207

L190 180

Z

M202 180

L202 152

L199 152

L195 152

L195 180

L195 207

L199 207

L202 207

L202 180

Z

M214 180

L214 152

L210 152

L207 152

L207 179

C207 194 207 207 207 207

C207 207 209 207 211 207

L214 207

L214 180

Z

M226 179

L226 152

L222 152

L218 152

L218 179

C218 194 218 206 219 206

C219 207 221 207 222 207

L226 207

L226 179

Z

M238 179

L238 152

L234 152

L230 152

L230 180

L230 207

L234 207

L238 207

L238 179

Z

M302 203

L302 199

L275 199

L247 199

L247 203

L247 207

L275 207

L302 207

L302 203

Z

M335 203

C335 197 332 183 328 175

C325 168 315 152 313 150

C311 149 311 152 311 178

L311 207

L323 207

L335 207

L335 203

Z

M482 178

L482 149

L479 152

C468 165 461 183 459 201

L458 207

L470 207

L482 207

L482 178

Z

M499 180

L499 152

L496 152

L492 152

L492 180

L492 207

L496 207

L499 207

L499 180

Z

M511 180

L511 152

L508 152

L504 152

L504 180

L504 207

L508 207

L511 207

L511 180

Z

M523 180

L523 152

L519 152

L516 152

L516 179

C516 194 516 207 516 207

C516 207 518 207 520 207

L523 207

L523 180

Z

M535 179

L535 152

L531 152

L527 152

L527 179

C527 194 527 206 528 206

C528 207 530 207 531 207

L535 207

L535 179

Z

M547 179

L547 152

L543 152

L539 152

L539 180

L539 207

L543 207

L547 207

L547 179

Z

M611 203

L611 199

L584 199

L556 199

L556 203

L556 207

L584 207

L611 207

L611 203

Z

M79 201

C79 201 75 197 70 192

C61 184 61 184 59 186

C57 188 57 188 67 196

C75 204 76 205 78 203

C78 202 79 201 79 201

Z

M110 195

C118 188 118 188 116 186

C114 184 114 184 105 192

C96 200 95 202 97 204

C99 205 99 205 110 195

Z

M388 201

C388 201 384 196 379 192

C370 184 370 184 368 186

C366 188 366 188 376 196

C385 204 386 205 387 203

C387 202 388 201 388 201

Z

M419 195

C427 188 427 188 425 186

C423 184 423 184 414 192

C409 196 405 200 405 201

C405 201 405 202 406 203

C407 205 407 206 419 195

Z

M302 191

L302 188

L275 188

L248 188

L247 191

L247 195

L275 195

L302 195

L302 191

Z

M611 191

L611 188

L584 188

L557 188

L556 191

L556 195

L584 195

L611 195

L611 191

Z

M85 186

C88 185 91 186 92 189

L94 192

L95 190

C101 182 92 172 83 176

C82 176 80 178 79 179

C77 182 78 187 80 190

L81 192

L82 190

C82 189 84 187 85 186

Z

M393 187

C396 184 402 186 402 190

C402 192 402 192 404 190

C406 187 407 181 404 178

C401 174 392 174 389 178

C387 181 387 187 389 190

C390 192 391 192 391 190

C391 189 392 188 393 187

Z

M302 180

L302 176

L275 176

L247 176

L247 180

L247 183

L275 183

L302 183

L302 180

Z

M611 180

L611 176

L584 176

L556 176

L556 180

L556 183

L584 183

L611 183

L611 180

Z

M302 168

L302 164

L275 164

L247 164

L247 167

C247 169 247 171 248 171

C248 172 260 172 275 172

L302 172

L302 168

Z

M611 168

L611 164

L584 164

L556 164

L556 167

C556 169 556 171 557 171

C557 172 569 172 584 172

L611 172

L611 168

Z

M302 156

L302 152

L275 152

L247 152

L247 155

C247 157 247 159 248 159

C248 160 260 160 275 160

L302 160

L302 156

Z

M611 156

L611 152

L584 152

L556 152

L556 155

C556 157 556 159 557 159

C557 160 569 160 584 160

L611 160

L611 156

Z

M392 146

L392 133

L363 133

L334 133

L338 137

C349 146 369 155 384 157

C388 157 392 158 392 158

C392 158 392 152 392 146

Z

M83 145

L83 133

L54 133

L25 133

L29 137

C40 147 64 157 78 157

L83 157

L83 145

Z

M117 153

C128 149 140 143 146 137

L151 133

L122 133

L93 134

L92 145

L92 157

L100 157

C104 156 111 155 117 153

Z

M425 153

C436 150 448 143 455 137

L460 133

L430 133

L401 133

L401 145

L401 157

L408 157

C413 156 420 155 425 153

Z

M238 131

C238 125 238 119 237 119

C236 118 224 120 216 122

C204 125 187 135 182 141

L180 143

L209 143

L238 143

L238 131

Z

M305 142

C305 141 294 133 288 130

C278 124 265 120 252 119

L247 118

L247 130

C247 136 247 142 248 142

C249 143 305 143 305 142

Z

M547 131

L547 119

L542 119

C528 120 510 127 498 135

C486 144 485 143 518 143

L547 143

L547 131

Z

M614 142

C614 141 603 133 597 130

C587 124 574 120 561 119

L556 118

L556 130

C556 136 556 142 557 142

C558 143 614 143 614 142

Z

M165 117

C173 105 179 90 180 75

L181 69

L169 69

L157 69

L157 98

L157 128

L159 125

C160 124 163 120 165 117

Z

M328 98

L328 69

L316 69

L304 69

L304 76

C306 90 313 108 323 121

C325 124 328 127 328 127

C328 127 328 114 328 98

Z

M473 119

C482 105 488 90 489 75

L490 69

L478 69

L466 69

L466 98

C466 114 466 127 467 127

C467 126 470 123 473 119

Z

M83 120

L83 116

L56 116

L29 117

L28 120

L28 124

L55 124

L83 124

L83 120

Z

M100 97

L100 69

L96 69

L92 69

L92 97

L92 124

L96 124

L100 124

L100 97

Z

M112 97

L112 69

L108 69

L104 69

L104 97

L104 124

L108 124

L112 124

L112 97

Z

M124 97

L124 70

L120 69

L116 69

L116 96

L116 124

L120 124

L124 124

L124 97

Z

M135 97

L135 69

L132 69

L128 69

L128 97

L128 124

L132 124

L135 124

L135 97

Z

M147 97

L147 69

L144 69

L140 69

L140 97

L140 124

L144 124

L147 124

L147 97

Z

M392 120

L392 116

L365 116

L338 117

L337 120

L337 124

L364 124

L392 124

L392 120

Z

M409 97

L409 69

L405 69

L401 69

L401 97

L401 124

L405 124

L409 124

L409 97

Z

M421 97

L421 69

L417 69

L413 69

L413 97

L413 124

L417 124

L421 124

L421 97

Z

M433 97

L433 70

L429 69

L425 69

L425 96

L425 124

L429 124

L433 124

L433 97

Z

M444 97

L444 69

L441 69

L437 69

L437 97

L437 124

L441 124

L444 124

L444 97

Z

M456 97

L456 69

L453 69

L449 69

L449 97

L449 124

L453 124

L456 124

L456 97

Z

M83 108

L83 104

L56 104

L29 105

L28 108

L28 112

L55 112

L83 112

L83 108

Z

M392 108

L392 104

L365 104

L338 105

L337 108

L337 112

L364 112

L392 112

L392 108

Z

M83 97

L83 93

L56 93

L28 93

L28 96

C28 98 28 100 29 100

C29 101 41 101 56 101

L83 101

L83 97

Z

M249 99

C252 95 253 91 251 87

L249 84

L247 87

C245 89 244 90 242 90

C240 90 239 89 237 87

L235 84

L233 87

C230 94 235 101 242 101

C245 101 247 100 249 99

Z

M392 97

L392 93

L365 93

L337 93

L337 96

C337 98 337 100 338 100

C338 101 350 101 365 101

L392 101

L392 97

Z

M558 99

C561 95 562 91 560 87

L558 84

L556 87

C554 89 553 90 551 90

C549 90 548 89 546 87

L544 84

L542 87

C539 94 544 101 551 101

C554 101 556 100 558 99

Z

M219 88

C222 86 226 82 229 80

C234 75 234 75 232 73

C231 71 231 70 218 83

C212 87 212 88 213 90

C214 91 215 92 215 92

C215 92 217 90 219 88

Z

M266 83

C253 71 253 71 252 73

C250 75 250 75 256 80

C269 93 268 92 270 90

C272 88 272 88 266 83

Z

M538 80

C543 75 543 75 541 73

C539 71 540 71 527 83

C521 88 521 88 523 90

C524 92 523 93 538 80

Z

M575 83

C562 71 563 71 561 73

C559 75 559 75 565 80

C568 83 572 87 574 89

C577 92 578 92 579 90

C581 88 581 88 575 83

Z

M83 85

L83 81

L56 81

L28 81

L28 85

L28 88

L56 88

L83 88

L83 85

Z

M392 85

L392 81

L365 81

L337 81

L337 85

L337 88

L365 88

L392 88

L392 85

Z

M83 73

L83 69

L56 69

L28 69

L28 73

L28 76

L56 76

L83 76

L83 73

Z

M392 73

L392 69

L365 69

L337 69

L337 73

L337 76

L365 76

L392 76

L392 73

Z

M217 72

C219 70 219 70 217 70

C215 70 213 68 213 65

C213 61 215 59 217 59

C219 59 219 59 217 57

C214 54 208 54 205 57

C203 59 202 61 202 65

C202 68 203 70 205 72

C208 75 214 75 217 72

Z

M279 71

C283 67 283 62 279 58

C276 55 271 54 267 57

L265 58

L268 60

C270 61 271 61 271 64

C271 68 270 70 267 70

C265 70 265 70 267 72

C270 75 276 75 279 71

Z

M526 72

L528 71

L526 70

C523 69 521 66 522 63

C522 62 524 60 525 60

L528 58

L526 57

C522 54 517 55 514 58

C510 62 510 67 514 71

C517 75 522 75 526 72

Z

M588 72

C590 70 592 66 591 62

C591 61 590 59 588 58

C585 54 579 54 576 57

C574 59 574 59 576 59

C578 59 580 61 580 65

C580 68 578 70 576 70

C574 70 574 70 576 72

C579 74 585 75 588 72

Z

M244 69

C250 67 248 59 242 59

C239 59 237 61 237 64

C237 69 240 71 244 69

Z

M553 69

C559 67 557 59 551 59

C548 59 546 61 546 64

C546 69 549 71 553 69

Z

M147 56

L147 52

L120 52

L93 52

L93 56

L93 60

L120 60

L147 60

L147 56

Z

M180 54

C179 39 171 20 162 8

L157 2

L157 31

L157 60

L169 60

L181 60

L180 54

Z

M456 56

L456 52

L429 52

L402 52

L402 56

L402 60

L429 60

L456 60

L456 56

Z

M490 54

C487 37 481 21 470 7

L466 2

L466 31

L466 60

L478 60

L490 60

L490 54

Z

M36 32

L36 5

L32 5

L28 5

L28 32

L28 59

L32 59

L36 59

L36 32

Z

M48 32

L48 5

L44 5

L40 5

L40 32

L40 59

L44 59

L48 59

L48 32

Z

M59 32

L59 5

L56 5

L52 5

L52 32

L52 59

L56 59

L59 59

L59 32

Z

M71 32

L71 5

L68 5

L64 5

L64 32

L64 59

L68 59

L71 59

L71 32

Z

M83 32

L83 5

L80 5

L76 5

L76 32

L76 59

L80 59

L83 59

L83 32

Z

M328 30

L328 1

L326 3

C314 18 306 36 304 52

L304 59

L316 59

L328 59

L328 30

Z

M345 32

L345 5

L341 5

L337 5

L337 32

L337 59

L341 59

L345 59

L345 32

Z

M357 32

L357 5

L353 5

L349 5

L349 32

L349 59

L353 59

L357 59

L357 32

Z

M368 32

L368 5

L365 5

L361 5

L361 32

L361 59

L365 59

L368 59

L368 32

Z

M380 32

L380 5

L377 5

L373 5

L373 32

L373 59

L377 59

L380 59

L380 32

Z

M392 32

L392 5

L389 5

L385 5

L385 32

L385 59

L389 59

L392 59

L392 32

Z

M229 49

C216 37 215 36 213 38

C212 40 212 41 221 49

L231 58

L233 56

L235 54

L229 49

Z

M272 40

C272 40 271 39 271 38

C269 37 267 38 256 48

C250 54 250 54 251 56

C253 58 253 58 263 49

C268 45 272 40 272 40

Z

M537 48

C533 45 529 41 527 39

C524 37 524 37 522 38

C521 40 521 41 530 49

C539 58 540 58 542 56

C543 54 543 54 537 48

Z

M581 41

C581 40 581 39 580 38

C578 36 577 37 565 48

C559 54 559 54 560 56

C562 58 562 58 571 50

C576 45 580 41 581 41

Z

M147 44

L147 40

L120 40

L93 40

L93 44

L93 48

L120 48

L147 48

L147 44

Z

M456 44

L456 40

L429 40

L402 40

L402 44

L402 48

L429 48

L456 48

L456 44

Z

M239 39

C242 38 245 39 247 42

C249 44 249 44 250 42

C252 40 252 33 249 30

C241 22 228 32 234 42

C235 45 236 45 236 43

C237 42 238 40 239 39

Z

M551 38

C552 38 553 39 555 41

C558 43 558 44 559 42

C560 41 560 39 560 37

C560 25 544 24 541 36

C541 38 541 40 542 41

L544 44

L547 41

C549 39 550 38 551 38

Z

M147 32

L147 28

L120 28

L93 28

L93 32

L93 36

L120 36

L147 36

L147 32

Z

M456 32

L456 28

L429 28

L402 28

L402 32

L402 36

L429 36

L456 36

L456 32

Z

M147 21

L147 17

L120 17

L93 17

L93 21

L93 24

L120 24

L147 24

L147 21

Z

M456 21

L456 17

L429 17

L402 17

L402 21

L402 24

L429 24

L456 24

L456 21

Z

M147 9

L147 5

L120 5

L93 5

L93 9

L93 12

L120 12

L147 12

L147 9

Z

M456 9

L456 5

L429 5

L402 5

L402 9

L402 12

L429 12

L456 12

L456 9

Z

"/>

</svg>

