<?xml version="1.0" standalone="no"?>

<!DOCTYPE svg PUBLIC "-//W3C//DTD SVG 20010904//EN"

 "http://www.w3.org/TR/2001/REC-SVG-20010904/DTD/svg10.dtd">

<svg version="1.0" xmlns="http://www.w3.org/2000/svg"

 width="591.000000pt" height="591.000000pt" viewBox="0 0 591.000000 591.000000"

 preserveAspectRatio="xMidYMid meet">

<path fill="#f1f1f2" stroke="none" d="
M0 296

L0 0

L296 0

L591 0

L591 296

L591 591

L296 591

L0 591

L0 296

Z

"/>

<path fill="#676c7e" stroke="none" d="
M0 296

L0 0

L296 0

L591 0

L591 296

L591 591

L296 591

L0 591

L0 296

Z

M31 571

L31 560

L21 560

L10 560

L10 571

L10 581

L21 581

L31 581

L31 571

Z

M116 571

L116 560

L84 560

L52 560

L52 571

L52 581

L84 581

L116 581

L116 571

Z

M123 571

C123 561 123 560 121 560

C119 560 119 561 119 571

C119 580 119 581 121 581

C123 581 123 580 123 571

Z

M130 570

C130 561 130 560 128 560

C127 560 126 562 126 569

C126 579 126 581 128 581

C130 581 130 579 130 570

Z

M137 571

C137 562 137 560 136 560

C134 560 134 562 134 571

C134 579 134 581 136 581

C137 581 137 579 137 571

Z

M155 571

L155 560

L148 560

L141 560

L141 571

L141 581

L148 581

L155 581

L155 571

Z

M162 571

C162 562 162 560 161 560

C159 560 159 562 159 571

C159 579 159 581 161 581

C162 581 162 579 162 571

Z

M169 571

C169 562 169 560 168 560

C166 560 166 562 166 571

C166 579 166 581 168 581

C169 581 169 579 169 571

Z

M176 571

C176 562 176 560 175 560

C173 560 173 562 173 571

C173 579 173 581 175 581

C176 581 176 579 176 571

Z

M244 571

L244 560

L212 560

L180 560

L180 571

L180 581

L212 581

L244 581

L244 571

Z

M285 571

L285 560

L275 560

L265 560

L265 571

L265 581

L275 581

L285 581

L285 571

Z

M326 571

L326 560

L316 560

L306 560

L306 571

L306 581

L316 581

L326 581

L326 571

Z

M411 571

L411 560

L379 560

L347 560

L347 571

L347 581

L379 581

L411 581

L411 571

Z

M418 571

C418 562 418 560 417 560

C415 560 415 562 415 571

C415 579 415 581 417 581

C418 581 418 579 418 571

Z

M426 571

C426 562 425 560 424 560

C422 560 422 561 422 571

C422 580 422 581 424 581

C425 581 426 579 426 571

Z

M433 571

C433 561 433 560 431 560

C429 560 429 561 429 571

C429 580 429 581 431 581

C433 581 433 580 433 571

Z

M451 571

L451 561

L444 561

L437 561

L436 569

C436 574 436 579 436 580

C437 581 439 581 444 581

L451 581

L451 571

Z

M458 571

C458 561 458 560 456 560

C454 560 454 561 454 571

C454 580 454 581 456 581

C458 581 458 580 458 571

Z

M465 571

C465 561 465 560 463 560

C461 560 461 561 461 571

C461 580 461 581 463 581

C465 581 465 580 465 571

Z

M472 570

C472 561 472 560 470 560

C469 560 468 562 468 569

C468 579 468 581 470 581

C472 581 472 579 472 570

Z

M540 571

L540 561

L507 560

L475 560

L475 571

L475 581

L507 581

L540 581

L540 571

Z

M581 571

L581 560

L571 560

L560 560

L560 571

L560 581

L571 581

L581 581

L581 571

Z

M31 507

L31 475

L21 475

L11 476

L10 506

C10 524 10 538 10 539

C11 540 13 540 21 540

L31 540

L31 507

Z

M116 508

L116 476

L84 475

L52 475

L52 508

L52 540

L84 540

L116 540

L116 508

Z

M123 507

C123 477 123 475 121 475

C120 476 119 478 119 507

C119 524 119 538 119 539

C120 540 121 540 121 540

C122 539 123 532 123 507

Z

M130 507

C130 477 130 475 128 475

C127 476 126 478 126 507

C126 524 126 538 126 539

C127 539 128 540 128 540

C130 540 130 536 130 507

Z

M137 508

C137 479 137 475 136 475

C134 475 134 479 134 508

C134 536 134 540 136 540

C137 540 137 536 137 508

Z

M154 539

C155 539 149 520 148 520

C147 520 141 538 142 539

C142 540 153 540 154 539

Z

M162 508

C162 479 162 475 161 475

C159 475 159 479 159 508

C159 536 159 540 161 540

C162 540 162 536 162 508

Z

M169 508

C169 479 169 475 168 475

C166 475 166 479 166 508

C166 536 166 540 168 540

C169 540 169 536 169 508

Z

M176 508

C176 479 176 475 175 475

C173 475 173 479 173 508

C173 536 173 540 175 540

C176 540 176 536 176 508

Z

M244 507

L244 475

L212 475

L180 475

L180 508

L180 540

L212 540

L244 540

L244 507

Z

M285 508

L285 475

L275 475

L265 475

L265 508

L265 540

L275 540

L285 540

L285 508

Z

M326 508

L326 475

L316 475

L306 475

L306 508

L306 540

L316 540

L326 540

L326 508

Z

M411 508

L411 475

L379 475

L347 475

L347 507

C347 524 347 539 348 539

C348 540 362 540 380 540

L411 540

L411 508

Z

M418 508

C418 479 418 475 417 475

C415 475 415 479 415 508

C415 536 415 540 417 540

C418 540 418 536 418 508

Z

M426 507

C426 478 425 476 424 475

C422 475 422 477 422 507

C422 524 422 539 423 539

C425 542 426 538 426 507

Z

M433 507

C433 478 432 476 431 475

C429 475 429 477 429 507

C429 524 429 539 430 539

C432 542 433 538 433 507

Z

M450 539

C450 538 449 534 447 529

C444 522 443 520 443 521

C441 524 437 537 437 539

C437 540 439 540 444 540

C447 540 450 540 450 539

Z

M458 507

C458 477 458 475 456 475

C455 476 454 478 454 507

C454 524 454 538 454 539

C455 540 456 540 456 540

C457 539 458 532 458 507

Z

M465 507

C465 477 465 475 463 475

C462 476 461 478 461 507

C461 524 461 538 461 539

C462 540 463 540 463 540

C464 539 465 532 465 507

Z

M472 507

C472 477 472 475 470 475

C469 476 468 478 468 507

C468 524 468 538 468 539

C469 540 470 540 470 540

C471 539 472 532 472 507

Z

M540 508

L540 476

L508 476

L476 476

L475 506

C475 524 475 538 475 539

C476 540 483 540 508 540

L540 540

L540 508

Z

M581 507

L581 475

L571 475

L560 475

L560 507

C560 524 560 539 561 539

C561 540 566 540 571 540

L581 540

L581 507

Z

M31 470

C31 468 30 468 21 468

C12 468 10 468 10 469

C10 472 11 472 21 472

C30 472 31 472 31 470

Z

M116 470

C115 469 113 468 84 468

C53 468 52 468 52 470

C52 472 53 472 84 472

C114 472 116 472 116 470

Z

M123 471

C124 469 121 467 120 469

C119 470 119 472 121 472

C121 472 122 472 123 471

Z

M130 471

C130 470 130 469 129 469

C128 468 128 468 127 469

C126 471 127 472 128 472

C128 472 129 472 130 471

Z

M137 470

C137 468 135 469 134 471

C134 472 134 472 135 472

C136 472 137 471 137 470

Z

M155 470

C155 468 154 468 148 468

C142 468 141 468 141 470

C141 472 142 472 148 472

C154 472 155 472 155 470

Z

M162 470

C161 468 160 468 159 470

C159 471 160 472 161 472

C162 472 162 471 162 470

Z

M169 470

C168 468 167 468 166 470

C166 471 167 472 168 472

C169 472 169 471 169 470

Z

M176 470

C176 468 175 467 174 469

C173 470 174 472 175 472

C176 472 176 471 176 470

Z

M244 470

C244 468 243 468 212 468

C181 468 180 468 180 470

C180 472 181 472 212 472

C243 472 244 472 244 470

Z

M285 470

C285 468 284 468 275 468

C266 468 265 468 265 470

C265 472 266 472 275 472

C284 472 285 472 285 470

Z

M326 470

C326 468 325 468 316 468

C307 468 306 468 306 470

C306 472 307 472 316 472

C325 472 326 472 326 470

Z

M411 470

C411 468 410 468 379 468

C348 468 347 468 347 470

C347 472 348 472 379 472

C410 472 411 472 411 470

Z

M418 470

C418 469 418 468 417 468

C416 468 415 470 416 471

C417 473 418 472 418 470

Z

M425 471

C426 471 425 470 425 469

C424 468 424 468 423 469

C422 469 422 470 422 471

C423 472 425 472 425 471

Z

M433 471

C434 469 431 467 430 469

C429 470 429 472 431 472

C431 472 432 472 433 471

Z

M451 470

C451 469 449 469 444 469

C438 469 436 469 436 470

C436 472 437 472 444 472

C450 472 451 472 451 470

Z

M458 471

C459 469 456 467 455 469

C454 470 454 472 456 472

C456 472 457 472 458 471

Z

M465 471

C466 469 463 467 462 469

C461 470 461 472 463 472

C463 472 464 472 465 471

Z

M472 471

C472 470 472 469 471 469

C470 468 470 468 469 469

C468 471 469 472 470 472

C470 472 471 472 472 471

Z

M540 470

C540 469 535 469 508 469

C478 469 476 469 475 470

C475 472 477 472 507 472

C535 472 540 471 540 470

Z

M581 470

C581 468 580 468 571 468

C561 468 560 468 560 470

C560 472 561 472 571 472

C580 472 581 472 581 470

Z

M31 463

C31 461 30 461 21 461

C12 461 10 461 10 462

C10 465 11 465 21 465

C30 465 31 465 31 463

Z

M116 463

C116 461 115 461 84 461

C53 461 52 461 52 463

C52 465 53 465 84 465

C115 465 116 465 116 463

Z

M123 464

C124 462 121 460 120 462

C119 463 119 465 121 465

C121 465 122 465 123 464

Z

M130 463

C130 462 129 461 128 461

C128 461 127 462 127 463

C127 464 128 465 128 465

C129 465 130 464 130 463

Z

M136 462

C135 460 134 461 134 464

C135 465 135 465 136 464

C137 463 137 463 136 462

Z

M155 463

C155 461 154 461 148 461

C142 461 141 461 141 463

C141 465 142 465 148 465

C154 465 155 465 155 463

Z

M162 462

C162 462 161 461 161 461

C159 461 158 463 160 464

C161 465 162 464 162 462

Z

M169 462

C169 462 168 461 168 461

C166 461 165 463 167 464

C168 465 169 464 169 462

Z

M176 463

C176 461 175 460 174 462

C173 463 174 465 175 465

C176 465 176 464 176 463

Z

M244 463

C244 461 243 461 212 461

C181 461 180 461 180 463

C180 465 181 465 212 465

C243 465 244 465 244 463

Z

M285 463

C285 461 284 461 275 461

C266 461 265 461 265 463

C265 465 266 465 275 465

C284 465 285 465 285 463

Z

M326 463

C326 461 325 461 316 461

C307 461 306 461 306 463

C306 465 307 465 316 465

C325 465 326 465 326 463

Z

M411 463

C411 461 410 461 379 461

C348 461 347 461 347 463

C347 465 348 465 379 465

C410 465 411 465 411 463

Z

M418 463

C418 462 418 461 417 461

C416 461 415 463 416 464

C417 466 418 465 418 463

Z

M425 464

C426 462 424 460 423 462

C422 463 423 465 424 465

C424 465 425 464 425 464

Z

M433 464

C434 462 431 460 430 462

C429 463 429 465 431 465

C431 465 432 465 433 464

Z

M451 463

C451 461 450 461 444 461

C438 461 436 461 436 462

C436 465 437 465 444 465

C449 465 451 464 451 463

Z

M458 464

C459 462 456 460 455 462

C454 463 454 465 456 465

C456 465 457 465 458 464

Z

M465 464

C466 462 463 460 462 462

C461 463 461 465 463 465

C463 465 464 465 465 464

Z

M472 464

C472 463 471 461 469 461

C468 462 469 465 470 465

C471 465 471 465 472 464

Z

M540 463

C540 462 535 461 508 461

C490 461 476 461 476 462

C473 465 477 465 508 465

C535 465 540 464 540 463

Z

M581 463

C581 461 580 461 571 461

C562 461 560 461 560 462

C560 465 561 465 571 465

C579 465 581 464 581 463

Z

M116 456

C116 454 114 454 84 454

C53 454 52 454 52 456

C52 458 53 458 84 458

C113 458 115 457 116 456

Z

M123 457

C123 456 122 454 120 454

C119 455 120 458 121 458

C122 458 122 458 123 457

Z

M129 455

C128 453 126 455 127 457

C128 458 129 458 129 457

C130 456 130 456 129 455

Z

M137 455

C137 455 136 454 136 454

C134 454 133 456 135 457

C136 458 137 457 137 455

Z

M155 456

C155 454 154 454 148 454

C142 454 141 454 141 456

C141 458 142 458 148 458

C154 458 155 458 155 456

Z

M162 455

C162 455 161 454 161 454

C159 454 158 456 160 457

C161 458 162 457 162 455

Z

M169 455

C169 455 168 454 168 454

C166 454 165 456 167 457

C168 458 169 457 169 455

Z

M176 455

C176 454 174 454 174 455

C173 456 174 458 175 457

C176 457 176 456 176 455

Z

M244 456

C244 454 243 454 212 454

C181 454 180 454 180 456

C180 458 181 458 212 458

C243 458 244 458 244 456

Z

M411 456

C411 454 410 454 379 454

C353 454 347 454 347 455

C347 456 347 457 348 457

C348 458 362 458 380 458

C410 458 411 458 411 456

Z

M418 455

C418 454 416 454 416 455

C415 456 416 458 417 457

C418 457 418 456 418 455

Z

M425 457

C426 455 424 453 423 455

C422 456 423 458 424 458

C424 458 425 457 425 457

Z

M433 457

C434 455 431 453 430 455

C429 456 429 458 431 458

C431 458 432 458 433 457

Z

M451 456

C451 454 450 454 444 454

C438 454 436 454 436 455

C436 458 437 458 444 458

C449 458 451 457 451 456

Z

M458 457

C459 455 456 453 455 455

C454 456 454 458 456 458

C456 458 457 458 458 457

Z

M465 457

C466 455 463 453 462 455

C461 456 461 458 463 458

C463 458 464 458 465 457

Z

M472 457

C472 456 471 454 469 454

C468 455 469 458 470 458

C471 458 471 458 472 457

Z

M540 456

C540 455 535 454 507 454

C481 454 475 454 475 455

C475 456 475 457 476 457

C476 458 491 458 508 458

C535 458 540 457 540 456

Z

M31 456

C31 454 29 454 21 454

C12 454 10 454 10 456

C10 457 12 457 21 457

C29 457 31 457 31 456

Z

M285 456

C285 454 283 454 275 454

C267 454 265 454 265 456

C265 457 267 457 275 457

C283 457 285 457 285 456

Z

M326 456

C326 454 324 454 316 454

C308 454 306 454 306 456

C306 457 308 457 316 457

C324 457 326 457 326 456

Z

M581 456

C581 454 579 454 571 454

C562 454 560 454 560 456

C560 457 562 457 571 457

C579 457 581 457 581 456

Z

M31 443

L31 436

L21 436

L10 436

L10 443

L10 450

L21 450

L31 450

L31 443

Z

M63 447

C67 445 71 444 70 443

C70 443 66 441 61 439

L52 436

L52 443

C52 448 52 450 53 450

C54 450 58 448 63 447

Z

M123 443

C123 437 123 436 121 436

C119 436 119 437 119 443

C119 449 119 450 121 450

C123 450 123 449 123 443

Z

M130 443

C130 437 130 436 128 436

C127 436 126 438 126 443

C126 449 126 450 128 450

C130 450 130 449 130 443

Z

M137 443

C137 437 137 436 136 436

C134 436 134 437 134 443

C134 449 134 450 136 450

C137 450 137 449 137 443

Z

M162 443

C162 437 162 436 161 436

C159 436 159 437 159 443

C159 449 159 450 161 450

C162 450 162 449 162 443

Z

M169 443

C169 437 169 436 168 436

C166 436 166 437 166 443

C166 449 166 450 168 450

C169 450 169 449 169 443

Z

M176 443

C176 437 176 436 175 436

C173 436 173 437 173 443

C173 449 173 450 175 450

C176 450 176 449 176 443

Z

M244 443

L244 436

L234 440

C229 441 224 443 224 443

C223 443 241 450 243 450

C244 450 244 448 244 443

Z

M285 443

L285 436

L275 436

L265 436

L265 443

L265 450

L275 450

L285 450

L285 443

Z

M326 443

L326 436

L316 436

L306 436

L306 443

L306 450

L316 450

L326 450

L326 443

Z

M358 447

C365 444 367 443 365 443

C364 442 360 441 355 439

L347 436

L347 443

C347 447 347 450 348 450

C348 450 353 448 358 447

Z

M418 443

C418 437 418 436 417 436

C415 436 415 437 415 443

C415 449 415 450 417 450

C418 450 418 449 418 443

Z

M426 443

C426 438 425 436 424 436

C422 436 422 437 422 443

C422 449 422 450 424 450

C426 450 426 449 426 443

Z

M433 443

C433 437 433 436 431 436

C429 436 429 437 429 443

C429 449 429 450 431 450

C433 450 433 449 433 443

Z

M458 443

C458 437 458 436 456 436

C454 436 454 437 454 443

C454 449 454 450 456 450

C458 450 458 449 458 443

Z

M465 443

C465 437 465 436 463 436

C461 436 461 437 461 443

C461 449 461 450 463 450

C465 450 465 449 465 443

Z

M472 443

C472 437 472 436 470 436

C469 436 468 438 468 443

C468 449 468 450 470 450

C472 450 472 449 472 443

Z

M540 444

C540 440 540 437 539 437

C539 436 522 442 521 443

C520 444 536 450 539 450

C540 450 540 448 540 444

Z

M581 443

L581 436

L571 436

L560 436

L560 443

L560 450

L571 450

L581 450

L581 443

Z

M116 431

C116 429 114 429 84 429

C53 429 52 429 52 431

C52 433 53 433 84 433

C113 433 115 432 116 431

Z

M123 432

C124 430 121 428 120 430

C119 431 119 433 121 433

C121 433 122 433 123 432

Z

M130 432

C130 431 129 429 127 429

C126 430 127 433 128 433

C129 433 129 433 130 432

Z

M136 430

C135 428 134 429 134 432

C135 433 135 433 136 432

C137 431 137 431 136 430

Z

M155 431

C155 429 154 429 148 429

C142 429 141 429 141 431

C141 433 142 433 148 433

C154 433 155 433 155 431

Z

M162 430

C162 430 161 429 161 429

C159 429 158 431 160 432

C161 433 162 432 162 430

Z

M169 430

C169 430 168 429 168 429

C166 429 165 431 167 432

C168 433 169 432 169 430

Z

M176 431

C176 429 175 428 174 430

C173 431 174 433 175 433

C176 433 176 432 176 431

Z

M244 431

C244 429 243 429 212 429

C181 429 180 429 180 431

C180 433 181 433 212 433

C243 433 244 433 244 431

Z

M411 431

C411 429 410 429 379 429

C353 429 347 429 347 430

C347 431 347 432 348 432

C348 433 362 433 380 433

C410 433 411 433 411 431

Z

M418 431

C418 430 418 429 417 429

C416 429 415 431 416 432

C417 434 418 433 418 431

Z

M425 432

C426 430 424 428 423 430

C422 431 423 433 424 433

C424 433 425 432 425 432

Z

M433 432

C434 430 431 428 430 430

C429 431 429 433 431 433

C431 433 432 433 433 432

Z

M451 431

C451 429 450 429 444 429

C438 429 436 429 436 430

C436 433 437 433 444 433

C449 433 451 432 451 431

Z

M458 432

C459 430 456 428 455 430

C454 431 454 433 456 433

C456 433 457 433 458 432

Z

M465 432

C466 430 463 428 462 430

C461 431 461 433 463 433

C463 433 464 433 465 432

Z

M472 432

C472 431 471 429 469 429

C468 430 469 433 470 433

C471 433 471 433 472 432

Z

M540 431

C540 429 538 429 508 429

C481 429 475 429 475 430

C475 431 475 432 476 432

C476 433 491 433 508 433

C537 433 539 432 540 431

Z

M31 431

C31 429 29 429 21 429

C12 429 10 429 10 431

C10 432 12 432 21 432

C29 432 31 432 31 431

Z

M285 431

C285 429 283 429 275 429

C267 429 265 429 265 431

C265 432 267 432 275 432

C283 432 285 432 285 431

Z

M326 431

C326 429 324 429 316 429

C308 429 306 429 306 431

C306 432 308 432 316 432

C324 432 326 432 326 431

Z

M581 431

C581 429 579 429 571 429

C562 429 560 429 560 431

C560 432 562 432 571 432

C579 432 581 432 581 431

Z

M123 425

C123 424 122 422 120 422

C119 423 120 426 121 426

C122 426 122 426 123 425

Z

M129 423

C128 421 126 423 127 425

C128 426 129 426 129 425

C130 424 130 424 129 423

Z

M137 423

C137 423 136 422 136 422

C134 422 133 424 135 425

C136 426 137 425 137 423

Z

M155 424

C155 422 154 422 148 422

C142 422 141 422 141 424

C141 426 142 426 148 426

C154 426 155 426 155 424

Z

M162 423

C162 423 161 422 161 422

C159 422 158 424 160 425

C161 426 162 425 162 423

Z

M169 423

C169 423 168 422 168 422

C166 422 165 424 167 425

C168 426 169 425 169 423

Z

M176 423

C176 423 175 422 175 422

C173 422 172 424 174 425

C175 426 176 425 176 423

Z

M418 423

C417 421 414 423 415 425

C416 426 417 426 418 425

C419 424 419 423 418 423

Z

M425 425

C426 423 424 421 423 423

C422 424 423 426 424 426

C424 426 425 425 425 425

Z

M433 425

C434 423 431 421 430 423

C429 424 429 426 431 426

C431 426 432 426 433 425

Z

M451 424

C451 422 450 422 444 422

C438 422 436 422 436 423

C436 426 437 426 444 426

C449 426 451 425 451 424

Z

M458 425

C459 423 456 421 455 423

C454 424 454 426 456 426

C456 426 457 426 458 425

Z

M465 425

C466 423 463 421 462 423

C461 424 461 426 463 426

C463 426 464 426 465 425

Z

M471 423

C470 421 468 423 469 425

C470 426 471 426 471 425

C472 424 472 424 471 423

Z

M31 424

C31 422 29 422 21 422

C12 422 10 422 10 424

C10 425 12 425 21 425

C29 425 31 425 31 424

Z

M116 424

C116 422 112 422 84 422

C56 422 52 422 52 424

C52 425 56 425 84 425

C112 425 116 425 116 424

Z

M244 424

C244 422 240 422 212 422

C184 422 180 422 180 424

C180 425 184 425 212 425

C240 425 244 425 244 424

Z

M285 424

C285 422 283 422 275 422

C267 422 265 422 265 424

C265 425 267 425 275 425

C283 425 285 425 285 424

Z

M326 424

C326 422 324 422 316 422

C308 422 306 422 306 424

C306 425 308 425 316 425

C324 425 326 425 326 424

Z

M411 424

C411 422 407 422 379 422

C351 422 347 422 347 424

C347 425 351 425 379 425

C407 425 411 425 411 424

Z

M540 424

C540 422 536 422 508 422

C479 422 475 422 475 424

C475 425 479 425 508 425

C536 425 540 425 540 424

Z

M581 424

C581 422 579 422 571 422

C562 422 560 422 560 424

C560 425 562 425 571 425

C579 425 581 425 581 424

Z

M31 417

C31 415 29 415 21 415

C12 415 10 415 10 417

C10 418 12 418 21 418

C29 418 31 418 31 417

Z

M116 417

C116 415 112 415 84 415

C56 415 52 415 52 417

C52 418 56 418 84 418

C112 418 116 418 116 417

Z

M123 417

C123 416 122 415 122 415

C120 415 119 416 120 417

C121 419 123 418 123 417

Z

M130 417

C130 416 129 415 129 415

C127 415 126 416 127 417

C128 419 130 418 130 417

Z

M137 417

C137 416 136 415 136 415

C135 415 134 416 134 417

C134 417 135 418 136 418

C136 418 137 417 137 417

Z

M155 417

C155 415 154 415 148 415

C142 415 141 415 141 417

C141 418 142 418 148 418

C154 418 155 418 155 417

Z

M162 417

C162 416 161 415 161 415

C160 415 159 416 159 417

C159 417 160 418 161 418

C161 418 162 417 162 417

Z

M169 417

C169 416 168 415 168 415

C167 415 166 416 166 417

C166 417 167 418 168 418

C168 418 169 417 169 417

Z

M176 417

C176 416 175 415 175 415

C174 415 173 416 173 417

C173 417 174 418 175 418

C175 418 176 417 176 417

Z

M244 417

C244 415 240 415 212 415

C184 415 180 415 180 417

C180 418 184 418 212 418

C240 418 244 418 244 417

Z

M285 417

C285 415 283 415 275 415

C267 415 265 415 265 417

C265 418 267 418 275 418

C283 418 285 418 285 417

Z

M326 417

C326 415 324 415 316 415

C308 415 306 415 306 417

C306 418 308 418 316 418

C324 418 326 418 326 417

Z

M411 417

C411 415 407 415 379 415

C351 415 347 415 347 417

C347 418 351 418 379 418

C407 418 411 418 411 417

Z

M418 417

C418 416 418 415 417 415

C416 415 415 415 415 417

C415 418 418 418 418 417

Z

M425 417

C425 416 425 415 424 415

C423 415 422 415 422 417

C422 418 425 418 425 417

Z

M433 417

C433 416 432 416 431 416

C430 416 429 416 429 417

C429 417 430 418 431 418

C432 418 433 417 433 417

Z

M451 417

C451 415 450 415 444 415

C438 415 436 415 436 417

C436 418 438 418 444 418

C450 418 451 418 451 417

Z

M458 417

C458 416 457 416 456 416

C455 416 454 416 454 417

C454 417 455 418 456 418

C457 418 458 417 458 417

Z

M465 417

C465 416 463 415 462 416

C461 416 461 417 462 417

C462 418 465 418 465 417

Z

M472 417

C472 416 471 415 471 415

C469 415 468 416 469 417

C470 419 472 418 472 417

Z

M540 417

C540 415 536 415 508 415

C479 415 475 415 475 417

C475 418 479 418 508 418

C536 418 540 418 540 417

Z

M581 417

C581 415 579 415 571 415

C562 415 560 415 560 417

C560 418 562 418 571 418

C579 418 581 418 581 417

Z

M31 379

L31 347

L21 347

L10 347

L10 379

L10 411

L21 411

L31 411

L31 379

Z

M116 379

L116 347

L84 347

L52 347

L52 379

L52 411

L84 411

L116 411

L116 379

Z

M123 379

C123 348 123 347 121 347

C119 347 119 348 119 379

C119 410 119 411 121 411

C123 411 123 410 123 379

Z

M130 379

C130 349 130 347 128 347

C127 348 126 350 126 379

C126 410 126 411 128 411

C130 411 130 410 130 379

Z

M137 379

C137 351 137 347 136 347

C134 347 134 351 134 379

C134 407 134 411 136 411

C137 411 137 407 137 379

Z

M162 379

C162 351 162 347 161 347

C159 347 159 351 159 379

C159 407 159 411 161 411

C162 411 162 407 162 379

Z

M169 379

C169 351 169 347 168 347

C166 347 166 351 166 379

C166 407 166 411 168 411

C169 411 169 407 169 379

Z

M176 379

C176 351 176 347 175 347

C173 347 173 351 173 379

C173 407 173 411 175 411

C176 411 176 407 176 379

Z

M244 379

L244 347

L212 347

L180 347

L180 379

L180 411

L212 411

L244 411

L244 379

Z

M285 379

L285 347

L275 347

L265 347

L265 379

L265 411

L275 411

L285 411

L285 379

Z

M326 379

L326 347

L316 347

L306 347

L306 379

L306 411

L316 411

L326 411

L326 379

Z

M411 379

L411 347

L379 347

L347 347

L347 379

L347 411

L379 411

L411 411

L411 379

Z

M418 379

C418 351 418 347 417 347

C415 347 415 351 415 379

C415 407 415 411 417 411

C418 411 418 407 418 379

Z

M426 379

C426 350 425 348 424 347

C422 347 422 349 422 379

C422 410 422 411 424 411

C426 411 426 410 426 379

Z

M433 379

C433 348 433 347 431 347

C429 347 429 348 429 379

C429 410 429 411 431 411

C433 411 433 410 433 379

Z

M458 379

C458 348 458 347 456 347

C454 347 454 348 454 379

C454 410 454 411 456 411

C458 411 458 410 458 379

Z

M465 379

C465 348 465 347 463 347

C461 347 461 348 461 379

C461 410 461 411 463 411

C465 411 465 410 465 379

Z

M472 379

C472 349 472 347 470 347

C469 348 468 350 468 379

C468 410 468 411 470 411

C472 411 472 410 472 379

Z

M540 379

L540 348

L507 347

L475 347

L475 379

L475 411

L508 411

L540 411

L540 379

Z

M581 379

L581 347

L571 347

L560 347

L560 379

L560 411

L571 411

L581 411

L581 379

Z

M151 358

C153 353 154 349 155 348

C155 347 154 347 148 347

C143 347 141 347 141 348

C142 349 143 353 145 358

C146 363 148 367 148 366

C148 366 150 362 151 358

Z

M447 357

C449 353 450 348 450 348

C450 347 447 347 444 347

C440 347 437 347 437 348

C437 350 443 367 444 367

C444 366 445 362 447 357

Z

M31 316

L31 306

L21 306

L10 306

L10 316

L10 326

L21 326

L31 326

L31 316

Z

M116 316

L116 306

L84 306

L52 306

L52 316

L52 326

L84 326

L116 326

L116 316

Z

M123 316

C123 307 123 306 121 306

C119 306 119 307 119 316

C119 325 119 326 121 326

C123 326 123 325 123 316

Z

M130 316

C130 307 130 306 128 306

C126 306 126 307 126 316

C126 325 126 326 128 326

C130 326 130 325 130 316

Z

M137 316

C137 308 137 306 136 306

C134 306 134 308 134 316

C134 324 134 326 136 326

C137 326 137 324 137 316

Z

M155 316

L155 306

L148 306

L141 306

L141 316

L141 326

L148 326

L155 326

L155 316

Z

M162 316

C162 308 162 306 161 306

C159 306 159 308 159 316

C159 324 159 326 161 326

C162 326 162 324 162 316

Z

M169 316

C169 308 169 306 168 306

C166 306 166 308 166 316

C166 324 166 326 168 326

C169 326 169 324 169 316

Z

M176 316

C176 308 176 306 175 306

C173 306 173 308 173 316

C173 324 173 326 175 326

C176 326 176 324 176 316

Z

M244 316

L244 306

L212 306

L180 306

L180 316

L180 326

L212 326

L244 326

L244 316

Z

M285 316

L285 306

L275 306

L265 306

L265 316

L265 326

L275 326

L285 326

L285 316

Z

M326 316

L326 306

L316 306

L306 306

L306 316

L306 326

L316 326

L326 326

L326 316

Z

M411 316

L411 306

L379 306

L347 306

L347 316

L347 326

L379 326

L411 326

L411 316

Z

M418 316

C418 308 418 306 417 306

C415 306 415 308 415 316

C415 324 415 326 417 326

C418 326 418 324 418 316

Z

M426 316

C426 307 426 306 424 306

C422 306 422 307 422 316

C422 325 422 326 424 326

C426 326 426 325 426 316

Z

M433 316

C433 307 433 306 431 306

C429 306 429 307 429 316

C429 325 429 326 431 326

C433 326 433 325 433 316

Z

M451 316

L451 306

L444 306

L436 306

L436 316

L436 326

L444 326

L451 326

L451 316

Z

M458 316

C458 307 458 306 456 306

C454 306 454 307 454 316

C454 325 454 326 456 326

C458 326 458 325 458 316

Z

M465 316

C465 307 465 306 463 306

C461 306 461 307 461 316

C461 325 461 326 463 326

C465 326 465 325 465 316

Z

M472 316

C472 307 472 306 470 306

C468 306 468 307 468 316

C468 325 468 326 470 326

C472 326 472 325 472 316

Z

M540 316

L540 306

L508 306

L475 306

L475 316

L475 326

L508 326

L540 326

L540 316

Z

M581 316

L581 306

L571 306

L560 306

L560 316

L560 326

L571 326

L581 326

L581 316

Z

M31 275

L31 265

L21 265

L10 265

L10 275

L10 285

L21 285

L31 285

L31 275

Z

M116 275

L116 265

L84 265

L52 265

L52 275

L52 285

L84 285

L116 285

L116 275

Z

M123 275

C123 266 123 265 121 265

C119 265 119 266 119 275

C119 284 119 285 121 285

C123 285 123 284 123 275

Z

M130 275

C130 266 130 265 128 265

C126 265 126 266 126 275

C126 284 126 285 128 285

C130 285 130 284 130 275

Z

M137 275

C137 267 137 265 136 265

C134 265 134 267 134 275

C134 283 134 285 136 285

C137 285 137 283 137 275

Z

M155 275

L155 265

L148 265

L141 265

L141 275

L141 285

L148 285

L155 285

L155 275

Z

M162 275

C162 267 162 265 161 265

C159 265 159 267 159 275

C159 283 159 285 161 285

C162 285 162 283 162 275

Z

M169 275

C169 267 169 265 168 265

C166 265 166 267 166 275

C166 283 166 285 168 285

C169 285 169 283 169 275

Z

M176 275

C176 267 176 265 175 265

C173 265 173 267 173 275

C173 283 173 285 175 285

C176 285 176 283 176 275

Z

M244 275

L244 265

L212 265

L180 265

L180 275

L180 285

L212 285

L244 285

L244 275

Z

M285 275

L285 265

L275 265

L265 265

L265 275

L265 285

L275 285

L285 285

L285 275

Z

M326 275

L326 265

L316 265

L306 265

L306 275

L306 285

L316 285

L326 285

L326 275

Z

M411 275

L411 265

L379 265

L347 265

L347 275

L347 285

L379 285

L411 285

L411 275

Z

M418 275

C418 267 418 265 417 265

C415 265 415 267 415 275

C415 283 415 285 417 285

C418 285 418 283 418 275

Z

M426 275

C426 266 426 265 424 265

C422 265 422 266 422 275

C422 284 422 285 424 285

C426 285 426 284 426 275

Z

M433 275

C433 266 433 265 431 265

C429 265 429 266 429 275

C429 284 429 285 431 285

C433 285 433 284 433 275

Z

M451 275

L451 265

L444 265

L436 265

L436 275

L436 285

L444 285

L451 285

L451 275

Z

M458 275

C458 266 458 265 456 265

C454 265 454 266 454 275

C454 284 454 285 456 285

C458 285 458 284 458 275

Z

M465 275

C465 266 465 265 463 265

C461 265 461 266 461 275

C461 284 461 285 463 285

C465 285 465 284 465 275

Z

M472 275

C472 266 472 265 470 265

C468 265 468 266 468 275

C468 284 468 285 470 285

C472 285 472 284 472 275

Z

M540 275

L540 265

L508 265

L475 265

L475 275

L475 285

L508 285

L540 285

L540 275

Z

M581 275

L581 265

L571 265

L560 265

L560 275

L560 285

L571 285

L581 285

L581 275

Z

M31 212

L31 180

L21 180

L10 180

L10 212

L10 244

L21 244

L31 244

L31 212

Z

M116 212

L116 180

L84 180

L52 180

L52 212

L52 244

L84 244

L116 244

L116 212

Z

M123 212

C123 181 123 180 121 180

C119 180 119 181 119 212

C119 243 119 244 121 244

C123 244 123 243 123 212

Z

M130 212

C130 181 130 180 128 180

C126 180 126 181 126 212

C126 243 126 244 128 244

C130 244 130 243 130 212

Z

M137 212

C137 184 137 180 136 180

C134 180 134 184 134 212

C134 240 134 244 136 244

C137 244 137 240 137 212

Z

M155 242

C154 241 153 237 151 234

C150 230 149 226 148 225

C148 224 145 230 141 242

C141 244 141 244 148 244

C154 244 155 244 155 242

Z

M162 212

C162 184 162 180 161 180

C159 180 159 184 159 212

C159 240 159 244 161 244

C162 244 162 240 162 212

Z

M169 212

C169 184 169 180 168 180

C166 180 166 184 166 212

C166 240 166 244 168 244

C169 244 169 240 169 212

Z

M176 212

C176 184 176 180 175 180

C173 180 173 184 173 212

C173 240 173 244 175 244

C176 244 176 240 176 212

Z

M244 212

L244 180

L212 180

L180 180

L180 212

L180 244

L212 244

L244 244

L244 212

Z

M285 212

L285 180

L275 180

L265 180

L265 212

L265 244

L275 244

L285 244

L285 212

Z

M326 212

L326 180

L316 180

L306 180

L306 212

L306 244

L316 244

L326 244

L326 212

Z

M411 212

L411 180

L379 180

L347 180

L347 212

L347 244

L379 244

L411 244

L411 212

Z

M418 212

C418 184 418 180 417 180

C415 180 415 184 415 212

C415 240 415 244 417 244

C418 244 418 240 418 212

Z

M426 212

C426 181 426 180 424 180

C422 180 422 181 422 212

C422 243 422 244 424 244

C426 244 426 243 426 212

Z

M433 212

C433 181 433 180 431 180

C429 180 429 181 429 212

C429 243 429 244 431 244

C433 244 433 243 433 212

Z

M450 243

C450 242 444 224 443 224

C443 225 437 242 437 243

C437 244 440 244 444 244

C447 244 450 244 450 243

Z

M458 212

C458 181 458 180 456 180

C454 180 454 181 454 212

C454 243 454 244 456 244

C458 244 458 243 458 212

Z

M465 212

C465 181 465 180 463 180

C461 180 461 181 461 212

C461 243 461 244 463 244

C465 244 465 243 465 212

Z

M472 212

C472 181 472 180 470 180

C468 180 468 181 468 212

C468 243 468 244 470 244

C472 244 472 243 472 212

Z

M540 212

L540 180

L508 180

L475 180

L475 212

L475 244

L507 244

L540 244

L540 212

Z

M581 212

L581 180

L571 180

L560 180

L560 212

L560 244

L571 244

L581 244

L581 212

Z

M31 175

C31 173 29 173 21 173

C12 173 10 173 10 175

C10 176 12 176 21 176

C29 176 31 176 31 175

Z

M116 175

C116 173 112 173 84 173

C56 173 52 173 52 175

C52 176 56 176 84 176

C112 176 116 176 116 175

Z

M123 175

C123 174 122 173 122 173

C120 173 119 174 120 175

C121 177 123 176 123 175

Z

M130 175

C130 174 129 173 129 173

C127 173 126 174 127 175

C128 177 130 176 130 175

Z

M137 175

C137 174 136 173 136 173

C135 173 134 174 134 175

C134 175 135 176 136 176

C136 176 137 175 137 175

Z

M155 175

C155 173 154 173 148 173

C142 173 141 173 141 175

C141 176 142 176 148 176

C154 176 155 176 155 175

Z

M162 175

C162 174 161 173 161 173

C160 173 159 174 159 175

C159 175 160 176 161 176

C161 176 162 175 162 175

Z

M169 175

C169 174 168 173 168 173

C167 173 166 174 166 175

C166 175 167 176 168 176

C168 176 169 175 169 175

Z

M176 175

C176 174 175 173 175 173

C174 173 173 174 173 175

C173 175 174 176 175 176

C175 176 176 175 176 175

Z

M244 175

C244 173 240 173 212 173

C184 173 180 173 180 175

C180 176 184 176 212 176

C240 176 244 176 244 175

Z

M285 175

C285 173 283 173 275 173

C267 173 265 173 265 175

C265 176 267 176 275 176

C283 176 285 176 285 175

Z

M326 175

C326 173 324 173 316 173

C308 173 306 173 306 175

C306 176 308 176 316 176

C324 176 326 176 326 175

Z

M411 175

C411 173 407 173 379 173

C351 173 347 173 347 175

C347 176 351 176 379 176

C407 176 411 176 411 175

Z

M418 175

C418 174 418 173 417 173

C416 173 415 173 415 175

C415 176 418 176 418 175

Z

M425 175

C425 174 425 173 424 173

C423 173 422 173 422 175

C422 176 425 176 425 175

Z

M432 175

C432 174 432 173 431 173

C430 173 429 173 429 175

C429 176 432 176 432 175

Z

M451 175

C451 173 450 173 444 173

C438 173 436 173 436 175

C436 176 438 176 444 176

C450 176 451 176 451 175

Z

M458 175

C458 174 457 174 456 174

C455 174 454 174 454 175

C454 175 455 176 456 176

C457 176 458 175 458 175

Z

M465 175

C465 174 464 173 464 173

C462 173 461 174 462 175

C463 177 465 176 465 175

Z

M472 175

C472 174 471 173 471 173

C469 173 468 174 469 175

C470 177 472 176 472 175

Z

M540 175

C540 173 536 173 508 173

C479 173 475 173 475 175

C475 176 479 176 508 176

C536 176 540 176 540 175

Z

M581 175

C581 173 579 173 571 173

C562 173 560 173 560 175

C560 176 562 176 571 176

C579 176 581 176 581 175

Z

M31 167

C31 165 30 165 21 165

C12 165 10 166 10 167

C10 169 11 169 20 169

C30 169 31 169 31 167

Z

M116 168

C116 166 112 166 84 166

C56 166 52 166 52 168

C52 169 56 169 84 169

C112 169 116 169 116 168

Z

M123 168

C123 167 122 166 122 166

C120 166 119 167 120 168

C121 170 123 169 123 168

Z

M130 168

C130 167 129 166 129 166

C127 166 126 167 127 168

C128 170 130 169 130 168

Z

M137 168

C137 167 136 166 136 166

C135 166 134 167 134 168

C134 168 135 169 136 169

C136 169 137 168 137 168

Z

M155 168

C155 166 154 166 148 166

C142 166 141 166 141 168

C141 169 142 169 148 169

C154 169 155 169 155 168

Z

M162 168

C162 167 161 166 161 166

C160 166 159 167 159 168

C159 168 160 169 161 169

C161 169 162 168 162 168

Z

M169 168

C169 167 168 166 168 166

C167 166 166 167 166 168

C166 168 167 169 168 169

C168 169 169 168 169 168

Z

M176 168

C176 167 175 166 175 166

C174 166 173 167 173 168

C173 168 174 169 175 169

C175 169 176 168 176 168

Z

M244 168

C244 166 240 166 212 166

C184 166 180 166 180 168

C180 169 184 169 212 169

C240 169 244 169 244 168

Z

M285 167

C285 165 284 165 275 165

C266 165 265 165 265 167

C265 169 266 169 275 169

C284 169 285 169 285 167

Z

M326 167

C326 165 325 165 316 165

C307 165 306 165 306 167

C306 169 307 169 316 169

C325 169 326 169 326 167

Z

M411 168

C411 166 407 166 379 166

C351 166 347 166 347 168

C347 169 351 169 379 169

C407 169 411 169 411 168

Z

M418 168

C418 167 418 166 417 166

C416 166 415 166 415 168

C415 169 418 169 418 168

Z

M425 168

C425 167 425 166 424 166

C423 166 422 166 422 168

C422 169 425 169 425 168

Z

M433 168

C433 167 432 167 432 166

C430 166 429 166 429 168

C430 169 432 169 433 168

Z

M451 168

C451 166 450 166 444 166

C438 166 436 166 436 168

C436 169 438 169 444 169

C450 169 451 169 451 168

Z

M458 167

C458 167 457 166 456 166

C454 166 453 167 455 168

C456 169 457 169 458 167

Z

M465 168

C465 167 464 166 464 166

C462 166 461 167 462 168

C463 170 465 169 465 168

Z

M472 168

C472 167 471 166 471 166

C469 166 468 167 469 168

C470 170 472 169 472 168

Z

M540 168

C540 166 536 166 508 166

C479 166 475 166 475 168

C475 169 479 169 508 169

C536 169 540 169 540 168

Z

M581 167

C581 166 579 166 571 166

C562 166 560 166 560 167

C560 169 561 169 571 169

C580 169 581 169 581 167

Z

M31 160

C31 158 30 158 21 158

C12 158 10 159 10 160

C10 162 11 162 20 162

C30 162 31 162 31 160

Z

M116 160

C115 159 113 158 84 158

C53 158 52 158 52 160

C52 162 53 162 84 162

C114 162 116 162 116 160

Z

M123 161

C123 159 122 159 120 159

C120 160 119 160 119 161

C120 162 122 162 123 161

Z

M130 161

C130 160 129 159 129 159

C127 159 126 160 127 161

C128 163 130 162 130 161

Z

M137 161

C137 160 136 159 136 159

C135 159 134 160 134 161

C134 161 135 162 136 162

C136 162 137 161 137 161

Z

M155 160

C155 158 154 158 148 158

C142 158 141 158 141 160

C141 162 142 162 148 162

C154 162 155 162 155 160

Z

M162 161

C162 160 161 159 161 159

C160 159 159 160 159 161

C159 161 160 162 161 162

C161 162 162 161 162 161

Z

M169 161

C169 160 168 159 168 159

C167 159 166 160 166 161

C166 161 167 162 168 162

C168 162 169 161 169 161

Z

M176 161

C176 160 175 159 175 159

C174 159 173 160 173 161

C173 161 174 162 175 162

C175 162 176 161 176 161

Z

M244 160

C244 158 243 158 212 158

C181 158 180 158 180 160

C180 162 181 162 212 162

C243 162 244 162 244 160

Z

M285 160

C285 158 284 158 275 158

C266 158 265 158 265 160

C265 162 266 162 275 162

C284 162 285 162 285 160

Z

M326 160

C326 158 325 158 316 158

C307 158 306 158 306 160

C306 162 307 162 316 162

C325 162 326 162 326 160

Z

M411 160

C411 158 410 158 379 158

C350 158 348 159 347 160

C347 162 349 162 379 162

C410 162 411 162 411 160

Z

M418 161

C418 160 418 159 417 159

C416 159 415 159 415 161

C415 162 418 162 418 161

Z

M425 161

C425 160 425 159 424 159

C423 159 422 159 422 161

C422 162 425 162 425 161

Z

M433 160

C433 160 432 159 431 159

C429 159 428 160 430 161

C431 162 432 162 433 160

Z

M451 160

C451 159 449 159 444 159

C438 159 436 159 436 160

C436 162 437 162 444 162

C450 162 451 162 451 160

Z

M458 160

C458 160 457 159 456 159

C454 159 453 160 455 161

C456 162 457 162 458 160

Z

M465 160

C465 160 464 159 463 159

C461 159 460 160 462 161

C463 162 464 162 465 160

Z

M472 161

C472 160 471 159 471 159

C469 159 468 160 469 161

C470 163 472 162 472 161

Z

M540 160

C539 159 537 159 508 159

C478 159 476 159 475 160

C475 162 477 162 508 162

C538 162 540 162 540 160

Z

M581 160

C581 158 580 158 571 158

C561 158 560 158 560 160

C560 162 561 162 571 162

C580 162 581 162 581 160

Z

M31 148

L31 141

L21 141

L10 141

L10 147

C10 151 10 154 11 154

C11 155 16 155 21 155

L31 155

L31 148

Z

M71 148

C71 147 67 146 63 144

C58 143 54 141 53 141

C52 141 52 143 52 148

L52 155

L61 152

C66 150 70 148 71 148

Z

M123 148

C123 142 123 141 121 141

C119 141 119 142 119 148

C119 154 119 155 121 155

C123 155 123 154 123 148

Z

M130 148

C130 142 130 141 128 141

C126 141 126 142 126 148

C126 154 126 155 128 155

C130 155 130 154 130 148

Z

M137 148

C137 142 137 141 136 141

C134 141 134 142 134 148

C134 154 134 155 136 155

C137 155 137 154 137 148

Z

M162 148

C162 142 162 141 161 141

C159 141 159 142 159 148

C159 154 159 155 161 155

C162 155 162 154 162 148

Z

M169 148

C169 142 169 141 168 141

C166 141 166 142 166 148

C166 154 166 155 168 155

C169 155 169 154 169 148

Z

M176 148

C176 142 176 141 175 141

C173 141 173 142 173 148

C173 154 173 155 175 155

C176 155 176 154 176 148

Z

M244 141

C244 141 239 143 233 144

C228 146 224 148 225 148

C226 149 230 150 235 152

L244 155

L244 148

C244 145 244 142 244 141

Z

M285 148

L285 141

L275 141

L265 141

L265 148

L265 155

L275 155

L285 155

L285 148

Z

M326 148

L326 141

L316 141

L306 141

L306 148

L306 155

L316 155

L326 155

L326 148

Z

M366 148

C367 148 361 145 349 141

C347 141 347 141 347 148

L347 155

L356 152

C361 150 365 149 366 148

Z

M418 148

C418 142 418 141 417 141

C415 141 415 142 415 148

C415 154 415 155 417 155

C418 155 418 154 418 148

Z

M426 148

C426 142 426 141 424 141

C422 141 422 142 422 148

C422 154 422 155 424 155

C425 155 426 153 426 148

Z

M433 148

C433 142 433 141 431 141

C429 141 429 142 429 148

C429 154 429 155 431 155

C433 155 433 154 433 148

Z

M458 148

C458 142 458 141 456 141

C454 141 454 142 454 148

C454 154 454 155 456 155

C458 155 458 154 458 148

Z

M465 148

C465 142 465 141 463 141

C461 141 461 142 461 148

C461 154 461 155 463 155

C465 155 465 154 465 148

Z

M472 148

C472 142 472 141 470 141

C468 141 468 142 468 147

C468 154 468 155 471 155

C472 155 472 153 472 148

Z

M540 147

C540 144 540 141 539 141

C537 141 520 147 521 148

C522 149 538 155 539 154

C540 154 540 151 540 147

Z

M581 148

L581 141

L571 141

L560 141

L560 148

L560 155

L571 155

L581 155

L581 148

Z

M31 135

C31 133 30 133 21 133

C12 133 10 134 10 135

C10 137 11 137 20 137

C30 137 31 137 31 135

Z

M116 135

C115 134 113 133 84 133

C53 133 52 133 52 135

C52 137 53 137 84 137

C114 137 116 137 116 135

Z

M123 136

C123 135 122 134 122 134

C120 134 119 135 120 136

C121 138 123 137 123 136

Z

M130 136

C130 135 129 134 129 134

C127 134 126 135 127 136

C128 138 130 137 130 136

Z

M137 136

C137 135 136 134 136 134

C135 134 134 135 134 136

C134 136 135 137 136 137

C136 137 137 136 137 136

Z

M155 136

C155 134 154 134 148 134

C142 134 141 134 141 136

C141 137 142 137 148 137

C154 137 155 137 155 136

Z

M162 136

C162 135 161 134 161 134

C160 134 159 135 159 136

C159 136 160 137 161 137

C161 137 162 136 162 136

Z

M169 136

C169 135 168 134 168 134

C167 134 166 135 166 136

C166 136 167 137 168 137

C168 137 169 136 169 136

Z

M176 136

C176 135 175 134 175 134

C174 134 173 135 173 136

C173 136 174 137 175 137

C175 137 176 136 176 136

Z

M244 135

C244 133 243 133 212 133

C181 133 180 133 180 135

C180 137 181 137 212 137

C243 137 244 137 244 135

Z

M285 135

C285 133 284 133 275 133

C266 133 265 133 265 135

C265 137 266 137 275 137

C284 137 285 137 285 135

Z

M326 135

C326 133 325 133 316 133

C307 133 306 133 306 135

C306 137 307 137 316 137

C325 137 326 137 326 135

Z

M411 135

C411 133 410 133 379 133

C350 133 348 134 347 135

C347 137 349 137 379 137

C410 137 411 137 411 135

Z

M418 136

C418 135 418 134 417 134

C416 134 415 134 415 136

C415 137 418 137 418 136

Z

M425 136

C425 135 425 134 424 134

C423 134 422 134 422 136

C422 137 425 137 425 136

Z

M433 136

C433 135 432 135 432 134

C430 134 429 134 429 136

C430 137 432 137 433 136

Z

M451 136

C451 134 450 134 444 134

C438 134 436 134 436 136

C436 137 438 137 444 137

C450 137 451 137 451 136

Z

M458 135

C458 135 457 134 456 134

C454 134 453 135 455 136

C456 137 457 137 458 135

Z

M465 136

C465 134 464 134 462 134

C462 135 461 135 461 136

C462 137 464 137 465 136

Z

M472 136

C472 135 471 134 471 134

C469 134 468 135 469 136

C470 138 472 137 472 136

Z

M540 135

C539 134 537 134 508 134

C478 134 476 134 475 135

C475 137 477 137 508 137

C538 137 540 137 540 135

Z

M581 135

C581 133 580 133 571 133

C561 133 560 133 560 135

C560 137 561 137 571 137

C580 137 581 137 581 135

Z

M31 128

C31 126 30 126 21 126

C11 126 10 126 10 128

C10 130 11 130 21 130

C30 130 31 130 31 128

Z

M116 128

C116 126 115 126 84 126

C53 126 52 126 52 128

C52 130 53 130 84 130

C115 130 116 130 116 128

Z

M123 129

C123 127 122 127 120 127

C120 128 119 128 119 129

C120 130 122 130 123 129

Z

M130 129

C130 128 129 127 129 127

C127 127 126 128 127 129

C128 131 130 130 130 129

Z

M137 129

C137 128 136 127 136 127

C135 127 134 128 134 129

C134 129 135 130 136 130

C136 130 137 129 137 129

Z

M155 128

C155 126 154 126 148 126

C142 126 141 126 141 128

C141 130 142 130 148 130

C154 130 155 130 155 128

Z

M162 129

C162 128 161 127 161 127

C160 127 159 128 159 129

C159 129 160 130 161 130

C161 130 162 129 162 129

Z

M169 129

C169 128 168 127 168 127

C167 127 166 128 166 129

C166 129 167 130 168 130

C168 130 169 129 169 129

Z

M176 129

C176 128 175 127 175 127

C174 127 173 128 173 129

C173 129 174 130 175 130

C175 130 176 129 176 129

Z

M244 128

C244 126 243 126 212 126

C181 126 180 126 180 128

C180 130 181 130 212 130

C243 130 244 130 244 128

Z

M285 128

C285 126 284 126 275 126

C266 126 265 126 265 128

C265 130 266 130 275 130

C284 130 285 130 285 128

Z

M326 128

C326 126 325 126 316 126

C307 126 306 126 306 128

C306 130 307 130 316 130

C325 130 326 130 326 128

Z

M411 128

C411 126 410 126 379 126

C348 126 347 126 347 128

C347 130 348 130 379 130

C410 130 411 130 411 128

Z

M418 129

C418 128 418 127 417 127

C416 127 415 127 415 129

C415 130 418 130 418 129

Z

M425 129

C425 128 425 127 424 127

C423 127 422 127 422 129

C422 130 425 130 425 129

Z

M433 128

C433 128 432 127 431 127

C429 127 428 128 430 129

C431 130 432 130 433 128

Z

M451 128

C451 127 449 127 444 127

C438 127 436 127 436 128

C436 130 437 130 444 130

C450 130 451 130 451 128

Z

M458 128

C458 128 457 127 456 127

C454 127 453 128 455 129

C456 130 457 130 458 128

Z

M465 128

C465 128 464 127 463 127

C461 127 460 128 462 129

C463 130 464 130 465 128

Z

M472 129

C472 128 471 127 471 127

C469 127 468 128 469 129

C470 131 472 130 472 129

Z

M540 128

C540 127 535 127 508 127

C478 127 476 127 475 128

C475 130 477 130 507 130

C535 130 540 129 540 128

Z

M581 128

C581 126 580 126 571 126

C561 126 560 126 560 128

C560 130 561 130 571 130

C580 130 581 130 581 128

Z

M31 121

C31 119 30 119 21 119

C12 119 10 119 10 120

C10 123 11 123 21 123

C30 123 31 123 31 121

Z

M116 121

C116 119 115 119 84 119

C53 119 52 119 52 121

C52 123 53 123 84 123

C115 123 116 123 116 121

Z

M123 122

C123 121 123 120 122 120

C121 119 121 119 120 120

C119 122 120 123 121 123

C121 123 122 123 123 122

Z

M130 122

C131 120 129 119 127 120

C127 121 126 122 127 122

C127 123 129 123 130 122

Z

M137 121

C136 119 135 119 134 121

C134 122 135 123 136 123

C137 123 137 122 137 121

Z

M155 121

C155 119 154 119 148 119

C142 119 141 119 141 121

C141 123 142 123 148 123

C154 123 155 123 155 121

Z

M162 121

C161 119 160 119 159 121

C159 122 160 123 161 123

C162 123 162 122 162 121

Z

M169 121

C168 119 167 119 166 121

C166 122 167 123 168 123

C169 123 169 122 169 121

Z

M176 122

C176 121 176 120 175 120

C174 119 173 121 174 122

C174 123 176 123 176 122

Z

M244 121

C244 119 243 119 212 119

C181 119 180 119 180 121

C180 123 181 123 212 123

C243 123 244 123 244 121

Z

M285 121

C285 119 284 119 275 119

C266 119 265 119 265 121

C265 123 266 123 275 123

C284 123 285 123 285 121

Z

M326 121

C326 119 325 119 316 119

C307 119 306 119 306 121

C306 123 307 123 316 123

C325 123 326 123 326 121

Z

M411 121

C411 119 410 119 379 119

C348 119 347 119 347 121

C347 123 348 123 379 123

C410 123 411 123 411 121

Z

M418 122

C418 121 418 120 417 120

C416 119 415 121 416 122

C416 123 418 123 418 122

Z

M425 122

C426 122 425 121 425 120

C423 119 421 120 423 122

C423 123 425 123 425 122

Z

M433 122

C434 120 431 118 430 120

C429 121 429 123 431 123

C431 123 432 123 433 122

Z

M451 121

C451 120 449 120 444 120

C438 120 436 120 436 121

C436 123 437 123 444 123

C450 123 451 123 451 121

Z

M458 122

C459 120 456 118 455 120

C454 121 454 123 456 123

C456 123 457 123 458 122

Z

M465 122

C466 120 463 118 462 120

C461 121 461 123 463 123

C463 123 464 123 465 122

Z

M472 122

C472 121 472 120 471 120

C470 119 470 119 469 120

C468 122 469 123 470 123

C470 123 471 123 472 122

Z

M540 121

C540 120 535 119 507 119

C481 119 475 119 475 120

C475 121 475 122 476 122

C476 123 491 123 508 123

C535 123 540 122 540 121

Z

M581 121

C581 119 580 119 571 119

C561 119 560 119 560 121

C560 123 561 123 571 123

C580 123 581 123 581 121

Z

M31 84

L31 52

L21 52

L10 52

L10 83

C10 101 10 115 11 115

C11 116 16 116 21 116

L31 116

L31 84

Z

M116 84

L116 52

L84 52

L52 52

L52 84

L52 116

L84 116

L116 116

L116 84

Z

M123 84

C123 53 123 52 121 52

C119 52 119 53 119 84

C119 115 119 116 121 116

C123 116 123 115 123 84

Z

M130 84

C130 53 130 52 128 52

C126 52 126 53 126 83

C126 101 126 115 127 115

C127 116 128 116 129 116

C130 116 130 110 130 84

Z

M137 84

C137 56 137 52 136 52

C134 52 134 56 134 84

C134 112 134 116 136 116

C137 116 137 112 137 84

Z

M162 84

C162 56 162 52 161 52

C159 52 159 56 159 84

C159 112 159 116 161 116

C162 116 162 112 162 84

Z

M169 84

C169 56 169 52 168 52

C166 52 166 56 166 84

C166 112 166 116 168 116

C169 116 169 112 169 84

Z

M176 84

C176 54 176 52 175 52

C173 52 173 54 173 84

C173 112 173 116 174 116

C176 116 176 111 176 84

Z

M244 84

L244 52

L212 52

L180 52

L180 84

L180 116

L212 116

L244 116

L244 84

Z

M285 84

L285 52

L275 52

L265 52

L265 84

L265 116

L275 116

L285 116

L285 84

Z

M326 84

L326 52

L316 52

L306 52

L306 84

L306 116

L316 116

L326 116

L326 84

Z

M411 84

L411 52

L379 52

L347 52

L347 84

L347 116

L379 116

L411 116

L411 84

Z

M418 84

C418 56 418 52 417 52

C415 52 415 56 415 84

C415 112 415 116 417 116

C418 116 418 112 418 84

Z

M426 84

C426 53 426 52 424 52

C422 52 422 53 422 84

C422 114 422 116 424 116

C425 115 426 113 426 84

Z

M433 84

C433 53 433 52 431 52

C429 52 429 53 429 84

C429 115 429 116 431 116

C433 116 433 115 433 84

Z

M458 84

C458 53 458 52 456 52

C454 52 454 53 454 84

C454 115 454 116 456 116

C458 116 458 115 458 84

Z

M465 84

C465 53 465 52 463 52

C461 52 461 53 461 83

C461 101 461 115 462 115

C462 116 463 116 464 116

C465 116 465 110 465 84

Z

M472 84

C472 53 472 52 470 52

C468 52 468 53 468 83

C468 101 468 115 469 115

C469 116 470 116 471 116

C472 116 472 110 472 84

Z

M540 84

L540 52

L508 52

L475 52

L475 83

C475 101 475 115 476 115

C476 116 491 116 508 116

L540 116

L540 84

Z

M581 84

L581 52

L571 52

L560 52

L560 84

L560 116

L571 116

L581 116

L581 84

Z

M152 62

L155 52

L148 52

C142 52 141 52 141 54

C142 55 143 59 145 63

C146 68 148 71 148 71

C148 71 150 67 152 62

Z

M447 62

C449 57 450 53 450 53

C450 52 447 52 444 52

C440 52 437 52 437 53

C437 54 441 65 443 70

C443 72 443 71 447 62

Z

M31 20

L31 10

L21 10

L11 11

L10 21

L10 31

L20 31

L31 31

L31 20

Z

M116 21

L116 11

L84 10

L52 10

L52 20

L52 31

L84 31

L116 31

L116 21

Z

M123 20

C123 11 123 10 121 10

C120 10 119 12 119 21

C119 30 119 31 121 31

C123 31 123 30 123 20

Z

M130 20

C130 11 130 10 128 10

C127 10 126 12 126 21

C126 30 126 31 128 31

C130 31 130 30 130 20

Z

M137 21

C137 12 137 10 136 10

C134 10 134 12 134 21

C134 29 134 31 136 31

C137 31 137 29 137 21

Z

M155 21

L155 10

L148 10

L141 10

L141 21

L141 31

L148 31

L155 31

L155 21

Z

M162 21

C162 12 162 10 161 10

C159 10 159 12 159 21

C159 29 159 31 161 31

C162 31 162 29 162 21

Z

M169 21

C169 12 169 10 168 10

C166 10 166 12 166 21

C166 29 166 31 168 31

C169 31 169 29 169 21

Z

M176 21

C176 12 176 10 175 10

C173 10 173 12 173 21

C173 29 173 31 175 31

C176 31 176 29 176 21

Z

M244 21

L244 10

L212 10

L180 10

L180 21

L180 31

L212 31

L244 31

L244 21

Z

M285 21

L285 10

L275 10

L265 10

L265 21

L265 31

L275 31

L285 31

L285 21

Z

M326 21

L326 10

L316 10

L306 10

L306 21

L306 31

L316 31

L326 31

L326 21

Z

M411 21

L411 10

L379 10

L347 10

L347 21

L347 31

L379 31

L411 31

L411 21

Z

M418 21

C418 12 418 10 417 10

C415 10 415 12 415 21

C415 29 415 31 417 31

C418 31 418 29 418 21

Z

M426 21

C426 12 425 10 424 10

C422 10 422 11 422 20

C422 30 422 31 424 31

C426 31 426 30 426 21

Z

M433 21

C433 12 432 10 431 10

C429 10 429 11 429 20

C429 30 429 31 431 31

C433 31 433 30 433 21

Z

M451 21

L451 11

L444 11

L437 11

L436 21

L436 31

L444 31

L451 31

L451 21

Z

M458 21

C458 11 458 10 456 10

C454 10 454 11 454 21

C454 30 454 31 456 31

C458 31 458 30 458 21

Z

M465 20

C465 11 465 10 463 10

C462 10 461 12 461 21

C461 30 461 31 463 31

C465 31 465 30 465 20

Z

M472 20

C472 11 472 10 470 10

C469 10 468 12 468 21

C468 30 468 31 470 31

C472 31 472 30 472 20

Z

M540 21

L540 11

L508 11

L476 11

L475 21

L475 31

L507 31

L540 31

L540 21

Z

M581 21

L581 10

L571 10

L560 10

L560 21

L560 31

L571 31

L581 31

L581 21

Z

"/>

</svg>

