<?xml version="1.0" standalone="no"?>

<!DOCTYPE svg PUBLIC "-//W3C//DTD SVG 20010904//EN"

 "http://www.w3.org/TR/2001/REC-SVG-20010904/DTD/svg10.dtd">

<svg version="1.0" xmlns="http://www.w3.org/2000/svg"

 width="559.000000pt" height="587.000000pt" viewBox="0 0 559.000000 587.000000"

 preserveAspectRatio="xMidYMid meet">

<path fill="#eceeea" stroke="none" d="
M0 294

L0 0

L280 0

L559 0

L559 294

L559 587

L280 587

L0 587

L0 294

Z

"/>

<path fill="#56745c" stroke="none" d="
M0 561

L0 534

L2 534

C7 534 10 527 6 524

C5 523 3 522 2 522

C0 522 0 521 0 518

C0 515 0 514 3 514

C10 514 10 503 3 503

C0 503 0 502 0 499

C0 496 0 495 2 495

C3 495 5 494 6 493

C10 490 8 483 2 483

C0 483 0 482 0 479

C0 475 0 475 2 475

C6 475 8 472 8 469

C8 466 5 463 2 463

C0 463 0 461 0 434

L0 404

L2 404

C4 404 5 403 5 402

C6 400 4 398 2 398

C0 399 0 397 0 368

L0 338

L2 338

C6 338 8 335 8 332

C8 329 5 326 2 326

C0 326 0 325 0 323

C0 320 0 319 2 319

C3 319 5 318 6 317

C10 314 8 307 2 307

C0 307 0 306 0 303

C0 299 0 299 2 299

C8 299 10 292 6 289

C5 288 3 287 2 287

C0 287 0 286 0 283

C0 280 0 279 2 280

C2 280 4 279 6 279

C10 276 8 268 2 268

L0 268

L0 238

L0 208

L2 208

C4 208 5 207 5 206

C6 204 4 202 2 202

C0 203 0 201 0 173

C0 144 0 143 2 143

C5 142 7 139 7 137

C7 134 4 131 2 131

C0 131 0 130 0 127

C0 123 0 123 2 123

C7 123 10 116 6 113

C5 112 3 111 2 111

C0 111 0 110 0 107

C0 104 0 103 3 103

C10 103 10 92 3 92

C0 92 0 91 0 88

C0 85 0 84 3 83

C7 82 8 78 6 74

C5 73 3 72 2 72

C0 72 0 71 0 42

C0 14 0 12 2 13

C4 13 6 11 6 9

C5 8 4 7 3 7

C0 7 0 7 0 4

C0 0 0 0 3 0

C4 0 5 1 6 2

C6 2 7 3 8 3

C9 3 10 2 11 2

C11 0 15 0 34 0

L56 0

L58 3

C59 4 61 5 63 5

C66 5 69 3 69 1

C69 0 73 0 78 0

C87 0 88 0 89 3

C91 4 92 5 94 5

C97 5 100 3 100 1

C100 0 109 0 123 0

C142 0 146 0 146 2

C147 3 151 3 152 2

C152 1 153 0 155 0

C156 0 157 1 157 2

C158 3 162 3 163 2

C163 -1 180 -1 180 2

C181 3 185 3 186 2

C186 0 190 0 192 2

C193 2 194 3 195 3

C195 3 196 2 197 2

C198 0 202 0 221 0

C235 0 244 0 244 1

C244 3 247 5 250 5

C252 5 254 4 255 3

C257 0 257 0 266 0

C274 0 274 0 276 3

C279 6 283 6 286 3

L288 0

L310 0

C328 0 332 0 332 2

C333 3 337 3 338 2

C338 1 339 0 340 0

C342 0 343 1 344 2

C345 2 346 3 347 3

C347 3 348 2 349 2

C351 -1 365 -1 367 2

C369 3 371 3 372 2

C372 1 373 0 375 0

C377 0 378 1 378 2

C379 2 380 3 381 3

C382 3 383 2 384 2

C384 0 388 0 407 0

C430 0 431 0 432 2

C432 4 433 5 437 5

C440 5 441 4 441 2

C442 0 443 0 452 0

C461 0 462 0 463 2

C463 4 464 5 467 5

C470 5 471 5 473 3

L474 0

L496 0

C514 0 518 0 518 2

C519 3 523 3 524 2

C524 0 528 0 530 2

C532 3 533 3 535 2

C537 -1 551 -1 553 2

C555 3 555 3 557 2

C559 1 559 1 559 10

C559 18 559 18 557 17

C555 16 555 16 553 17

C553 18 552 19 553 20

C553 22 558 23 558 21

C559 20 559 31 559 45

L559 71

L557 73

C553 76 553 80 557 83

C560 85 560 90 557 94

C554 97 554 98 557 101

C558 103 559 105 559 107

C559 110 558 112 557 113

C554 116 554 118 557 121

C559 123 560 131 558 131

C556 131 554 134 554 137

C554 138 555 140 557 141

L559 144

L559 169

L559 194

L556 193

C553 193 551 195 553 198

C555 199 555 199 557 198

C559 197 559 197 559 205

C559 212 559 213 557 212

C556 211 555 211 554 213

C552 215 552 215 554 217

C555 218 556 218 557 217

C559 216 559 217 559 242

C559 266 559 267 557 270

C554 273 554 275 557 278

C560 280 560 286 557 289

C554 292 554 294 557 297

C560 301 560 305 557 309

C554 312 554 314 557 317

C560 320 560 326 557 329

C554 331 554 333 557 336

C559 339 559 340 559 364

C559 389 559 390 557 389

C556 388 555 388 554 390

C552 392 552 392 554 394

C555 395 556 395 557 394

C559 393 559 394 559 401

C559 407 559 409 558 408

C556 406 554 407 553 409

C552 411 552 412 553 413

C555 414 555 414 557 413

C559 412 559 412 559 438

C559 462 559 464 557 466

C554 468 554 470 557 473

C560 477 560 481 557 485

C554 488 554 490 557 493

C558 494 559 496 559 499

C559 501 558 503 557 505

C554 508 554 509 557 512

C560 516 560 521 557 524

C554 527 554 529 557 532

C559 534 559 535 559 560

C559 586 559 586 557 585

C555 584 555 584 553 585

C551 588 537 588 535 586

C533 584 532 584 530 586

C529 586 528 587 526 587

C525 587 524 586 524 586

C523 585 522 584 522 584

C521 584 520 585 519 586

C518 587 514 587 496 587

L475 587

L473 584

C472 582 470 581 468 581

C465 581 462 583 462 586

C462 587 460 587 453 587

C443 587 443 587 442 584

C440 580 431 580 431 585

C431 587 430 587 408 587

C388 587 384 587 383 586

C382 585 381 584 380 584

C380 584 379 585 378 586

C378 586 377 587 375 587

C373 587 372 586 372 586

C371 585 370 584 370 584

C369 584 368 585 367 586

C366 587 364 587 358 587

C352 587 350 587 349 586

C348 585 347 584 347 584

C346 584 345 585 344 586

C343 586 342 587 341 587

C340 587 338 586 337 586

C337 585 335 584 334 584

C334 584 333 585 332 586

C332 588 287 588 287 586

C287 584 284 581 281 581

C278 581 275 584 275 586

C275 587 272 587 266 587

C257 587 256 587 255 584

C254 582 252 581 250 581

C247 581 244 583 244 586

C244 588 199 588 197 586

C196 585 195 584 195 584

C194 584 193 585 192 586

C191 586 190 587 188 587

C187 587 186 586 186 586

C185 585 184 584 183 584

C182 584 181 585 180 586

C180 587 178 587 172 587

C165 587 163 587 163 586

C162 585 161 584 160 584

C159 584 158 585 157 586

C157 586 156 587 155 587

C153 587 152 586 151 586

C150 585 149 584 148 584

C148 584 147 585 146 586

C146 588 100 588 100 586

C100 583 97 581 94 581

C92 581 90 582 89 584

C88 587 87 587 78 587

C71 587 69 587 69 586

C69 584 66 581 63 581

C61 581 59 582 58 584

L57 587

L34 587

C15 587 11 587 11 586

C10 585 9 584 9 584

C8 584 7 585 6 586

C5 586 4 587 2 587

L0 587

L0 561

Z

M83 581

C84 580 85 578 85 577

C85 574 82 571 79 571

C74 571 71 577 75 581

C77 584 81 583 83 581

Z

M269 581

C273 578 270 571 266 571

C262 571 260 573 260 577

C260 582 265 585 269 581

Z

M456 581

C460 578 457 571 452 571

C449 571 446 574 446 577

C446 580 450 583 452 583

C453 583 455 582 456 581

Z

M17 578

C17 576 16 575 14 575

C13 575 12 575 11 576

C10 579 12 581 14 581

C16 581 17 580 17 578

Z

M146 578

C146 576 145 575 143 575

C141 575 139 577 140 580

C141 581 142 581 143 581

C145 581 146 580 146 578

Z

M169 578

C169 576 168 575 166 575

C164 575 162 577 163 580

C164 581 165 581 166 581

C168 581 169 580 169 578

Z

M180 579

C181 577 180 575 177 575

C175 575 173 577 175 580

C177 582 179 581 180 579

Z

M203 578

C203 576 202 575 200 575

C198 575 196 577 197 580

C198 581 199 581 200 581

C202 581 203 580 203 578

Z

M332 578

C332 576 331 575 329 575

C328 575 327 575 326 576

C325 579 327 581 329 581

C331 581 332 580 332 578

Z

M355 578

C355 576 354 575 352 575

C351 575 350 575 349 576

C348 579 350 581 352 581

C354 581 355 580 355 578

Z

M366 580

C368 578 366 575 364 575

C362 575 361 576 361 577

C360 578 362 581 364 581

C364 581 365 580 366 580

Z

M389 580

C391 578 389 575 387 575

C385 575 384 576 384 577

C383 578 385 581 387 581

C387 581 388 580 389 580

Z

M518 580

C520 578 518 575 516 575

C514 575 513 576 513 577

C512 578 514 581 516 581

C516 581 517 580 518 580

Z

M541 579

C542 577 541 575 538 575

C536 575 534 577 536 580

C538 582 540 581 541 579

Z

M553 578

C553 576 552 575 550 575

C548 575 546 577 547 580

C548 581 549 581 550 581

C552 581 553 580 553 578

Z

M67 571

C70 569 70 564 66 562

C61 559 55 565 58 570

C60 573 64 574 67 571

Z

M98 571

C101 569 101 564 97 562

C92 559 86 565 89 570

C91 573 95 574 98 571

Z

M255 570

C258 565 252 559 247 562

C242 566 244 573 250 573

C252 573 253 572 255 570

Z

M285 571

C286 570 287 569 287 567

C287 564 284 561 281 561

C278 561 275 564 275 567

C275 572 281 575 285 571

Z

M440 572

C443 570 443 567 441 564

C437 559 431 561 431 567

C431 572 436 575 440 572

Z

M473 570

C474 568 474 568 473 565

C471 559 462 561 462 567

C462 573 469 575 473 570

Z

M22 570

C24 568 21 565 19 566

C17 566 16 570 18 571

C19 572 21 572 22 570

Z

M140 569

C140 566 138 564 135 566

C134 568 134 569 135 571

C137 573 139 572 140 569

Z

M175 569

C175 567 173 565 171 565

C171 565 170 566 169 567

C168 570 170 572 173 571

C174 570 175 569 175 569

Z

M208 570

C210 567 207 564 205 566

C203 568 203 571 204 571

C206 572 207 572 208 570

Z

M326 570

C327 568 327 568 326 566

C322 564 318 568 321 571

C323 572 325 572 326 570

Z

M360 570

C361 568 361 568 360 566

C358 564 355 566 355 569

C355 572 358 573 360 570

Z

M393 571

C395 571 395 566 393 566

C390 564 388 568 390 571

C392 572 391 572 393 571

Z

M512 570

C513 569 513 568 512 567

C511 565 509 565 508 567

C506 568 506 569 507 570

C508 572 510 573 512 570

Z

M546 571

C548 569 547 566 545 566

C544 565 541 567 541 568

C541 570 543 572 544 572

C544 572 545 571 546 571

Z

M52 562

C54 559 54 556 52 554

C49 551 47 550 44 553

C42 555 41 559 43 561

C45 563 50 563 52 562

Z

M115 561

C117 557 116 555 113 553

C110 551 110 551 107 552

C104 554 103 559 106 561

C108 564 113 563 115 561

Z

M239 561

C242 556 238 549 232 552

C226 555 228 563 234 563

C237 563 238 562 239 561

Z

M301 561

C304 558 301 551 297 551

C294 551 291 555 291 557

C291 561 293 563 297 563

C298 563 300 562 301 561

Z

M425 561

C429 558 426 552 421 552

C416 552 413 557 417 561

C419 563 423 564 425 561

Z

M487 561

C490 559 489 554 486 552

C483 551 483 551 480 553

C477 555 476 557 478 561

C480 563 485 564 487 561

Z

M28 560

C29 559 27 556 26 556

C24 556 22 559 23 560

C23 561 24 562 26 562

C27 562 28 561 28 560

Z

M134 560

C135 559 133 556 132 556

C130 556 128 559 129 560

C129 561 130 562 132 562

C133 562 134 561 134 560

Z

M215 560

C215 559 213 556 211 556

C210 556 209 558 209 561

C210 562 214 562 215 560

Z

M321 559

C321 557 320 556 318 556

C317 556 316 556 315 557

C314 560 316 562 318 562

C320 562 321 561 321 559

Z

M401 559

C401 557 400 556 398 556

C397 556 396 556 395 557

C394 560 396 562 398 562

C400 562 401 561 401 559

Z

M507 559

C507 557 506 556 504 556

C503 556 502 556 501 557

C500 560 502 562 504 562

C506 562 507 561 507 559

Z

M37 551

C41 546 33 539 28 544

C23 548 28 555 34 553

C35 553 36 552 37 551

Z

M129 552

C131 551 132 545 130 543

C128 541 122 542 121 544

C118 547 119 549 121 552

C124 554 126 555 129 552

Z

M223 552

C225 549 226 547 223 544

C221 541 216 541 214 544

C212 547 213 551 215 552

C218 555 220 554 223 552

Z

M317 551

C318 549 318 545 316 544

C313 540 306 543 306 547

C306 553 313 556 317 551

Z

M409 552

C411 551 412 545 410 543

C408 541 402 542 401 544

C398 547 399 549 401 552

C404 554 406 555 409 552

Z

M502 552

C505 550 506 547 503 544

C502 542 497 541 495 544

C492 546 493 551 495 552

C498 554 499 554 502 552

Z

M20 542

C24 539 22 532 17 532

C11 532 9 537 12 541

C14 544 18 545 20 542

Z

M145 542

C150 537 143 528 137 534

C134 536 134 541 137 542

C140 545 143 544 145 542

Z

M207 542

C211 539 209 532 203 532

C200 532 197 535 197 538

C197 541 200 544 203 544

C204 544 206 543 207 542

Z

M332 541

C335 538 335 537 332 534

C330 532 326 531 324 534

C321 536 322 541 324 542

C327 545 330 544 332 541

Z

M394 542

C399 537 392 528 386 534

C383 536 383 541 386 542

C389 545 392 544 394 542

Z

M518 542

C520 541 521 536 518 534

C516 531 511 532 510 534

C508 537 508 538 510 541

C512 544 515 545 518 542

Z

M40 539

C42 539 42 536 41 534

C39 533 39 533 38 534

C36 536 36 539 37 539

C38 540 39 540 39 540

C39 540 40 540 40 539

Z

M119 539

C121 539 121 536 120 534

C118 533 118 533 117 534

C115 536 115 539 116 539

C117 540 118 540 118 540

C118 540 119 540 119 539

Z

M226 539

C228 539 228 534 226 534

C223 532 221 536 223 539

C225 540 224 540 226 539

Z

M305 539

C307 539 307 534 305 534

C302 532 300 536 302 539

C304 540 303 540 305 539

Z

M414 539

C415 537 415 536 413 535

C412 533 411 533 410 534

C409 535 408 536 408 536

C408 538 410 540 412 540

C412 540 413 539 414 539

Z

M493 539

C495 536 491 532 488 534

C487 536 487 537 488 539

C490 540 491 540 493 539

Z

M160 532

C165 528 159 519 153 523

C148 526 151 534 157 534

C158 534 160 533 160 532

Z

M190 533

C194 532 194 525 191 523

C187 520 182 524 182 528

C182 533 186 535 190 533

Z

M347 532

C351 529 348 522 343 522

C340 522 337 525 337 528

C337 531 340 534 343 534

C344 534 346 533 347 532

Z

M378 532

C382 529 379 522 374 522

C371 522 368 525 368 528

C368 531 371 534 374 534

C375 534 377 533 378 532

Z

M534 532

C535 531 536 529 536 528

C536 525 533 522 530 522

C525 522 522 528 526 532

C528 535 532 534 534 532

Z

M82 528

C82 525 79 523 77 525

C75 526 75 528 77 529

C78 531 79 531 80 530

C81 529 82 528 82 528

Z

M48 529

C49 527 47 524 45 524

C42 524 41 527 42 529

C44 530 47 530 48 529

Z

M115 529

C116 527 116 527 115 526

C114 525 113 524 113 524

C111 524 109 527 109 528

C110 530 113 530 115 529

Z

M234 527

C234 525 233 524 231 524

C229 524 227 526 228 529

C229 530 230 530 231 530

C233 530 234 529 234 527

Z

M268 528

C268 526 266 524 264 524

C263 525 262 526 262 527

C262 530 262 530 265 530

C266 530 267 529 268 528

Z

M301 528

C302 527 300 524 299 524

C297 524 295 527 296 528

C296 529 297 530 299 530

C300 530 301 529 301 528

Z

M420 527

C420 525 419 524 417 524

C416 524 415 524 414 525

C413 528 415 530 417 530

C419 530 420 529 420 527

Z

M454 527

C454 525 453 524 451 524

C450 524 449 524 448 525

C447 528 449 530 451 530

C453 530 454 529 454 527

Z

M488 527

C488 525 487 524 485 524

C484 524 483 524 482 525

C481 528 483 530 485 530

C487 530 488 529 488 527

Z

M176 522

C177 521 178 520 178 518

C178 515 175 512 172 512

C169 512 166 515 166 518

C166 523 172 526 176 522

Z

M363 522

C366 519 365 517 363 514

C360 512 358 511 355 514

C353 515 352 520 355 522

C357 525 362 524 363 522

Z

M549 523

C552 521 552 516 549 514

C546 511 544 512 541 515

C539 517 539 520 541 523

C542 524 546 524 549 523

Z

M53 519

C54 516 52 514 49 515

C47 516 46 518 48 520

C50 522 52 521 53 519

Z

M76 518

C76 516 75 515 73 515

C71 515 69 517 70 520

C71 521 72 521 73 521

C75 521 76 520 76 518

Z

M87 518

C87 516 86 515 84 515

C82 515 80 517 81 520

C82 521 83 521 84 521

C86 521 87 520 87 518

Z

M109 520

C110 518 110 518 109 517

C107 513 103 516 104 520

C105 520 106 521 106 521

C107 521 108 520 109 520

Z

M239 520

C241 517 237 513 235 516

C233 517 233 518 234 520

C236 521 237 521 239 520

Z

M262 518

C262 516 261 515 259 515

C257 515 255 517 256 520

C257 521 258 521 259 521

C261 521 262 520 262 518

Z

M273 520

C275 518 273 515 271 515

C269 515 268 516 268 517

C267 518 269 521 271 521

C271 521 272 520 273 520

Z

M294 520

C296 520 296 517 295 515

C293 514 293 514 292 515

C290 517 290 520 291 520

C292 521 293 521 293 521

C293 521 294 521 294 520

Z

M425 519

C426 517 426 517 425 516

C422 514 420 515 420 517

C420 521 423 522 425 519

Z

M448 518

C448 516 447 515 446 515

C443 515 442 516 442 519

C443 522 448 521 448 518

Z

M459 520

C461 517 459 515 457 515

C454 515 453 517 454 519

C455 521 457 522 459 520

Z

M482 518

C482 515 480 514 478 515

C476 516 475 518 477 520

C479 522 481 521 482 518

Z

M161 512

C162 512 162 510 162 508

C161 502 154 501 151 506

C148 512 157 517 161 512

Z

M193 511

C195 509 194 505 190 503

C188 502 188 502 185 503

C183 504 183 505 183 508

C183 512 183 513 185 514

C188 515 191 514 193 511

Z

M348 511

C351 506 345 500 340 504

C336 507 336 512 341 514

C344 515 347 514 348 511

Z

M379 512

C380 512 380 510 380 508

C379 503 375 501 372 503

C369 505 368 508 369 511

C371 515 376 516 379 512

Z

M535 512

C538 508 533 501 528 503

C523 505 523 512 527 514

C530 515 532 514 535 512

Z

M69 511

C71 510 70 506 68 506

C65 506 63 508 65 510

C66 512 67 512 69 511

Z

M92 510

C93 508 93 508 92 506

C90 504 87 505 87 508

C87 512 90 513 92 510

Z

M256 510

C257 507 255 505 253 505

C250 506 249 509 251 511

C253 512 256 512 256 510

Z

M278 511

C281 508 278 504 275 506

C272 507 273 512 276 512

C276 512 277 511 278 511

Z

M443 509

C443 508 442 507 442 506

C440 504 438 505 437 507

C436 510 438 512 441 511

C442 510 443 509 443 509

Z

M465 508

C464 505 461 505 460 507

C459 509 459 509 460 510

C463 512 465 511 465 508

Z

M59 508

C59 506 58 505 56 505

C55 505 54 505 53 506

C52 509 54 511 56 511

C58 511 59 510 59 508

Z

M104 508

C104 506 103 505 101 505

C99 505 97 507 98 510

C99 511 100 511 101 511

C103 511 104 510 104 508

Z

M245 508

C245 506 244 505 242 505

C240 505 238 507 239 510

C240 511 241 511 242 511

C244 511 245 510 245 508

Z

M290 508

C290 505 287 504 285 506

C283 508 284 511 287 511

C290 511 290 511 290 508

Z

M431 510

C432 508 430 505 429 505

C427 505 425 508 425 509

C426 511 431 512 431 510

Z

M476 509

C477 508 475 505 474 505

C472 505 470 508 471 509

C471 510 472 511 474 511

C475 511 476 510 476 509

Z

M22 503

C24 500 25 498 22 495

C21 493 15 492 13 494

C11 496 12 502 14 503

C17 506 19 505 22 503

Z

M145 503

C147 501 148 497 145 495

C142 491 135 494 135 499

C135 502 138 505 141 505

C142 505 144 504 145 503

Z

M207 503

C209 502 210 497 207 495

C205 492 200 493 199 495

C196 498 197 501 199 503

C201 505 204 506 207 503

Z

M332 503

C334 500 335 498 332 495

C331 493 327 492 324 494

C321 496 321 501 324 503

C327 506 329 505 332 503

Z

M394 503

C396 501 397 498 394 495

C391 491 384 493 384 499

C384 502 387 505 390 505

C391 505 393 504 394 503

Z

M518 503

C520 502 521 497 518 495

C516 492 511 493 510 495

C507 498 508 500 510 503

C513 505 515 506 518 503

Z

M64 501

C66 499 64 496 62 496

C60 496 59 497 59 498

C58 499 60 502 62 502

C62 502 63 501 64 501

Z

M98 501

C100 499 98 496 96 496

C94 496 93 497 93 498

C92 499 94 502 96 502

C96 502 97 501 98 501

Z

M250 501

C252 499 251 496 248 496

C246 496 244 498 245 501

C246 502 248 502 250 501

Z

M284 501

C286 498 284 496 282 496

C280 496 279 497 279 498

C279 502 282 503 284 501

Z

M437 499

C437 497 436 496 434 496

C433 496 432 496 431 497

C430 500 432 502 434 502

C436 502 437 501 437 499

Z

M471 499

C471 497 470 496 468 496

C467 496 466 496 465 497

C464 500 466 502 468 502

C470 502 471 501 471 499

Z

M160 493

C164 490 162 483 157 483

C151 483 149 488 152 492

C154 495 158 496 160 493

Z

M191 494

C193 493 194 489 193 487

C191 481 182 482 182 489

C182 493 187 497 191 494

Z

M347 493

C349 492 350 487 347 485

C345 482 340 482 339 485

C336 488 337 491 339 493

C341 495 344 496 347 493

Z

M378 493

C382 490 379 483 374 483

C371 483 368 486 368 489

C368 492 371 495 374 495

C375 495 377 494 378 493

Z

M534 493

C539 488 532 479 526 485

C523 487 523 492 526 493

C529 496 532 495 534 493

Z

M58 491

C59 489 59 489 58 487

C56 485 53 487 53 490

C53 493 56 494 58 491

Z

M70 489

C69 486 66 486 65 488

C64 490 64 490 65 491

C68 493 70 492 70 489

Z

M93 490

C93 488 90 486 89 486

C87 487 86 492 88 492

C90 493 93 491 93 490

Z

M102 492

C104 492 104 487 102 487

C99 485 97 489 99 492

C101 493 100 493 102 492

Z

M243 492

C245 492 245 487 243 487

C240 485 238 489 240 492

C242 493 241 493 243 492

Z

M256 491

C257 488 255 486 253 486

C250 487 249 490 251 492

C253 493 256 493 256 491

Z

M288 492

C290 492 290 487 288 487

C285 485 283 489 285 492

C287 493 286 493 288 492

Z

M431 491

C432 489 430 485 428 486

C425 487 425 490 426 492

C428 494 430 493 431 491

Z

M443 490

C443 489 442 488 442 487

C440 485 438 486 437 488

C436 491 438 493 441 492

C442 491 443 490 443 490

Z

M465 489

C464 486 461 486 460 488

C459 490 459 490 460 491

C463 493 465 492 465 489

Z

M476 491

C477 490 477 489 476 488

C474 485 472 486 471 488

C469 492 474 495 476 491

Z

M279 490

C279 487 278 486 275 486

C273 487 272 490 274 491

C275 493 278 492 279 490

Z

M176 483

C177 482 178 481 178 479

C178 476 175 473 172 473

C169 473 166 476 166 479

C166 484 172 487 176 483

Z

M364 482

C367 477 361 471 356 474

C351 478 353 485 359 485

C361 485 362 484 364 482

Z

M549 483

C553 480 550 473 545 473

C542 473 539 478 540 480

C541 485 546 486 549 483

Z

M53 480

C53 477 48 476 48 479

C47 482 48 483 50 483

C52 483 53 482 53 480

Z

M76 480

C76 478 75 477 73 477

C71 477 69 479 70 482

C71 483 72 483 73 483

C75 483 76 482 76 480

Z

M87 480

C87 478 86 477 84 477

C82 477 80 479 81 482

C82 483 83 483 84 483

C86 483 87 482 87 480

Z

M109 482

C111 480 110 477 107 477

C105 477 103 479 104 482

C105 483 107 483 109 482

Z

M239 481

C240 480 238 477 237 477

C235 477 233 480 234 481

C234 482 235 483 237 483

C238 483 239 482 239 481

Z

M262 480

C262 478 261 477 259 477

C257 477 255 479 256 482

C257 483 258 483 259 483

C261 483 262 482 262 480

Z

M273 482

C275 480 273 477 271 477

C269 477 268 478 268 479

C267 480 269 483 271 483

C271 483 272 482 273 482

Z

M296 480

C296 478 295 477 293 477

C292 477 291 477 290 478

C289 481 291 483 293 483

C295 483 296 482 296 480

Z

M426 480

C426 478 425 477 423 477

C422 477 421 477 420 478

C419 481 421 483 423 483

C425 483 426 482 426 480

Z

M448 480

C448 478 447 477 446 477

C443 477 442 478 442 481

C443 484 448 483 448 480

Z

M459 481

C460 478 459 477 457 477

C454 477 452 480 454 482

C456 484 459 483 459 481

Z

M482 480

C482 478 481 477 479 477

C478 477 477 477 476 478

C475 481 477 483 479 483

C481 483 482 482 482 480

Z

M161 474

C163 472 162 466 160 465

C157 462 155 463 152 466

C150 468 150 471 152 474

C154 475 159 475 161 474

Z

M193 472

C196 467 190 461 185 464

C182 466 181 472 183 474

C185 476 191 475 193 472

Z

M347 473

C350 471 349 466 346 464

C344 463 344 463 341 464

C337 466 336 469 338 473

C340 475 345 476 347 473

Z

M378 473

C383 469 378 461 372 464

C371 464 369 466 369 467

C366 473 374 478 378 473

Z

M534 473

C535 472 536 471 536 469

C536 466 533 463 530 463

C527 463 524 466 524 469

C524 474 530 477 534 473

Z

M47 473

C49 471 48 469 46 468

C43 467 41 469 42 472

C43 474 45 475 47 473

Z

M81 472

C82 471 82 470 81 469

C79 466 77 467 76 469

C75 470 75 471 77 472

C78 474 80 474 81 472

Z

M115 472

C116 469 114 467 111 468

C109 469 108 471 110 473

C112 475 114 474 115 472

Z

M233 472

C235 470 232 467 230 468

C228 468 227 472 229 473

C230 474 232 474 233 472

Z

M267 472

C268 470 268 470 267 468

C265 466 262 468 262 471

C262 474 265 475 267 472

Z

M301 473

C303 471 302 469 300 468

C299 467 298 467 297 469

C295 470 295 471 296 472

C297 474 299 475 301 473

Z

M420 471

C420 468 418 466 416 468

C414 470 414 471 415 473

C417 475 419 474 420 471

Z

M453 473

C456 470 453 466 450 468

C447 469 448 474 451 474

C451 474 452 473 453 473

Z

M487 472

C489 470 486 467 484 468

C482 468 481 472 483 473

C484 474 486 474 487 472

Z

M21 464

C22 462 22 457 21 455

C19 453 13 454 12 456

C9 459 10 461 13 464

C15 466 18 466 21 464

Z

M144 464

C149 460 147 454 141 454

C133 454 133 465 141 466

C141 466 143 465 144 464

Z

M208 463

C211 459 208 454 203 454

C197 454 195 460 200 464

C203 466 206 466 208 463

Z

M332 464

C334 461 335 459 332 456

C331 454 325 453 323 455

C321 458 322 463 325 465

C328 466 329 466 332 464

Z

M393 464

C398 460 396 454 390 454

C382 454 382 465 390 466

C390 466 392 465 393 464

Z

M519 464

C520 462 520 457 519 455

C517 453 511 454 510 456

C507 459 508 461 511 464

C513 466 516 466 519 464

Z

M42 461

C42 459 41 458 39 458

C38 458 37 458 36 459

C35 462 37 464 39 464

C41 464 42 463 42 461

Z

M121 461

C121 459 120 458 118 458

C116 458 114 460 115 463

C116 464 117 464 118 464

C120 464 121 463 121 461

Z

M228 461

C228 458 223 457 223 460

C222 463 223 464 225 464

C227 464 228 463 228 461

Z

M307 461

C307 459 306 458 304 458

C303 458 302 458 301 459

C300 462 302 464 304 464

C306 464 307 463 307 461

Z

M414 462

C415 461 413 458 412 458

C410 458 408 461 409 462

C409 463 410 464 412 464

C413 464 414 463 414 462

Z

M493 462

C494 461 492 458 491 458

C489 458 487 461 488 462

C488 463 489 464 491 464

C492 464 493 463 493 462

Z

M36 454

C38 452 39 448 36 446

C33 442 26 445 26 450

C26 453 29 456 32 456

C33 456 35 455 36 454

Z

M129 454

C131 453 132 448 129 446

C127 443 122 444 121 446

C119 449 119 450 121 453

C123 456 126 457 129 454

Z

M223 453

C225 450 225 450 224 447

C222 444 217 443 215 446

C212 448 213 453 215 454

C218 457 221 456 223 453

Z

M316 454

C318 452 319 448 316 446

C313 442 306 445 306 450

C306 453 309 456 312 456

C313 456 315 455 316 454

Z

M409 454

C412 452 412 447 409 445

C406 444 402 444 401 445

C399 448 399 451 401 453

C404 456 406 457 409 454

Z

M503 454

C505 452 506 449 503 446

C502 444 497 443 495 446

C492 448 493 453 495 454

C498 457 501 456 503 454

Z

M51 445

C53 444 54 440 53 438

C51 432 42 433 42 440

C42 444 47 448 51 445

Z

M114 444

C115 443 116 441 116 440

C116 437 113 434 110 434

C105 434 102 440 106 444

C108 447 112 446 114 444

Z

M238 444

C242 441 239 434 234 434

C231 434 228 437 228 440

C228 443 231 446 234 446

C235 446 237 445 238 444

Z

M300 445

C302 444 303 440 302 438

C300 433 293 433 291 438

C290 440 290 441 293 444

C294 446 298 447 300 445

Z

M425 444

C431 438 423 430 417 436

C414 438 414 443 417 444

C420 447 423 446 425 444

Z

M487 444

C491 441 488 434 483 434

C480 434 477 437 477 440

C477 443 480 446 483 446

C484 446 486 445 487 444

Z

M28 441

C30 438 26 434 23 436

C22 438 22 439 23 441

C25 442 26 442 28 441

Z

M134 440

C135 438 135 438 134 436

C131 434 127 438 129 441

C131 442 133 442 134 440

Z

M214 440

C215 439 215 438 214 437

C213 435 211 435 210 437

C208 438 208 439 209 440

C210 442 212 443 214 440

Z

M320 440

C322 438 319 435 317 436

C315 436 314 440 316 441

C317 442 319 442 320 440

Z

M400 440

C401 438 401 438 400 436

C398 434 395 436 395 439

C395 442 398 443 400 440

Z

M505 441

C507 441 507 438 506 436

C504 435 504 435 503 436

C501 438 501 441 502 441

C503 442 504 442 504 442

C504 442 505 442 505 441

Z

M67 434

C70 432 70 427 66 425

C61 422 55 428 58 433

C60 436 64 437 67 434

Z

M98 434

C101 432 101 427 97 425

C92 422 86 428 89 433

C91 436 95 437 98 434

Z

M255 433

C258 428 252 422 247 425

C242 429 244 436 250 436

C252 436 253 435 255 433

Z

M285 434

C286 433 287 432 287 430

C287 427 284 424 281 424

C278 424 275 427 275 430

C275 435 281 438 285 434

Z

M440 435

C443 433 443 430 441 427

C437 422 431 424 431 431

C431 435 436 438 440 435

Z

M473 433

C474 430 474 430 472 427

C470 424 468 423 464 425

C462 427 461 432 464 434

C466 437 471 436 473 433

Z

M175 430

C175 428 173 426 171 426

C171 426 170 427 169 428

C168 431 170 433 173 432

C174 431 175 430 175 430

Z

M361 430

C361 428 358 426 357 426

C355 427 354 432 356 432

C358 433 361 431 361 430

Z

M547 429

C547 427 546 426 543 427

C541 427 540 431 543 432

C545 433 547 432 547 429

Z

M23 430

C23 429 21 426 19 426

C18 426 17 428 17 431

C18 432 22 432 23 430

Z

M140 429

C140 426 137 425 135 427

C133 429 134 432 137 432

C139 432 140 431 140 429

Z

M209 429

C209 427 208 426 206 426

C204 426 202 428 203 431

C204 432 205 432 206 432

C208 432 209 431 209 429

Z

M326 430

C327 429 325 426 324 426

C322 426 320 429 321 430

C321 431 322 432 324 432

C325 432 326 431 326 430

Z

M395 429

C395 427 394 426 392 426

C391 426 390 426 389 427

C388 430 390 432 392 432

C394 432 395 431 395 429

Z

M513 430

C513 429 511 426 509 426

C508 426 507 428 507 431

C508 432 512 432 513 430

Z

M84 423

C87 418 81 412 76 415

C73 417 72 423 74 425

C76 427 82 426 84 423

Z

M270 425

C272 423 271 417 268 415

C263 412 257 418 260 423

C262 426 268 427 270 425

Z

M456 424

C461 420 455 412 450 415

C447 417 446 418 446 420

C446 425 453 428 456 424

Z

M17 420

C17 418 16 417 14 417

C13 417 12 417 11 418

C10 421 12 423 14 423

C16 423 17 422 17 420

Z

M146 420

C146 418 145 417 143 417

C141 417 139 419 140 422

C141 423 142 423 143 423

C145 423 146 422 146 420

Z

M169 420

C169 418 168 417 166 417

C164 417 162 419 163 422

C164 423 165 423 166 423

C168 423 169 422 169 420

Z

M180 421

C181 419 180 417 177 417

C175 417 174 419 175 421

C175 424 179 424 180 421

Z

M203 420

C203 418 202 417 200 417

C198 417 196 419 198 422

C200 424 203 423 203 420

Z

M332 420

C332 418 331 417 329 417

C327 417 325 419 327 422

C329 424 332 423 332 420

Z

M355 420

C355 418 354 417 352 417

C351 417 350 417 349 418

C348 421 350 423 352 423

C354 423 355 422 355 420

Z

M366 422

C367 420 366 417 364 417

C361 417 359 420 361 422

C363 423 364 423 366 422

Z

M389 422

C391 420 389 417 387 417

C385 417 384 418 384 419

C383 420 385 423 387 423

C387 423 388 422 389 422

Z

M518 422

C520 420 518 417 516 417

C514 417 513 418 513 419

C512 420 514 423 516 423

C516 423 517 422 518 422

Z

M541 421

C542 419 541 417 538 417

C536 417 535 419 536 421

C536 424 540 424 541 421

Z

M553 420

C553 418 552 417 550 417

C549 417 548 417 547 418

C546 421 548 423 550 423

C552 423 553 422 553 420

Z

M67 415

C69 413 70 409 67 407

C64 403 57 406 57 410

C57 413 58 414 61 416

C63 417 65 417 67 415

Z

M98 415

C100 414 101 409 98 407

C96 404 91 405 90 407

C87 410 88 412 90 415

C93 417 95 418 98 415

Z

M253 415

C256 413 257 410 254 407

C253 405 248 404 246 407

C243 409 244 414 246 415

C249 417 250 417 253 415

Z

M286 414

C289 410 286 405 281 405

C278 405 275 407 275 410

C275 416 282 419 286 414

Z

M441 414

C443 412 443 409 441 406

C439 405 434 405 432 406

C430 408 431 414 433 415

C436 418 438 417 441 414

Z

M472 415

C474 412 475 410 472 407

C471 405 465 404 463 406

C461 408 462 414 464 415

C467 418 469 417 472 415

Z

M10 413

C12 412 11 408 9 408

C6 408 4 410 6 412

C7 414 8 414 10 413

Z

M151 412

C152 410 152 410 151 408

C149 406 146 407 146 410

C146 414 149 415 151 412

Z

M161 413

C163 413 163 408 161 408

C158 406 156 410 158 413

C160 414 159 414 161 413

Z

M184 413

C186 413 186 408 184 408

C181 406 179 410 181 413

C183 414 182 414 184 413

Z

M198 411

C198 408 195 406 193 408

C191 409 191 411 193 412

C194 414 195 414 196 413

C197 412 198 411 198 411

Z

M337 413

C340 410 337 406 334 408

C331 409 332 414 335 414

C335 414 336 413 337 413

Z

M349 412

C350 411 350 410 348 409

C347 407 345 407 344 409

C343 410 343 411 344 412

C346 415 348 414 349 412

Z

M372 412

C373 411 373 410 371 409

C370 407 368 407 367 409

C366 410 366 411 367 412

C369 415 371 414 372 412

Z

M384 411

C384 409 381 407 380 407

C378 408 377 413 379 413

C381 414 384 412 384 411

Z

M523 413

C525 412 524 408 522 408

C519 408 517 410 519 412

C520 414 521 414 523 413

Z

M535 412

C536 411 536 410 535 409

C534 407 532 407 531 409

C529 410 529 411 530 412

C531 414 533 415 535 412

Z

M52 404

C55 400 53 395 47 395

C43 395 40 401 44 405

C46 408 50 407 52 404

Z

M114 405

C119 400 112 391 106 397

C103 399 103 404 106 405

C109 408 112 407 114 405

Z

M238 405

C242 402 240 395 234 395

C231 395 228 398 228 401

C228 404 231 407 234 407

C235 407 237 406 238 405

Z

M301 404

C302 403 303 401 302 400

C301 394 292 394 291 400

C290 402 293 407 297 407

C298 407 300 406 301 404

Z

M425 405

C427 403 428 399 425 397

C422 393 415 396 415 401

C415 404 418 407 421 407

C422 407 424 406 425 405

Z

M487 405

C489 404 490 399 487 397

C485 394 480 394 479 397

C476 400 477 403 479 405

C481 407 484 408 487 405

Z

M157 402

C158 401 156 398 155 398

C153 398 151 401 152 402

C152 403 153 404 155 404

C156 404 157 403 157 402

Z

M192 401

C192 399 191 398 189 398

C187 398 185 400 186 403

C187 404 188 404 189 404

C191 404 192 403 192 401

Z

M344 402

C344 401 343 399 342 399

C340 398 340 398 339 399

C337 402 338 404 341 404

C343 404 344 403 344 402

Z

M378 401

C378 399 377 398 375 398

C374 398 373 398 372 399

C371 402 373 404 375 404

C377 404 378 403 378 401

Z

M530 401

C530 399 529 398 527 398

C526 398 525 398 524 399

C523 402 525 404 527 404

C529 404 530 403 530 401

Z

M67 395

C71 392 68 385 63 385

C62 385 60 386 59 387

C54 392 61 401 67 395

Z

M98 395

C102 392 99 385 94 385

C91 385 88 388 88 391

C88 394 91 397 94 397

C95 397 97 396 98 395

Z

M254 395

C255 394 256 392 256 391

C256 388 253 385 250 385

C245 385 242 391 246 395

C248 398 252 397 254 395

Z

M286 394

C289 389 283 383 278 386

C273 390 275 397 281 397

C283 397 284 396 286 394

Z

M439 396

C443 395 443 388 440 386

C436 383 431 387 431 391

C431 396 435 398 439 396

Z

M472 395

C476 391 473 385 468 385

C463 385 460 391 464 395

C466 398 470 397 472 395

Z

M11 392

C11 389 11 389 9 389

C6 389 4 391 6 394

C8 396 10 395 11 392

Z

M151 394

C153 391 151 389 149 389

C147 389 146 390 146 391

C146 395 149 396 151 394

Z

M163 392

C163 389 161 387 158 389

C157 391 157 392 158 394

C160 396 162 395 163 392

Z

M184 394

C186 394 186 391 185 389

C183 388 183 388 182 389

C180 391 180 394 181 394

C182 395 183 395 183 395

C183 395 184 395 184 394

Z

M197 394

C199 392 197 389 195 389

C193 389 192 390 192 391

C191 392 193 395 195 395

C195 395 196 394 197 394

Z

M338 392

C338 390 337 389 335 389

C334 389 333 389 332 390

C331 393 333 395 335 395

C337 395 338 394 338 392

Z

M349 393

C350 390 348 388 345 389

C343 390 342 392 344 394

C346 396 348 395 349 393

Z

M372 393

C373 390 371 388 368 389

C366 390 365 392 367 394

C369 396 371 395 372 393

Z

M383 394

C385 391 383 389 381 389

C379 389 378 390 378 391

C378 395 381 396 383 394

Z

M524 392

C524 390 523 389 521 389

C520 389 519 389 518 390

C517 393 519 395 521 395

C523 395 524 394 524 392

Z

M535 394

C537 392 536 390 534 389

C531 388 529 390 530 393

C531 395 533 396 535 394

Z

M84 384

C85 381 85 381 83 378

C81 375 79 374 75 376

C73 378 72 383 75 385

C77 388 82 387 84 384

Z

M269 386

C270 385 271 384 271 381

C271 375 263 373 260 379

C257 385 264 389 269 386

Z

M456 385

C457 384 458 383 458 381

C458 378 455 375 452 375

C449 375 446 378 446 381

C446 386 452 389 456 385

Z

M16 385

C19 382 16 378 13 380

C10 381 11 386 14 386

C14 386 15 385 16 385

Z

M145 385

C148 382 145 378 142 380

C139 381 140 386 143 386

C143 386 144 385 145 385

Z

M203 382

C202 379 199 379 198 381

C197 383 197 383 198 384

C201 386 203 385 203 382

Z

M331 385

C333 384 332 380 330 380

C327 380 325 382 327 384

C328 386 329 386 331 385

Z

M389 383

C390 381 388 379 386 379

C383 380 382 383 384 385

C386 386 389 386 389 383

Z

M518 383

C519 381 517 379 515 379

C512 380 511 383 513 385

C515 386 518 386 518 383

Z

M169 382

C169 380 168 379 166 379

C164 379 162 381 163 384

C164 385 165 385 166 385

C168 385 169 384 169 382

Z

M180 384

C181 382 179 379 178 379

C176 379 174 382 174 383

C175 385 180 386 180 384

Z

M355 382

C355 380 354 379 352 379

C351 379 350 379 349 380

C348 383 350 385 352 385

C354 385 355 384 355 382

Z

M367 383

C367 380 363 378 361 380

C359 382 361 385 364 385

C366 385 367 384 367 383

Z

M541 384

C542 382 540 379 539 379

C537 379 535 382 535 383

C536 385 541 386 541 384

Z

M553 383

C553 382 551 379 549 379

C548 379 547 381 547 384

C548 385 552 385 553 383

Z

M65 377

C70 375 70 368 65 366

C63 365 62 365 60 367

C56 369 56 373 60 376

C63 378 62 378 65 377

Z

M99 374

C102 369 96 363 91 366

C89 368 88 371 89 374

C91 378 97 379 99 374

Z

M255 375

C258 371 253 364 248 366

C246 366 245 368 244 369

C242 376 250 380 255 375

Z

M284 376

C288 373 288 369 283 366

C282 365 280 365 279 366

C274 368 274 375 278 377

C281 378 281 378 284 376

Z

M441 375

C443 373 443 369 441 367

C439 365 435 365 432 367

C430 369 431 375 434 377

C436 378 439 377 441 375

Z

M473 374

C475 372 474 368 470 366

C468 365 468 365 465 366

C463 367 463 368 463 371

C463 375 463 376 465 377

C468 378 471 377 473 374

Z

M23 373

C23 371 22 370 20 370

C19 370 18 370 17 371

C16 374 18 376 20 376

C22 376 23 375 23 373

Z

M140 373

C140 371 139 370 137 370

C135 370 133 372 134 375

C135 376 136 376 137 376

C139 376 140 375 140 373

Z

M174 375

C176 372 174 370 172 370

C169 370 168 372 169 374

C170 376 172 377 174 375

Z

M209 373

C209 371 208 370 206 370

C204 370 202 372 203 375

C204 376 205 376 206 376

C208 376 209 375 209 373

Z

M326 375

C327 373 327 373 326 372

C325 371 324 370 324 370

C323 370 322 371 321 372

C320 373 320 373 321 375

C322 375 323 376 324 376

C324 376 325 375 326 375

Z

M361 373

C361 371 360 370 358 370

C357 370 356 370 355 371

C354 374 356 376 358 376

C360 376 361 375 361 373

Z

M395 373

C395 371 394 370 392 370

C391 370 390 370 389 371

C388 374 390 376 392 376

C394 376 395 375 395 373

Z

M513 373

C513 371 512 370 510 370

C509 370 508 370 507 371

C506 374 508 376 510 376

C512 376 513 375 513 373

Z

M547 373

C547 371 546 370 544 370

C543 370 542 370 541 371

C540 374 542 376 544 376

C546 376 547 375 547 373

Z

M52 365

C54 363 54 360 52 357

C50 356 45 356 43 357

C41 359 42 365 44 366

C47 369 49 368 52 365

Z

M112 367

C116 365 117 362 115 358

C113 356 108 355 106 358

C103 360 104 365 106 366

C109 368 109 368 112 367

Z

M238 366

C240 365 241 360 238 358

C236 355 231 356 230 358

C227 361 228 363 230 366

C233 368 235 369 238 366

Z

M300 366

C302 364 303 360 301 358

C300 357 298 356 297 356

C293 356 291 358 291 362

C291 364 294 368 297 368

C297 368 299 367 300 366

Z

M425 366

C427 364 428 360 425 358

C422 354 415 357 415 362

C415 365 418 368 421 368

C422 368 424 367 425 366

Z

M487 366

C489 365 490 360 487 358

C485 355 480 356 479 358

C476 361 477 364 480 366

C483 368 484 368 487 366

Z

M28 366

C29 364 29 363 27 362

C26 360 25 360 24 361

C23 362 22 363 22 363

C22 365 24 367 26 367

C26 367 27 366 28 366

Z

M134 365

C135 363 135 363 134 362

C130 359 127 363 129 366

C131 367 133 367 134 365

Z

M214 365

C215 364 215 363 214 362

C213 360 211 360 210 362

C208 363 208 364 209 365

C210 367 212 368 214 365

Z

M320 365

C322 363 319 360 317 361

C315 361 314 365 316 366

C317 367 319 367 320 365

Z

M400 365

C401 363 401 363 400 361

C398 359 395 361 395 364

C395 367 398 368 400 365

Z

M505 366

C507 366 507 363 506 361

C504 360 504 360 503 361

C501 363 501 366 502 366

C503 367 504 367 504 367

C504 367 505 367 505 366

Z

M36 356

C38 354 39 350 36 348

C33 344 26 347 26 352

C26 355 29 358 32 358

C33 358 35 357 36 356

Z

M129 356

C133 353 131 346 126 346

C122 346 120 348 120 352

C120 357 125 360 129 356

Z

M223 356

C224 355 225 353 225 352

C225 349 222 346 219 346

C214 346 211 352 215 356

C217 359 221 358 223 356

Z

M316 356

C318 355 319 350 316 348

C314 345 309 345 308 348

C305 351 306 354 308 356

C310 358 313 359 316 356

Z

M409 356

C411 354 412 350 409 348

C405 343 397 349 400 354

C402 358 406 359 409 356

Z

M503 356

C505 354 506 351 503 348

C500 344 493 346 493 352

C493 357 499 360 503 356

Z

M20 346

C24 343 21 336 16 336

C13 336 10 341 11 343

C12 348 17 349 20 346

Z

M146 345

C149 340 143 334 138 337

C133 341 135 348 141 348

C143 348 144 347 146 345

Z

M207 346

C212 342 207 335 201 337

C197 338 196 342 198 345

C200 348 204 349 207 346

Z

M332 346

C333 345 334 344 334 343

C334 341 332 338 331 337

C327 334 322 338 322 342

C322 348 328 350 332 346

Z

M395 345

C398 340 392 334 387 337

C382 341 384 348 390 348

C392 348 393 347 395 345

Z

M518 346

C522 343 519 336 515 336

C512 336 511 337 509 340

C508 343 508 344 510 346

C512 348 516 349 518 346

Z

M42 341

C42 339 41 338 39 338

C38 338 37 338 36 339

C35 342 37 344 39 344

C41 344 42 343 42 341

Z

M121 341

C121 339 120 338 118 338

C116 338 114 340 115 343

C116 344 117 344 118 344

C120 344 121 343 121 341

Z

M228 341

C228 339 227 338 225 338

C223 338 221 340 222 343

C223 344 224 344 225 344

C227 344 228 343 228 341

Z

M307 341

C307 339 306 338 304 338

C303 338 302 338 301 339

C300 342 302 344 304 344

C306 344 307 343 307 341

Z

M414 343

C416 341 414 338 411 338

C409 338 408 341 409 343

C411 344 412 344 414 343

Z

M493 343

C494 341 494 341 493 340

C490 336 486 339 488 343

C488 343 489 344 490 344

C491 344 492 343 493 343

Z

M161 337

C163 335 162 329 160 328

C157 325 155 326 152 329

C150 331 150 334 152 337

C154 338 159 338 161 337

Z

M193 335

C196 330 190 324 185 327

C182 329 181 335 183 337

C185 339 191 338 193 335

Z

M347 336

C350 334 349 329 346 327

C343 326 343 326 340 328

C337 330 336 332 338 336

C340 338 345 339 347 336

Z

M378 336

C383 332 378 324 372 327

C371 327 369 329 369 330

C366 336 374 341 378 336

Z

M534 336

C535 335 536 334 536 332

C536 329 533 326 530 326

C527 326 524 329 524 332

C524 337 530 340 534 336

Z

M47 333

C48 332 48 331 47 330

C46 328 44 328 43 330

C41 331 41 332 42 333

C43 335 45 336 47 333

Z

M82 332

C82 330 80 328 78 328

C78 328 77 329 76 330

C75 333 77 335 80 334

C81 333 82 332 82 332

Z

M115 333

C116 332 116 331 114 330

C113 328 111 328 110 330

C109 331 109 332 110 333

C112 336 114 335 115 333

Z

M233 333

C234 331 234 331 233 329

C231 327 228 329 228 332

C228 335 231 336 233 333

Z

M267 333

C268 331 268 331 267 329

C265 327 262 328 262 331

C262 335 265 336 267 333

Z

M301 333

C302 332 302 331 301 330

C300 328 298 328 297 330

C295 331 295 332 296 333

C297 335 299 336 301 333

Z

M418 334

C420 334 420 329 418 329

C415 327 413 331 415 334

C417 335 416 335 418 334

Z

M453 334

C456 331 453 327 450 329

C447 330 448 335 451 335

C451 335 452 334 453 334

Z

M487 333

C488 331 488 331 487 329

C485 327 482 329 482 332

C482 335 485 336 487 333

Z

M177 326

C178 324 178 320 176 319

C173 315 166 318 166 322

C166 328 173 331 177 326

Z

M363 327

C365 324 366 322 363 319

C361 316 356 316 354 319

C352 322 353 326 356 328

C359 329 360 329 363 327

Z

M549 327

C551 326 552 320 550 318

C548 317 542 317 541 319

C539 321 540 325 542 327

C545 329 546 329 549 327

Z

M53 322

C53 319 48 318 48 321

C47 324 48 325 50 325

C52 325 53 324 53 322

Z

M76 322

C76 320 75 319 73 319

C71 319 69 321 70 324

C71 325 72 325 73 325

C75 325 76 324 76 322

Z

M87 322

C87 320 86 319 84 319

C82 319 80 321 81 324

C82 325 83 325 84 325

C86 325 87 324 87 322

Z

M110 323

C110 321 108 319 106 320

C104 320 103 323 105 324

C106 326 109 325 110 323

Z

M239 323

C240 322 238 319 237 319

C235 319 233 322 234 323

C234 324 235 325 237 325

C238 325 239 324 239 323

Z

M262 322

C262 320 261 319 259 319

C257 319 255 321 256 324

C257 325 258 325 259 325

C261 325 262 324 262 322

Z

M273 324

C274 322 274 322 273 321

C270 317 266 320 268 324

C268 324 269 325 270 325

C271 325 272 324 273 324

Z

M296 322

C296 320 295 319 293 319

C292 319 291 319 290 320

C289 323 291 325 293 325

C295 325 296 324 296 322

Z

M426 324

C427 322 425 319 423 319

C421 319 419 321 420 324

C421 325 425 326 426 324

Z

M448 322

C448 320 447 319 445 319

C444 319 443 319 442 320

C441 323 443 325 445 325

C447 325 448 324 448 322

Z

M459 324

C460 321 459 319 457 319

C454 319 452 322 454 324

C455 324 456 325 457 325

C458 325 459 324 459 324

Z

M482 322

C482 320 481 319 479 319

C478 319 477 319 476 320

C475 323 477 325 479 325

C481 325 482 324 482 322

Z

M160 317

C163 315 163 310 160 308

C157 307 153 307 152 308

C150 311 150 314 152 316

C155 319 157 320 160 317

Z

M192 316

C194 313 194 313 193 310

C191 307 187 306 184 308

C181 310 181 315 184 317

C187 320 190 319 192 316

Z

M347 317

C349 316 350 311 347 309

C345 306 340 306 339 309

C336 312 337 315 339 317

C341 319 344 320 347 317

Z

M378 317

C380 316 381 311 378 309

C376 306 371 307 370 309

C368 312 368 313 370 316

C372 319 375 320 378 317

Z

M534 317

C536 315 537 311 534 309

C531 305 524 308 524 313

C524 316 527 319 530 319

C531 319 533 318 534 317

Z

M57 315

C59 315 59 312 58 310

C56 308 53 310 53 313

C53 316 54 317 57 315

Z

M68 315

C70 315 70 310 68 310

C65 308 63 312 65 315

C67 316 66 316 68 315

Z

M92 314

C93 312 93 312 92 310

C90 308 87 310 87 313

C87 316 90 317 92 314

Z

M104 313

C104 310 102 308 100 310

C98 312 98 313 99 315

C101 317 103 316 104 313

Z

M245 313

C245 310 243 309 241 310

C239 311 238 313 240 315

C242 317 244 316 245 313

Z

M256 314

C257 313 257 312 255 311

C254 309 252 309 251 311

C250 312 250 313 251 314

C253 317 255 316 256 314

Z

M277 315

C279 315 279 310 277 310

C274 308 272 312 274 315

C276 316 275 316 277 315

Z

M290 313

C290 310 288 309 286 310

C284 311 283 313 285 315

C287 317 289 316 290 313

Z

M431 314

C432 311 430 309 427 310

C425 311 424 313 426 315

C428 317 430 316 431 314

Z

M442 314

C443 313 443 312 442 311

C441 309 439 309 438 311

C436 312 436 313 437 314

C438 316 440 317 442 314

Z

M465 313

C465 310 463 308 460 310

C459 312 459 313 460 315

C462 317 464 316 465 313

Z

M476 314

C477 312 477 312 476 311

C472 308 469 312 471 315

C473 316 475 316 476 314

Z

M21 308

C23 307 24 303 23 301

C21 295 12 297 12 303

C12 307 17 311 21 308

Z

M145 307

C146 306 147 304 147 303

C147 300 144 297 141 297

C136 297 133 303 137 307

C139 310 143 309 145 307

Z

M207 307

C211 304 208 297 203 297

C200 297 197 300 197 303

C197 306 200 309 203 309

C204 309 206 308 207 307

Z

M331 308

C336 305 333 297 328 297

C325 297 322 300 322 303

C322 308 327 311 331 308

Z

M394 307

C395 306 396 304 396 303

C396 300 393 297 390 297

C385 297 382 303 386 307

C388 310 392 309 394 307

Z

M518 307

C522 304 519 297 514 297

C511 297 508 300 508 303

C508 306 511 309 514 309

C515 309 517 308 518 307

Z

M64 304

C65 303 63 300 62 300

C60 300 58 303 59 304

C59 305 60 306 62 306

C63 306 64 305 64 304

Z

M98 304

C99 303 97 300 96 300

C94 300 92 303 93 304

C93 305 94 306 96 306

C97 306 98 305 98 304

Z

M251 303

C251 301 250 300 248 300

C246 300 244 302 245 305

C246 306 247 306 248 306

C250 306 251 305 251 303

Z

M285 305

C286 303 284 300 282 300

C280 300 278 302 279 305

C280 306 284 307 285 305

Z

M437 303

C437 301 436 300 434 300

C433 300 432 300 431 301

C430 304 432 306 434 306

C436 306 437 305 437 303

Z

M471 303

C471 301 470 300 468 300

C467 300 466 300 465 301

C464 304 466 306 468 306

C470 306 471 305 471 303

Z

M160 298

C163 297 163 291 160 289

C158 286 154 287 152 290

C148 295 153 301 160 298

Z

M193 296

C194 293 194 293 192 290

C190 287 188 286 184 288

C182 290 181 295 184 297

C186 300 191 299 193 296

Z

M347 297

C350 295 350 290 346 288

C341 285 335 291 338 296

C340 299 344 300 347 297

Z

M378 297

C382 294 379 287 374 287

C372 287 368 291 368 293

C368 298 375 301 378 297

Z

M534 297

C537 295 536 291 534 289

C529 284 520 291 526 297

C528 299 532 300 534 297

Z

M57 296

C59 296 59 293 58 291

C56 289 53 291 53 294

C53 297 54 298 57 296

Z

M70 294

C70 292 69 291 67 291

C65 291 63 293 65 296

C67 298 70 297 70 294

Z

M92 296

C94 295 93 292 90 291

C88 291 86 293 87 296

C88 297 90 297 92 296

Z

M104 294

C104 291 102 289 100 291

C99 292 98 293 98 294

C98 297 103 298 104 294

Z

M245 294

C245 291 243 289 240 291

C239 293 239 294 240 296

C242 298 244 297 245 294

Z

M256 296

C258 294 256 291 253 291

C251 291 249 293 251 296

C253 297 254 297 256 296

Z

M279 294

C279 292 278 291 276 291

C275 291 274 291 273 292

C272 295 274 297 276 297

C278 297 279 296 279 294

Z

M290 294

C290 291 288 290 286 291

C284 292 283 294 285 296

C287 298 289 297 290 294

Z

M431 295

C432 292 430 290 427 291

C425 292 424 294 426 296

C428 298 430 297 431 295

Z

M442 296

C444 293 442 291 440 291

C437 291 436 293 437 295

C438 297 440 298 442 296

Z

M465 294

C465 291 465 291 463 291

C460 291 458 293 460 296

C462 298 464 297 465 294

Z

M476 295

C477 293 477 293 476 292

C472 289 469 293 471 296

C473 297 475 297 476 295

Z

M176 287

C180 284 177 278 172 278

C167 278 164 283 168 287

C170 289 174 290 176 287

Z

M364 286

C366 283 364 280 361 278

C355 275 351 282 354 287

C356 290 361 290 364 286

Z

M550 288

C552 286 551 280 549 279

C546 277 545 277 542 279

C540 281 539 285 541 287

C542 289 548 289 550 288

Z

M76 285

C76 283 73 281 72 281

C70 282 69 287 71 287

C73 288 76 286 76 285

Z

M87 284

C86 281 83 281 82 283

C81 285 81 285 82 286

C85 288 87 287 87 284

Z

M262 284

C262 282 261 281 258 282

C256 282 255 286 258 287

C260 288 262 287 262 284

Z

M273 286

C274 283 272 281 270 281

C267 282 266 285 268 287

C270 288 273 288 273 286

Z

M448 284

C447 281 444 281 443 283

C442 285 442 285 443 286

C446 288 448 287 448 284

Z

M460 285

C460 284 459 283 459 282

C457 280 455 281 454 283

C453 286 455 288 458 287

C459 286 460 285 460 285

Z

M53 284

C53 281 50 280 48 282

C46 284 47 287 50 287

C53 287 53 287 53 284

Z

M109 286

C110 284 110 284 109 283

C107 279 103 282 104 286

C105 286 106 287 106 287

C107 287 108 286 109 286

Z

M239 285

C240 284 238 281 237 281

C235 281 233 284 234 285

C234 286 235 287 237 287

C238 287 239 286 239 285

Z

M296 284

C296 282 295 281 293 281

C292 281 291 281 290 282

C289 285 291 287 293 287

C295 287 296 286 296 284

Z

M426 285

C426 284 424 281 422 281

C421 281 420 283 420 286

C421 287 425 287 426 285

Z

M482 284

C482 282 481 281 479 281

C478 281 477 281 476 282

C475 285 477 287 479 287

C481 287 482 286 482 284

Z

M160 278

C162 277 163 271 161 269

C159 268 154 268 152 269

C150 272 150 275 152 277

C155 280 157 281 160 278

Z

M192 278

C194 275 195 273 192 270

C191 268 185 267 183 269

C181 271 182 277 184 278

C187 281 189 280 192 278

Z

M347 278

C349 277 350 272 347 270

C345 267 340 268 339 270

C336 273 337 276 340 278

C343 280 344 280 347 278

Z

M378 278

C380 277 381 273 379 270

C377 267 372 267 370 270

C367 273 368 275 370 278

C373 280 375 281 378 278

Z

M532 279

C535 277 536 276 536 274

C536 271 533 268 530 268

C524 268 522 274 526 278

C528 280 529 280 532 279

Z

M47 277

C49 274 47 272 45 272

C42 272 41 274 42 276

C43 278 45 279 47 277

Z

M81 277

C83 275 81 272 79 272

C77 272 76 273 76 274

C75 275 77 278 79 278

C79 278 80 277 81 277

Z

M115 276

C116 274 115 272 112 272

C110 272 108 274 110 277

C112 279 114 278 115 276

Z

M234 275

C234 273 233 272 231 272

C229 272 227 274 228 277

C229 278 230 278 231 278

C233 278 234 277 234 275

Z

M268 275

C268 273 267 272 265 272

C264 272 263 272 262 273

C261 276 263 278 265 278

C267 278 268 277 268 275

Z

M301 277

C303 274 301 272 299 272

C296 272 294 275 296 277

C298 278 299 278 301 277

Z

M420 275

C420 273 419 272 417 272

C416 272 415 272 414 273

C413 276 415 278 417 278

C419 278 420 277 420 275

Z

M454 275

C454 273 453 272 451 272

C450 272 449 272 448 273

C447 276 449 278 451 278

C453 278 454 277 454 275

Z

M487 277

C489 276 488 273 485 272

C483 272 481 274 482 277

C483 278 485 278 487 277

Z

M20 268

C24 265 22 258 17 258

C11 258 9 263 12 267

C14 270 18 271 20 268

Z

M145 268

C150 263 143 254 137 260

C134 262 134 267 137 268

C140 271 143 270 145 268

Z

M207 268

C211 265 209 258 203 258

C200 258 197 261 197 264

C197 267 200 270 203 270

C204 270 206 269 207 268

Z

M332 267

C335 264 335 263 332 260

C328 256 322 258 322 264

C322 270 328 272 332 267

Z

M394 268

C399 263 392 254 386 260

C383 262 383 267 386 268

C389 271 392 270 394 268

Z

M518 268

C520 266 521 262 518 260

C516 257 511 258 510 260

C508 263 508 264 510 267

C512 270 516 271 518 268

Z

M41 268

C43 265 42 263 39 263

C37 263 36 263 36 264

C36 266 38 269 39 269

C39 269 40 268 41 268

Z

M120 268

C122 265 121 263 118 263

C116 263 115 263 115 264

C115 266 117 269 118 269

C118 269 119 268 120 268

Z

M228 265

C227 262 224 262 223 264

C222 266 222 266 223 267

C226 269 228 268 228 265

Z

M307 265

C306 262 303 262 302 264

C301 266 301 266 302 267

C305 269 307 268 307 265

Z

M414 266

C415 264 413 262 411 262

C408 263 407 266 409 268

C411 269 414 269 414 266

Z

M493 266

C494 264 492 262 490 262

C487 263 486 266 488 268

C490 269 493 269 493 266

Z

M36 258

C37 257 38 256 38 254

C38 251 35 248 32 248

C29 248 26 251 26 254

C26 259 32 262 36 258

Z

M129 258

C133 255 130 248 126 248

C122 248 120 250 120 254

C120 259 125 262 129 258

Z

M223 258

C224 257 225 255 225 254

C225 251 222 248 219 248

C214 248 211 254 215 258

C217 261 221 260 223 258

Z

M316 258

C321 254 316 247 310 249

C306 250 305 254 307 257

C309 260 313 261 316 258

Z

M409 258

C413 255 410 248 406 248

C403 248 402 249 400 252

C397 257 405 263 409 258

Z

M503 258

C504 257 505 255 505 254

C505 251 502 248 499 248

C494 248 491 254 495 258

C497 261 501 260 503 258

Z

M53 247

C54 244 54 244 53 242

C49 236 42 238 42 244

C42 249 44 250 48 250

C51 250 52 249 53 247

Z

M115 248

C117 244 116 241 112 239

C109 237 105 239 104 244

C104 250 111 253 115 248

Z

M238 248

C242 245 239 238 234 238

C232 238 228 242 228 244

C228 249 235 252 238 248

Z

M301 248

C303 246 302 242 300 240

C297 237 295 238 292 241

C290 243 290 246 292 249

C294 250 299 250 301 248

Z

M425 248

C426 247 427 246 427 244

C427 241 424 238 421 238

C418 238 415 241 415 244

C415 249 421 252 425 248

Z

M487 248

C491 245 488 238 483 238

C481 238 477 242 477 244

C477 249 484 252 487 248

Z

M28 245

C30 242 26 238 24 241

C22 242 22 243 23 245

C25 246 26 246 28 245

Z

M134 244

C135 242 135 242 134 241

C130 238 127 242 129 245

C131 246 133 246 134 244

Z

M214 245

C216 243 215 241 213 240

C212 239 211 239 210 241

C208 242 208 243 209 244

C210 246 212 247 214 245

Z

M320 245

C322 242 320 240 318 240

C316 240 315 241 315 242

C315 246 318 247 320 245

Z

M400 245

C402 244 401 241 398 240

C396 240 394 242 395 245

C396 246 398 246 400 245

Z

M507 243

C507 241 506 240 504 240

C503 240 502 240 501 241

C500 244 502 246 504 246

C506 246 507 245 507 243

Z

M68 238

C72 233 65 226 60 230

C56 233 56 236 60 239

C63 241 66 241 68 238

Z

M99 237

C102 232 96 226 91 229

C89 231 88 234 89 237

C91 241 97 242 99 237

Z

M253 239

C259 235 255 228 248 229

C243 229 243 238 247 240

C250 241 250 241 253 239

Z

M284 239

C288 236 288 232 283 229

C282 228 280 228 279 229

C274 231 274 238 278 240

C281 241 281 241 284 239

Z

M442 237

C444 232 439 227 434 229

C430 231 430 238 434 240

C437 241 440 240 442 237

Z

M473 237

C474 235 474 234 473 232

C471 229 468 228 465 229

C461 231 461 238 465 240

C468 241 471 240 473 237

Z

M23 234

C23 232 20 230 19 230

C17 231 16 236 18 236

C20 237 23 235 23 234

Z

M140 233

C139 230 136 230 135 232

C134 234 134 234 135 235

C138 237 140 236 140 233

Z

M174 235

C175 234 175 233 174 232

C172 229 170 230 169 232

C168 233 168 234 170 235

C171 237 173 237 174 235

Z

M209 233

C209 231 208 231 206 231

C203 231 202 233 204 236

C206 238 209 236 209 233

Z

M326 234

C327 232 324 229 322 231

C320 232 320 234 321 235

C323 237 326 237 326 234

Z

M360 235

C361 233 361 233 360 231

C358 229 355 231 355 234

C355 237 358 238 360 235

Z

M395 233

C394 230 391 230 390 232

C389 234 389 234 390 235

C393 237 395 236 395 233

Z

M513 234

C513 232 511 230 509 230

C509 230 508 231 507 232

C506 235 508 237 511 236

C512 235 513 234 513 234

Z

M545 236

C547 236 547 231 545 231

C542 229 540 233 542 236

C544 237 543 237 545 236

Z

M83 229

C85 226 86 224 83 221

C82 219 77 218 75 221

C72 223 73 228 75 229

C78 232 80 231 83 229

Z

M269 229

C272 227 272 222 269 220

C266 218 262 219 261 221

C258 224 259 226 261 229

C264 231 266 232 269 229

Z

M456 229

C458 227 459 223 456 221

C453 217 446 220 446 225

C446 228 449 231 452 231

C453 231 455 230 456 229

Z

M17 224

C17 222 16 221 14 221

C13 221 12 221 11 222

C10 225 12 227 14 227

C16 227 17 226 17 224

Z

M146 224

C146 222 145 221 143 221

C141 221 139 223 140 226

C141 227 142 227 143 227

C145 227 146 226 146 224

Z

M169 224

C169 222 168 221 166 221

C164 221 162 223 163 226

C164 227 165 227 166 227

C168 227 169 226 169 224

Z

M180 226

C181 224 180 221 177 221

C175 221 173 224 174 226

C175 227 178 227 180 226

Z

M203 224

C203 222 202 221 200 221

C198 221 196 223 197 226

C198 227 199 227 200 227

C202 227 203 226 203 224

Z

M332 224

C332 222 331 221 329 221

C328 221 327 221 326 222

C325 225 327 227 329 227

C331 227 332 226 332 224

Z

M355 224

C355 222 354 221 352 221

C351 221 350 221 349 222

C348 225 350 227 352 227

C354 227 355 226 355 224

Z

M366 225

C367 224 365 221 364 221

C362 221 360 224 361 225

C361 226 362 227 364 227

C365 227 366 226 366 225

Z

M389 226

C391 224 389 221 387 221

C385 221 384 222 384 223

C383 224 385 227 387 227

C387 227 388 226 389 226

Z

M518 226

C520 224 518 221 515 221

C513 221 512 224 513 226

C515 227 516 227 518 226

Z

M541 226

C542 224 541 221 538 221

C536 221 534 224 535 226

C536 227 539 227 541 226

Z

M553 224

C553 222 552 221 550 221

C549 221 548 221 547 222

C546 225 548 227 550 227

C552 227 553 226 553 224

Z

M67 219

C71 216 69 209 63 209

C60 209 57 212 57 215

C57 218 60 221 63 221

C64 221 66 220 67 219

Z

M98 219

C102 216 99 209 94 209

C91 209 88 212 88 215

C88 218 91 221 94 221

C95 221 97 220 98 219

Z

M254 219

C256 217 257 214 254 211

C251 207 244 209 244 215

C244 220 250 223 254 219

Z

M285 219

C290 214 283 205 277 211

C274 213 274 218 277 219

C280 222 283 221 285 219

Z

M440 220

C442 219 443 215 442 213

C440 207 431 208 431 215

C431 219 436 223 440 220

Z

M471 220

C474 218 474 213 472 211

C468 207 462 210 462 215

C462 220 467 223 471 220

Z

M11 215

C11 212 9 210 6 212

C5 214 5 215 6 217

C8 219 10 218 11 215

Z

M151 216

C152 214 152 214 151 212

C149 210 146 212 146 215

C146 218 149 219 151 216

Z

M163 215

C163 212 161 211 159 212

C157 213 156 215 158 217

C160 219 162 218 163 215

Z

M186 215

C186 213 185 213 183 213

C180 213 179 216 181 217

C183 219 186 218 186 215

Z

M197 216

C198 215 198 214 197 213

C195 210 193 211 192 213

C190 217 195 220 197 216

Z

M337 216

C339 213 336 210 334 212

C332 214 332 217 333 217

C335 218 336 218 337 216

Z

M349 216

C350 213 348 211 345 212

C343 213 342 215 344 217

C346 219 348 218 349 216

Z

M372 215

C372 212 370 211 368 212

C366 213 365 215 367 217

C369 219 371 218 372 215

Z

M383 216

C384 214 384 214 383 212

C381 210 378 212 378 215

C378 218 381 219 383 216

Z

M522 217

C524 217 524 212 522 212

C519 210 517 214 519 217

C521 218 520 218 522 217

Z

M535 217

C537 215 536 213 534 212

C531 211 529 213 530 216

C531 218 533 219 535 217

Z

M51 210

C54 208 54 205 52 202

C48 197 42 199 42 205

C42 210 47 213 51 210

Z

M115 208

C118 203 112 197 107 200

C102 204 104 211 110 211

C112 211 113 210 115 208

Z

M238 209

C241 207 241 202 237 200

C232 197 226 203 229 208

C231 211 235 212 238 209

Z

M300 210

C301 209 302 208 302 206

C303 204 300 199 297 199

C293 199 290 204 291 206

C291 209 294 211 297 211

C298 211 299 210 300 210

Z

M425 209

C426 208 427 207 427 205

C427 202 424 199 421 199

C418 199 415 202 415 205

C415 210 421 213 425 209

Z

M487 209

C490 207 490 202 486 200

C481 197 475 203 478 208

C480 211 484 212 487 209

Z

M157 206

C158 205 156 202 155 202

C153 202 151 205 152 206

C152 207 153 208 155 208

C156 208 157 207 157 206

Z

M192 205

C192 203 191 202 189 202

C187 202 185 204 186 207

C187 208 188 208 189 208

C191 208 192 207 192 205

Z

M344 206

C344 205 343 203 342 203

C339 201 336 205 338 207

C340 209 344 208 344 206

Z

M378 205

C378 203 377 202 375 202

C374 202 373 202 372 203

C371 206 373 208 375 208

C377 208 378 207 378 205

Z

M530 205

C530 203 529 202 527 202

C526 202 525 202 524 203

C523 206 525 208 527 208

C529 208 530 207 530 205

Z

M67 199

C71 196 67 188 62 189

C57 191 55 196 59 199

C61 201 65 202 67 199

Z

M98 199

C101 197 100 192 97 190

C94 189 94 189 91 191

C88 193 87 195 89 199

C91 201 96 202 98 199

Z

M255 199

C257 195 256 192 252 190

C248 188 244 191 244 195

C244 201 251 203 255 199

Z

M285 199

C286 198 287 197 287 195

C287 192 284 189 281 189

C278 189 275 192 275 195

C275 200 281 203 285 199

Z

M442 198

C443 195 443 195 442 193

C438 187 431 189 431 195

C431 200 433 201 437 201

C440 201 441 200 442 198

Z

M473 198

C476 193 470 187 465 190

C461 192 461 198 464 200

C467 202 471 201 473 198

Z

M11 196

C11 194 10 193 9 193

C6 193 5 194 5 197

C6 200 11 199 11 196

Z

M151 197

C152 194 151 193 149 193

C147 193 145 195 146 198

C147 200 151 199 151 197

Z

M163 196

C163 194 162 194 160 194

C157 194 156 197 158 198

C160 200 163 199 163 196

Z

M186 196

C186 194 185 193 183 193

C181 193 179 195 180 198

C181 199 182 199 183 199

C185 199 186 198 186 196

Z

M197 198

C199 196 197 193 195 193

C193 193 192 194 192 195

C191 196 193 199 195 199

C195 199 196 198 197 198

Z

M338 196

C338 194 337 193 335 193

C334 193 333 193 332 194

C331 197 333 199 335 199

C337 199 338 198 338 196

Z

M349 198

C351 196 349 193 346 193

C344 193 342 195 344 198

C346 199 347 199 349 198

Z

M372 196

C372 193 372 193 370 193

C367 193 365 195 367 198

C369 200 371 199 372 196

Z

M384 196

C384 194 383 193 381 193

C380 193 379 193 378 194

C377 197 379 199 381 199

C383 199 384 198 384 196

Z

M524 196

C524 194 523 193 521 193

C520 193 519 193 518 194

C517 197 519 199 521 199

C523 199 524 198 524 196

Z

M535 198

C537 195 535 193 533 193

C530 193 528 196 530 198

C532 199 533 199 535 198

Z

M83 190

C85 187 86 185 83 182

C82 180 76 179 74 181

C72 183 73 189 75 190

C78 193 80 192 83 190

Z

M269 190

C271 189 272 183 270 181

C268 179 262 180 261 182

C258 185 259 187 261 190

C264 192 266 193 269 190

Z

M457 189

C460 185 457 180 452 180

C446 180 444 186 449 190

C452 192 455 192 457 189

Z

M15 189

C17 189 17 184 15 184

C12 182 10 186 12 189

C14 190 13 190 15 189

Z

M145 188

C147 185 144 182 142 184

C140 186 140 187 141 189

C143 190 144 190 145 188

Z

M168 188

C170 186 167 182 165 183

C163 184 163 187 164 189

C166 190 167 190 168 188

Z

M180 188

C181 185 179 183 177 183

C174 184 173 187 175 189

C177 190 180 190 180 188

Z

M201 189

C203 189 203 184 201 184

C198 182 196 186 198 189

C200 190 199 190 201 189

Z

M330 189

C332 189 332 184 330 184

C327 182 325 186 327 189

C329 190 328 190 330 189

Z

M354 189

C356 188 355 184 353 184

C350 184 348 186 350 188

C351 190 352 190 354 189

Z

M367 187

C367 184 364 182 362 184

C360 185 360 187 362 188

C363 190 364 190 365 189

C366 188 367 187 367 187

Z

M389 189

C390 187 389 183 386 183

C384 184 382 187 384 188

C386 190 387 190 389 189

Z

M518 188

C519 186 517 182 515 183

C512 184 512 187 513 189

C515 191 517 190 518 188

Z

M541 188

C542 185 540 183 538 183

C535 184 534 187 536 189

C538 190 541 190 541 188

Z

M552 188

C553 186 553 186 552 184

C550 182 547 183 547 186

C547 190 550 191 552 188

Z

M67 180

C71 177 69 170 63 170

C60 170 57 173 57 176

C57 179 60 182 63 182

C64 182 66 181 67 180

Z

M98 180

C100 179 101 174 98 172

C96 169 91 170 90 172

C87 175 88 178 90 180

C92 182 95 183 98 180

Z

M254 180

C259 175 252 166 246 172

C243 174 243 179 246 180

C249 183 252 182 254 180

Z

M285 180

C287 178 288 174 285 172

C282 168 275 171 275 176

C275 179 278 182 281 182

C282 182 284 181 285 180

Z

M441 179

C443 177 443 176 442 173

C440 170 436 169 433 171

C430 173 430 178 433 180

C436 183 439 182 441 179

Z

M472 179

C474 176 474 176 473 173

C471 170 466 169 464 172

C461 174 462 179 464 180

C467 183 470 182 472 179

Z

M23 179

C24 177 22 174 20 174

C18 174 16 176 17 179

C18 180 22 181 23 179

Z

M140 177

C140 174 135 173 135 176

C134 179 135 180 137 180

C139 180 140 179 140 177

Z

M174 179

C175 176 174 174 172 174

C171 174 170 175 169 176

C167 177 169 180 172 180

C173 180 174 179 174 179

Z

M209 177

C209 175 208 174 206 174

C204 174 202 176 203 179

C204 180 205 180 206 180

C208 180 209 179 209 177

Z

M326 178

C327 177 325 174 324 174

C322 174 320 177 321 178

C321 179 322 180 324 180

C325 180 326 179 326 178

Z

M361 177

C361 175 360 174 358 174

C357 174 356 174 355 175

C354 178 356 180 358 180

C360 180 361 179 361 177

Z

M395 177

C395 175 394 174 392 174

C390 174 388 176 389 179

C390 180 391 180 392 180

C394 180 395 179 395 177

Z

M513 179

C514 177 512 174 510 174

C508 174 506 176 507 179

C508 180 512 181 513 179

Z

M547 177

C547 175 546 174 544 174

C543 174 542 174 541 175

C540 178 542 180 544 180

C546 180 547 179 547 177

Z

M51 171

C56 168 53 160 47 160

C43 160 40 166 44 170

C45 172 49 173 51 171

Z

M114 170

C115 169 116 167 116 166

C116 163 113 160 110 160

C105 160 102 166 106 170

C108 173 112 172 114 170

Z

M238 170

C242 167 239 160 234 160

C231 160 228 163 228 166

C228 169 231 172 234 172

C235 172 237 171 238 170

Z

M300 171

C302 170 303 166 302 164

C300 159 293 159 291 164

C289 168 292 172 297 172

C298 172 299 172 300 171

Z

M425 170

C429 167 426 160 421 160

C418 160 415 163 415 166

C415 171 421 174 425 170

Z

M487 170

C491 167 488 160 483 160

C480 160 477 163 477 166

C477 169 480 172 483 172

C484 172 486 171 487 170

Z

M28 170

C30 168 28 165 26 165

C24 165 23 166 23 167

C22 168 24 171 26 171

C26 171 27 170 28 170

Z

M134 170

C136 168 134 165 132 165

C130 165 129 166 129 167

C128 168 130 171 132 171

C132 171 133 170 134 170

Z

M214 170

C216 167 214 165 212 165

C209 165 208 167 209 169

C210 171 212 172 214 170

Z

M320 170

C322 167 320 165 318 165

C316 165 315 166 315 167

C315 171 318 172 320 170

Z

M401 168

C401 166 400 165 398 165

C397 165 396 165 395 166

C394 169 396 171 398 171

C400 171 401 170 401 168

Z

M507 168

C507 166 506 165 504 165

C503 165 502 165 501 166

C500 169 502 171 504 171

C506 171 507 170 507 168

Z

M36 160

C37 159 38 158 38 156

C38 153 35 150 32 150

C29 150 26 153 26 156

C26 161 32 164 36 160

Z

M129 160

C132 158 131 153 128 151

C125 149 122 150 120 154

C119 156 119 157 120 159

C122 162 127 163 129 160

Z

M224 159

C227 153 221 148 215 151

C213 153 212 158 215 160

C217 163 222 162 224 159

Z

M316 160

C317 159 318 158 318 156

C318 153 315 150 312 150

C309 150 306 153 306 156

C306 161 312 164 316 160

Z

M409 161

C412 159 412 154 409 152

C406 149 403 150 401 153

C397 158 402 164 409 161

Z

M504 159

C506 156 505 152 501 151

C497 149 493 152 493 156

C493 162 500 164 504 159

Z

M21 151

C23 149 22 143 19 141

C14 138 8 144 11 149

C13 152 19 153 21 151

Z

M145 150

C148 148 147 144 144 142

C140 139 135 141 135 147

C135 151 141 154 145 150

Z

M207 150

C210 147 209 142 204 141

C202 140 197 143 197 146

C197 151 204 154 207 150

Z

M333 149

C336 144 330 138 325 141

C322 143 321 149 323 151

C325 153 331 152 333 149

Z

M394 150

C397 148 396 144 393 142

C389 139 384 141 384 147

C384 151 390 154 394 150

Z

M519 151

C521 149 520 143 517 141

C512 138 506 144 509 149

C511 152 517 153 519 151

Z

M42 145

C42 143 41 142 39 142

C38 142 37 142 36 143

C35 146 37 148 39 148

C41 148 42 147 42 145

Z

M121 145

C121 143 120 142 118 142

C116 142 114 144 115 147

C116 148 117 148 118 148

C120 148 121 147 121 145

Z

M228 145

C228 143 227 142 225 142

C223 142 221 144 222 147

C223 148 224 148 225 148

C227 148 228 147 228 145

Z

M307 145

C307 143 306 142 304 142

C303 142 302 142 301 143

C300 146 302 148 304 148

C306 148 307 147 307 145

Z

M414 146

C415 145 413 142 412 142

C410 142 408 145 409 146

C409 147 410 148 412 148

C413 148 414 147 414 146

Z

M493 146

C494 145 492 142 491 142

C489 142 487 145 488 146

C488 147 489 148 491 148

C492 148 493 147 493 146

Z

M160 141

C162 140 163 134 161 132

C159 131 154 131 152 132

C150 135 150 138 152 140

C155 143 157 144 160 141

Z

M192 141

C194 138 195 136 192 133

C191 131 185 130 183 132

C181 134 182 140 184 141

C187 144 189 143 192 141

Z

M347 141

C349 140 350 135 347 133

C345 130 340 131 339 133

C336 136 337 139 340 141

C343 143 344 143 347 141

Z

M378 141

C380 140 381 136 379 133

C377 130 372 130 370 133

C367 136 368 138 370 141

C373 143 375 144 378 141

Z

M532 142

C535 140 536 139 536 137

C536 134 533 131 530 131

C524 131 522 137 526 141

C528 143 529 143 532 142

Z

M47 138

C49 135 47 133 45 133

C42 133 41 135 42 137

C43 139 45 140 47 138

Z

M81 138

C83 136 81 133 79 133

C77 133 76 134 76 135

C75 136 77 139 79 139

C79 139 80 138 81 138

Z

M115 137

C116 135 115 133 112 133

C110 133 108 135 110 138

C112 140 114 139 115 137

Z

M233 138

C235 136 234 133 231 133

C229 133 227 135 228 138

C229 139 231 139 233 138

Z

M268 136

C268 134 267 133 265 133

C263 133 261 135 262 138

C263 139 264 139 265 139

C267 139 268 138 268 136

Z

M301 138

C303 135 301 133 299 133

C296 133 294 136 296 138

C298 139 299 139 301 138

Z

M420 136

C420 134 419 134 417 134

C414 134 413 137 415 138

C417 140 420 139 420 136

Z

M454 136

C454 134 453 133 451 133

C449 133 447 135 448 138

C449 139 450 139 451 139

C453 139 454 138 454 136

Z

M487 138

C489 135 487 133 485 133

C483 133 482 134 482 135

C482 139 485 140 487 138

Z

M176 131

C178 129 179 125 176 123

C173 119 166 122 166 127

C166 130 169 133 172 133

C173 133 175 132 176 131

Z

M363 131

C368 126 361 117 355 123

C352 125 352 130 355 131

C358 134 361 133 363 131

Z

M549 131

C552 129 552 123 549 122

C543 119 537 125 541 130

C543 133 547 134 549 131

Z

M75 128

C76 126 76 126 75 124

C73 122 70 124 70 127

C70 130 73 131 75 128

Z

M86 129

C88 128 87 124 85 124

C82 124 80 126 82 128

C83 130 84 130 86 129

Z

M261 129

C264 126 261 122 258 124

C255 125 256 130 259 130

C259 130 260 129 261 129

Z

M273 128

C274 125 272 123 270 123

C267 124 266 127 268 129

C270 130 273 130 273 128

Z

M447 129

C449 128 448 124 446 124

C443 124 441 126 443 128

C444 130 445 130 447 129

Z

M459 128

C460 127 460 126 459 125

C457 122 455 123 454 125

C453 126 453 127 455 128

C456 130 458 130 459 128

Z

M53 128

C54 126 52 123 51 123

C49 123 47 126 47 127

C48 129 53 130 53 128

Z

M110 127

C110 125 108 123 106 124

C104 124 103 127 105 128

C106 130 109 129 110 127

Z

M239 127

C240 126 238 123 237 123

C235 123 233 126 234 127

C234 128 235 129 237 129

C238 129 239 128 239 127

Z

M296 126

C296 124 295 123 293 123

C292 123 291 123 290 124

C289 127 291 129 293 129

C295 129 296 128 296 126

Z

M426 127

C426 125 424 123 422 123

C421 124 420 125 420 126

C420 129 420 129 423 129

C424 129 425 128 426 127

Z

M482 126

C482 123 479 122 477 124

C475 126 476 129 479 129

C481 129 482 128 482 126

Z

M160 121

C164 118 161 111 157 111

C154 111 153 112 151 115

C148 120 156 126 160 121

Z

M190 122

C194 121 194 114 191 112

C187 109 182 113 182 117

C182 122 186 124 190 122

Z

M347 121

C351 118 348 111 343 111

C340 111 337 114 337 117

C337 120 340 123 343 123

C344 123 346 122 347 121

Z

M378 121

C382 118 379 111 374 111

C371 111 368 114 368 117

C368 120 371 123 374 123

C375 123 377 122 378 121

Z

M535 120

C538 115 532 109 527 112

C522 116 524 123 530 123

C532 123 533 122 535 120

Z

M59 117

C59 115 58 114 56 114

C54 114 52 116 53 119

C54 120 55 120 56 120

C58 120 59 119 59 117

Z

M70 117

C70 115 69 114 67 114

C65 114 63 116 64 119

C65 120 66 120 67 120

C69 120 70 119 70 117

Z

M93 117

C93 115 92 114 90 114

C88 114 86 116 87 119

C88 120 89 120 90 120

C92 120 93 119 93 117

Z

M104 117

C104 115 103 114 101 114

C99 114 97 116 98 119

C99 120 100 120 101 120

C103 120 104 119 104 117

Z

M245 117

C245 115 244 114 242 114

C241 114 240 114 239 115

C238 118 240 120 242 120

C244 120 245 119 245 117

Z

M256 119

C257 117 257 117 256 116

C253 112 249 115 251 119

C251 119 252 120 253 120

C254 120 255 119 256 119

Z

M279 117

C279 115 278 114 276 114

C275 114 274 114 273 115

C272 118 274 120 276 120

C278 120 279 119 279 117

Z

M290 117

C290 114 290 114 288 114

C285 114 283 116 285 119

C287 121 289 120 290 117

Z

M431 118

C432 116 431 114 428 114

C426 114 424 116 426 119

C428 121 430 120 431 118

Z

M442 119

C443 116 442 114 440 114

C437 114 435 117 437 119

C438 119 439 120 440 120

C441 120 442 119 442 119

Z

M465 117

C465 115 464 114 462 114

C460 114 458 116 459 119

C460 120 461 120 462 120

C464 120 465 119 465 117

Z

M476 119

C478 117 476 114 474 114

C472 114 471 115 471 116

C470 117 472 120 474 120

C474 120 475 119 476 119

Z

M23 110

C26 105 20 99 15 102

C12 104 11 109 14 111

C16 114 21 113 23 110

Z

M145 111

C146 110 147 109 147 107

C147 104 144 101 141 101

C138 101 135 104 135 107

C135 112 141 115 145 111

Z

M207 111

C210 109 209 104 206 102

C201 99 195 105 198 110

C200 113 205 114 207 111

Z

M333 110

C335 107 333 104 330 102

C324 99 319 107 324 111

C326 114 331 113 333 110

Z

M394 111

C395 110 396 109 396 107

C396 104 393 101 390 101

C387 101 384 104 384 107

C384 112 390 115 394 111

Z

M518 111

C523 107 518 99 512 102

C511 102 509 104 509 105

C506 111 514 116 518 111

Z

M64 109

C65 108 65 107 64 106

C63 104 61 104 60 106

C58 107 58 108 59 109

C60 111 62 112 64 109

Z

M98 109

C99 107 99 107 98 105

C95 104 94 104 93 106

C92 107 92 108 93 109

C95 111 97 111 98 109

Z

M250 109

C251 107 251 107 250 105

C248 103 245 105 245 108

C245 111 248 112 250 109

Z

M284 109

C286 107 283 104 281 105

C279 105 278 109 280 110

C281 111 283 111 284 109

Z

M435 110

C437 110 437 107 436 105

C434 104 434 104 433 105

C431 107 431 110 432 110

C433 111 434 111 434 111

C434 111 435 111 435 110

Z

M470 109

C471 107 471 107 470 105

C468 103 465 105 465 108

C465 111 468 112 470 109

Z

M161 101

C162 101 162 99 162 97

C161 91 154 90 151 95

C148 101 157 107 161 101

Z

M192 102

C194 99 195 97 192 94

C190 91 186 91 183 93

C181 95 182 101 185 103

C188 104 189 104 192 102

Z

M348 101

C352 95 344 89 339 94

C336 96 337 99 340 102

C343 104 346 104 348 101

Z

M379 102

C380 100 380 95 378 93

C376 91 372 92 370 94

C367 97 368 99 371 102

C373 104 376 104 379 102

Z

M533 102

C536 100 537 96 534 94

C531 90 524 92 524 97

C524 100 525 101 528 103

C530 104 530 104 533 102

Z

M59 98

C59 96 58 95 56 95

C54 95 52 97 53 100

C54 101 55 101 56 101

C58 101 59 100 59 98

Z

M70 98

C70 96 69 95 67 95

C65 95 63 97 64 100

C65 101 66 101 67 101

C69 101 70 100 70 98

Z

M93 98

C93 96 92 95 90 95

C88 95 86 97 87 100

C88 101 89 101 90 101

C92 101 93 100 93 98

Z

M104 98

C104 96 103 95 101 95

C99 95 97 97 98 100

C99 101 100 101 101 101

C103 101 104 100 104 98

Z

M245 98

C245 96 244 95 242 95

C241 95 240 95 239 96

C238 99 240 101 242 101

C244 101 245 100 245 98

Z

M256 100

C258 98 256 95 253 95

C251 95 250 98 251 100

C253 101 254 101 256 100

Z

M279 98

C279 96 278 95 276 95

C274 95 272 97 273 100

C274 101 275 101 276 101

C278 101 279 100 279 98

Z

M290 98

C290 95 285 94 285 97

C284 100 285 101 287 101

C289 101 290 100 290 98

Z

M431 100

C432 98 432 98 431 97

C428 93 424 96 426 100

C426 100 427 101 428 101

C429 101 430 100 431 100

Z

M442 99

C443 96 442 95 440 95

C437 95 435 98 437 100

C439 102 442 101 442 99

Z

M465 98

C465 96 464 95 463 95

C460 95 459 96 459 99

C460 102 465 101 465 98

Z

M476 99

C477 98 475 95 474 95

C472 95 470 98 471 99

C471 100 472 101 474 101

C475 101 476 100 476 99

Z

M176 92

C178 90 179 86 176 84

C173 80 166 83 166 88

C166 91 169 94 172 94

C173 94 175 93 176 92

Z

M363 92

C365 89 366 87 363 84

C362 82 357 81 355 84

C352 86 353 91 355 92

C358 95 360 94 363 92

Z

M549 92

C551 91 552 85 550 83

C548 82 543 82 541 83

C539 86 539 89 541 91

C544 94 546 95 549 92

Z

M53 90

C54 87 52 85 49 86

C47 87 46 89 48 91

C50 93 52 92 53 90

Z

M75 90

C76 88 76 88 75 86

C73 84 70 86 70 89

C70 92 73 93 75 90

Z

M85 91

C87 91 87 86 85 86

C82 84 80 88 82 91

C84 92 83 92 85 91

Z

M110 89

C110 87 107 85 105 86

C104 86 104 89 105 91

C107 92 110 91 110 89

Z

M239 91

C241 88 237 84 235 87

C233 88 233 89 234 91

C236 92 237 92 239 91

Z

M260 91

C262 91 262 86 260 86

C257 84 255 88 257 91

C259 92 258 92 260 91

Z

M272 90

C274 89 273 85 270 85

C268 86 266 89 268 90

C270 92 270 92 272 90

Z

M294 91

C297 91 296 87 294 86

C292 85 290 86 290 89

C290 92 291 93 294 91

Z

M425 90

C426 88 426 88 425 87

C422 85 420 86 420 88

C420 92 423 93 425 90

Z

M446 91

C448 91 448 86 446 86

C443 84 441 88 443 91

C445 92 444 92 446 91

Z

M459 90

C460 89 460 88 459 87

C457 84 455 85 454 87

C453 88 453 89 455 90

C456 92 458 92 459 90

Z

M482 89

C482 86 480 85 478 86

C476 87 475 89 477 91

C479 93 481 92 482 89

Z

M160 82

C162 80 163 76 160 74

C156 69 148 75 151 80

C153 84 157 85 160 82

Z

M191 83

C193 82 194 78 193 76

C191 70 182 71 182 78

C182 82 187 86 191 83

Z

M347 82

C351 79 348 72 343 72

C340 72 337 75 337 78

C337 81 340 84 343 84

C344 84 346 83 347 82

Z

M378 82

C382 79 379 72 374 72

C371 72 368 75 368 78

C368 81 371 84 374 84

C375 84 377 83 378 82

Z

M534 82

C539 77 532 68 526 74

C523 76 523 81 526 82

C529 85 532 84 534 82

Z

M48 80

C48 79 47 77 46 77

C44 76 44 76 43 77

C41 80 42 82 45 82

C47 82 48 81 48 80

Z

M81 81

C82 78 81 76 79 76

C78 76 77 77 76 78

C74 79 76 82 79 82

C80 82 81 81 81 81

Z

M115 80

C116 79 114 76 113 76

C111 76 109 79 109 80

C110 83 115 82 115 80

Z

M234 79

C234 77 233 76 231 76

C229 76 227 78 228 81

C229 82 230 82 231 82

C233 82 234 81 234 79

Z

M268 79

C268 77 267 76 265 76

C263 76 261 78 262 81

C263 82 264 82 265 82

C267 82 268 81 268 79

Z

M302 80

C302 77 298 75 296 77

C294 79 296 82 299 82

C301 82 302 81 302 80

Z

M420 79

C420 77 419 76 417 76

C415 76 413 78 414 81

C415 82 416 82 417 82

C419 82 420 81 420 79

Z

M454 79

C454 77 453 76 451 76

C450 76 449 76 448 77

C447 80 449 82 451 82

C453 82 454 81 454 79

Z

M488 79

C488 77 487 76 485 76

C483 76 481 78 482 81

C483 82 484 82 485 82

C487 82 488 81 488 79

Z

M20 72

C24 69 21 62 16 62

C13 62 10 67 11 69

C12 74 17 75 20 72

Z

M146 71

C149 66 143 60 138 63

C133 67 135 74 141 74

C143 74 144 73 146 71

Z

M207 72

C210 70 210 65 206 63

C201 60 195 66 198 71

C200 74 204 75 207 72

Z

M332 72

C335 69 335 68 332 65

C328 60 322 62 322 68

C322 74 328 76 332 72

Z

M395 71

C398 66 392 60 387 63

C382 67 384 74 390 74

C392 74 393 73 395 71

Z

M518 72

C522 69 519 62 515 62

C512 62 511 63 509 66

C508 69 508 70 510 72

C512 74 516 75 518 72

Z

M42 70

C42 68 41 67 39 67

C37 67 35 69 36 72

C37 73 38 73 39 73

C41 73 42 72 42 70

Z

M121 70

C121 68 120 67 118 67

C116 67 114 69 115 72

C116 73 117 73 118 73

C120 73 121 72 121 70

Z

M228 70

C228 68 227 67 225 67

C223 67 221 69 223 72

C225 74 228 73 228 70

Z

M307 70

C307 67 307 67 305 67

C302 67 300 69 302 72

C304 74 306 73 307 70

Z

M414 72

C416 70 414 67 412 67

C410 67 409 68 409 69

C408 70 410 73 412 73

C412 73 413 72 414 72

Z

M493 72

C495 70 493 67 491 67

C489 67 488 68 488 69

C487 70 489 73 491 73

C491 73 492 72 493 72

Z

M36 62

C40 59 37 53 32 53

C27 53 24 58 28 62

C30 64 34 65 36 62

Z

M130 63

C132 61 131 55 128 53

C123 50 117 56 120 61

C122 64 128 65 130 63

Z

M224 61

C226 58 224 55 221 53

C215 50 210 58 215 62

C217 65 222 64 224 61

Z

M316 62

C320 59 316 51 311 52

C306 54 304 59 308 62

C310 64 314 65 316 62

Z

M410 63

C412 61 411 55 408 53

C403 50 397 56 400 61

C402 64 408 65 410 63

Z

M504 62

C506 58 505 56 502 54

C499 52 499 52 496 53

C493 55 492 60 495 62

C497 65 502 64 504 62

Z

M52 53

C54 50 55 48 52 45

C51 43 45 42 43 44

C41 46 42 52 44 53

C47 56 49 55 52 53

Z

M113 53

C116 51 117 48 114 45

C112 42 107 42 105 45

C103 48 104 52 107 54

C110 55 110 55 113 53

Z

M239 53

C240 52 240 48 239 45

C237 42 232 42 230 45

C227 48 228 50 231 53

C233 55 236 55 239 53

Z

M300 53

C302 51 303 47 301 45

C300 44 298 43 297 43

C293 43 291 45 291 49

C291 51 294 55 297 55

C297 55 299 54 300 53

Z

M426 52

C430 47 422 40 417 45

C412 49 417 56 423 54

C424 54 425 53 426 52

Z

M488 53

C489 52 489 48 488 45

C486 42 481 42 479 45

C476 48 477 51 480 53

C482 55 485 55 488 53

Z

M28 48

C30 45 25 43 23 45

C21 47 23 50 26 50

C27 50 28 49 28 48

Z

M134 48

C135 47 133 44 132 44

C130 44 128 47 129 48

C129 49 130 50 132 50

C133 50 134 49 134 48

Z

M215 49

C216 47 214 44 212 44

C210 44 208 46 209 49

C210 50 214 51 215 49

Z

M321 47

C321 45 320 44 318 44

C317 44 316 44 315 45

C314 48 316 50 318 50

C320 50 321 49 321 47

Z

M401 47

C401 45 400 44 398 44

C396 44 394 46 395 49

C396 50 397 50 398 50

C400 50 401 49 401 47

Z

M507 47

C507 45 506 44 504 44

C503 44 502 44 501 45

C500 48 502 50 504 50

C506 50 507 49 507 47

Z

M67 43

C69 42 70 37 67 35

C65 32 60 32 59 35

C56 38 57 41 59 43

C61 45 64 46 67 43

Z

M98 43

C100 42 101 37 98 35

C96 32 91 33 90 35

C87 38 88 41 90 43

C92 45 95 46 98 43

Z

M254 43

C259 38 252 29 246 35

C243 37 243 42 246 43

C249 46 252 45 254 43

Z

M285 43

C287 41 288 37 285 35

C282 31 275 34 275 39

C275 42 278 45 281 45

C282 45 284 44 285 43

Z

M441 42

C445 37 439 31 433 34

C430 35 430 41 433 43

C436 46 439 45 441 42

Z

M472 42

C474 39 474 39 473 36

C471 33 466 32 464 35

C461 37 462 42 464 43

C467 46 470 45 472 42

Z

M22 40

C24 37 22 35 20 35

C18 35 17 36 17 37

C17 41 20 42 22 40

Z

M140 38

C140 35 140 35 138 35

C135 35 133 37 135 40

C137 42 139 41 140 38

Z

M174 40

C176 37 174 35 172 35

C169 35 168 37 169 39

C170 41 172 42 174 40

Z

M209 38

C209 36 208 35 206 35

C204 35 202 37 203 40

C204 41 205 41 206 41

C208 41 209 40 209 38

Z

M326 40

C328 38 326 35 324 35

C322 35 321 36 321 37

C320 38 322 41 324 41

C324 41 325 40 326 40

Z

M361 38

C361 36 360 35 358 35

C356 35 354 37 355 40

C356 41 357 41 358 41

C360 41 361 40 361 38

Z

M395 38

C395 36 394 35 392 35

C390 35 388 37 390 40

C392 42 395 41 395 38

Z

M512 40

C514 37 512 35 510 35

C507 35 506 37 507 39

C508 41 510 42 512 40

Z

M547 38

C547 36 546 35 544 35

C542 35 540 37 541 40

C542 41 543 41 544 41

C546 41 547 40 547 38

Z

M83 33

C84 32 85 30 85 29

C85 26 82 23 79 23

C74 23 71 29 75 33

C77 36 81 35 83 33

Z

M269 33

C273 30 270 23 266 23

C262 23 260 25 260 29

C260 34 265 37 269 33

Z

M456 33

C460 30 457 23 452 23

C449 23 446 26 446 29

C446 32 449 35 452 35

C453 35 455 34 456 33

Z

M16 31

C17 29 17 26 16 26

C12 24 9 28 12 31

C14 32 14 32 16 31

Z

M145 31

C146 29 146 26 145 26

C141 24 138 28 141 31

C143 32 143 32 145 31

Z

M168 30

C169 28 169 28 168 26

C166 24 163 26 163 29

C163 32 166 33 168 30

Z

M180 30

C181 29 181 28 179 27

C178 25 176 25 175 27

C174 28 174 29 175 30

C177 33 179 32 180 30

Z

M203 28

C202 25 199 25 198 27

C197 29 197 29 198 30

C201 32 203 31 203 28

Z

M332 28

C331 25 328 25 327 27

C326 29 326 29 327 30

C330 32 332 31 332 28

Z

M353 31

C355 31 355 26 353 26

C350 24 348 28 350 31

C352 32 351 32 353 31

Z

M366 31

C367 29 367 26 364 25

C362 24 360 28 361 30

C362 32 364 33 366 31

Z

M389 29

C390 27 388 25 386 25

C383 26 382 29 384 31

C386 32 389 32 389 29

Z

M518 29

C519 27 517 25 515 25

C512 26 511 29 513 31

C515 32 518 32 518 29

Z

M541 30

C542 29 542 28 540 27

C539 25 537 25 536 27

C535 28 535 29 536 30

C538 33 540 32 541 30

Z

M552 30

C553 28 553 28 552 26

C550 24 547 26 547 29

C547 32 550 33 552 30

Z

M67 23

C68 22 69 21 69 19

C69 16 66 13 63 13

C62 13 60 14 59 15

C54 20 61 29 67 23

Z

M98 23

C101 21 101 16 97 14

C92 11 86 17 89 22

C91 25 95 26 98 23

Z

M255 22

C258 17 252 11 247 14

C242 18 244 25 250 25

C252 25 253 24 255 22

Z

M285 23

C286 22 287 21 287 19

C287 16 284 13 281 13

C278 13 275 16 275 19

C275 24 281 27 285 23

Z

M440 24

C443 22 443 19 441 16

C439 13 436 12 433 15

C430 17 430 22 433 24

C435 25 438 25 440 24

Z

M473 22

C474 19 474 19 472 16

C470 13 468 12 464 14

C462 16 461 21 464 23

C466 26 471 25 473 22

Z

M11 19

C11 17 10 16 9 16

C6 16 5 17 5 20

C6 23 11 22 11 19

Z

M152 19

C152 17 151 16 149 16

C148 16 147 16 146 17

C145 20 147 22 149 22

C151 22 152 21 152 19

Z

M163 19

C163 17 162 16 160 16

C159 16 158 16 157 17

C156 20 158 22 160 22

C162 22 163 21 163 19

Z

M186 19

C186 17 185 16 183 16

C182 16 181 16 180 17

C179 20 181 22 183 22

C185 22 186 21 186 19

Z

M197 21

C199 19 197 16 195 16

C193 16 192 17 192 18

C191 19 193 22 195 22

C195 22 196 21 197 21

Z

M338 19

C338 17 337 16 335 16

C334 16 333 16 332 17

C331 20 333 22 335 22

C337 22 338 21 338 19

Z

M349 20

C350 19 348 16 347 16

C345 16 343 19 343 20

C344 23 349 22 349 20

Z

M372 19

C372 16 367 15 367 18

C366 21 367 22 369 22

C371 22 372 21 372 19

Z

M384 19

C384 17 383 16 381 16

C380 16 379 16 378 17

C377 20 379 22 381 22

C383 22 384 21 384 19

Z

M524 19

C524 17 523 16 521 16

C519 16 517 18 518 21

C519 22 520 22 521 22

C523 22 524 21 524 19

Z

M535 20

C536 19 534 16 533 16

C531 16 529 19 530 20

C530 21 531 22 533 22

C534 22 535 21 535 20

Z

M53 12

C56 7 50 1 45 4

C42 6 41 12 43 14

C45 16 51 15 53 12

Z

M115 13

C117 9 116 7 113 5

C111 3 110 3 107 4

C104 6 103 10 105 13

C107 16 112 16 115 13

Z

M239 13

C242 7 237 1 232 4

C228 7 227 10 229 13

C232 16 237 16 239 13

Z

M301 13

C304 10 301 3 297 3

C292 3 289 10 292 13

C294 15 299 15 301 13

Z

M425 13

C430 9 425 2 419 4

C415 5 414 10 417 13

C419 15 423 16 425 13

Z

M488 13

C490 10 489 6 486 4

C483 3 482 3 480 5

C477 7 476 9 478 13

C481 16 486 16 488 13

Z

M157 12

C159 10 157 7 154 7

C152 7 150 9 152 12

C154 13 155 13 157 12

Z

M191 12

C193 9 191 7 189 7

C187 7 186 8 186 9

C186 13 189 14 191 12

Z

M343 12

C345 9 343 7 341 7

C338 7 337 9 338 11

C339 13 341 14 343 12

Z

M378 10

C378 8 377 7 375 7

C374 7 373 7 372 8

C371 11 373 13 375 13

C377 13 378 12 378 10

Z

M529 12

C531 11 530 8 527 7

C525 7 523 9 524 12

C525 13 527 13 529 12

Z

"/>

</svg>

