<?xml version="1.0" standalone="no"?>

<!DOCTYPE svg PUBLIC "-//W3C//DTD SVG 20010904//EN"

 "http://www.w3.org/TR/2001/REC-SVG-20010904/DTD/svg10.dtd">

<svg version="1.0" xmlns="http://www.w3.org/2000/svg"

 width="546.000000pt" height="589.000000pt" viewBox="0 0 546.000000 589.000000"

 preserveAspectRatio="xMidYMid meet">

<path fill="#f2f3ee" stroke="none" d="
M0 295

L0 0

L273 0

L546 0

L546 295

L546 589

L273 589

L0 589

L0 295

Z

"/>

<path fill="#738762" stroke="none" d="
M0 295

L0 0

L273 0

L546 0

L546 295

L546 589

L273 589

L0 589

L0 295

Z

M15 540

L15 495

L12 495

L10 496

L9 540

L9 585

L12 585

L15 585

L15 540

Z

M29 540

L29 495

L27 495

L25 496

L24 540

L24 585

L26 585

L29 585

L29 540

Z

M54 540

L54 495

L52 495

L49 495

L49 540

L49 585

L52 585

L54 585

L54 540

Z

M69 540

L69 496

L66 496

L64 496

L63 540

L63 585

L66 585

L69 585

L69 540

Z

M93 540

L93 495

L91 495

L88 495

L88 540

L88 585

L91 585

L93 585

L93 540

Z

M108 540

L108 496

L105 496

L103 496

L102 540

L102 585

L105 585

L108 585

L108 540

Z

M132 540

L132 495

L130 495

L127 495

L127 540

L127 585

L130 585

L132 585

L132 540

Z

M147 579

C147 573 147 572 149 573

C150 573 151 573 151 572

C152 571 153 572 156 574

L159 577

L162 575

C163 573 165 572 165 572

C166 572 166 575 166 579

C166 585 166 585 169 585

L171 585

L171 540

L171 495

L169 495

C166 495 166 495 166 503

C166 510 166 510 164 509

C162 507 162 507 161 509

C160 510 159 510 157 507

C153 503 152 503 149 506

C148 508 147 508 147 502

C147 496 146 495 144 495

L141 495

L141 540

L141 585

L144 585

L147 585

L147 579

Z

M185 540

L185 495

L183 495

L180 495

L180 540

L180 585

L183 585

L185 585

L185 540

Z

M210 540

L210 495

L208 495

L205 495

L205 540

L205 585

L208 585

L210 585

L210 540

Z

M224 579

C224 575 224 572 225 572

C225 572 227 573 228 575

L231 577

L234 574

C237 571 238 571 239 572

C240 573 241 573 242 572

C244 572 244 573 244 578

C244 585 244 585 247 585

L249 585

L249 540

L249 495

L247 495

C244 495 244 495 244 502

L244 509

L241 507

C238 503 237 503 234 507

C231 510 230 510 229 508

C228 507 227 507 227 508

C225 511 224 508 224 502

C224 495 224 495 222 495

L220 496

L219 540

L219 585

L221 585

C224 585 224 585 224 579

Z

M263 540

L263 495

L261 495

L259 496

L258 540

L258 585

L260 585

L263 585

L263 540

Z

M288 540

L288 495

L286 495

L283 495

L283 540

L283 585

L286 585

L288 585

L288 540

Z

M303 540

L303 496

L300 496

L298 496

L297 540

L297 585

L300 585

L303 585

L303 540

Z

M327 540

L327 495

L325 495

L322 495

L322 540

L322 585

L325 585

L327 585

L327 540

Z

M342 540

L342 496

L339 496

L337 496

L336 540

L336 585

L339 585

L342 585

L342 540

Z

M366 540

L366 495

L364 495

L361 495

L361 540

L361 585

L364 585

L366 585

L366 540

Z

M381 578

C381 572 381 571 383 572

C384 573 384 573 386 572

C387 571 388 571 391 574

L394 577

L397 575

L400 572

L400 578

C400 585 400 585 403 585

L405 585

L405 540

L405 495

L403 495

C400 495 400 495 400 502

C400 508 400 509 398 509

C397 508 396 508 395 509

C394 510 393 510 390 507

L387 504

L384 506

L381 509

L381 502

L381 495

L378 495

L376 496

L375 540

L375 585

L378 585

L381 585

L381 578

Z

M420 540

L420 495

L417 495

L415 496

L414 540

L414 585

L417 585

L420 585

L420 540

Z

M444 540

L444 495

L442 495

L440 496

L439 540

L439 585

L441 585

L444 585

L444 540

Z

M459 578

L459 572

L462 575

L465 577

L468 574

C471 571 472 571 473 572

C475 573 475 573 477 572

C478 571 478 572 478 578

C478 585 478 585 481 585

L483 585

L483 540

L483 495

L481 495

C478 495 478 495 478 502

L478 509

L475 506

L472 504

L469 507

C466 510 465 510 464 509

C462 508 462 508 461 509

C459 510 459 509 459 503

C459 496 458 496 456 496

L454 496

L453 540

L453 585

L456 585

L459 585

L459 578

Z

M498 540

L498 496

L495 496

L493 496

L492 540

L492 585

L495 585

L498 585

L498 540

Z

M522 540

L522 495

L520 495

L517 495

L517 540

L517 585

L520 585

L522 585

L522 540

Z

M537 540

L537 496

L534 496

L532 496

L531 540

L531 585

L534 585

L537 585

L537 540

Z

M15 442

L15 397

L12 397

L10 398

L9 442

L9 487

L12 487

L15 487

L15 442

Z

M29 442

L29 397

L27 397

L24 397

L24 442

L24 487

L27 487

L29 487

L29 442

Z

M54 442

L54 397

L52 397

L49 397

L49 442

L49 487

L52 487

L54 487

L54 442

Z

M69 442

L69 398

L66 397

L63 397

L63 442

L63 487

L66 487

L69 487

L69 442

Z

M93 442

L93 397

L91 397

L88 397

L88 442

L88 487

L91 487

L93 487

L93 442

Z

M108 480

C108 475 109 473 109 474

C110 475 111 475 112 474

C114 473 114 473 117 476

L121 479

L123 477

C124 475 126 474 126 474

C127 474 127 477 127 481

C127 487 127 487 130 487

L132 487

L132 442

L132 397

L130 397

C127 397 127 397 127 404

C127 410 126 413 124 410

C124 409 123 409 122 410

C121 412 120 412 117 408

L114 405

L111 408

L108 410

L108 404

C108 398 107 397 105 397

L102 397

L102 442

L102 487

L105 487

C107 487 108 486 108 480

Z

M146 442

L146 397

L144 397

L141 397

L141 442

L141 487

L144 487

L146 487

L146 442

Z

M171 442

L171 397

L169 397

L166 397

L166 442

L166 487

L169 487

L171 487

L171 442

Z

M186 480

L186 474

L189 477

L192 479

L195 476

C198 473 199 473 200 474

C202 475 202 475 204 474

C205 473 205 474 205 480

C205 487 205 487 208 487

L210 487

L210 442

L210 397

L208 397

C205 397 205 397 205 404

C205 407 205 410 204 410

C204 410 202 409 201 407

L199 405

L195 409

C192 412 191 412 190 411

C189 409 188 409 187 410

C186 411 186 410 186 404

C186 398 185 397 183 397

L180 397

L180 442

L180 487

L183 487

C185 487 186 486 186 480

Z

M224 442

L224 397

L222 397

L219 397

L219 442

L219 487

L222 487

L224 487

L224 442

Z

M249 442

L249 397

L247 397

L244 397

L244 442

L244 487

L247 487

L249 487

L249 442

Z

M264 442

L264 397

L261 397

L258 397

L258 442

L258 487

L261 487

L264 487

L264 442

Z

M288 442

L288 397

L286 397

L283 397

L283 442

L283 487

L286 487

L288 487

L288 442

Z

M303 442

L303 397

L300 397

L297 397

L297 442

L297 487

L300 487

L303 487

L303 442

Z

M327 442

L327 397

L325 397

L322 397

L322 442

L322 487

L325 487

L327 487

L327 442

Z

M342 442

L342 397

L339 397

L337 398

L336 441

C336 465 336 485 336 486

C337 486 338 487 339 487

L342 487

L342 442

Z

M366 442

L366 397

L364 397

L361 397

L361 442

L361 487

L364 487

L366 487

L366 442

Z

M381 442

L381 397

L378 397

L376 398

L375 441

C375 465 375 485 375 486

C376 486 377 487 378 487

L381 487

L381 442

Z

M405 442

L405 397

L403 397

L400 397

L400 442

L400 487

L403 487

L405 487

L405 442

Z

M420 480

C420 474 420 473 422 474

C423 475 423 475 425 474

C426 473 427 473 430 476

L433 480

L436 477

C437 475 438 474 438 474

C439 474 439 477 439 481

C439 487 439 487 442 487

L444 487

L444 442

L444 397

L442 397

C439 397 439 397 439 404

C439 410 438 413 437 410

C436 409 436 409 434 410

C432 412 432 412 429 408

L426 405

L423 408

L420 410

L420 404

L420 397

L417 397

L415 398

L414 441

C414 465 414 485 414 486

C415 486 416 487 417 487

C420 487 420 487 420 480

Z

M459 442

L459 397

L456 397

L453 397

L453 442

L453 487

L456 487

L459 487

L459 442

Z

M483 442

L483 397

L481 397

L478 397

L478 442

L478 487

L481 487

L483 487

L483 442

Z

M498 442

L498 397

L495 397

L493 398

L492 441

C492 465 492 485 492 486

C493 486 494 487 495 487

L498 487

L498 442

Z

M522 442

L522 397

L520 397

L517 397

L517 442

L517 487

L520 487

L522 487

L522 442

Z

M537 442

L537 397

L534 397

L532 398

L531 441

C531 465 531 485 531 486

C532 486 533 487 534 487

L537 487

L537 442

Z

M15 344

L15 299

L12 299

L9 299

L9 343

C9 368 9 388 10 388

C10 389 11 389 13 389

L15 389

L15 344

Z

M29 344

L29 299

L27 299

L24 299

L24 344

L24 389

L27 389

L29 389

L29 344

Z

M54 344

L54 299

L52 299

L49 299

L49 344

L49 389

L52 389

L54 389

L54 344

Z

M69 344

L69 299

L66 299

L63 299

L63 344

L63 389

L66 389

L69 389

L69 344

Z

M93 344

L93 299

L91 299

L88 299

L88 344

L88 389

L91 389

L93 389

L93 344

Z

M108 344

L108 299

L105 299

L102 299

L102 344

L102 389

L105 389

L108 389

L108 344

Z

M132 344

L132 299

L130 299

L127 299

L127 344

L127 389

L130 389

L132 389

L132 344

Z

M147 382

C147 377 148 375 148 376

C149 377 150 377 151 376

C152 374 153 374 156 378

L159 381

L163 378

L166 375

L166 382

C166 389 166 389 169 389

L171 389

L171 344

L171 299

L169 299

C166 299 166 299 166 306

C166 310 166 313 165 313

C165 313 164 312 164 312

C164 311 163 311 161 312

C159 313 159 313 156 310

L152 307

L150 310

L147 312

L147 306

L147 299

L144 299

L141 299

L141 344

L141 389

L144 389

C146 389 147 388 147 382

Z

M185 344

L185 299

L183 299

L180 299

L180 344

L180 389

L183 389

L185 389

L185 344

Z

M210 344

L210 299

L208 299

L205 299

L205 344

L205 389

L208 389

L210 389

L210 344

Z

M224 383

C224 379 224 376 225 376

C225 376 227 377 228 379

L230 381

L234 377

C237 374 238 374 239 375

C240 377 241 377 241 376

C243 374 244 375 244 382

C244 389 244 389 247 389

L249 389

L249 344

L249 299

L247 299

C244 299 244 299 244 306

C244 309 244 312 243 312

C243 312 241 311 240 309

L238 307

L234 310

C231 313 231 313 229 312

C228 311 227 311 226 312

C225 315 224 312 224 306

C224 299 224 299 222 299

L219 299

L219 344

L219 389

L222 389

C224 389 224 389 224 383

Z

M263 344

L263 299

L261 299

L258 299

L258 344

L258 389

L261 389

L263 389

L263 344

Z

M288 344

L288 299

L286 299

L283 299

L283 344

L283 389

L286 389

L288 389

L288 344

Z

M303 344

L303 299

L300 299

L297 299

L297 343

C297 368 297 388 298 388

C298 389 299 389 300 389

C302 389 303 388 303 344

Z

M327 344

L327 299

L325 299

L322 299

L322 344

L322 389

L325 389

L327 389

L327 344

Z

M342 344

L342 299

L339 299

L336 299

L336 343

C336 368 336 388 337 388

C337 389 338 389 339 389

C341 389 342 388 342 344

Z

M366 344

L366 299

L364 299

L361 299

L361 344

L361 389

L364 389

L366 389

L366 344

Z

M381 382

C381 376 381 375 382 376

C383 377 384 377 385 375

C386 374 387 374 390 377

L394 381

L396 379

C397 377 399 376 399 376

C400 376 400 379 400 383

C400 389 400 389 403 389

L405 389

L405 344

L405 299

L403 299

C400 299 400 299 400 306

C400 312 400 313 399 312

C397 311 397 311 395 312

C394 313 393 313 390 310

L387 307

L384 309

L381 312

L381 306

L381 299

L378 299

L375 299

L375 343

C375 368 375 388 376 388

C376 389 377 389 379 389

C381 389 381 389 381 382

Z

M420 344

L420 299

L417 299

L414 299

L414 343

C414 368 414 388 415 388

C415 389 416 389 418 389

L420 389

L420 344

Z

M444 344

L444 299

L442 299

L439 299

L439 344

L439 389

L442 389

L444 389

L444 344

Z

M459 382

L459 376

L462 379

L465 381

L468 378

C471 375 472 375 473 376

C475 377 475 377 477 376

C478 375 478 376 478 382

C478 389 478 389 481 389

L483 389

L483 344

L483 299

L481 299

C478 299 478 299 478 306

C478 309 478 312 477 312

C477 312 475 311 474 309

L472 307

L469 310

C466 313 465 313 464 312

C462 311 462 311 461 312

C459 313 459 312 459 306

L459 299

L456 299

L453 299

L453 343

C453 368 453 388 454 388

C454 389 455 389 457 389

C459 389 459 389 459 382

Z

M498 344

L498 299

L495 299

L492 299

L492 343

C492 368 492 388 493 388

C493 389 494 389 496 389

L498 389

L498 344

Z

M522 344

L522 299

L520 299

L517 299

L517 344

L517 389

L520 389

L522 389

L522 344

Z

M537 344

L537 299

L534 299

L531 299

L531 343

C531 368 531 388 532 388

C532 389 533 389 535 389

L537 389

L537 344

Z

M15 246

L15 201

L12 201

L9 201

L9 246

L9 290

L12 290

L15 290

L15 246

Z

M29 246

L29 201

L27 201

L24 201

L24 246

L24 290

L27 290

L29 290

L29 246

Z

M54 246

L54 201

L52 201

L49 201

L49 246

L49 290

L52 290

L54 290

L54 246

Z

M69 246

L69 201

L66 201

L63 201

L63 246

L63 290

L66 290

L69 290

L69 246

Z

M93 246

L93 201

L91 201

L88 201

L88 246

L88 290

L91 290

L93 290

L93 246

Z

M108 283

C108 278 108 277 109 278

C110 279 111 279 112 277

C113 276 114 276 117 280

L120 283

L124 280

L127 277

L127 283

C127 290 127 290 130 290

L132 290

L132 246

L132 201

L130 201

C127 201 127 201 127 208

C127 214 127 215 126 214

C124 213 124 213 122 214

C121 215 120 215 117 212

L114 209

L111 211

L108 214

L108 208

L108 201

L105 201

L102 201

L102 246

L102 290

L105 290

L108 290

L108 283

Z

M146 246

L146 201

L144 201

L141 201

L141 246

L141 290

L144 290

L146 290

L146 246

Z

M171 246

L171 201

L169 201

L166 201

L166 246

L166 290

L169 290

L171 290

L171 246

Z

M186 284

L186 278

L189 280

L192 283

L195 280

C198 276 199 276 200 278

C201 279 202 279 202 278

C204 275 205 277 205 284

C205 290 205 290 208 290

L210 290

L210 246

L210 201

L208 201

C205 201 205 201 205 208

C205 211 205 214 204 214

C204 214 202 213 201 211

L199 209

L195 212

C193 215 192 215 191 214

C189 213 189 213 188 214

C186 215 186 214 186 208

L186 201

L183 201

L180 201

L180 246

L180 290

L183 290

L186 290

L186 284

Z

M224 246

L224 201

L222 201

L219 201

L219 246

L219 290

L222 290

L224 290

L224 246

Z

M249 246

L249 201

L247 201

L244 201

L244 246

L244 290

L247 290

L249 290

L249 246

Z

M264 246

L264 201

L261 201

L258 201

L258 246

L258 290

L261 290

L264 290

L264 246

Z

M288 246

L288 201

L286 201

L283 201

L283 246

L283 290

L286 290

L288 290

L288 246

Z

M303 246

L303 201

L300 201

L297 201

L297 246

L297 290

L300 290

L303 290

L303 246

Z

M327 246

L327 201

L325 201

L322 201

L322 246

L322 290

L325 290

L327 290

L327 246

Z

M342 246

L342 201

L339 201

L336 201

L336 246

L336 290

L339 290

L342 290

L342 246

Z

M366 246

L366 201

L364 201

L361 201

L361 246

L361 290

L364 290

L366 290

L366 246

Z

M381 246

L381 201

L378 201

L375 201

L375 246

L375 290

L378 290

L381 290

L381 246

Z

M405 246

L405 201

L403 201

L400 201

L400 246

L400 290

L403 290

L405 290

L405 246

Z

M420 283

C420 278 420 277 421 278

C422 279 423 279 424 277

C425 276 426 276 429 280

L432 283

L436 280

L439 277

L439 283

C439 290 439 290 442 290

L444 290

L444 246

L444 201

L442 201

C439 201 439 201 439 208

C439 214 439 215 438 214

C436 213 436 213 434 214

C433 215 432 215 429 212

L426 209

L423 211

L420 214

L420 208

L420 201

L417 201

L414 201

L414 246

L414 290

L417 290

L420 290

L420 283

Z

M459 246

L459 201

L456 201

L453 201

L453 246

L453 290

L456 290

L459 290

L459 246

Z

M483 246

L483 201

L481 201

L478 201

L478 246

L478 290

L481 290

L483 290

L483 246

Z

M498 246

L498 201

L495 201

L492 201

L492 246

L492 290

L495 290

L498 290

L498 246

Z

M522 246

L522 201

L520 201

L517 201

L517 246

L517 290

L520 290

L522 290

L522 246

Z

M537 246

L537 201

L534 201

L531 201

L531 246

L531 290

L534 290

L537 290

L537 246

Z

M15 148

L15 103

L12 103

L9 103

L9 148

L9 192

L12 192

L15 192

L15 148

Z

M29 148

L29 103

L27 103

L24 103

L24 148

L24 192

L27 192

L29 192

L29 148

Z

M54 148

L54 103

L52 103

L49 103

L49 148

L49 192

L52 192

L54 192

L54 148

Z

M69 148

L69 103

L66 103

L63 103

L63 148

L63 192

L66 192

L69 192

L69 148

Z

M93 148

L93 103

L91 103

L88 103

L88 148

L88 192

L91 192

L93 192

L93 148

Z

M108 148

L108 103

L105 103

L102 103

L102 148

L102 192

L105 192

L108 192

L108 148

Z

M132 148

L132 103

L130 103

L127 103

L127 148

L127 192

L130 192

L132 192

L132 148

Z

M147 186

C147 180 147 179 149 180

C149 180 151 180 151 179

C152 178 153 179 156 181

C159 185 160 185 163 182

C164 180 165 179 165 179

C166 179 166 182 166 186

C166 192 166 192 169 192

L171 192

L171 148

L171 103

L169 103

C166 103 166 103 166 110

C166 117 166 117 164 116

C163 115 162 115 161 116

C160 117 159 116 156 114

C153 110 152 110 149 114

L147 116

L147 110

L147 103

L144 103

L141 103

L141 148

L141 192

L144 192

L147 192

L147 186

Z

M185 148

L185 103

L183 103

L180 103

L180 148

L180 192

L183 192

L185 192

L185 148

Z

M210 148

L210 103

L208 103

L205 103

L205 148

L205 192

L208 192

L210 192

L210 148

Z

M224 186

C224 182 224 179 225 179

C225 179 227 180 228 182

L231 184

L235 181

C237 178 238 178 239 179

C239 180 241 180 242 180

C244 179 244 179 244 185

C244 192 244 192 247 192

L249 192

L249 148

L249 103

L247 103

C244 103 244 103 244 110

L244 116

L241 114

C238 110 237 110 234 114

C231 116 230 117 229 116

C228 115 227 115 226 116

C224 117 224 117 224 110

C224 103 224 103 222 103

L219 103

L219 148

L219 192

L222 192

C224 192 224 192 224 186

Z

M263 148

L263 103

L261 103

L258 103

L258 148

L258 192

L261 192

L263 192

L263 148

Z

M288 148

L288 103

L286 103

L283 103

L283 148

L283 192

L286 192

L288 192

L288 148

Z

M303 148

L303 103

L300 103

L297 103

L297 148

L297 192

L300 192

L303 192

L303 148

Z

M327 148

L327 103

L325 103

L322 103

L322 148

L322 192

L325 192

L327 192

L327 148

Z

M342 148

L342 103

L339 103

L336 103

L336 148

L336 192

L339 192

L342 192

L342 148

Z

M366 148

L366 103

L364 103

L361 103

L361 148

L361 192

L364 192

L366 192

L366 148

Z

M381 185

C381 179 381 178 383 179

C384 180 384 180 386 179

C387 178 388 178 391 181

L394 184

L397 182

L400 179

L400 185

C400 192 400 192 403 192

L405 192

L405 148

L405 103

L403 103

C400 103 400 103 400 110

C400 116 400 117 399 116

C397 115 397 115 395 116

C394 117 393 117 390 114

L387 111

L384 113

L381 116

L381 110

L381 103

L378 103

L375 103

L375 148

L375 192

L378 192

L381 192

L381 185

Z

M420 148

L420 103

L417 103

L414 103

L414 148

L414 192

L417 192

L420 192

L420 148

Z

M444 148

L444 103

L442 103

L439 103

L439 148

L439 192

L442 192

L444 192

L444 148

Z

M459 185

L459 179

L462 182

L465 184

L468 181

C471 178 472 178 473 179

C475 180 475 180 477 179

C478 178 478 179 478 185

C478 192 478 192 481 192

L483 192

L483 148

L483 103

L481 103

C478 103 478 103 478 110

L478 116

L475 113

L472 111

L469 114

C466 117 465 117 464 116

C462 115 462 115 461 116

C459 117 459 116 459 110

L459 103

L456 103

L453 103

L453 148

L453 192

L456 192

L459 192

L459 185

Z

M498 148

L498 103

L495 103

L492 103

L492 148

L492 192

L495 192

L498 192

L498 148

Z

M522 148

L522 103

L520 103

L517 103

L517 148

L517 192

L520 192

L522 192

L522 148

Z

M537 148

L537 103

L534 103

L531 103

L531 148

L531 192

L534 192

L537 192

L537 148

Z

M15 49

L15 4

L12 4

L10 5

L9 49

L9 94

L12 94

L15 94

L15 49

Z

M29 49

L29 4

L27 4

L24 4

L24 49

L24 94

L27 94

L29 94

L29 49

Z

M54 49

L54 4

L52 4

L49 4

L49 49

L49 94

L52 94

L54 94

L54 49

Z

M69 49

L69 5

L66 4

L63 4

L63 49

L63 94

L66 94

L69 94

L69 49

Z

M93 49

L93 4

L91 4

L88 4

L88 49

L88 94

L91 94

L93 94

L93 49

Z

M108 87

C108 82 109 80 109 81

C110 82 111 82 112 81

C114 80 114 80 117 83

L121 86

L123 84

C124 82 126 81 126 81

C127 81 127 84 127 88

C127 94 127 94 130 94

L132 94

L132 49

L132 4

L130 4

C127 4 127 4 127 11

C127 17 126 20 124 17

C124 16 123 16 122 17

C121 19 120 19 117 15

L114 12

L111 15

L108 17

L108 11

C108 5 107 4 105 4

L102 4

L102 49

L102 94

L105 94

C107 94 108 93 108 87

Z

M146 49

L146 4

L144 4

L141 4

L141 49

L141 94

L144 94

L146 94

L146 49

Z

M171 49

L171 4

L169 4

L166 4

L166 49

L166 94

L169 94

L171 94

L171 49

Z

M186 87

L186 81

L189 84

L192 86

L195 83

C198 80 199 80 200 81

C202 82 202 82 204 81

C205 80 205 81 205 87

C205 94 205 94 208 94

L210 94

L210 49

L210 4

L208 4

C205 4 205 4 205 11

C205 14 205 17 204 17

C204 17 202 16 201 14

L199 12

L195 16

C192 19 191 19 190 18

C189 16 188 16 187 17

C186 18 186 17 186 11

C186 5 185 4 183 4

L180 4

L180 49

L180 94

L183 94

C185 94 186 93 186 87

Z

M224 49

L224 4

L222 4

L219 4

L219 49

L219 94

L222 94

L224 94

L224 49

Z

M249 49

L249 4

L247 4

L244 4

L244 49

L244 94

L247 94

L249 94

L249 49

Z

M264 49

L264 4

L261 4

L258 4

L258 49

L258 94

L261 94

L264 94

L264 49

Z

M288 49

L288 4

L286 4

L283 4

L283 49

L283 94

L286 94

L288 94

L288 49

Z

M303 49

L303 4

L300 4

L297 4

L297 49

L297 94

L300 94

L303 94

L303 49

Z

M327 49

L327 4

L325 4

L322 4

L322 49

L322 94

L325 94

L327 94

L327 49

Z

M342 49

L342 4

L339 4

L337 5

L336 48

C336 72 336 92 336 93

C337 93 338 94 339 94

L342 94

L342 49

Z

M366 49

L366 4

L364 4

L361 4

L361 49

L361 94

L364 94

L366 94

L366 49

Z

M381 49

L381 4

L378 4

L376 5

L375 48

C375 72 375 92 375 93

C376 93 377 94 378 94

L381 94

L381 49

Z

M405 49

L405 4

L403 4

L400 4

L400 49

L400 94

L403 94

L405 94

L405 49

Z

M420 87

C420 81 420 80 422 81

C423 82 423 82 425 81

C426 80 427 80 430 83

L433 86

L436 84

L439 81

L439 87

C439 94 439 94 442 94

L444 94

L444 49

L444 4

L442 4

C439 4 439 4 439 11

C439 17 438 20 437 17

C436 16 436 16 434 17

C432 19 432 19 429 16

L426 12

L424 15

C423 16 421 17 421 17

C420 17 420 14 420 10

L420 4

L417 4

L415 5

L414 48

C414 72 414 92 414 93

C415 93 416 94 417 94

C420 94 420 94 420 87

Z

M459 49

L459 4

L456 4

L453 4

L453 49

L453 94

L456 94

L459 94

L459 49

Z

M483 49

L483 4

L481 4

L478 4

L478 49

L478 94

L481 94

L483 94

L483 49

Z

M498 49

L498 4

L495 4

L493 5

L492 48

C492 72 492 92 492 93

C493 93 494 94 495 94

L498 94

L498 49

Z

M522 49

L522 4

L520 4

L517 4

L517 49

L517 94

L520 94

L522 94

L522 49

Z

M537 49

L537 4

L534 4

L532 5

L531 48

C531 72 531 92 531 93

C532 93 533 94 534 94

L537 94

L537 49

Z

"/>

</svg>

