<?xml version="1.0" standalone="no"?>

<!DOCTYPE svg PUBLIC "-//W3C//DTD SVG 20010904//EN"

 "http://www.w3.org/TR/2001/REC-SVG-20010904/DTD/svg10.dtd">

<svg version="1.0" xmlns="http://www.w3.org/2000/svg"

 width="656.000000pt" height="535.000000pt" viewBox="0 0 656.000000 535.000000"

 preserveAspectRatio="xMidYMid meet">

<path fill="#ededf0" stroke="none" d="
M0 268

L0 0

L328 0

L656 0

L656 268

L656 535

L328 535

L0 535

L0 268

Z

"/>

<path fill="#464f79" stroke="none" d="
M5 534

C5 533 4 532 3 532

C-1 530 -1 525 2 524

C5 523 6 520 3 518

C0 516 0 515 0 510

C0 508 1 502 2 498

C4 486 4 461 2 451

C1 447 0 441 0 438

C0 433 0 432 3 431

C6 430 6 426 3 425

C-1 423 -1 418 2 417

C5 416 6 413 3 411

C0 409 0 408 0 403

C0 401 1 395 2 391

C4 379 4 354 2 344

C1 340 0 334 0 331

C0 326 0 325 3 324

C6 323 6 319 3 318

C-1 316 -1 311 2 310

C5 309 6 306 3 303

C0 301 0 301 0 294

C1 291 2 283 2 277

C4 265 4 248 1 237

C1 233 0 227 0 224

C0 219 0 218 3 217

C6 216 6 212 3 211

C-1 209 -1 204 2 203

C5 202 6 199 3 196

C0 194 0 194 0 187

C1 184 2 176 2 170

C4 158 4 141 1 130

C1 126 0 120 0 117

C0 112 0 111 3 110

C6 109 6 105 3 104

C-1 102 -1 97 2 96

C5 95 6 92 3 89

C0 87 0 87 0 80

C1 77 2 69 2 63

C4 51 4 34 1 23

C1 19 0 13 0 10

C0 5 0 4 3 3

C4 3 5 2 5 1

C5 0 8 0 11 0

L17 0

L17 3

C15 11 14 20 14 28

C14 37 17 58 18 58

C19 58 21 45 22 33

C22 23 21 10 19 2

C19 0 19 0 25 0

L32 0

L32 8

C32 17 34 31 35 37

L36 41

L38 35

C38 32 39 23 40 15

L40 0

L45 0

L51 0

L51 6

C52 9 52 14 53 17

C54 22 54 22 55 20

C56 19 57 14 57 9

L58 0

L65 0

C72 0 72 0 72 2

L72 5

L73 2

C74 0 75 0 80 0

C85 0 86 0 86 2

C86 6 94 6 96 2

C96 0 97 0 102 0

C108 1 109 1 119 0

C126 0 126 0 126 2

C124 7 123 24 123 32

C124 42 126 53 127 55

C127 56 128 52 130 47

C131 39 131 34 131 21

C130 13 130 4 129 3

L129 0

L135 0

L142 0

L142 10

C142 19 143 32 145 36

C146 38 146 37 147 33

C149 25 150 7 150 3

L149 0

L154 0

C161 0 160 -1 162 13

C164 22 164 21 166 9

L167 0

L173 0

L178 0

L178 12

C179 24 181 36 182 37

C183 39 186 18 186 9

L186 0

L193 0

C198 0 199 0 199 2

C197 7 196 24 196 33

C197 42 199 54 200 56

C201 56 201 53 202 49

C204 42 204 15 203 6

L202 0

L209 0

C219 1 220 1 226 0

C230 0 231 0 232 2

C233 5 234 5 237 5

C240 5 241 4 241 2

C242 0 243 0 248 0

C253 0 254 0 254 2

C254 2 254 3 255 3

C256 3 256 2 256 2

C256 0 257 0 262 0

C270 0 269 -1 271 13

C272 17 273 21 273 21

C274 22 275 16 277 4

L277 0

L282 0

L288 0

L288 11

C288 22 289 36 291 39

C292 40 292 40 292 40

C292 40 293 36 294 31

C294 26 295 17 295 11

L295 0

L302 0

L309 0

L307 7

C305 18 306 39 308 50

C308 55 309 59 310 59

C310 58 313 43 313 35

C314 27 313 15 311 4

L311 0

L317 0

C321 0 323 0 324 2

C324 3 326 4 328 4

C329 4 331 3 332 2

C334 0 335 0 340 0

C345 0 345 0 345 2

C343 9 342 23 342 33

C343 45 345 58 346 58

C347 58 350 37 350 28

C350 20 349 10 347 3

L347 0

L353 0

L360 0

L360 9

C360 18 363 38 364 39

C365 41 367 29 368 14

L368 0

L374 0

L379 0

L379 7

C380 11 381 16 381 18

L383 23

L384 18

C384 15 385 10 386 6

L386 0

L393 0

C400 0 400 0 400 2

L400 5

L401 2

C402 0 403 0 408 0

C413 0 414 0 414 2

C414 6 422 6 424 2

C424 0 425 0 430 0

C436 1 437 1 447 0

C454 0 454 0 454 2

C452 7 451 24 451 33

C452 42 454 54 455 56

C458 58 460 18 458 5

L457 0

L463 0

L470 0

L470 11

C470 20 472 36 473 38

C475 39 479 9 478 3

L477 0

L482 0

C489 0 488 -1 490 13

C492 22 492 21 494 9

L495 0

L501 0

L506 0

L506 12

C507 25 509 37 510 37

C511 37 513 25 514 12

L514 0

L521 0

C526 0 527 0 527 2

C525 7 524 23 524 31

C525 42 527 54 528 55

C531 58 533 20 531 6

L530 0

L537 0

C547 1 548 1 554 0

C558 0 559 0 560 2

C561 5 562 5 565 5

C568 5 569 4 569 2

C570 0 571 0 576 0

C581 0 582 0 582 2

C582 3 582 3 583 2

C584 0 586 0 591 0

C598 0 597 -1 599 13

C600 17 601 21 601 21

C602 22 603 17 605 4

L605 0

L610 0

L616 0

L616 11

C616 22 617 36 619 39

C620 41 622 29 623 14

L623 0

L630 0

L637 0

L635 7

C633 18 633 38 636 50

L637 60

L639 55

C642 41 642 23 639 4

L639 0

L644 0

C648 0 650 0 652 2

C652 3 654 4 655 4

C657 4 656 13 654 26

C652 36 652 57 654 68

C654 72 655 78 656 82

C656 88 656 88 654 89

C652 89 651 90 651 91

C650 93 652 96 654 96

C657 96 657 103 654 103

C653 104 652 105 651 106

C650 107 650 107 652 109

C653 110 654 111 655 111

C657 111 656 120 654 133

C652 143 652 164 654 175

C654 179 655 185 656 189

C656 195 656 195 654 196

C652 196 651 197 651 198

C650 200 652 203 654 203

C657 203 657 210 654 210

C653 211 652 212 651 213

C650 214 650 214 652 216

C653 217 654 218 655 218

C657 218 656 227 654 240

C652 250 652 271 654 282

C654 286 655 292 656 296

C656 302 656 302 654 303

C652 303 651 305 651 305

C650 307 652 310 655 310

C656 310 656 311 656 314

C656 316 656 317 655 317

C654 317 652 318 652 319

C650 321 650 321 652 323

C652 324 654 325 655 325

C657 325 656 334 654 347

C652 357 652 378 654 389

C654 393 655 399 656 403

C656 409 656 409 654 410

C652 410 651 412 651 412

C650 414 652 417 655 417

C656 417 656 418 656 421

C656 423 656 424 655 424

C654 424 652 425 652 426

C650 428 650 428 652 430

C652 431 654 432 655 432

C657 432 656 441 654 454

C652 464 652 484 654 495

C654 500 655 506 656 510

C656 515 656 516 654 516

C651 517 650 521 652 522

C652 523 654 524 655 524

C656 524 656 525 656 528

C656 530 656 531 655 531

C654 531 652 532 652 533

C649 536 638 536 638 533

C637 532 637 532 637 533

C637 535 636 535 630 535

L623 535

L622 527

C621 523 621 518 620 517

C619 514 619 514 618 518

C618 521 617 526 616 529

L616 535

L610 535

L605 535

L605 522

C604 509 602 497 601 497

C600 497 598 511 597 523

L597 535

L590 535

C585 535 584 535 584 533

C586 529 587 515 587 508

C587 500 584 480 583 479

C580 476 578 521 581 531

L582 535

L576 535

C572 535 569 534 567 533

C564 532 564 532 562 533

C558 535 551 536 552 534

C552 532 549 529 546 529

C543 529 540 531 541 533

C542 535 541 535 535 535

C529 535 529 535 529 532

L529 530

L528 532

C527 535 526 535 520 535

L514 535

L514 531

C512 519 511 513 510 513

C509 513 508 518 506 531

L506 535

L501 535

L495 535

L496 528

C496 520 495 504 493 498

L492 494

L490 499

C490 502 489 511 488 520

L488 535

L483 535

L477 535

L477 529

C476 522 474 512 473 512

C473 513 470 528 470 532

L470 535

L463 535

C457 535 457 534 456 532

L455 530

L455 532

C454 535 453 535 448 535

C443 535 442 535 442 533

C442 531 440 529 437 529

C434 529 432 531 432 533

C432 536 427 536 422 533

C419 532 419 532 416 533

C414 534 410 535 407 535

L402 535

L402 532

C405 518 405 504 403 488

C401 478 400 477 399 483

C396 496 396 515 398 530

L399 535

L393 535

L386 535

L386 524

C386 518 385 509 384 505

L383 496

L381 500

C380 505 378 526 378 531

L379 535

L374 535

C368 535 368 535 368 532

C365 517 365 514 364 514

C363 515 361 527 361 531

L361 535

L354 535

C350 535 347 535 347 534

C346 533 346 533 345 534

C345 535 343 535 339 535

C335 535 334 535 332 533

C331 532 329 531 328 531

C327 531 325 532 324 533

C321 536 310 536 310 533

C309 532 309 532 309 533

C309 535 308 535 302 535

L295 535

L294 527

C293 523 293 518 292 517

L291 514

L290 518

C290 520 289 525 288 529

L288 535

L283 535

L277 535

L277 521

C276 508 274 495 273 497

C272 499 269 519 269 527

L269 535

L262 535

C257 535 256 535 256 533

C259 524 260 498 257 486

C255 477 255 477 253 484

C251 493 251 517 252 527

L254 535

L248 535

C244 535 241 534 239 533

C236 532 236 532 234 533

C230 535 223 536 224 534

C224 532 221 529 218 529

C215 529 213 531 213 534

C214 535 213 535 208 535

C202 535 202 534 201 532

L200 530

L200 532

C199 535 199 535 193 535

L186 535

L186 530

C184 519 183 513 182 513

C181 513 180 519 178 531

L178 535

L173 535

L167 535

L168 528

C168 520 167 504 165 498

L164 494

L162 499

C162 502 161 511 160 520

L160 535

L155 535

L149 535

L149 529

C148 525 148 520 147 517

C146 512 146 512 145 514

C144 515 143 521 143 526

L142 535

L135 535

C129 535 129 534 128 532

L127 530

L127 532

C126 535 126 535 120 535

C115 535 114 535 114 533

C114 531 112 529 109 529

C106 529 104 531 104 533

C104 536 99 536 94 533

C91 532 91 532 88 533

C86 534 82 535 79 535

C74 535 74 535 74 533

C76 526 77 510 77 502

C76 492 74 481 73 479

C70 474 68 514 70 529

L71 535

L65 535

L58 535

L58 521

C57 506 55 494 54 498

C52 502 51 515 51 525

L51 535

L45 535

L40 535

L40 531

C38 520 37 515 36 516

C35 516 35 521 34 526

L33 535

L26 535

C21 535 19 535 19 534

C18 533 18 533 17 534

C17 535 5 535 5 534

Z

M332 523

C334 521 333 519 331 517

C326 515 320 519 324 522

C325 524 330 524 332 523

Z

M113 521

C116 517 111 513 107 515

C102 517 104 522 110 522

C111 522 112 521 113 521

Z

M222 520

C223 520 224 519 224 518

C224 517 220 514 218 514

C216 514 213 516 213 518

C213 520 216 522 219 522

C220 522 222 521 222 520

Z

M441 521

C444 517 439 513 435 515

C430 517 432 522 438 522

C439 522 440 521 441 521

Z

M550 520

C551 520 552 519 552 518

C552 517 548 514 546 514

C544 514 541 516 541 518

C541 520 544 522 547 522

C548 522 550 521 550 520

Z

M21 520

C25 518 23 513 18 513

C13 513 11 518 15 520

C17 521 19 521 21 520

Z

M313 519

C316 517 315 514 311 513

C306 512 302 516 306 519

C307 520 309 521 310 521

C310 521 312 520 313 519

Z

M349 520

C353 518 351 513 346 513

C341 513 339 518 343 520

C345 521 347 521 349 520

Z

M641 519

C644 517 643 514 639 513

C634 512 630 516 634 519

C635 520 637 521 638 521

C638 521 640 520 641 519

Z

M94 508

C96 493 94 464 91 461

C90 459 88 476 88 491

C88 506 89 521 91 519

C92 519 93 514 94 508

Z

M239 511

C242 497 240 467 237 461

C234 456 232 495 234 508

C236 523 237 523 239 511

Z

M421 513

C423 501 423 485 422 473

C421 467 419 461 419 461

C417 459 416 475 416 491

C416 506 417 521 419 519

C419 519 420 516 421 513

Z

M567 510

C569 496 568 467 565 461

C564 459 564 461 562 472

C560 486 562 524 565 519

C565 518 566 514 567 510

Z

M132 516

C133 513 131 511 127 511

C120 512 121 518 128 518

C130 518 131 517 132 516

Z

M205 516

C206 513 204 511 200 511

C193 512 194 518 201 518

C203 518 204 517 205 516

Z

M460 516

C461 513 459 511 455 511

C448 512 449 518 456 518

C458 518 459 517 460 516

Z

M533 515

C533 513 533 512 531 511

C527 511 525 511 524 513

C522 516 525 518 529 518

C532 518 533 517 533 515

Z

M22 505

C25 501 20 497 16 499

C11 501 13 506 18 506

C19 506 21 505 22 505

Z

M313 504

C314 504 315 503 315 502

C315 501 312 498 310 498

C308 498 304 501 304 502

C304 504 307 506 310 506

C311 506 313 505 313 504

Z

M350 505

C353 501 348 497 344 499

C339 501 341 506 346 506

C347 506 349 505 350 505

Z

M641 504

C642 504 643 502 643 502

C643 501 639 498 637 498

C636 498 632 501 632 502

C632 504 635 506 638 506

C639 506 641 505 641 504

Z

M131 502

C135 499 130 494 124 497

C122 498 121 500 124 502

C126 504 128 504 131 502

Z

M203 503

C206 501 205 498 203 497

C200 495 196 497 195 499

C195 502 197 504 200 504

C201 504 202 503 203 503

Z

M331 491

C332 483 332 476 332 469

C331 459 329 446 328 445

C326 443 325 458 325 474

C325 490 326 505 328 503

C329 503 330 497 331 491

Z

M459 502

C461 500 461 497 457 496

C454 496 450 497 450 499

C450 501 453 504 455 504

C456 504 458 503 459 502

Z

M531 503

C535 501 533 496 528 496

C523 496 521 501 525 503

C527 504 529 504 531 503

Z

M41 500

C42 498 41 496 38 495

C35 495 33 495 32 497

C31 499 31 499 33 501

C35 503 39 503 41 500

Z

M296 500

C298 498 295 495 291 495

C286 496 285 498 288 501

C290 503 294 503 296 500

Z

M366 502

C370 501 370 496 367 495

C363 495 361 495 360 497

C359 499 359 499 361 501

C364 503 363 503 366 502

Z

M624 500

C625 498 624 496 621 495

C618 495 616 495 615 497

C614 499 614 499 616 501

C618 503 622 503 624 500

Z

M112 473

C113 456 111 441 109 443

C108 443 107 448 106 454

C104 468 105 492 109 501

C110 505 112 489 112 473

Z

M220 497

C223 482 223 458 220 446

L218 441

L217 446

C215 457 214 471 215 482

C216 491 218 502 219 502

C219 502 219 500 220 497

Z

M440 474

C440 458 439 442 437 442

C436 442 434 456 433 468

C433 479 435 498 437 501

C438 504 440 489 440 474

Z

M549 493

C550 483 550 461 548 450

C547 445 547 441 546 441

C546 442 545 445 544 450

C542 463 542 490 546 500

C546 503 547 502 549 493

Z

M150 498

C151 496 151 496 149 494

C145 491 139 494 141 498

C142 500 143 500 146 500

C148 500 150 499 150 498

Z

M186 499

C189 495 185 491 180 493

C175 495 177 500 182 500

C183 500 185 499 186 499

Z

M478 498

C481 495 476 491 471 493

C466 495 468 500 474 500

C475 500 477 499 478 498

Z

M514 499

C517 495 513 491 508 493

C503 495 505 500 510 500

C511 500 513 499 514 499

Z

M41 486

C42 484 42 484 41 482

C38 479 31 480 31 484

C31 488 37 489 41 486

Z

M295 486

C297 484 297 484 296 482

C293 479 286 480 286 484

C286 488 291 489 295 486

Z

M367 487

C370 485 369 482 367 481

C364 479 360 481 359 483

C359 486 361 488 364 488

C365 488 366 487 367 487

Z

M622 487

C625 485 624 482 622 481

C619 479 615 481 614 483

C614 486 616 488 619 488

C620 488 621 487 622 487

Z

M21 474

C22 466 22 460 22 451

C21 439 19 426 18 426

C17 426 14 447 14 456

C14 466 17 486 18 486

C18 486 20 481 21 474

Z

M149 484

C152 481 151 479 146 478

C143 478 142 478 141 480

C140 482 140 483 142 484

C145 486 146 486 149 484

Z

M184 485

C189 483 187 478 182 478

C179 478 177 480 177 482

C177 484 178 485 182 486

C182 486 183 486 184 485

Z

M312 476

C314 466 314 446 312 436

C310 425 309 425 308 432

C305 445 305 467 308 481

C309 487 310 487 312 476

Z

M348 479

C350 466 350 450 349 438

C348 431 346 426 346 426

C344 426 343 442 343 456

C343 470 344 486 346 486

C346 486 347 483 348 479

Z

M477 484

C481 481 479 479 474 479

C468 479 466 481 470 484

C471 485 473 486 474 486

C474 486 476 485 477 484

Z

M512 485

C517 483 515 478 510 478

C507 478 505 480 505 482

C505 484 506 485 510 486

C510 486 511 486 512 485

Z

M641 467

C642 455 641 439 639 429

L637 425

L636 431

C633 447 633 467 636 481

L637 487

L639 482

C639 480 640 473 641 467

Z

M59 482

C61 480 59 478 55 478

C52 478 50 478 50 479

C48 482 51 484 55 484

C56 484 58 483 59 482

Z

M130 455

C130 442 130 434 129 430

L128 423

L126 427

C123 438 122 459 125 475

C127 485 127 485 129 479

C130 475 130 467 130 455

Z

M203 455

C203 443 203 434 202 430

C201 422 200 422 198 432

C196 445 196 458 197 470

C200 485 200 486 202 479

C203 475 203 467 203 455

Z

M277 483

C279 482 278 478 275 477

C269 476 266 480 269 483

C271 484 275 484 277 483

Z

M387 482

C389 480 387 478 383 478

C380 478 378 478 378 479

C376 482 379 484 383 484

C384 484 386 483 387 482

Z

M458 455

C458 437 457 421 455 424

C452 430 450 461 453 474

C455 485 455 485 457 479

C458 475 458 467 458 455

Z

M531 473

C532 466 532 460 532 449

C531 434 529 421 528 425

C526 429 524 447 524 453

C524 464 527 485 529 484

C529 484 530 479 531 473

Z

M605 483

C607 482 606 478 603 477

C597 476 594 480 597 483

C599 484 603 484 605 483

Z

M168 481

C171 477 166 473 162 475

C157 477 159 482 164 482

C165 482 167 481 168 481

Z

M496 481

C498 479 497 476 495 475

C492 473 490 474 488 476

C486 478 486 478 488 480

C490 482 494 483 496 481

Z

M58 468

C62 465 60 463 55 463

C49 463 47 465 51 468

C52 469 54 470 55 470

C55 470 57 469 58 468

Z

M275 469

C280 467 278 462 273 462

C270 462 268 464 268 466

C268 468 269 469 273 470

C273 470 274 470 275 469

Z

M386 468

C389 466 388 463 384 462

C381 462 379 462 378 464

C377 466 377 466 379 468

C382 470 383 470 386 468

Z

M604 469

C608 467 606 462 601 462

C596 462 594 467 598 469

C601 470 602 470 604 469

Z

M39 440

C39 422 38 407 36 409

C35 410 33 422 32 432

C32 442 33 457 35 465

L36 469

L38 463

C39 459 39 452 39 440

Z

M294 439

C294 426 294 418 293 414

L292 407

L290 411

C287 422 286 443 289 459

C291 469 291 469 293 463

C294 459 294 452 294 439

Z

M367 440

C367 424 366 406 364 407

C363 409 361 422 360 432

C360 443 362 464 364 467

C365 470 367 457 367 440

Z

M622 439

C622 426 622 418 621 414

L620 407

L618 411

C615 422 614 443 617 459

C619 469 619 469 621 463

C622 459 622 451 622 439

Z

M168 465

C170 463 168 461 164 460

C160 460 158 462 159 465

C160 467 166 468 168 465

Z

M496 465

C498 463 496 461 492 460

C488 460 486 462 487 465

C488 467 494 468 496 465

Z

M77 465

C79 463 78 461 76 459

C73 458 69 458 68 461

C66 465 74 468 77 465

Z

M148 457

C150 447 150 424 148 414

C147 409 146 406 146 405

C145 405 143 415 142 426

C142 431 142 440 142 445

C143 456 145 466 146 466

C146 465 147 462 148 457

Z

M259 465

C262 461 257 457 253 459

C248 461 250 466 255 466

C256 466 258 465 259 465

Z

M405 465

C407 463 406 460 403 459

C401 458 400 458 398 459

C395 461 394 462 397 464

C399 466 403 466 405 465

Z

M476 457

C477 452 477 444 477 436

C477 423 475 407 474 405

C473 405 471 415 470 425

C469 432 469 439 470 445

C471 456 473 466 474 466

C474 465 475 462 476 457

Z

M587 465

C590 461 585 457 580 459

C578 460 577 464 579 465

C582 466 586 466 587 465

Z

M184 458

C187 444 185 406 182 406

C180 406 179 422 179 436

C179 449 180 465 182 465

C182 465 183 462 184 458

Z

M512 457

C515 443 513 406 510 406

C508 406 507 421 507 436

C507 450 508 465 510 465

C510 465 511 462 512 457

Z

M77 449

C79 447 77 445 73 444

C69 444 67 446 68 449

C69 451 75 452 77 449

Z

M259 449

C260 448 260 447 259 446

C257 443 250 444 250 447

C250 449 250 450 251 450

C252 452 258 451 259 449

Z

M405 449

C407 447 405 445 401 444

C397 444 395 446 396 449

C397 451 403 452 405 449

Z

M587 449

C589 447 587 445 582 445

C578 445 577 446 578 450

C579 452 585 451 587 449

Z

M57 441

C58 431 58 408 57 398

C56 393 55 390 55 389

C54 389 52 399 51 410

C50 417 50 423 51 430

C52 441 54 450 55 450

C55 449 56 446 57 441

Z

M276 421

C276 405 275 388 273 390

C272 391 269 411 269 420

C269 427 272 447 273 449

C274 452 276 437 276 421

Z

M385 438

C387 428 386 402 384 394

L382 389

L381 394

C379 406 378 419 379 430

C380 436 381 443 381 446

C383 451 383 450 385 438

Z

M604 421

C604 404 603 390 601 390

C600 390 598 403 597 415

C597 425 599 447 601 449

C602 452 604 437 604 421

Z

M94 447

C97 446 96 442 94 441

C89 439 84 443 87 447

C89 448 91 448 94 447

Z

M166 439

C169 423 168 402 165 391

L164 387

L162 392

C160 400 160 430 162 440

C163 449 164 449 166 439

Z

M240 447

C244 445 241 440 236 440

C235 440 233 441 233 442

C231 444 231 444 233 446

C234 448 237 449 240 447

Z

M422 447

C425 446 424 442 422 441

C417 439 412 443 415 447

C417 448 419 448 422 447

Z

M494 435

C495 429 496 421 496 418

C496 410 494 396 493 391

L492 387

L490 392

C488 400 488 430 490 440

C491 445 492 448 492 447

C493 446 494 441 494 435

Z

M568 447

C570 446 571 444 568 442

C566 439 563 440 561 442

C559 444 559 444 561 446

C562 448 565 449 568 447

Z

M95 432

C98 428 94 424 89 426

C86 427 85 431 87 432

C90 433 94 433 95 432

Z

M241 432

C243 430 242 428 240 426

C237 425 233 425 232 428

C230 432 238 435 241 432

Z

M423 432

C426 428 422 424 417 426

C414 427 413 431 415 432

C418 433 422 433 423 432

Z

M569 431

C570 429 570 429 568 427

C565 425 564 425 561 427

C559 428 559 429 560 431

C561 433 562 433 565 433

C567 433 569 432 569 431

Z

M75 422

C77 408 76 378 73 372

C73 371 72 373 71 378

C69 387 69 416 71 425

C72 433 73 433 75 422

Z

M331 431

C335 429 332 424 327 424

C326 424 324 425 324 426

C322 428 322 428 324 430

C325 432 328 433 331 431

Z

M404 413

C405 401 404 382 401 373

C401 370 400 371 398 380

C396 391 396 411 398 422

C399 427 400 431 400 432

C400 435 403 423 404 413

Z

M257 423

C259 412 259 390 257 380

C256 375 255 372 255 371

C253 371 252 387 252 402

C252 416 253 431 255 431

C255 431 256 427 257 423

Z

M585 424

C587 411 587 396 586 384

C585 378 584 372 583 372

C581 370 580 387 580 402

C580 417 581 431 583 431

C583 431 584 428 585 424

Z

M112 429

C116 427 114 422 109 422

C104 422 102 427 106 429

C108 430 110 430 112 429

Z

M222 428

C226 425 221 420 215 423

C212 424 212 426 215 428

C218 430 219 430 222 428

Z

M440 429

C444 427 442 422 437 422

C432 422 430 427 434 429

C436 430 438 430 440 429

Z

M550 428

C554 425 549 420 543 423

C540 424 540 426 543 428

C546 430 547 430 550 428

Z

M332 416

C334 414 333 412 331 410

C326 408 320 412 324 415

C325 417 330 417 332 416

Z

M113 414

C116 410 111 406 107 408

C102 410 104 415 109 415

C110 415 112 414 113 414

Z

M222 413

C223 413 224 412 224 411

C224 410 221 407 219 407

C217 407 213 410 213 411

C213 413 216 415 219 415

C220 415 222 414 222 413

Z

M441 414

C444 410 439 406 435 408

C430 410 432 415 437 415

C438 415 440 414 441 414

Z

M550 413

C553 411 552 410 550 408

C546 406 542 407 541 410

C540 414 547 417 550 413

Z

M21 413

C25 411 23 406 18 406

C13 406 11 411 15 413

C17 414 19 414 21 413

Z

M240 395

C241 384 241 374 239 362

C237 352 236 352 235 360

C233 369 233 398 235 408

L236 415

L238 410

C238 408 239 401 240 395

Z

M313 412

C316 410 315 407 311 406

C306 405 302 409 306 412

C307 413 309 414 310 414

C310 414 312 413 313 412

Z

M349 413

C353 411 351 406 346 406

C341 406 339 411 343 413

C345 414 347 414 349 413

Z

M567 403

C569 389 568 360 565 354

C564 352 564 354 562 365

C561 374 561 400 563 408

C565 415 565 415 567 403

Z

M641 412

C644 410 643 407 639 406

C634 405 630 409 634 412

C635 413 637 414 638 414

C638 414 640 413 641 412

Z

M94 401

C96 386 94 357 91 354

C90 352 88 369 88 384

C88 399 89 414 91 412

C92 412 93 407 94 401

Z

M421 406

C423 394 423 378 422 366

C421 360 419 354 419 354

C417 352 416 368 416 384

C416 399 417 414 419 412

C419 412 420 409 421 406

Z

M132 410

C133 409 133 408 132 406

C131 404 130 404 127 404

C122 405 121 407 124 410

C126 412 129 412 132 410

Z

M202 411

C206 410 206 405 203 404

C199 404 197 404 196 406

C195 408 195 408 197 410

C200 412 199 412 202 411

Z

M460 409

C462 407 459 404 455 404

C450 405 449 407 452 410

C454 412 458 412 460 409

Z

M530 411

C534 410 534 405 531 404

C527 404 525 404 524 406

C523 408 523 408 525 410

C528 412 527 412 530 411

Z

M22 398

C25 394 20 390 16 392

C11 394 13 399 18 399

C19 399 21 398 22 398

Z

M313 397

C316 395 315 394 312 392

C310 391 309 391 307 392

C304 394 303 395 306 397

C308 399 311 399 313 397

Z

M350 398

C353 394 348 390 344 392

C339 394 341 399 346 399

C347 399 349 398 350 398

Z

M641 397

C644 395 643 394 640 392

C638 391 637 391 635 392

C632 394 631 395 634 397

C636 399 639 399 641 397

Z

M331 384

C332 376 332 369 332 362

C331 352 329 339 328 338

C326 336 325 351 325 367

C325 383 327 400 328 397

C329 396 330 390 331 384

Z

M132 395

C133 393 133 393 132 391

C129 388 122 389 122 393

C122 397 128 398 132 395

Z

M203 396

C206 394 205 391 203 390

C200 388 196 390 195 392

C195 395 197 397 200 397

C201 397 202 396 203 396

Z

M460 395

C461 393 461 393 460 391

C457 388 450 389 450 393

C450 397 456 398 460 395

Z

M531 396

C534 394 533 391 531 390

C528 388 524 390 523 392

C523 395 525 397 528 397

C529 397 530 396 531 396

Z

M41 393

C42 391 41 389 38 388

C35 388 33 388 32 390

C31 392 31 392 33 394

C35 396 39 396 41 393

Z

M296 393

C297 391 296 389 293 388

C290 388 288 388 287 390

C286 392 286 392 288 394

C290 396 294 396 296 393

Z

M366 395

C370 394 370 389 367 388

C363 388 361 388 360 390

C359 392 359 392 361 394

C364 396 363 396 366 395

Z

M624 393

C625 391 624 389 621 388

C618 388 616 388 615 390

C614 392 614 392 616 394

C618 396 622 396 624 393

Z

M112 384

C113 376 113 370 113 361

C112 346 110 334 109 336

C108 336 107 341 106 347

C104 361 105 384 109 394

C109 396 110 395 112 384

Z

M220 390

C223 375 223 353 220 339

L218 334

L217 339

C215 350 214 365 215 376

C216 385 218 395 219 395

C219 395 219 393 220 390

Z

M440 367

C440 351 439 335 437 335

C436 335 434 349 433 361

C433 372 435 391 437 394

C438 397 440 382 440 367

Z

M549 386

C550 376 550 354 548 343

C547 338 547 334 546 334

C546 335 545 338 544 343

C542 356 542 383 546 393

C546 396 547 395 549 386

Z

M150 391

C152 389 150 387 146 387

C143 387 141 387 141 388

C139 391 142 393 146 393

C147 393 149 392 150 391

Z

M186 392

C188 391 187 387 184 386

C178 385 175 389 178 392

C180 393 184 393 186 392

Z

M478 391

C480 389 478 387 474 387

C471 387 469 387 469 388

C467 391 470 393 474 393

C475 393 477 392 478 391

Z

M514 392

C515 391 515 389 515 388

C515 387 514 387 510 387

C506 387 505 387 505 389

C505 390 505 392 506 392

C508 393 513 393 514 392

Z

M41 379

C42 377 42 377 41 375

C38 372 31 373 31 377

C31 381 37 382 41 379

Z

M296 379

C297 377 297 377 296 375

C293 372 286 373 286 377

C286 381 292 382 296 379

Z

M368 380

C370 378 369 375 367 374

C364 372 360 374 359 376

C358 380 365 383 368 380

Z

M623 380

C625 378 624 375 622 374

C619 372 615 374 614 376

C613 380 620 383 623 380

Z

M21 367

C22 359 22 353 22 344

C21 332 19 319 18 319

C17 319 14 340 14 349

C14 359 17 379 18 379

C18 379 20 374 21 367

Z

M149 377

C153 374 149 370 144 371

C140 372 139 375 142 377

C145 379 146 379 149 377

Z

M184 378

C189 376 187 371 182 371

C179 371 177 373 177 375

C177 377 178 378 182 379

C182 379 183 379 184 378

Z

M312 369

C314 359 314 339 312 329

C310 318 309 318 308 325

C305 338 305 360 308 374

C309 380 310 380 312 369

Z

M348 372

C350 359 350 343 349 331

C348 324 346 319 346 319

C344 319 343 335 343 349

C343 363 344 379 346 379

C346 379 347 376 348 372

Z

M477 377

C481 374 477 370 472 371

C468 372 467 375 470 377

C473 379 474 379 477 377

Z

M512 378

C517 376 515 371 510 371

C507 371 505 373 505 375

C505 377 506 378 510 379

C510 379 511 379 512 378

Z

M640 369

C642 354 641 326 638 320

C637 318 635 327 634 339

C633 349 634 365 636 374

C637 381 638 379 640 369

Z

M59 375

C61 373 59 371 55 371

C52 371 50 371 50 372

C48 375 51 377 55 377

C56 377 58 376 59 375

Z

M130 348

C130 335 130 327 129 323

L128 316

L126 320

C123 331 122 352 125 368

C127 378 127 378 129 372

C130 368 130 360 130 348

Z

M203 349

C203 331 202 314 200 317

C199 319 197 332 196 342

C196 351 198 371 200 376

C201 380 203 366 203 349

Z

M277 376

C279 375 278 371 275 370

C269 369 266 373 269 376

C271 377 275 377 277 376

Z

M387 375

C389 373 387 371 383 371

C380 371 378 371 378 372

C376 375 379 377 383 377

C384 377 386 376 387 375

Z

M458 349

C458 331 457 314 455 317

C452 323 450 356 453 368

C455 378 455 378 457 372

C458 368 458 360 458 349

Z

M531 349

C531 332 530 314 528 317

C527 318 526 324 525 330

C524 342 524 356 526 369

C528 378 528 378 530 372

C531 368 531 361 531 349

Z

M605 376

C607 375 606 371 603 370

C597 369 594 373 597 376

C599 377 603 377 605 376

Z

M168 374

C170 372 169 369 166 368

C163 367 160 368 159 370

C157 374 165 377 168 374

Z

M496 374

C498 372 497 369 494 368

C491 367 488 368 487 370

C485 374 493 377 496 374

Z

M58 361

C61 359 60 356 56 355

C53 355 49 356 49 358

C49 360 53 363 55 363

C55 363 57 362 58 361

Z

M276 362

C280 360 278 355 273 355

C268 355 266 360 270 362

C273 363 274 363 276 362

Z

M386 361

C389 359 388 356 384 355

C381 355 379 355 378 357

C377 359 377 359 379 361

C382 363 383 363 386 361

Z

M604 362

C608 360 606 355 601 355

C596 355 594 360 598 362

C600 363 602 363 604 362

Z

M39 333

C39 315 38 300 36 302

C35 303 33 315 32 325

C32 335 33 350 35 358

L36 362

L38 356

C39 352 39 345 39 333

Z

M294 349

C296 339 295 313 293 305

L291 300

L290 304

C286 319 287 346 291 359

C291 361 291 361 292 359

C292 358 293 354 294 349

Z

M367 333

C367 317 366 299 364 300

C363 302 361 315 360 325

C360 336 362 357 364 360

C365 363 367 350 367 333

Z

M622 332

C622 319 622 311 621 307

L620 300

L618 304

C615 315 614 337 617 352

C619 362 619 362 621 356

C622 352 622 344 622 332

Z

M168 358

C170 356 168 354 164 353

C160 353 158 355 159 358

C160 360 166 361 168 358

Z

M496 358

C498 356 496 354 492 353

C488 353 486 355 487 358

C488 360 494 361 496 358

Z

M77 358

C79 356 78 354 76 352

C73 351 69 351 68 354

C66 358 74 361 77 358

Z

M148 350

C150 340 150 317 148 307

C147 302 146 299 146 298

C145 298 143 308 142 319

C142 324 142 333 142 338

C143 349 145 359 146 359

C146 358 147 355 148 350

Z

M259 358

C262 354 257 350 252 352

C248 354 250 359 255 359

C256 359 258 358 259 358

Z

M405 358

C407 356 406 353 403 352

C401 351 400 351 398 352

C395 354 394 355 397 357

C399 359 403 359 405 358

Z

M476 350

C477 345 477 337 477 329

C477 316 475 300 474 298

C473 298 471 308 470 318

C469 325 469 332 470 338

C471 349 473 359 474 359

C474 358 475 355 476 350

Z

M587 358

C590 354 585 350 580 352

C578 353 577 357 579 358

C582 359 586 359 587 358

Z

M184 351

C187 337 185 299 182 299

C180 299 179 315 179 329

C179 342 180 358 182 358

C182 358 183 355 184 351

Z

M512 350

C515 336 513 299 510 299

C508 299 507 314 507 329

C507 343 508 358 510 358

C510 358 511 355 512 350

Z

M77 342

C79 340 77 338 73 337

C69 337 67 339 68 342

C69 344 75 345 77 342

Z

M259 342

C260 341 260 340 259 339

C257 336 250 337 250 340

C250 342 250 343 251 343

C252 345 258 344 259 342

Z

M405 342

C407 340 405 338 401 337

C397 337 395 339 396 342

C397 344 403 345 405 342

Z

M587 342

C589 340 587 338 582 338

C578 338 577 339 578 343

C579 345 585 344 587 342

Z

M57 334

C58 324 58 301 57 291

C56 286 55 283 55 282

C54 282 52 292 51 303

C50 310 50 316 51 323

C52 334 54 343 55 343

C55 342 56 339 57 334

Z

M276 314

C276 298 275 281 273 283

C272 284 269 304 269 313

C269 320 272 340 273 342

C274 345 276 330 276 314

Z

M385 331

C387 321 386 295 384 287

L382 282

L381 287

C379 299 378 312 379 323

C380 329 381 336 381 339

C383 344 383 343 385 331

Z

M604 314

C604 298 603 283 601 283

C600 283 598 296 597 308

C597 318 599 340 601 342

C602 345 604 330 604 314

Z

M94 340

C97 339 96 335 94 334

C89 332 84 336 87 340

C89 341 91 341 94 340

Z

M166 332

C169 316 168 295 165 284

L164 280

L162 285

C160 293 160 323 162 333

C163 342 164 342 166 332

Z

M240 340

C244 338 241 333 236 333

C235 333 233 334 233 335

C231 337 231 337 233 339

C234 341 237 342 240 340

Z

M422 340

C425 339 424 335 422 334

C417 332 412 336 415 340

C417 341 419 341 422 340

Z

M494 328

C495 322 496 314 496 311

C496 303 494 289 493 284

L492 280

L490 285

C488 292 488 324 490 334

C492 343 492 342 494 328

Z

M568 340

C570 339 571 337 568 335

C566 333 563 333 561 335

C559 337 559 337 561 339

C562 341 565 341 568 340

Z

M95 325

C98 321 94 317 89 319

C86 320 85 324 87 325

C90 326 94 326 95 325

Z

M241 325

C243 323 242 321 240 319

C235 317 229 321 233 324

C234 326 239 326 241 325

Z

M423 325

C426 321 422 317 417 319

C414 320 413 324 415 325

C418 326 422 326 423 325

Z

M569 324

C570 322 570 322 568 320

C564 317 558 320 560 324

C561 326 562 326 565 326

C567 326 569 325 569 324

Z

M75 315

C77 301 76 271 73 265

C73 264 72 266 71 271

C69 280 69 309 71 318

C72 326 73 326 75 315

Z

M331 324

C335 322 332 317 327 317

C326 317 324 318 324 319

C322 321 322 321 324 323

C325 325 328 326 331 324

Z

M404 306

C405 294 404 275 401 266

C401 263 400 264 398 273

C396 284 396 304 398 315

C399 320 400 324 400 325

C400 328 403 316 404 306

Z

M257 316

C259 305 259 283 257 273

C256 268 255 265 255 264

C253 264 252 280 252 295

C252 309 253 324 255 324

C255 324 256 320 257 316

Z

M585 317

C587 304 587 289 586 277

C585 271 584 265 583 265

C581 263 580 280 580 295

C580 310 581 324 583 324

C583 324 584 321 585 317

Z

M112 322

C116 320 114 315 109 315

C104 315 102 320 106 322

C108 323 110 323 112 322

Z

M222 321

C226 318 221 313 215 316

C213 317 212 319 215 321

C217 323 219 323 222 321

Z

M440 322

C444 320 442 315 437 315

C432 315 430 320 434 322

C436 323 438 323 440 322

Z

M550 321

C554 318 549 313 543 316

C541 317 540 319 543 321

C545 323 547 323 550 321

Z

M332 309

C334 307 333 305 331 303

C326 301 320 305 324 308

C325 310 330 310 332 309

Z

M113 307

C116 303 111 299 107 301

C102 303 104 308 109 308

C110 308 112 307 113 307

Z

M222 306

C223 306 224 304 224 304

C224 303 220 300 218 300

C217 300 213 303 213 304

C213 306 216 308 219 308

C220 308 222 307 222 306

Z

M441 307

C444 303 439 299 435 301

C430 303 432 308 437 308

C438 308 440 307 441 307

Z

M550 306

C553 304 552 303 549 301

C546 299 544 300 542 303

C539 307 547 310 550 306

Z

M21 306

C25 304 23 299 18 299

C13 299 11 304 15 306

C17 307 19 307 21 306

Z

M240 288

C241 277 241 267 239 255

C237 245 236 245 235 253

C233 262 233 290 235 300

L236 308

L238 303

C238 301 239 294 240 288

Z

M313 305

C316 303 315 300 311 299

C306 298 302 302 306 305

C307 306 309 307 310 307

C310 307 312 306 313 305

Z

M349 306

C353 304 351 299 346 299

C341 299 339 304 343 306

C345 307 347 307 349 306

Z

M567 296

C569 282 568 253 565 247

C564 245 564 247 562 258

C561 267 561 293 563 301

C565 308 565 308 567 296

Z

M641 305

C644 303 643 300 639 299

C634 298 630 302 634 305

C635 306 637 307 638 307

C638 307 640 306 641 305

Z

M94 294

C96 279 94 250 91 247

C90 245 88 262 88 277

C88 292 89 307 91 305

C92 305 93 300 94 294

Z

M421 299

C423 287 423 271 422 259

C421 253 419 247 419 247

C417 245 416 261 416 277

C416 292 417 307 419 305

C419 305 420 302 421 299

Z

M132 303

C133 302 133 301 132 299

C131 297 130 297 127 297

C122 298 121 300 124 303

C126 305 129 305 132 303

Z

M202 304

C206 303 206 298 203 297

C199 297 197 297 196 299

C195 301 195 301 197 303

C200 305 199 305 202 304

Z

M460 302

C461 300 460 298 457 297

C454 297 452 297 451 299

C450 301 450 301 452 303

C454 305 458 305 460 302

Z

M530 304

C534 303 534 298 531 297

C527 297 525 297 524 299

C523 301 523 301 525 303

C528 305 527 305 530 304

Z

M22 291

C25 287 20 283 16 285

C11 287 13 292 18 292

C19 292 21 291 22 291

Z

M313 290

C316 288 315 287 312 285

C310 284 309 284 307 285

C304 287 303 288 306 290

C308 292 311 292 313 290

Z

M350 291

C353 287 348 283 344 285

C339 287 341 292 346 292

C347 292 349 291 350 291

Z

M641 290

C644 288 643 287 640 285

C638 284 637 284 635 285

C632 287 631 288 634 290

C636 292 639 292 641 290

Z

M331 277

C332 269 332 262 332 255

C331 245 329 232 328 231

C326 229 325 244 325 260

C325 276 327 293 328 290

C329 289 330 283 331 277

Z

M132 288

C133 286 133 286 132 284

C129 281 122 282 122 286

C122 290 128 291 132 288

Z

M204 289

C206 287 205 284 203 283

C200 281 196 283 195 285

C194 289 201 292 204 289

Z

M460 288

C461 286 461 286 460 284

C457 281 450 282 450 286

C450 290 456 291 460 288

Z

M531 289

C534 287 533 284 531 283

C528 281 524 283 523 285

C523 288 525 290 528 290

C529 290 530 289 531 289

Z

M41 286

C42 284 41 282 38 281

C35 281 33 281 32 283

C31 285 31 285 33 287

C35 289 39 289 41 286

Z

M296 286

C297 284 296 282 293 281

C290 281 288 281 287 283

C286 285 286 285 288 287

C290 289 294 289 296 286

Z

M366 288

C370 287 370 282 367 281

C363 281 361 281 360 283

C359 285 359 285 361 287

C364 289 363 289 366 288

Z

M624 286

C625 284 624 282 621 281

C618 281 616 281 615 283

C614 285 614 285 616 287

C618 289 622 289 624 286

Z

M112 277

C113 269 113 263 113 254

C112 239 110 227 109 229

C108 229 107 234 106 240

C104 254 105 277 109 287

C109 289 110 288 112 277

Z

M221 279

C223 268 223 248 220 236

L219 227

L217 231

C215 241 214 257 215 269

C216 279 218 288 219 288

C219 287 220 284 221 279

Z

M440 260

C440 244 439 228 437 228

C436 228 434 242 433 254

C433 265 435 284 437 287

C438 290 440 275 440 260

Z

M549 279

C550 269 550 247 548 236

C547 231 547 227 546 227

C546 228 545 231 544 236

C542 249 542 275 546 286

C546 289 547 288 549 279

Z

M150 284

C152 282 150 280 146 280

C143 280 141 280 141 281

C139 284 142 286 146 286

C147 286 149 285 150 284

Z

M186 285

C188 284 187 280 184 279

C178 278 175 282 178 285

C180 286 184 286 186 285

Z

M478 284

C480 282 478 280 474 280

C471 280 469 280 469 281

C467 284 470 286 474 286

C475 286 477 285 478 284

Z

M514 285

C515 284 515 282 515 281

C515 280 514 280 510 280

C506 280 505 280 505 282

C505 283 505 285 506 285

C508 286 513 286 514 285

Z

M41 272

C42 270 42 270 41 268

C38 265 31 266 31 270

C31 274 37 275 41 272

Z

M296 272

C297 270 297 270 296 268

C293 265 286 266 286 270

C286 274 292 275 296 272

Z

M368 273

C370 271 369 268 367 267

C364 265 360 267 359 269

C358 273 365 276 368 273

Z

M623 273

C625 271 624 268 622 267

C619 265 615 267 614 269

C613 273 620 276 623 273

Z

M20 265

C22 253 22 236 21 224

C20 217 18 212 18 212

C17 212 14 232 14 242

C14 251 17 272 18 272

C18 272 19 269 20 265

Z

M149 270

C153 267 149 263 144 264

C140 265 139 268 142 270

C145 272 146 272 149 270

Z

M185 271

C189 269 187 264 182 264

C177 264 175 269 179 271

C181 272 183 272 185 271

Z

M312 262

C314 252 314 232 312 222

C310 211 309 211 308 218

C305 231 305 253 308 266

C309 273 310 273 312 262

Z

M348 262

C349 256 350 247 350 242

C350 232 347 212 346 212

C344 212 343 228 343 242

C343 256 344 272 346 272

C346 272 347 267 348 262

Z

M477 270

C480 268 480 266 477 265

C471 262 466 267 470 270

C473 272 474 272 477 270

Z

M513 271

C517 269 515 264 510 264

C505 264 503 269 507 271

C509 272 511 272 513 271

Z

M640 262

C642 247 641 219 638 213

C637 211 635 220 634 232

C633 242 634 258 636 267

C637 274 638 272 640 262

Z

M59 268

C61 266 59 264 55 264

C52 264 50 264 50 265

C48 268 51 270 55 270

C56 270 58 269 59 268

Z

M130 241

C130 228 130 220 129 216

L128 209

L126 213

C123 224 122 245 125 261

C127 271 127 271 129 265

C130 261 130 253 130 241

Z

M203 242

C203 224 202 207 200 210

C197 216 195 249 198 261

C200 271 200 271 202 265

C203 261 203 254 203 242

Z

M277 269

C278 269 278 267 278 266

C278 264 277 264 274 264

C269 264 267 266 269 268

C270 270 275 271 277 269

Z

M387 268

C389 266 387 264 383 264

C380 264 378 264 378 265

C376 268 379 270 383 270

C384 270 386 269 387 268

Z

M458 242

C458 224 457 207 455 210

C452 216 450 249 453 261

C455 271 455 271 457 265

C458 261 458 253 458 242

Z

M531 242

C531 225 530 207 528 210

C527 211 526 217 525 223

C524 235 524 249 526 262

C528 271 528 271 530 265

C531 261 531 254 531 242

Z

M605 269

C607 268 606 264 603 263

C597 262 594 266 597 269

C599 270 603 270 605 269

Z

M168 267

C170 264 168 261 165 261

C161 259 157 264 160 266

C162 268 166 268 168 267

Z

M496 267

C498 265 497 262 494 261

C491 260 488 261 487 263

C485 267 493 270 496 267

Z

M58 254

C61 252 60 249 56 248

C51 247 47 251 51 254

C52 255 54 256 55 256

C55 256 57 255 58 254

Z

M276 255

C280 253 278 248 273 248

C268 248 266 253 270 255

C273 256 274 256 276 255

Z

M386 254

C390 251 385 246 379 249

C376 250 376 252 379 254

C382 256 383 256 386 254

Z

M604 255

C608 253 606 248 601 248

C596 248 594 253 598 255

C600 256 602 256 604 255

Z

M39 226

C39 208 38 193 36 195

C35 196 33 208 32 218

C32 228 33 243 35 251

L36 255

L38 249

C39 245 39 238 39 226

Z

M294 242

C296 232 295 206 293 198

L291 193

L290 197

C286 212 287 239 291 252

C291 254 291 254 292 252

C292 251 293 247 294 242

Z

M367 226

C367 208 366 193 364 195

C363 196 360 216 360 224

C360 231 363 252 364 253

C365 256 367 243 367 226

Z

M622 226

C622 214 622 205 621 200

L620 193

L618 197

C615 208 614 230 617 245

C619 255 619 255 621 249

C622 245 622 237 622 226

Z

M168 251

C170 249 168 247 164 246

C160 246 158 248 159 251

C160 253 166 254 168 251

Z

M496 251

C498 249 496 247 492 246

C488 246 486 248 487 251

C488 253 494 254 496 251

Z

M77 251

C79 249 78 247 76 245

C73 244 69 244 68 247

C66 251 74 254 77 251

Z

M148 243

C150 233 150 210 148 200

C147 195 146 192 146 191

C145 191 143 201 142 212

C142 217 142 226 142 231

C143 242 145 252 146 252

C146 251 147 248 148 243

Z

M259 251

C262 247 257 243 252 245

C248 247 250 252 255 252

C256 252 258 251 259 251

Z

M405 251

C407 249 406 246 403 245

C401 244 400 244 398 245

C395 247 394 248 397 250

C399 252 403 252 405 251

Z

M476 243

C477 238 477 230 477 222

C477 209 475 193 474 191

C473 191 471 201 470 211

C469 218 469 225 470 231

C471 242 473 252 474 252

C474 251 475 248 476 243

Z

M587 251

C590 247 585 243 580 245

C578 246 577 250 579 251

C582 252 586 252 587 251

Z

M184 244

C187 230 185 192 182 192

C180 192 179 208 179 222

C179 235 180 251 182 251

C182 251 183 248 184 244

Z

M512 243

C515 229 513 192 510 192

C508 192 507 207 507 222

C507 236 508 251 510 251

C510 251 511 248 512 243

Z

M77 235

C79 233 77 231 73 230

C69 230 67 232 68 235

C69 237 75 238 77 235

Z

M259 235

C260 234 260 233 259 232

C257 229 250 230 250 233

C250 235 250 236 251 236

C252 238 258 237 259 235

Z

M405 235

C407 233 405 231 401 230

C397 230 395 232 396 235

C397 237 403 238 405 235

Z

M587 235

C588 234 588 233 587 232

C585 229 578 230 578 233

C578 235 578 236 579 236

C580 238 586 237 587 235

Z

M57 227

C58 217 58 194 57 184

C56 179 55 176 55 175

C54 175 52 185 51 196

C50 203 50 209 51 216

C52 227 54 236 55 236

C55 235 56 232 57 227

Z

M276 207

C276 191 275 174 273 176

C272 177 269 197 269 206

C269 213 272 233 273 235

C274 238 276 223 276 207

Z

M385 224

C387 214 386 188 384 180

L382 175

L381 180

C379 192 378 205 379 216

C380 222 381 229 381 232

C383 237 383 236 385 224

Z

M604 207

C604 191 603 176 601 176

C600 176 598 189 597 201

C597 211 599 233 601 235

C602 238 604 223 604 207

Z

M95 233

C98 229 93 225 89 227

C84 229 86 234 91 234

C92 234 94 233 95 233

Z

M166 225

C169 209 168 188 165 177

L164 173

L162 178

C160 186 160 216 162 226

C163 235 164 235 166 225

Z

M240 233

C244 231 241 226 236 226

C235 226 231 229 231 230

C231 232 234 234 236 234

C237 234 239 234 240 233

Z

M422 233

C425 232 424 228 422 227

C417 225 412 229 415 233

C417 234 419 234 422 233

Z

M494 221

C495 215 496 207 496 204

C496 196 494 182 493 177

L492 173

L490 178

C488 185 488 217 490 227

C492 236 492 235 494 221

Z

M568 233

C570 232 571 230 568 228

C566 226 563 226 561 228

C559 230 559 230 561 232

C562 234 565 234 568 233

Z

M95 218

C98 214 94 210 89 212

C86 213 85 217 87 218

C90 219 94 219 95 218

Z

M241 217

C242 215 242 215 240 213

C236 210 230 213 232 217

C233 220 240 219 241 217

Z

M423 218

C426 214 422 210 417 212

C414 213 413 217 415 218

C418 219 422 219 423 218

Z

M569 217

C570 215 570 215 568 213

C564 210 558 213 560 217

C561 219 562 219 565 219

C567 219 569 218 569 217

Z

M76 199

C77 189 77 178 75 166

C73 156 72 156 71 164

C69 173 69 202 71 212

L72 219

L74 214

C74 212 75 205 76 199

Z

M331 217

C335 215 332 210 328 210

C327 210 325 211 324 212

C322 214 322 214 323 216

C325 218 328 219 331 217

Z

M404 199

C405 188 405 180 403 167

C401 156 400 156 399 166

C396 178 396 197 398 208

C399 213 400 217 400 218

C400 221 403 209 404 199

Z

M257 209

C259 198 259 176 257 166

C256 161 255 158 255 157

C253 157 252 173 252 188

C252 202 253 217 255 217

C255 217 256 213 257 209

Z

M585 210

C587 197 587 182 586 170

C585 164 584 158 583 158

C581 156 580 173 580 188

C580 203 581 217 583 217

C583 217 584 214 585 210

Z

M112 215

C116 213 114 208 109 208

C104 208 102 213 106 215

C108 216 110 216 112 215

Z

M222 214

C226 211 222 207 217 208

C213 209 213 212 215 214

C217 216 219 217 222 214

Z

M440 215

C444 213 442 208 437 208

C432 208 430 213 434 215

C436 216 438 216 440 215

Z

M550 214

C554 211 549 206 543 209

C541 210 540 212 543 214

C545 216 547 216 550 214

Z

M332 202

C334 200 333 198 331 196

C326 194 320 198 324 201

C325 203 330 203 332 202

Z

M113 200

C116 196 111 192 107 194

C102 196 104 201 109 201

C110 201 112 200 113 200

Z

M222 199

C225 197 224 196 221 194

C219 193 218 193 216 194

C213 195 212 198 215 200

C217 201 220 201 222 199

Z

M441 200

C444 196 439 192 435 194

C430 196 432 201 437 201

C438 201 440 200 441 200

Z

M550 199

C553 197 552 196 549 194

C546 192 544 193 542 196

C539 200 547 203 550 199

Z

M21 199

C25 197 23 192 18 192

C13 192 11 197 15 199

C17 200 19 200 21 199

Z

M239 190

C242 176 240 146 237 140

C237 139 236 141 235 146

C233 155 233 183 235 193

C236 201 237 201 239 190

Z

M313 198

C315 196 315 193 311 192

C306 191 302 195 306 198

C309 201 311 200 313 198

Z

M349 199

C353 197 351 192 346 192

C341 192 339 197 343 199

C345 200 347 200 349 199

Z

M567 189

C569 175 568 146 565 140

C565 139 564 143 563 148

C561 159 561 184 563 194

C565 201 565 201 567 189

Z

M641 198

C645 195 641 191 636 192

C632 193 632 196 634 198

C636 200 638 201 641 198

Z

M94 187

C96 172 94 143 91 140

C90 138 88 155 88 170

C88 185 89 200 91 198

C92 198 93 193 94 187

Z

M421 192

C423 180 423 164 422 152

C421 146 419 140 419 140

C417 138 416 154 416 170

C416 185 417 200 419 198

C419 198 420 195 421 192

Z

M132 196

C134 194 132 191 129 190

C126 190 124 190 123 192

C122 194 122 194 124 196

C126 198 129 198 132 196

Z

M202 197

C206 196 206 191 203 190

C199 190 197 190 196 192

C195 194 195 194 197 196

C200 198 199 198 202 197

Z

M460 195

C461 193 460 191 457 190

C454 190 452 190 451 192

C450 194 450 194 452 196

C454 198 458 198 460 195

Z

M530 197

C534 196 534 191 531 190

C527 190 525 190 524 192

C523 194 523 194 525 196

C528 198 527 198 530 197

Z

M22 184

C25 180 20 176 16 178

C11 180 13 185 18 185

C19 185 21 184 22 184

Z

M313 183

C316 181 315 180 312 178

C310 177 309 177 307 178

C304 180 303 181 306 183

C308 185 311 185 313 183

Z

M350 184

C353 180 348 176 344 178

C339 180 341 185 346 185

C347 185 349 184 350 184

Z

M641 183

C644 181 643 180 640 178

C638 177 637 177 635 178

C632 180 631 181 634 183

C636 185 639 185 641 183

Z

M331 170

C332 162 332 155 332 148

C331 138 329 125 328 124

C326 122 325 137 325 153

C325 169 327 186 328 183

C329 182 330 176 331 170

Z

M132 181

C133 179 133 179 132 177

C129 174 122 175 122 179

C122 183 128 184 132 181

Z

M204 182

C206 180 205 177 203 176

C200 174 196 176 195 178

C194 182 201 185 204 182

Z

M460 181

C461 179 461 179 460 177

C457 174 450 175 450 179

C450 183 456 184 460 181

Z

M532 182

C534 180 533 177 531 176

C528 174 524 176 523 178

C522 182 529 185 532 182

Z

M41 179

C42 177 41 175 38 174

C35 174 33 174 32 176

C31 178 31 178 33 180

C35 182 39 182 41 179

Z

M296 179

C297 177 296 175 293 174

C290 174 288 174 287 176

C286 178 286 178 288 180

C290 182 294 182 296 179

Z

M366 181

C370 180 370 175 367 174

C363 174 361 174 360 176

C359 178 359 178 361 180

C364 182 363 182 366 181

Z

M624 179

C625 177 624 175 621 174

C618 174 616 174 615 176

C614 178 614 178 616 180

C618 182 622 182 624 179

Z

M112 170

C113 162 113 156 113 147

C112 132 110 120 109 122

C107 124 105 143 105 156

C106 170 108 182 110 181

C110 181 111 176 112 170

Z

M220 176

C223 162 223 140 220 126

L219 121

L217 125

C215 133 214 150 215 162

C216 171 218 181 219 181

C219 181 219 179 220 176

Z

M440 153

C440 137 439 121 437 121

C436 121 434 135 433 147

C433 158 435 177 437 180

C438 183 440 168 440 153

Z

M549 169

C551 155 549 117 546 122

C542 130 542 166 546 179

C546 181 546 181 547 179

C548 178 548 174 549 169

Z

M150 177

C152 175 150 173 146 173

C143 173 141 173 141 174

C139 177 142 179 146 179

C147 179 149 178 150 177

Z

M186 178

C188 177 187 173 184 172

C180 172 177 173 177 175

C177 177 178 178 178 178

C180 179 184 179 186 178

Z

M478 177

C480 175 478 173 474 173

C471 173 469 173 469 174

C467 177 470 179 474 179

C475 179 477 178 478 177

Z

M513 178

C516 177 515 173 513 172

C508 171 505 173 505 175

C505 179 509 180 513 178

Z

M41 165

C42 163 42 163 41 161

C38 158 31 159 31 163

C31 167 37 168 41 165

Z

M296 165

C297 163 297 163 296 161

C293 158 286 159 286 163

C286 167 292 168 296 165

Z

M368 166

C370 164 369 161 367 160

C364 158 360 160 359 162

C358 166 365 169 368 166

Z

M623 166

C625 164 624 161 622 160

C619 158 615 160 614 162

C613 166 620 169 623 166

Z

M641 146

C642 135 641 117 639 109

L637 105

L636 110

C633 124 633 144 636 160

L637 167

L639 162

C639 159 640 152 641 146

Z

M20 158

C22 146 22 129 21 117

C20 110 18 105 18 105

C17 105 14 125 14 135

C14 144 17 165 18 165

C18 165 19 162 20 158

Z

M149 163

C152 161 152 159 149 158

C143 155 138 160 142 163

C145 165 146 165 149 163

Z

M185 164

C189 162 187 157 182 157

C177 157 175 162 179 164

C181 165 183 165 185 164

Z

M312 155

C314 145 314 125 312 115

C310 104 309 104 308 110

C305 124 305 146 308 159

C309 166 310 166 312 155

Z

M349 153

C350 145 350 139 350 131

C349 119 347 105 346 105

C344 105 343 121 343 135

C343 149 344 165 346 165

C346 165 348 160 349 153

Z

M477 163

C480 161 480 159 477 158

C471 155 466 160 470 163

C473 165 474 165 477 163

Z

M513 164

C517 162 515 157 510 157

C505 157 503 162 507 164

C509 165 511 165 513 164

Z

M59 161

C61 159 59 157 55 157

C52 157 50 157 50 158

C48 161 51 163 55 163

C56 163 58 162 59 161

Z

M130 134

C130 121 130 113 129 109

L128 102

L126 106

C123 117 122 138 125 154

C127 164 127 164 129 158

C130 154 130 147 130 134

Z

M203 135

C203 117 202 100 200 103

C197 109 195 142 198 154

C200 164 200 164 202 158

C203 154 203 147 203 135

Z

M277 162

C278 162 278 160 278 159

C278 157 277 157 274 157

C269 157 267 159 269 161

C270 163 275 164 277 162

Z

M387 161

C389 159 387 157 383 157

C380 157 378 157 378 158

C376 161 379 163 383 163

C384 163 386 162 387 161

Z

M458 135

C458 117 457 100 455 103

C452 109 450 142 453 154

C455 164 455 164 457 158

C458 154 458 146 458 135

Z

M531 135

C531 118 530 100 528 103

C527 104 526 110 525 116

C524 128 524 142 526 155

C528 164 528 164 530 158

C531 154 531 147 531 135

Z

M605 162

C607 161 606 157 603 156

C597 155 594 159 597 162

C599 163 603 163 605 162

Z

M168 160

C170 157 168 154 165 154

C161 152 157 157 160 159

C162 161 166 161 168 160

Z

M496 160

C498 158 497 155 494 154

C491 153 488 154 487 156

C485 160 493 163 496 160

Z

M58 147

C61 145 60 142 56 141

C51 140 47 144 51 147

C52 148 54 149 55 149

C55 149 57 148 58 147

Z

M276 148

C280 146 278 141 273 141

C268 141 266 146 270 148

C272 149 274 149 276 148

Z

M386 147

C390 144 385 139 379 142

C376 143 376 145 379 147

C382 149 383 149 386 147

Z

M604 148

C608 146 606 141 601 141

C596 141 594 146 598 148

C600 149 602 149 604 148

Z

M39 119

C39 101 38 86 36 88

C35 89 33 101 32 111

C32 121 33 136 35 144

L36 148

L38 142

C39 138 39 131 39 119

Z

M294 135

C296 125 295 99 293 91

L291 86

L290 91

C286 108 287 132 291 145

C291 147 291 147 292 145

C292 144 293 140 294 135

Z

M367 119

C367 101 366 86 364 88

C363 89 360 109 360 117

C360 124 363 145 364 146

C365 149 367 136 367 119

Z

M622 119

C622 107 622 98 621 93

L620 86

L618 90

C615 101 614 123 617 138

C619 148 619 148 621 142

C622 138 622 130 622 119

Z

M168 144

C170 142 168 140 164 139

C160 139 158 141 159 144

C160 146 166 147 168 144

Z

M496 144

C498 142 496 140 492 139

C488 139 486 141 487 144

C488 146 494 147 496 144

Z

M77 144

C79 142 78 140 76 138

C73 137 69 137 68 140

C66 144 74 147 77 144

Z

M148 136

C150 126 150 103 148 93

C147 88 146 85 146 84

C145 84 143 94 142 105

C142 110 142 119 142 124

C143 135 145 145 146 145

C146 144 147 141 148 136

Z

M259 144

C262 140 257 136 252 138

C248 140 250 145 255 145

C256 145 258 144 259 144

Z

M405 144

C407 142 406 139 403 138

C401 137 400 137 398 138

C395 140 394 141 397 143

C399 145 403 145 405 144

Z

M476 136

C477 131 477 123 477 115

C477 102 475 86 474 84

C473 84 471 94 470 104

C469 111 469 118 470 124

C471 135 473 145 474 145

C474 144 475 141 476 136

Z

M587 144

C590 140 585 136 580 138

C578 139 577 143 579 144

C582 145 586 145 587 144

Z

M184 137

C187 123 185 85 182 85

C180 85 179 101 179 115

C179 128 180 144 182 144

C182 144 183 141 184 137

Z

M512 137

C515 123 513 85 510 85

C508 85 507 100 507 115

C507 129 508 144 510 144

C510 144 511 141 512 137

Z

M77 128

C79 126 77 124 73 123

C69 123 67 125 68 128

C69 130 75 131 77 128

Z

M259 128

C260 127 260 126 259 125

C257 122 250 123 250 126

C250 128 250 129 251 129

C252 131 258 130 259 128

Z

M405 128

C407 126 405 124 401 123

C397 123 395 125 396 128

C397 130 403 131 405 128

Z

M587 128

C588 127 588 126 587 125

C585 122 578 123 578 126

C578 128 578 129 579 129

C580 131 586 130 587 128

Z

M57 120

C58 110 58 87 57 77

C56 72 55 69 55 68

C54 68 52 78 51 89

C50 96 50 102 51 109

C52 120 54 129 55 129

C55 128 56 125 57 120

Z

M276 100

C277 83 275 66 273 69

C271 72 269 90 269 98

C269 106 272 126 273 128

C274 131 276 116 276 100

Z

M385 117

C387 107 386 81 384 73

L382 68

L381 73

C379 85 378 98 379 109

C380 115 381 122 381 125

C383 130 383 129 385 117

Z

M604 100

C604 84 603 69 601 69

C600 69 598 82 597 94

C597 104 599 126 601 128

C602 131 604 116 604 100

Z

M95 126

C97 124 96 121 94 120

C89 118 84 122 87 126

C89 127 93 127 95 126

Z

M166 118

C169 102 168 81 165 70

L164 66

L162 71

C160 79 160 109 162 119

C163 128 164 128 166 118

Z

M240 126

C244 124 241 119 236 119

C235 119 231 122 231 123

C231 125 234 127 236 127

C237 127 239 127 240 126

Z

M423 126

C425 124 424 121 422 120

C417 118 412 122 415 126

C417 127 421 127 423 126

Z

M494 114

C495 108 496 100 496 97

C496 89 494 75 493 70

L492 66

L490 71

C488 78 488 110 490 120

C492 129 492 128 494 114

Z

M568 126

C570 125 571 123 568 121

C566 119 563 119 561 121

C559 123 559 123 561 125

C562 127 565 127 568 126

Z

M95 111

C98 107 94 103 89 105

C86 106 85 110 87 111

C90 112 94 112 95 111

Z

M241 110

C242 108 242 108 240 106

C236 103 230 106 232 110

C233 113 240 112 241 110

Z

M423 111

C426 107 421 103 417 105

C414 106 413 110 415 111

C418 112 422 112 423 111

Z

M569 110

C572 106 564 103 560 106

C559 107 559 108 560 110

C561 112 562 112 565 112

C567 112 569 111 569 110

Z

M75 101

C77 87 76 57 73 51

C73 50 72 52 71 57

C69 66 69 95 71 104

C72 112 73 112 75 101

Z

M331 110

C335 108 332 103 328 103

C327 103 325 104 324 105

C322 107 322 107 323 109

C325 111 328 112 331 110

Z

M404 92

C405 81 405 73 403 60

C401 49 400 49 399 59

C396 71 396 90 399 102

L400 112

L402 107

C402 105 403 98 404 92

Z

M257 102

C259 91 259 69 257 59

C256 54 255 51 255 50

C253 50 252 66 252 81

C252 95 253 110 255 110

C255 110 256 106 257 102

Z

M585 103

C587 90 587 75 586 63

C585 57 584 51 583 51

C581 49 580 66 580 81

C580 96 581 110 583 110

C583 110 584 107 585 103

Z

M112 108

C114 107 115 104 113 102

C111 101 107 101 105 102

C101 106 107 111 112 108

Z

M222 107

C223 106 224 105 223 104

C222 100 215 100 214 104

C213 106 216 109 219 109

C220 109 221 108 222 107

Z

M440 108

C442 107 443 104 441 102

C439 101 435 101 433 102

C429 106 435 111 440 108

Z

M550 107

C554 104 549 99 543 102

C541 103 540 105 543 107

C545 109 547 109 550 107

Z

M332 95

C335 91 330 87 325 89

C323 90 322 92 323 94

C324 96 330 97 332 95

Z

M113 93

C115 91 114 88 112 87

C107 85 102 89 105 93

C107 94 111 94 113 93

Z

M222 92

C225 90 224 89 221 87

C219 86 218 86 216 87

C213 88 212 91 215 93

C217 94 220 94 222 92

Z

M441 93

C444 89 439 85 435 87

C432 88 431 91 433 93

C435 94 439 94 441 93

Z

M550 92

C553 90 552 89 549 87

C547 86 546 86 544 87

C541 88 540 91 543 93

C545 94 548 94 550 92

Z

M21 92

C23 91 24 88 22 86

C20 85 16 85 14 86

C10 90 16 95 21 92

Z

M239 83

C242 69 240 39 237 33

C237 32 236 34 235 39

C233 48 233 76 235 86

C236 94 237 94 239 83

Z

M313 91

C314 90 315 89 314 88

C313 84 306 84 305 88

C304 90 307 93 310 93

C311 93 312 92 313 91

Z

M349 92

C351 91 352 88 350 86

C348 85 344 85 342 86

C338 90 344 95 349 92

Z

M567 82

C569 68 568 39 565 33

C565 32 564 36 563 41

C561 52 561 77 563 87

C565 94 565 94 567 82

Z

M641 91

C642 90 643 89 642 88

C641 84 634 84 633 88

C632 90 635 93 638 93

C639 93 640 92 641 91

Z

M94 80

C96 65 94 36 91 33

C90 31 88 48 88 63

C88 78 89 93 91 91

C92 91 93 86 94 80

Z

M421 85

C423 73 423 57 422 45

C421 39 419 33 419 33

C417 31 416 47 416 63

C416 78 417 93 419 91

C419 91 420 88 421 85

Z

M131 89

C134 87 133 84 129 83

C126 83 124 83 123 85

C122 87 122 87 124 89

C127 91 128 91 131 89

Z

M202 90

C206 89 206 84 203 83

C199 83 197 83 196 85

C195 87 195 87 197 89

C200 91 199 91 202 90

Z

M459 89

C461 87 461 84 457 83

C454 83 452 83 451 85

C450 87 450 87 452 89

C455 92 456 92 459 89

Z

M530 90

C534 89 534 84 531 83

C527 83 525 83 524 85

C523 87 523 87 525 89

C528 91 527 91 530 90

Z

M22 77

C24 75 23 72 21 71

C16 69 11 73 14 77

C16 78 20 78 22 77

Z

M313 76

C316 74 315 73 312 71

C310 70 309 70 307 71

C304 73 303 74 306 76

C308 78 311 78 313 76

Z

M350 77

C352 75 351 72 349 71

C344 69 339 73 342 77

C344 78 348 78 350 77

Z

M641 76

C644 74 643 73 640 71

C638 70 637 70 635 71

C632 73 631 74 634 76

C636 78 639 78 641 76

Z

M331 63

C332 55 332 48 332 41

C331 31 329 18 328 17

C326 15 325 30 325 46

C325 62 327 79 328 76

C329 75 330 69 331 63

Z

M132 74

C133 72 133 72 132 70

C129 67 122 68 122 72

C122 76 128 77 132 74

Z

M204 75

C206 73 205 70 203 69

C200 67 196 69 195 71

C194 75 201 78 204 75

Z

M460 74

C461 72 461 72 460 70

C457 67 450 68 450 72

C450 76 456 77 460 74

Z

M532 75

C534 73 533 70 531 69

C528 67 524 69 523 71

C522 75 529 78 532 75

Z

M40 73

C42 71 42 68 38 67

C35 67 33 67 32 69

C31 71 31 71 33 73

C36 76 37 76 40 73

Z

M295 73

C297 71 297 68 293 67

C290 67 288 67 287 69

C286 71 286 71 288 73

C291 76 292 76 295 73

Z

M366 74

C370 73 370 68 367 67

C363 67 361 67 360 69

C359 71 359 71 361 73

C364 75 363 75 366 74

Z

M624 72

C625 70 624 68 621 67

C618 67 616 67 615 69

C614 71 614 71 616 73

C618 75 622 75 624 72

Z

M112 63

C113 55 113 49 113 40

C112 25 110 13 109 15

C107 17 105 36 105 49

C106 63 108 75 110 74

C110 74 111 69 112 63

Z

M220 69

C223 55 223 33 220 19

L219 14

L217 18

C215 26 214 43 215 55

C216 64 218 74 219 74

C219 74 219 72 220 69

Z

M440 46

C440 30 439 14 437 14

C436 14 434 28 433 40

C433 51 435 70 437 73

C438 76 440 61 440 46

Z

M549 62

C551 48 549 10 546 15

C542 23 542 59 546 72

C546 74 546 74 547 72

C548 71 548 67 549 62

Z

M150 70

C152 68 150 66 146 66

C143 66 141 66 141 67

C139 70 142 72 146 72

C147 72 149 71 150 70

Z

M185 71

C188 70 187 66 185 65

C180 64 177 66 177 68

C177 72 181 73 185 71

Z

M478 70

C480 68 478 66 474 66

C471 66 469 66 469 67

C467 70 470 72 474 72

C475 72 477 71 478 70

Z

M513 71

C516 70 515 66 513 65

C508 64 505 66 505 68

C505 72 509 73 513 71

Z

M41 58

C42 56 42 56 41 54

C38 51 31 52 31 56

C31 60 37 61 41 58

Z

M296 58

C297 56 297 56 296 54

C293 51 286 52 286 56

C286 60 292 61 296 58

Z

M368 59

C370 57 369 54 367 53

C364 51 360 53 359 55

C358 59 365 62 368 59

Z

M623 59

C625 57 624 54 622 53

C619 51 615 53 614 55

C613 59 620 62 623 59

Z

M149 56

C152 54 152 52 149 51

C143 48 138 53 142 56

C145 58 146 58 149 56

Z

M185 57

C187 56 188 53 186 51

C184 50 180 50 178 51

C174 55 180 60 185 57

Z

M477 56

C480 54 480 52 477 51

C471 48 466 53 470 56

C473 58 474 58 477 56

Z

M513 57

C515 56 516 53 514 51

C512 50 508 50 506 51

C502 55 508 60 513 57

Z

M59 54

C61 52 59 50 55 50

C52 50 50 50 50 51

C48 54 51 56 55 56

C56 56 58 55 59 54

Z

M278 53

C278 50 277 50 274 50

C269 50 267 52 269 54

C270 56 272 56 274 56

C277 56 278 55 278 53

Z

M387 54

C389 52 387 50 383 50

C380 50 378 50 378 51

C376 54 379 56 383 56

C384 56 386 55 387 54

Z

M604 55

C605 55 606 54 606 52

C606 49 599 48 597 51

C595 55 600 57 604 55

Z

M168 53

C170 51 169 49 167 47

C164 46 160 46 159 49

C157 53 165 56 168 53

Z

M496 53

C498 51 497 48 494 47

C491 46 488 47 487 49

C485 53 493 56 496 53

Z

M58 40

C61 38 60 35 56 34

C51 33 47 37 51 40

C52 41 54 42 55 42

C55 42 57 41 58 40

Z

M276 41

C278 40 279 37 277 35

C275 34 271 34 269 35

C265 39 271 44 276 41

Z

M386 40

C390 37 385 32 379 35

C376 36 376 38 379 40

C382 42 383 42 386 40

Z

M604 41

C606 40 607 37 605 35

C603 34 599 34 597 35

C593 39 599 44 604 41

Z

M168 37

C170 35 168 33 164 32

C160 32 158 34 159 37

C160 39 166 40 168 37

Z

M496 37

C498 35 496 33 492 32

C488 32 486 34 487 37

C488 39 494 40 496 37

Z

M77 37

C79 35 78 33 76 31

C73 30 69 30 68 33

C66 37 74 40 77 37

Z

M259 37

C262 33 258 29 253 31

C250 32 249 36 251 37

C254 38 258 38 259 37

Z

M405 37

C407 35 406 32 403 31

C401 30 400 30 398 31

C395 33 394 34 397 36

C399 38 403 38 405 37

Z

M587 37

C590 33 585 29 580 31

C578 32 577 36 579 37

C582 38 586 38 587 37

Z

M77 21

C79 18 76 16 72 16

C68 16 66 19 68 21

C71 24 75 24 77 21

Z

M259 21

C261 17 256 15 252 17

C251 17 250 18 250 20

C250 24 257 25 259 21

Z

M405 21

C407 18 404 16 400 16

C396 16 394 19 396 21

C399 24 403 24 405 21

Z

M587 21

C589 17 584 15 580 17

C579 17 578 18 578 20

C578 24 585 25 587 21

Z

M95 19

C98 15 93 11 89 13

C84 15 86 20 91 20

C92 20 94 19 95 19

Z

M240 19

C244 17 241 12 236 12

C235 12 231 15 231 16

C231 18 234 20 236 20

C237 20 239 20 240 19

Z

M423 19

C426 15 421 11 417 13

C412 15 414 20 419 20

C420 20 422 19 423 19

Z

M568 19

C570 18 571 16 568 14

C566 12 563 12 561 14

C559 16 559 16 561 18

C562 20 565 20 568 19

Z

"/>

</svg>

