<?xml version="1.0" standalone="no"?>

<!DOCTYPE svg PUBLIC "-//W3C//DTD SVG 20010904//EN"

 "http://www.w3.org/TR/2001/REC-SVG-20010904/DTD/svg10.dtd">

<svg version="1.0" xmlns="http://www.w3.org/2000/svg"

 width="513.000000pt" height="589.000000pt" viewBox="0 0 513.000000 589.000000"

 preserveAspectRatio="xMidYMid meet">

<path fill="#f7f1ee" stroke="none" d="
M0 295

L0 0

L257 0

L513 0

L513 295

L513 589

L257 589

L0 589

L0 295

Z

"/>

<path fill="#954f4b" stroke="none" d="
M0 295

L0 0

L257 0

L513 0

L513 295

L513 589

L257 589

L0 589

L0 295

Z

M166 586

C168 583 167 579 163 578

C158 575 154 582 158 586

C160 589 164 588 166 586

Z

M335 587

C338 585 338 580 335 578

C332 577 332 577 330 578

C325 581 327 588 332 588

C333 588 334 588 335 587

Z

M508 586

C510 583 509 579 506 578

C501 576 496 582 500 586

C502 589 506 589 508 586

Z

M164 570

C168 567 165 562 160 562

C155 562 153 567 157 570

C159 572 162 572 164 570

Z

M335 571

C335 570 336 568 336 567

C336 566 335 564 335 563

C334 563 332 562 331 562

C330 562 328 563 327 563

C327 564 326 566 326 567

C326 568 327 570 327 571

C328 571 330 572 331 572

C332 572 334 571 335 571

Z

M507 570

C508 568 508 567 507 565

C507 563 506 563 503 563

C499 563 498 563 498 565

C496 571 503 574 507 570

Z

M127 559

C131 555 127 548 121 551

C117 553 119 561 124 561

C125 561 127 560 127 559

Z

M298 559

C303 555 298 548 292 551

C288 553 290 561 295 561

C296 561 297 560 298 559

Z

M111 558

C115 555 113 549 108 549

C104 549 102 555 105 558

C107 560 109 561 111 558

Z

M143 558

C146 556 145 552 142 550

C137 547 132 552 135 558

C137 560 141 561 143 558

Z

M282 558

C284 556 285 553 282 551

C279 547 274 549 274 554

C274 559 279 562 282 558

Z

M314 558

C317 556 316 552 313 550

C308 547 303 552 306 558

C308 560 312 561 314 558

Z

M472 558

C474 556 475 553 472 551

C470 548 467 549 465 551

C463 553 463 557 466 559

C468 560 470 560 472 558

Z

M454 557

C457 555 456 551 453 549

C450 548 448 549 446 552

C443 557 451 561 454 557

Z

M489 557

C490 554 490 554 489 552

C486 547 479 549 479 554

C479 559 486 561 489 557

Z

M160 555

C163 550 157 544 152 548

C151 548 150 550 150 551

C150 557 157 559 160 555

Z

M331 555

C335 552 333 546 328 546

C325 546 323 549 323 552

C323 554 326 557 328 557

C328 557 330 556 331 555

Z

M503 555

C504 554 505 552 505 551

C505 549 502 546 500 546

C497 546 494 549 494 551

C494 553 497 557 500 557

C500 557 502 556 503 555

Z

M441 551

C441 547 439 545 436 545

C431 545 429 552 434 555

C437 556 440 554 441 551

Z

M97 553

C101 551 99 544 94 544

C91 544 89 546 89 549

C89 552 90 553 92 554

C94 555 94 555 97 553

Z

M267 554

C268 554 270 553 270 551

C272 546 266 542 262 546

C259 548 260 552 262 553

C265 555 265 555 267 554

Z

M81 549

C85 546 82 541 78 541

C75 541 72 543 72 546

C72 549 75 551 78 551

C79 551 81 550 81 549

Z

M252 549

C256 546 253 541 249 541

C246 541 243 543 243 546

C243 549 246 551 249 551

C250 551 252 550 252 549

Z

M426 549

C426 548 427 546 427 545

C427 544 426 542 426 541

C425 541 423 540 422 540

C421 540 419 541 418 541

C418 542 417 544 417 545

C417 546 418 548 418 549

C419 549 421 550 422 550

C423 550 425 549 426 549

Z

M67 542

C69 539 69 538 67 536

C64 532 58 534 58 539

C58 544 65 546 67 542

Z

M239 542

C240 539 240 539 239 537

C236 532 229 534 229 539

C229 544 236 546 239 542

Z

M411 543

C412 543 413 542 413 540

C414 538 414 537 413 535

C410 531 403 533 403 539

C403 541 407 544 409 544

C410 543 411 543 411 543

Z

M154 541

C156 540 156 538 156 536

C156 533 155 532 153 532

C148 530 144 536 148 540

C150 542 152 543 154 541

Z

M327 540

C330 536 328 531 323 531

C318 531 316 538 320 540

C323 543 324 542 327 540

Z

M498 540

C499 539 500 537 500 536

C500 534 497 531 495 531

C492 531 489 534 489 536

C489 538 492 542 495 542

C495 542 497 541 498 540

Z

M444 537

C446 532 440 528 436 532

C433 534 434 538 437 540

C440 541 443 540 444 537

Z

M102 538

C106 535 104 529 99 529

C94 529 92 536 96 538

C99 540 100 540 102 538

Z

M274 538

C275 537 276 535 276 534

C276 532 273 529 271 529

C268 529 265 532 265 534

C265 536 268 540 271 540

C271 540 273 539 274 538

Z

M55 533

C56 530 56 530 55 528

C52 523 45 525 45 529

C45 535 51 537 55 533

Z

M226 533

C227 530 227 530 226 528

C224 526 223 525 221 525

C218 525 216 527 216 530

C216 533 218 535 221 535

C223 535 224 534 226 533

Z

M398 534

C398 533 399 531 399 530

C399 527 397 525 394 525

C389 525 387 530 390 534

C392 535 396 535 398 534

Z

M146 527

C147 526 148 525 149 524

C151 521 148 517 145 517

C139 517 137 524 141 526

C144 528 144 528 146 527

Z

M321 525

C322 522 322 522 321 520

C317 514 309 518 312 525

C313 526 314 527 316 527

C318 527 319 526 321 525

Z

M492 525

C495 519 489 514 484 519

C482 521 482 522 484 525

C486 528 491 528 492 525

Z

M44 524

C45 521 45 521 44 519

C41 514 34 516 34 521

C34 526 41 528 44 524

Z

M108 525

C109 524 110 523 111 522

C113 519 110 515 107 515

C101 515 99 522 103 524

C106 526 106 526 108 525

Z

M282 522

C284 516 277 513 273 517

C271 520 272 524 275 525

C278 526 281 525 282 522

Z

M385 525

C385 524 386 522 386 521

C386 518 384 516 381 516

C379 516 378 517 376 519

C375 521 375 521 376 524

C378 526 383 527 385 525

Z

M450 524

C452 522 452 520 450 518

C447 515 441 516 441 521

C441 526 447 528 450 524

Z

M213 523

C215 521 216 519 213 516

C212 514 208 513 206 516

C203 518 204 522 206 523

C209 526 211 525 213 523

Z

M54 512

C55 511 55 509 54 507

C53 503 48 503 45 506

C44 509 44 509 45 512

C47 514 48 514 50 514

C52 514 54 513 54 512

Z

M139 512

C143 509 141 504 136 504

C131 504 128 509 132 512

C134 514 137 515 139 512

Z

M224 512

C228 509 225 504 221 504

C216 504 214 508 216 512

C217 514 222 515 224 512

Z

M311 512

C315 508 311 502 306 504

C300 506 302 514 308 514

C309 514 310 513 311 512

Z

M395 512

C397 510 397 508 395 506

C392 503 386 504 386 509

C386 514 391 516 395 512

Z

M482 513

C485 511 485 506 482 504

C479 503 479 503 477 504

C472 507 474 514 479 514

C480 514 481 514 482 513

Z

M31 511

C35 508 33 502 28 502

C24 502 22 508 25 511

C27 513 29 513 31 511

Z

M202 511

C205 508 204 502 199 502

C194 502 192 507 196 511

C198 513 200 513 202 511

Z

M373 511

C375 510 376 506 373 504

C371 501 367 502 366 504

C363 507 364 509 366 511

C368 513 370 514 373 511

Z

M459 511

C461 508 461 507 459 505

C456 501 450 503 450 508

C450 513 457 515 459 511

Z

M119 511

C119 510 120 508 120 507

C120 504 118 502 115 502

C112 502 110 504 110 507

C110 510 112 512 115 512

C116 512 118 511 119 511

Z

M291 509

C293 504 287 500 283 504

C281 506 281 507 282 510

C283 512 284 512 287 512

C290 512 291 511 291 509

Z

M62 499

C63 499 64 497 64 496

C64 491 57 489 54 494

C53 496 53 496 54 499

C56 501 60 502 62 499

Z

M129 499

C133 497 131 490 125 490

C120 490 119 498 123 500

C126 501 126 501 129 499

Z

M233 499

C237 496 234 491 229 491

C224 491 222 496 226 499

C228 501 231 501 233 499

Z

M300 499

C302 498 302 497 302 495

C301 491 299 489 295 491

C291 492 291 497 294 499

C295 500 297 501 297 501

C297 501 299 500 300 499

Z

M405 499

C406 496 406 496 405 494

C402 489 395 491 395 496

C395 501 402 503 405 499

Z

M470 500

C470 499 471 497 471 496

C471 495 470 493 470 492

C469 492 467 491 466 491

C465 491 463 492 462 492

C462 493 461 495 461 496

C461 497 462 499 462 500

C463 500 465 501 466 501

C467 501 469 500 470 500

Z

M23 497

C25 495 25 494 23 491

C21 487 14 489 14 494

C14 499 20 501 23 497

Z

M195 497

C196 494 196 494 195 492

C192 487 185 489 185 494

C185 499 192 501 195 497

Z

M365 498

C365 497 366 495 366 494

C366 493 365 491 365 490

C364 490 362 489 361 489

C360 489 358 490 357 490

C357 491 356 493 356 494

C356 495 357 497 357 498

C358 498 360 499 361 499

C362 499 364 498 365 498

Z

M481 490

C484 488 484 483 481 481

C478 480 478 480 476 481

C474 483 473 484 473 486

C473 491 477 492 481 490

Z

M141 488

C142 488 143 486 143 485

C143 480 136 478 133 483

C132 485 132 485 133 488

C135 490 139 491 141 488

Z

M313 489

C313 488 314 486 314 485

C314 484 313 482 313 481

C312 481 310 480 309 480

C308 480 306 481 305 481

C305 482 304 484 304 485

C304 486 305 488 305 489

C306 489 308 490 309 490

C310 490 312 489 313 489

Z

M69 485

C72 483 71 479 69 477

C66 476 66 476 64 477

C61 479 60 484 62 486

C64 487 68 487 69 485

Z

M241 485

C242 483 242 482 241 480

C240 475 233 475 231 480

C230 486 237 489 241 485

Z

M411 485

C415 481 410 474 405 477

C400 479 402 487 408 487

C409 487 410 486 411 485

Z

M17 483

C19 480 18 476 13 475

C11 475 9 475 8 477

C4 482 12 488 17 483

Z

M188 482

C190 479 188 475 184 475

C179 475 176 480 180 483

C182 486 186 485 188 482

Z

M358 484

C358 483 359 481 359 480

C359 479 358 477 358 476

C357 476 355 475 354 475

C353 475 351 476 350 476

C350 477 349 479 349 480

C349 481 350 483 350 484

C351 484 353 485 354 485

C355 485 357 484 358 484

Z

M154 480

C156 479 157 474 155 472

C154 472 152 471 151 471

C148 471 146 473 146 476

C146 479 149 482 151 482

C151 482 153 481 154 480

Z

M327 479

C328 477 328 476 326 473

C325 471 321 470 319 473

C316 475 317 478 319 480

C321 482 325 482 327 479

Z

M496 480

C497 477 497 477 496 475

C492 470 486 472 486 478

C486 482 493 484 496 480

Z

M510 472

C512 466 505 463 502 467

C498 471 502 477 508 475

C509 475 510 473 510 472

Z

M169 473

C171 471 172 469 169 466

C167 462 160 464 160 470

C160 472 163 475 166 475

C166 475 168 474 169 473

Z

M340 473

C342 472 343 468 340 466

C338 463 334 464 333 466

C330 469 331 471 333 473

C335 475 337 476 340 473

Z

M75 471

C77 469 76 464 74 462

C71 461 71 461 69 462

C67 464 66 465 66 467

C66 470 68 472 71 472

C72 472 74 471 75 471

Z

M245 470

C248 468 247 464 244 462

C241 461 239 462 237 465

C234 470 242 474 245 470

Z

M416 470

C420 466 416 460 410 462

C407 464 406 467 408 470

C410 472 414 473 416 470

Z

M12 468

C13 466 13 465 12 463

C11 458 4 458 2 463

C1 469 8 472 12 468

Z

M183 467

C184 465 184 464 183 462

C181 458 173 460 173 465

C173 470 180 472 183 467

Z

M355 468

C357 467 358 463 355 461

C353 458 349 459 348 461

C345 464 346 466 348 468

C350 470 352 471 355 468

Z

M59 467

C60 466 61 464 61 464

C61 461 57 458 55 458

C53 458 50 461 50 463

C50 466 53 469 55 469

C56 469 58 468 59 467

Z

M28 466

C32 459 23 455 19 461

C18 462 18 464 19 465

C20 469 26 469 28 466

Z

M44 464

C46 458 39 455 36 459

C32 463 36 469 42 467

C43 467 44 465 44 464

Z

M199 467

C201 464 200 460 197 458

C194 457 191 459 190 462

C190 466 192 468 195 468

C197 468 198 467 199 467

Z

M231 466

C235 459 226 455 222 461

C221 462 221 464 222 465

C223 469 229 469 231 466

Z

M371 466

C372 463 371 460 368 458

C366 457 362 459 361 462

C361 468 368 470 371 466

Z

M402 467

C402 466 403 464 403 463

C403 462 402 460 402 459

C401 459 399 458 398 458

C397 458 395 459 394 459

C394 460 393 462 393 463

C393 464 394 466 394 467

C395 467 397 468 398 468

C399 468 401 467 402 467

Z

M215 465

C217 461 215 457 211 457

C209 457 208 458 206 460

C205 462 205 462 206 465

C208 466 209 467 211 467

C213 467 214 466 215 465

Z

M386 466

C386 465 387 463 387 462

C387 461 386 459 386 458

C385 458 383 457 382 457

C381 457 379 458 378 458

C378 459 377 461 377 462

C377 463 378 465 378 466

C379 466 381 467 382 467

C383 467 385 466 386 466

Z

M76 456

C77 456 79 455 79 453

C81 448 75 444 71 448

C68 450 69 454 71 455

C74 457 74 457 76 456

Z

M248 455

C251 453 251 448 248 447

C241 444 237 452 242 455

C243 456 245 457 245 457

C245 457 247 456 248 455

Z

M419 455

C423 453 421 446 416 446

C411 446 409 452 413 455

C414 456 416 457 416 457

C416 457 418 456 419 455

Z

M79 439

C80 438 81 436 81 436

C81 433 77 430 75 430

C73 430 70 433 70 436

C70 438 73 441 76 441

C76 441 78 440 79 439

Z

M249 440

C253 437 251 430 246 430

C244 430 241 433 241 435

C241 438 244 441 246 441

C247 441 248 440 249 440

Z

M420 440

C421 439 422 438 422 436

C422 431 417 428 414 432

C412 434 412 437 414 439

C416 441 417 441 420 440

Z

M78 423

C82 419 77 412 72 415

C69 416 69 420 70 423

C72 426 76 426 78 423

Z

M250 423

C251 420 250 415 247 415

C244 414 240 416 240 419

C240 425 247 427 250 423

Z

M419 424

C422 421 422 416 419 415

C413 412 409 419 413 423

C414 425 417 425 419 424

Z

M43 411

C44 411 45 409 45 408

C45 405 42 402 40 402

C38 402 34 405 34 408

C34 409 38 413 39 413

C40 413 42 412 43 411

Z

M214 411

C215 410 216 408 216 408

C216 405 212 402 210 402

C208 402 205 405 205 408

C205 410 208 413 211 413

C211 413 213 412 214 411

Z

M384 411

C388 408 386 402 381 402

C377 402 375 408 378 411

C380 413 382 414 384 411

Z

M27 410

C31 408 29 401 24 401

C19 401 17 406 20 410

C23 412 24 413 27 410

Z

M59 410

C60 409 61 407 61 407

C61 405 57 401 56 401

C54 401 50 405 50 407

C50 408 54 412 56 412

C56 412 58 411 59 410

Z

M198 410

C200 408 201 405 198 403

C196 400 193 401 191 403

C188 405 189 410 192 411

C195 412 196 412 198 410

Z

M229 411

C233 408 231 401 226 401

C224 401 221 404 221 406

C221 409 224 412 226 412

C227 412 228 411 229 411

Z

M368 411

C369 411 370 410 370 408

C371 406 371 405 370 403

C367 399 360 401 360 407

C360 409 364 412 366 412

C367 411 368 411 368 411

Z

M400 410

C404 407 400 400 395 402

C393 402 392 403 392 406

C392 411 396 414 400 410

Z

M76 407

C77 404 77 402 75 401

C72 397 66 400 66 404

C66 409 74 411 76 407

Z

M247 407

C248 404 248 404 247 402

C244 397 237 399 237 404

C237 409 244 411 247 407

Z

M417 407

C420 402 415 396 410 399

C406 401 407 409 413 409

C414 409 416 408 417 407

Z

M13 406

C14 403 14 403 13 401

C9 395 1 399 4 406

C5 407 6 408 8 408

C10 408 11 407 13 406

Z

M183 407

C183 406 184 404 184 403

C184 400 182 398 179 398

C176 398 174 400 174 403

C174 406 176 408 179 408

C180 408 182 407 183 407

Z

M354 406

C356 402 354 398 350 398

C348 398 347 399 345 401

C344 403 344 403 345 406

C347 407 348 408 350 408

C352 408 353 407 354 406

Z

M168 402

C170 400 169 395 167 393

C164 392 164 392 162 393

C160 395 159 396 159 398

C159 401 161 403 164 403

C165 403 167 402 168 402

Z

M338 401

C341 399 340 395 338 393

C335 392 332 393 330 396

C327 401 335 405 338 401

Z

M510 401

C511 399 511 398 510 396

C509 391 502 391 500 396

C499 402 506 405 510 401

Z

M153 394

C157 390 153 383 147 386

C145 387 144 389 145 392

C146 396 150 397 153 394

Z

M324 394

C328 390 323 383 318 386

C315 387 315 391 316 394

C318 397 322 397 324 394

Z

M496 394

C497 391 496 386 493 386

C490 385 486 387 486 390

C486 396 493 398 496 394

Z

M69 392

C71 389 71 388 69 386

C66 382 60 384 60 389

C60 394 67 396 69 392

Z

M239 392

C240 391 241 390 241 388

C241 386 238 383 235 383

C234 383 230 387 230 389

C230 391 234 394 236 394

C237 394 238 393 239 392

Z

M411 392

C411 391 412 389 412 388

C412 387 411 385 411 384

C410 384 408 383 407 383

C406 383 404 384 403 384

C403 385 402 387 402 388

C402 389 403 391 403 392

C404 392 406 393 407 393

C408 393 410 392 411 392

Z

M18 390

C19 387 19 387 18 385

C14 380 8 382 8 388

C8 392 15 394 18 390

Z

M188 391

C188 390 189 388 189 387

C189 384 187 382 184 382

C181 382 179 384 179 387

C179 390 181 392 184 392

C185 392 187 391 188 391

Z

M359 391

C359 390 360 388 360 387

C360 386 359 384 359 383

C358 383 356 382 355 382

C354 382 352 383 351 383

C351 384 350 386 350 387

C350 388 351 390 351 391

C352 391 354 392 355 392

C356 392 358 391 359 391

Z

M140 385

C144 381 140 375 135 377

C132 378 131 382 133 385

C134 387 138 388 140 385

Z

M311 385

C315 381 310 374 305 377

C300 379 302 387 308 387

C309 387 310 386 311 385

Z

M483 384

C484 381 483 379 480 377

C477 375 473 378 473 381

C473 387 480 389 483 384

Z

M62 378

C66 374 61 367 56 370

C51 372 53 380 59 380

C60 380 61 379 62 378

Z

M232 378

C234 377 235 373 232 371

C228 367 222 371 224 376

C225 380 228 381 232 378

Z

M404 378

C406 376 405 371 403 369

C400 368 400 368 398 369

C395 371 394 375 397 377

C398 379 402 379 404 378

Z

M25 375

C26 372 26 372 25 370

C20 365 13 370 16 376

C17 379 23 379 25 375

Z

M196 376

C197 373 197 373 196 371

C192 365 184 369 187 376

C188 377 189 378 191 378

C193 378 194 377 196 376

Z

M301 376

C304 370 299 365 294 368

C291 370 290 374 293 376

C295 379 299 378 301 376

Z

M366 377

C366 376 367 374 367 373

C367 372 366 370 366 369

C365 369 363 368 362 368

C361 368 359 369 358 369

C358 370 357 372 357 373

C357 374 358 376 358 377

C359 377 361 378 362 378

C363 378 365 377 366 377

Z

M128 375

C131 373 131 368 127 367

C123 365 121 367 120 371

C120 373 120 374 122 375

C123 376 125 377 125 377

C125 377 127 376 128 375

Z

M471 373

C472 372 472 371 471 369

C468 364 461 366 461 372

C462 377 469 378 471 373

Z

M53 365

C55 364 56 360 53 358

C50 354 45 357 45 362

C45 364 47 367 49 367

C50 367 52 366 53 365

Z

M141 364

C142 361 141 358 138 356

C136 355 132 357 131 360

C131 366 138 368 141 364

Z

M224 365

C224 364 225 362 225 361

C225 358 223 356 220 356

C217 356 215 358 215 361

C215 364 217 366 220 366

C221 366 223 365 224 365

Z

M311 365

C313 363 312 358 310 356

C307 355 307 355 305 356

C303 358 302 359 302 361

C302 364 304 366 307 366

C308 366 310 365 311 365

Z

M395 364

C396 363 397 361 397 361

C397 358 393 355 391 355

C389 355 386 358 386 361

C386 363 389 366 392 366

C392 366 394 365 395 364

Z

M481 364

C485 360 481 354 475 356

C473 358 472 361 474 364

C475 366 479 367 481 364

Z

M34 363

C35 360 35 360 34 358

C31 353 24 355 24 360

C24 365 31 367 34 363

Z

M119 361

C121 355 114 352 111 356

C107 360 111 366 117 364

C118 364 119 362 119 361

Z

M205 363

C206 360 206 360 205 358

C202 353 195 355 195 360

C195 365 202 367 205 363

Z

M291 363

C292 361 292 360 291 358

C291 356 290 356 287 356

C283 356 282 356 282 358

C280 361 283 365 287 365

C288 365 290 364 291 363

Z

M375 364

C375 363 376 361 376 360

C376 359 375 357 375 356

C374 356 372 355 371 355

C370 355 368 356 367 356

C367 357 366 359 366 360

C366 361 367 363 367 364

C368 364 370 365 371 365

C372 365 374 364 375 364

Z

M459 363

C461 362 462 357 460 355

C459 355 457 354 456 354

C453 354 451 356 451 359

C451 362 454 365 456 365

C456 365 458 364 459 363

Z

M44 352

C44 351 45 349 45 348

C45 345 43 343 40 343

C37 343 35 345 35 348

C35 351 37 353 40 353

C41 353 43 352 44 352

Z

M150 350

C151 347 150 345 147 343

C144 341 140 344 140 347

C140 353 147 355 150 350

Z

M215 351

C216 350 216 348 215 346

C214 342 209 342 206 345

C205 348 205 348 206 351

C208 353 209 353 211 353

C213 353 215 352 215 351

Z

M319 351

C322 349 321 345 319 343

C316 342 316 342 314 343

C311 345 311 346 311 349

C312 353 316 354 319 351

Z

M385 351

C389 348 386 343 382 343

C379 343 376 345 376 348

C376 351 379 353 382 353

C383 353 385 352 385 351

Z

M490 351

C494 347 490 341 485 343

C481 344 480 347 482 351

C484 354 488 354 490 351

Z

M281 350

C285 347 282 341 277 341

C275 341 273 344 273 347

C273 352 278 354 281 350

Z

M110 350

C110 349 111 347 111 346

C111 343 109 341 106 341

C101 341 99 346 102 350

C104 351 108 351 110 350

Z

M452 349

C453 346 453 346 452 344

C449 339 442 341 442 345

C442 351 448 353 452 349

Z

M55 341

C58 339 57 335 55 333

C52 332 52 332 50 333

C47 335 46 340 48 342

C50 343 54 343 55 341

Z

M226 341

C230 337 226 330 220 333

C218 334 217 336 218 339

C219 343 223 344 226 341

Z

M397 341

C401 337 396 330 391 333

C386 335 388 343 394 343

C395 343 396 342 397 341

Z

M156 337

C157 336 158 334 158 334

C158 332 154 328 153 328

C150 328 147 331 147 333

C147 336 150 339 152 339

C153 339 155 338 156 337

Z

M326 338

C330 336 327 328 323 328

C321 328 318 331 318 334

C318 338 322 340 326 338

Z

M497 337

C500 335 499 331 497 329

C493 327 490 328 489 332

C487 337 493 341 497 337

Z

M274 336

C277 334 277 329 274 328

C267 325 263 333 268 336

C269 337 271 338 271 338

C271 338 273 337 274 336

Z

M102 335

C105 333 104 329 102 327

C99 326 99 326 97 327

C95 329 94 330 94 332

C94 337 99 339 102 335

Z

M445 335

C448 329 443 324 438 327

C435 329 434 333 437 335

C439 338 443 337 445 335

Z

M69 333

C69 332 70 330 70 329

C70 326 68 324 65 324

C62 324 60 326 60 329

C60 332 62 334 65 334

C66 334 68 333 69 333

Z

M240 333

C240 332 241 330 241 329

C241 326 239 324 236 324

C233 324 231 326 231 329

C231 332 233 334 236 334

C237 334 239 333 240 333

Z

M411 333

C411 332 412 330 412 329

C412 326 410 324 407 324

C405 324 404 325 402 327

C401 329 401 329 402 332

C404 334 409 335 411 333

Z

M83 325

C85 323 85 321 83 319

C80 316 74 317 74 322

C74 327 80 329 83 325

Z

M254 325

C256 323 256 322 254 319

C252 315 245 317 245 322

C245 327 251 329 254 325

Z

M425 326

C425 325 426 323 426 322

C426 321 425 319 425 318

C424 318 422 317 421 317

C420 317 418 318 417 318

C417 319 416 321 416 322

C416 323 417 325 417 326

C418 326 420 327 421 327

C422 327 424 326 425 326

Z

M161 322

C165 318 160 311 155 314

C152 315 152 319 153 322

C155 325 159 325 161 322

Z

M330 323

C333 322 334 319 333 317

C332 313 329 312 325 314

C323 316 322 320 325 322

C326 324 328 324 330 323

Z

M502 321

C505 319 504 315 502 313

C499 312 499 312 497 313

C495 315 494 316 494 318

C494 323 499 325 502 321

Z

M97 320

C98 320 99 318 99 317

C99 314 96 311 94 311

C92 311 89 314 89 317

C89 322 94 324 97 320

Z

M268 320

C271 318 270 314 267 312

C262 309 257 314 260 320

C262 322 266 323 268 320

Z

M440 321

C440 320 441 318 441 317

C441 316 440 314 440 313

C439 313 437 312 436 312

C435 312 433 313 432 313

C432 314 431 316 431 317

C431 318 432 320 432 321

C433 321 435 322 436 322

C437 322 439 321 440 321

Z

M113 318

C115 317 116 312 114 310

C113 310 111 309 110 309

C107 309 105 311 105 314

C105 317 108 320 110 320

C110 320 112 319 113 318

Z

M145 318

C146 317 147 316 147 315

C147 312 144 309 142 309

C140 309 136 312 136 315

C136 317 140 320 142 320

C143 320 144 319 145 318

Z

M284 318

C286 317 287 312 285 310

C284 310 282 309 281 309

C278 309 276 311 276 314

C276 317 279 320 281 320

C281 320 283 319 284 318

Z

M316 318

C317 317 318 316 318 315

C318 312 315 309 313 309

C311 309 307 312 307 315

C307 317 311 320 313 320

C314 320 315 319 316 318

Z

M456 318

C457 316 457 312 455 311

C452 307 444 311 447 316

C449 320 452 320 456 318

Z

M487 318

C488 317 489 315 489 315

C489 312 485 309 483 309

C481 309 478 312 478 315

C478 317 481 320 484 320

C484 320 486 319 487 318

Z

M129 317

C133 315 131 308 126 308

C123 308 121 310 121 313

C121 316 124 319 126 319

C126 319 128 318 129 317

Z

M300 317

C304 315 302 308 297 308

C292 308 290 313 293 317

C296 319 297 320 300 317

Z

M471 317

C472 316 473 314 473 313

C473 311 470 308 468 308

C465 308 462 311 462 313

C462 315 465 319 468 319

C468 319 470 318 471 317

Z

M165 306

C166 305 166 303 165 301

C164 297 159 297 156 300

C155 303 155 303 156 306

C158 308 159 308 161 308

C163 308 165 307 165 306

Z

M336 305

C337 304 337 302 336 301

C332 295 323 299 327 306

C329 309 335 309 336 305

Z

M507 306

C508 303 508 303 507 301

C503 296 497 298 497 304

C497 308 504 310 507 306

Z

M165 291

C168 289 168 284 165 283

C158 280 154 288 159 291

C160 292 162 293 162 293

C162 293 164 292 165 291

Z

M336 291

C338 290 339 286 336 284

C334 281 330 282 329 284

C326 287 327 289 329 291

C331 293 333 294 336 291

Z

M507 291

C509 289 510 287 507 284

C506 282 502 281 500 284

C497 286 498 290 500 291

C503 294 505 293 507 291

Z

M164 275

C167 273 166 268 164 267

C161 266 159 266 158 268

C154 271 157 277 161 277

C162 277 164 276 164 275

Z

M335 275

C336 274 337 273 337 272

C337 269 334 266 332 266

C330 266 326 269 326 272

C326 274 330 277 332 277

C333 277 334 276 335 275

Z

M506 275

C507 274 508 272 508 272

C508 269 504 266 502 266

C500 266 497 269 497 271

C497 273 500 277 503 277

C503 277 505 276 506 275

Z

M470 263

C471 261 471 260 470 258

C469 253 462 253 460 258

C459 264 466 267 470 263

Z

M131 262

C132 259 132 259 131 257

C127 251 119 255 122 262

C123 263 124 264 126 264

C128 264 129 263 131 262

Z

M301 262

C303 259 302 256 299 254

C295 253 292 255 291 258

C291 264 298 266 301 262

Z

M453 262

C456 260 455 256 452 254

C447 251 442 256 445 262

C447 264 451 265 453 262

Z

M486 262

C487 259 487 259 486 257

C482 251 474 255 477 262

C478 263 479 264 481 264

C483 264 484 263 486 262

Z

M115 261

C116 259 116 258 115 256

C114 251 107 251 105 256

C104 262 111 265 115 261

Z

M147 260

C150 256 143 251 138 254

C137 256 137 260 138 262

C140 264 145 263 147 260

Z

M284 261

C288 257 283 250 278 253

C273 255 275 263 281 263

C282 263 283 262 284 261

Z

M316 262

C316 261 317 259 317 258

C317 255 315 253 312 253

C309 253 307 255 307 258

C307 259 308 261 308 262

C309 262 311 263 312 263

C313 263 315 262 316 262

Z

M162 260

C162 259 163 257 163 256

C163 255 162 253 162 252

C161 252 159 251 158 251

C157 251 155 252 154 252

C154 253 153 255 153 256

C153 259 155 261 158 261

C159 261 161 260 162 260

Z

M333 258

C335 254 333 252 329 251

C327 251 326 251 324 253

C323 256 323 256 324 259

C327 262 332 262 333 258

Z

M437 260

C438 259 439 258 439 256

C439 251 434 248 431 252

C429 254 429 257 431 259

C433 261 434 261 437 260

Z

M501 260

C501 259 502 257 502 256

C502 253 500 251 497 251

C494 251 492 253 492 256

C492 257 493 259 493 260

C494 260 496 261 497 261

C498 261 500 260 501 260

Z

M99 257

C100 255 100 254 99 252

C99 250 98 250 95 250

C91 250 90 250 90 252

C88 255 91 259 95 259

C96 259 98 258 99 257

Z

M270 257

C271 254 271 254 270 252

C267 247 260 249 260 253

C260 259 266 261 270 257

Z

M80 254

C83 250 81 245 76 245

C71 245 69 252 73 254

C76 257 77 256 80 254

Z

M422 254

C424 253 425 248 423 246

C420 243 414 246 414 251

C414 253 417 256 419 256

C419 256 421 255 422 254

Z

M252 253

C256 250 252 243 247 245

C244 246 243 251 245 254

C247 255 251 255 252 253

Z

M66 247

C66 246 67 244 67 243

C67 240 65 238 62 238

C59 238 57 240 57 243

C57 246 59 248 62 248

C63 248 65 247 66 247

Z

M238 246

C239 245 240 243 240 243

C240 241 236 237 235 237

C232 237 229 240 229 242

C229 245 232 248 234 248

C235 248 237 247 238 246

Z

M409 247

C409 246 410 244 410 243

C410 240 408 238 405 238

C402 238 400 240 400 243

C400 246 402 248 405 248

C406 248 408 247 409 247

Z

M157 245

C157 244 158 242 158 241

C158 240 157 238 157 237

C156 237 154 236 153 236

C152 236 150 237 149 237

C149 238 148 240 148 241

C148 242 149 244 149 245

C150 245 152 246 153 246

C154 246 156 245 157 245

Z

M327 244

C329 243 329 239 328 237

C326 235 321 236 319 239

C318 241 318 241 319 244

C321 246 325 247 327 244

Z

M443 244

C445 243 446 239 443 237

C439 233 433 237 435 242

C436 246 439 247 443 244

Z

M497 244

C498 242 498 238 496 237

C494 234 490 235 488 238

C487 240 487 240 488 243

C490 245 495 246 497 244

Z

M104 242

C106 238 104 234 100 234

C98 234 97 235 95 237

C94 239 94 239 95 242

C97 243 98 244 100 244

C102 244 103 243 104 242

Z

M274 242

C278 239 275 234 270 234

C265 234 263 239 267 242

C269 244 272 244 274 242

Z

M52 238

C55 236 55 231 51 230

C47 228 45 230 44 234

C44 236 44 237 46 238

C47 239 49 240 49 240

C49 240 51 239 52 238

Z

M224 236

C226 230 219 227 216 231

C212 235 216 241 222 239

C223 239 224 237 224 236

Z

M395 238

C398 236 398 231 394 230

C390 228 388 230 387 233

C386 235 387 236 388 238

C391 240 392 241 395 238

Z

M148 231

C151 230 152 227 151 225

C150 221 147 220 143 222

C141 224 140 228 143 230

C144 232 146 232 148 231

Z

M320 230

C322 228 322 225 320 223

C317 219 312 222 312 227

C312 232 317 234 320 230

Z

M451 230

C452 228 452 224 451 222

C450 222 448 221 447 221

C444 221 442 223 442 226

C442 231 447 233 451 230

Z

M490 230

C490 229 491 227 491 226

C491 223 489 221 486 221

C483 221 481 223 481 226

C481 229 483 231 486 231

C487 231 489 230 490 230

Z

M110 228

C113 226 112 222 110 220

C107 219 107 219 105 220

C102 222 101 227 103 229

C105 230 109 230 110 228

Z

M281 228

C285 224 281 218 276 220

C272 221 271 224 273 228

C275 231 279 231 281 228

Z

M384 228

C385 225 385 225 384 223

C380 218 374 220 374 226

C374 230 381 232 384 228

Z

M40 228

C44 226 41 218 37 218

C35 218 32 221 32 224

C32 228 36 230 40 228

Z

M211 227

C214 225 213 221 211 219

C207 217 204 218 203 222

C201 227 207 231 211 227

Z

M52 217

C53 216 54 214 54 214

C54 211 51 208 49 208

C46 208 43 211 43 213

C43 215 46 219 49 219

C49 219 51 218 52 217

Z

M141 217

C142 216 143 214 143 213

C143 211 140 208 138 208

C135 208 132 211 132 213

C132 215 135 219 138 219

C138 219 140 218 141 217

Z

M222 217

C224 216 225 211 223 209

C220 206 214 209 214 214

C214 216 217 219 219 219

C219 219 221 218 222 217

Z

M310 218

C311 218 313 217 313 215

C315 210 309 206 305 210

C302 212 303 216 305 217

C308 219 308 219 310 218

Z

M393 217

C397 215 395 208 389 208

C386 208 383 212 385 215

C386 217 389 219 390 219

C390 219 392 218 393 217

Z

M460 217

C460 216 461 214 461 213

C461 210 459 208 456 208

C453 208 451 210 451 213

C451 216 453 218 456 218

C457 218 459 217 460 217

Z

M480 217

C483 214 483 209 480 208

C474 205 470 212 474 216

C475 218 478 218 480 217

Z

M30 215

C33 213 32 209 29 207

C24 204 19 209 22 215

C24 217 28 218 30 215

Z

M119 215

C122 213 121 209 119 207

C115 205 112 206 111 210

C109 215 115 219 119 215

Z

M202 215

C205 209 200 204 195 207

C192 209 191 213 194 215

C196 218 200 217 202 215

Z

M290 215

C294 211 289 204 284 207

C279 209 281 217 287 217

C288 217 289 216 290 215

Z

M373 215

C376 213 375 209 372 207

C367 204 362 209 365 215

C367 217 371 218 373 215

Z

M471 204

C472 202 472 201 470 198

C469 196 465 195 463 198

C460 200 461 203 463 205

C465 207 469 207 471 204

Z

M62 202

C65 197 58 193 54 197

C52 198 52 201 53 203

C56 207 61 206 62 202

Z

M231 204

C233 203 234 198 232 196

C231 196 229 195 228 195

C225 195 223 197 223 200

C223 203 226 206 228 206

C228 206 230 205 231 204

Z

M403 204

C404 202 404 198 402 197

C399 193 391 197 394 202

C396 206 399 206 403 204

Z

M131 203

C133 200 132 196 129 195

C125 194 121 196 121 200

C121 205 128 207 131 203

Z

M301 204

C301 203 302 201 302 200

C302 197 300 195 297 195

C294 195 292 197 292 200

C292 203 294 205 297 205

C298 205 300 204 301 204

Z

M21 202

C24 200 24 195 21 194

C15 191 10 197 15 202

C17 204 19 204 21 202

Z

M192 202

C194 201 195 197 192 195

C190 192 186 193 185 195

C182 198 183 200 185 202

C187 204 189 205 192 202

Z

M364 202

C367 200 367 195 364 194

C358 191 353 197 358 202

C360 204 362 204 364 202

Z

M482 194

C486 191 483 186 478 186

C473 186 471 191 475 194

C477 196 480 196 482 194

Z

M142 193

C143 192 144 190 144 190

C144 187 140 184 138 184

C136 184 133 187 133 189

C133 192 136 195 138 195

C139 195 141 194 142 193

Z

M312 194

C314 193 314 191 314 189

C314 186 313 185 311 185

C306 183 302 189 306 193

C308 195 310 196 312 194

Z

M68 189

C72 186 69 181 65 181

C62 181 59 183 59 186

C59 189 62 191 65 191

C66 191 68 190 68 189

Z

M240 189

C241 186 241 186 240 184

C238 182 237 181 235 181

C232 181 230 183 230 186

C230 189 232 191 235 191

C237 191 238 190 240 189

Z

M410 190

C410 189 411 187 411 186

C411 183 409 181 406 181

C403 181 401 183 401 186

C401 189 403 191 406 191

C407 191 409 190 410 190

Z

M15 188

C16 186 16 182 15 180

C14 180 12 179 11 179

C8 179 6 181 6 184

C6 187 8 189 11 189

C12 189 14 188 15 188

Z

M186 187

C187 186 187 184 186 182

C185 178 180 178 177 181

C176 184 176 184 177 187

C179 189 180 189 182 189

C184 189 186 188 186 187

Z

M358 188

C358 187 359 185 359 184

C359 181 357 179 354 179

C351 179 349 181 349 184

C349 187 351 189 354 189

C355 189 357 188 358 188

Z

M496 186

C497 184 497 180 495 179

C493 176 489 177 487 179

C484 185 490 190 496 186

Z

M155 184

C158 182 157 177 154 176

C148 174 144 179 147 183

C149 187 153 187 155 184

Z

M327 183

C328 181 328 180 327 178

C325 174 317 176 317 181

C317 186 324 188 327 183

Z

M510 179

C511 177 512 176 512 175

C512 173 508 170 506 170

C501 170 499 176 503 179

C506 182 507 181 510 179

Z

M170 178

C170 177 171 175 171 174

C171 173 170 171 170 170

C169 170 167 169 166 169

C165 169 163 170 162 170

C162 171 161 173 161 174

C161 175 162 177 162 178

C163 178 165 179 166 179

C167 179 169 178 170 178

Z

M340 177

C344 174 342 169 337 169

C335 169 331 171 331 173

C331 174 332 176 333 177

C334 179 338 180 340 177

Z

M74 174

C76 170 74 166 70 166

C68 166 67 167 65 169

C64 171 64 171 65 174

C67 175 68 176 70 176

C72 176 73 175 74 174

Z

M415 175

C415 174 416 172 416 171

C416 168 414 166 411 166

C408 166 406 168 406 171

C406 174 408 176 411 176

C412 176 414 175 415 175

Z

M12 173

C16 169 12 163 7 165

C3 166 2 169 4 173

C6 175 10 176 12 173

Z

M247 173

C249 171 250 168 247 166

C244 162 239 165 239 170

C239 174 244 177 247 173

Z

M185 173

C185 172 186 170 186 169

C186 168 185 166 185 165

C184 165 182 164 181 164

C180 164 178 165 177 165

C177 166 176 168 176 169

C176 170 177 172 177 173

C178 173 180 174 181 174

C182 174 184 173 185 173

Z

M356 171

C358 167 356 165 352 164

C350 164 349 164 347 166

C346 169 346 169 347 172

C350 175 355 175 356 171

Z

M29 170

C32 165 26 159 21 163

C20 163 19 165 19 166

C19 172 26 174 29 170

Z

M58 170

C62 167 59 162 55 162

C52 162 49 164 49 167

C49 170 52 172 55 172

C56 172 58 171 58 170

Z

M231 171

C232 171 233 170 233 168

C234 166 234 165 233 163

C230 159 223 161 223 167

C223 169 227 172 229 172

C230 171 231 171 231 171

Z

M369 170

C370 169 371 168 371 167

C371 164 368 161 366 161

C364 161 360 164 360 167

C360 169 364 172 366 172

C367 172 368 171 369 170

Z

M401 170

C403 168 403 166 401 164

C398 161 392 162 392 167

C392 172 398 174 401 170

Z

M44 169

C45 166 45 166 44 164

C42 162 41 161 39 161

C36 161 34 163 34 166

C34 169 36 171 39 171

C41 171 42 170 44 169

Z

M200 169

C204 166 202 161 197 161

C194 161 191 164 191 166

C191 170 197 173 200 169

Z

M385 169

C389 167 387 160 382 160

C379 160 377 162 377 165

C377 168 380 171 382 171

C382 171 384 170 385 169

Z

M216 168

C218 166 218 164 216 162

C213 159 207 160 207 165

C207 170 213 172 216 168

Z

M76 159

C78 157 78 154 76 152

C73 148 68 151 68 156

C68 161 73 163 76 159

Z

M247 159

C248 158 249 157 249 155

C249 153 246 150 243 150

C242 150 238 154 238 156

C238 158 242 161 244 161

C245 161 246 160 247 159

Z

M418 159

C419 158 420 156 420 156

C420 154 416 150 415 150

C412 150 409 153 409 155

C409 158 412 161 414 161

C415 161 417 160 418 159

Z

M78 144

C80 142 79 137 77 135

C74 134 74 134 72 135

C68 137 68 142 71 144

C73 145 76 145 78 144

Z

M248 143

C251 141 250 137 248 136

C245 134 242 135 240 138

C238 143 244 147 248 143

Z

M419 143

C423 139 418 132 413 135

C408 137 410 145 416 145

C417 145 418 144 419 143

Z

M78 127

C79 124 79 124 78 122

C76 119 71 118 69 120

C68 122 68 126 69 128

C71 130 76 129 78 127

Z

M248 128

C248 127 249 125 249 124

C249 121 247 119 244 119

C241 119 239 121 239 124

C239 125 240 127 240 128

C242 129 246 129 248 128

Z

M418 127

C422 124 420 119 415 119

C410 119 407 124 411 127

C413 129 416 130 418 127

Z

M44 116

C46 112 44 108 40 108

C38 108 37 109 35 111

C34 113 34 113 35 116

C37 117 38 118 40 118

C42 118 43 117 44 116

Z

M215 116

C216 113 216 113 215 111

C211 105 203 109 206 116

C207 117 208 118 210 118

C212 118 213 117 215 116

Z

M385 117

C385 116 386 114 386 113

C386 110 384 108 381 108

C378 108 376 110 376 113

C376 114 377 116 377 117

C379 118 383 118 385 117

Z

M27 115

C30 113 29 109 27 107

C24 106 24 106 22 107

C19 109 19 110 19 113

C20 117 24 118 27 115

Z

M59 115

C61 113 61 111 59 109

C56 106 50 107 50 112

C50 117 56 119 59 115

Z

M199 115

C200 113 200 112 199 110

C198 105 191 105 189 110

C188 116 195 119 199 115

Z

M231 115

C232 112 232 112 231 110

C229 108 228 107 226 107

C223 107 221 109 221 112

C221 115 223 117 226 117

C228 117 229 116 231 115

Z

M369 115

C371 112 370 109 367 107

C362 105 358 111 362 115

C364 118 368 117 369 115

Z

M401 116

C401 115 402 113 402 112

C402 109 400 107 397 107

C394 107 392 109 392 112

C392 113 393 115 393 116

C395 117 399 117 401 116

Z

M12 112

C15 109 15 108 12 105

C10 103 8 102 5 105

C3 106 2 110 5 112

C7 115 10 114 12 112

Z

M72 113

C73 113 75 112 75 110

C77 105 71 101 67 105

C64 107 65 111 67 112

C70 114 70 114 72 113

Z

M182 112

C184 110 184 107 182 105

C179 101 174 104 174 109

C174 114 179 116 182 112

Z

M244 112

C248 110 246 103 241 103

C236 103 234 108 238 112

C240 114 241 114 244 112

Z

M353 112

C354 111 355 110 355 108

C355 106 352 103 349 103

C348 103 344 107 344 109

C344 111 348 114 350 114

C351 114 352 113 353 112

Z

M417 111

C419 106 413 102 409 106

C407 108 407 109 408 112

C409 114 410 114 413 114

C416 114 417 113 417 111

Z

M167 107

C172 104 168 96 162 99

C158 100 158 105 161 107

C162 108 164 109 164 109

C164 109 166 108 167 107

Z

M338 107

C342 105 340 98 335 98

C333 98 329 101 329 104

C329 105 333 109 334 109

C335 109 337 108 338 107

Z

M509 107

C510 106 511 104 511 104

C511 101 508 98 506 98

C503 98 500 101 500 103

C500 105 503 109 506 109

C506 109 508 108 509 107

Z

M153 100

C157 98 155 91 150 91

C145 91 143 96 146 100

C149 102 150 103 153 100

Z

M325 98

C327 92 320 89 317 93

C313 97 317 103 323 101

C324 101 325 99 325 98

Z

M493 101

C495 100 496 99 496 98

C497 95 494 91 492 91

C486 91 484 98 488 100

C491 102 490 102 493 101

Z

M67 98

C68 98 70 97 70 95

C72 90 66 86 62 90

C59 92 60 96 62 97

C65 99 65 99 67 98

Z

M187 97

C188 95 188 91 186 90

C183 86 175 90 178 95

C180 99 183 99 187 97

Z

M239 97

C244 94 240 86 234 89

C230 90 230 95 233 97

C234 98 236 99 236 99

C236 99 238 98 239 97

Z

M360 95

C361 94 361 93 360 91

C357 86 350 88 350 94

C351 99 358 100 360 95

Z

M410 97

C412 96 413 92 410 90

C408 87 404 88 403 90

C400 93 401 95 403 97

C405 99 407 100 410 97

Z

M16 97

C18 95 17 90 14 88

C12 86 8 89 7 92

C7 96 9 98 12 98

C14 98 15 97 16 97

Z

M140 91

C142 90 143 86 140 84

C136 80 130 84 132 89

C133 93 136 94 140 91

Z

M311 91

C312 90 313 88 313 87

C313 85 310 82 308 82

C305 82 302 85 302 87

C302 89 305 93 308 93

C308 93 310 92 311 91

Z

M482 91

C485 87 483 82 478 82

C473 82 471 89 475 91

C478 94 479 93 482 91

Z

M24 82

C25 79 25 79 24 77

C21 72 14 74 14 79

C14 84 21 86 24 82

Z

M62 82

C64 80 64 78 62 76

C60 73 55 73 54 77

C51 82 57 87 62 82

Z

M129 82

C131 81 132 77 129 75

C125 71 119 75 121 80

C122 82 123 83 126 84

C126 84 128 83 129 82

Z

M194 83

C194 82 195 80 195 79

C195 76 193 74 190 74

C187 74 185 76 185 79

C185 80 186 82 186 83

C188 84 192 84 194 83

Z

M233 83

C233 82 234 80 234 79

C234 76 232 74 229 74

C226 74 224 76 224 79

C224 80 225 82 225 83

C227 84 231 84 233 83

Z

M366 82

C370 79 367 74 363 74

C360 74 357 76 357 79

C357 82 360 84 363 84

C364 84 366 83 366 82

Z

M404 83

C404 82 405 80 405 79

C405 76 403 74 400 74

C398 74 397 75 395 77

C394 79 394 79 395 82

C397 84 402 85 404 83

Z

M299 80

C303 76 299 70 294 72

C290 73 289 76 291 80

C293 82 297 83 299 80

Z

M471 80

C473 76 472 73 468 72

C463 70 459 76 463 80

C465 83 469 82 471 80

Z

M140 70

C141 69 142 67 142 67

C142 64 138 61 136 61

C134 61 131 64 131 67

C131 69 134 72 137 72

C137 72 139 71 140 70

Z

M310 70

C312 68 313 65 310 63

C307 59 302 61 302 66

C302 71 307 74 310 70

Z

M481 70

C482 70 483 68 483 67

C483 64 480 61 478 61

C476 61 472 64 472 67

C472 68 476 72 477 72

C478 72 480 71 481 70

Z

M53 69

C57 65 53 59 48 61

C44 62 43 65 45 69

C47 71 51 72 53 69

Z

M203 70

C203 69 204 67 204 66

C204 63 202 61 199 61

C196 61 194 63 194 66

C194 67 195 69 195 70

C197 71 201 71 203 70

Z

M225 69

C227 65 226 62 222 61

C217 59 213 65 217 69

C219 72 223 71 225 69

Z

M375 69

C379 66 376 61 371 61

C366 61 364 66 368 69

C370 71 373 71 375 69

Z

M395 70

C397 68 396 63 394 61

C391 60 391 60 389 61

C385 63 385 68 388 70

C390 71 393 71 395 70

Z

M118 68

C122 64 117 57 112 60

C107 62 109 70 115 70

C116 70 117 69 118 68

Z

M290 68

C293 63 287 57 282 61

C281 61 280 63 280 64

C280 70 287 72 290 68

Z

M459 69

C462 67 462 62 459 60

C456 59 456 59 454 60

C452 62 451 63 451 65

C451 70 455 71 459 69

Z

M32 68

C33 66 33 62 32 60

C31 60 29 59 28 59

C27 59 25 60 24 60

C23 62 23 66 24 68

C26 69 30 69 32 68

Z

M148 58

C150 58 151 53 150 51

C147 46 140 48 140 54

C140 56 144 59 146 59

C147 58 148 58 148 58

Z

M214 58

C216 56 215 51 213 49

C210 48 210 48 208 49

C206 51 205 52 205 54

C205 57 207 59 210 59

C211 59 213 58 214 58

Z

M319 57

C323 55 321 48 316 48

C311 48 309 53 312 57

C315 59 316 60 319 57

Z

M490 57

C492 56 493 52 490 50

C488 47 484 48 483 50

C480 53 481 55 483 57

C485 59 487 60 490 57

Z

M42 56

C43 55 44 53 44 52

C44 50 41 47 39 47

C36 47 33 50 33 52

C33 54 36 58 39 58

C39 58 41 57 42 56

Z

M385 56

C386 55 387 53 387 52

C387 50 384 47 382 47

C379 47 376 50 376 52

C376 54 379 58 382 58

C382 58 384 57 385 56

Z

M109 55

C111 53 112 50 109 48

C106 44 101 47 101 52

C101 56 106 59 109 55

Z

M280 55

C281 55 282 53 282 52

C282 49 279 46 276 46

C275 46 271 50 271 52

C271 53 275 57 276 57

C277 57 279 56 280 55

Z

M451 55

C452 54 453 52 453 52

C453 49 449 46 447 46

C445 46 442 49 442 51

C442 54 445 57 447 57

C448 57 450 56 451 55

Z

M54 45

C58 42 55 37 50 37

C47 37 46 38 46 40

C44 45 51 49 54 45

Z

M226 45

C227 42 227 42 226 40

C224 38 223 37 221 37

C218 37 216 39 216 42

C216 45 218 47 221 47

C223 47 224 46 226 45

Z

M397 45

C401 42 398 37 394 37

C390 37 388 39 388 42

C388 45 391 47 394 47

C395 47 397 46 397 45

Z

M157 42

C158 40 158 40 157 37

C154 32 147 34 147 39

C147 44 153 46 157 42

Z

M327 43

C327 42 328 40 328 39

C328 36 326 34 323 34

C320 34 318 36 318 39

C318 42 320 44 323 44

C324 44 326 43 327 43

Z

M498 43

C499 41 499 37 497 36

C495 33 491 34 489 37

C488 39 488 39 489 42

C491 44 496 45 498 43

Z

M102 41

C105 39 105 34 101 33

C97 31 95 33 94 37

C94 39 94 40 96 41

C97 42 99 43 99 43

C99 43 101 42 102 41

Z

M273 41

C277 39 275 32 269 32

C264 32 263 40 267 42

C270 43 270 43 273 41

Z

M445 40

C446 38 446 37 444 34

C443 32 439 31 437 34

C434 36 435 39 437 41

C439 43 443 43 445 40

Z

M67 37

C71 35 69 28 63 28

C60 28 57 32 59 35

C60 37 63 39 64 39

C64 39 66 38 67 37

Z

M239 36

C240 34 240 32 238 30

C236 28 233 27 231 30

C228 32 229 35 231 37

C233 39 237 39 239 36

Z

M410 37

C414 35 412 28 406 28

C403 28 400 32 402 35

C403 37 406 39 407 39

C407 39 409 38 410 37

Z

M81 30

C85 27 83 21 78 21

C73 21 71 28 75 30

C78 32 79 32 81 30

Z

M252 30

C254 29 255 25 252 23

C248 19 242 23 244 28

C245 32 248 33 252 30

Z

M424 30

C428 27 426 21 421 21

C416 21 414 28 418 30

C421 32 422 32 424 30

Z

M162 26

C164 20 157 17 154 21

C150 25 154 31 160 29

C161 29 162 27 162 26

Z

M333 26

C335 23 332 19 329 19

C323 19 321 26 326 29

C329 30 331 29 333 26

Z

M502 28

C504 27 505 22 503 20

C501 19 497 19 495 20

C493 22 494 27 496 28

C497 29 499 30 499 30

C499 30 501 29 502 28

Z

M97 26

C99 25 100 20 98 18

C96 17 92 17 90 18

C88 20 89 25 91 26

C92 27 94 28 94 28

C94 28 96 27 97 26

Z

M267 25

C269 24 270 20 267 18

C264 14 259 17 259 22

C259 24 261 27 263 27

C264 27 266 26 267 25

Z

M439 25

C443 22 441 16 436 16

C431 16 429 23 433 25

C436 27 437 27 439 25

Z

M145 25

C149 22 147 15 142 15

C138 15 136 21 139 24

C141 26 143 27 145 25

Z

M115 22

C117 17 111 13 107 17

C105 19 105 20 106 23

C107 25 108 25 111 25

C114 25 115 24 115 22

Z

M131 21

C132 20 132 19 131 17

C128 12 121 14 121 20

C122 25 129 26 131 21

Z

M284 23

C288 20 284 13 279 15

C277 15 276 16 276 19

C276 24 280 27 284 23

Z

M316 23

C317 23 318 21 318 20

C318 15 310 13 308 17

C305 23 312 27 316 23

Z

M300 22

C303 20 302 16 300 14

C296 12 293 13 292 17

C290 22 296 26 300 22

Z

M455 22

C456 22 457 20 457 19

C457 16 454 13 452 13

C450 13 446 16 446 19

C446 20 450 24 451 24

C452 24 454 23 455 22

Z

M488 22

C490 18 489 15 485 14

C480 12 476 18 480 22

C482 25 486 25 488 22

Z

M471 21

C472 20 473 19 473 17

C473 15 470 12 467 12

C466 12 462 16 462 18

C462 20 466 23 468 23

C469 23 470 22 471 21

Z

M164 12

C169 8 164 1 158 4

C156 5 155 7 156 10

C157 14 161 15 164 12

Z

M335 12

C339 8 334 1 329 4

C324 6 326 14 332 14

C333 14 334 13 335 12

Z

M505 13

C508 10 508 5 505 4

C499 1 495 8 499 12

C500 14 503 14 505 13

Z

"/>

</svg>

