<?xml version="1.0" standalone="no"?>

<!DOCTYPE svg PUBLIC "-//W3C//DTD SVG 20010904//EN"

 "http://www.w3.org/TR/2001/REC-SVG-20010904/DTD/svg10.dtd">

<svg version="1.0" xmlns="http://www.w3.org/2000/svg"

 width="539.000000pt" height="591.000000pt" viewBox="0 0 539.000000 591.000000"

 preserveAspectRatio="xMidYMid meet">

<path fill="#f8f7f7" stroke="none" d="
M0 296

L0 0

L270 0

L539 0

L539 296

L539 591

L270 591

L0 591

L0 296

Z

"/>

<path fill="#5e4c5f" stroke="none" d="
M13 296

L13 0

L20 0

L26 0

L26 296

L26 591

L20 591

L13 591

L13 296

Z

M40 296

L40 0

L47 0

L53 0

L53 296

L53 591

L47 591

L40 591

L40 296

Z

M66 296

L66 0

L73 0

L79 0

L79 296

L79 591

L73 591

L66 591

L66 296

Z

M92 296

L92 0

L97 0

L103 0

L106 6

C113 16 122 22 134 23

C142 23 146 22 149 17

C153 11 151 3 146 1

C144 0 145 0 150 0

C156 0 156 0 157 3

C161 9 162 18 162 30

C162 51 156 65 144 71

C138 74 137 74 137 69

C137 63 134 60 129 60

C119 60 118 75 128 81

C133 83 144 82 151 79

C160 74 167 66 171 53

C174 44 175 22 172 11

C171 7 170 3 169 2

C169 0 169 0 174 0

L180 0

L180 296

L180 591

L174 591

L169 591

L165 585

C163 582 160 578 158 577

C149 569 134 567 127 571

C121 575 119 583 123 588

L125 591

L120 591

L115 591

L113 586

C107 568 109 542 118 529

C121 525 127 521 132 519

C135 519 135 519 135 522

C135 527 136 530 140 532

C148 535 154 527 149 517

C147 512 143 510 134 510

C121 511 111 518 104 530

C97 544 96 568 101 585

L103 591

L97 591

L92 591

L92 296

Z

M150 552

C166 545 174 528 174 503

C174 474 162 454 141 451

C132 450 126 452 123 457

C119 464 122 473 129 473

C134 473 137 470 137 464

C137 459 138 459 144 462

C160 470 167 499 160 525

C157 535 148 544 140 546

C137 546 137 546 137 543

C137 538 136 535 133 533

C129 532 126 532 123 536

C119 541 121 549 128 553

C132 556 142 555 150 552

Z

M144 494

C151 490 153 481 148 476

C145 473 143 472 139 474

C136 476 135 479 135 484

C135 487 135 487 132 487

C120 484 112 472 110 452

C107 428 117 404 132 401

C135 401 135 401 135 405

C135 408 135 410 137 412

C142 417 151 413 151 405

C151 397 143 390 133 392

C120 394 110 400 105 412

C99 423 98 430 98 443

C98 470 107 488 125 494

C132 496 140 497 144 494

Z

M150 434

C166 426 174 409 174 385

C174 366 170 353 161 344

C152 334 136 329 127 335

C121 339 119 348 123 353

C129 358 137 354 137 346

C137 342 137 342 140 342

C151 345 159 357 162 375

C166 400 156 423 140 427

C137 428 137 428 137 425

C138 424 137 421 136 419

C134 413 127 412 123 417

C119 422 122 433 130 436

C133 438 145 436 150 434

Z

M144 376

C153 370 153 358 144 355

C139 354 134 360 135 366

L135 369

L131 368

C128 367 125 365 121 361

C116 356 115 354 112 347

C110 340 110 337 110 326

C110 313 111 306 115 298

C119 290 128 283 133 283

C135 283 135 284 135 287

C135 291 135 292 137 294

C141 297 145 297 149 294

C154 289 151 279 143 275

C135 271 119 276 111 284

C102 294 98 308 98 326

C98 344 102 357 111 366

C121 377 136 381 144 376

Z

M150 315

C161 311 169 299 172 285

C174 277 174 256 172 248

C168 229 155 216 138 214

C131 214 127 216 123 221

C117 230 124 241 133 236

C136 235 138 229 137 226

C137 223 137 223 140 224

C155 228 162 243 162 267

C162 290 155 305 140 309

C137 310 137 310 137 307

C138 304 136 298 133 297

C124 292 117 303 123 312

C128 320 138 321 150 315

Z

M143 258

C151 254 154 244 149 239

C145 236 141 236 137 239

C135 241 135 242 135 246

C135 251 133 251 127 248

C120 244 115 237 111 225

C109 218 109 199 111 191

C114 178 122 167 131 165

L135 164

L135 167

C133 175 142 181 148 175

C155 168 148 155 136 155

C134 155 129 156 126 157

C117 160 108 167 104 176

C96 194 96 221 104 237

C111 254 131 264 143 258

Z

M143 200

C158 196 168 185 172 167

C175 158 175 138 172 129

C170 119 167 114 161 107

C146 92 123 92 121 109

C121 113 121 114 123 116

C129 122 139 117 137 108

C137 105 137 105 140 106

C144 107 147 109 152 113

C158 121 162 129 163 144

C164 164 156 184 145 189

C138 192 137 192 137 187

C137 179 129 175 123 180

C118 186 122 197 131 200

C135 201 137 201 143 200

Z

M143 140

C151 136 154 127 149 121

C143 116 135 120 135 128

C135 132 135 132 132 132

C117 129 107 105 110 81

C112 61 120 49 132 47

C135 46 135 46 135 49

C134 53 136 57 139 59

C143 61 145 60 148 57

C156 50 148 37 136 37

C111 37 95 63 98 98

C101 122 112 137 130 141

C137 142 138 142 143 140

Z

M134 590

C137 588 138 584 137 581

C137 578 137 578 140 578

C146 580 155 587 155 590

C155 591 150 591 144 591

C135 591 133 591 134 590

Z

M193 296

L193 0

L200 0

L206 0

L206 296

L206 591

L200 591

L193 591

L193 296

Z

M219 296

L219 0

L226 0

L232 0

L232 296

L232 591

L226 591

L219 591

L219 296

Z

M245 296

L245 0

L252 0

L258 0

L258 296

L258 591

L252 591

L245 591

L245 296

Z

M272 296

L272 0

L277 0

C282 0 283 0 286 5

C289 11 296 18 302 20

C305 22 308 22 315 22

C323 22 323 22 327 19

C332 13 332 4 326 1

C324 0 324 0 330 0

L336 0

L338 5

C341 12 342 19 342 30

C342 51 335 66 324 71

C317 74 316 74 317 69

C317 64 314 60 309 60

C304 60 301 63 301 69

C301 73 302 75 304 78

L308 82

L317 81

C324 81 326 81 331 79

C342 73 349 61 353 46

C355 35 354 17 351 7

L348 0

L354 0

L359 0

L359 296

L359 591

L354 591

C348 591 348 591 346 587

C342 581 335 574 329 572

C322 569 311 568 307 571

C301 575 299 585 303 589

L305 591

L300 591

L295 591

L292 584

C289 574 288 558 290 547

C293 534 300 524 309 520

C314 518 315 519 315 523

C315 529 317 532 322 532

C332 532 334 521 326 513

C323 511 322 511 315 511

C308 511 306 511 301 513

C286 521 278 538 278 562

C278 574 278 576 282 589

C282 591 282 591 277 591

L272 591

L272 296

Z

M330 552

C346 544 355 525 354 500

C353 477 345 462 331 455

C325 451 316 450 311 451

C299 454 297 473 309 473

C314 473 317 469 317 464

C316 459 317 459 324 462

C335 467 342 482 342 503

C342 524 335 539 323 544

C317 547 316 547 317 542

C318 536 312 531 306 533

C302 535 301 537 301 541

C301 546 303 551 307 553

C312 556 323 555 330 552

Z

M324 494

C334 487 332 474 322 474

C317 474 315 477 315 483

C315 485 314 487 314 487

C311 487 302 482 300 479

C288 466 286 436 294 418

C298 409 307 401 313 401

C315 401 315 402 314 404

C314 407 316 412 318 413

C321 415 326 414 328 412

C331 409 331 405 330 401

C327 393 320 390 311 392

C290 396 278 415 278 444

C278 462 281 474 290 484

C299 494 316 499 324 494

Z

M325 435

C343 430 354 411 354 385

C354 357 343 338 323 333

C314 331 310 332 305 337

C301 340 301 341 301 346

C301 352 304 355 309 355

C314 355 317 351 317 346

L316 342

L320 342

C332 344 341 359 342 381

C343 405 337 420 324 426

C317 429 316 429 317 424

C317 421 317 420 314 417

C305 408 296 421 303 431

C307 437 315 438 325 435

Z

M323 376

C327 374 330 370 331 365

C331 362 331 361 328 358

C326 356 324 355 323 355

C321 355 319 356 317 358

C314 361 314 362 314 365

C315 369 315 369 312 368

C297 365 288 346 289 322

C290 300 299 285 312 283

C315 283 315 283 314 286

C314 291 318 296 323 296

C327 296 331 291 331 286

C330 281 327 277 322 274

C314 271 300 275 292 283

C282 293 278 306 278 326

C278 343 281 355 289 365

C297 375 314 381 323 376

Z

M331 315

C345 308 354 290 354 267

C354 243 345 225 331 218

C314 210 300 215 301 230

C301 233 305 237 309 237

C314 237 317 233 317 228

C317 224 317 224 319 224

C323 224 330 229 334 234

C335 236 338 241 339 245

C341 251 342 253 342 267

C342 280 341 282 339 288

C335 299 328 307 320 309

L316 310

L317 305

C317 302 317 301 315 299

C309 293 301 297 301 305

C301 318 315 323 331 315

Z

M323 258

C331 255 333 244 328 239

C322 234 313 239 314 247

C315 250 315 250 312 250

C299 248 290 233 289 211

C288 187 297 168 312 165

C315 164 315 164 314 168

C314 171 314 172 317 175

C321 179 324 179 328 175

C331 172 331 171 331 168

C330 159 323 155 313 155

C297 157 285 168 279 188

C277 197 277 218 279 227

C284 244 294 255 307 258

C314 260 318 260 323 258

Z

M324 199

C343 194 354 176 354 148

C354 118 340 98 318 96

C313 96 311 96 308 98

C302 101 299 110 302 116

C307 123 318 117 317 108

C316 104 317 104 324 107

C337 113 343 128 342 152

C341 174 332 189 320 191

L316 191

L317 187

C317 184 317 183 315 181

C311 177 307 177 303 180

C300 183 300 191 304 195

C309 201 314 202 324 199

Z

M324 139

C327 137 331 131 331 128

C331 125 328 120 326 120

C324 119 320 119 318 120

C316 121 314 126 314 129

C315 133 313 133 308 130

C299 126 293 117 290 104

C287 86 290 65 300 54

C302 51 311 46 314 46

C314 46 315 48 315 50

C315 56 317 59 322 59

C333 59 334 46 324 39

C316 34 299 39 290 49

C279 61 275 82 278 103

C280 114 284 123 291 130

C300 140 315 144 324 139

Z

M315 588

C317 586 317 584 317 582

C316 578 316 578 321 579

C325 580 335 588 335 590

C335 591 330 591 324 591

L313 591

L315 588

Z

M373 296

L373 0

L380 0

L386 0

L386 296

L386 591

L380 591

L373 591

L373 296

Z

M399 296

L399 0

L406 0

L412 0

L412 296

L412 591

L406 591

L399 591

L399 296

Z

M425 296

L425 0

L432 0

L438 0

L438 296

L438 591

L432 591

L425 591

L425 296

Z

M451 296

L451 0

L457 0

L463 0

L465 4

C470 15 481 22 493 23

C504 23 510 19 510 9

C510 5 509 3 506 1

C504 0 504 0 509 0

C512 0 515 1 516 1

C519 5 521 16 522 27

C523 49 516 66 504 71

C498 74 496 74 497 70

C497 67 495 62 493 61

C492 60 490 60 488 60

C479 60 477 72 486 79

C489 82 490 82 495 82

C513 82 526 70 531 50

C535 36 534 18 530 5

L528 0

L534 0

L539 0

L539 296

L539 591

L534 591

C528 591 528 591 525 586

C518 576 509 570 498 569

C491 569 490 569 487 571

C480 576 478 584 483 589

C484 591 484 591 480 591

C476 591 475 591 474 588

C469 580 468 558 471 545

C473 533 480 524 488 521

C494 518 495 518 494 523

C494 527 496 531 500 532

C503 533 508 532 509 529

C511 526 510 520 508 516

C505 512 501 510 495 510

C477 510 463 524 458 546

C456 556 457 575 460 584

C461 588 462 591 462 591

C462 591 460 591 457 591

L451 591

L451 296

Z

M510 551

C520 546 528 536 532 522

C534 513 534 493 532 484

C526 462 512 450 492 451

C486 451 479 461 480 467

C482 472 488 475 493 472

C495 471 497 466 497 463

C496 459 498 459 504 462

C515 467 522 483 522 503

C522 526 513 542 499 545

C497 546 497 546 497 542

C497 536 494 533 489 533

C480 533 477 544 485 551

C489 555 490 555 498 555

C503 554 506 554 510 551

Z

M504 494

C512 489 512 476 504 473

C499 472 493 478 494 484

C495 487 494 487 492 486

C481 484 474 475 470 460

C468 451 469 430 472 422

C475 413 479 407 485 404

C488 402 491 401 493 401

C494 401 495 402 494 405

C493 413 502 417 508 412

C511 408 511 401 507 397

C503 393 498 391 492 392

C471 395 458 412 457 441

C456 468 467 489 485 495

C492 497 500 496 504 494

Z

M510 433

C518 430 523 424 527 416

C533 404 535 387 533 371

C529 349 517 336 500 333

C490 331 482 335 480 344

C480 348 482 353 484 354

C486 355 491 355 493 354

C495 353 497 348 497 345

C496 342 496 342 498 342

C501 342 507 345 511 349

C525 364 526 401 512 419

C510 422 503 426 499 427

C496 428 496 428 496 423

C496 420 496 418 494 416

C490 413 487 413 483 417

C480 420 480 421 480 424

C481 429 483 432 487 435

C492 438 502 437 510 433

Z

M503 376

C510 373 513 362 508 357

C502 352 493 357 494 365

C495 369 495 369 492 368

C481 366 473 356 470 340

C468 331 469 311 472 304

C476 293 483 285 491 283

L495 283

L494 287

C493 294 501 299 507 294

C510 292 510 291 510 287

C510 283 509 281 507 279

C503 274 498 272 490 274

C482 276 477 278 471 284

C461 294 456 310 457 330

C458 346 462 357 470 366

C479 376 494 381 503 376

Z

M504 317

C523 312 533 294 533 267

C533 249 530 237 522 227

C516 220 504 214 495 214

C488 214 481 219 480 227

C480 230 480 231 483 234

C487 238 490 238 494 234

C497 231 497 230 497 227

L496 223

L500 224

C509 227 515 234 519 246

C521 252 522 256 522 267

C522 277 521 281 519 287

C515 299 509 306 500 309

L496 310

L497 306

C497 303 497 302 494 299

C490 295 487 295 483 299

C480 302 480 303 480 306

C481 311 484 315 488 317

C492 319 497 319 504 317

Z

M501 259

C507 256 510 252 510 246

C510 242 510 241 507 239

C504 236 499 236 496 240

C494 242 494 243 494 246

L495 250

L491 250

C483 248 476 240 472 229

C469 222 468 202 470 193

C473 177 481 167 492 165

C495 164 495 164 494 168

C493 176 502 181 508 176

C513 170 510 160 502 157

C494 153 478 157 470 167

C453 185 453 228 470 248

C478 257 493 262 501 259

Z

M509 197

C513 196 517 193 520 189

C538 170 538 128 521 107

C513 98 495 93 487 98

C483 101 481 104 480 109

C480 112 480 113 483 116

C487 120 490 120 494 117

C496 115 497 113 497 110

C497 105 497 105 499 106

C509 108 517 118 521 133

C523 146 522 164 517 174

C514 183 504 191 498 191

C496 191 496 191 497 188

C497 185 495 180 493 179

C492 178 490 178 489 178

C481 178 478 187 483 195

C487 201 498 202 509 197

Z

M500 141

C502 140 505 138 507 136

C513 130 510 119 502 119

C497 119 494 123 494 128

C495 131 494 132 492 132

C491 132 488 131 485 129

C479 125 474 118 471 110

C469 102 468 81 470 73

C474 58 481 49 492 47

C494 46 495 46 494 49

C493 58 502 63 508 57

C512 53 509 42 503 38

C498 36 488 37 481 40

C465 48 456 67 457 93

C458 120 470 137 490 141

C495 142 496 142 500 141

Z

M495 589

C496 587 497 585 497 582

C497 580 497 578 498 578

C502 578 512 585 514 589

C515 591 514 591 504 591

L493 591

L495 589

Z

M127 11

C123 9 116 3 116 1

C116 0 122 0 129 0

C140 0 141 0 139 2

C136 3 135 6 135 11

C135 15 134 15 127 11

Z

M307 12

C303 10 296 3 296 1

C296 0 301 0 309 0

C319 0 321 0 319 1

C316 3 314 7 314 11

C315 15 313 15 307 12

Z

M488 12

C484 10 478 5 476 2

C475 0 476 0 488 0

C497 0 501 1 499 1

C496 2 494 6 494 10

C495 15 494 15 488 12

Z

"/>

</svg>

