<?xml version="1.0" standalone="no"?>

<!DOCTYPE svg PUBLIC "-//W3C//DTD SVG 20010904//EN"

 "http://www.w3.org/TR/2001/REC-SVG-20010904/DTD/svg10.dtd">

<svg version="1.0" xmlns="http://www.w3.org/2000/svg"

 width="590.000000pt" height="590.000000pt" viewBox="0 0 590.000000 590.000000"

 preserveAspectRatio="xMidYMid meet">

<path fill="#e7e7e9" stroke="none" d="
M0 295

L0 0

L295 0

L590 0

L590 295

L590 590

L295 590

L0 590

L0 295

Z

"/>

<path fill="#40516c" stroke="none" d="
M0 584

L0 579

L4 579

C8 579 8 580 9 583

C10 588 8 590 3 590

L0 590

L0 584

Z

M28 589

C21 588 16 585 16 583

C16 581 16 581 21 583

C27 585 36 585 43 584

C49 583 50 583 48 585

C46 588 35 590 28 589

Z

M57 589

C56 588 55 587 56 582

C56 577 56 574 54 571

L52 566

L54 566

C58 566 67 571 78 579

C84 584 90 588 92 588

C95 590 94 590 77 590

C67 590 58 590 57 589

Z

M128 589

C129 589 129 589 130 589

C130 590 129 590 128 590

C127 590 127 590 128 589

Z

M133 589

C132 587 144 576 148 574

C153 571 156 572 159 574

C162 576 162 577 161 581

C161 584 161 587 162 588

C163 590 163 590 148 590

C137 590 133 590 133 589

Z

M165 588

C164 587 164 585 164 582

C165 575 163 572 158 570

C152 568 147 570 138 578

L131 585

L127 582

C125 580 123 579 121 578

C117 577 111 579 107 581

C102 586 97 587 94 586

C92 586 86 582 81 578

C68 568 63 565 57 564

C52 563 51 562 53 560

C54 559 54 559 53 557

C51 556 50 556 48 559

C46 561 45 562 42 562

C38 562 36 561 37 559

C38 558 37 557 35 556

C33 554 33 554 30 556

C28 557 27 558 28 559

C29 561 29 561 22 562

C20 563 19 562 18 560

C17 558 17 558 20 554

C26 548 35 545 51 543

L58 543

L65 547

C76 555 86 558 96 559

C112 560 119 557 119 550

C119 547 119 546 123 544

C128 542 130 540 130 535

C130 529 124 522 116 520

C113 519 112 518 114 516

C115 516 114 515 112 513

C108 511 109 509 114 508

C119 507 119 507 125 511

C142 523 171 531 185 529

C188 528 195 528 201 527

C206 527 212 525 215 525

C217 524 219 523 220 523

C220 523 220 526 220 529

C220 533 220 536 220 537

C220 538 220 539 218 539

C213 539 212 539 210 541

C207 544 207 551 211 556

C214 561 218 563 234 569

C244 573 249 577 249 582

C249 588 240 590 223 589

C215 588 214 588 212 586

L210 584

L207 587

C204 590 202 591 197 589

C195 589 195 588 196 587

C197 586 196 585 194 584

C192 582 192 582 189 584

C188 585 187 586 187 587

C188 589 186 590 181 590

C179 590 178 589 176 587

C174 584 173 583 171 586

C170 587 170 587 171 589

C172 590 172 590 169 590

C168 590 166 589 165 588

Z

M258 589

C260 589 265 588 269 588

C273 588 278 589 280 589

C283 590 280 590 269 590

C258 590 255 590 258 589

Z

M292 588

C284 586 278 586 266 586

L251 587

L252 584

C253 577 247 571 231 565

C219 561 215 558 212 553

C210 548 210 546 211 543

C213 542 213 542 216 544

L220 545

L223 542

L227 539

L232 541

C237 543 237 543 237 545

C237 547 238 549 240 550

C242 552 242 552 245 551

C247 550 247 549 247 546

C247 544 247 543 254 542

L261 540

L263 542

C264 544 266 545 267 545

C267 545 270 546 272 547

C277 549 277 552 273 555

C271 556 270 557 271 558

C272 558 272 559 271 561

C268 567 272 573 281 575

C284 576 296 577 307 577

C318 578 329 578 333 579

C342 581 350 583 352 584

C353 585 355 586 357 586

C359 586 363 587 367 588

L373 590

L337 590

C307 590 300 589 292 588

Z

M398 588

C401 585 403 579 403 575

C403 573 402 571 400 568

C396 565 392 564 383 562

C380 562 378 561 378 560

C378 559 377 556 375 553

C373 547 373 547 374 545

C375 544 376 543 375 542

C374 538 383 536 399 537

C409 538 412 538 418 537

C421 536 425 535 425 536

C425 536 424 537 423 538

C419 541 419 541 423 543

C425 544 426 544 428 541

L431 538

L437 540

C443 541 443 542 442 544

C442 546 442 547 445 549

L448 551

L450 549

C452 547 453 546 452 544

C452 541 452 541 456 541

C459 540 462 540 463 539

C465 539 465 539 465 541

C465 546 470 549 486 553

C491 554 494 555 493 555

C493 556 487 556 481 556

C472 556 469 557 466 559

C462 561 458 568 458 574

C458 578 462 586 466 588

C470 590 467 590 460 588

C449 585 432 585 424 588

C419 590 416 590 407 590

L396 590

L398 588

Z

M430 589

C431 589 436 588 441 588

C446 588 451 589 453 589

C454 590 449 590 441 590

C433 590 428 590 430 589

Z

M469 587

C461 580 459 573 463 566

C466 561 470 559 481 559

C488 559 492 558 495 557

C499 556 500 556 506 562

C510 566 511 568 510 572

C508 575 500 584 500 583

C500 582 499 583 497 584

C495 585 494 587 494 588

C494 590 493 590 484 590

C474 590 473 590 469 587

Z

M504 587

C503 585 503 584 507 581

C509 579 511 576 512 574

L514 570

L515 572

C518 577 525 579 536 580

C543 581 545 581 543 582

C542 582 537 584 533 586

C526 590 525 590 516 590

C506 590 505 590 504 587

Z

M533 590

C533 589 539 586 545 584

C554 581 567 579 579 578

L590 578

L590 584

L590 590

L562 590

C546 590 533 590 533 590

Z

M105 588

C104 588 105 587 108 585

C114 581 117 580 120 581

C123 582 127 585 127 586

C127 588 108 590 105 588

Z

M381 588

C373 587 361 584 360 583

C360 582 359 580 359 579

C358 577 359 577 361 576

C362 576 365 575 368 574

C372 573 372 573 374 576

C376 579 377 579 379 578

C383 577 383 576 380 574

C377 572 377 571 378 567

C378 565 381 564 389 566

C396 568 400 571 400 576

C400 580 397 585 394 587

C392 588 385 589 381 588

Z

M26 581

C21 580 15 577 15 576

C15 573 16 573 20 575

C27 578 34 578 42 577

C46 576 49 576 50 576

C50 578 46 580 40 581

C33 582 31 582 26 581

Z

M341 578

C335 577 334 576 336 574

C337 573 338 573 343 575

C346 576 349 577 349 578

C349 580 348 580 341 578

Z

M529 577

C519 574 515 570 515 563

C515 556 521 552 531 552

C537 552 538 552 539 554

C540 556 540 557 538 559

L536 562

L539 565

C544 571 545 571 569 571

L590 570

L590 573

L590 576

L573 576

C563 576 553 576 550 577

C542 578 535 578 529 577

Z

M0 574

C0 571 0 571 5 571

C10 571 11 571 9 574

C9 576 7 576 4 576

C0 576 0 576 0 574

Z

M296 574

C280 573 273 571 273 565

C273 562 274 560 275 560

C276 560 277 559 279 557

L282 554

L287 555

C294 558 294 558 293 560

C292 561 293 562 295 564

C298 567 298 567 300 566

C302 565 303 563 303 561

C303 558 304 558 309 557

C311 556 314 555 315 555

C316 554 317 555 319 557

C321 560 322 560 324 559

C326 558 327 557 327 556

C327 556 328 555 329 555

C331 555 332 555 332 563

C332 571 331 572 329 573

C326 575 318 575 296 574

Z

M22 572

C19 571 17 569 17 569

C17 568 20 566 24 566

C27 565 28 565 29 569

C30 571 31 573 31 573

C31 575 26 574 22 572

Z

M35 573

C34 572 35 570 36 569

C37 568 38 567 38 566

C37 565 38 565 41 565

C46 566 48 568 48 570

C48 573 36 576 35 573

Z

M344 571

C340 570 338 569 338 567

L338 565

L344 567

C348 569 351 569 358 569

C362 568 367 568 368 567

C371 567 371 567 371 568

C369 573 352 574 344 571

Z

M546 568

C541 565 541 564 543 561

C545 558 546 558 550 559

C553 559 554 560 554 561

C553 562 554 564 556 565

C558 566 558 566 561 565

C562 563 563 562 563 561

C562 560 563 559 567 559

C570 558 572 558 572 559

C574 563 576 564 578 564

C581 563 581 561 578 558

L576 556

L579 554

C581 552 583 551 587 546

L590 543

L590 555

L590 568

L576 568

C569 568 560 568 556 569

C552 569 549 569 546 568

Z

M0 555

L0 542

L4 541

C10 538 20 536 29 536

C37 536 51 538 51 540

C51 540 48 541 43 542

C32 543 25 546 18 553

C14 556 11 558 11 558

C10 558 11 559 11 560

C12 561 12 563 12 565

C12 568 12 568 6 568

L0 568

L0 555

Z

M348 565

C342 563 337 561 337 559

C338 557 338 557 344 560

C349 562 361 562 367 560

C371 559 371 559 371 561

C370 564 355 567 348 565

Z

M511 562

C510 561 505 557 501 554

C501 554 502 553 503 550

C507 546 507 543 504 538

C501 533 490 527 476 524

C472 523 471 523 469 518

C466 512 466 512 468 510

C470 508 470 508 468 506

C466 504 465 505 463 508

C462 510 461 511 458 511

C456 511 455 511 455 510

C455 510 457 508 460 507

C462 505 467 503 469 501

C479 494 488 496 500 507

C504 511 509 515 512 516

C517 519 531 521 545 522

L554 522

L554 525

C554 527 554 528 552 528

C551 528 548 529 545 530

L541 531

L539 529

C536 526 535 525 532 527

C530 528 530 528 532 530

C535 533 535 533 535 541

L536 549

L531 549

C521 549 515 552 513 560

C512 563 511 563 511 562

Z

M348 557

C344 556 339 554 339 553

C339 552 342 550 346 549

C349 549 350 549 351 553

C352 555 353 557 353 557

C353 558 350 558 348 557

Z

M357 557

C356 556 357 555 358 554

C359 552 360 551 359 550

C359 548 367 549 369 551

C370 553 370 556 369 556

C365 558 357 558 357 557

Z

M90 556

C83 554 65 546 65 544

C65 543 72 543 84 545

C87 546 92 547 96 547

C100 548 106 548 109 548

L116 547

L116 550

C116 553 115 554 113 555

C109 557 97 557 90 556

Z

M549 555

C545 554 542 552 542 550

C542 549 546 547 551 547

C556 546 556 546 556 548

C556 549 555 550 555 551

C554 552 553 553 553 554

C553 555 552 555 549 555

Z

M563 555

C562 555 562 554 563 554

C563 553 562 552 562 551

C561 550 560 549 560 548

C560 546 563 546 570 549

C574 551 574 551 573 552

C571 554 563 556 563 555

Z

M288 552

C284 551 281 548 282 546

C283 546 284 547 286 548

C290 550 303 550 311 549

C315 548 315 548 315 550

C314 554 296 555 288 552

Z

M322 552

C322 552 322 549 322 545

C322 540 322 537 320 534

L317 529

L320 525

C326 517 338 512 353 512

C358 512 371 512 381 512

C394 513 401 513 403 512

C407 511 408 511 414 513

C417 515 421 517 423 518

C425 520 425 521 424 526

C423 534 422 535 399 535

C376 535 374 535 370 542

C368 545 367 546 365 546

C360 546 358 545 359 543

C359 542 358 541 357 540

C355 538 355 538 352 540

C350 541 349 542 350 543

C351 545 351 545 349 545

C347 546 345 546 344 547

C342 547 341 547 341 546

C341 546 340 544 339 543

C337 540 336 540 334 541

L332 542

L334 545

C337 549 335 552 330 552

C328 552 325 552 324 553

C323 553 322 553 322 552

Z

M493 551

C491 551 485 549 481 549

C475 547 472 546 470 544

C469 543 468 542 469 543

C470 544 471 544 473 543

C477 541 477 541 473 538

C471 536 471 536 471 531

C472 528 473 526 473 526

C475 526 488 531 493 533

C503 538 506 544 500 550

C498 553 497 553 493 551

Z

M581 547

C581 547 581 546 582 546

C583 545 583 545 583 546

C583 546 583 547 582 548

C581 548 581 548 581 547

Z

M292 546

C285 544 282 542 282 540

C282 538 282 538 287 540

C293 543 305 543 311 541

C314 541 315 540 316 541

C318 545 300 548 292 546

Z

M569 545

C564 543 562 543 555 543

C550 544 544 544 543 545

C538 546 541 543 547 541

C556 537 575 540 575 545

C575 547 575 547 569 545

Z

M90 543

C86 543 78 542 71 541

C62 540 57 539 53 538

C38 532 21 532 2 538

C1 538 0 536 0 527

L0 516

L4 513

C10 508 14 507 17 508

C19 508 26 510 34 510

C53 513 53 513 61 518

C70 523 79 527 93 531

C105 534 109 536 113 541

C115 543 115 544 113 544

C111 545 96 545 90 543

Z

M270 541

C267 538 266 538 266 531

C266 525 266 523 264 519

L261 514

L263 512

C265 509 265 509 263 507

C261 506 261 506 258 510

C257 512 255 513 254 513

C254 512 252 512 250 512

C247 512 247 512 248 510

C248 508 248 507 246 506

C242 504 238 507 239 510

C239 512 239 512 237 512

C236 512 234 512 232 513

C231 513 230 512 228 510

C226 506 226 506 224 507

C222 508 221 508 217 505

L214 503

L217 501

C222 499 250 499 259 501

C266 503 272 503 279 502

C293 498 297 490 291 481

C287 477 279 473 272 472

C268 472 266 471 264 469

C263 467 262 465 261 464

C261 460 264 449 267 445

C271 438 275 437 294 436

C302 436 311 435 312 434

C313 433 314 433 316 434

C317 436 318 436 321 433

C323 430 324 429 328 430

C332 430 332 430 331 432

C331 434 332 435 333 436

C336 437 336 437 338 436

C340 435 341 433 340 432

C340 431 340 430 341 430

C342 430 344 430 346 429

C348 429 349 429 351 432

C354 436 354 436 356 434

L358 433

L356 430

C354 428 354 428 355 425

L357 422

L369 423

C375 423 381 424 382 424

C384 426 384 427 385 433

C385 437 385 442 385 443

L386 446

L377 446

C361 448 356 451 356 462

C357 468 356 468 354 469

C351 470 346 476 344 479

C343 485 347 491 354 494

C355 495 362 496 368 496

C374 497 381 498 385 499

C391 501 403 508 403 509

C403 510 391 510 375 510

C342 509 336 509 327 516

C324 517 320 520 318 520

C317 521 315 523 314 524

C312 526 311 527 309 527

C304 527 301 526 303 525

C305 524 304 522 302 521

C299 519 299 519 296 521

C295 522 294 523 295 524

C295 526 295 526 288 527

C287 528 285 527 284 524

C281 521 281 520 278 522

C277 524 277 524 279 526

L281 528

L279 532

C278 533 276 537 276 540

L274 545

L270 541

Z

M115 540

C112 535 106 531 96 529

C91 528 87 527 87 526

C87 526 88 525 89 524

C91 523 92 521 91 519

C91 517 91 517 96 518

C102 518 115 522 118 523

C121 525 127 531 127 534

C128 537 127 540 123 541

C119 544 118 543 115 540

Z

M582 541

C582 540 582 538 581 536

C581 533 581 532 584 531

C587 529 587 529 588 530

C589 532 588 537 587 539

C585 541 582 542 582 541

Z

M237 539

C231 538 227 535 227 533

C227 532 227 532 232 534

C236 535 239 535 246 535

C251 534 256 534 258 533

C259 533 260 533 259 535

C258 538 244 541 237 539

Z

M289 537

C282 534 283 530 292 530

C294 530 295 530 294 531

C294 532 295 533 295 534

C298 536 297 539 295 539

C294 539 291 538 289 537

Z

M301 537

C301 536 302 535 303 534

C303 533 304 532 304 531

C303 530 305 530 310 531

C312 531 315 534 315 536

C315 537 305 539 303 539

C302 539 301 538 301 537

Z

M570 537

C565 535 552 535 546 537

C542 538 542 538 542 536

C543 532 557 530 567 532

C573 534 575 536 575 538

C575 539 575 539 570 537

Z

M438 536

C434 535 432 534 432 532

C431 530 431 530 433 531

C441 534 450 535 461 532

C464 532 464 532 464 534

C463 538 447 539 438 536

Z

M235 531

C229 529 226 527 226 525

C226 524 226 524 233 526

C239 528 248 529 255 527

C260 525 260 525 260 527

C260 531 242 533 235 531

Z

M569 530

C564 528 564 527 564 525

C564 524 564 522 563 522

C561 520 566 519 574 520

C578 521 581 522 583 524

L587 527

L583 526

C581 526 580 526 578 529

C577 531 575 532 575 532

C575 532 572 531 569 530

Z

M436 528

C433 526 431 525 431 524

C431 522 431 522 435 523

C441 527 456 527 463 524

C464 524 465 524 465 525

C465 530 444 532 436 528

Z

M167 525

C154 523 133 514 127 509

L125 507

L130 507

C139 507 154 512 165 518

C171 521 179 525 181 525

C182 525 183 525 184 526

C184 527 175 527 167 525

Z

M587 523

L584 520

L587 519

L590 517

L590 522

C590 524 590 526 590 526

C590 526 588 525 587 523

Z

M76 522

C72 521 69 519 68 518

C66 517 66 517 68 515

C70 513 70 513 75 515

C81 516 81 517 81 519

C80 521 81 522 82 523

C85 526 83 525 76 522

Z

M200 524

C200 524 201 523 201 522

C202 521 204 518 206 514

C208 509 210 506 211 506

C212 505 219 510 222 513

C223 515 223 515 221 518

C220 519 217 521 215 521

C212 523 200 525 200 524

Z

M245 523

C245 523 246 521 247 520

C248 518 249 517 248 516

C248 515 249 515 251 515

C257 517 258 517 259 519

C259 522 258 523 252 524

C247 525 246 524 245 523

Z

M182 522

C179 522 172 519 168 516

C152 508 139 504 126 504

C121 504 119 503 115 500

C111 498 109 496 107 492

C105 488 105 488 107 485

C108 483 110 482 114 481

C120 480 122 479 130 473

C134 470 139 467 143 465

C149 461 160 458 162 458

C163 458 164 461 166 465

L169 471

L167 473

C165 476 165 476 167 477

C169 479 169 479 172 475

C174 473 175 472 176 472

C178 473 180 473 181 473

C183 473 183 473 183 475

C182 476 183 478 184 479

C186 480 186 480 189 479

C191 478 191 477 191 475

C191 474 192 473 195 473

C199 472 200 472 202 475

L204 477

L200 481

C198 483 196 486 195 487

C195 491 197 495 203 499

C205 501 208 502 208 503

C208 503 207 505 206 508

C205 510 203 514 202 516

C199 524 193 525 182 522

Z

M232 522

C230 521 228 520 228 519

C228 518 231 516 235 516

C239 515 239 515 239 517

C239 518 239 519 240 519

C240 520 241 521 241 522

C242 524 241 524 239 524

C238 524 235 523 232 522

Z

M442 522

C434 520 431 517 434 516

C436 514 444 514 444 515

C443 515 444 517 445 518

C447 521 446 524 442 522

Z

M450 521

C450 520 451 519 452 518

C452 517 453 516 453 515

C453 513 461 514 463 517

C465 520 464 521 459 522

C452 523 450 523 450 521

Z

M537 518

C529 516 523 512 511 501

C505 496 499 491 496 490

C493 489 488 487 482 487

C463 485 457 484 455 483

C448 480 450 478 463 475

C479 471 486 463 483 453

C482 449 482 449 485 446

C486 444 487 442 487 440

C486 439 487 438 488 438

C490 439 494 436 494 434

C493 432 494 432 497 431

C501 430 502 430 505 434

C508 437 508 437 510 436

C511 434 511 434 510 432

C508 429 508 429 510 424

C512 421 513 418 513 417

C513 417 516 415 520 413

C524 412 530 408 535 404

C544 398 547 397 551 397

C553 398 557 403 557 407

C557 410 552 415 546 418

C539 421 536 424 533 429

C531 434 532 438 537 442

C539 444 542 447 543 449

C549 455 564 455 578 451

C582 449 586 449 588 449

L590 449

L590 465

L590 481

L584 481

C569 481 554 486 550 492

C546 499 549 508 557 514

C559 515 561 517 561 517

C561 518 550 520 545 520

C544 520 540 519 537 518

Z

M424 516

C423 515 420 513 417 512

C414 511 411 510 411 509

C411 509 412 508 413 505

C415 499 414 493 410 488

C404 482 398 480 374 475

C363 472 359 469 365 468

C371 466 378 463 383 459

C386 457 387 456 389 457

C390 458 390 457 392 455

C394 452 395 451 397 451

C398 452 400 452 401 452

C404 452 404 452 403 454

C403 456 403 457 405 458

C407 459 408 459 410 457

C412 456 413 455 412 454

C410 453 411 452 416 452

C421 451 421 451 423 454

C425 457 425 458 427 457

C429 456 430 454 427 452

C426 450 426 450 428 445

C430 441 431 440 433 441

C434 441 443 441 452 441

C468 441 469 441 472 443

C474 444 476 446 476 447

C476 447 473 449 470 450

C456 455 445 464 443 471

C443 472 443 475 444 476

C445 479 445 480 440 485

C432 493 432 501 441 507

L445 510

L440 511

C435 512 435 512 433 508

C431 505 430 504 428 506

C426 508 426 508 428 510

C430 512 430 513 428 515

C427 519 427 519 424 516

Z

M573 517

C559 514 556 493 569 487

C575 485 581 486 587 492

C590 496 590 496 590 505

L590 513

L586 516

C581 518 579 518 573 517

Z

M103 516

C100 515 100 515 102 514

C103 513 104 513 105 515

C107 516 106 517 103 516

Z

M519 516

C513 515 509 512 503 506

C495 498 488 495 481 495

C474 495 474 495 460 503

C454 507 454 507 451 505

C449 503 449 503 446 504

C443 505 443 505 440 502

C435 497 436 493 442 487

L447 482

L452 485

C456 487 459 487 467 488

C486 490 492 491 495 492

C497 493 503 498 509 503

C514 508 520 513 521 514

C523 515 524 516 524 516

C524 517 524 517 519 516

Z

M59 513

C58 511 48 509 35 508

C29 507 23 506 23 506

C23 505 29 505 36 505

C51 505 63 507 64 510

C64 512 61 514 59 513

Z

M76 511

C72 510 70 509 70 507

L70 505

L76 507

C80 509 83 509 90 509

C94 508 99 508 100 507

C104 507 104 508 100 511

C96 513 82 514 76 511

Z

M0 504

L0 497

L3 499

C4 501 7 503 8 504

L11 505

L7 508

C4 509 2 511 1 511

C0 512 0 511 0 504

Z

M555 508

C548 500 550 493 559 489

C561 488 562 487 562 487

C562 487 561 489 560 492

C558 496 557 505 559 509

C562 513 560 513 555 508

Z

M400 503

C392 498 384 495 371 494

C365 493 359 492 357 492

C351 490 347 486 347 482

C347 479 351 474 355 471

C358 470 358 470 360 472

C364 475 367 476 379 479

C398 483 408 487 411 495

C412 498 411 504 409 507

C407 508 407 508 400 503

Z

M58 504

C50 502 33 502 23 503

C16 504 15 504 11 502

C9 501 6 498 4 496

C1 493 0 491 0 488

C0 484 1 483 9 483

C14 483 24 481 26 479

C27 478 27 478 28 479

C29 480 30 481 32 482

C34 484 34 484 37 482

C39 481 39 480 39 478

C38 474 40 474 45 478

C50 482 59 485 64 485

C68 485 68 487 66 492

C65 495 63 499 63 501

L63 506

L58 504

Z

M84 506

C83 505 81 505 79 505

C74 504 69 500 70 499

C70 497 71 498 75 499

C83 502 90 502 102 500

C103 500 103 500 104 501

C104 503 87 507 84 506

Z

M110 504

C110 503 111 502 111 502

C112 502 113 503 114 504

C115 505 115 505 113 505

C111 505 110 504 110 504

Z

M205 497

C202 495 199 492 198 491

C197 488 200 484 205 481

C212 477 223 478 242 487

C255 494 262 496 270 494

C276 493 278 491 278 486

C278 484 277 482 274 479

L271 475

L274 475

C283 477 291 484 291 490

C291 495 280 500 270 500

C267 500 262 499 258 498

C253 497 246 497 236 497

C222 497 220 497 212 500

C211 501 208 500 205 497

Z

M76 496

C73 495 71 493 71 493

C71 491 74 490 78 489

C82 489 83 489 82 490

C82 491 83 492 83 493

C86 495 85 498 83 498

C82 498 79 497 76 496

Z

M89 496

C89 495 90 494 91 493

C91 492 92 491 92 490

C90 487 100 490 102 493

C103 495 101 497 94 498

C89 498 89 498 89 496

Z

M255 490

C252 489 245 486 240 484

C228 479 220 476 213 476

C210 476 209 475 207 473

C205 471 205 471 208 466

C210 461 210 459 210 453

C210 446 210 446 213 444

L216 443

L213 441

C210 440 210 440 207 443

L204 446

L200 444

L195 443

L199 440

C205 436 212 429 213 423

C216 411 209 396 198 391

L194 390

L197 387

L199 384

L205 386

C212 389 211 388 210 391

C209 393 209 393 212 395

C215 398 215 398 218 396

C220 395 221 393 220 391

C220 389 220 388 224 388

C227 387 228 387 229 389

C234 393 239 394 253 394

L267 394

L271 397

C279 404 282 405 292 404

C297 404 303 404 306 403

C312 401 312 402 313 411

C313 417 313 420 315 423

L317 427

L314 429

C312 430 309 430 289 430

C270 430 265 430 260 432

C252 434 243 439 240 443

C235 450 237 459 244 467

C249 472 251 473 259 474

C265 474 266 475 270 478

C272 481 275 483 275 484

C279 491 266 494 255 490

Z

M586 487

L582 484

L586 484

C590 484 590 484 590 487

C590 489 590 490 590 490

C590 490 588 489 586 487

Z

M74 486

C73 485 81 483 82 484

C83 485 82 485 76 486

C75 487 74 486 74 486

Z

M92 485

C90 485 90 484 91 483

C92 481 93 481 97 481

C100 482 102 482 102 483

C102 486 96 487 92 485

Z

M58 481

C53 479 45 475 45 474

C45 474 47 473 48 472

C52 471 52 471 54 474

C57 477 57 477 59 476

C63 475 63 474 60 472

C58 470 57 470 58 461

L58 453

L65 450

C75 447 85 445 104 444

C123 443 139 444 151 447

C156 449 161 450 161 450

C163 450 164 451 163 454

C163 455 162 456 158 456

C151 457 139 463 129 471

C117 479 116 479 100 479

C90 478 86 478 83 480

C74 483 71 483 70 481

C69 480 69 480 66 481

C64 483 63 483 58 481

Z

M0 466

C0 448 0 449 7 452

L11 454

L11 462

C11 470 11 470 9 471

C5 474 5 474 9 476

C11 477 12 477 14 474

C17 471 17 471 21 472

C24 473 26 474 26 474

C29 476 13 481 3 481

L0 481

L0 466

Z

M447 477

C445 474 446 470 450 465

C453 462 457 459 465 455

C471 452 477 450 478 450

C479 450 481 453 481 456

C481 464 473 470 462 472

C458 473 453 475 451 476

C449 477 448 478 447 477

Z

M24 469

C20 468 18 467 18 465

L18 463

L24 465

C28 467 31 467 38 467

C42 466 47 466 48 465

C52 465 52 466 48 469

C44 471 30 472 24 469

Z

M253 470

C250 470 241 460 240 456

C240 454 239 451 240 450

C241 446 246 440 254 437

C259 434 262 434 270 433

C279 433 279 433 276 435

C270 437 265 440 263 444

C259 453 258 463 261 468

L262 471

L259 471

C257 471 255 471 253 470

Z

M177 469

C174 468 171 465 171 464

C172 462 183 460 184 461

C185 461 185 464 184 465

C183 466 182 467 182 468

C182 470 182 470 177 469

Z

M191 469

C192 468 191 467 190 466

C190 464 189 463 189 462

C189 461 190 460 192 461

C194 461 197 462 200 463

L204 465

L201 467

C200 468 198 469 196 469

C195 469 193 469 192 470

C191 470 191 470 191 469

Z

M358 463

C357 455 362 451 374 450

C378 449 383 449 385 448

C389 448 389 449 383 455

C380 459 376 460 370 463

C366 465 361 466 361 466

C360 466 359 465 358 463

Z

M28 463

C23 462 17 459 17 458

C17 455 18 455 22 457

C29 460 36 460 44 459

C50 457 51 457 51 459

C50 462 35 465 28 463

Z

M197 459

C193 457 190 457 184 457

C179 458 174 458 173 459

C169 460 169 457 174 455

C183 451 204 454 204 459

C204 461 204 461 197 459

Z

M28 455

C24 454 19 452 19 451

C19 450 21 448 25 448

C28 447 29 447 31 450

C32 452 33 454 33 455

C33 456 31 456 28 455

Z

M37 455

C36 454 37 453 38 452

C39 450 40 449 39 448

C39 446 47 447 49 449

C50 451 50 454 49 454

C45 456 37 456 37 455

Z

M198 451

C195 450 192 450 185 450

C179 450 174 451 173 451

C171 452 171 452 171 450

C171 449 173 448 177 447

C185 444 202 446 203 451

C204 453 203 453 198 451

Z

M6 449

C3 448 0 446 0 446

C0 445 8 443 11 443

C15 443 16 445 15 448

C13 451 13 451 6 449

Z

M549 449

C545 448 543 445 547 446

C547 447 555 447 563 447

C571 447 577 447 577 448

C577 449 566 451 559 451

C555 451 551 450 549 449

Z

M54 449

C53 447 53 444 56 442

C57 441 63 440 74 440

C89 439 91 439 97 437

C110 431 111 431 119 431

C125 432 157 438 161 440

C162 440 162 440 160 441

C159 443 159 443 161 445

L164 447

L161 447

C159 447 156 446 153 445

C144 442 135 441 119 441

C96 441 75 444 62 448

C56 450 56 450 54 449

Z

M400 449

C399 448 397 448 396 448

C395 447 393 446 392 445

C391 442 391 442 394 441

C396 441 399 440 401 440

C404 439 405 439 405 441

C406 442 405 444 404 445

C403 445 402 447 403 448

C403 449 402 449 400 449

Z

M412 447

C412 446 411 445 411 444

C406 440 412 439 419 442

C425 445 424 447 415 448

C413 449 412 449 412 447

Z

M478 445

C478 444 475 442 472 440

C467 438 467 438 453 438

C446 439 438 439 436 438

L433 437

L436 436

C443 433 455 430 462 430

C469 429 471 430 469 433

C468 434 468 434 469 436

C471 437 471 437 473 435

L476 432

L479 434

C484 437 485 441 483 444

C480 446 479 447 478 445

Z

M168 443

C167 442 166 441 166 441

C166 440 183 440 183 441

C183 441 181 442 178 443

C176 443 173 444 171 445

C170 445 169 444 168 443

Z

M550 444

C543 443 542 443 542 439

C542 427 556 411 566 411

C572 411 579 415 585 420

L590 424

L590 434

C590 440 590 443 589 444

C587 445 558 445 550 444

Z

M39 443

C38 442 39 442 43 442

C46 442 48 442 48 443

C48 444 41 444 39 443

Z

M23 441

C21 441 18 440 17 439

C17 438 16 438 15 439

C14 439 4 442 1 442

C0 442 0 440 0 434

L0 426

L3 428

C7 431 17 435 24 438

C27 439 30 441 30 442

C31 443 29 443 23 441

Z

M38 438

C36 437 34 436 33 437

C31 439 13 432 5 425

C0 422 0 422 0 416

C0 411 0 411 1 414

C5 421 14 423 27 419

C30 417 35 416 36 416

C41 416 50 413 55 409

C61 406 68 404 77 404

L84 404

L84 407

C84 408 85 412 87 415

L90 421

L87 423

L85 426

L87 427

C90 428 90 428 91 427

C94 422 94 422 99 423

C103 423 104 423 103 425

C102 426 103 427 104 428

C106 430 106 430 99 433

C92 436 82 438 60 438

C55 438 51 439 50 439

C49 441 41 440 38 438

Z

M193 438

C193 437 192 436 191 435

C189 434 189 433 189 430

C190 425 188 416 184 412

C179 408 169 406 149 405

L132 405

L131 402

C131 399 131 399 136 399

C138 398 148 396 158 394

C185 389 195 390 204 400

C214 411 214 423 203 433

C199 437 195 440 194 440

C193 440 193 439 193 438

Z

M418 438

C414 436 411 436 404 436

C399 437 394 437 393 438

C390 438 390 438 390 437

C391 435 398 433 406 432

C412 432 414 432 419 434

C422 436 425 437 425 438

C425 440 424 440 418 438

Z

M537 438

C533 435 535 428 541 424

C545 420 546 420 544 425

C543 427 541 431 540 434

C538 440 538 440 537 438

Z

M148 434

C138 432 129 430 128 430

C125 430 125 428 128 427

L130 426

L128 423

L126 421

L129 414

L132 408

L150 408

C175 409 181 411 185 420

C188 426 188 430 184 434

C181 437 181 437 173 438

C167 438 162 437 148 434

Z

M431 430

C430 427 431 426 433 424

L436 421

L433 420

L431 418

L434 417

C446 415 452 410 455 402

L457 397

L461 401

C463 403 466 405 466 405

C466 405 467 408 466 411

C466 416 466 419 468 422

L470 427

L463 427

C456 427 443 430 437 432

C432 435 431 434 431 430

Z

M482 432

C481 431 481 431 482 431

C483 432 485 432 485 432

C486 432 486 432 486 433

C485 434 483 434 482 432

Z

M419 431

C415 429 401 429 396 430

C394 430 392 430 391 430

C390 427 402 423 410 424

C416 425 424 428 424 430

C424 432 424 432 419 431

Z

M111 428

C111 427 111 427 112 427

C113 427 113 426 112 425

C111 423 111 423 116 422

C121 422 121 422 124 427

C125 429 124 429 118 429

C114 429 111 429 111 428

Z

M477 427

C476 427 475 425 474 424

C473 422 474 421 481 419

C487 419 489 420 486 424

C485 425 484 426 484 427

C485 428 480 428 477 427

Z

M494 427

C494 426 493 425 493 424

C491 422 491 419 492 419

C495 419 505 423 505 424

C505 426 502 427 498 428

C495 428 494 428 494 427

Z

M325 426

C322 425 320 423 320 421

C321 419 332 417 333 418

C335 418 334 421 332 422

C331 423 330 425 331 426

C331 427 330 427 325 426

Z

M340 426

C340 425 339 423 339 421

C337 419 337 418 339 418

C342 418 351 421 351 423

C351 424 348 426 344 426

C341 427 340 427 340 426

Z

M419 423

C416 422 413 420 413 420

C413 418 414 418 422 418

L430 418

L428 421

C426 423 425 424 424 425

C424 425 421 424 419 423

Z

M389 423

C388 422 389 421 391 421

C393 421 395 420 398 418

C403 416 403 416 403 418

C403 420 402 421 397 422

C390 424 390 424 389 423

Z

M362 419

C359 419 359 419 359 415

L360 411

L370 411

C379 411 393 413 397 415

C398 416 397 416 394 417

C390 419 368 420 362 419

Z

M503 418

C495 415 486 415 474 417

C473 417 473 417 472 416

C472 414 482 412 490 412

C499 412 509 416 506 419

C506 419 504 419 503 418

Z

M586 417

C584 415 581 413 578 411

C573 409 571 409 566 409

L559 409

L559 405

C559 399 555 395 549 395

C543 395 542 396 533 402

C526 407 514 413 514 412

C513 412 513 410 513 408

C512 406 512 405 515 404

C518 402 518 400 515 399

C513 398 512 399 509 401

L506 404

L501 402

C495 401 495 400 495 398

C496 396 495 395 493 393

L490 391

L487 393

C485 394 484 396 485 397

C485 398 485 398 482 397

C479 395 476 392 477 391

C478 391 477 390 476 388

C474 385 474 385 477 380

C478 377 480 374 480 373

C481 371 491 368 499 367

C507 367 514 369 528 375

C545 384 548 385 561 383

C566 383 575 381 580 380

C585 379 589 379 589 379

C590 379 590 389 590 400

L590 420

L586 417

Z

M10 418

C6 417 4 414 3 410

C3 406 3 406 7 401

C13 396 15 396 15 400

C15 404 19 411 23 413

L27 416

L24 417

C19 418 12 419 10 418

Z

M95 418

C94 418 93 417 92 415

C91 413 91 413 93 412

C95 412 98 411 100 410

C105 410 107 412 104 415

C103 416 102 417 102 418

C103 419 99 419 95 418

Z

M112 418

C112 417 111 416 110 415

C108 412 109 410 112 411

C117 412 123 414 123 415

C123 417 121 418 117 419

C113 419 112 419 112 418

Z

M346 416

C342 414 339 414 333 414

C328 415 323 415 322 416

C320 416 319 416 319 415

C319 413 327 410 337 411

C343 411 345 411 349 413

C351 414 353 416 353 417

C353 418 352 418 346 416

Z

M416 415

C414 415 412 414 411 413

C409 412 407 412 405 413

C404 414 404 414 404 412

C407 402 407 399 406 395

C404 389 397 382 386 376

C375 370 374 369 380 370

C391 371 397 373 404 378

C415 386 429 392 440 393

C442 393 446 393 448 394

C452 395 453 396 453 398

C453 404 448 410 439 413

C434 415 422 416 416 415

Z

M27 412

C22 410 17 402 17 397

C17 396 19 394 21 392

C27 388 29 384 29 379

C29 369 20 366 3 370

L0 370

L0 361

L0 351

L5 351

C13 351 21 353 31 357

C48 365 68 368 75 365

C84 360 79 347 64 340

C58 337 58 337 59 334

C60 332 60 329 60 326

C59 321 59 320 62 318

L65 315

L62 314

C59 313 59 313 56 316

L54 319

L48 317

C42 315 42 315 42 312

C42 311 42 309 41 309

C40 308 41 307 42 305

C43 303 43 302 42 298

C42 296 40 293 38 291

L35 288

L40 285

C43 283 46 281 47 279

C49 275 50 277 51 285

C51 291 51 293 53 297

L56 302

L54 305

C52 307 52 307 54 309

C56 310 56 310 59 306

C60 304 62 303 63 303

C63 304 66 304 67 304

C70 304 70 304 70 306

C69 310 72 312 76 310

C78 309 79 308 78 306

C78 304 78 304 80 304

C81 304 83 304 85 303

C86 303 87 304 89 306

C91 310 92 311 94 308

C96 307 96 307 94 305

C92 303 92 302 93 300

C94 298 94 298 98 300

C108 305 129 305 157 301

C166 299 174 298 177 298

C186 298 201 309 205 318

C208 324 208 333 205 337

C200 344 191 346 171 344

C161 343 159 343 154 344

C132 351 128 369 148 379

C155 383 166 386 176 387

L184 387

L175 389

C170 389 160 391 152 393

C143 395 135 396 134 396

L132 396

L134 394

L136 392

L133 391

C130 389 130 389 128 392

L125 396

L119 394

C114 392 113 391 113 389

C114 388 113 386 111 384

C108 382 108 382 106 384

C104 385 103 386 103 388

C103 391 103 392 102 392

C100 392 97 393 95 394

L90 395

L87 392

C85 389 85 389 82 391

C79 392 79 392 81 394

C82 394 83 396 84 396

C87 398 84 398 79 396

C67 391 52 396 39 407

C33 413 31 414 27 412

Z

M42 409

C49 402 59 398 67 397

C74 397 81 398 81 400

C81 401 79 401 77 401

C69 401 60 404 52 408

C48 410 43 412 41 412

L38 413

L42 409

Z

M393 411

C388 410 380 409 372 408

C361 408 359 407 359 406

C358 405 359 403 361 402

C365 400 365 399 361 398

C359 397 359 397 356 400

L353 403

L347 401

C342 399 342 399 342 397

C342 394 338 390 336 390

C335 390 332 388 329 385

C324 380 324 380 325 377

C329 370 326 361 317 353

C314 350 311 348 311 348

C311 348 310 346 310 344

C309 337 303 328 299 326

C297 325 295 323 295 323

C295 323 296 321 297 320

C299 318 300 318 305 320

C310 322 310 322 310 324

C310 326 311 328 313 329

C315 331 315 331 318 330

C320 329 320 328 320 325

C320 322 320 322 327 321

L334 319

L336 322

C339 324 339 324 342 323

L345 322

L342 319

C340 317 339 316 339 314

C340 311 343 312 348 316

C354 322 356 327 356 337

C356 347 356 350 360 357

C364 365 371 370 383 377

C393 383 400 389 403 393

C404 396 404 402 403 407

C401 413 400 413 393 411

Z

M500 410

C496 408 493 408 487 408

C482 409 477 409 476 410

C472 410 472 408 477 406

C485 402 508 405 506 411

C506 411 503 411 500 410

Z

M118 409

C113 407 111 407 104 407

C99 408 93 408 92 409

C87 410 91 407 96 405

C106 401 124 404 125 409

C125 411 125 411 118 409

Z

M347 408

C342 407 325 407 322 408

C320 409 320 409 320 407

C320 403 335 401 344 403

C350 405 352 407 352 409

C352 410 352 410 347 408

Z

M0 392

L0 378

L4 378

C9 377 13 378 14 381

C15 381 15 385 15 387

C15 393 15 393 10 396

C7 398 4 401 2 403

L0 406

L0 392

Z

M469 401

C468 399 466 398 466 399

C465 399 464 398 462 397

C460 396 458 394 458 394

C458 394 458 393 459 393

C461 392 461 391 460 390

C459 388 459 388 464 387

L468 387

L473 392

C476 395 479 398 480 399

C483 400 482 401 477 402

L472 404

L469 401

Z

M119 401

C115 400 105 399 97 400

C92 401 91 401 91 400

C93 393 124 395 124 401

C124 403 124 403 119 401

Z

M283 401

C280 400 272 395 272 394

C272 393 276 393 284 393

C295 394 297 394 302 396

C308 399 308 399 306 400

C304 401 285 402 283 401

Z

M317 401

C316 399 317 399 319 399

C320 399 324 399 327 398

L333 398

L326 400

C318 402 317 402 317 401

Z

M302 393

C296 391 294 391 282 390

L268 390

L264 386

C260 383 258 382 255 381

L251 381

L253 379

C255 376 256 373 254 370

C253 367 248 365 243 365

C238 365 237 365 236 362

C234 360 234 359 236 357

C238 354 238 354 236 353

C234 352 233 352 231 355

C229 358 228 358 224 358

C221 357 220 356 220 355

C220 354 220 353 219 352

C218 351 219 350 222 349

C230 345 235 334 233 325

C229 310 211 298 189 295

C185 295 178 293 172 291

C167 290 160 287 155 286

C151 285 147 283 147 283

C147 283 150 282 154 282

C157 281 163 280 166 280

C171 278 172 278 173 280

C174 281 174 281 177 278

C181 275 193 272 214 271

C223 271 232 271 234 271

L238 272

L237 280

C237 288 237 288 235 290

L232 292

L234 293

C237 296 238 295 241 292

L244 289

L250 291

C255 292 255 293 255 295

C255 297 256 298 257 300

C260 302 260 302 262 301

C264 299 265 298 265 296

C265 294 266 293 267 293

C279 289 278 289 281 292

C283 295 284 295 286 294

C290 292 290 292 286 289

C284 288 283 287 283 286

C284 285 284 283 284 280

C284 276 284 276 288 274

C292 272 295 267 295 263

C295 259 292 253 289 250

C281 241 270 242 252 253

C248 256 244 257 244 257

C244 255 242 256 240 258

C236 262 224 261 206 257

C198 255 191 254 186 254

C180 254 179 254 179 252

C179 250 179 249 181 247

L185 244

L182 243

C179 242 179 242 176 245

L173 248

L167 246

C162 244 161 243 161 242

C162 240 161 239 159 237

L157 234

L154 236

C152 238 151 239 151 241

C151 243 151 243 145 245

L139 247

L136 244

C135 243 133 242 132 242

C130 242 127 239 125 235

C124 233 124 233 127 232

C132 231 150 231 166 233

C179 235 182 235 189 234

C202 232 206 229 213 214

C220 201 221 200 243 206

C249 207 253 208 262 207

C271 207 273 207 277 209

C279 210 281 211 282 210

C282 209 286 210 297 214

C310 220 322 222 337 222

C347 222 349 222 353 220

C359 218 362 214 361 208

C361 195 349 186 329 184

C323 184 321 183 321 182

C321 180 322 179 324 177

L327 174

L324 173

C321 172 321 172 318 175

L316 178

L310 176

C304 174 304 174 304 171

C304 169 304 168 303 168

C302 168 302 168 302 167

C303 167 307 166 311 165

C318 164 320 164 322 166

C324 167 324 167 326 165

C326 164 328 163 328 162

C329 161 331 160 334 161

C338 161 338 161 338 163

C337 165 338 166 339 167

C341 169 342 169 344 167

C346 166 347 165 346 163

C346 161 346 161 349 161

C350 161 353 161 353 160

C354 160 356 161 357 163

C360 167 360 168 363 166

C364 164 364 164 363 162

C360 160 361 159 363 153

C365 150 366 146 366 144

L366 141

L372 147

C375 150 379 153 379 153

C380 153 382 152 383 150

C385 147 385 147 389 148

C392 148 394 148 394 149

C395 150 391 152 387 153

C385 154 381 155 378 157

C366 162 365 167 372 177

C375 181 378 185 379 186

C381 188 382 189 381 191

C379 194 381 197 389 203

C392 205 396 208 397 210

C401 214 401 219 397 222

C396 223 395 224 396 225

C398 226 391 232 385 234

C381 236 376 236 366 237

C350 237 347 239 337 247

C330 254 328 260 330 270

C331 274 332 278 333 281

L335 285

L332 288

C329 291 328 292 324 291

C320 291 320 291 321 288

C321 287 321 286 319 285

C317 284 316 284 313 285

C311 287 311 287 312 289

C313 290 313 290 307 291

C303 292 303 292 301 289

C299 285 298 285 295 287

C294 288 294 289 296 291

L298 293

L295 298

L293 303

L287 303

C277 302 266 304 260 309

C252 316 255 323 265 326

C266 327 267 328 267 329

C267 332 271 337 274 339

C278 341 288 344 298 346

C301 347 305 348 305 348

C307 349 307 350 305 355

C302 363 303 366 311 373

L318 380

L314 384

C312 386 310 389 309 392

L309 396

L302 393

Z

M312 394

C312 391 315 386 318 384

C321 382 323 382 328 388

C334 394 332 396 319 396

C313 396 312 396 312 394

Z

M241 391

C240 391 240 390 242 389

C244 388 244 388 242 386

C241 384 241 384 249 384

C257 384 257 384 261 387

C264 390 264 390 262 391

C259 392 243 392 241 391

Z

M18 387

C18 382 16 377 14 376

C13 375 9 375 6 375

C3 375 0 375 0 374

C0 373 14 371 18 371

C28 373 29 382 21 389

L18 391

L18 387

Z

M443 390

C442 390 441 389 442 388

C443 386 452 387 452 389

C451 391 447 391 443 390

Z

M233 388

C232 387 231 386 232 386

C233 385 234 385 235 386

C239 390 237 391 233 388

Z

M426 387

C418 384 414 382 406 376

C398 371 395 369 384 368

C367 365 365 363 367 347

C367 341 367 334 367 332

C366 323 362 314 357 310

C355 309 354 308 355 307

C356 306 357 305 358 305

C362 305 372 301 376 298

C380 296 380 296 386 298

C390 299 397 299 416 299

L440 299

L447 302

C453 304 454 304 471 304

C481 304 492 304 499 303

C509 301 512 301 515 302

C517 303 519 304 519 304

C519 306 514 308 504 312

C485 318 474 325 472 333

C471 337 473 344 476 349

L479 354

L476 357

L473 361

L467 359

C461 357 461 356 462 354

C462 351 457 346 448 342

C442 339 440 339 434 338

C426 338 425 338 420 335

C404 326 390 333 395 348

C398 353 402 357 409 359

C412 359 417 362 420 364

C423 366 427 368 429 369

C431 370 432 371 432 373

C433 375 434 379 435 381

C438 386 438 386 436 387

C434 389 434 389 426 387

Z

M180 384

C172 383 165 380 160 376

C157 372 156 371 156 368

C156 363 159 359 165 355

C170 351 176 350 185 350

C194 351 196 352 195 353

C194 354 195 355 196 357

C198 359 198 359 195 364

C193 369 193 371 193 376

C193 381 192 384 192 384

C190 385 186 385 180 384

Z

M206 383

C203 382 200 381 200 380

C198 377 199 377 204 379

C208 381 222 381 228 379

C232 378 232 378 232 380

C231 384 216 386 206 383

Z

M444 383

C442 383 440 380 440 378

C440 377 448 375 452 375

C455 375 455 377 452 380

C451 381 450 382 450 383

C451 384 447 384 444 383

Z

M459 381

C457 374 457 374 465 377

C473 380 473 382 465 384

C461 384 460 384 459 381

Z

M155 379

C135 371 132 358 148 350

C154 346 163 345 170 346

L174 347

L168 349

C162 353 156 357 154 363

C152 369 153 373 158 377

C162 381 161 382 155 379

Z

M239 375

C239 367 240 366 247 368

C252 369 254 373 252 376

C250 378 246 380 242 380

L239 381

L239 375

Z

M540 378

C537 377 532 374 529 373

C519 367 510 365 502 365

C494 365 486 366 481 368

C480 369 479 368 479 365

C478 362 479 362 481 360

C484 358 484 358 489 360

C497 362 510 362 522 359

L532 357

L541 362

C558 373 572 377 584 375

C589 374 591 374 590 376

C589 377 559 381 553 381

C548 381 545 380 540 378

Z

M313 371

C308 366 306 364 306 362

C306 359 309 351 310 351

C312 351 319 359 322 363

C325 368 325 373 322 376

L320 378

L313 371

Z

M208 376

C202 374 199 373 199 371

C199 369 199 369 201 369

C209 373 212 373 220 373

C225 372 230 372 231 371

C232 371 233 371 233 372

C233 376 215 378 208 376

Z

M468 374

C463 372 456 371 449 372

C445 373 442 373 441 374

C440 374 439 374 439 373

C439 370 444 369 454 368

C461 368 463 368 468 370

C471 372 473 373 473 374

C473 376 473 376 468 374

Z

M567 372

C562 370 541 360 538 357

C537 357 536 356 536 355

C537 354 557 352 574 351

L590 351

L590 361

C590 369 590 371 588 371

C584 373 572 373 567 372

Z

M211 369

C201 366 198 364 204 362

C207 361 212 361 211 362

C211 363 212 364 212 365

C213 366 214 367 214 368

C214 370 214 370 211 369

Z

M218 369

C218 368 218 366 219 365

C220 364 221 363 221 362

C221 360 229 361 231 364

C231 365 232 366 232 366

C232 367 229 369 223 369

C220 370 219 370 218 369

Z

M468 366

C464 365 452 364 445 365

C440 366 440 366 440 364

C441 360 457 359 466 362

C471 363 472 364 472 366

C472 367 471 367 468 366

Z

M426 364

C423 363 421 361 421 361

C421 360 424 360 427 360

C432 360 433 361 433 363

C433 367 431 367 426 364

Z

M59 363

C57 363 52 362 48 361

C42 359 22 351 21 350

C20 350 21 349 22 347

C23 346 24 345 28 346

C31 346 32 347 32 348

C31 350 34 353 36 353

C39 353 41 350 41 348

C40 347 41 346 45 346

C48 345 50 346 50 346

C51 347 52 349 53 350

C54 352 55 352 56 351

C58 349 58 349 57 347

C55 344 55 340 57 340

C58 340 61 341 64 342

C74 347 80 357 75 361

C73 363 66 364 59 363

Z

M437 358

C436 356 436 355 436 354

C436 354 434 351 433 348

C431 344 429 342 429 341

C429 341 431 341 434 341

C439 341 447 344 452 347

C454 348 454 348 453 350

C452 350 451 352 451 354

C451 356 451 356 447 358

C444 358 441 359 440 359

C438 360 438 360 437 358

Z

M492 358

C487 356 480 351 480 350

C480 349 482 348 490 347

C500 345 513 346 519 349

C524 352 528 354 527 355

C524 358 498 360 492 358

Z

M201 356

C199 353 200 352 206 352

C211 352 212 352 212 354

C212 356 211 357 209 357

C204 358 203 358 201 356

Z

M409 356

C401 353 397 348 397 342

C397 334 407 332 417 337

C420 338 422 340 422 340

C422 340 421 341 419 342

C417 343 415 345 413 346

C411 349 411 350 411 353

C412 355 412 357 412 357

C412 357 410 356 409 356

Z

M415 356

C412 353 415 347 422 344

C425 342 425 342 427 345

C429 347 431 350 432 351

C433 354 433 354 430 355

C427 357 417 358 415 356

Z

M361 352

C359 349 359 344 358 335

C357 324 357 323 355 319

C353 317 351 314 349 313

L347 312

L349 311

C354 309 361 317 363 326

C365 334 365 338 364 348

L362 356

L361 352

Z

M528 351

C520 344 505 342 489 344

C484 345 480 346 479 346

C478 346 479 344 482 340

C487 335 497 330 518 326

C524 324 530 322 531 321

C533 320 535 319 536 319

C538 320 539 319 541 317

L544 314

L549 315

C556 318 556 318 555 320

C554 321 555 322 557 324

C560 327 560 327 562 326

C564 325 565 323 565 321

C565 318 566 318 571 317

C573 316 576 315 577 315

C578 314 579 315 581 317

C583 320 584 320 586 319

C587 318 589 318 589 317

C589 317 588 316 586 314

C582 311 583 308 587 309

L590 310

L590 329

L590 348

L576 348

C564 349 543 351 534 353

C531 353 530 353 528 351

Z

M196 349

C192 349 190 347 193 347

C197 347 203 344 206 340

C211 334 211 322 205 313

C203 310 199 306 196 304

C193 301 190 299 190 299

C190 298 195 299 202 301

C232 310 241 338 218 348

C214 349 202 350 196 349

Z

M4 348

L0 348

L0 329

L0 310

L2 310

C3 311 6 311 8 312

C12 312 13 313 10 314

C7 315 7 316 11 318

C13 320 14 320 13 326

C13 332 13 334 15 339

C18 344 18 344 16 347

C14 349 14 349 4 348

Z

M293 342

C287 341 280 339 278 338

C274 335 270 331 270 329

C270 327 272 327 281 327

C294 326 296 326 300 331

C303 333 307 341 307 344

C307 345 307 345 293 342

Z

M476 343

C474 341 474 336 475 333

C478 326 486 321 504 315

C510 312 516 310 518 308

C520 307 522 306 523 306

C524 306 531 314 531 316

C531 319 529 320 513 324

C492 329 483 334 478 341

C477 343 476 344 476 343

Z

M26 342

C23 342 20 339 20 337

C20 336 23 335 29 334

C33 333 34 334 34 335

C34 336 33 337 32 338

C32 339 31 340 31 341

C32 343 31 343 26 342

Z

M40 339

C37 334 37 334 41 334

C47 335 52 338 51 339

C51 341 50 341 45 342

C42 343 41 343 40 339

Z

M48 333

C43 330 32 330 24 331

C18 332 17 330 24 328

C31 326 40 326 46 328

C53 330 53 330 53 333

C53 335 52 335 48 333

Z

M47 324

C42 323 26 323 22 325

C20 325 20 325 20 323

C21 319 38 317 47 321

C50 322 53 323 53 324

C53 326 52 326 47 324

Z

M270 324

C268 322 271 318 276 315

C282 312 292 312 293 315

C294 316 291 320 289 320

C288 320 288 321 288 321

C289 323 287 324 277 325

C272 325 270 325 270 324

Z

M264 323

C262 322 258 319 258 317

C258 315 264 309 268 308

C277 304 293 304 293 308

C293 309 292 310 286 310

C275 311 267 316 267 321

C267 323 266 324 264 323

Z

M310 318

C304 317 300 314 300 312

C300 311 300 311 305 313

C310 314 323 314 328 313

C332 312 333 313 332 315

C331 316 321 319 317 319

C315 319 312 318 310 318

Z

M16 316

L14 313

L20 313

C23 313 27 313 29 312

C31 312 32 312 32 313

C32 314 30 315 26 316

C22 317 19 318 19 318

C19 318 17 317 16 316

Z

M533 313

C533 313 531 310 529 307

C525 304 524 302 525 301

C528 297 524 290 517 288

C510 285 504 285 496 287

C485 289 454 289 439 287

C427 285 406 284 397 286

C394 286 389 288 386 289

C380 292 380 292 377 290

C372 288 367 287 352 288

C342 289 342 289 340 287

C336 284 333 274 332 266

C332 259 334 254 340 249

C349 241 352 240 368 239

C384 238 390 237 396 231

C400 227 400 227 396 234

C394 238 394 240 394 246

C394 252 394 252 391 255

C388 257 388 257 392 259

C394 260 395 260 397 257

L400 254

L406 256

C412 257 412 258 412 260

C411 262 412 263 414 265

C417 267 417 267 420 265

C422 264 422 263 422 261

C422 258 422 258 426 257

C428 256 431 256 432 255

C435 254 435 254 437 257

C440 260 442 260 445 258

C446 257 445 256 443 255

C441 253 441 253 441 246

C441 242 441 239 441 239

C441 239 443 240 445 241

C448 242 453 244 458 244

C463 245 468 246 471 247

C473 248 479 248 489 248

C497 247 503 247 503 247

C503 247 502 250 500 253

C498 257 498 259 498 264

C498 271 498 271 495 274

C492 276 492 276 496 278

C498 279 499 279 501 276

L504 273

L510 275

C516 276 516 277 515 279

C515 281 515 282 518 284

C521 286 521 286 523 284

C525 283 526 282 526 280

C526 277 526 277 530 276

C532 275 535 275 536 274

C539 273 539 273 541 276

L544 279

L547 277

L550 276

L547 274

C544 272 543 269 545 268

C545 268 548 269 551 271

C558 274 571 278 582 280

L590 281

L590 289

C590 297 590 297 587 297

C584 298 584 298 581 293

C579 289 579 289 581 286

C583 283 583 283 581 282

C579 281 578 281 576 284

C573 287 571 288 566 286

C564 286 564 285 565 284

C566 283 565 282 563 281

C561 279 561 279 558 281

C557 282 556 283 557 284

C557 286 557 286 550 287

C549 288 547 287 546 284

C543 281 543 280 540 282

C539 284 539 284 540 286

C542 288 542 288 540 294

C538 297 538 300 538 306

C538 311 537 313 536 314

C534 315 533 315 533 313

Z

M550 312

C546 311 543 308 544 306

C545 306 546 307 548 308

C552 310 565 310 573 309

C576 308 577 308 577 309

C577 313 558 315 550 312

Z

M308 310

C302 308 299 306 299 304

C299 303 299 303 306 305

C311 307 314 307 320 307

C324 306 329 306 330 305

C332 305 333 305 333 306

C333 310 315 312 308 310

Z

M10 309

C0 307 0 307 0 304

C0 300 0 300 4 299

C12 298 20 296 26 293

C32 290 32 290 34 292

C37 294 40 299 40 302

C40 304 37 307 31 309

C29 310 13 310 10 309

Z

M344 306

C341 306 340 305 339 303

C339 302 338 300 337 299

C336 295 347 298 351 303

C353 305 353 307 350 307

C349 307 347 306 344 306

Z

M554 306

C548 305 544 302 544 300

C544 298 544 298 549 300

C557 303 564 303 576 301

C577 301 577 301 578 302

C579 304 562 308 554 306

Z

M585 306

C584 306 584 304 584 303

C584 301 585 300 587 300

C590 300 590 300 590 303

C590 307 588 308 585 306

Z

M319 302

C318 301 319 300 320 299

C321 297 322 296 321 295

C321 294 322 294 324 294

C330 296 331 296 332 298

C333 301 333 302 324 303

C320 304 319 303 319 302

Z

M305 301

C303 300 301 299 301 298

C301 297 304 295 308 295

C311 294 312 294 312 296

C312 297 313 298 314 299

C314 301 315 302 315 302

C315 304 310 303 305 301

Z

M352 300

C348 296 340 293 337 295

C335 295 335 294 336 291

C337 289 338 289 341 291

C345 292 346 292 356 291

C367 290 373 290 376 292

C378 294 378 294 375 296

C372 298 364 302 359 302

C356 303 355 302 352 300

Z

M111 301

C105 300 96 297 96 295

C96 294 98 285 99 285

C100 283 120 282 130 283

C142 284 173 293 173 295

C173 295 169 296 164 297

C159 297 151 299 146 299

C133 301 119 302 111 301

Z

M454 301

C452 301 449 299 447 298

C443 297 439 297 414 296

C398 296 385 295 384 295

C383 294 385 292 390 291

C403 287 420 286 441 290

C456 292 485 292 494 290

C503 288 507 288 513 289

C521 292 524 296 522 300

C522 302 521 302 518 300

C514 299 510 299 495 300

C482 302 459 302 454 301

Z

M63 300

C60 300 58 297 58 295

C58 294 64 292 69 292

C72 292 73 294 70 296

C69 297 68 299 69 300

C69 301 68 301 63 300

Z

M78 300

C79 299 78 298 77 297

C75 295 76 292 78 292

C81 292 89 296 89 297

C89 298 87 300 82 301

C78 301 78 301 78 300

Z

M551 297

C544 294 545 290 554 290

C556 290 557 290 556 291

C556 292 557 293 557 294

C560 296 559 299 557 299

C556 299 553 298 551 297

Z

M563 297

C563 296 564 295 565 294

C565 293 566 292 566 291

C565 290 567 290 572 291

C574 291 577 294 577 296

C577 297 567 299 565 299

C564 299 563 298 563 297

Z

M0 290

C0 281 -1 281 12 284

C23 287 27 288 27 289

C27 290 18 294 10 295

C0 298 0 298 0 290

Z

M85 290

C81 288 64 288 60 290

C57 291 57 291 57 289

C58 285 78 283 86 287

C89 288 91 290 91 290

C91 292 90 292 85 290

Z

M258 289

C253 289 245 286 245 284

C244 282 244 282 251 284

C256 285 269 285 275 283

C277 283 277 283 277 285

C276 287 265 290 258 289

Z

M26 285

C23 284 16 282 10 281

L0 279

L0 271

C0 267 0 263 0 263

C1 263 4 264 9 266

C13 267 20 269 25 269

C41 271 47 273 45 277

C44 279 34 286 32 286

C31 287 28 286 26 285

Z

M85 282

C80 281 64 281 60 282

C58 283 58 283 58 282

C58 277 76 275 85 279

C88 280 90 282 90 282

C90 284 90 284 85 282

Z

M97 280

C96 279 97 278 99 276

C103 274 103 273 99 272

C97 271 97 271 94 274

L91 277

L87 276

C85 275 82 274 81 274

C79 274 79 274 79 271

C80 269 80 268 77 266

C75 264 75 264 72 265

C70 267 70 268 70 270

C70 273 70 273 65 274

C62 275 59 275 58 276

C57 277 56 276 54 274

C53 272 51 271 49 271

C47 271 44 271 41 270

C39 269 34 268 29 267

C17 266 11 264 5 261

L0 259

L0 253

L0 248

L17 249

C37 249 42 248 49 241

L54 236

L62 238

C70 240 70 240 76 239

C82 237 83 237 84 238

C86 239 86 238 88 236

C90 232 91 232 93 232

C95 233 97 233 98 233

C100 233 100 233 99 235

C99 237 99 238 101 239

C103 240 104 240 106 238

C108 237 109 236 108 235

C107 234 107 233 113 233

C117 232 117 232 119 235

C120 237 122 239 122 239

C123 238 128 243 127 244

C127 245 128 246 130 247

C133 248 133 248 133 256

C133 262 133 264 135 268

L138 273

L136 275

C134 278 134 278 135 279

C136 280 136 280 135 280

C122 280 101 281 99 281

C98 282 97 282 97 280

Z

M254 281

C248 280 244 277 244 275

C244 274 245 274 252 276

C259 278 260 278 267 277

C271 277 275 276 276 276

C277 276 278 276 278 277

C278 280 261 283 254 281

Z

M141 277

C142 274 143 274 147 275

C152 275 152 275 151 278

C150 280 149 280 144 280

L139 280

L141 277

Z

M580 277

C562 273 545 266 545 262

C545 261 545 259 544 259

C544 257 546 257 552 255

C566 250 573 251 585 258

L590 261

L590 270

C590 275 590 279 589 279

C589 279 585 278 580 277

Z

M160 277

C160 276 162 275 164 275

C170 274 171 275 166 277

C160 278 160 278 160 277

Z

M175 273

C174 273 175 271 177 268

C178 265 179 262 179 261

C179 260 179 259 180 258

C181 256 193 257 205 260

C213 262 218 262 228 263

C236 263 242 263 242 264

C242 264 242 266 241 267

C240 269 239 269 229 268

C216 268 196 269 184 272

C175 274 176 274 175 273

Z

M252 273

C250 272 248 271 247 270

C244 269 247 266 252 265

C256 265 257 265 256 266

C256 267 257 268 257 269

C260 271 259 274 257 274

C256 274 254 273 252 273

Z

M263 272

C263 271 264 270 265 269

C265 268 266 267 266 266

C265 265 266 265 269 265

C271 266 273 266 274 266

C274 266 277 270 277 271

C277 272 268 274 266 274

C264 274 263 273 263 272

Z

M282 270

C281 269 281 268 281 268

C281 267 284 267 287 267

L292 266

L290 269

C286 273 284 273 282 270

Z

M511 271

C507 270 505 269 505 267

L505 265

L511 267

C515 269 518 269 525 269

C529 268 534 268 535 267

C538 267 538 267 537 269

C535 273 520 274 511 271

Z

M146 271

C142 270 140 269 140 266

C140 265 143 264 149 263

C154 262 155 264 152 267

C151 269 150 270 151 271

C151 272 151 272 146 271

Z

M160 271

C161 270 160 269 159 268

C159 267 158 266 158 265

C157 262 159 262 166 265

C174 267 172 270 163 271

C161 272 160 272 160 271

Z

M515 265

C507 263 502 260 505 258

C505 257 507 258 509 259

C512 260 516 261 518 261

C522 262 532 261 536 259

C538 259 538 259 538 261

C537 264 522 267 515 265

Z

M280 263

C280 263 281 262 282 261

C283 259 283 259 281 257

C279 255 278 256 276 259

C274 263 274 263 266 261

C264 261 264 261 265 259

C266 258 266 258 264 256

C262 254 261 254 259 256

C257 257 256 258 256 259

C256 261 256 262 252 262

C249 262 248 262 247 261

C246 260 252 256 262 251

C274 245 281 245 287 252

C294 259 293 264 285 264

C282 264 280 264 280 263

Z

M166 261

C161 259 159 259 152 259

C147 260 142 260 141 261

C140 261 139 261 139 260

C139 255 161 254 169 258

C171 259 173 260 173 261

C173 263 172 263 166 261

Z

M515 257

C511 256 506 254 506 253

C506 251 509 250 513 249

C517 249 517 249 517 251

C517 252 517 253 518 253

C518 254 519 255 519 256

C520 258 518 258 515 257

Z

M523 257

C523 256 524 255 525 254

C526 253 527 251 526 250

C526 249 526 249 530 249

C534 250 537 252 537 255

C537 256 530 258 526 258

C524 258 523 257 523 257

Z

M585 255

C582 253 577 251 574 250

C567 248 569 247 581 247

L590 247

L590 253

C590 256 590 258 590 258

C590 258 587 257 585 255

Z

M167 253

C163 252 149 251 143 253

C140 254 140 254 140 252

C140 250 144 248 152 247

C160 247 172 250 172 253

C172 255 172 255 167 253

Z

M407 252

C403 251 401 250 401 248

L401 246

L407 248

C411 250 414 250 421 250

C425 249 430 249 431 248

C434 248 434 248 433 250

C431 254 416 255 407 252

Z

M540 250

C539 248 540 247 541 245

C543 243 543 243 542 241

C539 239 539 240 537 243

C535 246 532 247 527 245

C524 245 525 240 528 238

C533 236 544 234 550 234

C558 235 559 236 553 240

C551 242 548 245 546 247

C544 250 542 252 542 252

C542 252 541 251 540 250

Z

M547 251

C547 248 560 237 562 239

C564 240 563 243 561 245

C558 247 547 252 547 251

Z

M17 247

C16 246 12 246 8 245

L0 245

L0 241

L0 238

L5 238

C8 238 15 237 19 236

C28 235 48 234 50 235

C51 236 45 242 40 244

C36 246 21 248 17 247

Z

M412 246

C407 245 400 242 400 241

C400 238 401 238 404 239

C411 243 425 243 432 240

C434 240 434 240 434 242

C433 245 419 248 412 246

Z

M508 246

C508 245 516 243 517 244

C518 244 517 245 515 245

C513 246 511 246 510 247

C509 247 508 247 508 246

Z

M473 245

C467 244 463 242 460 238

C457 235 457 234 457 230

L458 225

L463 223

C472 220 483 220 491 224

C498 226 508 228 512 227

C516 226 522 220 522 217

C524 211 517 203 508 201

C504 200 504 199 504 196

C504 191 506 188 515 185

C521 183 523 182 524 183

C525 184 530 188 535 193

C546 203 551 206 560 208

C567 209 584 209 589 207

C590 207 590 209 590 221

L590 235

L576 234

C566 234 560 234 555 232

C550 231 548 231 542 232

C538 232 530 235 524 237

C510 243 506 244 505 242

C504 239 503 240 500 242

C498 245 496 245 487 245

C482 246 475 246 473 245

Z

M565 244

C566 243 566 241 566 240

L566 237

L578 237

L590 238

L590 241

L590 245

L583 245

C579 245 573 245 570 245

C564 246 564 246 565 244

Z

M450 240

C447 240 445 238 444 237

C442 235 442 235 444 232

C445 231 448 229 450 228

L454 226

L454 231

C455 234 456 237 457 239

L459 242

L457 242

C456 242 452 241 450 240

Z

M411 238

C407 237 402 235 402 234

C402 233 405 231 409 230

C412 230 413 230 414 234

C415 236 416 238 416 238

C416 239 413 239 411 238

Z

M419 238

C419 237 420 236 421 235

C422 233 423 232 422 231

C422 230 423 230 426 230

C431 231 433 232 433 235

C433 238 421 240 419 238

Z

M62 235

C55 233 55 233 57 232

C59 230 66 227 75 226

C81 225 82 225 83 227

C86 230 85 232 80 235

C74 237 69 238 62 235

Z

M0 221

C0 205 -2 207 14 205

C29 203 37 204 47 209

C56 214 65 216 73 216

C79 216 79 216 80 219

C82 223 81 223 75 223

C66 224 59 227 55 230

C52 232 51 232 40 232

C32 232 25 233 21 233

C17 234 10 235 7 235

L0 235

L0 221

Z

M438 233

C436 229 436 228 438 226

C439 224 439 224 438 222

C435 220 435 221 433 224

C431 226 430 227 428 227

C423 227 421 226 422 224

C422 223 421 222 420 221

C418 219 417 219 415 221

C413 222 412 223 413 224

C414 226 413 226 409 227

C405 228 404 228 403 226

C402 224 402 221 403 219

C404 216 402 211 399 207

C397 206 394 203 390 200

C387 198 384 195 384 194

C383 191 387 183 392 178

C397 172 404 169 414 166

C419 165 424 163 425 163

C427 162 431 158 435 154

C441 147 442 147 443 149

C443 150 444 155 444 159

C445 164 445 167 445 168

C446 168 444 170 442 172

C440 175 439 177 439 179

C439 185 445 188 458 188

C467 188 474 186 480 182

C482 181 485 179 488 178

C493 177 499 172 506 166

C515 159 518 157 529 156

C535 156 556 159 570 163

C575 165 580 166 583 167

C590 168 590 168 590 175

L590 181

L585 181

C582 180 575 179 570 177

C565 175 559 174 556 173

C550 173 538 174 529 177

L523 179

L517 177

C510 174 500 174 495 176

C491 179 489 183 489 188

C490 193 493 197 498 200

C500 201 502 203 503 206

C505 213 501 217 491 218

C487 218 484 218 479 216

C475 214 470 213 467 213

C463 213 461 213 459 216

C457 218 456 220 456 220

C456 221 454 223 450 225

C445 228 441 231 440 234

C440 235 439 234 438 233

Z

M162 230

C155 229 147 229 137 229

L122 230

L125 225

C126 222 127 219 127 216

C127 212 127 211 130 209

C134 207 137 202 139 195

C140 191 140 191 147 189

C161 186 164 183 171 171

C173 167 177 162 179 159

L182 155

L189 157

C197 159 204 159 209 157

C212 155 212 155 216 159

C222 163 229 167 237 168

C242 168 243 169 243 170

C243 173 247 180 250 182

C255 186 263 188 269 186

C272 186 274 186 274 186

C275 186 275 188 275 190

C275 192 276 195 278 198

C279 201 280 203 280 204

C279 204 272 205 264 205

C252 205 248 204 240 202

C229 200 220 200 217 202

C217 203 214 208 211 213

C203 228 199 231 182 232

C176 232 167 231 162 230

Z

M96 229

C94 229 93 229 91 228

C90 228 89 227 88 226

C87 223 87 223 90 222

C97 220 101 220 101 222

C102 223 101 224 100 225

C99 227 98 228 99 229

C99 230 99 230 96 229

Z

M108 228

C108 228 107 226 106 225

C106 223 105 222 105 221

C107 219 119 224 119 226

C119 227 116 228 111 229

C109 230 108 230 108 228

Z

M498 223

C495 222 493 221 493 221

C493 221 495 220 497 219

C504 217 506 215 506 208

C505 203 505 203 507 204

C511 205 517 209 518 211

C521 214 520 217 517 220

C512 225 507 226 498 223

Z

M114 219

C110 217 107 217 100 217

C95 218 90 218 89 219

C88 219 87 219 87 218

C87 215 94 214 104 214

C111 214 113 214 117 216

C119 217 121 219 121 220

C121 221 120 221 114 219

Z

M459 220

C459 219 462 216 465 216

C466 215 469 215 471 216

L476 217

L470 218

C467 219 463 220 462 220

C460 221 459 221 459 220

Z

M320 219

C311 217 300 213 300 212

C300 211 301 211 302 210

C303 210 303 209 303 207

C302 205 302 205 307 205

C310 204 312 205 312 205

C313 206 314 208 315 209

C316 211 317 211 318 210

C320 208 320 208 319 206

C317 203 317 203 319 197

C321 194 322 190 322 189

L322 186

L328 186

C345 188 354 193 357 202

C361 210 358 217 349 219

C344 220 329 220 320 219

Z

M65 212

C61 212 54 209 49 207

L40 203

L25 203

C17 203 8 203 5 203

L0 204

L0 194

L0 184

L6 186

C10 187 19 191 27 195

C34 198 42 202 44 202

C52 204 58 200 60 193

C61 190 61 188 62 188

C62 188 81 191 88 193

C91 194 94 195 96 195

C99 197 101 201 99 201

C98 202 95 203 92 204

L86 205

L84 203

C82 200 80 199 77 201

C75 202 75 203 78 205

C81 207 81 208 80 211

C80 214 79 214 76 214

C74 214 69 213 65 212

Z

M115 212

C111 210 97 210 92 211

C88 212 86 211 88 209

C90 207 98 205 103 205

C107 205 117 208 119 209

C120 210 120 213 119 213

C119 213 117 212 115 212

Z

M287 208

C284 207 283 204 286 205

C286 205 289 205 291 205

C293 205 294 205 294 207

C293 209 292 209 287 208

Z

M115 204

C110 202 110 202 110 200

C110 195 103 191 102 194

C101 194 99 194 96 193

C94 192 85 190 77 188

L62 185

L55 177

C43 165 41 158 48 155

C54 152 70 151 87 154

C106 156 117 156 123 153

C139 145 128 119 105 115

C100 114 102 112 109 110

L116 108

L118 110

C120 113 123 114 125 112

C127 110 127 110 124 108

C121 107 121 106 122 101

C122 98 123 95 123 95

C124 95 125 94 127 92

C129 90 147 85 160 83

C168 82 170 82 192 88

C199 89 205 90 210 90

C218 90 218 90 218 93

C218 94 217 95 211 96

L205 98

L202 95

C199 93 199 93 197 94

C193 95 193 96 197 98

C199 100 200 100 199 102

C199 105 199 105 192 103

C183 101 172 102 168 104

C162 108 160 118 165 124

C168 129 172 130 178 131

C182 131 186 131 188 132

C190 132 194 132 196 131

C200 130 201 130 203 131

C205 132 205 132 207 128

C208 126 210 125 211 125

C212 126 214 126 215 126

C218 126 218 126 218 128

C217 130 217 131 218 131

C220 132 218 138 214 146

L212 151

L206 148

C199 145 191 145 185 149

C181 152 181 152 178 150

C176 149 172 148 168 148

C151 148 145 154 140 179

L138 189

L133 191

C127 193 121 199 121 202

C121 206 120 206 115 204

Z

M560 205

C553 203 547 199 537 190

C532 186 527 181 527 181

C527 180 541 177 549 176

C557 176 559 176 567 179

C572 181 580 182 583 183

L590 184

L590 194

C590 200 590 204 589 205

C587 206 564 206 560 205

Z

M129 201

C127 199 126 198 127 198

C128 196 136 193 137 193

C137 194 134 203 133 203

C133 203 131 202 129 201

Z

M288 201

C285 201 282 198 282 196

C282 195 285 194 291 193

C295 192 296 193 296 194

C296 195 295 196 295 197

C294 198 293 199 293 200

C293 201 292 202 292 202

C291 202 289 202 288 201

Z

M302 198

C299 193 299 193 303 193

C309 194 314 197 313 198

C313 200 312 200 307 201

C304 202 303 202 302 198

Z

M29 193

C21 189 11 184 7 183

L0 182

L0 175

L0 168

L3 167

C8 167 22 168 28 171

C31 172 38 176 42 179

C47 182 52 185 55 186

C59 187 59 187 58 191

C57 193 56 196 54 197

C49 202 45 201 29 193

Z

M496 194

C493 192 492 190 492 187

C492 179 499 176 510 178

C517 179 519 181 516 182

C505 185 501 189 501 195

C501 199 500 199 496 194

Z

M310 192

C305 189 294 189 286 190

C280 191 280 189 286 187

C294 184 313 186 315 190

C316 193 314 194 310 192

Z

M141 186

C141 182 145 167 147 163

C151 155 159 150 169 150

C171 150 179 153 179 154

C179 154 178 156 177 157

C175 159 172 164 169 169

C167 173 163 178 161 180

C158 183 151 186 144 187

C142 188 141 188 141 186

Z

M450 185

C445 184 441 181 441 179

C441 178 442 176 444 175

L447 172

L450 174

C454 177 462 180 469 180

C476 181 476 183 467 185

C461 186 457 186 450 185

Z

M309 183

C304 182 289 182 284 184

C282 184 282 184 282 182

C284 175 315 177 315 184

C315 185 313 185 309 183

Z

M378 181

C376 178 374 175 372 172

C370 168 370 168 371 165

C374 161 390 153 395 154

C399 155 403 153 402 150

C402 149 403 148 406 148

C411 147 411 147 414 152

C415 154 416 154 418 152

L420 151

L418 148

C416 147 416 146 417 145

C418 143 433 143 436 144

L439 145

L432 152

C425 160 425 161 412 164

C408 165 402 167 400 168

C395 171 388 177 385 181

C384 183 383 185 383 185

C382 185 381 183 378 181

Z

M255 182

C249 179 244 172 247 168

C248 166 254 164 260 164

C263 164 266 164 266 165

C266 165 265 166 264 167

C259 172 261 178 266 181

C268 182 270 183 270 183

C270 185 259 184 255 182

Z

M52 181

C45 178 41 172 41 166

L41 163

L42 166

C43 168 46 172 50 176

C56 183 57 184 52 181

Z

M269 179

C265 177 263 174 264 171

C265 168 268 168 282 168

L294 168

L294 171

C294 174 294 174 287 175

L281 177

L278 175

C276 172 275 172 273 173

C269 174 269 175 273 177

C276 179 277 181 275 181

C274 181 272 180 269 179

Z

M462 177

C458 175 450 171 450 170

C450 170 452 168 455 165

C458 163 462 159 463 157

C465 153 465 152 464 149

C462 144 456 142 447 142

C443 142 437 142 435 141

C432 140 428 140 425 141

C419 141 419 141 420 139

C420 138 421 134 421 130

C421 122 421 122 423 120

C427 118 427 117 423 116

C421 115 421 115 418 118

L415 121

L409 119

C404 117 404 117 404 115

C404 114 403 112 403 111

C402 110 402 109 403 109

C415 102 418 98 418 92

C418 90 419 88 419 88

C419 88 420 89 422 90

C424 91 427 93 430 94

C435 96 440 101 450 113

C458 122 464 126 474 127

L480 127

L480 134

C480 139 480 141 482 145

L485 150

L483 153

C481 155 481 156 483 157

C485 159 486 158 488 155

C489 152 491 151 492 152

C499 153 499 153 499 155

C498 156 498 157 499 158

C500 158 499 159 496 161

C491 164 484 171 482 175

C480 178 480 178 473 178

C470 178 465 177 462 177

Z

M485 175

C485 173 497 163 507 159

C512 156 517 154 518 154

C518 155 516 156 514 157

C512 158 507 161 504 165

C495 172 485 178 485 175

Z

M34 170

C27 167 18 165 8 165

L0 165

L0 162

C0 158 0 158 4 157

C9 157 20 153 34 148

C40 146 46 144 46 144

C47 144 45 148 42 153

C38 161 38 162 38 167

C39 170 39 173 39 173

C39 173 36 172 34 170

Z

M448 166

C447 165 447 161 447 157

C446 153 446 149 446 147

C445 146 445 145 447 145

C453 143 462 148 462 152

C462 154 451 167 449 167

C448 167 448 166 448 166

Z

M230 164

C225 162 220 159 217 155

L214 152

L216 148

C217 146 219 142 220 139

C221 135 222 133 224 132

C226 131 227 130 226 128

C226 126 226 126 228 126

C229 126 231 126 233 125

C234 125 235 126 237 128

C240 132 240 132 242 131

C244 129 244 129 242 126

C240 124 240 124 243 118

C246 113 246 112 246 106

L245 100

L250 102

C253 104 258 104 270 105

C294 106 308 110 315 119

C319 123 319 127 316 129

C315 130 314 131 315 133

C315 135 313 137 301 143

C288 148 286 152 291 163

C291 165 290 165 283 165

C278 165 274 164 271 163

C269 162 265 162 260 162

C255 162 251 162 249 163

C244 165 236 165 230 164

Z

M572 161

C553 156 535 153 528 153

L523 153

L527 151

C537 148 542 149 559 153

C568 155 578 157 582 158

L590 158

L590 162

C590 166 590 166 572 161

Z

M293 161

C289 153 291 149 304 144

C308 142 313 140 315 138

C317 136 319 135 319 135

C319 135 319 138 319 142

C319 148 319 150 321 154

C323 157 324 159 324 160

C322 161 311 163 303 164

L294 164

L293 161

Z

M331 157

C329 157 326 154 326 151

C326 151 333 149 337 149

C340 149 341 151 338 153

C338 154 337 155 337 156

C338 158 337 158 331 157

Z

M347 157

C347 156 346 155 346 154

C343 152 344 149 346 149

C350 149 358 153 357 155

C357 156 356 157 350 158

C347 158 346 158 347 157

Z

M190 155

C188 154 186 153 186 153

C184 152 192 149 197 149

C201 149 209 152 209 153

C209 156 197 157 190 155

Z

M0 128

L0 100

L10 94

C30 83 31 82 51 82

C63 81 68 81 71 80

C76 78 77 78 79 80

C80 83 80 83 78 86

L77 89

L67 88

C51 87 43 91 43 101

C43 107 46 112 53 115

C57 117 58 118 76 118

C91 118 94 118 96 119

C97 121 98 121 100 119

C102 118 103 118 106 119

C111 122 114 127 115 134

C115 146 110 150 97 150

C90 150 86 150 74 146

C60 141 59 141 51 141

C44 142 40 143 26 148

C17 151 7 154 5 155

L0 155

L0 128

Z

M507 154

C507 153 509 152 511 152

C512 152 512 153 511 154

C508 155 507 155 507 154

Z

M576 154

C575 154 568 152 561 151

C543 146 540 146 531 148

C527 148 523 149 523 149

C522 149 523 146 525 143

C527 139 527 137 527 132

C526 126 526 126 529 124

L532 122

L529 121

L526 119

L523 122

L520 125

L514 123

C509 122 509 121 509 119

C509 117 508 116 507 114

L504 112

L501 114

C499 115 499 117 499 118

C499 121 498 121 493 122

C491 123 488 124 487 124

C487 125 484 123 481 120

C477 117 477 115 477 112

C477 107 485 98 495 93

C502 89 503 89 509 93

C514 97 525 100 530 100

L533 100

L532 106

C532 112 532 113 535 118

C538 124 538 124 536 126

C534 129 534 129 536 131

C538 132 538 132 541 128

C542 126 544 125 545 125

C545 126 547 126 549 126

C552 126 552 126 551 128

C551 130 551 131 553 132

C557 134 561 131 560 128

C560 126 560 126 562 126

C563 126 565 126 567 125

C568 125 569 126 571 128

C573 132 573 132 575 131

C579 129 579 129 576 127

L574 124

L576 119

C578 116 579 113 579 113

C579 111 585 103 588 102

C590 101 590 102 590 128

L590 155

L584 155

C581 155 577 155 576 154

Z

M109 151

C118 146 121 133 114 124

C111 119 113 119 119 124

C123 128 128 137 128 141

C128 148 121 153 111 153

L106 153

L109 151

Z

M46 151

C46 151 47 149 49 147

C51 145 53 144 56 144

C59 144 64 145 68 146

L75 148

L64 149

C58 150 52 150 51 151

C47 152 46 152 46 151

Z

M354 148

C349 145 339 145 330 146

C326 147 325 147 325 146

C326 144 332 142 339 141

C348 140 360 144 359 148

C359 149 358 149 354 148

Z

M492 148

C489 148 487 145 487 143

C487 142 494 140 498 140

C501 140 502 143 499 145

C499 146 498 147 498 148

C499 149 496 149 492 148

Z

M508 148

C508 147 507 146 507 145

C506 144 505 143 505 142

C505 140 505 140 508 140

C513 141 518 144 518 145

C518 147 517 148 512 149

C508 149 507 149 508 148

Z

M372 142

C369 139 366 136 366 135

C366 135 367 134 368 133

C370 131 370 131 369 129

C367 129 366 128 364 129

C362 129 362 129 362 125

C363 119 367 114 373 111

C379 108 389 106 397 106

L402 107

L398 109

C394 110 394 111 394 114

C394 116 394 117 387 118

L380 120

L377 117

C375 115 375 115 372 116

L369 118

L372 120

C375 122 375 122 374 128

C374 134 374 135 377 140

C379 144 379 146 379 147

C378 148 376 146 372 142

Z

M390 145

C389 144 387 144 386 144

C385 143 383 142 382 141

C381 138 381 137 390 136

C396 135 398 137 394 140

C393 142 392 143 393 144

C393 145 392 145 390 145

Z

M402 144

C402 143 401 141 401 139

C399 137 399 136 401 136

C404 136 413 139 413 141

C413 142 410 144 406 144

C403 145 402 145 402 144

Z

M352 139

C347 138 333 138 328 140

C324 141 326 137 331 135

C340 132 359 135 359 140

C359 141 357 141 352 139

Z

M515 139

C509 136 497 136 491 138

C487 139 484 138 487 136

C496 130 522 133 520 140

C520 140 517 140 515 139

Z

M408 134

C404 132 401 132 395 132

C390 133 385 133 384 134

C382 134 381 134 381 133

C381 131 389 128 398 129

C406 129 415 132 415 134

C415 136 414 136 408 134

Z

M323 131

C322 130 321 127 321 125

C320 117 312 111 299 106

C292 104 287 104 274 103

C255 102 250 101 250 97

C250 96 249 94 247 94

L245 92

L248 89

C254 82 264 80 282 84

C298 87 303 87 311 78

L317 72

L323 74

C329 76 329 76 328 79

C328 81 328 82 331 83

C333 85 334 85 336 84

C338 83 338 82 338 79

C338 77 338 76 345 75

L351 73

L354 76

C357 78 357 78 359 77

C363 76 363 75 359 73

C357 71 356 70 357 70

C359 67 387 78 398 87

C406 92 410 100 407 101

C406 102 400 103 392 104

C381 105 378 105 372 108

C363 113 358 121 360 129

C361 131 361 133 360 133

C360 134 357 133 353 132

C348 130 348 130 348 128

C348 126 345 121 343 121

C340 121 337 125 338 127

C338 130 338 130 335 131

C334 131 331 132 328 132

C325 134 324 134 323 131

Z

M514 131

C510 129 507 129 501 129

C496 130 491 130 490 131

C487 131 487 131 487 129

C488 125 505 124 513 127

C517 128 520 130 520 132

C520 133 520 133 514 131

Z

M186 128

C183 125 183 121 186 117

C188 114 196 108 198 108

C199 108 199 109 199 111

C199 113 200 116 202 119

C203 122 204 124 204 124

C204 125 192 130 190 130

C189 130 187 129 186 128

Z

M172 127

C168 125 165 120 165 116

C165 107 172 103 184 105

C192 106 194 107 191 108

C190 109 188 111 185 113

C182 117 182 118 181 122

C181 127 181 128 178 128

C176 128 174 128 172 127

Z

M409 126

C404 125 387 125 384 126

C382 127 382 127 382 125

C382 121 401 119 409 123

C412 124 414 126 414 126

C414 128 414 128 409 126

Z

M467 122

C461 120 458 118 450 108

C441 98 438 95 431 92

C420 87 417 81 423 78

C428 76 434 77 440 79

C446 82 454 82 459 79

C468 75 485 77 495 84

L500 87

L494 90

C487 94 478 102 476 107

C474 109 474 111 474 114

C476 125 476 124 473 124

C472 124 469 123 467 122

Z

M212 122

C209 122 206 119 206 117

C206 116 213 114 217 114

C220 114 221 116 219 118

C218 119 217 120 217 121

C217 122 216 123 216 123

C215 123 213 123 212 122

Z

M227 122

C227 121 226 120 226 119

C223 117 224 114 226 114

C230 114 238 118 237 120

C237 121 236 121 230 123

C228 123 227 123 227 122

Z

M545 122

C542 121 540 120 540 117

C540 116 545 114 550 114

C554 114 555 116 552 118

C551 119 550 121 551 122

C551 123 550 123 545 122

Z

M560 122

C560 121 559 119 559 117

C557 115 557 114 559 114

C562 114 571 117 571 119

C571 120 568 122 564 122

C561 123 560 123 560 122

Z

M57 114

C49 111 44 104 46 98

C47 94 54 91 59 91

L62 91

L60 93

C58 94 57 96 57 97

C57 101 62 110 65 112

L69 115

L65 115

C62 115 59 114 57 114

Z

M234 113

C229 110 218 110 210 111

C206 112 205 112 205 111

C207 107 227 105 234 108

C238 110 240 112 239 114

C239 114 236 114 234 113

Z

M77 113

C77 113 78 111 79 110

L81 107

L87 109

C90 110 93 112 93 112

C92 114 77 114 77 113

Z

M566 112

C559 110 551 110 544 111

C539 113 539 113 539 111

C539 109 547 106 556 107

C564 107 573 110 573 112

C573 114 572 114 566 112

Z

M66 110

C64 108 60 101 60 98

C60 96 64 93 70 92

L75 92

L75 99

C76 105 75 106 72 109

L69 112

L66 110

Z

M89 106

C84 105 81 102 82 101

C82 100 84 101 87 102

C91 104 104 104 110 102

C114 101 115 101 114 104

C114 106 105 108 99 108

C96 108 91 107 89 106

Z

M233 104

C228 103 212 103 208 105

C206 105 206 105 206 103

C208 96 239 98 239 105

C239 106 237 106 233 104

Z

M567 104

C564 103 560 103 553 103

C548 104 543 104 541 105

C539 105 539 105 540 103

C540 101 548 99 556 99

C563 99 572 102 572 104

C572 106 572 106 567 104

Z

M579 103

C578 100 579 100 581 98

C585 96 585 95 581 94

C579 93 579 93 576 96

L573 99

L567 97

C562 95 562 95 562 93

C562 90 564 89 573 89

C578 89 583 89 586 88

L590 87

L590 93

C590 96 590 98 589 98

C589 98 586 100 584 102

L579 106

L579 103

Z

M87 98

C83 97 80 94 81 93

C81 92 84 93 88 94

C92 96 95 96 102 96

C107 95 112 95 113 94

C114 94 115 94 115 95

C115 99 95 101 87 98

Z

M411 97

C409 88 387 74 365 68

C357 66 357 66 358 64

C358 62 359 62 367 64

C391 68 410 75 414 84

C417 88 416 95 413 98

L411 100

L411 97

Z

M233 97

C228 95 228 95 228 92

C228 90 227 89 225 87

L222 85

L224 82

C225 79 227 78 230 78

C235 77 242 74 248 69

C252 66 253 66 257 66

C262 67 270 66 274 63

L276 61

L281 65

C285 68 286 69 294 69

C298 69 304 69 306 70

L310 71

L308 73

C306 75 305 76 306 76

C307 77 307 77 306 78

C302 83 294 84 280 81

C275 80 269 79 266 79

C255 79 245 84 243 92

C242 97 240 99 239 99

C239 99 236 98 233 97

Z

M536 95

C534 92 532 92 529 95

C527 97 527 97 521 96

C515 94 508 90 508 89

C508 88 513 87 524 87

C534 86 537 85 546 78

C558 70 561 68 571 66

C576 66 582 64 585 63

C587 62 589 61 590 61

C590 61 590 65 590 69

C590 77 590 77 587 78

C583 80 572 83 565 84

C561 85 559 86 560 86

C560 87 559 87 558 87

C555 86 551 88 551 91

C551 93 547 95 541 97

C537 98 537 98 536 95

Z

M0 92

L0 87

L5 86

C15 83 27 81 25 83

C25 84 21 85 18 87

C14 89 8 92 5 94

L0 97

L0 92

Z

M89 91

C86 90 83 89 83 89

C83 89 83 86 84 86

C84 85 87 85 89 84

C93 83 94 84 94 85

C94 85 95 87 96 88

C97 91 97 93 95 93

C95 93 92 92 89 91

Z

M100 91

C100 91 101 89 102 88

C103 86 104 85 103 84

C103 83 112 85 113 86

C115 89 114 91 108 92

C101 93 101 93 100 91

Z

M121 90

C120 88 120 88 123 89

C125 90 125 90 124 91

C122 92 121 92 121 90

Z

M203 87

C202 87 194 85 186 83

C173 80 170 80 163 80

C156 81 140 84 133 87

C128 88 139 79 145 77

C150 75 152 75 174 75

C200 75 222 76 222 79

C222 80 220 82 218 84

C215 88 214 88 210 88

C207 88 204 88 203 87

Z

M120 85

L116 83

L118 81

C121 78 121 76 118 75

C116 75 114 76 112 80

C112 81 110 81 107 80

C103 80 102 80 103 78

C103 77 103 75 101 75

C100 74 100 73 101 71

C104 66 99 57 92 54

C90 54 85 53 79 53

C70 53 70 53 69 51

C69 50 68 47 66 45

C64 40 64 40 66 38

C68 36 68 35 67 34

C65 32 63 33 61 36

C60 39 59 39 56 39

C54 38 52 38 51 38

C50 38 50 37 50 36

C51 35 49 31 47 31

C46 31 45 32 43 33

C42 34 41 35 42 36

C43 38 42 38 38 38

C34 39 33 39 31 36

C29 33 28 33 26 34

C25 35 24 35 23 35

C22 34 24 33 31 31

C36 29 43 29 54 28

C72 28 86 30 106 36

C118 39 119 39 132 39

C145 39 157 37 163 33

C165 32 167 31 168 32

C169 32 170 31 172 29

L175 26

L181 28

C186 30 187 30 186 33

C185 34 186 35 188 37

C189 38 191 39 191 39

C193 39 196 36 196 33

C196 31 197 30 203 29

L210 27

L212 29

C214 32 215 33 218 31

C220 30 220 30 217 27

C214 25 214 24 215 20

C215 15 216 14 219 14

C225 13 245 18 252 22

L255 24

L253 29

C252 34 252 41 253 44

C255 46 254 47 252 50

C251 53 250 56 249 59

L248 63

L243 63

C236 63 232 65 227 71

C225 75 225 75 220 74

C202 72 195 72 179 71

C158 71 150 72 140 76

C137 78 133 81 130 83

C126 88 125 88 120 85

Z

M570 86

C571 86 572 85 572 85

C573 85 577 84 582 83

L590 80

L590 83

C590 85 589 85 577 87

C572 87 570 87 570 86

Z

M498 83

C491 78 482 75 474 74

C467 74 463 75 455 78

L450 80

L442 77

C438 75 433 74 431 74

C427 74 421 76 419 79

L416 81

L413 78

C406 71 391 65 370 62

L358 59

L355 53

L352 47

L354 45

C356 42 356 42 354 41

C352 39 352 39 349 43

C347 45 346 46 345 46

C343 45 341 45 340 45

C338 45 338 45 338 43

C339 42 338 40 336 39

C331 35 335 26 341 24

C346 24 353 25 360 28

L365 30

L365 34

C364 37 364 40 365 42

C366 46 365 46 363 48

C360 50 360 50 361 52

C363 54 365 53 368 50

L371 47

L377 49

C383 51 383 51 382 54

C382 56 382 57 385 59

C387 61 387 61 390 59

C392 57 393 56 392 54

C392 52 392 51 399 50

L406 48

L408 51

C411 53 413 54 415 51

C416 50 416 50 414 49

C413 48 412 47 412 47

C411 47 411 45 411 42

C412 39 412 35 411 33

C410 31 410 30 411 30

C412 30 417 32 424 34

C432 38 438 39 448 41

C465 44 472 46 484 53

C490 56 497 60 500 61

C512 65 525 65 536 61

C538 60 543 59 547 59

C551 58 560 56 569 54

C577 52 585 50 587 50

L590 49

L590 53

C590 57 589 58 585 60

C582 61 576 63 572 64

C561 65 554 68 545 75

C536 82 534 83 522 84

C516 85 510 85 508 85

C504 86 503 85 498 83

Z

M0 82

C0 81 2 79 5 77

C12 73 17 68 17 64

C17 59 14 54 9 51

C7 49 5 47 5 47

C5 46 4 44 3 42

C0 39 0 39 0 20

L0 0

L3 0

C4 0 5 1 5 1

C5 2 6 3 7 3

C10 4 10 4 12 2

C14 0 19 -1 24 1

C27 2 27 3 27 5

C26 6 27 8 29 10

C32 12 32 12 34 10

C36 9 37 8 37 6

C37 3 37 3 42 1

C49 0 51 0 53 2

C55 4 55 4 58 3

C59 3 60 2 60 1

C60 0 68 0 95 0

C115 0 131 1 131 1

C131 3 140 11 145 13

C148 15 152 16 158 16

L167 17

L168 20

C170 28 165 30 144 29

C125 28 109 26 84 21

C67 18 61 17 51 17

C31 17 16 21 8 29

C1 36 3 43 16 49

C20 51 23 54 23 54

C22 54 22 57 23 59

C24 64 24 64 21 66

C19 68 18 68 19 70

C21 72 24 71 27 68

L29 65

L35 67

C41 69 41 69 40 72

C40 74 40 75 42 76

C43 77 44 77 44 78

C44 78 39 79 32 79

C26 80 16 81 11 82

C-1 84 0 84 0 82

Z

M83 78

C81 75 81 75 82 69

C84 63 84 61 80 57

L78 55

L80 55

C82 55 85 55 88 56

C94 57 99 62 99 67

C99 70 97 74 94 75

C94 76 93 77 94 78

C94 79 93 80 91 80

C86 81 85 81 83 78

Z

M48 77

C50 75 51 74 50 72

C50 70 50 69 57 68

L64 66

L66 69

C68 71 69 71 71 71

C75 70 75 69 72 66

C67 63 69 56 74 57

C85 60 82 74 69 77

C66 78 60 79 55 79

L46 79

L48 77

Z

M0 68

C0 62 0 60 3 58

C4 56 5 54 5 53

C5 51 7 52 10 56

C17 62 15 68 5 74

C1 77 0 77 0 68

Z

M230 72

C232 70 235 67 236 67

C240 65 247 64 247 66

C247 67 233 75 230 75

C228 75 228 75 230 72

Z

M329 72

C324 71 318 69 318 67

C317 65 318 65 322 66

C327 68 339 69 346 67

C350 66 350 66 350 68

C349 71 336 74 329 72

Z

M305 67

C298 65 297 61 300 56

C301 53 302 53 307 54

L311 55

L311 62

C310 69 310 69 305 67

Z

M287 66

C286 65 284 63 282 61

C278 58 278 58 280 57

C282 54 287 53 293 53

L298 53

L296 57

C295 59 295 61 296 63

C296 65 297 66 296 66

C295 67 290 67 287 66

Z

M40 65

C32 63 30 62 30 60

C30 58 30 58 34 60

C39 62 53 62 58 60

C62 59 62 59 62 61

C62 64 46 67 40 65

Z

M322 63

C318 61 317 60 317 59

C317 57 316 57 324 59

C328 61 331 61 338 61

C342 60 347 60 348 59

C353 58 351 61 345 63

C339 66 329 65 322 63

Z

M253 63

C252 63 251 62 251 61

C251 59 256 49 257 49

C257 49 261 52 266 54

L274 59

L272 61

C271 62 268 63 267 63

C263 64 255 64 253 63

Z

M507 60

C500 58 492 55 483 49

C474 44 467 42 449 39

C438 37 432 35 426 33

C421 31 416 28 413 28

C411 27 408 26 408 25

C406 23 406 22 408 20

C409 18 410 17 409 16

C407 14 405 15 403 18

C402 21 401 21 398 21

C396 20 394 20 393 20

C392 20 392 19 392 18

C393 17 392 16 391 14

C389 13 389 13 386 14

C384 15 384 17 384 18

C384 19 383 20 380 21

C376 21 375 21 373 18

C371 16 371 15 373 15

C374 14 376 14 377 14

C382 14 402 8 413 4

L424 0

L442 0

L460 0

L468 4

L476 7

L476 14

C476 19 476 22 478 26

L481 31

L479 33

C477 35 477 35 478 37

C481 39 481 38 483 35

C485 32 488 31 493 33

C494 33 495 34 494 35

C494 36 495 37 497 39

C499 40 501 42 502 43

C507 50 518 56 528 58

C531 59 531 59 530 60

C526 62 513 62 507 60

Z

M35 56

C31 55 28 52 29 51

C29 50 32 51 36 52

C40 54 43 54 50 54

C55 53 60 53 61 52

C62 52 63 52 63 53

C63 57 43 59 35 56

Z

M328 57

C326 56 323 55 321 54

L318 53

L320 51

C321 50 323 49 325 49

C326 49 328 49 328 48

C330 48 330 48 330 49

C330 50 330 52 331 53

C333 57 332 58 328 57

Z

M336 57

C336 56 336 54 337 53

C338 52 339 51 339 50

C339 48 340 48 341 48

C342 49 344 49 345 49

C348 50 351 53 350 55

C349 55 347 56 345 56

C343 57 340 57 339 58

C338 58 337 58 336 57

Z

M0 53

C0 51 0 50 1 50

C3 51 3 52 2 55

C0 56 0 56 0 53

Z

M268 52

C258 47 258 47 261 40

C264 34 264 31 261 26

C259 24 259 21 259 18

C259 14 259 13 256 11

C252 8 244 4 239 4

C235 4 237 2 241 1

C244 0 255 0 269 0

C295 0 296 0 321 8

C343 14 347 15 358 15

C365 15 367 15 367 16

C366 17 367 19 368 20

C370 22 370 23 368 25

C368 27 367 28 367 28

C366 28 364 27 361 26

C346 19 325 20 315 29

C312 31 312 32 312 37

C312 40 312 43 314 45

C316 47 316 48 314 49

C314 50 313 52 313 52

C313 53 310 52 307 51

C299 49 287 50 280 53

C277 55 275 56 274 56

C274 56 271 54 268 52

Z

M524 55

C517 52 512 49 507 44

C502 39 501 37 503 37

C504 37 504 36 503 35

C502 34 502 33 503 33

C503 33 505 33 508 32

C510 32 512 32 512 32

C512 32 513 34 514 35

C516 38 517 38 519 37

L521 36

L519 33

L517 30

L520 25

C521 23 522 20 522 18

C522 16 523 15 528 18

C530 19 535 21 540 22

C554 26 559 29 559 34

C559 38 554 45 547 51

C541 56 541 56 534 56

C531 56 526 55 524 55

Z

M548 55

C548 54 555 49 565 42

C572 37 578 36 585 40

C589 41 590 42 590 44

C590 47 590 47 587 47

C586 47 579 48 573 50

C560 54 548 56 548 55

Z

M41 50

C34 48 31 47 31 45

C31 44 32 43 37 42

C41 41 42 42 42 42

C41 43 42 44 43 45

C44 48 45 51 43 51

C43 51 42 51 41 50

Z

M48 49

C48 49 49 47 50 46

C51 44 52 43 51 43

C51 42 52 42 54 42

C57 42 59 43 60 44

C63 47 62 49 56 50

C49 51 49 51 48 49

Z

M16 46

C8 42 5 38 8 34

C12 25 36 18 57 19

C62 20 72 21 80 23

C109 29 144 33 154 32

C157 31 159 31 158 32

C154 36 126 38 117 36

C87 27 71 25 53 25

C40 26 28 28 23 31

C18 33 19 36 24 38

L28 40

L26 44

C25 47 23 49 22 49

C21 49 18 48 16 46

Z

M382 47

C374 45 372 44 372 42

C371 40 371 40 373 40

C383 44 386 44 392 43

C395 43 399 42 401 42

C404 41 404 41 404 43

C404 46 388 49 382 47

Z

M0 45

C0 45 0 44 1 45

C2 45 2 46 2 46

C2 47 2 47 1 47

C0 47 0 46 0 45

Z

M319 43

C318 42 317 40 316 40

C312 38 314 31 321 28

C323 27 334 24 334 24

C334 25 333 26 332 29

C331 31 331 34 331 36

C332 38 331 39 330 40

C330 41 329 42 330 43

C330 44 329 45 326 45

C321 46 320 46 319 43

Z

M255 40

C254 37 255 29 257 27

C258 25 260 29 260 32

C260 35 257 42 256 42

C256 42 255 41 255 40

Z

M561 37

C564 28 560 25 541 19

C534 17 528 15 526 14

C523 12 523 8 527 4

L530 0

L560 0

L590 0

L590 19

C590 29 590 38 590 38

C589 38 587 37 585 37

C583 36 579 35 576 35

C572 35 564 38 563 40

C561 42 560 41 561 37

Z

M376 38

C372 36 371 35 371 34

C371 33 371 32 372 32

C379 35 385 36 392 36

C397 35 402 35 403 34

C404 34 405 34 405 35

C405 38 400 39 390 40

C383 40 381 40 376 38

Z

M383 32

C376 30 373 29 373 27

C373 26 374 25 379 24

C383 23 384 24 384 24

C383 25 384 26 385 27

C386 30 387 33 385 33

C385 33 384 33 383 32

Z

M390 32

C390 31 391 29 392 28

C393 26 394 25 393 24

C393 23 401 25 403 27

C403 28 404 29 404 29

C404 30 401 32 395 32

C392 33 391 33 390 32

Z

M487 28

C485 28 483 25 483 23

C483 22 490 20 494 20

C498 20 498 22 495 25

C494 26 493 27 493 28

C494 29 490 29 487 28

Z

M502 25

C501 23 500 21 500 21

C500 20 501 20 503 20

C507 21 514 24 514 25

C514 27 512 28 508 28

L503 29

L502 25

Z

M185 26

C179 24 175 22 175 20

C175 18 175 18 180 20

C184 22 186 22 194 22

C200 21 205 21 206 21

C207 21 207 21 208 22

C209 25 193 28 185 26

Z

M251 18

C244 15 233 12 223 11

C214 11 213 10 213 6

C213 4 237 6 243 7

C250 9 255 12 256 16

C258 20 256 21 251 18

Z

M512 20

C507 17 499 16 492 17

C488 18 484 18 483 19

C482 19 482 19 482 17

C483 13 502 11 511 15

C514 16 516 18 516 19

C516 21 515 21 512 20

Z

M181 17

C175 15 174 14 175 12

C175 11 177 12 182 13

C186 15 189 15 196 15

C200 14 205 14 206 13

C211 12 209 15 204 17

C198 19 187 19 181 17

Z

M151 13

C146 11 141 8 137 4

L134 0

L149 0

L164 0

L165 3

C168 6 169 11 168 13

C168 14 156 14 151 13

Z

M348 12

C343 11 308 1 307 0

C307 0 331 0 361 0

C391 0 415 0 415 1

C415 1 393 8 385 10

C374 12 356 13 348 12

Z

M510 11

C506 9 503 9 496 9

C491 10 486 10 485 11

C482 11 482 11 483 9

C487 2 518 5 515 12

C515 12 512 12 510 11

Z

M186 11

C177 9 174 5 180 3

C182 3 184 3 185 2

C186 2 187 2 187 4

C187 5 188 6 189 7

C191 10 190 12 186 11

Z

M194 10

C194 9 195 8 196 7

C196 6 197 5 197 4

C196 2 197 2 200 3

C205 3 207 5 207 7

C208 9 205 10 198 11

C195 12 194 12 194 10

Z

M169 3

L167 0

L170 0

C173 0 174 1 172 4

C170 6 170 6 169 3

Z

M480 3

C479 2 478 1 478 1

C478 0 482 0 486 0

C491 0 494 0 494 1

C494 2 493 2 492 2

C490 2 487 3 485 3

C482 5 481 5 480 3

Z

M509 3

C506 2 504 1 504 1

C504 0 508 0 512 0

L520 0

L518 3

C517 5 516 5 509 3

Z

M210 2

C210 1 210 1 210 0

C211 0 220 1 219 2

C219 3 211 3 210 2

Z

"/>

</svg>

