<?xml version="1.0" standalone="no"?>

<!DOCTYPE svg PUBLIC "-//W3C//DTD SVG 20010904//EN"

 "http://www.w3.org/TR/2001/REC-SVG-20010904/DTD/svg10.dtd">

<svg version="1.0" xmlns="http://www.w3.org/2000/svg"

 width="642.000000pt" height="590.000000pt" viewBox="0 0 642.000000 590.000000"

 preserveAspectRatio="xMidYMid meet">

<path fill="#fdfcfb" stroke="none" d="
M0 295

L0 0

L321 0

L642 0

L642 295

L642 590

L321 590

L0 590

L0 295

Z

"/>

<path fill="#c296a2" stroke="none" d="
M22 586

L26 581

L22 579

C17 577 16 575 19 570

L21 566

L17 565

C13 564 7 564 3 565

C0 566 0 566 0 564

C0 563 1 562 4 562

C8 561 9 559 9 553

L9 550

L5 551

L0 551

L0 532

C0 521 0 513 0 513

C27 543 29 547 34 557

C38 563 40 574 41 583

L42 590

L30 590

L18 590

L22 586

Z

M71 582

C69 563 64 549 55 534

C50 525 46 521 33 506

C10 481 4 466 5 439

C6 415 11 405 35 378

C41 371 47 364 50 360

C57 351 65 335 68 324

C70 314 70 312 70 296

C70 279 70 277 68 268

C63 249 54 235 38 217

C18 194 14 187 9 173

C6 165 6 164 6 148

C6 131 6 130 8 123

C12 112 17 103 27 92

C48 68 51 64 54 59

C59 51 63 42 66 34

C68 27 71 11 71 4

L71 0

L76 0

C83 0 82 -1 83 14

C84 19 85 26 87 31

C92 48 100 61 118 82

C142 109 148 122 148 147

C148 171 143 185 123 207

C102 232 95 241 90 255

C84 270 82 288 83 306

C84 320 87 330 93 343

C98 354 106 364 120 381

C143 405 148 418 148 443

C148 457 147 465 142 475

C138 485 133 492 119 508

C112 515 104 525 102 529

C91 543 84 562 83 578

C83 590 83 590 77 590

L71 590

L71 582

Z

M88 544

C92 535 92 526 87 516

C85 511 79 504 77 504

C76 504 77 508 79 512

C82 520 86 535 86 538

C86 541 84 537 79 522

C76 513 73 505 73 505

C72 503 69 512 69 517

C69 522 72 528 78 538

C80 541 82 546 83 548

C83 551 83 551 85 549

C86 548 87 546 88 544

Z

M59 520

C64 518 66 514 66 508

C65 505 64 501 63 500

L61 497

L61 502

C60 507 56 517 55 517

C55 517 55 514 56 511

C58 505 59 497 57 497

C57 497 55 498 53 500

C50 503 50 503 50 512

C50 517 50 522 51 522

C51 523 54 522 59 520

Z

M105 513

C104 510 104 507 103 506

C101 503 94 500 90 500

L87 501

L89 504

C91 505 94 509 97 511

C100 513 102 514 102 515

C101 515 93 510 88 507

L85 504

L85 507

C87 512 95 518 102 518

C105 518 105 518 105 513

Z

M76 493

C77 493 79 495 81 497

L85 500

L87 495

L90 490

L88 488

C85 486 81 479 79 472

L76 466

L75 470

C73 476 70 483 66 487

L63 491

L66 495

L68 500

L72 497

C74 495 76 493 76 493

Z

M54 492

C60 489 66 483 69 476

C73 468 75 455 75 451

C74 447 74 447 71 447

C67 447 53 454 47 460

C41 466 38 471 37 479

L37 484

L42 483

C47 483 49 484 49 490

C49 493 50 494 54 492

Z

M104 490

C104 488 104 486 105 485

C106 483 107 483 111 483

L116 484

L116 479

C115 472 112 466 106 460

C100 454 86 447 82 447

C79 447 79 447 78 451

C77 456 80 470 84 477

C88 485 97 493 102 493

C104 493 104 492 104 490

Z

M38 466

C41 461 47 455 52 452

C54 450 54 450 49 450

C42 450 34 448 30 446

C28 445 27 445 24 449

L20 453

L24 455

C29 457 30 459 27 464

L25 468

L28 469

C34 471 36 470 38 466

Z

M127 468

C128 468 127 466 126 464

C123 459 124 457 129 455

C131 454 133 453 133 453

C133 453 132 451 130 449

L126 445

L121 447

C118 448 112 450 107 450

L99 451

L105 455

C108 457 112 462 114 465

L118 470

L122 470

C124 469 127 469 127 468

Z

M66 444

C69 444 71 442 72 442

C72 440 67 432 61 427

C59 425 53 421 49 419

C43 416 42 416 35 416

C31 416 27 417 26 417

C26 418 26 419 27 422

C30 427 29 429 24 431

L20 433

L23 436

C30 444 39 447 52 447

C57 446 63 445 66 444

Z

M120 444

C124 442 133 435 133 433

C133 433 131 432 129 431

C124 429 123 427 126 422

C129 417 128 417 118 417

C111 417 109 417 104 419

C94 424 80 439 81 442

C82 443 88 445 94 446

C95 447 100 447 106 447

C113 446 117 446 120 444

Z

M83 431

C92 417 94 401 87 389

L85 386

L81 389

C79 391 77 393 77 393

C76 393 74 391 72 390

C70 388 69 386 69 386

C68 386 67 388 66 391

C62 398 61 405 63 413

C65 423 74 439 77 438

C78 438 80 435 83 431

Z

M61 417

C59 412 59 408 59 404

L59 397

L56 395

C51 392 49 392 49 396

C49 402 46 404 40 402

C37 401 37 401 37 404

C37 405 37 408 38 410

C38 412 39 413 41 413

C44 413 56 419 60 422

C61 423 63 424 63 424

C63 424 62 421 61 417

Z

M96 420

C101 417 110 413 113 413

C115 413 116 411 116 406

L116 402

L111 403

C106 403 105 403 104 397

L104 392

L99 394

L95 397

L94 405

C94 409 93 415 92 418

C91 421 90 424 91 424

C91 424 93 422 96 420

Z

M100 391

C103 389 104 388 106 381

C108 377 109 373 109 372

C109 371 99 373 96 374

C92 377 89 382 89 387

L89 391

L91 388

C93 384 102 375 103 375

C104 375 102 377 100 380

C97 384 93 390 93 392

C93 394 96 393 100 391

Z

M61 389

C62 388 59 383 54 379

C51 376 49 374 50 374

C52 374 58 379 62 383

L66 388

L66 383

C64 374 60 370 53 370

C49 370 43 371 43 372

C43 373 51 387 53 388

C54 388 57 389 60 390

C60 390 61 390 61 389

Z

M79 383

C78 382 77 375 77 368

C76 360 75 353 74 351

C74 348 74 348 75 350

C77 353 80 365 81 375

C82 385 82 386 84 380

C88 370 87 359 82 351

C80 348 70 339 68 339

C67 339 68 340 68 342

C69 345 69 348 68 355

C66 370 68 376 74 383

C78 387 79 387 79 383

Z

M89 246

C91 240 92 233 90 226

C89 221 82 211 79 209

L76 207

L77 210

C77 211 79 215 80 219

C82 226 86 239 86 242

C86 245 84 241 79 226

C76 217 73 209 73 209

C71 207 69 215 69 222

C70 228 72 232 78 242

C80 245 82 250 83 252

C83 255 83 255 85 253

C86 252 87 249 89 246

Z

M60 223

C66 220 68 212 63 204

L62 201

L61 205

C60 212 57 218 55 220

C54 221 54 221 56 217

C56 214 57 210 58 207

C58 200 57 199 53 204

C50 207 50 207 50 216

C50 221 50 226 51 226

C51 227 56 226 60 223

Z

M105 218

C105 210 99 204 91 204

L87 204

L89 207

C90 209 94 212 97 214

C100 216 102 218 102 219

C101 219 95 215 89 211

C85 208 84 209 87 214

C90 218 97 222 103 222

C105 222 105 221 105 218

Z

M77 197

C77 197 79 199 81 200

L85 204

L87 199

L90 194

L88 192

C85 190 81 183 79 176

L76 170

L75 174

C73 180 70 187 66 191

L63 195

L66 199

L68 204

L72 200

C74 199 76 197 77 197

Z

M55 195

C64 191 71 181 74 167

C76 156 75 151 71 151

C65 151 50 160 44 166

C40 171 37 179 37 184

L37 188

L42 187

C47 187 49 188 49 194

C49 198 50 198 55 195

Z

M104 194

C104 188 106 187 111 187

L116 188

L116 183

C115 172 107 162 93 155

C78 148 76 150 79 167

C82 181 89 192 98 196

C103 198 104 197 104 194

Z

M38 170

C40 167 46 160 51 156

L54 154

L46 154

C42 153 36 152 33 151

C27 149 26 149 22 154

L20 157

L23 158

C25 159 27 160 28 161

C29 163 29 164 27 167

C26 169 25 172 25 172

C26 172 32 174 34 174

C35 174 37 173 38 170

Z

M127 172

C128 172 127 170 126 168

C123 162 124 161 130 159

C131 158 133 157 133 157

C133 157 131 155 129 153

L125 149

L120 151

C117 153 112 154 107 154

L99 155

L102 157

C107 160 113 167 116 171

C117 174 117 174 122 174

C124 173 127 173 127 172

Z

M59 150

C66 149 72 146 72 144

C72 142 64 133 59 129

C51 123 45 121 38 120

C34 120 29 120 28 121

L25 122

L27 126

C30 131 29 133 24 135

L20 137

L23 141

C31 149 43 152 59 150

Z

M120 148

C124 146 134 138 133 137

C133 137 131 136 129 135

C124 133 123 131 126 126

C128 122 128 122 126 121

C125 121 121 121 117 121

C111 121 109 121 103 124

C92 129 79 143 82 146

C82 147 86 148 90 149

C99 152 112 151 120 148

Z

M81 138

C92 123 94 104 86 93

L85 90

L81 94

C77 98 75 97 71 92

C69 89 68 89 65 97

C61 106 62 117 67 130

C70 135 75 142 77 142

C78 142 79 140 81 138

Z

M61 123

C60 120 60 115 59 110

L59 101

L55 98

C52 97 50 96 50 96

C49 96 49 98 49 100

C49 102 48 104 48 106

C46 107 46 107 42 106

L37 105

L37 109

C37 113 39 117 41 117

C44 117 53 121 58 124

C60 126 63 128 63 128

C63 127 62 125 61 123

Z

M96 124

C100 121 110 117 113 117

C115 117 116 115 116 110

L116 106

L111 107

C107 107 106 107 105 104

C105 103 104 100 104 99

L104 96

L99 98

L94 100

L94 108

C94 114 94 118 92 122

C90 128 90 128 96 124

Z

M98 96

C100 95 102 93 103 92

C104 91 109 78 109 76

C109 75 99 77 96 79

C91 81 89 86 89 91

L90 94

L93 89

C97 84 104 77 104 79

C104 79 102 81 100 84

C97 88 93 94 93 96

C93 97 95 97 98 96

Z

M62 92

C62 91 59 88 55 84

C52 81 49 78 50 78

C52 78 58 83 62 87

C66 91 66 91 66 89

C66 86 64 79 61 77

C59 74 54 73 48 74

C45 75 43 75 43 76

C43 77 51 90 53 91

C56 93 62 94 62 92

Z

M79 87

C78 86 77 79 77 72

C76 64 75 57 74 55

C74 52 74 52 75 53

C76 54 80 69 81 79

C81 88 82 90 84 86

C88 76 87 63 82 55

C80 51 70 43 68 43

C67 43 68 44 68 46

C69 49 69 52 68 59

C66 74 68 82 75 87

C79 91 79 91 79 87

Z

M112 585

C112 577 115 564 119 556

C124 548 130 540 140 528

C163 503 171 488 176 467

C178 457 178 431 176 422

C171 399 164 385 142 360

C127 343 121 335 117 325

C113 314 112 306 112 291

C113 267 118 257 145 226

C161 208 170 194 175 176

C177 166 177 164 177 148

C177 131 177 129 175 120

C170 101 161 86 142 65

C136 59 130 51 127 48

C118 36 112 18 112 5

L112 0

L125 0

C135 0 139 0 142 2

C147 4 166 4 173 2

C179 0 188 0 198 2

C206 5 218 4 225 2

C229 0 233 0 243 0

L256 0

L256 7

C253 29 247 40 225 65

C212 81 206 89 200 101

C192 118 188 137 190 158

C191 172 194 182 200 195

C205 206 212 216 227 232

C246 254 253 267 255 286

C257 305 253 324 243 339

C240 344 232 353 225 361

C199 390 190 410 190 442

C190 468 196 487 209 507

C212 510 219 519 226 527

C248 551 253 562 255 583

L256 590

L244 590

L232 590

L234 588

C235 587 237 585 238 583

C240 581 240 581 237 580

C231 577 230 576 233 571

C234 569 235 567 235 567

C235 565 226 564 221 564

C218 565 213 566 210 568

C204 571 192 581 189 586

C188 590 187 590 184 590

C180 590 179 590 177 585

C174 580 166 572 158 568

C152 565 151 565 144 565

C139 565 135 565 134 565

C132 566 132 566 134 570

C137 575 136 576 131 579

C129 580 127 581 127 581

C127 581 129 583 131 586

L135 590

L124 590

L112 590

L112 585

Z

M190 579

C195 572 198 562 198 553

C198 548 197 545 195 540

L192 534

L188 537

C186 539 184 541 184 541

C183 541 181 540 179 538

L176 535

L174 537

C172 540 169 548 169 553

C169 558 171 566 174 572

C177 579 182 586 184 586

C185 586 187 583 190 579

Z

M168 565

C166 560 166 556 166 552

L166 545

L163 543

C158 540 156 540 156 544

C156 546 156 548 155 549

C154 551 153 551 149 551

C144 550 144 550 144 552

C144 554 144 556 145 558

C145 560 146 561 149 561

C153 562 160 565 166 569

C168 571 170 572 170 572

C170 571 169 569 168 565

Z

M203 568

C208 565 217 561 220 561

C222 561 223 559 223 554

L223 550

L218 551

C213 551 213 551 212 549

C211 547 211 545 211 543

C211 541 211 541 208 541

C202 543 201 544 201 553

C201 558 200 563 199 566

C198 569 197 572 198 572

C198 572 200 570 203 568

Z

M208 538

C210 537 212 534 213 529

C215 524 216 521 216 520

C215 519 205 521 202 523

C198 525 196 530 196 535

L197 538

L199 534

C202 530 209 523 210 523

C211 523 209 525 207 528

C204 532 200 538 200 541

C200 542 206 540 208 538

Z

M169 537

C169 535 165 531 161 527

C158 524 156 522 157 522

C159 522 167 528 169 532

C172 536 173 536 173 531

C171 521 166 518 157 518

C154 518 151 519 150 519

C150 520 155 530 158 534

C160 536 169 539 169 537

Z

M186 531

C185 530 184 523 184 515

C183 508 182 501 181 499

C181 497 181 497 182 498

C184 500 186 513 188 524

C188 528 189 531 189 532

C190 534 193 523 193 516

C193 504 189 496 180 491

C178 489 175 487 175 487

C174 487 175 488 175 490

C176 493 176 496 175 504

C173 518 175 524 181 531

C185 535 186 535 186 531

Z

M196 394

C201 384 197 369 188 359

C186 357 184 355 183 355

C183 356 184 359 186 364

C189 372 193 387 193 390

C193 393 191 390 189 384

C188 378 183 364 180 357

C179 354 176 362 176 368

C176 374 178 380 185 390

C187 393 189 398 189 400

C190 403 190 403 192 401

C193 400 194 397 196 394

Z

M166 372

C173 368 175 359 170 352

L168 349

L168 354

C167 359 163 369 162 369

C161 369 162 367 163 365

C163 362 164 358 165 355

C165 348 164 347 160 352

C157 355 157 355 157 364

C157 369 157 374 158 374

C159 375 162 374 166 372

Z

M212 365

C211 362 210 359 210 358

C208 355 202 352 198 352

L194 352

L196 355

C197 357 201 360 204 362

C207 364 209 366 209 367

C208 367 199 362 195 359

L192 356

L192 359

C194 364 202 370 210 370

C212 370 212 370 212 365

Z

M183 345

C184 345 186 347 188 349

L192 352

L194 347

L197 342

L195 340

C192 338 188 331 186 324

L183 318

L182 322

C180 328 177 335 173 339

L170 343

L173 347

L175 352

L179 348

C181 347 183 345 183 345

Z

M163 343

C168 340 174 334 177 327

C180 320 182 307 182 302

C181 299 181 299 177 299

C172 300 163 304 156 310

C149 316 144 325 144 332

L144 336

L149 335

C154 335 156 336 156 342

C156 346 157 346 163 343

Z

M211 342

C211 336 213 335 218 335

L223 336

L223 331

C222 320 213 310 200 303

C185 296 183 298 187 316

C189 329 196 339 205 343

C209 346 211 345 211 342

Z

M145 318

C147 315 153 308 158 304

L161 302

L153 302

C149 301 143 300 140 299

L135 297

L131 301

L127 305

L130 306

C136 309 137 310 134 316

L132 320

L135 321

C141 323 143 322 145 318

Z

M234 320

C235 320 234 318 233 316

C230 311 231 309 236 307

C238 306 240 305 240 305

C240 305 238 303 236 301

C233 298 232 297 231 298

C228 300 221 301 214 302

L206 303

L212 307

C215 309 219 314 221 317

L225 322

L229 322

C231 321 234 321 234 320

Z

M173 296

C176 296 178 294 179 294

C180 290 167 276 157 271

C151 268 140 267 135 269

L132 270

L134 274

C137 279 136 281 131 283

L127 285

L130 288

C137 296 146 299 159 299

C164 298 170 297 173 296

Z

M223 297

C228 296 231 294 235 291

C238 288 240 285 240 285

C240 285 238 284 237 283

C231 281 230 280 233 274

C235 269 235 269 227 268

C219 268 213 269 206 274

C197 280 187 291 188 294

C189 295 197 298 201 298

C207 299 218 299 223 297

Z

M190 283

C199 270 201 253 194 241

L192 238

L188 242

C184 246 182 245 178 240

C176 237 175 237 172 245

C168 254 169 264 174 277

C177 283 183 290 184 290

C185 290 187 287 190 283

Z

M168 269

C167 265 166 260 166 256

L166 249

L161 246

L157 244

L156 248

C156 251 155 253 155 254

C154 255 150 255 147 254

C144 253 144 253 144 256

C144 261 146 265 148 265

C151 265 159 268 164 272

C167 274 170 276 170 276

C170 275 169 273 168 269

Z

M202 273

C207 269 217 265 220 265

C222 265 223 263 223 258

L223 254

L218 255

C213 255 212 255 211 249

L211 244

L206 246

L202 249

L201 258

C201 263 200 269 199 272

C198 274 197 276 198 276

C198 276 200 274 202 273

Z

M207 243

C210 241 211 240 213 233

C215 229 216 225 216 224

C216 223 206 225 203 227

C198 229 196 234 196 239

L197 242

L200 237

C204 232 211 225 211 227

C211 227 209 229 207 232

C204 236 200 242 200 244

C200 246 203 245 207 243

Z

M168 238

C167 237 164 233 161 231

C158 228 156 226 157 226

C159 226 165 231 169 235

L173 240

L173 235

C171 225 167 222 158 222

C154 222 151 223 150 223

C150 224 157 237 159 239

C161 240 163 241 165 241

L169 241

L168 238

Z

M186 235

C185 234 184 227 184 220

C183 212 182 205 181 203

L181 200

L182 202

C184 205 188 225 188 231

C188 232 188 234 189 235

C190 236 190 236 191 233

C195 225 194 211 189 203

C187 200 177 191 175 191

C174 191 175 192 175 194

C176 196 176 200 175 207

C173 222 175 228 181 235

C185 239 186 239 186 235

Z

M196 100

C199 93 199 84 196 77

C194 71 186 61 184 61

C183 61 184 65 186 69

C188 74 190 81 191 85

C194 99 193 101 189 89

C186 79 180 62 180 61

C179 60 176 69 176 74

C176 79 180 88 185 95

C187 97 189 101 189 104

C190 108 190 108 192 106

C193 105 194 102 196 100

Z

M167 77

C171 74 173 70 173 64

C172 62 171 58 170 57

L169 55

L167 61

C166 67 163 74 162 74

C162 74 162 71 163 68

C165 61 166 55 164 55

C164 54 162 55 160 57

C157 60 157 60 157 70

L157 80

L160 79

C162 79 165 78 167 77

Z

M212 70

C211 67 211 64 210 63

C208 60 201 57 197 57

L194 58

L197 62

C199 64 203 67 205 69

C207 70 209 71 209 72

C208 72 202 69 197 65

C192 61 191 61 194 67

C195 69 197 71 199 72

C205 75 206 75 209 75

C212 75 212 75 212 70

Z

M183 50

C184 50 186 52 188 53

L192 57

L194 52

C197 48 197 47 195 46

C192 43 188 36 186 29

L183 23

L182 27

C180 33 175 42 172 45

L170 47

L173 52

L175 57

L179 54

C181 52 183 50 183 50

Z

M212 41

C213 40 217 40 221 41

L223 42

L223 36

C222 33 221 29 220 26

C216 18 200 6 190 4

C186 4 186 4 185 7

C185 12 187 26 190 32

C193 40 197 45 204 48

L211 51

L211 47

C211 44 212 42 212 41

Z

M163 48

C168 45 174 39 177 33

C180 25 182 12 182 8

C181 4 181 4 178 4

C174 4 160 11 154 17

C148 23 145 29 144 36

L144 41

L149 40

C154 40 154 40 155 42

C156 44 156 46 156 48

C156 51 158 51 163 48

Z

M145 23

C148 18 154 12 159 9

C161 7 161 7 153 7

C147 6 143 5 139 4

L135 2

L131 6

C129 8 127 10 127 10

C127 10 128 11 130 11

C133 12 136 15 136 16

C136 17 135 19 134 21

L132 25

L135 26

C141 28 143 27 145 23

Z

M234 25

C235 25 234 23 233 21

C230 16 231 14 236 12

C238 11 240 10 240 10

C240 10 239 8 237 6

L233 2

L228 4

C225 6 220 7 215 7

L206 8

L212 12

C215 15 219 19 221 22

C224 27 224 27 229 27

C231 26 234 26 234 25

Z

M285 581

C284 576 283 568 282 563

C277 545 270 532 252 512

C224 479 218 467 219 439

C220 415 225 405 250 377

C270 354 278 340 283 318

C284 314 284 305 284 296

C284 275 282 263 274 247

C269 237 262 228 248 212

C241 204 234 194 231 191

C222 176 218 162 219 143

C220 120 226 109 249 83

C267 63 275 50 280 34

C282 27 285 11 285 4

L285 0

L290 0

C297 0 296 -1 297 14

C299 36 309 57 331 81

C344 96 350 103 354 111

C367 136 365 168 350 191

C347 196 340 205 334 211

C319 227 312 237 307 249

C301 260 298 271 297 285

C295 305 298 325 306 341

C312 353 317 361 331 377

C346 394 351 400 356 409

C361 420 362 428 362 444

C362 469 357 480 333 508

C319 524 311 535 306 545

C302 555 298 568 297 578

C297 590 297 590 291 590

L285 590

L285 581

Z

M302 544

C308 532 305 518 295 507

C291 502 290 504 293 513

C297 522 300 536 300 538

C300 540 297 533 294 523

C290 513 287 505 287 505

C287 504 285 506 284 508

C281 517 283 524 292 538

C294 541 296 546 297 548

C297 551 297 551 299 549

C300 548 301 546 302 544

Z

M273 520

C278 518 280 514 280 508

C279 505 278 501 277 500

L275 497

L275 502

C274 507 270 517 269 517

C269 517 269 514 270 511

C272 505 273 497 271 497

C271 497 269 498 267 500

C264 503 264 503 264 513

L264 523

L267 523

C268 522 271 521 273 520

Z

M319 514

C319 506 313 500 304 500

L301 500

L303 503

C304 505 308 508 311 510

C314 512 316 514 316 515

C315 515 306 510 302 507

L299 504

L299 507

C300 511 305 515 310 516

C318 519 319 519 319 514

Z

M291 493

C291 493 293 495 295 497

L299 500

L301 495

L304 490

L302 488

C299 486 295 479 293 472

L290 466

L289 470

C287 476 284 483 280 487

L277 491

L280 495

L282 500

L286 497

C288 495 290 493 291 493

Z

M268 492

C277 488 285 477 288 463

C291 446 289 444 274 451

C260 458 252 467 251 479

L251 484

L256 483

C261 483 263 484 263 490

C263 493 264 494 268 492

Z

M318 490

C318 488 318 486 319 485

C320 483 321 483 325 483

L330 484

L330 479

C329 472 326 466 320 460

C314 454 300 447 296 447

C293 447 293 447 292 451

C292 455 294 468 297 476

C301 484 311 493 316 493

C318 493 318 492 318 490

Z

M252 466

C255 461 261 455 266 452

C268 450 268 450 263 450

C256 450 248 448 244 446

C242 445 241 445 238 449

L234 453

L238 455

C243 457 244 459 241 464

L239 468

L242 469

C248 471 250 470 252 466

Z

M341 468

C342 468 341 466 340 464

C337 459 338 457 343 455

C345 454 347 453 347 453

C347 453 346 451 344 449

L340 445

L335 447

C332 448 327 449 322 450

L313 451

L319 455

C322 457 326 462 328 465

L332 470

L336 470

C338 469 341 469 341 468

Z

M280 444

C283 444 285 442 286 441

C287 437 275 425 263 419

C257 416 256 416 249 416

C245 416 241 417 240 417

C240 418 240 419 241 422

C244 427 243 429 238 431

L234 433

L237 436

C244 444 253 447 266 447

C271 446 277 445 280 444

Z

M334 445

C337 443 347 435 347 433

C347 433 345 432 344 431

C338 429 337 428 340 423

C341 420 342 418 341 418

C340 417 336 417 332 417

C325 417 323 417 318 419

C308 424 294 439 295 442

C296 443 303 445 308 446

C313 447 330 446 334 445

Z

M297 431

C306 417 308 401 301 389

L299 386

L295 389

C293 391 291 393 291 393

C290 393 288 391 286 390

L283 386

L281 389

C278 393 276 400 276 405

C276 410 278 419 281 426

C284 431 290 438 291 438

C292 438 294 435 297 431

Z

M275 419

C274 416 274 411 273 406

L273 397

L270 395

C265 392 263 392 263 396

C263 402 260 404 254 402

C251 401 251 401 251 404

C251 410 253 413 255 413

C258 413 265 416 271 420

C274 422 277 424 277 424

C277 423 276 421 275 419

Z

M311 420

C315 417 320 415 323 414

C326 413 329 412 329 412

C330 411 330 409 330 406

L330 402

L325 403

C320 403 320 403 319 401

C318 399 318 397 318 395

C318 393 318 393 315 393

C309 395 308 396 308 405

C308 410 308 414 306 418

C305 421 304 424 305 424

C305 424 308 422 311 420

Z

M314 391

C317 389 318 388 320 381

C322 377 323 373 323 372

C323 371 313 373 310 374

C306 377 303 382 303 387

L303 391

L305 388

C308 384 316 375 317 375

C318 375 316 378 313 382

C310 385 308 388 308 389

C308 389 308 391 307 391

C307 394 309 393 314 391

Z

M275 389

C276 388 273 383 268 379

C265 376 263 374 264 374

C266 374 272 379 276 383

L280 388

L280 383

C278 374 274 370 267 370

C263 370 257 371 257 372

C257 373 265 387 267 388

C268 388 271 389 274 390

C274 390 275 390 275 389

Z

M293 383

C292 381 291 375 291 370

C290 364 289 357 289 355

C288 349 288 348 289 348

C290 349 293 361 294 374

C295 379 296 384 296 385

C298 386 300 374 300 367

C300 356 297 349 289 343

C285 341 282 339 282 339

C281 339 282 340 282 342

C283 345 283 348 282 355

C281 366 281 372 284 377

C285 380 291 386 292 386

C293 386 293 385 293 383

Z

M303 246

C306 238 306 230 302 222

C299 215 292 207 291 209

C291 209 292 213 293 217

C297 226 300 240 300 242

C299 244 300 245 293 225

C290 216 287 209 287 209

C287 208 285 210 284 212

C281 221 283 228 292 242

C294 245 296 250 297 252

C297 255 297 255 299 253

C300 252 301 249 303 246

Z

M274 223

C280 220 282 212 277 204

L276 201

L275 205

C274 211 271 218 270 220

C269 221 269 219 270 215

C272 208 273 201 271 201

C270 201 269 202 267 204

C264 207 264 207 264 216

C264 221 264 226 265 226

C265 227 270 226 274 223

Z

M319 218

C319 210 313 204 305 204

L301 204

L303 207

C304 209 308 212 311 214

C314 216 316 218 316 219

C315 219 309 215 303 211

C299 208 298 209 301 214

C304 218 311 222 317 222

C319 222 319 221 319 218

Z

M291 197

C291 197 293 199 295 200

L299 204

L301 199

L304 195

L301 191

C297 187 294 181 292 175

L290 170

L289 174

C287 180 284 187 280 191

L277 195

L280 199

L282 204

L286 200

C288 199 290 197 291 197

Z

M269 195

C278 191 285 181 288 167

C289 160 289 154 288 152

C286 149 274 154 264 162

C256 168 252 175 251 182

L251 188

L256 187

C261 187 263 188 263 194

C263 198 264 198 269 195

Z

M318 194

C318 188 320 187 325 187

L330 188

L330 183

C329 175 326 170 320 164

C314 158 300 151 296 151

C293 151 293 151 292 155

C292 159 294 172 298 180

C300 186 307 193 312 196

C317 198 318 197 318 194

Z

M252 170

C254 167 260 160 265 156

L268 154

L260 154

C256 153 250 152 247 151

C241 149 240 149 236 154

L234 157

L237 158

C243 161 244 162 241 168

L239 172

L242 173

C243 173 245 173 246 174

C249 175 250 174 252 170

Z

M341 172

C342 172 341 170 340 168

C337 162 338 161 344 159

C345 158 347 157 347 157

C347 157 345 155 343 153

L339 149

L334 151

C331 153 326 154 321 154

L313 155

L316 157

C321 160 327 167 330 171

C331 174 331 174 336 174

C338 173 341 173 341 172

Z

M273 150

C279 149 286 146 286 145

C286 140 273 127 264 123

C258 120 247 119 242 121

L239 122

L241 126

C244 131 243 133 238 135

L234 137

L238 141

C245 149 257 152 273 150

Z

M334 148

C338 146 348 138 347 137

C347 137 345 136 343 135

C338 133 337 131 340 126

C342 121 342 121 333 120

C325 120 317 122 310 128

C300 135 294 144 296 146

C296 147 300 148 304 149

C313 152 327 151 334 148

Z

M297 135

C305 122 308 105 302 95

L299 90

L295 93

C293 95 291 97 291 97

C290 97 288 95 286 93

C282 89 282 90 279 97

C275 106 276 117 281 130

C284 135 290 142 291 142

C292 142 294 139 297 135

Z

M275 123

C274 120 274 115 273 110

L273 101

L269 98

C266 97 264 96 264 96

C263 96 263 98 263 100

C263 102 262 104 262 106

C260 107 260 107 256 106

L251 105

L251 109

C251 113 253 117 255 117

C258 117 267 121 272 124

C274 126 277 128 277 128

C277 127 276 125 275 123

Z

M309 125

C314 121 324 117 327 117

C329 117 330 115 330 110

L330 106

L325 107

C321 107 320 107 319 104

C319 103 318 100 318 99

L318 96

L313 98

L308 100

L308 108

C308 114 308 118 306 122

C305 125 304 128 305 128

C305 128 307 126 309 125

Z

M314 95

C318 93 318 92 320 85

C322 80 323 77 323 76

C323 75 313 77 310 79

C305 81 303 86 303 91

L304 94

L307 89

C311 84 318 77 318 79

C318 79 316 81 314 84

C311 88 307 94 307 96

C307 98 309 97 314 95

Z

M276 92

C276 91 273 88 270 84

C266 81 263 78 264 78

C266 78 273 84 276 87

C280 91 280 91 280 89

C280 86 278 79 275 77

C273 74 268 73 262 74

C259 75 257 75 257 76

C257 77 265 90 267 91

C270 93 276 94 276 92

Z

M292 81

C291 76 290 68 289 63

C289 57 288 52 288 52

C290 51 293 66 295 79

C295 88 296 90 298 86

C302 75 301 63 296 55

C294 51 284 43 282 43

C281 43 282 44 282 46

C283 49 283 52 282 60

C281 70 282 76 284 82

C286 85 292 90 293 90

C293 90 293 86 292 81

Z

M326 585

C326 577 329 566 333 557

C338 547 343 541 360 521

C383 495 390 477 392 448

C393 428 389 411 381 395

C376 384 371 377 356 360

C336 338 331 329 327 312

C326 307 326 301 326 292

C327 269 333 257 355 232

C362 224 369 214 372 211

C379 201 386 187 389 176

C391 166 391 164 391 148

C391 131 391 129 389 120

C384 101 375 87 356 65

C334 40 328 28 326 8

L326 0

L339 0

C349 0 353 0 356 2

C361 4 380 4 387 2

C393 0 402 0 412 2

C420 5 432 4 439 2

C443 0 447 0 457 0

L470 0

L469 7

C467 29 462 40 439 66

C425 82 418 91 413 102

C406 118 402 139 404 158

C406 185 416 203 440 231

C450 242 457 251 460 257

C468 270 471 289 469 305

C467 325 460 338 439 361

C415 388 406 406 404 433

C403 445 404 460 407 471

C412 490 420 503 440 526

C462 551 467 562 469 583

L470 590

L458 590

L446 590

L448 588

C449 587 451 584 452 583

C454 581 454 581 451 580

C445 577 444 576 447 571

C448 569 449 567 449 567

C449 565 440 564 435 564

C433 565 428 566 424 568

C418 571 406 581 403 586

C402 590 401 590 398 590

C394 590 393 590 392 587

C390 582 379 572 372 568

C366 565 365 565 358 565

C353 565 349 565 348 565

C346 566 346 566 348 570

C351 575 350 577 345 579

L341 581

L345 585

L349 590

L338 590

L326 590

L326 585

Z

M401 584

C407 577 412 563 412 554

C412 547 411 543 408 537

L406 534

L402 537

C401 539 399 541 398 541

C398 541 395 540 393 538

L390 535

L388 537

C386 540 383 548 383 553

C383 561 389 577 394 583

C397 587 398 587 401 584

Z

M382 567

C381 564 381 559 380 554

L380 545

L377 543

C372 540 370 540 370 544

C370 550 367 552 361 550

C358 549 358 549 358 552

C358 553 358 556 359 558

C359 560 360 561 363 561

C367 562 374 565 380 569

C382 571 384 572 384 572

C384 571 383 569 382 567

Z

M417 568

C422 565 431 561 434 561

C436 561 437 559 437 554

L437 550

L432 551

C427 551 427 551 426 549

C425 547 425 545 425 543

C425 541 425 541 422 541

C416 543 415 544 415 553

C415 558 415 562 413 566

C412 569 411 572 412 572

C412 572 414 570 417 568

Z

M422 538

C424 537 426 534 427 529

C429 524 430 521 430 520

C430 519 421 521 418 522

C413 524 410 529 410 535

L410 539

L412 536

C416 531 423 523 424 523

C425 523 423 526 420 530

C417 533 415 536 415 537

C415 537 415 539 414 540

C414 541 414 541 417 541

C419 540 421 539 422 538

Z

M383 537

C383 535 379 531 375 527

C372 524 370 522 371 522

C373 522 379 527 383 531

L387 536

L387 531

C385 521 381 518 372 518

C368 518 365 519 364 519

C364 520 369 530 372 534

C374 536 383 539 383 537

Z

M400 531

C399 530 398 523 398 515

C397 508 396 501 395 499

C395 497 395 497 396 498

C398 500 401 513 402 523

C403 533 403 534 405 528

C409 518 407 504 402 497

C400 495 390 487 389 487

C388 487 389 488 389 490

C390 493 390 496 389 503

C387 517 389 524 395 531

C399 535 400 535 400 531

Z

M409 396

C415 384 412 370 402 359

C398 354 397 356 401 366

C404 375 408 390 407 391

C406 391 406 391 406 390

C405 389 403 382 400 373

C397 364 394 357 394 357

C393 355 390 364 390 369

C390 374 393 380 399 390

C401 393 403 398 404 400

C404 403 404 403 406 401

C407 400 408 398 409 396

Z

M380 372

C387 368 389 359 384 352

L382 349

L382 354

C381 359 377 369 376 369

C376 369 376 366 377 363

C379 356 380 349 378 349

C377 349 376 350 374 352

C371 355 371 355 371 364

C371 369 371 374 372 374

C373 375 376 374 380 372

Z

M426 366

C426 358 420 352 412 352

L408 352

L410 355

C411 357 415 360 418 362

C421 364 423 366 423 367

C422 367 413 362 409 359

L406 356

L406 359

C407 360 408 363 410 364

C412 367 420 370 424 370

C426 370 426 369 426 366

Z

M397 345

C398 345 400 347 402 349

L406 352

L408 347

L411 342

L409 340

C406 338 402 331 400 324

L397 318

L396 322

C394 328 391 335 387 339

L384 343

L387 347

L389 352

L393 348

C395 347 397 345 397 345

Z

M426 336

C427 335 429 335 432 335

L437 336

L437 331

C436 320 427 310 414 303

C399 296 397 298 400 315

C404 330 410 339 420 344

L425 346

L425 342

C425 339 426 337 426 336

Z

M375 344

C381 341 387 335 390 328

C395 318 397 304 395 300

C393 297 380 302 370 310

C363 316 359 323 358 330

L358 336

L363 335

C368 335 370 336 370 342

C370 345 371 346 375 344

Z

M359 318

C361 315 368 307 373 304

C375 302 375 302 367 302

C363 301 357 300 354 299

L349 297

L345 301

L341 305

L344 306

C350 309 351 310 348 316

L346 320

L349 321

C355 323 357 322 359 318

Z

M448 320

C449 320 448 318 447 316

C444 310 445 309 451 307

C452 306 454 305 454 305

C454 305 452 303 450 301

C447 298 446 297 445 298

C442 300 435 301 428 302

L420 303

L426 307

C429 309 433 314 435 317

L439 322

L443 322

C445 321 448 321 448 320

Z

M387 296

C390 296 392 294 393 293

C394 290 381 276 371 271

C366 269 364 269 358 269

C353 269 349 269 348 269

C346 270 346 270 348 274

C351 279 350 281 345 283

L341 285

L344 288

C351 296 360 299 373 299

C378 298 384 297 387 296

Z

M437 297

C442 296 445 294 449 291

C452 288 454 286 454 285

C454 285 452 284 450 283

C445 281 444 279 447 274

C448 272 449 270 448 270

C448 269 444 269 440 268

C432 268 425 270 416 277

C410 281 402 291 402 293

C402 294 408 297 413 298

C420 299 431 299 437 297

Z

M404 283

C413 269 415 253 408 241

L406 238

L402 241

C400 243 398 245 398 245

C397 245 395 243 393 242

C391 240 390 238 390 238

C389 238 388 240 387 243

C382 253 382 264 388 278

C391 283 397 290 398 290

C399 290 401 287 404 283

Z

M382 271

C381 268 381 263 380 258

L380 249

L375 246

L371 244

L370 248

C370 251 369 253 369 254

C368 255 364 255 361 254

C358 253 358 253 358 257

C358 263 359 264 365 266

C370 267 381 273 383 275

C384 277 384 275 382 271

Z

M414 275

C416 272 425 267 431 266

C436 264 437 264 437 258

L437 254

L432 255

C427 255 426 255 425 249

L425 244

L420 246

L416 249

L415 257

C415 261 414 267 413 270

C411 276 412 277 414 275

Z

M421 243

C424 241 425 240 427 233

C429 229 430 225 430 224

C430 223 420 225 417 227

C412 229 410 234 410 239

L411 242

L413 238

C416 234 424 226 425 226

C425 227 423 229 421 232

C418 236 414 242 414 244

C414 246 417 245 421 243

Z

M383 240

C383 239 380 236 376 232

C373 229 370 226 371 226

C373 226 380 231 383 235

L387 240

L387 235

C385 225 381 222 372 222

C368 222 365 223 364 223

C364 224 372 238 374 240

C376 241 383 241 383 240

Z

M400 235

C399 234 398 227 398 220

C397 212 396 205 395 203

C395 201 395 200 396 200

C397 201 400 213 401 226

C402 231 403 236 403 237

C405 238 407 226 407 219

C407 207 404 201 395 194

C392 193 389 191 389 191

C388 191 389 192 389 194

C390 197 390 200 389 207

C387 221 389 228 395 235

C399 239 400 239 400 235

Z

M410 99

C415 89 412 76 403 66

C401 63 398 61 398 61

C397 61 398 65 400 69

C402 74 404 81 405 85

C408 99 407 101 403 89

C401 82 396 66 394 62

C393 59 390 68 390 74

C390 79 392 85 399 95

C401 98 403 103 403 105

C404 108 404 108 406 106

C407 105 408 102 410 99

Z

M381 76

C383 75 385 73 386 71

C388 67 387 61 384 56

L382 54

L382 57

C382 60 380 66 378 71

C376 76 375 74 377 68

C379 61 380 55 378 55

C378 54 376 55 374 57

C371 60 371 60 371 69

C371 74 371 79 372 79

C373 80 377 79 381 76

Z

M426 70

C425 67 425 64 424 63

C422 60 415 57 411 57

L408 58

L411 62

C413 64 417 67 419 69

C421 70 423 72 423 72

C422 72 413 67 409 64

L406 61

L406 64

C408 69 416 75 423 75

C426 75 426 75 426 70

Z

M397 50

C398 50 400 52 402 53

L406 57

L408 52

C411 48 411 47 409 46

C406 43 402 36 400 30

L397 23

L396 27

C394 33 389 42 386 45

L384 47

L387 52

L389 57

L393 54

C395 52 397 50 397 50

Z

M426 41

C427 40 431 40 435 41

L437 42

L437 36

C436 27 431 19 420 12

C415 8 406 4 402 4

C399 4 398 9 400 20

C403 35 409 44 419 49

L425 51

L425 47

C426 44 426 42 426 41

Z

M377 48

C382 45 388 39 391 33

C394 25 396 12 396 8

C395 4 395 4 392 4

C388 4 374 11 368 17

C362 23 359 29 358 36

L358 41

L363 40

C367 40 368 40 369 42

C370 43 370 45 370 47

C370 51 371 51 377 48

Z

M360 22

C362 19 366 14 369 12

L375 8

L367 7

C362 6 356 5 353 4

L349 2

L345 6

L341 10

L345 12

C350 14 351 16 348 21

L346 25

L349 26

C355 28 356 27 360 22

Z

M446 26

L449 25

L447 21

C444 16 445 14 450 12

C452 11 454 10 454 10

C454 10 453 8 451 6

L447 2

L442 4

C439 6 434 7 429 7

L420 8

L426 12

C429 14 433 19 435 22

C439 27 441 28 446 26

Z

M499 581

C497 555 487 535 463 509

C439 482 434 471 433 447

C432 420 438 407 462 379

C476 363 483 354 488 344

C496 328 498 316 498 296

C498 275 496 263 488 247

C483 237 476 228 462 212

C448 196 442 187 438 178

C431 159 431 133 439 115

C444 105 449 99 463 82

C486 56 494 42 498 19

C498 14 499 7 499 5

L499 0

L504 0

C510 0 511 1 511 9

C511 16 514 29 517 38

C522 52 530 64 545 81

C557 95 561 100 565 106

C574 120 578 139 576 157

C574 177 567 189 548 211

C533 228 526 237 521 249

C513 266 509 285 511 306

C513 333 522 351 548 380

C571 406 576 418 576 444

C576 469 571 480 547 508

C533 524 525 535 520 545

C516 555 512 568 511 577

C511 591 511 590 505 590

L499 590

L499 581

Z

M517 543

C520 537 520 529 518 522

C517 517 510 507 507 505

C504 504 504 505 507 513

C511 522 514 536 514 538

C514 540 511 533 508 523

C504 513 501 505 501 505

C501 504 499 506 498 508

C495 517 497 524 506 538

C508 541 510 546 511 548

C511 551 511 551 513 549

C514 548 515 545 517 543

Z

M487 520

C492 518 494 514 494 508

C493 505 492 501 491 500

L489 497

L489 502

C488 508 485 517 483 517

C483 517 483 515 484 513

C486 507 487 497 485 497

C485 497 483 498 481 500

C478 503 478 503 478 513

L478 523

L481 523

C482 522 485 521 487 520

Z

M533 514

C533 506 527 500 519 500

L515 500

L517 503

C518 505 522 508 525 510

C528 512 530 514 530 515

C529 515 521 510 516 507

C513 504 512 504 514 509

C516 513 519 515 524 517

C532 519 533 519 533 514

Z

M505 493

C505 493 507 495 509 497

L513 500

L515 495

L518 490

L516 488

C513 485 508 476 506 470

L505 466

L502 472

C500 479 496 486 493 488

L491 490

L494 495

L496 500

L500 497

C502 495 504 493 505 493

Z

M534 484

C534 483 536 483 539 483

L544 484

L544 479

C543 472 540 466 534 460

C528 454 514 447 510 447

C507 447 507 447 506 451

C506 453 506 458 507 462

C510 477 517 487 527 492

L532 494

L532 490

C533 487 533 485 534 484

Z

M483 491

C492 488 499 477 501 464

C505 446 503 444 488 451

C474 458 466 468 465 479

L465 484

L470 483

C475 483 477 484 477 490

C477 493 478 494 483 491

Z

M466 466

C469 461 475 455 480 452

C482 450 482 450 474 450

C470 449 464 448 461 447

L456 445

L452 449

L448 453

L452 455

C457 457 458 459 455 464

L453 468

L456 469

C462 471 464 470 466 466

Z

M555 468

C556 468 555 466 554 464

C551 459 552 457 557 455

C559 454 561 453 561 453

C561 453 560 451 558 449

L554 445

L549 447

C546 448 541 449 536 450

L527 451

L533 455

C536 457 540 462 542 465

L546 470

L550 470

C552 469 555 469 555 468

Z

M494 444

C497 444 499 442 500 441

C501 438 488 424 478 419

C473 417 471 417 465 417

C460 417 456 417 455 417

C453 418 453 418 455 422

C458 427 457 429 452 431

L448 433

L451 436

C458 444 467 447 480 447

C485 446 491 445 494 444

Z

M548 444

C552 442 561 435 561 433

C561 433 559 432 558 431

C552 429 551 428 554 423

C555 420 556 418 555 418

C554 417 550 417 546 417

C539 417 537 417 532 419

C522 424 508 439 509 442

C510 443 517 445 522 446

C528 448 544 446 548 444

Z

M508 436

C511 432 515 425 517 418

C520 408 519 396 514 389

L513 386

L509 390

C507 391 505 393 505 393

C504 393 502 391 500 390

L497 386

L495 389

C492 393 490 400 490 405

C490 410 492 419 495 426

C498 430 503 438 505 438

C505 438 507 437 508 436

Z

M489 419

C488 416 488 411 487 406

L487 397

L484 395

C479 392 477 392 477 396

C477 402 474 404 468 402

C465 401 465 401 465 404

C465 410 467 413 469 413

C472 413 479 416 485 420

C488 422 491 424 491 424

C491 423 490 421 489 419

Z

M525 420

C529 417 534 415 537 414

C543 413 543 413 544 405

L545 402

L540 403

C535 403 534 403 533 401

C533 399 532 397 532 395

C532 393 532 393 529 393

C523 395 522 396 522 405

C522 410 522 414 520 418

C519 421 518 424 519 424

C519 424 522 422 525 420

Z

M529 390

C531 389 533 386 534 381

C536 376 537 373 537 372

C537 371 527 373 524 374

C520 377 517 382 517 387

L517 391

L519 388

C523 383 530 375 531 375

C532 375 530 377 528 380

C525 385 521 391 521 393

C521 394 527 392 529 390

Z

M490 388

C490 387 487 384 484 380

C480 377 477 374 478 374

C480 374 487 379 490 383

L494 388

L494 383

C492 374 488 370 481 370

C477 370 471 371 471 372

C471 373 479 387 481 388

C483 389 487 390 488 390

C489 389 490 389 490 388

Z

M507 383

C506 381 506 375 505 370

C504 364 503 357 503 355

C502 348 502 347 503 349

C504 350 507 360 508 370

C509 375 509 380 510 382

L510 385

L512 383

C512 382 513 378 514 374

C516 361 512 350 502 343

C499 341 496 339 496 339

C495 339 496 340 496 342

C497 344 497 348 496 355

C495 366 496 373 498 377

C500 380 505 386 506 386

C507 386 507 385 507 383

Z

M517 246

C520 238 520 230 516 222

C513 215 507 207 506 208

C505 209 507 214 509 221

C513 234 515 244 513 243

C513 242 510 234 507 225

C504 216 501 208 501 208

C500 208 497 216 497 220

C497 225 500 233 506 242

C508 245 510 250 511 252

C511 255 511 255 513 253

C514 252 515 249 517 246

Z

M487 224

C494 220 496 213 492 205

L490 201

L489 206

C488 211 484 221 483 221

C483 221 483 218 484 215

C486 208 487 201 485 201

C484 201 483 202 481 204

C478 207 478 207 478 216

C478 221 478 226 479 226

C480 227 483 226 487 224

Z

M533 218

C533 210 527 204 519 204

L515 204

L518 208

C519 209 522 213 525 215

C528 217 530 218 530 219

C529 219 523 216 517 211

C513 208 512 209 515 214

C518 218 525 222 531 222

C533 222 533 221 533 218

Z

M515 199

L518 195

L515 191

C511 186 508 181 506 175

L504 170

L503 174

C501 180 498 186 494 191

L491 195

L494 199

C495 201 496 203 497 203

C497 203 499 202 500 200

C502 198 504 197 505 197

C505 197 507 199 509 200

C511 202 513 204 513 204

C513 204 514 202 515 199

Z

M482 196

C488 193 494 187 497 180

C502 170 504 156 502 152

C500 149 487 154 477 162

C470 168 466 175 465 182

L465 188

L470 187

C475 187 477 188 477 194

C477 197 478 198 482 196

Z

M532 194

C532 188 534 187 539 187

L544 188

L544 184

C544 177 539 168 532 162

C525 157 516 152 511 151

C507 151 507 151 507 154

C505 160 508 174 513 182

C515 187 522 193 526 196

C531 198 532 197 532 194

Z

M465 171

C468 167 472 162 477 158

L482 154

L474 154

C470 153 464 152 461 151

L456 149

L452 153

L448 157

L452 159

C457 161 458 163 455 168

L453 172

L456 173

C457 173 459 173 460 174

C462 174 464 174 465 171

Z

M555 172

C556 172 555 170 554 168

C551 163 552 161 557 159

C559 158 561 157 561 157

C561 157 559 155 557 153

C555 150 553 149 552 150

C545 153 540 154 534 154

C527 154 527 154 529 156

C534 159 540 166 543 170

C545 174 545 174 550 174

C552 173 555 173 555 172

Z

M494 148

C497 147 499 146 500 145

C501 142 488 128 478 123

C472 120 461 119 456 121

L453 122

L455 126

C458 131 457 133 452 135

L448 137

L452 141

C455 145 461 149 468 150

C474 151 488 150 494 148

Z

M548 148

C552 146 562 138 561 137

C561 137 559 136 557 135

C552 133 551 131 554 126

C555 124 556 122 555 122

C554 120 542 120 537 121

C529 123 517 133 511 141

C508 146 509 147 518 149

C527 152 541 151 548 148

Z

M511 135

C519 122 522 105 516 95

L513 90

L509 93

C507 95 505 97 505 97

C504 97 502 95 500 94

C498 92 497 90 497 90

C496 90 495 92 494 95

C489 105 489 116 496 130

C499 136 504 142 505 142

C506 142 508 139 511 135

Z

M489 123

C488 120 488 115 487 110

L487 101

L483 98

C480 97 478 96 478 96

C477 96 477 98 477 100

C477 102 476 104 476 106

C474 107 474 107 470 106

L465 105

L465 109

C465 113 467 117 469 117

C472 117 481 121 486 124

C488 126 491 128 491 128

C491 127 490 125 489 123

Z

M523 125

C528 121 538 117 541 117

C543 117 544 116 544 109

L545 106

L539 107

C534 107 534 107 533 104

C533 103 532 100 532 99

L532 96

L527 98

L523 101

L522 109

C522 113 521 119 520 122

C519 125 518 128 519 128

C519 128 521 126 523 125

Z

M528 95

C531 93 532 93 534 85

C536 81 537 77 537 76

C537 75 527 77 524 79

C519 81 517 86 517 91

L518 94

L522 88

C526 83 532 77 532 79

C532 79 530 81 528 84

C525 88 521 94 521 96

C521 97 524 97 528 95

Z

M490 92

C490 91 487 88 484 84

C480 81 477 78 478 78

C480 78 487 84 490 87

C494 91 494 91 494 89

C494 85 492 79 489 77

C487 74 481 73 476 74

C473 75 471 75 471 76

C471 77 479 90 481 91

C484 93 490 94 490 92

Z

M506 82

C506 78 505 71 504 66

C503 61 503 56 502 55

C502 53 502 52 503 52

C504 53 507 65 508 77

C509 83 510 88 510 89

C511 89 514 81 515 75

C515 69 513 60 510 55

C508 51 498 43 496 43

C496 43 496 45 496 46

C497 49 497 53 496 59

C495 69 496 77 498 82

C500 85 506 90 507 90

C507 89 507 86 506 82

Z

M540 585

C540 578 543 566 547 558

C551 549 556 541 570 526

C589 504 598 490 603 471

C607 453 607 426 601 409

C596 393 588 380 570 360

C547 334 541 324 540 300

C539 281 543 266 552 252

C555 249 562 239 569 231

C588 210 596 198 601 182

C605 170 605 164 605 147

C605 132 605 128 603 120

C600 108 592 92 585 83

C582 79 576 72 570 66

C565 59 559 52 556 49

C547 36 541 23 540 8

L540 0

L553 0

C563 0 567 0 570 2

C575 4 595 4 601 2

C606 0 616 0 622 2

C624 2 630 3 634 4

C640 4 642 5 642 6

C642 6 640 7 638 7

L634 8

L638 10

C640 12 642 14 642 15

C642 18 642 18 636 13

C631 9 623 5 618 4

C614 4 614 4 613 8

C612 16 618 36 625 43

C629 47 638 52 639 50

C640 43 640 41 641 41

C642 41 642 49 642 60

L642 79

L639 83

C630 94 624 107 621 121

C619 128 619 132 619 148

C619 163 619 167 621 174

C624 187 628 197 636 208

C640 215 642 218 642 220

C642 224 642 224 638 224

C629 226 624 232 624 239

L625 242

L627 238

C630 234 637 227 638 227

C639 227 637 229 635 232

C632 236 628 242 628 244

C628 246 631 245 635 243

C638 241 639 240 640 236

L642 232

L642 244

C642 253 642 255 641 254

C640 252 639 250 639 248

L639 244

L634 246

L630 249

L629 257

C629 261 628 267 627 270

C625 276 626 277 628 275

C629 273 639 267 641 267

C644 267 641 270 636 273

C627 278 615 291 616 294

C618 296 626 298 634 299

C640 299 642 300 642 301

C642 301 640 302 638 302

L634 303

L638 305

C640 307 642 309 642 310

C642 312 642 312 637 309

C631 304 620 299 617 299

C614 299 614 300 613 303

C613 307 615 320 618 328

C622 335 628 341 634 344

L639 346

L639 342

C639 340 640 338 640 336

C642 335 642 337 642 354

L642 374

L638 380

C625 398 618 418 618 443

C618 467 625 490 638 507

C641 511 642 513 642 516

C642 520 642 520 638 520

C629 522 624 527 624 535

L624 539

L626 536

C630 531 637 523 638 523

C639 523 637 525 635 528

C632 532 628 539 628 541

C628 542 632 541 635 539

C637 538 639 536 640 533

L642 529

L642 540

C642 548 642 551 641 550

C640 550 640 547 639 545

C639 541 639 541 636 541

C630 543 629 544 629 553

C629 558 629 562 627 566

C626 569 626 572 626 572

C626 572 629 570 632 568

C639 563 642 562 642 564

C642 565 640 567 637 568

C632 571 620 582 617 586

C616 590 615 590 612 590

C608 590 607 590 606 587

C604 582 593 572 586 568

C580 565 579 565 572 565

C567 565 563 565 562 565

C560 566 560 566 562 570

C565 575 564 577 559 579

L555 581

L559 585

L563 590

L552 590

L540 590

L540 585

Z

M616 582

C621 576 625 565 626 556

C626 548 625 543 622 537

L620 534

L617 538

C615 539 613 541 612 541

C611 541 609 539 607 538

L604 534

L602 537

C599 541 597 548 597 553

C597 558 600 568 603 575

C606 580 610 586 612 586

C612 586 614 584 616 582

Z

M596 567

C595 564 595 559 594 554

L594 545

L591 543

C586 540 584 540 584 544

C584 550 581 552 575 550

C572 549 572 549 572 552

C572 558 573 561 578 561

C582 562 591 567 595 570

C596 571 598 572 598 572

C598 571 597 569 596 567

Z

M597 537

C597 535 593 531 589 527

C586 524 584 522 585 522

C587 522 593 527 597 531

C600 535 601 535 601 534

C601 529 599 524 596 521

C594 518 592 518 587 518

C584 518 581 519 580 519

C578 520 578 521 583 528

C586 534 588 536 590 537

C591 537 593 537 594 538

C595 538 597 538 597 537

Z

M614 532

C613 531 613 525 612 519

C611 513 610 506 610 503

C609 497 609 497 610 497

C611 497 614 508 615 519

C616 523 616 528 617 530

L617 533

L619 531

C623 523 622 508 618 499

C615 496 605 487 603 487

C602 487 603 488 603 490

C604 492 604 496 603 503

C602 518 603 524 609 531

C613 535 614 535 614 532

Z

M623 396

C628 387 627 378 622 368

C620 363 613 355 612 356

C612 357 613 362 615 368

C620 381 621 389 621 390

C620 392 621 393 614 373

C611 364 608 357 608 357

C608 356 606 358 605 360

C602 369 604 376 613 390

C615 393 617 398 618 400

C618 403 618 403 620 401

C621 400 622 398 623 396

Z

M594 372

C601 368 603 360 598 352

L597 349

L596 354

C595 359 591 369 590 369

C590 369 590 366 591 363

C593 357 594 349 592 349

C592 349 590 350 588 352

C585 355 585 355 585 364

C585 369 585 374 586 374

C587 375 589 374 594 372

Z

M640 366

C640 358 634 352 626 352

L622 352

L624 355

C625 357 629 360 632 362

C635 364 637 366 637 367

C636 367 631 364 625 360

C620 356 619 356 622 362

C625 366 632 370 638 370

C640 370 640 369 640 366

Z

M612 345

C612 345 614 347 616 348

L620 352

L622 347

L625 342

L623 340

C620 338 616 331 614 324

L611 318

L610 322

C608 328 605 335 601 339

L598 343

L601 347

L603 352

L607 349

C609 347 611 345 612 345

Z

M589 344

C598 340 606 329 609 315

C612 298 610 296 595 303

C581 310 573 319 572 331

L572 336

L577 335

C582 335 584 336 584 342

C584 345 585 346 589 344

Z

M573 318

C576 313 582 307 587 304

C589 302 589 302 581 302

C577 301 571 300 568 299

L563 297

L559 301

L555 305

L559 307

C564 309 565 311 562 316

L560 320

L563 321

C569 323 571 322 573 318

Z

M601 296

C604 296 606 294 607 293

C608 290 595 276 585 271

C580 269 578 269 572 269

C567 269 563 269 562 269

C560 270 560 270 562 274

C565 279 564 281 559 283

L555 285

L558 288

C564 296 574 299 587 299

C592 298 598 297 601 296

Z

M618 283

C627 269 629 252 621 241

L620 238

L616 241

C614 243 612 245 612 245

C611 245 609 243 607 242

C605 240 604 238 604 238

C603 238 602 240 601 243

C596 253 596 264 602 278

C605 283 611 290 612 290

C613 290 615 287 618 283

Z

M596 271

C595 268 595 263 594 258

L594 249

L590 246

C585 244 584 244 584 248

C584 254 581 256 575 254

C572 253 572 253 572 256

C572 261 574 265 576 265

C579 265 588 269 593 272

C595 274 598 276 598 276

C598 275 597 273 596 271

Z

M597 240

C597 239 594 236 590 232

C587 229 584 226 585 226

C587 226 594 232 597 235

L601 240

L601 235

C599 225 595 222 586 222

C582 222 579 223 578 223

C577 224 586 238 588 239

C591 241 597 242 597 240

Z

M614 235

C613 233 612 227 612 222

C611 216 610 209 610 207

C609 201 609 200 610 200

C611 201 614 213 615 225

C616 231 617 236 617 237

C618 237 621 229 622 223

C622 217 620 208 617 203

C615 199 605 191 603 191

C603 191 603 193 603 194

C604 197 604 201 603 207

C602 217 603 225 605 229

C607 232 612 238 613 238

C614 238 614 237 614 235

Z

M623 101

C628 92 627 83 622 73

C620 68 614 61 612 61

C611 61 612 65 614 69

C618 79 621 93 621 95

C621 97 618 90 615 80

C611 70 608 62 608 62

C608 61 606 63 605 65

C602 74 604 81 613 95

C615 98 617 103 618 105

C618 108 618 108 620 106

C621 105 622 103 623 101

Z

M595 76

C597 75 599 73 600 71

C602 67 601 61 598 57

L596 54

L596 59

C595 65 592 74 590 74

C590 74 590 72 591 70

C593 64 594 54 592 54

C592 54 590 55 588 57

C585 60 585 60 585 69

C585 74 585 79 586 79

C587 80 591 79 595 76

Z

M638 64

C636 60 630 57 625 57

L622 58

L624 61

C626 62 629 66 632 68

C635 70 637 71 637 72

C636 72 628 67 623 64

L620 61

L620 64

C621 68 626 72 631 73

C639 76 639 76 640 72

C640 70 639 66 638 64

Z

M612 50

C612 50 614 52 616 54

L620 57

L622 52

L625 47

L623 45

C620 42 615 33 613 27

L612 23

L609 29

C607 36 603 43 600 45

L598 47

L601 52

L603 57

L607 53

C609 52 611 50 612 50

Z

M591 48

C599 44 606 34 608 21

C612 3 610 1 595 8

C581 15 573 25 572 36

L572 41

L577 40

C581 40 582 40 583 42

C584 43 584 45 584 47

C584 51 585 51 591 48

Z

M574 22

C576 19 580 14 583 12

L589 8

L581 7

C576 6 570 5 567 4

L563 2

L559 6

L555 10

L559 12

C564 14 565 16 562 21

L560 25

L563 26

C569 28 570 27 574 22

Z

M0 354

L0 335

L5 335

C9 336 9 336 9 333

C9 328 6 321 3 317

C1 315 0 312 0 311

C0 309 0 309 2 311

C3 312 6 315 7 317

C10 322 11 322 15 322

C21 321 21 320 19 317

C18 315 17 313 17 312

C17 310 20 307 23 306

C25 306 26 305 26 305

C26 305 24 303 22 301

L18 297

L14 299

C7 302 0 303 0 301

C0 300 1 299 4 299

C11 298 17 294 22 290

C24 287 26 285 26 285

C26 285 25 284 23 284

C20 283 17 280 17 279

C17 278 18 276 19 274

C21 270 21 270 19 269

C18 269 14 269 9 269

C2 269 0 268 0 267

C0 267 2 266 4 265

C8 265 9 263 9 257

L9 254

L5 255

L0 255

L0 236

C0 220 0 218 1 219

C9 227 24 245 29 252

C46 278 46 314 28 341

C25 345 10 363 1 372

C0 373 0 370 0 354

Z

M0 59

C0 41 0 40 2 40

C3 40 5 40 6 41

C9 42 9 42 9 39

C9 33 6 26 3 22

C1 20 0 17 0 16

C0 14 0 14 2 15

C3 16 5 20 7 22

C10 27 10 27 15 27

C17 26 20 26 20 26

C20 25 20 23 19 21

C16 16 17 14 22 12

L26 10

L22 6

L19 2

L14 4

C8 7 0 8 0 6

C0 5 1 4 5 4

C7 3 11 2 13 1

C15 0 20 0 29 0

L42 0

L41 7

C40 23 35 35 26 47

C21 54 1 77 0 77

C0 77 0 69 0 59

Z

"/>

</svg>

