<?xml version="1.0" standalone="no"?>

<!DOCTYPE svg PUBLIC "-//W3C//DTD SVG 20010904//EN"

 "http://www.w3.org/TR/2001/REC-SVG-20010904/DTD/svg10.dtd">

<svg version="1.0" xmlns="http://www.w3.org/2000/svg"

 width="551.000000pt" height="591.000000pt" viewBox="0 0 551.000000 591.000000"

 preserveAspectRatio="xMidYMid meet">

<path fill="#f0f4f0" stroke="none" d="
M0 296

L0 0

L276 0

L551 0

L551 296

L551 591

L276 591

L0 591

L0 296

Z

"/>

<path fill="#5e967e" stroke="none" d="
M2 589

C0 586 -1 578 1 564

C2 559 3 551 3 546

C3 538 3 537 2 536

C0 534 0 531 0 493

C0 455 0 451 2 450

C4 447 4 437 1 422

C0 408 0 398 2 398

C3 397 3 392 2 391

C0 391 0 381 1 367

C2 362 3 354 3 349

C3 341 3 340 2 339

C0 337 0 334 0 296

C0 258 0 254 2 253

C4 250 4 240 1 224

C0 210 0 201 2 201

C3 200 3 195 2 194

C0 194 -1 183 1 170

C2 165 3 156 3 152

C3 144 3 143 2 142

C0 140 0 137 0 99

C0 61 0 57 2 56

C4 53 4 43 1 28

C-1 14 0 4 2 3

C2 3 3 2 3 1

C3 -1 11 0 18 3

C21 4 26 5 28 6

C32 6 32 6 34 3

C35 0 36 0 43 0

L51 0

L51 7

C50 21 45 30 30 47

C19 60 14 68 11 78

C9 83 9 87 9 100

C9 113 9 115 11 122

C14 131 21 140 31 152

C41 163 45 169 48 178

C50 184 51 186 51 197

C51 217 47 224 30 244

C12 265 7 276 8 299

C9 319 13 329 32 350

C46 367 51 377 51 394

C51 413 47 422 29 442

C12 462 7 474 8 497

C9 516 13 526 32 547

C45 562 51 575 51 587

L51 591

L43 591

C35 591 35 591 34 588

C33 586 32 586 28 586

C26 586 21 587 17 589

C9 591 4 592 2 589

Z

M21 576

C24 575 27 572 28 571

C32 568 30 560 27 560

C25 560 10 579 10 581

C10 582 15 580 21 576

Z

M13 562

C19 550 20 545 17 543

C16 541 16 541 14 543

C12 544 8 560 6 570

C5 576 7 575 13 562

Z

M18 442

C20 439 19 434 14 424

C8 413 6 410 6 412

C6 415 11 436 12 440

C14 444 16 445 18 442

Z

M30 422

C31 418 29 414 24 411

C17 406 10 403 10 404

C10 405 20 419 23 423

C26 426 29 426 30 422

Z

M34 397

C35 395 35 394 34 391

C33 389 32 389 29 389

C25 389 12 393 12 394

C12 396 24 400 30 400

C32 400 33 399 34 397

Z

M19 381

C28 375 30 373 30 369

C30 366 29 363 27 363

C25 363 21 369 15 377

C8 387 8 387 19 381

Z

M13 365

C19 354 20 350 18 347

C18 345 15 345 13 346

C12 348 8 365 6 373

C6 379 7 378 13 365

Z

M18 245

C19 244 19 242 19 241

C19 238 7 213 6 215

C6 217 10 239 12 243

C14 247 16 248 18 245

Z

M30 227

C30 226 30 224 30 222

C30 219 30 218 27 216

C22 212 10 206 10 207

C10 208 20 222 23 226

C25 228 28 229 30 227

Z

M34 200

C35 198 35 197 34 194

C33 192 32 192 29 192

C25 192 12 196 12 197

C12 199 24 203 30 203

C32 203 33 202 34 200

Z

M19 184

C23 181 27 178 28 177

C32 174 30 166 27 166

C25 166 19 174 13 182

C8 190 9 190 19 184

Z

M13 168

C19 157 20 153 18 150

C18 148 15 148 13 149

C12 151 8 168 6 176

C6 182 7 181 13 168

Z

M18 48

C19 47 19 45 19 44

C19 41 7 16 6 18

C6 20 10 42 12 46

C14 50 16 51 18 48

Z

M30 28

C31 24 29 20 24 17

C17 12 10 9 10 10

C10 11 20 25 23 29

C26 32 29 31 30 28

Z

M61 586

C61 571 55 558 39 539

C22 520 18 510 18 493

C18 483 19 476 23 468

C26 462 28 459 45 440

C52 431 57 421 59 412

C61 404 61 386 60 379

C57 367 51 356 38 341

C24 326 19 316 18 300

C17 283 21 271 32 258

C35 254 41 247 44 243

C57 228 61 216 61 197

C61 176 56 165 36 142

C28 133 24 126 21 118

C19 114 19 110 19 100

C18 79 21 73 39 52

C55 34 60 24 61 8

L61 0

L69 0

C77 0 76 -1 77 11

C79 24 84 35 98 51

C109 64 114 71 117 79

C120 87 121 102 119 111

C117 120 111 131 103 141

C82 165 77 176 77 197

C77 218 82 230 100 251

C114 267 119 276 120 292

C121 311 116 322 100 342

C81 363 77 373 77 395

C77 414 82 426 98 446

C111 460 113 464 117 473

C119 479 119 481 119 493

C119 505 119 507 117 513

C114 521 110 527 100 538

C84 556 79 567 77 583

L77 591

L69 591

L61 591

L61 586

Z

M71 548

C73 546 72 524 69 514

C69 512 69 512 68 516

C66 529 65 544 66 546

C67 549 69 550 71 548

Z

M57 538

C59 534 63 512 63 510

C62 507 50 533 50 536

C50 543 54 544 57 538

Z

M87 539

C89 536 87 530 81 520

C74 507 74 507 76 518

C78 530 81 539 82 541

C84 543 86 542 87 539

Z

M46 521

C49 517 59 503 59 502

C58 501 44 510 41 513

C38 516 38 520 40 523

C42 525 42 524 46 521

Z

M98 523

C98 522 99 520 99 518

C99 515 98 514 96 512

C92 508 80 502 79 502

C79 503 88 516 92 521

C95 524 96 525 98 523

Z

M50 496

C54 494 56 493 56 493

C56 491 42 487 39 487

C35 488 33 492 35 495

C36 498 37 498 40 498

C43 498 47 497 50 496

Z

M103 495

C103 493 103 491 103 489

C102 487 102 487 97 487

C92 488 80 492 80 493

C82 495 94 498 98 498

C102 498 103 497 103 495

Z

M72 493

C72 491 70 489 68 489

C66 490 65 494 67 495

C68 497 72 495 72 493

Z

M56 478

C50 469 44 462 42 462

C39 463 38 467 39 470

C40 473 55 483 58 483

C59 483 58 481 56 478

Z

M86 480

C95 476 99 472 99 467

C99 466 98 463 97 463

C96 461 96 461 93 464

C88 468 78 483 79 483

C80 483 83 482 86 480

Z

M61 464

C57 445 55 441 51 444

C49 446 50 451 52 457

C55 464 62 476 63 475

C63 475 62 470 61 464

Z

M82 464

C88 451 89 448 87 445

C85 442 82 443 81 447

C79 451 74 476 75 476

C75 476 78 470 82 464

Z

M71 461

C73 448 72 439 70 437

C69 436 68 436 67 438

C65 440 65 441 65 448

C67 462 68 473 69 472

C69 471 70 466 71 461

Z

M71 351

C73 349 72 327 69 317

C69 315 69 315 68 319

C66 332 65 347 66 349

C67 352 69 353 71 351

Z

M57 341

C59 337 63 315 63 313

C62 311 50 336 50 339

C50 346 54 347 57 341

Z

M87 342

C89 339 87 333 81 323

C74 310 74 310 76 321

C78 333 81 342 82 344

C84 346 86 345 87 342

Z

M46 324

C49 320 59 306 59 305

C58 304 44 312 41 315

C38 318 38 323 40 325

C42 328 42 327 46 324

Z

M98 326

C98 325 99 323 99 321

C99 318 98 317 96 315

C92 311 80 305 79 305

C79 306 88 319 92 324

C95 327 96 328 98 326

Z

M103 296

C103 290 102 290 96 290

C91 291 80 295 81 296

C82 297 94 301 97 301

C101 302 103 300 103 296

Z

M50 299

C53 298 56 297 56 296

C58 295 46 291 41 291

C36 291 36 291 35 293

C34 295 34 297 35 298

C36 301 37 301 40 301

C42 301 46 300 50 299

Z

M72 296

C72 294 70 292 68 292

C66 293 65 297 67 298

C68 300 72 298 72 296

Z

M56 281

C54 279 51 274 49 271

C43 264 41 263 39 268

C37 273 39 276 51 283

C59 287 60 287 56 281

Z

M86 283

C95 279 99 275 99 270

C99 269 98 266 97 266

C96 264 96 264 93 267

C88 271 78 286 79 286

C80 286 83 285 86 283

Z

M60 264

C57 251 56 246 54 246

C50 246 49 252 52 260

C56 268 62 279 63 278

C63 277 62 271 60 264

Z

M82 266

C86 260 88 253 88 252

C88 248 86 246 84 246

C81 247 80 250 77 266

C74 282 74 282 82 266

Z

M71 264

C73 251 72 242 70 240

C69 239 68 239 67 241

C65 243 65 244 65 251

C67 265 68 276 69 275

C69 274 70 269 71 264

Z

M71 154

C73 152 72 130 69 120

C69 118 69 118 68 122

C66 134 65 150 66 152

C67 155 69 156 71 154

Z

M57 144

C59 140 63 118 63 116

C62 113 50 139 50 142

C50 149 54 150 57 144

Z

M87 145

C88 143 88 142 87 138

C85 132 78 120 76 117

L74 115

L75 117

C75 118 76 122 77 127

C79 141 82 148 84 148

C85 148 87 147 87 145

Z

M46 127

C49 123 59 109 59 108

C58 107 44 115 41 118

C38 121 38 126 40 128

C42 131 42 130 46 127

Z

M98 129

C98 128 99 126 99 124

C99 121 98 120 96 118

C92 114 80 108 79 108

C79 109 88 122 92 127

C95 130 96 131 98 129

Z

M50 102

C53 101 56 100 56 99

C58 98 46 94 41 94

C36 94 36 94 35 96

C34 98 34 100 35 101

C36 104 37 104 40 104

C42 104 46 103 50 102

Z

M103 101

C103 95 102 93 99 93

C96 93 84 96 81 98

C79 99 79 99 88 102

C91 103 96 104 98 104

C102 104 103 103 103 101

Z

M72 99

C72 97 70 95 68 96

C66 96 65 100 67 101

C68 103 72 101 72 99

Z

M56 84

C54 82 51 77 49 74

C43 67 41 66 39 71

C37 76 39 79 51 86

C59 90 60 90 56 84

Z

M86 86

C94 82 99 77 99 74

C99 67 96 66 91 72

C86 78 78 89 79 89

C80 89 83 88 86 86

Z

M61 70

C57 51 55 47 51 50

C49 52 50 57 52 63

C55 70 62 82 63 81

C63 81 62 76 61 70

Z

M82 70

C88 57 89 54 87 51

C85 48 82 49 81 53

C79 57 74 82 75 82

C75 82 78 77 82 70

Z

M71 68

C73 54 72 45 70 43

C69 42 68 42 67 44

C65 46 65 47 65 54

C67 68 68 79 69 78

C69 78 70 73 71 68

Z

M87 584

C88 571 93 562 107 546

C124 526 129 517 130 497

C131 474 126 462 106 439

C92 422 87 411 87 395

C87 378 91 369 101 356

C118 336 120 332 123 327

C129 316 130 312 130 296

C130 283 129 281 127 274

C124 265 118 255 108 244

C98 233 95 229 92 222

C88 213 87 206 87 194

C88 178 92 169 105 154

C125 131 129 123 130 102

C131 78 127 69 104 43

C92 28 87 17 87 5

L87 0

L95 0

C103 0 103 0 104 3

C105 7 108 7 119 3

C130 -1 134 -1 135 2

C136 3 137 4 138 4

C138 4 140 3 140 2

C142 -1 147 -1 154 2

C166 7 172 7 172 2

C172 0 173 0 181 0

L189 0

L189 6

C188 14 185 23 181 30

C179 33 173 41 167 47

C157 60 150 70 148 79

C143 98 146 119 155 134

C157 137 163 145 168 151

C184 169 188 178 189 194

C190 211 185 223 173 237

C155 259 150 267 147 279

C145 287 145 303 147 312

C150 324 155 332 168 348

C185 368 189 376 188 395

C188 406 188 408 186 414

C183 422 178 429 168 441

C151 461 146 472 146 493

C146 514 151 525 168 545

C182 561 187 571 189 585

L189 591

L181 591

C173 591 172 591 172 589

C172 584 166 584 154 589

C147 591 141 592 141 590

C140 589 139 588 138 588

C137 588 136 589 135 590

C135 592 129 591 121 589

C117 587 112 586 110 586

C106 585 106 585 104 588

C103 591 102 591 95 591

L87 591

L87 584

Z

M126 578

C121 570 113 560 111 560

C110 560 109 561 108 562

C106 566 107 569 112 573

C115 576 126 582 127 582

C128 582 127 580 126 578

Z

M165 572

C168 570 168 568 168 565

C167 560 165 559 162 562

C158 565 148 580 148 581

C148 583 162 575 165 572

Z

M131 565

C128 553 125 543 124 542

C122 540 119 543 119 548

C119 551 131 576 132 574

C132 574 131 569 131 565

Z

M152 561

C157 549 158 546 155 543

C154 541 153 541 152 542

C150 544 147 555 145 568

C143 577 144 577 152 561

Z

M140 560

C141 551 141 539 140 537

C140 536 139 535 138 535

C135 535 134 539 134 546

C136 560 137 572 138 571

C138 570 139 565 140 560

Z

M140 450

C141 449 141 446 141 442

C141 434 139 417 138 415

C137 414 136 425 134 439

C134 445 134 446 135 448

C137 451 138 452 140 450

Z

M125 442

C126 440 130 422 132 415

C132 409 131 410 125 423

C121 431 119 435 119 438

C119 444 123 446 125 442

Z

M156 442

C157 441 157 439 157 438

C157 435 145 411 144 411

C143 411 149 440 151 443

C153 445 155 444 156 442

Z

M116 421

C120 416 128 404 128 404

C128 403 117 409 112 412

C108 415 106 418 108 422

C109 426 112 426 116 421

Z

M167 423

C169 420 168 416 166 414

C164 412 156 407 151 405

C148 403 148 403 148 404

C149 407 156 416 160 421

C163 425 166 426 167 423

Z

M121 397

C124 396 126 394 126 394

C126 393 115 390 109 388

C107 388 106 388 105 390

C103 393 103 394 104 398

C105 400 105 400 110 400

C113 399 118 398 121 397

Z

M171 399

C172 397 172 390 171 389

C170 388 168 388 166 388

C161 390 150 393 150 394

C149 395 163 400 167 400

C168 400 170 399 171 399

Z

M140 397

C141 396 141 394 141 393

C140 391 136 391 135 393

C134 397 137 400 140 397

Z

M126 381

C122 375 117 368 114 365

L111 363

L109 365

C106 368 107 372 112 376

C115 379 126 385 127 385

C128 385 127 383 126 381

Z

M165 375

C168 373 168 371 168 368

C167 363 165 362 162 365

C158 368 148 383 148 384

C148 386 162 378 165 375

Z

M130 364

C127 350 125 345 122 345

C120 345 119 347 119 351

C119 354 131 379 132 377

C132 376 131 370 130 364

Z

M152 364

C155 358 157 352 157 351

C157 345 152 343 150 348

C149 351 146 361 145 371

C143 380 144 380 152 364

Z

M140 363

C141 354 141 342 140 340

C140 339 139 338 138 338

C135 338 134 342 134 349

C136 363 137 375 138 374

C138 373 139 368 140 363

Z

M140 253

C141 251 141 239 140 227

C139 221 138 217 138 216

C137 216 135 230 134 242

C134 248 134 249 135 251

C137 254 138 255 140 253

Z

M125 245

C126 243 130 225 132 218

C132 212 131 213 125 226

C121 234 119 238 119 241

C119 247 123 249 125 245

Z

M156 245

C157 244 157 242 157 241

C157 238 145 214 144 214

C143 214 149 243 151 246

C153 248 155 247 156 245

Z

M116 224

C120 219 128 207 128 207

C128 206 117 212 112 215

C108 218 106 221 108 225

C109 229 112 229 116 224

Z

M167 227

C169 225 168 219 166 217

C164 215 156 210 151 208

C148 206 148 206 148 207

C149 210 156 219 160 224

C163 228 165 229 167 227

Z

M120 200

C123 199 126 198 126 197

C126 196 115 193 109 191

C107 191 106 191 105 193

C103 196 103 197 104 201

C105 203 105 203 110 203

C112 202 117 201 120 200

Z

M171 202

C172 200 172 194 171 192

C169 190 153 194 150 197

C149 198 163 203 167 203

C168 203 170 202 171 202

Z

M140 200

C141 199 141 197 141 196

C140 194 136 194 135 196

C134 200 137 203 140 200

Z

M127 187

C125 182 117 171 115 169

C111 165 110 165 108 168

C105 173 109 178 121 185

C127 188 129 189 127 187

Z

M165 178

C168 176 168 174 168 171

C167 166 165 165 162 168

C158 171 148 186 148 187

C148 189 162 181 165 178

Z

M130 167

C127 153 125 148 122 148

C120 148 119 150 119 154

C119 157 131 182 132 180

C132 179 131 173 130 167

Z

M152 167

C155 161 157 155 157 154

C157 148 152 146 150 151

C149 154 146 164 145 174

C143 183 144 183 152 167

Z

M140 166

C141 157 141 145 140 143

C140 142 139 141 138 141

C135 141 134 145 134 152

C136 166 137 178 138 177

C138 176 139 171 140 166

Z

M140 56

C141 55 141 52 141 48

C141 40 139 23 138 21

C137 20 136 31 134 45

C134 51 134 52 135 54

C137 57 138 58 140 56

Z

M125 48

C126 46 130 28 132 21

C132 15 131 16 125 29

C121 37 119 41 119 44

C119 50 123 52 125 48

Z

M156 48

C157 45 157 43 155 37

C152 31 144 16 143 16

C142 17 149 47 151 49

C153 51 155 50 156 48

Z

M116 27

C120 22 128 10 128 10

C128 9 117 15 112 18

C108 21 106 24 108 28

C109 32 112 32 116 27

Z

M167 29

C169 26 168 22 166 20

C163 17 150 10 149 10

C148 11 154 20 160 27

C163 31 166 32 167 29

Z

M199 584

C197 568 192 557 178 541

C159 519 154 507 156 486

C157 472 162 463 177 446

C193 427 198 417 199 398

C199 384 198 375 193 365

C189 358 185 353 171 336

C160 323 156 312 156 296

C156 278 160 268 177 250

C189 236 193 229 196 219

C198 213 199 209 199 198

C199 186 198 182 196 177

C193 167 188 159 178 147

C160 126 157 120 156 102

C156 96 156 89 157 86

C159 78 164 67 170 60

C185 42 188 38 191 32

C196 24 199 12 199 5

L199 0

L206 0

L214 0

L215 9

C217 25 222 35 235 49

C251 68 255 77 257 91

C258 97 258 101 257 107

C255 122 251 129 233 149

C218 168 212 186 215 207

C217 224 222 232 238 250

C254 269 259 282 258 301

C256 315 251 326 238 341

C234 345 230 351 227 354

C214 372 211 395 218 418

C221 426 227 436 238 449

C253 466 257 475 257 493

C258 511 253 520 234 543

C221 558 216 568 214 585

L214 591

L207 591

L199 591

L199 584

Z

M209 548

C210 546 210 536 208 523

C208 517 207 513 207 512

C206 512 204 526 203 536

C203 542 203 545 204 547

C205 549 207 550 209 548

Z

M195 536

C197 530 201 510 201 509

C200 509 192 524 190 529

C188 533 187 540 189 541

C189 542 190 542 191 542

C193 542 194 540 195 536

Z

M225 539

C226 538 226 536 225 533

C224 529 216 513 214 510

C212 509 212 509 213 512

C214 519 218 537 219 539

C220 543 224 543 225 539

Z

M185 519

C189 514 197 503 196 502

C196 501 182 509 179 512

C176 515 176 516 176 519

C177 522 178 524 180 524

C181 524 183 522 185 519

Z

M236 522

C238 519 237 515 234 512

C231 509 222 504 218 503

C216 502 216 502 220 508

C226 517 232 524 234 524

C234 524 235 523 236 522

Z

M187 496

C191 495 194 493 194 493

C195 492 185 488 179 487

C174 487 172 488 172 493

C172 498 177 499 187 496

Z

M240 496

C241 494 241 489 239 488

C239 487 236 487 234 487

C228 488 218 492 219 493

C219 493 222 495 226 496

C233 498 240 499 240 496

Z

M210 494

C210 492 209 490 207 489

C205 489 203 492 204 494

C204 496 209 496 210 494

Z

M193 477

C183 462 179 459 177 464

C174 470 178 474 189 480

C192 482 195 483 196 483

C197 483 195 480 193 477

Z

M224 480

C236 474 240 467 235 463

C233 461 233 461 230 464

C227 467 217 481 217 482

C217 483 218 483 224 480

Z

M200 468

C197 455 194 444 192 443

C190 442 188 445 188 449

C188 451 189 456 191 460

C196 469 200 476 201 476

C201 475 200 472 200 468

Z

M221 461

C225 452 226 450 226 447

C225 443 223 442 221 444

C219 446 216 456 212 474

C212 476 212 476 214 475

C214 473 218 467 221 461

Z

M209 462

C211 444 210 436 207 436

C204 436 203 440 203 449

C204 458 206 474 207 474

C207 473 208 468 209 462

Z

M209 351

C210 349 210 339 208 326

C208 320 207 316 207 315

C206 315 204 329 203 339

C203 345 203 348 204 350

C205 352 207 353 209 351

Z

M195 341

C196 336 199 323 200 316

C201 312 201 312 199 314

C198 315 196 321 193 326

C189 333 188 336 188 339

C188 344 189 345 191 345

C193 345 194 343 195 341

Z

M225 342

C226 341 226 339 225 336

C224 332 216 316 214 313

C212 312 212 312 213 315

C214 322 218 340 219 342

C220 346 224 346 225 342

Z

M185 322

C189 317 197 306 196 305

C196 305 186 310 181 313

C176 317 175 321 177 325

C178 326 179 327 180 327

C180 327 183 325 185 322

Z

M236 325

C238 322 237 318 234 315

C231 312 222 307 218 306

C216 305 216 305 220 311

C226 320 232 327 234 327

C234 327 235 326 236 325

Z

M241 298

C241 295 241 292 239 291

C237 289 228 291 222 294

L218 296

L222 297

C226 300 237 302 239 301

C239 301 240 300 241 298

Z

M187 299

C191 298 194 296 194 296

C195 295 185 291 179 290

C174 290 172 291 172 296

C172 301 177 302 187 299

Z

M210 297

C210 295 209 293 207 292

C205 292 203 295 204 297

C204 299 209 299 210 297

Z

M192 279

C189 275 185 270 183 267

L180 264

L178 266

C175 269 176 273 179 276

C183 279 196 287 197 287

C197 286 195 283 192 279

Z

M224 283

C236 277 240 270 235 266

C233 264 233 264 230 267

C227 270 217 284 217 285

C217 286 218 286 224 283

Z

M200 271

C197 258 194 247 192 246

C190 245 188 248 188 252

C188 254 189 259 191 263

C196 272 200 279 201 279

C201 278 200 275 200 271

Z

M221 264

C225 255 226 253 226 250

C225 246 223 245 221 247

C219 249 216 259 212 277

C212 279 212 279 214 278

C214 276 218 270 221 264

Z

M209 265

C211 247 210 239 207 239

C204 239 203 243 203 252

C204 261 206 277 207 277

C207 276 208 271 209 265

Z

M209 154

C210 152 210 142 208 129

C208 123 207 119 207 118

C206 118 204 132 203 142

C203 148 203 151 204 153

C205 155 207 156 209 154

Z

M195 144

C196 139 199 126 200 119

C201 115 201 115 199 117

C198 118 196 124 193 129

C189 136 188 139 188 142

C188 147 189 148 191 148

C193 148 194 146 195 144

Z

M225 145

C226 144 226 142 225 139

C224 135 216 119 214 116

C212 115 212 115 213 118

C214 125 218 143 219 145

C220 149 224 149 225 145

Z

M185 125

C189 120 197 109 196 108

C196 107 182 115 179 118

C176 121 176 122 176 125

C177 128 178 130 180 130

C181 130 183 128 185 125

Z

M236 128

C239 122 235 117 224 111

C220 110 217 108 216 108

C216 108 224 120 228 125

C233 130 234 131 236 128

Z

M187 102

C191 101 194 100 194 99

C195 98 185 94 179 93

C174 93 172 94 172 99

C172 104 176 105 187 102

Z

M240 102

C241 100 241 95 239 94

C239 93 236 93 234 93

C228 94 218 98 219 99

C219 99 222 101 226 102

C233 104 240 105 240 102

Z

M210 100

C210 98 209 96 207 95

C205 95 203 98 204 100

C204 102 209 102 210 100

Z

M193 83

C183 68 179 65 177 70

C174 76 178 80 190 87

C194 88 197 90 197 90

C197 89 195 86 193 83

Z

M224 86

C233 81 237 77 237 73

C237 72 236 70 236 69

C233 66 230 68 221 82

C215 90 215 91 224 86

Z

M200 74

C197 61 194 50 192 49

C190 48 188 51 188 55

C188 57 189 62 191 66

C196 75 200 82 201 82

C201 81 200 78 200 74

Z

M221 67

C225 58 226 56 226 53

C225 51 224 50 223 49

C220 48 218 53 215 70

C214 74 213 79 212 80

C212 82 212 82 214 81

C214 79 218 73 221 67

Z

M209 68

C211 50 210 42 207 42

C204 42 203 46 203 55

C204 64 206 80 207 80

C207 79 208 74 209 68

Z

M225 586

C225 578 228 568 232 563

C233 560 239 552 245 545

C262 525 267 516 268 497

C269 475 264 463 246 442

C229 421 225 412 225 394

C225 375 229 367 249 344

C262 329 267 318 268 300

C269 280 264 267 252 252

C249 248 243 241 240 237

C228 223 225 213 225 197

C225 179 229 170 245 152

C250 146 255 139 257 137

C270 118 272 91 262 70

C258 63 254 56 244 45

C231 30 226 21 225 5

L224 0

L232 0

C241 0 241 0 242 3

C243 7 246 7 257 3

C268 -1 271 -1 273 2

C274 5 277 5 278 2

C280 -1 284 -1 294 3

C305 7 308 7 309 3

L310 0

L319 0

L327 0

L326 6

C325 21 320 31 306 46

C288 67 283 78 284 100

C284 121 288 131 308 154

C322 170 326 179 326 197

C326 215 323 224 308 241

C295 256 290 265 286 274

C284 282 284 284 284 296

C284 308 284 310 286 317

C290 328 294 334 305 347

C310 353 316 360 318 363

C325 374 328 389 326 403

C324 417 320 425 304 443

C294 454 289 463 286 473

C284 479 284 483 284 494

C284 505 284 507 287 515

C290 525 296 534 306 546

C319 560 325 571 326 585

L327 591

L319 591

C312 591 310 591 310 590

C310 589 309 587 308 587

C306 585 303 585 293 589

C285 591 279 592 278 590

C278 589 277 588 276 588

C275 588 274 589 273 590

C271 592 266 591 258 589

C248 585 245 585 243 587

C242 587 241 589 241 590

C241 591 239 591 233 591

L224 591

L225 586

Z

M265 581

C260 571 251 560 248 560

C247 560 245 563 245 566

C245 569 250 574 257 578

C265 582 267 583 265 581

Z

M293 578

C305 572 308 568 305 562

C303 559 302 560 298 564

C294 568 285 582 286 582

C286 582 289 580 293 578

Z

M268 564

C265 548 263 543 260 542

C257 542 256 546 257 550

C259 556 269 575 270 575

C270 574 269 570 268 564

Z

M288 564

C294 552 295 548 294 545

C293 541 289 541 288 545

C287 547 283 563 281 572

C280 577 282 575 288 564

Z

M278 556

C279 550 279 544 279 541

C278 536 276 534 273 536

C272 537 272 539 272 547

C273 552 273 560 274 565

C276 574 276 573 278 556

Z

M277 449

C279 448 279 446 279 442

C279 436 276 414 276 413

C275 413 273 427 272 438

C272 446 272 448 273 449

C276 451 275 451 277 449

Z

M263 442

C264 440 267 425 269 414

C270 411 270 411 268 413

C265 416 257 435 257 438

C257 441 258 444 260 444

C261 444 262 443 263 442

Z

M294 441

C295 438 295 438 293 431

C290 424 282 411 281 411

C281 412 285 433 287 438

C289 444 291 445 294 441

Z

M256 418

C259 414 263 409 264 407

L266 403

L258 407

C247 413 243 418 246 423

C248 427 251 425 256 418

Z

M305 423

C307 419 306 416 302 413

C298 410 284 402 286 404

C291 414 300 425 303 425

C303 425 304 424 305 423

Z

M252 399

C258 397 264 395 263 394

C263 393 252 390 247 389

C242 387 239 393 242 398

C243 400 246 400 252 399

Z

M309 399

C311 397 310 391 308 390

C307 388 306 388 304 389

C298 390 288 393 287 394

C287 395 301 400 305 400

C306 400 308 399 309 399

Z

M278 397

C280 394 278 391 276 391

C273 392 271 394 273 396

C275 398 276 398 278 397

Z

M262 379

C257 371 250 363 248 363

C247 363 245 366 245 369

C245 372 250 377 257 381

C261 383 265 385 265 385

C266 385 264 382 262 379

Z

M293 381

C305 375 308 371 305 365

C303 362 302 363 298 367

C294 371 285 385 286 385

C286 385 289 383 293 381

Z

M268 367

C265 352 263 346 261 345

C256 344 256 351 259 359

C262 365 269 378 270 378

C270 377 269 373 268 367

Z

M288 367

C294 355 295 351 294 348

C293 344 289 344 288 348

C287 350 283 366 281 375

C280 380 282 378 288 367

Z

M278 359

C279 346 279 340 277 339

C275 338 275 338 273 340

C272 342 272 353 274 368

C276 377 276 376 278 359

Z

M277 252

C279 251 279 249 279 245

C279 238 276 217 276 216

C275 216 275 216 275 217

C275 217 274 223 273 229

C272 245 272 250 274 252

C274 253 275 254 276 254

C276 254 277 253 277 252

Z

M263 245

C264 243 267 228 269 217

C270 214 270 214 268 216

C265 219 257 238 257 241

C257 244 258 247 260 247

C261 247 262 246 263 245

Z

M294 245

C295 243 295 241 295 239

C293 234 282 213 281 214

C281 215 285 236 287 241

C288 244 290 247 291 247

C292 247 293 246 294 245

Z

M256 221

C259 217 263 212 264 210

L266 206

L259 209

C247 215 243 221 246 226

C248 230 251 228 256 221

Z

M305 227

C305 226 306 224 306 222

C306 220 305 218 302 216

C298 213 284 205 286 207

C288 212 295 221 298 224

C301 228 303 229 305 227

Z

M252 202

C258 200 264 198 263 197

C263 196 252 193 247 192

C242 190 239 196 242 201

C243 203 246 203 252 202

Z

M309 202

C311 200 310 194 308 193

C307 191 306 191 304 192

C298 193 288 196 287 197

C287 198 301 203 305 203

C306 203 308 202 309 202

Z

M278 200

C280 197 278 194 276 194

C273 195 271 197 273 199

C275 201 276 201 278 200

Z

M262 182

C257 174 250 166 248 166

C247 166 245 169 245 172

C245 175 250 180 257 184

C261 186 265 188 265 188

C266 188 264 185 262 182

Z

M293 184

C305 178 308 174 305 168

C303 165 302 166 298 170

C294 174 285 188 286 188

C286 188 289 186 293 184

Z

M268 170

C267 164 265 157 264 154

C263 149 262 149 260 149

C257 149 256 152 258 159

C260 164 269 181 270 181

C270 180 269 176 268 170

Z

M288 170

C294 158 295 154 294 151

C293 147 289 147 288 151

C287 153 283 169 281 178

C280 183 282 181 288 170

Z

M278 162

C279 156 279 150 279 147

C278 142 276 140 273 142

C272 143 272 145 272 153

C273 158 273 166 274 171

C276 180 276 179 278 162

Z

M277 55

C279 54 279 52 279 48

C279 42 276 20 276 19

C275 19 273 33 272 44

C272 52 272 54 273 55

C276 57 275 57 277 55

Z

M263 48

C264 46 267 31 269 20

C270 17 270 17 268 19

C265 22 257 41 257 44

C257 47 258 50 260 50

C261 50 262 49 263 48

Z

M293 48

C294 47 295 45 295 44

C295 42 285 21 283 19

L281 17

L281 19

C282 20 282 22 282 25

C284 33 287 46 289 48

C290 51 291 51 293 48

Z

M256 24

C259 20 263 15 264 13

L266 9

L259 13

C247 19 243 24 246 29

C248 33 251 31 256 24

Z

M305 30

C305 29 306 27 306 25

C306 21 302 17 292 12

L285 9

L287 12

C292 21 300 31 302 31

C303 31 304 30 305 30

Z

M336 582

C334 566 329 557 314 539

C297 519 294 511 294 494

C294 475 298 465 313 448

C317 444 321 438 323 436

C340 414 341 381 327 358

C324 354 319 347 314 342

C298 323 294 314 294 297

C294 278 298 268 313 251

C323 240 327 233 331 226

C338 211 339 191 333 175

C330 165 326 159 314 145

C300 129 296 122 294 108

C292 94 295 79 302 68

C304 65 309 58 313 53

C323 43 328 35 332 28

C334 22 337 9 337 4

L337 0

L345 0

L352 0

L352 3

C352 10 355 23 359 30

C362 37 366 43 377 55

C391 71 395 81 395 98

C395 109 394 116 389 125

C386 132 385 133 371 150

C358 165 353 176 352 193

C351 214 357 229 374 248

C384 261 389 267 391 274

C395 282 396 294 395 304

C393 318 389 326 376 341

C365 354 362 357 358 365

C353 376 352 385 352 398

C353 416 358 427 371 443

C385 458 389 464 391 471

C395 479 396 491 395 501

C393 515 389 523 375 539

C365 550 362 555 358 563

C355 570 352 581 352 587

L352 591

L345 591

L337 591

L336 582

Z

M347 546

C348 544 348 541 347 531

C346 524 346 517 345 515

L344 512

L344 515

C341 526 340 546 342 548

C344 550 346 549 347 546

Z

M332 538

C334 533 339 510 339 509

C338 508 325 533 325 536

C325 539 327 542 329 542

C330 542 331 541 332 538

Z

M362 540

C364 537 363 532 358 523

C353 512 350 508 350 510

C350 512 355 536 357 539

C358 542 361 543 362 540

Z

M323 519

C329 512 334 503 334 502

C333 502 321 508 318 512

C314 515 313 518 315 522

C317 525 319 524 323 519

Z

M374 522

C376 518 375 514 370 510

C365 507 355 502 354 502

C353 503 369 524 371 524

C372 524 373 523 374 522

Z

M325 496

C329 495 332 493 332 493

C333 492 323 488 317 487

C315 487 312 487 312 488

C310 489 310 494 311 496

C311 499 318 498 325 496

Z

M378 495

C379 494 379 492 378 490

C377 488 377 488 372 488

C367 488 355 492 357 493

C358 495 370 498 373 498

C376 498 377 498 378 495

Z

M347 494

C348 492 346 489 344 489

C342 490 341 492 341 494

C342 496 347 496 347 494

Z

M334 482

C334 481 324 467 321 464

C318 461 318 461 316 463

C315 464 314 466 314 468

C314 471 317 474 327 480

C332 483 334 484 334 482

Z

M365 478

C374 473 376 470 374 465

C373 461 370 461 366 466

C359 474 354 483 355 483

C356 483 360 481 365 478

Z

M336 464

C335 458 334 451 333 449

C331 442 327 441 326 447

C325 449 326 452 329 459

C334 468 338 476 339 476

C339 476 338 470 336 464

Z

M357 464

C363 452 365 446 362 444

C359 442 357 444 355 451

C353 457 350 474 350 476

C350 477 352 474 357 464

Z

M348 450

C348 441 348 439 347 438

C345 436 345 436 343 437

C341 438 340 445 342 459

C344 475 344 476 346 467

C346 463 347 455 348 450

Z

M347 349

C348 347 348 344 347 334

C346 327 346 320 345 318

L344 315

L344 318

C341 329 340 349 342 351

C344 353 346 352 347 349

Z

M332 341

C334 336 339 313 339 312

C338 311 325 336 325 339

C325 342 327 345 329 345

C330 345 331 344 332 341

Z

M362 343

C364 340 363 335 358 326

C353 315 350 311 350 313

C350 315 355 339 357 342

C358 345 361 346 362 343

Z

M323 322

C329 315 334 306 334 305

C333 305 321 311 317 315

C314 318 313 321 315 325

C317 328 319 327 323 322

Z

M374 325

C376 321 375 317 370 313

C365 310 355 305 354 305

C353 306 369 327 371 327

C372 327 373 326 374 325

Z

M327 298

C329 297 332 296 332 296

C333 295 323 291 317 290

C312 290 310 291 310 296

C310 301 312 302 318 301

C320 300 325 299 327 298

Z

M378 300

C379 298 379 294 378 292

C376 289 370 290 362 293

C355 296 355 296 364 299

C370 301 376 302 378 300

Z

M347 297

C348 295 346 292 344 292

C342 293 341 295 341 297

C342 299 347 299 347 297

Z

M334 285

C334 284 321 266 318 265

C316 264 314 267 314 271

C314 274 317 277 327 283

C332 286 334 287 334 285

Z

M362 283

C373 277 377 272 374 267

C372 262 368 266 358 280

C356 283 354 286 355 286

C356 286 359 285 362 283

Z

M337 269

C333 250 331 245 328 246

C327 247 326 248 326 250

C325 252 326 255 329 262

C334 272 338 279 339 279

C339 279 338 274 337 269

Z

M357 267

C363 255 365 249 362 247

C359 245 358 246 356 252

C354 257 350 277 350 279

C350 280 352 277 357 267

Z

M348 253

C348 244 348 242 347 241

C345 239 345 239 343 240

C341 241 340 248 342 262

C344 278 344 279 346 270

C346 266 347 258 348 253

Z

M347 152

C348 150 348 147 347 137

C346 130 346 123 345 121

L344 118

L344 121

C341 132 340 152 342 154

C344 156 346 155 347 152

Z

M332 144

C334 139 339 116 339 115

C338 114 325 139 325 143

C325 145 327 148 329 148

C330 148 331 147 332 144

Z

M362 146

C364 143 363 138 358 129

C353 118 350 114 350 116

C350 118 355 142 357 145

C358 148 361 149 362 146

Z

M323 125

C329 118 334 109 334 108

C333 108 321 114 317 118

C314 121 313 124 315 128

C317 131 319 130 323 125

Z

M374 128

C376 124 375 120 370 116

C365 113 355 108 354 108

C354 109 364 123 367 127

C371 131 371 131 374 128

Z

M325 102

C329 101 332 99 332 99

C333 98 323 94 317 93

C315 93 312 93 312 94

C310 95 310 100 311 102

C311 105 318 104 325 102

Z

M378 101

C379 100 379 98 378 96

C377 94 377 94 372 94

C367 94 355 98 357 99

C358 101 369 104 373 104

C376 104 377 104 378 101

Z

M347 100

C348 98 346 95 344 95

C342 96 341 98 341 100

C342 102 347 102 347 100

Z

M372 79

C375 76 376 73 374 70

C372 65 368 69 358 83

C356 86 354 89 354 89

C354 91 368 83 372 79

Z

M334 88

C334 88 326 76 323 72

C318 66 314 67 314 74

C314 77 318 81 327 86

C332 89 334 90 334 88

Z

M336 70

C335 63 333 56 333 54

C331 50 329 48 327 50

C324 52 325 58 330 67

C335 76 338 82 339 82

C339 82 338 76 336 70

Z

M357 70

C363 58 365 52 362 50

C359 48 358 49 356 55

C354 60 350 80 350 82

C350 83 352 80 357 70

Z

M348 56

C348 47 348 44 345 43

C340 41 340 51 344 80

C344 82 347 65 348 56

Z

M362 585

C364 569 368 562 385 543

C398 528 403 518 405 502

C407 486 404 469 396 457

C394 454 388 446 382 440

C370 425 365 415 363 404

C361 389 364 374 371 363

C373 360 379 353 385 347

C401 328 407 312 406 292

C405 275 400 264 389 251

C386 247 380 240 377 236

C366 222 361 208 362 192

C364 177 368 168 382 152

C393 139 396 136 400 128

C409 108 407 81 396 63

C394 59 387 51 382 45

C376 38 371 31 368 27

C365 20 362 8 362 3

L362 0

L371 0

C378 0 379 0 379 2

C379 7 385 7 397 2

C405 -1 409 -1 411 2

C412 5 415 5 416 2

C417 -1 421 -1 432 3

C443 7 446 7 447 3

C448 0 448 0 457 0

L465 0

L464 5

C464 13 460 24 456 30

C455 33 449 40 444 46

C434 58 431 62 427 70

C419 87 419 111 426 127

C430 134 436 142 444 152

C461 171 466 185 464 205

C462 219 458 227 441 247

C425 265 420 279 421 300

C422 319 426 328 444 349

C460 368 464 376 464 394

C464 410 461 420 450 434

C446 438 440 445 437 449

C426 462 421 476 421 493

C421 513 426 525 443 545

C459 563 462 570 464 584

L465 591

L456 591

C449 591 448 591 448 589

C447 587 446 586 445 586

C443 585 435 587 429 589

C424 591 418 592 416 590

C415 589 414 588 413 588

C412 588 411 589 410 590

C410 592 404 591 396 589

C386 585 383 585 381 587

C380 587 379 589 379 590

C379 591 377 591 370 591

L362 591

L362 585

Z

M399 575

C393 565 388 560 386 560

C386 560 385 561 384 562

C382 565 383 569 386 572

C389 574 402 582 403 582

C404 582 402 579 399 575

Z

M430 579

C437 575 444 569 444 567

C444 564 442 560 441 560

C438 560 429 571 424 581

C423 583 424 582 430 579

Z

M406 563

C402 547 401 543 399 542

C398 541 397 542 396 543

C395 544 394 546 394 547

C394 550 406 576 408 575

C408 575 407 569 406 563

Z

M428 560

C433 549 433 544 430 542

C428 541 428 541 427 543

C425 546 421 563 420 571

L419 576

L421 572

C422 570 425 564 428 560

Z

M416 548

C417 540 417 538 416 537

C413 533 411 536 410 542

C410 547 412 565 413 570

C414 573 416 562 416 548

Z

M417 439

C416 428 414 413 413 413

C413 414 410 435 410 441

C410 446 410 448 412 449

C413 451 413 451 415 449

C417 448 417 447 417 439

Z

M400 443

C400 442 402 439 402 436

C404 430 408 411 408 410

C407 410 397 429 395 434

C394 438 394 439 395 441

C397 444 398 445 400 443

Z

M431 443

C433 441 432 435 429 427

C424 418 420 411 419 411

C419 412 423 431 424 436

C425 440 428 444 429 444

C429 444 430 443 431 443

Z

M391 421

C394 418 401 409 403 404

C405 401 391 409 386 414

C383 417 382 422 384 424

C386 426 388 425 391 421

Z

M443 423

C446 418 442 413 430 407

L423 403

L424 406

C425 407 429 412 432 417

C438 425 441 427 443 423

Z

M394 397

C398 396 402 395 402 394

C401 393 390 389 385 388

C382 388 381 388 380 390

C379 393 379 397 380 399

C382 401 385 400 394 397

Z

M447 398

C450 393 447 387 441 389

C436 390 425 393 425 394

C425 395 431 397 437 399

C443 400 446 400 447 398

Z

M416 396

C417 393 416 391 413 391

C411 391 409 395 411 397

C413 399 415 398 416 396

Z

M399 378

C393 368 388 363 386 363

C386 363 385 364 384 365

C382 368 383 372 386 375

C389 377 402 385 403 385

C404 385 402 382 399 378

Z

M430 382

C437 378 444 372 444 370

C444 367 442 363 441 363

C438 363 429 374 424 384

C423 386 424 385 430 382

Z

M405 365

C402 348 401 346 398 346

C394 346 393 350 396 357

C399 365 407 378 408 378

C408 378 407 372 405 365

Z

M428 363

C431 356 432 353 432 350

C432 346 431 345 429 345

C427 345 427 346 426 348

C424 351 419 375 419 377

C419 379 422 374 428 363

Z

M416 351

C417 343 417 341 416 340

C413 336 411 339 410 345

C410 350 412 368 413 373

C414 376 416 365 416 351

Z

M417 242

C416 231 414 216 413 216

C413 217 410 238 410 244

C410 249 410 251 412 252

C413 254 413 254 415 252

C417 251 417 250 417 242

Z

M400 246

C400 245 402 242 402 239

C404 233 408 214 408 213

C407 213 397 232 395 237

C394 241 394 242 395 244

C397 247 398 248 400 246

Z

M431 246

C433 244 432 238 429 230

C424 221 420 214 419 214

C419 215 423 234 424 239

C425 243 428 247 429 247

C429 247 430 246 431 246

Z

M391 224

C394 221 401 212 403 207

C405 204 391 212 386 217

C383 220 382 225 384 227

C386 229 388 228 391 224

Z

M443 226

C445 223 444 220 441 217

C437 213 423 205 423 207

C423 207 428 215 434 222

C438 228 441 229 443 226

Z

M394 200

C398 199 402 198 402 197

C401 196 391 193 385 192

C381 191 379 193 379 197

C379 204 382 204 394 200

Z

M447 201

C449 198 448 194 446 193

C444 191 444 191 438 192

C435 193 430 195 428 196

L425 197

L428 199

C438 203 445 204 447 201

Z

M416 199

C417 196 416 194 413 194

C410 195 409 197 411 200

C413 202 415 201 416 199

Z

M399 181

C393 171 388 166 386 166

C386 166 385 167 384 168

C382 171 383 175 386 178

C389 180 402 188 403 188

C404 188 402 185 399 181

Z

M433 183

C439 180 444 175 444 172

C444 170 442 166 441 166

C438 166 429 177 424 187

C422 189 425 188 433 183

Z

M405 168

C402 151 401 149 398 149

C394 149 393 153 396 160

C399 168 407 181 408 181

C408 181 407 175 405 168

Z

M428 166

C431 159 432 156 432 153

C432 149 431 148 429 148

C428 148 427 149 426 150

C425 152 420 170 420 177

L419 182

L421 178

C422 176 425 171 428 166

Z

M416 154

C417 146 417 144 416 143

C413 139 411 142 410 148

C410 153 412 171 413 176

C414 179 416 168 416 154

Z

M415 55

C417 53 417 52 417 44

C416 34 414 19 413 19

C413 20 410 41 410 47

C410 53 411 57 413 57

C413 57 415 56 415 55

Z

M401 47

C402 44 406 28 407 19

L408 16

L405 20

C400 28 395 41 395 44

C395 50 398 52 401 47

Z

M431 49

C433 47 432 41 429 33

C424 24 420 17 419 17

C419 18 423 38 425 43

C427 50 428 51 431 49

Z

M391 27

C394 24 401 15 403 10

C405 8 391 16 387 19

C384 21 383 23 383 25

C383 29 384 31 387 31

C387 31 389 29 391 27

Z

M443 29

C445 26 444 23 441 20

C437 16 423 8 423 10

C423 10 428 18 434 25

C438 31 441 32 443 29

Z

M474 585

C472 566 469 559 448 534

C436 520 431 508 431 493

C431 478 436 465 448 451

C470 426 474 416 474 395

C474 377 470 364 459 351

C456 347 450 340 447 336

C435 322 431 311 431 296

C431 280 436 268 450 253

C454 247 460 240 463 236

C476 218 478 191 469 169

C466 162 461 155 451 144

C437 128 432 118 431 103

C430 85 435 73 452 52

C467 34 473 24 475 6

L475 0

L482 0

L490 0

L490 8

C491 22 497 34 509 48

C521 63 525 68 528 74

C532 83 533 90 533 102

C532 119 528 127 513 145

C496 164 490 177 490 197

C490 219 494 228 516 253

C529 269 533 279 533 296

C533 314 529 323 513 342

C494 364 490 372 491 395

C491 407 491 410 493 416

C496 426 502 434 512 446

C528 465 532 472 533 490

C533 496 533 503 532 506

C530 514 525 524 518 532

C499 556 495 561 492 574

C491 578 490 583 490 586

L490 591

L483 591

L475 591

L474 585

Z

M485 546

C486 544 486 539 485 528

C484 519 483 512 482 512

C481 511 479 530 479 539

C479 547 480 549 483 549

C483 549 485 548 485 546

Z

M469 541

C471 538 478 509 476 510

C475 510 466 526 464 532

C463 536 463 537 464 539

C465 542 467 543 469 541

Z

M500 541

C502 538 501 533 495 521

C491 514 488 509 488 510

C488 512 492 534 494 538

C496 542 498 543 500 541

Z

M459 521

C463 516 472 503 472 502

C471 502 460 508 456 511

C453 514 452 515 452 518

C452 521 453 524 455 524

C456 524 457 523 459 521

Z

M511 522

C513 520 513 515 510 512

C507 509 493 501 492 502

C492 503 502 517 505 521

C509 524 509 525 511 522

Z

M462 496

C472 493 472 493 465 490

C458 487 450 486 449 488

C448 490 448 496 449 497

C450 499 457 498 462 496

Z

M516 496

C518 492 516 488 512 487

C509 487 495 491 495 492

C494 494 506 498 511 498

C514 498 515 498 516 496

Z

M485 493

C485 490 483 488 480 490

C479 491 479 494 480 495

C481 497 485 495 485 493

Z

M471 481

C470 480 468 476 466 474

C457 460 452 458 452 468

C452 471 456 475 464 479

C472 484 472 484 471 481

Z

M503 478

C511 473 514 469 512 464

C510 459 506 462 497 475

C495 478 493 481 493 482

C491 484 495 483 503 478

Z

M473 460

C470 446 470 444 467 443

C465 443 463 445 463 449

C463 453 475 477 476 474

C476 473 475 467 473 460

Z

M495 463

C501 453 502 447 500 445

C498 442 496 443 494 447

C493 450 488 472 488 475

C488 476 488 476 489 474

C490 473 493 468 495 463

Z

M485 449

C486 441 486 440 484 438

C479 432 478 442 480 462

C481 467 481 471 482 472

C482 474 484 461 485 449

Z

M485 349

C486 347 486 342 485 331

C484 322 483 315 482 315

C482 314 481 317 480 327

C479 339 479 349 480 351

C482 353 484 352 485 349

Z

M470 342

C472 338 477 312 476 313

C475 313 466 329 464 335

C463 339 463 340 464 342

C465 346 468 345 470 342

Z

M500 344

C502 341 501 336 495 324

C491 317 488 312 488 313

C488 315 492 337 494 341

C496 345 498 346 500 344

Z

M459 324

C463 319 472 306 472 305

C471 305 460 311 456 314

C453 317 452 318 452 321

C452 324 453 327 455 327

C456 327 457 326 459 324

Z

M511 325

C513 323 513 318 510 315

C507 312 493 304 492 305

C491 306 507 327 509 327

C509 327 510 326 511 325

Z

M465 298

C472 295 472 295 462 292

C454 290 449 289 449 292

C447 295 448 300 450 301

C452 302 458 301 465 298

Z

M516 299

C518 295 516 291 512 290

C509 290 495 294 495 295

C494 297 506 301 511 301

C514 301 515 301 516 299

Z

M485 296

C485 293 483 291 480 293

C479 294 479 297 480 298

C481 300 485 298 485 296

Z

M471 284

C469 280 461 270 458 267

C455 264 455 264 454 266

C451 268 452 273 455 276

C457 279 470 286 471 286

C472 286 472 285 471 284

Z

M503 281

C511 276 514 272 512 267

C510 262 506 265 497 278

C495 281 493 284 493 285

C491 287 495 286 503 281

Z

M473 263

C470 249 470 247 467 246

C465 246 463 248 463 252

C463 256 475 280 476 277

C476 276 475 270 473 263

Z

M496 266

C500 257 501 254 501 251

C500 247 498 245 496 247

C494 249 490 267 488 275

C488 281 489 280 496 266

Z

M485 252

C486 244 486 243 484 241

C479 235 478 245 480 265

C481 270 481 274 482 275

C482 277 484 264 485 252

Z

M485 152

C486 150 486 145 485 134

C484 125 483 118 482 118

C482 117 481 120 480 130

C479 142 479 152 480 154

C482 156 484 155 485 152

Z

M469 147

C471 144 478 115 476 116

C475 116 466 132 464 138

C463 142 463 143 464 145

C465 148 467 149 469 147

Z

M500 147

C502 144 501 139 495 127

C491 120 488 115 488 116

C488 118 492 140 494 144

C496 148 498 149 500 147

Z

M459 127

C463 122 472 109 472 108

C471 108 459 114 455 118

C453 120 452 121 452 124

C452 127 453 130 455 130

C456 130 458 129 459 127

Z

M511 128

C513 126 513 121 510 118

C507 115 493 107 492 108

C491 109 507 130 509 130

C509 130 510 129 511 128

Z

M463 102

C472 99 472 99 470 98

C467 96 455 93 452 93

C450 93 449 94 449 95

C448 97 448 103 449 103

C450 105 457 104 463 102

Z

M516 102

C517 100 517 98 516 96

C515 94 515 94 510 94

C505 94 493 98 495 99

C496 101 507 104 511 104

C514 104 515 104 516 102

Z

M485 99

C485 96 483 94 480 96

C479 97 479 100 480 101

C481 103 485 101 485 99

Z

M470 85

C461 71 454 65 453 70

C451 73 452 77 455 79

C457 82 470 89 471 89

C472 89 471 87 470 85

Z

M497 87

C510 81 514 76 512 70

C510 66 507 68 501 76

C491 89 490 91 497 87

Z

M473 66

C470 52 470 50 467 49

C465 49 463 51 463 55

C463 59 475 83 476 80

C476 79 475 73 473 66

Z

M495 69

C501 59 502 53 500 51

C498 48 496 49 494 53

C493 56 488 78 488 81

C488 82 488 82 489 80

C490 79 493 74 495 69

Z

M485 55

C486 47 486 46 484 44

C479 38 478 48 480 68

C481 73 481 77 482 78

C482 80 484 67 485 55

Z

M500 585

C502 571 506 562 521 545

C532 532 537 524 540 515

C544 502 544 482 540 470

C536 460 532 454 522 442

C506 423 501 415 500 398

C499 378 503 369 525 343

C538 328 543 315 543 297

C543 275 539 264 520 243

C504 224 501 216 501 198

C500 179 504 171 520 153

C539 130 543 121 543 100

C543 78 539 67 520 46

C506 30 502 20 500 6

L500 0

L508 0

C516 0 516 0 517 3

C518 5 519 5 523 5

C525 5 529 4 533 3

C547 -3 551 -1 551 12

C551 16 550 24 549 30

C548 43 548 54 550 56

C551 57 551 63 551 99

C551 134 551 140 550 142

C548 144 548 155 550 168

C552 182 552 194 550 194

C549 195 548 196 548 197

C548 198 549 199 550 200

C551 201 552 215 550 222

C549 224 549 232 548 239

C548 250 548 252 549 253

C551 254 551 258 551 296

C551 331 551 337 550 339

C548 341 548 352 550 365

C552 379 552 391 550 391

C549 392 548 393 548 394

C548 395 549 396 550 397

C551 398 552 412 550 419

C549 421 549 429 548 436

C548 447 548 449 549 450

C551 451 551 455 551 493

C551 528 551 534 550 536

C548 538 548 549 550 562

C554 590 551 595 534 589

C530 587 525 586 523 586

C519 586 518 586 517 588

C516 591 516 591 508 591

L500 591

L500 585

Z

M536 574

C528 562 525 559 523 561

C522 561 521 563 521 566

C521 569 521 570 525 573

C529 576 540 582 541 581

C541 581 539 578 536 574

Z

M545 573

C545 572 544 567 543 562

C539 543 537 539 533 543

C531 546 532 550 537 560

C541 568 545 575 545 575

C546 575 546 574 545 573

Z

M538 441

C540 438 545 415 545 413

C544 410 532 434 532 438

C532 441 534 444 536 444

C536 444 538 443 538 441

Z

M528 422

C531 419 541 405 541 404

C541 402 528 410 524 413

C522 415 521 417 521 419

C521 426 524 427 528 422

Z

M534 397

L541 394

L537 393

C534 392 530 390 526 389

C520 388 520 388 518 389

C516 391 516 396 518 399

C520 401 525 400 534 397

Z

M536 377

C528 365 525 362 523 364

C522 364 521 366 521 369

C521 372 521 373 525 376

C529 379 540 385 541 385

C541 384 539 381 536 377

Z

M545 376

C545 375 544 370 543 365

C539 346 537 342 533 346

C530 349 533 358 541 371

C545 378 546 379 545 376

Z

M538 244

C540 241 545 218 545 216

C544 213 532 237 532 241

C532 244 534 247 536 247

C536 247 538 246 538 244

Z

M528 225

C531 222 541 208 541 207

C541 205 528 213 524 216

C522 218 521 220 521 222

C521 229 524 230 528 225

Z

M534 200

L541 197

L537 196

C534 195 530 193 526 192

C519 191 517 191 517 197

C517 204 521 205 534 200

Z

M536 180

C528 168 525 165 523 167

C522 167 521 169 521 172

C521 175 521 176 525 179

C529 182 540 188 541 188

C541 187 539 184 536 180

Z

M545 179

C545 178 544 173 543 168

C539 149 537 145 533 149

C530 152 533 161 541 174

C545 181 546 182 545 179

Z

M538 47

C540 44 545 21 545 19

C544 16 532 40 532 44

C532 47 534 50 536 50

C536 50 538 49 538 47

Z

M528 28

C531 25 541 11 541 10

C541 8 525 18 522 21

C521 22 521 27 522 29

C523 32 525 31 528 28

Z

"/>

</svg>

