<?xml version="1.0" standalone="no"?>

<!DOCTYPE svg PUBLIC "-//W3C//DTD SVG 20010904//EN"

 "http://www.w3.org/TR/2001/REC-SVG-20010904/DTD/svg10.dtd">

<svg version="1.0" xmlns="http://www.w3.org/2000/svg"

 width="590.000000pt" height="613.000000pt" viewBox="0 0 590.000000 613.000000"

 preserveAspectRatio="xMidYMid meet">

<path fill="#fcfbfb" stroke="none" d="
M0 307

L0 0

L295 0

L590 0

L590 307

L590 613

L295 613

L0 613

L0 307

Z

"/>

<path fill="#a58aaa" stroke="none" d="
M1 613

C1 612 1 611 2 610

C3 608 3 607 2 604

C0 602 0 598 0 589

C0 582 0 577 1 578

C1 579 3 578 8 575

L14 572

L7 572

L0 572

L0 569

L0 565

L6 565

L13 565

L7 561

C3 559 1 558 1 559

C0 560 0 555 0 548

C0 539 0 535 2 533

C3 529 3 529 2 527

C1 525 0 522 0 518

L0 512

L4 517

L7 523

L9 520

C12 515 16 503 18 494

C20 482 20 451 18 439

C16 430 12 419 9 414

L7 410

L4 416

L1 422

L0 416

C0 411 0 409 2 406

C3 403 3 403 2 400

C0 397 0 394 0 384

C0 377 0 372 1 373

C2 374 3 373 8 371

L14 368

L7 367

C0 367 0 367 0 364

C0 361 0 361 7 361

L14 361

L8 357

C5 355 1 354 1 355

C0 355 0 350 0 343

C0 333 0 330 2 328

C3 326 3 326 2 322

C1 320 0 317 0 313

L0 307

L3 312

C5 315 7 318 7 318

C9 317 13 306 16 297

C21 275 21 250 16 228

C14 219 9 207 7 206

C7 206 5 209 3 212

L0 218

L0 211

C0 206 1 203 2 201

C3 199 3 199 2 195

C0 193 0 189 0 180

C0 173 0 168 1 169

C1 170 3 169 8 166

L14 163

L7 163

L0 163

L0 160

L0 156

L6 156

L13 156

L7 152

C3 150 1 149 1 150

C0 151 0 146 0 139

C0 130 0 126 2 124

C3 120 3 120 2 118

C1 116 0 113 0 109

L0 103

L4 108

L7 114

L9 111

C12 106 16 94 18 85

C20 73 20 42 18 30

C16 21 12 10 9 5

L7 1

L4 6

C2 9 1 12 0 12

C0 12 0 9 0 6

L0 0

L7 0

L15 0

L18 8

C24 26 26 37 26 58

C26 81 23 98 14 114

L11 121

L20 137

C25 146 30 153 30 152

C31 152 35 145 39 137

L48 122

L45 114

C37 97 34 84 33 63

C33 40 36 21 42 6

L45 0

L52 0

L60 0

L63 6

L66 12

L69 6

C72 1 72 0 75 0

C77 0 78 1 78 1

C78 2 76 6 74 11

L70 19

L79 34

C84 43 88 50 89 50

C89 50 93 43 98 34

L107 19

L103 10

C101 5 99 1 99 1

C99 0 100 0 102 0

C105 0 106 0 108 6

L111 13

L115 6

L118 0

L125 0

L132 0

L134 4

C140 16 144 37 144 58

C144 80 140 98 132 114

L129 121

L138 137

C143 146 148 153 148 152

C148 152 153 145 157 136

L166 121

L163 115

C148 85 147 37 161 5

L163 0

L170 0

L178 0

L181 6

L184 13

L187 8

C188 5 189 2 189 1

C189 0 196 0 196 1

C196 2 194 6 192 11

L188 19

L197 34

C202 43 206 50 207 50

C207 50 211 43 216 34

L225 19

L222 12

C216 0 216 0 220 0

C223 0 224 0 226 6

C227 9 229 11 229 11

C229 11 231 9 233 6

L236 0

L243 0

L251 0

L254 8

C267 41 265 85 250 114

L247 121

L256 137

C261 146 266 153 266 152

C267 152 271 145 275 137

L284 122

L281 114

C272 96 269 79 269 58

C269 38 272 22 278 7

L281 1

L288 0

L296 0

L299 6

L302 12

L305 6

C308 1 308 0 311 0

C313 0 314 1 314 1

C314 2 312 6 310 11

L306 19

L315 34

C320 43 324 50 325 50

C325 50 329 43 334 34

L343 19

L339 10

C337 5 335 1 335 1

C335 0 336 0 338 0

C341 0 342 0 344 6

L347 13

L351 6

L354 0

L361 0

L369 0

L372 8

C381 32 383 60 378 86

C376 97 371 110 368 117

L365 121

L374 137

C379 146 384 153 384 152

C385 151 402 122 402 121

C402 121 400 118 399 114

C390 96 386 76 387 53

C388 34 390 23 395 10

L399 1

L406 0

L414 0

L417 6

L420 12

L423 6

C426 0 426 0 430 0

L433 0

L430 6

C429 10 427 14 426 16

L424 19

L433 34

C438 43 443 50 443 50

C443 50 448 43 452 34

L461 19

L458 12

C456 9 455 4 454 3

C453 0 453 0 456 0

C459 0 460 0 462 6

L465 13

L469 6

L472 0

L480 0

L487 0

L490 8

C497 26 500 44 499 65

C498 84 494 100 487 114

C485 117 484 120 484 121

C484 122 501 153 502 153

C502 153 517 128 519 123

C520 122 519 119 516 112

C502 82 501 38 514 8

L517 0

L525 0

L532 0

L535 6

L539 12

L541 6

C544 0 544 0 548 0

L551 0

L549 5

C548 8 546 12 545 14

C544 16 543 19 543 19

C544 21 560 50 561 50

C561 50 566 43 571 34

L580 19

L577 15

C576 12 574 8 573 5

L571 0

L574 0

C577 0 578 0 581 6

L584 12

L587 7

L590 2

L590 7

C590 10 590 14 589 16

C588 19 588 20 589 21

C590 22 590 27 590 35

L590 47

L584 50

L578 54

L584 54

L590 54

L590 58

L590 61

L584 61

L578 61

L584 65

L590 68

L590 80

C590 88 590 92 589 94

C587 96 587 97 589 99

C590 100 590 103 590 107

L590 113

L587 108

C585 105 583 103 583 104

C582 104 576 120 574 128

C570 147 570 172 574 191

C576 199 582 215 583 215

C583 216 585 214 587 211

L590 206

L590 213

C589 217 589 222 589 223

C589 224 589 231 589 238

L590 251

L584 255

L578 259

L584 259

C590 259 590 259 590 262

C590 265 590 265 584 265

L578 266

L584 269

L590 273

L590 285

C590 293 590 297 589 299

C587 300 587 301 589 303

C589 305 590 309 590 312

L590 319

L587 313

L583 307

L580 314

C567 343 568 390 581 417

L584 421

L587 416

L590 411

L590 416

C590 419 590 423 589 425

C588 428 588 429 589 430

C590 431 590 436 590 444

L590 456

L584 459

L578 463

L584 463

L590 463

L590 467

L590 470

L584 470

L578 470

L584 474

L590 477

L590 489

C590 497 590 501 589 503

C587 505 587 506 589 508

C589 509 590 512 590 516

L590 523

L588 519

C586 516 585 514 584 513

C582 510 574 532 572 548

C569 565 571 591 576 607

L578 613

L574 613

C571 613 571 613 569 606

C561 578 563 540 575 514

C577 509 579 505 579 505

C579 503 562 474 561 474

C560 474 543 504 543 505

C543 506 544 509 546 512

C559 537 562 576 553 606

C551 612 551 613 548 613

C544 613 544 613 545 610

C552 592 553 560 548 537

C546 529 540 513 539 513

C539 512 536 516 533 521

L528 529

L531 535

C536 546 537 553 537 569

C537 584 536 591 531 602

C529 607 528 608 530 610

C532 613 531 613 525 613

C521 613 518 613 518 613

C518 612 519 611 519 610

C520 607 519 606 511 592

C507 583 502 576 502 576

C502 576 497 583 492 592

C484 607 483 608 485 610

L486 613

L480 613

C473 613 472 613 474 610

C476 608 476 607 474 603

C468 592 467 585 467 569

C467 553 468 546 473 536

L476 530

L471 521

C468 516 466 512 465 512

C465 511 461 520 459 528

C451 551 450 582 458 606

C459 613 459 613 456 613

C453 613 452 612 451 606

C443 576 445 537 458 513

C459 509 461 505 461 505

C461 504 459 501 448 482

L443 473

L434 489

L424 505

L428 513

C441 539 443 577 434 608

C433 613 433 613 430 613

L426 613

L428 607

C435 584 435 553 428 530

C426 522 421 512 420 512

C420 513 418 517 415 521

L410 529

L413 534

C418 544 419 553 419 569

C419 584 418 593 413 603

C410 607 410 608 412 610

L413 613

L407 613

C403 613 400 613 400 613

C400 612 401 611 401 610

C402 607 401 606 393 592

C388 583 384 576 384 576

C384 576 379 583 374 592

C366 607 365 608 367 610

L368 613

L362 613

C355 613 354 613 356 610

C358 608 357 607 355 602

C350 592 349 585 349 569

C349 552 350 546 355 535

C356 533 357 530 357 529

C357 529 355 525 352 520

L347 512

L344 518

C336 535 333 560 335 580

C335 587 337 597 338 602

C340 608 341 613 341 613

C341 613 340 613 338 613

C334 613 334 612 331 599

C328 586 328 553 330 540

C333 530 337 516 341 510

C342 508 343 505 343 505

C343 504 326 475 325 474

C325 473 320 480 315 489

L306 505

L308 508

C311 514 317 529 319 540

C323 559 322 589 316 608

C315 613 315 613 311 613

C310 613 308 613 308 613

C308 613 309 610 310 606

C315 590 316 565 313 546

C312 537 307 521 304 515

L302 512

L297 521

L292 529

L295 536

C300 546 301 554 301 569

C301 583 300 591 295 601

C292 607 292 608 294 610

L295 613

L289 613

C285 613 282 613 282 613

C282 612 282 611 283 610

C284 608 283 606 276 592

C271 584 266 577 266 577

C266 576 261 583 256 592

C247 607 247 607 249 610

L250 613

L243 613

C237 613 237 613 238 611

C239 608 238 606 236 599

C231 589 230 580 230 565

C231 551 232 545 237 535

L239 529

L234 521

C232 516 229 512 229 512

C229 512 227 516 225 520

C214 548 213 579 223 611

C223 613 223 613 220 613

L216 613

L214 604

C211 591 210 584 210 569

C210 547 214 529 221 513

L225 505

L216 490

C212 481 207 474 207 474

C207 473 202 480 197 489

L188 505

L191 512

C200 528 203 546 203 569

C203 585 203 591 199 605

L197 613

L193 613

C191 613 190 613 190 611

C194 602 197 583 197 568

C197 550 194 534 188 519

C184 511 185 510 178 523

L174 530

L177 535

C181 545 183 554 183 569

C183 583 181 592 176 602

C174 608 174 608 176 610

L177 613

L170 613

L163 613

L165 610

C166 607 166 607 157 592

C152 584 148 577 147 577

C147 577 143 584 138 592

C129 608 129 608 131 610

L132 613

L126 613

C122 613 119 613 119 613

C119 612 120 611 120 610

C121 608 121 606 119 602

C115 593 113 585 112 572

C112 558 113 548 118 536

L121 529

L116 521

C114 516 112 512 111 512

C111 511 105 526 102 535

C97 556 97 581 102 602

C104 608 105 613 105 613

C105 613 104 613 102 613

C98 613 98 612 95 599

C92 586 92 553 94 540

C97 530 101 517 105 510

L107 505

L98 490

C94 481 90 474 89 474

C89 473 84 480 79 489

L70 505

L74 512

C82 529 85 546 85 569

C85 586 84 595 81 607

C79 613 79 613 75 613

C74 613 72 613 72 613

C72 613 73 610 74 606

C79 591 80 564 77 546

C76 537 71 521 68 515

L66 512

L61 520

L56 529

L59 535

C65 548 67 565 65 579

C64 588 60 600 57 605

C56 608 56 608 57 610

L59 613

L53 613

C49 613 46 613 46 613

C46 612 46 611 47 610

C48 608 47 606 40 593

C35 585 31 578 30 577

C29 576 28 579 20 592

C11 607 11 608 13 610

L14 613

L8 613

C4 613 1 613 1 613

Z

M15 587

C19 581 22 575 22 575

C21 575 17 577 12 580

C4 585 3 586 3 588

C3 592 7 600 8 600

C8 599 11 594 15 587

Z

M55 594

C56 591 57 588 57 587

C57 586 40 575 38 575

C37 575 40 581 44 587

C48 594 52 600 52 600

C53 600 54 597 55 594

Z

M130 593

C132 590 135 584 137 581

C141 574 142 574 128 582

L120 586

L122 591

C123 597 125 600 125 600

C126 600 128 597 130 593

Z

M173 594

C174 590 175 587 175 586

C174 585 157 575 156 575

C155 575 158 581 162 588

C166 594 170 600 170 600

C171 600 172 597 173 594

Z

M251 587

C255 581 258 575 258 575

C257 575 238 586 238 586

C238 587 242 598 243 599

C243 601 244 600 251 587

Z

M291 594

C292 591 293 588 293 587

C293 586 276 575 274 575

C273 575 276 581 280 587

C284 594 288 600 288 600

C289 600 290 597 291 594

Z

M369 587

C373 581 376 576 376 575

C376 575 371 578 366 581

L356 586

L358 591

C360 598 361 600 362 599

C362 599 366 593 369 587

Z

M409 594

C410 591 411 588 411 587

C411 586 408 584 402 580

C397 577 392 575 392 576

C392 576 405 600 406 600

C407 600 408 598 409 594

Z

M488 587

C491 581 494 576 494 575

C494 575 489 578 484 581

L474 586

L476 590

C478 599 479 600 480 599

C481 598 484 593 488 587

Z

M527 593

C528 590 529 587 529 587

C530 586 511 575 510 575

C510 576 518 590 523 598

C525 601 525 600 527 593

Z

M59 576

L59 572

L53 572

C49 572 47 572 47 573

C48 574 57 579 58 579

C59 579 59 577 59 576

Z

M125 572

C122 572 119 572 119 572

C118 572 118 574 119 576

L119 579

L125 576

L131 573

L125 572

Z

M177 576

L177 572

L171 572

C167 572 165 572 165 573

C166 574 175 579 176 579

C177 579 177 577 177 576

Z

M243 572

C239 572 237 572 236 572

C236 573 236 574 237 576

L237 579

L243 576

L249 573

L243 572

Z

M295 576

L295 572

L289 572

C285 572 283 572 283 573

C284 574 293 579 294 579

C295 579 295 577 295 576

Z

M361 572

C358 572 355 572 355 572

C354 572 354 574 355 576

L355 579

L361 576

L367 573

L361 572

Z

M413 576

L413 572

L407 572

L401 572

L404 574

C406 575 408 577 410 578

C413 580 413 579 413 576

Z

M482 574

L486 572

L479 572

L473 572

L473 576

L473 579

L476 577

C478 577 481 575 482 574

Z

M531 576

L531 572

L525 572

L519 572

L522 574

C524 575 526 577 528 578

C531 580 531 579 531 576

Z

M59 562

C59 560 59 558 59 558

C58 558 48 564 47 565

C47 565 49 565 53 565

L59 565

L59 562

Z

M126 562

C122 560 119 558 119 558

C119 558 119 560 119 562

L118 565

L125 565

L132 565

L126 562

Z

M177 562

C177 560 177 558 176 558

C176 558 173 560 170 562

L165 565

L171 565

L177 565

L177 562

Z

M244 562

C238 559 237 558 237 560

C235 564 236 565 243 565

L250 565

L244 562

Z

M295 562

C295 560 295 558 295 558

C294 558 284 564 283 565

C283 565 285 565 289 565

L295 565

L295 562

Z

M362 562

C358 560 355 558 355 558

C355 558 355 560 355 562

L354 565

L361 565

L368 565

L362 562

Z

M413 562

C413 560 413 558 413 558

C412 558 409 560 406 561

L401 565

L407 565

L413 565

L413 562

Z

M482 563

C481 562 478 560 476 560

L473 558

L473 561

L473 565

L479 565

L486 565

L482 563

Z

M531 561

L531 558

L528 560

C526 560 523 562 522 563

L519 565

L525 565

L531 565

L531 561

Z

M21 560

C20 559 17 553 14 547

C10 542 7 537 7 537

C6 537 2 550 3 551

C4 552 20 562 21 562

C22 562 22 561 21 560

Z

M39 546

L48 531

L45 523

C37 506 34 493 33 472

C32 447 36 429 44 411

L48 403

L39 388

C35 379 30 372 30 372

C30 371 25 378 20 387

L11 403

L14 410

C23 426 26 444 26 467

C26 490 23 507 14 523

L11 530

L20 546

C25 555 30 562 30 561

C31 561 35 554 39 546

Z

M53 553

C55 552 57 550 57 550

C57 547 53 537 52 537

C51 537 38 560 38 561

C38 562 45 558 53 553

Z

M140 561

C139 561 136 555 133 549

C129 542 125 537 125 538

C124 538 121 546 121 549

C121 551 123 552 130 556

C138 562 141 563 140 561

Z

M157 545

L166 530

L163 524

C149 497 147 455 157 424

C159 419 161 412 163 409

L166 403

L157 387

C149 373 148 371 147 373

C146 374 142 381 137 389

L129 403

L132 410

C140 426 144 444 144 467

C144 489 140 507 132 523

L129 530

L138 546

C143 555 148 562 148 561

C148 561 153 554 157 545

Z

M166 557

C174 552 174 551 174 549

C174 545 171 537 170 537

C170 537 166 543 162 550

C158 556 155 562 156 562

C156 562 161 560 166 557

Z

M256 558

C254 555 251 550 248 545

C246 541 244 537 243 537

C243 537 239 545 239 548

C238 551 239 551 247 556

C252 559 257 562 257 562

C258 562 257 560 256 558

Z

M275 546

L284 531

L281 523

C276 514 273 505 271 495

C269 483 269 450 271 438

C274 428 277 416 281 409

L284 403

L275 388

C271 379 266 372 266 372

C266 371 261 378 256 387

L247 403

L250 410

C259 426 262 444 262 467

C262 489 259 508 250 523

L247 530

L256 546

C261 555 266 562 266 561

C267 561 271 554 275 546

Z

M289 553

C291 552 293 550 293 550

C293 547 289 537 288 537

C287 537 274 560 274 561

C274 562 282 558 289 553

Z

M376 561

C371 552 362 537 361 538

C360 538 357 546 357 549

C357 551 359 552 366 556

C374 562 377 563 376 561

Z

M394 545

C398 537 402 531 402 530

C402 530 400 527 399 523

C388 500 384 469 389 442

C391 430 396 415 400 408

C401 406 402 403 402 403

C402 402 385 373 384 372

C384 371 379 378 374 387

L365 403

L368 407

C371 414 376 427 378 438

C381 453 381 480 378 495

C376 506 371 519 368 526

L365 530

L374 546

C381 558 384 562 385 561

C385 560 389 553 394 545

Z

M407 554

C409 552 411 551 411 550

C411 547 407 537 406 537

C405 538 392 561 392 562

C392 562 395 561 398 559

C401 557 405 555 407 554

Z

M494 562

C494 561 481 539 480 538

C479 537 478 539 475 547

L474 551

L483 556

C492 562 494 562 494 562

Z

M511 548

C515 540 519 533 519 532

C520 531 519 528 516 521

C502 491 501 445 515 416

C517 411 519 406 519 405

C520 403 519 401 511 387

C507 379 502 372 502 372

C501 372 497 379 492 388

L483 403

L486 408

C490 416 495 429 497 440

C499 451 499 480 497 491

C495 501 491 516 487 523

C485 526 484 529 484 530

C484 531 501 562 502 562

C502 562 506 556 511 548

Z

M521 556

L530 551

L529 547

C526 539 525 537 524 538

C523 539 510 561 510 562

C510 562 510 562 521 556

Z

M57 515

L62 506

L59 497

C54 485 53 477 53 462

C54 449 55 443 60 433

L62 427

L57 419

C55 414 52 410 52 410

C52 410 50 413 48 418

C36 448 36 484 48 515

C50 519 51 523 52 523

C52 523 55 519 57 515

Z

M133 504

C139 481 140 455 134 433

C131 423 126 410 125 410

C125 411 122 415 120 419

L115 427

L117 433

C122 442 124 452 124 466

C124 480 123 489 118 499

L115 506

L119 512

C121 516 123 520 124 521

L125 524

L128 517

C130 514 132 508 133 504

Z

M175 514

L180 506

L178 500

C173 490 172 484 171 470

C171 454 172 445 177 434

L180 427

L175 419

C173 414 170 410 170 410

C169 410 163 425 161 433

C156 454 156 479 161 500

C163 508 169 523 170 523

C170 523 173 519 175 514

Z

M250 509

C254 495 255 487 255 467

C255 452 255 446 254 439

C252 430 248 419 245 414

L243 410

L239 417

C233 428 233 427 236 434

C241 444 242 452 242 467

C242 481 240 490 236 500

L233 506

L238 515

L243 523

L245 519

C246 517 248 513 250 509

Z

M293 515

L298 506

L295 497

C290 486 289 476 289 461

C290 449 291 443 296 433

L298 427

L293 419

C291 414 288 410 288 410

C287 410 282 424 279 432

C274 455 274 478 279 500

C281 508 287 523 288 523

C288 523 291 519 293 515

Z

M369 503

C373 490 374 479 374 461

C373 443 370 428 365 417

L361 410

L356 418

L351 427

L354 432

C358 442 360 451 360 466

C360 481 359 489 354 499

C353 502 352 505 352 506

C352 506 354 511 357 515

L361 523

L364 517

C366 514 368 508 369 503

Z

M412 513

L417 506

L413 499

C408 488 407 477 407 463

C408 450 410 442 414 433

L416 428

L414 423

C412 420 410 416 409 414

L406 410

L403 416

C399 426 395 439 394 454

C392 475 395 500 403 517

C405 522 406 523 407 522

C407 521 410 517 412 513

Z

M484 514

C490 499 491 490 491 467

C492 444 490 437 485 422

C480 408 480 408 474 419

L469 427

L472 433

C477 444 478 451 478 467

C478 482 477 491 472 501

L469 506

L474 514

C477 519 480 523 480 522

C481 522 482 518 484 514

Z

M530 514

L535 506

L532 500

C527 489 526 482 526 467

C526 451 527 444 532 433

L535 427

L530 419

C524 409 524 409 520 419

C509 447 509 480 518 509

C521 517 524 523 525 523

C525 522 527 518 530 514

Z

M74 485

C78 479 81 473 81 473

C80 473 63 483 62 484

C61 485 64 494 66 497

C66 499 67 498 74 485

Z

M114 492

C115 488 116 485 116 484

C115 483 97 473 96 473

C96 474 110 498 111 498

C112 498 113 495 114 492

Z

M192 485

C196 479 199 473 199 473

C198 473 181 483 180 484

C179 485 182 494 184 497

C184 499 184 499 192 485

Z

M231 494

C235 485 235 484 225 478

C220 475 215 473 215 473

C214 473 217 479 221 485

C225 492 229 498 229 498

C229 498 230 496 231 494

Z

M310 485

C314 479 317 473 317 473

C316 473 312 475 307 479

L297 484

L299 489

C301 496 302 498 303 497

C303 497 307 491 310 485

Z

M350 492

C351 489 352 486 352 485

C352 484 349 482 343 478

C337 475 333 473 333 473

C332 473 346 498 347 498

C348 498 349 496 350 492

Z

M428 485

C432 479 435 474 435 473

C435 473 430 476 425 479

L415 484

L416 488

C419 496 420 498 421 497

C421 497 425 491 428 485

Z

M470 487

C470 484 470 483 461 478

C456 475 451 473 451 473

C451 474 462 495 464 497

C465 498 466 497 467 494

C468 492 469 488 470 487

Z

M547 485

C550 479 553 474 553 473

C553 473 548 475 543 478

C537 482 534 484 534 485

C534 486 535 489 536 493

C539 499 538 500 547 485

Z

M585 496

C585 495 586 492 587 489

L589 484

L579 479

C574 476 569 473 569 473

C569 474 569 475 570 476

C571 477 574 483 577 488

C581 494 583 498 583 498

C584 498 584 497 585 496

Z

M66 470

C62 470 60 470 59 470

C59 471 59 472 60 474

L60 477

L66 474

L72 471

L66 470

Z

M118 473

C118 470 118 470 112 470

C108 470 106 470 106 471

C108 472 117 477 117 476

C118 476 118 475 118 473

Z

M184 470

C180 470 178 470 177 470

C177 471 177 472 177 474

L178 477

L184 474

L190 471

L184 470

Z

M236 474

L236 470

L230 470

C226 470 224 470 224 471

C225 472 234 477 235 477

C236 477 236 475 236 474

Z

M302 470

C298 470 296 470 295 470

C295 471 295 472 296 474

L296 477

L302 474

L308 471

L302 470

Z

M354 474

L354 470

L348 470

L342 470

L345 472

C347 473 349 475 351 476

C354 478 354 477 354 474

Z

M423 472

L427 470

L420 470

L413 470

L414 473

L414 477

L417 475

C419 475 422 473 423 472

Z

M472 474

L472 470

L466 470

L460 470

L463 472

C465 473 467 475 469 476

C472 478 472 477 472 474

Z

M541 472

L545 470

L538 470

L532 470

L532 474

L532 477

L535 475

C537 475 540 473 541 472

Z

M67 460

C61 456 60 456 60 458

C59 463 59 463 66 463

L73 463

L67 460

Z

M118 460

C118 456 117 456 112 459

C105 463 105 463 112 463

C118 463 118 463 118 460

Z

M188 462

C188 462 185 460 183 459

L178 456

L178 458

C176 463 177 463 183 463

C187 463 189 463 188 462

Z

M236 460

C236 458 236 456 235 456

C235 456 232 458 229 460

L224 463

L230 463

L236 463

L236 460

Z

M303 460

C297 456 296 456 296 458

C295 463 295 463 302 463

L309 463

L303 460

Z

M354 460

C354 458 354 456 354 456

C353 456 343 462 342 463

C342 463 344 463 348 463

L354 463

L354 460

Z

M423 461

C422 460 419 458 417 458

L414 456

L414 460

L413 463

L420 463

L427 463

L423 461

Z

M472 460

C472 458 472 456 472 456

C471 456 468 458 465 459

L460 463

L466 463

L472 463

L472 460

Z

M539 459

C536 458 533 456 532 456

C532 456 532 458 532 460

L532 463

L538 463

L545 463

L539 459

Z

M81 459

C80 459 77 453 74 447

C70 440 66 435 66 436

C65 437 61 448 62 449

C63 450 79 460 80 460

C81 460 81 460 81 459

Z

M107 454

C112 451 116 449 116 448

C116 446 112 435 111 435

C111 435 107 441 103 448

C99 454 96 460 97 460

C97 460 101 458 107 454

Z

M198 458

C197 457 194 451 191 445

C187 440 184 435 184 435

C183 435 179 448 180 449

C181 450 197 460 198 460

C199 460 199 459 198 458

Z

M225 455

C233 450 233 449 233 446

C233 443 230 435 229 435

C229 435 225 441 221 448

C217 454 214 460 215 460

C215 460 220 458 225 455

Z

M317 459

C316 459 313 453 310 447

C306 440 302 435 302 436

C301 437 297 448 298 449

C299 450 315 460 316 460

C317 460 317 460 317 459

Z

M348 451

C350 450 352 448 352 448

C352 445 348 435 347 435

C347 435 334 457 333 459

C333 460 340 456 348 451

Z

M432 454

C424 440 421 435 420 435

C419 436 416 444 416 447

C416 449 418 450 425 454

C429 457 434 460 434 460

C435 460 434 457 432 454

Z

M466 452

C469 450 470 449 470 448

C470 445 467 436 466 436

C465 436 451 457 451 459

C451 460 454 459 457 457

C460 455 464 453 466 452

Z

M546 448

C543 442 539 436 539 436

C538 435 537 437 534 445

L533 449

L543 454

C548 457 553 460 553 460

C553 459 550 454 546 448

Z

M580 454

L589 449

L587 444

C585 437 584 435 583 436

C582 437 569 459 569 460

C569 460 570 460 580 454

Z

M98 443

L107 428

L103 419

C96 403 92 385 92 364

C92 343 96 325 103 309

L107 300

L99 285

C94 277 89 270 89 270

C89 269 84 276 79 285

L70 300

L73 306

C77 314 81 325 83 336

C86 350 86 376 84 389

C81 401 77 413 73 421

L70 428

L79 443

C84 452 88 459 89 459

C89 459 93 452 98 443

Z

M217 443

L225 428

L221 419

C213 402 210 386 210 364

C210 342 214 324 222 307

L225 300

L217 286

C212 278 208 271 207 270

C206 269 204 272 197 285

L188 301

L191 306

C199 321 203 341 203 364

C203 387 199 405 191 422

L188 428

L197 443

C202 452 207 459 207 458

C207 458 212 451 217 443

Z

M334 443

L343 428

L339 419

C332 403 328 385 328 364

C328 343 332 325 339 309

L343 300

L334 285

C329 276 325 269 325 269

C324 269 320 276 315 285

L306 300

L309 307

C318 323 321 341 321 364

C321 387 318 405 309 421

L306 428

L315 443

C320 452 325 459 325 459

C325 459 329 452 334 443

Z

M452 443

L461 428

L458 420

C442 385 442 339 459 306

L461 300

L452 285

C448 276 443 269 443 269

C443 269 438 276 433 285

L424 300

L429 309

C444 342 444 390 428 421

L424 428

L433 443

C438 452 443 459 443 459

C443 459 447 452 452 443

Z

M571 443

L580 428

L578 424

C575 419 570 406 567 395

C565 385 565 381 565 365

C564 341 567 326 576 308

L579 300

L570 285

C566 276 561 269 561 269

C560 269 543 299 543 300

C543 301 545 305 546 309

C561 340 562 385 547 418

C545 422 544 426 544 428

C544 429 560 459 561 459

C561 459 566 452 571 443

Z

M120 401

C113 384 113 381 113 364

C113 347 113 344 120 328

C121 325 121 324 116 316

C114 312 111 308 111 308

C110 308 104 323 102 332

C95 359 98 396 109 417

L111 421

L116 412

C121 404 121 403 120 401

Z

M309 405

C314 391 315 384 314 363

C314 347 314 342 312 334

C310 324 304 308 303 309

C302 309 299 312 297 317

L292 325

L295 330

C299 340 301 349 301 364

C301 379 299 388 295 398

L292 403

L297 412

L302 421

L304 418

C305 416 307 410 309 405

Z

M356 401

C349 385 349 381 349 364

C349 347 349 344 356 327

C357 325 357 324 353 316

C350 312 347 308 347 308

C346 308 341 320 339 327

C337 333 335 346 334 357

C333 376 338 403 345 418

L347 421

L352 412

C357 404 357 403 356 401

Z

M427 405

C432 390 433 379 433 359

C432 341 430 331 425 317

C421 307 421 307 415 316

L410 325

L413 330

C419 342 421 361 419 376

C418 384 414 397 411 401

C410 403 410 404 415 412

L420 421

L422 418

C423 416 425 410 427 405

Z

M471 411

L476 403

L473 397

C468 387 466 379 467 364

C467 348 469 338 473 329

L476 325

L471 317

C468 312 465 308 465 308

C464 308 458 323 456 332

C450 360 452 392 463 416

C464 420 465 421 466 420

C466 419 469 415 471 411

Z

M545 405

C553 382 553 350 546 326

C545 320 539 308 539 308

C538 308 536 312 533 316

C529 324 529 324 530 327

C536 343 539 354 538 369

C537 381 535 389 531 397

L528 403

L533 412

L539 421

L541 416

C542 414 544 409 545 405

Z

M70 414

C80 392 82 356 75 329

C72 320 68 309 67 309

C66 309 63 312 61 317

L56 325

L59 330

C63 340 65 349 65 364

C65 379 63 388 59 398

L56 403

L61 411

C63 416 66 420 66 420

C67 420 68 417 70 414

Z

M187 415

C198 391 200 357 193 330

C190 320 186 309 184 308

C184 308 181 312 179 317

L174 325

L177 330

C181 339 183 349 183 364

C183 378 182 386 177 397

L174 403

L179 412

C181 416 184 420 184 420

C185 420 186 418 187 415

Z

M234 412

C237 407 239 403 239 403

C239 403 238 399 236 396

C228 378 228 350 236 332

C238 328 239 325 239 324

C238 321 229 308 229 308

C228 308 222 323 220 331

C215 354 215 374 220 397

C222 406 228 420 229 420

C229 420 232 416 234 412

Z

M15 383

C19 376 22 371 22 370

C22 370 3 381 2 382

C2 382 5 392 6 394

C7 395 7 396 7 396

C8 396 11 390 15 383

Z

M57 383

C57 382 55 380 51 378

C48 376 44 374 41 372

C39 371 37 370 37 371

C43 380 50 392 51 394

L52 396

L55 390

C56 387 57 384 57 383

Z

M133 384

C137 377 140 371 140 371

C140 370 136 373 130 376

C122 381 120 382 121 384

C122 387 125 396 125 396

C126 396 129 390 133 384

Z

M173 390

C174 386 175 383 175 382

C175 382 172 379 167 377

C163 375 158 372 157 371

C155 370 155 370 158 376

C160 380 164 386 166 389

C168 393 170 396 170 396

C170 396 172 393 173 390

Z

M251 383

C255 377 258 371 258 371

C258 370 240 380 238 381

C238 382 240 389 242 393

C243 395 243 396 243 396

C244 396 247 390 251 383

Z

M291 390

C292 386 293 383 293 382

C293 382 290 380 287 378

C284 376 279 374 277 372

L273 370

L275 373

C276 375 279 380 281 384

C286 393 288 396 288 396

C289 396 290 393 291 390

Z

M369 384

C373 377 376 371 376 371

C376 370 372 373 366 376

C358 381 356 382 357 384

C358 387 361 396 361 396

C362 396 365 390 369 384

Z

M411 384

C411 381 411 381 405 378

C402 376 397 374 395 372

L391 370

L392 372

C394 375 396 379 402 389

L406 396

L408 392

C409 390 410 386 411 384

Z

M487 383

C491 377 494 371 493 371

C493 371 489 373 484 376

C478 380 475 382 475 383

C475 386 479 396 480 395

C480 395 483 390 487 383

Z

M529 385

C529 381 529 381 520 376

C515 373 511 371 510 371

C510 371 513 377 517 384

L524 396

L526 392

C527 390 528 386 529 385

Z

M59 371

L59 367

L52 367

L46 367

L49 369

C51 370 53 372 55 373

C58 375 59 374 59 371

Z

M126 371

L132 368

L126 367

C122 367 119 367 119 368

C118 369 119 374 120 374

C120 374 123 373 126 371

Z

M177 371

L177 367

L170 367

C163 367 163 367 170 371

C176 375 177 375 177 371

Z

M244 371

L250 368

L244 367

C240 367 237 367 237 368

C236 369 237 374 238 374

C238 374 241 373 244 371

Z

M295 371

L295 367

L288 367

L282 367

L285 369

C287 370 289 372 291 373

C294 375 295 374 295 371

Z

M362 371

L368 368

L362 367

C355 367 354 367 355 371

C355 373 355 374 356 374

C356 374 359 373 362 371

Z

M413 371

L413 367

L407 367

C400 367 400 368 407 372

C412 375 413 375 413 371

Z

M480 371

C483 369 485 368 485 367

C485 367 482 367 479 367

L473 367

L473 371

C473 372 473 374 474 374

C474 374 477 373 480 371

Z

M531 371

L531 367

L525 367

C522 367 519 367 519 367

C519 368 529 374 530 374

C531 374 531 372 531 371

Z

M59 358

C59 356 59 354 58 354

C58 354 54 356 51 357

L46 361

L52 361

L59 361

L59 358

Z

M131 361

C131 360 120 354 120 354

C119 355 118 360 119 360

C119 361 131 361 131 361

Z

M177 358

C177 356 177 354 176 354

C175 354 165 360 164 361

C164 361 167 361 170 361

L177 361

L177 358

Z

M249 361

C249 360 238 354 238 354

C237 354 236 359 237 360

C237 361 249 361 249 361

Z

M295 358

C295 356 295 354 294 354

C294 354 290 356 287 357

L282 361

L288 361

L295 361

L295 358

Z

M367 361

C367 360 356 354 356 354

C355 355 354 360 355 360

C355 361 367 361 367 361

Z

M413 358

C413 356 413 354 412 354

C411 354 401 360 401 361

C401 361 404 361 407 361

L413 361

L413 358

Z

M485 361

C485 360 475 354 474 354

C473 354 473 356 473 358

L473 361

L479 361

C482 361 485 361 485 361

Z

M531 358

C531 356 531 354 530 354

C529 354 519 360 519 361

C519 361 522 361 525 361

L531 361

L531 358

Z

M15 345

C11 338 7 332 7 333

C6 333 2 346 2 346

C3 347 22 358 22 358

C22 357 19 352 15 345

Z

M48 352

C53 349 57 346 57 346

C57 344 53 332 52 332

C52 332 50 336 46 342

C43 347 40 353 39 355

C38 357 37 358 38 358

C38 358 43 355 48 352

Z

M133 345

C129 338 125 332 125 333

C124 334 120 346 121 347

C121 347 126 349 131 352

C135 355 140 358 140 358

C140 357 137 352 133 345

Z

M170 350

C173 348 175 346 175 345

C175 344 174 341 173 338

L170 332

L169 334

C168 336 161 348 155 357

C155 358 158 357 170 350

Z

M251 345

C247 338 243 332 243 333

C242 333 238 346 238 347

C240 348 258 358 258 358

C258 357 255 352 251 345

Z

M284 352

C289 349 293 346 293 346

C293 344 289 332 288 332

C288 332 286 336 282 342

C279 347 276 353 275 355

C274 357 273 358 274 358

C274 358 279 355 284 352

Z

M369 345

C365 338 361 332 361 333

C360 334 356 346 357 347

C357 347 362 349 367 352

C371 355 376 358 376 357

C376 357 373 352 369 345

Z

M402 352

C408 348 411 346 411 345

C411 342 407 332 406 333

C404 334 391 358 392 358

C392 358 397 355 402 352

Z

M487 345

C479 331 479 331 476 341

L474 346

L478 348

C489 355 494 358 494 357

C494 357 491 351 487 345

Z

M528 344

C528 342 527 339 526 336

L524 332

L517 344

C513 351 510 357 510 357

C510 358 514 355 519 352

C528 347 528 347 528 344

Z

M40 341

L48 326

L44 317

C36 300 33 284 33 262

C33 240 37 222 45 205

L48 198

L40 184

C35 176 31 169 30 168

C29 167 28 170 20 183

L11 198

L15 206

C23 223 26 240 26 262

C26 284 23 301 15 318

L11 326

L20 341

C25 350 30 357 30 356

C30 356 35 349 40 341

Z

M158 340

L166 326

L163 319

C155 302 151 284 151 261

C151 240 155 222 163 205

L166 198

L157 183

C152 175 148 168 148 168

C147 168 143 174 138 183

L129 199

L133 206

C146 233 148 273 138 305

C136 310 134 317 132 320

L129 326

L134 334

C137 339 141 346 143 350

C146 356 147 357 148 356

C149 355 153 348 158 340

Z

M275 341

L284 326

L280 317

C272 299 270 287 270 262

C270 249 270 239 271 236

C273 224 276 215 280 207

L284 198

L276 184

C271 176 267 169 267 168

C266 167 263 170 256 183

L247 198

L250 204

C258 221 262 238 262 261

C262 284 259 303 250 320

L247 326

L256 341

C261 350 265 357 266 357

C266 357 270 350 275 341

Z

M393 341

L402 326

L399 318

C391 302 388 289 387 268

C386 244 390 225 398 207

L402 198

L393 183

C388 174 384 167 384 167

C384 167 379 174 374 183

L365 199

L368 205

C385 238 385 287 368 320

L365 326

L374 341

C379 350 384 357 384 357

C384 357 388 350 393 341

Z

M511 341

L520 326

L517 318

C501 284 501 240 517 206

L520 198

L511 183

C506 174 502 167 502 167

C502 167 497 174 492 183

L483 199

L485 202

C486 204 489 209 491 214

C503 246 501 289 487 318

L483 326

L492 341

C497 350 502 357 502 357

C502 357 507 350 511 341

Z

M368 303

C372 291 374 278 374 262

C374 242 370 221 363 208

L361 205

L356 214

C351 222 351 223 352 225

C355 230 359 242 360 251

C362 266 359 284 353 296

L351 301

L356 310

L361 319

L363 316

C364 314 366 308 368 303

Z

M416 300

C415 299 414 296 413 292

C411 289 409 283 408 278

C406 263 407 245 413 232

C414 228 415 225 416 224

C416 222 407 206 406 206

C406 206 404 210 402 214

C393 237 391 264 396 289

C398 299 402 311 405 316

L406 319

L411 310

C414 306 416 301 416 300

Z

M486 303

C490 290 492 279 492 262

C492 242 489 226 482 211

L480 205

L474 214

L469 223

L472 229

C481 248 481 277 472 296

L469 301

L474 310

L480 319

L481 316

C482 314 484 308 486 303

Z

M532 295

C527 285 526 277 526 262

C526 247 527 239 532 229

L535 223

L530 214

C527 209 524 205 524 206

C522 208 518 220 516 228

C508 256 511 289 522 314

L524 319

L529 310

L535 301

L532 295

Z

M57 310

C60 305 62 301 62 301

C62 301 61 297 59 294

C51 276 51 248 59 230

C61 227 62 223 62 223

C62 222 53 206 52 206

C51 206 45 221 43 229

C38 252 38 272 43 295

C45 304 51 318 52 318

C52 318 55 314 57 310

Z

M128 312

C139 287 141 250 132 223

C130 216 126 206 125 206

C125 206 122 210 120 214

L115 223

L117 227

C127 246 127 278 117 297

L115 301

L120 310

C122 314 125 318 125 318

C125 318 127 315 128 312

Z

M175 310

C178 306 180 302 180 301

C180 301 179 297 177 294

C172 283 171 275 171 259

C172 244 173 238 178 228

L180 223

L175 214

C173 210 170 206 170 206

C167 206 160 231 158 245

C156 262 157 280 162 297

C164 306 169 318 170 318

C170 318 173 314 175 310

Z

M247 310

C257 286 259 252 251 224

C249 216 244 206 243 206

C243 206 240 210 238 215

L233 223

L236 228

C240 237 242 247 242 262

C242 276 241 284 236 295

L233 301

L238 310

C240 314 243 318 243 318

C244 317 246 314 247 310

Z

M293 310

C296 306 298 302 298 301

C298 301 297 297 295 294

C287 276 287 248 295 230

C297 227 298 223 298 223

C298 222 289 206 288 206

C287 206 282 218 279 228

C273 254 274 287 284 311

C286 315 288 318 288 318

C288 318 291 314 293 310

Z

M74 281

C78 275 81 269 81 269

C81 268 77 271 71 274

C62 279 61 280 62 282

C62 285 66 294 67 294

C67 294 70 288 74 281

Z

M115 285

C115 282 116 280 116 280

C116 279 113 278 109 275

C105 273 101 271 99 270

L96 268

L99 274

C101 278 105 284 107 287

C110 293 111 294 112 292

C113 291 114 288 115 285

Z

M192 281

C196 274 199 269 199 268

C199 268 180 279 179 279

C179 280 181 287 183 291

C184 293 184 294 184 294

C185 294 188 288 192 281

Z

M234 281

C234 280 232 278 228 276

C225 274 221 272 218 270

L214 268

L215 270

C217 273 226 289 228 292

L229 294

L232 288

C233 285 234 282 234 281

Z

M310 281

C314 275 317 269 317 269

C317 268 313 271 307 274

C298 279 297 280 298 282

C298 285 302 294 303 294

C303 294 306 288 310 281

Z

M350 288

C351 284 352 281 352 280

C352 280 349 278 346 276

C343 274 338 272 336 270

L332 268

L334 271

C335 273 338 279 341 284

C345 290 347 294 347 294

C348 294 349 291 350 288

Z

M428 282

C432 275 435 269 435 269

C435 268 418 277 416 279

C415 280 416 281 417 285

C419 292 420 294 420 294

C421 294 424 288 428 282

Z

M470 283

C470 279 470 279 462 275

C458 272 453 270 452 269

C450 268 452 272 465 293

C466 295 469 287 470 283

Z

M546 281

C550 275 553 269 552 269

C552 269 548 271 543 274

C537 278 534 280 534 281

C534 284 538 294 539 293

C539 293 542 288 546 281

Z

M587 285

L589 280

L587 279

C580 274 569 268 569 269

C569 269 572 275 576 282

C584 295 584 295 587 285

Z

M67 269

L73 266

L66 265

C63 265 60 265 59 265

C59 266 60 272 61 272

C61 272 64 271 67 269

Z

M118 269

L118 265

L111 265

C104 265 104 265 111 269

C117 273 118 273 118 269

Z

M185 269

C188 267 190 266 190 265

C190 265 187 265 184 265

C177 265 176 266 178 270

C178 272 178 273 185 269

Z

M236 269

L236 265

L229 265

L223 265

L226 267

C228 268 230 270 232 271

C235 273 236 272 236 269

Z

M303 269

L309 266

L302 265

C299 265 296 265 295 265

C295 266 296 272 297 272

C297 272 300 271 303 269

Z

M354 269

L354 265

L348 265

C341 265 341 266 348 270

C353 273 354 273 354 269

Z

M421 269

L427 266

L421 265

C414 265 413 265 414 269

C414 271 414 272 415 272

C415 272 418 271 421 269

Z

M472 269

L472 265

L466 265

C463 265 460 265 460 265

C460 266 470 272 471 272

C472 272 472 270 472 269

Z

M539 269

C542 267 544 266 544 265

C544 265 541 265 538 265

L532 265

L532 269

C532 270 532 272 533 272

C533 272 536 271 539 269

Z

M72 259

C72 258 62 252 61 252

C60 252 59 257 60 258

C60 259 72 259 72 259

Z

M118 256

C118 251 117 251 110 256

L105 259

L111 259

L118 259

L118 256

Z

M190 259

C190 258 187 257 184 255

C178 252 177 252 177 257

C177 259 177 259 184 259

C187 259 190 259 190 259

Z

M236 256

C236 254 236 252 235 252

C234 252 224 258 223 259

C223 259 226 259 229 259

L236 259

L236 256

Z

M308 259

C308 258 298 252 297 252

C296 252 295 257 296 258

C296 259 308 259 308 259

Z

M354 256

C354 254 354 252 353 252

C353 252 349 254 346 255

L341 259

L347 259

L354 259

L354 256

Z

M426 259

C426 258 415 252 415 252

C414 253 414 257 414 258

C414 259 426 259 426 259

Z

M472 256

C472 254 472 252 471 252

C470 252 460 258 460 259

C460 259 463 259 466 259

L472 259

L472 256

Z

M544 259

C544 258 534 252 533 252

C532 252 532 254 532 256

L532 259

L538 259

C541 259 544 259 544 259

Z

M74 243

C70 236 66 230 66 231

C65 231 61 244 62 245

C62 245 67 247 72 250

C76 253 81 256 81 256

C81 255 78 250 74 243

Z

M110 248

C116 245 116 244 115 242

C115 240 114 236 113 234

L111 230

L106 238

C104 242 100 248 99 251

L96 256

L100 254

C102 253 106 250 110 248

Z

M192 243

C188 236 184 230 184 231

C183 231 179 244 179 244

C180 245 199 256 199 256

C199 255 196 250 192 243

Z

M229 248

C232 246 234 244 234 243

C234 242 233 239 232 236

L229 230

L228 232

C227 233 224 238 222 242

C220 246 217 251 216 253

L214 256

L219 254

C221 252 226 249 229 248

Z

M310 243

C306 236 302 230 302 231

C301 232 297 244 298 245

C298 245 303 247 308 250

C312 253 317 256 317 256

C317 255 314 250 310 243

Z

M343 250

C352 245 352 245 352 242

C351 236 348 230 347 231

C347 231 344 236 341 241

C338 245 335 251 334 253

C333 255 332 256 333 256

C333 256 338 253 343 250

Z

M428 243

C421 230 421 230 419 233

C418 234 417 237 417 240

L415 244

L419 246

C430 253 435 256 435 255

C435 255 432 249 428 243

Z

M461 250

C467 246 470 244 470 243

C470 240 466 230 465 231

C463 232 450 256 451 256

C451 256 456 253 461 250

Z

M546 242

L539 230

L537 234

C536 236 535 240 534 241

C534 245 534 245 543 250

C548 253 553 256 553 255

C553 255 550 249 546 242

Z

M588 245

C589 244 588 243 587 238

C584 229 584 229 576 242

C572 249 569 255 569 255

C569 256 585 247 588 245

Z

M98 239

C103 231 107 224 107 223

C107 223 106 220 105 218

C101 212 97 198 94 188

C92 176 92 143 94 131

C97 121 100 111 104 102

L107 95

L98 80

C94 72 90 65 89 65

C89 64 84 71 79 80

L70 96

L74 103

C82 119 85 137 85 159

C85 182 82 199 74 215

L70 223

L79 239

C84 248 89 255 89 254

C90 254 94 247 98 239

Z

M216 238

L225 223

L222 217

C214 202 211 187 210 165

C209 140 213 122 221 104

L225 96

L216 81

C212 72 207 65 207 65

C207 64 202 71 197 80

L188 96

L191 103

C200 119 203 137 203 160

C203 182 200 200 191 216

L188 223

L197 239

C202 248 207 255 207 254

C207 254 212 247 216 238

Z

M334 239

C339 231 343 224 343 223

C343 223 342 220 341 218

C337 212 333 198 330 188

C328 176 328 143 330 131

C333 121 337 107 341 101

C342 99 343 96 343 96

C343 95 326 66 325 65

C325 64 320 71 315 80

L306 96

L310 103

C326 134 326 182 310 215

L306 223

L315 239

C320 248 325 255 325 254

C326 254 330 247 334 239

Z

M453 238

C457 231 461 224 461 223

C461 223 460 220 458 216

C451 201 447 186 446 165

C446 141 449 120 458 104

C459 100 461 96 461 96

C461 95 459 92 448 73

L443 64

L434 80

L424 96

L428 104

C443 135 444 180 429 212

C427 217 426 221 425 222

C425 225 442 255 444 254

C444 253 448 246 453 238

Z

M570 240

C575 231 579 224 579 223

C579 222 578 219 576 216

C561 185 560 137 575 105

C577 101 579 96 579 96

C579 94 562 65 561 65

C560 65 543 94 543 96

C543 97 544 100 546 103

C562 134 562 182 547 214

C544 221 543 224 544 225

C546 230 561 255 561 255

C561 255 565 248 570 240

Z

M73 200

C81 175 81 144 73 119

C71 114 69 108 68 106

L66 103

L61 111

L56 120

L59 126

C65 139 67 156 65 170

C64 179 60 192 57 196

C56 198 56 198 62 209

L66 216

L68 213

C69 211 71 205 73 200

Z

M116 208

C119 203 121 199 121 199

C121 198 120 195 119 193

C115 184 113 176 112 163

C112 149 113 139 118 127

L121 120

L116 112

C114 107 112 103 111 103

C111 102 105 117 102 126

C97 147 97 172 102 193

C105 202 110 216 111 216

C111 216 114 212 116 208

Z

M191 200

C200 174 199 138 189 113

C187 109 186 105 185 104

C184 103 183 105 179 112

L174 120

L176 125

C181 135 183 145 183 160

C183 174 181 183 176 193

L174 199

L178 205

C180 209 182 213 183 214

L184 216

L186 213

C187 211 189 205 191 200

Z

M234 207

L239 199

L237 193

C231 181 231 177 231 160

C231 142 231 138 237 126

L239 120

L234 112

C232 107 229 103 229 103

C228 103 222 119 220 127

C217 140 215 157 217 172

C217 179 219 188 220 192

C222 201 228 216 229 216

C229 216 232 212 234 207

Z

M309 200

C313 188 315 175 315 160

C315 152 314 142 313 137

C312 128 307 112 304 106

L302 103

L297 112

L292 120

L295 127

C300 137 301 145 301 160

C301 174 300 182 295 192

C292 199 292 198 298 209

L302 216

L304 213

C305 211 307 205 309 200

Z

M353 207

L358 199

L355 193

C350 183 348 175 349 159

C349 143 350 136 355 126

C356 124 357 121 357 120

C357 120 355 116 352 111

L347 103

L344 109

C336 126 333 151 335 171

C335 178 337 188 338 193

C341 202 346 216 347 216

C347 216 350 212 353 207

Z

M424 208

C435 183 436 148 428 121

C426 113 421 103 420 103

C420 104 418 108 415 112

L410 120

L413 125

C418 135 419 144 419 160

C419 175 418 184 413 194

L410 199

L415 207

C418 212 421 216 421 215

C421 215 423 212 424 208

Z

M471 207

L476 199

L473 193

C468 182 467 175 467 159

C467 144 468 136 473 125

L476 121

L471 113

C469 109 467 105 466 104

C465 102 462 108 459 119

C451 143 450 173 458 198

C460 205 465 216 466 216

C466 215 468 211 471 207

Z

M543 207

C554 178 554 141 543 112

C541 108 540 104 539 104

C539 103 536 107 533 112

L528 120

L531 126

C536 137 537 144 537 160

C537 175 536 182 531 193

L528 199

L533 207

C536 212 539 216 539 215

C539 215 541 211 543 207

Z

M15 178

C19 172 22 166 22 166

C21 166 17 168 12 171

C4 176 3 177 3 179

C3 183 7 191 8 191

C8 190 11 185 15 178

Z

M54 187

C58 178 58 177 48 171

C43 168 38 166 38 166

C37 166 40 172 44 178

C48 185 52 191 52 191

C53 191 54 189 54 187

Z

M130 184

C132 181 135 175 137 172

C141 165 142 165 128 173

L120 177

L122 182

C123 188 125 191 125 191

C126 191 128 188 130 184

Z

M173 185

C174 181 175 178 175 177

C174 176 157 166 156 166

C155 166 158 172 162 179

C166 185 170 191 170 191

C171 191 172 188 173 185

Z

M251 178

C255 172 258 166 258 166

C257 166 240 176 239 177

C238 178 241 187 243 190

C243 192 244 191 251 178

Z

M291 185

C292 182 293 179 293 178

C293 177 276 166 274 166

C273 166 276 172 280 178

C284 185 288 191 288 191

C289 191 290 188 291 185

Z

M369 178

C373 172 376 167 376 166

C376 166 371 169 366 172

L356 177

L358 182

C360 189 361 191 362 190

C362 190 366 184 369 178

Z

M409 185

C410 182 411 179 411 178

C411 177 408 175 402 171

C397 168 392 166 392 166

C392 167 405 191 406 191

C407 191 408 189 409 185

Z

M488 178

C491 172 494 167 494 166

C494 166 489 169 484 172

L474 177

L476 181

C478 190 479 191 480 190

C481 189 484 184 488 178

Z

M527 184

C528 181 529 178 529 178

C530 177 511 166 510 166

C510 167 518 181 523 189

C525 192 525 191 527 184

Z

M59 167

L59 163

L53 163

C49 163 47 163 47 164

C48 165 57 170 58 170

C59 170 59 168 59 167

Z

M125 163

C122 163 119 163 119 163

C118 163 118 165 119 167

L119 170

L125 167

L131 164

L125 163

Z

M177 167

L177 163

L171 163

C167 163 165 163 165 164

C166 165 175 170 176 170

C177 170 177 168 177 167

Z

M243 163

C239 163 237 163 236 163

C236 164 236 165 237 167

L237 170

L243 167

L249 164

L243 163

Z

M295 167

L295 163

L289 163

L283 163

L286 165

C288 166 290 168 292 169

C295 171 295 170 295 167

Z

M361 163

C358 163 355 163 355 163

C354 163 354 165 355 167

L355 170

L361 167

L367 164

L361 163

Z

M413 167

L413 163

L407 163

L401 163

L404 165

C406 166 408 168 410 169

C413 171 413 170 413 167

Z

M482 165

L486 163

L479 163

L473 163

L473 167

L473 170

L476 168

C478 168 481 166 482 165

Z

M531 167

L531 163

L525 163

L519 163

L524 166

C527 168 530 170 530 170

C531 170 531 168 531 167

Z

M59 153

C59 151 59 149 59 149

C58 149 48 155 47 156

C47 156 49 156 53 156

L59 156

L59 153

Z

M126 153

C122 151 119 149 119 149

C119 149 119 151 119 153

L118 156

L125 156

L132 156

L126 153

Z

M177 153

C177 151 177 149 176 149

C176 149 173 151 170 153

L165 156

L171 156

L177 156

L177 153

Z

M244 153

C238 150 237 149 237 151

C235 155 236 156 243 156

L250 156

L244 153

Z

M295 153

C295 151 295 149 295 149

C294 149 284 155 283 156

C283 156 285 156 289 156

L295 156

L295 153

Z

M362 153

C358 151 355 149 355 149

C355 149 355 151 355 153

L354 156

L361 156

L368 156

L362 153

Z

M413 153

C413 151 413 149 413 149

C412 149 409 151 406 152

L401 156

L407 156

L413 156

L413 153

Z

M482 154

C481 153 478 151 476 151

L473 149

L473 152

L473 156

L479 156

L486 156

L482 154

Z

M531 153

C531 151 531 149 531 149

C530 149 527 151 524 152

L519 156

L525 156

L531 156

L531 153

Z

M21 151

C20 150 17 144 14 138

C10 133 7 128 7 128

C6 128 2 141 3 142

C4 143 20 153 21 153

C22 153 22 152 21 151

Z

M47 148

C52 145 57 142 57 141

C57 139 53 128 52 128

C51 128 37 153 38 153

C38 153 43 151 47 148

Z

M140 152

C134 142 126 128 125 129

C124 130 120 141 121 142

C122 143 138 153 139 153

C140 153 140 153 140 152

Z

M166 148

C174 143 174 142 174 140

C174 136 171 128 170 128

C170 128 166 134 162 141

C158 147 155 153 156 153

C156 153 161 151 166 148

Z

M256 149

C254 146 251 141 248 136

C246 132 244 128 243 128

C243 128 239 136 239 139

C238 142 239 142 247 147

C252 150 257 153 257 153

C258 153 257 151 256 149

Z

M289 144

C291 143 293 141 293 141

C293 138 289 128 288 128

C287 128 274 151 274 152

C274 153 282 149 289 144

Z

M376 152

C371 143 362 128 361 129

C360 129 357 137 357 140

C357 142 359 143 366 147

C374 153 377 154 376 152

Z

M407 145

C409 143 411 142 411 141

C411 138 407 128 406 128

C405 129 392 152 392 153

C392 153 395 152 398 150

C401 148 405 146 407 145

Z

M494 153

C494 152 481 130 480 129

C479 128 478 130 475 138

L474 142

L483 147

C492 153 494 154 494 153

Z

M522 146

L530 142

L529 138

C526 130 525 128 524 129

C523 130 510 152 510 153

C510 153 512 152 522 146

Z

M57 106

L62 97

L59 88

C54 76 53 68 53 53

C54 40 55 34 60 24

L62 18

L57 10

C55 5 52 1 52 1

C52 1 50 4 48 9

C36 39 36 76 48 106

C50 110 52 114 52 114

C52 114 55 110 57 106

Z

M133 95

C139 72 140 46 134 24

C131 14 126 1 125 1

C125 2 122 6 120 10

L115 18

L118 24

C122 34 124 43 124 57

C124 71 123 80 118 90

L115 97

L119 103

C121 107 123 111 124 112

L125 115

L128 108

C130 105 132 99 133 95

Z

M175 105

L180 97

L178 91

C173 81 172 75 171 61

C171 45 172 36 177 25

L180 18

L175 10

C173 5 170 1 170 1

C169 1 163 16 161 24

C156 45 156 70 161 91

C163 99 169 114 170 114

C170 114 173 110 175 105

Z

M250 100

C254 86 255 78 255 58

C255 43 255 37 254 30

C252 21 248 10 245 5

L243 1

L239 8

C233 19 233 18 236 25

C241 35 242 43 242 58

C242 72 240 81 235 91

L233 97

L238 105

L243 114

L245 110

C246 108 248 104 250 100

Z

M293 106

C296 101 298 97 298 96

C298 96 297 93 295 90

C291 80 290 74 290 57

C289 40 290 36 296 24

L298 18

L293 10

C291 5 288 1 288 1

C287 1 282 15 279 23

C274 46 274 67 279 90

C281 98 287 114 288 114

C288 114 291 110 293 106

Z

M368 98

C373 83 374 72 374 53

C373 39 373 33 371 26

C368 15 363 1 361 2

C361 2 359 6 356 10

L351 18

L354 23

C358 33 360 42 360 57

C360 72 359 80 354 90

C353 93 352 96 352 97

C352 97 354 102 357 106

L361 114

L363 111

C364 109 366 103 368 98

Z

M412 104

L417 97

L414 91

C409 81 408 74 408 58

C408 41 409 35 414 24

L416 19

L414 14

C412 11 410 7 409 5

L406 1

L403 7

C399 17 395 30 394 45

C392 66 395 91 403 108

C405 113 406 114 407 113

C407 112 410 108 412 104

Z

M484 105

C490 90 491 81 491 58

C492 35 490 28 485 13

C480 -1 480 -1 474 10

L469 18

L472 24

C477 35 478 42 478 58

C478 73 477 82 472 92

L469 97

L474 105

C477 110 480 114 480 113

C481 113 482 109 484 105

Z

M530 105

L535 97

L532 91

C527 80 526 73 526 58

C526 42 527 35 532 24

L535 18

L530 10

C524 0 524 0 520 10

C509 38 509 71 518 100

C521 108 524 114 525 114

C525 113 527 109 530 105

Z

M74 76

C78 70 81 64 81 64

C80 64 63 74 62 75

C61 76 64 85 66 88

C66 90 67 89 74 76

Z

M114 83

C115 79 116 76 116 75

C115 74 97 64 97 64

C96 65 110 89 111 89

C112 89 113 86 114 83

Z

M192 76

C196 70 199 64 199 64

C198 64 181 74 180 75

C179 76 182 85 184 88

C184 90 184 90 192 76

Z

M231 85

C235 76 235 75 225 69

C220 66 215 64 215 64

C214 64 217 70 221 76

C225 83 229 89 229 89

C229 89 230 87 231 85

Z

M310 76

C314 70 317 64 317 64

C316 64 315 64 314 65

C313 66 308 69 304 71

L297 75

L299 80

C301 87 302 89 303 88

C303 88 307 82 310 76

Z

M350 83

C351 80 352 77 352 76

C352 75 349 73 343 69

C338 66 333 64 333 65

C333 65 346 89 347 89

C348 89 349 87 350 83

Z

M428 76

C432 70 435 65 435 64

C435 64 430 67 425 70

L415 75

L416 79

C419 87 420 89 421 88

C421 88 425 82 428 76

Z

M470 78

C470 75 470 74 461 69

C456 66 451 64 451 64

C451 65 462 86 464 88

C465 89 466 88 467 85

C468 83 469 79 470 78

Z

M547 76

C550 70 553 65 553 64

C553 64 548 66 543 69

C537 73 534 75 534 76

C534 77 535 80 536 84

C539 90 538 91 547 76

Z

M585 86

C586 85 587 82 588 79

L589 75

L579 70

C574 67 569 64 569 64

C569 65 570 67 572 70

C573 72 577 78 579 82

C581 86 583 89 584 89

C584 89 585 88 585 86

Z

M66 61

C62 61 60 61 59 61

C59 62 59 63 60 65

L60 68

L66 65

L72 62

L66 61

Z

M118 64

C118 61 118 61 112 61

C108 61 106 61 106 62

C108 63 117 68 117 67

C118 67 118 66 118 64

Z

M184 61

C180 61 178 61 177 61

C177 62 177 63 177 65

L178 68

L184 65

L190 62

L184 61

Z

M236 65

L236 61

L230 61

C226 61 224 61 224 62

C225 63 234 68 235 68

C236 68 236 66 236 65

Z

M302 61

C298 61 296 61 295 61

C295 62 295 63 296 65

L296 68

L302 65

L308 62

L302 61

Z

M354 65

L354 61

L348 61

L342 61

L345 63

C347 64 349 66 351 67

C354 69 354 68 354 65

Z

M423 63

L427 61

L420 61

L413 61

L414 64

L414 68

L417 66

C419 66 422 64 423 63

Z

M472 65

L472 61

L466 61

L460 61

L463 63

C465 64 467 66 469 67

C472 69 472 68 472 65

Z

M541 63

L545 61

L538 61

L532 61

L532 65

L532 68

L535 66

C537 66 540 64 541 63

Z

M67 51

C61 47 60 47 60 49

C59 54 59 54 66 54

L73 54

L67 51

Z

M118 51

C118 47 117 47 112 50

C105 54 105 54 112 54

C118 54 118 54 118 51

Z

M188 53

C188 53 185 51 183 50

L178 47

L178 49

C176 54 177 54 183 54

C187 54 189 54 188 53

Z

M236 51

C236 49 236 47 235 47

C235 47 232 49 229 51

L224 54

L230 54

L236 54

L236 51

Z

M303 51

C297 47 296 47 296 49

C295 54 295 54 302 54

L309 54

L303 51

Z

M354 51

C354 49 354 47 354 47

C353 47 343 53 342 54

C342 54 344 54 348 54

L354 54

L354 51

Z

M423 52

C422 51 419 49 417 49

L414 47

L414 51

L413 54

L420 54

L427 54

L423 52

Z

M472 51

C472 49 472 47 472 47

C471 47 468 49 465 50

L460 54

L466 54

L472 54

L472 51

Z

M539 50

C536 49 533 47 532 47

C532 47 532 49 532 51

L532 54

L538 54

L545 54

L539 50

Z

M81 50

C80 50 77 44 74 38

C70 31 66 26 66 27

C65 28 61 39 62 40

C63 41 79 51 80 51

C81 51 81 51 81 50

Z

M107 45

C112 42 116 40 116 39

C116 37 112 26 111 26

C111 26 107 32 103 39

C99 45 96 51 97 51

C97 51 101 49 107 45

Z

M197 47

C196 45 193 40 190 35

C187 30 184 26 184 26

C183 26 179 39 180 40

C181 41 197 51 198 51

C199 51 198 49 197 47

Z

M225 46

C233 41 233 40 233 37

C233 34 230 26 229 26

C229 26 225 32 221 39

C217 45 214 51 215 51

C215 51 220 49 225 46

Z

M317 50

C316 50 313 44 310 38

C306 31 302 26 302 27

C301 28 297 39 298 40

C299 41 315 51 316 51

C317 51 317 51 317 50

Z

M348 42

C350 41 352 39 352 39

C352 36 348 26 347 26

C347 26 334 48 333 50

C333 51 340 47 348 42

Z

M432 45

C424 31 421 26 420 26

C419 27 416 35 416 38

C416 40 418 41 425 45

C429 48 434 51 434 51

C435 51 434 48 432 45

Z

M466 43

C469 41 470 40 470 39

C470 36 467 27 466 27

C465 27 451 48 451 50

C451 51 454 50 457 48

C460 46 464 44 466 43

Z

M546 39

C543 33 539 27 539 27

C538 26 537 28 534 36

L533 40

L543 45

C548 48 553 51 553 51

C553 50 550 45 546 39

Z

M580 45

L589 40

L587 35

C585 28 584 26 583 27

C582 28 569 50 569 51

C569 51 570 51 580 45

Z

M587 591

C585 584 585 580 585 569

C585 557 585 553 587 546

L590 538

L590 553

C590 562 590 576 590 584

L590 600

L587 591

Z

M0 467

C0 433 0 431 4 446

C7 457 7 476 4 487

C0 502 0 500 0 467

Z

M588 389

C585 381 584 371 584 364

C584 356 586 341 588 337

C590 334 590 337 590 364

C590 380 590 394 590 394

C589 394 588 392 588 389

Z

M0 262

C0 228 0 226 4 241

C8 255 7 279 2 291

C0 294 0 292 0 262

Z

M587 182

C585 175 585 171 585 160

C585 148 585 144 587 137

L590 129

L590 144

C590 153 590 167 590 175

L590 191

L587 182

Z

M0 58

C0 24 0 22 4 37

C7 48 7 67 4 78

C0 93 0 91 0 58

Z

"/>

</svg>

