<?xml version="1.0" standalone="no"?>

<!DOCTYPE svg PUBLIC "-//W3C//DTD SVG 20010904//EN"

 "http://www.w3.org/TR/2001/REC-SVG-20010904/DTD/svg10.dtd">

<svg version="1.0" xmlns="http://www.w3.org/2000/svg"

 width="576.000000pt" height="598.000000pt" viewBox="0 0 576.000000 598.000000"

 preserveAspectRatio="xMidYMid meet">

<path fill="#edebec" stroke="none" d="
M0 299

L0 0

L288 0

L576 0

L576 299

L576 598

L288 598

L0 598

L0 299

Z

"/>

<path fill="#8b7c8d" stroke="none" d="
M0 595

C0 592 0 591 2 591

C5 591 7 588 7 584

C7 581 4 577 2 577

C0 577 0 572 0 536

L0 496

L3 493

C6 492 7 491 7 488

C7 484 6 483 3 482

C0 480 0 479 0 473

L0 467

L5 464

C12 460 13 453 7 449

C4 448 4 448 2 450

C0 451 0 451 0 447

C0 444 0 443 2 443

C4 443 7 439 7 436

C7 432 5 429 2 429

C0 429 0 428 0 425

C0 421 0 421 2 422

C4 424 4 424 7 422

C10 421 11 420 11 417

C11 412 10 410 4 407

C0 405 0 405 0 398

C0 393 0 392 2 392

C8 390 9 382 3 379

L0 377

L0 336

C0 297 0 295 2 295

C5 295 7 292 7 288

C7 285 4 281 2 281

C0 281 0 280 0 274

C0 267 0 267 3 266

C7 264 11 259 11 256

C11 253 7 249 4 249

C3 249 2 250 1 250

C0 251 0 251 0 248

C0 245 1 244 3 242

C7 240 8 235 5 231

C4 230 2 229 1 229

C0 229 0 228 0 226

C0 222 0 221 3 223

C5 224 5 224 8 222

C13 218 12 212 5 208

L0 205

L0 199

C0 194 0 193 2 192

C5 191 7 189 7 185

C7 182 4 178 2 178

C0 178 0 173 0 137

C0 104 0 96 1 96

C2 96 4 95 5 94

C8 90 7 85 3 83

C0 81 0 80 0 74

L0 68

L4 66

C11 62 13 56 9 52

C5 49 4 49 2 51

C0 52 0 52 0 48

C0 45 0 44 2 44

C4 44 7 40 7 37

C7 33 5 30 2 30

C0 30 0 29 0 26

C0 22 0 22 2 23

C4 25 4 25 7 23

C10 22 11 21 11 18

C11 13 10 11 4 8

C1 6 0 5 0 3

L0 0

L6 0

C15 1 17 1 20 1

C22 0 23 0 23 3

C23 7 26 10 30 10

C34 10 37 7 37 3

L37 0

L58 0

L79 0

L79 3

C79 7 82 10 86 10

C90 10 93 7 93 3

C93 0 93 0 96 0

C97 1 100 1 102 1

C105 1 126 1 130 1

C131 1 134 1 135 0

C138 0 138 0 138 3

C138 12 152 12 152 3

L152 0

L173 0

L194 0

L194 3

C194 7 197 10 201 10

C205 10 208 7 208 3

C208 0 208 0 211 0

C212 1 215 1 217 1

C220 1 242 1 245 1

C246 1 249 1 250 0

C253 0 253 0 253 3

C253 9 261 12 265 8

C266 7 267 5 267 3

L268 0

L288 0

L309 0

L309 3

C309 9 316 12 321 8

C322 7 323 6 323 3

C323 0 323 0 326 0

C327 1 330 1 331 1

C336 1 358 1 360 1

C361 1 364 1 365 1

C368 0 368 0 368 2

C368 6 372 10 376 10

C380 10 383 6 383 2

L382 0

L403 0

L424 0

L424 3

C424 7 427 10 431 10

C435 10 438 7 438 3

C438 0 438 0 441 1

C443 1 446 1 447 1

C448 1 454 1 461 1

C468 1 474 1 475 1

C476 1 479 1 481 1

C484 0 484 0 483 2

C483 6 486 10 490 10

C494 10 498 7 498 3

L498 0

L519 0

L539 0

L539 2

C539 6 543 10 547 10

C551 10 554 6 554 2

C553 0 553 0 556 1

C560 1 560 1 570 0

L576 0

L576 3

C576 5 575 6 571 9

C564 13 563 20 569 24

C572 25 572 25 574 23

C576 22 576 22 576 26

C576 29 576 30 574 30

C572 30 569 34 569 37

C569 40 572 44 575 44

C576 44 576 45 576 48

C576 52 576 52 574 51

C571 47 565 51 565 57

C565 61 567 63 573 67

C576 68 576 69 576 74

C576 80 576 81 573 83

C570 84 570 85 570 89

C570 92 570 93 573 94

L576 97

L576 137

L576 178

L573 179

C568 181 568 189 573 192

C576 193 576 194 576 199

C576 204 576 205 573 207

C568 210 565 213 565 216

C565 221 572 226 574 223

C575 221 576 222 576 225

C576 228 575 229 573 231

C570 232 570 233 570 237

C570 240 570 241 573 242

C575 244 576 245 576 248

C576 251 575 252 574 250

C571 247 565 252 565 257

C565 260 566 262 572 265

L576 268

L576 275

C576 280 576 281 575 281

C572 281 569 285 569 288

C569 291 572 295 574 295

C576 295 576 296 576 336

L576 377

L573 379

C569 381 568 386 571 390

C572 391 574 392 575 392

C576 392 576 394 576 398

L576 405

L572 407

C563 411 563 419 571 423

C572 424 573 423 574 422

C576 421 576 421 576 425

C576 428 576 429 574 429

C572 429 569 433 569 436

C569 439 572 443 575 443

C576 443 576 444 576 447

C576 451 576 451 574 450

C572 448 571 448 568 450

C566 452 565 453 565 456

C565 460 567 462 573 466

C576 467 576 468 576 473

C576 479 576 480 573 482

C570 483 570 484 570 488

C570 491 570 492 573 493

L576 496

L576 536

C576 572 576 577 575 577

C572 577 569 581 569 584

C569 587 572 591 574 591

C576 591 576 592 576 595

C576 598 576 598 572 598

L567 598

L568 595

C571 587 560 582 555 588

C554 591 554 595 555 597

C557 599 554 598 551 596

C550 595 548 594 547 594

C545 594 543 595 542 596

C539 598 538 598 519 598

C499 598 498 598 495 596

C494 595 492 594 491 594

C489 594 487 595 486 596

C483 598 480 599 482 597

C483 595 483 591 482 588

C477 582 466 588 469 596

L470 598

L461 598

L452 598

L453 594

C453 590 453 589 450 587

C447 585 444 585 441 588

C439 589 439 590 439 594

C440 596 440 598 439 598

C439 598 438 597 436 596

C435 595 433 594 432 594

C430 594 428 595 427 596

C424 598 423 598 404 598

C384 598 383 598 380 596

C379 595 377 594 376 594

C374 594 372 595 371 596

C367 599 366 599 367 595

C371 586 358 581 354 590

C353 592 353 594 354 596

L355 598

L346 598

L337 598

L338 594

C338 590 338 589 336 588

C333 585 330 585 327 587

C324 589 324 590 324 594

C325 598 324 599 321 596

C320 595 318 594 316 594

C315 594 313 595 312 596

C310 598 308 598 289 598

C269 598 268 598 265 596

C264 595 262 594 261 594

C259 594 257 595 256 596

C252 599 251 599 252 596

C254 592 252 588 248 586

C242 584 236 590 239 596

L240 598

L230 598

C223 598 221 598 222 597

C223 595 223 591 222 588

C217 582 206 588 209 596

C210 599 209 599 206 596

C205 595 202 594 201 594

C199 594 197 595 196 596

C194 598 193 598 173 598

C153 598 152 598 150 596

C149 595 147 594 145 594

C144 594 142 595 141 596

C138 599 136 599 137 595

C139 590 134 584 128 586

C123 588 121 594 124 597

C125 598 123 598 116 598

L106 598

L107 595

C111 586 98 581 94 590

C93 592 93 594 94 596

C95 599 93 599 91 596

C90 595 87 594 86 594

C84 594 82 595 81 596

C78 598 77 598 57 598

C38 598 36 598 35 596

C34 595 31 594 30 594

C28 594 26 595 25 596

C23 597 22 598 22 598

C21 598 21 596 22 594

C22 590 22 589 20 588

C17 585 14 585 11 587

C8 589 8 590 8 594

L9 598

L4 598

C0 598 0 598 0 595

Z

M63 592

C69 585 59 576 53 582

C50 585 50 590 54 593

C57 596 60 595 63 592

Z

M178 592

C181 590 181 585 178 582

C173 577 166 581 166 587

C166 594 173 597 178 592

Z

M292 593

C298 588 295 580 288 580

C281 580 278 591 285 594

C289 595 290 595 292 593

Z

M406 594

C408 593 409 592 410 590

C413 582 403 576 398 583

C395 587 396 592 400 594

C403 595 404 595 406 594

Z

M522 594

C528 591 527 582 520 580

C512 578 508 590 515 593

C518 595 518 595 522 594

Z

M121 588

C122 587 123 585 123 584

C123 581 119 577 116 577

C112 577 108 581 108 584

C108 591 117 593 121 588

Z

M236 589

C240 585 237 577 231 577

C227 577 223 581 223 584

C223 585 224 587 225 588

C228 592 233 592 236 589

Z

M351 589

C355 585 352 577 346 577

C340 577 336 584 340 589

C343 592 348 592 351 589

Z

M466 589

C469 587 469 582 466 579

C462 575 454 578 454 584

C454 586 455 588 456 589

C458 591 464 592 466 589

Z

M48 584

C51 581 51 576 48 573

C43 569 36 572 36 579

C36 583 39 586 43 586

C45 586 47 585 48 584

Z

M78 584

C82 580 80 573 74 571

C72 571 70 571 68 574

C65 576 65 578 65 580

C67 586 73 588 78 584

Z

M162 585

C163 584 164 583 165 581

C167 573 157 568 152 574

C148 581 155 589 162 585

Z

M193 584

C197 580 194 572 188 572

C184 572 181 574 181 579

C181 585 188 588 193 584

Z

M277 585

C280 583 281 579 280 576

C278 571 270 570 267 575

C264 582 270 588 277 585

Z

M308 584

C311 581 311 576 308 573

C303 569 296 572 296 579

C296 583 299 586 303 586

C305 586 307 585 308 584

Z

M394 584

C397 580 396 574 391 572

C386 570 381 574 381 579

C381 582 385 586 389 586

C390 586 392 585 394 584

Z

M423 584

C426 582 426 576 423 573

C420 571 415 571 413 574

C407 581 416 589 423 584

Z

M509 583

C513 579 511 573 505 571

C503 571 501 571 499 574

C496 576 496 578 496 580

C498 586 505 588 509 583

Z

M537 585

C540 583 541 579 540 576

C538 571 530 570 527 575

C524 582 530 588 537 585

Z

M33 575

C36 572 36 567 33 565

C27 560 18 567 22 574

C24 578 30 579 33 575

Z

M94 574

C97 569 93 563 88 563

C85 563 84 564 82 566

C80 569 80 570 81 573

C83 578 92 578 94 574

Z

M149 574

C150 573 151 571 151 570

C151 567 147 563 143 563

C138 563 134 570 137 574

C141 578 145 579 149 574

Z

M208 575

C211 572 210 568 208 565

C202 559 192 567 197 574

C200 578 205 579 208 575

Z

M265 573

C266 570 266 569 264 566

C262 564 261 563 259 563

C256 563 255 564 253 566

C251 569 251 570 252 573

C254 578 263 578 265 573

Z

M323 575

C327 570 324 563 318 563

C314 563 311 566 311 570

C311 577 319 580 323 575

Z

M377 577

C380 575 381 573 381 570

C381 567 377 563 374 563

C371 563 366 567 366 570

C366 573 370 577 374 578

C374 578 375 577 377 577

Z

M438 575

C441 573 441 568 438 565

C434 561 426 564 426 570

C426 577 433 580 438 575

Z

M494 575

C497 572 496 568 494 565

C489 561 482 564 482 570

C482 577 490 580 494 575

Z

M553 575

C556 572 556 567 553 565

C547 560 538 567 542 574

C544 578 550 579 553 575

Z

M17 568

C22 565 21 557 16 555

C9 552 3 561 8 567

C11 569 14 570 17 568

Z

M108 567

C110 564 111 562 109 559

C106 552 95 554 95 562

C95 565 99 569 103 569

C104 569 106 568 108 567

Z

M134 567

C138 562 135 555 129 555

C124 555 121 558 121 562

C121 565 125 569 129 569

C130 569 132 568 134 567

Z

M223 567

C226 563 225 557 220 555

C215 553 210 557 210 563

C210 565 215 569 218 569

C219 569 221 568 223 567

Z

M249 567

C252 563 251 557 246 555

C241 553 235 559 237 564

C239 569 245 571 249 567

Z

M337 567

C342 564 340 557 335 555

C330 553 324 559 326 564

C328 569 333 570 337 567

Z

M364 567

C367 564 367 560 364 556

C360 553 358 553 355 556

C351 559 351 564 354 567

C357 570 361 570 364 567

Z

M453 567

C456 564 456 559 452 556

C451 555 449 554 448 554

C445 554 441 558 441 562

C441 568 448 571 453 567

Z

M479 567

C482 564 482 559 478 556

C477 555 475 554 474 554

C473 554 471 555 470 556

C464 560 467 569 474 569

C475 569 478 568 479 567

Z

M568 567

C571 564 571 559 567 556

C566 555 564 554 563 554

C560 554 556 558 556 561

C556 568 564 571 568 567

Z

M62 565

C69 560 71 555 66 550

C63 548 61 547 59 550

C58 551 58 551 56 549

C54 548 54 548 51 549

C48 550 46 554 46 556

C46 559 50 563 54 565

C56 566 58 567 58 567

C58 567 60 566 62 565

Z

M176 565

C184 560 186 555 182 550

C179 548 177 547 175 550

C173 551 172 551 171 549

C169 548 169 548 166 549

C162 551 161 555 162 558

C163 560 171 567 173 567

C173 567 174 566 176 565

Z

M293 564

C297 561 299 559 299 556

C299 551 294 547 290 549

C288 550 288 550 285 549

C283 548 283 548 280 550

C275 554 276 560 283 564

C285 566 288 567 288 567

C288 567 290 566 293 564

Z

M408 564

C415 560 416 554 411 550

C408 548 408 548 406 549

C403 550 403 550 400 549

C398 548 398 548 395 550

C390 554 391 559 398 564

C400 566 403 567 403 567

C403 567 406 566 408 564

Z

M524 564

C531 559 531 553 525 549

C522 548 522 548 520 549

C519 551 518 551 516 550

C514 547 512 548 509 550

C505 555 507 560 515 565

C518 567 518 567 524 564

Z

M18 550

C23 546 20 537 13 537

C10 537 6 541 6 545

C6 548 10 552 13 552

C15 552 17 551 18 550

Z

M108 549

C110 547 110 546 110 544

C109 540 106 537 102 537

C99 537 95 541 95 545

C95 548 99 552 103 552

C104 552 106 551 108 549

Z

M134 550

C135 548 136 546 136 545

C136 541 132 537 129 537

C125 537 121 541 121 545

C121 548 125 552 129 552

C130 552 132 551 134 550

Z

M223 550

C224 548 225 546 225 545

C225 541 221 537 218 537

C214 537 211 540 211 545

C211 551 218 554 223 550

Z

M249 550

C250 548 251 546 251 545

C251 541 247 537 244 537

C240 537 237 540 237 545

C237 551 244 554 249 550

Z

M338 550

C339 548 340 546 340 545

C340 543 339 541 338 539

C334 535 328 537 326 542

C325 544 325 545 326 548

C329 553 334 553 338 550

Z

M363 550

C367 547 367 542 363 539

C360 537 359 537 356 538

C351 540 351 548 355 551

C359 552 360 552 363 550

Z

M452 550

C456 547 456 542 452 539

C451 538 449 537 448 537

C445 537 441 541 441 545

C441 548 445 552 448 552

C449 552 451 551 452 550

Z

M478 550

C482 547 482 542 478 539

C477 538 475 537 474 537

C471 537 467 541 467 545

C467 548 471 552 474 552

C475 552 477 551 478 550

Z

M567 550

C569 548 570 547 570 545

C570 541 566 537 563 537

C560 537 556 541 556 545

C556 548 560 552 563 552

C564 552 566 551 567 550

Z

M41 546

C42 545 44 544 44 542

C46 540 46 539 44 538

C44 537 43 536 43 536

C43 535 44 534 44 533

C46 532 46 531 44 529

C41 522 35 523 30 530

L26 535

L29 540

C33 546 37 548 41 546

Z

M83 545

C84 544 86 542 87 540

C89 536 89 535 84 528

C82 526 81 525 78 525

C75 525 74 526 72 528

C70 531 69 532 72 534

C73 535 73 536 72 538

C70 541 70 541 72 544

C75 548 80 548 83 545

Z

M158 544

C161 541 162 540 160 538

C158 536 158 535 160 533

C161 531 161 531 160 528

C155 522 149 523 144 531

C142 535 142 535 143 538

C145 542 150 547 153 547

C154 547 156 546 158 544

Z

M197 546

C198 545 200 543 202 540

C204 536 204 536 203 533

C199 527 197 525 193 525

C187 525 183 531 187 534

C188 536 188 536 187 538

C185 540 185 540 186 543

C189 547 193 548 197 546

Z

M272 545

C276 542 277 539 275 537

C273 536 273 536 275 533

C276 531 276 531 274 528

C270 522 265 523 259 531

L257 535

L259 539

C261 543 265 547 268 547

C269 547 271 546 272 545

Z

M313 545

C315 544 316 541 317 539

C319 535 319 535 317 532

C314 526 312 525 307 525

C304 525 303 526 302 529

C300 532 300 532 301 534

C303 536 303 536 302 538

C299 540 300 540 303 544

C306 548 310 548 313 545

Z

M388 544

C391 541 392 538 390 538

C388 538 388 535 390 534

C391 532 391 529 388 526

C384 522 379 524 374 531

L372 535

L374 539

C376 543 380 547 383 547

C384 547 386 546 388 544

Z

M427 546

C428 545 430 543 432 540

C435 536 435 536 433 533

C431 529 428 526 426 525

C423 524 418 526 416 529

C415 531 415 532 417 533

C418 535 418 536 417 538

C415 539 415 542 418 545

C421 547 424 548 427 546

Z

M504 544

C506 541 506 539 505 537

C504 536 504 535 505 533

C506 531 506 530 505 528

C503 525 499 523 496 525

C494 525 492 528 490 531

L487 535

L489 539

C494 547 500 549 504 544

Z

M544 544

C546 543 547 540 548 539

C550 536 550 535 547 531

C543 524 538 523 533 527

C531 530 530 532 532 534

C533 535 533 535 532 537

C531 540 531 541 533 544

C536 548 541 548 544 544

Z

M63 541

C66 538 66 534 63 530

C59 527 57 527 54 530

C50 533 50 538 53 541

C56 544 60 544 63 541

Z

M178 541

C181 538 181 533 177 530

C176 529 174 528 173 528

C172 528 170 529 169 530

C163 534 166 543 173 543

C174 543 177 542 178 541

Z

M293 541

C296 538 296 533 292 530

C289 527 287 527 284 530

C280 533 280 538 284 541

C287 544 290 544 293 541

Z

M407 542

C414 538 410 528 402 528

C400 528 396 533 396 536

C396 539 400 543 403 543

C404 543 406 543 407 542

Z

M524 541

C528 536 525 529 519 529

C514 529 511 532 511 536

C511 539 515 543 519 543

C520 543 522 542 524 541

Z

M16 534

C18 533 19 531 20 530

C22 524 16 518 11 521

C5 523 5 531 10 534

C13 535 13 535 16 534

Z

M105 534

C107 533 108 531 109 530

C113 521 100 516 96 525

C94 528 96 532 99 534

C102 535 102 535 105 534

Z

M134 532

C135 531 136 529 136 527

C136 524 132 520 129 520

C125 520 121 524 121 527

C121 534 130 537 134 532

Z

M223 532

C224 531 225 529 225 527

C225 524 221 520 218 520

C215 520 210 524 210 526

C210 534 219 537 223 532

Z

M249 533

C250 531 251 529 251 528

C251 524 247 520 244 520

C234 520 234 535 244 535

C245 535 247 534 249 533

Z

M338 533

C344 526 337 517 329 521

C324 524 325 531 329 534

C333 535 335 535 338 533

Z

M363 533

C368 529 365 520 359 520

C352 520 349 528 355 533

C358 536 360 536 363 533

Z

M452 533

C457 529 454 520 448 520

C441 520 438 529 444 533

C445 534 447 535 448 535

C449 535 451 534 452 533

Z

M478 533

C484 529 481 520 474 520

C467 520 464 529 470 533

C471 534 473 535 474 535

C475 535 477 534 478 533

Z

M567 533

C573 529 570 520 563 520

C557 520 553 529 559 533

C560 534 562 535 563 535

C564 535 566 534 567 533

Z

M67 521

C68 519 69 518 69 516

C69 512 67 510 61 506

C58 504 58 504 55 506

C47 511 45 517 49 521

C52 523 53 523 56 522

C58 521 58 521 60 522

C61 524 63 524 67 521

Z

M174 521

C174 521 175 521 176 522

C178 525 184 521 184 516

C184 512 181 509 176 506

C173 504 173 504 170 506

C164 510 162 512 162 516

C162 520 168 525 171 522

C172 522 173 521 174 521

Z

M289 521

C289 521 290 522 291 522

C292 524 293 524 295 523

C302 519 301 512 293 507

L288 504

L284 507

C276 512 275 518 281 522

C284 524 285 524 286 522

C287 522 288 521 289 521

Z

M404 521

C404 521 405 522 406 522

C407 524 408 524 410 522

C417 519 416 512 408 507

L403 504

L399 507

C391 512 390 518 396 522

C399 524 400 524 401 522

C402 522 403 521 404 521

Z

M519 521

C519 521 520 522 521 522

C522 524 523 524 526 522

C532 518 531 512 523 507

L519 504

L514 507

C506 512 505 518 511 522

C514 524 515 524 516 522

C517 522 518 521 519 521

Z

M19 514

C22 511 22 509 19 505

C12 499 3 506 7 514

C9 518 15 519 19 514

Z

M105 517

C108 516 110 513 110 509

C110 507 105 503 102 503

C97 503 93 510 96 514

C97 515 100 518 102 518

C102 518 103 518 105 517

Z

M131 517

C137 514 137 507 132 504

C128 502 124 503 122 507

C121 509 121 510 122 513

C123 515 126 518 128 518

C129 518 130 518 131 517

Z

M221 517

C226 514 226 510 223 506

C220 502 216 502 212 505

C211 507 210 509 210 509

C210 512 212 516 214 517

C217 518 218 518 221 517

Z

M249 515

C252 512 251 508 249 505

C243 499 233 507 238 514

C241 518 246 519 249 515

Z

M338 515

C341 512 340 508 338 505

C332 499 322 507 327 514

C330 518 335 519 338 515

Z

M364 515

C367 512 366 508 364 505

C360 501 352 504 352 510

C352 517 360 520 364 515

Z

M453 515

C456 513 456 508 453 505

C449 501 441 504 441 510

C441 517 448 520 453 515

Z

M479 515

C482 513 482 508 479 505

C475 501 467 504 467 510

C467 517 474 520 479 515

Z

M568 515

C571 513 571 508 568 505

C564 501 556 504 556 510

C556 517 563 520 568 515

Z

M31 508

C34 507 36 502 35 500

C34 497 30 494 28 494

C25 494 21 499 21 502

C21 507 27 510 31 508

Z

M93 507

C97 502 94 495 88 495

C83 495 81 496 80 501

C80 503 80 504 82 506

C86 510 89 510 93 507

Z

M147 508

C154 504 150 494 142 494

C140 494 136 499 136 502

C136 505 140 509 143 509

C144 509 146 509 147 508

Z

M208 507

C209 505 210 503 210 502

C210 499 206 494 204 494

C198 494 194 499 196 504

C198 509 204 511 208 507

Z

M264 507

C268 502 265 495 259 495

C254 495 251 498 251 502

C251 505 255 509 259 509

C260 509 262 508 264 507

Z

M322 507

C324 505 325 504 325 502

C325 498 321 494 318 494

C315 494 311 498 311 502

C311 508 317 511 322 507

Z

M379 507

C380 505 381 503 381 502

C381 499 377 494 375 494

C369 494 365 499 367 504

C369 509 375 511 379 507

Z

M438 507

C441 504 441 499 437 496

C436 495 434 494 433 494

C430 494 426 498 426 501

C426 508 433 511 438 507

Z

M493 507

C495 505 496 504 496 502

C496 498 492 494 489 494

C486 494 482 498 482 502

C482 508 488 511 493 507

Z

M551 508

C554 508 556 502 555 500

C555 497 550 494 548 494

C545 494 541 498 541 502

C541 507 547 510 551 508

Z

M48 498

C52 494 49 486 43 486

C39 486 36 489 36 493

C36 497 39 500 43 500

C45 500 47 499 48 498

Z

M78 498

C82 494 79 486 73 486

C69 486 66 489 66 493

C66 499 74 502 78 498

Z

M164 498

C168 493 165 486 158 486

C154 486 151 489 151 493

C151 499 159 503 164 498

Z

M193 498

C197 494 194 486 188 486

C186 486 184 487 183 488

C181 490 180 496 183 498

C185 501 190 501 193 498

Z

M279 497

C280 496 281 494 281 493

C281 492 280 490 279 489

C275 483 266 486 266 493

C266 500 275 503 279 497

Z

M308 498

C310 496 311 490 308 488

C306 485 301 485 298 488

C294 492 297 500 303 500

C305 500 307 499 308 498

Z

M394 497

C395 496 396 494 396 493

C396 490 392 486 389 486

C385 486 381 490 381 493

C381 496 385 500 389 500

C391 500 392 499 394 497

Z

M424 498

C428 493 425 486 418 486

C414 486 411 489 411 493

C411 499 419 503 424 498

Z

M509 498

C514 493 510 486 504 486

C500 486 496 490 496 493

C496 494 497 496 498 497

C501 501 506 501 509 498

Z

M539 497

C540 496 541 494 541 493

C541 492 540 490 539 489

C535 483 526 486 526 493

C526 500 535 503 539 497

Z

M120 493

C125 489 122 480 115 480

C112 480 108 484 108 488

C108 491 112 495 115 495

C117 495 119 494 120 493

Z

M236 493

C237 491 238 489 238 488

C238 484 234 480 231 480

C227 480 224 483 223 487

C223 489 223 490 225 492

C229 496 232 496 236 493

Z

M351 493

C352 491 353 489 353 488

C353 485 349 480 347 480

C344 480 340 482 339 485

C338 487 338 488 339 491

C342 496 347 496 351 493

Z

M465 493

C469 490 469 485 465 482

C464 481 462 480 461 480

C458 480 454 484 454 487

C454 491 455 492 458 494

C460 495 462 495 465 493

Z

M62 490

C68 486 64 477 57 477

C51 477 49 486 54 490

C55 491 57 492 58 492

C59 492 61 491 62 490

Z

M177 490

C182 486 180 477 173 477

C167 477 164 486 169 490

C170 491 172 492 173 492

C174 492 176 491 177 490

Z

M291 491

C294 489 295 488 295 484

C295 478 289 475 284 479

C280 482 280 486 283 490

C286 492 288 493 291 491

Z

M406 491

C413 488 411 477 403 477

C400 477 396 481 396 485

C396 487 400 492 402 492

C403 492 405 491 406 491

Z

M524 489

C525 488 526 486 526 484

C526 481 522 477 519 477

C515 477 511 481 511 484

C511 491 520 494 524 489

Z

M20 484

C23 481 23 477 20 474

C18 472 12 471 10 474

C8 476 7 482 10 484

C12 487 17 487 20 484

Z

M106 484

C110 479 107 472 100 472

C97 472 93 476 93 479

C93 480 94 482 95 483

C98 487 102 487 106 484

Z

M136 484

C140 479 137 472 130 472

C126 472 123 475 123 479

C123 485 131 489 136 484

Z

M221 484

C225 480 222 472 216 472

C212 472 209 475 209 479

C209 485 217 488 221 484

Z

M251 483

C252 482 253 480 253 479

C253 476 249 472 246 472

C242 472 238 476 238 479

C238 482 242 486 246 486

C248 486 249 485 251 483

Z

M336 484

C340 480 337 472 331 472

C329 472 327 473 326 474

C324 476 323 482 326 484

C328 487 333 487 336 484

Z

M366 484

C370 479 367 472 360 472

C357 472 353 476 353 479

C353 480 354 482 355 483

C358 487 362 487 366 484

Z

M451 484

C453 482 454 476 451 474

C449 471 444 471 441 474

C437 478 440 486 446 486

C448 486 450 485 451 484

Z

M481 484

C485 480 482 472 476 472

C472 472 469 475 469 479

C469 485 477 488 481 484

Z

M567 484

C571 479 568 472 561 472

C557 472 554 475 554 479

C554 485 562 489 567 484

Z

M35 476

C36 474 37 472 37 471

C37 469 36 467 35 465

C31 462 26 462 23 467

C20 475 29 481 35 476

Z

M91 476

C92 474 93 472 93 471

C93 469 92 467 91 465

C87 462 82 462 79 467

C76 475 85 481 91 476

Z

M149 476

C153 472 153 468 150 465

C147 462 144 462 141 465

C139 467 138 468 138 471

C138 473 139 474 141 476

C144 479 146 479 149 476

Z

M205 476

C211 472 207 463 201 463

C194 463 192 472 197 476

C198 477 200 478 201 478

C202 478 204 477 205 476

Z

M263 477

C265 477 266 475 267 473

C269 468 265 463 260 463

C257 463 253 467 253 471

C253 473 257 478 259 478

C260 478 262 478 263 477

Z

M320 476

C325 472 323 463 316 463

C313 463 309 467 309 471

C309 474 313 478 316 478

C317 478 319 477 320 476

Z

M381 476

C382 474 383 472 383 471

C383 469 382 467 381 465

C379 464 377 463 376 463

C374 463 372 464 370 465

C369 467 368 469 368 471

C368 472 369 474 370 476

C372 477 374 478 376 478

C377 478 379 477 381 476

Z

M434 477

C438 475 440 471 438 467

C435 462 431 462 427 465

C423 468 423 472 426 476

C429 478 431 479 434 477

Z

M496 476

C497 474 498 472 498 471

C498 467 494 463 491 463

C487 463 484 466 484 471

C484 477 491 480 496 476

Z

M551 476

C552 475 553 473 554 471

C554 469 554 468 552 466

C550 464 548 463 547 463

C543 463 539 467 539 471

C539 474 543 478 546 478

C548 478 550 477 551 476

Z

M50 466

C53 463 53 460 50 457

C47 454 42 454 39 458

C38 459 37 461 37 462

C37 465 41 469 45 469

C47 469 48 468 50 466

Z

M76 467

C78 465 79 460 76 457

C75 454 69 454 66 457

C63 459 63 465 66 467

C69 470 74 469 76 467

Z

M165 467

C167 465 168 460 165 457

C164 456 163 455 160 455

C156 455 153 457 153 462

C153 466 156 469 160 469

C162 469 164 468 165 467

Z

M191 467

C194 466 194 460 191 457

C189 454 183 454 181 457

C176 464 184 472 191 467

Z

M280 467

C281 466 282 465 282 462

C282 458 280 455 275 455

C271 455 268 458 268 462

C268 468 275 471 280 467

Z

M307 467

C311 462 308 455 301 455

C295 455 292 462 296 467

C299 470 304 470 307 467

Z

M395 467

C400 462 397 455 390 455

C384 455 381 462 385 467

C388 469 393 470 395 467

Z

M422 466

C423 465 424 463 424 462

C424 461 423 459 422 458

C418 453 409 455 409 462

C409 465 413 469 417 469

C419 469 420 468 422 466

Z

M511 466

C512 465 513 463 513 462

C513 459 509 455 506 455

C502 455 498 459 498 462

C498 465 502 469 506 469

C508 469 509 468 511 466

Z

M537 466

C540 463 540 460 537 457

C534 454 529 454 526 458

C525 459 524 461 524 462

C524 465 528 469 532 469

C534 469 535 468 537 466

Z

M119 465

C124 462 126 460 126 456

C126 450 120 446 117 450

C115 451 115 451 113 450

C111 448 111 448 108 449

C102 453 103 460 110 464

C115 468 115 468 119 465

Z

M236 464

C243 459 243 453 237 449

C235 448 234 448 233 449

C230 451 230 451 228 450

C226 447 226 448 222 451

C217 455 218 460 226 465

C230 468 231 468 236 464

Z

M351 464

C358 459 359 453 353 449

C350 448 350 448 348 449

C346 451 345 451 343 449

C341 448 341 448 338 449

C335 452 333 455 335 458

C336 461 343 467 346 467

C346 467 349 466 351 464

Z

M465 465

C473 460 474 455 469 451

C465 448 465 447 463 450

C461 451 461 451 458 449

C457 448 456 448 454 449

C453 450 451 452 450 453

C449 456 449 456 450 459

C452 461 459 467 461 467

C461 467 463 466 465 465

Z

M50 449

C53 445 53 441 48 438

C44 436 40 438 38 442

C36 445 37 447 39 450

C43 453 47 453 50 449

Z

M76 450

C79 447 79 442 76 439

C71 435 64 438 64 445

C64 449 67 452 71 452

C73 452 75 451 76 450

Z

M165 450

C168 447 168 442 165 439

C160 435 153 438 153 445

C153 449 156 452 160 452

C162 452 164 451 165 450

Z

M191 450

C194 447 194 442 191 439

C186 435 179 438 179 445

C179 449 182 452 186 452

C188 452 190 451 191 450

Z

M280 450

C283 448 283 442 280 439

C277 437 272 437 270 440

C264 447 273 455 280 450

Z

M306 450

C309 447 310 444 307 440

C304 437 299 437 296 440

C290 447 299 456 306 450

Z

M395 450

C398 447 399 444 396 440

C393 437 388 437 385 440

C379 447 388 456 395 450

Z

M422 450

C424 447 425 445 423 442

C421 438 417 436 413 438

C408 441 408 445 411 449

C414 453 418 453 422 450

Z

M511 449

C514 445 513 441 509 438

C505 437 503 437 500 440

C497 443 497 447 501 450

C504 453 509 453 511 449

Z

M537 449

C540 445 540 441 535 438

C531 437 527 438 525 442

C523 445 524 447 526 450

C530 453 534 453 537 449

Z

M26 445

C27 444 29 441 29 439

C31 436 31 436 29 432

C25 424 17 422 13 429

C12 432 12 432 14 434

C15 436 15 436 14 438

C12 440 12 440 13 443

C15 446 16 447 21 447

C23 447 24 446 26 445

Z

M99 446

C102 444 103 441 102 438

C101 436 101 436 102 434

C103 431 103 431 102 428

C97 422 92 423 87 431

L84 436

L86 440

C91 446 95 448 99 446

Z

M141 444

C146 439 147 437 145 433

C141 425 135 423 130 427

C128 430 127 433 129 433

C130 434 131 438 129 439

C127 440 128 442 130 445

C133 448 138 448 141 444

Z

M216 445

C218 442 219 439 217 437

C216 436 216 435 217 434

C219 430 217 427 213 425

C209 423 205 425 202 431

L199 435

L201 439

C205 447 211 449 216 445

Z

M255 446

C256 445 258 443 259 440

L262 436

L260 432

C258 430 256 428 255 427

C252 424 247 425 245 428

C243 431 243 431 244 434

C245 436 245 437 244 438

C243 441 243 441 245 444

C247 447 252 448 255 446

Z

M330 445

C333 443 334 439 332 438

C331 436 331 435 332 433

C334 432 334 431 332 429

C329 422 322 423 317 431

L314 436

L317 440

C321 447 326 449 330 445

Z

M370 446

C371 445 373 443 375 440

L377 436

L374 431

C370 424 363 423 359 429

C358 431 358 431 359 434

C360 436 360 437 359 438

C358 441 358 441 360 444

C362 447 367 448 370 446

Z

M446 444

C449 440 450 440 448 438

C446 436 446 436 448 434

C449 432 449 432 447 429

C444 422 438 423 433 431

C430 435 430 435 431 438

C435 447 442 450 446 444

Z

M485 446

C486 445 488 443 490 440

L492 436

L489 431

C485 424 478 423 474 429

C473 432 473 432 475 434

C476 436 476 436 475 438

C473 440 473 441 475 444

C477 447 482 448 485 446

Z

M561 445

C564 441 564 440 562 438

C561 436 561 436 563 434

C564 432 564 432 563 429

C559 422 553 423 548 431

C545 435 545 435 546 438

C549 446 556 449 561 445

Z

M121 440

C122 439 123 437 123 436

C123 435 122 433 121 432

C117 427 108 429 108 435

C108 439 112 443 116 443

C118 443 119 442 121 440

Z

M236 440

C239 437 239 434 236 431

C233 428 228 428 225 432

C224 433 223 435 223 436

C223 439 227 443 231 443

C233 443 234 442 236 440

Z

M351 441

C355 436 352 429 346 429

C342 429 339 432 339 436

C339 442 347 446 351 441

Z

M466 441

C468 439 469 434 466 431

C465 428 459 428 456 431

C453 433 453 439 456 441

C459 444 464 443 466 441

Z

M50 433

C53 429 52 423 47 421

C42 419 37 423 37 429

C37 431 42 435 45 435

C46 435 48 434 50 433

Z

M76 433

C79 430 79 425 75 422

C74 421 72 420 71 420

C68 420 64 424 64 428

C64 434 71 437 76 433

Z

M165 433

C168 430 168 425 164 422

C163 421 161 420 160 420

C159 420 157 421 156 422

C150 426 153 435 160 435

C161 435 164 434 165 433

Z

M191 433

C194 430 194 425 190 422

C189 421 187 420 186 420

C183 420 179 424 179 427

C179 434 187 437 191 433

Z

M280 433

C283 430 283 425 279 422

C278 421 276 420 275 420

C272 420 268 424 268 428

C268 434 276 437 280 433

Z

M305 434

C310 431 309 423 304 421

C301 419 299 420 296 422

C290 429 297 438 305 434

Z

M394 434

C401 430 397 420 389 420

C387 420 383 425 383 428

C383 431 387 435 390 435

C391 435 393 435 394 434

Z

M422 432

C424 430 424 429 424 427

C423 422 421 421 416 421

C410 421 407 428 411 433

C415 436 418 436 422 432

Z

M511 433

C515 428 512 421 506 421

C501 421 498 424 498 428

C498 431 502 435 506 435

C507 435 509 434 511 433

Z

M537 433

C538 431 539 429 539 428

C539 425 535 420 532 420

C528 420 524 424 524 429

C524 431 529 435 532 435

C533 435 535 434 537 433

Z

M113 423

C115 421 116 421 118 423

C120 424 120 424 123 423

C129 419 128 412 121 408

C118 406 116 405 116 405

C113 405 106 410 105 413

C103 416 104 418 107 421

C110 424 111 425 113 423

Z

M228 423

C228 421 231 421 233 423

C235 424 236 424 240 421

C244 416 241 409 233 406

C230 405 230 405 226 408

C220 412 218 415 220 419

C222 422 228 426 228 423

Z

M343 423

C343 421 346 421 348 423

C350 424 350 424 353 423

C360 419 358 411 350 407

C346 405 346 405 343 407

C337 410 335 412 335 416

C335 419 335 420 338 422

C342 424 343 424 343 423

Z

M459 422

C461 421 461 421 463 422

C465 424 465 424 468 423

C471 421 472 419 472 415

C472 412 470 409 464 406

C461 405 461 405 457 407

C449 411 447 419 455 423

C457 424 457 424 459 422

Z

M50 416

C51 414 52 412 52 411

C52 407 48 403 45 403

C41 403 38 406 38 411

C38 417 45 420 50 416

Z

M75 416

C79 413 79 408 75 405

C68 399 59 410 67 416

C70 419 72 419 75 416

Z

M164 416

C166 414 167 413 167 411

C167 407 163 403 160 403

C157 403 153 407 153 411

C153 414 157 418 160 418

C161 418 163 417 164 416

Z

M190 416

C192 414 193 413 193 411

C193 407 189 403 186 403

C183 403 179 407 179 411

C179 414 183 418 186 418

C187 418 189 417 190 416

Z

M278 417

C281 415 282 414 282 410

C282 407 279 403 275 403

C269 403 265 412 271 416

C274 418 275 418 278 417

Z

M304 417

C306 417 307 415 308 413

C310 408 306 403 301 403

C298 403 294 407 294 411

C294 413 298 418 300 418

C301 418 303 418 304 417

Z

M395 416

C400 412 397 403 390 403

C387 403 383 407 383 411

C383 414 387 418 390 418

C392 418 394 417 395 416

Z

M421 416

C426 412 423 403 416 403

C413 403 409 407 409 411

C409 414 413 418 416 418

C418 418 420 417 421 416

Z

M511 416

C512 414 513 412 513 411

C513 409 512 407 511 405

C509 404 507 403 506 403

C504 403 502 404 500 405

C499 407 498 409 498 411

C498 412 499 414 500 416

C502 417 504 418 506 418

C507 418 509 417 511 416

Z

M537 416

C538 414 539 412 539 411

C539 407 535 403 532 403

C530 403 528 404 526 406

C524 408 524 409 524 411

C526 418 532 420 537 416

Z

M35 407

C38 404 38 400 35 397

C30 392 23 395 23 402

C23 408 31 411 35 407

Z

M91 407

C94 404 94 400 91 397

C86 392 79 395 79 402

C79 408 87 411 91 407

Z

M150 407

C153 405 153 400 150 397

C148 394 142 394 140 397

C134 404 143 413 150 407

Z

M206 407

C208 405 209 400 206 397

C205 396 204 395 201 395

C197 395 194 397 194 402

C194 406 197 409 201 409

C203 409 205 408 206 407

Z

M265 407

C268 404 268 401 267 398

C262 392 253 395 253 402

C253 408 262 411 265 407

Z

M321 407

C322 406 323 405 323 402

C323 397 321 395 316 395

C312 395 309 398 309 402

C309 408 316 411 321 407

Z

M381 406

C383 403 383 402 382 399

C380 394 371 394 369 399

C368 402 368 403 370 406

C372 408 373 409 376 409

C378 409 379 408 381 406

Z

M437 407

C439 404 439 399 436 397

C432 393 424 395 424 402

C424 408 432 411 437 407

Z

M496 407

C499 404 499 400 496 397

C493 394 488 394 485 398

C482 401 482 403 485 406

C488 410 492 410 496 407

Z

M552 406

C555 403 555 401 552 398

C548 394 544 394 541 397

C538 400 538 403 541 406

C543 408 544 409 547 409

C549 409 550 408 552 406

Z

M20 398

C23 396 23 391 20 388

C15 384 8 387 8 393

C8 400 15 403 20 398

Z

M106 398

C109 395 108 392 106 389

C103 385 99 385 95 388

C93 391 92 393 94 396

C96 401 103 402 106 398

Z

M135 398

C138 396 138 394 138 392

C136 386 130 384 125 388

C120 393 124 401 131 401

C132 401 134 400 135 398

Z

M221 398

C227 391 218 382 211 388

C208 391 208 396 211 399

C215 402 218 401 221 398

Z

M248 400

C250 399 251 397 252 396

C254 392 252 388 248 387

C240 384 234 395 242 399

C245 401 245 401 248 400

Z

M336 398

C339 396 339 391 336 388

C332 384 324 387 324 393

C324 400 331 403 336 398

Z

M366 398

C369 395 368 392 366 389

C363 385 359 385 355 388

C353 391 352 393 354 396

C356 401 363 402 366 398

Z

M451 398

C454 396 454 391 451 388

C447 384 439 387 439 393

C439 400 446 403 451 398

Z

M481 398

C487 391 478 382 471 388

C468 391 468 396 471 399

C475 402 478 401 481 398

Z

M566 398

C569 396 569 394 569 392

C567 386 561 384 556 388

C551 393 555 401 562 401

C563 401 565 400 566 398

Z

M63 393

C67 388 64 381 58 381

C54 381 51 384 51 388

C51 394 58 397 63 393

Z

M178 393

C181 390 181 385 178 382

C173 378 166 381 166 388

C166 392 169 395 173 395

C175 395 177 394 178 393

Z

M293 393

C296 391 296 386 293 383

C289 378 281 381 281 388

C281 394 288 397 293 393

Z

M408 394

C415 389 408 378 400 381

C395 384 395 389 398 393

C401 395 405 396 408 394

Z

M524 392

C526 389 526 388 525 385

C522 379 515 379 512 385

C511 388 511 389 513 392

C515 394 516 395 519 395

C521 395 522 394 524 392

Z

M121 390

C124 386 123 380 118 378

C113 376 108 379 108 385

C108 388 112 392 116 392

C117 392 119 391 121 390

Z

M236 390

C239 386 238 380 233 378

C228 376 223 380 223 386

C223 388 228 392 231 392

C232 392 234 391 236 390

Z

M351 390

C355 386 353 379 347 377

C343 377 339 381 339 385

C339 391 346 394 351 390

Z

M466 390

C469 387 469 382 465 379

C464 378 462 377 461 377

C458 377 454 381 454 385

C454 391 461 394 466 390

Z

M48 384

C51 382 51 377 48 374

C44 370 36 373 36 379

C36 386 43 389 48 384

Z

M78 384

C81 381 80 378 78 375

C73 368 63 374 66 382

C68 387 75 388 78 384

Z

M163 384

C168 380 164 372 158 372

C155 372 151 376 151 379

C151 386 158 389 163 384

Z

M193 384

C199 377 190 369 183 374

C182 375 181 376 181 379

C181 386 189 389 193 384

Z

M278 384

C281 382 281 380 281 378

C279 372 272 370 268 375

C265 379 266 384 270 386

C274 387 275 387 278 384

Z

M308 384

C311 382 311 377 308 374

C304 370 296 373 296 379

C296 386 303 389 308 384

Z

M392 386

C398 383 397 374 390 372

C382 370 378 382 385 385

C388 387 388 387 392 386

Z

M423 384

C426 382 426 376 423 374

C416 369 408 376 412 383

C414 387 419 388 423 384

Z

M509 384

C512 381 511 378 509 375

C504 368 494 374 497 382

C499 387 506 388 509 384

Z

M536 386

C538 385 539 384 540 382

C543 374 533 368 528 375

C525 379 526 384 530 386

C533 387 534 387 536 386

Z

M32 377

C33 376 34 375 35 373

C37 365 27 360 22 366

C18 373 25 381 32 377

Z

M93 376

C96 372 96 367 91 364

C88 363 87 363 85 364

C82 365 80 369 80 372

C80 374 85 378 88 378

C89 378 91 377 93 376

Z

M147 377

C152 374 151 366 146 364

C143 363 139 364 137 367

C134 374 140 380 147 377

Z

M208 376

C212 372 210 365 204 363

C202 363 200 363 198 366

C195 368 195 370 195 372

C197 378 203 380 208 376

Z

M264 376

C268 372 266 366 261 364

C256 362 251 366 251 371

C251 374 255 378 259 378

C260 378 262 377 264 376

Z

M323 376

C329 370 321 360 314 365

C312 367 311 368 311 371

C311 377 318 380 323 376

Z

M379 375

C382 371 381 366 376 364

C371 362 365 368 367 373

C369 379 376 380 379 375

Z

M438 376

C441 373 441 368 437 365

C433 361 426 365 426 371

C426 375 429 378 433 378

C435 378 437 377 438 376

Z

M494 376

C500 370 492 360 485 365

C482 367 481 370 482 373

C484 378 490 380 494 376

Z

M553 376

C556 373 556 368 553 365

C549 362 546 363 543 366

C537 373 546 382 553 376

Z

M19 366

C22 363 22 361 19 358

C16 354 12 354 8 357

C4 361 5 366 10 368

C14 370 17 369 19 366

Z

M108 366

C111 363 111 361 108 358

C103 351 93 358 96 366

C96 368 102 370 104 369

C105 369 107 368 108 366

Z

M135 365

C136 362 136 361 134 358

C132 356 131 355 129 355

C126 355 125 356 123 358

C121 361 121 362 122 365

C124 370 133 370 135 365

Z

M224 366

C227 361 223 355 218 355

C215 355 214 356 212 358

C210 361 210 362 211 365

C213 370 222 370 224 366

Z

M250 366

C254 359 246 352 239 356

C233 361 238 371 246 369

C248 368 249 367 250 366

Z

M339 367

C343 360 335 352 328 356

C322 361 327 371 335 369

C336 369 338 368 339 367

Z

M364 367

C367 364 366 359 364 357

C360 353 352 356 352 362

C352 369 360 372 364 367

Z

M453 367

C457 362 454 355 448 355

C440 355 438 366 446 369

C448 370 451 369 453 367

Z

M479 367

C482 365 482 360 479 357

C475 353 467 356 467 362

C467 369 474 372 479 367

Z

M568 367

C571 365 571 360 568 357

C564 353 556 356 556 362

C556 369 563 372 568 367

Z

M68 359

C70 353 64 346 60 350

C58 351 57 351 55 350

C54 348 53 348 51 350

C44 353 45 360 53 365

L58 368

L63 365

C65 363 68 360 68 359

Z

M526 363

C531 358 531 352 525 349

C522 348 522 348 521 349

C520 351 518 351 516 350

C514 347 507 352 507 356

C507 359 509 362 514 365

C518 368 518 368 521 366

C522 365 525 364 526 363

Z

M178 365

C184 360 186 355 182 351

C179 348 176 348 175 350

C173 351 172 351 170 350

C169 348 168 348 166 350

C159 353 161 361 170 366

C172 367 174 367 178 365

Z

M293 365

C300 361 301 355 296 351

C292 348 292 347 290 350

C288 351 288 351 286 349

C284 348 284 348 281 349

C275 352 276 359 282 364

C287 368 288 368 293 365

Z

M409 364

C415 359 416 352 410 349

C407 348 407 348 405 349

C403 351 403 351 401 350

C399 347 399 348 395 351

C391 354 391 359 394 362

C398 365 401 367 403 367

C404 367 407 366 409 364

Z

M19 349

C22 346 22 344 19 341

C15 335 6 338 6 345

C6 352 15 355 19 349

Z

M108 349

C109 348 110 346 110 345

C110 342 106 338 103 338

C99 338 95 341 95 345

C95 351 104 354 108 349

Z

M134 349

C135 348 136 346 136 345

C136 342 132 338 129 338

C125 338 121 342 121 345

C121 348 125 352 129 352

C131 352 132 351 134 349

Z

M223 350

C226 347 226 344 223 341

C221 339 220 338 218 338

C214 338 210 342 210 345

C210 346 211 348 212 349

C215 353 220 353 223 350

Z

M249 350

C253 346 250 338 244 338

C240 338 236 342 236 345

C236 346 237 348 238 349

C241 353 246 353 249 350

Z

M338 350

C342 346 339 338 333 338

C329 338 326 341 326 345

C326 351 334 354 338 350

Z

M364 350

C368 346 365 338 359 338

C355 338 352 341 352 345

C352 351 360 354 364 350

Z

M453 350

C457 346 454 338 448 338

C446 338 444 339 443 340

C441 342 440 348 443 350

C445 353 450 353 453 350

Z

M479 350

C483 345 480 338 474 338

C472 338 470 339 469 340

C464 345 468 352 474 352

C477 352 478 351 479 350

Z

M568 350

C570 348 571 342 568 340

C566 337 561 337 558 340

C554 344 557 352 563 352

C565 352 567 351 568 350

Z

M83 345

C84 344 86 342 87 340

L89 336

L86 332

C81 324 75 323 71 329

C70 332 70 332 71 334

C73 336 73 337 72 338

C69 340 70 342 73 345

C75 348 77 348 79 348

C80 347 82 346 83 345

Z

M197 346

C198 346 200 343 202 341

C204 337 204 336 203 334

C201 329 196 325 193 325

C191 325 188 327 186 331

C185 332 186 333 186 334

C188 336 188 339 186 339

C184 339 185 342 188 345

C191 348 194 349 197 346

Z

M313 345

C315 343 317 341 318 339

C319 336 319 336 317 332

C314 327 311 325 308 325

C304 325 299 332 302 334

C303 336 303 337 302 339

C299 341 304 348 309 348

C309 348 311 347 313 345

Z

M426 347

C428 346 430 344 432 341

L435 336

L432 332

C427 324 421 323 417 329

C415 332 415 333 417 334

C418 336 418 337 417 339

C414 341 419 348 423 348

C424 348 425 347 426 347

Z

M543 346

C544 345 546 342 548 340

L550 336

L547 332

C545 329 543 326 541 326

C538 324 534 326 532 329

C531 332 531 332 532 334

C533 336 533 337 532 339

C530 341 532 345 535 347

C538 348 539 348 543 346

Z

M43 344

C46 341 47 339 45 339

C43 339 43 336 45 334

C47 331 43 325 38 325

C35 325 34 326 31 329

C26 335 26 338 32 345

C35 348 40 348 43 344

Z

M156 346

C157 346 159 344 160 343

C161 340 161 340 159 338

C158 336 158 336 159 334

C161 332 161 332 160 329

C158 326 156 325 152 325

C149 325 146 327 143 333

C142 336 142 336 144 340

C147 346 152 348 156 346

Z

M271 346

C272 346 274 344 275 343

C276 340 276 340 274 338

C273 336 273 336 275 334

C276 332 276 332 275 329

C271 323 264 324 260 331

L257 336

L259 340

C263 347 267 348 271 346

Z

M389 344

C391 341 391 341 390 339

C389 336 389 336 390 333

C391 331 391 331 389 328

C387 325 382 324 379 326

C378 326 376 329 375 331

L372 336

L375 341

C378 346 379 347 384 347

C386 347 388 346 389 344

Z

M504 344

C506 341 506 341 505 339

C504 336 504 336 505 333

C506 331 506 331 504 328

C500 323 494 324 490 331

L487 336

L490 340

C493 346 495 347 499 347

C501 347 503 346 504 344

Z

M64 341

C67 336 64 329 58 329

C50 329 48 340 55 343

C58 344 62 343 64 341

Z

M178 341

C181 339 181 334 178 331

C174 327 166 330 166 336

C166 343 173 346 178 341

Z

M293 341

C296 338 296 333 293 331

C288 327 281 330 281 336

C281 343 288 346 293 341

Z

M409 340

C414 333 405 325 398 331

C394 335 395 340 400 342

C404 344 407 343 409 340

Z

M525 339

C526 336 526 335 524 332

C522 330 521 329 519 329

C516 329 515 330 513 332

C511 335 511 336 512 339

C514 344 523 344 525 339

Z

M19 332

C22 329 22 327 19 324

C15 318 6 321 6 328

C6 334 15 338 19 332

Z

M108 332

C109 331 110 329 110 328

C110 327 109 325 108 324

C104 319 95 321 95 327

C95 331 99 335 103 335

C105 335 106 334 108 332

Z

M134 332

C138 327 135 321 129 321

C125 321 124 322 122 325

C121 328 121 329 123 332

C126 336 131 336 134 332

Z

M223 332

C226 329 226 326 223 323

C220 320 215 320 212 324

C211 325 210 327 210 328

C210 331 214 335 218 335

C220 335 221 334 223 332

Z

M249 333

C253 328 250 321 244 321

C241 321 240 322 238 324

C233 331 242 339 249 333

Z

M338 333

C342 328 339 321 333 321

C328 321 326 324 326 328

C326 334 333 337 338 333

Z

M364 333

C366 331 367 326 364 323

C363 322 362 321 359 321

C354 321 352 324 352 328

C352 334 360 337 364 333

Z

M453 333

C455 331 456 326 453 323

C452 320 446 320 443 323

C440 325 440 331 443 333

C446 336 451 335 453 333

Z

M479 333

C481 331 482 325 479 323

C477 321 471 320 469 323

C466 325 466 330 469 333

C470 334 472 335 474 335

C476 335 478 334 479 333

Z

M568 333

C570 331 571 325 568 323

C566 320 560 320 558 323

C554 328 557 335 563 335

C565 335 567 334 568 333

Z

M56 323

C57 321 58 321 60 323

C63 324 63 324 65 323

C71 319 70 312 63 308

L58 305

L54 307

C48 310 47 313 47 317

C47 319 48 321 50 322

C53 324 54 325 56 323

Z

M171 322

C173 321 173 321 175 322

C177 324 178 324 181 322

C183 321 184 319 184 317

C184 313 183 310 177 307

L173 305

L169 307

C161 312 160 317 164 322

C167 324 169 325 171 322

Z

M286 322

C288 321 289 321 290 322

C292 325 293 324 297 322

C302 317 300 311 292 307

L288 305

L284 307

C276 313 274 319 282 323

C284 324 284 324 286 322

Z

M402 322

C403 321 403 321 405 323

C407 324 407 324 410 323

C411 322 413 320 414 319

C415 316 415 316 414 313

C413 312 411 309 408 308

L404 305

L400 307

C391 311 390 319 397 323

C399 324 400 324 402 322

Z

M516 323

C516 321 519 321 520 323

C523 325 530 321 530 316

C530 314 526 309 522 307

C518 305 518 305 514 307

C507 312 505 316 510 321

C513 324 516 325 516 323

Z

M17 317

C22 314 21 306 16 304

C13 303 9 304 7 307

C4 314 10 320 17 317

Z

M108 316

C110 313 111 311 109 308

C107 304 103 302 99 304

C94 307 94 311 97 315

C100 319 104 319 108 316

Z

M134 316

C138 312 136 306 131 304

C126 302 121 306 121 311

C121 314 125 318 129 318

C130 318 132 317 134 316

Z

M223 315

C226 311 226 307 221 304

C217 302 213 304 211 308

C209 311 210 313 212 316

C216 319 220 319 223 315

Z

M249 315

C252 311 251 306 246 304

C241 302 235 308 237 313

C239 319 246 320 249 315

Z

M338 316

C342 312 340 305 334 303

C332 303 330 303 328 306

C325 308 325 310 325 312

C327 318 333 320 338 316

Z

M364 316

C368 311 365 304 359 304

C352 304 349 311 354 316

C357 319 361 319 364 316

Z

M453 316

C458 312 454 304 448 304

C444 304 441 307 441 311

C441 317 448 320 453 316

Z

M479 316

C482 313 482 308 479 305

C474 301 467 304 467 311

C467 315 470 318 474 318

C476 318 478 317 479 316

Z

M568 316

C571 313 571 308 568 305

C563 301 556 304 556 311

C556 315 559 318 563 318

C565 318 567 317 568 316

Z

M94 306

C97 302 93 295 88 295

C85 295 84 296 82 298

C80 301 79 303 82 306

C85 310 90 310 94 306

Z

M149 306

C152 303 152 301 149 298

C146 294 142 294 138 297

C134 301 135 306 140 308

C144 310 147 309 149 306

Z

M209 306

C212 301 208 295 202 295

C195 295 193 306 200 309

C203 310 208 308 209 306

Z

M265 305

C266 302 266 301 264 298

C262 296 261 295 259 295

C256 295 255 296 253 298

C251 301 251 302 252 305

C254 310 263 310 265 305

Z

M380 306

C384 298 373 291 368 298

C367 299 366 301 366 302

C366 304 369 308 371 309

C374 310 379 308 380 306

Z

M34 307

C36 304 36 299 33 297

C26 291 17 299 23 307

C25 310 31 310 34 307

Z

M323 307

C324 306 325 303 325 302

C325 296 318 293 313 297

C310 298 310 304 313 307

C315 310 321 310 323 307

Z

M438 307

C441 305 441 300 438 297

C434 293 426 296 426 302

C426 306 429 309 433 309

C435 309 437 308 438 307

Z

M494 307

C495 306 496 303 496 302

C496 296 489 293 484 297

C481 298 481 304 484 307

C486 310 492 310 494 307

Z

M554 307

C558 302 554 295 548 295

C542 295 539 303 543 307

C546 310 551 310 554 307

Z

M47 299

C51 296 51 291 47 288

C46 287 44 286 43 286

C40 286 36 290 36 294

C36 297 40 301 43 301

C44 301 46 300 47 299

Z

M78 299

C79 297 80 295 80 294

C80 291 76 286 74 286

C70 286 67 288 66 291

C65 293 65 294 66 297

C69 302 74 302 78 299

Z

M162 300

C167 296 166 289 161 287

C158 286 157 286 154 288

C152 290 151 291 151 294

C151 299 158 303 162 300

Z

M192 299

C194 297 195 296 195 294

C195 290 191 286 188 286

C185 286 181 290 181 293

C181 297 182 298 185 300

C187 301 189 301 192 299

Z

M278 299

C283 295 280 286 273 286

C270 286 266 290 266 294

C266 297 270 301 273 301

C275 301 277 300 278 299

Z

M307 299

C311 296 311 291 307 288

C306 287 304 286 303 286

C300 286 296 290 296 294

C296 297 300 301 303 301

C304 301 306 300 307 299

Z

M394 299

C395 297 396 295 396 294

C396 292 395 290 394 288

C392 287 390 286 389 286

C387 286 385 287 383 288

C382 290 381 292 381 294

C381 295 382 297 383 299

C385 300 387 301 389 301

C390 301 392 300 394 299

Z

M422 300

C428 295 425 286 417 286

C415 286 411 291 411 294

C411 299 418 303 422 300

Z

M509 299

C510 297 511 295 511 294

C511 292 510 290 509 288

C505 284 499 286 497 291

C496 293 496 294 497 297

C500 302 505 302 509 299

Z

M538 299

C543 295 540 286 533 286

C530 286 526 290 526 294

C526 297 530 301 533 301

C535 301 537 300 538 299

Z

M121 292

C122 291 123 289 123 288

C123 285 119 281 116 281

C112 281 108 285 108 288

C108 295 117 297 121 292

Z

M236 293

C239 290 239 287 236 284

C234 282 233 281 231 281

C227 281 223 285 223 288

C223 289 224 291 225 292

C228 296 233 296 236 293

Z

M351 293

C355 289 352 281 346 281

C342 281 339 284 339 288

C339 294 347 297 351 293

Z

M466 293

C470 289 467 281 461 281

C457 281 454 284 454 288

C454 290 455 292 456 293

C458 296 463 296 466 293

Z

M63 290

C67 286 64 278 58 278

C53 278 51 280 51 285

C51 288 52 289 53 290

C56 293 61 292 63 290

Z

M178 290

C180 288 181 282 178 280

C176 278 170 277 168 280

C165 282 165 287 168 290

C169 291 171 292 173 292

C175 292 177 291 178 290

Z

M293 290

C296 288 296 283 294 280

C289 275 281 279 281 285

C281 291 288 294 293 290

Z

M409 289

C410 288 411 286 411 285

C411 284 410 282 409 281

C405 275 396 278 396 285

C396 291 405 295 409 289

Z

M524 289

C530 282 519 273 513 281

C510 284 510 286 513 289

C516 293 521 293 524 289

Z

M19 285

C22 283 22 282 22 279

C21 270 8 270 8 279

C8 283 9 284 12 286

C14 287 16 287 19 285

Z

M106 285

C107 283 108 281 108 280

C108 276 104 272 101 272

C97 272 94 275 93 279

C93 281 93 282 95 284

C99 288 102 288 106 285

Z

M133 286

C134 286 136 284 137 283

C139 278 135 272 129 272

C127 272 123 277 123 280

C123 284 129 288 133 286

Z

M221 285

C222 283 223 281 223 280

C223 276 219 272 216 272

C211 272 207 278 209 282

C211 287 217 289 221 285

Z

M251 285

C252 283 253 281 253 280

C253 276 249 272 246 272

C242 272 238 276 238 280

C238 283 242 287 246 287

C247 287 249 286 251 285

Z

M335 285

C339 282 339 277 335 274

C334 273 332 272 331 272

C328 272 324 276 324 280

C324 283 328 287 331 287

C332 287 334 286 335 285

Z

M366 285

C367 283 368 281 368 280

C368 276 364 272 361 272

C357 272 354 275 354 280

C354 286 361 289 366 285

Z

M449 286

C452 284 453 283 453 279

C453 276 449 272 446 272

C445 272 443 273 442 274

C438 277 438 282 442 285

C445 287 446 287 449 286

Z

M480 285

C484 282 484 278 481 274

C478 272 476 271 473 273

C469 275 467 279 469 283

C472 288 476 288 480 285

Z

M565 286

C568 284 569 280 568 277

C565 272 560 271 556 274

C555 276 554 278 554 280

C554 281 555 283 556 285

C559 287 562 288 565 286

Z

M35 276

C39 272 36 264 30 264

C23 264 20 271 24 276

C27 279 32 279 35 276

Z

M91 276

C95 272 92 264 86 264

C82 264 79 267 79 271

C79 277 87 280 91 276

Z

M150 276

C152 274 153 268 150 266

C148 263 143 263 140 266

C136 270 139 278 145 278

C147 278 149 277 150 276

Z

M206 276

C210 272 207 264 201 264

C199 264 197 265 196 266

C194 268 193 274 196 276

C198 279 203 279 206 276

Z

M265 276

C270 271 267 264 260 264

C254 264 251 271 255 276

C258 279 263 279 265 276

Z

M321 276

C322 275 323 274 323 271

C323 267 321 264 316 264

C312 264 309 267 309 271

C309 277 316 280 321 276

Z

M381 275

C382 274 383 272 383 271

C383 268 379 264 376 264

C372 264 368 268 368 271

C368 274 372 278 376 278

C378 278 379 277 381 275

Z

M437 276

C441 271 438 264 431 264

C427 264 424 267 424 271

C424 277 432 281 437 276

Z

M496 276

C500 271 497 264 491 264

C487 264 483 268 483 271

C483 272 484 274 485 275

C488 279 492 279 496 276

Z

M552 275

C553 274 554 272 554 271

C554 270 553 268 552 267

C548 262 539 264 539 271

C539 274 543 278 547 278

C549 278 550 277 552 275

Z

M50 268

C51 266 52 264 52 263

C52 259 48 255 45 255

C42 255 37 259 37 261

C37 269 45 272 50 268

Z

M75 268

C81 264 77 255 71 255

C64 255 62 264 67 268

C68 269 70 270 71 270

C72 270 74 269 75 268

Z

M164 268

C166 266 167 265 167 263

C167 259 163 255 160 255

C157 255 153 259 153 263

C153 266 157 270 160 270

C161 270 163 269 164 268

Z

M190 268

C195 264 193 255 186 255

C183 255 179 259 179 263

C179 266 183 270 186 270

C187 270 189 269 190 268

Z

M279 268

C284 264 282 255 276 255

C269 255 265 264 271 268

C272 269 274 270 275 270

C276 270 278 269 279 268

Z

M304 269

C308 267 309 263 308 260

C306 255 301 254 297 257

C293 260 293 264 296 268

C299 270 301 271 304 269

Z

M393 269

C400 266 398 255 390 255

C387 255 383 259 383 263

C383 265 387 270 389 270

C390 270 392 269 393 269

Z

M422 268

C422 267 423 265 424 263

C424 261 424 260 422 258

C418 254 415 254 411 257

C408 261 408 264 412 268

C414 270 415 270 417 270

C419 269 421 268 422 268

Z

M511 268

C512 266 513 264 513 263

C513 261 512 259 511 257

C509 256 507 255 506 255

C504 255 502 256 500 257

C499 259 498 261 498 263

C498 264 499 266 500 268

C502 269 504 270 506 270

C507 270 509 269 511 268

Z

M537 268

C538 266 539 264 539 263

C539 259 535 255 532 255

C529 255 524 259 524 261

C524 269 532 272 537 268

Z

M119 265

C122 264 124 262 125 261

C127 259 126 254 124 251

C121 249 120 248 117 250

C116 251 115 251 113 250

C110 249 110 249 107 251

C104 253 103 258 106 261

C107 263 114 268 115 268

C115 268 117 267 119 265

Z

M240 260

C242 257 242 256 241 254

C239 250 236 248 233 250

C231 251 230 251 228 250

C223 247 217 254 220 259

C220 261 223 263 226 265

L230 268

L234 266

C237 264 239 262 240 260

Z

M355 261

C358 258 357 254 355 251

C352 249 349 248 347 250

C346 251 345 251 343 250

C341 249 340 249 338 250

C335 252 333 256 335 259

C335 261 338 263 341 265

L345 268

L349 266

C351 265 354 262 355 261

Z

M470 261

C473 258 472 254 470 251

C467 249 464 248 462 250

C461 251 460 251 459 250

C455 248 452 250 450 254

C448 258 450 261 456 265

L460 268

L464 266

C466 264 469 262 470 261

Z

M50 250

C51 249 52 247 52 245

C52 242 48 238 45 238

C42 238 37 242 37 244

C37 252 46 255 50 250

Z

M76 250

C79 248 79 243 76 240

C71 236 64 239 64 245

C64 252 71 255 76 250

Z

M165 250

C168 248 168 243 165 240

C161 236 153 239 153 245

C153 252 160 255 165 250

Z

M190 251

C196 247 193 238 186 238

C178 238 176 249 184 252

C187 253 188 253 190 251

Z

M279 251

C285 247 282 238 275 238

C268 238 265 249 272 252

C276 253 276 253 279 251

Z

M306 250

C309 248 309 246 309 244

C307 238 301 236 296 240

C291 245 295 253 302 253

C303 253 305 252 306 250

Z

M393 252

C395 251 396 250 397 248

C400 240 390 234 385 241

C382 245 383 250 387 252

C390 253 391 253 393 252

Z

M419 252

C421 251 422 249 423 248

C427 239 414 234 410 243

C408 246 410 250 413 252

C416 253 416 253 419 252

Z

M509 251

C515 249 514 241 508 239

C500 236 494 247 502 251

C505 253 505 253 509 251

Z

M537 250

C538 249 539 247 539 245

C539 242 535 238 532 238

C529 238 524 242 524 244

C524 252 533 255 537 250

Z

M26 245

C27 243 29 241 30 239

C31 236 31 236 28 232

C27 229 24 227 23 226

C20 225 20 225 17 226

C16 227 14 229 13 230

C12 232 12 233 13 234

C15 237 15 237 14 239

C11 241 12 242 15 245

C19 249 22 249 26 245

Z

M97 247

C99 247 101 245 102 243

C103 241 103 241 102 238

C101 236 101 236 102 234

C104 230 100 225 95 225

C92 225 89 228 86 233

C84 236 84 236 86 241

C88 243 90 246 92 246

C95 248 94 248 97 247

Z

M139 247

C140 246 142 244 144 241

L147 237

L144 232

C141 227 137 224 133 226

C129 227 127 231 129 235

C130 237 130 237 129 239

C127 240 127 241 129 243

C131 248 135 249 139 247

Z

M217 243

C218 241 218 241 217 238

C216 237 216 236 217 235

C219 233 218 230 216 227

C211 223 205 225 201 233

L199 237

L202 241

C204 244 206 246 208 247

C211 248 215 247 217 243

Z

M255 246

C256 245 259 242 260 240

L262 236

L259 232

C256 226 252 224 248 226

C244 228 242 231 244 235

C245 236 245 237 244 238

C242 240 243 243 245 246

C248 248 252 249 255 246

Z

M329 247

C333 245 334 241 332 239

C331 237 331 236 332 234

C335 232 330 225 326 225

C323 225 320 227 317 232

C314 236 314 236 316 239

C319 244 323 247 326 248

C326 248 327 247 329 247

Z

M370 246

C371 246 373 243 375 241

L377 237

L375 233

C373 229 369 225 366 225

C364 225 359 229 358 231

C358 232 358 234 359 235

C361 237 361 237 360 238

C357 240 358 242 360 245

C363 248 367 249 370 246

Z

M443 247

C445 247 447 245 447 243

C449 240 449 240 448 238

C446 236 446 236 448 234

C450 232 449 232 446 228

C442 223 435 225 432 233

L430 237

L433 241

C434 244 437 246 438 247

C441 248 440 248 443 247

Z

M486 246

C487 244 489 242 490 240

L492 236

L489 232

C488 230 485 227 484 226

C481 225 481 225 478 226

C477 227 475 229 474 230

C473 232 473 233 474 234

C476 236 476 236 474 239

C473 241 473 242 476 246

C479 249 482 249 486 246

Z

M562 244

C564 242 565 239 563 239

C561 239 561 236 563 234

C564 232 564 232 563 229

C561 226 557 224 553 225

C551 226 545 234 545 236

C545 238 551 245 553 247

C556 248 559 248 562 244

Z

M121 242

C121 241 122 239 123 237

C123 235 123 234 121 232

C117 228 114 228 110 231

C107 235 107 238 111 242

C113 244 114 244 116 244

C118 243 120 242 121 242

Z

M236 242

C237 240 238 238 238 237

C238 235 237 233 236 231

C234 230 232 229 231 229

C228 229 223 233 223 235

C223 243 231 246 236 242

Z

M351 242

C352 240 353 238 353 237

C353 235 352 233 351 231

C347 228 342 228 339 233

C336 241 345 247 351 242

Z

M465 242

C471 238 467 229 460 229

C454 229 452 238 457 242

C458 243 460 244 461 244

C462 244 464 243 465 242

Z

M50 233

C54 229 51 221 45 221

C41 221 37 225 37 228

C37 229 38 231 39 232

C42 236 47 236 50 233

Z

M76 233

C80 228 77 221 71 221

C65 221 62 229 66 233

C68 236 74 236 76 233

Z

M165 233

C168 231 168 226 165 223

C161 219 153 222 153 228

C153 230 154 232 155 233

C157 235 163 236 165 233

Z

M191 233

C194 231 194 226 191 223

C187 219 179 222 179 228

C179 232 182 235 186 235

C188 235 190 234 191 233

Z

M280 233

C283 231 283 225 280 223

C273 218 265 226 270 233

C271 236 277 236 280 233

Z

M307 233

C309 230 309 225 306 223

C299 217 290 227 296 233

C299 236 304 236 307 233

Z

M396 232

C398 229 398 226 395 223

C392 219 383 222 383 228

C383 235 392 238 396 232

Z

M422 232

C423 231 424 229 424 228

C424 227 423 225 422 224

C418 218 409 222 409 229

C409 235 418 237 422 232

Z

M510 233

C515 229 512 222 506 222

C503 222 501 222 500 224

C496 229 499 235 506 235

C507 235 510 234 510 233

Z

M537 233

C541 229 538 221 532 221

C528 221 524 225 524 228

C524 229 525 231 526 232

C529 236 534 236 537 233

Z

M114 223

C115 222 116 222 118 223

C120 224 121 224 123 223

C126 221 128 217 126 214

C126 212 123 210 120 208

L116 205

L112 207

C104 212 102 217 106 222

C109 224 112 225 114 223

Z

M229 223

C230 222 230 222 232 223

C235 225 237 224 240 222

C244 217 242 211 234 207

L230 205

L226 208

C219 212 217 218 222 222

C225 224 227 225 229 223

Z

M344 223

C345 222 346 222 348 223

C351 224 351 224 354 222

C357 220 358 215 355 212

C354 211 352 209 350 207

L346 205

L341 208

C336 211 335 213 335 217

C335 219 336 221 338 222

C341 224 341 224 344 223

Z

M459 223

C460 222 461 222 463 223

C466 224 466 224 469 222

C471 221 472 219 472 217

C472 213 471 211 465 208

L461 205

L457 208

C451 211 450 213 450 217

C450 219 451 220 453 222

C456 224 456 224 459 223

Z

M50 216

C54 211 51 204 45 204

C41 204 37 208 37 211

C37 212 38 214 39 215

C42 219 46 219 50 216

Z

M76 216

C80 212 77 204 71 204

C69 204 67 205 66 206

C64 208 63 214 66 216

C68 219 73 219 76 216

Z

M165 216

C169 212 166 204 160 204

C156 204 153 207 153 211

C153 214 154 215 155 216

C158 219 163 218 165 216

Z

M191 216

C193 214 194 208 191 206

C189 203 184 203 181 206

C177 210 180 218 186 218

C188 218 190 217 191 216

Z

M280 216

C282 214 283 208 280 206

C278 203 273 203 270 206

C266 210 269 218 275 218

C277 218 279 217 280 216

Z

M307 216

C311 211 308 204 301 204

C297 204 294 207 294 211

C294 217 302 221 307 216

Z

M396 215

C397 214 398 212 398 211

C398 210 397 208 396 207

C392 201 383 204 383 211

C383 218 392 221 396 215

Z

M422 215

C423 214 424 212 424 211

C424 208 420 204 417 204

C413 204 409 207 409 211

C409 214 413 218 417 218

C419 218 420 217 422 215

Z

M511 215

C512 214 513 212 513 211

C513 208 509 204 506 204

C502 204 498 208 498 211

C498 214 502 218 506 218

C508 218 509 217 511 215

Z

M537 216

C541 211 538 204 531 204

C528 204 524 208 524 211

C524 212 525 214 526 215

C529 219 533 219 537 216

Z

M35 208

C38 204 38 200 34 197

C30 194 26 194 23 199

C20 207 29 213 35 208

Z

M91 208

C94 204 94 200 90 197

C86 194 82 194 79 199

C76 206 85 213 91 208

Z

M149 208

C153 205 153 200 150 197

C146 193 138 196 138 203

C138 205 139 206 141 208

C144 211 146 211 149 208

Z

M205 208

C210 204 207 195 201 195

C194 195 191 204 197 208

C198 209 200 210 201 210

C202 210 204 209 205 208

Z

M263 209

C270 206 268 195 260 195

C257 195 253 199 253 203

C253 205 257 210 259 210

C260 210 262 209 263 209

Z

M320 208

C325 204 323 195 317 195

C310 195 306 204 312 208

C313 209 315 210 316 210

C317 210 319 209 320 208

Z

M381 207

C382 206 383 204 383 202

C383 199 379 195 376 195

C372 195 368 199 368 202

C368 209 377 212 381 207

Z

M434 209

C438 207 439 203 438 200

C436 195 431 194 427 197

C423 200 423 204 426 208

C429 210 431 211 434 209

Z

M496 208

C497 206 498 204 498 203

C498 199 494 195 491 195

C481 195 481 210 491 210

C492 210 494 209 496 208

Z

M552 208

C552 207 553 205 554 203

C554 201 554 200 552 198

C548 194 545 194 541 197

C538 201 538 204 542 208

C544 210 545 210 547 210

C549 209 551 208 552 208

Z

M20 199

C24 195 21 187 15 187

C11 187 8 189 8 194

C8 198 11 201 15 201

C17 201 19 200 20 199

Z

M106 198

C109 194 109 190 104 187

C100 186 96 187 94 191

C92 194 93 196 95 199

C99 202 103 202 106 198

Z

M135 199

C138 196 139 193 136 189

C133 186 128 186 125 189

C119 196 128 205 135 199

Z

M221 199

C225 194 222 187 216 187

C209 187 206 195 211 199

C214 202 218 201 221 199

Z

M251 198

C253 195 253 194 252 191

C249 184 238 186 238 194

C238 197 242 201 246 201

C248 201 249 200 251 198

Z

M336 199

C339 196 339 191 336 188

C331 184 324 187 324 194

C324 198 327 201 331 201

C333 201 335 200 336 199

Z

M366 198

C369 194 369 190 364 187

C360 186 356 187 354 191

C352 194 353 196 355 199

C359 202 363 202 366 198

Z

M451 199

C454 196 454 191 451 188

C448 186 443 186 441 189

C437 194 440 201 446 201

C448 201 450 200 451 199

Z

M481 199

C485 194 482 187 476 187

C469 187 466 195 471 199

C474 202 478 201 481 199

Z

M566 199

C569 196 570 193 567 189

C564 186 559 186 556 189

C550 196 559 205 566 199

Z

M63 193

C69 186 59 177 53 183

C50 186 50 191 54 194

C57 197 60 196 63 193

Z

M177 194

C183 190 180 181 173 181

C166 181 163 190 169 194

C170 195 172 196 173 196

C174 196 176 195 177 194

Z

M292 194

C298 189 295 181 288 181

C282 181 279 189 283 194

C287 197 289 197 292 194

Z

M406 195

C408 194 409 192 410 191

C412 185 406 179 401 182

C395 184 395 192 400 195

C403 196 403 196 406 195

Z

M522 194

C528 192 527 184 521 182

C513 179 507 190 515 194

C518 196 518 196 522 194

Z

M122 188

C123 185 123 184 121 181

C116 174 106 181 109 189

C109 189 111 191 112 191

C116 193 120 192 122 188

Z

M237 189

C240 184 236 178 231 178

C228 178 223 182 223 185

C223 187 226 191 228 192

C231 193 236 191 237 189

Z

M351 190

C354 187 353 183 351 180

C347 176 339 179 339 185

C339 192 347 195 351 190

Z

M466 190

C469 188 469 183 466 180

C462 176 454 179 454 185

C454 192 461 195 466 190

Z

M48 185

C51 182 51 177 48 174

C43 170 36 173 36 180

C36 184 39 187 43 187

C45 187 47 186 48 185

Z

M78 185

C82 180 79 173 73 173

C69 173 65 177 65 181

C67 187 73 189 78 185

Z

M163 185

C168 180 165 173 158 173

C152 173 149 180 153 185

C156 188 160 188 163 185

Z

M193 185

C197 181 194 173 188 173

C184 173 181 175 181 180

C181 187 188 189 193 185

Z

M278 185

C281 182 282 179 279 175

C276 172 271 172 268 175

C262 182 271 191 278 185

Z

M308 185

C311 182 311 177 308 174

C303 170 296 173 296 180

C296 184 299 187 303 187

C305 187 307 186 308 185

Z

M394 185

C395 183 396 181 396 181

C396 175 390 171 386 173

C381 176 380 180 383 184

C386 188 390 188 394 185

Z

M423 185

C426 183 426 177 423 174

C420 172 415 172 413 175

C407 182 416 190 423 185

Z

M509 184

C513 180 511 174 505 172

C503 172 501 172 499 175

C495 178 495 181 498 185

C502 188 506 188 509 184

Z

M539 185

C542 181 542 178 538 175

C536 172 534 172 532 172

C526 174 524 180 528 184

C531 188 535 188 539 185

Z

M33 176

C36 173 36 168 33 166

C27 161 18 168 22 175

C24 179 30 180 33 176

Z

M91 178

C96 175 96 171 93 167

C90 163 86 163 82 166

C81 168 80 170 80 170

C80 173 82 177 84 178

C87 179 88 179 91 178

Z

M149 175

C155 169 145 160 138 166

C135 170 136 176 140 178

C143 179 146 178 149 175

Z

M208 176

C211 173 210 169 208 166

C202 160 192 168 197 175

C200 179 205 180 208 176

Z

M261 178

C264 177 266 173 266 171

C266 170 265 168 264 167

C262 164 261 164 258 164

C251 165 249 174 255 177

C258 179 258 179 261 178

Z

M323 176

C327 171 324 164 318 164

C310 164 308 175 316 178

C318 179 321 178 323 176

Z

M379 176

C382 173 381 169 379 166

C376 163 372 163 368 166

C366 169 365 172 368 175

C371 179 376 180 379 176

Z

M438 176

C441 174 441 169 438 166

C434 162 426 165 426 171

C426 178 433 181 438 176

Z

M494 176

C497 173 496 169 494 166

C490 162 482 165 482 171

C482 178 490 181 494 176

Z

M553 176

C556 173 556 168 553 166

C547 161 538 168 542 175

C544 179 550 180 553 176

Z

M17 169

C22 166 21 158 16 156

C9 153 3 162 8 168

C11 170 14 171 17 169

Z

M108 168

C110 165 111 163 109 160

C106 153 95 155 95 163

C95 166 99 170 103 170

C104 170 106 169 108 168

Z

M134 168

C137 164 137 159 132 156

C124 152 117 161 123 168

C125 169 127 170 129 170

C130 170 132 169 134 168

Z

M223 168

C226 164 225 158 220 156

C215 154 210 158 210 164

C210 166 215 170 218 170

C219 170 221 169 223 168

Z

M249 168

C252 164 251 158 246 156

C241 154 235 160 237 165

C239 170 245 172 249 168

Z

M338 168

C342 164 340 157 334 155

C332 155 330 155 328 158

C325 160 325 162 325 164

C327 170 333 172 338 168

Z

M364 168

C370 162 362 152 355 157

C352 159 351 162 352 165

C354 170 360 172 364 168

Z

M453 168

C456 165 456 160 452 157

C451 156 449 155 448 155

C445 155 441 159 441 163

C441 169 448 172 453 168

Z

M479 168

C482 165 482 160 478 157

C477 156 475 155 474 155

C471 155 467 159 467 163

C467 169 475 172 479 168

Z

M568 168

C571 165 571 160 567 157

C566 156 564 155 563 155

C560 155 556 159 556 163

C556 169 564 172 568 168

Z

M62 166

C69 161 71 156 67 152

C64 149 61 149 59 150

C58 152 58 152 56 150

C54 148 51 149 48 153

C45 156 45 158 48 161

C50 163 56 168 58 168

C58 168 60 167 62 166

Z

M176 166

C184 161 186 156 182 151

C179 149 177 148 175 151

C173 152 172 152 171 150

C169 149 169 149 166 150

C162 152 161 156 162 159

C163 161 171 168 173 168

C173 168 174 167 176 166

Z

M293 165

C300 161 301 154 295 150

C293 149 293 149 290 150

C288 151 288 151 285 150

C283 149 283 149 280 151

C275 155 276 161 283 165

C285 167 288 168 288 168

C288 168 291 167 293 165

Z

M408 165

C415 161 416 155 411 151

C408 149 408 149 406 150

C403 151 403 151 401 150

C396 147 391 153 392 160

C393 162 401 168 403 168

C403 168 406 167 408 165

Z

M523 165

C529 161 531 158 529 154

C528 153 526 151 525 150

C522 149 522 149 520 150

C519 152 518 152 516 151

C514 148 512 149 509 151

C505 156 507 161 515 166

C518 168 518 168 523 165

Z

M17 152

C24 148 20 138 12 138

C10 138 6 143 6 146

C6 149 10 153 13 153

C14 153 16 153 17 152

Z

M108 150

C110 148 110 147 110 145

C109 141 106 138 102 138

C99 138 95 142 95 146

C95 147 96 149 97 151

C101 154 104 154 108 150

Z

M134 151

C135 149 136 147 136 146

C136 144 135 142 134 140

C132 139 130 138 129 138

C125 138 121 142 121 146

C121 147 122 149 123 151

C125 152 127 153 129 153

C130 153 132 152 134 151

Z

M223 151

C224 149 225 147 225 146

C225 142 221 138 218 138

C214 138 211 141 211 146

C211 152 218 155 223 151

Z

M249 151

C251 148 252 145 250 142

C247 137 240 137 237 142

C233 150 242 157 249 151

Z

M338 151

C339 149 340 147 340 146

C340 143 336 138 334 138

C331 138 327 140 326 143

C325 145 325 146 326 149

C329 154 334 154 338 151

Z

M363 151

C365 149 366 148 366 146

C366 143 365 142 363 140

C360 138 359 138 356 139

C351 141 350 148 355 152

C357 154 360 153 363 151

Z

M452 151

C454 149 455 148 455 146

C455 142 451 138 448 138

C447 138 445 139 444 140

C440 143 440 148 443 151

C446 154 449 154 452 151

Z

M478 151

C482 148 482 143 478 140

C477 139 475 138 474 138

C471 138 467 142 467 146

C467 149 471 153 474 153

C475 153 477 152 478 151

Z

M568 151

C571 148 571 143 567 140

C566 139 564 138 563 138

C560 138 556 142 556 146

C556 148 557 149 559 151

C562 154 565 154 568 151

Z

M41 147

C42 146 44 145 44 143

C46 141 46 140 44 139

C44 138 43 137 43 137

C43 136 44 135 44 134

C46 133 46 132 44 130

C41 123 35 124 30 131

L26 136

L29 141

C33 147 37 149 41 147

Z

M82 147

C83 146 85 144 86 141

L89 137

L87 132

C84 127 81 126 77 126

C75 126 73 127 72 129

C70 132 69 133 72 135

C73 136 73 137 72 139

C69 142 70 143 72 146

C75 148 79 149 82 147

Z

M158 145

C161 142 162 141 160 139

C158 137 158 136 160 134

C161 132 161 132 160 129

C156 123 149 124 145 131

C143 134 142 136 142 137

C142 137 143 139 145 142

C149 149 153 150 158 145

Z

M197 147

C198 146 200 144 202 141

C204 137 204 137 203 134

C199 128 197 126 193 126

C187 126 183 132 187 135

C188 137 188 137 187 139

C185 141 185 141 186 144

C189 148 193 149 197 147

Z

M272 146

C275 144 276 141 274 139

C273 136 273 136 275 134

C276 133 276 132 275 130

C274 129 272 127 271 126

C268 125 268 125 265 126

C264 127 261 129 260 132

L257 136

L258 140

C261 144 265 148 268 148

C269 148 271 147 272 146

Z

M313 146

C314 146 316 143 317 141

C319 136 319 135 315 129

C310 124 304 125 301 130

C300 133 300 133 301 135

C303 137 303 137 302 139

C299 141 300 141 303 145

C306 148 309 149 313 146

Z

M387 146

C391 143 392 140 390 138

C388 137 388 137 390 135

C392 132 390 128 386 126

C382 124 379 126 375 132

L372 136

L374 140

C376 144 380 148 383 148

C384 148 386 147 387 146

Z

M427 147

C428 146 430 144 432 141

C435 137 435 137 433 134

C430 129 427 126 423 126

C418 126 414 132 417 134

C418 136 418 137 417 139

C415 140 415 143 418 146

C421 148 424 149 427 147

Z

M504 145

C506 142 507 140 505 138

C504 137 504 136 505 134

C506 132 506 131 505 129

C503 126 499 124 496 126

C494 126 492 129 490 132

L487 136

L489 140

C494 148 499 150 504 145

Z

M544 145

C546 144 547 141 548 140

C550 137 550 137 547 133

C546 130 544 128 543 127

C541 125 536 126 533 128

C531 131 530 132 532 135

C533 137 533 137 532 139

C531 142 531 142 533 145

C536 149 541 149 544 145

Z

M63 142

C69 136 61 126 54 131

C51 133 50 136 51 139

C53 144 59 146 63 142

Z

M178 142

C181 139 181 134 177 131

C176 130 174 129 173 129

C170 129 166 133 166 137

C166 143 173 146 178 142

Z

M293 142

C295 140 295 138 295 135

C295 133 290 129 288 129

C285 129 281 133 281 137

C281 143 289 146 293 142

Z

M407 143

C412 140 411 132 406 130

C399 127 393 136 398 142

C401 144 404 145 407 143

Z

M524 142

C527 138 527 133 522 130

C514 126 507 135 513 142

C515 143 517 144 519 144

C520 144 522 143 524 142

Z

M16 135

C23 132 21 121 13 121

C10 121 6 125 6 129

C6 131 10 136 12 136

C13 136 15 135 16 135

Z

M105 135

C107 135 110 130 110 128

C110 125 105 121 103 121

C101 121 99 122 97 123

C96 125 95 127 95 129

C95 131 99 136 101 136

C102 136 104 136 105 135

Z

M134 133

C135 132 136 130 136 128

C136 125 132 121 129 121

C125 121 121 125 121 128

C121 135 130 138 134 133

Z

M223 134

C224 132 225 130 225 129

C225 125 221 121 218 121

C215 121 210 125 210 127

C210 135 218 138 223 134

Z

M249 134

C250 132 251 130 251 129

C251 125 247 121 244 121

C234 121 234 136 244 136

C245 136 247 135 249 134

Z

M338 134

C344 127 337 118 329 122

C324 125 325 132 329 135

C333 136 335 136 338 134

Z

M363 134

C367 131 367 126 363 123

C358 118 351 122 352 130

C352 132 357 136 359 136

C360 136 362 135 363 134

Z

M452 134

C458 130 454 121 447 121

C441 121 439 130 444 134

C445 135 447 136 448 136

C449 136 451 135 452 134

Z

M478 134

C484 130 481 121 474 121

C467 121 464 130 470 134

C471 135 473 136 474 136

C475 136 477 135 478 134

Z

M567 134

C572 130 570 121 563 121

C557 121 554 130 559 134

C560 135 562 136 563 136

C564 136 566 135 567 134

Z

M55 124

C56 122 58 122 60 123

C62 126 69 121 69 117

C69 113 67 111 61 107

C58 105 58 105 55 107

C50 110 47 113 47 116

C47 120 48 121 51 123

C54 125 55 125 55 124

Z

M173 122

C173 122 175 123 175 124

C178 126 184 122 184 117

C184 113 181 110 176 107

C173 105 173 105 170 107

C164 111 162 113 162 117

C162 121 168 126 171 123

C172 123 173 122 173 122

Z

M289 122

C289 122 290 123 291 123

C292 125 293 125 295 123

C302 120 301 113 293 108

L288 105

L284 108

C277 112 275 118 279 122

C282 125 284 125 286 123

C287 123 288 122 289 122

Z

M404 122

C404 122 405 123 406 123

C407 125 408 125 410 123

C417 120 416 113 408 108

L403 105

L399 108

C391 113 390 119 396 123

C399 125 400 125 401 123

C402 123 403 122 404 122

Z

M519 122

C519 122 520 123 521 123

C522 125 523 125 526 123

C532 119 531 113 523 108

L519 105

L514 108

C506 113 505 119 511 123

C514 125 515 125 516 123

C517 123 518 122 519 122

Z

M16 118

C18 117 19 116 20 114

C23 106 13 100 8 107

C5 111 6 116 10 118

C13 119 14 119 16 118

Z

M105 118

C108 117 110 113 110 110

C110 108 105 104 102 104

C99 104 95 108 95 111

C95 114 97 117 99 118

C102 119 103 119 105 118

Z

M132 117

C138 115 137 107 131 105

C123 102 117 113 125 117

C128 119 128 119 132 117

Z

M221 118

C226 115 226 111 223 107

C220 103 216 103 212 106

C211 108 210 110 210 110

C210 113 212 117 214 118

C217 119 218 119 221 118

Z

M249 116

C252 113 251 109 249 106

C243 101 234 107 237 114

C239 119 246 120 249 116

Z

M338 116

C344 109 335 100 328 106

C327 107 326 109 325 110

C325 112 325 114 328 116

C330 119 332 119 334 119

C335 118 337 117 338 116

Z

M364 116

C369 110 362 101 355 105

C352 106 351 111 352 114

C355 119 361 120 364 116

Z

M453 116

C456 114 456 109 453 106

C449 102 441 105 441 111

C441 118 448 121 453 116

Z

M479 116

C482 114 482 109 479 106

C475 102 467 105 467 111

C467 118 474 121 479 116

Z

M568 116

C571 114 571 109 568 106

C564 102 556 105 556 111

C556 118 563 121 568 116

Z

M33 108

C35 106 35 104 35 101

C35 99 30 95 28 95

C25 95 21 99 21 103

C21 109 29 112 33 108

Z

M93 108

C96 104 95 98 90 96

C85 94 80 98 80 104

C80 106 85 110 88 110

C89 110 91 109 93 108

Z

M147 109

C152 106 151 98 146 96

C139 93 133 102 138 108

C141 110 144 111 147 109

Z

M207 108

C211 105 211 101 208 97

C205 95 203 94 200 96

C196 98 195 102 196 105

C198 110 203 111 207 108

Z

M264 108

C268 103 265 96 259 96

C254 96 251 99 251 103

C251 106 255 110 259 110

C260 110 262 109 264 108

Z

M323 108

C326 105 326 100 322 97

C321 96 319 95 318 95

C315 95 311 99 311 103

C311 109 318 112 323 108

Z

M379 108

C382 104 381 98 376 96

C371 94 365 100 367 105

C369 110 375 112 379 108

Z

M438 108

C441 105 441 100 437 97

C436 96 434 95 433 95

C430 95 426 99 426 102

C426 109 434 112 438 108

Z

M494 108

C497 105 497 101 494 97

C491 94 488 94 485 97

C483 99 482 100 482 103

C482 109 489 112 494 108

Z

M551 109

C552 109 554 108 555 106

C557 101 553 95 547 95

C545 95 541 100 541 103

C541 108 547 111 551 109

Z

M48 99

C52 94 49 87 43 87

C39 87 36 90 36 94

C36 100 45 104 48 99

Z

M78 99

C82 95 79 87 73 87

C69 87 66 90 66 94

C66 100 74 103 78 99

Z

M164 99

C168 94 165 87 158 87

C154 87 151 90 151 94

C151 100 159 104 164 99

Z

M193 99

C197 95 194 87 188 87

C186 87 184 88 183 89

C181 91 180 97 183 99

C185 102 190 102 193 99

Z

M279 98

C280 97 281 95 281 94

C281 91 277 87 274 87

C270 87 266 90 266 94

C266 101 275 104 279 98

Z

M308 99

C311 97 311 91 308 89

C303 85 296 88 296 94

C296 100 304 103 308 99

Z

M394 98

C395 97 396 95 396 94

C396 91 392 87 389 87

C385 87 381 91 381 94

C381 97 385 101 389 101

C391 101 392 100 394 98

Z

M424 99

C428 94 425 87 418 87

C414 87 411 90 411 94

C411 100 419 104 424 99

Z

M509 99

C513 95 510 87 504 87

C500 87 496 91 496 94

C496 95 497 97 498 98

C501 102 506 102 509 99

Z

M539 98

C540 97 541 95 541 94

C541 91 537 87 534 87

C530 87 526 90 526 94

C526 101 535 104 539 98

Z

M121 93

C123 91 123 90 123 88

C122 84 120 82 116 81

C114 81 113 81 111 83

C107 87 107 90 110 94

C114 97 117 97 121 93

Z

M236 94

C239 90 239 87 235 83

C233 81 232 81 230 81

C226 82 224 84 223 88

C223 90 223 91 225 93

C229 97 232 97 236 94

Z

M351 94

C352 92 353 90 353 89

C353 86 349 81 347 81

C344 81 340 83 339 86

C338 88 338 89 339 92

C342 97 347 97 351 94

Z

M465 94

C467 92 468 91 468 89

C468 85 464 81 461 81

C460 81 458 82 457 83

C453 86 453 91 456 94

C459 97 462 97 465 94

Z

M62 91

C68 87 64 78 58 78

C51 78 49 87 54 91

C55 92 57 93 58 93

C59 93 61 92 62 91

Z

M177 91

C182 87 179 78 173 78

C170 78 166 82 166 86

C166 89 170 93 173 93

C174 93 176 92 177 91

Z

M292 91

C297 87 295 78 289 78

C282 78 278 87 284 91

C285 92 287 93 288 93

C289 93 291 92 292 91

Z

M409 90

C410 90 410 87 410 85

C410 79 403 76 398 80

C395 84 395 87 399 91

C401 93 402 93 404 93

C406 92 408 91 409 90

Z

M524 91

C525 89 526 87 526 86

C526 82 522 78 519 78

C515 78 511 82 511 86

C511 89 515 93 519 93

C520 93 522 92 524 91

Z

M20 85

C23 82 23 78 20 75

C18 73 12 72 10 75

C8 77 7 83 10 85

C12 88 17 88 20 85

Z

M106 85

C109 82 109 79 106 76

C103 72 98 72 95 76

C94 77 93 79 93 80

C93 81 94 83 95 84

C98 88 103 88 106 85

Z

M136 85

C140 80 137 73 130 73

C126 73 123 76 123 80

C123 86 131 90 136 85

Z

M221 85

C225 81 222 73 216 73

C212 73 209 76 209 80

C209 86 217 89 221 85

Z

M251 84

C252 83 253 81 253 80

C253 77 249 73 246 73

C242 73 238 77 238 80

C238 87 247 89 251 84

Z

M336 85

C340 81 337 73 331 73

C329 73 327 74 326 75

C324 77 323 83 326 85

C328 88 333 88 336 85

Z

M366 85

C370 80 367 73 360 73

C357 73 353 77 353 80

C353 81 354 83 355 84

C358 88 363 88 366 85

Z

M451 85

C454 83 454 77 451 75

C446 71 439 74 439 80

C439 86 447 89 451 85

Z

M481 85

C485 81 482 73 476 73

C472 73 469 76 469 80

C469 86 477 89 481 85

Z

M567 85

C571 80 568 73 561 73

C557 73 554 76 554 80

C554 86 562 90 567 85

Z

M35 77

C36 75 37 73 37 72

C37 70 36 68 35 66

C31 62 25 64 23 69

C22 71 22 72 23 75

C26 80 31 80 35 77

Z

M91 77

C92 75 93 73 93 72

C93 68 89 64 86 64

C81 64 77 70 79 74

C82 79 87 80 91 77

Z

M149 77

C154 74 153 67 148 65

C145 64 144 64 141 66

C139 68 138 69 138 72

C138 74 139 75 141 77

C144 79 146 80 149 77

Z

M205 77

C209 74 209 69 205 66

C198 60 189 71 197 77

C200 80 202 80 205 77

Z

M264 78

C265 78 266 76 267 74

C269 69 265 64 260 64

C257 64 253 68 253 72

C253 73 254 75 255 77

C258 79 261 80 264 78

Z

M320 77

C324 74 324 69 320 66

C319 65 317 64 316 64

C313 64 309 68 309 72

C309 75 313 79 316 79

C317 79 319 78 320 77

Z

M381 77

C382 75 383 73 383 72

C383 68 379 64 376 64

C372 64 368 68 368 72

C368 75 372 79 376 79

C377 79 379 78 381 77

Z

M435 78

C438 75 439 72 438 69

C436 64 430 62 426 66

C425 68 424 70 424 72

C424 77 431 81 435 78

Z

M496 77

C497 75 498 73 498 72

C498 68 494 64 491 64

C487 64 484 67 484 72

C484 78 491 81 496 77

Z

M551 77

C556 73 553 64 546 64

C543 64 539 68 539 72

C539 75 543 79 546 79

C548 79 550 78 551 77

Z

M50 68

C54 63 51 56 45 56

C41 56 37 60 37 63

C37 64 38 66 39 67

C42 71 46 71 50 68

Z

M76 68

C80 64 77 56 71 56

C66 56 64 58 64 63

C64 66 65 67 66 68

C69 71 74 70 76 68

Z

M165 68

C167 66 168 61 165 58

C164 57 163 56 160 56

C156 56 153 58 153 63

C153 67 156 70 160 70

C162 70 164 69 165 68

Z

M191 68

C192 67 193 66 193 63

C193 59 191 56 186 56

C182 56 179 59 179 63

C179 69 186 72 191 68

Z

M280 68

C282 66 283 60 280 58

C278 55 273 55 270 58

C266 62 269 70 275 70

C277 70 279 69 280 68

Z

M307 68

C311 63 308 56 301 56

C297 56 294 59 294 63

C294 69 302 73 307 68

Z

M396 67

C397 66 398 64 398 63

C398 62 397 60 396 59

C392 53 383 56 383 63

C383 69 392 73 396 67

Z

M422 67

C423 66 424 64 424 63

C424 62 423 60 422 59

C418 54 409 56 409 63

C409 66 413 70 417 70

C419 70 420 69 422 67

Z

M511 67

C512 66 513 64 513 63

C513 60 509 56 506 56

C502 56 498 60 498 63

C498 66 502 70 506 70

C508 70 509 69 511 67

Z

M537 67

C540 64 540 61 537 58

C534 55 529 55 526 59

C525 60 524 62 524 63

C524 66 528 70 532 70

C534 70 535 69 537 67

Z

M119 66

C124 63 126 61 126 57

C126 51 120 47 117 51

C115 52 115 52 113 51

C111 49 111 49 108 50

C102 54 103 61 110 65

C115 69 115 69 119 66

Z

M236 65

C241 61 243 58 241 54

C240 53 238 51 237 50

C235 49 234 49 233 50

C230 52 230 52 228 51

C226 48 226 49 222 52

C219 54 218 57 220 61

C220 62 229 68 231 68

C231 68 234 67 236 65

Z

M351 65

C358 60 359 54 353 50

C350 49 350 49 348 50

C346 52 345 52 343 50

C341 49 341 49 338 50

C335 53 333 56 335 60

C336 62 343 68 346 68

C346 68 349 67 351 65

Z

M465 66

C473 61 474 56 469 52

C465 49 465 48 463 51

C461 52 461 52 458 50

C457 49 456 49 454 50

C453 51 451 53 450 54

C449 57 449 57 450 60

C452 62 459 68 461 68

C461 68 463 67 465 66

Z

M50 50

C53 46 53 42 48 39

C45 38 41 39 39 42

C36 45 37 48 39 51

C43 54 47 54 50 50

Z

M76 51

C79 48 79 43 76 40

C71 36 64 39 64 46

C64 50 67 53 71 53

C73 53 75 52 76 51

Z

M165 51

C168 48 168 43 165 40

C160 36 153 39 153 46

C153 50 156 53 160 53

C162 53 164 52 165 51

Z

M191 51

C194 48 194 43 191 40

C186 36 179 39 179 46

C179 50 182 53 186 53

C188 53 190 52 191 51

Z

M280 51

C283 49 283 43 280 40

C277 38 272 38 270 41

C264 48 273 57 280 51

Z

M306 51

C309 49 309 44 306 41

C303 38 298 38 296 41

C290 48 299 57 306 51

Z

M395 51

C398 48 399 45 396 41

C393 38 388 38 385 41

C379 48 388 57 395 51

Z

M422 51

C424 48 425 45 422 42

C420 39 416 38 413 39

C408 42 408 46 411 50

C414 54 418 54 422 51

Z

M511 50

C513 47 513 46 512 43

C510 38 503 37 499 42

C496 46 500 53 506 53

C508 53 509 52 511 50

Z

M537 50

C540 46 540 42 535 39

C531 38 527 39 525 43

C523 46 524 48 526 51

C530 54 534 54 537 50

Z

M26 46

C27 45 29 42 30 40

C31 37 31 37 28 32

C24 25 17 24 13 30

C12 33 12 33 14 35

C15 37 15 37 14 39

C12 41 12 43 15 47

C17 49 23 48 26 46

Z

M99 47

C102 45 103 42 102 39

C101 37 101 37 102 35

C103 32 103 32 102 30

C98 23 91 24 87 32

C84 37 84 37 86 40

C90 47 94 49 99 47

Z

M141 45

C146 40 147 38 145 34

C141 26 135 24 130 28

C128 31 127 34 129 34

C130 35 131 39 129 40

C127 41 128 43 130 46

C133 49 138 49 141 45

Z

M216 46

C218 43 219 40 217 38

C216 37 216 36 217 35

C219 31 217 28 213 26

C209 24 205 27 202 32

C199 37 199 37 201 40

C205 48 211 50 216 46

Z

M255 47

C256 46 258 44 259 41

L262 37

L260 33

C258 31 256 29 255 28

C252 25 247 26 245 29

C243 32 243 32 244 35

C245 37 245 38 244 39

C243 42 243 42 245 45

C247 48 252 49 255 47

Z

M331 46

C334 43 334 40 332 39

C331 37 331 36 332 34

C334 33 334 32 333 30

C329 23 322 24 317 32

L314 37

L317 41

C319 44 321 46 322 47

C325 49 329 48 331 46

Z

M370 47

C371 46 373 44 375 41

L377 37

L374 32

C370 25 363 24 359 30

C358 32 358 32 359 35

C360 37 360 38 359 39

C358 42 358 42 360 45

C362 48 367 49 370 47

Z

M446 45

C449 41 450 41 448 39

C446 37 446 37 448 35

C449 33 449 33 447 30

C444 23 438 24 433 32

L430 36

L432 40

C435 48 442 50 446 45

Z

M487 46

C488 45 490 42 490 40

C492 37 492 37 489 32

C485 25 478 24 474 30

C473 33 473 33 475 35

C476 37 476 37 475 39

C473 41 473 42 475 45

C478 49 484 49 487 46

Z

M559 47

C560 47 562 45 563 44

C564 41 564 41 562 39

C561 37 561 37 563 35

C564 33 564 33 563 30

C559 23 553 24 548 32

C545 36 545 36 546 39

C549 46 554 49 559 47

Z

M121 41

C122 40 123 38 123 37

C123 36 122 34 121 33

C117 28 108 30 108 37

C108 40 112 44 116 44

C118 44 119 43 121 41

Z

M236 41

C239 38 239 35 236 32

C233 29 228 29 225 33

C224 34 223 36 223 37

C223 40 227 44 231 44

C233 44 234 43 236 41

Z

M351 42

C356 37 352 30 346 30

C339 30 336 37 341 42

C343 45 348 45 351 42

Z

M466 42

C468 40 469 35 466 32

C465 29 459 29 456 32

C453 34 453 40 456 42

C459 45 464 44 466 42

Z

M50 34

C53 30 52 24 47 22

C42 20 37 24 37 30

C37 32 42 36 45 36

C46 36 48 35 50 34

Z

M76 34

C79 31 79 26 75 23

C72 20 70 20 67 23

C65 25 64 26 64 29

C64 35 71 38 76 34

Z

M165 34

C168 31 168 26 164 23

C161 20 159 20 156 23

C150 27 153 36 160 36

C161 36 164 35 165 34

Z

M191 34

C194 31 194 26 190 23

C187 20 185 20 182 23

C180 25 179 26 179 28

C179 35 187 38 191 34

Z

M280 34

C283 31 283 26 279 23

C278 22 276 21 275 21

C272 21 268 25 268 29

C268 35 276 38 280 34

Z

M305 35

C310 32 309 24 304 22

C297 19 290 29 297 34

C300 36 302 37 305 35

Z

M394 35

C399 32 398 24 393 22

C386 19 380 28 385 34

C388 36 391 37 394 35

Z

M422 34

C425 30 424 24 419 22

C414 20 409 23 409 29

C409 32 413 36 417 36

C418 36 420 35 422 34

Z

M511 34

C515 29 512 22 506 22

C501 22 498 25 498 29

C498 32 502 36 506 36

C507 36 509 35 511 34

Z

M537 34

C540 30 539 24 534 22

C529 20 524 24 524 30

C524 32 529 36 532 36

C533 36 535 35 537 34

Z

M113 24

C115 22 116 22 118 24

C120 25 120 25 123 24

C129 20 128 13 121 9

C118 7 116 6 116 6

C113 6 106 11 105 14

C103 17 104 19 107 22

C110 25 111 26 113 24

Z

M228 24

C228 22 231 22 233 24

C235 25 236 25 240 22

C244 17 241 10 233 7

C230 6 230 6 226 9

C220 13 218 16 220 20

C222 23 228 27 228 24

Z

M343 24

C343 22 346 22 348 24

C350 25 350 25 353 24

C359 20 358 13 351 9

C346 6 346 6 343 7

C337 11 335 13 335 17

C335 20 335 21 338 23

C342 25 343 25 343 24

Z

M459 23

C461 22 461 22 463 23

C465 25 465 25 468 24

C471 22 472 20 472 16

C472 13 469 10 464 8

C461 6 461 6 457 8

C449 12 447 20 455 24

C457 25 457 25 459 23

Z

M50 17

C51 15 52 13 52 12

C52 8 48 4 45 4

C41 4 38 7 38 12

C38 18 45 21 50 17

Z

M75 17

C77 15 78 14 78 12

C78 8 74 4 71 4

C68 4 64 8 64 12

C64 15 68 19 71 19

C72 19 74 18 75 17

Z

M164 17

C166 15 167 14 167 12

C167 8 163 4 160 4

C157 4 153 8 153 12

C153 15 157 19 160 19

C161 19 163 18 164 17

Z

M190 17

C192 15 193 14 193 12

C193 8 189 4 186 4

C183 4 179 8 179 12

C179 15 183 19 186 19

C187 19 189 18 190 17

Z

M278 18

C281 16 282 15 282 11

C282 2 269 2 268 11

C268 14 268 15 271 17

C274 19 275 19 278 18

Z

M305 18

C306 18 307 16 308 14

C310 9 306 4 301 4

C298 4 294 8 294 12

C294 13 295 15 296 17

C299 19 302 20 305 18

Z

M395 17

C400 13 397 4 390 4

C387 4 383 8 383 12

C383 15 387 19 390 19

C392 19 394 18 395 17

Z

M422 16

C424 14 424 13 424 11

C423 7 420 4 416 4

C413 4 409 8 409 12

C409 15 413 19 417 19

C418 19 420 18 422 16

Z

M511 17

C512 15 513 13 513 12

C513 8 509 4 506 4

C502 4 498 8 498 12

C498 15 502 19 506 19

C507 19 509 18 511 17

Z

M537 17

C538 15 539 13 539 12

C539 8 535 4 532 4

C528 4 525 7 524 11

C524 13 524 14 526 16

C530 20 533 20 537 17

Z

"/>

</svg>

