<?xml version="1.0" standalone="no"?>

<!DOCTYPE svg PUBLIC "-//W3C//DTD SVG 20010904//EN"

 "http://www.w3.org/TR/2001/REC-SVG-20010904/DTD/svg10.dtd">

<svg version="1.0" xmlns="http://www.w3.org/2000/svg"

 width="511.000000pt" height="590.000000pt" viewBox="0 0 511.000000 590.000000"

 preserveAspectRatio="xMidYMid meet">

<path fill="#f7f2f2" stroke="none" d="
M0 295

L0 0

L256 0

L511 0

L511 295

L511 590

L256 590

L0 590

L0 295

Z

"/>

<path fill="#9f6779" stroke="none" d="
M3 585

C0 580 0 580 0 566

L0 552

L9 537

L17 522

L42 522

L67 523

L80 544

C86 555 92 565 92 566

C92 566 89 572 85 579

L79 590

L67 590

C56 590 55 590 55 588

C55 586 51 581 49 581

C49 581 48 583 47 585

C45 590 42 591 39 588

C38 586 37 584 37 583

C37 582 37 581 36 581

C34 581 30 586 30 588

C30 590 29 590 18 590

L6 590

L3 585

Z

M25 576

L28 573

L24 571

C21 570 18 568 18 566

C18 565 22 562 25 561

L28 561

L25 557

C22 553 17 553 14 556

C8 562 5 567 6 568

C7 568 8 570 10 572

C16 580 20 581 25 576

Z

M74 571

C79 565 79 565 77 563

C76 562 74 560 73 558

C70 554 66 552 62 554

C60 555 56 559 57 559

C57 559 59 560 61 561

C66 564 67 566 64 569

C62 570 60 571 59 571

C56 571 56 572 59 575

C61 578 62 578 65 578

C69 578 70 577 74 571

Z

M45 568

C46 565 45 563 42 563

C40 563 39 564 39 566

C39 569 39 569 42 569

C44 569 45 568 45 568

Z

M40 544

L42 542

L44 544

C45 545 46 547 47 549

L48 552

L51 549

C53 547 54 546 54 543

C54 540 53 539 51 537

C49 536 46 533 44 532

C43 530 41 529 41 530

C41 530 39 532 36 534

C28 540 27 544 32 549

L35 552

L36 549

C37 547 39 545 40 544

Z

M93 588

C94 587 96 582 98 579

L102 572

L127 572

L153 572

L158 581

L163 590

L151 590

C144 590 139 590 139 589

C139 588 136 586 133 584

L127 579

L121 584

C118 586 115 589 115 589

C115 590 110 590 103 590

L92 590

L93 588

Z

M170 580

C167 575 164 570 163 568

C162 566 163 564 174 545

C181 534 187 524 187 523

C188 522 194 522 213 522

L238 522

L250 544

L263 566

L256 578

L249 590

L237 590

L225 590

L225 588

C225 586 224 584 222 583

C219 580 218 580 218 583

C218 584 217 586 216 588

C213 591 210 590 208 585

C207 583 206 581 206 581

C204 581 200 586 200 588

C200 590 199 590 188 590

L176 590

L170 580

Z

M195 576

L198 573

L195 572

C194 571 191 570 190 569

L188 567

L190 564

C191 563 194 562 195 561

L198 560

L196 557

C191 552 185 553 180 561

C179 563 177 565 177 565

C175 566 176 568 184 576

C188 580 191 580 195 576

Z

M240 577

C241 576 243 574 245 572

C246 569 248 567 248 567

C249 566 241 554 238 554

C235 552 233 553 230 556

L227 559

L231 561

C236 564 237 565 235 568

C234 569 232 570 230 571

C226 571 226 572 229 575

C232 578 237 579 240 577

Z

M216 566

C216 564 215 563 213 563

C210 563 208 565 209 568

C210 569 211 569 213 569

C215 569 216 568 216 566

Z

M210 544

L212 542

L214 544

C216 545 217 547 217 549

C218 552 219 552 222 548

C227 544 225 539 218 534

C215 532 213 531 213 530

C213 529 210 531 207 534

C201 538 200 539 200 543

C200 546 200 547 203 549

L206 552

L207 549

C207 547 209 545 210 544

Z

M263 589

C263 589 265 585 268 580

L272 572

L298 572

L323 572

L328 581

C331 585 333 589 333 590

C333 590 328 590 322 590

L310 590

L307 587

C305 585 302 582 300 581

L297 578

L293 582

C291 584 288 586 287 588

C284 590 283 590 274 590

C268 590 263 590 263 589

Z

M340 578

C336 572 333 566 333 566

C333 566 339 556 345 544

L358 523

L383 522

L408 522

L420 543

C427 555 432 565 432 566

C432 567 430 573 426 579

L420 590

L408 590

C398 590 396 590 396 589

C396 587 391 581 390 581

C389 581 389 582 388 583

C388 585 387 587 385 588

L383 590

L381 588

C380 587 379 585 378 583

L378 580

L374 583

C372 584 371 586 371 588

L371 590

L359 590

L346 590

L340 578

Z

M366 576

C367 575 368 573 368 573

C368 573 366 572 364 571

C359 569 358 566 361 563

C363 562 365 561 366 561

C369 561 369 560 366 557

C363 554 360 553 357 555

C356 555 353 558 351 561

L346 567

L349 570

C355 578 357 579 360 579

C362 579 364 578 366 576

Z

M412 575

C413 574 415 571 417 569

L420 566

L417 563

C408 552 405 551 400 556

L397 559

L400 560

C402 561 404 563 405 564

L407 566

L405 568

C404 569 402 571 400 571

L397 572

L399 575

C403 579 408 579 412 575

Z

M385 568

C387 565 385 563 383 563

C381 563 380 563 380 563

C380 564 380 564 379 565

C379 567 382 570 383 570

C384 570 385 569 385 568

Z

M379 547

C380 544 381 543 383 543

C384 543 385 544 387 547

C388 549 389 551 389 551

C391 551 395 546 395 543

C395 540 394 538 386 532

C382 529 382 529 380 531

C379 532 377 534 375 535

C371 538 369 543 371 546

C372 549 375 551 376 551

C376 551 377 549 379 547

Z

M433 589

C433 589 435 585 438 581

L443 573

L468 572

L494 572

L498 580

C501 585 503 589 503 589

C503 590 498 590 492 590

C482 590 481 590 478 588

C477 586 474 584 472 582

L468 578

L465 581

C463 582 460 585 458 587

L455 590

L444 590

C438 590 433 590 433 589

Z

M507 573

L503 566

L507 560

L511 554

L511 560

C511 563 511 569 511 573

L511 579

L507 573

Z

M90 539

L77 517

L90 495

L102 473

L127 473

C146 473 152 473 153 474

C153 475 159 485 166 496

L178 517

L166 537

C160 548 154 558 153 559

C152 561 152 561 127 561

L102 561

L90 539

Z

M138 545

C141 542 141 537 137 534

L134 531

L132 535

C130 542 125 543 123 535

C121 531 121 531 117 534

C114 538 114 543 118 546

C119 547 122 549 124 551

L127 554

L131 551

C134 549 136 547 138 545

Z

M110 527

L113 524

L110 523

C108 522 106 520 105 519

L103 517

L105 514

C107 513 109 512 111 512

C113 512 113 512 112 510

C110 507 108 505 105 505

C101 505 99 506 95 512

L91 517

L95 522

C101 531 105 532 110 527

Z

M153 528

C154 528 157 525 159 522

L164 517

L160 512

C158 509 155 506 154 505

C151 503 147 504 144 507

C141 510 141 511 145 511

C148 512 151 515 151 517

C151 518 146 522 144 522

C141 522 142 523 144 526

C147 529 150 530 153 528

Z

M131 518

C131 516 129 513 127 513

C125 514 124 517 124 518

C125 521 130 520 131 518

Z

M122 499

C122 498 123 496 125 495

L127 493

L130 495

C131 496 132 498 132 500

C132 503 133 503 137 500

C141 496 140 492 136 488

C127 480 127 480 125 482

C124 483 122 485 120 486

C113 490 113 497 118 500

C121 502 122 502 122 499

Z

M272 560

C270 557 248 518 248 517

C248 516 265 486 271 477

L273 473

L298 473

L323 473

L335 495

L348 517

L335 539

L323 561

L298 561

C279 561 273 561 272 560

Z

M303 549

C306 547 309 545 309 544

C311 542 310 537 308 534

C305 532 303 531 303 534

C303 535 302 537 301 539

L298 542

L296 539

C294 538 293 536 293 535

C292 532 291 532 288 535

C283 539 285 543 294 550

C296 552 298 553 298 553

C298 553 301 551 303 549

Z

M280 527

L283 524

L279 522

C277 521 275 519 274 518

C274 516 278 512 281 512

C284 512 284 512 281 508

C279 506 278 505 275 505

C271 505 269 506 266 511

C265 513 263 515 262 516

C261 517 262 518 265 523

C272 531 275 532 280 527

Z

M325 528

C326 527 328 525 329 523

C331 520 333 518 334 518

C335 517 333 515 326 507

C322 503 319 503 315 507

L312 510

L314 511

C316 512 318 513 320 514

L322 516

L320 519

C319 520 316 521 315 522

L312 523

L314 526

C317 529 322 530 325 528

Z

M301 518

C301 517 300 514 298 513

C296 513 294 516 294 518

C295 520 300 521 301 518

Z

M292 499

C293 496 296 493 299 493

C299 494 301 496 302 498

C303 500 304 502 304 502

C304 502 306 501 307 500

C311 496 311 492 307 488

C306 487 303 485 301 483

L298 480

L292 485

C286 489 285 491 285 495

C285 497 289 502 291 502

C291 502 292 501 292 499

Z

M430 539

L418 517

L430 495

L443 474

L468 474

L493 474

L502 489

L511 504

L511 517

L511 530

L502 545

L493 561

L468 561

L443 561

L430 539

Z

M476 547

C482 544 482 537 477 533

C474 531 474 531 474 533

C474 534 473 536 471 538

L468 542

L466 539

C465 538 464 536 463 534

L463 531

L459 534

C455 537 455 542 459 546

C460 547 463 549 465 551

L468 554

L471 551

C472 550 475 548 476 547

Z

M448 529

C451 528 453 525 453 524

C453 523 452 523 451 522

C449 522 447 521 446 519

L444 517

L446 515

C447 514 449 513 451 512

L454 512

L451 508

C449 505 448 505 445 505

C441 505 440 506 436 512

C433 515 431 518 432 518

C432 518 434 520 436 523

C441 530 444 531 448 529

Z

M496 527

C498 525 500 523 502 520

L505 516

L502 513

C500 511 498 508 497 507

C494 503 489 503 485 506

C484 508 483 509 483 510

C483 510 485 511 487 512

C492 514 493 517 490 520

C488 521 486 522 485 522

C482 522 482 524 485 527

C489 530 493 530 496 527

Z

M471 517

C471 514 469 513 467 514

C465 514 464 518 466 519

C467 521 471 519 471 517

Z

M463 498

C465 493 468 492 471 495

C472 497 473 499 473 500

C473 503 474 503 477 500

C480 498 480 497 480 494

C480 490 479 489 474 485

L468 480

L464 483

C456 489 455 491 455 494

C455 496 459 502 461 502

C461 502 462 500 463 498

Z

M0 517

C0 504 0 504 5 513

L7 517

L4 523

C2 526 1 528 0 528

C0 528 0 523 0 517

Z

M16 510

C16 509 12 503 8 495

L0 482

L0 468

L0 454

L8 439

L17 425

L42 424

L67 424

L69 427

C74 434 92 467 92 468

C92 469 86 479 80 490

L68 511

L42 511

C23 511 17 511 16 510

Z

M48 499

C56 495 57 488 51 484

C48 482 48 482 48 484

C48 485 47 487 45 489

C43 492 42 492 41 491

C40 490 38 488 38 486

L36 482

L33 485

C29 488 29 493 33 497

C42 505 42 505 43 504

C44 503 46 501 48 499

Z

M24 478

C28 475 28 474 24 473

C19 471 17 468 19 466

C20 465 22 464 24 463

C26 463 27 462 27 461

C27 461 26 459 24 458

C20 454 17 455 13 459

C11 461 9 464 7 465

C6 467 5 469 6 469

C6 469 9 471 10 474

C16 481 19 482 24 478

Z

M71 477

C72 476 74 473 76 471

L79 468

L74 462

C72 459 69 456 68 456

C65 454 62 455 59 457

C56 460 56 462 59 462

C60 462 62 463 64 464

C67 467 66 470 61 472

C59 473 57 474 57 474

C57 474 58 476 59 477

C63 481 67 481 71 477

Z

M45 470

C46 468 45 464 43 464

C40 464 37 468 40 470

C41 471 44 471 45 470

Z

M41 444

C43 444 47 448 47 451

C47 454 48 453 51 451

C53 449 54 448 54 445

C54 441 53 440 46 434

L42 431

L38 434

C28 442 27 445 32 450

L35 453

L37 449

C38 447 40 445 41 444

Z

M175 490

C169 479 163 469 163 468

C163 468 168 458 175 446

L187 424

L213 424

L238 424

L250 446

L263 468

L251 489

L238 511

L213 511

L187 511

L175 490

Z

M223 496

C226 493 226 488 222 484

L219 482

L218 485

C218 487 216 489 215 490

L213 492

L211 490

C210 489 208 487 207 485

L206 482

L203 485

C199 489 199 492 204 497

C207 499 209 502 211 503

C212 505 213 504 216 502

C219 500 221 498 223 496

Z

M196 477

L198 475

L194 473

C192 472 190 471 189 470

C188 468 188 468 189 466

C190 465 193 464 195 463

C198 462 198 462 196 459

C192 453 187 454 180 462

L176 468

L181 474

C183 477 186 480 187 480

C190 481 193 480 196 477

Z

M238 479

C239 479 242 476 244 473

L249 467

L246 463

C241 457 239 455 235 455

C232 455 230 457 228 460

C227 462 227 462 229 462

C230 462 232 463 234 465

L237 467

L235 469

C234 471 232 472 230 473

L227 474

L229 477

C232 480 235 481 238 479

Z

M216 469

C217 467 215 465 213 465

C212 465 210 465 210 466

C208 469 210 471 213 471

C214 471 215 470 216 469

Z

M207 451

C207 448 211 444 213 444

C214 445 216 447 217 449

L219 453

L222 450

C227 445 226 442 216 434

C213 431 212 431 211 432

C210 433 208 435 206 436

C201 439 200 441 200 445

C200 448 201 449 203 451

C206 454 207 454 207 451

Z

M346 490

C339 479 334 469 333 468

C333 467 339 457 345 446

L358 425

L383 425

L408 425

L419 442

C424 452 430 462 431 464

L433 468

L421 489

L409 511

L383 511

L358 511

L346 490

Z

M386 502

C397 494 398 490 393 485

L390 482

L389 485

C388 487 386 489 385 490

L383 493

L380 490

C379 488 378 486 378 484

C378 482 378 482 376 483

C371 485 369 491 372 495

C373 496 382 504 383 504

C383 504 385 503 386 502

Z

M366 477

C368 475 368 473 365 473

C364 473 362 472 361 471

L359 468

L361 466

C362 464 364 463 365 463

C368 463 368 462 366 459

C362 453 356 455 351 462

C349 465 347 467 347 467

C346 468 346 468 347 469

C347 469 349 471 351 474

C356 481 361 483 366 477

Z

M409 479

C411 478 412 477 413 475

C414 473 416 471 417 470

L420 468

L417 464

C411 456 409 455 406 455

C403 455 402 456 400 458

L397 461

L401 463

C404 464 407 466 407 467

C407 469 403 472 400 473

L397 474

L400 477

C403 480 405 481 409 479

Z

M386 468

C386 466 386 465 384 465

C380 463 378 467 380 470

C382 472 385 471 386 468

Z

M377 451

C377 450 378 448 380 446

L382 443

L385 446

C387 448 388 450 388 451

C388 454 389 454 392 451

C395 448 396 444 394 441

C393 440 390 437 388 435

L383 431

L377 436

C374 438 371 441 371 442

C369 445 370 448 373 451

C376 454 377 454 377 451

Z

M507 474

L503 468

L507 461

L511 455

L511 461

C511 464 511 470 511 474

L511 481

L507 474

Z

M98 455

C96 452 91 443 87 436

C83 428 79 422 78 420

C77 419 79 415 89 397

L102 376

L127 375

L153 375

L165 397

C172 409 177 419 177 419

C177 419 172 429 165 441

L153 462

L127 462

L102 462

L98 455

Z

M137 447

C141 444 141 439 137 435

L134 433

L133 436

C132 437 131 439 130 441

L128 443

L125 441

C124 440 123 437 122 436

L121 433

L118 435

C113 440 114 445 124 452

L128 455

L131 452

C133 451 136 448 137 447

Z

M111 428

L113 425

L110 424

C108 424 106 422 105 421

L103 419

L105 417

C106 415 109 414 110 413

L113 413

L111 410

C109 407 105 405 101 407

C100 407 97 410 95 413

L91 419

L95 424

C99 430 101 431 105 431

C107 431 109 430 111 428

Z

M157 427

C158 426 160 424 161 422

L164 419

L161 415

C156 407 154 406 150 406

C147 406 146 407 144 409

C141 412 141 413 144 413

C145 413 147 414 149 415

C152 418 151 421 146 423

L142 425

L145 428

C148 431 149 431 151 431

C153 430 155 429 157 427

Z

M130 420

C131 419 131 418 130 417

C129 415 126 414 124 417

C122 420 127 424 130 420

Z

M127 396

C129 396 131 398 132 402

C133 404 133 404 136 402

C142 398 141 392 132 386

L127 382

L121 386

C113 393 112 396 117 401

L120 404

L122 400

C124 396 125 396 127 396

Z

M260 440

L247 419

L260 397

L272 375

L298 375

L323 376

L336 397

L348 418

L346 422

C345 424 339 434 334 444

L323 462

L298 462

L273 462

L260 440

Z

M303 451

C311 445 313 439 307 435

C304 433 303 433 303 436

C303 437 302 439 300 441

C298 443 298 443 296 441

C295 441 294 438 293 436

L292 433

L289 435

C283 439 284 444 292 451

C295 453 298 455 298 455

C298 455 300 453 303 451

Z

M281 428

C284 424 284 424 281 424

C278 424 274 420 274 418

C275 417 277 415 279 414

C283 412 283 412 281 410

C277 404 272 405 265 413

C262 418 261 419 262 420

C263 421 265 423 266 425

C269 430 271 431 275 431

C278 431 279 430 281 428

Z

M326 428

C328 426 331 423 332 421

L334 418

L330 413

C326 407 324 406 320 406

C317 406 315 408 313 411

C312 413 312 413 315 413

C316 413 318 414 320 416

L322 418

L320 420

C319 422 317 423 315 424

L312 425

L315 428

C319 432 322 432 326 428

Z

M301 419

C301 416 300 416 298 416

C295 416 293 418 295 420

C296 421 297 422 298 422

C300 422 301 421 301 419

Z

M295 396

L298 394

L300 396

C301 397 302 400 303 401

L304 404

L307 401

C312 396 311 393 303 386

C298 383 297 382 296 383

C295 384 293 386 291 387

C286 390 285 392 285 396

C285 399 286 400 289 402

C291 404 292 404 292 401

C293 400 294 397 295 396

Z

M442 461

C442 460 436 450 430 439

C420 422 418 418 419 417

C419 415 425 406 431 395

L443 376

L468 375

L494 375

L502 390

L511 406

L511 419

L511 431

L502 447

L494 462

L468 462

C449 462 443 462 442 461

Z

M474 451

C482 444 483 441 478 436

C474 432 474 432 473 436

C473 437 472 439 471 441

L468 443

L466 441

C465 440 464 438 463 436

C463 434 462 433 461 434

C458 436 456 438 456 442

C456 445 457 447 463 451

C465 452 467 454 467 454

C467 456 468 455 474 451

Z

M451 428

L454 425

L451 424

C449 423 447 422 446 421

L444 419

L446 417

C447 415 449 414 449 414

C450 414 451 414 452 413

C454 412 451 408 448 407

C444 405 440 407 436 413

C434 416 432 418 432 418

C431 418 435 424 439 429

C443 432 448 432 451 428

Z

M494 430

C496 429 498 427 500 424

C502 421 504 419 504 419

C505 419 503 416 500 413

C496 407 495 406 491 406

C488 406 487 406 485 409

L482 413

L485 413

C489 414 492 417 491 419

C491 420 489 422 487 423

C485 424 483 425 483 425

C483 426 488 431 490 431

C491 431 493 430 494 430

Z

M471 419

C471 416 470 416 468 416

C466 416 465 416 465 417

C465 420 466 422 468 422

C470 422 471 421 471 419

Z

M466 396

L468 394

L470 397

C472 399 473 401 473 402

C473 404 473 404 476 403

C479 401 480 399 480 395

C480 392 479 390 474 387

C472 386 470 384 469 383

C468 382 467 383 462 386

C454 393 453 396 458 401

L461 404

L462 401

C463 399 464 397 466 396

Z

M0 418

L0 407

L4 412

C5 415 7 418 7 418

C7 419 1 430 0 430

C0 430 0 425 0 418

Z

M12 404

C-1 382 0 385 0 369

L0 355

L8 341

L17 327

L42 326

L68 326

L80 348

L93 369

L80 391

L68 413

L42 413

L17 413

L12 404

Z

M54 395

C56 392 55 389 52 386

L49 384

L48 387

C47 389 46 391 44 392

L42 394

L40 391

C38 389 37 387 37 386

C37 383 36 383 33 386

C31 388 30 390 30 392

C30 396 30 396 39 403

L42 406

L48 401

C51 399 54 396 54 395

Z

M25 379

L28 376

L25 375

C21 374 18 371 19 369

C19 367 24 364 27 364

C28 364 28 364 26 361

C22 355 15 356 11 362

C10 364 8 366 7 367

C5 369 5 369 8 373

C14 381 16 382 19 382

C22 382 23 381 25 379

Z

M68 381

C69 380 72 378 74 375

C76 372 78 370 78 370

C80 370 70 358 67 357

C64 356 61 357 59 360

C57 363 57 364 60 364

C61 364 63 365 64 367

L66 369

L64 372

C63 373 61 374 60 374

C57 374 57 376 60 379

C63 382 63 382 68 381

Z

M45 371

C46 369 46 368 45 367

C43 365 40 366 39 369

C39 373 43 375 45 371

Z

M40 347

L42 345

L44 347

C46 349 47 351 47 352

C47 355 47 355 49 354

C52 352 54 350 54 347

C54 343 53 341 47 337

L42 333

L37 337

C28 343 27 347 32 352

L35 355

L36 352

C37 350 38 348 40 347

Z

M175 391

C168 379 163 369 163 369

C163 368 168 358 175 347

L187 326

L213 326

L238 326

L249 346

C256 357 261 366 262 368

C263 369 261 373 250 391

L238 413

L213 413

L187 413

L175 391

Z

M222 398

C226 395 226 390 222 386

C219 383 218 383 218 386

C218 387 217 389 216 391

C213 394 210 393 208 388

L206 384

L203 387

C198 392 199 395 208 402

L213 406

L216 403

C218 402 221 399 222 398

Z

M196 379

L198 376

L195 375

C194 374 191 373 190 372

L188 369

L190 367

C191 366 194 365 195 364

L198 363

L195 360

C191 356 188 356 184 360

C177 368 175 370 176 371

C177 371 179 373 180 376

C184 381 186 382 190 382

C192 382 194 381 196 379

Z

M238 381

C239 381 242 378 245 375

L249 369

L247 366

C245 365 244 362 243 361

C241 358 236 356 233 357

C231 357 230 359 229 360

C227 363 227 363 229 364

C237 366 238 370 231 374

L227 376

L229 378

C231 380 233 382 235 382

C235 382 237 382 238 381

Z

M215 372

C217 369 216 367 213 367

C210 367 209 367 209 368

C209 370 211 373 213 373

C213 373 214 372 215 372

Z

M210 347

L212 345

L214 347

C215 348 217 350 218 352

L219 355

L222 352

C227 347 226 343 215 335

L212 333

L207 337

C201 341 200 343 200 346

C200 350 201 351 204 353

C206 355 207 355 207 352

C208 350 209 348 210 347

Z

M346 393

C340 382 334 372 334 371

C333 370 336 364 345 348

L358 326

L383 326

L409 326

L421 348

C431 366 433 370 432 371

C432 373 426 382 420 393

L408 413

L383 413

L358 413

L346 393

Z

M386 403

C388 402 391 400 392 399

C394 397 395 395 396 393

C396 391 396 390 393 387

L390 384

L388 388

C386 391 385 393 384 393

C382 393 378 389 378 386

C378 383 378 383 374 386

C372 388 371 389 371 392

C371 396 372 398 378 402

C380 403 382 405 382 405

C382 407 383 406 386 403

Z

M366 379

C369 376 369 375 366 375

C365 375 363 374 361 373

C358 370 359 367 364 365

C366 364 368 363 368 363

C368 361 362 357 360 357

C357 357 355 358 349 366

L346 369

L351 375

C353 378 356 381 356 381

C360 383 363 382 366 379

Z

M412 378

C414 376 416 373 417 372

L420 369

L417 366

C416 364 413 362 412 360

C409 356 403 355 399 360

C397 362 398 363 401 364

C403 365 405 366 406 367

C407 369 407 369 406 371

C405 372 402 373 400 374

C397 375 397 375 399 378

C403 383 408 383 412 378

Z

M385 372

C387 371 386 367 383 366

C380 366 379 368 380 371

C381 373 383 374 385 372

Z

M380 347

L383 345

L385 347

C386 349 387 351 388 352

L389 355

L392 353

C394 351 395 349 395 347

C395 343 394 341 387 337

L382 333

L378 336

C372 341 370 343 370 347

C370 349 371 350 373 353

L376 355

L377 352

C378 351 379 348 380 347

Z

M507 376

L503 370

L506 364

C508 361 510 358 510 358

C511 357 511 362 511 369

C511 376 511 382 511 382

C510 382 509 379 507 376

Z

M90 342

L77 320

L90 298

L102 276

L127 276

L153 277

L165 298

L178 320

L167 338

C161 348 156 358 155 360

L153 364

L127 364

L102 364

L90 342

Z

M139 346

C141 343 140 340 137 337

C134 335 133 334 133 337

C133 339 129 344 128 344

C126 344 123 341 122 338

C122 334 121 334 118 337

C116 339 115 341 115 343

C115 346 116 348 124 354

L127 357

L133 352

C136 350 139 347 139 346

Z

M110 330

L113 327

L110 326

C109 325 106 324 105 323

C103 321 103 320 104 319

C105 318 107 316 109 316

L113 314

L110 311

C107 307 102 307 99 311

C97 312 95 315 93 317

C91 319 90 321 91 321

C91 321 93 323 95 326

C99 332 101 333 104 333

C106 333 108 332 110 330

Z

M157 328

C159 326 161 323 162 322

L164 320

L161 316

C159 313 157 311 157 311

C157 310 152 307 149 307

C149 307 146 308 145 310

L142 313

L146 315

C151 317 152 320 149 323

C147 324 145 325 144 325

C141 325 141 326 144 329

C146 331 147 332 150 332

C153 332 154 331 157 328

Z

M129 323

C132 321 131 317 127 317

C124 318 123 320 125 323

C127 324 127 324 129 323

Z

M125 297

C127 295 130 297 132 302

C133 306 134 306 137 303

C142 298 140 294 133 288

L127 284

L122 288

C119 290 116 293 115 294

C113 297 114 300 118 303

L121 306

L122 302

C123 300 124 298 125 297

Z

M271 361

C267 355 248 321 248 320

C248 319 254 309 260 298

L273 277

L298 276

L323 276

L335 298

L348 320

L336 342

L323 364

L298 364

L273 364

L271 361

Z

M301 355

C310 347 310 346 310 343

C310 341 310 339 308 337

C304 334 303 334 303 337

C303 340 299 344 297 343

C296 343 294 341 293 339

L291 335

L288 338

C283 343 284 347 292 352

C295 354 297 356 297 356

C297 357 298 357 301 355

Z

M281 330

L283 327

L280 326

C279 325 276 324 275 323

L273 320

L276 318

C278 316 280 315 281 315

C283 315 283 315 282 312

C280 309 276 307 273 308

C271 309 268 312 266 315

L261 321

L265 326

C270 332 272 333 275 333

C277 333 279 332 281 330

Z

M325 331

C326 330 328 327 330 325

L334 320

L332 317

C326 310 324 308 321 307

C318 307 318 307 315 310

L312 313

L316 315

C318 316 320 317 321 318

C322 320 322 320 320 323

C318 324 316 325 314 325

C312 325 312 325 313 327

C316 332 321 334 325 331

Z

M300 322

C302 319 300 317 298 317

C294 317 293 321 296 323

C298 324 299 324 300 322

Z

M295 298

L297 296

L299 298

C301 299 302 302 303 303

L304 306

L307 303

C309 301 310 299 310 297

C310 294 309 292 303 288

C300 286 298 284 298 284

C298 283 292 287 287 292

C284 295 284 300 288 303

L292 306

L292 303

C293 301 294 299 295 298

Z

M439 357

C437 354 431 344 427 336

C422 327 418 321 418 320

C418 320 424 310 431 298

L443 276

L468 276

L493 277

L502 292

L511 307

L511 320

L511 334

L502 349

L493 364

L468 364

L443 364

L439 357

Z

M479 348

C482 345 482 341 478 338

C477 336 475 335 475 335

C475 335 474 337 473 339

C471 344 468 345 465 342

C464 340 463 338 463 337

C463 334 462 334 459 337

C456 339 456 340 456 343

C456 347 457 348 463 352

L469 357

L472 354

C475 352 477 350 479 348

Z

M451 331

C452 329 453 328 453 327

C453 327 451 326 449 325

C447 324 445 322 444 322

C444 319 447 316 450 315

C454 315 454 314 451 310

C447 307 443 307 440 310

C438 312 436 314 434 317

L431 321

L434 324

C436 326 438 329 439 330

C442 334 447 334 451 331

Z

M500 325

C503 322 505 319 504 319

C504 319 502 317 500 314

C496 308 492 306 488 308

C485 309 482 313 484 314

C485 315 486 315 487 315

C487 315 489 316 490 318

L492 320

L490 322

C489 323 487 324 485 325

L482 326

L485 329

C487 332 488 332 491 332

C495 332 496 331 500 325

Z

M470 323

C471 323 471 321 471 320

C471 318 470 318 468 318

C466 318 465 318 465 320

C465 322 466 324 468 324

C468 324 469 324 470 323

Z

M466 298

L468 296

L470 298

C471 299 473 301 473 303

L474 306

L477 304

C481 300 481 295 478 292

C473 287 467 283 467 284

C467 284 465 286 462 288

C454 294 453 298 458 303

L461 306

L462 303

C463 302 464 299 466 298

Z

M0 321

C0 314 0 309 1 309

C1 310 3 312 4 315

L7 321

L4 327

L0 333

L0 321

Z

M9 300

L0 285

L0 271

L0 257

L9 242

L17 227

L42 227

L67 228

L80 249

C86 260 92 270 92 271

C92 272 86 282 80 294

L67 315

L42 315

L17 315

L9 300

Z

M53 299

C56 296 56 292 52 288

L49 285

L47 288

C46 293 44 295 42 295

C41 295 37 290 37 288

C37 285 36 286 33 288

C31 290 30 291 30 294

C30 297 31 298 39 305

L42 308

L46 305

C49 303 51 301 53 299

Z

M25 281

L28 278

L25 277

C22 276 18 273 18 271

C18 270 22 267 25 266

L28 266

L25 262

C22 258 17 258 13 262

C8 267 5 272 6 272

C6 272 8 274 10 277

C15 285 20 286 25 281

Z

M68 282

C69 282 72 279 74 276

L79 270

L76 267

C75 266 73 263 72 262

C70 260 68 259 66 258

C63 258 62 258 60 261

C58 262 57 264 57 264

C57 264 59 265 61 266

C66 268 67 271 64 274

C62 275 60 276 59 276

C56 276 56 277 59 280

C61 283 65 284 68 282

Z

M45 273

C47 269 44 266 41 268

C39 268 38 272 40 273

C41 275 45 274 45 273

Z

M54 248

C54 244 53 243 47 239

C44 236 41 234 41 235

C41 235 39 237 36 239

C31 242 29 245 29 249

C29 251 34 256 35 256

C35 256 36 254 37 252

C38 250 40 248 41 248

C43 247 47 251 47 255

L47 257

L50 255

C53 253 54 252 54 248

Z

M175 293

L162 271

L174 250

C181 239 187 229 187 228

C188 227 194 227 213 227

L238 227

L250 249

L263 271

L250 293

L238 315

L213 315

L188 315

L175 293

Z

M224 297

C226 294 225 290 222 288

L219 285

L218 288

C217 292 214 295 212 294

C211 294 209 292 208 290

C207 288 206 286 206 286

C206 286 204 287 203 288

C198 293 200 298 206 303

C209 304 211 306 211 307

C212 308 214 307 218 303

C221 301 224 298 224 297

Z

M195 281

L198 278

L195 277

C193 276 191 275 190 273

L188 271

L190 269

C191 268 193 267 195 266

C197 266 198 265 197 264

C194 259 187 257 184 261

C183 262 181 265 179 267

L176 271

L178 274

C186 285 190 286 195 281

Z

M241 281

C242 280 244 277 246 275

L249 271

L244 265

C238 257 235 256 230 261

L227 264

L230 265

C232 266 234 267 235 269

L237 271

L234 273

C232 275 230 276 229 276

C227 276 227 276 228 279

C230 282 231 283 236 283

C238 283 240 282 241 281

Z

M216 271

C216 268 213 266 210 268

C209 269 209 272 210 273

C211 275 215 274 216 271

Z

M210 249

L212 247

L214 249

C216 250 217 252 217 254

C218 257 219 257 222 253

C227 249 225 244 218 239

C215 237 213 235 213 235

C213 234 210 236 207 239

C201 243 200 244 200 248

C200 251 200 252 203 254

L207 257

L207 254

C208 252 209 250 210 249

Z

M357 313

C352 306 333 272 333 271

C333 271 339 261 345 249

L358 228

L383 227

L408 227

L419 247

C426 258 431 268 432 269

C433 271 432 273 421 293

L408 315

L383 315

L358 315

L357 313

Z

M391 301

C396 298 397 293 393 289

C390 285 389 285 388 288

C388 290 387 292 385 293

L383 295

L381 293

C380 292 379 290 378 288

L378 285

L374 288

C371 290 371 291 371 294

C371 298 372 299 377 303

L383 308

L386 305

C387 304 390 302 391 301

Z

M365 281

C367 279 368 278 368 278

C368 278 366 277 364 276

C359 273 358 271 361 268

C363 267 365 266 366 266

C369 266 369 265 366 262

C364 259 363 259 360 259

C356 259 355 260 351 266

C346 272 346 272 348 274

C349 275 351 277 352 279

C356 285 361 286 365 281

Z

M411 281

C416 276 420 270 419 270

C419 270 417 268 415 265

C409 257 403 256 399 262

C397 265 397 265 399 265

C400 265 402 266 404 268

L408 271

L405 273

C404 274 402 276 400 276

L397 277

L399 280

C403 284 408 284 411 281

Z

M386 271

C386 267 381 266 380 270

C379 272 380 274 383 274

C385 274 386 273 386 271

Z

M378 252

C379 250 381 248 381 247

C384 247 387 250 388 253

C388 257 389 257 393 254

C396 250 396 246 393 243

C391 241 389 239 386 237

L382 234

L379 237

C377 239 374 241 373 242

C369 245 369 250 372 254

C374 255 375 256 376 256

C376 256 377 254 378 252

Z

M507 277

L503 271

L507 264

L511 258

L511 271

C511 278 511 284 511 284

C511 284 509 281 507 277

Z

M90 244

L77 222

L90 200

L102 178

L127 178

L153 178

L155 182

C156 184 161 194 167 204

L178 222

L165 244

L153 266

L127 266

L102 266

L90 244

Z

M138 250

C141 247 141 242 137 239

L134 236

L132 240

C132 242 131 244 131 244

C131 244 130 244 129 245

C127 246 127 246 125 244

C124 243 123 240 122 239

L121 236

L118 239

C116 241 115 243 115 245

C115 248 116 250 122 253

C124 255 126 257 126 258

C127 259 131 256 138 250

Z

M111 231

L113 229

L109 227

C107 226 105 224 104 224

C103 222 103 222 105 219

C107 218 109 217 111 217

C113 217 113 217 111 214

C107 207 102 208 95 216

L91 222

L95 228

C97 231 100 234 101 234

C105 235 108 234 111 231

Z

M153 233

C154 233 157 230 159 227

L164 222

L160 217

C158 214 155 211 154 210

C151 208 147 209 144 212

C141 215 141 216 144 216

C145 216 147 217 149 219

L152 222

L149 224

C147 226 145 227 144 227

C141 227 141 228 144 231

C147 234 150 235 153 233

Z

M131 223

C132 219 126 216 124 220

C123 223 125 225 127 225

C129 225 130 224 131 223

Z

M126 199

C128 198 132 202 132 205

C132 207 133 208 136 205

C142 201 141 195 133 190

C130 188 128 186 128 186

C128 185 126 185 125 187

C124 188 121 190 119 191

C113 195 113 202 118 205

C120 207 121 207 122 203

C123 201 125 199 126 199

Z

M272 264

C267 256 248 223 248 222

C248 221 268 186 271 181

L273 178

L298 178

L323 179

L336 200

L348 222

L335 244

L323 266

L298 266

C273 266 273 266 272 264

Z

M301 256

C310 249 310 248 310 243

C310 241 306 237 304 237

C304 237 303 238 303 239

C303 240 302 242 301 244

C298 246 298 246 296 245

C296 244 294 242 293 240

L291 236

L288 239

C284 243 284 246 287 249

C289 252 297 258 298 258

C298 258 300 257 301 256

Z

M280 232

L283 229

L279 227

C276 225 274 224 274 223

C274 220 278 217 281 217

C284 217 284 217 281 213

C278 209 272 209 269 212

C268 213 266 216 264 218

L261 222

L264 226

C266 227 267 230 267 230

C267 231 273 235 275 235

C276 235 279 234 280 232

Z

M325 233

C326 232 328 229 330 226

L334 221

L331 217

C326 211 324 209 320 209

C318 209 317 210 314 212

L312 215

L315 216

C316 217 318 218 320 219

L322 221

L320 224

C319 225 316 226 315 227

L312 228

L314 231

C317 234 322 235 325 233

Z

M301 222

C301 219 298 217 295 219

C293 222 294 225 298 225

C300 225 301 224 301 222

Z

M292 205

C292 204 293 202 294 200

C297 197 299 198 302 203

C303 205 304 207 304 207

C304 207 305 206 307 204

C312 199 311 196 301 188

L298 185

L292 190

C286 194 285 195 285 198

C285 201 285 202 288 204

C291 208 292 208 292 205

Z

M431 244

C424 232 418 222 418 222

C418 222 424 212 430 200

L443 179

L468 179

L493 179

L502 194

L511 209

L511 222

L511 235

L502 250

L493 266

L468 266

L443 266

L431 244

Z

M474 253

C482 249 483 242 477 238

L474 236

L474 239

C473 240 472 243 470 244

L468 246

L466 244

C465 243 463 241 463 239

L462 236

L459 238

C455 242 455 247 459 251

C468 259 468 259 469 258

C470 257 472 255 474 253

Z

M450 232

C454 229 454 228 451 227

C449 227 447 226 446 224

L444 222

L446 220

C447 219 449 218 451 217

L454 217

L451 213

C449 210 448 210 445 210

C441 210 440 211 436 217

C433 220 431 223 432 223

C432 223 434 225 436 228

C442 235 445 236 450 232

Z

M496 232

C498 230 500 228 502 225

L505 221

L502 218

C500 216 498 213 497 212

C494 208 489 208 485 211

C484 213 483 214 483 215

C483 215 485 216 487 218

C490 219 492 220 492 222

C492 223 490 224 487 226

C485 227 483 228 483 228

C483 229 484 230 485 232

C489 235 493 235 496 232

Z

M471 222

C471 219 469 218 467 219

C465 219 464 223 466 224

C467 226 471 224 471 222

Z

M463 203

C465 198 468 197 471 200

C472 202 473 204 473 205

C473 208 475 207 478 204

C480 203 480 201 480 198

C480 195 479 194 474 190

L468 185

L464 188

C454 196 453 199 458 204

C459 206 461 207 461 207

C461 207 462 205 463 203

Z

M0 221

L0 210

L4 216

L7 222

L4 227

C3 230 1 232 1 233

C0 233 0 228 0 221

Z

M16 214

C15 213 11 206 7 199

L0 187

L0 173

L0 158

L8 144

L17 130

L42 129

L68 129

L80 151

L93 173

L80 194

L68 216

L42 216

C17 216 17 216 16 214

Z

M52 201

C56 197 56 194 52 190

C49 187 47 186 48 189

C48 190 47 192 45 194

C43 197 42 197 41 196

C40 195 38 193 38 191

L36 187

L33 190

C31 191 30 193 30 195

C30 199 31 201 37 205

C39 206 41 208 41 209

C42 210 44 208 52 201

Z

M26 182

L28 179

L25 178

C23 178 21 176 20 175

L18 173

L20 171

C21 169 23 168 23 168

C24 168 25 168 26 167

C28 166 25 162 22 161

C18 159 15 161 10 167

C8 170 6 172 6 172

C5 172 9 177 13 183

C16 186 22 186 26 182

Z

M72 181

C73 180 75 177 76 176

L79 173

L74 167

C72 164 69 161 68 161

C65 159 61 160 59 163

C56 166 56 167 59 167

C60 167 62 168 64 169

C67 172 66 175 61 177

C59 178 57 179 57 179

C57 179 58 181 60 182

C62 185 63 185 66 185

C68 184 70 183 72 181

Z

M45 174

C47 172 45 170 42 170

C39 170 38 172 39 175

C40 176 43 176 45 174

Z

M40 149

C42 148 42 148 44 151

C46 153 47 155 47 156

C47 159 48 159 51 156

C53 154 54 152 54 150

C54 146 53 144 48 141

C46 140 44 138 43 137

C42 136 41 137 36 140

C28 147 27 150 32 155

L35 158

L37 154

C38 152 39 150 40 149

Z

M175 195

C169 184 163 174 163 173

C163 173 168 162 175 151

L187 129

L213 129

L238 129

L249 148

C255 158 260 168 261 170

L263 173

L251 194

L238 216

L213 216

L187 216

L175 195

Z

M217 206

C224 200 225 199 225 196

C225 192 224 190 220 188

C218 187 218 187 218 189

C218 191 217 193 215 194

L213 197

L211 195

C209 194 208 192 207 190

L206 187

L203 190

C199 194 199 197 203 201

C207 205 212 209 213 209

C213 209 215 208 217 206

Z

M196 182

C199 179 199 178 195 178

C194 178 192 177 190 175

C188 173 188 173 190 171

C190 170 193 169 195 168

C198 167 198 167 196 164

C192 158 187 159 181 167

L176 173

L180 178

C184 184 186 185 190 185

C192 185 194 184 196 182

Z

M238 184

C239 184 242 181 245 178

C248 173 249 172 248 171

C247 170 245 168 244 166

C241 161 239 160 236 160

C232 160 230 161 228 164

C227 167 227 167 229 167

C230 167 232 168 234 170

L237 172

L235 174

C234 176 232 177 230 178

L227 179

L230 182

C233 185 235 186 238 184

Z

M215 174

C216 173 216 172 215 171

C214 169 211 169 210 171

C207 175 212 178 215 174

Z

M207 156

C207 153 210 149 213 149

C214 149 215 151 217 154

L219 158

L222 155

C227 150 226 147 218 140

L212 136

L208 139

C206 141 203 143 202 144

C199 147 199 153 203 156

C206 159 207 159 207 156

Z

M345 194

C336 178 333 172 334 171

C334 170 340 160 346 149

L358 129

L383 129

L408 130

L420 149

C426 160 432 169 432 171

C433 173 432 176 421 194

L409 216

L383 216

L358 216

L345 194

Z

M389 204

C397 198 398 193 392 189

L389 187

L388 190

C387 192 386 195 385 195

C383 197 383 197 381 195

C379 193 378 191 378 190

C378 187 378 187 375 188

C374 189 372 191 372 192

C371 194 371 198 372 200

C373 201 382 209 383 209

C383 209 386 207 389 204

Z

M366 182

C369 179 369 178 366 178

C363 178 359 174 359 172

C360 171 362 169 364 168

L368 166

L365 163

C364 161 361 160 361 160

C358 160 353 163 353 164

C353 164 351 166 349 169

L346 173

L348 175

C356 185 356 185 360 185

C363 185 364 184 366 182

Z

M409 184

C410 183 413 181 415 178

C417 175 418 173 419 173

C420 173 416 167 411 162

C408 159 403 159 399 163

L397 166

L400 167

C402 167 404 169 405 170

L407 172

L405 174

C404 175 402 177 400 178

L397 179

L400 182

C403 185 405 186 409 184

Z

M386 173

C386 170 385 170 383 170

C380 170 378 172 380 174

C381 175 382 176 383 176

C385 176 386 175 386 173

Z

M380 150

L383 148

L385 150

C386 152 387 154 388 155

L389 158

L392 156

C398 151 396 146 385 138

L383 136

L377 141

C369 147 368 151 373 156

L376 158

L377 155

C378 154 379 151 380 150

Z

M507 179

L503 173

L506 167

C508 164 510 161 510 161

C511 160 511 165 511 172

C511 179 511 185 511 185

C510 185 509 182 507 179

Z

M90 146

C83 134 78 124 77 124

C77 124 83 114 89 102

L102 81

L127 80

L153 80

L165 101

C172 113 177 123 177 123

C177 123 172 133 165 145

L153 167

L127 167

L102 167

L90 146

Z

M139 151

C141 146 140 142 135 139

C133 138 133 138 133 141

C132 142 131 145 130 146

L127 148

L125 146

C124 144 123 142 122 141

L121 138

L118 140

C115 143 114 147 116 150

C117 151 120 154 123 156

L128 160

L132 156

C135 154 138 152 139 151

Z

M111 133

L113 130

L110 129

C108 129 106 127 105 126

L103 124

L105 122

C106 121 108 119 110 118

L113 117

L110 114

C105 109 102 110 93 121

L90 124

L93 127

C95 129 97 132 98 133

C102 137 107 137 111 133

Z

M154 134

C156 134 157 133 157 132

C157 132 159 129 161 127

C164 124 164 123 163 122

C162 121 160 119 159 117

C156 112 154 111 150 111

C147 111 146 112 144 114

C141 117 141 118 144 118

C147 118 151 122 151 124

C150 125 148 127 146 128

L142 130

L145 133

C148 136 150 137 154 134

Z

M130 125

C132 123 130 120 127 120

C124 120 123 123 125 125

C127 127 129 127 130 125

Z

M125 100

C127 99 127 99 130 101

C131 103 132 105 132 106

C132 107 132 108 133 108

C134 109 139 105 139 103

C140 97 139 96 133 92

L127 87

L121 91

C113 98 112 101 117 106

L120 109

L122 105

C123 103 125 101 125 100

Z

M260 145

L247 123

L260 102

L272 80

L298 80

L323 81

L333 98

C339 108 345 117 346 120

L348 124

L336 145

L323 167

L298 167

L272 167

L260 145

Z

M301 158

C302 157 304 155 306 154

C312 150 312 143 307 140

C304 138 304 138 303 140

C301 148 297 149 293 142

L291 138

L288 141

C285 144 285 145 285 147

C286 149 287 151 289 153

C290 154 293 156 294 157

C298 161 298 161 301 158

Z

M281 133

C284 130 284 129 281 129

C280 129 278 128 276 126

C272 123 273 122 279 119

L283 117

L280 114

C275 109 272 110 266 118

L261 124

L264 128

C269 135 271 136 275 136

C277 136 279 135 281 133

Z

M323 135

C324 135 327 132 330 129

L334 123

L330 118

C326 112 324 111 321 111

C317 111 315 112 313 115

C312 118 312 118 314 118

C316 118 318 119 320 120

C322 123 322 123 321 125

C320 126 317 127 315 128

C312 129 312 129 314 132

C315 133 316 135 317 135

C320 136 320 136 323 135

Z

M300 126

C301 126 301 124 301 123

C300 120 296 120 295 122

C293 125 297 128 300 126

Z

M296 100

C297 99 298 99 300 101

C301 103 302 105 302 106

C303 110 303 110 307 106

C312 101 311 98 300 89

L297 86

L294 89

C292 91 289 93 288 95

C284 98 284 103 288 106

L291 109

L293 105

C293 103 295 101 296 100

Z

M442 165

C438 159 418 124 418 123

C418 123 424 113 430 102

L443 81

L468 80

L494 80

L502 95

L511 111

L511 123

L511 136

L502 152

L494 167

L468 167

C443 167 443 167 442 165

Z

M480 149

C482 146 481 144 478 141

L475 138

L474 141

C473 143 472 145 470 146

L468 148

L466 145

C464 143 463 141 463 140

C463 137 462 137 459 140

C457 142 456 144 456 146

C456 150 457 152 464 157

L468 160

L474 155

C477 153 480 150 480 149

Z

M451 133

L454 130

L451 129

C447 128 444 125 445 123

C445 121 450 118 452 118

C455 118 450 112 447 111

C444 111 439 113 437 116

C436 118 434 120 433 121

C431 123 431 123 436 129

C440 135 441 136 446 136

C448 136 449 135 451 133

Z

M494 135

C495 134 498 132 500 129

C502 126 504 124 504 124

C505 124 503 121 500 118

C496 112 495 111 491 111

C488 111 487 111 485 114

L482 118

L485 118

C487 119 489 120 490 121

L492 123

L490 125

C489 127 487 128 485 128

C482 129 482 130 486 133

C489 136 491 137 494 135

Z

M471 124

C471 121 470 121 468 121

C466 121 465 121 465 122

C465 125 466 127 468 127

C470 127 471 126 471 124

Z

M466 101

L468 99

L470 101

C471 102 472 104 473 106

C473 108 474 109 475 108

C481 105 482 98 477 95

C476 93 473 91 471 89

L468 86

L465 89

C454 98 453 101 458 106

L461 109

L462 106

C463 104 464 102 466 101

Z

M0 124

C0 117 0 112 0 112

C1 112 2 115 4 118

L7 123

L5 127

C0 136 0 136 0 124

Z

M13 111

C11 108 7 101 5 96

L0 88

L0 74

L0 60

L8 46

L17 31

L42 31

L68 31

L80 52

C87 64 92 74 92 74

C92 75 86 85 80 97

L68 118

L42 118

L17 118

L13 111

Z

M54 100

C56 97 55 94 52 91

C51 90 49 89 49 89

C49 89 48 91 47 93

C45 98 42 99 39 96

C38 94 37 92 37 91

C37 88 36 88 33 91

C30 94 29 98 31 101

C32 102 35 105 38 107

L43 111

L48 106

C51 104 54 101 54 100

Z

M25 84

L28 81

L24 79

C17 77 16 73 23 70

C25 69 27 68 27 68

C27 66 22 62 19 62

C16 62 14 63 8 71

L5 75

L8 78

C10 80 12 83 13 84

C17 88 21 88 25 84

Z

M67 86

C70 85 80 73 78 73

C78 73 76 71 74 68

C69 61 65 59 60 64

C56 67 56 68 59 69

C61 69 63 70 64 72

L67 74

L64 77

C62 78 60 79 58 79

L56 79

L58 82

C60 85 62 86 65 87

C65 87 66 87 67 86

Z

M44 76

C47 74 46 71 42 71

C38 72 38 78 42 78

C43 78 44 77 44 76

Z

M40 52

L42 50

L44 52

C45 53 47 55 47 57

L48 60

L51 58

C55 54 55 49 51 45

C50 44 47 42 45 40

L42 37

L39 40

C28 49 27 52 32 57

L35 60

L36 57

C37 55 39 53 40 52

Z

M175 96

C168 84 163 74 163 74

C163 73 169 63 175 52

L187 31

L213 31

L238 32

L251 53

L263 74

L250 96

L238 118

L213 118

L187 118

L175 96

Z

M225 97

C225 94 225 93 222 91

C219 88 218 88 218 91

C218 92 217 94 216 96

C213 99 210 98 208 93

L206 89

L203 92

C199 95 199 99 203 103

C204 104 207 106 209 108

L212 111

L218 106

C224 102 225 101 225 97

Z

M196 84

L198 81

L195 80

C194 79 191 78 190 77

L188 74

L190 72

C192 71 194 70 195 69

L198 68

L196 65

C191 60 186 61 179 70

L176 74

L180 79

C186 88 191 89 196 84

Z

M241 84

C242 83 244 80 246 78

L249 74

L245 68

C238 60 233 59 229 65

C227 67 227 67 231 69

C236 72 237 75 234 77

C233 78 231 79 229 79

C226 79 226 79 229 83

C232 87 238 87 241 84

Z

M215 77

C217 74 216 72 213 72

C210 72 209 72 209 73

C209 75 211 78 213 78

C213 78 214 77 215 77

Z

M210 52

L212 50

L214 52

C216 53 217 56 218 57

L218 60

L221 58

C224 56 226 52 224 48

C224 47 221 44 218 42

L212 38

L207 42

C201 46 200 48 200 52

C200 54 201 56 203 58

L206 60

L207 57

C207 55 209 53 210 52

Z

M357 117

C356 115 333 75 333 74

C333 74 339 64 345 52

L357 31

L383 31

L409 31

L421 53

L433 74

L431 78

C430 81 424 90 418 100

L408 118

L383 118

C364 118 358 118 357 117

Z

M387 108

C390 106 392 104 392 104

C393 104 396 99 396 96

C396 96 395 93 393 92

L390 89

L388 93

C387 95 385 97 384 98

C382 98 378 94 378 91

C378 88 377 88 374 91

C372 93 371 94 371 97

C371 100 372 101 375 104

C377 106 380 108 381 109

C383 111 383 111 387 108

Z

M366 84

C368 81 369 80 366 80

C364 80 359 76 359 75

C359 73 362 70 365 69

C367 69 368 68 368 68

C368 66 363 62 361 62

C357 62 355 63 351 69

L346 75

L350 80

C352 82 355 85 356 86

C359 88 363 87 366 84

Z

M412 83

C413 81 416 79 417 77

L419 74

L415 68

C413 65 410 62 408 62

C405 61 401 62 399 65

C397 68 397 68 400 68

C401 69 404 70 405 72

L407 74

L405 76

C404 77 402 79 400 79

L397 80

L399 83

C402 85 403 86 406 86

C409 86 410 85 412 83

Z

M385 77

C387 76 386 72 383 71

C379 71 378 74 381 76

C382 78 383 78 385 77

Z

M381 51

C381 51 383 50 384 51

C385 51 388 56 388 59

C388 60 388 60 391 58

C397 54 397 48 391 44

C389 43 386 41 385 39

L382 37

L380 39

C379 40 377 42 375 43

C371 46 369 51 370 53

C371 55 372 56 374 58

L376 60

L378 56

C378 54 380 52 381 51

Z

M507 81

L503 74

L507 68

L511 62

L511 68

C511 72 511 78 511 81

L511 87

L507 81

Z

M90 47

L77 25

L84 13

L91 0

L103 0

C113 0 114 0 114 2

C114 5 119 11 121 10

C121 9 122 8 122 7

C122 6 123 4 125 3

L127 1

L130 3

C131 5 132 7 132 8

C132 13 139 7 139 3

L140 0

L152 0

L164 0

L171 13

L178 25

L166 46

C159 57 153 67 153 68

C152 69 146 69 127 69

L102 69

L90 47

Z

M137 54

C141 50 141 46 138 42

C135 39 133 39 133 42

C133 43 132 45 131 47

C128 50 125 49 123 44

C122 42 121 40 121 40

C120 40 119 41 117 42

C114 46 114 51 118 54

C119 55 122 57 124 59

L127 62

L131 59

C133 58 135 55 137 54

Z

M110 35

L113 32

L110 31

C108 30 106 29 105 27

L103 25

L105 23

C107 21 109 20 111 20

L113 20

L111 16

C107 12 102 12 98 16

C97 17 95 20 93 22

L90 25

L93 28

C102 39 105 40 110 35

Z

M156 34

C158 32 160 29 161 28

L164 25

L159 19

C153 11 150 10 145 15

L142 18

L146 20

C151 22 152 25 149 28

C147 29 145 30 144 30

C141 30 141 31 144 34

C148 38 153 38 156 34

Z

M130 27

C131 24 130 22 127 22

C125 22 123 24 124 27

C125 27 126 28 127 28

C129 28 130 27 130 27

Z

M272 68

C270 65 248 26 248 25

C248 24 251 18 255 12

L262 1

L273 0

L285 0

L285 3

C285 5 286 7 288 8

L292 11

L292 8

C293 5 296 1 297 1

C299 1 301 4 302 7

L304 11

L307 8

C309 6 310 4 310 3

L310 0

L322 0

L334 0

L341 13

L348 25

L335 47

L323 69

L298 69

C279 69 273 69 272 68

Z

M310 52

C311 49 310 45 308 42

C304 39 303 39 303 42

C303 43 302 45 301 47

L298 50

L296 47

C294 46 293 44 293 42

C292 39 291 39 288 43

C284 47 285 50 290 55

C292 56 294 59 296 60

C297 61 298 61 303 57

C306 55 309 52 310 52

Z

M280 35

L283 32

L280 31

C278 30 276 29 275 27

L273 25

L276 23

C278 21 280 20 281 20

C284 20 284 19 281 16

C279 14 277 13 275 13

C271 13 269 14 264 21

L261 25

L266 31

C268 34 271 37 271 37

C274 39 277 38 280 35

Z

M327 34

C328 33 330 30 332 28

L335 25

L332 22

C323 11 320 10 315 15

L312 18

L315 19

C317 20 319 21 320 23

L322 25

L320 27

C318 29 316 30 314 30

L312 31

L314 34

C318 38 323 38 327 34

Z

M301 25

C301 23 300 22 298 22

C295 22 293 24 294 27

C295 28 296 28 298 28

C300 28 301 27 301 25

Z

M432 49

C425 38 420 28 419 27

C418 25 419 24 425 12

L432 0

L444 0

L455 0

L455 3

C455 4 456 6 458 8

L461 11

L463 7

C464 4 466 1 468 1

C469 1 472 5 473 8

L474 11

L477 8

C479 7 480 5 480 3

L480 0

L492 0

L504 0

L507 6

L511 12

L511 25

L511 39

L502 54

L493 69

L468 69

L443 69

L432 49

Z

M479 53

C482 50 482 46 478 42

C477 41 475 40 475 40

C475 40 474 42 473 43

C471 48 468 50 466 47

C465 46 464 44 463 42

L463 39

L459 42

C457 44 456 45 456 47

C456 51 457 53 464 58

L469 62

L472 59

C475 57 477 54 479 53

Z

M451 35

L454 32

L450 30

C447 29 444 27 444 25

C444 24 448 21 451 20

L454 20

L451 16

C448 12 443 12 439 16

C433 22 431 26 432 27

C433 27 434 29 436 31

C442 39 446 40 451 35

Z

M494 36

C495 36 498 33 500 30

C505 24 505 24 503 22

C502 21 500 19 499 17

C497 14 493 12 490 12

C488 12 483 16 483 18

C483 18 485 19 486 20

C491 22 493 25 490 27

C489 28 487 29 485 30

L482 31

L485 34

C487 37 491 38 494 36

Z

M471 25

C471 22 471 22 468 22

C465 22 465 22 465 25

C465 28 465 28 468 28

C471 28 471 28 471 25

Z

M0 25

C0 19 0 14 0 14

C1 14 2 16 4 19

L7 25

L5 29

C0 38 0 38 0 25

Z

M15 15

C13 13 11 9 9 6

L6 0

L18 0

C29 0 30 0 30 2

C31 3 33 5 34 6

C36 7 39 9 40 10

L42 13

L45 10

C47 9 50 6 52 4

L56 0

L67 0

C73 0 78 0 78 1

C78 1 76 5 73 10

L68 19

L42 19

L17 19

L15 15

Z

M182 10

C179 5 177 1 177 1

C177 0 182 0 188 0

L199 0

L203 4

C211 11 213 13 214 11

C215 10 217 9 220 7

C222 5 224 3 225 2

C225 0 226 0 237 0

C243 0 248 0 248 1

C248 1 246 5 243 10

L238 19

L213 19

L187 19

L182 10

Z

M353 10

C350 6 347 1 347 1

C347 0 352 0 359 0

C370 0 371 0 371 2

C372 3 375 6 378 8

L383 12

L386 10

C388 9 391 6 393 4

L397 0

L408 0

L419 1

L414 10

L409 19

L383 19

L358 19

L353 10

Z

"/>

</svg>

