<?xml version="1.0" standalone="no"?>

<!DOCTYPE svg PUBLIC "-//W3C//DTD SVG 20010904//EN"

 "http://www.w3.org/TR/2001/REC-SVG-20010904/DTD/svg10.dtd">

<svg version="1.0" xmlns="http://www.w3.org/2000/svg"

 width="470.000000pt" height="590.000000pt" viewBox="0 0 470.000000 590.000000"

 preserveAspectRatio="xMidYMid meet">

<path fill="#f3f3f2" stroke="none" d="
M0 295

L0 0

L235 0

L470 0

L470 295

L470 590

L235 590

L0 590

L0 295

Z

"/>

<path fill="#211f1f" stroke="none" d="
M0 567

C0 547 0 545 2 546

C3 547 4 547 5 546

C7 545 8 545 11 546

C17 549 18 552 18 559

C17 562 17 565 16 566

C15 570 18 567 20 564

C22 559 22 552 19 548

C17 543 8 540 3 540

L0 541

L0 534

L0 528

L4 531

C8 535 9 535 11 534

C12 533 11 532 6 527

L0 521

L0 509

C0 497 1 495 3 499

C4 501 9 502 10 499

C11 497 9 495 4 494

L0 493

L0 441

L0 390

L3 384

C6 378 5 376 2 375

C0 374 0 373 0 363

C0 353 0 353 3 350

C5 347 9 345 15 343

C28 338 29 337 29 333

C29 331 29 330 28 330

C28 330 25 332 21 334

C18 336 12 340 8 342

L0 347

L0 342

L0 337

L4 337

C8 337 9 336 10 334

C11 332 11 330 10 328

C10 324 4 318 2 318

C0 318 0 317 0 313

C0 306 1 305 7 311

C10 313 11 316 11 317

C11 319 11 320 12 320

C14 318 13 313 10 310

C9 308 6 307 4 306

L0 305

L0 277

C0 261 0 250 1 250

C1 251 3 250 3 250

C4 249 5 248 6 248

C10 248 14 250 15 253

C17 256 16 265 14 273

C12 279 12 279 14 277

C18 271 20 255 18 250

C16 246 10 243 5 243

L0 243

L0 166

C0 102 0 88 1 87

C3 86 5 83 7 78

C9 74 9 74 7 73

C5 71 2 71 1 73

C1 73 1 75 2 76

C4 77 4 78 2 80

C1 83 0 83 0 73

C0 59 0 55 4 50

C7 45 13 41 24 37

C32 35 34 32 32 28

C31 27 30 27 27 30

C24 31 18 35 13 38

C8 41 3 44 2 46

L0 49

L0 24

L0 0

L10 0

L20 0

L19 3

C19 5 20 8 21 11

C24 16 25 17 23 12

C22 9 21 6 21 5

C21 0 22 0 36 0

C52 1 65 1 81 0

C92 0 94 0 94 1

C94 2 92 3 90 4

C87 6 86 6 83 5

C80 4 80 4 78 5

C77 7 77 7 78 9

C80 13 93 9 96 2

L97 0

L114 0

C132 0 135 1 142 5

C146 8 146 8 149 6

L152 5

L150 2

L147 0

L151 0

C153 0 155 1 156 1

C157 3 158 3 163 1

C170 0 182 0 190 1

C195 3 196 3 196 1

C197 1 199 0 201 0

L205 0

L203 2

C200 5 200 6 204 7

C207 8 207 8 210 6

C216 1 221 0 238 0

L255 0

L254 3

C254 5 256 13 259 15

C260 16 259 15 258 12

C256 8 256 6 256 3

L257 0

L271 0

C288 1 300 1 316 0

C329 0 331 0 327 3

C324 6 321 6 318 5

C314 3 310 6 313 10

C316 13 327 9 331 3

L333 0

L350 0

C368 0 370 1 378 6

C381 8 381 8 384 6

L387 5

L385 2

L382 0

L386 0

C388 0 390 1 391 1

C392 3 393 3 399 1

C406 0 417 0 425 1

C430 3 431 3 432 1

C432 1 434 0 437 0

L440 0

L438 2

C437 4 436 5 436 5

C440 8 442 8 445 6

C450 2 456 0 464 0

L470 0

L470 25

C470 47 470 50 468 54

C467 57 466 61 466 64

C465 69 465 69 467 69

L470 68

L470 77

C470 84 470 85 468 86

C465 86 465 89 468 89

C470 89 470 90 470 166

C470 226 470 243 469 245

C468 247 468 247 469 249

C471 252 471 318 469 320

C468 321 468 321 469 323

C470 324 470 329 470 336

C470 346 470 347 467 354

C464 358 463 363 462 366

C462 372 462 372 464 372

C466 372 467 371 467 365

C467 361 468 358 469 357

C470 355 470 356 470 364

C470 370 470 374 469 375

C468 376 468 376 469 378

C471 381 470 383 466 387

C463 390 462 391 463 392

C464 392 466 392 467 391

C468 390 469 390 469 390

C470 390 470 394 470 399

L470 408

L467 404

C461 399 454 400 450 407

C447 410 447 416 450 423

C451 426 452 432 453 437

C453 445 453 446 457 449

C461 454 465 454 467 451

C468 447 462 444 460 447

C460 448 459 448 458 447

C456 445 457 436 461 430

C463 428 466 424 467 422

L470 418

L470 424

C470 430 470 431 468 431

C466 430 462 433 462 435

C462 438 465 440 468 440

L470 439

L470 466

L470 493

L467 493

C464 494 461 497 459 501

C457 506 460 513 467 522

L470 527

L470 559

C470 589 470 590 468 590

C466 590 466 589 466 587

C466 583 466 583 462 583

C457 583 449 586 444 588

C443 589 440 590 437 590

C434 590 434 590 436 588

C439 584 451 579 459 578

L465 578

L465 572

C465 569 464 566 464 565

C463 564 449 567 443 569

C436 572 426 579 422 585

C418 589 417 590 415 590

C411 590 411 589 415 585

C417 583 418 581 418 580

C418 578 413 577 410 577

C404 579 403 579 407 585

L411 590

L408 590

C406 590 404 588 400 584

C393 577 387 572 379 569

C373 567 360 565 359 566

C359 566 358 569 358 572

L357 578

L361 578

C368 578 377 581 384 586

L389 590

L386 590

C383 590 380 589 376 587

C372 585 367 584 363 583

L357 583

L357 586

L357 590

L345 590

L333 590

L333 586

C333 582 331 577 329 575

C328 574 328 575 329 578

C330 580 331 583 331 586

L331 590

L319 590

L307 590

L307 586

L307 582

L293 582

L280 582

L280 586

L280 590

L269 590

C260 590 258 590 259 588

C259 587 264 584 266 584

C267 584 269 585 270 585

C273 587 275 585 275 582

C275 580 274 579 272 579

C267 579 258 583 257 587

L255 590

L243 590

L231 590

L231 587

C231 583 231 583 227 583

C222 583 214 586 209 588

C208 589 205 590 202 590

C199 590 199 590 201 588

C204 584 216 579 224 578

L230 578

L230 572

C229 569 229 566 229 565

C228 564 214 567 208 569

C201 572 191 579 187 585

C183 589 182 590 180 590

C178 590 177 590 177 589

C177 589 178 587 180 584

C182 582 183 580 183 579

C182 578 176 577 172 578

C170 579 169 579 169 580

C169 580 171 582 173 585

L176 590

L174 590

C172 590 169 588 163 582

C154 573 146 568 133 566

C129 566 124 565 124 566

C124 566 123 569 122 572

L122 578

L128 578

C136 579 145 582 150 586

L154 590

L150 590

C148 590 144 589 141 587

C137 585 132 584 128 583

L122 583

L122 586

L122 590

L110 590

L98 590

L98 586

C98 582 96 577 93 575

C92 574 92 575 94 578

C96 581 97 585 95 588

C95 590 93 590 83 590

L72 590

L72 586

L72 582

L59 582

L45 582

L45 586

L45 590

L34 590

C25 590 23 590 24 588

C24 587 29 584 31 584

C32 584 34 585 35 585

C37 586 37 586 39 585

C40 583 40 583 39 581

C37 577 25 581 22 587

L20 590

L10 590

L0 590

L0 567

Z

M22 575

C22 573 24 571 26 570

C30 569 30 568 26 568

C21 568 16 577 18 583

C18 585 18 585 19 582

C20 580 21 577 22 575

Z

M257 575

C257 573 259 571 261 570

C265 569 265 568 262 568

C256 568 251 577 253 583

C253 585 253 585 254 582

C255 580 256 577 257 575

Z

M112 579

C113 577 111 574 108 574

C107 574 105 573 104 571

C102 568 104 562 109 559

C113 556 112 555 108 557

C103 559 101 563 101 569

C101 573 101 574 104 577

C108 581 110 582 112 579

Z

M347 579

C349 577 347 574 344 574

C340 574 339 572 339 568

C339 563 341 560 345 558

C348 556 347 556 343 557

C340 559 338 560 337 564

C334 569 335 573 339 578

C342 581 345 582 347 579

Z

M68 576

C70 576 72 575 72 575

C73 575 73 572 73 569

L74 564

L70 565

C68 566 62 566 55 566

L43 565

L44 570

C44 572 44 575 45 575

C46 577 61 577 68 576

Z

M303 576

C305 576 307 575 307 575

C308 575 308 572 308 569

L309 564

L305 565

C303 566 297 566 290 566

L278 565

L279 570

C279 572 279 575 280 575

C281 577 296 577 303 576

Z

M171 573

C176 572 180 572 184 574

C187 576 187 576 190 574

C193 572 193 571 187 568

C179 564 168 565 162 570

L160 572

L162 574

C163 575 165 576 166 575

C167 575 169 574 171 573

Z

M406 573

C411 572 416 572 420 575

C422 576 425 575 427 573

C428 572 427 571 423 568

C415 564 404 565 397 570

C395 572 395 572 397 574

C398 575 400 576 401 575

C402 575 404 574 406 573

Z

M157 567

C159 565 168 561 173 560

C179 560 187 562 193 565

C197 568 198 569 200 567

C202 567 203 565 203 565

C202 562 191 556 185 554

C177 552 168 553 161 557

C155 560 148 565 149 565

C151 567 155 569 155 569

C155 569 156 568 157 567

Z

M392 567

C394 565 403 561 408 560

C414 560 422 562 428 565

C432 568 433 569 435 567

C437 567 438 565 438 565

C438 564 435 562 432 560

C418 550 400 551 388 562

L384 565

L387 567

C390 569 390 569 392 567

Z

M256 560

C257 556 256 550 254 547

C250 542 238 539 236 542

C235 544 235 544 236 546

C238 547 238 547 240 546

C243 544 249 547 252 550

C253 553 253 562 252 567

C251 568 251 568 253 566

C254 565 255 562 256 560

Z

M91 560

C93 559 98 556 102 553

C112 548 115 545 118 540

C121 533 123 522 121 521

C118 520 117 522 117 527

C117 534 113 542 109 545

C107 547 101 549 96 552

C87 555 84 558 85 561

C85 564 87 564 91 560

Z

M146 560

C150 556 158 552 164 550

C178 546 194 549 205 559

L209 563

L215 562

C219 561 222 560 222 560

C222 559 219 556 215 552

C204 541 192 536 177 536

C161 536 149 540 138 551

C134 555 131 559 131 560

C131 561 138 562 142 563

C143 563 145 562 146 560

Z

M327 560

C329 558 334 555 338 553

C347 548 350 545 353 539

C356 534 358 523 357 522

C357 520 353 521 353 523

C352 523 352 526 352 529

C352 534 349 541 345 545

C343 546 337 549 333 551

C322 555 320 556 320 560

C320 564 321 564 327 560

Z

M384 558

C393 551 399 549 412 549

C421 549 422 549 428 552

C432 553 437 557 439 559

L444 563

L450 562

C454 561 457 560 457 560

C457 559 454 556 450 552

C439 541 427 536 412 536

C396 536 385 540 373 552

C369 555 366 559 366 560

C366 560 372 562 377 563

C377 563 381 561 384 558

Z

M70 560

C75 559 75 559 76 554

C78 547 78 547 75 548

C67 551 55 551 42 548

L39 548

L40 553

C41 556 42 558 42 559

C44 561 62 562 70 560

Z

M306 560

C310 559 310 558 312 554

C313 547 313 547 310 548

C302 551 290 551 277 548

L274 548

L276 553

C277 559 277 559 281 560

C287 561 301 561 306 560

Z

M32 555

C34 550 29 542 22 539

C16 536 16 537 21 541

C28 547 30 551 30 556

C29 559 29 560 30 559

C31 558 32 557 32 555

Z

M228 558

C227 557 227 555 226 552

C225 548 224 547 222 549

C221 550 221 551 224 555

C228 560 228 561 228 558

Z

M268 554

C268 549 263 542 257 539

C251 536 251 537 257 542

C264 548 265 551 265 556

L264 561

L266 558

C267 557 268 555 268 554

Z

M131 549

C129 547 127 548 126 552

C124 559 125 560 128 555

C131 552 131 550 131 549

Z

M366 549

C363 547 362 548 361 552

C359 559 360 560 364 555

C367 551 367 550 366 549

Z

M461 553

C461 550 460 548 459 548

C457 548 456 550 457 551

C458 554 462 559 463 559

C463 559 462 556 461 553

Z

M75 543

C80 542 80 541 84 534

C87 527 87 527 85 526

C84 526 80 527 76 529

C70 532 69 533 59 533

C48 533 47 532 41 529

C37 527 34 526 33 526

C31 526 31 529 34 535

L37 542

L43 543

C47 544 51 545 52 545

C56 546 69 545 75 543

Z

M139 544

L141 541

L137 539

C132 536 132 536 130 540

C129 543 129 543 132 544

C136 546 136 546 139 544

Z

M220 544

C223 543 223 543 222 540

C220 536 219 536 215 539

C211 541 211 542 214 544

C217 546 216 546 220 544

Z

M310 543

C315 542 315 541 319 534

C322 528 322 527 320 527

C319 526 315 527 311 529

C305 532 304 533 293 533

C283 533 282 532 276 529

C266 524 265 525 269 534

C271 540 273 541 275 543

C284 546 299 546 310 543

Z

M374 544

C375 543 376 542 376 542

C376 541 368 537 367 537

C367 537 366 538 365 540

C364 543 364 543 367 544

C370 546 371 546 374 544

Z

M455 544

C458 543 458 542 457 541

C457 539 456 538 456 538

C455 537 450 539 448 541

C447 542 447 543 449 544

C452 546 451 546 455 544

Z

M102 540

C102 539 101 536 100 532

C98 527 98 526 99 521

C99 519 101 515 103 512

C106 508 106 506 104 507

C101 508 98 514 96 520

C95 524 95 526 96 531

C96 535 98 538 99 540

C100 542 103 542 102 540

Z

M338 541

C338 540 337 537 336 535

C332 527 332 521 338 513

C340 510 341 507 341 507

C339 506 337 509 334 513

C331 519 330 526 331 532

C332 540 336 545 338 541

Z

M150 534

C148 532 140 526 138 526

C138 526 136 527 136 529

C134 532 134 532 137 533

C138 534 141 535 142 536

C145 539 146 539 149 537

C152 536 152 536 150 534

Z

M214 534

C216 533 218 532 218 532

C218 530 216 526 215 526

C212 526 201 533 201 535

C201 536 202 537 204 537

C206 539 207 539 209 537

C210 537 212 535 214 534

Z

M384 537

L387 535

L384 533

C381 530 375 526 373 526

C373 526 371 527 371 529

C369 532 369 532 372 533

C373 534 376 535 378 536

C379 538 381 539 381 539

C381 539 382 538 384 537

Z

M444 537

C445 537 447 535 449 534

C451 533 453 532 453 532

C453 530 451 526 450 526

C447 526 436 534 436 535

C436 536 441 539 442 539

C442 539 443 538 444 537

Z

M247 533

C247 533 243 529 239 524

C235 520 230 515 229 513

C226 507 226 502 229 499

C232 496 237 496 238 499

C240 502 244 501 245 498

C245 495 245 495 241 494

C233 492 227 494 224 501

C222 506 226 515 235 526

C241 534 246 537 247 533

Z

M170 530

C170 528 156 515 151 513

C148 511 146 510 146 510

C145 511 140 520 140 520

C140 521 142 522 145 524

C148 525 152 528 154 530

L157 534

L164 532

C167 531 170 530 170 530

Z

M207 524

C210 522 212 521 212 520

C212 519 207 510 206 510

C205 510 196 516 193 519

C191 520 188 523 186 526

L182 530

L188 532

L195 534

L199 530

C201 528 205 525 207 524

Z

M405 530

C405 528 394 517 389 514

C380 509 381 509 375 520

C375 520 377 522 380 524

C383 525 387 528 389 530

L392 534

L399 532

C402 531 405 530 405 530

Z

M435 529

C437 527 441 524 443 523

L448 521

L445 515

C443 512 442 510 441 510

C439 510 428 518 423 524

L417 530

L422 532

C429 533 430 533 435 529

Z

M181 524

C185 519 185 518 183 518

C180 517 169 517 168 518

C168 519 169 521 171 524

C173 526 175 529 175 529

C175 531 177 530 181 524

Z

M417 522

C419 520 420 519 420 518

C419 517 404 517 403 518

C403 519 405 521 407 525

L411 530

L413 528

C414 527 416 524 417 522

Z

M73 525

L78 523

L75 521

C72 518 72 518 67 520

C61 521 55 521 50 520

C46 518 45 518 43 520

C39 523 40 524 47 526

C54 529 66 528 73 525

Z

M304 526

C307 526 310 524 311 524

C313 522 313 522 310 520

C307 518 307 518 302 520

C297 521 290 521 285 520

C281 518 280 518 278 520

C274 523 275 524 282 526

C289 528 297 528 304 526

Z

M132 520

C134 518 136 514 137 512

C139 509 140 499 139 495

C138 491 137 493 137 499

C137 508 136 510 131 516

C126 521 125 523 127 524

C128 526 129 525 132 520

Z

M369 517

C374 511 374 510 374 502

C374 496 374 494 373 493

C372 493 372 495 372 500

C372 508 371 510 365 516

C361 521 360 523 362 524

C363 526 364 524 369 517

Z

M45 511

C49 507 52 504 52 503

C52 503 49 502 46 501

L40 499

L36 503

C34 505 30 508 27 509

C22 512 22 512 23 514

C24 516 25 518 26 520

L28 523

L33 520

C36 519 42 515 45 511

Z

M93 516

L95 512

L91 510

C89 509 85 506 82 504

L78 499

L71 501

C68 502 65 503 65 503

C65 505 78 517 83 520

C89 523 89 523 93 516

Z

M281 510

L288 503

L282 501

L275 499

L271 503

C269 505 265 507 262 509

L257 512

L260 518

L263 523

L268 520

C271 519 277 514 281 510

Z

M328 517

L330 512

L326 510

C324 509 320 506 317 504

L313 499

L306 501

C303 502 300 503 300 503

C300 504 303 507 306 510

C312 516 323 523 324 522

C325 522 326 520 328 517

Z

M116 517

C116 517 116 515 115 515

C113 513 114 510 118 506

C122 503 122 502 121 501

C120 501 118 502 116 503

C111 507 107 517 110 518

C113 519 115 519 116 517

Z

M351 518

C352 517 352 516 350 515

C349 513 349 513 351 509

C352 507 353 505 355 505

C358 503 357 500 353 502

C348 503 342 516 345 518

C347 519 349 519 351 518

Z

M67 515

C67 514 59 503 59 503

C58 503 50 514 50 514

C50 516 65 516 67 515

Z

M302 515

C302 514 301 512 299 509

C297 507 295 504 295 504

C295 503 295 503 294 503

C293 504 285 514 285 514

C285 516 300 516 302 515

Z

M176 512

C179 512 184 513 186 513

C189 515 190 515 193 512

C196 510 196 509 187 506

C180 504 168 505 162 508

L157 510

L160 512

C163 515 163 515 167 513

C169 513 173 512 176 512

Z

M411 512

C414 512 419 513 421 513

C424 515 425 515 428 512

C431 510 431 509 422 506

C415 504 403 505 397 508

L392 510

L395 512

C398 515 398 515 402 513

C404 513 408 512 411 512

Z

M220 493

C221 492 223 489 224 489

C227 486 226 485 222 487

C216 489 213 500 216 507

C217 509 217 509 218 503

C218 499 220 495 220 493

Z

M455 494

C456 492 458 490 459 489

C462 487 461 485 457 487

C451 489 448 500 451 507

C452 509 452 509 453 504

C453 500 454 496 455 494

Z

M28 503

C34 498 35 497 31 496

C28 494 28 494 24 497

C22 499 19 500 18 500

C17 500 17 501 18 504

C20 507 21 507 28 503

Z

M100 504

C101 501 101 501 98 500

C97 499 94 498 92 496

C89 494 89 494 86 496

C83 497 83 497 85 499

C86 501 96 507 97 507

C98 507 99 506 100 504

Z

M158 504

C164 501 165 501 176 501

C187 501 188 501 194 504

C200 507 205 507 204 505

C204 505 202 501 201 498

L198 491

L192 489

C183 487 169 487 161 489

C155 491 155 491 152 498

C149 503 149 506 149 506

C151 507 150 507 158 504

Z

M261 504

C263 503 266 500 267 499

C269 497 269 497 266 496

C263 494 263 494 258 498

C255 500 252 501 252 501

C252 502 254 507 255 507

C256 507 259 506 261 504

Z

M334 504

L336 501

L330 498

C324 494 324 494 321 496

C318 497 318 497 320 499

C321 501 331 507 332 507

C333 507 334 506 334 504

Z

M393 504

C399 501 400 501 411 501

C422 501 423 501 429 504

C436 507 440 507 439 505

C433 492 433 491 427 489

C419 487 404 487 396 489

C390 491 390 491 387 498

C384 503 384 506 384 506

C386 507 386 507 393 504

Z

M72 495

C82 493 90 488 97 481

C101 477 104 474 104 473

C104 473 101 472 98 471

L91 469

L87 473

C83 478 73 483 65 484

C53 486 38 482 30 473

L26 469

L19 471

C16 472 13 473 13 473

C13 474 16 477 20 481

C27 488 35 493 45 495

C51 497 65 497 72 495

Z

M307 495

C317 493 325 488 332 481

C336 477 339 474 339 473

C339 473 336 472 333 471

L327 469

L322 474

C306 488 282 488 266 474

L261 469

L254 471

L248 473

L251 477

C257 485 269 492 280 495

C286 497 300 497 307 495

Z

M19 494

C24 492 24 491 21 488

C18 487 18 487 15 488

C12 490 12 490 13 493

C14 497 14 497 19 494

Z

M104 494

C106 491 105 489 102 488

C100 487 99 487 97 489

C95 489 94 491 94 491

C94 492 101 496 102 496

C103 496 103 495 104 494

Z

M254 494

C259 492 259 491 256 488

C253 487 253 487 250 488

C248 489 247 490 247 490

C247 491 249 496 250 496

C250 496 252 495 254 494

Z

M339 494

C341 491 340 489 337 488

C335 487 334 487 332 489

C330 489 329 491 329 491

C329 492 336 496 337 496

C338 496 338 495 339 494

Z

M141 485

C143 484 145 478 145 474

C145 472 144 468 142 464

C140 461 138 455 138 452

C137 448 136 444 136 443

C134 440 128 436 125 436

C123 436 123 437 123 440

C123 442 123 443 125 443

C126 443 128 443 129 442

C130 441 130 441 132 442

C134 446 133 452 128 462

C124 471 123 473 123 476

C125 486 133 490 141 485

Z

M378 483

C381 479 382 475 379 469

C375 460 373 454 372 449

C372 445 371 443 369 440

C365 436 360 435 358 437

C355 440 359 444 363 442

C366 440 368 442 368 448

C368 452 367 455 364 461

C358 472 357 475 360 481

C362 484 363 486 366 487

C370 488 375 487 378 483

Z

M13 484

C14 483 14 482 11 478

C9 475 7 473 7 473

C7 474 8 481 10 484

C10 485 11 485 13 484

Z

M109 479

C110 477 110 475 110 474

C110 474 108 476 106 478

C103 482 103 483 105 484

C107 485 108 485 109 479

Z

M169 483

C176 482 186 482 194 485

C196 485 196 485 194 480

C193 474 193 474 188 473

C182 472 165 472 161 474

C160 474 159 476 159 478

C158 479 158 482 157 483

C157 485 157 485 159 485

C160 484 165 483 169 483

Z

M247 484

C250 484 249 483 246 477

C244 475 242 473 242 474

C242 475 245 485 245 485

C246 485 247 485 247 484

Z

M344 479

C345 477 345 475 345 474

C345 474 343 476 341 478

C338 482 338 483 340 484

C342 485 343 485 344 479

Z

M404 483

C411 482 421 482 429 485

C431 485 431 485 429 480

C428 474 428 474 423 473

C417 472 400 472 396 474

C395 474 394 476 394 479

C393 481 393 483 392 484

C392 485 392 485 394 485

C395 484 400 483 404 483

Z

M71 477

C76 475 83 471 85 469

C86 467 86 467 83 466

C80 464 80 464 77 466

C67 474 50 474 40 466

C37 464 37 464 34 466

L31 468

L34 470

C39 474 47 478 52 479

C58 480 66 479 71 477

Z

M300 479

C307 478 315 474 319 470

L321 467

L318 466

C315 464 315 464 312 466

C301 474 287 474 275 466

C272 464 272 464 269 466

L266 468

L269 470

C274 474 280 477 286 479

C293 480 294 480 300 479

Z

M223 473

C227 464 223 455 211 451

C206 449 203 449 203 453

C203 456 205 457 211 457

C221 458 224 466 219 477

C218 482 221 478 223 473

Z

M458 473

C462 464 458 455 447 451

C441 449 438 450 438 453

C438 456 440 457 446 457

C455 458 459 464 456 474

C454 480 455 480 458 473

Z

M176 467

C178 467 183 467 186 467

L192 468

L191 464

C191 461 190 459 189 458

C187 456 165 456 163 458

C162 458 162 461 161 463

L161 468

L166 467

C169 467 174 467 176 467

Z

M412 467

C414 467 418 467 421 467

L427 468

L426 463

C426 458 426 458 422 457

C417 456 399 456 398 458

C398 458 397 461 396 463

L396 468

L402 467

C405 467 409 467 412 467

Z

M24 464

C28 463 33 460 36 459

C41 455 52 445 52 443

C52 443 49 442 46 441

L40 440

L34 445

C27 451 19 454 11 455

L4 455

L5 459

C6 467 6 467 11 467

C14 467 20 466 24 464

Z

M70 464

C73 463 75 462 75 461

C75 461 74 460 72 459

C70 457 70 457 67 458

C62 460 55 460 51 458

C47 457 47 457 45 459

C43 460 42 461 42 461

C42 462 44 463 47 464

C51 466 54 467 59 467

C63 467 66 466 70 464

Z

M112 463

C112 461 112 458 113 457

C113 455 113 455 109 455

C100 455 90 451 82 444

L77 440

L71 441

C68 442 65 443 65 443

C65 444 68 447 72 451

C82 461 95 467 106 467

L112 467

L112 463

Z

M256 466

C266 463 272 459 281 451

L289 443

L282 441

L275 440

L271 443

C263 450 252 455 243 455

C240 455 240 455 240 459

C240 466 241 467 246 467

C248 467 253 466 256 466

Z

M305 465

C308 463 310 462 310 461

C310 461 309 459 307 459

C305 457 305 457 302 458

C297 460 290 460 286 458

C282 457 282 457 279 459

L277 462

L282 464

C289 468 297 468 305 465

Z

M347 464

C347 463 347 460 348 458

L348 455

L341 455

C333 454 322 449 317 444

L313 440

L306 441

C303 442 300 443 300 443

C300 444 303 447 307 451

C317 461 330 467 342 467

C347 467 347 467 347 464

Z

M147 459

C150 458 150 454 147 451

C144 449 140 451 140 455

C140 459 143 461 147 459

Z

M383 459

C385 457 384 452 382 451

C378 449 375 451 375 455

C375 458 377 460 380 460

C381 460 382 459 383 459

Z

M128 457

C129 454 128 451 125 449

C120 448 117 456 121 458

C124 460 126 459 128 457

Z

M362 457

C366 453 361 447 356 450

C354 452 353 455 356 457

C358 460 360 459 362 457

Z

M65 454

C66 453 65 452 62 448

C60 445 59 443 58 443

C55 447 51 453 52 454

C56 456 62 456 65 454

Z

M301 454

C301 453 300 451 298 448

C295 445 294 443 293 443

C290 447 286 453 287 454

C290 456 299 456 301 454

Z

M231 452

C234 448 229 445 226 447

C223 449 222 446 222 440

C223 436 224 434 228 428

C235 418 235 417 235 412

C233 396 213 398 213 413

C213 415 214 420 215 423

C216 426 217 432 218 437

C218 445 220 449 224 451

C227 453 229 453 231 452

Z

M190 447

C190 442 190 442 187 441

C183 440 165 440 164 442

C164 442 163 445 163 447

L162 452

L176 452

L190 452

L190 447

Z

M425 447

L425 442

L418 441

C414 440 409 440 405 441

L399 442

L398 447

L397 452

L411 452

L425 452

L425 447

Z

M15 449

C21 447 28 443 32 440

L34 437

L31 435

C28 434 28 434 26 436

C22 439 15 442 9 443

C4 443 4 443 4 447

C4 450 4 450 7 450

C8 450 12 449 15 449

Z

M113 447

C113 443 113 443 108 443

C102 442 95 439 91 436

C89 434 89 434 86 436

L83 438

L86 441

C88 443 91 445 93 445

C97 448 106 450 110 450

C113 450 113 450 113 447

Z

M257 446

C262 444 269 439 269 438

C269 437 268 436 266 435

C263 434 263 434 261 436

C257 439 250 442 244 443

C239 443 239 443 239 446

C239 447 239 449 240 449

C241 451 251 449 257 446

Z

M348 447

C348 444 348 443 346 443

C341 443 333 441 329 437

L324 434

L321 436

L318 438

L321 441

C323 443 326 445 328 445

C332 448 341 450 345 450

C348 450 348 450 348 447

Z

M156 438

C156 435 154 434 150 434

C141 434 136 428 138 420

C138 417 139 415 139 414

C140 412 140 412 138 414

C135 418 133 423 135 428

C137 434 140 437 146 439

C153 442 156 442 156 438

Z

M391 438

C391 435 390 434 385 434

C381 434 375 432 374 429

C373 427 373 417 375 414

C376 410 373 413 371 416

C369 420 369 428 372 432

C374 436 383 441 387 441

C390 441 391 440 391 438

Z

M235 438

C239 434 234 428 229 431

C227 433 226 435 228 438

C229 441 233 441 235 438

Z

M18 435

C23 432 24 431 20 429

C18 427 18 427 15 428

C14 429 11 430 8 430

C4 431 4 431 4 434

C4 435 4 437 5 437

C6 439 13 437 18 435

Z

M76 434

C80 433 86 430 89 428

C94 425 104 415 104 413

C104 413 101 412 98 411

L91 410

L87 413

C71 429 46 429 29 413

L26 410

L19 411

C16 412 13 413 13 413

C13 414 16 417 20 421

C30 431 39 435 54 437

C59 438 69 437 76 434

Z

M113 434

C113 431 112 431 109 430

C106 430 103 429 102 428

C99 427 99 427 97 429

C95 430 94 431 94 431

C94 432 101 436 105 437

C111 438 113 438 113 434

Z

M253 435

C258 432 259 431 256 429

C253 427 253 427 250 429

C248 429 245 430 243 430

C240 431 239 431 239 433

C239 437 240 438 244 438

C247 437 251 436 253 435

Z

M307 436

C316 434 324 429 332 421

C336 417 339 414 339 413

C339 413 336 412 333 411

L327 410

L321 415

C312 422 306 424 294 424

C284 424 283 424 277 421

C273 419 268 416 265 414

L261 410

L255 411

C251 412 248 413 248 413

C248 415 262 428 268 431

C281 438 292 439 307 436

Z

M348 434

C348 431 347 431 344 430

C341 430 338 429 337 428

C334 427 334 427 332 429

C330 430 329 431 329 431

C329 432 336 436 340 437

C347 438 348 438 348 434

Z

M190 431

C190 426 190 426 186 425

C182 424 171 424 166 425

C162 426 162 426 162 431

L162 436

L176 436

L190 436

L190 431

Z

M215 435

C218 432 215 427 212 427

C209 427 207 429 207 432

C207 434 209 436 212 436

C213 436 214 435 215 435

Z

M425 431

C425 426 425 426 421 425

C417 424 406 424 401 425

C397 426 397 426 397 429

C397 436 397 436 412 436

L425 436

L425 431

Z

M451 433

C451 429 450 427 447 427

C444 427 442 429 442 432

C442 435 444 436 447 436

C450 436 451 435 451 433

Z

M11 425

C13 424 14 424 14 423

C14 422 8 414 7 414

C6 414 5 421 5 425

C5 426 7 426 11 425

Z

M112 423

C112 422 112 419 111 417

L110 413

L107 418

C105 421 103 423 103 423

C103 424 109 426 111 426

C111 426 112 425 112 423

Z

M246 425

C248 424 249 424 249 423

C249 422 242 413 242 414

C241 414 241 417 241 420

C240 427 240 427 246 425

Z

M347 422

C347 420 346 417 346 416

L346 413

L342 418

C340 421 338 423 338 423

C338 424 344 426 346 426

C347 426 347 425 347 422

Z

M176 420

C180 420 185 420 187 420

L191 421

L192 416

C193 413 193 411 192 411

C188 409 171 408 164 410

C160 411 160 411 160 415

C161 417 161 419 161 420

C161 421 162 421 165 420

C167 420 172 420 176 420

Z

M407 419

C411 419 417 419 420 420

C423 420 426 421 426 420

C427 419 428 411 427 411

C423 409 406 408 399 410

C395 411 395 411 395 414

C396 416 396 418 396 419

C396 421 396 421 398 421

C399 420 403 420 407 419

Z

M73 417

C76 415 80 413 82 411

L86 408

L83 406

C80 404 79 404 77 406

C70 413 56 414 46 410

C43 409 40 407 39 406

C38 404 38 404 34 406

L31 407

L33 410

C36 413 43 417 49 419

C56 421 67 420 73 417

Z

M308 417

C311 415 315 413 317 411

L321 408

L318 406

C315 404 314 404 312 406

C309 409 302 412 296 413

C290 413 282 411 276 407

C272 404 272 404 269 406

L266 408

L269 411

C280 420 296 422 308 417

Z

M135 408

C137 406 138 404 139 401

C139 397 138 388 135 382

C134 379 133 378 134 380

C134 381 135 385 135 389

C136 396 136 397 134 402

C133 404 131 407 130 407

C127 409 127 410 131 410

C132 410 134 409 135 408

Z

M369 409

C374 406 375 397 372 386

C369 378 368 376 370 384

C372 395 371 405 365 407

C364 408 363 409 363 409

C363 410 367 410 369 409

Z

M22 405

C29 403 35 400 42 395

C46 391 53 383 52 383

C52 383 49 382 46 381

L40 380

L35 384

C30 389 25 392 17 394

C12 396 11 396 10 401

C7 408 7 408 12 407

C15 407 19 406 22 405

Z

M66 406

C68 406 72 404 73 403

L75 401

L73 399

C70 397 70 397 67 399

C63 401 54 401 50 399

C47 397 47 397 44 399

L42 402

L45 404

C48 406 54 408 58 408

C59 408 63 407 66 406

Z

M109 407

C109 406 108 403 107 400

C106 395 106 395 101 394

C94 393 87 389 82 384

L77 380

L71 381

C68 382 65 383 65 383

C65 384 66 386 68 388

C77 398 89 405 102 407

C109 408 109 408 109 407

Z

M257 405

C260 404 265 402 268 401

C275 397 287 386 287 384

C287 383 285 382 281 381

L275 380

L271 384

C266 389 260 392 252 394

C247 395 247 396 245 401

C242 408 242 408 247 407

C250 407 254 406 257 405

Z

M301 406

C303 406 307 404 308 403

L310 401

L308 399

C305 397 305 397 302 399

C298 401 289 401 285 399

C282 397 282 397 279 399

L277 402

L280 403

C283 406 289 408 293 408

C294 408 298 407 301 406

Z

M344 407

C344 406 343 403 342 400

L341 395

L334 394

C328 392 320 388 315 383

C313 380 312 380 306 381

C303 382 300 383 300 383

C300 384 302 387 305 390

C314 399 325 405 337 407

C344 408 344 408 344 407

Z

M166 404

C168 404 170 403 170 403

C170 401 154 386 152 386

C152 386 153 390 155 395

C156 400 158 404 158 405

C158 406 159 406 160 406

C161 405 163 405 166 404

Z

M196 399

C197 396 199 391 200 390

C202 386 201 385 196 389

C192 391 182 402 182 403

C182 403 184 404 187 405

C190 405 193 406 193 406

C194 406 195 403 196 399

Z

M401 404

C403 404 405 403 405 403

C405 402 396 392 392 389

C387 385 386 385 387 389

C388 390 390 395 391 399

C393 404 394 406 395 405

C396 405 398 405 401 404

Z

M432 397

C433 393 435 389 435 388

C437 385 436 386 431 389

C427 392 417 402 417 403

C417 404 427 406 428 406

C429 406 430 402 432 397

Z

M184 392

C187 390 173 389 169 391

C167 392 167 392 168 393

C169 394 172 396 173 399

L176 403

L180 398

C181 395 183 393 184 392

Z

M419 391

C417 390 406 390 404 391

C403 392 404 393 407 397

L411 403

L415 397

C418 394 419 391 419 391

Z

M212 394

C212 385 213 383 218 377

C223 372 224 369 221 369

C220 369 214 376 212 381

C210 384 209 396 210 398

C211 402 212 400 212 394

Z

M447 393

C447 386 448 383 454 376

C458 372 459 369 456 368

C456 368 453 371 450 376

C446 382 445 384 445 387

C445 390 445 392 444 394

C444 396 445 400 446 400

C447 400 447 397 447 393

Z

M122 396

C130 394 132 385 128 377

C122 366 113 355 109 355

C106 355 107 357 115 366

C127 378 130 385 125 391

C121 394 119 394 115 391

C114 389 112 388 112 388

C111 388 108 391 108 392

C108 393 111 395 114 396

C118 397 118 397 122 396

Z

M361 394

C362 394 364 391 365 389

C366 386 366 385 365 381

C362 372 349 355 345 355

C341 355 342 358 350 365

C359 374 362 379 362 385

C362 388 361 389 359 391

C356 394 354 394 351 390

C347 387 344 388 344 392

C345 397 355 398 361 394

Z

M63 395

C65 394 66 394 66 393

C66 393 59 384 59 384

C58 383 51 393 51 394

C52 394 57 396 58 396

C59 396 61 396 63 395

Z

M298 395

C300 394 301 394 301 393

C301 393 299 391 297 388

L294 383

L291 387

C289 389 288 391 287 391

C285 393 286 394 289 395

C292 396 294 396 298 395

Z

M233 390

C237 387 240 381 240 378

C240 375 236 373 233 375

C232 376 232 376 233 378

C234 379 235 380 235 381

C235 383 230 388 228 389

C226 390 227 392 229 392

C230 392 232 391 233 390

Z

M20 388

C24 386 34 379 34 378

C34 378 33 377 31 376

C28 375 28 375 23 378

C20 380 17 383 16 385

C14 389 14 390 20 388

Z

M101 385

C99 381 91 375 88 375

C83 377 82 378 86 381

C89 383 100 389 102 389

C102 389 102 388 101 385

Z

M257 387

C261 385 269 379 269 378

C269 378 268 377 266 376

C263 375 263 375 258 378

C255 380 252 383 251 385

L249 389

L252 389

C253 388 256 387 257 387

Z

M338 388

C338 387 334 380 333 380

C333 380 331 379 328 377

C325 375 322 375 319 377

C318 378 318 378 321 380

C325 385 338 391 338 388

Z

M174 385

C178 385 183 385 185 386

C189 387 190 387 192 385

C194 384 195 383 195 383

C195 382 192 381 189 380

C181 377 171 377 163 380

L157 382

L159 385

C161 386 163 387 164 386

C166 386 170 386 174 385

Z

M409 385

C413 385 418 385 420 386

C424 387 425 387 427 385

C429 384 430 383 430 383

C430 382 423 379 417 378

C414 377 410 377 406 378

C400 379 393 382 393 383

C393 385 398 387 400 386

C401 386 406 386 409 385

Z

M13 382

C19 374 20 360 16 353

C12 348 10 352 13 358

C17 366 17 372 11 380

C8 386 7 386 9 386

C10 386 12 384 13 382

Z

M247 384

C251 381 253 373 253 367

C253 357 250 349 247 352

C246 353 246 354 248 359

C250 362 251 366 251 367

C251 371 248 378 245 382

C244 383 243 385 243 385

C243 387 246 386 247 384

Z

M170 373

C179 371 187 373 195 377

C202 380 204 380 207 374

C209 371 209 371 207 370

C206 369 203 367 200 366

C183 357 161 358 146 369

L143 371

L145 374

C148 380 151 380 157 377

C160 375 166 373 170 373

Z

M393 377

C404 371 418 371 430 377

C437 380 440 380 442 374

C444 370 444 370 436 366

C421 358 401 358 387 365

C379 370 378 370 380 374

C381 377 386 380 387 380

C387 380 390 378 393 377

Z

M69 377

C77 375 85 371 89 368

C91 366 91 366 90 363

C87 358 85 357 77 361

C70 364 69 365 59 365

C48 365 47 364 40 361

C32 357 30 358 27 363

C26 366 26 366 28 368

C34 373 48 378 58 378

C60 378 66 377 69 377

Z

M310 375

C317 373 326 368 326 367

C326 365 323 360 321 359

C319 358 318 358 312 361

C305 364 304 365 294 365

C283 365 282 364 276 361

C268 358 266 358 263 363

L261 366

L263 368

C274 377 296 380 310 375

Z

M232 365

C233 357 236 351 240 348

C242 346 247 344 252 342

C262 338 264 337 264 333

C264 329 263 329 258 333

C256 334 251 337 248 339

C237 345 234 348 231 353

C229 358 226 370 227 372

C227 372 228 372 229 372

C231 372 232 371 232 365

Z

M149 361

C153 360 152 359 146 355

C142 352 132 348 132 349

C132 352 136 356 140 359

C143 361 146 363 146 363

C146 363 147 362 149 361

Z

M212 360

C215 358 217 355 219 353

C220 351 220 349 220 349

C220 348 217 349 214 350

C210 352 201 358 201 360

C201 360 205 363 206 363

C206 363 209 362 212 360

Z

M384 361

C388 360 387 359 381 355

C377 352 367 348 367 349

C367 351 372 357 376 360

C378 361 381 363 381 363

C381 363 382 362 384 361

Z

M447 359

C451 357 455 352 455 349

C455 347 443 353 439 357

L436 359

L438 361

C439 362 441 363 441 363

C442 363 444 361 447 359

Z

M73 357

C75 356 77 355 77 355

C77 354 76 353 74 352

C72 350 72 350 68 352

C63 353 55 353 50 352

C46 350 45 351 43 352

C41 353 40 355 40 355

C40 356 43 357 46 358

C54 360 66 360 73 357

Z

M308 357

L313 355

L310 353

C307 350 307 350 303 352

C298 353 291 353 285 352

C281 350 280 350 278 353

L275 355

L277 356

C285 361 300 361 308 357

Z

M165 356

C171 355 171 355 165 348

C159 340 144 332 131 330

C125 330 125 330 128 338

C129 343 130 343 133 343

C139 344 147 349 153 354

C156 356 158 358 159 357

C160 357 163 356 165 356

Z

M199 354

C204 349 213 344 219 343

C223 343 223 342 225 337

C226 333 227 330 226 330

C225 329 211 332 204 336

C197 339 188 347 184 352

L182 355

L188 356

C192 357 195 358 195 358

C195 358 197 356 199 354

Z

M400 356

C403 355 405 355 405 354

C405 354 403 352 401 349

C394 340 379 332 367 330

L361 330

L361 333

C363 340 365 343 369 343

C375 345 382 349 388 354

C391 356 393 358 394 357

C395 357 398 356 400 356

Z

M434 354

C439 349 446 345 453 344

L458 342

L460 336

C461 333 462 330 461 330

C461 330 458 330 454 331

C441 333 428 341 420 351

L417 355

L423 356

C427 357 430 358 430 358

C430 358 432 356 434 354

Z

M180 349

L184 344

L181 343

C178 342 173 342 171 343

C169 345 169 345 172 349

C174 352 176 354 176 354

C176 354 178 352 180 349

Z

M415 349

L419 344

L416 343

C413 342 408 342 406 343

C404 344 404 345 407 349

C409 352 411 354 411 354

C411 354 413 352 415 349

Z

M39 349

C41 348 45 344 48 340

L53 335

L48 333

C41 332 40 332 40 334

C40 335 38 339 37 344

C35 348 34 352 34 352

C34 352 36 351 39 349

Z

M81 345

C79 341 78 337 78 335

C77 333 76 332 76 332

C75 332 66 334 65 335

C64 336 81 352 83 352

C83 352 83 349 81 345

Z

M282 342

L288 335

L283 333

C279 333 276 332 276 333

C276 333 274 337 273 341

C271 346 270 350 269 351

C268 354 275 349 282 342

Z

M315 343

C314 338 312 334 312 333

C312 333 312 332 311 332

C310 332 301 334 300 335

C299 336 316 352 318 352

C318 352 317 348 315 343

Z

M101 349

C92 343 88 336 89 329

C90 325 90 325 88 327

C85 334 88 343 96 348

C102 351 105 352 101 349

Z

M333 346

C326 340 324 335 324 329

C325 325 325 325 323 328

C320 335 323 343 331 348

C339 352 339 352 333 346

Z

M67 347

C67 346 65 344 63 341

C61 337 58 335 58 336

C54 341 50 346 50 346

C50 348 65 348 67 347

Z

M302 347

C302 346 301 344 299 342

C297 339 295 336 295 336

C294 335 293 335 292 337

C291 338 289 341 288 343

C284 346 284 347 287 347

C290 348 301 347 302 347

Z

M117 346

C119 346 119 341 117 340

C117 340 115 340 113 341

C110 343 104 341 102 337

C100 334 101 326 103 318

C104 314 105 311 104 311

C103 311 99 323 98 329

C98 337 99 342 104 345

C107 347 114 348 117 346

Z

M353 345

C357 342 353 339 349 341

C346 343 341 342 338 339

C336 336 336 328 338 319

C339 315 340 311 339 311

C339 310 336 317 335 323

C332 333 333 341 339 345

C343 348 351 348 353 345

Z

M177 337

C179 337 182 338 184 339

C188 341 188 341 190 338

L193 336

L190 334

C184 331 180 330 174 330

C169 331 160 334 160 336

C160 337 161 338 162 339

C165 341 165 341 169 339

C171 338 174 337 177 337

Z

M412 337

C414 337 417 338 419 339

C423 341 423 341 425 338

L428 336

L425 334

C417 329 403 329 397 335

C395 336 395 337 397 339

C400 341 400 341 404 339

C406 338 409 337 412 337

Z

M244 336

C246 333 246 328 245 325

C241 319 236 316 234 320

C232 322 234 325 237 325

C240 325 242 327 242 330

C242 333 240 335 237 335

C235 335 234 335 235 336

C235 337 243 337 244 336

Z

M160 330

C165 326 170 325 177 325

C183 325 189 327 194 331

C197 333 197 333 200 332

C202 331 203 330 203 330

C203 329 196 323 191 321

C184 318 168 318 162 321

C157 323 149 329 149 330

C149 331 153 333 154 333

C155 333 157 332 160 330

Z

M395 330

C397 328 401 327 403 326

C412 324 424 326 430 331

C432 333 432 333 436 332

L439 330

L436 327

C434 325 430 323 427 321

C422 319 420 319 412 319

C403 319 401 319 396 321

C393 323 389 325 387 327

L384 330

L387 331

C388 332 390 333 390 333

C390 333 392 332 395 330

Z

M69 328

C75 327 75 327 75 324

C74 322 74 320 74 319

C74 318 72 318 59 318

C51 318 44 318 44 318

C43 318 43 320 43 323

L42 327

L47 328

C53 329 63 329 69 328

Z

M304 328

C307 327 310 326 310 326

C310 325 310 323 309 321

L309 318

L294 318

C277 318 278 317 278 324

C278 326 278 327 282 328

C288 329 297 329 304 328

Z

M148 324

C151 321 156 318 159 316

C164 314 165 314 176 314

C187 314 188 314 194 317

C198 318 203 322 205 324

L210 328

L215 326

C219 326 221 325 222 325

C223 324 211 312 206 309

C184 295 156 298 138 316

C134 320 131 324 131 324

C131 325 134 326 137 327

C140 327 143 328 143 328

C143 328 145 326 148 324

Z

M383 324

C386 321 391 318 394 316

C399 314 400 314 411 314

C422 314 423 314 429 317

C433 318 438 322 440 324

L445 328

L450 326

C454 326 456 325 457 325

C457 324 454 321 451 317

C429 295 394 294 372 317

C369 320 366 324 366 324

C366 325 369 326 372 327

C375 327 378 328 378 328

C378 328 380 326 383 324

Z

M129 319

L132 314

L129 313

C124 311 123 312 123 316

C123 320 124 324 125 324

C125 323 127 321 129 319

Z

M229 317

L230 312

L227 312

C226 312 224 313 223 313

C221 315 221 315 224 319

C226 322 228 324 228 323

C228 323 229 320 229 317

Z

M361 323

C361 323 362 321 364 318

C367 314 367 313 362 312

C358 312 358 312 358 315

C358 319 359 324 360 324

C361 324 361 324 361 323

Z

M464 317

L465 312

L462 312

C461 312 459 313 458 313

C456 315 456 315 459 319

C461 322 463 324 463 323

C463 323 464 320 464 317

Z

M22 316

C19 311 20 307 22 303

C25 299 30 297 34 299

C36 300 36 300 38 299

C40 296 39 293 35 293

C30 293 24 296 21 299

C17 305 17 312 21 317

C24 321 24 321 22 316

Z

M248 316

C248 312 245 308 240 306

C235 304 233 305 237 307

C242 309 246 314 246 318

C246 319 246 320 247 320

C248 319 248 318 248 316

Z

M258 318

C253 311 255 303 261 300

C265 298 266 298 269 299

C271 301 274 299 274 296

C273 291 261 293 257 299

C252 304 252 312 256 317

C259 321 260 321 258 318

Z

M72 311

C73 311 73 309 72 306

L72 301

L65 302

C60 303 56 303 52 302

C48 302 45 301 45 301

C45 301 45 304 45 306

C45 311 45 311 48 312

C52 313 71 313 72 311

Z

M305 312

C308 311 308 309 308 305

L307 301

L300 302

C295 303 291 303 287 302

C283 302 280 301 280 301

C280 301 280 304 280 306

C280 311 280 312 283 312

C287 313 302 313 305 312

Z

M140 306

C139 304 132 301 127 300

L122 300

L122 303

C122 307 122 307 127 307

C129 308 132 309 133 309

C135 311 136 311 138 309

C140 308 141 306 140 306

Z

M227 307

C230 307 231 305 231 302

C231 300 231 300 226 300

C221 301 217 302 213 305

C212 306 212 306 214 308

L216 311

L220 309

C223 308 226 307 227 307

Z

M375 306

C374 304 367 301 362 300

L357 300

L357 303

C357 307 357 307 360 307

C362 307 365 308 367 309

C370 311 371 311 373 309

C375 308 376 306 375 306

Z

M454 309

C456 309 459 308 461 307

C465 307 466 306 466 303

C466 300 466 300 463 300

C459 300 451 302 449 305

C447 306 447 306 449 308

C452 311 451 311 454 309

Z

M97 305

C100 303 100 301 101 297

C101 294 101 292 100 292

C100 292 99 293 99 295

C99 298 96 304 92 306

L89 308

L91 308

C93 308 95 307 97 305

Z

M333 304

C335 302 336 300 336 296

C336 292 336 292 335 294

C332 302 330 305 327 306

L324 308

L327 308

C329 308 331 307 333 304

Z

M148 302

C152 300 152 300 148 297

C142 292 133 288 126 288

C122 288 122 288 122 292

C122 295 122 295 125 295

C130 295 138 298 142 300

C145 303 145 303 148 302

Z

M209 302

C210 300 220 296 225 295

L231 295

L231 291

L231 288

L225 288

C218 289 209 292 204 296

C200 300 200 300 203 302

C206 303 208 303 209 302

Z

M384 302

C386 301 387 300 387 300

C387 299 385 298 382 296

C376 291 368 288 362 288

C357 288 357 288 357 292

C357 295 357 295 361 295

C366 295 373 297 377 300

C380 303 381 303 384 302

Z

M447 300

C452 297 457 295 462 295

C466 295 466 295 466 291

L466 288

L460 288

C453 289 444 292 439 296

C435 300 435 300 438 302

C441 303 441 303 447 300

Z

M21 287

C22 286 24 285 26 284

L29 282

L26 282

C21 282 16 288 16 294

C16 298 17 298 19 294

C19 291 20 288 21 287

Z

M69 296

C72 296 72 295 72 291

L72 287

L59 287

L45 287

L45 291

C45 296 45 296 48 296

C57 298 62 298 69 296

Z

M165 296

C168 296 170 295 170 295

C170 293 159 283 154 279

C150 277 145 274 142 273

C134 271 124 269 124 271

C123 271 123 274 123 277

L122 283

L129 283

C137 284 146 288 153 294

C156 296 158 298 159 297

C160 297 163 297 165 296

Z

M200 293

C207 287 215 284 223 283

L230 283

L230 279

C230 278 230 275 229 273

C229 269 227 269 217 271

C206 274 198 278 189 287

C185 291 182 294 182 295

C183 295 190 297 194 298

C195 298 197 296 200 293

Z

M255 289

C256 287 259 285 260 284

L264 282

L261 282

C255 282 250 290 252 296

L252 299

L253 296

C253 294 254 291 255 289

Z

M304 296

C307 296 307 295 307 291

L307 287

L294 287

L280 287

L280 291

C280 296 280 296 283 296

C292 298 297 298 304 296

Z

M401 296

C403 296 405 295 405 295

C405 294 398 286 394 282

C386 276 376 272 365 270

C362 270 359 270 359 271

C358 271 358 274 358 277

L357 283

L364 283

C372 284 381 288 388 294

C391 297 393 298 395 297

C396 297 398 297 401 296

Z

M434 295

C440 288 451 283 460 283

L465 283

L465 279

C465 269 464 269 452 271

C441 274 433 278 424 287

C420 291 417 294 417 295

C418 295 426 297 430 298

C430 298 432 297 434 295

Z

M90 295

C98 291 101 282 97 274

C94 270 93 270 96 274

C97 276 97 279 97 282

C96 289 89 294 83 291

C80 289 76 293 79 296

C81 298 85 297 90 295

Z

M326 294

C329 293 331 291 333 288

C335 284 334 276 331 272

C329 269 328 270 331 274

C331 275 332 278 332 281

C332 284 331 286 329 289

C325 292 323 293 318 291

C316 290 316 290 314 291

C313 294 314 297 318 297

C319 297 323 296 326 294

Z

M181 288

L184 284

L180 283

C177 282 171 282 170 284

C169 284 171 287 173 290

C176 295 176 295 177 293

C178 292 180 290 181 288

Z

M416 283

C414 282 406 282 405 284

C404 284 405 287 408 290

L411 295

L415 290

L419 285

L416 283

Z

M118 284

C117 283 116 283 116 283

C113 283 107 276 106 273

C106 270 104 270 104 273

C104 277 108 282 111 284

C115 285 118 285 118 284

Z

M353 285

C353 284 351 283 349 282

C345 280 342 276 341 272

L340 270

L340 272

C339 276 342 281 346 283

C349 285 353 286 353 285

Z

M67 281

C70 280 72 280 73 280

C73 280 73 277 73 274

L74 269

L70 270

C65 271 48 271 45 270

C43 269 43 269 44 274

C44 277 44 280 45 280

C45 280 54 282 58 282

C60 282 64 282 67 281

Z

M302 281

C305 280 307 280 308 280

C308 280 308 277 308 274

L309 269

L305 270

C300 271 283 271 280 270

C278 269 278 270 279 274

C279 276 280 279 280 279

C282 282 294 282 302 281

Z

M167 280

C171 277 178 277 183 279

L188 281

L190 278

L193 276

L190 274

C181 269 171 269 162 274

L160 276

L162 279

C165 281 164 281 167 280

Z

M403 279

C408 277 413 277 418 279

L423 281

L425 279

L428 276

L426 275

C417 269 406 269 397 274

L395 276

L397 279

C400 281 399 281 403 279

Z

M253 270

C254 264 254 253 253 250

C251 246 245 243 240 243

C235 243 233 244 233 247

C233 250 237 251 238 249

C240 248 245 248 248 250

C252 253 252 265 249 274

C248 275 248 277 248 277

C248 280 251 274 253 270

Z

M159 270

C163 267 171 265 176 265

C182 265 187 266 192 270

C197 273 198 273 200 272

C204 270 204 270 200 266

C187 256 168 255 155 265

C151 267 149 269 149 270

C149 271 153 273 155 273

C155 273 157 272 159 270

Z

M395 270

C406 263 421 264 430 272

C432 273 432 273 435 272

C437 271 438 270 438 270

C438 268 431 264 426 261

C415 256 401 257 390 265

C384 269 383 270 386 272

C390 273 390 273 395 270

Z

M118 270

C120 268 118 265 116 265

C112 265 110 263 110 260

C110 257 112 255 116 255

C117 255 118 255 118 254

C117 253 111 253 109 254

C107 255 106 259 107 262

C107 266 113 272 116 272

C117 272 118 271 118 270

Z

M354 269

C354 266 353 265 350 265

C343 263 343 255 351 255

C352 255 353 255 353 254

C352 252 346 253 344 255

C339 259 345 273 352 272

C353 272 354 271 354 269

Z

M148 264

C155 257 164 254 174 253

C186 253 196 256 205 264

L209 268

L215 267

C219 266 222 265 222 265

C222 264 219 261 215 257

C203 245 192 241 177 241

C166 241 159 243 150 247

C144 251 131 262 131 264

C131 265 134 266 142 268

C143 268 145 266 148 264

Z

M383 264

C394 254 409 251 424 255

C431 257 439 262 442 266

C443 268 444 268 450 267

C454 266 457 265 457 265

C457 263 446 253 441 249

C432 243 423 241 412 241

C398 241 387 244 377 253

C372 256 366 264 366 265

C366 266 370 266 377 268

C378 268 380 266 383 264

Z

M69 265

C75 264 75 264 76 260

C77 257 77 255 78 254

C78 252 78 252 73 254

C66 255 51 255 44 254

C40 252 39 252 39 254

C40 254 40 257 41 259

C42 264 43 264 48 265

C55 266 63 266 69 265

Z

M304 265

L310 264

L311 258

C312 256 313 253 313 253

C313 252 311 253 308 254

C301 255 286 255 279 254

C275 252 274 252 274 254

C275 254 275 257 276 259

C277 264 278 264 283 265

C290 266 298 266 304 265

Z

M30 256

C30 250 26 244 20 241

C17 240 15 239 14 239

C14 239 16 241 18 243

C25 247 28 254 28 260

C28 264 28 265 29 263

C29 262 30 259 30 256

Z

M265 260

C266 256 265 251 263 247

C261 245 255 241 251 239

C249 239 250 240 253 242

C260 248 263 254 263 260

C262 266 263 266 265 260

Z

M131 254

C128 252 127 253 126 257

C124 264 125 265 129 259

C131 256 132 255 131 254

Z

M226 258

C225 253 223 252 221 254

C221 255 227 264 228 264

C228 263 227 261 226 258

Z

M366 254

C363 252 362 253 361 257

C359 264 360 265 364 259

C366 256 367 255 366 254

Z

M462 259

C461 254 459 252 457 254

C456 255 457 256 459 259

C461 262 462 264 463 264

C463 264 462 261 462 259

Z

M95 257

C97 255 103 251 107 249

C118 243 123 237 125 226

C126 222 126 219 126 219

C126 218 121 218 121 219

C121 219 121 222 120 225

C120 231 117 237 114 241

C112 243 107 245 103 247

C89 253 87 254 88 259

C89 261 90 260 95 257

Z

M329 258

C330 256 336 253 341 250

C346 247 351 244 352 243

C355 239 360 229 361 223

C361 218 361 218 359 218

C357 218 356 219 356 225

C355 232 351 241 347 243

C345 244 340 246 336 248

C325 252 323 254 323 256

C323 261 325 261 329 258

Z

M74 248

L81 246

L83 240

C85 236 86 233 86 232

C86 231 82 231 80 233

C76 235 65 238 59 238

C52 238 41 235 37 233

C35 231 32 231 32 232

C31 232 32 236 34 240

C37 246 38 247 42 248

C51 251 63 251 74 248

Z

M139 249

L141 246

L138 244

C133 241 131 241 130 245

C129 247 130 248 132 249

C136 251 136 251 139 249

Z

M220 249

C221 248 223 248 223 247

C224 247 221 242 220 242

C218 242 212 246 212 247

C212 248 216 251 217 251

C217 251 218 250 220 249

Z

M307 249

C314 247 315 246 319 239

C322 233 322 232 320 231

C319 230 318 231 315 232

C311 235 300 238 293 238

C287 238 277 235 273 232

C270 231 267 231 267 232

C266 232 267 236 269 240

C272 246 273 247 277 248

C285 251 297 251 307 249

Z

M374 249

L376 246

L373 244

C368 241 367 241 365 245

C364 248 364 248 367 249

C371 251 371 251 374 249

Z

M455 249

C457 248 458 247 457 246

C456 242 455 242 452 243

C447 245 446 247 449 249

C450 250 452 251 452 251

C452 251 453 250 455 249

Z

M149 238

C148 236 145 234 142 233

L137 230

L135 233

C135 235 134 236 134 236

C134 237 136 238 139 239

C141 240 143 242 144 242

C145 244 146 244 149 242

L152 241

L149 238

Z

M217 237

C219 236 216 231 214 231

C212 231 202 238 201 240

C201 240 202 242 204 242

C206 244 207 243 211 240

C214 239 216 237 217 237

Z

M384 238

C383 236 380 234 377 233

L372 230

L371 233

L369 237

L373 239

C375 239 378 241 379 242

C380 244 380 244 384 242

L387 241

L384 238

Z

M452 237

C453 236 453 236 452 234

C451 231 451 231 448 231

C445 232 436 239 436 240

C436 240 437 241 439 242

C441 244 442 243 446 240

C449 239 452 237 452 237

Z

M106 238

C106 237 105 234 104 232

C100 224 101 217 107 209

C108 207 109 205 109 204

C107 203 105 205 102 211

C98 219 98 228 101 235

C103 239 106 241 106 238

Z

M341 238

C341 237 340 234 339 232

C336 224 337 212 342 208

C345 206 344 204 342 204

C341 204 339 207 338 210

C335 216 335 217 335 224

C335 230 335 233 336 236

C338 239 341 240 341 238

Z

M166 236

C168 236 170 235 170 235

C170 233 156 220 151 218

C148 216 146 215 146 215

C145 216 140 225 140 225

C140 226 142 227 144 228

C147 229 151 232 153 234

C156 237 157 238 160 237

C161 237 164 237 166 236

Z

M199 235

C200 233 204 230 207 229

C210 227 212 225 212 225

C212 224 207 215 206 215

C206 215 204 216 203 217

C197 220 190 225 186 230

L182 235

L187 237

C195 238 195 238 199 235

Z

M401 236

C403 236 405 235 405 235

C405 233 393 222 388 219

C385 217 382 215 381 215

C380 215 375 225 376 226

C378 227 389 234 391 236

C392 237 393 238 394 238

C396 237 398 237 401 236

Z

M435 234

C437 232 441 229 443 228

L448 226

L445 221

C444 219 442 216 442 216

C440 213 418 230 418 234

C418 235 424 237 429 238

C430 238 432 236 435 234

Z

M184 223

C182 222 172 222 169 223

C167 223 167 223 172 229

L176 235

L180 229

C183 225 184 223 184 223

Z

M245 233

C245 232 242 229 238 225

C227 215 222 205 227 200

C230 197 233 196 237 199

C240 202 241 203 243 201

C245 198 243 195 240 194

C233 192 227 194 224 199

C221 203 222 208 225 215

C228 221 237 232 240 234

C242 235 245 235 245 233

Z

M419 223

C417 222 406 222 404 223

C403 224 404 225 407 229

L411 235

L416 229

C418 225 419 223 419 223

Z

M68 232

C73 230 77 228 77 227

C77 227 76 226 75 225

C72 223 72 223 66 225

C59 226 53 226 47 224

C46 223 44 224 42 225

L40 228

L42 229

C49 233 59 234 68 232

Z

M308 230

L313 228

L310 225

C307 223 307 223 301 225

C294 226 288 226 282 224

C281 223 279 224 277 225

C275 228 275 228 277 229

C285 233 299 234 308 230

Z

M37 223

C43 219 52 209 52 208

C52 207 49 206 45 205

L40 204

L36 208

C33 210 29 213 27 214

L22 217

L25 222

C26 225 28 227 29 227

C30 227 33 225 37 223

Z

M92 222

C94 219 95 217 95 217

C90 214 86 212 82 208

L77 204

L72 205

C68 206 65 207 65 208

C64 211 84 227 89 227

C89 227 91 225 92 222

Z

M272 223

C275 221 280 216 283 213

C289 207 289 207 280 205

L275 204

L270 208

C267 211 264 214 262 215

C260 216 258 217 258 217

C258 218 261 224 262 226

C264 228 265 227 272 223

Z

M327 222

C329 219 330 217 330 217

C330 216 328 215 325 214

C323 213 319 210 317 208

L312 204

L307 206

C303 206 301 207 300 207

C300 208 306 216 310 219

C315 223 322 227 324 227

C324 227 326 225 327 222

Z

M136 217

C138 214 140 210 141 209

C143 206 143 191 141 190

C141 190 140 192 140 197

C140 204 140 206 133 214

C129 219 128 220 130 221

C131 223 132 222 136 217

Z

M371 216

C374 213 376 208 377 206

C378 201 378 190 377 191

C376 191 376 194 376 196

C376 202 374 208 369 214

C365 218 364 222 366 222

C367 222 369 219 371 216

Z

M66 219

C67 219 65 216 63 213

L59 207

L55 212

C50 219 50 219 54 220

C56 221 65 220 66 219

Z

M301 219

C302 219 300 216 298 213

L294 207

L291 211

C290 213 288 216 287 217

C285 219 285 219 290 220

C292 221 300 220 301 219

Z

M174 217

C178 217 183 217 185 218

C189 219 190 219 192 217

C194 216 195 215 195 215

C195 213 183 210 177 210

C170 210 161 212 158 214

C156 216 162 219 165 218

C166 218 171 218 174 217

Z

M409 217

C413 217 418 217 420 218

C424 219 425 219 427 217

C429 216 430 215 430 215

C430 214 427 213 424 212

C418 210 407 209 402 211

C397 212 393 214 393 215

C393 217 398 219 400 218

C401 218 406 218 409 217

Z

M119 215

C120 214 119 213 118 211

C117 209 117 209 119 206

C120 204 122 202 123 201

C125 201 126 198 123 198

C122 198 120 199 119 200

C117 201 112 210 112 212

C112 215 116 217 119 215

Z

M354 215

C355 214 355 214 354 212

C352 209 352 209 354 206

C355 204 357 202 358 201

C361 201 360 198 358 198

C353 198 345 211 348 214

C349 216 352 216 354 215

Z

M24 210

C28 208 34 203 34 202

C34 202 33 201 31 200

C28 199 26 200 17 206

C17 206 19 212 20 212

C20 212 22 211 24 210

Z

M99 209

C100 207 100 206 100 206

C100 206 97 204 94 202

C89 199 89 199 86 201

L83 202

L86 205

C89 208 96 212 97 212

C97 212 98 211 99 209

Z

M157 209

C170 203 183 203 195 209

C201 212 205 212 204 210

C199 197 198 196 193 194

C185 192 168 192 160 194

C155 196 154 196 151 203

C149 209 148 211 149 211

C151 212 151 212 157 209

Z

M219 210

C218 209 218 205 217 201

C216 193 217 187 221 184

C225 180 225 180 222 180

C216 180 212 188 214 196

C214 200 218 212 219 212

C219 212 219 211 219 210

Z

M259 210

C263 208 269 203 269 202

C269 202 268 201 266 200

C264 199 263 199 260 201

C258 203 255 204 254 205

C252 205 252 206 253 209

C255 213 254 212 259 210

Z

M334 209

C336 206 336 206 333 204

C331 203 328 202 327 201

C324 199 324 199 321 200

C319 201 318 203 319 203

C319 204 331 212 332 212

C333 212 334 211 334 209

Z

M393 209

C405 203 419 203 431 209

C436 212 439 212 439 210

C439 210 438 206 436 203

C433 196 433 196 428 194

C420 192 403 192 395 194

C390 196 390 197 386 203

C383 209 383 210 385 211

C386 211 387 212 387 212

C387 212 390 210 393 209

Z

M453 204

C451 194 452 187 456 184

C460 181 460 180 457 180

C451 180 447 188 449 198

C450 203 453 211 453 211

C454 211 453 207 453 204

Z

M77 199

C81 197 87 194 90 192

C96 187 105 178 104 177

C103 177 101 176 97 176

L92 174

L87 179

C71 193 46 193 30 179

L25 174

L20 176

C17 176 14 177 14 177

C12 178 21 188 28 192

C34 196 43 200 49 201

C50 202 56 202 61 202

C68 201 72 201 77 199

Z

M307 200

C314 198 322 195 328 190

C333 186 340 178 339 177

C338 177 336 176 332 176

L327 174

L322 178

C306 193 281 193 265 178

L260 174

L254 176

C247 178 247 178 256 186

C269 199 289 205 307 200

Z

M19 199

C24 196 24 196 21 194

C19 192 16 192 13 194

C12 195 12 195 13 198

C14 200 14 201 15 201

C15 201 17 200 19 199

Z

M104 197

C105 195 105 194 102 193

C100 191 99 191 97 193

C95 194 94 196 94 196

C94 197 102 201 103 200

C104 200 104 198 104 197

Z

M253 200

C259 196 259 196 256 194

C254 191 254 191 250 193

C247 195 247 195 248 198

C250 201 249 201 253 200

Z

M340 196

C340 195 339 194 337 193

C335 191 334 191 332 193

C329 195 329 195 330 197

C331 198 333 199 334 200

C337 201 338 201 339 199

C339 198 340 197 340 196

Z

M14 187

C14 187 12 185 11 182

C7 177 6 178 9 185

C10 190 10 190 12 189

C13 188 14 188 14 187

Z

M109 185

C111 178 110 177 106 183

C103 187 103 188 105 189

C107 190 108 190 109 185

Z

M165 188

C173 186 183 187 193 189

L196 190

L194 185

C193 182 192 179 191 179

C187 177 175 176 169 177

C160 178 159 179 159 182

C158 183 158 186 157 187

C157 190 157 190 159 190

C160 189 163 189 165 188

Z

M249 187

C249 187 247 185 246 182

C242 177 241 178 244 185

C245 190 245 190 247 189

C248 188 249 188 249 187

Z

M344 184

C345 182 345 180 345 179

C345 179 343 181 341 183

C338 187 338 188 340 189

C342 190 343 190 344 184

Z

M401 188

C408 187 421 187 427 189

C429 190 430 190 430 190

C431 190 430 187 429 184

C428 179 427 179 424 178

C418 176 403 176 399 178

C395 179 395 180 393 184

C392 190 392 190 393 190

C394 189 398 189 401 188

Z

M135 186

C140 182 140 177 137 168

C136 163 135 158 135 155

C135 145 132 139 125 137

C123 137 122 137 121 138

C119 142 124 146 127 143

C128 142 128 142 129 144

C132 148 131 153 123 164

C117 174 116 177 118 183

C122 190 130 191 135 186

Z

M371 186

C375 181 376 177 373 167

C371 163 370 158 370 154

C370 147 368 142 364 139

C360 136 357 137 356 140

C356 144 358 145 361 143

C363 142 364 142 365 144

C368 148 366 153 359 164

C352 172 351 176 353 181

C356 189 365 192 371 186

Z

M74 181

C77 179 81 177 83 175

L86 172

L83 171

C80 169 80 169 77 171

C66 179 51 179 40 171

C37 169 37 169 34 170

C32 171 31 172 31 172

C31 174 40 180 45 182

C53 185 66 185 74 181

Z

M310 180

C314 179 318 176 319 175

L321 172

L318 171

C315 169 315 169 312 171

C306 175 301 177 294 177

C287 177 282 176 276 171

C272 169 272 169 269 170

C267 171 266 172 266 172

C266 173 277 180 281 182

C284 184 288 184 295 184

C302 184 304 183 310 180

Z

M217 171

C219 167 218 160 215 157

C213 154 204 149 200 149

C198 149 197 150 196 151

C195 154 197 156 204 156

C214 157 217 164 213 178

C212 179 212 179 214 177

C215 176 216 173 217 171

Z

M452 171

C454 167 453 160 450 157

C448 154 439 149 435 149

C433 149 432 150 431 151

C430 154 433 156 439 156

C443 157 445 157 447 160

C450 163 451 168 448 175

C448 177 447 179 447 179

C447 180 451 174 452 171

Z

M176 172

C180 172 185 172 187 172

L192 173

L191 168

C191 165 190 163 190 162

C189 161 163 161 163 162

C162 162 162 165 161 168

L161 173

L165 172

C168 172 172 172 176 172

Z

M412 172

C415 172 420 172 423 172

L427 173

L426 168

C426 166 425 163 425 163

C424 162 418 162 412 162

C405 162 399 162 398 163

C398 163 397 166 396 168

L396 173

L400 172

C403 172 408 172 412 172

Z

M20 170

C30 168 38 163 45 156

C49 152 52 149 52 148

C52 148 49 147 46 146

L40 144

L36 148

C29 154 16 160 7 160

C5 160 4 160 5 164

C5 172 6 172 10 172

C13 172 17 171 20 170

Z

M70 169

C73 168 75 166 75 166

C75 166 74 164 72 163

C70 162 69 162 66 163

C62 166 54 165 50 163

C47 161 47 161 45 164

C42 166 42 166 44 167

C50 173 62 174 70 169

Z

M111 171

C112 170 112 167 112 165

L113 160

L106 159

C96 158 88 154 82 149

L78 144

L71 146

C68 147 65 148 65 148

C65 151 79 163 85 166

C96 171 110 174 111 171

Z

M255 171

C265 168 273 163 281 155

L289 148

L282 146

L275 144

L271 148

C265 154 256 158 247 159

L240 160

L240 164

C240 171 241 172 245 172

C248 172 252 171 255 171

Z

M305 169

C308 168 310 166 310 166

C310 165 309 164 307 163

C305 162 305 162 301 163

C297 165 291 165 286 163

C282 162 282 162 280 164

L277 166

L280 168

C287 173 297 173 305 169

Z

M347 169

C347 168 347 165 348 163

L348 160

L341 159

C331 158 323 154 317 149

L313 144

L306 146

C303 147 300 148 300 148

C300 149 303 152 307 156

C317 166 330 172 342 172

C347 172 347 172 347 169

Z

M144 161

C146 158 145 155 142 154

C138 154 136 156 136 158

C136 163 142 165 144 161

Z

M380 161

C381 159 381 158 380 156

C379 154 378 154 376 154

C372 155 370 157 372 160

C373 164 378 164 380 161

Z

M64 159

C66 158 66 158 63 153

C61 151 59 149 59 148

C59 148 57 150 55 153

C51 157 51 158 53 159

C55 160 62 160 64 159

Z

M124 158

C126 154 124 150 121 150

C119 150 118 151 117 151

C115 153 116 158 118 159

C120 160 123 159 124 158

Z

M299 159

C301 158 301 157 298 154

C296 151 295 149 295 149

C295 147 293 148 290 153

C286 157 286 158 288 159

C290 160 297 160 299 159

Z

M358 159

C360 158 361 153 359 151

C358 151 357 150 356 150

C351 150 349 156 353 158

C356 160 356 160 358 159

Z

M176 156

C180 156 184 156 186 156

L190 157

L190 152

C190 147 189 147 186 146

C182 145 164 145 164 146

C163 146 163 149 163 152

L162 157

L166 156

C168 156 172 156 176 156

Z

M412 156

C416 156 422 156 423 156

C425 157 425 157 425 152

C425 149 425 147 424 147

C422 145 409 145 404 145

L398 146

L398 152

C398 157 398 157 400 156

C401 156 407 156 412 156

Z

M21 152

C24 151 28 148 30 146

L34 142

L31 141

C28 139 28 139 25 141

C20 145 16 147 9 147

C4 148 4 148 4 151

C4 152 4 154 5 154

C6 155 15 154 21 152

Z

M113 151

L113 147

L108 147

C102 147 97 145 92 141

C89 139 89 139 86 141

L83 142

L85 145

C90 150 103 155 110 155

C112 155 113 154 113 151

Z

M256 152

C259 151 263 148 265 146

L269 142

L266 141

C263 139 263 139 261 141

C258 144 250 147 244 147

C239 148 239 148 239 151

C239 152 239 154 240 154

C241 155 250 154 256 152

Z

M348 151

C348 147 348 147 344 147

C338 147 332 145 327 141

C324 139 324 139 321 141

L318 142

L321 146

C326 150 333 153 339 154

C346 155 347 155 348 151

Z

M230 151

C230 147 228 146 225 148

C223 149 222 149 221 147

C218 143 219 139 224 129

C230 118 230 114 227 108

C226 106 223 104 221 103

C219 102 218 102 215 103

C210 105 208 108 207 114

C207 118 207 120 210 126

C212 130 214 136 214 139

C216 146 217 150 221 152

C226 155 229 154 230 151

Z

M465 152

C467 149 462 145 459 148

C458 149 457 149 456 147

C453 143 454 138 460 127

C464 120 464 118 464 114

C463 108 461 105 456 103

C453 102 453 102 450 103

C445 105 443 108 442 114

C442 118 442 120 445 125

C447 128 449 135 450 139

C451 148 453 150 457 152

C461 154 464 154 465 152

Z

M18 140

C23 137 24 136 21 134

C18 132 18 132 16 133

C15 134 11 135 9 135

C5 135 4 136 4 139

L4 142

L9 142

C12 142 15 141 18 140

Z

M72 140

C82 138 90 133 97 126

C101 122 104 119 104 118

C104 118 101 117 98 116

L91 114

L87 118

C72 133 47 134 30 119

L26 115

L20 116

C16 117 13 118 13 118

C13 119 16 122 20 126

C27 133 35 138 44 140

C51 142 65 142 72 140

Z

M113 139

C113 135 113 135 109 135

C107 135 104 134 102 133

C99 132 99 132 97 134

C95 135 94 136 94 136

C94 138 105 142 109 142

C113 142 113 142 113 139

Z

M253 140

C258 137 259 136 256 133

C254 132 253 132 251 133

C250 134 246 135 244 135

C240 135 239 136 239 139

L239 142

L244 142

C247 142 250 141 253 140

Z

M307 141

C317 138 325 133 332 126

C336 122 339 119 339 118

C339 118 336 117 333 116

L326 115

L322 119

C320 121 315 124 311 126

C296 133 278 130 265 119

L261 115

L255 116

C251 117 248 118 248 118

C248 119 251 122 255 126

C262 133 270 138 279 140

C286 142 300 142 307 141

Z

M348 139

C348 135 348 135 344 135

C342 135 339 134 337 133

C334 132 334 132 332 134

C330 135 329 136 329 136

C329 138 340 142 344 142

C348 142 348 142 348 139

Z

M148 139

C150 136 148 134 141 133

C137 132 135 132 133 129

C131 127 131 126 131 121

C132 117 132 114 133 113

C134 109 131 112 130 116

C126 122 128 131 132 135

C134 137 145 141 146 141

C147 141 148 140 148 139

Z

M190 136

C190 131 190 131 187 130

C184 129 168 129 165 130

C162 131 162 131 162 135

C162 138 162 140 162 140

C163 140 169 141 176 141

L190 141

L190 136

Z

M231 140

C233 139 234 134 232 132

C231 132 230 131 229 131

C224 131 222 136 226 139

C227 141 228 141 231 140

Z

M383 139

C384 139 385 137 385 137

C385 135 382 133 378 133

C375 133 372 132 370 131

C366 128 365 123 368 113

C368 111 368 111 366 115

C363 119 362 125 365 131

C367 135 368 136 375 139

C382 141 381 141 383 139

Z

M425 136

C425 131 425 131 422 130

C419 129 403 129 400 130

C397 131 397 132 397 134

C397 141 397 141 412 141

L425 141

L425 136

Z

M466 140

C468 139 469 134 467 132

C466 132 465 131 464 131

C459 131 457 136 461 139

C462 141 463 141 466 140

Z

M211 138

C214 137 214 134 211 132

C208 129 204 130 203 134

C203 136 203 137 205 138

C208 140 208 140 211 138

Z

M446 138

C448 137 448 136 448 134

C447 130 443 129 440 132

C437 134 437 137 440 138

C443 140 443 140 446 138

Z

M10 130

C11 130 12 130 13 129

C14 128 13 127 11 123

C9 120 7 118 7 118

C6 118 5 129 6 130

C6 131 7 131 8 131

C8 130 10 130 10 130

Z

M111 123

L111 118

L107 123

C105 126 103 128 103 129

C104 130 111 131 111 130

C112 129 112 127 111 123

Z

M247 130

C248 129 249 129 249 128

C249 127 242 118 242 119

C241 120 240 129 241 130

C241 131 242 131 243 131

C244 130 246 130 247 130

Z

M347 127

C347 125 346 122 346 121

L345 118

L342 123

C338 128 338 129 343 130

C347 131 347 130 347 127

Z

M174 124

C178 124 184 124 187 125

C189 125 191 125 191 125

C191 125 191 123 192 120

L193 116

L189 115

C182 113 175 113 169 114

C165 115 161 115 161 116

C160 116 160 119 161 121

C161 125 162 126 163 125

C164 125 169 125 174 124

Z

M412 124

C415 124 420 124 422 125

L426 126

L427 121

C428 116 428 116 419 114

C412 113 399 114 396 116

C395 116 396 123 397 125

C397 126 399 125 401 125

C403 124 408 124 412 124

Z

M72 122

C75 121 80 118 82 116

L86 113

L83 111

L80 109

L75 112

C71 115 63 118 59 118

C54 118 46 115 42 112

L37 109

L34 111

L31 113

L34 116

C45 125 59 127 72 122

Z

M307 122

C310 121 315 118 317 116

L321 113

L318 111

L315 109

L310 112

C306 115 298 118 294 118

C289 118 281 115 277 113

C272 109 272 109 269 111

L266 113

L268 115

C279 124 293 127 307 122

Z

M27 109

C30 107 35 105 37 103

C42 100 52 90 52 88

C52 88 49 87 46 86

L40 85

L37 88

C32 93 24 97 18 99

L11 100

L10 106

C9 109 8 112 8 112

C8 113 22 111 27 109

Z

M70 109

C73 108 75 107 75 106

C75 106 74 105 72 104

C70 102 70 102 67 104

C63 106 54 106 50 103

L47 102

L44 104

L42 107

L46 109

C55 113 62 114 70 109

Z

M305 110

C310 107 311 106 307 104

C305 102 305 102 302 104

C298 106 290 106 286 103

C282 102 282 102 279 104

L277 107

L281 109

C289 113 297 114 305 110

Z

M109 111

C109 111 108 108 107 105

C106 100 105 100 101 99

C94 97 89 95 83 90

L77 85

L71 86

C68 87 65 88 65 88

C65 89 68 93 72 96

C80 104 87 108 96 110

C101 112 109 112 109 111

Z

M256 111

C267 108 277 101 284 92

L288 88

L281 86

L275 85

L271 88

C265 94 262 95 254 98

C247 100 247 101 245 104

C243 113 242 112 247 112

C249 112 253 111 256 111

Z

M344 111

C344 111 343 108 343 105

C341 101 340 99 337 99

C333 99 324 95 318 90

L312 85

L306 86

C303 87 300 88 300 88

C300 90 311 101 316 104

C319 105 324 108 328 109

C335 112 344 113 344 111

Z

M197 101

C199 97 200 93 201 92

C201 90 201 90 197 93

C192 96 182 107 183 108

C183 108 185 109 188 110

C193 110 194 110 194 109

C194 108 196 104 197 101

Z

M402 109

C405 109 405 107 401 102

C396 98 387 90 386 90

C386 90 388 94 389 99

C391 104 393 108 393 109

C394 111 394 111 396 110

C398 109 400 109 402 109

Z

M432 102

C437 89 437 89 432 93

C427 96 417 107 418 108

C418 108 428 111 429 111

C429 110 430 107 432 102

Z

M169 108

C170 107 161 97 155 93

C152 90 151 90 151 92

C152 93 154 97 155 102

L158 110

L163 109

C166 109 169 108 169 108

Z

M418 98

C421 95 419 95 411 95

C403 95 402 96 405 100

C407 101 409 104 410 105

L411 108

L414 104

C415 102 417 100 418 98

Z

M181 101

C183 98 185 96 184 95

C182 95 172 94 169 95

L167 96

L169 99

C171 100 173 103 174 104

C174 106 176 107 176 107

C176 107 179 104 181 101

Z

M132 102

C133 102 135 100 136 98

C137 94 137 85 136 83

C134 81 134 81 134 87

C133 94 131 101 128 102

C127 102 126 103 126 103

C126 105 129 104 132 102

Z

M368 101

C372 97 373 91 372 86

C371 83 370 81 370 81

C370 81 369 84 369 87

C369 93 366 101 364 102

C362 102 362 104 364 104

C364 104 366 103 368 101

Z

M62 100

C64 99 66 99 66 98

C66 98 59 89 59 89

C58 89 51 98 51 98

C51 99 56 101 58 101

C58 101 60 101 62 100

Z

M297 100

C299 99 301 99 301 98

C301 98 294 88 293 88

C292 90 286 98 286 98

C286 99 291 101 293 101

C293 101 295 101 297 100

Z

M122 96

C127 94 129 89 129 84

C128 78 122 69 116 62

C111 56 108 55 106 56

C105 57 107 59 113 65

C125 77 129 87 123 91

C120 94 115 93 114 91

C113 89 108 88 107 91

C105 95 116 99 122 96

Z

M215 91

C215 84 217 79 222 74

C226 70 228 64 225 65

C223 66 216 75 214 79

C213 82 212 97 214 97

C215 97 215 94 215 91

Z

M358 95

C361 94 364 89 364 85

C364 80 357 68 351 61

C344 55 342 54 341 57

C341 58 343 61 349 66

C360 77 364 85 359 91

C356 94 352 94 349 91

C347 88 343 88 342 91

C342 92 342 94 343 94

C345 97 354 98 358 95

Z

M450 92

C450 84 451 80 456 74

C459 71 461 68 461 67

C461 64 459 65 454 72

C449 79 449 79 448 88

C448 94 448 97 449 97

C450 97 450 95 450 92

Z

M23 91

C28 88 35 83 34 83

C29 79 28 79 24 82

C22 84 19 85 19 85

C19 85 17 87 16 90

C14 95 14 95 23 91

Z

M102 90

C101 88 100 87 100 86

C100 86 99 85 97 84

C95 84 93 82 92 81

C90 79 89 79 86 81

L83 83

L87 86

C90 89 99 94 102 94

C103 94 103 93 102 90

Z

M258 91

C264 88 270 83 268 82

C268 82 266 81 265 81

C264 79 263 80 258 83

C255 85 252 88 251 90

C249 95 249 95 258 91

Z

M338 93

C338 91 334 85 332 85

C331 84 329 83 327 82

C325 79 324 79 321 81

L318 83

L322 86

C327 91 338 96 338 93

Z

M171 90

C176 89 183 89 188 91

C189 92 191 91 193 90

L195 87

L191 86

C181 81 170 81 160 86

L157 87

L160 90

C161 91 163 92 165 92

C166 91 169 90 171 90

Z

M407 90

C411 89 418 89 423 91

C424 92 426 91 428 90

L431 87

L427 86

C417 81 405 81 395 86

L392 87

L395 90

C396 91 398 92 400 91

C401 91 404 90 407 90

Z

M236 88

C238 86 241 83 243 77

C244 73 242 70 239 71

C236 72 235 74 237 76

C239 77 239 78 237 80

C237 82 235 84 233 85

C228 88 231 90 236 88

Z

M165 78

C175 76 185 77 194 81

C202 85 204 85 207 79

C209 76 209 76 207 74

C195 65 175 62 159 67

C151 70 144 74 144 76

C144 79 147 82 149 84

C151 85 152 85 155 82

C158 81 162 79 165 78

Z

M400 78

C409 76 420 77 429 81

C437 85 440 84 443 79

C445 75 444 75 436 70

C425 65 408 63 397 67

C390 69 380 74 379 75

C379 77 382 83 384 84

C386 85 387 84 391 82

C393 81 397 79 400 78

Z

M18 77

C22 70 23 64 21 57

C20 51 17 47 15 49

C14 49 15 51 16 55

C18 58 19 62 19 65

C19 69 15 78 13 80

C10 82 11 83 13 83

C14 83 16 81 18 77

Z

M67 82

C74 81 84 77 88 74

C91 71 91 71 90 68

C87 63 84 62 76 66

C70 69 69 70 59 70

C48 70 47 69 41 66

C33 62 30 63 27 68

C26 71 26 71 29 74

C34 78 48 83 58 83

C59 83 63 83 67 82

Z

M253 77

C255 73 257 68 257 65

C257 59 255 49 252 49

C249 47 249 49 252 55

C253 58 254 62 254 65

C254 69 250 78 248 80

C245 82 246 83 248 83

C250 83 251 81 253 77

Z

M310 80

C316 78 326 73 326 71

C326 70 323 65 321 64

C319 63 318 63 312 66

C305 69 304 70 294 70

C283 70 282 69 276 66

C272 64 268 63 267 63

C265 64 261 70 261 71

C261 72 269 77 274 79

C285 83 298 84 310 80

Z

M235 63

C237 49 242 43 259 38

C264 36 268 33 268 30

C268 27 266 27 259 31

C256 34 250 37 247 39

C244 40 240 43 239 44

C235 48 231 57 230 63

C230 69 230 69 232 69

C234 69 235 68 235 63

Z

M149 66

L152 64

L149 61

C145 58 133 52 132 53

C131 55 136 61 141 64

C143 66 146 68 146 68

C146 68 147 67 149 66

Z

M214 63

C217 62 221 55 220 54

C218 52 201 62 201 64

C201 65 202 66 204 66

C206 68 207 68 209 66

C210 66 212 64 214 63

Z

M384 66

C387 65 387 65 386 63

C383 60 369 52 367 53

C366 55 371 61 376 64

C378 66 381 68 381 68

C381 68 382 67 384 66

Z

M444 66

C445 65 447 64 449 63

C451 62 456 55 455 54

C454 53 444 57 440 61

L436 65

L439 66

C442 68 442 68 444 66

Z

M73 62

L78 60

L75 57

C72 55 72 55 68 56

C62 58 55 58 50 57

C46 55 45 55 43 57

C39 60 40 61 47 63

C54 66 65 65 73 62

Z

M308 62

L313 60

L310 57

C307 55 307 55 302 57

C297 58 290 58 285 57

C281 55 280 55 278 57

C274 60 275 61 282 63

C290 66 301 65 308 62

Z

M170 59

C170 58 167 55 163 51

C154 42 140 35 129 35

C126 35 126 35 126 38

C127 40 128 42 128 44

C130 47 130 48 134 48

C139 49 149 54 153 59

L157 63

L164 61

C167 60 170 59 170 59

Z

M207 53

C210 51 214 49 217 49

C220 48 222 47 223 46

C223 46 225 43 225 40

L227 35

L221 35

C209 37 197 43 188 53

L182 59

L188 61

L195 63

L199 59

C201 57 205 54 207 53

Z

M405 59

C405 57 391 44 386 41

C379 38 369 35 364 35

C361 35 361 35 361 38

C362 40 363 42 363 44

C365 47 365 48 369 48

C374 49 384 54 388 59

L392 63

L399 61

C402 60 405 59 405 59

Z

M445 51

C448 50 452 49 454 48

C458 48 459 47 460 42

C461 40 461 37 462 36

C462 34 457 35 450 37

C440 39 431 44 423 52

L417 59

L423 61

L430 63

L435 58

C437 56 442 53 445 51

Z

M180 54

C184 49 184 49 182 48

C179 47 173 47 171 48

C169 49 169 50 172 53

C174 56 175 58 175 58

C175 60 177 59 180 54

Z

M415 54

C419 49 419 49 417 48

C414 47 408 47 406 48

C404 49 404 50 408 54

C410 57 411 59 412 59

C412 59 413 56 415 54

Z

M38 54

C41 52 45 49 48 45

C54 39 54 39 45 37

C41 37 40 37 40 39

C40 40 38 44 37 49

C35 53 33 57 34 57

C34 57 36 56 38 54

Z

M81 50

C79 46 78 42 78 40

C77 38 76 37 76 37

C74 37 65 39 65 40

C65 41 74 51 79 54

C81 56 83 57 84 57

C84 57 83 54 81 50

Z

M281 47

C288 40 288 40 286 39

C285 38 282 38 280 38

L276 38

L272 47

C271 52 269 57 269 57

C269 58 275 53 281 47

Z

M315 48

C314 43 312 39 312 38

C312 38 312 37 311 37

C309 37 300 39 300 40

C300 41 308 50 313 53

C316 55 318 57 319 57

C319 57 317 53 315 48

Z

M67 52

C67 51 65 49 63 46

C61 42 58 40 58 41

C54 46 50 51 50 51

C50 53 65 53 67 52

Z

M94 47

C88 41 86 36 87 33

C88 32 88 31 87 31

C87 31 86 32 85 34

C83 39 88 47 95 51

C101 54 100 53 94 47

Z

M302 52

C302 51 295 40 294 40

C293 41 285 51 285 51

C285 53 300 53 302 52

Z

M332 50

C326 46 322 38 322 34

C323 31 323 31 321 32

C320 34 320 38 321 42

C323 46 328 50 332 52

C336 54 336 53 332 50

Z

M117 47

C117 44 115 42 112 44

C110 45 109 45 105 43

C103 42 101 40 100 39

C99 36 99 29 100 25

C102 22 102 21 100 22

C96 26 95 37 98 42

C103 49 116 53 117 47

Z

M352 47

C352 43 350 42 347 44

C345 45 344 45 341 44

C335 41 332 33 336 25

C337 21 337 21 336 22

C335 22 334 24 333 26

C330 31 331 39 334 43

C336 47 344 50 348 50

C351 50 352 49 352 47

Z

M169 44

C172 42 180 42 184 44

C188 45 188 45 190 43

C193 41 192 39 187 37

C180 34 172 34 165 38

C162 39 160 41 160 41

C160 42 164 45 165 45

C165 45 167 44 169 44

Z

M404 44

C407 42 415 42 419 44

C423 45 423 45 425 43

C428 41 428 41 426 40

C421 35 409 34 402 37

C394 40 394 41 397 43

C400 45 401 45 404 44

Z

M158 36

C163 32 169 30 177 30

C183 30 188 32 194 36

C198 38 198 38 200 36

C202 36 203 34 203 34

C203 33 194 27 190 25

C178 20 162 23 152 31

L149 35

L152 36

C155 38 155 38 158 36

Z

M394 35

C400 31 404 30 412 30

C419 30 424 32 430 36

C433 38 433 38 436 36

L439 35

L436 32

C428 25 416 21 406 23

C399 24 389 29 386 33

L384 35

L387 36

C388 37 390 38 390 38

C390 38 392 37 394 35

Z

M11 32

C15 30 17 25 17 21

C17 18 16 16 13 13

C9 8 6 8 6 12

C6 15 6 16 9 16

C11 16 13 17 13 18

C16 22 12 30 7 32

C6 33 5 33 5 33

C5 35 8 34 11 32

Z

M68 33

C71 32 74 32 74 31

C75 31 75 29 74 27

L74 23

L59 23

L44 23

L43 27

C42 29 43 31 43 31

C45 34 60 35 68 33

Z

M247 31

C252 27 253 20 250 15

C246 8 240 7 240 13

C240 15 241 16 244 16

C248 17 249 19 249 23

C248 27 245 32 242 32

C242 32 241 33 240 33

C239 35 245 33 247 31

Z

M304 33

C307 32 310 31 310 31

C310 30 310 28 309 26

L309 23

L294 23

C277 23 278 22 278 29

C278 31 278 32 283 33

C289 34 296 34 304 33

Z

M148 28

C164 14 188 14 205 28

L210 33

L216 31

C223 30 223 29 216 22

C206 12 194 6 180 5

C164 4 150 9 138 21

C134 25 131 28 131 29

C131 29 134 30 137 31

C140 32 143 33 143 33

C143 33 145 31 148 28

Z

M383 28

C399 14 424 14 440 28

L444 33

L450 31

C454 30 457 30 457 30

C458 29 449 19 444 16

C421 0 392 2 373 21

C369 25 366 28 366 29

C366 29 369 30 372 31

C375 32 378 33 378 33

C378 33 380 31 383 28

Z

M128 24

C132 19 132 19 130 18

C129 17 127 17 125 17

L122 17

L123 22

C124 24 124 27 124 28

C124 30 125 29 128 24

Z

M229 22

C230 17 230 17 228 17

C226 17 224 17 223 18

L220 19

L224 24

C228 29 228 29 229 22

Z

M364 24

C367 19 367 19 365 18

C364 17 362 17 361 17

C358 17 358 17 358 20

C358 24 359 29 360 29

C360 28 362 26 364 24

Z

M464 22

L465 17

L462 17

C461 17 459 18 458 18

C456 20 456 20 459 24

C461 27 463 28 463 28

C464 28 464 25 464 22

Z

M95 20

C99 17 101 10 99 6

C99 5 98 6 98 9

C97 14 94 18 91 20

C88 21 87 22 90 22

C91 22 94 21 95 20

Z

M330 20

C331 20 333 18 334 16

C335 13 336 6 334 6

C333 6 333 7 333 9

C333 12 331 16 327 19

C324 22 324 22 326 22

C327 22 329 21 330 20

Z

M70 17

C72 16 72 16 72 12

C72 9 72 7 72 6

C72 6 69 7 65 7

C61 8 56 8 52 7

C48 7 45 6 45 6

C45 6 45 9 45 11

C45 16 45 16 48 17

C51 18 66 18 70 17

Z

M305 17

C307 16 307 16 307 12

C307 9 307 7 307 7

C307 6 304 7 301 7

C295 8 286 8 282 6

C281 6 280 7 280 11

C280 16 280 16 282 17

C283 17 285 17 286 18

C287 18 301 18 305 17

Z

M139 9

C136 7 130 5 125 5

C122 5 122 5 122 9

C122 12 122 12 125 12

C127 12 130 13 132 14

C135 16 136 15 138 14

L141 12

L139 9

Z

M227 12

C230 12 231 11 231 7

C231 5 230 5 227 5

C223 5 212 9 212 11

C212 11 213 12 214 14

L216 16

L220 14

C222 13 225 12 227 12

Z

M374 9

C371 7 365 5 360 5

C357 5 357 5 357 9

C357 12 357 12 360 12

C362 12 365 13 367 14

C370 16 371 15 373 14

L376 12

L374 9

Z

M462 12

C465 12 466 11 466 8

C466 5 466 5 462 5

C458 5 447 9 447 11

C447 11 448 12 449 14

C451 16 451 16 454 14

C456 13 459 12 462 12

Z

M467 517

C461 510 460 503 464 499

C465 498 467 497 468 497

C470 497 470 498 470 509

C470 515 470 520 470 520

C469 520 468 519 467 517

Z

M0 330

C0 325 1 324 5 326

C8 327 8 333 5 334

C1 336 0 335 0 330

Z

"/>

</svg>

