<?xml version="1.0" standalone="no"?>

<!DOCTYPE svg PUBLIC "-//W3C//DTD SVG 20010904//EN"

 "http://www.w3.org/TR/2001/REC-SVG-20010904/DTD/svg10.dtd">

<svg version="1.0" xmlns="http://www.w3.org/2000/svg"

 width="587.000000pt" height="591.000000pt" viewBox="0 0 587.000000 591.000000"

 preserveAspectRatio="xMidYMid meet">

<path fill="#f6f7f2" stroke="none" d="
M0 296

L0 0

L294 0

L587 0

L587 296

L587 591

L294 591

L0 591

L0 296

Z

"/>

<path fill="#7a8f62" stroke="none" d="
M9 586

L5 581

L5 561

L5 540

L3 540

L0 540

L0 529

L0 518

L8 526

L16 535

L16 557

L16 579

L19 581

C20 582 23 585 24 587

L27 591

L20 591

L14 591

L9 586

Z

M34 583

L26 574

L26 552

L26 531

L15 519

L5 508

L5 487

L5 466

L3 466

L0 466

L0 455

L0 444

L8 452

L16 461

L16 483

L16 505

L27 516

L37 528

L37 548

L37 569

L42 569

L47 569

L47 548

L47 528

L58 516

L68 505

L68 483

L68 461

L76 452

L84 444

L92 452

L100 461

L100 483

L100 505

L111 516

L121 528

L121 548

L121 569

L126 569

L131 569

L131 548

L131 528

L141 516

L152 505

L152 483

L152 461

L160 452

C164 448 168 444 168 444

C168 444 172 448 176 453

L184 461

L184 483

L184 505

L195 516

L205 528

L205 548

L205 569

L210 569

L215 569

L215 548

L215 527

L226 516

L236 504

L236 482

L236 461

L244 452

C251 444 252 444 253 445

C254 446 258 450 261 454

L268 461

L268 483

L268 505

L279 516

L289 528

L289 549

L289 569

L294 569

L299 569

L299 548

L299 527

L310 516

L320 504

L320 482

L320 461

L327 452

C331 448 335 444 336 444

C336 444 340 448 344 453

L352 462

L352 483

L352 505

L363 517

L373 528

L373 549

L373 569

L378 569

L383 569

L383 548

L383 527

L394 515

L404 504

L404 482

L404 460

L411 452

C415 448 419 444 419 444

C420 444 424 448 428 452

L435 460

L435 482

L435 504

L446 516

L456 527

L456 548

L456 569

L461 569

L466 569

L466 549

L466 528

L477 516

L487 505

L487 483

L487 461

L494 454

C497 450 501 446 502 445

C503 444 504 444 511 452

L519 461

L519 482

L519 504

L530 516

L540 527

L540 548

L540 569

L545 569

L550 569

L550 548

L550 528

L561 516

L571 505

L571 483

L571 461

L579 453

C583 448 586 444 587 444

C587 444 587 449 587 455

L587 466

L585 466

L582 466

L582 487

L582 508

L572 519

L561 531

L561 553

L561 575

L554 583

C550 587 546 591 545 591

C545 591 541 587 537 582

L529 574

L529 552

L529 531

L519 519

L508 508

L508 487

L508 466

L503 466

L498 466

L498 487

L498 508

L488 520

L477 531

L477 553

L477 575

L470 583

C466 587 462 591 462 591

C461 591 457 587 453 582

L445 574

L445 552

L445 531

L434 519

L424 507

L424 486

L424 466

L419 466

L415 467

L414 487

L414 508

L404 519

L394 530

L394 552

L394 574

L386 582

C382 587 378 591 378 591

C377 591 373 587 369 583

L362 575

L362 553

L362 531

L352 520

L341 508

L341 487

L341 467

L336 466

L331 466

L331 486

L331 507

L321 519

L310 531

L310 552

L310 574

L302 582

C298 587 294 591 293 591

C293 591 289 587 285 583

L278 575

L278 553

L278 531

L268 520

L257 508

L257 487

L257 466

L252 466

L247 466

L247 487

L247 508

L237 519

L226 531

L226 552

L226 574

L218 583

C214 587 210 591 210 591

C209 591 205 587 201 583

L194 575

L194 553

L194 531

L184 519

L173 508

L173 487

L173 466

L168 466

L163 466

L163 487

L163 508

L153 519

L142 531

L142 553

L142 575

L134 583

L126 592

L118 583

L110 575

L110 553

L110 531

L100 519

L89 508

L89 487

L89 466

L84 466

L79 466

L79 487

L79 508

L69 519

L58 531

L58 553

L58 575

L50 583

C46 587 42 591 42 591

C42 591 38 587 34 583

Z

M62 585

L68 578

L68 556

L68 535

L76 526

L84 518

L92 526

L100 535

L100 556

L100 578

L105 584

L111 591

L104 591

L98 591

L93 586

L89 582

L89 561

L89 540

L84 540

L79 540

L79 561

L79 581

L75 586

L71 591

L64 591

L57 591

L62 585

Z

M144 587

C145 585 148 582 149 581

L152 579

L152 557

L152 535

L160 526

L168 518

L176 526

L184 535

L184 556

L184 578

L190 585

L195 591

L188 591

L181 591

L177 586

L173 582

L173 561

L173 540

L168 540

L163 540

L163 561

L163 581

L159 586

L155 591

L148 591

L141 591

L144 587

Z

M227 588

C228 587 230 584 232 582

L236 579

L236 557

L236 535

L243 526

C247 522 251 518 252 518

C252 518 256 522 260 527

L268 535

L268 557

L268 579

L274 585

L279 591

L272 591

L265 591

L261 587

L257 582

L257 561

L257 540

L252 540

L247 540

L247 561

L247 582

L243 586

L238 591

L232 591

L225 591

L227 588

Z

M309 590

C309 590 311 587 315 584

L320 578

L320 556

L320 535

L327 526

C331 522 335 518 335 518

C336 518 340 522 344 527

L352 535

L352 557

L352 579

L358 585

L363 591

L356 591

C350 591 349 591 345 587

L341 582

L341 561

L341 541

L336 540

L331 540

L331 560

L331 581

L327 586

L323 591

L316 591

C312 591 309 591 309 590

Z

M398 584

L404 578

L404 556

L404 534

L411 526

C415 522 419 518 419 518

C420 518 423 521 427 526

L435 535

L435 556

L435 578

L441 584

C444 587 446 590 446 590

C446 591 443 591 439 591

L433 591

L428 586

L424 581

L424 560

L424 540

L419 540

L415 541

L414 561

L414 582

L410 587

C406 591 405 591 399 591

L392 591

L398 584

Z

M481 585

L487 579

L487 557

L487 535

L495 527

C499 522 503 518 503 518

C504 518 508 522 512 526

L519 535

L519 556

L519 578

L525 584

L530 591

L524 591

L517 591

L512 586

L508 582

L508 561

L508 540

L503 540

L498 540

L498 561

L498 582

L494 587

L490 591

L483 591

L476 591

L481 585

Z

M565 585

L571 578

L571 557

L571 535

L579 527

C583 522 586 518 587 518

C587 518 587 523 587 529

L587 540

L585 540

L582 540

L582 561

L582 582

L578 586

L574 591

L567 591

L560 591

L565 585

Z

M34 509

L26 501

L26 479

L26 457

L16 445

L5 434

L5 413

L5 392

L3 392

L0 392

L0 381

L0 370

L8 378

L16 387

L16 409

L16 431

L27 442

L37 454

L37 474

L37 495

L42 495

L47 495

L47 474

L47 454

L58 442

L68 431

L68 409

L68 387

L76 379

C80 374 84 370 84 370

C84 370 88 374 92 378

L100 387

L100 409

L100 431

L110 442

L121 454

L121 474

L121 495

L126 495

L131 495

L131 474

L131 454

L142 442

L152 431

L152 409

L152 387

L160 378

C164 374 168 370 168 370

C168 370 172 374 176 379

L184 387

L184 409

L184 431

L195 442

L205 454

L205 474

L205 495

L210 495

L215 495

L215 474

L215 453

L225 442

L236 431

L236 409

L236 387

L244 378

C248 374 252 370 252 370

C252 370 256 374 260 379

L268 387

L268 409

L268 431

L279 442

L289 454

L289 475

L289 495

L294 495

L299 495

L299 474

L299 453

L310 442

L320 430

L320 408

L320 387

L328 378

L336 370

L341 375

C343 378 347 382 349 384

L352 388

L352 409

L352 431

L363 443

L373 454

L373 475

L373 495

L378 495

L383 495

L383 474

L383 453

L394 442

L404 430

L404 408

L404 386

L411 378

C415 374 419 370 419 370

C420 370 424 374 428 378

L435 387

L435 408

L435 430

L446 442

L456 453

L456 474

L456 495

L461 495

L466 495

L466 475

L466 454

L477 442

L487 431

L487 409

L487 388

L495 379

C499 374 503 370 503 370

C503 370 507 374 511 378

L519 387

L519 408

L519 430

L530 442

L540 453

L540 474

L540 495

L545 495

L550 495

L550 474

L550 454

L561 442

L571 431

L571 409

L571 387

L577 380

C588 368 587 368 587 381

L587 392

L585 392

L582 392

L582 413

L582 434

L572 446

L561 457

L561 479

L561 501

L553 509

L546 518

L537 509

L529 501

L529 479

L529 457

L518 445

L508 434

L508 413

L508 392

L503 392

L499 393

L498 413

L498 434

L487 446

L477 457

L477 479

L477 501

L471 508

C468 511 464 515 463 516

C461 518 461 518 453 509

L445 500

L445 478

L445 457

L435 445

L424 434

L424 413

L424 392

L419 392

L415 393

L414 413

L414 434

L404 445

L394 456

L394 478

L394 500

L388 507

C385 510 381 515 380 516

L377 518

L370 509

L362 501

L362 479

L362 457

L352 446

L342 435

L341 414

L341 393

L336 392

L331 392

L331 413

L331 434

L320 445

L310 457

L310 478

L310 500

L302 509

C295 516 293 518 292 517

C292 516 288 512 285 508

L278 501

L278 479

L278 457

L268 446

L257 434

L257 413

L257 393

L252 392

L247 392

L247 413

L247 434

L237 445

L226 457

L226 479

L226 501

L218 509

L210 518

L202 509

L194 501

L194 479

L194 457

L184 446

L173 434

L173 413

L173 392

L168 392

L163 392

L163 413

L163 434

L153 445

L142 457

L142 479

L142 501

L134 509

C130 514 126 518 126 518

C126 518 122 514 118 509

L110 501

L110 479

L110 457

L100 445

L89 434

L89 413

L89 392

L84 392

L79 392

L79 413

L79 434

L69 445

L58 457

L58 479

L58 500

L55 504

C53 506 50 510 47 513

L42 518

L34 509

Z

M34 435

L26 427

L26 405

L26 383

L16 371

L5 360

L5 339

L5 318

L3 318

L0 318

L0 307

L0 296

L8 304

L16 313

L16 335

L16 357

L26 368

L37 380

L37 400

L37 421

L42 421

L47 421

L47 400

L47 380

L58 368

L68 357

L68 335

L68 313

L76 305

C80 300 84 296 84 296

C84 296 88 300 92 305

L100 313

L100 335

L100 357

L111 368

L121 380

L121 400

L121 421

L126 421

L131 421

L131 400

L131 380

L142 368

L152 357

L152 335

L152 313

L160 304

C164 300 168 296 168 296

C169 296 172 300 176 305

L184 313

L184 335

L184 357

L195 368

L205 380

L205 400

L205 421

L210 421

L215 421

L215 400

L215 380

L225 368

L236 357

L236 335

L236 313

L244 304

C248 300 252 296 252 296

C252 296 256 300 260 305

L268 313

L268 335

L268 357

L279 369

L289 380

L289 401

L289 421

L294 421

L299 421

L299 400

L299 379

L310 368

L320 356

L320 334

L320 313

L328 304

L336 296

L340 301

C343 303 346 307 348 310

L352 314

L352 335

L352 357

L363 369

L373 380

L373 401

L373 421

L378 421

L383 421

L383 400

L383 379

L394 368

L404 356

L404 334

L404 313

L407 309

C409 307 412 303 415 301

L419 296

L427 304

L435 313

L435 334

L435 356

L445 368

L456 380

L456 400

L456 421

L461 421

L466 421

L466 401

L466 380

L477 369

L487 357

L487 335

L487 314

L495 305

C499 300 503 296 503 296

C503 296 507 300 511 304

L519 313

L519 335

L519 357

L530 368

L540 380

L540 400

L540 421

L545 421

L550 421

L550 401

L550 380

L561 368

L571 357

L571 335

L571 313

L578 306

C581 302 585 298 586 297

C587 296 587 297 587 307

C587 318 587 318 585 318

C583 318 582 319 582 339

L582 360

L571 372

L561 383

L561 405

L561 427

L553 435

L546 444

L537 435

L529 427

L529 405

L529 383

L518 371

L508 360

L508 339

L508 318

L503 318

L499 319

L498 339

L498 360

L487 372

L477 383

L477 405

L477 427

L469 435

C465 440 462 444 461 444

C461 444 458 440 453 435

L445 426

L445 404

L445 383

L435 371

L424 360

L424 339

L424 318

L419 318

L415 319

L414 340

L414 361

L404 372

L394 383

L394 404

L394 426

L386 435

L378 444

L370 436

L362 428

L362 406

L362 384

L352 372

L341 361

L341 340

L341 319

L336 318

L331 318

L331 339

L331 360

L321 371

L310 383

L310 405

L310 427

L302 435

L294 444

L286 436

L278 427

L278 405

L278 383

L268 372

L257 360

L257 339

L257 319

L252 318

L247 318

L247 339

L247 360

L237 371

L226 383

L226 405

L226 427

L218 435

L210 444

L202 435

L194 427

L194 405

L194 383

L184 372

L173 360

L173 339

L173 318

L168 318

L163 318

L163 339

L163 360

L153 371

L142 383

L142 405

L142 427

L134 435

C130 440 126 444 126 444

C126 444 122 440 118 435

L110 427

L110 405

L110 383

L100 371

L89 360

L89 339

L89 318

L84 318

L79 318

L79 339

L79 360

L69 372

L58 383

L58 405

L58 427

L50 435

C46 440 43 444 42 444

C42 444 38 440 34 435

Z

M34 361

L26 353

L26 331

L26 309

L16 297

L5 286

L5 265

L5 245

L3 245

L0 245

L0 234

C0 227 0 222 0 222

C1 222 4 226 8 231

L16 239

L16 261

L16 283

L26 294

L37 306

L37 326

L37 347

L42 347

L47 347

L47 326

L47 306

L58 294

L68 283

L68 261

L68 239

L76 231

C80 226 83 223 84 223

C84 223 88 226 92 231

L100 239

L100 261

L100 283

L111 294

L121 306

L121 326

L121 347

L126 347

L131 347

L131 326

L131 306

L142 294

L152 283

L152 261

L152 239

L160 231

C164 226 168 222 168 222

C168 222 172 226 176 231

L184 240

L184 261

L184 283

L195 294

L205 306

L205 326

L205 347

L210 347

L215 347

L215 326

L215 306

L226 294

L236 283

L236 261

L236 239

L244 230

L252 222

L257 227

C259 230 263 234 265 236

L268 240

L268 261

L268 283

L279 295

L289 306

L289 327

L289 347

L294 347

L299 347

L299 326

L299 306

L309 294

L320 283

L320 261

L320 239

L328 230

L335 222

L344 231

L352 240

L352 261

L352 283

L363 295

L373 306

L373 327

L373 347

L378 347

L383 347

L383 326

L383 305

L389 298

C393 295 397 289 400 287

L404 282

L404 260

L404 239

L412 230

L420 222

L427 230

L435 239

L435 261

L435 283

L446 294

L456 306

L456 326

L456 347

L461 347

L466 347

L466 327

L466 306

L477 295

L487 283

L487 261

L487 240

L491 236

C493 233 496 229 499 227

L503 222

L511 230

L519 239

L519 261

L519 283

L530 294

L540 306

L540 326

L540 347

L545 347

L550 347

L550 327

L550 306

L561 295

L571 283

L571 261

L571 240

L574 237

C575 235 579 231 582 228

L587 222

L587 233

L587 245

L585 245

L582 245

L582 266

L582 286

L572 298

L561 309

L561 331

L561 353

L553 361

C549 366 545 370 545 370

C545 370 541 366 537 361

L529 353

L529 331

L529 309

L519 297

L508 286

L508 265

L508 245

L503 245

L498 245

L498 266

L498 287

L487 298

L477 310

L477 332

L477 354

L469 362

L461 370

L453 361

L445 352

L445 330

L445 309

L434 297

L424 286

L424 265

L424 245

L419 245

L414 245

L414 266

L414 287

L404 298

L394 309

L394 330

L394 352

L386 361

L378 370

L370 362

L362 354

L362 332

L362 310

L352 298

L341 287

L341 266

L341 245

L336 245

L331 245

L331 265

L331 286

L321 297

L310 309

L310 331

L310 353

L302 361

L294 370

L286 362

L278 353

L278 331

L278 310

L268 298

L257 287

L257 266

L257 245

L252 245

L247 245

L247 265

L247 286

L237 297

L226 309

L226 331

L226 353

L218 361

C214 366 210 370 210 370

C210 370 206 366 202 361

L194 353

L194 331

L194 309

L184 298

L173 286

L173 266

L173 245

L168 245

L163 245

L163 265

L163 286

L153 297

L142 309

L142 331

L142 353

L134 361

C130 366 126 370 126 370

C126 370 122 366 118 361

L110 353

L110 331

L110 309

L100 298

L89 286

L89 265

L89 245

L84 245

L79 245

L79 266

L79 286

L69 298

L58 309

L58 331

L58 353

L50 361

C46 366 43 370 42 370

C42 370 38 366 34 361

Z

M34 287

L26 279

L26 257

L26 235

L16 223

L5 212

L5 191

L5 171

L3 171

L0 171

L0 159

C0 146 -1 146 10 158

L16 165

L16 187

L16 209

L27 220

L37 232

L37 252

L37 273

L42 273

L47 273

L47 253

L47 232

L58 220

L68 209

L68 187

L68 166

L76 157

C80 152 84 149 84 149

C85 149 88 152 92 157

L100 165

L100 187

L100 209

L111 220

L121 232

L121 253

L121 273

L126 273

L131 273

L131 252

L131 232

L142 220

L152 209

L152 187

L152 165

L159 157

C164 152 167 149 168 149

C168 149 172 152 176 157

L184 166

L184 187

L184 209

L195 221

L205 232

L205 253

L205 273

L210 273

L215 273

L215 252

L215 232

L226 220

L236 209

L236 187

L236 165

L244 157

C248 152 252 148 252 148

C252 148 256 152 260 157

L268 166

L268 187

L268 209

L279 221

L289 232

L289 253

L289 273

L294 273

L299 273

L299 252

L299 232

L310 220

L320 209

L320 187

L320 165

L328 156

L336 148

L344 157

L352 166

L352 188

L352 210

L363 221

L373 233

L373 253

L373 273

L378 273

L383 273

L383 252

L383 231

L393 220

L404 209

L404 187

L404 165

L412 156

L420 148

L427 156

L435 165

L435 187

L435 209

L446 220

L456 232

L456 252

L456 273

L461 273

L466 273

L466 253

L466 232

L477 221

L487 209

L487 187

L487 166

L491 162

C493 159 496 155 499 153

L503 148

L511 156

L519 165

L519 187

L519 209

L529 220

L540 232

L540 252

L540 273

L545 273

L550 273

L550 253

L550 232

L561 221

L571 209

L571 187

L571 166

L574 162

C576 160 579 156 582 153

L587 148

L587 159

L587 171

L585 171

L582 171

L582 192

L582 213

L571 224

L561 235

L561 257

L561 279

L553 287

C549 292 545 296 545 296

C545 296 541 292 537 287

L529 279

L529 257

L529 235

L519 223

L508 212

L508 191

L508 171

L503 171

L498 171

L498 192

L498 213

L488 224

L477 236

L477 257

L477 279

L469 288

L462 296

L453 287

L445 279

L445 257

L445 235

L435 223

L424 212

L424 191

L424 171

L419 171

L414 171

L414 192

L414 213

L404 224

L394 235

L394 256

L394 278

L386 287

L378 296

L370 288

L362 280

L362 258

L362 236

L351 224

L341 213

L341 192

L341 171

L336 171

L331 171

L331 191

L331 212

L321 223

L310 235

L310 257

L310 278

L302 287

C298 292 294 296 294 296

C294 296 290 293 286 288

L278 280

L278 258

L278 236

L268 224

L257 213

L257 192

L257 171

L252 171

L247 171

L247 191

L247 212

L237 223

L226 235

L226 257

L226 279

L218 287

C214 292 210 296 210 296

C210 296 206 292 202 287

L194 279

L194 257

L194 235

L184 224

L173 212

L173 192

L173 171

L168 171

L163 171

L163 191

L163 212

L153 224

L142 235

L142 257

L142 279

L134 287

C130 292 126 296 126 296

C125 296 122 292 118 287

L110 279

L110 257

L110 235

L100 224

L89 212

L89 192

L89 171

L84 171

L79 171

L79 192

L79 212

L69 224

L58 235

L58 257

L58 279

L50 287

C46 292 42 296 42 296

C42 296 38 292 34 287

Z

M34 213

L26 205

L26 183

L26 161

L16 150

L5 138

L5 117

L5 97

L3 97

L0 97

L0 85

C0 75 0 74 1 75

C2 76 6 80 9 84

L16 91

L16 113

L16 135

L27 146

L37 158

L37 179

L37 200

L42 200

L47 200

L47 179

L47 158

L58 147

L68 135

L68 113

L68 92

L76 83

C80 78 84 75 84 75

C84 75 88 78 92 83

L100 92

L100 113

L100 135

L111 147

L121 158

L121 179

L121 200

L126 200

L131 200

L131 179

L131 158

L142 146

L152 135

L152 113

L152 91

L160 83

C164 78 167 74 168 74

C168 74 172 78 176 83

L184 92

L184 113

L184 135

L195 147

L205 158

L205 179

L205 200

L210 200

L215 200

L215 179

L215 158

L226 146

L236 135

L236 113

L236 91

L244 83

L252 74

L260 83

L268 92

L268 114

L268 136

L279 147

L289 158

L289 179

L289 200

L294 200

L299 200

L299 179

L299 158

L310 146

L320 135

L320 113

L320 91

L328 82

L336 74

L344 83

L352 92

L352 114

L352 136

L363 147

L373 159

L373 179

L373 200

L378 200

L383 200

L383 178

L384 157

L394 146

L404 134

L404 112

L404 91

L412 82

L419 74

L427 82

L435 91

L435 113

L435 135

L445 146

L456 158

L456 179

L457 200

L461 200

L466 200

L466 179

L466 159

L476 147

L487 136

L487 114

L487 92

L494 84

C504 73 502 73 511 83

L519 91

L519 113

L519 135

L529 146

L540 158

L540 179

L541 200

L545 200

L550 200

L550 179

L550 158

L561 147

L571 135

L571 113

L571 92

L579 83

L587 75

L587 86

L587 97

L585 97

L582 97

L582 118

L582 139

L571 150

L561 162

L561 183

L561 205

L553 214

C549 218 545 222 545 222

C545 222 541 218 537 213

L529 205

L529 183

L529 161

L519 149

L508 138

L508 117

L508 97

L503 97

L498 97

L498 118

L498 139

L488 150

L477 162

L477 184

L477 206

L469 214

L461 222

L457 217

C454 215 451 211 449 208

L445 204

L445 183

L445 161

L435 149

L424 138

L424 117

L424 97

L419 97

L414 97

L414 118

L414 139

L404 150

L394 161

L394 182

L394 204

L387 212

C377 223 378 223 370 214

L362 206

L362 184

L362 162

L352 150

L341 139

L341 118

L341 97

L336 97

L331 97

L331 117

L331 138

L321 149

L310 161

L310 183

L310 204

L306 208

C304 211 301 215 298 217

L294 222

L286 214

L278 206

L278 184

L278 162

L267 150

L257 139

L257 118

L257 97

L252 97

L247 97

L247 117

L247 138

L237 149

L226 161

L226 183

L226 205

L218 213

C214 218 210 222 210 222

C210 222 206 218 202 214

L194 205

L194 183

L194 162

L184 150

L173 139

L173 118

L173 97

L168 97

L163 97

L163 118

L163 138

L153 150

L142 161

L142 183

L142 205

L134 213

C130 218 126 222 126 222

C125 222 122 218 117 213

L110 205

L110 183

L110 161

L100 150

L89 138

L89 118

L89 97

L84 97

L79 97

L79 118

L79 138

L69 150

L58 161

L58 183

L58 205

L50 213

C46 218 42 222 42 222

C42 222 38 218 34 213

Z

M34 139

L26 131

L26 109

L26 87

L16 76

L5 64

L5 44

L5 23

L3 23

L0 23

L0 11

L0 0

L5 6

C8 9 12 13 13 15

L16 18

L16 39

L16 61

L27 72

L37 84

L37 105

L37 126

L42 126

L47 126

L47 105

L47 84

L58 73

L68 61

L68 39

L68 18

L76 9

C80 4 84 0 84 0

C84 0 88 4 92 9

L100 18

L100 39

L100 61

L111 73

L121 84

L121 105

L121 126

L126 126

L131 126

L131 105

L131 84

L142 73

L152 61

L152 39

L152 18

L160 9

C164 4 167 0 168 0

C168 0 172 4 176 9

L184 18

L184 39

L184 61

L195 73

L205 84

L205 105

L205 126

L210 126

L215 126

L215 105

L215 84

L226 72

L236 61

L236 39

L236 17

L244 9

L252 0

L260 9

L268 18

L268 40

L268 62

L279 73

L289 85

L289 105

L289 126

L294 126

L299 126

L299 105

L299 84

L310 72

L320 61

L320 39

L320 17

L328 9

C332 4 335 0 336 0

C336 0 339 4 344 9

L352 18

L352 40

L352 62

L362 73

L373 85

L373 105

L373 126

L378 126

L383 126

L383 105

L383 84

L394 72

L404 61

L404 39

L404 17

L412 8

L420 0

L427 8

L435 17

L435 39

L435 61

L445 72

L456 83

L456 104

L457 126

L461 126

L466 126

L466 105

L466 85

L477 73

L487 62

L487 40

L487 18

L495 9

C502 2 503 0 504 1

C505 2 509 6 512 10

L519 17

L519 39

L519 61

L529 72

L540 84

L540 105

L541 126

L545 126

L550 126

L550 105

L550 84

L561 73

L571 61

L571 39

L571 18

L579 9

L587 1

L587 12

L587 23

L585 23

L582 23

L582 44

L582 65

L572 76

L561 88

L561 109

L561 131

L553 140

C549 144 545 148 545 148

C545 148 541 144 537 139

L529 131

L529 109

L529 87

L519 76

L508 64

L508 43

L508 23

L503 23

L498 23

L498 44

L498 65

L488 76

L477 88

L477 110

L477 131

L469 140

C465 144 461 148 461 148

C461 148 457 144 453 139

L445 131

L445 109

L445 87

L435 75

L424 64

L424 43

L424 23

L419 23

L414 23

L414 44

L414 65

L404 76

L394 87

L394 109

L394 131

L386 139

C382 144 378 148 378 148

C377 148 373 144 369 140

L362 132

L362 110

L362 88

L352 76

L341 65

L341 44

L341 23

L336 23

L331 23

L331 43

L331 64

L321 75

L310 87

L310 109

L310 131

L302 139

C298 144 294 148 294 148

C294 148 290 144 286 140

L278 131

L278 110

L278 88

L268 76

L257 65

L257 44

L257 23

L252 23

L247 23

L247 43

L247 64

L237 76

L226 87

L226 109

L226 131

L218 139

C214 144 211 148 210 148

C210 148 206 144 202 140

L194 131

L194 109

L194 88

L184 76

L173 65

L173 44

L173 23

L168 23

L163 23

L163 44

L163 64

L153 76

L142 87

L142 109

L142 131

L134 139

C130 144 126 148 126 148

C126 148 122 144 118 139

L110 131

L110 109

L110 88

L100 76

L89 65

L89 44

L89 23

L84 23

L79 23

L79 44

L79 65

L68 76

L58 88

L58 109

L58 131

L50 140

C46 144 42 148 42 148

C42 148 38 144 34 139

Z

M34 65

L26 57

L26 35

L26 13

L20 7

L14 0

L21 0

L28 0

L32 5

L37 10

L37 31

L37 52

L42 52

L47 52

L47 31

L47 11

L52 5

L56 0

L63 0

L70 0

L64 7

L58 14

L58 35

L58 57

L50 66

C46 70 42 74 42 74

C42 74 38 70 34 65

Z

M118 66

L110 57

L110 35

L110 14

L104 7

L98 0

L105 0

L112 0

L116 5

L121 10

L121 31

L121 52

L126 52

L131 52

L131 31

L131 10

L136 5

L140 0

L147 0

L154 0

L148 7

L142 13

L142 35

L142 57

L134 65

C130 70 126 74 126 74

C126 74 122 70 118 66

Z

M202 66

L194 57

L194 35

L194 14

L188 7

L182 1

L189 0

L196 0

L200 5

L205 11

L205 31

L205 52

L210 52

L215 52

L215 31

L215 10

L220 5

L224 0

L231 0

L238 0

L232 7

L226 13

L226 35

L226 57

L218 65

C214 70 210 74 210 74

C210 74 206 70 202 66

Z

M286 66

L278 58

L278 36

L278 14

L272 7

L266 1

L273 0

L279 0

L284 5

L289 11

L289 31

L289 52

L294 52

L299 52

L299 30

L300 9

L304 5

C308 0 308 0 315 0

C318 0 321 0 321 1

C321 1 319 4 316 7

L310 13

L310 35

L310 57

L302 65

C298 70 294 74 294 74

C294 74 290 70 286 66

Z

M369 66

L362 58

L362 36

L362 14

L357 9

C349 -1 349 0 357 0

L364 0

L368 6

L373 11

L373 32

L373 52

L378 52

L383 52

L383 30

L384 9

L388 5

L392 0

L399 0

L405 1

L400 7

L394 13

L394 35

L394 57

L386 65

C382 70 378 74 378 74

C377 74 373 70 369 66

Z

M453 65

L445 57

L445 35

L445 13

L439 7

L434 1

L440 0

L447 0

L451 5

L456 9

L456 30

L457 52

L461 52

L466 52

L466 31

L466 11

L471 5

L476 0

L482 0

L489 1

L483 7

L477 14

L477 36

L477 58

L469 66

C465 70 462 74 461 74

C461 74 457 70 453 65

Z

M537 65

L529 57

L529 35

L529 13

L524 7

C520 4 518 1 518 1

C518 0 521 0 524 0

C530 0 531 0 535 5

L540 10

L540 31

L540 52

L545 52

L550 52

L550 31

L550 11

L555 5

L560 0

L566 0

L573 1

L567 7

L561 14

L561 35

L561 57

L553 66

C549 70 546 74 545 74

C545 74 541 70 537 65

Z

"/>

</svg>

