<?xml version="1.0" standalone="no"?>

<!DOCTYPE svg PUBLIC "-//W3C//DTD SVG 20010904//EN"

 "http://www.w3.org/TR/2001/REC-SVG-20010904/DTD/svg10.dtd">

<svg version="1.0" xmlns="http://www.w3.org/2000/svg"

 width="590.000000pt" height="591.000000pt" viewBox="0 0 590.000000 591.000000"

 preserveAspectRatio="xMidYMid meet">

<path fill="#ebeaea" stroke="none" d="
M0 296

L0 0

L295 0

L590 0

L590 296

L590 591

L295 591

L0 591

L0 296

Z

"/>

<path fill="#66696e" stroke="none" d="
M0 554

L0 516

L3 516

C7 514 7 508 2 507

C0 507 0 506 0 502

C0 498 1 496 2 493

C5 490 4 487 1 488

C0 488 0 483 0 454

C0 421 0 419 2 418

C5 417 5 412 2 411

C0 411 0 410 0 339

L0 267

L5 265

C10 262 16 256 20 247

C22 244 23 241 23 241

C23 240 19 239 15 238

L8 236

L8 239

C7 241 7 245 8 248

L8 255

L5 251

C4 249 2 248 2 248

C1 248 1 249 1 251

C1 253 0 241 0 224

C0 203 0 195 1 197

C2 200 3 201 4 199

C5 198 4 193 4 187

C3 180 3 176 4 172

C5 169 5 165 5 162

C5 158 5 158 3 159

C0 159 0 159 0 157

C0 156 1 155 3 155

C8 156 8 149 3 148

C1 148 0 147 0 146

C0 145 1 144 1 144

C3 145 6 143 6 141

C6 138 4 136 2 136

C1 136 0 135 0 135

C0 134 1 133 1 133

C2 133 3 132 4 131

C5 129 4 125 1 125

C0 125 0 122 0 109

C0 93 0 93 2 94

C4 94 4 94 4 87

C3 83 3 79 2 78

C1 76 0 73 0 70

C0 65 0 64 3 64

C4 63 10 64 17 65

C24 66 29 66 30 66

C31 64 28 63 19 60

C14 59 8 57 5 55

L0 53

L0 26

L0 0

L33 0

C58 0 65 0 65 1

C64 2 64 3 64 4

C63 6 65 6 76 10

C78 10 78 9 79 5

L79 0

L92 0

C99 0 105 0 105 1

C104 1 102 2 100 3

C95 6 94 9 99 8

C100 7 105 6 110 4

L119 0

L157 0

C200 0 199 0 189 6

C186 8 182 10 181 11

L178 14

L183 18

C187 21 189 23 190 22

C191 22 193 18 195 14

C196 10 199 5 201 3

L203 0

L228 0

L253 0

L252 3

C250 13 249 13 259 13

L266 14

L266 10

C265 7 265 4 264 3

L264 0

L304 0

C334 0 345 0 348 1

C350 2 351 2 352 1

C353 0 360 0 375 0

C395 0 397 0 398 2

C400 5 404 5 405 2

C406 1 408 0 410 0

L415 0

L411 4

C407 7 407 7 409 9

C410 9 413 11 417 13

L423 16

L419 17

C416 18 414 18 414 18

C414 19 416 21 419 24

C422 27 425 30 426 31

C427 34 428 33 429 29

C431 23 430 16 426 8

C424 5 422 1 422 1

C422 0 437 0 455 0

L488 0

L489 2

C490 5 494 5 495 2

C496 0 497 0 506 0

C514 0 515 0 515 2

C516 7 522 7 523 2

C523 0 523 0 547 0

C570 0 571 0 573 2

C576 5 578 5 579 2

C581 -1 584 -1 584 2

C584 5 586 7 588 7

C590 6 590 9 590 29

C590 51 590 52 588 51

C583 49 582 49 581 56

C580 59 580 62 579 63

C579 64 583 65 586 65

L590 64

L590 89

L590 114

L587 114

C584 115 584 115 584 118

C584 121 585 122 587 122

C590 122 591 124 589 126

C587 128 587 132 588 133

C590 133 590 158 589 159

C588 160 586 160 585 160

C580 160 580 162 584 171

C586 175 588 181 589 183

C590 185 590 204 590 224

C590 253 590 260 589 262

C587 265 587 267 589 267

C590 267 590 275 590 332

C590 394 590 397 588 396

C587 396 584 395 581 394

C578 393 575 392 575 392

C575 392 576 391 578 390

C582 389 582 387 578 386

C576 385 572 383 570 381

L565 377

L565 380

C564 390 567 395 574 403

C582 412 582 412 586 405

L590 400

L590 405

C590 409 590 410 588 412

C587 413 586 414 586 415

C586 416 587 417 588 418

C590 419 590 421 590 431

C590 441 590 442 588 442

C583 442 582 449 587 450

L590 450

L590 467

L590 483

L583 483

C579 483 575 484 573 485

C568 487 556 496 556 497

C556 497 559 500 562 502

C568 508 569 508 572 499

C575 493 576 492 577 496

C578 500 579 500 581 496

C582 495 584 492 586 489

C589 486 590 486 590 488

C590 489 589 491 587 492

C585 495 582 499 582 501

C582 503 585 502 588 500

L590 498

L590 504

C589 511 589 511 590 521

C590 528 590 528 588 528

C586 527 583 529 583 532

C583 534 586 536 588 536

C590 535 590 536 590 563

C590 588 590 590 588 590

C587 590 585 590 583 591

C581 591 580 591 580 590

C580 586 574 586 572 589

C572 590 571 591 570 591

C568 591 568 591 569 589

C569 586 567 584 564 584

C562 584 560 587 561 589

C561 591 559 591 544 591

L526 591

L533 584

C537 580 543 575 548 572

C553 569 557 566 557 565

C557 563 556 564 549 567

C542 570 533 573 526 575

C517 577 517 577 522 584

C524 587 525 590 525 591

C524 591 523 591 521 590

C519 589 518 589 517 590

C516 591 511 591 506 591

C498 591 496 591 496 590

C495 589 494 588 492 588

C490 588 489 589 489 590

C488 591 483 591 455 591

C425 591 421 591 420 589

C418 588 418 588 416 589

C414 592 407 592 405 589

C405 588 403 587 402 587

C400 587 399 588 398 589

C397 591 396 591 375 591

C355 591 354 591 354 589

C354 587 352 585 349 585

C347 585 344 588 346 590

C346 591 334 591 311 591

C282 591 277 591 277 590

C278 587 279 579 279 577

C277 570 273 577 273 586

C273 590 273 591 271 591

C270 591 270 590 270 584

C271 581 271 576 272 575

C274 569 261 577 257 585

L254 591

L229 591

C215 591 204 591 204 590

C204 590 206 588 208 586

C209 583 211 581 211 580

C211 578 208 579 203 585

L197 591

L162 591

C137 591 128 591 130 590

C132 589 134 588 134 588

C135 587 129 575 128 575

C127 575 124 578 121 581

C111 590 108 591 93 591

C78 591 78 591 78 586

C78 583 79 584 81 587

C84 590 85 590 85 585

C86 582 87 579 88 576

C89 574 90 571 90 571

C89 571 88 571 86 571

C80 572 74 577 69 584

L65 591

L32 591

L0 591

L0 554

Z

M93 586

C96 580 96 574 94 573

C93 573 92 574 90 578

C89 582 88 585 88 587

C88 592 91 591 93 586

Z

M506 587

C506 584 504 582 502 582

C499 582 498 585 498 588

C499 590 500 590 502 590

C505 590 506 589 506 587

Z

M339 585

C342 583 345 581 345 580

C345 580 342 577 339 574

L333 570

L337 569

C339 569 341 569 341 568

C341 568 340 566 338 564

C336 562 334 559 333 556

C332 554 330 552 330 552

C329 552 326 559 325 563

C325 565 325 569 326 572

C327 578 332 589 333 589

C333 589 336 587 339 585

Z

M143 587

C144 587 145 586 145 584

C145 582 144 581 142 580

C138 579 135 584 138 587

C140 588 141 588 143 587

Z

M395 587

C398 585 397 581 394 580

C390 578 387 584 390 587

C392 588 393 588 395 587

Z

M23 583

C27 581 35 572 38 566

L40 561

L33 559

C29 557 25 556 25 557

C25 557 24 561 24 565

C24 569 23 573 23 573

C23 573 22 572 21 570

C18 566 17 566 17 571

C16 574 15 577 13 580

C12 582 11 585 11 585

C11 586 19 584 23 583

Z

M414 585

C415 584 415 582 415 581

C414 577 407 578 407 582

C407 586 412 587 414 585

Z

M515 584

C518 582 517 578 512 578

C510 578 508 580 508 582

C508 583 511 586 513 586

C513 586 515 585 515 584

Z

M588 584

C589 582 589 581 587 580

C585 577 582 578 581 580

C580 582 580 583 581 584

C583 587 587 586 588 584

Z

M155 582

C158 578 153 574 149 577

C148 579 148 583 149 583

C151 584 154 584 155 582

Z

M577 580

C577 578 576 575 573 575

C571 575 569 577 569 580

C569 584 576 585 577 580

Z

M12 578

C14 572 15 566 12 566

C10 566 6 575 6 580

C6 585 9 584 12 578

Z

M387 579

C391 576 387 569 383 572

C381 573 380 577 383 579

C384 579 385 580 385 580

C385 580 386 579 387 579

Z

M165 578

C166 577 166 575 166 574

C165 570 158 571 158 575

C158 579 163 580 165 578

Z

M407 576

C408 575 408 573 408 572

C408 570 407 569 404 569

C402 569 401 569 400 571

C399 576 404 579 407 576

Z

M139 573

C139 569 136 567 133 569

C129 571 131 576 136 576

C138 576 139 575 139 573

Z

M174 572

C178 570 175 565 171 565

C168 566 167 569 169 572

C170 573 171 573 174 572

Z

M232 561

C232 554 232 545 232 540

L233 532

L228 532

C217 534 217 534 222 545

C224 549 226 556 227 562

C229 572 229 573 231 573

C232 573 232 569 232 561

Z

M477 572

C477 571 472 568 467 564

C462 561 457 557 455 555

C453 553 451 550 449 549

L445 546

L442 552

C440 556 438 559 438 559

C438 560 441 561 449 562

C453 563 459 566 465 568

C474 573 478 574 477 572

Z

M511 564

C515 561 521 555 526 552

C531 549 535 546 535 545

C535 544 525 536 524 536

C523 536 521 540 519 545

C517 550 512 557 509 561

C503 568 502 571 504 571

C505 571 508 568 511 564

Z

M148 568

C151 564 146 560 142 563

C141 565 141 569 142 569

C144 570 147 570 148 568

Z

M382 567

C382 561 375 560 374 565

C374 569 375 570 378 570

C381 570 382 569 382 567

Z

M399 568

C401 565 399 560 396 560

C395 560 392 563 392 565

C392 566 395 569 396 569

C397 569 398 568 399 568

Z

M202 567

C207 565 212 561 212 559

C212 557 208 558 204 560

C198 563 196 564 196 566

C197 568 197 568 202 567

Z

M189 559

C191 557 193 555 193 555

C193 555 194 557 193 559

C193 563 194 564 196 561

C198 559 207 555 209 555

C210 555 211 555 211 554

C211 553 201 548 197 547

C193 547 181 549 176 551

L173 552

L177 559

L180 566

L183 564

C184 563 187 561 189 559

Z

M158 564

C158 563 159 562 159 560

C159 558 155 556 152 558

C150 560 151 565 155 565

C156 565 157 564 158 564

Z

M345 563

C345 560 338 550 335 550

C334 550 334 552 336 556

C339 563 345 567 345 563

Z

M382 553

C384 552 381 549 375 546

C371 544 365 539 360 535

C356 530 352 527 351 527

C349 527 350 530 356 537

C359 540 363 546 365 550

C367 553 369 557 370 559

L372 562

L377 558

C379 556 382 553 382 553

Z

M169 560

C172 557 169 552 165 553

C163 554 162 555 162 557

C162 561 166 562 169 560

Z

M391 559

C392 557 392 556 390 555

C388 552 385 553 384 555

C383 557 383 558 384 559

C386 562 390 561 391 559

Z

M271 557

C275 557 279 555 282 554

L286 552

L282 546

C277 538 276 538 270 546

C268 549 266 551 266 551

C265 551 265 549 265 547

L265 543

L261 546

C259 547 255 550 253 551

L248 554

L251 556

C258 559 263 560 271 557

Z

M436 557

C438 554 435 550 431 552

C429 552 428 556 429 558

C431 560 435 559 436 557

Z

M44 556

C47 554 46 550 43 549

C39 547 36 553 39 556

C41 557 42 557 44 556

Z

M425 553

C427 550 425 548 421 548

C419 548 418 548 418 550

C418 555 423 557 425 553

Z

M33 550

C35 547 33 545 30 544

C26 544 24 547 26 550

C27 553 32 552 33 550

Z

M109 551

C110 550 106 538 105 537

C104 537 101 539 98 540

C94 542 91 544 91 544

C90 544 91 542 92 541

C93 539 93 537 93 537

C93 536 90 537 88 538

C85 539 81 540 79 540

C76 540 75 541 75 542

C75 544 81 549 86 551

C89 552 108 553 109 551

Z

M122 549

C122 545 119 543 116 545

C112 547 114 552 119 552

C121 552 122 551 122 549

Z

M133 549

C135 547 134 545 131 543

C130 542 129 542 127 543

C125 546 124 547 127 549

C129 552 130 551 133 549

Z

M252 548

C257 546 262 542 262 540

C262 538 258 539 253 542

C248 545 246 548 246 549

C247 550 249 550 252 548

Z

M296 548

C297 547 297 546 296 544

C295 542 292 541 290 544

C288 545 288 546 289 548

C290 550 294 551 296 548

Z

M414 549

C417 547 416 543 413 542

C409 540 406 546 409 549

C411 550 412 550 414 549

Z

M144 546

C145 544 145 543 144 542

C141 538 135 542 137 546

C139 549 143 549 144 546

Z

M442 546

C443 544 443 543 442 542

C440 539 436 540 435 542

C434 544 434 545 436 546

C438 549 441 548 442 546

Z

M49 546

C53 543 49 536 45 539

C43 540 42 544 45 546

C46 546 47 547 47 547

C47 547 48 546 49 546

Z

M306 544

C308 542 307 539 305 538

C302 536 298 540 299 544

C300 545 304 545 306 544

Z

M154 543

C155 543 155 541 155 539

C154 536 151 535 148 537

C144 540 149 546 154 543

Z

M406 541

C407 540 407 538 406 537

C404 533 398 535 398 539

C398 543 404 545 406 541

Z

M543 540

C543 537 541 535 539 535

C536 535 535 538 535 541

C536 543 537 543 539 543

C542 543 543 542 543 540

Z

M36 539

C38 535 32 531 29 535

C28 536 28 537 29 539

C30 542 34 542 36 539

Z

M433 538

C433 534 430 532 427 534

C423 536 425 541 430 541

C432 541 433 540 433 538

Z

M117 539

C121 536 117 529 113 532

C111 533 110 537 113 539

C114 539 115 540 115 540

C115 540 116 539 117 539

Z

M10 538

C13 536 12 530 8 530

C7 530 4 533 4 535

C4 536 7 539 8 539

C8 539 9 539 10 538

Z

M167 535

C172 532 178 529 185 528

C191 526 196 524 196 523

C196 522 193 522 182 523

C176 524 171 525 164 524

L155 524

L155 528

C156 534 158 539 159 539

C160 539 163 537 167 535

Z

M289 537

C291 534 289 532 286 531

C282 531 280 534 282 537

C283 540 288 539 289 537

Z

M316 537

C317 536 317 535 316 533

C315 530 311 530 309 533

C307 537 313 541 316 537

Z

M87 535

C91 534 92 531 90 531

C86 531 81 531 77 533

C73 535 72 536 74 537

C75 538 82 537 87 535

Z

M54 535

C55 534 55 532 55 531

C55 529 54 529 51 529

C48 529 47 529 47 531

C47 534 49 536 51 536

C52 536 53 535 54 535

Z

M128 534

C129 534 130 532 130 532

C130 530 127 527 126 527

C122 527 121 533 124 535

C126 536 127 536 128 534

Z

M397 529

C399 526 401 523 401 522

C400 521 392 519 389 519

C385 519 385 517 388 516

C391 514 392 512 389 512

C387 512 379 508 377 506

C375 503 374 504 374 509

C374 517 379 524 388 532

C391 534 394 536 394 536

C394 536 395 533 397 529

Z

M422 535

C423 534 423 532 423 531

C422 527 415 528 415 532

C415 536 420 537 422 535

Z

M551 533

C552 531 551 528 549 528

C545 526 541 531 545 534

C547 536 550 536 551 533

Z

M532 534

C533 533 533 531 533 530

C532 526 525 527 525 531

C525 535 530 536 532 534

Z

M140 532

C141 531 141 529 141 528

C140 523 133 524 133 528

C133 533 137 535 140 532

Z

M298 530

C299 528 299 527 298 526

C295 522 289 526 291 530

C293 533 297 533 298 530

Z

M325 530

C326 527 325 524 322 524

C320 524 319 525 318 526

C317 529 318 532 322 532

C323 532 324 531 325 530

Z

M411 530

C412 530 413 528 413 528

C413 526 410 523 408 523

C408 523 406 524 405 526

C404 528 404 528 406 530

C408 532 409 533 411 530

Z

M152 528

C152 524 149 522 146 524

C142 526 144 531 149 531

C151 531 152 530 152 528

Z

M222 529

C223 527 223 526 222 525

C219 521 213 525 215 529

C217 532 221 532 222 529

Z

M502 528

C506 526 515 516 517 512

C519 509 518 509 511 506

L505 503

L504 506

C503 507 503 511 502 514

C502 517 501 519 501 519

C501 520 500 518 499 516

C497 512 495 513 495 517

C494 519 493 523 491 525

C489 528 488 530 488 531

C488 532 498 530 502 528

Z

M20 528

C21 526 21 525 20 524

C17 520 11 524 13 528

C15 531 19 531 20 528

Z

M40 528

C41 526 41 525 39 524

C37 521 34 522 33 524

C32 526 32 527 33 528

C35 531 39 530 40 528

Z

M235 527

C236 526 236 525 235 523

C234 521 231 520 229 523

C227 524 227 525 228 527

C229 529 233 530 235 527

Z

M453 526

C456 524 455 522 453 521

C451 519 450 519 449 520

C446 522 446 524 448 526

C450 528 451 528 453 526

Z

M488 524

C492 519 494 513 492 512

C491 510 489 512 486 518

C481 527 483 532 488 524

Z

M8 526

C9 525 9 523 9 522

C8 518 1 519 1 523

C1 527 6 528 8 526

Z

M557 526

C561 523 557 517 553 519

C550 521 551 527 555 527

C555 527 556 526 557 526

Z

M307 525

C308 524 308 522 308 521

C307 517 300 518 300 522

C300 526 305 527 307 525

Z

M465 525

C468 522 465 516 461 518

C458 519 457 522 460 524

C461 526 463 526 465 525

Z

M56 524

C59 523 59 518 56 517

C52 515 48 520 51 524

C53 525 54 525 56 524

Z

M273 523

C274 521 274 520 273 519

C270 515 264 519 266 523

C268 526 272 526 273 523

Z

M335 518

C338 515 344 509 349 506

C359 500 360 498 358 497

C357 497 352 499 347 502

C342 505 335 507 333 508

C327 509 320 512 320 513

C322 516 328 525 328 525

C329 525 331 522 335 518

Z

M539 524

C541 521 538 516 534 518

C530 519 531 525 536 525

C537 525 538 524 539 524

Z

M587 523

C590 519 586 514 582 517

C579 519 580 524 584 524

C585 524 586 523 587 523

Z

M262 519

C262 513 255 512 254 517

C254 521 255 522 258 522

C261 522 262 521 262 519

Z

M318 519

C319 517 319 516 318 515

C315 511 309 515 311 519

C313 522 317 522 318 519

Z

M45 518

C47 515 45 513 42 512

C38 512 36 515 38 518

C39 521 44 520 45 518

Z

M219 518

C221 515 219 513 215 513

C213 513 212 513 212 515

C212 520 217 522 219 518

Z

M17 515

C17 512 15 510 12 510

C10 511 9 514 10 516

C11 520 17 519 17 515

Z

M445 518

C448 516 448 512 445 511

C443 510 442 510 441 511

C438 513 439 517 441 518

C443 519 443 519 445 518

Z

M234 517

C235 516 235 514 235 513

C235 511 234 510 231 510

C229 510 228 510 227 512

C226 517 231 520 234 517

Z

M545 516

C548 515 548 510 545 509

C541 507 537 512 540 516

C542 517 543 517 545 516

Z

M565 514

C565 510 562 508 559 510

C555 512 557 517 562 517

C564 517 565 516 565 514

Z

M281 515

C284 512 281 507 277 508

C274 509 273 511 274 514

C275 516 279 517 281 515

Z

M458 515

C460 513 458 509 456 508

C455 508 453 508 452 509

C451 510 450 514 452 515

C453 517 457 516 458 515

Z

M469 513

C472 511 471 510 469 508

C465 504 460 509 464 513

C466 515 467 515 469 513

Z

M58 510

C59 508 59 504 59 502

C59 499 60 493 63 487

C66 477 66 473 64 475

C63 475 61 479 59 484

C57 489 53 495 51 498

C48 501 46 505 45 506

L43 509

L47 511

C57 515 58 515 58 510

Z

M103 512

C107 511 112 509 112 508

C112 507 105 495 105 495

C104 495 101 498 98 501

L92 507

L92 503

C93 501 93 499 92 499

C92 498 89 500 86 502

C83 503 79 505 78 506

C74 506 75 508 79 510

C86 514 92 514 103 512

Z

M270 509

C269 504 263 504 262 509

C262 511 262 512 264 513

C268 514 270 512 270 509

Z

M194 508

C194 505 192 503 189 503

C187 504 186 507 187 509

C188 513 194 512 194 508

Z

M258 509

C260 505 254 501 251 505

C250 506 250 507 251 509

C252 512 256 512 258 509

Z

M393 508

C393 506 391 505 388 503

C380 499 378 499 377 500

C377 502 379 504 386 508

C391 510 393 510 393 508

Z

M182 507

C184 504 182 502 178 502

C176 502 175 502 175 504

C175 509 180 511 182 507

Z

M217 508

C220 505 217 499 213 501

C210 502 209 506 212 508

C214 509 215 509 217 508

Z

M554 508

C556 506 555 502 553 501

C551 500 548 501 547 504

C546 508 551 511 554 508

Z

M122 506

C123 506 124 504 124 504

C124 502 121 499 120 499

C116 499 115 505 118 507

C120 508 121 508 122 506

Z

M232 505

C234 503 234 502 232 500

C230 497 228 498 226 501

C225 503 225 503 227 505

C229 507 230 507 232 505

Z

M451 504

C451 501 449 499 447 499

C444 499 443 502 443 505

C444 507 445 507 447 507

C450 507 451 506 451 504

Z

M277 504

C278 503 278 501 278 500

C278 498 277 497 274 497

C272 497 271 497 270 499

C269 504 274 507 277 504

Z

M463 502

C464 498 459 495 456 498

C455 499 455 503 456 504

C456 505 458 505 459 505

C461 505 462 504 463 502

Z

M525 504

C528 501 525 496 521 497

C519 498 518 499 518 501

C518 502 518 504 519 504

C520 505 524 505 525 504

Z

M134 501

C136 498 132 494 129 495

C126 496 125 500 128 502

C130 504 133 504 134 501

Z

M85 499

C90 496 91 493 87 494

C81 494 72 500 73 502

C75 504 80 503 85 499

Z

M201 501

C203 498 203 496 200 495

C198 494 197 494 196 496

C194 498 193 499 196 501

C198 504 200 503 201 501

Z

M266 500

C267 497 266 494 263 494

C261 494 260 495 259 496

C258 499 259 502 263 502

C264 502 265 501 266 500

Z

M190 498

C192 495 190 493 186 493

C184 493 183 493 183 495

C183 500 188 502 190 498

Z

M512 499

C516 496 512 489 508 492

C506 493 505 497 508 499

C509 499 510 500 510 500

C510 500 511 499 512 499

Z

M144 496

C145 495 145 494 144 492

C143 490 140 489 138 492

C136 493 136 494 137 496

C138 498 142 499 144 496

Z

M177 497

C180 495 179 491 177 490

C173 487 169 494 173 497

C174 497 175 498 175 498

C175 498 176 497 177 497

Z

M217 496

C219 494 218 491 216 490

C213 488 209 492 210 496

C211 497 215 497 217 496

Z

M117 494

C119 491 117 489 113 489

C111 489 110 489 110 491

C110 496 115 498 117 494

Z

M530 495

C533 494 533 489 530 488

C526 486 522 491 525 495

C527 496 528 496 530 495

Z

M231 492

C232 488 227 485 224 488

C223 489 223 493 224 494

C224 495 226 495 227 495

C229 495 230 494 231 492

Z

M423 492

C426 488 422 483 418 486

C416 487 415 489 418 491

C419 493 421 493 423 492

Z

M435 492

C438 489 435 484 431 485

C428 486 427 489 428 491

C429 493 433 494 435 492

Z

M445 492

C449 489 445 482 441 485

C439 486 438 490 441 492

C442 492 443 493 443 493

C443 493 444 492 445 492

Z

M153 491

C154 490 154 488 154 487

C153 483 146 484 146 488

C146 492 151 493 153 491

Z

M198 490

C200 488 199 485 197 484

C194 482 190 486 191 490

C192 491 196 491 198 490

Z

M412 490

C415 486 411 481 407 484

C404 486 405 491 409 491

C410 491 411 490 412 490

Z

M125 489

C128 487 127 481 123 481

C122 481 119 484 119 486

C119 487 122 490 123 490

C123 490 124 490 125 489

Z

M460 488

C465 487 470 486 478 486

C495 486 495 483 480 482

C475 481 468 480 463 478

C458 476 454 475 452 475

C450 475 450 475 450 483

C450 488 450 490 451 490

C452 490 456 489 460 488

Z

M186 488

C189 485 186 479 182 481

C179 482 178 486 181 488

C183 489 184 489 186 488

Z

M516 488

C519 486 518 482 515 481

C511 479 508 485 511 488

C513 489 514 489 516 488

Z

M400 481

C401 477 401 473 400 473

C400 472 394 473 389 475

C386 475 384 476 384 476

C384 475 385 474 386 472

C387 471 388 469 388 469

C388 469 385 469 382 469

C379 469 375 469 372 468

C370 468 368 467 368 468

C368 469 372 476 375 478

C379 482 392 488 399 488

C399 488 400 485 400 481

Z

M359 485

C363 484 361 482 356 481

C347 481 339 484 344 486

C346 487 357 486 359 485

Z

M164 479

C168 476 174 471 179 469

C184 466 188 463 189 463

C191 459 188 460 178 464

C173 466 166 468 163 469

C156 470 150 472 150 473

C150 474 156 485 157 485

C158 485 161 482 164 479

Z

M288 483

C289 483 290 481 290 481

C290 479 287 476 286 476

C284 476 282 478 282 480

C282 485 286 486 288 483

Z

M300 484

C301 483 301 481 301 480

C300 476 293 477 293 481

C293 485 298 486 300 484

Z

M537 482

C538 478 533 475 530 478

C529 479 529 483 530 484

C530 485 532 485 533 485

C535 485 536 484 537 482

Z

M85 477

C83 470 80 466 78 467

C77 468 77 469 79 473

C81 480 84 484 86 483

C87 482 87 481 85 477

Z

M137 482

C139 479 136 475 132 477

C130 477 129 481 130 483

C132 485 136 484 137 482

Z

M226 482

C227 482 225 476 222 470

C220 466 220 465 224 468

C228 470 229 469 227 465

C227 463 226 459 226 456

C226 452 226 450 225 450

C223 450 217 457 215 461

C213 464 211 474 211 480

L211 484

L218 484

C222 483 226 483 226 482

Z

M312 482

C313 480 313 479 312 478

C309 474 303 478 305 482

C307 485 311 485 312 482

Z

M93 480

C96 476 98 471 98 462

C98 453 97 446 95 446

C94 446 92 447 89 448

C87 449 84 450 83 450

C81 451 81 451 83 454

C84 455 86 458 88 461

C90 463 91 465 91 465

C91 466 89 465 88 465

C86 464 84 464 83 464

C83 465 84 467 85 470

C87 472 88 476 89 478

C89 483 90 483 93 480

Z

M279 477

C278 474 278 470 278 469

C278 467 278 467 275 468

C273 468 269 469 267 471

C263 472 257 473 250 474

C244 475 239 476 238 476

C236 478 240 479 250 479

C257 479 264 480 267 480

C269 481 273 482 275 482

L279 482

L279 477

Z

M322 481

C325 479 324 475 321 474

C317 472 314 478 317 481

C319 482 320 482 322 481

Z

M148 477

C148 473 145 471 142 473

C138 475 140 480 145 480

C147 480 148 479 148 477

Z

M355 479

C358 479 361 478 361 478

C361 476 356 470 352 468

C346 464 334 462 328 463

C327 463 328 476 329 478

C330 478 336 477 341 474

C345 472 346 473 343 476

C341 479 342 480 346 479

C348 479 352 479 355 479

Z

M447 478

C449 476 447 472 445 471

C442 470 439 474 440 477

C441 479 445 480 447 478

Z

M521 478

C524 476 523 472 521 471

C517 468 513 475 517 478

C518 478 519 479 519 479

C519 479 520 478 521 478

Z

M413 476

C414 473 413 470 410 470

C406 470 405 473 406 476

C407 477 408 478 410 478

C411 478 412 477 413 476

Z

M435 477

C437 474 435 469 432 469

C431 469 428 472 428 474

C428 475 431 478 432 478

C433 478 434 477 435 477

Z

M424 476

C427 472 423 467 419 470

C416 472 417 477 421 477

C422 477 423 476 424 476

Z

M539 474

C542 472 541 468 538 467

C534 465 531 471 534 474

C536 475 537 475 539 474

Z

M287 470

C289 468 289 467 287 465

C285 463 283 463 281 466

C280 467 280 468 282 470

C283 472 285 473 287 470

Z

M299 468

C301 466 300 463 298 462

C295 460 291 464 292 468

C293 469 297 469 299 468

Z

M321 467

C324 465 323 464 321 462

C320 460 319 460 317 461

C314 462 314 464 316 467

C317 469 319 470 321 467

Z

M528 468

C529 467 529 465 529 464

C529 462 528 461 525 461

C523 461 522 461 521 463

C520 468 525 471 528 468

Z

M234 462

C234 455 232 450 230 450

C228 450 228 453 229 459

C231 469 234 471 234 462

Z

M311 465

C311 461 308 459 305 461

C301 463 303 468 308 468

C310 468 311 467 311 465

Z

M129 466

C132 462 128 457 124 460

C121 462 122 467 126 467

C127 467 128 466 129 466

Z

M387 464

C388 462 386 462 378 461

C370 461 367 462 370 465

C373 467 386 467 387 464

Z

M543 454

C544 449 547 443 549 437

C553 428 554 426 552 426

C551 426 548 430 546 434

C543 439 538 445 534 449

C531 453 528 457 528 457

C528 458 531 460 534 462

C542 465 541 465 543 454

Z

M574 463

C577 462 577 457 574 456

C570 454 565 460 570 463

C572 464 572 464 574 463

Z

M118 461

C119 461 119 459 119 457

C118 454 115 453 112 455

C108 458 113 464 118 461

Z

M586 460

C587 460 588 458 588 458

C588 456 585 453 584 453

C580 453 579 459 582 461

C584 462 585 462 586 460

Z

M138 460

C141 458 141 454 138 453

C136 452 135 452 134 453

C131 455 132 459 134 460

C136 461 136 461 138 460

Z

M304 453

C304 451 295 442 293 442

C288 442 291 448 298 453

C302 456 304 456 304 453

Z

M430 455

C430 454 428 450 426 445

C424 440 422 433 421 430

C420 422 418 417 417 417

C416 417 413 419 410 420

L404 424

L411 431

C414 435 420 442 422 447

C425 452 428 456 429 456

C429 456 430 455 430 455

Z

M72 453

C72 453 69 450 65 447

C58 442 56 440 48 430

C45 428 43 426 43 426

C42 426 41 427 39 429

C38 431 37 434 36 435

L34 438

L37 439

C39 440 43 442 46 442

C49 443 56 446 61 449

C69 455 71 455 72 453

Z

M129 451

C129 449 129 448 127 447

C124 447 121 448 121 451

C121 453 123 455 126 455

C128 455 129 454 129 451

Z

M267 453

C267 452 263 448 259 443

C254 438 249 432 248 430

C246 427 244 424 243 423

L240 421

L236 426

C230 433 230 433 240 437

C245 440 253 444 257 448

C265 454 266 455 267 453

Z

M568 452

C570 449 567 445 563 447

C561 447 560 451 561 453

C563 455 567 454 568 452

Z

M309 443

C309 436 309 435 306 429

C304 425 301 420 300 419

L297 416

L292 421

C286 428 286 428 295 432

C301 436 303 437 299 437

C298 437 296 437 295 438

C294 439 294 439 296 440

C297 441 300 444 303 447

C306 450 308 452 309 451

C309 450 309 447 309 443

Z

M365 451

C365 450 362 446 359 442

C356 439 352 432 350 428

C345 416 344 416 338 422

C332 428 332 427 342 433

C344 435 350 440 354 444

C362 452 365 454 365 451

Z

M477 451

C480 450 482 449 483 449

C484 448 478 435 476 435

C476 435 473 437 470 440

C467 443 464 445 464 445

C463 445 463 443 464 441

C464 436 464 436 460 439

C458 440 454 442 452 443

C449 444 447 445 447 446

C447 446 449 448 452 449

C456 452 458 452 464 452

C468 452 474 451 477 451

Z

M580 449

C580 445 577 443 574 445

C570 447 572 452 577 452

C579 452 580 451 580 449

Z

M118 448

C119 445 118 442 115 442

C111 442 110 445 111 448

C112 449 113 450 115 450

C116 450 117 449 118 448

Z

M137 448

C140 447 140 442 137 441

C133 439 128 445 133 448

C135 449 135 449 137 448

Z

M493 447

C496 446 496 441 493 440

C489 438 484 444 489 447

C491 448 491 448 493 447

Z

M83 443

C83 439 80 437 77 439

C73 441 75 446 80 446

C82 446 83 445 83 443

Z

M505 443

C506 442 506 440 506 438

C505 436 504 436 502 436

C499 436 498 437 498 439

C498 443 502 446 505 443

Z

M128 440

C128 437 126 435 123 435

C118 437 120 443 125 443

C127 443 128 442 128 440

Z

M572 441

C573 440 573 439 572 437

C571 434 567 434 565 437

C563 441 569 445 572 441

Z

M94 440

C96 438 96 438 95 436

C94 433 92 433 90 433

C87 434 86 438 89 440

C91 442 92 442 94 440

Z

M211 441

C211 440 209 438 200 435

C195 433 189 430 187 428

C183 425 177 421 176 421

C175 421 171 434 172 435

C172 435 177 436 182 436

C189 437 194 438 199 439

C207 442 211 443 211 441

Z

M458 437

C464 433 460 430 453 434

C447 437 445 438 445 440

C446 442 446 442 450 441

C453 440 456 438 458 437

Z

M584 437

C584 435 584 434 582 433

C579 433 576 434 576 437

C576 439 578 441 581 441

C583 441 584 440 584 437

Z

M516 435

C516 432 515 431 513 431

C509 431 506 435 509 438

C510 439 512 439 513 439

C515 439 516 438 516 435

Z

M33 434

C33 432 32 429 29 429

C27 429 25 431 25 434

C25 438 32 439 33 434

Z

M77 434

C79 431 77 429 73 429

C71 429 70 429 70 431

C70 436 75 438 77 434

Z

M168 434

C169 433 169 431 168 430

C166 426 160 428 160 432

C160 436 166 438 168 434

Z

M488 434

C491 432 490 431 488 429

C484 425 479 430 483 434

C485 436 486 436 488 434

Z

M156 433

C157 432 157 430 157 429

C157 427 156 426 153 426

C151 426 150 426 149 428

C148 433 153 436 156 433

Z

M526 430

C526 426 523 424 520 426

C516 428 518 433 523 433

C525 433 526 432 526 430

Z

M22 430

C23 429 23 428 22 426

C21 424 18 423 16 426

C14 427 14 428 15 430

C16 432 20 433 22 430

Z

M93 428

C93 426 92 423 90 423

C86 421 82 426 86 429

C88 431 91 430 93 428

Z

M230 429

C232 426 229 422 225 424

C223 424 222 428 223 430

C225 432 229 431 230 429

Z

M146 427

C146 423 143 421 140 423

C136 425 138 430 143 430

C145 430 146 429 146 427

Z

M499 427

C500 425 500 425 498 423

C496 421 496 421 494 422

C491 424 490 426 493 428

C495 431 497 430 499 427

Z

M377 428

C380 425 377 419 373 421

C370 422 369 426 372 428

C374 429 375 429 377 428

Z

M40 422

C40 417 33 417 32 422

C32 425 34 427 37 426

C39 426 40 424 40 422

Z

M536 421

C540 418 547 414 552 411

C557 408 562 406 562 405

C564 403 559 403 551 406

C546 408 539 410 534 411

C526 412 523 413 523 414

C523 416 528 427 529 427

C530 427 533 424 536 421

Z

M12 425

C15 421 11 416 7 419

C4 421 5 426 9 426

C10 426 11 425 12 425

Z

M134 425

C137 424 137 419 134 418

C130 416 125 422 130 425

C132 426 132 426 134 425

Z

M366 424

C367 423 367 422 366 420

C365 417 361 417 359 420

C357 424 363 428 366 424

Z

M74 422

C75 418 70 415 67 418

C66 419 66 423 67 424

C67 425 69 425 70 425

C72 425 73 424 74 422

Z

M220 423

C222 420 220 418 216 418

C214 418 213 418 213 420

C213 425 218 427 220 423

Z

M332 424

C335 421 332 416 328 417

C326 418 325 419 325 421

C325 425 329 426 332 424

Z

M509 423

C511 420 509 418 505 418

C503 418 502 418 502 420

C502 425 507 427 509 423

Z

M171 422

C173 419 173 417 170 416

C168 415 167 415 166 417

C164 419 163 420 166 422

C168 425 170 424 171 422

Z

M284 423

C286 421 285 418 283 417

C280 415 276 419 277 423

C278 424 282 424 284 423

Z

M442 421

C442 418 438 409 436 408

C434 406 433 409 434 413

C436 422 442 428 442 421

Z

M448 421

C449 420 451 417 452 415

C454 410 454 408 454 400

C454 395 453 390 452 388

L451 386

L444 389

C440 390 437 392 437 392

C437 393 439 396 442 400

L447 406

L443 406

C438 405 438 405 441 410

C442 411 443 415 444 418

C445 423 446 424 448 421

Z

M239 418

C240 414 235 411 232 414

C231 415 231 419 232 420

C232 421 234 421 235 421

C237 421 238 420 239 418

Z

M405 420

C408 416 404 411 400 414

C397 416 398 421 402 421

C403 421 404 420 405 420

Z

M520 419

C521 418 521 417 520 415

C519 413 516 412 514 415

C512 416 512 417 513 419

C514 421 518 422 520 419

Z

M87 418

C89 416 89 415 87 413

C85 411 85 411 83 412

C80 414 79 416 82 418

C84 420 85 420 87 418

Z

M126 412

L128 405

L126 405

C124 404 121 404 117 404

C114 404 111 404 111 403

C111 403 112 402 114 401

C117 398 117 397 112 397

C108 396 104 395 99 392

C97 391 98 398 100 402

C101 404 104 408 107 410

C112 415 122 420 123 419

C123 419 125 415 126 412

Z

M385 419

C386 419 386 417 386 415

C385 412 382 411 379 413

C375 416 380 422 385 419

Z

M31 416

C32 412 27 409 24 412

C22 415 24 419 28 419

C29 419 30 418 31 416

Z

M161 417

C163 414 161 412 157 412

C155 412 154 412 154 414

C154 419 159 421 161 417

Z

M211 417

C213 414 211 409 208 409

C207 409 204 412 204 414

C204 415 207 418 208 418

C209 418 210 417 211 417

Z

M324 414

C324 411 322 409 319 409

C317 410 316 413 317 415

C318 419 324 418 324 414

Z

M275 416

C277 414 276 411 274 410

C271 408 267 412 268 416

C269 417 273 417 275 416

Z

M374 416

C377 413 374 408 370 409

C368 410 367 411 367 413

C367 414 367 416 368 416

C369 417 373 417 374 416

Z

M149 415

C153 412 149 405 145 408

C143 409 143 412 145 414

C146 416 147 416 149 415

Z

M342 414

C343 413 343 412 342 410

C341 408 338 407 336 410

C334 411 334 412 335 414

C336 416 340 417 342 414

Z

M293 414

C294 413 294 411 294 409

C293 407 292 407 290 407

C287 407 286 408 286 410

C286 414 290 417 293 414

Z

M362 414

C365 410 361 405 357 407

C353 409 355 415 359 415

C360 415 361 414 362 414

Z

M417 413

C418 411 418 410 417 409

C415 406 411 407 410 409

C409 411 409 412 411 413

C413 416 416 415 417 413

Z

M71 411

C72 407 67 404 64 407

C63 408 63 412 64 413

C64 414 66 414 67 414

C69 414 70 413 71 411

Z

M21 411

C23 407 17 403 14 407

C13 408 13 409 14 411

C15 414 19 414 21 411

Z

M139 411

C142 407 137 403 133 406

C132 408 132 412 133 412

C135 413 138 413 139 411

Z

M230 412

C233 408 229 403 225 406

C222 408 223 413 227 413

C228 413 229 412 230 412

Z

M400 409

C401 407 399 404 397 403

C396 403 394 403 393 405

C391 407 391 408 393 410

C395 412 395 412 397 411

C398 410 399 410 400 409

Z

M81 409

C84 408 84 403 81 402

C77 400 72 406 77 409

C79 410 79 410 81 409

Z

M204 407

C205 404 203 401 200 401

C197 401 195 405 197 407

C199 410 203 409 204 407

Z

M267 408

C268 406 268 402 265 402

C263 401 260 402 260 404

C258 408 264 411 267 408

Z

M316 407

C318 404 316 402 313 401

C309 401 307 404 309 407

C310 410 315 409 316 407

Z

M381 407

C382 407 383 405 383 405

C383 403 380 400 379 400

C375 400 374 406 377 408

C379 409 380 409 381 407

Z

M10 407

C11 406 11 404 11 403

C10 399 3 400 3 404

C3 408 8 409 10 407

Z

M335 405

C337 402 335 400 331 400

C329 400 328 400 328 402

C328 407 333 409 335 405

Z

M221 405

C223 402 221 397 218 397

C217 397 214 400 214 402

C214 403 217 406 218 406

C219 406 220 405 221 405

Z

M286 404

C287 402 287 401 286 400

C283 396 277 400 279 404

C281 407 285 407 286 404

Z

M370 405

C371 404 371 402 371 401

C370 397 363 398 363 402

C363 406 368 407 370 405

Z

M71 401

C79 398 79 398 72 390

C68 386 60 369 60 366

C60 366 59 365 59 364

C56 362 56 366 59 375

C60 380 62 388 62 394

C63 399 63 404 63 404

C63 404 65 404 71 401

Z

M413 402

C415 399 413 396 409 396

C406 396 404 400 406 402

C408 405 412 404 413 402

Z

M258 400

C261 398 260 392 256 392

C255 392 252 395 252 397

C252 398 255 401 256 401

C256 401 257 401 258 400

Z

M394 399

C395 396 392 392 389 393

C387 394 385 398 387 400

C389 402 393 401 394 399

Z

M198 395

C200 392 202 390 202 389

C202 387 198 385 191 382

L187 381

L190 380

C195 378 195 377 191 375

C188 373 185 370 183 368

C181 366 180 365 179 365

C179 366 179 369 179 373

C179 378 179 381 181 385

C184 390 191 400 193 400

C193 400 195 398 198 395

Z

M309 399

C312 395 308 390 304 392

C300 394 302 400 306 400

C307 400 308 399 309 399

Z

M212 398

C214 396 213 393 211 392

C208 390 204 394 205 398

C206 399 210 399 212 398

Z

M326 398

C329 396 328 390 324 390

C323 390 320 393 320 395

C320 396 323 399 324 399

C324 399 325 399 326 398

Z

M469 388

C470 382 471 375 472 372

C473 368 474 364 474 362

L475 359

L467 359

C460 359 460 359 460 361

C460 363 461 366 462 370

C463 374 464 379 465 386

C465 398 466 399 467 399

C468 398 469 395 469 388

Z

M278 396

C279 395 279 393 278 392

C276 388 270 390 270 394

C270 398 276 400 278 396

Z

M117 393

C117 391 109 387 104 387

C101 387 100 387 100 388

C100 390 101 391 104 392

C112 395 116 396 117 393

Z

M408 391

C408 387 405 385 402 387

C398 389 400 394 405 394

C407 394 408 393 408 391

Z

M256 387

L261 381

L258 379

C257 378 253 376 251 375

C248 374 242 370 238 366

C233 361 229 358 228 358

C226 358 227 361 234 369

C238 373 242 379 244 382

C247 388 250 392 251 392

C251 392 254 390 256 387

Z

M269 389

C270 388 270 386 269 385

C267 381 261 383 261 387

C261 391 267 393 269 389

Z

M319 389

C321 386 319 384 315 384

C313 384 312 384 312 386

C312 391 317 393 319 389

Z

M389 390

C392 387 389 381 385 383

C382 384 381 388 384 390

C386 391 387 391 389 390

Z

M310 379

C310 378 306 376 303 374

L296 370

L299 369

C301 369 303 368 304 368

C304 368 302 365 299 362

C296 359 293 356 292 355

C291 353 291 353 290 355

C289 356 289 360 289 365

C289 370 289 373 292 378

C293 382 296 386 297 387

L299 390

L305 385

C307 383 310 380 310 379

Z

M27 378

C27 372 28 365 28 362

C29 359 30 355 30 352

L31 348

L24 348

C16 348 15 349 17 355

C18 358 20 361 20 364

C21 366 22 372 23 377

C23 383 24 387 25 388

C26 391 27 387 27 378

Z

M499 388

C507 385 513 377 517 366

L519 361

L512 360

C508 359 504 358 504 358

C503 358 503 361 503 367

C504 371 504 375 503 375

C503 375 502 374 501 373

C498 369 497 369 497 374

C497 378 496 381 494 387

C493 389 495 390 499 388

Z

M438 386

C441 382 437 377 433 380

C430 382 431 387 435 387

C436 387 437 386 438 386

Z

M492 383

C494 379 495 370 493 370

C493 369 491 370 491 371

C489 374 487 385 488 386

C489 388 491 387 492 383

Z

M166 385

C166 384 161 381 156 379

C151 376 145 371 142 369

C139 366 135 364 134 363

C132 362 132 362 129 369

C127 372 126 376 126 376

C127 377 135 378 139 378

C141 378 147 380 152 382

C162 386 166 387 166 385

Z

M347 373

C348 367 348 360 349 357

C350 355 351 352 351 349

L352 345

L345 345

C336 345 336 345 339 355

C341 360 342 365 343 372

C343 384 344 385 345 385

C346 384 347 381 347 373

Z

M400 383

C401 383 402 381 402 381

C402 379 399 376 398 376

C396 376 394 378 394 380

C394 385 398 386 400 383

Z

M584 383

C585 380 571 372 569 374

C567 375 571 379 577 383

C582 385 583 385 584 383

Z

M451 379

C451 376 449 374 447 374

C444 374 443 377 443 380

C444 382 445 382 447 382

C450 382 451 381 451 379

Z

M388 376

C391 374 394 372 394 371

C394 371 391 368 388 365

L383 359

L387 359

L392 359

L390 356

C388 354 386 351 385 348

C384 345 382 342 382 342

C381 342 377 350 376 355

C375 363 379 380 382 379

C382 379 385 377 388 376

Z

M433 375

C434 373 434 372 433 371

C431 368 427 369 426 371

C425 373 425 374 427 375

C429 378 432 377 433 375

Z

M123 375

C124 375 124 373 124 371

C123 368 120 367 117 369

C113 372 118 378 123 375

Z

M198 373

C199 371 186 360 184 361

C182 363 183 365 186 368

C193 374 196 375 198 373

Z

M112 372

C114 369 112 364 109 364

C108 364 105 367 105 369

C105 370 108 373 109 373

C110 373 111 372 112 372

Z

M448 368

C448 364 445 362 442 364

C438 366 440 371 445 371

C447 371 448 370 448 368

Z

M102 367

C105 364 102 359 98 360

C93 361 95 368 99 368

C100 368 101 367 102 367

Z

M552 365

C553 363 553 362 551 361

C549 358 546 359 545 361

C544 363 544 364 545 365

C547 368 551 367 552 365

Z

M429 364

C430 363 430 362 429 360

C428 357 424 357 422 360

C420 364 426 368 429 364

Z

M564 362

C564 358 561 356 558 358

C554 360 556 365 561 365

C563 365 564 364 564 362

Z

M129 362

C130 359 129 356 126 356

C122 356 121 359 122 362

C123 363 124 364 126 364

C127 364 128 363 129 362

Z

M308 363

C308 362 306 359 303 355

C299 351 297 350 296 350

C294 351 294 351 295 354

C299 361 308 367 308 363

Z

M93 359

C94 355 89 352 86 355

C85 356 85 360 86 361

C86 362 88 362 89 362

C91 362 92 361 93 359

Z

M442 360

C445 359 445 354 442 353

C438 351 433 357 438 360

C440 361 440 361 442 360

Z

M119 356

C120 355 120 354 119 352

C118 350 115 349 113 352

C111 353 111 354 112 356

C113 358 117 359 119 356

Z

M544 356

C546 353 544 351 540 351

C538 351 537 351 537 353

C537 354 537 356 537 357

C538 359 543 358 544 356

Z

M396 354

C396 351 392 343 390 341

C388 340 388 340 387 341

C385 342 388 350 392 354

C394 357 396 357 396 354

Z

M465 354

C465 352 464 349 462 349

C458 347 454 352 458 355

C460 357 463 356 465 354

Z

M170 352

C170 348 165 339 164 339

C160 340 165 356 169 356

C170 356 170 355 170 352

Z

M477 354

C478 353 478 352 477 350

C476 348 473 347 471 350

C469 351 469 352 470 354

C471 356 475 357 477 354

Z

M523 354

C524 352 524 351 522 350

C520 347 517 348 516 350

C515 352 515 353 516 354

C518 357 522 356 523 354

Z

M556 354

C557 352 557 351 556 350

C553 346 547 350 549 354

C551 357 555 357 556 354

Z

M84 348

C85 345 86 342 86 341

C85 341 82 340 78 340

C70 339 68 338 72 337

C73 336 74 335 75 335

C76 333 75 333 71 332

C68 331 64 329 62 327

L58 325

L58 329

C58 334 62 342 67 346

C71 351 78 355 80 355

C80 355 82 352 84 348

Z

M180 348

C182 344 182 342 182 335

C182 330 182 324 181 322

L180 318

L173 321

C170 322 166 323 166 324

C165 324 168 329 172 333

C174 335 175 337 175 337

C175 338 173 338 171 337

L167 337

L169 340

C170 342 171 346 172 348

C173 350 173 353 174 354

C174 356 178 353 180 348

Z

M426 353

C428 350 426 348 423 347

C419 347 417 350 419 353

C420 356 425 355 426 353

Z

M108 353

C110 351 109 347 107 346

C105 345 102 346 101 349

C100 353 105 356 108 353

Z

M151 352

C151 352 148 348 145 343

C142 339 137 332 135 329

C134 325 132 321 131 320

C129 318 129 318 124 323

C118 329 118 329 127 334

C131 336 137 341 141 346

C148 353 151 355 151 352

Z

M511 350

C511 349 510 347 509 347

C507 344 505 345 503 348

C502 350 502 350 504 352

C506 354 506 354 508 353

C510 352 511 351 511 350

Z

M568 350

C568 347 567 346 565 346

C561 346 558 350 561 353

C562 354 564 354 565 354

C567 354 568 353 568 350

Z

M439 347

C439 345 438 342 435 342

C433 342 431 344 431 347

C431 351 438 352 439 347

Z

M98 347

C98 343 95 341 92 343

C88 345 90 350 95 350

C97 350 98 349 98 347

Z

M548 346

C549 345 549 343 549 341

C548 339 547 339 545 339

C542 339 541 340 541 342

C541 346 545 349 548 346

Z

M19 345

C20 344 20 342 20 341

C19 337 12 338 12 342

C12 346 17 347 19 345

Z

M527 342

C527 337 523 335 520 338

C518 340 520 345 522 345

C524 346 527 344 527 342

Z

M32 344

C33 343 33 341 33 340

C32 336 25 337 25 341

C25 345 30 346 32 344

Z

M426 342

C430 341 433 340 433 339

C433 338 430 334 427 330

C425 327 421 321 419 315

C416 309 414 304 413 304

C411 304 411 307 414 316

C416 321 417 328 417 332

C418 340 419 345 420 345

C420 345 423 344 426 342

Z

M462 344

C465 340 461 335 457 338

C454 340 455 345 459 345

C460 345 461 344 462 344

Z

M478 343

C480 340 478 338 474 338

C472 338 471 338 471 340

C471 345 476 347 478 343

Z

M560 343

C562 340 560 338 556 338

C554 338 553 338 553 340

C553 345 558 347 560 343

Z

M342 340

C343 338 341 335 339 334

C336 334 334 336 334 339

C334 343 339 344 342 340

Z

M249 341

C250 340 250 338 250 337

C250 335 249 335 246 335

C243 335 242 335 242 337

C242 340 244 342 246 342

C247 342 248 341 249 341

Z

M354 340

C356 337 354 335 350 335

C348 335 347 335 347 337

C347 342 352 344 354 340

Z

M511 341

C514 338 511 333 507 334

C502 335 504 342 508 342

C509 342 510 341 511 341

Z

M236 340

C237 339 237 334 235 327

C235 324 233 325 225 329

C219 332 218 332 220 327

C222 324 221 323 217 325

C215 326 211 326 208 326

C205 326 202 326 202 327

C202 328 209 335 212 337

C218 340 233 342 236 340

Z

M261 339

C263 336 260 332 256 334

C254 334 253 338 254 340

C256 342 260 341 261 339

Z

M271 338

C272 338 273 336 273 336

C273 334 270 331 269 331

C267 331 265 333 265 335

C265 340 269 341 271 338

Z

M377 329

C379 324 383 317 385 315

C389 309 391 306 391 304

C391 303 378 299 377 299

C377 300 376 305 376 310

C375 317 374 323 373 329

C370 338 369 339 372 339

C373 339 375 335 377 329

Z

M282 336

C285 334 284 330 281 329

C277 327 274 333 277 336

C279 337 280 337 282 336

Z

M16 334

C19 333 19 328 16 327

C12 325 7 331 12 334

C14 335 14 335 16 334

Z

M34 330

C34 328 31 325 29 325

C28 325 27 326 26 328

C25 330 25 330 27 332

C29 334 29 334 31 333

C33 332 34 331 34 330

Z

M462 333

C465 329 461 324 457 326

C453 328 455 334 459 334

C460 334 461 333 462 333

Z

M479 331

C480 329 478 326 476 325

C475 325 473 325 472 327

C470 329 470 330 472 332

C474 334 474 334 476 333

C477 332 478 332 479 331

Z

M529 333

C530 331 530 327 527 327

C525 326 522 327 522 329

C520 333 526 336 529 333

Z

M297 329

C301 327 308 325 314 324

C330 321 330 317 313 319

C307 319 301 319 299 319

C297 318 293 318 290 318

L284 318

L285 325

C286 333 287 333 297 329

Z

M339 330

C342 326 338 321 334 324

C331 326 332 331 336 331

C337 331 338 330 339 330

Z

M354 329

C356 327 356 326 354 324

C352 321 350 322 348 325

C347 327 347 327 349 329

C351 331 352 331 354 329

Z

M513 330

C516 328 514 323 511 323

C508 323 506 325 506 327

C506 330 510 332 513 330

Z

M77 328

C77 325 63 319 61 321

C60 323 62 326 69 328

C75 330 77 330 77 328

Z

M247 328

C248 327 248 325 248 324

C248 322 247 322 244 322

C241 322 240 322 240 324

C240 327 242 329 244 329

C245 329 246 328 247 328

Z

M563 324

C563 319 559 311 558 311

C555 312 557 324 560 328

C562 330 564 328 563 324

Z

M571 326

C576 320 577 315 577 304

C577 298 577 293 577 293

C576 291 563 296 562 297

C562 298 564 301 566 305

C568 308 570 311 570 311

C570 312 568 311 566 310

C564 310 563 309 562 309

C562 310 563 312 564 315

C565 318 566 322 566 324

C567 329 568 329 571 326

Z

M118 324

C120 321 118 318 114 318

C111 318 109 322 111 324

C113 327 117 326 118 324

Z

M195 315

C196 310 197 302 199 298

C202 286 202 286 194 286

C185 286 185 286 188 295

C190 299 190 304 191 312

C191 325 191 326 193 326

C194 325 195 322 195 315

Z

M258 325

C259 324 259 322 259 321

C258 317 251 318 251 322

C251 326 256 327 258 325

Z

M217 322

C220 321 221 319 219 318

C217 317 205 319 203 320

C202 321 202 322 203 323

C205 324 212 324 217 322

Z

M270 322

C271 320 270 317 267 316

C263 315 260 320 263 323

C265 325 269 324 270 322

Z

M280 323

C283 321 282 317 279 316

C275 314 272 320 275 323

C277 324 278 324 280 323

Z

M17 320

C17 316 14 314 11 316

C7 318 9 323 14 323

C16 323 17 322 17 320

Z

M530 321

C532 318 530 316 526 316

C524 316 523 316 523 318

C523 323 528 325 530 321

Z

M32 320

C34 317 32 315 28 315

C26 315 25 315 25 317

C25 318 25 320 25 321

C26 323 31 322 32 320

Z

M464 319

C464 316 462 314 460 314

C457 314 456 317 456 320

C457 322 458 322 460 322

C463 322 464 321 464 319

Z

M477 318

C477 316 477 315 475 314

C472 314 469 315 469 318

C469 320 471 322 474 322

C476 322 477 321 477 318

Z

M338 318

C339 318 340 316 340 316

C340 314 337 311 336 311

C334 311 332 313 332 315

C332 320 336 321 338 318

Z

M517 319

C520 315 516 310 512 313

C509 315 510 320 514 320

C515 320 516 319 517 319

Z

M108 318

C111 317 111 312 108 311

C104 309 99 315 104 318

C106 319 106 319 108 318

Z

M167 317

C169 313 163 309 160 313

C159 314 159 315 160 317

C161 320 165 320 167 317

Z

M355 315

C355 312 354 311 352 311

C348 311 345 315 348 318

C349 319 351 319 352 319

C354 319 355 318 355 315

Z

M128 314

C128 311 126 309 124 309

C121 309 120 312 120 315

C121 317 122 317 124 317

C127 317 128 316 128 314

Z

M179 312

C180 311 180 310 179 308

C178 305 173 305 172 309

C170 313 176 316 179 312

Z

M16 310

C19 308 18 304 13 304

C11 304 9 306 9 308

C9 309 12 312 14 312

C14 312 16 311 16 310

Z

M529 302

C529 296 530 289 531 283

C532 277 532 273 532 272

C531 270 529 273 527 282

C525 286 522 294 519 299

C517 303 515 308 515 308

C516 310 524 312 528 312

C529 312 529 311 529 302

Z

M30 309

C32 305 30 303 26 303

C23 303 22 306 24 309

C26 312 29 312 30 309

Z

M59 308

C61 305 59 303 55 303

C53 303 52 303 52 305

C52 310 57 312 59 308

Z

M102 306

C102 304 102 303 100 302

C97 302 94 303 94 306

C94 308 96 310 99 310

C101 310 102 309 102 306

Z

M161 308

C162 307 162 305 162 304

C161 300 154 301 154 305

C154 309 159 310 161 308

Z

M474 307

C474 306 473 302 472 299

C469 292 469 291 473 294

C475 295 476 296 476 296

C476 296 477 292 477 286

L477 276

L474 278

C469 280 463 287 461 295

C460 299 459 304 459 306

L459 309

L467 309

C473 309 474 309 474 307

Z

M121 306

C122 303 121 300 118 300

C116 300 115 301 114 302

C113 305 114 308 118 308

C119 308 120 307 121 306

Z

M340 306

C341 305 341 304 340 302

C339 299 335 299 333 302

C331 306 337 310 340 306

Z

M352 306

C355 304 354 300 349 300

C346 300 345 303 347 306

C348 308 350 309 352 306

Z

M47 304

C49 303 49 301 48 299

C45 297 40 298 40 302

C40 303 43 306 45 306

C45 306 47 305 47 304

Z

M176 302

C179 299 176 294 172 295

C170 296 169 297 169 299

C169 300 169 302 170 302

C171 303 175 303 176 302

Z

M68 301

C70 299 69 296 67 295

C64 293 60 297 61 301

C62 302 66 302 68 301

Z

M305 298

C305 297 304 292 303 287

C303 282 302 276 303 272

C303 268 303 264 303 263

L302 260

L295 262

C292 263 288 264 288 265

C288 266 290 269 292 273

C295 277 298 284 299 290

C301 295 302 300 303 301

C303 303 305 301 305 298

Z

M95 299

C96 297 96 296 95 295

C93 292 89 293 88 295

C87 297 87 298 89 299

C91 302 94 301 95 299

Z

M396 300

C399 296 395 291 391 293

C387 295 389 301 393 301

C394 301 395 300 396 300

Z

M112 299

C115 297 114 293 111 292

C107 290 104 296 107 299

C109 300 110 300 112 299

Z

M27 297

C27 297 26 294 25 291

C21 280 21 280 24 282

C28 285 30 285 29 281

C28 280 28 276 28 272

C28 268 28 265 27 265

C26 265 24 267 21 270

C15 275 13 281 12 292

L12 299

L19 298

C23 298 27 298 27 297

Z

M57 296

C59 293 57 291 53 291

C51 291 50 291 50 293

C50 298 55 300 57 296

Z

M158 295

C158 291 155 289 152 291

C148 293 150 298 155 298

C157 298 158 297 158 295

Z

M270 296

C271 295 271 293 271 292

C270 288 263 289 263 293

C263 297 268 298 270 296

Z

M383 295

C386 293 385 292 383 289

C381 287 379 288 377 291

C376 292 376 293 377 295

C380 297 381 298 383 295

Z

M259 293

C260 290 259 288 256 287

C252 286 249 291 252 294

C254 296 258 295 259 293

Z

M350 293

C350 291 349 288 348 284

C347 281 346 279 346 278

C347 278 348 279 350 280

C353 283 354 282 353 277

C352 275 352 271 352 268

C353 265 353 262 352 262

C350 262 343 268 341 271

C339 275 335 289 335 293

C335 295 335 295 343 295

C350 295 350 295 350 293

Z

M484 291

C485 287 484 278 483 277

C480 276 478 284 480 292

C480 296 483 296 484 291

Z

M46 292

C48 288 42 284 39 288

C38 289 38 290 39 292

C40 295 44 295 46 292

Z

M171 291

C172 291 173 289 173 289

C173 287 170 284 169 284

C167 284 165 286 165 289

C165 293 169 294 171 291

Z

M105 288

C105 285 104 284 102 284

C98 284 95 288 98 291

C99 292 101 292 102 292

C104 292 105 291 105 288

Z

M67 286

C67 285 66 283 65 283

C61 280 57 287 61 290

C63 291 67 289 67 286

Z

M93 284

L96 280

L92 277

C90 276 87 274 85 273

C81 272 81 270 84 270

C90 270 90 269 86 265

C83 263 80 259 79 257

L77 254

L75 257

C72 264 74 276 81 286

L84 291

L87 289

C88 288 91 286 93 284

Z

M564 287

C564 285 564 284 562 283

C559 283 556 284 556 287

C556 289 558 291 561 291

C563 291 564 290 564 287

Z

M401 289

C403 287 402 284 400 283

C397 281 393 285 394 289

C395 290 399 290 401 289

Z

M277 286

C280 284 279 283 277 280

C275 278 273 279 271 282

C270 283 270 284 271 286

C274 288 275 289 277 286

Z

M433 287

C439 286 451 280 451 279

C451 277 443 267 442 267

C441 267 438 271 434 276

L432 280

L431 277

C431 272 430 271 426 275

C424 277 421 280 418 281

L414 283

L417 285

C422 288 427 288 433 287

Z

M576 287

C577 286 577 284 577 282

C576 280 575 280 573 280

C570 280 569 281 569 283

C569 287 573 290 576 287

Z

M155 283

C155 280 154 279 152 279

C148 279 145 283 148 286

C149 287 151 287 152 287

C154 287 155 286 155 283

Z

M55 285

C56 283 56 279 53 279

C51 278 48 279 48 281

C46 285 52 288 55 285

Z

M266 285

C267 284 267 282 267 280

C266 278 265 278 263 278

C260 278 259 279 259 281

C259 285 263 288 266 285

Z

M387 282

C387 276 380 275 379 280

C379 284 380 285 383 285

C386 285 387 284 387 282

Z

M36 275

C35 269 35 267 34 266

C32 264 31 267 31 273

C31 281 32 284 35 283

C36 283 36 281 36 275

Z

M254 283

C257 279 253 274 249 277

C246 279 247 284 251 284

C252 284 253 283 254 283

Z

M190 282

C191 281 191 279 191 278

C190 274 183 275 183 279

C183 283 188 284 190 282

Z

M203 282

C204 281 204 279 204 278

C203 274 196 275 196 279

C196 283 201 284 203 282

Z

M167 280

C169 277 166 273 162 275

C160 275 159 279 160 281

C162 283 166 282 167 280

Z

M360 276

C360 274 360 270 360 268

C360 264 359 264 358 264

C356 264 355 264 355 270

C355 280 359 286 360 276

Z

M559 280

C562 276 558 271 554 273

C552 274 551 279 554 280

C556 281 557 281 559 280

Z

M404 278

C406 276 406 276 405 274

C404 271 402 271 400 271

C397 272 396 276 399 278

C401 280 402 280 404 278

Z

M418 278

C422 276 427 271 427 269

C427 267 424 268 419 271

C410 277 409 283 418 278

Z

M237 278

C244 274 250 262 252 252

L252 247

L245 247

C237 247 237 247 237 249

C237 251 238 254 238 257

C241 264 240 265 237 262

C236 261 234 260 234 260

C234 260 233 263 233 267

C233 270 233 275 233 276

C232 279 233 280 237 278

Z

M230 275

C232 268 230 259 227 260

C226 261 225 269 226 274

C226 279 229 279 230 275

Z

M162 271

C162 271 161 269 160 267

C158 265 155 261 154 259

C152 256 149 251 147 246

C145 242 143 238 142 237

C140 234 140 239 142 247

C144 252 145 258 146 265

C146 270 147 275 147 276

C148 277 160 273 162 271

Z

M272 276

C274 275 275 271 272 269

C271 268 270 268 268 269

C266 270 265 274 268 276

C270 277 270 277 272 276

Z

M460 276

C463 275 463 270 460 269

C456 267 451 273 456 276

C458 277 458 277 460 276

Z

M573 276

C575 275 576 271 573 269

C572 268 571 268 569 269

C567 270 566 274 569 276

C571 277 571 277 573 276

Z

M261 274

C264 272 262 267 259 267

C254 267 253 271 256 273

C257 275 259 275 261 274

Z

M389 273

C392 271 391 267 388 266

C384 265 381 269 384 273

C385 276 387 276 389 273

Z

M510 271

C510 266 506 264 503 267

C501 269 503 274 505 274

C507 275 510 273 510 271

Z

M121 272

C125 269 121 262 117 265

C115 266 114 270 117 272

C118 272 119 273 119 273

C119 273 120 272 121 272

Z

M520 272

C524 269 520 262 516 265

C514 266 513 270 516 272

C517 272 518 273 518 273

C518 273 519 272 520 272

Z

M188 270

C190 268 190 265 188 264

C184 261 180 268 184 271

C186 272 187 272 188 270

Z

M206 269

C206 267 205 264 203 264

C199 262 195 267 199 270

C201 272 204 271 206 269

Z

M470 270

C473 269 473 264 470 263

C466 261 462 266 465 270

C467 271 468 271 470 270

Z

M556 269

C559 265 555 260 551 262

C549 263 548 268 551 269

C553 270 554 270 556 269

Z

M407 267

C409 265 408 262 406 261

C403 259 399 263 400 267

C401 268 405 268 407 267

Z

M112 265

C114 262 113 260 111 259

C107 257 105 259 105 263

C105 266 110 268 112 265

Z

M132 265

C134 263 134 263 133 261

C132 259 130 258 130 258

C128 258 125 261 125 263

C125 264 128 267 129 267

C130 267 131 266 132 265

Z

M92 260

C89 256 83 251 82 251

C79 252 80 255 85 261

C90 265 91 266 92 265

C93 264 93 263 92 260

Z

M452 265

C453 265 454 264 454 262

C454 260 453 259 451 258

C447 257 444 262 447 265

C449 266 450 266 452 265

Z

M570 265

C572 264 573 260 570 258

C569 257 568 257 566 258

C564 259 563 263 566 265

C568 266 568 266 570 265

Z

M502 263

C503 262 503 261 502 259

C501 256 497 256 495 259

C493 263 499 267 502 263

Z

M586 261

C589 255 589 248 587 248

C585 248 582 253 582 259

C580 266 583 267 586 261

Z

M395 262

C397 259 395 256 391 256

C388 256 386 260 388 262

C390 265 394 264 395 262

Z

M480 263

C481 262 481 260 481 259

C481 257 480 257 477 257

C474 257 473 257 473 259

C473 262 475 264 477 264

C478 264 479 263 480 263

Z

M514 261

C515 260 515 258 514 257

C512 253 506 255 506 259

C506 263 512 265 514 261

Z

M121 260

C123 259 124 255 121 253

C120 252 119 252 117 253

C115 254 114 257 117 259

C118 261 119 261 121 260

Z

M291 258

C291 255 289 253 287 253

C284 253 283 256 283 259

C284 261 285 261 287 261

C290 261 291 260 291 258

Z

M526 258

C526 254 523 252 520 254

C516 256 518 261 523 261

C525 261 526 260 526 258

Z

M189 258

C191 255 189 253 185 253

C183 253 182 253 182 255

C182 260 187 262 189 258

Z

M205 258

C206 255 205 252 202 252

C200 252 199 253 198 254

C197 257 198 260 202 260

C203 260 204 259 205 258

Z

M377 257

C379 253 373 249 370 253

C369 254 369 255 370 257

C371 260 375 260 377 257

Z

M303 256

C305 253 303 251 299 251

C297 251 296 251 296 253

C296 254 296 256 296 257

C297 259 302 258 303 256

Z

M462 256

C464 253 462 250 458 250

C455 250 453 254 455 256

C457 259 461 258 462 256

Z

M555 255

C555 251 552 249 549 251

C545 253 547 258 552 258

C554 258 555 257 555 255

Z

M366 253

C367 249 362 246 359 249

C358 250 358 254 359 255

C359 256 361 256 362 256

C364 256 365 255 366 253

Z

M408 254

C409 253 409 249 409 245

L409 239

L412 242

C415 246 415 246 417 239

C417 236 418 233 419 231

C420 229 421 227 421 226

C421 225 413 227 409 230

C403 233 391 250 394 252

C399 253 407 256 407 256

C407 256 408 255 408 254

Z

M488 255

C489 255 489 253 489 251

C488 248 485 247 482 249

C478 252 483 258 488 255

Z

M111 254

C114 252 114 248 111 247

C109 246 108 246 107 247

C104 249 105 253 107 254

C109 255 109 255 111 254

Z

M132 253

C135 251 134 249 132 248

C130 246 129 246 128 247

C125 249 125 251 127 253

C129 255 130 255 132 253

Z

M567 253

C569 250 567 248 563 248

C561 248 560 248 560 250

C560 255 565 257 567 253

Z

M506 252

C508 249 506 247 502 247

C500 247 499 247 499 249

C499 254 504 256 506 252

Z

M518 250

C519 247 518 244 515 244

C513 244 512 245 511 246

C510 249 511 252 515 252

C516 252 517 251 518 250

Z

M285 250

C287 249 288 245 285 243

C284 242 283 242 281 243

C279 244 278 248 281 250

C283 251 283 251 285 250

Z

M471 250

C472 248 472 244 469 244

C467 243 464 244 464 246

C462 250 468 253 471 250

Z

M385 249

C386 247 386 243 383 243

C381 242 378 243 378 245

C376 249 382 252 385 249

Z

M122 248

C124 245 122 240 119 240

C118 240 115 243 115 245

C115 246 118 249 119 249

C120 249 121 248 122 248

Z

M190 248

C193 244 189 239 185 241

C183 242 182 247 185 248

C187 249 188 249 190 248

Z

M203 248

C205 245 203 240 200 240

C199 240 196 243 196 245

C196 246 199 249 200 249

C201 249 202 248 203 248

Z

M320 246

C322 244 322 243 320 241

C318 239 318 239 316 240

C313 242 312 244 315 246

C317 248 318 248 320 246

Z

M332 246

C334 244 334 244 333 242

C331 239 329 238 327 241

C325 243 325 244 327 246

C329 248 330 248 332 246

Z

M372 247

C376 244 372 237 368 240

C366 241 365 245 368 247

C369 247 370 248 370 248

C370 248 371 247 372 247

Z

M498 241

C500 238 505 233 508 230

C520 221 520 220 519 219

C518 218 517 218 515 220

C505 226 496 231 495 231

C494 231 491 232 488 234

C484 235 483 236 483 238

C485 241 491 248 492 248

C493 248 495 245 498 241

Z

M563 244

C563 243 561 238 557 233

C556 231 553 224 551 219

C548 208 547 206 545 208

C545 208 545 212 546 218

C547 223 548 231 548 237

C548 242 548 247 549 247

C549 248 562 245 563 244

Z

M301 246

C304 243 301 237 297 239

C294 240 293 244 296 246

C298 247 299 247 301 246

Z

M424 241

C427 235 427 229 425 229

C423 228 420 233 419 239

C417 247 420 248 424 241

Z

M481 243

C483 240 479 236 476 237

C473 238 472 242 475 244

C477 246 480 246 481 243

Z

M361 243

C363 242 363 241 362 239

C361 237 357 236 355 239

C354 240 354 241 355 243

C356 245 359 246 361 243

Z

M77 243

C77 243 77 240 76 236

C75 231 74 229 73 229

C72 229 69 231 66 233

C62 234 59 236 59 236

C58 236 59 234 60 233

C61 231 61 229 61 228

C61 228 58 229 56 230

C53 231 49 232 47 232

C44 232 42 232 42 233

C42 235 49 241 53 242

C57 244 76 245 77 243

Z

M90 241

C90 237 87 235 84 237

C80 239 82 244 87 244

C89 244 90 243 90 241

Z

M100 241

C103 239 102 237 99 235

C97 234 97 234 95 236

C93 238 93 239 95 241

C97 243 98 243 100 241

Z

M254 241

C257 239 256 237 253 235

C251 234 251 234 249 236

C247 238 246 239 249 241

C251 243 252 243 254 241

Z

M242 240

C243 239 243 237 242 236

C240 232 234 234 234 238

C234 242 240 244 242 240

Z

M112 238

C114 235 112 233 109 232

C105 232 103 235 105 238

C106 241 111 240 112 238

Z

M282 239

C284 238 285 234 282 232

C281 231 280 231 278 232

C276 233 275 236 278 238

C279 240 280 240 282 239

Z

M381 238

C382 237 382 235 382 234

C381 230 374 231 374 235

C374 239 379 240 381 238

Z

M313 237

C316 235 315 229 311 229

C310 229 307 232 307 234

C307 235 310 238 311 238

C311 238 312 238 313 237

Z

M327 233

C327 231 327 230 325 229

C322 229 319 230 319 233

C319 235 321 237 324 237

C326 237 327 236 327 233

Z

M338 236

C341 232 337 227 333 230

C330 232 331 237 335 237

C336 237 337 236 338 236

Z

M27 235

C30 232 27 226 23 228

C20 229 19 232 22 234

C23 236 25 236 27 235

Z

M123 234

C125 231 123 228 119 228

C116 228 114 232 116 234

C118 237 122 236 123 234

Z

M201 233

C201 232 200 228 199 225

C198 222 197 219 197 219

C198 219 199 220 201 221

L205 223

L205 213

C205 207 204 203 204 203

C201 203 193 211 191 216

C189 219 186 230 186 233

C186 236 186 236 194 236

L201 236

L201 233

Z

M298 234

C301 230 297 225 293 229

C291 231 290 232 293 234

C295 237 297 236 298 234

Z

M370 234

C371 231 370 228 367 228

C365 228 364 229 363 230

C362 233 363 236 367 236

C368 236 369 235 370 234

Z

M15 231

C18 228 15 223 11 224

C9 225 8 226 8 228

C8 229 8 231 9 231

C10 232 14 232 15 231

Z

M85 231

C87 230 88 226 85 224

C84 223 83 223 81 224

C79 225 78 229 81 231

C83 232 83 232 85 231

Z

M137 226

C140 224 147 222 153 220

C164 217 165 217 163 215

C162 214 160 214 153 216

C146 217 141 217 135 217

C124 216 123 216 124 220

C126 230 126 231 128 231

C130 230 134 228 137 226

Z

M240 229

C243 227 242 226 240 224

C236 220 231 225 235 229

C237 231 238 231 240 229

Z

M257 228

C257 224 254 222 251 224

C247 226 249 231 254 231

C256 231 257 230 257 228

Z

M55 227

C58 226 59 225 59 224

C58 222 53 222 47 224

C42 226 41 227 42 229

C42 230 49 230 55 227

Z

M356 229

C356 227 349 220 345 219

C342 217 340 219 343 222

C348 228 356 232 356 229

Z

M96 227

C99 226 99 221 96 220

C92 218 87 224 92 227

C94 228 94 228 96 227

Z

M282 226

C284 223 282 221 278 221

C276 221 275 221 275 223

C275 224 275 226 275 227

C276 229 281 228 282 226

Z

M320 226

C323 222 319 217 315 220

C312 222 313 227 317 227

C318 227 319 226 320 226

Z

M332 226

C333 225 333 223 333 221

C332 219 331 219 329 219

C326 219 325 220 325 222

C325 226 329 229 332 226

Z

M481 219

C485 215 490 209 494 206

C503 199 503 199 496 194

C489 189 489 189 486 200

C484 205 481 211 478 216

C475 221 472 226 472 226

C472 229 475 226 481 219

Z

M360 223

C361 218 360 212 357 206

C354 201 346 192 345 192

C344 192 337 201 336 203

C336 205 342 208 348 210

C352 210 352 212 348 212

C344 213 344 215 348 217

C351 219 354 221 355 223

C359 227 360 227 360 223

Z

M32 223

C34 220 32 218 29 217

C25 217 23 220 25 223

C26 226 31 225 32 223

Z

M108 224

C109 223 109 221 109 219

C108 217 107 217 105 217

C102 217 101 218 101 220

C101 224 105 227 108 224

Z

M294 223

C296 222 296 221 295 219

C294 217 290 216 288 219

C287 220 287 221 288 223

C289 225 292 226 294 223

Z

M119 222

C121 220 121 220 120 218

C118 215 116 214 114 217

C112 219 112 220 114 222

C116 224 117 224 119 222

Z

M443 222

C443 221 442 216 442 211

C440 205 440 200 441 192

L441 182

L437 182

C435 183 432 184 430 184

C425 185 425 186 431 195

C432 198 435 203 435 206

C436 209 438 214 439 218

C440 223 442 224 443 222

Z

M212 218

C212 215 212 205 211 204

C210 204 209 204 209 204

C207 205 207 207 207 213

C207 217 207 221 208 221

C209 223 211 222 212 218

Z

M17 219

C18 217 18 216 17 215

C15 212 11 213 10 215

C9 217 9 218 11 219

C13 222 16 221 17 219

Z

M257 218

C259 215 257 213 254 212

C250 212 248 217 251 219

C253 220 256 220 257 218

Z

M242 216

C242 213 240 211 238 211

C235 211 234 214 234 217

C235 219 236 219 238 219

C241 219 242 218 242 216

Z

M286 213

C288 212 290 211 290 211

C290 210 288 206 286 203

C284 200 282 197 282 196

C283 196 284 197 286 198

C291 199 291 199 288 192

C287 189 286 185 286 183

L286 179

L282 182

C280 184 278 187 277 190

C275 194 274 204 274 211

L275 215

L279 215

C281 214 284 214 286 213

Z

M35 212

C37 209 35 207 31 207

C29 207 28 207 28 209

C28 210 28 212 28 213

C29 215 34 214 35 212

Z

M20 208

C22 205 20 203 16 203

C14 203 13 203 13 205

C13 210 18 212 20 208

Z

M65 204

C65 199 63 192 61 191

C59 191 59 191 59 198

C60 205 61 209 63 209

C64 209 65 207 65 204

Z

M76 202

C80 197 81 193 82 182

L82 174

L77 174

C65 176 65 176 70 186

C73 192 73 193 68 191

C67 190 65 189 65 189

C65 190 66 192 67 196

C67 199 68 203 68 205

C68 206 68 208 68 208

C68 210 72 206 76 202

Z

M255 207

C258 205 257 202 255 201

C253 200 252 200 251 201

C248 203 249 207 251 208

C253 209 254 209 255 207

Z

M243 206

C245 203 243 201 239 201

C237 201 236 201 236 203

C236 208 241 210 243 206

Z

M36 201

C39 199 38 195 33 195

C31 195 29 197 29 199

C29 200 32 203 34 203

C34 203 36 202 36 201

Z

M382 200

C384 198 387 196 388 194

C390 191 395 177 395 174

C395 171 395 171 388 171

L380 171

L380 174

C380 175 381 179 382 181

C384 187 383 189 380 186

C378 185 377 184 377 184

C376 184 376 189 376 194

C375 204 376 205 382 200

Z

M332 201

C334 199 333 195 331 194

C329 193 326 194 325 197

C324 201 329 204 332 201

Z

M373 196

C374 191 373 185 371 185

C369 185 368 188 368 194

C368 200 369 202 371 202

C372 202 373 200 373 196

Z

M156 197

C156 195 155 192 153 192

C149 190 145 195 149 198

C151 200 154 199 156 197

Z

M165 199

C168 197 168 193 165 192

C163 191 162 191 161 192

C158 194 159 198 161 199

C163 200 163 200 165 199

Z

M25 196

C25 190 18 189 17 194

C17 198 18 199 21 199

C24 199 25 198 25 196

Z

M144 195

C144 191 141 189 138 191

C134 193 136 198 141 198

C143 198 144 197 144 195

Z

M178 194

C178 192 178 191 176 190

C173 190 170 191 170 194

C170 196 172 198 175 198

C177 198 178 197 178 194

Z

M254 195

C254 194 253 189 252 185

C250 179 250 175 250 168

C250 162 250 158 250 157

C248 156 247 159 246 168

C245 173 244 181 242 186

C240 191 239 195 239 196

C239 196 241 197 244 197

C246 197 250 198 251 198

C254 198 254 198 254 195

Z

M295 191

C295 185 293 179 290 179

C289 179 289 180 289 184

C290 195 296 202 295 191

Z

M466 194

C467 192 467 192 465 190

C463 188 463 188 461 189

C458 191 457 193 460 195

C462 198 464 197 466 194

Z

M508 195

C510 193 510 192 509 191

C507 188 505 188 503 190

C501 192 501 193 503 195

C505 198 507 197 508 195

Z

M322 195

C323 194 323 192 323 191

C322 187 315 188 315 192

C315 196 320 197 322 195

Z

M131 188

C131 179 131 179 121 182

C118 183 115 184 114 184

C114 183 115 182 116 181

C117 179 118 178 118 177

C118 177 114 177 109 177

C102 177 99 177 99 178

C99 179 105 186 108 188

C111 191 124 195 128 195

L131 195

L131 188

Z

M191 193

C195 192 201 191 209 190

C226 189 226 187 209 186

C204 185 197 184 194 183

C191 182 187 181 185 181

L181 180

L181 187

C181 195 181 195 183 195

C185 195 188 194 191 193

Z

M477 194

C479 192 478 188 476 187

C475 187 474 187 472 187

C468 189 470 195 474 195

C475 195 476 194 477 194

Z

M557 191

C557 189 554 186 553 186

C551 186 548 189 548 190

C548 191 549 192 550 193

C552 195 552 195 554 194

C556 193 557 192 557 191

Z

M37 183

C37 176 38 171 40 164

C42 152 42 152 40 152

C39 152 37 156 35 163

C33 169 30 175 29 176

C26 180 22 188 22 189

C23 189 33 192 35 192

C37 192 37 191 37 183

Z

M544 191

C547 187 543 182 539 185

C536 187 537 192 541 192

C542 192 543 191 544 191

Z

M341 188

C341 185 339 183 337 183

C334 183 333 186 333 189

C334 191 335 191 337 191

C340 191 341 190 341 188

Z

M313 188

C314 187 314 185 314 184

C313 180 306 181 306 185

C306 189 311 190 313 188

Z

M498 187

C500 184 498 182 495 181

C491 181 489 184 491 187

C492 190 497 189 498 187

Z

M457 186

C458 186 459 184 459 184

C459 182 456 179 455 179

C451 179 450 185 453 187

C455 188 456 188 457 186

Z

M516 187

C517 186 517 184 517 182

C516 180 515 180 513 180

C510 180 509 181 509 183

C509 187 513 190 516 187

Z

M471 183

C471 181 470 178 468 178

C464 176 460 181 464 184

C466 186 469 185 471 183

Z

M564 183

C565 181 564 178 562 178

C558 176 554 181 558 184

C560 186 563 186 564 183

Z

M143 184

C144 184 144 182 144 180

C143 177 140 176 137 178

C133 181 138 187 143 184

Z

M178 183

C179 182 179 180 178 179

C176 175 170 177 170 181

C170 185 176 187 178 183

Z

M154 182

C157 180 156 176 151 176

C149 176 147 178 147 180

C147 181 150 184 152 184

C152 184 154 183 154 182

Z

M166 183

C167 182 167 180 167 179

C167 177 166 177 163 177

C160 177 159 177 159 179

C159 182 161 184 163 184

C164 184 165 183 166 183

Z

M332 182

C334 179 333 177 331 176

C327 174 325 176 325 180

C325 183 330 185 332 182

Z

M480 183

C483 181 482 175 478 175

C477 175 474 178 474 180

C474 181 477 184 478 184

C478 184 479 184 480 183

Z

M552 181

C554 178 552 176 548 176

C546 176 545 176 545 178

C545 183 550 185 552 181

Z

M429 180

C430 178 429 175 426 174

C422 173 419 178 422 181

C424 183 428 182 429 180

Z

M305 180

C308 176 304 171 300 174

C297 176 298 181 302 181

C303 181 304 180 305 180

Z

M540 180

C542 178 541 174 539 173

C538 173 537 173 535 173

C531 175 533 181 537 181

C538 181 539 180 540 180

Z

M442 176

C442 170 435 169 434 174

C434 178 435 179 438 179

C441 179 442 178 442 176

Z

M503 178

C504 177 504 175 504 174

C503 170 496 171 496 175

C496 179 501 180 503 178

Z

M523 176

C524 174 524 174 522 172

C518 168 513 173 517 177

C519 180 521 179 523 176

Z

M322 175

C323 175 324 173 324 173

C324 171 321 168 320 168

C316 168 315 174 318 176

C320 177 321 177 322 175

Z

M463 173

C464 169 459 166 456 169

C455 170 455 174 456 175

C456 176 458 176 459 176

C461 176 462 175 463 173

Z

M117 173

C120 170 111 168 104 169

C99 170 99 173 104 174

C108 175 116 174 117 173

Z

M475 171

C475 169 472 166 470 166

C469 166 468 167 467 169

C466 171 466 171 468 173

C470 175 470 175 472 174

C474 173 475 172 475 171

Z

M560 172

C562 169 560 167 557 166

C553 166 551 169 553 172

C554 175 559 174 560 172

Z

M301 167

C306 161 306 160 295 157

C291 156 285 152 280 148

C275 145 271 142 270 142

C267 142 270 145 277 151

C281 155 285 160 287 163

C291 168 295 173 296 173

C296 173 299 170 301 167

Z

M424 170

C428 166 423 161 419 165

C416 167 416 169 419 170

C422 172 422 172 424 170

Z

M548 171

C549 170 549 168 549 166

C548 164 547 164 545 164

C542 164 541 165 541 167

C541 171 545 174 548 171

Z

M70 167

C70 165 70 164 68 163

C65 163 62 164 62 167

C62 169 64 171 67 171

C69 171 70 170 70 167

Z

M312 170

C315 169 315 164 312 163

C308 161 303 167 308 170

C310 171 310 171 312 170

Z

M509 168

C511 166 511 165 509 163

C507 161 505 161 503 164

C502 165 502 166 504 168

C505 170 507 171 509 168

Z

M83 166

C83 162 80 160 77 162

C73 164 75 169 80 169

C82 169 83 168 83 166

Z

M527 167

C529 165 529 162 527 161

C523 158 519 165 523 168

C525 169 526 169 527 167

Z

M440 166

C442 163 440 161 436 161

C434 161 433 161 433 163

C433 168 438 170 440 166

Z

M397 165

C399 162 399 160 396 159

C394 158 393 158 392 160

C390 162 389 163 392 165

C394 168 396 167 397 165

Z

M385 162

C385 159 384 158 382 158

C378 158 375 162 378 165

C379 166 381 166 382 166

C384 166 385 165 385 162

Z

M159 164

C159 163 156 159 153 154

C150 150 145 143 143 138

C141 134 139 130 138 130

C138 129 135 131 132 134

C126 140 126 140 136 146

C140 149 145 153 150 157

C156 165 159 167 159 164

Z

M178 161

C180 160 183 157 184 155

C187 152 190 142 192 136

L192 132

L187 132

C184 132 180 132 179 131

C177 131 177 131 177 134

C177 136 178 140 179 142

C181 149 180 150 177 146

C175 145 173 144 173 145

C173 147 172 164 173 164

C173 164 176 163 178 161

Z

M170 160

C170 159 170 157 171 156

C171 154 171 152 170 149

C170 144 167 143 166 148

C165 152 165 159 166 161

C167 164 169 163 170 160

Z

M336 158

C336 152 333 145 331 145

C329 146 329 151 331 157

C333 164 337 165 336 158

Z

M345 158

C349 153 351 147 351 136

C351 131 351 127 350 127

C350 126 348 127 347 127

C345 127 342 128 339 129

L335 130

L337 134

C338 137 340 140 341 141

C344 145 343 146 340 144

C338 143 336 143 335 143

C335 143 336 146 337 148

C338 151 339 155 339 157

C339 163 341 163 345 158

Z

M222 159

C227 157 237 151 237 150

C237 150 235 147 232 144

C226 138 226 138 221 147

C218 153 216 154 216 149

C216 145 215 145 212 148

C211 150 208 153 206 155

C203 157 201 158 201 159

C201 159 202 159 203 160

C207 162 217 161 222 159

Z

M517 160

C518 159 518 157 518 156

C517 152 510 153 510 157

C510 161 515 162 517 160

Z

M67 158

C68 155 67 152 64 152

C60 152 59 155 60 158

C61 159 62 160 64 160

C65 160 66 159 67 158

Z

M423 157

C423 151 416 150 415 155

C415 159 416 160 419 160

C422 160 423 159 423 157

Z

M82 156

C84 153 82 151 78 151

C76 151 75 151 75 153

C75 158 80 160 82 156

Z

M584 156

C586 152 580 148 577 152

C576 153 576 154 577 156

C578 159 582 159 584 156

Z

M437 156

C438 155 438 153 438 152

C437 148 430 149 430 153

C430 157 435 158 437 156

Z

M533 153

C534 151 535 148 536 146

C536 142 538 141 539 144

C540 149 541 149 543 145

C544 143 546 139 548 137

C550 135 552 133 552 133

C552 131 540 132 536 134

C530 137 519 146 519 148

C519 150 529 157 531 157

C531 157 532 155 533 153

Z

M204 153

C207 151 212 145 212 143

C212 141 208 142 203 147

C196 153 196 157 204 153

Z

M383 153

C386 151 385 150 383 148

C381 146 381 146 379 147

C376 149 375 151 378 153

C380 155 381 155 383 153

Z

M400 152

C400 149 398 147 396 147

C393 147 392 150 392 153

C393 155 394 155 396 155

C399 155 400 154 400 152

Z

M550 149

C555 143 558 136 555 136

C552 136 543 148 545 150

C546 152 548 151 550 149

Z

M65 147

C67 144 65 142 61 142

C59 142 58 142 58 144

C58 149 63 151 65 147

Z

M421 147

C423 144 421 142 417 142

C415 142 414 142 414 144

C414 149 419 151 421 147

Z

M80 146

C82 143 80 138 77 138

C76 138 73 141 73 143

C73 144 76 147 77 147

C78 147 79 146 80 146

Z

M246 146

C247 145 247 143 247 142

C247 140 246 140 243 140

C240 140 239 140 239 142

C239 145 241 147 243 147

C244 147 245 146 246 146

Z

M472 145

C476 144 479 142 480 142

C482 140 482 140 478 134

C476 131 474 128 474 128

C474 128 471 131 468 134

L462 140

L462 136

C462 134 462 132 462 132

C461 132 459 134 457 135

C454 137 450 139 449 140

C447 141 445 142 445 142

C445 142 447 144 450 145

C456 148 464 148 472 145

Z

M580 146

C581 146 581 144 581 142

C580 139 577 138 574 140

C570 143 575 149 580 146

Z

M434 144

C436 140 430 136 427 140

C426 141 426 142 427 144

C428 147 432 147 434 144

Z

M400 142

C401 140 401 139 400 138

C398 135 394 136 393 138

C392 140 392 141 394 142

C396 145 399 144 400 142

Z

M29 139

C29 136 28 135 26 135

C22 135 19 139 22 142

C23 143 25 143 26 143

C28 143 29 142 29 139

Z

M40 142

C41 141 41 139 41 138

C40 134 33 135 33 139

C33 143 38 144 40 142

Z

M385 140

C385 137 383 135 381 135

C378 135 377 138 377 141

C378 143 379 143 381 143

C384 143 385 142 385 140

Z

M255 139

C256 138 256 136 256 135

C255 131 248 132 248 136

C248 140 253 141 255 139

Z

M295 139

C298 135 294 130 290 132

C288 133 287 138 290 139

C292 140 293 140 295 139

Z

M306 139

C310 136 306 129 302 132

C300 133 299 137 302 139

C303 139 304 140 304 140

C304 140 305 139 306 139

Z

M493 137

C494 135 494 134 492 133

C490 130 487 131 486 133

C485 135 485 136 486 137

C488 140 492 139 493 137

Z

M125 136

C127 134 127 131 125 130

C121 127 117 134 121 137

C123 138 124 138 125 136

Z

M451 136

C456 133 460 129 458 128

C457 126 453 128 447 132

C440 137 442 140 451 136

Z

M65 135

C67 132 64 128 60 130

C58 130 57 134 58 136

C60 138 64 137 65 135

Z

M238 134

C238 131 236 129 234 129

C231 129 230 132 230 135

C231 137 232 137 234 137

C237 137 238 136 238 134

Z

M77 134

C79 132 79 132 78 130

C77 127 75 127 73 127

C70 128 69 132 72 134

C74 136 75 136 77 134

Z

M422 135

C426 134 428 133 429 132

C429 132 428 128 426 124

C424 121 422 118 422 118

C422 117 424 118 426 119

C428 119 429 120 430 120

C430 120 429 117 428 114

C427 111 426 107 426 105

C426 103 426 101 425 101

C423 101 417 109 415 113

C414 120 413 136 415 136

C416 136 419 135 422 135

Z

M578 134

C581 132 580 130 578 129

C576 127 575 127 574 128

C571 130 571 132 573 134

C575 136 576 136 578 134

Z

M502 133

C505 131 504 128 502 127

C500 126 499 126 498 127

C495 129 496 133 498 134

C500 135 501 135 502 133

Z

M22 132

C23 131 23 129 23 128

C23 126 22 125 19 125

C17 125 16 125 15 127

C14 132 19 135 22 132

Z

M34 132

C37 128 33 123 29 125

C27 126 26 131 29 132

C31 133 32 133 34 132

Z

M45 132

C48 131 48 126 45 125

C41 123 36 129 41 132

C43 133 43 133 45 132

Z

M398 132

C401 130 401 126 398 125

C396 124 395 124 394 125

C391 127 392 131 394 132

C396 133 396 133 398 132

Z

M264 130

C265 127 264 124 261 124

C259 124 258 125 257 126

C256 129 257 132 261 132

C262 132 263 131 264 130

Z

M386 130

C388 127 386 125 382 125

C380 125 379 125 379 127

C379 132 384 134 386 130

Z

M117 128

C119 125 118 122 115 122

C110 122 109 126 112 128

C114 131 116 130 117 128

Z

M288 129

C292 126 288 119 284 122

C282 123 281 127 284 129

C285 129 286 130 286 130

C286 130 287 129 288 129

Z

M135 127

C138 125 137 123 135 122

C131 119 127 123 130 127

C131 129 133 130 135 127

Z

M244 127

C247 125 246 124 244 122

C240 118 235 123 239 127

C241 129 242 129 244 127

Z

M301 128

C304 124 300 119 296 122

C293 124 294 129 298 129

C299 129 300 128 301 128

Z

M313 127

C315 124 313 122 309 122

C307 122 306 122 306 124

C306 129 311 131 313 127

Z

M512 127

C515 125 514 124 512 121

C510 119 508 120 506 123

C505 124 505 125 506 127

C509 129 510 130 512 127

Z

M486 126

C488 123 486 121 483 120

C479 120 477 123 479 126

C480 129 485 128 486 126

Z

M74 123

C74 122 72 118 71 114

C68 109 67 103 66 97

C63 85 63 84 62 86

C60 87 60 89 61 97

C62 105 61 109 60 115

C58 127 58 127 67 126

C72 125 74 124 74 123

Z

M180 126

C183 125 183 120 180 119

C176 117 171 123 176 126

C178 127 178 127 180 126

Z

M195 124

C195 120 192 118 189 120

C185 122 187 127 192 127

C194 127 195 126 195 124

Z

M338 123

C339 122 339 120 338 119

C336 115 330 117 330 121

C330 125 336 127 338 123

Z

M578 123

C580 121 579 118 577 117

C574 115 570 119 571 123

C572 124 576 124 578 123

Z

M27 122

C30 120 29 116 27 115

C23 112 19 119 23 122

C24 122 25 123 25 123

C25 123 26 122 27 122

Z

M272 120

C273 116 268 113 265 116

C264 117 264 121 265 122

C265 123 267 123 268 123

C270 123 271 122 272 120

Z

M40 121

C42 119 41 116 39 115

C36 113 32 117 33 121

C34 122 38 122 40 121

Z

M350 121

C351 120 351 118 351 117

C351 115 350 114 347 114

C345 114 344 114 343 116

C342 121 347 124 350 121

Z

M397 119

C397 118 396 114 395 111

C394 107 394 102 394 94

C394 84 393 82 392 82

C391 82 390 84 389 92

C389 97 387 105 386 109

C384 112 383 117 383 118

C382 121 382 121 387 121

C398 122 397 122 397 119

Z

M521 120

C523 118 523 117 521 115

C519 113 517 113 515 116

C514 117 514 118 516 120

C517 122 519 123 521 120

Z

M110 120

C112 118 111 115 109 114

C106 112 102 116 103 120

C104 121 108 121 110 120

Z

M252 119

C255 116 254 113 249 113

C247 113 246 114 246 116

C246 120 249 122 252 119

Z

M495 119

C497 116 495 114 491 114

C489 114 488 114 488 116

C488 117 488 119 488 120

C489 122 494 121 495 119

Z

M232 116

C232 114 229 111 228 111

C226 111 223 114 223 115

C223 116 224 117 225 118

C227 120 227 120 229 119

C231 118 232 117 232 116

Z

M130 116

C130 110 123 109 122 114

C122 118 123 119 126 119

C129 119 130 118 130 116

Z

M219 117

C221 114 219 112 216 111

C213 111 211 113 212 117

C213 119 214 119 216 119

C217 119 219 118 219 117

Z

M295 117

C297 114 295 112 291 112

C289 112 288 112 288 114

C288 119 293 121 295 117

Z

M306 117

C309 115 308 111 303 111

C300 111 299 114 301 117

C302 119 304 120 306 117

Z

M435 113

C435 107 433 101 431 100

C429 100 429 101 429 104

C429 110 432 118 434 118

C435 118 435 116 435 113

Z

M196 115

C197 114 197 112 197 110

C196 108 195 108 193 108

C190 108 189 109 189 111

C189 115 193 118 196 115

Z

M181 111

C181 109 181 108 179 107

C176 107 173 108 173 111

C173 113 175 115 178 115

C180 115 181 114 181 111

Z

M280 106

C282 103 287 97 291 92

C298 85 300 82 297 82

C297 82 293 85 288 88

C284 92 278 96 274 98

C270 100 266 102 265 103

L263 104

L268 110

C274 116 275 116 280 106

Z

M505 113

C507 110 505 107 501 107

C498 107 496 111 498 113

C500 116 504 115 505 113

Z

M547 96

C552 92 556 89 556 89

C556 87 554 87 544 92

C539 95 532 97 529 98

C526 99 522 100 520 101

L517 102

L520 106

C521 109 523 112 524 113

L525 115

L532 108

C536 104 542 99 547 96

Z

M262 113

C263 112 263 110 263 108

C262 106 261 106 259 106

C256 106 255 107 255 109

C255 113 259 116 262 113

Z

M334 112

C335 110 335 109 333 108

C331 105 328 106 327 108

C326 110 326 111 327 112

C329 115 333 114 334 112

Z

M103 111

C104 110 104 108 104 107

C103 103 96 104 96 108

C96 112 101 113 103 111

Z

M121 109

C123 108 123 107 122 105

C121 103 117 102 115 105

C114 106 114 107 115 109

C116 111 119 112 121 109

Z

M348 109

C352 105 347 100 343 104

C341 106 341 107 343 109

C345 112 346 111 348 109

Z

M516 107

C516 105 515 102 512 102

C510 102 508 104 508 107

C508 111 515 112 516 107

Z

M586 109

C588 109 587 107 584 100

C582 97 581 94 581 93

C582 93 583 94 585 95

C589 96 590 96 588 93

C587 92 586 87 586 83

L585 76

L580 81

C575 86 573 90 572 102

L572 111

L578 111

C581 110 585 110 586 109

Z

M212 108

C215 106 214 102 212 101

C208 98 204 105 208 108

C209 108 210 109 210 109

C210 109 211 108 212 108

Z

M225 108

C226 107 226 105 226 104

C226 102 225 102 222 102

C219 102 218 102 218 104

C218 107 220 109 222 109

C223 109 224 108 225 108

Z

M237 108

C239 106 238 103 236 102

C233 100 229 104 230 108

C231 109 235 109 237 108

Z

M197 101

C197 97 195 95 191 97

C188 98 188 103 192 104

C194 105 197 103 197 101

Z

M181 102

C183 98 181 96 177 96

C174 96 173 99 175 102

C177 105 180 105 181 102

Z

M113 102

C115 100 114 97 112 96

C109 94 105 98 106 102

C107 103 111 103 113 102

Z

M252 92

C253 86 255 79 256 77

C257 75 259 71 260 68

C261 63 261 63 252 63

L246 62

L247 68

C247 72 247 81 248 88

C248 104 248 103 249 103

C250 103 251 98 252 92

Z

M331 101

C333 98 331 96 327 96

C325 96 324 96 324 98

C324 99 324 101 324 102

C325 104 330 103 331 101

Z

M102 89

C101 88 98 86 95 85

C90 82 90 81 93 81

C99 81 99 80 95 76

C92 74 89 70 88 68

L86 65

L84 68

C84 69 83 73 83 77

C83 82 84 85 86 90

C88 93 90 98 91 99

L93 102

L99 97

L105 92

L102 89

Z

M345 98

C348 96 347 93 345 92

C343 91 342 91 341 92

C338 94 339 98 341 99

C343 100 344 100 345 98

Z

M231 98

C232 97 232 95 232 94

C232 92 231 91 228 91

C226 91 225 91 224 94

C223 98 228 101 231 98

Z

M220 96

C221 94 220 91 218 91

C214 89 211 93 213 97

C215 99 219 98 220 96

Z

M507 95

C507 94 503 92 497 90

C492 88 486 85 484 83

C479 80 472 76 471 76

C471 77 467 89 468 90

C468 90 473 91 478 91

C485 92 491 93 496 94

C505 97 507 98 507 95

Z

M49 85

C53 76 54 74 60 65

C61 62 63 59 63 59

C63 57 51 54 49 54

C48 55 48 59 48 64

C48 71 47 76 45 83

C43 94 43 94 45 94

C46 94 47 90 49 85

Z

M182 91

C184 89 184 89 183 87

C182 84 180 84 178 84

C175 85 174 89 177 91

C179 93 180 93 182 91

Z

M196 91

C198 87 192 83 189 87

C188 88 188 89 189 91

C190 94 194 94 196 91

Z

M360 88

C359 85 357 83 354 85

C352 86 352 90 354 91

C357 93 360 92 360 88

Z

M329 91

C330 90 330 88 330 87

C330 85 329 84 326 84

C324 84 323 84 322 86

C321 91 326 94 329 91

Z

M372 89

C372 85 369 83 366 85

C362 87 364 92 369 92

C371 92 372 91 372 89

Z

M464 89

C466 86 464 84 460 84

C458 84 457 84 457 86

C457 87 457 89 457 90

C458 92 463 91 464 89

Z

M341 88

C344 87 344 82 341 81

C337 79 333 84 336 88

C338 89 339 89 341 88

Z

M452 87

C454 86 454 85 453 83

C451 80 445 81 445 85

C445 86 448 89 450 89

C450 89 452 88 452 87

Z

M520 87

C521 86 521 84 521 83

C520 79 513 80 513 84

C513 88 518 89 520 87

Z

M443 82

C443 80 440 77 439 77

C437 77 434 80 434 81

C434 82 435 83 436 84

C438 86 438 86 440 85

C442 84 443 83 443 82

Z

M508 84

C511 82 510 80 508 79

C506 77 505 77 504 78

C501 80 501 82 503 84

C505 86 506 86 508 84

Z

M193 78

C193 75 192 72 191 70

C191 67 190 61 190 54

C190 37 187 36 186 53

C185 57 183 64 182 69

C178 82 178 82 187 82

L194 82

L193 78

Z

M354 79

C354 75 351 73 348 75

C344 77 346 82 351 82

C353 82 354 81 354 79

Z

M365 81

C366 80 366 78 366 77

C366 75 365 75 362 75

C359 75 358 75 358 77

C358 80 360 82 362 82

C363 82 364 81 365 81

Z

M377 81

C380 77 376 72 372 74

C368 76 370 82 374 82

C375 82 376 81 377 81

Z

M329 80

C331 80 334 79 335 79

C337 78 338 77 338 77

C338 76 336 72 334 68

C331 64 328 57 327 53

C324 43 323 40 322 40

C321 40 321 44 323 54

C324 60 324 65 323 70

C323 78 323 81 325 81

C325 81 327 81 329 80

Z

M431 80

C434 77 431 71 427 73

C424 74 423 78 426 80

C428 81 429 81 431 80

Z

M467 77

C468 77 469 75 469 75

C469 73 466 70 465 70

C463 70 460 74 461 75

C463 79 465 80 467 77

Z

M528 78

C531 74 527 69 523 72

C520 74 521 79 525 79

C526 79 527 78 528 78

Z

M102 76

C103 72 93 61 90 62

C88 64 89 66 94 71

C99 77 101 78 102 76

Z

M516 75

C518 73 518 72 517 71

C515 68 513 68 511 70

C509 72 509 73 511 75

C513 78 515 77 516 75

Z

M144 72

C147 70 151 67 154 65

L158 62

L152 57

C149 54 146 52 146 52

C145 53 142 58 139 64

L138 68

L137 65

C136 63 136 61 135 60

C135 59 134 60 132 63

C131 66 128 69 126 71

C121 74 121 75 124 75

C128 77 138 75 144 72

Z

M422 68

C423 64 424 60 423 60

C423 60 419 59 415 59

L407 58

L409 57

C411 56 412 54 412 54

C412 54 410 53 407 52

C404 51 400 50 398 49

C393 47 393 47 395 54

C397 60 406 69 413 72

C416 74 419 75 419 75

C419 75 420 72 422 68

Z

M506 71

C506 69 503 66 502 66

C500 66 497 69 497 70

C497 71 498 72 499 73

C501 75 501 75 503 74

C505 73 506 72 506 71

Z

M457 73

C458 72 458 70 458 69

C457 65 450 66 450 70

C450 74 455 75 457 73

Z

M358 71

C362 68 358 62 354 64

C351 66 352 72 356 72

C356 72 357 71 358 71

Z

M370 70

C371 70 372 68 372 68

C372 66 369 63 368 63

C364 63 363 69 366 71

C368 72 369 72 370 70

Z

M126 67

C130 62 132 58 130 57

C128 55 117 67 118 70

C120 72 122 71 126 67

Z

M446 69

C448 67 448 67 447 65

C446 62 444 62 442 62

C439 63 438 67 441 69

C443 71 444 71 446 69

Z

M385 58

C382 53 379 46 378 44

C377 38 374 32 373 32

C371 32 361 39 361 40

C361 41 364 44 368 47

C371 49 376 55 380 59

C388 70 388 70 389 69

C390 69 388 65 385 58

Z

M436 65

C436 61 433 59 430 61

C426 63 428 68 433 68

C435 68 436 67 436 65

Z

M524 67

C526 65 525 61 523 60

C519 58 515 64 519 67

C521 68 522 68 524 67

Z

M514 63

C514 61 513 58 511 58

C507 56 503 61 507 64

C509 66 512 65 514 63

Z

M576 65

C579 61 575 56 571 59

C568 61 569 66 573 66

C574 66 575 65 576 65

Z

M565 63

C566 62 566 61 565 59

C564 56 560 56 558 59

C556 63 562 67 565 63

Z

M554 61

C556 57 550 53 547 57

C546 58 546 59 547 61

C548 64 552 64 554 61

Z

M263 59

C266 57 265 55 263 54

C261 52 260 52 259 53

C256 55 256 57 258 59

C260 61 261 61 263 59

Z

M250 58

C254 55 251 50 246 52

C243 52 243 56 245 58

C247 60 247 60 250 58

Z

M542 58

C545 56 544 55 542 53

C538 49 533 54 537 58

C539 60 540 60 542 58

Z

M166 54

C166 52 166 51 164 50

C161 50 158 51 158 54

C158 56 160 58 163 58

C165 58 166 57 166 54

Z

M216 56

C219 55 219 50 216 49

C212 47 207 53 212 56

C214 57 214 57 216 56

Z

M229 55

C231 52 229 50 225 50

C223 50 222 50 222 52

C222 57 227 59 229 55

Z

M68 53

C69 50 68 47 65 47

C61 47 60 50 61 53

C62 54 63 55 65 55

C66 55 67 54 68 53

Z

M532 49

C532 45 533 42 533 41

C533 40 530 39 523 40

C520 41 516 41 516 41

C516 40 517 39 518 38

C522 35 522 34 518 34

C516 34 511 33 508 32

C501 30 501 30 505 38

C507 44 514 49 523 52

C526 54 529 55 530 55

C530 55 531 52 532 49

Z

M579 51

C580 48 579 45 576 45

C572 45 571 48 572 51

C573 52 574 53 576 53

C577 53 578 52 579 51

Z

M56 48

C56 42 49 41 48 46

C48 50 49 51 52 51

C55 51 56 50 56 48

Z

M155 49

C157 46 155 41 152 41

C151 41 148 44 148 46

C148 47 151 50 152 50

C153 50 154 49 155 49

Z

M174 48

C175 47 175 46 174 44

C173 42 170 41 168 44

C166 45 166 46 167 48

C168 50 172 51 174 48

Z

M265 48

C268 46 267 43 265 42

C263 41 262 41 261 42

C258 44 259 48 261 49

C263 50 264 50 265 48

Z

M413 48

C413 46 407 43 401 42

C397 42 396 42 396 43

C396 45 399 47 405 49

C410 50 413 50 413 48

Z

M567 48

C570 46 569 44 567 43

C565 41 564 41 563 42

C560 44 560 46 562 48

C564 50 565 50 567 48

Z

M116 44

C116 41 115 40 113 40

C109 40 106 44 109 47

C110 48 112 48 113 48

C115 48 116 47 116 44

Z

M251 44

C251 41 250 40 248 40

C244 40 241 44 244 47

C245 48 247 48 248 48

C250 48 251 47 251 44

Z

M557 45

C558 43 558 43 556 41

C554 39 553 39 551 41

C549 43 549 44 551 46

C553 49 555 48 557 45

Z

M235 46

C236 45 236 43 236 42

C236 40 235 39 232 39

C230 39 229 39 228 41

C227 46 232 49 235 46

Z

M545 46

C548 42 544 37 540 39

C536 41 538 47 542 47

C543 47 544 46 545 46

Z

M127 45

C130 41 126 36 122 38

C118 40 120 46 124 46

C125 46 126 45 127 45

Z

M212 44

C213 43 213 41 212 40

C210 36 204 38 204 42

C204 46 210 48 212 44

Z

M224 42

C224 40 224 39 222 38

C219 38 216 39 216 42

C216 44 218 46 221 46

C223 46 224 45 224 42

Z

M71 44

C74 42 74 38 71 37

C69 36 68 36 67 37

C64 39 65 43 67 44

C69 45 69 45 71 44

Z

M180 41

C183 40 183 35 180 34

C176 32 171 38 176 41

C178 42 178 42 180 41

Z

M300 39

C303 37 302 35 300 34

C296 31 291 35 295 39

C297 41 298 42 300 39

Z

M57 39

C60 35 56 30 52 33

C50 34 49 37 51 39

C53 40 55 40 57 39

Z

M162 38

C164 35 162 33 158 33

C156 33 155 33 155 35

C155 36 155 38 155 39

C156 41 161 40 162 38

Z

M108 37

C110 33 104 29 101 33

C100 34 100 35 101 37

C102 40 106 40 108 37

Z

M312 38

C315 36 313 31 310 31

C307 31 305 33 305 35

C305 38 309 40 312 38

Z

M267 37

C269 35 268 32 266 31

C263 29 259 33 260 37

C261 38 265 38 267 37

Z

M360 37

C363 36 363 31 360 30

C356 28 351 34 356 37

C358 38 358 38 360 37

Z

M118 36

C121 35 121 30 118 29

C114 27 109 33 114 36

C116 37 116 37 118 36

Z

M252 34

C253 32 253 32 251 30

C249 28 249 28 247 29

C244 31 243 33 246 35

C248 38 250 37 252 34

Z

M32 34

C35 32 34 31 32 28

C30 27 29 27 28 28

C25 30 24 32 26 34

C29 36 30 37 32 34

Z

M218 34

C220 31 218 29 215 28

C211 28 209 33 212 35

C214 36 217 36 218 34

Z

M230 34

C231 33 231 32 230 30

C229 28 226 27 224 30

C222 31 222 32 223 34

C224 36 228 37 230 34

Z

M424 35

C425 32 414 21 411 22

C409 23 410 25 415 31

C420 36 422 37 424 35

Z

M74 33

C77 32 77 27 74 26

C70 24 65 30 70 33

C72 34 72 34 74 33

Z

M132 31

C133 27 128 24 125 27

C124 28 124 32 125 33

C125 34 127 34 128 34

C130 34 131 33 132 31

Z

M22 30

C23 26 18 23 15 26

C14 27 14 31 15 32

C15 33 17 33 18 33

C20 33 21 32 22 30

Z

M168 31

C172 28 168 21 164 24

C162 25 161 29 164 31

C165 31 166 32 166 32

C166 32 167 31 168 31

Z

M188 30

C189 29 189 27 188 26

C186 22 180 24 180 28

C180 32 186 34 188 30

Z

M294 28

C294 25 292 23 290 23

C287 23 286 26 286 29

C287 31 288 31 290 31

C293 31 294 30 294 28

Z

M521 29

C521 27 516 25 509 25

C505 25 505 25 505 26

C505 29 510 31 517 31

C520 31 521 31 521 29

Z

M372 29

C374 27 373 24 371 23

C368 21 364 25 365 29

C366 30 370 30 372 29

Z

M476 27

C479 26 482 25 482 24

C482 23 475 11 474 11

C474 11 471 13 468 17

C465 20 462 22 462 22

C461 22 461 20 462 19

C462 17 462 15 461 15

C461 15 459 16 456 18

C454 20 450 22 448 22

C444 24 444 24 447 26

C455 31 465 31 476 27

Z

M61 25

C61 23 61 22 59 21

C56 21 53 22 53 25

C53 27 55 29 58 29

C60 29 61 28 61 25

Z

M306 26

C307 22 302 19 299 22

C298 23 298 27 299 28

C299 29 301 29 302 29

C304 29 305 28 306 26

Z

M353 27

C355 26 355 25 354 23

C352 20 346 21 346 25

C346 26 349 29 351 29

C351 29 353 28 353 27

Z

M111 27

C112 26 112 24 112 23

C111 19 104 20 104 24

C104 28 109 29 111 27

Z

M316 26

C319 24 318 22 316 21

C312 18 308 22 311 26

C312 28 314 29 316 26

Z

M40 25

C44 21 39 16 35 20

C33 22 32 23 35 25

C37 27 38 27 40 25

Z

M266 26

C269 24 268 20 265 19

C261 17 258 23 261 26

C263 27 264 27 266 26

Z

M122 25

C125 23 124 19 122 18

C118 15 114 22 118 25

C119 25 120 26 120 26

C120 26 121 25 122 25

Z

M253 24

C254 24 255 22 255 22

C255 20 252 17 251 17

C247 17 246 23 249 25

C251 26 252 26 253 24

Z

M29 23

C31 21 30 18 28 17

C25 15 21 19 22 23

C23 24 27 24 29 23

Z

M178 22

C179 20 179 19 178 18

C176 15 174 14 172 16

C170 19 169 20 172 22

C174 25 175 24 178 22

Z

M492 22

C493 21 493 19 493 18

C492 14 485 15 485 19

C485 23 490 24 492 22

Z

M17 21

C19 19 18 16 16 15

C12 12 8 17 11 21

C13 22 15 22 17 21

Z

M78 19

C78 15 75 13 72 15

C68 17 70 22 75 22

C77 22 78 21 78 19

Z

M455 15

C459 13 460 10 457 10

C454 10 445 15 443 17

C443 18 443 19 443 20

C444 21 444 21 448 19

C450 19 453 17 455 15

Z

M298 18

C299 16 299 15 297 14

C295 11 292 12 291 14

C290 16 290 17 291 18

C293 21 297 20 298 18

Z

M367 18

C369 15 367 12 363 12

C360 12 358 16 360 18

C362 21 366 20 367 18

Z

M64 17

C66 15 66 14 64 12

C62 10 60 10 58 13

C57 14 57 15 59 17

C60 19 62 20 64 17

Z

M308 18

C310 17 311 13 308 11

C307 10 306 10 304 11

C302 12 301 15 304 17

C305 19 306 19 308 18

Z

M348 16

C348 13 346 11 344 11

C341 11 340 14 340 17

C341 19 342 19 344 19

C347 19 348 18 348 16

Z

M503 17

C505 14 504 12 502 11

C498 9 496 11 496 15

C496 18 501 20 503 17

Z

M37 14

C38 12 38 8 35 8

C33 7 30 8 30 10

C28 14 34 17 37 14

Z

M583 13

C585 10 583 7 579 7

C576 7 574 11 576 13

C578 16 582 15 583 13

Z

M25 12

C28 9 25 4 21 5

C16 6 18 13 22 13

C23 13 24 12 25 12

Z

M513 11

C515 7 513 5 509 5

C507 5 506 6 506 8

C505 13 511 15 513 11

Z

M485 10

C488 8 487 5 485 4

C483 3 482 3 481 4

C478 6 479 10 481 11

C483 12 484 12 485 10

Z

M571 11

C573 9 572 6 570 5

C567 3 563 7 564 11

C565 12 569 12 571 11

Z

M360 10

C363 6 359 1 355 3

C353 4 352 9 355 10

C357 11 358 11 360 10

Z

M342 8

C344 6 343 3 341 2

C338 0 334 4 335 8

C336 9 340 9 342 8

Z

M263 590

C262 588 264 588 266 589

C267 591 267 591 266 591

C265 591 264 591 263 590

Z

"/>

</svg>

